<?xml version='1.0' encoding='utf-8'?>
<mlt title="Anonymous Submission" LC_NUMERIC="fr_FR.UTF-8" producer="main bin" version="6.12.0" root="/home/bordun/Clip02_RespecteLaPuissancePapale/Video">
 <profile frame_rate_num="50" sample_aspect_num="1" display_aspect_den="9" colorspace="709" progressive="1" description="HD 1080p 50 fps" display_aspect_num="16" frame_rate_den="1" width="1920" height="1080" sample_aspect_den="1"/>
 <producer title="Anonymous Submission" id="1" in="0" out="14561">
  <property name="length">00:04:51:12</property>
  <property name="eof">pause</property>
  <property name="resource">/media/bordun/plagiat/2018-12-10_Plagiat_RespecteLaPuissancePapale/Carte_1/CAM1_2018-12-10_1541_C0000.mov</property>
  <property name="audio_index">2</property>
  <property name="video_index">1</property>
  <property name="mute_on_pause">1</property>
  <property name="mlt_service">avformat-novalidate</property>
  <property name="meta.media.nb_streams">3</property>
  <property name="meta.media.1.stream.type">video</property>
  <property name="meta.media.1.stream.frame_rate">50</property>
  <property name="meta.media.1.stream.sample_aspect_ratio">1</property>
  <property name="meta.media.1.codec.width">1920</property>
  <property name="meta.media.1.codec.height">1080</property>
  <property name="meta.media.1.codec.rotate">0</property>
  <property name="meta.media.1.codec.frame_rate">5000</property>
  <property name="meta.media.1.codec.pix_fmt">yuv422p10le</property>
  <property name="meta.media.1.codec.sample_aspect_ratio">0</property>
  <property name="meta.media.1.codec.colorspace">709</property>
  <property name="meta.media.1.codec.name">prores</property>
  <property name="meta.media.1.codec.long_name">ProRes (iCodec Pro)</property>
  <property name="meta.media.1.codec.bit_rate">366959179</property>
  <property name="meta.attr.1.stream.creation_time.markup">2018-12-10T15:41:17.000000Z</property>
  <property name="meta.attr.1.stream.language.markup">eng</property>
  <property name="meta.attr.1.stream.handler_name.markup">Apple Video Media Handler</property>
  <property name="meta.attr.1.stream.encoder.markup">Apple ProRes 422 HQ</property>
  <property name="meta.attr.1.stream.timecode.markup">15:41:17:21</property>
  <property name="meta.media.2.stream.type">audio</property>
  <property name="meta.media.2.codec.sample_fmt">s32</property>
  <property name="meta.media.2.codec.sample_rate">48000</property>
  <property name="meta.media.2.codec.channels">2</property>
  <property name="meta.media.2.codec.name">pcm_s24le</property>
  <property name="meta.media.2.codec.long_name">PCM signed 24-bit little-endian</property>
  <property name="meta.media.2.codec.bit_rate">2304000</property>
  <property name="meta.attr.2.stream.creation_time.markup">2018-12-10T15:41:17.000000Z</property>
  <property name="meta.attr.2.stream.language.markup">eng</property>
  <property name="meta.attr.2.stream.handler_name.markup">Apple Sound Media Handler</property>
  <property name="meta.attr.2.stream.timecode.markup">15:41:17:21</property>
  <property name="meta.attr.com.apple.proapps.manufacturer.markup">Blackmagic Design</property>
  <property name="meta.attr.com.apple.proapps.cameraName.markup">CAM1</property>
  <property name="meta.attr.com.apple.proapps.isGood.markup">0</property>
  <property name="meta.attr.com.apple.proapps.customgamma.markup">com.blackmagic-design.cinemacamera.filmlog</property>
  <property name="meta.attr.com.blackmagic-design.cinemacamera.uuid.markup">18E5E00548F94923B646613A73C01B56</property>
  <property name="meta.attr.creation_time.markup">2018-12-10T15:41:17.000000Z</property>
  <property name="meta.attr.timecode.markup">15:41:17:21</property>
  <property name="seekable">1</property>
  <property name="meta.media.sample_aspect_num">1</property>
  <property name="meta.media.sample_aspect_den">1</property>
  <property name="aspect_ratio">1</property>
  <property name="kdenlive:folderid">9</property>
  <property name="kdenlive:file_size">13444313961</property>
  <property name="kdenlive:file_hash">ef25fabf181f2da437febd9d2ce92b72</property>
  <property name="global_feed">1</property>
  <property name="meta.media.frame_rate_num">50</property>
  <property name="meta.media.frame_rate_den">1</property>
  <property name="meta.media.colorspace">709</property>
  <property name="meta.media.color_trc">2</property>
  <property name="meta.media.width">1920</property>
  <property name="meta.media.height">1080</property>
  <property name="meta.media.top_field_first">0</property>
  <property name="meta.media.progressive">1</property>
 </producer>
 <producer title="Anonymous Submission" id="5" in="0" out="19246">
  <property name="length">00:06:24:47</property>
  <property name="eof">pause</property>
  <property name="resource">/media/bordun/plagiat/2018-12-10_Plagiat_RespecteLaPuissancePapale/Carte_2/CAM1_2018-12-10_1629_C0000.mov</property>
  <property name="audio_index">2</property>
  <property name="video_index">1</property>
  <property name="mute_on_pause">1</property>
  <property name="mlt_service">avformat-novalidate</property>
  <property name="meta.media.nb_streams">3</property>
  <property name="meta.media.1.stream.type">video</property>
  <property name="meta.media.1.stream.frame_rate">50</property>
  <property name="meta.media.1.stream.sample_aspect_ratio">1</property>
  <property name="meta.media.1.codec.width">1920</property>
  <property name="meta.media.1.codec.height">1080</property>
  <property name="meta.media.1.codec.rotate">0</property>
  <property name="meta.media.1.codec.frame_rate">5000</property>
  <property name="meta.media.1.codec.pix_fmt">yuv422p10le</property>
  <property name="meta.media.1.codec.sample_aspect_ratio">0</property>
  <property name="meta.media.1.codec.colorspace">709</property>
  <property name="meta.media.1.codec.name">prores</property>
  <property name="meta.media.1.codec.long_name">ProRes (iCodec Pro)</property>
  <property name="meta.media.1.codec.bit_rate">366959020</property>
  <property name="meta.attr.1.stream.creation_time.markup">2018-12-10T16:29:10.000000Z</property>
  <property name="meta.attr.1.stream.language.markup">eng</property>
  <property name="meta.attr.1.stream.handler_name.markup">Apple Video Media Handler</property>
  <property name="meta.attr.1.stream.encoder.markup">Apple ProRes 422 HQ</property>
  <property name="meta.attr.1.stream.timecode.markup">16:29:10:24</property>
  <property name="meta.media.2.stream.type">audio</property>
  <property name="meta.media.2.codec.sample_fmt">s32</property>
  <property name="meta.media.2.codec.sample_rate">48000</property>
  <property name="meta.media.2.codec.channels">2</property>
  <property name="meta.media.2.codec.name">pcm_s24le</property>
  <property name="meta.media.2.codec.long_name">PCM signed 24-bit little-endian</property>
  <property name="meta.media.2.codec.bit_rate">2304000</property>
  <property name="meta.attr.2.stream.creation_time.markup">2018-12-10T16:29:10.000000Z</property>
  <property name="meta.attr.2.stream.language.markup">eng</property>
  <property name="meta.attr.2.stream.handler_name.markup">Apple Sound Media Handler</property>
  <property name="meta.attr.2.stream.timecode.markup">16:29:10:24</property>
  <property name="meta.attr.com.apple.proapps.manufacturer.markup">Blackmagic Design</property>
  <property name="meta.attr.com.apple.proapps.cameraName.markup">CAM1</property>
  <property name="meta.attr.com.apple.proapps.isGood.markup">0</property>
  <property name="meta.attr.com.apple.proapps.customgamma.markup">com.blackmagic-design.cinemacamera.filmlog</property>
  <property name="meta.attr.com.blackmagic-design.cinemacamera.uuid.markup">18E5E00548F94923B646613A73C01B56</property>
  <property name="meta.attr.creation_time.markup">2018-12-10T16:29:10.000000Z</property>
  <property name="meta.attr.timecode.markup">16:29:10:24</property>
  <property name="seekable">1</property>
  <property name="meta.media.sample_aspect_num">1</property>
  <property name="meta.media.sample_aspect_den">1</property>
  <property name="aspect_ratio">1</property>
  <property name="kdenlive:folderid">9</property>
  <property name="kdenlive:file_size">17769713233</property>
  <property name="kdenlive:file_hash">40fd95546ae131f6c5881d8660dbcccc</property>
  <property name="global_feed">1</property>
  <property name="meta.media.frame_rate_num">50</property>
  <property name="meta.media.frame_rate_den">1</property>
  <property name="meta.media.colorspace">709</property>
  <property name="meta.media.color_trc">2</property>
  <property name="meta.media.width">1920</property>
  <property name="meta.media.height">1080</property>
  <property name="meta.media.top_field_first">0</property>
  <property name="meta.media.progressive">1</property>
 </producer>
 <producer title="Anonymous Submission" id="4" in="0" out="24870">
  <property name="length">00:08:17:21</property>
  <property name="eof">pause</property>
  <property name="resource">/media/bordun/plagiat/2018-12-10_Plagiat_RespecteLaPuissancePapale/Carte_1/CAM1_2018-12-10_1615_C0003.mov</property>
  <property name="audio_index">2</property>
  <property name="video_index">1</property>
  <property name="mute_on_pause">1</property>
  <property name="mlt_service">avformat-novalidate</property>
  <property name="meta.media.nb_streams">3</property>
  <property name="meta.media.1.stream.type">video</property>
  <property name="meta.media.1.stream.frame_rate">50</property>
  <property name="meta.media.1.stream.sample_aspect_ratio">1</property>
  <property name="meta.media.1.codec.width">1920</property>
  <property name="meta.media.1.codec.height">1080</property>
  <property name="meta.media.1.codec.rotate">0</property>
  <property name="meta.media.1.codec.frame_rate">5000</property>
  <property name="meta.media.1.codec.pix_fmt">yuv422p10le</property>
  <property name="meta.media.1.codec.sample_aspect_ratio">0</property>
  <property name="meta.media.1.codec.colorspace">709</property>
  <property name="meta.media.1.codec.name">prores</property>
  <property name="meta.media.1.codec.long_name">ProRes (iCodec Pro)</property>
  <property name="meta.media.1.codec.bit_rate">366958409</property>
  <property name="meta.attr.1.stream.creation_time.markup">2018-12-10T16:15:42.000000Z</property>
  <property name="meta.attr.1.stream.language.markup">eng</property>
  <property name="meta.attr.1.stream.handler_name.markup">Apple Video Media Handler</property>
  <property name="meta.attr.1.stream.encoder.markup">Apple ProRes 422 HQ</property>
  <property name="meta.attr.1.stream.timecode.markup">16:15:42:33</property>
  <property name="meta.media.2.stream.type">audio</property>
  <property name="meta.media.2.codec.sample_fmt">s32</property>
  <property name="meta.media.2.codec.sample_rate">48000</property>
  <property name="meta.media.2.codec.channels">2</property>
  <property name="meta.media.2.codec.name">pcm_s24le</property>
  <property name="meta.media.2.codec.long_name">PCM signed 24-bit little-endian</property>
  <property name="meta.media.2.codec.bit_rate">2304000</property>
  <property name="meta.attr.2.stream.creation_time.markup">2018-12-10T16:15:42.000000Z</property>
  <property name="meta.attr.2.stream.language.markup">eng</property>
  <property name="meta.attr.2.stream.handler_name.markup">Apple Sound Media Handler</property>
  <property name="meta.attr.2.stream.timecode.markup">16:15:42:33</property>
  <property name="meta.attr.com.apple.proapps.manufacturer.markup">Blackmagic Design</property>
  <property name="meta.attr.com.apple.proapps.cameraName.markup">CAM1</property>
  <property name="meta.attr.com.apple.proapps.isGood.markup">0</property>
  <property name="meta.attr.com.apple.proapps.customgamma.markup">com.blackmagic-design.cinemacamera.filmlog</property>
  <property name="meta.attr.com.blackmagic-design.cinemacamera.uuid.markup">18E5E00548F94923B646613A73C01B56</property>
  <property name="meta.attr.creation_time.markup">2018-12-10T16:15:42.000000Z</property>
  <property name="meta.attr.timecode.markup">16:15:42:33</property>
  <property name="seekable">1</property>
  <property name="meta.media.sample_aspect_num">1</property>
  <property name="meta.media.sample_aspect_den">1</property>
  <property name="aspect_ratio">1</property>
  <property name="kdenlive:folderid">9</property>
  <property name="kdenlive:file_size">22962054105</property>
  <property name="kdenlive:file_hash">c46129788c0a47f07299f13c18fcc857</property>
  <property name="global_feed">1</property>
  <property name="meta.media.frame_rate_num">50</property>
  <property name="meta.media.frame_rate_den">1</property>
  <property name="meta.media.colorspace">709</property>
  <property name="meta.media.color_trc">2</property>
  <property name="meta.media.width">1920</property>
  <property name="meta.media.height">1080</property>
  <property name="meta.media.top_field_first">0</property>
  <property name="meta.media.progressive">1</property>
 </producer>
 <producer title="Anonymous Submission" id="3" in="0" out="11635">
  <property name="length">00:03:52:36</property>
  <property name="eof">pause</property>
  <property name="resource">/media/bordun/plagiat/2018-12-10_Plagiat_RespecteLaPuissancePapale/Carte_1/CAM1_2018-12-10_1601_C0002.mov</property>
  <property name="audio_index">2</property>
  <property name="video_index">1</property>
  <property name="mute_on_pause">1</property>
  <property name="mlt_service">avformat-novalidate</property>
  <property name="meta.media.nb_streams">3</property>
  <property name="meta.media.1.stream.type">video</property>
  <property name="meta.media.1.stream.frame_rate">50</property>
  <property name="meta.media.1.stream.sample_aspect_ratio">1</property>
  <property name="meta.media.1.codec.width">1920</property>
  <property name="meta.media.1.codec.height">1080</property>
  <property name="meta.media.1.codec.rotate">0</property>
  <property name="meta.media.1.codec.frame_rate">5000</property>
  <property name="meta.media.1.codec.pix_fmt">yuv422p10le</property>
  <property name="meta.media.1.codec.sample_aspect_ratio">0</property>
  <property name="meta.media.1.codec.colorspace">709</property>
  <property name="meta.media.1.codec.name">prores</property>
  <property name="meta.media.1.codec.long_name">ProRes (iCodec Pro)</property>
  <property name="meta.media.1.codec.bit_rate">366958785</property>
  <property name="meta.attr.1.stream.creation_time.markup">2018-12-10T16:01:37.000000Z</property>
  <property name="meta.attr.1.stream.language.markup">eng</property>
  <property name="meta.attr.1.stream.handler_name.markup">Apple Video Media Handler</property>
  <property name="meta.attr.1.stream.encoder.markup">Apple ProRes 422 HQ</property>
  <property name="meta.attr.1.stream.timecode.markup">16:01:37:09</property>
  <property name="meta.media.2.stream.type">audio</property>
  <property name="meta.media.2.codec.sample_fmt">s32</property>
  <property name="meta.media.2.codec.sample_rate">48000</property>
  <property name="meta.media.2.codec.channels">2</property>
  <property name="meta.media.2.codec.name">pcm_s24le</property>
  <property name="meta.media.2.codec.long_name">PCM signed 24-bit little-endian</property>
  <property name="meta.media.2.codec.bit_rate">2304000</property>
  <property name="meta.attr.2.stream.creation_time.markup">2018-12-10T16:01:37.000000Z</property>
  <property name="meta.attr.2.stream.language.markup">eng</property>
  <property name="meta.attr.2.stream.handler_name.markup">Apple Sound Media Handler</property>
  <property name="meta.attr.2.stream.timecode.markup">16:01:37:09</property>
  <property name="meta.attr.com.apple.proapps.manufacturer.markup">Blackmagic Design</property>
  <property name="meta.attr.com.apple.proapps.cameraName.markup">CAM1</property>
  <property name="meta.attr.com.apple.proapps.isGood.markup">0</property>
  <property name="meta.attr.com.apple.proapps.customgamma.markup">com.blackmagic-design.cinemacamera.filmlog</property>
  <property name="meta.attr.com.blackmagic-design.cinemacamera.uuid.markup">18E5E00548F94923B646613A73C01B56</property>
  <property name="meta.attr.creation_time.markup">2018-12-10T16:01:37.000000Z</property>
  <property name="meta.attr.timecode.markup">16:01:37:09</property>
  <property name="seekable">1</property>
  <property name="meta.media.sample_aspect_num">1</property>
  <property name="meta.media.sample_aspect_den">1</property>
  <property name="aspect_ratio">1</property>
  <property name="kdenlive:folderid">9</property>
  <property name="kdenlive:file_size">10795373957</property>
  <property name="kdenlive:file_hash">c46cb1ab94a25f5ab196e5d4e002dba1</property>
  <property name="global_feed">1</property>
  <property name="meta.media.frame_rate_num">50</property>
  <property name="meta.media.frame_rate_den">1</property>
  <property name="meta.media.colorspace">709</property>
  <property name="meta.media.color_trc">2</property>
  <property name="meta.media.width">1920</property>
  <property name="meta.media.height">1080</property>
  <property name="meta.media.top_field_first">0</property>
  <property name="meta.media.progressive">1</property>
 </producer>
 <producer title="Anonymous Submission" id="2" in="0" out="11667">
  <property name="length">00:03:53:18</property>
  <property name="eof">pause</property>
  <property name="resource">/media/bordun/plagiat/2018-12-10_Plagiat_RespecteLaPuissancePapale/Carte_1/CAM1_2018-12-10_1552_C0001.mov</property>
  <property name="audio_index">2</property>
  <property name="video_index">1</property>
  <property name="mute_on_pause">1</property>
  <property name="mlt_service">avformat-novalidate</property>
  <property name="meta.media.nb_streams">3</property>
  <property name="meta.media.1.stream.type">video</property>
  <property name="meta.media.1.stream.frame_rate">50</property>
  <property name="meta.media.1.stream.sample_aspect_ratio">1</property>
  <property name="meta.media.1.codec.width">1920</property>
  <property name="meta.media.1.codec.height">1080</property>
  <property name="meta.media.1.codec.rotate">0</property>
  <property name="meta.media.1.codec.frame_rate">5000</property>
  <property name="meta.media.1.codec.pix_fmt">yuv422p10le</property>
  <property name="meta.media.1.codec.sample_aspect_ratio">0</property>
  <property name="meta.media.1.codec.colorspace">709</property>
  <property name="meta.media.1.codec.name">prores</property>
  <property name="meta.media.1.codec.long_name">ProRes (iCodec Pro)</property>
  <property name="meta.media.1.codec.bit_rate">366959328</property>
  <property name="meta.attr.1.stream.creation_time.markup">2018-12-10T15:52:13.000000Z</property>
  <property name="meta.attr.1.stream.language.markup">eng</property>
  <property name="meta.attr.1.stream.handler_name.markup">Apple Video Media Handler</property>
  <property name="meta.attr.1.stream.encoder.markup">Apple ProRes 422 HQ</property>
  <property name="meta.attr.1.stream.timecode.markup">15:52:13:35</property>
  <property name="meta.media.2.stream.type">audio</property>
  <property name="meta.media.2.codec.sample_fmt">s32</property>
  <property name="meta.media.2.codec.sample_rate">48000</property>
  <property name="meta.media.2.codec.channels">2</property>
  <property name="meta.media.2.codec.name">pcm_s24le</property>
  <property name="meta.media.2.codec.long_name">PCM signed 24-bit little-endian</property>
  <property name="meta.media.2.codec.bit_rate">2304000</property>
  <property name="meta.attr.2.stream.creation_time.markup">2018-12-10T15:52:13.000000Z</property>
  <property name="meta.attr.2.stream.language.markup">eng</property>
  <property name="meta.attr.2.stream.handler_name.markup">Apple Sound Media Handler</property>
  <property name="meta.attr.2.stream.timecode.markup">15:52:13:35</property>
  <property name="meta.attr.com.apple.proapps.manufacturer.markup">Blackmagic Design</property>
  <property name="meta.attr.com.apple.proapps.cameraName.markup">CAM1</property>
  <property name="meta.attr.com.apple.proapps.isGood.markup">0</property>
  <property name="meta.attr.com.apple.proapps.customgamma.markup">com.blackmagic-design.cinemacamera.filmlog</property>
  <property name="meta.attr.com.blackmagic-design.cinemacamera.uuid.markup">18E5E00548F94923B646613A73C01B56</property>
  <property name="meta.attr.creation_time.markup">2018-12-10T15:52:13.000000Z</property>
  <property name="meta.attr.timecode.markup">15:52:13:35</property>
  <property name="seekable">1</property>
  <property name="meta.media.sample_aspect_num">1</property>
  <property name="meta.media.sample_aspect_den">1</property>
  <property name="aspect_ratio">1</property>
  <property name="kdenlive:folderid">9</property>
  <property name="kdenlive:file_size">10772440985</property>
  <property name="kdenlive:file_hash">3b4484753689f48a337c1729ea18ad59</property>
  <property name="global_feed">1</property>
  <property name="meta.media.frame_rate_num">50</property>
  <property name="meta.media.frame_rate_den">1</property>
  <property name="meta.media.colorspace">709</property>
  <property name="meta.media.color_trc">2</property>
  <property name="meta.media.width">1920</property>
  <property name="meta.media.height">1080</property>
  <property name="meta.media.top_field_first">0</property>
  <property name="meta.media.progressive">1</property>
 </producer>
 <producer title="Anonymous Submission" id="6" in="0" out="4178">
  <property name="length">00:01:23:29</property>
  <property name="eof">pause</property>
  <property name="resource">/media/bordun/plagiat/2018-12-10_Plagiat_RespecteLaPuissancePapale/Carte_2/CAM1_2018-12-10_1638_C0001.mov</property>
  <property name="audio_index">2</property>
  <property name="video_index">1</property>
  <property name="mute_on_pause">1</property>
  <property name="mlt_service">avformat-novalidate</property>
  <property name="meta.media.nb_streams">3</property>
  <property name="meta.media.1.stream.type">video</property>
  <property name="meta.media.1.stream.frame_rate">50</property>
  <property name="meta.media.1.stream.sample_aspect_ratio">1</property>
  <property name="meta.media.1.codec.width">1920</property>
  <property name="meta.media.1.codec.height">1080</property>
  <property name="meta.media.1.codec.rotate">0</property>
  <property name="meta.media.1.codec.frame_rate">5000</property>
  <property name="meta.media.1.codec.pix_fmt">yuv422p10le</property>
  <property name="meta.media.1.codec.sample_aspect_ratio">0</property>
  <property name="meta.media.1.codec.colorspace">709</property>
  <property name="meta.media.1.codec.name">prores</property>
  <property name="meta.media.1.codec.long_name">ProRes (iCodec Pro)</property>
  <property name="meta.media.1.codec.bit_rate">366955515</property>
  <property name="meta.attr.1.stream.creation_time.markup">2018-12-10T16:38:23.000000Z</property>
  <property name="meta.attr.1.stream.language.markup">eng</property>
  <property name="meta.attr.1.stream.handler_name.markup">Apple Video Media Handler</property>
  <property name="meta.attr.1.stream.encoder.markup">Apple ProRes 422 HQ</property>
  <property name="meta.attr.1.stream.timecode.markup">16:38:23:16</property>
  <property name="meta.media.2.stream.type">audio</property>
  <property name="meta.media.2.codec.sample_fmt">s32</property>
  <property name="meta.media.2.codec.sample_rate">48000</property>
  <property name="meta.media.2.codec.channels">2</property>
  <property name="meta.media.2.codec.name">pcm_s24le</property>
  <property name="meta.media.2.codec.long_name">PCM signed 24-bit little-endian</property>
  <property name="meta.media.2.codec.bit_rate">2304000</property>
  <property name="meta.attr.2.stream.creation_time.markup">2018-12-10T16:38:23.000000Z</property>
  <property name="meta.attr.2.stream.language.markup">eng</property>
  <property name="meta.attr.2.stream.handler_name.markup">Apple Sound Media Handler</property>
  <property name="meta.attr.2.stream.timecode.markup">16:38:23:16</property>
  <property name="meta.attr.com.apple.proapps.manufacturer.markup">Blackmagic Design</property>
  <property name="meta.attr.com.apple.proapps.cameraName.markup">CAM1</property>
  <property name="meta.attr.com.apple.proapps.isGood.markup">0</property>
  <property name="meta.attr.com.apple.proapps.customgamma.markup">com.blackmagic-design.cinemacamera.filmlog</property>
  <property name="meta.attr.com.blackmagic-design.cinemacamera.uuid.markup">18E5E00548F94923B646613A73C01B56</property>
  <property name="meta.attr.creation_time.markup">2018-12-10T16:38:23.000000Z</property>
  <property name="meta.attr.timecode.markup">16:38:23:16</property>
  <property name="seekable">1</property>
  <property name="meta.media.sample_aspect_num">1</property>
  <property name="meta.media.sample_aspect_den">1</property>
  <property name="aspect_ratio">1</property>
  <property name="kdenlive:folderid">10</property>
  <property name="kdenlive:file_size">3858252521</property>
  <property name="kdenlive:file_hash">5c73d3cae02de055fc4255e57a85a699</property>
  <property name="global_feed">1</property>
  <property name="meta.media.frame_rate_num">50</property>
  <property name="meta.media.frame_rate_den">1</property>
  <property name="meta.media.colorspace">709</property>
  <property name="meta.media.color_trc">2</property>
  <property name="meta.media.width">1920</property>
  <property name="meta.media.height">1080</property>
  <property name="meta.media.top_field_first">0</property>
  <property name="meta.media.progressive">1</property>
 </producer>
 <producer title="Anonymous Submission" id="7" in="0" out="8532">
  <property name="length">00:02:50:33</property>
  <property name="eof">pause</property>
  <property name="resource">/media/bordun/plagiat/2018-12-10_Plagiat_RespecteLaPuissancePapale/Carte_2/CAM1_2018-12-10_1642_C0002.mov</property>
  <property name="audio_index">2</property>
  <property name="video_index">1</property>
  <property name="mute_on_pause">1</property>
  <property name="mlt_service">avformat-novalidate</property>
  <property name="meta.media.nb_streams">3</property>
  <property name="meta.media.1.stream.type">video</property>
  <property name="meta.media.1.stream.frame_rate">50</property>
  <property name="meta.media.1.stream.sample_aspect_ratio">1</property>
  <property name="meta.media.1.codec.width">1920</property>
  <property name="meta.media.1.codec.height">1080</property>
  <property name="meta.media.1.codec.rotate">0</property>
  <property name="meta.media.1.codec.frame_rate">5000</property>
  <property name="meta.media.1.codec.pix_fmt">yuv422p10le</property>
  <property name="meta.media.1.codec.sample_aspect_ratio">0</property>
  <property name="meta.media.1.codec.colorspace">709</property>
  <property name="meta.media.1.codec.name">prores</property>
  <property name="meta.media.1.codec.long_name">ProRes (iCodec Pro)</property>
  <property name="meta.media.1.codec.bit_rate">366955794</property>
  <property name="meta.attr.1.stream.creation_time.markup">2018-12-10T16:42:49.000000Z</property>
  <property name="meta.attr.1.stream.language.markup">eng</property>
  <property name="meta.attr.1.stream.handler_name.markup">Apple Video Media Handler</property>
  <property name="meta.attr.1.stream.encoder.markup">Apple ProRes 422 HQ</property>
  <property name="meta.attr.1.stream.timecode.markup">16:42:49:18</property>
  <property name="meta.media.2.stream.type">audio</property>
  <property name="meta.media.2.codec.sample_fmt">s32</property>
  <property name="meta.media.2.codec.sample_rate">48000</property>
  <property name="meta.media.2.codec.channels">2</property>
  <property name="meta.media.2.codec.name">pcm_s24le</property>
  <property name="meta.media.2.codec.long_name">PCM signed 24-bit little-endian</property>
  <property name="meta.media.2.codec.bit_rate">2304000</property>
  <property name="meta.attr.2.stream.creation_time.markup">2018-12-10T16:42:49.000000Z</property>
  <property name="meta.attr.2.stream.language.markup">eng</property>
  <property name="meta.attr.2.stream.handler_name.markup">Apple Sound Media Handler</property>
  <property name="meta.attr.2.stream.timecode.markup">16:42:49:18</property>
  <property name="meta.attr.com.apple.proapps.manufacturer.markup">Blackmagic Design</property>
  <property name="meta.attr.com.apple.proapps.cameraName.markup">CAM1</property>
  <property name="meta.attr.com.apple.proapps.isGood.markup">0</property>
  <property name="meta.attr.com.apple.proapps.customgamma.markup">com.blackmagic-design.cinemacamera.filmlog</property>
  <property name="meta.attr.com.blackmagic-design.cinemacamera.uuid.markup">18E5E00548F94923B646613A73C01B56</property>
  <property name="meta.attr.creation_time.markup">2018-12-10T16:42:49.000000Z</property>
  <property name="meta.attr.timecode.markup">16:42:49:18</property>
  <property name="seekable">1</property>
  <property name="meta.media.sample_aspect_num">1</property>
  <property name="meta.media.sample_aspect_den">1</property>
  <property name="aspect_ratio">1</property>
  <property name="kdenlive:folderid">10</property>
  <property name="kdenlive:file_size">7878058913</property>
  <property name="kdenlive:file_hash">804eaf7e1fe7b8bd61bac5713c20d510</property>
  <property name="global_feed">1</property>
  <property name="meta.media.frame_rate_num">50</property>
  <property name="meta.media.frame_rate_den">1</property>
  <property name="meta.media.colorspace">709</property>
  <property name="meta.media.color_trc">2</property>
  <property name="meta.media.width">1920</property>
  <property name="meta.media.height">1080</property>
  <property name="meta.media.top_field_first">0</property>
  <property name="meta.media.progressive">1</property>
 </producer>
 <producer title="Anonymous Submission" id="16" in="0" out="2403">
  <property name="length">00:00:48:04</property>
  <property name="eof">pause</property>
  <property name="resource">/media/bordun/plagiat/2018-12-10_Plagiat_RespecteLaPuissancePapale/Carte_3/CAM1_2018-12-10_1851_C0005.mov</property>
  <property name="audio_index">2</property>
  <property name="video_index">1</property>
  <property name="mute_on_pause">1</property>
  <property name="mlt_service">avformat-novalidate</property>
  <property name="meta.media.nb_streams">3</property>
  <property name="meta.media.1.stream.type">video</property>
  <property name="meta.media.1.stream.frame_rate">50</property>
  <property name="meta.media.1.stream.sample_aspect_ratio">1</property>
  <property name="meta.media.1.codec.width">1920</property>
  <property name="meta.media.1.codec.height">1080</property>
  <property name="meta.media.1.codec.rotate">0</property>
  <property name="meta.media.1.codec.frame_rate">5000</property>
  <property name="meta.media.1.codec.pix_fmt">yuv422p10le</property>
  <property name="meta.media.1.codec.sample_aspect_ratio">0</property>
  <property name="meta.media.1.codec.colorspace">709</property>
  <property name="meta.media.1.codec.name">prores</property>
  <property name="meta.media.1.codec.long_name">ProRes (iCodec Pro)</property>
  <property name="meta.media.1.codec.bit_rate">366956708</property>
  <property name="meta.attr.1.stream.creation_time.markup">2018-12-10T18:51:16.000000Z</property>
  <property name="meta.attr.1.stream.language.markup">eng</property>
  <property name="meta.attr.1.stream.handler_name.markup">Apple Video Media Handler</property>
  <property name="meta.attr.1.stream.encoder.markup">Apple ProRes 422 HQ</property>
  <property name="meta.attr.1.stream.timecode.markup">18:51:16:13</property>
  <property name="meta.media.2.stream.type">audio</property>
  <property name="meta.media.2.codec.sample_fmt">s32</property>
  <property name="meta.media.2.codec.sample_rate">48000</property>
  <property name="meta.media.2.codec.channels">2</property>
  <property name="meta.media.2.codec.name">pcm_s24le</property>
  <property name="meta.media.2.codec.long_name">PCM signed 24-bit little-endian</property>
  <property name="meta.media.2.codec.bit_rate">2304000</property>
  <property name="meta.attr.2.stream.creation_time.markup">2018-12-10T18:51:16.000000Z</property>
  <property name="meta.attr.2.stream.language.markup">eng</property>
  <property name="meta.attr.2.stream.handler_name.markup">Apple Sound Media Handler</property>
  <property name="meta.attr.2.stream.timecode.markup">18:51:16:13</property>
  <property name="meta.attr.com.apple.proapps.manufacturer.markup">Blackmagic Design</property>
  <property name="meta.attr.com.apple.proapps.cameraName.markup">CAM1</property>
  <property name="meta.attr.com.apple.proapps.isGood.markup">0</property>
  <property name="meta.attr.com.apple.proapps.customgamma.markup">com.blackmagic-design.cinemacamera.filmlog</property>
  <property name="meta.attr.com.blackmagic-design.cinemacamera.uuid.markup">18E5E00548F94923B646613A73C01B56</property>
  <property name="meta.attr.creation_time.markup">2018-12-10T18:51:16.000000Z</property>
  <property name="meta.attr.timecode.markup">18:51:16:13</property>
  <property name="seekable">1</property>
  <property name="meta.media.sample_aspect_num">1</property>
  <property name="meta.media.sample_aspect_den">1</property>
  <property name="aspect_ratio">1</property>
  <property name="kdenlive:folderid">13</property>
  <property name="kdenlive:file_size">2219492305</property>
  <property name="kdenlive:file_hash">5decca499b71c19207e6eb5441ec1c74</property>
  <property name="global_feed">1</property>
  <property name="meta.media.frame_rate_num">50</property>
  <property name="meta.media.frame_rate_den">1</property>
  <property name="meta.media.colorspace">709</property>
  <property name="meta.media.color_trc">2</property>
  <property name="meta.media.width">1920</property>
  <property name="meta.media.height">1080</property>
  <property name="meta.media.top_field_first">0</property>
  <property name="meta.media.progressive">1</property>
 </producer>
 <producer title="Anonymous Submission" id="17" in="0" out="2706">
  <property name="length">00:00:54:07</property>
  <property name="eof">pause</property>
  <property name="resource">/media/bordun/plagiat/2018-12-10_Plagiat_RespecteLaPuissancePapale/Carte_3/CAM1_2018-12-10_1853_C0006.mov</property>
  <property name="audio_index">2</property>
  <property name="video_index">1</property>
  <property name="mute_on_pause">1</property>
  <property name="mlt_service">avformat-novalidate</property>
  <property name="meta.media.nb_streams">3</property>
  <property name="meta.media.1.stream.type">video</property>
  <property name="meta.media.1.stream.frame_rate">50</property>
  <property name="meta.media.1.stream.sample_aspect_ratio">1</property>
  <property name="meta.media.1.codec.width">1920</property>
  <property name="meta.media.1.codec.height">1080</property>
  <property name="meta.media.1.codec.rotate">0</property>
  <property name="meta.media.1.codec.frame_rate">5000</property>
  <property name="meta.media.1.codec.pix_fmt">yuv422p10le</property>
  <property name="meta.media.1.codec.sample_aspect_ratio">0</property>
  <property name="meta.media.1.codec.colorspace">709</property>
  <property name="meta.media.1.codec.name">prores</property>
  <property name="meta.media.1.codec.long_name">ProRes (iCodec Pro)</property>
  <property name="meta.media.1.codec.bit_rate">366954964</property>
  <property name="meta.attr.1.stream.creation_time.markup">2018-12-10T18:53:43.000000Z</property>
  <property name="meta.attr.1.stream.language.markup">eng</property>
  <property name="meta.attr.1.stream.handler_name.markup">Apple Video Media Handler</property>
  <property name="meta.attr.1.stream.encoder.markup">Apple ProRes 422 HQ</property>
  <property name="meta.attr.1.stream.timecode.markup">18:53:43:03</property>
  <property name="meta.media.2.stream.type">audio</property>
  <property name="meta.media.2.codec.sample_fmt">s32</property>
  <property name="meta.media.2.codec.sample_rate">48000</property>
  <property name="meta.media.2.codec.channels">2</property>
  <property name="meta.media.2.codec.name">pcm_s24le</property>
  <property name="meta.media.2.codec.long_name">PCM signed 24-bit little-endian</property>
  <property name="meta.media.2.codec.bit_rate">2304000</property>
  <property name="meta.attr.2.stream.creation_time.markup">2018-12-10T18:53:43.000000Z</property>
  <property name="meta.attr.2.stream.language.markup">eng</property>
  <property name="meta.attr.2.stream.handler_name.markup">Apple Sound Media Handler</property>
  <property name="meta.attr.2.stream.timecode.markup">18:53:43:03</property>
  <property name="meta.attr.com.apple.proapps.manufacturer.markup">Blackmagic Design</property>
  <property name="meta.attr.com.apple.proapps.cameraName.markup">CAM1</property>
  <property name="meta.attr.com.apple.proapps.isGood.markup">0</property>
  <property name="meta.attr.com.apple.proapps.customgamma.markup">com.blackmagic-design.cinemacamera.filmlog</property>
  <property name="meta.attr.com.blackmagic-design.cinemacamera.uuid.markup">18E5E00548F94923B646613A73C01B56</property>
  <property name="meta.attr.creation_time.markup">2018-12-10T18:53:43.000000Z</property>
  <property name="meta.attr.timecode.markup">18:53:43:03</property>
  <property name="seekable">1</property>
  <property name="meta.media.sample_aspect_num">1</property>
  <property name="meta.media.sample_aspect_den">1</property>
  <property name="aspect_ratio">1</property>
  <property name="kdenlive:folderid">13</property>
  <property name="kdenlive:file_size">2499243521</property>
  <property name="kdenlive:file_hash">c52a59c46a49b670f466d109daab353c</property>
  <property name="global_feed">1</property>
  <property name="meta.media.frame_rate_num">50</property>
  <property name="meta.media.frame_rate_den">1</property>
  <property name="meta.media.colorspace">709</property>
  <property name="meta.media.color_trc">2</property>
  <property name="meta.media.width">1920</property>
  <property name="meta.media.height">1080</property>
  <property name="meta.media.top_field_first">0</property>
  <property name="meta.media.progressive">1</property>
 </producer>
 <producer title="Anonymous Submission" id="18" in="0" out="1547">
  <property name="length">00:00:30:48</property>
  <property name="eof">pause</property>
  <property name="resource">/media/bordun/plagiat/2018-12-10_Plagiat_RespecteLaPuissancePapale/Carte_3/CAM1_2018-12-10_1855_C0007.mov</property>
  <property name="audio_index">2</property>
  <property name="video_index">1</property>
  <property name="mute_on_pause">1</property>
  <property name="mlt_service">avformat-novalidate</property>
  <property name="meta.media.nb_streams">3</property>
  <property name="meta.media.1.stream.type">video</property>
  <property name="meta.media.1.stream.frame_rate">50</property>
  <property name="meta.media.1.stream.sample_aspect_ratio">1</property>
  <property name="meta.media.1.codec.width">1920</property>
  <property name="meta.media.1.codec.height">1080</property>
  <property name="meta.media.1.codec.rotate">0</property>
  <property name="meta.media.1.codec.frame_rate">5000</property>
  <property name="meta.media.1.codec.pix_fmt">yuv422p10le</property>
  <property name="meta.media.1.codec.sample_aspect_ratio">0</property>
  <property name="meta.media.1.codec.colorspace">709</property>
  <property name="meta.media.1.codec.name">prores</property>
  <property name="meta.media.1.codec.long_name">ProRes (iCodec Pro)</property>
  <property name="meta.media.1.codec.bit_rate">366957395</property>
  <property name="meta.attr.1.stream.creation_time.markup">2018-12-10T18:55:29.000000Z</property>
  <property name="meta.attr.1.stream.language.markup">eng</property>
  <property name="meta.attr.1.stream.handler_name.markup">Apple Video Media Handler</property>
  <property name="meta.attr.1.stream.encoder.markup">Apple ProRes 422 HQ</property>
  <property name="meta.attr.1.stream.timecode.markup">18:55:29:30</property>
  <property name="meta.media.2.stream.type">audio</property>
  <property name="meta.media.2.codec.sample_fmt">s32</property>
  <property name="meta.media.2.codec.sample_rate">48000</property>
  <property name="meta.media.2.codec.channels">2</property>
  <property name="meta.media.2.codec.name">pcm_s24le</property>
  <property name="meta.media.2.codec.long_name">PCM signed 24-bit little-endian</property>
  <property name="meta.media.2.codec.bit_rate">2304000</property>
  <property name="meta.attr.2.stream.creation_time.markup">2018-12-10T18:55:29.000000Z</property>
  <property name="meta.attr.2.stream.language.markup">eng</property>
  <property name="meta.attr.2.stream.handler_name.markup">Apple Sound Media Handler</property>
  <property name="meta.attr.2.stream.timecode.markup">18:55:29:30</property>
  <property name="meta.attr.com.apple.proapps.manufacturer.markup">Blackmagic Design</property>
  <property name="meta.attr.com.apple.proapps.cameraName.markup">CAM1</property>
  <property name="meta.attr.com.apple.proapps.isGood.markup">0</property>
  <property name="meta.attr.com.apple.proapps.customgamma.markup">com.blackmagic-design.cinemacamera.filmlog</property>
  <property name="meta.attr.com.blackmagic-design.cinemacamera.uuid.markup">18E5E00548F94923B646613A73C01B56</property>
  <property name="meta.attr.creation_time.markup">2018-12-10T18:55:29.000000Z</property>
  <property name="meta.attr.timecode.markup">18:55:29:30</property>
  <property name="seekable">1</property>
  <property name="meta.media.sample_aspect_num">1</property>
  <property name="meta.media.sample_aspect_den">1</property>
  <property name="aspect_ratio">1</property>
  <property name="kdenlive:folderid">13</property>
  <property name="kdenlive:file_size">1429192513</property>
  <property name="kdenlive:file_hash">626434d53e10f12816265ac334d41379</property>
  <property name="global_feed">1</property>
  <property name="meta.media.frame_rate_num">50</property>
  <property name="meta.media.frame_rate_den">1</property>
  <property name="meta.media.colorspace">709</property>
  <property name="meta.media.color_trc">2</property>
  <property name="meta.media.width">1920</property>
  <property name="meta.media.height">1080</property>
  <property name="meta.media.top_field_first">0</property>
  <property name="meta.media.progressive">1</property>
 </producer>
 <producer title="Anonymous Submission" id="19" in="0" out="2823">
  <property name="length">00:00:56:24</property>
  <property name="eof">pause</property>
  <property name="resource">/media/bordun/plagiat/2018-12-10_Plagiat_RespecteLaPuissancePapale/Carte_3/CAM1_2018-12-10_1856_C0008.mov</property>
  <property name="audio_index">2</property>
  <property name="video_index">1</property>
  <property name="mute_on_pause">1</property>
  <property name="mlt_service">avformat-novalidate</property>
  <property name="meta.media.nb_streams">3</property>
  <property name="meta.media.1.stream.type">video</property>
  <property name="meta.media.1.stream.frame_rate">50</property>
  <property name="meta.media.1.stream.sample_aspect_ratio">1</property>
  <property name="meta.media.1.codec.width">1920</property>
  <property name="meta.media.1.codec.height">1080</property>
  <property name="meta.media.1.codec.rotate">0</property>
  <property name="meta.media.1.codec.frame_rate">5000</property>
  <property name="meta.media.1.codec.pix_fmt">yuv422p10le</property>
  <property name="meta.media.1.codec.sample_aspect_ratio">0</property>
  <property name="meta.media.1.codec.colorspace">709</property>
  <property name="meta.media.1.codec.name">prores</property>
  <property name="meta.media.1.codec.long_name">ProRes (iCodec Pro)</property>
  <property name="meta.media.1.codec.bit_rate">366955049</property>
  <property name="meta.attr.1.stream.creation_time.markup">2018-12-10T18:56:22.000000Z</property>
  <property name="meta.attr.1.stream.language.markup">eng</property>
  <property name="meta.attr.1.stream.handler_name.markup">Apple Video Media Handler</property>
  <property name="meta.attr.1.stream.encoder.markup">Apple ProRes 422 HQ</property>
  <property name="meta.attr.1.stream.timecode.markup">18:56:22:36</property>
  <property name="meta.media.2.stream.type">audio</property>
  <property name="meta.media.2.codec.sample_fmt">s32</property>
  <property name="meta.media.2.codec.sample_rate">48000</property>
  <property name="meta.media.2.codec.channels">2</property>
  <property name="meta.media.2.codec.name">pcm_s24le</property>
  <property name="meta.media.2.codec.long_name">PCM signed 24-bit little-endian</property>
  <property name="meta.media.2.codec.bit_rate">2304000</property>
  <property name="meta.attr.2.stream.creation_time.markup">2018-12-10T18:56:22.000000Z</property>
  <property name="meta.attr.2.stream.language.markup">eng</property>
  <property name="meta.attr.2.stream.handler_name.markup">Apple Sound Media Handler</property>
  <property name="meta.attr.2.stream.timecode.markup">18:56:22:36</property>
  <property name="meta.attr.com.apple.proapps.manufacturer.markup">Blackmagic Design</property>
  <property name="meta.attr.com.apple.proapps.cameraName.markup">CAM1</property>
  <property name="meta.attr.com.apple.proapps.isGood.markup">0</property>
  <property name="meta.attr.com.apple.proapps.customgamma.markup">com.blackmagic-design.cinemacamera.filmlog</property>
  <property name="meta.attr.com.blackmagic-design.cinemacamera.uuid.markup">18E5E00548F94923B646613A73C01B56</property>
  <property name="meta.attr.creation_time.markup">2018-12-10T18:56:22.000000Z</property>
  <property name="meta.attr.timecode.markup">18:56:22:36</property>
  <property name="seekable">1</property>
  <property name="meta.media.sample_aspect_num">1</property>
  <property name="meta.media.sample_aspect_den">1</property>
  <property name="aspect_ratio">1</property>
  <property name="kdenlive:folderid">13</property>
  <property name="kdenlive:file_size">2607255569</property>
  <property name="kdenlive:file_hash">4d6c52ada6c928dfc33b28648fd401f1</property>
  <property name="global_feed">1</property>
  <property name="meta.media.frame_rate_num">50</property>
  <property name="meta.media.frame_rate_den">1</property>
  <property name="meta.media.colorspace">709</property>
  <property name="meta.media.color_trc">2</property>
  <property name="meta.media.width">1920</property>
  <property name="meta.media.height">1080</property>
  <property name="meta.media.top_field_first">0</property>
  <property name="meta.media.progressive">1</property>
  <property name="kdenlive:zone_in">261</property>
  <property name="kdenlive:zone_out">1043</property>
  <filter id="pan_zoom" out="2823">
   <property name="background">colour:0x00000000</property>
   <property name="mlt_service">affine</property>
   <property name="kdenlive_id">pan_zoom</property>
   <property name="tag">affine</property>
   <property name="kdenlive_ix">1</property>
   <property name="kdenlive:sync_in_out">1</property>
   <property name="kdenlive_info"/>
   <property name="transition.geometry">-768/-333:2688x1512:100</property>
   <property name="transition.distort">0</property>
   <property name="disable">1</property>
  </filter>
 </producer>
 <producer title="Anonymous Submission" id="20" in="0" out="995">
  <property name="length">00:00:19:46</property>
  <property name="eof">pause</property>
  <property name="resource">/media/bordun/plagiat/2018-12-10_Plagiat_RespecteLaPuissancePapale/Carte_3/CAM1_2018-12-10_1857_C0009.mov</property>
  <property name="audio_index">2</property>
  <property name="video_index">1</property>
  <property name="mute_on_pause">1</property>
  <property name="mlt_service">avformat-novalidate</property>
  <property name="meta.media.nb_streams">3</property>
  <property name="meta.media.1.stream.type">video</property>
  <property name="meta.media.1.stream.frame_rate">50</property>
  <property name="meta.media.1.stream.sample_aspect_ratio">1</property>
  <property name="meta.media.1.codec.width">1920</property>
  <property name="meta.media.1.codec.height">1080</property>
  <property name="meta.media.1.codec.rotate">0</property>
  <property name="meta.media.1.codec.frame_rate">5000</property>
  <property name="meta.media.1.codec.pix_fmt">yuv422p10le</property>
  <property name="meta.media.1.codec.sample_aspect_ratio">0</property>
  <property name="meta.media.1.codec.colorspace">709</property>
  <property name="meta.media.1.codec.name">prores</property>
  <property name="meta.media.1.codec.long_name">ProRes (iCodec Pro)</property>
  <property name="meta.media.1.codec.bit_rate">366959048</property>
  <property name="meta.attr.1.stream.creation_time.markup">2018-12-10T18:57:40.000000Z</property>
  <property name="meta.attr.1.stream.language.markup">eng</property>
  <property name="meta.attr.1.stream.handler_name.markup">Apple Video Media Handler</property>
  <property name="meta.attr.1.stream.encoder.markup">Apple ProRes 422 HQ</property>
  <property name="meta.attr.1.stream.timecode.markup">18:57:40:47</property>
  <property name="meta.media.2.stream.type">audio</property>
  <property name="meta.media.2.codec.sample_fmt">s32</property>
  <property name="meta.media.2.codec.sample_rate">48000</property>
  <property name="meta.media.2.codec.channels">2</property>
  <property name="meta.media.2.codec.name">pcm_s24le</property>
  <property name="meta.media.2.codec.long_name">PCM signed 24-bit little-endian</property>
  <property name="meta.media.2.codec.bit_rate">2304000</property>
  <property name="meta.attr.2.stream.creation_time.markup">2018-12-10T18:57:40.000000Z</property>
  <property name="meta.attr.2.stream.language.markup">eng</property>
  <property name="meta.attr.2.stream.handler_name.markup">Apple Sound Media Handler</property>
  <property name="meta.attr.2.stream.timecode.markup">18:57:40:47</property>
  <property name="meta.attr.com.apple.proapps.manufacturer.markup">Blackmagic Design</property>
  <property name="meta.attr.com.apple.proapps.cameraName.markup">CAM1</property>
  <property name="meta.attr.com.apple.proapps.isGood.markup">0</property>
  <property name="meta.attr.com.apple.proapps.customgamma.markup">com.blackmagic-design.cinemacamera.filmlog</property>
  <property name="meta.attr.com.blackmagic-design.cinemacamera.uuid.markup">18E5E00548F94923B646613A73C01B56</property>
  <property name="meta.attr.creation_time.markup">2018-12-10T18:57:40.000000Z</property>
  <property name="meta.attr.timecode.markup">18:57:40:47</property>
  <property name="seekable">1</property>
  <property name="meta.media.sample_aspect_num">1</property>
  <property name="meta.media.sample_aspect_den">1</property>
  <property name="aspect_ratio">1</property>
  <property name="kdenlive:folderid">13</property>
  <property name="kdenlive:file_size">919559913</property>
  <property name="kdenlive:file_hash">1729a26f0eb1c7c9bfd5136f79c4245a</property>
  <property name="global_feed">1</property>
  <property name="meta.media.frame_rate_num">50</property>
  <property name="meta.media.frame_rate_den">1</property>
  <property name="meta.media.colorspace">709</property>
  <property name="meta.media.color_trc">2</property>
  <property name="meta.media.width">1920</property>
  <property name="meta.media.height">1080</property>
  <property name="meta.media.top_field_first">0</property>
  <property name="meta.media.progressive">1</property>
 </producer>
 <producer title="Anonymous Submission" id="21" in="0" out="8367">
  <property name="length">00:02:47:18</property>
  <property name="eof">pause</property>
  <property name="resource">/media/bordun/plagiat/2018-12-10_Plagiat_RespecteLaPuissancePapale/Carte_4/CAM1_2018-12-10_1918_C0004.mov</property>
  <property name="audio_index">2</property>
  <property name="video_index">1</property>
  <property name="mute_on_pause">1</property>
  <property name="mlt_service">avformat-novalidate</property>
  <property name="meta.media.nb_streams">3</property>
  <property name="meta.media.1.stream.type">video</property>
  <property name="meta.media.1.stream.frame_rate">50</property>
  <property name="meta.media.1.stream.sample_aspect_ratio">1</property>
  <property name="meta.media.1.codec.width">1920</property>
  <property name="meta.media.1.codec.height">1080</property>
  <property name="meta.media.1.codec.rotate">0</property>
  <property name="meta.media.1.codec.frame_rate">5000</property>
  <property name="meta.media.1.codec.pix_fmt">yuv422p10le</property>
  <property name="meta.media.1.codec.sample_aspect_ratio">0</property>
  <property name="meta.media.1.codec.colorspace">709</property>
  <property name="meta.media.1.codec.name">prores</property>
  <property name="meta.media.1.codec.long_name">ProRes (iCodec Pro)</property>
  <property name="meta.media.1.codec.bit_rate">366957425</property>
  <property name="meta.attr.1.stream.creation_time.markup">2018-12-10T19:18:09.000000Z</property>
  <property name="meta.attr.1.stream.language.markup">eng</property>
  <property name="meta.attr.1.stream.handler_name.markup">Apple Video Media Handler</property>
  <property name="meta.attr.1.stream.encoder.markup">Apple ProRes 422 HQ</property>
  <property name="meta.attr.1.stream.timecode.markup">19:18:09:37</property>
  <property name="meta.media.2.stream.type">audio</property>
  <property name="meta.media.2.codec.sample_fmt">s32</property>
  <property name="meta.media.2.codec.sample_rate">48000</property>
  <property name="meta.media.2.codec.channels">2</property>
  <property name="meta.media.2.codec.name">pcm_s24le</property>
  <property name="meta.media.2.codec.long_name">PCM signed 24-bit little-endian</property>
  <property name="meta.media.2.codec.bit_rate">2304000</property>
  <property name="meta.attr.2.stream.creation_time.markup">2018-12-10T19:18:09.000000Z</property>
  <property name="meta.attr.2.stream.language.markup">eng</property>
  <property name="meta.attr.2.stream.handler_name.markup">Apple Sound Media Handler</property>
  <property name="meta.attr.2.stream.timecode.markup">19:18:09:37</property>
  <property name="meta.attr.com.apple.proapps.manufacturer.markup">Blackmagic Design</property>
  <property name="meta.attr.com.apple.proapps.cameraName.markup">CAM1</property>
  <property name="meta.attr.com.apple.proapps.isGood.markup">0</property>
  <property name="meta.attr.com.apple.proapps.customgamma.markup">com.blackmagic-design.cinemacamera.filmlog</property>
  <property name="meta.attr.com.blackmagic-design.cinemacamera.uuid.markup">18E5E00548F94923B646613A73C01B56</property>
  <property name="meta.attr.creation_time.markup">2018-12-10T19:18:09.000000Z</property>
  <property name="meta.attr.timecode.markup">19:18:09:37</property>
  <property name="seekable">1</property>
  <property name="meta.media.sample_aspect_num">1</property>
  <property name="meta.media.sample_aspect_den">1</property>
  <property name="aspect_ratio">1</property>
  <property name="kdenlive:folderid">13</property>
  <property name="kdenlive:file_size">7725732233</property>
  <property name="kdenlive:file_hash">4738ec11929b714df4a2322c7cba3752</property>
  <property name="global_feed">1</property>
  <property name="meta.media.frame_rate_num">50</property>
  <property name="meta.media.frame_rate_den">1</property>
  <property name="meta.media.colorspace">709</property>
  <property name="meta.media.color_trc">2</property>
  <property name="meta.media.width">1920</property>
  <property name="meta.media.height">1080</property>
  <property name="meta.media.top_field_first">0</property>
  <property name="meta.media.progressive">1</property>
 </producer>
 <producer title="Anonymous Submission" id="23" in="0" out="90">
  <property name="length">00:00:01:41</property>
  <property name="eof">pause</property>
  <property name="resource">/media/bordun/plagiat/2018-12-10_Plagiat_RespecteLaPuissancePapale/Carte_4/CAM1_2018-12-10_1930_C0006.mov</property>
  <property name="audio_index">2</property>
  <property name="video_index">1</property>
  <property name="mute_on_pause">1</property>
  <property name="mlt_service">avformat-novalidate</property>
  <property name="meta.media.nb_streams">3</property>
  <property name="meta.media.1.stream.type">video</property>
  <property name="meta.media.1.stream.frame_rate">50</property>
  <property name="meta.media.1.stream.sample_aspect_ratio">1</property>
  <property name="meta.media.1.codec.width">1920</property>
  <property name="meta.media.1.codec.height">1080</property>
  <property name="meta.media.1.codec.rotate">0</property>
  <property name="meta.media.1.codec.frame_rate">5000</property>
  <property name="meta.media.1.codec.pix_fmt">yuv422p10le</property>
  <property name="meta.media.1.codec.sample_aspect_ratio">0</property>
  <property name="meta.media.1.codec.colorspace">709</property>
  <property name="meta.media.1.codec.name">prores</property>
  <property name="meta.media.1.codec.long_name">ProRes (iCodec Pro)</property>
  <property name="meta.media.1.codec.bit_rate">366959648</property>
  <property name="meta.attr.1.stream.creation_time.markup">2018-12-10T19:30:36.000000Z</property>
  <property name="meta.attr.1.stream.language.markup">eng</property>
  <property name="meta.attr.1.stream.handler_name.markup">Apple Video Media Handler</property>
  <property name="meta.attr.1.stream.encoder.markup">Apple ProRes 422 HQ</property>
  <property name="meta.attr.1.stream.timecode.markup">19:30:36:33</property>
  <property name="meta.media.2.stream.type">audio</property>
  <property name="meta.media.2.codec.sample_fmt">s32</property>
  <property name="meta.media.2.codec.sample_rate">48000</property>
  <property name="meta.media.2.codec.channels">2</property>
  <property name="meta.media.2.codec.name">pcm_s24le</property>
  <property name="meta.media.2.codec.long_name">PCM signed 24-bit little-endian</property>
  <property name="meta.media.2.codec.bit_rate">2304000</property>
  <property name="meta.attr.2.stream.creation_time.markup">2018-12-10T19:30:36.000000Z</property>
  <property name="meta.attr.2.stream.language.markup">eng</property>
  <property name="meta.attr.2.stream.handler_name.markup">Apple Sound Media Handler</property>
  <property name="meta.attr.2.stream.timecode.markup">19:30:36:33</property>
  <property name="meta.attr.com.apple.proapps.manufacturer.markup">Blackmagic Design</property>
  <property name="meta.attr.com.apple.proapps.cameraName.markup">CAM1</property>
  <property name="meta.attr.com.apple.proapps.isGood.markup">0</property>
  <property name="meta.attr.com.apple.proapps.customgamma.markup">com.blackmagic-design.cinemacamera.filmlog</property>
  <property name="meta.attr.com.blackmagic-design.cinemacamera.uuid.markup">18E5E00548F94923B646613A73C01B56</property>
  <property name="meta.attr.creation_time.markup">2018-12-10T19:30:36.000000Z</property>
  <property name="meta.attr.timecode.markup">19:30:36:33</property>
  <property name="seekable">1</property>
  <property name="meta.media.sample_aspect_num">1</property>
  <property name="meta.media.sample_aspect_den">1</property>
  <property name="aspect_ratio">1</property>
  <property name="kdenlive:folderid">13</property>
  <property name="kdenlive:file_size">84022873</property>
  <property name="kdenlive:file_hash">1ba34791faa62b04135628a57849c83e</property>
  <property name="global_feed">1</property>
  <property name="meta.media.frame_rate_num">50</property>
  <property name="meta.media.frame_rate_den">1</property>
  <property name="meta.media.colorspace">709</property>
  <property name="meta.media.color_trc">2</property>
  <property name="meta.media.width">1920</property>
  <property name="meta.media.height">1080</property>
  <property name="meta.media.top_field_first">0</property>
  <property name="meta.media.progressive">1</property>
 </producer>
 <producer title="Anonymous Submission" id="24" in="0" out="2194">
  <property name="length">00:00:43:45</property>
  <property name="eof">pause</property>
  <property name="resource">/media/bordun/plagiat/2018-12-10_Plagiat_RespecteLaPuissancePapale/Carte_4/CAM1_2018-12-10_1932_C0007.mov</property>
  <property name="audio_index">2</property>
  <property name="video_index">1</property>
  <property name="mute_on_pause">1</property>
  <property name="mlt_service">avformat-novalidate</property>
  <property name="meta.media.nb_streams">3</property>
  <property name="meta.media.1.stream.type">video</property>
  <property name="meta.media.1.stream.frame_rate">50</property>
  <property name="meta.media.1.stream.sample_aspect_ratio">1</property>
  <property name="meta.media.1.codec.width">1920</property>
  <property name="meta.media.1.codec.height">1080</property>
  <property name="meta.media.1.codec.rotate">0</property>
  <property name="meta.media.1.codec.frame_rate">5000</property>
  <property name="meta.media.1.codec.pix_fmt">yuv422p10le</property>
  <property name="meta.media.1.codec.sample_aspect_ratio">0</property>
  <property name="meta.media.1.codec.colorspace">709</property>
  <property name="meta.media.1.codec.name">prores</property>
  <property name="meta.media.1.codec.long_name">ProRes (iCodec Pro)</property>
  <property name="meta.media.1.codec.bit_rate">366958350</property>
  <property name="meta.attr.1.stream.creation_time.markup">2018-12-10T19:32:10.000000Z</property>
  <property name="meta.attr.1.stream.language.markup">eng</property>
  <property name="meta.attr.1.stream.handler_name.markup">Apple Video Media Handler</property>
  <property name="meta.attr.1.stream.encoder.markup">Apple ProRes 422 HQ</property>
  <property name="meta.attr.1.stream.timecode.markup">19:32:10:35</property>
  <property name="meta.media.2.stream.type">audio</property>
  <property name="meta.media.2.codec.sample_fmt">s32</property>
  <property name="meta.media.2.codec.sample_rate">48000</property>
  <property name="meta.media.2.codec.channels">2</property>
  <property name="meta.media.2.codec.name">pcm_s24le</property>
  <property name="meta.media.2.codec.long_name">PCM signed 24-bit little-endian</property>
  <property name="meta.media.2.codec.bit_rate">2304000</property>
  <property name="meta.attr.2.stream.creation_time.markup">2018-12-10T19:32:10.000000Z</property>
  <property name="meta.attr.2.stream.language.markup">eng</property>
  <property name="meta.attr.2.stream.handler_name.markup">Apple Sound Media Handler</property>
  <property name="meta.attr.2.stream.timecode.markup">19:32:10:35</property>
  <property name="meta.attr.com.apple.proapps.manufacturer.markup">Blackmagic Design</property>
  <property name="meta.attr.com.apple.proapps.cameraName.markup">CAM1</property>
  <property name="meta.attr.com.apple.proapps.isGood.markup">0</property>
  <property name="meta.attr.com.apple.proapps.customgamma.markup">com.blackmagic-design.cinemacamera.filmlog</property>
  <property name="meta.attr.com.blackmagic-design.cinemacamera.uuid.markup">18E5E00548F94923B646613A73C01B56</property>
  <property name="meta.attr.creation_time.markup">2018-12-10T19:32:10.000000Z</property>
  <property name="meta.attr.timecode.markup">19:32:10:35</property>
  <property name="seekable">1</property>
  <property name="meta.media.sample_aspect_num">1</property>
  <property name="meta.media.sample_aspect_den">1</property>
  <property name="aspect_ratio">1</property>
  <property name="kdenlive:folderid">13</property>
  <property name="kdenlive:file_size">2026532265</property>
  <property name="kdenlive:file_hash">817b2a44d7814a42acea89e05d1f8fde</property>
  <property name="global_feed">1</property>
  <property name="meta.media.frame_rate_num">50</property>
  <property name="meta.media.frame_rate_den">1</property>
  <property name="meta.media.colorspace">709</property>
  <property name="meta.media.color_trc">2</property>
  <property name="meta.media.width">1920</property>
  <property name="meta.media.height">1080</property>
  <property name="meta.media.top_field_first">0</property>
  <property name="meta.media.progressive">1</property>
  <property name="kdenlive:zone_in">1490</property>
  <property name="kdenlive:zone_out">1492</property>
  <filter id="frei0r.levels">
   <property name="version">0,3</property>
   <property name="mlt_service">frei0r.levels</property>
   <property name="kdenlive_id">frei0r.levels</property>
   <property name="tag">frei0r.levels</property>
   <property name="kdenlive_ix">1</property>
   <property name="kdenlive_info"/>
   <property name="Channel">0,3</property>
   <property name="Input black level">0=0</property>
   <property name="Input white level">0=0,112</property>
   <property name="Gamma">0=0,31825</property>
   <property name="Black output">0=0,734</property>
   <property name="White output">0=0,54</property>
   <property name="Show histogram">0</property>
   <property name="Histogram position">0,3</property>
  </filter>
 </producer>
 <producer title="Anonymous Submission" id="22" in="0" out="2303">
  <property name="length">00:00:46:04</property>
  <property name="eof">pause</property>
  <property name="resource">/media/bordun/plagiat/2018-12-10_Plagiat_RespecteLaPuissancePapale/Carte_4/CAM1_2018-12-10_1921_C0005.mov</property>
  <property name="audio_index">2</property>
  <property name="video_index">1</property>
  <property name="mute_on_pause">1</property>
  <property name="mlt_service">avformat-novalidate</property>
  <property name="meta.media.nb_streams">3</property>
  <property name="meta.media.1.stream.type">video</property>
  <property name="meta.media.1.stream.frame_rate">50</property>
  <property name="meta.media.1.stream.sample_aspect_ratio">1</property>
  <property name="meta.media.1.codec.width">1920</property>
  <property name="meta.media.1.codec.height">1080</property>
  <property name="meta.media.1.codec.rotate">0</property>
  <property name="meta.media.1.codec.frame_rate">5000</property>
  <property name="meta.media.1.codec.pix_fmt">yuv422p10le</property>
  <property name="meta.media.1.codec.sample_aspect_ratio">0</property>
  <property name="meta.media.1.codec.colorspace">709</property>
  <property name="meta.media.1.codec.name">prores</property>
  <property name="meta.media.1.codec.long_name">ProRes (iCodec Pro)</property>
  <property name="meta.media.1.codec.bit_rate">366955247</property>
  <property name="meta.attr.1.stream.creation_time.markup">2018-12-10T19:21:23.000000Z</property>
  <property name="meta.attr.1.stream.language.markup">eng</property>
  <property name="meta.attr.1.stream.handler_name.markup">Apple Video Media Handler</property>
  <property name="meta.attr.1.stream.encoder.markup">Apple ProRes 422 HQ</property>
  <property name="meta.attr.1.stream.timecode.markup">19:21:23:42</property>
  <property name="meta.media.2.stream.type">audio</property>
  <property name="meta.media.2.codec.sample_fmt">s32</property>
  <property name="meta.media.2.codec.sample_rate">48000</property>
  <property name="meta.media.2.codec.channels">2</property>
  <property name="meta.media.2.codec.name">pcm_s24le</property>
  <property name="meta.media.2.codec.long_name">PCM signed 24-bit little-endian</property>
  <property name="meta.media.2.codec.bit_rate">2304000</property>
  <property name="meta.attr.2.stream.creation_time.markup">2018-12-10T19:21:23.000000Z</property>
  <property name="meta.attr.2.stream.language.markup">eng</property>
  <property name="meta.attr.2.stream.handler_name.markup">Apple Sound Media Handler</property>
  <property name="meta.attr.2.stream.timecode.markup">19:21:23:42</property>
  <property name="meta.attr.com.apple.proapps.manufacturer.markup">Blackmagic Design</property>
  <property name="meta.attr.com.apple.proapps.cameraName.markup">CAM1</property>
  <property name="meta.attr.com.apple.proapps.isGood.markup">0</property>
  <property name="meta.attr.com.apple.proapps.customgamma.markup">com.blackmagic-design.cinemacamera.filmlog</property>
  <property name="meta.attr.com.blackmagic-design.cinemacamera.uuid.markup">18E5E00548F94923B646613A73C01B56</property>
  <property name="meta.attr.creation_time.markup">2018-12-10T19:21:23.000000Z</property>
  <property name="meta.attr.timecode.markup">19:21:23:42</property>
  <property name="seekable">1</property>
  <property name="meta.media.sample_aspect_num">1</property>
  <property name="meta.media.sample_aspect_den">1</property>
  <property name="aspect_ratio">1</property>
  <property name="kdenlive:folderid">13</property>
  <property name="kdenlive:file_size">2127176129</property>
  <property name="kdenlive:file_hash">498399b1185fccb66f9150f51f3e9c22</property>
  <property name="global_feed">1</property>
  <property name="meta.media.frame_rate_num">50</property>
  <property name="meta.media.frame_rate_den">1</property>
  <property name="meta.media.colorspace">709</property>
  <property name="meta.media.color_trc">2</property>
  <property name="meta.media.width">1920</property>
  <property name="meta.media.height">1080</property>
  <property name="meta.media.top_field_first">0</property>
  <property name="meta.media.progressive">1</property>
 </producer>
 <producer title="Anonymous Submission" id="14" in="0" out="3805">
  <property name="length">00:01:16:06</property>
  <property name="eof">pause</property>
  <property name="resource">/media/bordun/plagiat/2018-12-10_Plagiat_RespecteLaPuissancePapale/Carte_3/CAM1_2018-12-10_1833_C0003.mov</property>
  <property name="audio_index">2</property>
  <property name="video_index">1</property>
  <property name="mute_on_pause">1</property>
  <property name="mlt_service">avformat-novalidate</property>
  <property name="meta.media.nb_streams">3</property>
  <property name="meta.media.1.stream.type">video</property>
  <property name="meta.media.1.stream.frame_rate">50</property>
  <property name="meta.media.1.stream.sample_aspect_ratio">1</property>
  <property name="meta.media.1.codec.width">1920</property>
  <property name="meta.media.1.codec.height">1080</property>
  <property name="meta.media.1.codec.rotate">0</property>
  <property name="meta.media.1.codec.frame_rate">5000</property>
  <property name="meta.media.1.codec.pix_fmt">yuv422p10le</property>
  <property name="meta.media.1.codec.sample_aspect_ratio">0</property>
  <property name="meta.media.1.codec.colorspace">709</property>
  <property name="meta.media.1.codec.name">prores</property>
  <property name="meta.media.1.codec.long_name">ProRes (iCodec Pro)</property>
  <property name="meta.media.1.codec.bit_rate">366958122</property>
  <property name="meta.attr.1.stream.creation_time.markup">2018-12-10T18:33:13.000000Z</property>
  <property name="meta.attr.1.stream.language.markup">eng</property>
  <property name="meta.attr.1.stream.handler_name.markup">Apple Video Media Handler</property>
  <property name="meta.attr.1.stream.encoder.markup">Apple ProRes 422 HQ</property>
  <property name="meta.attr.1.stream.timecode.markup">18:33:13:41</property>
  <property name="meta.media.2.stream.type">audio</property>
  <property name="meta.media.2.codec.sample_fmt">s32</property>
  <property name="meta.media.2.codec.sample_rate">48000</property>
  <property name="meta.media.2.codec.channels">2</property>
  <property name="meta.media.2.codec.name">pcm_s24le</property>
  <property name="meta.media.2.codec.long_name">PCM signed 24-bit little-endian</property>
  <property name="meta.media.2.codec.bit_rate">2304000</property>
  <property name="meta.attr.2.stream.creation_time.markup">2018-12-10T18:33:13.000000Z</property>
  <property name="meta.attr.2.stream.language.markup">eng</property>
  <property name="meta.attr.2.stream.handler_name.markup">Apple Sound Media Handler</property>
  <property name="meta.attr.2.stream.timecode.markup">18:33:13:41</property>
  <property name="meta.attr.com.apple.proapps.manufacturer.markup">Blackmagic Design</property>
  <property name="meta.attr.com.apple.proapps.cameraName.markup">CAM1</property>
  <property name="meta.attr.com.apple.proapps.isGood.markup">0</property>
  <property name="meta.attr.com.apple.proapps.customgamma.markup">com.blackmagic-design.cinemacamera.filmlog</property>
  <property name="meta.attr.com.blackmagic-design.cinemacamera.uuid.markup">18E5E00548F94923B646613A73C01B56</property>
  <property name="meta.attr.creation_time.markup">2018-12-10T18:33:13.000000Z</property>
  <property name="meta.attr.timecode.markup">18:33:13:41</property>
  <property name="seekable">1</property>
  <property name="meta.media.sample_aspect_num">1</property>
  <property name="meta.media.sample_aspect_den">1</property>
  <property name="aspect_ratio">1</property>
  <property name="kdenlive:folderid">14</property>
  <property name="kdenlive:file_size">3513882801</property>
  <property name="kdenlive:file_hash">911165815b4f50c12a788c8017dec34b</property>
  <property name="global_feed">1</property>
  <property name="meta.media.frame_rate_num">50</property>
  <property name="meta.media.frame_rate_den">1</property>
  <property name="meta.media.colorspace">709</property>
  <property name="meta.media.color_trc">2</property>
  <property name="meta.media.width">1920</property>
  <property name="meta.media.height">1080</property>
  <property name="meta.media.top_field_first">0</property>
  <property name="meta.media.progressive">1</property>
 </producer>
 <producer title="Anonymous Submission" id="15" in="0" out="3941">
  <property name="length">00:01:18:42</property>
  <property name="eof">pause</property>
  <property name="resource">/media/bordun/plagiat/2018-12-10_Plagiat_RespecteLaPuissancePapale/Carte_3/CAM1_2018-12-10_1834_C0004.mov</property>
  <property name="audio_index">2</property>
  <property name="video_index">1</property>
  <property name="mute_on_pause">1</property>
  <property name="mlt_service">avformat-novalidate</property>
  <property name="meta.media.nb_streams">3</property>
  <property name="meta.media.1.stream.type">video</property>
  <property name="meta.media.1.stream.frame_rate">50</property>
  <property name="meta.media.1.stream.sample_aspect_ratio">1</property>
  <property name="meta.media.1.codec.width">1920</property>
  <property name="meta.media.1.codec.height">1080</property>
  <property name="meta.media.1.codec.rotate">0</property>
  <property name="meta.media.1.codec.frame_rate">5000</property>
  <property name="meta.media.1.codec.pix_fmt">yuv422p10le</property>
  <property name="meta.media.1.codec.sample_aspect_ratio">0</property>
  <property name="meta.media.1.codec.colorspace">709</property>
  <property name="meta.media.1.codec.name">prores</property>
  <property name="meta.media.1.codec.long_name">ProRes (iCodec Pro)</property>
  <property name="meta.media.1.codec.bit_rate">366957579</property>
  <property name="meta.attr.1.stream.creation_time.markup">2018-12-10T18:34:58.000000Z</property>
  <property name="meta.attr.1.stream.language.markup">eng</property>
  <property name="meta.attr.1.stream.handler_name.markup">Apple Video Media Handler</property>
  <property name="meta.attr.1.stream.encoder.markup">Apple ProRes 422 HQ</property>
  <property name="meta.attr.1.stream.timecode.markup">18:34:58:08</property>
  <property name="meta.media.2.stream.type">audio</property>
  <property name="meta.media.2.codec.sample_fmt">s32</property>
  <property name="meta.media.2.codec.sample_rate">48000</property>
  <property name="meta.media.2.codec.channels">2</property>
  <property name="meta.media.2.codec.name">pcm_s24le</property>
  <property name="meta.media.2.codec.long_name">PCM signed 24-bit little-endian</property>
  <property name="meta.media.2.codec.bit_rate">2304000</property>
  <property name="meta.attr.2.stream.creation_time.markup">2018-12-10T18:34:58.000000Z</property>
  <property name="meta.attr.2.stream.language.markup">eng</property>
  <property name="meta.attr.2.stream.handler_name.markup">Apple Sound Media Handler</property>
  <property name="meta.attr.2.stream.timecode.markup">18:34:58:08</property>
  <property name="meta.attr.com.apple.proapps.manufacturer.markup">Blackmagic Design</property>
  <property name="meta.attr.com.apple.proapps.cameraName.markup">CAM1</property>
  <property name="meta.attr.com.apple.proapps.isGood.markup">0</property>
  <property name="meta.attr.com.apple.proapps.customgamma.markup">com.blackmagic-design.cinemacamera.filmlog</property>
  <property name="meta.attr.com.blackmagic-design.cinemacamera.uuid.markup">18E5E00548F94923B646613A73C01B56</property>
  <property name="meta.attr.creation_time.markup">2018-12-10T18:34:58.000000Z</property>
  <property name="meta.attr.timecode.markup">18:34:58:08</property>
  <property name="seekable">1</property>
  <property name="meta.media.sample_aspect_num">1</property>
  <property name="meta.media.sample_aspect_den">1</property>
  <property name="aspect_ratio">1</property>
  <property name="kdenlive:folderid">14</property>
  <property name="kdenlive:file_size">3639442625</property>
  <property name="kdenlive:file_hash">b37e37844340c239c0192cc4d49711fe</property>
  <property name="global_feed">1</property>
  <property name="meta.media.frame_rate_num">50</property>
  <property name="meta.media.frame_rate_den">1</property>
  <property name="meta.media.colorspace">709</property>
  <property name="meta.media.color_trc">2</property>
  <property name="meta.media.width">1920</property>
  <property name="meta.media.height">1080</property>
  <property name="meta.media.top_field_first">0</property>
  <property name="meta.media.progressive">1</property>
 </producer>
 <producer title="Anonymous Submission" id="10" in="0" out="3856">
  <property name="length">00:01:17:07</property>
  <property name="eof">pause</property>
  <property name="resource">/media/bordun/plagiat/2018-12-10_Plagiat_RespecteLaPuissancePapale/Carte_2/CAM1_2018-12-10_1727_C0005.mov</property>
  <property name="audio_index">2</property>
  <property name="video_index">1</property>
  <property name="mute_on_pause">1</property>
  <property name="mlt_service">avformat-novalidate</property>
  <property name="meta.media.nb_streams">3</property>
  <property name="meta.media.1.stream.type">video</property>
  <property name="meta.media.1.stream.frame_rate">50</property>
  <property name="meta.media.1.stream.sample_aspect_ratio">1</property>
  <property name="meta.media.1.codec.width">1920</property>
  <property name="meta.media.1.codec.height">1080</property>
  <property name="meta.media.1.codec.rotate">0</property>
  <property name="meta.media.1.codec.frame_rate">5000</property>
  <property name="meta.media.1.codec.pix_fmt">yuv422p10le</property>
  <property name="meta.media.1.codec.sample_aspect_ratio">0</property>
  <property name="meta.media.1.codec.colorspace">709</property>
  <property name="meta.media.1.codec.name">prores</property>
  <property name="meta.media.1.codec.long_name">ProRes (iCodec Pro)</property>
  <property name="meta.media.1.codec.bit_rate">366957401</property>
  <property name="meta.attr.1.stream.creation_time.markup">2018-12-10T17:27:46.000000Z</property>
  <property name="meta.attr.1.stream.language.markup">eng</property>
  <property name="meta.attr.1.stream.handler_name.markup">Apple Video Media Handler</property>
  <property name="meta.attr.1.stream.encoder.markup">Apple ProRes 422 HQ</property>
  <property name="meta.attr.1.stream.timecode.markup">17:27:46:06</property>
  <property name="meta.media.2.stream.type">audio</property>
  <property name="meta.media.2.codec.sample_fmt">s32</property>
  <property name="meta.media.2.codec.sample_rate">48000</property>
  <property name="meta.media.2.codec.channels">2</property>
  <property name="meta.media.2.codec.name">pcm_s24le</property>
  <property name="meta.media.2.codec.long_name">PCM signed 24-bit little-endian</property>
  <property name="meta.media.2.codec.bit_rate">2304000</property>
  <property name="meta.attr.2.stream.creation_time.markup">2018-12-10T17:27:46.000000Z</property>
  <property name="meta.attr.2.stream.language.markup">eng</property>
  <property name="meta.attr.2.stream.handler_name.markup">Apple Sound Media Handler</property>
  <property name="meta.attr.2.stream.timecode.markup">17:27:46:06</property>
  <property name="meta.attr.com.apple.proapps.manufacturer.markup">Blackmagic Design</property>
  <property name="meta.attr.com.apple.proapps.cameraName.markup">CAM1</property>
  <property name="meta.attr.com.apple.proapps.isGood.markup">0</property>
  <property name="meta.attr.com.apple.proapps.customgamma.markup">com.blackmagic-design.cinemacamera.filmlog</property>
  <property name="meta.attr.com.blackmagic-design.cinemacamera.uuid.markup">18E5E00548F94923B646613A73C01B56</property>
  <property name="meta.attr.creation_time.markup">2018-12-10T17:27:46.000000Z</property>
  <property name="meta.attr.timecode.markup">17:27:46:06</property>
  <property name="seekable">1</property>
  <property name="meta.media.sample_aspect_num">1</property>
  <property name="meta.media.sample_aspect_den">1</property>
  <property name="aspect_ratio">1</property>
  <property name="kdenlive:folderid">11</property>
  <property name="kdenlive:file_size">3560966841</property>
  <property name="kdenlive:file_hash">d4c6ef671e1439d8b3d95b2e51c4f714</property>
  <property name="global_feed">1</property>
  <property name="meta.media.frame_rate_num">50</property>
  <property name="meta.media.frame_rate_den">1</property>
  <property name="meta.media.colorspace">709</property>
  <property name="meta.media.color_trc">2</property>
  <property name="meta.media.width">1920</property>
  <property name="meta.media.height">1080</property>
  <property name="meta.media.top_field_first">0</property>
  <property name="meta.media.progressive">1</property>
 </producer>
 <producer title="Anonymous Submission" id="9" in="0" out="7720">
  <property name="length">00:02:34:21</property>
  <property name="eof">pause</property>
  <property name="resource">/media/bordun/plagiat/2018-12-10_Plagiat_RespecteLaPuissancePapale/Carte_2/CAM1_2018-12-10_1724_C0004.mov</property>
  <property name="audio_index">2</property>
  <property name="video_index">1</property>
  <property name="mute_on_pause">1</property>
  <property name="mlt_service">avformat-novalidate</property>
  <property name="meta.media.nb_streams">3</property>
  <property name="meta.media.1.stream.type">video</property>
  <property name="meta.media.1.stream.frame_rate">50</property>
  <property name="meta.media.1.stream.sample_aspect_ratio">1</property>
  <property name="meta.media.1.codec.width">1920</property>
  <property name="meta.media.1.codec.height">1080</property>
  <property name="meta.media.1.codec.rotate">0</property>
  <property name="meta.media.1.codec.frame_rate">5000</property>
  <property name="meta.media.1.codec.pix_fmt">yuv422p10le</property>
  <property name="meta.media.1.codec.sample_aspect_ratio">0</property>
  <property name="meta.media.1.codec.colorspace">709</property>
  <property name="meta.media.1.codec.name">prores</property>
  <property name="meta.media.1.codec.long_name">ProRes (iCodec Pro)</property>
  <property name="meta.media.1.codec.bit_rate">366955249</property>
  <property name="meta.attr.1.stream.creation_time.markup">2018-12-10T17:24:30.000000Z</property>
  <property name="meta.attr.1.stream.language.markup">eng</property>
  <property name="meta.attr.1.stream.handler_name.markup">Apple Video Media Handler</property>
  <property name="meta.attr.1.stream.encoder.markup">Apple ProRes 422 HQ</property>
  <property name="meta.attr.1.stream.timecode.markup">17:24:30:16</property>
  <property name="meta.media.2.stream.type">audio</property>
  <property name="meta.media.2.codec.sample_fmt">s32</property>
  <property name="meta.media.2.codec.sample_rate">48000</property>
  <property name="meta.media.2.codec.channels">2</property>
  <property name="meta.media.2.codec.name">pcm_s24le</property>
  <property name="meta.media.2.codec.long_name">PCM signed 24-bit little-endian</property>
  <property name="meta.media.2.codec.bit_rate">2304000</property>
  <property name="meta.attr.2.stream.creation_time.markup">2018-12-10T17:24:30.000000Z</property>
  <property name="meta.attr.2.stream.language.markup">eng</property>
  <property name="meta.attr.2.stream.handler_name.markup">Apple Sound Media Handler</property>
  <property name="meta.attr.2.stream.timecode.markup">17:24:30:16</property>
  <property name="meta.attr.com.apple.proapps.manufacturer.markup">Blackmagic Design</property>
  <property name="meta.attr.com.apple.proapps.cameraName.markup">CAM1</property>
  <property name="meta.attr.com.apple.proapps.isGood.markup">0</property>
  <property name="meta.attr.com.apple.proapps.customgamma.markup">com.blackmagic-design.cinemacamera.filmlog</property>
  <property name="meta.attr.com.blackmagic-design.cinemacamera.uuid.markup">18E5E00548F94923B646613A73C01B56</property>
  <property name="meta.attr.creation_time.markup">2018-12-10T17:24:30.000000Z</property>
  <property name="meta.attr.timecode.markup">17:24:30:16</property>
  <property name="seekable">1</property>
  <property name="meta.media.sample_aspect_num">1</property>
  <property name="meta.media.sample_aspect_den">1</property>
  <property name="aspect_ratio">1</property>
  <property name="kdenlive:folderid">11</property>
  <property name="kdenlive:file_size">7128395553</property>
  <property name="kdenlive:file_hash">26d06da8085fc8a55dca3b4629142f61</property>
  <property name="global_feed">1</property>
  <property name="meta.media.frame_rate_num">50</property>
  <property name="meta.media.frame_rate_den">1</property>
  <property name="meta.media.colorspace">709</property>
  <property name="meta.media.color_trc">2</property>
  <property name="meta.media.width">1920</property>
  <property name="meta.media.height">1080</property>
  <property name="meta.media.top_field_first">0</property>
  <property name="meta.media.progressive">1</property>
 </producer>
 <producer title="Anonymous Submission" id="11" in="0" out="21338">
  <property name="length">00:07:06:39</property>
  <property name="eof">pause</property>
  <property name="resource">/media/bordun/plagiat/2018-12-10_Plagiat_RespecteLaPuissancePapale/Carte_3/CAM1_2018-12-10_1738_C0000.mov</property>
  <property name="audio_index">2</property>
  <property name="video_index">1</property>
  <property name="mute_on_pause">1</property>
  <property name="mlt_service">avformat-novalidate</property>
  <property name="meta.media.nb_streams">3</property>
  <property name="meta.media.1.stream.type">video</property>
  <property name="meta.media.1.stream.frame_rate">50</property>
  <property name="meta.media.1.stream.sample_aspect_ratio">1</property>
  <property name="meta.media.1.codec.width">1920</property>
  <property name="meta.media.1.codec.height">1080</property>
  <property name="meta.media.1.codec.rotate">0</property>
  <property name="meta.media.1.codec.frame_rate">5000</property>
  <property name="meta.media.1.codec.pix_fmt">yuv422p10le</property>
  <property name="meta.media.1.codec.sample_aspect_ratio">0</property>
  <property name="meta.media.1.codec.colorspace">709</property>
  <property name="meta.media.1.codec.name">prores</property>
  <property name="meta.media.1.codec.long_name">ProRes (iCodec Pro)</property>
  <property name="meta.media.1.codec.bit_rate">366957439</property>
  <property name="meta.attr.1.stream.creation_time.markup">2018-12-10T17:38:54.000000Z</property>
  <property name="meta.attr.1.stream.language.markup">eng</property>
  <property name="meta.attr.1.stream.handler_name.markup">Apple Video Media Handler</property>
  <property name="meta.attr.1.stream.encoder.markup">Apple ProRes 422 HQ</property>
  <property name="meta.attr.1.stream.timecode.markup">17:38:54:28</property>
  <property name="meta.media.2.stream.type">audio</property>
  <property name="meta.media.2.codec.sample_fmt">s32</property>
  <property name="meta.media.2.codec.sample_rate">48000</property>
  <property name="meta.media.2.codec.channels">2</property>
  <property name="meta.media.2.codec.name">pcm_s24le</property>
  <property name="meta.media.2.codec.long_name">PCM signed 24-bit little-endian</property>
  <property name="meta.media.2.codec.bit_rate">2304000</property>
  <property name="meta.attr.2.stream.creation_time.markup">2018-12-10T17:38:54.000000Z</property>
  <property name="meta.attr.2.stream.language.markup">eng</property>
  <property name="meta.attr.2.stream.handler_name.markup">Apple Sound Media Handler</property>
  <property name="meta.attr.2.stream.timecode.markup">17:38:54:28</property>
  <property name="meta.attr.com.apple.proapps.manufacturer.markup">Blackmagic Design</property>
  <property name="meta.attr.com.apple.proapps.cameraName.markup">CAM1</property>
  <property name="meta.attr.com.apple.proapps.isGood.markup">0</property>
  <property name="meta.attr.com.apple.proapps.customgamma.markup">com.blackmagic-design.cinemacamera.filmlog</property>
  <property name="meta.attr.com.blackmagic-design.cinemacamera.uuid.markup">18E5E00548F94923B646613A73C01B56</property>
  <property name="meta.attr.creation_time.markup">2018-12-10T17:38:54.000000Z</property>
  <property name="meta.attr.timecode.markup">17:38:54:28</property>
  <property name="seekable">1</property>
  <property name="meta.media.sample_aspect_num">1</property>
  <property name="meta.media.sample_aspect_den">1</property>
  <property name="aspect_ratio">1</property>
  <property name="kdenlive:folderid">12</property>
  <property name="kdenlive:file_size">19701162913</property>
  <property name="kdenlive:file_hash">7247768fd7b55d6de0224125e0ef06f4</property>
  <property name="global_feed">1</property>
  <property name="meta.media.frame_rate_num">50</property>
  <property name="meta.media.frame_rate_den">1</property>
  <property name="meta.media.colorspace">709</property>
  <property name="meta.media.color_trc">2</property>
  <property name="meta.media.width">1920</property>
  <property name="meta.media.height">1080</property>
  <property name="meta.media.top_field_first">0</property>
  <property name="meta.media.progressive">1</property>
 </producer>
 <producer title="Anonymous Submission" id="8" in="0" out="21621">
  <property name="length">00:07:12:22</property>
  <property name="eof">pause</property>
  <property name="resource">/media/bordun/plagiat/2018-12-10_Plagiat_RespecteLaPuissancePapale/Carte_2/CAM1_2018-12-10_1649_C0003.mov</property>
  <property name="audio_index">2</property>
  <property name="video_index">1</property>
  <property name="mute_on_pause">1</property>
  <property name="mlt_service">avformat-novalidate</property>
  <property name="meta.media.nb_streams">3</property>
  <property name="meta.media.1.stream.type">video</property>
  <property name="meta.media.1.stream.frame_rate">50</property>
  <property name="meta.media.1.stream.sample_aspect_ratio">1</property>
  <property name="meta.media.1.codec.width">1920</property>
  <property name="meta.media.1.codec.height">1080</property>
  <property name="meta.media.1.codec.rotate">0</property>
  <property name="meta.media.1.codec.frame_rate">5000</property>
  <property name="meta.media.1.codec.pix_fmt">yuv422p10le</property>
  <property name="meta.media.1.codec.sample_aspect_ratio">0</property>
  <property name="meta.media.1.codec.colorspace">709</property>
  <property name="meta.media.1.codec.name">prores</property>
  <property name="meta.media.1.codec.long_name">ProRes (iCodec Pro)</property>
  <property name="meta.media.1.codec.bit_rate">366956838</property>
  <property name="meta.attr.1.stream.creation_time.markup">2018-12-10T16:49:40.000000Z</property>
  <property name="meta.attr.1.stream.language.markup">eng</property>
  <property name="meta.attr.1.stream.handler_name.markup">Apple Video Media Handler</property>
  <property name="meta.attr.1.stream.encoder.markup">Apple ProRes 422 HQ</property>
  <property name="meta.attr.1.stream.timecode.markup">16:49:40:04</property>
  <property name="meta.media.2.stream.type">audio</property>
  <property name="meta.media.2.codec.sample_fmt">s32</property>
  <property name="meta.media.2.codec.sample_rate">48000</property>
  <property name="meta.media.2.codec.channels">2</property>
  <property name="meta.media.2.codec.name">pcm_s24le</property>
  <property name="meta.media.2.codec.long_name">PCM signed 24-bit little-endian</property>
  <property name="meta.media.2.codec.bit_rate">2304000</property>
  <property name="meta.attr.2.stream.creation_time.markup">2018-12-10T16:49:40.000000Z</property>
  <property name="meta.attr.2.stream.language.markup">eng</property>
  <property name="meta.attr.2.stream.handler_name.markup">Apple Sound Media Handler</property>
  <property name="meta.attr.2.stream.timecode.markup">16:49:40:04</property>
  <property name="meta.attr.com.apple.proapps.manufacturer.markup">Blackmagic Design</property>
  <property name="meta.attr.com.apple.proapps.cameraName.markup">CAM1</property>
  <property name="meta.attr.com.apple.proapps.isGood.markup">0</property>
  <property name="meta.attr.com.apple.proapps.customgamma.markup">com.blackmagic-design.cinemacamera.filmlog</property>
  <property name="meta.attr.com.blackmagic-design.cinemacamera.uuid.markup">18E5E00548F94923B646613A73C01B56</property>
  <property name="meta.attr.creation_time.markup">2018-12-10T16:49:40.000000Z</property>
  <property name="meta.attr.timecode.markup">16:49:40:04</property>
  <property name="seekable">1</property>
  <property name="meta.media.sample_aspect_num">1</property>
  <property name="meta.media.sample_aspect_den">1</property>
  <property name="aspect_ratio">1</property>
  <property name="kdenlive:folderid">7</property>
  <property name="kdenlive:file_size">19962436561</property>
  <property name="kdenlive:file_hash">5ccc04e85e02ddf58369dec9f30fa947</property>
  <property name="global_feed">1</property>
  <property name="meta.media.frame_rate_num">50</property>
  <property name="meta.media.frame_rate_den">1</property>
  <property name="meta.media.colorspace">709</property>
  <property name="meta.media.color_trc">2</property>
  <property name="meta.media.width">1920</property>
  <property name="meta.media.height">1080</property>
  <property name="meta.media.top_field_first">0</property>
  <property name="meta.media.progressive">1</property>
 </producer>
 <producer title="Anonymous Submission" id="25" in="0" out="4317">
  <property name="length">00:01:26:18</property>
  <property name="eof">pause</property>
  <property name="resource">/media/bordun/plagiat/2018-12-10_Plagiat_RespecteLaPuissancePapale/Carte_4/CAM1_2018-12-10_1941_C0008.mov</property>
  <property name="audio_index">2</property>
  <property name="video_index">1</property>
  <property name="mute_on_pause">1</property>
  <property name="mlt_service">avformat-novalidate</property>
  <property name="meta.media.nb_streams">3</property>
  <property name="meta.media.1.stream.type">video</property>
  <property name="meta.media.1.stream.frame_rate">50</property>
  <property name="meta.media.1.stream.sample_aspect_ratio">1</property>
  <property name="meta.media.1.codec.width">1920</property>
  <property name="meta.media.1.codec.height">1080</property>
  <property name="meta.media.1.codec.rotate">0</property>
  <property name="meta.media.1.codec.frame_rate">5000</property>
  <property name="meta.media.1.codec.pix_fmt">yuv422p10le</property>
  <property name="meta.media.1.codec.sample_aspect_ratio">0</property>
  <property name="meta.media.1.codec.colorspace">709</property>
  <property name="meta.media.1.codec.name">prores</property>
  <property name="meta.media.1.codec.long_name">ProRes (iCodec Pro)</property>
  <property name="meta.media.1.codec.bit_rate">366957366</property>
  <property name="meta.attr.1.stream.creation_time.markup">2018-12-10T19:41:35.000000Z</property>
  <property name="meta.attr.1.stream.language.markup">eng</property>
  <property name="meta.attr.1.stream.handler_name.markup">Apple Video Media Handler</property>
  <property name="meta.attr.1.stream.encoder.markup">Apple ProRes 422 HQ</property>
  <property name="meta.attr.1.stream.timecode.markup">19:41:35:01</property>
  <property name="meta.media.2.stream.type">audio</property>
  <property name="meta.media.2.codec.sample_fmt">s32</property>
  <property name="meta.media.2.codec.sample_rate">48000</property>
  <property name="meta.media.2.codec.channels">2</property>
  <property name="meta.media.2.codec.name">pcm_s24le</property>
  <property name="meta.media.2.codec.long_name">PCM signed 24-bit little-endian</property>
  <property name="meta.media.2.codec.bit_rate">2304000</property>
  <property name="meta.attr.2.stream.creation_time.markup">2018-12-10T19:41:35.000000Z</property>
  <property name="meta.attr.2.stream.language.markup">eng</property>
  <property name="meta.attr.2.stream.handler_name.markup">Apple Sound Media Handler</property>
  <property name="meta.attr.2.stream.timecode.markup">19:41:35:01</property>
  <property name="meta.attr.com.apple.proapps.manufacturer.markup">Blackmagic Design</property>
  <property name="meta.attr.com.apple.proapps.cameraName.markup">CAM1</property>
  <property name="meta.attr.com.apple.proapps.isGood.markup">0</property>
  <property name="meta.attr.com.apple.proapps.customgamma.markup">com.blackmagic-design.cinemacamera.filmlog</property>
  <property name="meta.attr.com.blackmagic-design.cinemacamera.uuid.markup">18E5E00548F94923B646613A73C01B56</property>
  <property name="meta.attr.creation_time.markup">2018-12-10T19:41:35.000000Z</property>
  <property name="meta.attr.timecode.markup">19:41:35:01</property>
  <property name="seekable">1</property>
  <property name="meta.media.sample_aspect_num">1</property>
  <property name="meta.media.sample_aspect_den">1</property>
  <property name="aspect_ratio">1</property>
  <property name="kdenlive:folderid">7</property>
  <property name="kdenlive:file_size">3986584833</property>
  <property name="kdenlive:file_hash">090baf1e7089bd64f9705012f4444883</property>
  <property name="global_feed">1</property>
  <property name="meta.media.frame_rate_num">50</property>
  <property name="meta.media.frame_rate_den">1</property>
  <property name="meta.media.colorspace">709</property>
  <property name="meta.media.color_trc">2</property>
  <property name="meta.media.width">1920</property>
  <property name="meta.media.height">1080</property>
  <property name="meta.media.top_field_first">0</property>
  <property name="meta.media.progressive">1</property>
 </producer>
 <producer title="Anonymous Submission" id="26" in="0" out="2406">
  <property name="length">00:00:48:07</property>
  <property name="eof">pause</property>
  <property name="resource">/media/bordun/plagiat/2018-12-10_Plagiat_RespecteLaPuissancePapale/Carte_4/CAM1_2018-12-10_1950_C0009.mov</property>
  <property name="audio_index">2</property>
  <property name="video_index">1</property>
  <property name="mute_on_pause">1</property>
  <property name="mlt_service">avformat-novalidate</property>
  <property name="meta.media.nb_streams">3</property>
  <property name="meta.media.1.stream.type">video</property>
  <property name="meta.media.1.stream.frame_rate">50</property>
  <property name="meta.media.1.stream.sample_aspect_ratio">1</property>
  <property name="meta.media.1.codec.width">1920</property>
  <property name="meta.media.1.codec.height">1080</property>
  <property name="meta.media.1.codec.rotate">0</property>
  <property name="meta.media.1.codec.frame_rate">5000</property>
  <property name="meta.media.1.codec.pix_fmt">yuv422p10le</property>
  <property name="meta.media.1.codec.sample_aspect_ratio">0</property>
  <property name="meta.media.1.codec.colorspace">709</property>
  <property name="meta.media.1.codec.name">prores</property>
  <property name="meta.media.1.codec.long_name">ProRes (iCodec Pro)</property>
  <property name="meta.media.1.codec.bit_rate">366957768</property>
  <property name="meta.attr.1.stream.creation_time.markup">2018-12-10T19:50:41.000000Z</property>
  <property name="meta.attr.1.stream.language.markup">eng</property>
  <property name="meta.attr.1.stream.handler_name.markup">Apple Video Media Handler</property>
  <property name="meta.attr.1.stream.encoder.markup">Apple ProRes 422 HQ</property>
  <property name="meta.attr.1.stream.timecode.markup">19:50:41:10</property>
  <property name="meta.media.2.stream.type">audio</property>
  <property name="meta.media.2.codec.sample_fmt">s32</property>
  <property name="meta.media.2.codec.sample_rate">48000</property>
  <property name="meta.media.2.codec.channels">2</property>
  <property name="meta.media.2.codec.name">pcm_s24le</property>
  <property name="meta.media.2.codec.long_name">PCM signed 24-bit little-endian</property>
  <property name="meta.media.2.codec.bit_rate">2304000</property>
  <property name="meta.attr.2.stream.creation_time.markup">2018-12-10T19:50:41.000000Z</property>
  <property name="meta.attr.2.stream.language.markup">eng</property>
  <property name="meta.attr.2.stream.handler_name.markup">Apple Sound Media Handler</property>
  <property name="meta.attr.2.stream.timecode.markup">19:50:41:10</property>
  <property name="meta.attr.com.apple.proapps.manufacturer.markup">Blackmagic Design</property>
  <property name="meta.attr.com.apple.proapps.cameraName.markup">CAM1</property>
  <property name="meta.attr.com.apple.proapps.isGood.markup">0</property>
  <property name="meta.attr.com.apple.proapps.customgamma.markup">com.blackmagic-design.cinemacamera.filmlog</property>
  <property name="meta.attr.com.blackmagic-design.cinemacamera.uuid.markup">18E5E00548F94923B646613A73C01B56</property>
  <property name="meta.attr.creation_time.markup">2018-12-10T19:50:41.000000Z</property>
  <property name="meta.attr.timecode.markup">19:50:41:10</property>
  <property name="seekable">1</property>
  <property name="meta.media.sample_aspect_num">1</property>
  <property name="meta.media.sample_aspect_den">1</property>
  <property name="aspect_ratio">1</property>
  <property name="kdenlive:folderid">15</property>
  <property name="kdenlive:file_size">2222269393</property>
  <property name="kdenlive:file_hash">31d97f0f897fd63981b85562c9492a1e</property>
  <property name="global_feed">1</property>
  <property name="meta.media.frame_rate_num">50</property>
  <property name="meta.media.frame_rate_den">1</property>
  <property name="meta.media.colorspace">709</property>
  <property name="meta.media.color_trc">2</property>
  <property name="meta.media.width">1920</property>
  <property name="meta.media.height">1080</property>
  <property name="meta.media.top_field_first">0</property>
  <property name="meta.media.progressive">1</property>
 </producer>
 <producer title="Anonymous Submission" id="13" in="0" out="4748">
  <property name="length">00:01:34:49</property>
  <property name="eof">pause</property>
  <property name="resource">/media/bordun/plagiat/2018-12-10_Plagiat_RespecteLaPuissancePapale/Carte_3/CAM1_2018-12-10_1827_C0002.mov</property>
  <property name="audio_index">2</property>
  <property name="video_index">1</property>
  <property name="mute_on_pause">1</property>
  <property name="mlt_service">avformat-novalidate</property>
  <property name="meta.media.nb_streams">3</property>
  <property name="meta.media.1.stream.type">video</property>
  <property name="meta.media.1.stream.frame_rate">50</property>
  <property name="meta.media.1.stream.sample_aspect_ratio">1</property>
  <property name="meta.media.1.codec.width">1920</property>
  <property name="meta.media.1.codec.height">1080</property>
  <property name="meta.media.1.codec.rotate">0</property>
  <property name="meta.media.1.codec.frame_rate">5000</property>
  <property name="meta.media.1.codec.pix_fmt">yuv422p10le</property>
  <property name="meta.media.1.codec.sample_aspect_ratio">0</property>
  <property name="meta.media.1.codec.colorspace">709</property>
  <property name="meta.media.1.codec.name">prores</property>
  <property name="meta.media.1.codec.long_name">ProRes (iCodec Pro)</property>
  <property name="meta.media.1.codec.bit_rate">366955583</property>
  <property name="meta.attr.1.stream.creation_time.markup">2018-12-10T18:27:53.000000Z</property>
  <property name="meta.attr.1.stream.language.markup">eng</property>
  <property name="meta.attr.1.stream.handler_name.markup">Apple Video Media Handler</property>
  <property name="meta.attr.1.stream.encoder.markup">Apple ProRes 422 HQ</property>
  <property name="meta.attr.1.stream.timecode.markup">18:27:53:15</property>
  <property name="meta.media.2.stream.type">audio</property>
  <property name="meta.media.2.codec.sample_fmt">s32</property>
  <property name="meta.media.2.codec.sample_rate">48000</property>
  <property name="meta.media.2.codec.channels">2</property>
  <property name="meta.media.2.codec.name">pcm_s24le</property>
  <property name="meta.media.2.codec.long_name">PCM signed 24-bit little-endian</property>
  <property name="meta.media.2.codec.bit_rate">2304000</property>
  <property name="meta.attr.2.stream.creation_time.markup">2018-12-10T18:27:53.000000Z</property>
  <property name="meta.attr.2.stream.language.markup">eng</property>
  <property name="meta.attr.2.stream.handler_name.markup">Apple Sound Media Handler</property>
  <property name="meta.attr.2.stream.timecode.markup">18:27:53:15</property>
  <property name="meta.attr.com.apple.proapps.manufacturer.markup">Blackmagic Design</property>
  <property name="meta.attr.com.apple.proapps.cameraName.markup">CAM1</property>
  <property name="meta.attr.com.apple.proapps.isGood.markup">0</property>
  <property name="meta.attr.com.apple.proapps.customgamma.markup">com.blackmagic-design.cinemacamera.filmlog</property>
  <property name="meta.attr.com.blackmagic-design.cinemacamera.uuid.markup">18E5E00548F94923B646613A73C01B56</property>
  <property name="meta.attr.creation_time.markup">2018-12-10T18:27:53.000000Z</property>
  <property name="meta.attr.timecode.markup">18:27:53:15</property>
  <property name="seekable">1</property>
  <property name="meta.media.sample_aspect_num">1</property>
  <property name="meta.media.sample_aspect_den">1</property>
  <property name="aspect_ratio">1</property>
  <property name="kdenlive:folderid">15</property>
  <property name="kdenlive:file_size">4384498497</property>
  <property name="kdenlive:file_hash">ae32c687eeaacc4b45c49f0baeccff11</property>
  <property name="global_feed">1</property>
  <property name="meta.media.frame_rate_num">50</property>
  <property name="meta.media.frame_rate_den">1</property>
  <property name="meta.media.colorspace">709</property>
  <property name="meta.media.color_trc">2</property>
  <property name="meta.media.width">1920</property>
  <property name="meta.media.height">1080</property>
  <property name="meta.media.top_field_first">0</property>
  <property name="meta.media.progressive">1</property>
 </producer>
 <producer title="Anonymous Submission" id="12" in="0" out="23600">
  <property name="length">00:07:52:01</property>
  <property name="eof">pause</property>
  <property name="resource">/media/bordun/plagiat/2018-12-10_Plagiat_RespecteLaPuissancePapale/Carte_3/CAM1_2018-12-10_1819_C0001.mov</property>
  <property name="audio_index">2</property>
  <property name="video_index">1</property>
  <property name="mute_on_pause">1</property>
  <property name="mlt_service">avformat-novalidate</property>
  <property name="meta.media.nb_streams">3</property>
  <property name="meta.media.1.stream.type">video</property>
  <property name="meta.media.1.stream.frame_rate">50</property>
  <property name="meta.media.1.stream.sample_aspect_ratio">1</property>
  <property name="meta.media.1.codec.width">1920</property>
  <property name="meta.media.1.codec.height">1080</property>
  <property name="meta.media.1.codec.rotate">0</property>
  <property name="meta.media.1.codec.frame_rate">5000</property>
  <property name="meta.media.1.codec.pix_fmt">yuv422p10le</property>
  <property name="meta.media.1.codec.sample_aspect_ratio">0</property>
  <property name="meta.media.1.codec.colorspace">709</property>
  <property name="meta.media.1.codec.name">prores</property>
  <property name="meta.media.1.codec.long_name">ProRes (iCodec Pro)</property>
  <property name="meta.media.1.codec.bit_rate">366956856</property>
  <property name="meta.attr.1.stream.creation_time.markup">2018-12-10T18:19:34.000000Z</property>
  <property name="meta.attr.1.stream.language.markup">eng</property>
  <property name="meta.attr.1.stream.handler_name.markup">Apple Video Media Handler</property>
  <property name="meta.attr.1.stream.encoder.markup">Apple ProRes 422 HQ</property>
  <property name="meta.attr.1.stream.timecode.markup">18:19:34:45</property>
  <property name="meta.media.2.stream.type">audio</property>
  <property name="meta.media.2.codec.sample_fmt">s32</property>
  <property name="meta.media.2.codec.sample_rate">48000</property>
  <property name="meta.media.2.codec.channels">2</property>
  <property name="meta.media.2.codec.name">pcm_s24le</property>
  <property name="meta.media.2.codec.long_name">PCM signed 24-bit little-endian</property>
  <property name="meta.media.2.codec.bit_rate">2304000</property>
  <property name="meta.attr.2.stream.creation_time.markup">2018-12-10T18:19:34.000000Z</property>
  <property name="meta.attr.2.stream.language.markup">eng</property>
  <property name="meta.attr.2.stream.handler_name.markup">Apple Sound Media Handler</property>
  <property name="meta.attr.2.stream.timecode.markup">18:19:34:45</property>
  <property name="meta.attr.com.apple.proapps.manufacturer.markup">Blackmagic Design</property>
  <property name="meta.attr.com.apple.proapps.cameraName.markup">CAM1</property>
  <property name="meta.attr.com.apple.proapps.isGood.markup">0</property>
  <property name="meta.attr.com.apple.proapps.customgamma.markup">com.blackmagic-design.cinemacamera.filmlog</property>
  <property name="meta.attr.com.blackmagic-design.cinemacamera.uuid.markup">18E5E00548F94923B646613A73C01B56</property>
  <property name="meta.attr.creation_time.markup">2018-12-10T18:19:34.000000Z</property>
  <property name="meta.attr.timecode.markup">18:19:34:45</property>
  <property name="seekable">1</property>
  <property name="meta.media.sample_aspect_num">1</property>
  <property name="meta.media.sample_aspect_den">1</property>
  <property name="aspect_ratio">1</property>
  <property name="kdenlive:folderid">15</property>
  <property name="kdenlive:file_size">21789523729</property>
  <property name="kdenlive:file_hash">3b63588261e8ab0454ca51230a000191</property>
  <property name="global_feed">1</property>
  <property name="meta.media.frame_rate_num">50</property>
  <property name="meta.media.frame_rate_den">1</property>
  <property name="meta.media.colorspace">709</property>
  <property name="meta.media.color_trc">2</property>
  <property name="meta.media.width">1920</property>
  <property name="meta.media.height">1080</property>
  <property name="meta.media.top_field_first">0</property>
  <property name="meta.media.progressive">1</property>
 </producer>
 <producer title="Anonymous Submission" id="27" in="0" out="7640">
  <property name="length">00:02:32:41</property>
  <property name="eof">pause</property>
  <property name="resource">/home/bordun/scp/2018-12-06_RespecteLaPuissancePapale_Clip_part1.wav</property>
  <property name="audio_index">0</property>
  <property name="video_index">-1</property>
  <property name="mute_on_pause">1</property>
  <property name="mlt_service">avformat-novalidate</property>
  <property name="meta.media.nb_streams">1</property>
  <property name="meta.media.0.stream.type">audio</property>
  <property name="meta.media.0.codec.sample_fmt">s16</property>
  <property name="meta.media.0.codec.sample_rate">48000</property>
  <property name="meta.media.0.codec.channels">2</property>
  <property name="meta.media.0.codec.name">pcm_s16le</property>
  <property name="meta.media.0.codec.long_name">PCM signed 16-bit little-endian</property>
  <property name="meta.media.0.codec.bit_rate">1536000</property>
  <property name="seekable">1</property>
  <property name="kdenlive:file_size">29340044</property>
  <property name="kdenlive:file_hash">7d93ed9df433504c583e8f008ae3ee69</property>
  <property name="global_feed">1</property>
 </producer>
 <producer title="Anonymous Submission" id="28" in="0" out="7733">
  <property name="length">00:02:34:34</property>
  <property name="eof">pause</property>
  <property name="resource">/home/bordun/Clip02_RespecteLaPuissancePapale/Audio/2018-12-06_RespecteLaPuissancePapale_Clip_part1.ogg</property>
  <property name="audio_index">0</property>
  <property name="video_index">-1</property>
  <property name="mute_on_pause">1</property>
  <property name="mlt_service">avformat-novalidate</property>
  <property name="meta.media.nb_streams">1</property>
  <property name="meta.media.0.stream.type">audio</property>
  <property name="meta.media.0.codec.sample_fmt">fltp</property>
  <property name="meta.media.0.codec.sample_rate">48000</property>
  <property name="meta.media.0.codec.channels">2</property>
  <property name="meta.media.0.codec.name">vorbis</property>
  <property name="meta.media.0.codec.long_name">Vorbis</property>
  <property name="meta.media.0.codec.bit_rate">128000</property>
  <property name="meta.attr.0.stream.disc.markup">0</property>
  <property name="meta.attr.0.stream.ENCODER.markup">libsndfile</property>
  <property name="seekable">1</property>
  <property name="kdenlive:file_size">2263496</property>
  <property name="kdenlive:file_hash">1137434253767f92924bc94a8dcad7c3</property>
  <property name="global_feed">1</property>
 </producer>
 <producer title="Anonymous Submission" id="29" in="0" out="249">
  <property name="length">250</property>
  <property name="eof">pause</property>
  <property name="resource">0xffffffff</property>
  <property name="aspect_ratio">1</property>
  <property name="mlt_service">color</property>
  <property name="kdenlive:clipname">Clip couleur</property>
  <property name="kdenlive:folderid">16</property>
  <property name="kdenlive:duration">250</property>
  <property name="kdenlive:file_hash">039b56a692cd66eefeea44a17539e5a2</property>
  <property name="global_feed">1</property>
 </producer>
 <producer id="30" in="0" out="258">
  <property name="length">259</property>
  <property name="eof">pause</property>
  <property name="resource">0x000000ff</property>
  <property name="aspect_ratio">1</property>
  <property name="mlt_service">color</property>
  <property name="kdenlive:clipname">Clip couleur</property>
  <property name="kdenlive:folderid">16</property>
  <property name="kdenlive:duration">250</property>
  <property name="kdenlive:file_hash">9196813120dc5c505072516b15baf414</property>
 </producer>
 <producer title="Anonymous Submission" id="32" in="0" out="252">
  <property name="length">00:00:05:03</property>
  <property name="eof">pause</property>
  <property name="resource">/home/bordun/Clip02_RespecteLaPuissancePapale/Logos/logo_smp.mp4</property>
  <property name="meta.media.nb_streams">2</property>
  <property name="meta.media.0.stream.type">video</property>
  <property name="meta.media.0.stream.frame_rate">50</property>
  <property name="meta.media.0.stream.sample_aspect_ratio">1</property>
  <property name="meta.media.0.codec.width">1920</property>
  <property name="meta.media.0.codec.height">1080</property>
  <property name="meta.media.0.codec.rotate">0</property>
  <property name="meta.media.0.codec.frame_rate">50</property>
  <property name="meta.media.0.codec.pix_fmt">yuv420p</property>
  <property name="meta.media.0.codec.sample_aspect_ratio">1</property>
  <property name="meta.media.0.codec.colorspace">709</property>
  <property name="meta.media.0.codec.color_trc">1</property>
  <property name="meta.media.0.codec.name">h264</property>
  <property name="meta.media.0.codec.long_name">H.264 / AVC / MPEG-4 AVC / MPEG-4 part 10</property>
  <property name="meta.media.0.codec.bit_rate">405751</property>
  <property name="meta.attr.0.stream.handler_name.markup">VideoHandler</property>
  <property name="meta.media.1.stream.type">audio</property>
  <property name="meta.media.1.codec.sample_fmt">fltp</property>
  <property name="meta.media.1.codec.sample_rate">48000</property>
  <property name="meta.media.1.codec.channels">2</property>
  <property name="meta.media.1.codec.name">aac</property>
  <property name="meta.media.1.codec.long_name">AAC (Advanced Audio Coding)</property>
  <property name="meta.media.1.codec.bit_rate">2276</property>
  <property name="meta.attr.1.stream.handler_name.markup">SoundHandler</property>
  <property name="meta.attr.major_brand.markup">isom</property>
  <property name="meta.attr.minor_version.markup">512</property>
  <property name="meta.attr.compatible_brands.markup">isomiso2avc1mp41</property>
  <property name="meta.attr.encoder.markup">Lavf58.20.100</property>
  <property name="seekable">1</property>
  <property name="meta.media.sample_aspect_num">1</property>
  <property name="meta.media.sample_aspect_den">1</property>
  <property name="aspect_ratio">1</property>
  <property name="audio_index">1</property>
  <property name="video_index">0</property>
  <property name="mute_on_pause">1</property>
  <property name="mlt_service">avformat-novalidate</property>
  <property name="kdenlive:folderid">17</property>
  <property name="meta.media.frame_rate_num">50</property>
  <property name="meta.media.frame_rate_den">1</property>
  <property name="meta.media.colorspace">709</property>
  <property name="meta.media.color_trc">1</property>
  <property name="meta.media.width">1920</property>
  <property name="meta.media.height">1080</property>
  <property name="meta.media.top_field_first">0</property>
  <property name="meta.media.progressive">1</property>
  <property name="kdenlive:file_size">263656</property>
  <property name="kdenlive:file_hash">257a971594b4c9b39d9abda2cbdcb5e3</property>
  <property name="global_feed">1</property>
 </producer>
 <producer title="Anonymous Submission" id="33" in="0" out="252">
  <property name="length">00:00:05:03</property>
  <property name="eof">pause</property>
  <property name="resource">/home/bordun/Clip02_RespecteLaPuissancePapale/Logos/logo_ammd.mp4</property>
  <property name="meta.media.nb_streams">2</property>
  <property name="meta.media.0.stream.type">video</property>
  <property name="meta.media.0.stream.frame_rate">50</property>
  <property name="meta.media.0.stream.sample_aspect_ratio">1</property>
  <property name="meta.media.0.codec.width">1920</property>
  <property name="meta.media.0.codec.height">1080</property>
  <property name="meta.media.0.codec.rotate">0</property>
  <property name="meta.media.0.codec.frame_rate">50</property>
  <property name="meta.media.0.codec.pix_fmt">yuv420p</property>
  <property name="meta.media.0.codec.sample_aspect_ratio">1</property>
  <property name="meta.media.0.codec.colorspace">709</property>
  <property name="meta.media.0.codec.color_trc">1</property>
  <property name="meta.media.0.codec.name">h264</property>
  <property name="meta.media.0.codec.long_name">H.264 / AVC / MPEG-4 AVC / MPEG-4 part 10</property>
  <property name="meta.media.0.codec.bit_rate">818328</property>
  <property name="meta.attr.0.stream.handler_name.markup">VideoHandler</property>
  <property name="meta.media.1.stream.type">audio</property>
  <property name="meta.media.1.codec.sample_fmt">fltp</property>
  <property name="meta.media.1.codec.sample_rate">48000</property>
  <property name="meta.media.1.codec.channels">2</property>
  <property name="meta.media.1.codec.name">aac</property>
  <property name="meta.media.1.codec.long_name">AAC (Advanced Audio Coding)</property>
  <property name="meta.media.1.codec.bit_rate">2276</property>
  <property name="meta.attr.1.stream.handler_name.markup">SoundHandler</property>
  <property name="meta.attr.major_brand.markup">isom</property>
  <property name="meta.attr.minor_version.markup">512</property>
  <property name="meta.attr.compatible_brands.markup">isomiso2avc1mp41</property>
  <property name="meta.attr.encoder.markup">Lavf58.20.100</property>
  <property name="seekable">1</property>
  <property name="meta.media.sample_aspect_num">1</property>
  <property name="meta.media.sample_aspect_den">1</property>
  <property name="aspect_ratio">1</property>
  <property name="audio_index">1</property>
  <property name="video_index">0</property>
  <property name="mute_on_pause">1</property>
  <property name="mlt_service">avformat-novalidate</property>
  <property name="kdenlive:folderid">17</property>
  <property name="meta.media.frame_rate_num">50</property>
  <property name="meta.media.frame_rate_den">1</property>
  <property name="meta.media.colorspace">709</property>
  <property name="meta.media.color_trc">1</property>
  <property name="meta.media.width">1920</property>
  <property name="meta.media.height">1080</property>
  <property name="meta.media.top_field_first">0</property>
  <property name="meta.media.progressive">1</property>
  <property name="kdenlive:file_size">522548</property>
  <property name="kdenlive:file_hash">7e248ce4ffc891ed5e9c0ac7814b383e</property>
  <property name="global_feed">1</property>
 </producer>
 <producer title="Anonymous Submission" id="34" in="0" out="252">
  <property name="length">00:00:05:03</property>
  <property name="eof">pause</property>
  <property name="resource">/home/bordun/Clip02_RespecteLaPuissancePapale/Logos/logo_2d.mp4</property>
  <property name="meta.media.nb_streams">2</property>
  <property name="meta.media.0.stream.type">video</property>
  <property name="meta.media.0.stream.frame_rate">50</property>
  <property name="meta.media.0.stream.sample_aspect_ratio">1</property>
  <property name="meta.media.0.codec.width">1920</property>
  <property name="meta.media.0.codec.height">1080</property>
  <property name="meta.media.0.codec.rotate">0</property>
  <property name="meta.media.0.codec.frame_rate">50</property>
  <property name="meta.media.0.codec.pix_fmt">yuv420p</property>
  <property name="meta.media.0.codec.sample_aspect_ratio">1</property>
  <property name="meta.media.0.codec.colorspace">709</property>
  <property name="meta.media.0.codec.color_trc">1</property>
  <property name="meta.media.0.codec.name">h264</property>
  <property name="meta.media.0.codec.long_name">H.264 / AVC / MPEG-4 AVC / MPEG-4 part 10</property>
  <property name="meta.media.0.codec.bit_rate">431212</property>
  <property name="meta.attr.0.stream.handler_name.markup">VideoHandler</property>
  <property name="meta.media.1.stream.type">audio</property>
  <property name="meta.media.1.codec.sample_fmt">fltp</property>
  <property name="meta.media.1.codec.sample_rate">48000</property>
  <property name="meta.media.1.codec.channels">2</property>
  <property name="meta.media.1.codec.name">aac</property>
  <property name="meta.media.1.codec.long_name">AAC (Advanced Audio Coding)</property>
  <property name="meta.media.1.codec.bit_rate">2276</property>
  <property name="meta.attr.1.stream.handler_name.markup">SoundHandler</property>
  <property name="meta.attr.major_brand.markup">isom</property>
  <property name="meta.attr.minor_version.markup">512</property>
  <property name="meta.attr.compatible_brands.markup">isomiso2avc1mp41</property>
  <property name="meta.attr.encoder.markup">Lavf58.20.100</property>
  <property name="seekable">1</property>
  <property name="meta.media.sample_aspect_num">1</property>
  <property name="meta.media.sample_aspect_den">1</property>
  <property name="aspect_ratio">1</property>
  <property name="audio_index">1</property>
  <property name="video_index">0</property>
  <property name="mute_on_pause">1</property>
  <property name="mlt_service">avformat-novalidate</property>
  <property name="kdenlive:folderid">17</property>
  <property name="meta.media.frame_rate_num">50</property>
  <property name="meta.media.frame_rate_den">1</property>
  <property name="meta.media.colorspace">709</property>
  <property name="meta.media.color_trc">1</property>
  <property name="meta.media.width">1920</property>
  <property name="meta.media.height">1080</property>
  <property name="meta.media.top_field_first">0</property>
  <property name="meta.media.progressive">1</property>
  <property name="kdenlive:file_size">279633</property>
  <property name="kdenlive:file_hash">091cdaa080da0e61c5520ca7b8771eb2</property>
  <property name="global_feed">1</property>
 </producer>
 <playlist id="main bin">
  <property name="kdenlive:docproperties.audiotargettrack">2</property>
  <property name="kdenlive:docproperties.decimalPoint">,</property>
  <property name="kdenlive:docproperties.dirtypreviewchunks">0,25,50,75,100,125,150,175,200,225,250,275,300,325,350,375,400,425,450,475,500,525,550,575,600,625,650,675,700,725,750,775,800,825,850,875,900,925,950,975,1000,1025,1050,1075,1100,1125,1150,1175,1200,1225,1250,1275,1300,1325,1350,1375,1400,1425,1450,1475,1500,1525,1550,1575,1600,1625,1650,1675,1700,1725,1750,1775,1800,1825,1850,1875,1900,1925,1950,1975,2000,2025,2050,2075,2100,2125,2150,2175,2200,2225,2250,2275,2300,2325,2350,2375,2400,2425,2450,2475,2500,2525,2550,2575,2600,2625,2650,2675,2700,2725,2750,2775,2800,2825,2850,2875,2900,2925,2950,2975,3000,3025,3050,3075,3100,3125,3150,3175,3200,3225,3250,3275,3300,3325,3350,3375,3400,3425,3450,3475,3500,3525,3550,3575,3600,3625,3650,3675,3700,3725,3750,3775,3800,3825,3850,3875,3900,3925,3950,3975,4000,4025,4050,4075,4100,4125,4150,4175,4200,4225,4250,4275,4300,4325,4350,4375,4400,4425,4450,4475,4500,4525,4550,4575,4600,4625,4650,4675,4700,4725,4750,4775,4800,4825,4850,4875,4900,4925,4950</property>
  <property name="kdenlive:docproperties.disablepreview">0</property>
  <property name="kdenlive:docproperties.documentid">1547739419641</property>
  <property name="kdenlive:docproperties.enableproxy">0</property>
  <property name="kdenlive:docproperties.generateimageproxy">0</property>
  <property name="kdenlive:docproperties.generateproxy">1</property>
  <property name="kdenlive:docproperties.kdenliveversion">18.12.0</property>
  <property name="kdenlive:docproperties.position">851</property>
  <property name="kdenlive:docproperties.previewchunks"/>
  <property name="kdenlive:docproperties.previewextension">mov</property>
  <property name="kdenlive:docproperties.previewparameters">r=50 s=1920x1080 vb=72M threads=0 vcodec=dnxhd</property>
  <property name="kdenlive:docproperties.profile">atsc_1080p_50</property>
  <property name="kdenlive:docproperties.proxyextension">mkv</property>
  <property name="kdenlive:docproperties.proxyimageminsize">2000</property>
  <property name="kdenlive:docproperties.proxyminsize">1000</property>
  <property name="kdenlive:docproperties.proxyparams">-vf yadif,scale=960:-2 -qscale 3 -vcodec mjpeg -acodec pcm_s16le</property>
  <property name="kdenlive:docproperties.version">0.96</property>
  <property name="kdenlive:docproperties.verticalzoom">1</property>
  <property name="kdenlive:docproperties.videotargettrack">4</property>
  <property name="kdenlive:docproperties.zonein">0</property>
  <property name="kdenlive:docproperties.zoneout">782</property>
  <property name="kdenlive:docproperties.zoom">7</property>
  <property name="kdenlive:documentnotes"/>
  <property name="kdenlive:clipgroups"/>
  <property name="kdenlive:folder.-1.5">Part I - Le5</property>
  <property name="kdenlive:folder.-1.6">Part II - Ballade</property>
  <property name="kdenlive:folder.-1.7">Part III - AfroTrap</property>
  <property name="kdenlive:folder.5.9">Autel</property>
  <property name="kdenlive:folder.5.10">ContrePlongee</property>
  <property name="kdenlive:folder.6.11">NanoChiottes</property>
  <property name="kdenlive:folder.6.12">MissyPiano</property>
  <property name="kdenlive:folder.5.13">Trap</property>
  <property name="kdenlive:folder.5.14">InstruRefrain</property>
  <property name="kdenlive:folder.-1.15">Part IV - Meshuggah</property>
  <property name="kdenlive:docproperties.renderaudioquality">192</property>
  <property name="kdenlive:docproperties.rendercategory">Generic (HD for web, mobile devices...)</property>
  <property name="kdenlive:docproperties.renderendguide">-1</property>
  <property name="kdenlive:docproperties.renderexportaudio">0</property>
  <property name="kdenlive:docproperties.renderguide">0</property>
  <property name="kdenlive:docproperties.renderplay">0</property>
  <property name="kdenlive:docproperties.renderprofile">MP4 - the dominating format (H264/AAC)</property>
  <property name="kdenlive:docproperties.renderquality">15</property>
  <property name="kdenlive:docproperties.renderratio">0</property>
  <property name="kdenlive:docproperties.renderrescale">0</property>
  <property name="kdenlive:docproperties.renderrescaleheight">180</property>
  <property name="kdenlive:docproperties.renderrescalewidth">320</property>
  <property name="kdenlive:docproperties.renderscanning">0</property>
  <property name="kdenlive:docproperties.renderspeed">2</property>
  <property name="kdenlive:docproperties.renderstartguide">-1</property>
  <property name="kdenlive:docproperties.rendertcoverlay">0</property>
  <property name="kdenlive:docproperties.rendertctype">0</property>
  <property name="kdenlive:docproperties.rendertwopass">0</property>
  <property name="kdenlive:docproperties.renderurl">/home/bordun/Clip02_RespecteLaPuissancePapale/Rendus/logos.mp4</property>
  <property name="kdenlive:docproperties.renderzone">1</property>
  <property name="kdenlive:folder.-1.16">Colors</property>
  <property name="kdenlive:customeffects">&lt;customeffects>
 &lt;effect type="custom" unique="1" id="rumble" tag="oldfilm" kdenlive_info="0/-1/" effectcolor="#c92c3e" disable="0">
  &lt;name>rumble&lt;/name>
  &lt;description>Moves the Picture up and down and random brightness change&lt;/description>
  &lt;author>Marco Gittler&lt;/author>
  &lt;parameter type="double" name="delta" value="11" min="0" max="400" default="14">
   &lt;name>Y-Delta&lt;/name>
  &lt;/parameter>
  &lt;parameter type="double" suffix="%" name="every" value="100" min="0" max="100" default="20">
   &lt;name>% of picture have a delta&lt;/name>
  &lt;/parameter>
  &lt;parameter type="double" name="brightnessdelta_up" value="0" min="0" max="100" default="20">
   &lt;name>Brightness up&lt;/name>
  &lt;/parameter>
  &lt;parameter type="double" name="brightnessdelta_down" value="0" min="0" max="100" default="30">
   &lt;name>Brightness down&lt;/name>
  &lt;/parameter>
  &lt;parameter type="double" suffix="%" name="brightnessdelta_every" value="100" min="0" max="100" default="70">
   &lt;name>Brightness every&lt;/name>
  &lt;/parameter>
  &lt;parameter type="double" name="unevendevelop_up" value="0" min="0" max="100" default="60">
   &lt;name>Unevendevelop up&lt;/name>
  &lt;/parameter>
  &lt;parameter type="double" name="unevendevelop_down" value="0" min="0" max="100" default="20">
   &lt;name>Unevendevelop down&lt;/name>
  &lt;/parameter>
  &lt;parameter type="double" name="unevendevelop_duration" value="0" min="0" max="10000" default="70">
   &lt;name>Unevendevelop Duration&lt;/name>
  &lt;/parameter>
  &lt;version>0,2&lt;/version>
  &lt;version>0,2&lt;/version>
 &lt;/effect>
&lt;/customeffects>
</property>
  <property name="kdenlive:folder.-1.17">Logo</property>
  <property name="xml_retain">1</property>
  <entry producer="1" in="0" out="14561"/>
  <entry producer="5" in="0" out="19246"/>
  <entry producer="4" in="0" out="24870"/>
  <entry producer="3" in="0" out="11635"/>
  <entry producer="2" in="0" out="11667"/>
  <entry producer="6" in="0" out="4178"/>
  <entry producer="7" in="0" out="8532"/>
  <entry producer="16" in="0" out="2403"/>
  <entry producer="17" in="0" out="2706"/>
  <entry producer="18" in="0" out="1547"/>
  <entry producer="19" in="0" out="2823"/>
  <entry producer="20" in="0" out="995"/>
  <entry producer="21" in="0" out="8367"/>
  <entry producer="23" in="0" out="90"/>
  <entry producer="24" in="0" out="2194"/>
  <entry producer="22" in="0" out="2303"/>
  <entry producer="14" in="0" out="3805"/>
  <entry producer="15" in="0" out="3941"/>
  <entry producer="10" in="0" out="3856"/>
  <entry producer="9" in="0" out="7720"/>
  <entry producer="11" in="0" out="21338"/>
  <entry producer="8" in="0" out="21621"/>
  <entry producer="25" in="0" out="4317"/>
  <entry producer="26" in="0" out="2406"/>
  <entry producer="13" in="0" out="4748"/>
  <entry producer="12" in="0" out="23600"/>
  <entry producer="27" in="0" out="7640"/>
  <entry producer="28" in="0" out="7733"/>
  <entry producer="29" in="0" out="249"/>
  <entry producer="30" in="0" out="249"/>
  <entry producer="32" in="0" out="252"/>
  <entry producer="33" in="0" out="252"/>
  <entry producer="34" in="0" out="252"/>
 </playlist>
 <producer id="black" in="0" out="82643">
  <property name="length">82644</property>
  <property name="eof">pause</property>
  <property name="resource">black</property>
  <property name="aspect_ratio">0</property>
  <property name="mlt_service">colour</property>
  <property name="set.test_audio">0</property>
 </producer>
 <playlist id="black_track">
  <entry producer="black" in="0" out="7734"/>
 </playlist>
 <producer title="Anonymous Submission" id="27_playlist1" in="0" out="7640">
  <property name="length">00:02:32:41</property>
  <property name="eof">pause</property>
  <property name="resource">/home/bordun/scp/2018-12-06_RespecteLaPuissancePapale_Clip_part1.wav</property>
  <property name="audio_index">0</property>
  <property name="video_index">-1</property>
  <property name="mute_on_pause">1</property>
  <property name="mlt_service">avformat-novalidate</property>
  <property name="seekable">1</property>
  <property name="kdenlive:file_size">29340044</property>
  <property name="kdenlive:file_hash">7d93ed9df433504c583e8f008ae3ee69</property>
  <property name="global_feed">1</property>
  <property name="xml">was here</property>
  <property name="meta.media.nb_streams">1</property>
  <property name="meta.media.0.stream.type">audio</property>
  <property name="meta.media.0.codec.sample_fmt">s16</property>
  <property name="meta.media.0.codec.sample_rate">48000</property>
  <property name="meta.media.0.codec.channels">2</property>
  <property name="meta.media.0.codec.name">pcm_s16le</property>
  <property name="meta.media.0.codec.long_name">PCM signed 16-bit little-endian</property>
  <property name="meta.media.0.codec.bit_rate">1536000</property>
 </producer>
 <playlist id="playlist1">
  <property name="kdenlive:audio_track">1</property>
  <property name="kdenlive:track_name">Audio 2</property>
  <entry producer="27_playlist1" in="0" out="7640"/>
 </playlist>
 <producer title="Anonymous Submission" id="28_playlist2" in="0" out="7733">
  <property name="length">00:02:34:34</property>
  <property name="eof">pause</property>
  <property name="resource">/home/bordun/Clip02_RespecteLaPuissancePapale/Audio/2018-12-06_RespecteLaPuissancePapale_Clip_part1.ogg</property>
  <property name="audio_index">0</property>
  <property name="video_index">-1</property>
  <property name="mute_on_pause">1</property>
  <property name="mlt_service">avformat-novalidate</property>
  <property name="seekable">1</property>
  <property name="kdenlive:file_size">2263496</property>
  <property name="kdenlive:file_hash">1137434253767f92924bc94a8dcad7c3</property>
  <property name="global_feed">1</property>
  <property name="xml">was here</property>
  <property name="meta.media.nb_streams">1</property>
  <property name="meta.media.0.stream.type">audio</property>
  <property name="meta.media.0.codec.sample_fmt">fltp</property>
  <property name="meta.media.0.codec.sample_rate">48000</property>
  <property name="meta.media.0.codec.channels">2</property>
  <property name="meta.media.0.codec.name">vorbis</property>
  <property name="meta.media.0.codec.long_name">Vorbis</property>
  <property name="meta.media.0.codec.bit_rate">128000</property>
  <property name="meta.attr.0.stream.disc.markup">0</property>
  <property name="meta.attr.0.stream.ENCODER.markup">libsndfile</property>
 </producer>
 <playlist id="playlist2">
  <property name="kdenlive:audio_track">1</property>
  <property name="kdenlive:track_name">Audio 1</property>
  <entry producer="28_playlist2" in="0" out="7733"/>
 </playlist>
 <playlist id="playlist11">
  <property name="kdenlive:track_name">Audio 3</property>
  <property name="kdenlive:audio_track">1</property>
 </playlist>
 <producer title="Anonymous Submission" id="2_playlist3" in="0" out="11667">
  <property name="length">00:03:53:18</property>
  <property name="eof">pause</property>
  <property name="resource">/media/bordun/plagiat/2018-12-10_Plagiat_RespecteLaPuissancePapale/Carte_1/CAM1_2018-12-10_1552_C0001.mov</property>
  <property name="audio_index">2</property>
  <property name="video_index">1</property>
  <property name="mute_on_pause">1</property>
  <property name="mlt_service">avformat-novalidate</property>
  <property name="seekable">1</property>
  <property name="aspect_ratio">1</property>
  <property name="kdenlive:folderid">9</property>
  <property name="kdenlive:file_size">10772440985</property>
  <property name="kdenlive:file_hash">3b4484753689f48a337c1729ea18ad59</property>
  <property name="global_feed">1</property>
  <property name="xml">was here</property>
  <property name="meta.media.nb_streams">3</property>
  <property name="meta.media.1.stream.type">video</property>
  <property name="meta.media.1.stream.frame_rate">50</property>
  <property name="meta.media.1.stream.sample_aspect_ratio">1</property>
  <property name="meta.media.1.codec.width">1920</property>
  <property name="meta.media.1.codec.height">1080</property>
  <property name="meta.media.1.codec.rotate">0</property>
  <property name="meta.media.1.codec.frame_rate">5000</property>
  <property name="meta.media.1.codec.pix_fmt">yuv422p10le</property>
  <property name="meta.media.1.codec.sample_aspect_ratio">0</property>
  <property name="meta.media.1.codec.colorspace">709</property>
  <property name="meta.media.1.codec.name">prores</property>
  <property name="meta.media.1.codec.long_name">ProRes (iCodec Pro)</property>
  <property name="meta.media.1.codec.bit_rate">366959328</property>
  <property name="meta.attr.1.stream.creation_time.markup">2018-12-10T15:52:13.000000Z</property>
  <property name="meta.attr.1.stream.language.markup">eng</property>
  <property name="meta.attr.1.stream.handler_name.markup">Apple Video Media Handler</property>
  <property name="meta.attr.1.stream.encoder.markup">Apple ProRes 422 HQ</property>
  <property name="meta.attr.1.stream.timecode.markup">15:52:13:35</property>
  <property name="meta.media.2.stream.type">audio</property>
  <property name="meta.media.2.codec.sample_fmt">s32</property>
  <property name="meta.media.2.codec.sample_rate">48000</property>
  <property name="meta.media.2.codec.channels">2</property>
  <property name="meta.media.2.codec.name">pcm_s24le</property>
  <property name="meta.media.2.codec.long_name">PCM signed 24-bit little-endian</property>
  <property name="meta.media.2.codec.bit_rate">2304000</property>
  <property name="meta.attr.2.stream.creation_time.markup">2018-12-10T15:52:13.000000Z</property>
  <property name="meta.attr.2.stream.language.markup">eng</property>
  <property name="meta.attr.2.stream.handler_name.markup">Apple Sound Media Handler</property>
  <property name="meta.attr.2.stream.timecode.markup">15:52:13:35</property>
  <property name="meta.attr.com.apple.proapps.manufacturer.markup">Blackmagic Design</property>
  <property name="meta.attr.com.apple.proapps.cameraName.markup">CAM1</property>
  <property name="meta.attr.com.apple.proapps.isGood.markup">0</property>
  <property name="meta.attr.com.apple.proapps.customgamma.markup">com.blackmagic-design.cinemacamera.filmlog</property>
  <property name="meta.attr.com.blackmagic-design.cinemacamera.uuid.markup">18E5E00548F94923B646613A73C01B56</property>
  <property name="meta.attr.creation_time.markup">2018-12-10T15:52:13.000000Z</property>
  <property name="meta.attr.timecode.markup">15:52:13:35</property>
  <property name="meta.media.sample_aspect_num">1</property>
  <property name="meta.media.sample_aspect_den">1</property>
  <property name="meta.media.frame_rate_num">50</property>
  <property name="meta.media.frame_rate_den">1</property>
  <property name="meta.media.colorspace">709</property>
  <property name="meta.media.color_trc">2</property>
  <property name="meta.media.width">1920</property>
  <property name="meta.media.height">1080</property>
  <property name="meta.media.top_field_first">0</property>
  <property name="meta.media.progressive">1</property>
 </producer>
 <playlist id="playlist3">
  <property name="kdenlive:track_name">Vidéo 1</property>
  <blank length="3050"/>
  <entry producer="2_playlist3" in="8302" out="10262"/>
 </playlist>
 <producer title="Anonymous Submission" id="1_playlist12" in="0" out="14561">
  <property name="length">00:04:51:12</property>
  <property name="eof">pause</property>
  <property name="resource">/media/bordun/plagiat/2018-12-10_Plagiat_RespecteLaPuissancePapale/Carte_1/CAM1_2018-12-10_1541_C0000.mov</property>
  <property name="audio_index">2</property>
  <property name="video_index">1</property>
  <property name="mute_on_pause">1</property>
  <property name="mlt_service">avformat-novalidate</property>
  <property name="seekable">1</property>
  <property name="aspect_ratio">1</property>
  <property name="kdenlive:folderid">9</property>
  <property name="kdenlive:file_size">13444313961</property>
  <property name="kdenlive:file_hash">ef25fabf181f2da437febd9d2ce92b72</property>
  <property name="global_feed">1</property>
  <property name="xml">was here</property>
  <property name="meta.media.nb_streams">3</property>
  <property name="meta.media.1.stream.type">video</property>
  <property name="meta.media.1.stream.frame_rate">50</property>
  <property name="meta.media.1.stream.sample_aspect_ratio">1</property>
  <property name="meta.media.1.codec.width">1920</property>
  <property name="meta.media.1.codec.height">1080</property>
  <property name="meta.media.1.codec.rotate">0</property>
  <property name="meta.media.1.codec.frame_rate">5000</property>
  <property name="meta.media.1.codec.pix_fmt">yuv422p10le</property>
  <property name="meta.media.1.codec.sample_aspect_ratio">0</property>
  <property name="meta.media.1.codec.colorspace">709</property>
  <property name="meta.media.1.codec.name">prores</property>
  <property name="meta.media.1.codec.long_name">ProRes (iCodec Pro)</property>
  <property name="meta.media.1.codec.bit_rate">366959179</property>
  <property name="meta.attr.1.stream.creation_time.markup">2018-12-10T15:41:17.000000Z</property>
  <property name="meta.attr.1.stream.language.markup">eng</property>
  <property name="meta.attr.1.stream.handler_name.markup">Apple Video Media Handler</property>
  <property name="meta.attr.1.stream.encoder.markup">Apple ProRes 422 HQ</property>
  <property name="meta.attr.1.stream.timecode.markup">15:41:17:21</property>
  <property name="meta.media.2.stream.type">audio</property>
  <property name="meta.media.2.codec.sample_fmt">s32</property>
  <property name="meta.media.2.codec.sample_rate">48000</property>
  <property name="meta.media.2.codec.channels">2</property>
  <property name="meta.media.2.codec.name">pcm_s24le</property>
  <property name="meta.media.2.codec.long_name">PCM signed 24-bit little-endian</property>
  <property name="meta.media.2.codec.bit_rate">2304000</property>
  <property name="meta.attr.2.stream.creation_time.markup">2018-12-10T15:41:17.000000Z</property>
  <property name="meta.attr.2.stream.language.markup">eng</property>
  <property name="meta.attr.2.stream.handler_name.markup">Apple Sound Media Handler</property>
  <property name="meta.attr.2.stream.timecode.markup">15:41:17:21</property>
  <property name="meta.attr.com.apple.proapps.manufacturer.markup">Blackmagic Design</property>
  <property name="meta.attr.com.apple.proapps.cameraName.markup">CAM1</property>
  <property name="meta.attr.com.apple.proapps.isGood.markup">0</property>
  <property name="meta.attr.com.apple.proapps.customgamma.markup">com.blackmagic-design.cinemacamera.filmlog</property>
  <property name="meta.attr.com.blackmagic-design.cinemacamera.uuid.markup">18E5E00548F94923B646613A73C01B56</property>
  <property name="meta.attr.creation_time.markup">2018-12-10T15:41:17.000000Z</property>
  <property name="meta.attr.timecode.markup">15:41:17:21</property>
  <property name="meta.media.sample_aspect_num">1</property>
  <property name="meta.media.sample_aspect_den">1</property>
  <property name="meta.media.frame_rate_num">50</property>
  <property name="meta.media.frame_rate_den">1</property>
  <property name="meta.media.colorspace">709</property>
  <property name="meta.media.color_trc">2</property>
  <property name="meta.media.width">1920</property>
  <property name="meta.media.height">1080</property>
  <property name="meta.media.top_field_first">0</property>
  <property name="meta.media.progressive">1</property>
 </producer>
 <playlist id="playlist12">
  <property name="kdenlive:track_name">Vidéo 10</property>
  <blank length="3050"/>
  <entry producer="1_playlist12" in="10890" out="12850"/>
 </playlist>
 <producer title="Anonymous Submission" id="3_playlist4" in="0" out="11635">
  <property name="length">00:03:52:36</property>
  <property name="eof">pause</property>
  <property name="resource">/media/bordun/plagiat/2018-12-10_Plagiat_RespecteLaPuissancePapale/Carte_1/CAM1_2018-12-10_1601_C0002.mov</property>
  <property name="audio_index">2</property>
  <property name="video_index">1</property>
  <property name="mute_on_pause">1</property>
  <property name="mlt_service">avformat-novalidate</property>
  <property name="seekable">1</property>
  <property name="aspect_ratio">1</property>
  <property name="kdenlive:folderid">9</property>
  <property name="kdenlive:file_size">10795373957</property>
  <property name="kdenlive:file_hash">c46cb1ab94a25f5ab196e5d4e002dba1</property>
  <property name="global_feed">1</property>
  <property name="xml">was here</property>
  <property name="meta.media.nb_streams">3</property>
  <property name="meta.media.1.stream.type">video</property>
  <property name="meta.media.1.stream.frame_rate">50</property>
  <property name="meta.media.1.stream.sample_aspect_ratio">1</property>
  <property name="meta.media.1.codec.width">1920</property>
  <property name="meta.media.1.codec.height">1080</property>
  <property name="meta.media.1.codec.rotate">0</property>
  <property name="meta.media.1.codec.frame_rate">5000</property>
  <property name="meta.media.1.codec.pix_fmt">yuv422p10le</property>
  <property name="meta.media.1.codec.sample_aspect_ratio">0</property>
  <property name="meta.media.1.codec.colorspace">709</property>
  <property name="meta.media.1.codec.name">prores</property>
  <property name="meta.media.1.codec.long_name">ProRes (iCodec Pro)</property>
  <property name="meta.media.1.codec.bit_rate">366958785</property>
  <property name="meta.attr.1.stream.creation_time.markup">2018-12-10T16:01:37.000000Z</property>
  <property name="meta.attr.1.stream.language.markup">eng</property>
  <property name="meta.attr.1.stream.handler_name.markup">Apple Video Media Handler</property>
  <property name="meta.attr.1.stream.encoder.markup">Apple ProRes 422 HQ</property>
  <property name="meta.attr.1.stream.timecode.markup">16:01:37:09</property>
  <property name="meta.media.2.stream.type">audio</property>
  <property name="meta.media.2.codec.sample_fmt">s32</property>
  <property name="meta.media.2.codec.sample_rate">48000</property>
  <property name="meta.media.2.codec.channels">2</property>
  <property name="meta.media.2.codec.name">pcm_s24le</property>
  <property name="meta.media.2.codec.long_name">PCM signed 24-bit little-endian</property>
  <property name="meta.media.2.codec.bit_rate">2304000</property>
  <property name="meta.attr.2.stream.creation_time.markup">2018-12-10T16:01:37.000000Z</property>
  <property name="meta.attr.2.stream.language.markup">eng</property>
  <property name="meta.attr.2.stream.handler_name.markup">Apple Sound Media Handler</property>
  <property name="meta.attr.2.stream.timecode.markup">16:01:37:09</property>
  <property name="meta.attr.com.apple.proapps.manufacturer.markup">Blackmagic Design</property>
  <property name="meta.attr.com.apple.proapps.cameraName.markup">CAM1</property>
  <property name="meta.attr.com.apple.proapps.isGood.markup">0</property>
  <property name="meta.attr.com.apple.proapps.customgamma.markup">com.blackmagic-design.cinemacamera.filmlog</property>
  <property name="meta.attr.com.blackmagic-design.cinemacamera.uuid.markup">18E5E00548F94923B646613A73C01B56</property>
  <property name="meta.attr.creation_time.markup">2018-12-10T16:01:37.000000Z</property>
  <property name="meta.attr.timecode.markup">16:01:37:09</property>
  <property name="meta.media.sample_aspect_num">1</property>
  <property name="meta.media.sample_aspect_den">1</property>
  <property name="meta.media.frame_rate_num">50</property>
  <property name="meta.media.frame_rate_den">1</property>
  <property name="meta.media.colorspace">709</property>
  <property name="meta.media.color_trc">2</property>
  <property name="meta.media.width">1920</property>
  <property name="meta.media.height">1080</property>
  <property name="meta.media.top_field_first">0</property>
  <property name="meta.media.progressive">1</property>
 </producer>
 <playlist id="playlist4">
  <property name="kdenlive:track_name">Vidéo 2</property>
  <blank length="3050"/>
  <entry producer="3_playlist4" in="2994" out="4954"/>
 </playlist>
 <playlist id="playlist5">
  <property name="kdenlive:track_name">Vidéo 3</property>
 </playlist>
 <playlist id="playlist0">
  <property name="kdenlive:track_name">Vidéo 4</property>
  <property name="kdenlive:locked_track">0</property>
 </playlist>
 <playlist id="playlist6">
  <property name="kdenlive:track_name">Vidéo 5</property>
 </playlist>
 <playlist id="playlist7">
  <property name="kdenlive:track_name">Vidéo 6</property>
  <property name="kdenlive:locked_track">0</property>
 </playlist>
 <producer title="Anonymous Submission" id="1_playlist9" in="0" out="14561">
  <property name="length">00:04:51:12</property>
  <property name="eof">pause</property>
  <property name="resource">/media/bordun/plagiat/2018-12-10_Plagiat_RespecteLaPuissancePapale/Carte_1/CAM1_2018-12-10_1541_C0000.mov</property>
  <property name="audio_index">2</property>
  <property name="video_index">1</property>
  <property name="mute_on_pause">1</property>
  <property name="mlt_service">avformat-novalidate</property>
  <property name="seekable">1</property>
  <property name="aspect_ratio">1</property>
  <property name="kdenlive:folderid">9</property>
  <property name="kdenlive:file_size">13444313961</property>
  <property name="kdenlive:file_hash">ef25fabf181f2da437febd9d2ce92b72</property>
  <property name="global_feed">1</property>
  <property name="xml">was here</property>
 </producer>
 <playlist id="playlist9">
  <property name="kdenlive:track_name">Vidéo 8</property>
  <blank length="1149"/>
  <entry producer="1_playlist9" in="4035" out="6243"/>
 </playlist>
 <producer id="slowmotion:1:0,5:1:0" in="0" out="29123">
  <property name="length">29124</property>
  <property name="eof">pause</property>
  <property name="resource">0,5:/media/bordun/plagiat/2018-12-10_Plagiat_RespecteLaPuissancePapale/Carte_1/CAM1_2018-12-10_1541_C0000.mov</property>
  <property name="aspect_ratio">1</property>
  <property name="meta.media.nb_streams">3</property>
  <property name="meta.media.1.stream.type">video</property>
  <property name="meta.media.1.stream.frame_rate">50</property>
  <property name="meta.media.1.stream.sample_aspect_ratio">1</property>
  <property name="meta.media.1.codec.width">1920</property>
  <property name="meta.media.1.codec.height">1080</property>
  <property name="meta.media.1.codec.rotate">0</property>
  <property name="meta.media.1.codec.frame_rate">5000</property>
  <property name="meta.media.1.codec.pix_fmt">yuv422p10le</property>
  <property name="meta.media.1.codec.sample_aspect_ratio">0</property>
  <property name="meta.media.1.codec.colorspace">709</property>
  <property name="meta.media.1.codec.name">prores</property>
  <property name="meta.media.1.codec.long_name">ProRes (iCodec Pro)</property>
  <property name="meta.media.1.codec.bit_rate">366959179</property>
  <property name="meta.attr.1.stream.creation_time.markup">2018-12-10T15:41:17.000000Z</property>
  <property name="meta.attr.1.stream.language.markup">eng</property>
  <property name="meta.attr.1.stream.handler_name.markup">Apple Video Media Handler</property>
  <property name="meta.attr.1.stream.encoder.markup">Apple ProRes 422 HQ</property>
  <property name="meta.attr.1.stream.timecode.markup">15:41:17:21</property>
  <property name="meta.media.2.stream.type">audio</property>
  <property name="meta.media.2.codec.sample_fmt">s32</property>
  <property name="meta.media.2.codec.sample_rate">48000</property>
  <property name="meta.media.2.codec.channels">2</property>
  <property name="meta.media.2.codec.name">pcm_s24le</property>
  <property name="meta.media.2.codec.long_name">PCM signed 24-bit little-endian</property>
  <property name="meta.media.2.codec.bit_rate">2304000</property>
  <property name="meta.attr.2.stream.creation_time.markup">2018-12-10T15:41:17.000000Z</property>
  <property name="meta.attr.2.stream.language.markup">eng</property>
  <property name="meta.attr.2.stream.handler_name.markup">Apple Sound Media Handler</property>
  <property name="meta.attr.2.stream.timecode.markup">15:41:17:21</property>
  <property name="meta.attr.com.apple.proapps.manufacturer.markup">Blackmagic Design</property>
  <property name="meta.attr.com.apple.proapps.cameraName.markup">CAM1</property>
  <property name="meta.attr.com.apple.proapps.isGood.markup">0</property>
  <property name="meta.attr.com.apple.proapps.customgamma.markup">com.blackmagic-design.cinemacamera.filmlog</property>
  <property name="meta.attr.com.blackmagic-design.cinemacamera.uuid.markup">18E5E00548F94923B646613A73C01B56</property>
  <property name="meta.attr.creation_time.markup">2018-12-10T15:41:17.000000Z</property>
  <property name="meta.attr.timecode.markup">15:41:17:21</property>
  <property name="seekable">1</property>
  <property name="meta.media.sample_aspect_num">1</property>
  <property name="meta.media.sample_aspect_den">1</property>
  <property name="audio_index">2</property>
  <property name="video_index">1</property>
  <property name="mute_on_pause">1</property>
  <property name="warp_speed">0,5</property>
  <property name="warp_resource">/media/bordun/plagiat/2018-12-10_Plagiat_RespecteLaPuissancePapale/Carte_1/CAM1_2018-12-10_1541_C0000.mov</property>
  <property name="mlt_service">timewarp</property>
  <property name="meta.media.frame_rate_num">50</property>
  <property name="meta.media.frame_rate_den">1</property>
  <property name="meta.media.colorspace">709</property>
  <property name="meta.media.color_trc">2</property>
  <property name="meta.media.width">1920</property>
  <property name="meta.media.height">1080</property>
  <property name="meta.media.top_field_first">0</property>
  <property name="meta.media.progressive">1</property>
 </producer>
 <playlist id="playlist8">
  <property name="kdenlive:track_name">Vidéo 7</property>
  <entry producer="slowmotion:1:0,5:1:0" in="9386" out="10154">
   <filter id="fade_from_black" in="4587" out="4592">
    <property name="start">0</property>
    <property name="mlt_service">brightness</property>
    <property name="kdenlive_id">fade_from_black</property>
    <property name="tag">brightness</property>
    <property name="kdenlive_ix">1</property>
    <property name="end">1</property>
   </filter>
   <filter id="filter0" in="9386" out="9391">
    <property name="start">0</property>
    <property name="mlt_service">brightness</property>
    <property name="kdenlive_id">fade_from_black</property>
    <property name="tag">brightness</property>
    <property name="kdenlive_ix">2</property>
    <property name="kdenlive_info"/>
    <property name="disable"/>
    <property name="end">1</property>
   </filter>
  </entry>
 </playlist>
 <playlist id="playlist10">
  <property name="kdenlive:track_name">Vidéo 9</property>
 </playlist>
 <producer title="Anonymous Submission" id="33_playlist13" in="0" out="252">
  <property name="length">00:00:05:03</property>
  <property name="eof">pause</property>
  <property name="resource">/home/bordun/Clip02_RespecteLaPuissancePapale/Logos/logo_ammd.mp4</property>
  <property name="audio_index">1</property>
  <property name="video_index">0</property>
  <property name="mute_on_pause">1</property>
  <property name="mlt_service">avformat-novalidate</property>
  <property name="seekable">1</property>
  <property name="aspect_ratio">1</property>
  <property name="kdenlive:folderid">17</property>
  <property name="kdenlive:file_size">522548</property>
  <property name="kdenlive:file_hash">7e248ce4ffc891ed5e9c0ac7814b383e</property>
  <property name="global_feed">1</property>
  <property name="xml">was here</property>
  <property name="meta.media.nb_streams">2</property>
  <property name="meta.media.0.stream.type">video</property>
  <property name="meta.media.0.stream.frame_rate">50</property>
  <property name="meta.media.0.stream.sample_aspect_ratio">1</property>
  <property name="meta.media.0.codec.width">1920</property>
  <property name="meta.media.0.codec.height">1080</property>
  <property name="meta.media.0.codec.rotate">0</property>
  <property name="meta.media.0.codec.frame_rate">50</property>
  <property name="meta.media.0.codec.pix_fmt">yuv420p</property>
  <property name="meta.media.0.codec.sample_aspect_ratio">1</property>
  <property name="meta.media.0.codec.colorspace">709</property>
  <property name="meta.media.0.codec.color_trc">1</property>
  <property name="meta.media.0.codec.name">h264</property>
  <property name="meta.media.0.codec.long_name">H.264 / AVC / MPEG-4 AVC / MPEG-4 part 10</property>
  <property name="meta.media.0.codec.bit_rate">818328</property>
  <property name="meta.attr.0.stream.handler_name.markup">VideoHandler</property>
  <property name="meta.media.1.stream.type">audio</property>
  <property name="meta.media.1.codec.sample_fmt">fltp</property>
  <property name="meta.media.1.codec.sample_rate">48000</property>
  <property name="meta.media.1.codec.channels">2</property>
  <property name="meta.media.1.codec.name">aac</property>
  <property name="meta.media.1.codec.long_name">AAC (Advanced Audio Coding)</property>
  <property name="meta.media.1.codec.bit_rate">2276</property>
  <property name="meta.attr.1.stream.handler_name.markup">SoundHandler</property>
  <property name="meta.attr.major_brand.markup">isom</property>
  <property name="meta.attr.minor_version.markup">512</property>
  <property name="meta.attr.compatible_brands.markup">isomiso2avc1mp41</property>
  <property name="meta.attr.encoder.markup">Lavf58.20.100</property>
  <property name="meta.media.sample_aspect_num">1</property>
  <property name="meta.media.sample_aspect_den">1</property>
  <property name="meta.media.frame_rate_num">50</property>
  <property name="meta.media.frame_rate_den">1</property>
  <property name="meta.media.colorspace">709</property>
  <property name="meta.media.color_trc">1</property>
  <property name="meta.media.width">1920</property>
  <property name="meta.media.height">1080</property>
  <property name="meta.media.top_field_first">0</property>
  <property name="meta.media.progressive">1</property>
 </producer>
 <producer title="Anonymous Submission" id="32_playlist13" in="0" out="252">
  <property name="length">00:00:05:03</property>
  <property name="eof">pause</property>
  <property name="resource">/home/bordun/Clip02_RespecteLaPuissancePapale/Logos/logo_smp.mp4</property>
  <property name="audio_index">1</property>
  <property name="video_index">0</property>
  <property name="mute_on_pause">1</property>
  <property name="mlt_service">avformat-novalidate</property>
  <property name="seekable">1</property>
  <property name="aspect_ratio">1</property>
  <property name="kdenlive:folderid">17</property>
  <property name="kdenlive:file_size">263656</property>
  <property name="kdenlive:file_hash">257a971594b4c9b39d9abda2cbdcb5e3</property>
  <property name="global_feed">1</property>
  <property name="xml">was here</property>
  <property name="meta.media.nb_streams">2</property>
  <property name="meta.media.0.stream.type">video</property>
  <property name="meta.media.0.stream.frame_rate">50</property>
  <property name="meta.media.0.stream.sample_aspect_ratio">1</property>
  <property name="meta.media.0.codec.width">1920</property>
  <property name="meta.media.0.codec.height">1080</property>
  <property name="meta.media.0.codec.rotate">0</property>
  <property name="meta.media.0.codec.frame_rate">50</property>
  <property name="meta.media.0.codec.pix_fmt">yuv420p</property>
  <property name="meta.media.0.codec.sample_aspect_ratio">1</property>
  <property name="meta.media.0.codec.colorspace">709</property>
  <property name="meta.media.0.codec.color_trc">1</property>
  <property name="meta.media.0.codec.name">h264</property>
  <property name="meta.media.0.codec.long_name">H.264 / AVC / MPEG-4 AVC / MPEG-4 part 10</property>
  <property name="meta.media.0.codec.bit_rate">405751</property>
  <property name="meta.attr.0.stream.handler_name.markup">VideoHandler</property>
  <property name="meta.media.1.stream.type">audio</property>
  <property name="meta.media.1.codec.sample_fmt">fltp</property>
  <property name="meta.media.1.codec.sample_rate">48000</property>
  <property name="meta.media.1.codec.channels">2</property>
  <property name="meta.media.1.codec.name">aac</property>
  <property name="meta.media.1.codec.long_name">AAC (Advanced Audio Coding)</property>
  <property name="meta.media.1.codec.bit_rate">2276</property>
  <property name="meta.attr.1.stream.handler_name.markup">SoundHandler</property>
  <property name="meta.attr.major_brand.markup">isom</property>
  <property name="meta.attr.minor_version.markup">512</property>
  <property name="meta.attr.compatible_brands.markup">isomiso2avc1mp41</property>
  <property name="meta.attr.encoder.markup">Lavf58.20.100</property>
  <property name="meta.media.sample_aspect_num">1</property>
  <property name="meta.media.sample_aspect_den">1</property>
  <property name="meta.media.frame_rate_num">50</property>
  <property name="meta.media.frame_rate_den">1</property>
  <property name="meta.media.colorspace">709</property>
  <property name="meta.media.color_trc">1</property>
  <property name="meta.media.width">1920</property>
  <property name="meta.media.height">1080</property>
  <property name="meta.media.top_field_first">0</property>
  <property name="meta.media.progressive">1</property>
 </producer>
 <producer title="Anonymous Submission" id="34_playlist13" in="0" out="252">
  <property name="length">00:00:05:03</property>
  <property name="eof">pause</property>
  <property name="resource">/home/bordun/Clip02_RespecteLaPuissancePapale/Logos/logo_2d.mp4</property>
  <property name="audio_index">1</property>
  <property name="video_index">0</property>
  <property name="mute_on_pause">1</property>
  <property name="mlt_service">avformat-novalidate</property>
  <property name="seekable">1</property>
  <property name="aspect_ratio">1</property>
  <property name="kdenlive:folderid">17</property>
  <property name="kdenlive:file_size">279633</property>
  <property name="kdenlive:file_hash">091cdaa080da0e61c5520ca7b8771eb2</property>
  <property name="global_feed">1</property>
  <property name="xml">was here</property>
  <property name="meta.media.nb_streams">2</property>
  <property name="meta.media.0.stream.type">video</property>
  <property name="meta.media.0.stream.frame_rate">50</property>
  <property name="meta.media.0.stream.sample_aspect_ratio">1</property>
  <property name="meta.media.0.codec.width">1920</property>
  <property name="meta.media.0.codec.height">1080</property>
  <property name="meta.media.0.codec.rotate">0</property>
  <property name="meta.media.0.codec.frame_rate">50</property>
  <property name="meta.media.0.codec.pix_fmt">yuv420p</property>
  <property name="meta.media.0.codec.sample_aspect_ratio">1</property>
  <property name="meta.media.0.codec.colorspace">709</property>
  <property name="meta.media.0.codec.color_trc">1</property>
  <property name="meta.media.0.codec.name">h264</property>
  <property name="meta.media.0.codec.long_name">H.264 / AVC / MPEG-4 AVC / MPEG-4 part 10</property>
  <property name="meta.media.0.codec.bit_rate">431212</property>
  <property name="meta.attr.0.stream.handler_name.markup">VideoHandler</property>
  <property name="meta.media.1.stream.type">audio</property>
  <property name="meta.media.1.codec.sample_fmt">fltp</property>
  <property name="meta.media.1.codec.sample_rate">48000</property>
  <property name="meta.media.1.codec.channels">2</property>
  <property name="meta.media.1.codec.name">aac</property>
  <property name="meta.media.1.codec.long_name">AAC (Advanced Audio Coding)</property>
  <property name="meta.media.1.codec.bit_rate">2276</property>
  <property name="meta.attr.1.stream.handler_name.markup">SoundHandler</property>
  <property name="meta.attr.major_brand.markup">isom</property>
  <property name="meta.attr.minor_version.markup">512</property>
  <property name="meta.attr.compatible_brands.markup">isomiso2avc1mp41</property>
  <property name="meta.attr.encoder.markup">Lavf58.20.100</property>
  <property name="meta.media.sample_aspect_num">1</property>
  <property name="meta.media.sample_aspect_den">1</property>
  <property name="meta.media.frame_rate_num">50</property>
  <property name="meta.media.frame_rate_den">1</property>
  <property name="meta.media.colorspace">709</property>
  <property name="meta.media.color_trc">1</property>
  <property name="meta.media.width">1920</property>
  <property name="meta.media.height">1080</property>
  <property name="meta.media.top_field_first">0</property>
  <property name="meta.media.progressive">1</property>
 </producer>
 <playlist id="playlist13">
  <property name="kdenlive:track_name">Vidéo 11</property>
  <entry producer="33_playlist13" in="0" out="252"/>
  <entry producer="32_playlist13" in="0" out="252"/>
  <entry producer="34_playlist13" in="0" out="252"/>
  <filter id="filter1">
   <property name="background">colour:0x00000000</property>
   <property name="mlt_service">affine</property>
   <property name="kdenlive_id">pan_zoom</property>
   <property name="tag">affine</property>
   <property name="kdenlive_ix">1</property>
   <property name="kdenlive_info"/>
   <property name="transition.geometry">0=480/270:960x540:100;758=480/270:960x540:100</property>
   <property name="transition.distort">0</property>
  </filter>
 </playlist>
 <tractor title="Anonymous Submission" id="maintractor" global_feed="1" in="0" out="7734">
  <track producer="black_track"/>
  <track hide="both" producer="playlist1"/>
  <track hide="both" producer="playlist2"/>
  <track hide="video" producer="playlist11"/>
  <track hide="audio" producer="playlist3"/>
  <track producer="playlist12"/>
  <track hide="audio" producer="playlist4"/>
  <track hide="both" producer="playlist5"/>
  <track hide="audio" producer="playlist0"/>
  <track hide="audio" producer="playlist6"/>
  <track hide="audio" producer="playlist7"/>
  <track hide="audio" producer="playlist9"/>
  <track hide="audio" producer="playlist8"/>
  <track hide="audio" producer="playlist10"/>
  <track hide="audio" producer="playlist13"/>
  <transition id="transition0">
   <property name="a_track">0</property>
   <property name="b_track">1</property>
   <property name="mlt_service">mix</property>
   <property name="always_active">1</property>
   <property name="sum">1</property>
   <property name="internal_added">237</property>
  </transition>
  <transition id="transition1">
   <property name="a_track">0</property>
   <property name="b_track">2</property>
   <property name="mlt_service">mix</property>
   <property name="always_active">1</property>
   <property name="sum">1</property>
   <property name="internal_added">237</property>
  </transition>
  <transition id="transition2">
   <property name="a_track">0</property>
   <property name="b_track">3</property>
   <property name="mlt_service">mix</property>
   <property name="always_active">1</property>
   <property name="sum">1</property>
   <property name="internal_added">237</property>
  </transition>
  <transition id="transition3">
   <property name="a_track">0</property>
   <property name="b_track">4</property>
   <property name="mlt_service">mix</property>
   <property name="always_active">1</property>
   <property name="sum">1</property>
   <property name="internal_added">237</property>
  </transition>
  <transition id="transition4">
   <property name="a_track">0</property>
   <property name="b_track">5</property>
   <property name="mlt_service">mix</property>
   <property name="always_active">1</property>
   <property name="sum">1</property>
   <property name="internal_added">237</property>
  </transition>
  <transition id="transition5">
   <property name="a_track">0</property>
   <property name="b_track">6</property>
   <property name="mlt_service">mix</property>
   <property name="always_active">1</property>
   <property name="sum">1</property>
   <property name="internal_added">237</property>
  </transition>
  <transition id="transition6">
   <property name="a_track">0</property>
   <property name="b_track">7</property>
   <property name="mlt_service">mix</property>
   <property name="always_active">1</property>
   <property name="sum">1</property>
   <property name="internal_added">237</property>
  </transition>
  <transition id="transition7">
   <property name="a_track">0</property>
   <property name="b_track">8</property>
   <property name="mlt_service">mix</property>
   <property name="always_active">1</property>
   <property name="sum">1</property>
   <property name="internal_added">237</property>
  </transition>
  <transition id="transition8">
   <property name="a_track">0</property>
   <property name="b_track">9</property>
   <property name="mlt_service">mix</property>
   <property name="always_active">1</property>
   <property name="sum">1</property>
   <property name="internal_added">237</property>
  </transition>
  <transition id="transition9">
   <property name="a_track">0</property>
   <property name="b_track">10</property>
   <property name="mlt_service">mix</property>
   <property name="always_active">1</property>
   <property name="sum">1</property>
   <property name="internal_added">237</property>
  </transition>
  <transition id="transition10">
   <property name="a_track">0</property>
   <property name="b_track">11</property>
   <property name="mlt_service">mix</property>
   <property name="always_active">1</property>
   <property name="sum">1</property>
   <property name="internal_added">237</property>
  </transition>
  <transition id="transition11">
   <property name="a_track">0</property>
   <property name="b_track">12</property>
   <property name="mlt_service">mix</property>
   <property name="always_active">1</property>
   <property name="sum">1</property>
   <property name="internal_added">237</property>
  </transition>
  <transition id="transition12">
   <property name="a_track">0</property>
   <property name="b_track">13</property>
   <property name="mlt_service">mix</property>
   <property name="always_active">1</property>
   <property name="sum">1</property>
   <property name="internal_added">237</property>
  </transition>
  <transition id="transition13">
   <property name="a_track">0</property>
   <property name="b_track">14</property>
   <property name="mlt_service">mix</property>
   <property name="always_active">1</property>
   <property name="sum">1</property>
   <property name="internal_added">237</property>
  </transition>
  <transition id="transition14" out="758">
   <property name="a_track">12</property>
   <property name="b_track">14</property>
   <property name="version">0,2</property>
   <property name="mlt_service">frei0r.addition_alpha</property>
   <property name="force_track">1</property>
  </transition>
 </tractor>
</mlt>
