<?xml version='1.0' encoding='utf-8'?>
<mlt title="Anonymous Submission" LC_NUMERIC="fr_FR.UTF-8" producer="main bin" version="6.13.0" root="/media/bordun/plagiat/Clip02_RespecteLaPuissancePapale/Video">
 <profile frame_rate_num="50" sample_aspect_num="1" display_aspect_den="9" colorspace="709" progressive="1" description="HD 1080p 50 fps" display_aspect_num="16" frame_rate_den="1" width="1920" height="1080" sample_aspect_den="1"/>
 <producer title="Anonymous Submission" id="1" in="0" out="14561">
  <property name="length">00:04:51:12</property>
  <property name="eof">pause</property>
  <property name="resource">/media/bordun/plagiat/2018-12-10_Plagiat_RespecteLaPuissancePapale/Carte_1/CAM1_2018-12-10_1541_C0000.mov</property>
  <property name="audio_index">2</property>
  <property name="video_index">1</property>
  <property name="mute_on_pause">1</property>
  <property name="mlt_service">avformat-novalidate</property>
  <property name="meta.media.nb_streams">3</property>
  <property name="meta.media.1.stream.type">video</property>
  <property name="meta.media.1.stream.frame_rate">50</property>
  <property name="meta.media.1.stream.sample_aspect_ratio">1</property>
  <property name="meta.media.1.codec.width">1920</property>
  <property name="meta.media.1.codec.height">1080</property>
  <property name="meta.media.1.codec.rotate">0</property>
  <property name="meta.media.1.codec.frame_rate">5000</property>
  <property name="meta.media.1.codec.pix_fmt">yuv422p10le</property>
  <property name="meta.media.1.codec.sample_aspect_ratio">0</property>
  <property name="meta.media.1.codec.colorspace">709</property>
  <property name="meta.media.1.codec.name">prores</property>
  <property name="meta.media.1.codec.long_name">ProRes</property>
  <property name="meta.media.1.codec.bit_rate">366959179</property>
  <property name="meta.attr.1.stream.creation_time.markup">2018-12-10T15:41:17.000000Z</property>
  <property name="meta.attr.1.stream.language.markup">eng</property>
  <property name="meta.attr.1.stream.handler_name.markup">Apple Alias Data Handler</property>
  <property name="meta.attr.1.stream.encoder.markup">Apple ProRes 422 HQ</property>
  <property name="meta.attr.1.stream.timecode.markup">15:41:17:21</property>
  <property name="meta.media.2.stream.type">audio</property>
  <property name="meta.media.2.codec.sample_fmt">s32</property>
  <property name="meta.media.2.codec.sample_rate">48000</property>
  <property name="meta.media.2.codec.channels">2</property>
  <property name="meta.media.2.codec.name">pcm_s24le</property>
  <property name="meta.media.2.codec.long_name">PCM signed 24-bit little-endian</property>
  <property name="meta.media.2.codec.bit_rate">2304000</property>
  <property name="meta.attr.2.stream.creation_time.markup">2018-12-10T15:41:17.000000Z</property>
  <property name="meta.attr.2.stream.language.markup">eng</property>
  <property name="meta.attr.2.stream.handler_name.markup">Apple Alias Data Handler</property>
  <property name="meta.attr.2.stream.timecode.markup">15:41:17:21</property>
  <property name="meta.attr.com.apple.proapps.manufacturer.markup">Blackmagic Design</property>
  <property name="meta.attr.com.apple.proapps.cameraName.markup">CAM1</property>
  <property name="meta.attr.com.apple.proapps.isGood.markup">0</property>
  <property name="meta.attr.com.apple.proapps.customgamma.markup">com.blackmagic-design.cinemacamera.filmlog</property>
  <property name="meta.attr.com.blackmagic-design.cinemacamera.uuid.markup">18E5E00548F94923B646613A73C01B56</property>
  <property name="meta.attr.creation_time.markup">2018-12-10T15:41:17.000000Z</property>
  <property name="meta.attr.timecode.markup">15:41:17:21</property>
  <property name="seekable">1</property>
  <property name="meta.media.sample_aspect_num">1</property>
  <property name="meta.media.sample_aspect_den">1</property>
  <property name="aspect_ratio">1</property>
  <property name="kdenlive:folderid">9</property>
  <property name="kdenlive:file_size">13444313961</property>
  <property name="kdenlive:file_hash">ef25fabf181f2da437febd9d2ce92b72</property>
  <property name="global_feed">1</property>
  <property name="meta.media.frame_rate_num">50</property>
  <property name="meta.media.frame_rate_den">1</property>
  <property name="meta.media.colorspace">709</property>
  <property name="meta.media.color_trc">1</property>
  <property name="meta.media.width">1920</property>
  <property name="meta.media.height">1080</property>
  <property name="meta.media.top_field_first">0</property>
  <property name="meta.media.progressive">1</property>
  <property name="meta.media.1.codec.color_trc">1</property>
  <property name="kdenlive:zone_in">9762</property>
  <property name="kdenlive:zone_out">10138</property>
  <filter id="frei0r.colgate">
   <property name="version">0,1</property>
   <property name="mlt_service">frei0r.colgate</property>
   <property name="kdenlive_id">frei0r.colgate</property>
   <property name="tag">frei0r.colgate</property>
   <property name="kdenlive_ix">1</property>
   <property name="kdenlive_info"/>
   <property name="Neutral Color">0x7f7f7fff</property>
   <property name="Color Temperature">0=0,55</property>
  </filter>
  <filter id="frei0r.levels">
   <property name="version">0,3</property>
   <property name="mlt_service">frei0r.levels</property>
   <property name="kdenlive_id">frei0r.levels</property>
   <property name="tag">frei0r.levels</property>
   <property name="kdenlive_ix">2</property>
   <property name="kdenlive_info"/>
   <property name="Channel">0,3</property>
   <property name="Input black level">0=0</property>
   <property name="Input white level">0=0,65</property>
   <property name="Gamma">0=0,25</property>
   <property name="Black output">0=0</property>
   <property name="White output">0=1</property>
   <property name="Show histogram">0</property>
   <property name="Histogram position">0,3</property>
  </filter>
 </producer>
 <producer title="Anonymous Submission" id="5" in="0" out="19246">
  <property name="length">00:06:24:47</property>
  <property name="eof">pause</property>
  <property name="resource">/media/bordun/plagiat/2018-12-10_Plagiat_RespecteLaPuissancePapale/Carte_2/CAM1_2018-12-10_1629_C0000.mov</property>
  <property name="audio_index">2</property>
  <property name="video_index">1</property>
  <property name="mute_on_pause">1</property>
  <property name="mlt_service">avformat-novalidate</property>
  <property name="meta.media.nb_streams">3</property>
  <property name="meta.media.1.stream.type">video</property>
  <property name="meta.media.1.stream.frame_rate">50</property>
  <property name="meta.media.1.stream.sample_aspect_ratio">1</property>
  <property name="meta.media.1.codec.width">1920</property>
  <property name="meta.media.1.codec.height">1080</property>
  <property name="meta.media.1.codec.rotate">0</property>
  <property name="meta.media.1.codec.frame_rate">5000</property>
  <property name="meta.media.1.codec.pix_fmt">yuv422p10le</property>
  <property name="meta.media.1.codec.sample_aspect_ratio">0</property>
  <property name="meta.media.1.codec.colorspace">709</property>
  <property name="meta.media.1.codec.name">prores</property>
  <property name="meta.media.1.codec.long_name">ProRes</property>
  <property name="meta.media.1.codec.bit_rate">366959020</property>
  <property name="meta.attr.1.stream.creation_time.markup">2018-12-10T16:29:10.000000Z</property>
  <property name="meta.attr.1.stream.language.markup">eng</property>
  <property name="meta.attr.1.stream.handler_name.markup">Apple Alias Data Handler</property>
  <property name="meta.attr.1.stream.encoder.markup">Apple ProRes 422 HQ</property>
  <property name="meta.attr.1.stream.timecode.markup">16:29:10:24</property>
  <property name="meta.media.2.stream.type">audio</property>
  <property name="meta.media.2.codec.sample_fmt">s32</property>
  <property name="meta.media.2.codec.sample_rate">48000</property>
  <property name="meta.media.2.codec.channels">2</property>
  <property name="meta.media.2.codec.name">pcm_s24le</property>
  <property name="meta.media.2.codec.long_name">PCM signed 24-bit little-endian</property>
  <property name="meta.media.2.codec.bit_rate">2304000</property>
  <property name="meta.attr.2.stream.creation_time.markup">2018-12-10T16:29:10.000000Z</property>
  <property name="meta.attr.2.stream.language.markup">eng</property>
  <property name="meta.attr.2.stream.handler_name.markup">Apple Alias Data Handler</property>
  <property name="meta.attr.2.stream.timecode.markup">16:29:10:24</property>
  <property name="meta.attr.com.apple.proapps.manufacturer.markup">Blackmagic Design</property>
  <property name="meta.attr.com.apple.proapps.cameraName.markup">CAM1</property>
  <property name="meta.attr.com.apple.proapps.isGood.markup">0</property>
  <property name="meta.attr.com.apple.proapps.customgamma.markup">com.blackmagic-design.cinemacamera.filmlog</property>
  <property name="meta.attr.com.blackmagic-design.cinemacamera.uuid.markup">18E5E00548F94923B646613A73C01B56</property>
  <property name="meta.attr.creation_time.markup">2018-12-10T16:29:10.000000Z</property>
  <property name="meta.attr.timecode.markup">16:29:10:24</property>
  <property name="seekable">1</property>
  <property name="meta.media.sample_aspect_num">1</property>
  <property name="meta.media.sample_aspect_den">1</property>
  <property name="aspect_ratio">1</property>
  <property name="kdenlive:folderid">9</property>
  <property name="kdenlive:file_size">17769713233</property>
  <property name="kdenlive:file_hash">40fd95546ae131f6c5881d8660dbcccc</property>
  <property name="global_feed">1</property>
  <property name="meta.media.frame_rate_num">50</property>
  <property name="meta.media.frame_rate_den">1</property>
  <property name="meta.media.colorspace">709</property>
  <property name="meta.media.color_trc">1</property>
  <property name="meta.media.width">1920</property>
  <property name="meta.media.height">1080</property>
  <property name="meta.media.top_field_first">0</property>
  <property name="meta.media.progressive">1</property>
  <property name="meta.media.1.codec.color_trc">1</property>
  <filter id="filter0">
   <property name="version">0,1</property>
   <property name="mlt_service">frei0r.colgate</property>
   <property name="kdenlive_id">frei0r.colgate</property>
   <property name="tag">frei0r.colgate</property>
   <property name="kdenlive_ix">1</property>
   <property name="kdenlive_info"/>
   <property name="Neutral Color">0x7f7f7fff</property>
   <property name="Color Temperature">0=0,533333</property>
  </filter>
  <filter id="filter1">
   <property name="version">0,3</property>
   <property name="mlt_service">frei0r.levels</property>
   <property name="kdenlive_id">frei0r.levels</property>
   <property name="tag">frei0r.levels</property>
   <property name="kdenlive_ix">2</property>
   <property name="kdenlive_info"/>
   <property name="Channel">0,3</property>
   <property name="Input black level">0=0</property>
   <property name="Input white level">0=0,65</property>
   <property name="Gamma">0=0,25</property>
   <property name="Black output">0=0</property>
   <property name="White output">0=1</property>
   <property name="Show histogram">0</property>
   <property name="Histogram position">0,3</property>
  </filter>
 </producer>
 <producer title="Anonymous Submission" id="4" in="0" out="24870">
  <property name="length">00:08:17:21</property>
  <property name="eof">pause</property>
  <property name="resource">/media/bordun/plagiat/2018-12-10_Plagiat_RespecteLaPuissancePapale/Carte_1/CAM1_2018-12-10_1615_C0003.mov</property>
  <property name="audio_index">2</property>
  <property name="video_index">1</property>
  <property name="mute_on_pause">1</property>
  <property name="mlt_service">avformat-novalidate</property>
  <property name="meta.media.nb_streams">3</property>
  <property name="meta.media.1.stream.type">video</property>
  <property name="meta.media.1.stream.frame_rate">50</property>
  <property name="meta.media.1.stream.sample_aspect_ratio">1</property>
  <property name="meta.media.1.codec.width">1920</property>
  <property name="meta.media.1.codec.height">1080</property>
  <property name="meta.media.1.codec.rotate">0</property>
  <property name="meta.media.1.codec.frame_rate">5000</property>
  <property name="meta.media.1.codec.pix_fmt">yuv422p10le</property>
  <property name="meta.media.1.codec.sample_aspect_ratio">0</property>
  <property name="meta.media.1.codec.colorspace">709</property>
  <property name="meta.media.1.codec.name">prores</property>
  <property name="meta.media.1.codec.long_name">ProRes</property>
  <property name="meta.media.1.codec.bit_rate">366958409</property>
  <property name="meta.attr.1.stream.creation_time.markup">2018-12-10T16:15:42.000000Z</property>
  <property name="meta.attr.1.stream.language.markup">eng</property>
  <property name="meta.attr.1.stream.handler_name.markup">Apple Alias Data Handler</property>
  <property name="meta.attr.1.stream.encoder.markup">Apple ProRes 422 HQ</property>
  <property name="meta.attr.1.stream.timecode.markup">16:15:42:33</property>
  <property name="meta.media.2.stream.type">audio</property>
  <property name="meta.media.2.codec.sample_fmt">s32</property>
  <property name="meta.media.2.codec.sample_rate">48000</property>
  <property name="meta.media.2.codec.channels">2</property>
  <property name="meta.media.2.codec.name">pcm_s24le</property>
  <property name="meta.media.2.codec.long_name">PCM signed 24-bit little-endian</property>
  <property name="meta.media.2.codec.bit_rate">2304000</property>
  <property name="meta.attr.2.stream.creation_time.markup">2018-12-10T16:15:42.000000Z</property>
  <property name="meta.attr.2.stream.language.markup">eng</property>
  <property name="meta.attr.2.stream.handler_name.markup">Apple Alias Data Handler</property>
  <property name="meta.attr.2.stream.timecode.markup">16:15:42:33</property>
  <property name="meta.attr.com.apple.proapps.manufacturer.markup">Blackmagic Design</property>
  <property name="meta.attr.com.apple.proapps.cameraName.markup">CAM1</property>
  <property name="meta.attr.com.apple.proapps.isGood.markup">0</property>
  <property name="meta.attr.com.apple.proapps.customgamma.markup">com.blackmagic-design.cinemacamera.filmlog</property>
  <property name="meta.attr.com.blackmagic-design.cinemacamera.uuid.markup">18E5E00548F94923B646613A73C01B56</property>
  <property name="meta.attr.creation_time.markup">2018-12-10T16:15:42.000000Z</property>
  <property name="meta.attr.timecode.markup">16:15:42:33</property>
  <property name="seekable">1</property>
  <property name="meta.media.sample_aspect_num">1</property>
  <property name="meta.media.sample_aspect_den">1</property>
  <property name="aspect_ratio">1</property>
  <property name="kdenlive:folderid">9</property>
  <property name="kdenlive:file_size">22962054105</property>
  <property name="kdenlive:file_hash">c46129788c0a47f07299f13c18fcc857</property>
  <property name="global_feed">1</property>
  <property name="meta.media.frame_rate_num">50</property>
  <property name="meta.media.frame_rate_den">1</property>
  <property name="meta.media.colorspace">709</property>
  <property name="meta.media.color_trc">1</property>
  <property name="meta.media.width">1920</property>
  <property name="meta.media.height">1080</property>
  <property name="meta.media.top_field_first">0</property>
  <property name="meta.media.progressive">1</property>
  <property name="meta.media.1.codec.color_trc">1</property>
  <filter id="filter2">
   <property name="version">0,1</property>
   <property name="mlt_service">frei0r.colgate</property>
   <property name="kdenlive_id">frei0r.colgate</property>
   <property name="tag">frei0r.colgate</property>
   <property name="kdenlive_ix">1</property>
   <property name="kdenlive_info"/>
   <property name="Neutral Color">0x7f7f7fff</property>
   <property name="Color Temperature">0=0,533333</property>
  </filter>
  <filter id="filter3">
   <property name="version">0,3</property>
   <property name="mlt_service">frei0r.levels</property>
   <property name="kdenlive_id">frei0r.levels</property>
   <property name="tag">frei0r.levels</property>
   <property name="kdenlive_ix">2</property>
   <property name="kdenlive_info"/>
   <property name="Channel">0,3</property>
   <property name="Input black level">0=0</property>
   <property name="Input white level">0=0,65</property>
   <property name="Gamma">0=0,25</property>
   <property name="Black output">0=0</property>
   <property name="White output">0=1</property>
   <property name="Show histogram">0</property>
   <property name="Histogram position">0,3</property>
  </filter>
 </producer>
 <producer title="Anonymous Submission" id="3" in="0" out="11635">
  <property name="length">00:03:52:36</property>
  <property name="eof">pause</property>
  <property name="resource">/media/bordun/plagiat/2018-12-10_Plagiat_RespecteLaPuissancePapale/Carte_1/CAM1_2018-12-10_1601_C0002.mov</property>
  <property name="audio_index">2</property>
  <property name="video_index">1</property>
  <property name="mute_on_pause">1</property>
  <property name="mlt_service">avformat-novalidate</property>
  <property name="meta.media.nb_streams">3</property>
  <property name="meta.media.1.stream.type">video</property>
  <property name="meta.media.1.stream.frame_rate">50</property>
  <property name="meta.media.1.stream.sample_aspect_ratio">1</property>
  <property name="meta.media.1.codec.width">1920</property>
  <property name="meta.media.1.codec.height">1080</property>
  <property name="meta.media.1.codec.rotate">0</property>
  <property name="meta.media.1.codec.frame_rate">5000</property>
  <property name="meta.media.1.codec.pix_fmt">yuv422p10le</property>
  <property name="meta.media.1.codec.sample_aspect_ratio">0</property>
  <property name="meta.media.1.codec.colorspace">709</property>
  <property name="meta.media.1.codec.name">prores</property>
  <property name="meta.media.1.codec.long_name">ProRes</property>
  <property name="meta.media.1.codec.bit_rate">366958785</property>
  <property name="meta.attr.1.stream.creation_time.markup">2018-12-10T16:01:37.000000Z</property>
  <property name="meta.attr.1.stream.language.markup">eng</property>
  <property name="meta.attr.1.stream.handler_name.markup">Apple Alias Data Handler</property>
  <property name="meta.attr.1.stream.encoder.markup">Apple ProRes 422 HQ</property>
  <property name="meta.attr.1.stream.timecode.markup">16:01:37:09</property>
  <property name="meta.media.2.stream.type">audio</property>
  <property name="meta.media.2.codec.sample_fmt">s32</property>
  <property name="meta.media.2.codec.sample_rate">48000</property>
  <property name="meta.media.2.codec.channels">2</property>
  <property name="meta.media.2.codec.name">pcm_s24le</property>
  <property name="meta.media.2.codec.long_name">PCM signed 24-bit little-endian</property>
  <property name="meta.media.2.codec.bit_rate">2304000</property>
  <property name="meta.attr.2.stream.creation_time.markup">2018-12-10T16:01:37.000000Z</property>
  <property name="meta.attr.2.stream.language.markup">eng</property>
  <property name="meta.attr.2.stream.handler_name.markup">Apple Alias Data Handler</property>
  <property name="meta.attr.2.stream.timecode.markup">16:01:37:09</property>
  <property name="meta.attr.com.apple.proapps.manufacturer.markup">Blackmagic Design</property>
  <property name="meta.attr.com.apple.proapps.cameraName.markup">CAM1</property>
  <property name="meta.attr.com.apple.proapps.isGood.markup">0</property>
  <property name="meta.attr.com.apple.proapps.customgamma.markup">com.blackmagic-design.cinemacamera.filmlog</property>
  <property name="meta.attr.com.blackmagic-design.cinemacamera.uuid.markup">18E5E00548F94923B646613A73C01B56</property>
  <property name="meta.attr.creation_time.markup">2018-12-10T16:01:37.000000Z</property>
  <property name="meta.attr.timecode.markup">16:01:37:09</property>
  <property name="seekable">1</property>
  <property name="meta.media.sample_aspect_num">1</property>
  <property name="meta.media.sample_aspect_den">1</property>
  <property name="aspect_ratio">1</property>
  <property name="kdenlive:folderid">9</property>
  <property name="kdenlive:file_size">10795373957</property>
  <property name="kdenlive:file_hash">c46cb1ab94a25f5ab196e5d4e002dba1</property>
  <property name="global_feed">1</property>
  <property name="meta.media.frame_rate_num">50</property>
  <property name="meta.media.frame_rate_den">1</property>
  <property name="meta.media.colorspace">709</property>
  <property name="meta.media.color_trc">1</property>
  <property name="meta.media.width">1920</property>
  <property name="meta.media.height">1080</property>
  <property name="meta.media.top_field_first">0</property>
  <property name="meta.media.progressive">1</property>
  <property name="meta.media.1.codec.color_trc">1</property>
  <property name="kdenlive:zone_in">15450</property>
  <property name="kdenlive:zone_out">15777</property>
  <filter id="filter4">
   <property name="version">0,1</property>
   <property name="mlt_service">frei0r.colgate</property>
   <property name="kdenlive_id">frei0r.colgate</property>
   <property name="tag">frei0r.colgate</property>
   <property name="kdenlive_ix">1</property>
   <property name="kdenlive_info"/>
   <property name="Neutral Color">0x7f7f7fff</property>
   <property name="Color Temperature">0=0,55</property>
  </filter>
  <filter id="filter5">
   <property name="version">0,3</property>
   <property name="mlt_service">frei0r.levels</property>
   <property name="kdenlive_id">frei0r.levels</property>
   <property name="tag">frei0r.levels</property>
   <property name="kdenlive_ix">2</property>
   <property name="kdenlive_info"/>
   <property name="Channel">0,3</property>
   <property name="Input black level">0=0</property>
   <property name="Input white level">0=0,65</property>
   <property name="Gamma">0=0,25</property>
   <property name="Black output">0=0</property>
   <property name="White output">0=1</property>
   <property name="Show histogram">0</property>
   <property name="Histogram position">0,3</property>
  </filter>
 </producer>
 <producer title="Anonymous Submission" id="2" in="0" out="11667">
  <property name="length">00:03:53:18</property>
  <property name="eof">pause</property>
  <property name="resource">/media/bordun/plagiat/2018-12-10_Plagiat_RespecteLaPuissancePapale/Carte_1/CAM1_2018-12-10_1552_C0001.mov</property>
  <property name="audio_index">2</property>
  <property name="video_index">1</property>
  <property name="mute_on_pause">1</property>
  <property name="mlt_service">avformat-novalidate</property>
  <property name="meta.media.nb_streams">3</property>
  <property name="meta.media.1.stream.type">video</property>
  <property name="meta.media.1.stream.frame_rate">50</property>
  <property name="meta.media.1.stream.sample_aspect_ratio">1</property>
  <property name="meta.media.1.codec.width">1920</property>
  <property name="meta.media.1.codec.height">1080</property>
  <property name="meta.media.1.codec.rotate">0</property>
  <property name="meta.media.1.codec.frame_rate">5000</property>
  <property name="meta.media.1.codec.pix_fmt">yuv422p10le</property>
  <property name="meta.media.1.codec.sample_aspect_ratio">0</property>
  <property name="meta.media.1.codec.colorspace">709</property>
  <property name="meta.media.1.codec.name">prores</property>
  <property name="meta.media.1.codec.long_name">ProRes</property>
  <property name="meta.media.1.codec.bit_rate">366959328</property>
  <property name="meta.attr.1.stream.creation_time.markup">2018-12-10T15:52:13.000000Z</property>
  <property name="meta.attr.1.stream.language.markup">eng</property>
  <property name="meta.attr.1.stream.handler_name.markup">Apple Alias Data Handler</property>
  <property name="meta.attr.1.stream.encoder.markup">Apple ProRes 422 HQ</property>
  <property name="meta.attr.1.stream.timecode.markup">15:52:13:35</property>
  <property name="meta.media.2.stream.type">audio</property>
  <property name="meta.media.2.codec.sample_fmt">s32</property>
  <property name="meta.media.2.codec.sample_rate">48000</property>
  <property name="meta.media.2.codec.channels">2</property>
  <property name="meta.media.2.codec.name">pcm_s24le</property>
  <property name="meta.media.2.codec.long_name">PCM signed 24-bit little-endian</property>
  <property name="meta.media.2.codec.bit_rate">2304000</property>
  <property name="meta.attr.2.stream.creation_time.markup">2018-12-10T15:52:13.000000Z</property>
  <property name="meta.attr.2.stream.language.markup">eng</property>
  <property name="meta.attr.2.stream.handler_name.markup">Apple Alias Data Handler</property>
  <property name="meta.attr.2.stream.timecode.markup">15:52:13:35</property>
  <property name="meta.attr.com.apple.proapps.manufacturer.markup">Blackmagic Design</property>
  <property name="meta.attr.com.apple.proapps.cameraName.markup">CAM1</property>
  <property name="meta.attr.com.apple.proapps.isGood.markup">0</property>
  <property name="meta.attr.com.apple.proapps.customgamma.markup">com.blackmagic-design.cinemacamera.filmlog</property>
  <property name="meta.attr.com.blackmagic-design.cinemacamera.uuid.markup">18E5E00548F94923B646613A73C01B56</property>
  <property name="meta.attr.creation_time.markup">2018-12-10T15:52:13.000000Z</property>
  <property name="meta.attr.timecode.markup">15:52:13:35</property>
  <property name="seekable">1</property>
  <property name="meta.media.sample_aspect_num">1</property>
  <property name="meta.media.sample_aspect_den">1</property>
  <property name="aspect_ratio">1</property>
  <property name="kdenlive:folderid">9</property>
  <property name="kdenlive:file_size">10772440985</property>
  <property name="kdenlive:file_hash">3b4484753689f48a337c1729ea18ad59</property>
  <property name="global_feed">1</property>
  <property name="meta.media.frame_rate_num">50</property>
  <property name="meta.media.frame_rate_den">1</property>
  <property name="meta.media.colorspace">709</property>
  <property name="meta.media.color_trc">1</property>
  <property name="meta.media.width">1920</property>
  <property name="meta.media.height">1080</property>
  <property name="meta.media.top_field_first">0</property>
  <property name="meta.media.progressive">1</property>
  <property name="meta.media.1.codec.color_trc">1</property>
  <property name="kdenlive:zone_in">10379</property>
  <property name="kdenlive:zone_out">10515</property>
  <filter id="filter6">
   <property name="version">0,1</property>
   <property name="mlt_service">frei0r.colgate</property>
   <property name="kdenlive_id">frei0r.colgate</property>
   <property name="tag">frei0r.colgate</property>
   <property name="kdenlive_ix">1</property>
   <property name="kdenlive_info"/>
   <property name="Neutral Color">0x7f7f7fff</property>
   <property name="Color Temperature">0=0,533333</property>
  </filter>
  <filter id="filter7">
   <property name="version">0,3</property>
   <property name="mlt_service">frei0r.levels</property>
   <property name="kdenlive_id">frei0r.levels</property>
   <property name="tag">frei0r.levels</property>
   <property name="kdenlive_ix">2</property>
   <property name="kdenlive_info"/>
   <property name="Channel">0,3</property>
   <property name="Input black level">0=0</property>
   <property name="Input white level">0=0,65</property>
   <property name="Gamma">0=0,25</property>
   <property name="Black output">0=0</property>
   <property name="White output">0=1</property>
   <property name="Show histogram">0</property>
   <property name="Histogram position">0,3</property>
  </filter>
 </producer>
 <producer title="Anonymous Submission" id="6" in="0" out="4178">
  <property name="length">00:01:23:29</property>
  <property name="eof">pause</property>
  <property name="resource">/media/bordun/plagiat/2018-12-10_Plagiat_RespecteLaPuissancePapale/Carte_2/CAM1_2018-12-10_1638_C0001.mov</property>
  <property name="audio_index">2</property>
  <property name="video_index">1</property>
  <property name="mute_on_pause">1</property>
  <property name="mlt_service">avformat-novalidate</property>
  <property name="meta.media.nb_streams">3</property>
  <property name="meta.media.1.stream.type">video</property>
  <property name="meta.media.1.stream.frame_rate">50</property>
  <property name="meta.media.1.stream.sample_aspect_ratio">1</property>
  <property name="meta.media.1.codec.width">1920</property>
  <property name="meta.media.1.codec.height">1080</property>
  <property name="meta.media.1.codec.rotate">0</property>
  <property name="meta.media.1.codec.frame_rate">5000</property>
  <property name="meta.media.1.codec.pix_fmt">yuv422p10le</property>
  <property name="meta.media.1.codec.sample_aspect_ratio">0</property>
  <property name="meta.media.1.codec.colorspace">709</property>
  <property name="meta.media.1.codec.name">prores</property>
  <property name="meta.media.1.codec.long_name">ProRes (iCodec Pro)</property>
  <property name="meta.media.1.codec.bit_rate">366955515</property>
  <property name="meta.attr.1.stream.creation_time.markup">2018-12-10T16:38:23.000000Z</property>
  <property name="meta.attr.1.stream.language.markup">eng</property>
  <property name="meta.attr.1.stream.handler_name.markup">Apple Video Media Handler</property>
  <property name="meta.attr.1.stream.encoder.markup">Apple ProRes 422 HQ</property>
  <property name="meta.attr.1.stream.timecode.markup">16:38:23:16</property>
  <property name="meta.media.2.stream.type">audio</property>
  <property name="meta.media.2.codec.sample_fmt">s32</property>
  <property name="meta.media.2.codec.sample_rate">48000</property>
  <property name="meta.media.2.codec.channels">2</property>
  <property name="meta.media.2.codec.name">pcm_s24le</property>
  <property name="meta.media.2.codec.long_name">PCM signed 24-bit little-endian</property>
  <property name="meta.media.2.codec.bit_rate">2304000</property>
  <property name="meta.attr.2.stream.creation_time.markup">2018-12-10T16:38:23.000000Z</property>
  <property name="meta.attr.2.stream.language.markup">eng</property>
  <property name="meta.attr.2.stream.handler_name.markup">Apple Sound Media Handler</property>
  <property name="meta.attr.2.stream.timecode.markup">16:38:23:16</property>
  <property name="meta.attr.com.apple.proapps.manufacturer.markup">Blackmagic Design</property>
  <property name="meta.attr.com.apple.proapps.cameraName.markup">CAM1</property>
  <property name="meta.attr.com.apple.proapps.isGood.markup">0</property>
  <property name="meta.attr.com.apple.proapps.customgamma.markup">com.blackmagic-design.cinemacamera.filmlog</property>
  <property name="meta.attr.com.blackmagic-design.cinemacamera.uuid.markup">18E5E00548F94923B646613A73C01B56</property>
  <property name="meta.attr.creation_time.markup">2018-12-10T16:38:23.000000Z</property>
  <property name="meta.attr.timecode.markup">16:38:23:16</property>
  <property name="seekable">1</property>
  <property name="meta.media.sample_aspect_num">1</property>
  <property name="meta.media.sample_aspect_den">1</property>
  <property name="aspect_ratio">1</property>
  <property name="kdenlive:folderid">10</property>
  <property name="kdenlive:file_size">3858252521</property>
  <property name="kdenlive:file_hash">5c73d3cae02de055fc4255e57a85a699</property>
  <property name="global_feed">1</property>
  <property name="meta.media.frame_rate_num">50</property>
  <property name="meta.media.frame_rate_den">1</property>
  <property name="meta.media.colorspace">709</property>
  <property name="meta.media.color_trc">2</property>
  <property name="meta.media.width">1920</property>
  <property name="meta.media.height">1080</property>
  <property name="meta.media.top_field_first">0</property>
  <property name="meta.media.progressive">1</property>
 </producer>
 <producer title="Anonymous Submission" id="7" in="0" out="8532">
  <property name="length">00:02:50:33</property>
  <property name="eof">pause</property>
  <property name="resource">/media/bordun/plagiat/2018-12-10_Plagiat_RespecteLaPuissancePapale/Carte_2/CAM1_2018-12-10_1642_C0002.mov</property>
  <property name="audio_index">2</property>
  <property name="video_index">1</property>
  <property name="mute_on_pause">1</property>
  <property name="mlt_service">avformat-novalidate</property>
  <property name="meta.media.nb_streams">3</property>
  <property name="meta.media.1.stream.type">video</property>
  <property name="meta.media.1.stream.frame_rate">50</property>
  <property name="meta.media.1.stream.sample_aspect_ratio">1</property>
  <property name="meta.media.1.codec.width">1920</property>
  <property name="meta.media.1.codec.height">1080</property>
  <property name="meta.media.1.codec.rotate">0</property>
  <property name="meta.media.1.codec.frame_rate">5000</property>
  <property name="meta.media.1.codec.pix_fmt">yuv422p10le</property>
  <property name="meta.media.1.codec.sample_aspect_ratio">0</property>
  <property name="meta.media.1.codec.colorspace">709</property>
  <property name="meta.media.1.codec.name">prores</property>
  <property name="meta.media.1.codec.long_name">ProRes</property>
  <property name="meta.media.1.codec.bit_rate">366955794</property>
  <property name="meta.attr.1.stream.creation_time.markup">2018-12-10T16:42:49.000000Z</property>
  <property name="meta.attr.1.stream.language.markup">eng</property>
  <property name="meta.attr.1.stream.handler_name.markup">Apple Alias Data Handler</property>
  <property name="meta.attr.1.stream.encoder.markup">Apple ProRes 422 HQ</property>
  <property name="meta.attr.1.stream.timecode.markup">16:42:49:18</property>
  <property name="meta.media.2.stream.type">audio</property>
  <property name="meta.media.2.codec.sample_fmt">s32</property>
  <property name="meta.media.2.codec.sample_rate">48000</property>
  <property name="meta.media.2.codec.channels">2</property>
  <property name="meta.media.2.codec.name">pcm_s24le</property>
  <property name="meta.media.2.codec.long_name">PCM signed 24-bit little-endian</property>
  <property name="meta.media.2.codec.bit_rate">2304000</property>
  <property name="meta.attr.2.stream.creation_time.markup">2018-12-10T16:42:49.000000Z</property>
  <property name="meta.attr.2.stream.language.markup">eng</property>
  <property name="meta.attr.2.stream.handler_name.markup">Apple Alias Data Handler</property>
  <property name="meta.attr.2.stream.timecode.markup">16:42:49:18</property>
  <property name="meta.attr.com.apple.proapps.manufacturer.markup">Blackmagic Design</property>
  <property name="meta.attr.com.apple.proapps.cameraName.markup">CAM1</property>
  <property name="meta.attr.com.apple.proapps.isGood.markup">0</property>
  <property name="meta.attr.com.apple.proapps.customgamma.markup">com.blackmagic-design.cinemacamera.filmlog</property>
  <property name="meta.attr.com.blackmagic-design.cinemacamera.uuid.markup">18E5E00548F94923B646613A73C01B56</property>
  <property name="meta.attr.creation_time.markup">2018-12-10T16:42:49.000000Z</property>
  <property name="meta.attr.timecode.markup">16:42:49:18</property>
  <property name="seekable">1</property>
  <property name="meta.media.sample_aspect_num">1</property>
  <property name="meta.media.sample_aspect_den">1</property>
  <property name="aspect_ratio">1</property>
  <property name="kdenlive:folderid">10</property>
  <property name="kdenlive:file_size">7878058913</property>
  <property name="kdenlive:file_hash">804eaf7e1fe7b8bd61bac5713c20d510</property>
  <property name="global_feed">1</property>
  <property name="meta.media.frame_rate_num">50</property>
  <property name="meta.media.frame_rate_den">1</property>
  <property name="meta.media.colorspace">709</property>
  <property name="meta.media.color_trc">1</property>
  <property name="meta.media.width">1920</property>
  <property name="meta.media.height">1080</property>
  <property name="meta.media.top_field_first">0</property>
  <property name="meta.media.progressive">1</property>
  <property name="meta.media.1.codec.color_trc">1</property>
 </producer>
 <producer title="Anonymous Submission" id="16" in="0" out="2403">
  <property name="length">00:00:48:04</property>
  <property name="eof">pause</property>
  <property name="resource">/media/bordun/plagiat/2018-12-10_Plagiat_RespecteLaPuissancePapale/Carte_3/CAM1_2018-12-10_1851_C0005.mov</property>
  <property name="audio_index">2</property>
  <property name="video_index">1</property>
  <property name="mute_on_pause">1</property>
  <property name="mlt_service">avformat-novalidate</property>
  <property name="meta.media.nb_streams">3</property>
  <property name="meta.media.1.stream.type">video</property>
  <property name="meta.media.1.stream.frame_rate">50</property>
  <property name="meta.media.1.stream.sample_aspect_ratio">1</property>
  <property name="meta.media.1.codec.width">1920</property>
  <property name="meta.media.1.codec.height">1080</property>
  <property name="meta.media.1.codec.rotate">0</property>
  <property name="meta.media.1.codec.frame_rate">5000</property>
  <property name="meta.media.1.codec.pix_fmt">yuv422p10le</property>
  <property name="meta.media.1.codec.sample_aspect_ratio">0</property>
  <property name="meta.media.1.codec.colorspace">709</property>
  <property name="meta.media.1.codec.name">prores</property>
  <property name="meta.media.1.codec.long_name">ProRes (iCodec Pro)</property>
  <property name="meta.media.1.codec.bit_rate">366956708</property>
  <property name="meta.attr.1.stream.creation_time.markup">2018-12-10T18:51:16.000000Z</property>
  <property name="meta.attr.1.stream.language.markup">eng</property>
  <property name="meta.attr.1.stream.handler_name.markup">Apple Video Media Handler</property>
  <property name="meta.attr.1.stream.encoder.markup">Apple ProRes 422 HQ</property>
  <property name="meta.attr.1.stream.timecode.markup">18:51:16:13</property>
  <property name="meta.media.2.stream.type">audio</property>
  <property name="meta.media.2.codec.sample_fmt">s32</property>
  <property name="meta.media.2.codec.sample_rate">48000</property>
  <property name="meta.media.2.codec.channels">2</property>
  <property name="meta.media.2.codec.name">pcm_s24le</property>
  <property name="meta.media.2.codec.long_name">PCM signed 24-bit little-endian</property>
  <property name="meta.media.2.codec.bit_rate">2304000</property>
  <property name="meta.attr.2.stream.creation_time.markup">2018-12-10T18:51:16.000000Z</property>
  <property name="meta.attr.2.stream.language.markup">eng</property>
  <property name="meta.attr.2.stream.handler_name.markup">Apple Sound Media Handler</property>
  <property name="meta.attr.2.stream.timecode.markup">18:51:16:13</property>
  <property name="meta.attr.com.apple.proapps.manufacturer.markup">Blackmagic Design</property>
  <property name="meta.attr.com.apple.proapps.cameraName.markup">CAM1</property>
  <property name="meta.attr.com.apple.proapps.isGood.markup">0</property>
  <property name="meta.attr.com.apple.proapps.customgamma.markup">com.blackmagic-design.cinemacamera.filmlog</property>
  <property name="meta.attr.com.blackmagic-design.cinemacamera.uuid.markup">18E5E00548F94923B646613A73C01B56</property>
  <property name="meta.attr.creation_time.markup">2018-12-10T18:51:16.000000Z</property>
  <property name="meta.attr.timecode.markup">18:51:16:13</property>
  <property name="seekable">1</property>
  <property name="meta.media.sample_aspect_num">1</property>
  <property name="meta.media.sample_aspect_den">1</property>
  <property name="aspect_ratio">1</property>
  <property name="kdenlive:folderid">13</property>
  <property name="kdenlive:file_size">2219492305</property>
  <property name="kdenlive:file_hash">5decca499b71c19207e6eb5441ec1c74</property>
  <property name="global_feed">1</property>
  <property name="meta.media.frame_rate_num">50</property>
  <property name="meta.media.frame_rate_den">1</property>
  <property name="meta.media.colorspace">709</property>
  <property name="meta.media.color_trc">2</property>
  <property name="meta.media.width">1920</property>
  <property name="meta.media.height">1080</property>
  <property name="meta.media.top_field_first">0</property>
  <property name="meta.media.progressive">1</property>
 </producer>
 <producer title="Anonymous Submission" id="17" in="0" out="2706">
  <property name="length">00:00:54:07</property>
  <property name="eof">pause</property>
  <property name="resource">/media/bordun/plagiat/2018-12-10_Plagiat_RespecteLaPuissancePapale/Carte_3/CAM1_2018-12-10_1853_C0006.mov</property>
  <property name="audio_index">2</property>
  <property name="video_index">1</property>
  <property name="mute_on_pause">1</property>
  <property name="mlt_service">avformat-novalidate</property>
  <property name="meta.media.nb_streams">3</property>
  <property name="meta.media.1.stream.type">video</property>
  <property name="meta.media.1.stream.frame_rate">50</property>
  <property name="meta.media.1.stream.sample_aspect_ratio">1</property>
  <property name="meta.media.1.codec.width">1920</property>
  <property name="meta.media.1.codec.height">1080</property>
  <property name="meta.media.1.codec.rotate">0</property>
  <property name="meta.media.1.codec.frame_rate">5000</property>
  <property name="meta.media.1.codec.pix_fmt">yuv422p10le</property>
  <property name="meta.media.1.codec.sample_aspect_ratio">0</property>
  <property name="meta.media.1.codec.colorspace">709</property>
  <property name="meta.media.1.codec.name">prores</property>
  <property name="meta.media.1.codec.long_name">ProRes (iCodec Pro)</property>
  <property name="meta.media.1.codec.bit_rate">366954964</property>
  <property name="meta.attr.1.stream.creation_time.markup">2018-12-10T18:53:43.000000Z</property>
  <property name="meta.attr.1.stream.language.markup">eng</property>
  <property name="meta.attr.1.stream.handler_name.markup">Apple Video Media Handler</property>
  <property name="meta.attr.1.stream.encoder.markup">Apple ProRes 422 HQ</property>
  <property name="meta.attr.1.stream.timecode.markup">18:53:43:03</property>
  <property name="meta.media.2.stream.type">audio</property>
  <property name="meta.media.2.codec.sample_fmt">s32</property>
  <property name="meta.media.2.codec.sample_rate">48000</property>
  <property name="meta.media.2.codec.channels">2</property>
  <property name="meta.media.2.codec.name">pcm_s24le</property>
  <property name="meta.media.2.codec.long_name">PCM signed 24-bit little-endian</property>
  <property name="meta.media.2.codec.bit_rate">2304000</property>
  <property name="meta.attr.2.stream.creation_time.markup">2018-12-10T18:53:43.000000Z</property>
  <property name="meta.attr.2.stream.language.markup">eng</property>
  <property name="meta.attr.2.stream.handler_name.markup">Apple Sound Media Handler</property>
  <property name="meta.attr.2.stream.timecode.markup">18:53:43:03</property>
  <property name="meta.attr.com.apple.proapps.manufacturer.markup">Blackmagic Design</property>
  <property name="meta.attr.com.apple.proapps.cameraName.markup">CAM1</property>
  <property name="meta.attr.com.apple.proapps.isGood.markup">0</property>
  <property name="meta.attr.com.apple.proapps.customgamma.markup">com.blackmagic-design.cinemacamera.filmlog</property>
  <property name="meta.attr.com.blackmagic-design.cinemacamera.uuid.markup">18E5E00548F94923B646613A73C01B56</property>
  <property name="meta.attr.creation_time.markup">2018-12-10T18:53:43.000000Z</property>
  <property name="meta.attr.timecode.markup">18:53:43:03</property>
  <property name="seekable">1</property>
  <property name="meta.media.sample_aspect_num">1</property>
  <property name="meta.media.sample_aspect_den">1</property>
  <property name="aspect_ratio">1</property>
  <property name="kdenlive:folderid">13</property>
  <property name="kdenlive:file_size">2499243521</property>
  <property name="kdenlive:file_hash">c52a59c46a49b670f466d109daab353c</property>
  <property name="global_feed">1</property>
  <property name="meta.media.frame_rate_num">50</property>
  <property name="meta.media.frame_rate_den">1</property>
  <property name="meta.media.colorspace">709</property>
  <property name="meta.media.color_trc">2</property>
  <property name="meta.media.width">1920</property>
  <property name="meta.media.height">1080</property>
  <property name="meta.media.top_field_first">0</property>
  <property name="meta.media.progressive">1</property>
 </producer>
 <producer title="Anonymous Submission" id="18" in="0" out="1547">
  <property name="length">00:00:30:48</property>
  <property name="eof">pause</property>
  <property name="resource">/media/bordun/plagiat/2018-12-10_Plagiat_RespecteLaPuissancePapale/Carte_3/CAM1_2018-12-10_1855_C0007.mov</property>
  <property name="audio_index">2</property>
  <property name="video_index">1</property>
  <property name="mute_on_pause">1</property>
  <property name="mlt_service">avformat-novalidate</property>
  <property name="meta.media.nb_streams">3</property>
  <property name="meta.media.1.stream.type">video</property>
  <property name="meta.media.1.stream.frame_rate">50</property>
  <property name="meta.media.1.stream.sample_aspect_ratio">1</property>
  <property name="meta.media.1.codec.width">1920</property>
  <property name="meta.media.1.codec.height">1080</property>
  <property name="meta.media.1.codec.rotate">0</property>
  <property name="meta.media.1.codec.frame_rate">5000</property>
  <property name="meta.media.1.codec.pix_fmt">yuv422p10le</property>
  <property name="meta.media.1.codec.sample_aspect_ratio">0</property>
  <property name="meta.media.1.codec.colorspace">709</property>
  <property name="meta.media.1.codec.name">prores</property>
  <property name="meta.media.1.codec.long_name">ProRes (iCodec Pro)</property>
  <property name="meta.media.1.codec.bit_rate">366957395</property>
  <property name="meta.attr.1.stream.creation_time.markup">2018-12-10T18:55:29.000000Z</property>
  <property name="meta.attr.1.stream.language.markup">eng</property>
  <property name="meta.attr.1.stream.handler_name.markup">Apple Video Media Handler</property>
  <property name="meta.attr.1.stream.encoder.markup">Apple ProRes 422 HQ</property>
  <property name="meta.attr.1.stream.timecode.markup">18:55:29:30</property>
  <property name="meta.media.2.stream.type">audio</property>
  <property name="meta.media.2.codec.sample_fmt">s32</property>
  <property name="meta.media.2.codec.sample_rate">48000</property>
  <property name="meta.media.2.codec.channels">2</property>
  <property name="meta.media.2.codec.name">pcm_s24le</property>
  <property name="meta.media.2.codec.long_name">PCM signed 24-bit little-endian</property>
  <property name="meta.media.2.codec.bit_rate">2304000</property>
  <property name="meta.attr.2.stream.creation_time.markup">2018-12-10T18:55:29.000000Z</property>
  <property name="meta.attr.2.stream.language.markup">eng</property>
  <property name="meta.attr.2.stream.handler_name.markup">Apple Sound Media Handler</property>
  <property name="meta.attr.2.stream.timecode.markup">18:55:29:30</property>
  <property name="meta.attr.com.apple.proapps.manufacturer.markup">Blackmagic Design</property>
  <property name="meta.attr.com.apple.proapps.cameraName.markup">CAM1</property>
  <property name="meta.attr.com.apple.proapps.isGood.markup">0</property>
  <property name="meta.attr.com.apple.proapps.customgamma.markup">com.blackmagic-design.cinemacamera.filmlog</property>
  <property name="meta.attr.com.blackmagic-design.cinemacamera.uuid.markup">18E5E00548F94923B646613A73C01B56</property>
  <property name="meta.attr.creation_time.markup">2018-12-10T18:55:29.000000Z</property>
  <property name="meta.attr.timecode.markup">18:55:29:30</property>
  <property name="seekable">1</property>
  <property name="meta.media.sample_aspect_num">1</property>
  <property name="meta.media.sample_aspect_den">1</property>
  <property name="aspect_ratio">1</property>
  <property name="kdenlive:folderid">13</property>
  <property name="kdenlive:file_size">1429192513</property>
  <property name="kdenlive:file_hash">626434d53e10f12816265ac334d41379</property>
  <property name="global_feed">1</property>
  <property name="meta.media.frame_rate_num">50</property>
  <property name="meta.media.frame_rate_den">1</property>
  <property name="meta.media.colorspace">709</property>
  <property name="meta.media.color_trc">2</property>
  <property name="meta.media.width">1920</property>
  <property name="meta.media.height">1080</property>
  <property name="meta.media.top_field_first">0</property>
  <property name="meta.media.progressive">1</property>
 </producer>
 <producer title="Anonymous Submission" id="19" in="0" out="2823">
  <property name="length">00:00:56:24</property>
  <property name="eof">pause</property>
  <property name="resource">/media/bordun/plagiat/2018-12-10_Plagiat_RespecteLaPuissancePapale/Carte_3/CAM1_2018-12-10_1856_C0008.mov</property>
  <property name="audio_index">2</property>
  <property name="video_index">1</property>
  <property name="mute_on_pause">1</property>
  <property name="mlt_service">avformat-novalidate</property>
  <property name="meta.media.nb_streams">3</property>
  <property name="meta.media.1.stream.type">video</property>
  <property name="meta.media.1.stream.frame_rate">50</property>
  <property name="meta.media.1.stream.sample_aspect_ratio">1</property>
  <property name="meta.media.1.codec.width">1920</property>
  <property name="meta.media.1.codec.height">1080</property>
  <property name="meta.media.1.codec.rotate">0</property>
  <property name="meta.media.1.codec.frame_rate">5000</property>
  <property name="meta.media.1.codec.pix_fmt">yuv422p10le</property>
  <property name="meta.media.1.codec.sample_aspect_ratio">0</property>
  <property name="meta.media.1.codec.colorspace">709</property>
  <property name="meta.media.1.codec.name">prores</property>
  <property name="meta.media.1.codec.long_name">ProRes (iCodec Pro)</property>
  <property name="meta.media.1.codec.bit_rate">366955049</property>
  <property name="meta.attr.1.stream.creation_time.markup">2018-12-10T18:56:22.000000Z</property>
  <property name="meta.attr.1.stream.language.markup">eng</property>
  <property name="meta.attr.1.stream.handler_name.markup">Apple Video Media Handler</property>
  <property name="meta.attr.1.stream.encoder.markup">Apple ProRes 422 HQ</property>
  <property name="meta.attr.1.stream.timecode.markup">18:56:22:36</property>
  <property name="meta.media.2.stream.type">audio</property>
  <property name="meta.media.2.codec.sample_fmt">s32</property>
  <property name="meta.media.2.codec.sample_rate">48000</property>
  <property name="meta.media.2.codec.channels">2</property>
  <property name="meta.media.2.codec.name">pcm_s24le</property>
  <property name="meta.media.2.codec.long_name">PCM signed 24-bit little-endian</property>
  <property name="meta.media.2.codec.bit_rate">2304000</property>
  <property name="meta.attr.2.stream.creation_time.markup">2018-12-10T18:56:22.000000Z</property>
  <property name="meta.attr.2.stream.language.markup">eng</property>
  <property name="meta.attr.2.stream.handler_name.markup">Apple Sound Media Handler</property>
  <property name="meta.attr.2.stream.timecode.markup">18:56:22:36</property>
  <property name="meta.attr.com.apple.proapps.manufacturer.markup">Blackmagic Design</property>
  <property name="meta.attr.com.apple.proapps.cameraName.markup">CAM1</property>
  <property name="meta.attr.com.apple.proapps.isGood.markup">0</property>
  <property name="meta.attr.com.apple.proapps.customgamma.markup">com.blackmagic-design.cinemacamera.filmlog</property>
  <property name="meta.attr.com.blackmagic-design.cinemacamera.uuid.markup">18E5E00548F94923B646613A73C01B56</property>
  <property name="meta.attr.creation_time.markup">2018-12-10T18:56:22.000000Z</property>
  <property name="meta.attr.timecode.markup">18:56:22:36</property>
  <property name="seekable">1</property>
  <property name="meta.media.sample_aspect_num">1</property>
  <property name="meta.media.sample_aspect_den">1</property>
  <property name="aspect_ratio">1</property>
  <property name="kdenlive:folderid">13</property>
  <property name="kdenlive:file_size">2607255569</property>
  <property name="kdenlive:file_hash">4d6c52ada6c928dfc33b28648fd401f1</property>
  <property name="global_feed">1</property>
  <property name="meta.media.frame_rate_num">50</property>
  <property name="meta.media.frame_rate_den">1</property>
  <property name="meta.media.colorspace">709</property>
  <property name="meta.media.color_trc">2</property>
  <property name="meta.media.width">1920</property>
  <property name="meta.media.height">1080</property>
  <property name="meta.media.top_field_first">0</property>
  <property name="meta.media.progressive">1</property>
  <property name="kdenlive:zone_in">261</property>
  <property name="kdenlive:zone_out">1043</property>
  <filter id="pan_zoom" out="2823">
   <property name="background">colour:0x00000000</property>
   <property name="mlt_service">affine</property>
   <property name="kdenlive_id">pan_zoom</property>
   <property name="tag">affine</property>
   <property name="kdenlive_ix">1</property>
   <property name="kdenlive:sync_in_out">1</property>
   <property name="kdenlive_info"/>
   <property name="transition.geometry">-768/-333:2688x1512:100</property>
   <property name="transition.distort">0</property>
   <property name="disable">1</property>
  </filter>
 </producer>
 <producer title="Anonymous Submission" id="20" in="0" out="995">
  <property name="length">00:00:19:46</property>
  <property name="eof">pause</property>
  <property name="resource">/media/bordun/plagiat/2018-12-10_Plagiat_RespecteLaPuissancePapale/Carte_3/CAM1_2018-12-10_1857_C0009.mov</property>
  <property name="audio_index">2</property>
  <property name="video_index">1</property>
  <property name="mute_on_pause">1</property>
  <property name="mlt_service">avformat-novalidate</property>
  <property name="meta.media.nb_streams">3</property>
  <property name="meta.media.1.stream.type">video</property>
  <property name="meta.media.1.stream.frame_rate">50</property>
  <property name="meta.media.1.stream.sample_aspect_ratio">1</property>
  <property name="meta.media.1.codec.width">1920</property>
  <property name="meta.media.1.codec.height">1080</property>
  <property name="meta.media.1.codec.rotate">0</property>
  <property name="meta.media.1.codec.frame_rate">5000</property>
  <property name="meta.media.1.codec.pix_fmt">yuv422p10le</property>
  <property name="meta.media.1.codec.sample_aspect_ratio">0</property>
  <property name="meta.media.1.codec.colorspace">709</property>
  <property name="meta.media.1.codec.name">prores</property>
  <property name="meta.media.1.codec.long_name">ProRes (iCodec Pro)</property>
  <property name="meta.media.1.codec.bit_rate">366959048</property>
  <property name="meta.attr.1.stream.creation_time.markup">2018-12-10T18:57:40.000000Z</property>
  <property name="meta.attr.1.stream.language.markup">eng</property>
  <property name="meta.attr.1.stream.handler_name.markup">Apple Video Media Handler</property>
  <property name="meta.attr.1.stream.encoder.markup">Apple ProRes 422 HQ</property>
  <property name="meta.attr.1.stream.timecode.markup">18:57:40:47</property>
  <property name="meta.media.2.stream.type">audio</property>
  <property name="meta.media.2.codec.sample_fmt">s32</property>
  <property name="meta.media.2.codec.sample_rate">48000</property>
  <property name="meta.media.2.codec.channels">2</property>
  <property name="meta.media.2.codec.name">pcm_s24le</property>
  <property name="meta.media.2.codec.long_name">PCM signed 24-bit little-endian</property>
  <property name="meta.media.2.codec.bit_rate">2304000</property>
  <property name="meta.attr.2.stream.creation_time.markup">2018-12-10T18:57:40.000000Z</property>
  <property name="meta.attr.2.stream.language.markup">eng</property>
  <property name="meta.attr.2.stream.handler_name.markup">Apple Sound Media Handler</property>
  <property name="meta.attr.2.stream.timecode.markup">18:57:40:47</property>
  <property name="meta.attr.com.apple.proapps.manufacturer.markup">Blackmagic Design</property>
  <property name="meta.attr.com.apple.proapps.cameraName.markup">CAM1</property>
  <property name="meta.attr.com.apple.proapps.isGood.markup">0</property>
  <property name="meta.attr.com.apple.proapps.customgamma.markup">com.blackmagic-design.cinemacamera.filmlog</property>
  <property name="meta.attr.com.blackmagic-design.cinemacamera.uuid.markup">18E5E00548F94923B646613A73C01B56</property>
  <property name="meta.attr.creation_time.markup">2018-12-10T18:57:40.000000Z</property>
  <property name="meta.attr.timecode.markup">18:57:40:47</property>
  <property name="seekable">1</property>
  <property name="meta.media.sample_aspect_num">1</property>
  <property name="meta.media.sample_aspect_den">1</property>
  <property name="aspect_ratio">1</property>
  <property name="kdenlive:folderid">13</property>
  <property name="kdenlive:file_size">919559913</property>
  <property name="kdenlive:file_hash">1729a26f0eb1c7c9bfd5136f79c4245a</property>
  <property name="global_feed">1</property>
  <property name="meta.media.frame_rate_num">50</property>
  <property name="meta.media.frame_rate_den">1</property>
  <property name="meta.media.colorspace">709</property>
  <property name="meta.media.color_trc">2</property>
  <property name="meta.media.width">1920</property>
  <property name="meta.media.height">1080</property>
  <property name="meta.media.top_field_first">0</property>
  <property name="meta.media.progressive">1</property>
 </producer>
 <producer title="Anonymous Submission" id="21" in="0" out="8367">
  <property name="length">00:02:47:18</property>
  <property name="eof">pause</property>
  <property name="resource">/media/bordun/plagiat/2018-12-10_Plagiat_RespecteLaPuissancePapale/Carte_4/CAM1_2018-12-10_1918_C0004.mov</property>
  <property name="audio_index">2</property>
  <property name="video_index">1</property>
  <property name="mute_on_pause">1</property>
  <property name="mlt_service">avformat-novalidate</property>
  <property name="meta.media.nb_streams">3</property>
  <property name="meta.media.1.stream.type">video</property>
  <property name="meta.media.1.stream.frame_rate">50</property>
  <property name="meta.media.1.stream.sample_aspect_ratio">1</property>
  <property name="meta.media.1.codec.width">1920</property>
  <property name="meta.media.1.codec.height">1080</property>
  <property name="meta.media.1.codec.rotate">0</property>
  <property name="meta.media.1.codec.frame_rate">5000</property>
  <property name="meta.media.1.codec.pix_fmt">yuv422p10le</property>
  <property name="meta.media.1.codec.sample_aspect_ratio">0</property>
  <property name="meta.media.1.codec.colorspace">709</property>
  <property name="meta.media.1.codec.name">prores</property>
  <property name="meta.media.1.codec.long_name">ProRes (iCodec Pro)</property>
  <property name="meta.media.1.codec.bit_rate">366957425</property>
  <property name="meta.attr.1.stream.creation_time.markup">2018-12-10T19:18:09.000000Z</property>
  <property name="meta.attr.1.stream.language.markup">eng</property>
  <property name="meta.attr.1.stream.handler_name.markup">Apple Video Media Handler</property>
  <property name="meta.attr.1.stream.encoder.markup">Apple ProRes 422 HQ</property>
  <property name="meta.attr.1.stream.timecode.markup">19:18:09:37</property>
  <property name="meta.media.2.stream.type">audio</property>
  <property name="meta.media.2.codec.sample_fmt">s32</property>
  <property name="meta.media.2.codec.sample_rate">48000</property>
  <property name="meta.media.2.codec.channels">2</property>
  <property name="meta.media.2.codec.name">pcm_s24le</property>
  <property name="meta.media.2.codec.long_name">PCM signed 24-bit little-endian</property>
  <property name="meta.media.2.codec.bit_rate">2304000</property>
  <property name="meta.attr.2.stream.creation_time.markup">2018-12-10T19:18:09.000000Z</property>
  <property name="meta.attr.2.stream.language.markup">eng</property>
  <property name="meta.attr.2.stream.handler_name.markup">Apple Sound Media Handler</property>
  <property name="meta.attr.2.stream.timecode.markup">19:18:09:37</property>
  <property name="meta.attr.com.apple.proapps.manufacturer.markup">Blackmagic Design</property>
  <property name="meta.attr.com.apple.proapps.cameraName.markup">CAM1</property>
  <property name="meta.attr.com.apple.proapps.isGood.markup">0</property>
  <property name="meta.attr.com.apple.proapps.customgamma.markup">com.blackmagic-design.cinemacamera.filmlog</property>
  <property name="meta.attr.com.blackmagic-design.cinemacamera.uuid.markup">18E5E00548F94923B646613A73C01B56</property>
  <property name="meta.attr.creation_time.markup">2018-12-10T19:18:09.000000Z</property>
  <property name="meta.attr.timecode.markup">19:18:09:37</property>
  <property name="seekable">1</property>
  <property name="meta.media.sample_aspect_num">1</property>
  <property name="meta.media.sample_aspect_den">1</property>
  <property name="aspect_ratio">1</property>
  <property name="kdenlive:folderid">13</property>
  <property name="kdenlive:file_size">7725732233</property>
  <property name="kdenlive:file_hash">4738ec11929b714df4a2322c7cba3752</property>
  <property name="global_feed">1</property>
  <property name="meta.media.frame_rate_num">50</property>
  <property name="meta.media.frame_rate_den">1</property>
  <property name="meta.media.colorspace">709</property>
  <property name="meta.media.color_trc">2</property>
  <property name="meta.media.width">1920</property>
  <property name="meta.media.height">1080</property>
  <property name="meta.media.top_field_first">0</property>
  <property name="meta.media.progressive">1</property>
 </producer>
 <producer title="Anonymous Submission" id="23" in="0" out="90">
  <property name="length">00:00:01:41</property>
  <property name="eof">pause</property>
  <property name="resource">/media/bordun/plagiat/2018-12-10_Plagiat_RespecteLaPuissancePapale/Carte_4/CAM1_2018-12-10_1930_C0006.mov</property>
  <property name="audio_index">2</property>
  <property name="video_index">1</property>
  <property name="mute_on_pause">1</property>
  <property name="mlt_service">avformat-novalidate</property>
  <property name="meta.media.nb_streams">3</property>
  <property name="meta.media.1.stream.type">video</property>
  <property name="meta.media.1.stream.frame_rate">50</property>
  <property name="meta.media.1.stream.sample_aspect_ratio">1</property>
  <property name="meta.media.1.codec.width">1920</property>
  <property name="meta.media.1.codec.height">1080</property>
  <property name="meta.media.1.codec.rotate">0</property>
  <property name="meta.media.1.codec.frame_rate">5000</property>
  <property name="meta.media.1.codec.pix_fmt">yuv422p10le</property>
  <property name="meta.media.1.codec.sample_aspect_ratio">0</property>
  <property name="meta.media.1.codec.colorspace">709</property>
  <property name="meta.media.1.codec.name">prores</property>
  <property name="meta.media.1.codec.long_name">ProRes (iCodec Pro)</property>
  <property name="meta.media.1.codec.bit_rate">366959648</property>
  <property name="meta.attr.1.stream.creation_time.markup">2018-12-10T19:30:36.000000Z</property>
  <property name="meta.attr.1.stream.language.markup">eng</property>
  <property name="meta.attr.1.stream.handler_name.markup">Apple Video Media Handler</property>
  <property name="meta.attr.1.stream.encoder.markup">Apple ProRes 422 HQ</property>
  <property name="meta.attr.1.stream.timecode.markup">19:30:36:33</property>
  <property name="meta.media.2.stream.type">audio</property>
  <property name="meta.media.2.codec.sample_fmt">s32</property>
  <property name="meta.media.2.codec.sample_rate">48000</property>
  <property name="meta.media.2.codec.channels">2</property>
  <property name="meta.media.2.codec.name">pcm_s24le</property>
  <property name="meta.media.2.codec.long_name">PCM signed 24-bit little-endian</property>
  <property name="meta.media.2.codec.bit_rate">2304000</property>
  <property name="meta.attr.2.stream.creation_time.markup">2018-12-10T19:30:36.000000Z</property>
  <property name="meta.attr.2.stream.language.markup">eng</property>
  <property name="meta.attr.2.stream.handler_name.markup">Apple Sound Media Handler</property>
  <property name="meta.attr.2.stream.timecode.markup">19:30:36:33</property>
  <property name="meta.attr.com.apple.proapps.manufacturer.markup">Blackmagic Design</property>
  <property name="meta.attr.com.apple.proapps.cameraName.markup">CAM1</property>
  <property name="meta.attr.com.apple.proapps.isGood.markup">0</property>
  <property name="meta.attr.com.apple.proapps.customgamma.markup">com.blackmagic-design.cinemacamera.filmlog</property>
  <property name="meta.attr.com.blackmagic-design.cinemacamera.uuid.markup">18E5E00548F94923B646613A73C01B56</property>
  <property name="meta.attr.creation_time.markup">2018-12-10T19:30:36.000000Z</property>
  <property name="meta.attr.timecode.markup">19:30:36:33</property>
  <property name="seekable">1</property>
  <property name="meta.media.sample_aspect_num">1</property>
  <property name="meta.media.sample_aspect_den">1</property>
  <property name="aspect_ratio">1</property>
  <property name="kdenlive:folderid">13</property>
  <property name="kdenlive:file_size">84022873</property>
  <property name="kdenlive:file_hash">1ba34791faa62b04135628a57849c83e</property>
  <property name="global_feed">1</property>
  <property name="meta.media.frame_rate_num">50</property>
  <property name="meta.media.frame_rate_den">1</property>
  <property name="meta.media.colorspace">709</property>
  <property name="meta.media.color_trc">2</property>
  <property name="meta.media.width">1920</property>
  <property name="meta.media.height">1080</property>
  <property name="meta.media.top_field_first">0</property>
  <property name="meta.media.progressive">1</property>
 </producer>
 <producer title="Anonymous Submission" id="24" in="0" out="2194">
  <property name="length">00:00:43:45</property>
  <property name="eof">pause</property>
  <property name="resource">/media/bordun/plagiat/2018-12-10_Plagiat_RespecteLaPuissancePapale/Carte_4/CAM1_2018-12-10_1932_C0007.mov</property>
  <property name="audio_index">2</property>
  <property name="video_index">1</property>
  <property name="mute_on_pause">1</property>
  <property name="mlt_service">avformat-novalidate</property>
  <property name="meta.media.nb_streams">3</property>
  <property name="meta.media.1.stream.type">video</property>
  <property name="meta.media.1.stream.frame_rate">50</property>
  <property name="meta.media.1.stream.sample_aspect_ratio">1</property>
  <property name="meta.media.1.codec.width">1920</property>
  <property name="meta.media.1.codec.height">1080</property>
  <property name="meta.media.1.codec.rotate">0</property>
  <property name="meta.media.1.codec.frame_rate">5000</property>
  <property name="meta.media.1.codec.pix_fmt">yuv422p10le</property>
  <property name="meta.media.1.codec.sample_aspect_ratio">0</property>
  <property name="meta.media.1.codec.colorspace">709</property>
  <property name="meta.media.1.codec.name">prores</property>
  <property name="meta.media.1.codec.long_name">ProRes (iCodec Pro)</property>
  <property name="meta.media.1.codec.bit_rate">366958350</property>
  <property name="meta.attr.1.stream.creation_time.markup">2018-12-10T19:32:10.000000Z</property>
  <property name="meta.attr.1.stream.language.markup">eng</property>
  <property name="meta.attr.1.stream.handler_name.markup">Apple Video Media Handler</property>
  <property name="meta.attr.1.stream.encoder.markup">Apple ProRes 422 HQ</property>
  <property name="meta.attr.1.stream.timecode.markup">19:32:10:35</property>
  <property name="meta.media.2.stream.type">audio</property>
  <property name="meta.media.2.codec.sample_fmt">s32</property>
  <property name="meta.media.2.codec.sample_rate">48000</property>
  <property name="meta.media.2.codec.channels">2</property>
  <property name="meta.media.2.codec.name">pcm_s24le</property>
  <property name="meta.media.2.codec.long_name">PCM signed 24-bit little-endian</property>
  <property name="meta.media.2.codec.bit_rate">2304000</property>
  <property name="meta.attr.2.stream.creation_time.markup">2018-12-10T19:32:10.000000Z</property>
  <property name="meta.attr.2.stream.language.markup">eng</property>
  <property name="meta.attr.2.stream.handler_name.markup">Apple Sound Media Handler</property>
  <property name="meta.attr.2.stream.timecode.markup">19:32:10:35</property>
  <property name="meta.attr.com.apple.proapps.manufacturer.markup">Blackmagic Design</property>
  <property name="meta.attr.com.apple.proapps.cameraName.markup">CAM1</property>
  <property name="meta.attr.com.apple.proapps.isGood.markup">0</property>
  <property name="meta.attr.com.apple.proapps.customgamma.markup">com.blackmagic-design.cinemacamera.filmlog</property>
  <property name="meta.attr.com.blackmagic-design.cinemacamera.uuid.markup">18E5E00548F94923B646613A73C01B56</property>
  <property name="meta.attr.creation_time.markup">2018-12-10T19:32:10.000000Z</property>
  <property name="meta.attr.timecode.markup">19:32:10:35</property>
  <property name="seekable">1</property>
  <property name="meta.media.sample_aspect_num">1</property>
  <property name="meta.media.sample_aspect_den">1</property>
  <property name="aspect_ratio">1</property>
  <property name="kdenlive:folderid">13</property>
  <property name="kdenlive:file_size">2026532265</property>
  <property name="kdenlive:file_hash">817b2a44d7814a42acea89e05d1f8fde</property>
  <property name="global_feed">1</property>
  <property name="meta.media.frame_rate_num">50</property>
  <property name="meta.media.frame_rate_den">1</property>
  <property name="meta.media.colorspace">709</property>
  <property name="meta.media.color_trc">2</property>
  <property name="meta.media.width">1920</property>
  <property name="meta.media.height">1080</property>
  <property name="meta.media.top_field_first">0</property>
  <property name="meta.media.progressive">1</property>
  <property name="kdenlive:zone_in">1490</property>
  <property name="kdenlive:zone_out">1492</property>
  <filter id="filter8">
   <property name="version">0,3</property>
   <property name="mlt_service">frei0r.levels</property>
   <property name="kdenlive_id">frei0r.levels</property>
   <property name="tag">frei0r.levels</property>
   <property name="kdenlive_ix">1</property>
   <property name="kdenlive_info"/>
   <property name="Channel">0,3</property>
   <property name="Input black level">0=0</property>
   <property name="Input white level">0=0,112</property>
   <property name="Gamma">0=0,31825</property>
   <property name="Black output">0=0,734</property>
   <property name="White output">0=0,54</property>
   <property name="Show histogram">0</property>
   <property name="Histogram position">0,3</property>
  </filter>
 </producer>
 <producer title="Anonymous Submission" id="22" in="0" out="2303">
  <property name="length">00:00:46:04</property>
  <property name="eof">pause</property>
  <property name="resource">/media/bordun/plagiat/2018-12-10_Plagiat_RespecteLaPuissancePapale/Carte_4/CAM1_2018-12-10_1921_C0005.mov</property>
  <property name="audio_index">2</property>
  <property name="video_index">1</property>
  <property name="mute_on_pause">1</property>
  <property name="mlt_service">avformat-novalidate</property>
  <property name="meta.media.nb_streams">3</property>
  <property name="meta.media.1.stream.type">video</property>
  <property name="meta.media.1.stream.frame_rate">50</property>
  <property name="meta.media.1.stream.sample_aspect_ratio">1</property>
  <property name="meta.media.1.codec.width">1920</property>
  <property name="meta.media.1.codec.height">1080</property>
  <property name="meta.media.1.codec.rotate">0</property>
  <property name="meta.media.1.codec.frame_rate">5000</property>
  <property name="meta.media.1.codec.pix_fmt">yuv422p10le</property>
  <property name="meta.media.1.codec.sample_aspect_ratio">0</property>
  <property name="meta.media.1.codec.colorspace">709</property>
  <property name="meta.media.1.codec.name">prores</property>
  <property name="meta.media.1.codec.long_name">ProRes (iCodec Pro)</property>
  <property name="meta.media.1.codec.bit_rate">366955247</property>
  <property name="meta.attr.1.stream.creation_time.markup">2018-12-10T19:21:23.000000Z</property>
  <property name="meta.attr.1.stream.language.markup">eng</property>
  <property name="meta.attr.1.stream.handler_name.markup">Apple Video Media Handler</property>
  <property name="meta.attr.1.stream.encoder.markup">Apple ProRes 422 HQ</property>
  <property name="meta.attr.1.stream.timecode.markup">19:21:23:42</property>
  <property name="meta.media.2.stream.type">audio</property>
  <property name="meta.media.2.codec.sample_fmt">s32</property>
  <property name="meta.media.2.codec.sample_rate">48000</property>
  <property name="meta.media.2.codec.channels">2</property>
  <property name="meta.media.2.codec.name">pcm_s24le</property>
  <property name="meta.media.2.codec.long_name">PCM signed 24-bit little-endian</property>
  <property name="meta.media.2.codec.bit_rate">2304000</property>
  <property name="meta.attr.2.stream.creation_time.markup">2018-12-10T19:21:23.000000Z</property>
  <property name="meta.attr.2.stream.language.markup">eng</property>
  <property name="meta.attr.2.stream.handler_name.markup">Apple Sound Media Handler</property>
  <property name="meta.attr.2.stream.timecode.markup">19:21:23:42</property>
  <property name="meta.attr.com.apple.proapps.manufacturer.markup">Blackmagic Design</property>
  <property name="meta.attr.com.apple.proapps.cameraName.markup">CAM1</property>
  <property name="meta.attr.com.apple.proapps.isGood.markup">0</property>
  <property name="meta.attr.com.apple.proapps.customgamma.markup">com.blackmagic-design.cinemacamera.filmlog</property>
  <property name="meta.attr.com.blackmagic-design.cinemacamera.uuid.markup">18E5E00548F94923B646613A73C01B56</property>
  <property name="meta.attr.creation_time.markup">2018-12-10T19:21:23.000000Z</property>
  <property name="meta.attr.timecode.markup">19:21:23:42</property>
  <property name="seekable">1</property>
  <property name="meta.media.sample_aspect_num">1</property>
  <property name="meta.media.sample_aspect_den">1</property>
  <property name="aspect_ratio">1</property>
  <property name="kdenlive:folderid">13</property>
  <property name="kdenlive:file_size">2127176129</property>
  <property name="kdenlive:file_hash">498399b1185fccb66f9150f51f3e9c22</property>
  <property name="global_feed">1</property>
  <property name="meta.media.frame_rate_num">50</property>
  <property name="meta.media.frame_rate_den">1</property>
  <property name="meta.media.colorspace">709</property>
  <property name="meta.media.color_trc">2</property>
  <property name="meta.media.width">1920</property>
  <property name="meta.media.height">1080</property>
  <property name="meta.media.top_field_first">0</property>
  <property name="meta.media.progressive">1</property>
 </producer>
 <producer title="Anonymous Submission" id="14" in="0" out="3805">
  <property name="length">00:01:16:06</property>
  <property name="eof">pause</property>
  <property name="resource">/media/bordun/plagiat/2018-12-10_Plagiat_RespecteLaPuissancePapale/Carte_3/CAM1_2018-12-10_1833_C0003.mov</property>
  <property name="audio_index">2</property>
  <property name="video_index">1</property>
  <property name="mute_on_pause">1</property>
  <property name="mlt_service">avformat-novalidate</property>
  <property name="meta.media.nb_streams">3</property>
  <property name="meta.media.1.stream.type">video</property>
  <property name="meta.media.1.stream.frame_rate">50</property>
  <property name="meta.media.1.stream.sample_aspect_ratio">1</property>
  <property name="meta.media.1.codec.width">1920</property>
  <property name="meta.media.1.codec.height">1080</property>
  <property name="meta.media.1.codec.rotate">0</property>
  <property name="meta.media.1.codec.frame_rate">5000</property>
  <property name="meta.media.1.codec.pix_fmt">yuv422p10le</property>
  <property name="meta.media.1.codec.sample_aspect_ratio">0</property>
  <property name="meta.media.1.codec.colorspace">709</property>
  <property name="meta.media.1.codec.name">prores</property>
  <property name="meta.media.1.codec.long_name">ProRes (iCodec Pro)</property>
  <property name="meta.media.1.codec.bit_rate">366958122</property>
  <property name="meta.attr.1.stream.creation_time.markup">2018-12-10T18:33:13.000000Z</property>
  <property name="meta.attr.1.stream.language.markup">eng</property>
  <property name="meta.attr.1.stream.handler_name.markup">Apple Video Media Handler</property>
  <property name="meta.attr.1.stream.encoder.markup">Apple ProRes 422 HQ</property>
  <property name="meta.attr.1.stream.timecode.markup">18:33:13:41</property>
  <property name="meta.media.2.stream.type">audio</property>
  <property name="meta.media.2.codec.sample_fmt">s32</property>
  <property name="meta.media.2.codec.sample_rate">48000</property>
  <property name="meta.media.2.codec.channels">2</property>
  <property name="meta.media.2.codec.name">pcm_s24le</property>
  <property name="meta.media.2.codec.long_name">PCM signed 24-bit little-endian</property>
  <property name="meta.media.2.codec.bit_rate">2304000</property>
  <property name="meta.attr.2.stream.creation_time.markup">2018-12-10T18:33:13.000000Z</property>
  <property name="meta.attr.2.stream.language.markup">eng</property>
  <property name="meta.attr.2.stream.handler_name.markup">Apple Sound Media Handler</property>
  <property name="meta.attr.2.stream.timecode.markup">18:33:13:41</property>
  <property name="meta.attr.com.apple.proapps.manufacturer.markup">Blackmagic Design</property>
  <property name="meta.attr.com.apple.proapps.cameraName.markup">CAM1</property>
  <property name="meta.attr.com.apple.proapps.isGood.markup">0</property>
  <property name="meta.attr.com.apple.proapps.customgamma.markup">com.blackmagic-design.cinemacamera.filmlog</property>
  <property name="meta.attr.com.blackmagic-design.cinemacamera.uuid.markup">18E5E00548F94923B646613A73C01B56</property>
  <property name="meta.attr.creation_time.markup">2018-12-10T18:33:13.000000Z</property>
  <property name="meta.attr.timecode.markup">18:33:13:41</property>
  <property name="seekable">1</property>
  <property name="meta.media.sample_aspect_num">1</property>
  <property name="meta.media.sample_aspect_den">1</property>
  <property name="aspect_ratio">1</property>
  <property name="kdenlive:folderid">14</property>
  <property name="kdenlive:file_size">3513882801</property>
  <property name="kdenlive:file_hash">911165815b4f50c12a788c8017dec34b</property>
  <property name="global_feed">1</property>
  <property name="meta.media.frame_rate_num">50</property>
  <property name="meta.media.frame_rate_den">1</property>
  <property name="meta.media.colorspace">709</property>
  <property name="meta.media.color_trc">2</property>
  <property name="meta.media.width">1920</property>
  <property name="meta.media.height">1080</property>
  <property name="meta.media.top_field_first">0</property>
  <property name="meta.media.progressive">1</property>
 </producer>
 <producer title="Anonymous Submission" id="15" in="0" out="3941">
  <property name="length">00:01:18:42</property>
  <property name="eof">pause</property>
  <property name="resource">/media/bordun/plagiat/2018-12-10_Plagiat_RespecteLaPuissancePapale/Carte_3/CAM1_2018-12-10_1834_C0004.mov</property>
  <property name="audio_index">2</property>
  <property name="video_index">1</property>
  <property name="mute_on_pause">1</property>
  <property name="mlt_service">avformat-novalidate</property>
  <property name="meta.media.nb_streams">3</property>
  <property name="meta.media.1.stream.type">video</property>
  <property name="meta.media.1.stream.frame_rate">50</property>
  <property name="meta.media.1.stream.sample_aspect_ratio">1</property>
  <property name="meta.media.1.codec.width">1920</property>
  <property name="meta.media.1.codec.height">1080</property>
  <property name="meta.media.1.codec.rotate">0</property>
  <property name="meta.media.1.codec.frame_rate">5000</property>
  <property name="meta.media.1.codec.pix_fmt">yuv422p10le</property>
  <property name="meta.media.1.codec.sample_aspect_ratio">0</property>
  <property name="meta.media.1.codec.colorspace">709</property>
  <property name="meta.media.1.codec.name">prores</property>
  <property name="meta.media.1.codec.long_name">ProRes (iCodec Pro)</property>
  <property name="meta.media.1.codec.bit_rate">366957579</property>
  <property name="meta.attr.1.stream.creation_time.markup">2018-12-10T18:34:58.000000Z</property>
  <property name="meta.attr.1.stream.language.markup">eng</property>
  <property name="meta.attr.1.stream.handler_name.markup">Apple Video Media Handler</property>
  <property name="meta.attr.1.stream.encoder.markup">Apple ProRes 422 HQ</property>
  <property name="meta.attr.1.stream.timecode.markup">18:34:58:08</property>
  <property name="meta.media.2.stream.type">audio</property>
  <property name="meta.media.2.codec.sample_fmt">s32</property>
  <property name="meta.media.2.codec.sample_rate">48000</property>
  <property name="meta.media.2.codec.channels">2</property>
  <property name="meta.media.2.codec.name">pcm_s24le</property>
  <property name="meta.media.2.codec.long_name">PCM signed 24-bit little-endian</property>
  <property name="meta.media.2.codec.bit_rate">2304000</property>
  <property name="meta.attr.2.stream.creation_time.markup">2018-12-10T18:34:58.000000Z</property>
  <property name="meta.attr.2.stream.language.markup">eng</property>
  <property name="meta.attr.2.stream.handler_name.markup">Apple Sound Media Handler</property>
  <property name="meta.attr.2.stream.timecode.markup">18:34:58:08</property>
  <property name="meta.attr.com.apple.proapps.manufacturer.markup">Blackmagic Design</property>
  <property name="meta.attr.com.apple.proapps.cameraName.markup">CAM1</property>
  <property name="meta.attr.com.apple.proapps.isGood.markup">0</property>
  <property name="meta.attr.com.apple.proapps.customgamma.markup">com.blackmagic-design.cinemacamera.filmlog</property>
  <property name="meta.attr.com.blackmagic-design.cinemacamera.uuid.markup">18E5E00548F94923B646613A73C01B56</property>
  <property name="meta.attr.creation_time.markup">2018-12-10T18:34:58.000000Z</property>
  <property name="meta.attr.timecode.markup">18:34:58:08</property>
  <property name="seekable">1</property>
  <property name="meta.media.sample_aspect_num">1</property>
  <property name="meta.media.sample_aspect_den">1</property>
  <property name="aspect_ratio">1</property>
  <property name="kdenlive:folderid">14</property>
  <property name="kdenlive:file_size">3639442625</property>
  <property name="kdenlive:file_hash">b37e37844340c239c0192cc4d49711fe</property>
  <property name="global_feed">1</property>
  <property name="meta.media.frame_rate_num">50</property>
  <property name="meta.media.frame_rate_den">1</property>
  <property name="meta.media.colorspace">709</property>
  <property name="meta.media.color_trc">2</property>
  <property name="meta.media.width">1920</property>
  <property name="meta.media.height">1080</property>
  <property name="meta.media.top_field_first">0</property>
  <property name="meta.media.progressive">1</property>
 </producer>
 <producer title="Anonymous Submission" id="10" in="0" out="3856">
  <property name="length">00:01:17:07</property>
  <property name="eof">pause</property>
  <property name="resource">/media/bordun/plagiat/2018-12-10_Plagiat_RespecteLaPuissancePapale/Carte_2/CAM1_2018-12-10_1727_C0005.mov</property>
  <property name="audio_index">2</property>
  <property name="video_index">1</property>
  <property name="mute_on_pause">1</property>
  <property name="mlt_service">avformat-novalidate</property>
  <property name="meta.media.nb_streams">3</property>
  <property name="meta.media.1.stream.type">video</property>
  <property name="meta.media.1.stream.frame_rate">50</property>
  <property name="meta.media.1.stream.sample_aspect_ratio">1</property>
  <property name="meta.media.1.codec.width">1920</property>
  <property name="meta.media.1.codec.height">1080</property>
  <property name="meta.media.1.codec.rotate">0</property>
  <property name="meta.media.1.codec.frame_rate">5000</property>
  <property name="meta.media.1.codec.pix_fmt">yuv422p10le</property>
  <property name="meta.media.1.codec.sample_aspect_ratio">0</property>
  <property name="meta.media.1.codec.colorspace">709</property>
  <property name="meta.media.1.codec.name">prores</property>
  <property name="meta.media.1.codec.long_name">ProRes (iCodec Pro)</property>
  <property name="meta.media.1.codec.bit_rate">366957401</property>
  <property name="meta.attr.1.stream.creation_time.markup">2018-12-10T17:27:46.000000Z</property>
  <property name="meta.attr.1.stream.language.markup">eng</property>
  <property name="meta.attr.1.stream.handler_name.markup">Apple Video Media Handler</property>
  <property name="meta.attr.1.stream.encoder.markup">Apple ProRes 422 HQ</property>
  <property name="meta.attr.1.stream.timecode.markup">17:27:46:06</property>
  <property name="meta.media.2.stream.type">audio</property>
  <property name="meta.media.2.codec.sample_fmt">s32</property>
  <property name="meta.media.2.codec.sample_rate">48000</property>
  <property name="meta.media.2.codec.channels">2</property>
  <property name="meta.media.2.codec.name">pcm_s24le</property>
  <property name="meta.media.2.codec.long_name">PCM signed 24-bit little-endian</property>
  <property name="meta.media.2.codec.bit_rate">2304000</property>
  <property name="meta.attr.2.stream.creation_time.markup">2018-12-10T17:27:46.000000Z</property>
  <property name="meta.attr.2.stream.language.markup">eng</property>
  <property name="meta.attr.2.stream.handler_name.markup">Apple Sound Media Handler</property>
  <property name="meta.attr.2.stream.timecode.markup">17:27:46:06</property>
  <property name="meta.attr.com.apple.proapps.manufacturer.markup">Blackmagic Design</property>
  <property name="meta.attr.com.apple.proapps.cameraName.markup">CAM1</property>
  <property name="meta.attr.com.apple.proapps.isGood.markup">0</property>
  <property name="meta.attr.com.apple.proapps.customgamma.markup">com.blackmagic-design.cinemacamera.filmlog</property>
  <property name="meta.attr.com.blackmagic-design.cinemacamera.uuid.markup">18E5E00548F94923B646613A73C01B56</property>
  <property name="meta.attr.creation_time.markup">2018-12-10T17:27:46.000000Z</property>
  <property name="meta.attr.timecode.markup">17:27:46:06</property>
  <property name="seekable">1</property>
  <property name="meta.media.sample_aspect_num">1</property>
  <property name="meta.media.sample_aspect_den">1</property>
  <property name="aspect_ratio">1</property>
  <property name="kdenlive:folderid">11</property>
  <property name="kdenlive:file_size">3560966841</property>
  <property name="kdenlive:file_hash">d4c6ef671e1439d8b3d95b2e51c4f714</property>
  <property name="global_feed">1</property>
  <property name="meta.media.frame_rate_num">50</property>
  <property name="meta.media.frame_rate_den">1</property>
  <property name="meta.media.colorspace">709</property>
  <property name="meta.media.color_trc">2</property>
  <property name="meta.media.width">1920</property>
  <property name="meta.media.height">1080</property>
  <property name="meta.media.top_field_first">0</property>
  <property name="meta.media.progressive">1</property>
 </producer>
 <producer title="Anonymous Submission" id="9" in="0" out="7720">
  <property name="length">00:02:34:21</property>
  <property name="eof">pause</property>
  <property name="resource">/media/bordun/plagiat/2018-12-10_Plagiat_RespecteLaPuissancePapale/Carte_2/CAM1_2018-12-10_1724_C0004.mov</property>
  <property name="audio_index">2</property>
  <property name="video_index">1</property>
  <property name="mute_on_pause">1</property>
  <property name="mlt_service">avformat-novalidate</property>
  <property name="meta.media.nb_streams">3</property>
  <property name="meta.media.1.stream.type">video</property>
  <property name="meta.media.1.stream.frame_rate">50</property>
  <property name="meta.media.1.stream.sample_aspect_ratio">1</property>
  <property name="meta.media.1.codec.width">1920</property>
  <property name="meta.media.1.codec.height">1080</property>
  <property name="meta.media.1.codec.rotate">0</property>
  <property name="meta.media.1.codec.frame_rate">5000</property>
  <property name="meta.media.1.codec.pix_fmt">yuv422p10le</property>
  <property name="meta.media.1.codec.sample_aspect_ratio">0</property>
  <property name="meta.media.1.codec.colorspace">709</property>
  <property name="meta.media.1.codec.name">prores</property>
  <property name="meta.media.1.codec.long_name">ProRes (iCodec Pro)</property>
  <property name="meta.media.1.codec.bit_rate">366955249</property>
  <property name="meta.attr.1.stream.creation_time.markup">2018-12-10T17:24:30.000000Z</property>
  <property name="meta.attr.1.stream.language.markup">eng</property>
  <property name="meta.attr.1.stream.handler_name.markup">Apple Video Media Handler</property>
  <property name="meta.attr.1.stream.encoder.markup">Apple ProRes 422 HQ</property>
  <property name="meta.attr.1.stream.timecode.markup">17:24:30:16</property>
  <property name="meta.media.2.stream.type">audio</property>
  <property name="meta.media.2.codec.sample_fmt">s32</property>
  <property name="meta.media.2.codec.sample_rate">48000</property>
  <property name="meta.media.2.codec.channels">2</property>
  <property name="meta.media.2.codec.name">pcm_s24le</property>
  <property name="meta.media.2.codec.long_name">PCM signed 24-bit little-endian</property>
  <property name="meta.media.2.codec.bit_rate">2304000</property>
  <property name="meta.attr.2.stream.creation_time.markup">2018-12-10T17:24:30.000000Z</property>
  <property name="meta.attr.2.stream.language.markup">eng</property>
  <property name="meta.attr.2.stream.handler_name.markup">Apple Sound Media Handler</property>
  <property name="meta.attr.2.stream.timecode.markup">17:24:30:16</property>
  <property name="meta.attr.com.apple.proapps.manufacturer.markup">Blackmagic Design</property>
  <property name="meta.attr.com.apple.proapps.cameraName.markup">CAM1</property>
  <property name="meta.attr.com.apple.proapps.isGood.markup">0</property>
  <property name="meta.attr.com.apple.proapps.customgamma.markup">com.blackmagic-design.cinemacamera.filmlog</property>
  <property name="meta.attr.com.blackmagic-design.cinemacamera.uuid.markup">18E5E00548F94923B646613A73C01B56</property>
  <property name="meta.attr.creation_time.markup">2018-12-10T17:24:30.000000Z</property>
  <property name="meta.attr.timecode.markup">17:24:30:16</property>
  <property name="seekable">1</property>
  <property name="meta.media.sample_aspect_num">1</property>
  <property name="meta.media.sample_aspect_den">1</property>
  <property name="aspect_ratio">1</property>
  <property name="kdenlive:folderid">11</property>
  <property name="kdenlive:file_size">7128395553</property>
  <property name="kdenlive:file_hash">26d06da8085fc8a55dca3b4629142f61</property>
  <property name="global_feed">1</property>
  <property name="meta.media.frame_rate_num">50</property>
  <property name="meta.media.frame_rate_den">1</property>
  <property name="meta.media.colorspace">709</property>
  <property name="meta.media.color_trc">2</property>
  <property name="meta.media.width">1920</property>
  <property name="meta.media.height">1080</property>
  <property name="meta.media.top_field_first">0</property>
  <property name="meta.media.progressive">1</property>
 </producer>
 <producer title="Anonymous Submission" id="11" in="0" out="21338">
  <property name="length">00:07:06:39</property>
  <property name="eof">pause</property>
  <property name="resource">/media/bordun/plagiat/2018-12-10_Plagiat_RespecteLaPuissancePapale/Carte_3/CAM1_2018-12-10_1738_C0000.mov</property>
  <property name="audio_index">2</property>
  <property name="video_index">1</property>
  <property name="mute_on_pause">1</property>
  <property name="mlt_service">avformat-novalidate</property>
  <property name="meta.media.nb_streams">3</property>
  <property name="meta.media.1.stream.type">video</property>
  <property name="meta.media.1.stream.frame_rate">50</property>
  <property name="meta.media.1.stream.sample_aspect_ratio">1</property>
  <property name="meta.media.1.codec.width">1920</property>
  <property name="meta.media.1.codec.height">1080</property>
  <property name="meta.media.1.codec.rotate">0</property>
  <property name="meta.media.1.codec.frame_rate">5000</property>
  <property name="meta.media.1.codec.pix_fmt">yuv422p10le</property>
  <property name="meta.media.1.codec.sample_aspect_ratio">0</property>
  <property name="meta.media.1.codec.colorspace">709</property>
  <property name="meta.media.1.codec.name">prores</property>
  <property name="meta.media.1.codec.long_name">ProRes (iCodec Pro)</property>
  <property name="meta.media.1.codec.bit_rate">366957439</property>
  <property name="meta.attr.1.stream.creation_time.markup">2018-12-10T17:38:54.000000Z</property>
  <property name="meta.attr.1.stream.language.markup">eng</property>
  <property name="meta.attr.1.stream.handler_name.markup">Apple Video Media Handler</property>
  <property name="meta.attr.1.stream.encoder.markup">Apple ProRes 422 HQ</property>
  <property name="meta.attr.1.stream.timecode.markup">17:38:54:28</property>
  <property name="meta.media.2.stream.type">audio</property>
  <property name="meta.media.2.codec.sample_fmt">s32</property>
  <property name="meta.media.2.codec.sample_rate">48000</property>
  <property name="meta.media.2.codec.channels">2</property>
  <property name="meta.media.2.codec.name">pcm_s24le</property>
  <property name="meta.media.2.codec.long_name">PCM signed 24-bit little-endian</property>
  <property name="meta.media.2.codec.bit_rate">2304000</property>
  <property name="meta.attr.2.stream.creation_time.markup">2018-12-10T17:38:54.000000Z</property>
  <property name="meta.attr.2.stream.language.markup">eng</property>
  <property name="meta.attr.2.stream.handler_name.markup">Apple Sound Media Handler</property>
  <property name="meta.attr.2.stream.timecode.markup">17:38:54:28</property>
  <property name="meta.attr.com.apple.proapps.manufacturer.markup">Blackmagic Design</property>
  <property name="meta.attr.com.apple.proapps.cameraName.markup">CAM1</property>
  <property name="meta.attr.com.apple.proapps.isGood.markup">0</property>
  <property name="meta.attr.com.apple.proapps.customgamma.markup">com.blackmagic-design.cinemacamera.filmlog</property>
  <property name="meta.attr.com.blackmagic-design.cinemacamera.uuid.markup">18E5E00548F94923B646613A73C01B56</property>
  <property name="meta.attr.creation_time.markup">2018-12-10T17:38:54.000000Z</property>
  <property name="meta.attr.timecode.markup">17:38:54:28</property>
  <property name="seekable">1</property>
  <property name="meta.media.sample_aspect_num">1</property>
  <property name="meta.media.sample_aspect_den">1</property>
  <property name="aspect_ratio">1</property>
  <property name="kdenlive:folderid">12</property>
  <property name="kdenlive:file_size">19701162913</property>
  <property name="kdenlive:file_hash">7247768fd7b55d6de0224125e0ef06f4</property>
  <property name="global_feed">1</property>
  <property name="meta.media.frame_rate_num">50</property>
  <property name="meta.media.frame_rate_den">1</property>
  <property name="meta.media.colorspace">709</property>
  <property name="meta.media.color_trc">2</property>
  <property name="meta.media.width">1920</property>
  <property name="meta.media.height">1080</property>
  <property name="meta.media.top_field_first">0</property>
  <property name="meta.media.progressive">1</property>
 </producer>
 <producer title="Anonymous Submission" id="8" in="0" out="21621">
  <property name="length">00:07:12:22</property>
  <property name="eof">pause</property>
  <property name="resource">/media/bordun/plagiat/2018-12-10_Plagiat_RespecteLaPuissancePapale/Carte_2/CAM1_2018-12-10_1649_C0003.mov</property>
  <property name="audio_index">2</property>
  <property name="video_index">1</property>
  <property name="mute_on_pause">1</property>
  <property name="mlt_service">avformat-novalidate</property>
  <property name="meta.media.nb_streams">3</property>
  <property name="meta.media.1.stream.type">video</property>
  <property name="meta.media.1.stream.frame_rate">50</property>
  <property name="meta.media.1.stream.sample_aspect_ratio">1</property>
  <property name="meta.media.1.codec.width">1920</property>
  <property name="meta.media.1.codec.height">1080</property>
  <property name="meta.media.1.codec.rotate">0</property>
  <property name="meta.media.1.codec.frame_rate">5000</property>
  <property name="meta.media.1.codec.pix_fmt">yuv422p10le</property>
  <property name="meta.media.1.codec.sample_aspect_ratio">0</property>
  <property name="meta.media.1.codec.colorspace">709</property>
  <property name="meta.media.1.codec.name">prores</property>
  <property name="meta.media.1.codec.long_name">ProRes (iCodec Pro)</property>
  <property name="meta.media.1.codec.bit_rate">366956838</property>
  <property name="meta.attr.1.stream.creation_time.markup">2018-12-10T16:49:40.000000Z</property>
  <property name="meta.attr.1.stream.language.markup">eng</property>
  <property name="meta.attr.1.stream.handler_name.markup">Apple Video Media Handler</property>
  <property name="meta.attr.1.stream.encoder.markup">Apple ProRes 422 HQ</property>
  <property name="meta.attr.1.stream.timecode.markup">16:49:40:04</property>
  <property name="meta.media.2.stream.type">audio</property>
  <property name="meta.media.2.codec.sample_fmt">s32</property>
  <property name="meta.media.2.codec.sample_rate">48000</property>
  <property name="meta.media.2.codec.channels">2</property>
  <property name="meta.media.2.codec.name">pcm_s24le</property>
  <property name="meta.media.2.codec.long_name">PCM signed 24-bit little-endian</property>
  <property name="meta.media.2.codec.bit_rate">2304000</property>
  <property name="meta.attr.2.stream.creation_time.markup">2018-12-10T16:49:40.000000Z</property>
  <property name="meta.attr.2.stream.language.markup">eng</property>
  <property name="meta.attr.2.stream.handler_name.markup">Apple Sound Media Handler</property>
  <property name="meta.attr.2.stream.timecode.markup">16:49:40:04</property>
  <property name="meta.attr.com.apple.proapps.manufacturer.markup">Blackmagic Design</property>
  <property name="meta.attr.com.apple.proapps.cameraName.markup">CAM1</property>
  <property name="meta.attr.com.apple.proapps.isGood.markup">0</property>
  <property name="meta.attr.com.apple.proapps.customgamma.markup">com.blackmagic-design.cinemacamera.filmlog</property>
  <property name="meta.attr.com.blackmagic-design.cinemacamera.uuid.markup">18E5E00548F94923B646613A73C01B56</property>
  <property name="meta.attr.creation_time.markup">2018-12-10T16:49:40.000000Z</property>
  <property name="meta.attr.timecode.markup">16:49:40:04</property>
  <property name="seekable">1</property>
  <property name="meta.media.sample_aspect_num">1</property>
  <property name="meta.media.sample_aspect_den">1</property>
  <property name="aspect_ratio">1</property>
  <property name="kdenlive:folderid">7</property>
  <property name="kdenlive:file_size">19962436561</property>
  <property name="kdenlive:file_hash">5ccc04e85e02ddf58369dec9f30fa947</property>
  <property name="global_feed">1</property>
  <property name="meta.media.frame_rate_num">50</property>
  <property name="meta.media.frame_rate_den">1</property>
  <property name="meta.media.colorspace">709</property>
  <property name="meta.media.color_trc">2</property>
  <property name="meta.media.width">1920</property>
  <property name="meta.media.height">1080</property>
  <property name="meta.media.top_field_first">0</property>
  <property name="meta.media.progressive">1</property>
 </producer>
 <producer title="Anonymous Submission" id="25" in="0" out="4317">
  <property name="length">00:01:26:18</property>
  <property name="eof">pause</property>
  <property name="resource">/media/bordun/plagiat/2018-12-10_Plagiat_RespecteLaPuissancePapale/Carte_4/CAM1_2018-12-10_1941_C0008.mov</property>
  <property name="audio_index">2</property>
  <property name="video_index">1</property>
  <property name="mute_on_pause">1</property>
  <property name="mlt_service">avformat-novalidate</property>
  <property name="meta.media.nb_streams">3</property>
  <property name="meta.media.1.stream.type">video</property>
  <property name="meta.media.1.stream.frame_rate">50</property>
  <property name="meta.media.1.stream.sample_aspect_ratio">1</property>
  <property name="meta.media.1.codec.width">1920</property>
  <property name="meta.media.1.codec.height">1080</property>
  <property name="meta.media.1.codec.rotate">0</property>
  <property name="meta.media.1.codec.frame_rate">5000</property>
  <property name="meta.media.1.codec.pix_fmt">yuv422p10le</property>
  <property name="meta.media.1.codec.sample_aspect_ratio">0</property>
  <property name="meta.media.1.codec.colorspace">709</property>
  <property name="meta.media.1.codec.name">prores</property>
  <property name="meta.media.1.codec.long_name">ProRes (iCodec Pro)</property>
  <property name="meta.media.1.codec.bit_rate">366957366</property>
  <property name="meta.attr.1.stream.creation_time.markup">2018-12-10T19:41:35.000000Z</property>
  <property name="meta.attr.1.stream.language.markup">eng</property>
  <property name="meta.attr.1.stream.handler_name.markup">Apple Video Media Handler</property>
  <property name="meta.attr.1.stream.encoder.markup">Apple ProRes 422 HQ</property>
  <property name="meta.attr.1.stream.timecode.markup">19:41:35:01</property>
  <property name="meta.media.2.stream.type">audio</property>
  <property name="meta.media.2.codec.sample_fmt">s32</property>
  <property name="meta.media.2.codec.sample_rate">48000</property>
  <property name="meta.media.2.codec.channels">2</property>
  <property name="meta.media.2.codec.name">pcm_s24le</property>
  <property name="meta.media.2.codec.long_name">PCM signed 24-bit little-endian</property>
  <property name="meta.media.2.codec.bit_rate">2304000</property>
  <property name="meta.attr.2.stream.creation_time.markup">2018-12-10T19:41:35.000000Z</property>
  <property name="meta.attr.2.stream.language.markup">eng</property>
  <property name="meta.attr.2.stream.handler_name.markup">Apple Sound Media Handler</property>
  <property name="meta.attr.2.stream.timecode.markup">19:41:35:01</property>
  <property name="meta.attr.com.apple.proapps.manufacturer.markup">Blackmagic Design</property>
  <property name="meta.attr.com.apple.proapps.cameraName.markup">CAM1</property>
  <property name="meta.attr.com.apple.proapps.isGood.markup">0</property>
  <property name="meta.attr.com.apple.proapps.customgamma.markup">com.blackmagic-design.cinemacamera.filmlog</property>
  <property name="meta.attr.com.blackmagic-design.cinemacamera.uuid.markup">18E5E00548F94923B646613A73C01B56</property>
  <property name="meta.attr.creation_time.markup">2018-12-10T19:41:35.000000Z</property>
  <property name="meta.attr.timecode.markup">19:41:35:01</property>
  <property name="seekable">1</property>
  <property name="meta.media.sample_aspect_num">1</property>
  <property name="meta.media.sample_aspect_den">1</property>
  <property name="aspect_ratio">1</property>
  <property name="kdenlive:folderid">7</property>
  <property name="kdenlive:file_size">3986584833</property>
  <property name="kdenlive:file_hash">090baf1e7089bd64f9705012f4444883</property>
  <property name="global_feed">1</property>
  <property name="meta.media.frame_rate_num">50</property>
  <property name="meta.media.frame_rate_den">1</property>
  <property name="meta.media.colorspace">709</property>
  <property name="meta.media.color_trc">2</property>
  <property name="meta.media.width">1920</property>
  <property name="meta.media.height">1080</property>
  <property name="meta.media.top_field_first">0</property>
  <property name="meta.media.progressive">1</property>
 </producer>
 <producer title="Anonymous Submission" id="26" in="0" out="2406">
  <property name="length">00:00:48:07</property>
  <property name="eof">pause</property>
  <property name="resource">/media/bordun/plagiat/2018-12-10_Plagiat_RespecteLaPuissancePapale/Carte_4/CAM1_2018-12-10_1950_C0009.mov</property>
  <property name="audio_index">2</property>
  <property name="video_index">1</property>
  <property name="mute_on_pause">1</property>
  <property name="mlt_service">avformat-novalidate</property>
  <property name="meta.media.nb_streams">3</property>
  <property name="meta.media.1.stream.type">video</property>
  <property name="meta.media.1.stream.frame_rate">50</property>
  <property name="meta.media.1.stream.sample_aspect_ratio">1</property>
  <property name="meta.media.1.codec.width">1920</property>
  <property name="meta.media.1.codec.height">1080</property>
  <property name="meta.media.1.codec.rotate">0</property>
  <property name="meta.media.1.codec.frame_rate">5000</property>
  <property name="meta.media.1.codec.pix_fmt">yuv422p10le</property>
  <property name="meta.media.1.codec.sample_aspect_ratio">0</property>
  <property name="meta.media.1.codec.colorspace">709</property>
  <property name="meta.media.1.codec.name">prores</property>
  <property name="meta.media.1.codec.long_name">ProRes (iCodec Pro)</property>
  <property name="meta.media.1.codec.bit_rate">366957768</property>
  <property name="meta.attr.1.stream.creation_time.markup">2018-12-10T19:50:41.000000Z</property>
  <property name="meta.attr.1.stream.language.markup">eng</property>
  <property name="meta.attr.1.stream.handler_name.markup">Apple Video Media Handler</property>
  <property name="meta.attr.1.stream.encoder.markup">Apple ProRes 422 HQ</property>
  <property name="meta.attr.1.stream.timecode.markup">19:50:41:10</property>
  <property name="meta.media.2.stream.type">audio</property>
  <property name="meta.media.2.codec.sample_fmt">s32</property>
  <property name="meta.media.2.codec.sample_rate">48000</property>
  <property name="meta.media.2.codec.channels">2</property>
  <property name="meta.media.2.codec.name">pcm_s24le</property>
  <property name="meta.media.2.codec.long_name">PCM signed 24-bit little-endian</property>
  <property name="meta.media.2.codec.bit_rate">2304000</property>
  <property name="meta.attr.2.stream.creation_time.markup">2018-12-10T19:50:41.000000Z</property>
  <property name="meta.attr.2.stream.language.markup">eng</property>
  <property name="meta.attr.2.stream.handler_name.markup">Apple Sound Media Handler</property>
  <property name="meta.attr.2.stream.timecode.markup">19:50:41:10</property>
  <property name="meta.attr.com.apple.proapps.manufacturer.markup">Blackmagic Design</property>
  <property name="meta.attr.com.apple.proapps.cameraName.markup">CAM1</property>
  <property name="meta.attr.com.apple.proapps.isGood.markup">0</property>
  <property name="meta.attr.com.apple.proapps.customgamma.markup">com.blackmagic-design.cinemacamera.filmlog</property>
  <property name="meta.attr.com.blackmagic-design.cinemacamera.uuid.markup">18E5E00548F94923B646613A73C01B56</property>
  <property name="meta.attr.creation_time.markup">2018-12-10T19:50:41.000000Z</property>
  <property name="meta.attr.timecode.markup">19:50:41:10</property>
  <property name="seekable">1</property>
  <property name="meta.media.sample_aspect_num">1</property>
  <property name="meta.media.sample_aspect_den">1</property>
  <property name="aspect_ratio">1</property>
  <property name="kdenlive:folderid">15</property>
  <property name="kdenlive:file_size">2222269393</property>
  <property name="kdenlive:file_hash">31d97f0f897fd63981b85562c9492a1e</property>
  <property name="global_feed">1</property>
  <property name="meta.media.frame_rate_num">50</property>
  <property name="meta.media.frame_rate_den">1</property>
  <property name="meta.media.colorspace">709</property>
  <property name="meta.media.color_trc">2</property>
  <property name="meta.media.width">1920</property>
  <property name="meta.media.height">1080</property>
  <property name="meta.media.top_field_first">0</property>
  <property name="meta.media.progressive">1</property>
 </producer>
 <producer title="Anonymous Submission" id="13" in="0" out="4748">
  <property name="length">00:01:34:49</property>
  <property name="eof">pause</property>
  <property name="resource">/media/bordun/plagiat/2018-12-10_Plagiat_RespecteLaPuissancePapale/Carte_3/CAM1_2018-12-10_1827_C0002.mov</property>
  <property name="audio_index">2</property>
  <property name="video_index">1</property>
  <property name="mute_on_pause">1</property>
  <property name="mlt_service">avformat-novalidate</property>
  <property name="meta.media.nb_streams">3</property>
  <property name="meta.media.1.stream.type">video</property>
  <property name="meta.media.1.stream.frame_rate">50</property>
  <property name="meta.media.1.stream.sample_aspect_ratio">1</property>
  <property name="meta.media.1.codec.width">1920</property>
  <property name="meta.media.1.codec.height">1080</property>
  <property name="meta.media.1.codec.rotate">0</property>
  <property name="meta.media.1.codec.frame_rate">5000</property>
  <property name="meta.media.1.codec.pix_fmt">yuv422p10le</property>
  <property name="meta.media.1.codec.sample_aspect_ratio">0</property>
  <property name="meta.media.1.codec.colorspace">709</property>
  <property name="meta.media.1.codec.name">prores</property>
  <property name="meta.media.1.codec.long_name">ProRes (iCodec Pro)</property>
  <property name="meta.media.1.codec.bit_rate">366955583</property>
  <property name="meta.attr.1.stream.creation_time.markup">2018-12-10T18:27:53.000000Z</property>
  <property name="meta.attr.1.stream.language.markup">eng</property>
  <property name="meta.attr.1.stream.handler_name.markup">Apple Video Media Handler</property>
  <property name="meta.attr.1.stream.encoder.markup">Apple ProRes 422 HQ</property>
  <property name="meta.attr.1.stream.timecode.markup">18:27:53:15</property>
  <property name="meta.media.2.stream.type">audio</property>
  <property name="meta.media.2.codec.sample_fmt">s32</property>
  <property name="meta.media.2.codec.sample_rate">48000</property>
  <property name="meta.media.2.codec.channels">2</property>
  <property name="meta.media.2.codec.name">pcm_s24le</property>
  <property name="meta.media.2.codec.long_name">PCM signed 24-bit little-endian</property>
  <property name="meta.media.2.codec.bit_rate">2304000</property>
  <property name="meta.attr.2.stream.creation_time.markup">2018-12-10T18:27:53.000000Z</property>
  <property name="meta.attr.2.stream.language.markup">eng</property>
  <property name="meta.attr.2.stream.handler_name.markup">Apple Sound Media Handler</property>
  <property name="meta.attr.2.stream.timecode.markup">18:27:53:15</property>
  <property name="meta.attr.com.apple.proapps.manufacturer.markup">Blackmagic Design</property>
  <property name="meta.attr.com.apple.proapps.cameraName.markup">CAM1</property>
  <property name="meta.attr.com.apple.proapps.isGood.markup">0</property>
  <property name="meta.attr.com.apple.proapps.customgamma.markup">com.blackmagic-design.cinemacamera.filmlog</property>
  <property name="meta.attr.com.blackmagic-design.cinemacamera.uuid.markup">18E5E00548F94923B646613A73C01B56</property>
  <property name="meta.attr.creation_time.markup">2018-12-10T18:27:53.000000Z</property>
  <property name="meta.attr.timecode.markup">18:27:53:15</property>
  <property name="seekable">1</property>
  <property name="meta.media.sample_aspect_num">1</property>
  <property name="meta.media.sample_aspect_den">1</property>
  <property name="aspect_ratio">1</property>
  <property name="kdenlive:folderid">15</property>
  <property name="kdenlive:file_size">4384498497</property>
  <property name="kdenlive:file_hash">ae32c687eeaacc4b45c49f0baeccff11</property>
  <property name="global_feed">1</property>
  <property name="meta.media.frame_rate_num">50</property>
  <property name="meta.media.frame_rate_den">1</property>
  <property name="meta.media.colorspace">709</property>
  <property name="meta.media.color_trc">2</property>
  <property name="meta.media.width">1920</property>
  <property name="meta.media.height">1080</property>
  <property name="meta.media.top_field_first">0</property>
  <property name="meta.media.progressive">1</property>
 </producer>
 <producer title="Anonymous Submission" id="12" in="0" out="23600">
  <property name="length">00:07:52:01</property>
  <property name="eof">pause</property>
  <property name="resource">/media/bordun/plagiat/2018-12-10_Plagiat_RespecteLaPuissancePapale/Carte_3/CAM1_2018-12-10_1819_C0001.mov</property>
  <property name="audio_index">2</property>
  <property name="video_index">1</property>
  <property name="mute_on_pause">1</property>
  <property name="mlt_service">avformat-novalidate</property>
  <property name="meta.media.nb_streams">3</property>
  <property name="meta.media.1.stream.type">video</property>
  <property name="meta.media.1.stream.frame_rate">50</property>
  <property name="meta.media.1.stream.sample_aspect_ratio">1</property>
  <property name="meta.media.1.codec.width">1920</property>
  <property name="meta.media.1.codec.height">1080</property>
  <property name="meta.media.1.codec.rotate">0</property>
  <property name="meta.media.1.codec.frame_rate">5000</property>
  <property name="meta.media.1.codec.pix_fmt">yuv422p10le</property>
  <property name="meta.media.1.codec.sample_aspect_ratio">0</property>
  <property name="meta.media.1.codec.colorspace">709</property>
  <property name="meta.media.1.codec.name">prores</property>
  <property name="meta.media.1.codec.long_name">ProRes (iCodec Pro)</property>
  <property name="meta.media.1.codec.bit_rate">366956856</property>
  <property name="meta.attr.1.stream.creation_time.markup">2018-12-10T18:19:34.000000Z</property>
  <property name="meta.attr.1.stream.language.markup">eng</property>
  <property name="meta.attr.1.stream.handler_name.markup">Apple Video Media Handler</property>
  <property name="meta.attr.1.stream.encoder.markup">Apple ProRes 422 HQ</property>
  <property name="meta.attr.1.stream.timecode.markup">18:19:34:45</property>
  <property name="meta.media.2.stream.type">audio</property>
  <property name="meta.media.2.codec.sample_fmt">s32</property>
  <property name="meta.media.2.codec.sample_rate">48000</property>
  <property name="meta.media.2.codec.channels">2</property>
  <property name="meta.media.2.codec.name">pcm_s24le</property>
  <property name="meta.media.2.codec.long_name">PCM signed 24-bit little-endian</property>
  <property name="meta.media.2.codec.bit_rate">2304000</property>
  <property name="meta.attr.2.stream.creation_time.markup">2018-12-10T18:19:34.000000Z</property>
  <property name="meta.attr.2.stream.language.markup">eng</property>
  <property name="meta.attr.2.stream.handler_name.markup">Apple Sound Media Handler</property>
  <property name="meta.attr.2.stream.timecode.markup">18:19:34:45</property>
  <property name="meta.attr.com.apple.proapps.manufacturer.markup">Blackmagic Design</property>
  <property name="meta.attr.com.apple.proapps.cameraName.markup">CAM1</property>
  <property name="meta.attr.com.apple.proapps.isGood.markup">0</property>
  <property name="meta.attr.com.apple.proapps.customgamma.markup">com.blackmagic-design.cinemacamera.filmlog</property>
  <property name="meta.attr.com.blackmagic-design.cinemacamera.uuid.markup">18E5E00548F94923B646613A73C01B56</property>
  <property name="meta.attr.creation_time.markup">2018-12-10T18:19:34.000000Z</property>
  <property name="meta.attr.timecode.markup">18:19:34:45</property>
  <property name="seekable">1</property>
  <property name="meta.media.sample_aspect_num">1</property>
  <property name="meta.media.sample_aspect_den">1</property>
  <property name="aspect_ratio">1</property>
  <property name="kdenlive:folderid">15</property>
  <property name="kdenlive:file_size">21789523729</property>
  <property name="kdenlive:file_hash">3b63588261e8ab0454ca51230a000191</property>
  <property name="global_feed">1</property>
  <property name="meta.media.frame_rate_num">50</property>
  <property name="meta.media.frame_rate_den">1</property>
  <property name="meta.media.colorspace">709</property>
  <property name="meta.media.color_trc">2</property>
  <property name="meta.media.width">1920</property>
  <property name="meta.media.height">1080</property>
  <property name="meta.media.top_field_first">0</property>
  <property name="meta.media.progressive">1</property>
 </producer>
 <producer title="Anonymous Submission" id="27" in="0" out="7640">
  <property name="length">00:02:32:41</property>
  <property name="eof">pause</property>
  <property name="resource">/home/bordun/scp/2018-12-06_RespecteLaPuissancePapale_Clip_part1.wav</property>
  <property name="audio_index">0</property>
  <property name="video_index">-1</property>
  <property name="mute_on_pause">1</property>
  <property name="mlt_service">avformat-novalidate</property>
  <property name="meta.media.nb_streams">1</property>
  <property name="meta.media.0.stream.type">audio</property>
  <property name="meta.media.0.codec.sample_fmt">s16</property>
  <property name="meta.media.0.codec.sample_rate">48000</property>
  <property name="meta.media.0.codec.channels">2</property>
  <property name="meta.media.0.codec.name">pcm_s16le</property>
  <property name="meta.media.0.codec.long_name">PCM signed 16-bit little-endian</property>
  <property name="meta.media.0.codec.bit_rate">1536000</property>
  <property name="seekable">1</property>
  <property name="kdenlive:file_size">29340044</property>
  <property name="kdenlive:file_hash">7d93ed9df433504c583e8f008ae3ee69</property>
  <property name="global_feed">1</property>
 </producer>
 <producer title="Anonymous Submission" id="28" in="0" out="7733">
  <property name="length">00:02:34:34</property>
  <property name="eof">pause</property>
  <property name="resource">/media/bordun/plagiat/Clip02_RespecteLaPuissancePapale/Audio/2018-12-06_RespecteLaPuissancePapale_Clip_part1_OLD.ogg</property>
  <property name="audio_index">0</property>
  <property name="video_index">-1</property>
  <property name="mute_on_pause">1</property>
  <property name="mlt_service">avformat-novalidate</property>
  <property name="meta.media.nb_streams">1</property>
  <property name="meta.media.0.stream.type">audio</property>
  <property name="meta.media.0.codec.sample_fmt">fltp</property>
  <property name="meta.media.0.codec.sample_rate">48000</property>
  <property name="meta.media.0.codec.channels">2</property>
  <property name="meta.media.0.codec.name">vorbis</property>
  <property name="meta.media.0.codec.long_name">Vorbis</property>
  <property name="meta.media.0.codec.bit_rate">128000</property>
  <property name="meta.attr.0.stream.disc.markup">0</property>
  <property name="meta.attr.0.stream.ENCODER.markup">libsndfile</property>
  <property name="seekable">1</property>
  <property name="kdenlive:file_size">2263496</property>
  <property name="kdenlive:file_hash">1137434253767f92924bc94a8dcad7c3</property>
  <property name="global_feed">1</property>
 </producer>
 <producer title="Anonymous Submission" id="29" in="0" out="2683">
  <property name="length">2684</property>
  <property name="eof">pause</property>
  <property name="resource">0xffffffff</property>
  <property name="aspect_ratio">1</property>
  <property name="mlt_service">color</property>
  <property name="kdenlive:clipname">Clip couleur</property>
  <property name="kdenlive:folderid">16</property>
  <property name="kdenlive:duration">250</property>
  <property name="kdenlive:file_hash">039b56a692cd66eefeea44a17539e5a2</property>
  <property name="global_feed">1</property>
 </producer>
 <producer id="30" in="0" out="2009">
  <property name="length">2010</property>
  <property name="eof">pause</property>
  <property name="resource">0x000000ff</property>
  <property name="aspect_ratio">1</property>
  <property name="mlt_service">color</property>
  <property name="kdenlive:clipname">Clip couleur</property>
  <property name="kdenlive:folderid">16</property>
  <property name="kdenlive:duration">250</property>
  <property name="kdenlive:file_hash">9196813120dc5c505072516b15baf414</property>
 </producer>
 <producer title="Anonymous Submission" id="32" in="0" out="252">
  <property name="length">00:00:05:03</property>
  <property name="eof">pause</property>
  <property name="resource">/media/bordun/plagiat/Clip02_RespecteLaPuissancePapale/Logos/logo_smp.mp4</property>
  <property name="audio_index">1</property>
  <property name="video_index">0</property>
  <property name="mute_on_pause">1</property>
  <property name="mlt_service">avformat-novalidate</property>
  <property name="meta.media.nb_streams">2</property>
  <property name="meta.media.0.stream.type">video</property>
  <property name="meta.media.0.stream.frame_rate">50</property>
  <property name="meta.media.0.stream.sample_aspect_ratio">1</property>
  <property name="meta.media.0.codec.width">1920</property>
  <property name="meta.media.0.codec.height">1080</property>
  <property name="meta.media.0.codec.rotate">0</property>
  <property name="meta.media.0.codec.frame_rate">50</property>
  <property name="meta.media.0.codec.pix_fmt">yuv420p</property>
  <property name="meta.media.0.codec.sample_aspect_ratio">1</property>
  <property name="meta.media.0.codec.colorspace">709</property>
  <property name="meta.media.0.codec.color_trc">1</property>
  <property name="meta.media.0.codec.name">h264</property>
  <property name="meta.media.0.codec.long_name">H.264 / AVC / MPEG-4 AVC / MPEG-4 part 10</property>
  <property name="meta.media.0.codec.bit_rate">405751</property>
  <property name="meta.attr.0.stream.handler_name.markup">VideoHandler</property>
  <property name="meta.media.1.stream.type">audio</property>
  <property name="meta.media.1.codec.sample_fmt">fltp</property>
  <property name="meta.media.1.codec.sample_rate">48000</property>
  <property name="meta.media.1.codec.channels">2</property>
  <property name="meta.media.1.codec.name">aac</property>
  <property name="meta.media.1.codec.long_name">AAC (Advanced Audio Coding)</property>
  <property name="meta.media.1.codec.bit_rate">2276</property>
  <property name="meta.attr.1.stream.handler_name.markup">SoundHandler</property>
  <property name="meta.attr.major_brand.markup">isom</property>
  <property name="meta.attr.minor_version.markup">512</property>
  <property name="meta.attr.compatible_brands.markup">isomiso2avc1mp41</property>
  <property name="meta.attr.encoder.markup">Lavf58.20.100</property>
  <property name="seekable">1</property>
  <property name="meta.media.sample_aspect_num">1</property>
  <property name="meta.media.sample_aspect_den">1</property>
  <property name="aspect_ratio">1</property>
  <property name="kdenlive:folderid">17</property>
  <property name="meta.media.frame_rate_num">50</property>
  <property name="meta.media.frame_rate_den">1</property>
  <property name="meta.media.colorspace">709</property>
  <property name="meta.media.color_trc">1</property>
  <property name="meta.media.width">1920</property>
  <property name="meta.media.height">1080</property>
  <property name="meta.media.top_field_first">0</property>
  <property name="meta.media.progressive">1</property>
  <property name="kdenlive:file_size">263656</property>
  <property name="kdenlive:file_hash">257a971594b4c9b39d9abda2cbdcb5e3</property>
  <property name="global_feed">1</property>
 </producer>
 <producer title="Anonymous Submission" id="33" in="0" out="252">
  <property name="length">00:00:05:03</property>
  <property name="eof">pause</property>
  <property name="resource">/media/bordun/plagiat/Clip02_RespecteLaPuissancePapale/Logos/logo_ammd.mp4</property>
  <property name="audio_index">1</property>
  <property name="video_index">0</property>
  <property name="mute_on_pause">1</property>
  <property name="mlt_service">avformat-novalidate</property>
  <property name="meta.media.nb_streams">2</property>
  <property name="meta.media.0.stream.type">video</property>
  <property name="meta.media.0.stream.frame_rate">50</property>
  <property name="meta.media.0.stream.sample_aspect_ratio">1</property>
  <property name="meta.media.0.codec.width">1920</property>
  <property name="meta.media.0.codec.height">1080</property>
  <property name="meta.media.0.codec.rotate">0</property>
  <property name="meta.media.0.codec.frame_rate">50</property>
  <property name="meta.media.0.codec.pix_fmt">yuv420p</property>
  <property name="meta.media.0.codec.sample_aspect_ratio">1</property>
  <property name="meta.media.0.codec.colorspace">709</property>
  <property name="meta.media.0.codec.color_trc">1</property>
  <property name="meta.media.0.codec.name">h264</property>
  <property name="meta.media.0.codec.long_name">H.264 / AVC / MPEG-4 AVC / MPEG-4 part 10</property>
  <property name="meta.media.0.codec.bit_rate">818328</property>
  <property name="meta.attr.0.stream.handler_name.markup">VideoHandler</property>
  <property name="meta.media.1.stream.type">audio</property>
  <property name="meta.media.1.codec.sample_fmt">fltp</property>
  <property name="meta.media.1.codec.sample_rate">48000</property>
  <property name="meta.media.1.codec.channels">2</property>
  <property name="meta.media.1.codec.name">aac</property>
  <property name="meta.media.1.codec.long_name">AAC (Advanced Audio Coding)</property>
  <property name="meta.media.1.codec.bit_rate">2276</property>
  <property name="meta.attr.1.stream.handler_name.markup">SoundHandler</property>
  <property name="meta.attr.major_brand.markup">isom</property>
  <property name="meta.attr.minor_version.markup">512</property>
  <property name="meta.attr.compatible_brands.markup">isomiso2avc1mp41</property>
  <property name="meta.attr.encoder.markup">Lavf58.20.100</property>
  <property name="seekable">1</property>
  <property name="meta.media.sample_aspect_num">1</property>
  <property name="meta.media.sample_aspect_den">1</property>
  <property name="aspect_ratio">1</property>
  <property name="kdenlive:folderid">17</property>
  <property name="meta.media.frame_rate_num">50</property>
  <property name="meta.media.frame_rate_den">1</property>
  <property name="meta.media.colorspace">709</property>
  <property name="meta.media.color_trc">1</property>
  <property name="meta.media.width">1920</property>
  <property name="meta.media.height">1080</property>
  <property name="meta.media.top_field_first">0</property>
  <property name="meta.media.progressive">1</property>
  <property name="kdenlive:file_size">522548</property>
  <property name="kdenlive:file_hash">7e248ce4ffc891ed5e9c0ac7814b383e</property>
  <property name="global_feed">1</property>
 </producer>
 <producer title="Anonymous Submission" id="34" in="0" out="252">
  <property name="length">00:00:05:03</property>
  <property name="eof">pause</property>
  <property name="resource">/media/bordun/plagiat/Clip02_RespecteLaPuissancePapale/Logos/logo_2d.mp4</property>
  <property name="audio_index">1</property>
  <property name="video_index">0</property>
  <property name="mute_on_pause">1</property>
  <property name="mlt_service">avformat-novalidate</property>
  <property name="meta.media.nb_streams">1</property>
  <property name="meta.media.0.stream.type">video</property>
  <property name="meta.media.0.stream.frame_rate">50</property>
  <property name="meta.media.0.stream.sample_aspect_ratio">1</property>
  <property name="meta.media.0.codec.width">1920</property>
  <property name="meta.media.0.codec.height">1080</property>
  <property name="meta.media.0.codec.rotate">0</property>
  <property name="meta.media.0.codec.frame_rate">50</property>
  <property name="meta.media.0.codec.pix_fmt">yuv420p</property>
  <property name="meta.media.0.codec.sample_aspect_ratio">1</property>
  <property name="meta.media.0.codec.colorspace">709</property>
  <property name="meta.media.0.codec.color_trc">1</property>
  <property name="meta.media.0.codec.name">h264</property>
  <property name="meta.media.0.codec.long_name">H.264 / AVC / MPEG-4 AVC / MPEG-4 part 10</property>
  <property name="meta.media.0.codec.bit_rate">121858</property>
  <property name="meta.attr.0.stream.handler_name.markup">VideoHandler</property>
  <property name="meta.media.1.stream.type">audio</property>
  <property name="meta.media.1.codec.sample_fmt">fltp</property>
  <property name="meta.media.1.codec.sample_rate">48000</property>
  <property name="meta.media.1.codec.channels">2</property>
  <property name="meta.media.1.codec.name">aac</property>
  <property name="meta.media.1.codec.long_name">AAC (Advanced Audio Coding)</property>
  <property name="meta.media.1.codec.bit_rate">2276</property>
  <property name="meta.attr.1.stream.handler_name.markup">SoundHandler</property>
  <property name="meta.attr.major_brand.markup">isom</property>
  <property name="meta.attr.minor_version.markup">512</property>
  <property name="meta.attr.compatible_brands.markup">isomiso2avc1mp41</property>
  <property name="meta.attr.encoder.markup">Lavf58.20.100</property>
  <property name="seekable">1</property>
  <property name="meta.media.sample_aspect_num">1</property>
  <property name="meta.media.sample_aspect_den">1</property>
  <property name="aspect_ratio">1</property>
  <property name="kdenlive:folderid">17</property>
  <property name="meta.media.frame_rate_num">50</property>
  <property name="meta.media.frame_rate_den">1</property>
  <property name="meta.media.colorspace">709</property>
  <property name="meta.media.color_trc">1</property>
  <property name="meta.media.width">1920</property>
  <property name="meta.media.height">1080</property>
  <property name="meta.media.top_field_first">0</property>
  <property name="meta.media.progressive">1</property>
  <property name="kdenlive:file_size">279633</property>
  <property name="kdenlive:file_hash">091cdaa080da0e61c5520ca7b8771eb2</property>
  <property name="global_feed">1</property>
 </producer>
 <producer title="Anonymous Submission" id="36" in="0" out="250">
  <property name="length">00:00:05:01</property>
  <property name="eof">pause</property>
  <property name="resource">/media/bordun/plagiat/Clip02_RespecteLaPuissancePapale/Logos/logo_plagiat.mp4</property>
  <property name="audio_index">-1</property>
  <property name="video_index">0</property>
  <property name="mute_on_pause">1</property>
  <property name="mlt_service">avformat-novalidate</property>
  <property name="meta.media.nb_streams">1</property>
  <property name="meta.media.0.stream.type">video</property>
  <property name="meta.media.0.stream.frame_rate">50</property>
  <property name="meta.media.0.stream.sample_aspect_ratio">1</property>
  <property name="meta.media.0.codec.width">1920</property>
  <property name="meta.media.0.codec.height">1080</property>
  <property name="meta.media.0.codec.rotate">0</property>
  <property name="meta.media.0.codec.frame_rate">50</property>
  <property name="meta.media.0.codec.pix_fmt">yuv420p</property>
  <property name="meta.media.0.codec.sample_aspect_ratio">1</property>
  <property name="meta.media.0.codec.colorspace">709</property>
  <property name="meta.media.0.codec.color_trc">1</property>
  <property name="meta.media.0.codec.name">h264</property>
  <property name="meta.media.0.codec.long_name">H.264 / AVC / MPEG-4 AVC / MPEG-4 part 10</property>
  <property name="meta.media.0.codec.bit_rate">450393</property>
  <property name="meta.attr.0.stream.handler_name.markup">VideoHandler</property>
  <property name="meta.attr.major_brand.markup">isom</property>
  <property name="meta.attr.minor_version.markup">512</property>
  <property name="meta.attr.compatible_brands.markup">isomiso2avc1mp41</property>
  <property name="meta.attr.encoder.markup">Lavf58.20.100</property>
  <property name="seekable">1</property>
  <property name="meta.media.sample_aspect_num">1</property>
  <property name="meta.media.sample_aspect_den">1</property>
  <property name="aspect_ratio">1</property>
  <property name="kdenlive:folderid">17</property>
  <property name="kdenlive:file_size">286465</property>
  <property name="kdenlive:file_hash">ccf8a4849ff202c6f5aecee3ce42f74d</property>
  <property name="global_feed">1</property>
  <property name="meta.media.frame_rate_num">50</property>
  <property name="meta.media.frame_rate_den">1</property>
  <property name="meta.media.colorspace">709</property>
  <property name="meta.media.color_trc">1</property>
  <property name="meta.media.width">1920</property>
  <property name="meta.media.height">1080</property>
  <property name="meta.media.top_field_first">0</property>
  <property name="meta.media.progressive">1</property>
 </producer>
 <producer title="Anonymous Submission" id="37" in="0" out="44957">
  <property name="length">00:14:59:08</property>
  <property name="eof">pause</property>
  <property name="resource">/media/bordun/plagiat/Clip02_RespecteLaPuissancePapale/Audio/Best Epic Classical Music - Choir.mp3</property>
  <property name="audio_index">0</property>
  <property name="video_index">-1</property>
  <property name="mute_on_pause">1</property>
  <property name="mlt_service">avformat-novalidate</property>
  <property name="meta.media.nb_streams">1</property>
  <property name="meta.media.0.stream.type">audio</property>
  <property name="meta.media.0.codec.sample_fmt">fltp</property>
  <property name="meta.media.0.codec.sample_rate">44100</property>
  <property name="meta.media.0.codec.channels">2</property>
  <property name="meta.media.0.codec.name">mp3float</property>
  <property name="meta.media.0.codec.long_name">MP3 (MPEG audio layer 3)</property>
  <property name="meta.media.0.codec.bit_rate">128000</property>
  <property name="meta.attr.0.stream.encoder.markup">Lavc57.64</property>
  <property name="meta.attr.major_brand.markup">mp42</property>
  <property name="meta.attr.minor_version.markup">0</property>
  <property name="meta.attr.compatible_brands.markup">isommp42</property>
  <property name="meta.attr.encoder.markup">Lavf57.56.100</property>
  <property name="seekable">1</property>
  <property name="kdenlive:file_size">14387128</property>
  <property name="kdenlive:file_hash">ca245b7d49dd4565addcb92a32f61a20</property>
  <property name="global_feed">1</property>
 </producer>
 <producer title="Anonymous Submission" id="38" in="0" out="250">
  <property name="length">00:00:05:01</property>
  <property name="eof">pause</property>
  <property name="resource">/media/bordun/plagiat/Clip02_RespecteLaPuissancePapale/Logos/logo_vod.mp4</property>
  <property name="audio_index">-1</property>
  <property name="video_index">0</property>
  <property name="mute_on_pause">1</property>
  <property name="mlt_service">avformat-novalidate</property>
  <property name="meta.media.nb_streams">1</property>
  <property name="meta.media.0.stream.type">video</property>
  <property name="meta.media.0.stream.frame_rate">50</property>
  <property name="meta.media.0.stream.sample_aspect_ratio">1</property>
  <property name="meta.media.0.codec.width">1920</property>
  <property name="meta.media.0.codec.height">1080</property>
  <property name="meta.media.0.codec.rotate">0</property>
  <property name="meta.media.0.codec.frame_rate">50</property>
  <property name="meta.media.0.codec.pix_fmt">yuv420p</property>
  <property name="meta.media.0.codec.sample_aspect_ratio">1</property>
  <property name="meta.media.0.codec.colorspace">709</property>
  <property name="meta.media.0.codec.color_trc">1</property>
  <property name="meta.media.0.codec.name">h264</property>
  <property name="meta.media.0.codec.long_name">H.264 / AVC / MPEG-4 AVC / MPEG-4 part 10</property>
  <property name="meta.media.0.codec.bit_rate">312937</property>
  <property name="meta.attr.0.stream.handler_name.markup">VideoHandler</property>
  <property name="meta.attr.major_brand.markup">isom</property>
  <property name="meta.attr.minor_version.markup">512</property>
  <property name="meta.attr.compatible_brands.markup">isomiso2avc1mp41</property>
  <property name="meta.attr.encoder.markup">Lavf58.20.100</property>
  <property name="seekable">1</property>
  <property name="meta.media.sample_aspect_num">1</property>
  <property name="meta.media.sample_aspect_den">1</property>
  <property name="aspect_ratio">1</property>
  <property name="kdenlive:folderid">17</property>
  <property name="meta.media.frame_rate_num">50</property>
  <property name="meta.media.frame_rate_den">1</property>
  <property name="meta.media.colorspace">709</property>
  <property name="meta.media.color_trc">1</property>
  <property name="meta.media.width">1920</property>
  <property name="meta.media.height">1080</property>
  <property name="meta.media.top_field_first">0</property>
  <property name="meta.media.progressive">1</property>
  <property name="kdenlive:file_size">200219</property>
  <property name="kdenlive:file_hash">332846a165451d3a9b809d12eaca15fc</property>
  <property name="global_feed">1</property>
 </producer>
 <producer title="Anonymous Submission" id="39" in="0" out="250">
  <property name="length">00:00:05:01</property>
  <property name="eof">pause</property>
  <property name="resource">/media/bordun/plagiat/Clip02_RespecteLaPuissancePapale/Logos/logo_present.mp4</property>
  <property name="audio_index">-1</property>
  <property name="video_index">0</property>
  <property name="mute_on_pause">1</property>
  <property name="mlt_service">avformat-novalidate</property>
  <property name="meta.media.nb_streams">1</property>
  <property name="meta.media.0.stream.type">video</property>
  <property name="meta.media.0.stream.frame_rate">50</property>
  <property name="meta.media.0.stream.sample_aspect_ratio">1</property>
  <property name="meta.media.0.codec.width">1920</property>
  <property name="meta.media.0.codec.height">1080</property>
  <property name="meta.media.0.codec.rotate">0</property>
  <property name="meta.media.0.codec.frame_rate">50</property>
  <property name="meta.media.0.codec.pix_fmt">yuv420p</property>
  <property name="meta.media.0.codec.sample_aspect_ratio">1</property>
  <property name="meta.media.0.codec.colorspace">709</property>
  <property name="meta.media.0.codec.color_trc">1</property>
  <property name="meta.media.0.codec.name">h264</property>
  <property name="meta.media.0.codec.long_name">H.264 / AVC / MPEG-4 AVC / MPEG-4 part 10</property>
  <property name="meta.media.0.codec.bit_rate">147459</property>
  <property name="meta.attr.0.stream.handler_name.markup">VideoHandler</property>
  <property name="meta.attr.major_brand.markup">isom</property>
  <property name="meta.attr.minor_version.markup">512</property>
  <property name="meta.attr.compatible_brands.markup">isomiso2avc1mp41</property>
  <property name="meta.attr.encoder.markup">Lavf58.20.100</property>
  <property name="seekable">1</property>
  <property name="meta.media.sample_aspect_num">1</property>
  <property name="meta.media.sample_aspect_den">1</property>
  <property name="aspect_ratio">1</property>
  <property name="kdenlive:folderid">17</property>
  <property name="meta.media.frame_rate_num">50</property>
  <property name="meta.media.frame_rate_den">1</property>
  <property name="meta.media.colorspace">709</property>
  <property name="meta.media.color_trc">1</property>
  <property name="meta.media.width">1920</property>
  <property name="meta.media.height">1080</property>
  <property name="meta.media.top_field_first">0</property>
  <property name="meta.media.progressive">1</property>
  <property name="kdenlive:file_size">96390</property>
  <property name="kdenlive:file_hash">f293befcf5bbbbda8a6815054cfc4104</property>
  <property name="global_feed">1</property>
 </producer>
 <producer title="Anonymous Submission" id="40" in="0" out="18113">
  <property name="length">00:06:02:14</property>
  <property name="eof">pause</property>
  <property name="resource">/media/bordun/plagiat/Clip02_RespecteLaPuissancePapale/Audio/Handel_-_Zadok_the_Priest.ogg</property>
  <property name="audio_index">0</property>
  <property name="video_index">-1</property>
  <property name="mute_on_pause">1</property>
  <property name="mlt_service">avformat-novalidate</property>
  <property name="meta.media.nb_streams">1</property>
  <property name="meta.media.0.stream.type">audio</property>
  <property name="meta.media.0.codec.sample_fmt">fltp</property>
  <property name="meta.media.0.codec.sample_rate">44100</property>
  <property name="meta.media.0.codec.channels">2</property>
  <property name="meta.media.0.codec.name">vorbis</property>
  <property name="meta.media.0.codec.long_name">Vorbis</property>
  <property name="meta.media.0.codec.bit_rate">128000</property>
  <property name="meta.attr.0.stream.TITLE.markup">Queen Elizabeth II Diamond Jubilee Coronation Concert</property>
  <property name="meta.attr.0.stream.LICENSE.markup">http://creativecommons.org/licenses/by/3.0/</property>
  <property name="meta.attr.0.stream.DATE.markup">2013-06-02</property>
  <property name="meta.attr.0.stream.LOCATION.markup">http://archive.org/details/QueenElizabethIIDiamondJubileeCoronationConcert</property>
  <property name="meta.attr.0.stream.ENCODER.markup">Lavf54.49.102</property>
  <property name="seekable">1</property>
  <property name="kdenlive:file_size">5219803</property>
  <property name="kdenlive:file_hash">0de5c110393fd39b4439bd3db0e90d63</property>
  <property name="global_feed">1</property>
 </producer>
 <producer title="Anonymous Submission" id="41" in="0" out="497">
  <property name="length">00:00:09:48</property>
  <property name="eof">pause</property>
  <property name="resource">/media/bordun/plagiat/Clip02_RespecteLaPuissancePapale/Audio/Slow_HeartBeat-Mike_Koenig-1853475164.wav</property>
  <property name="audio_index">0</property>
  <property name="video_index">-1</property>
  <property name="mute_on_pause">1</property>
  <property name="mlt_service">avformat-novalidate</property>
  <property name="meta.media.nb_streams">1</property>
  <property name="meta.media.0.stream.type">audio</property>
  <property name="meta.media.0.codec.sample_fmt">s16</property>
  <property name="meta.media.0.codec.sample_rate">44100</property>
  <property name="meta.media.0.codec.channels">2</property>
  <property name="meta.media.0.codec.name">pcm_s16le</property>
  <property name="meta.media.0.codec.long_name">PCM signed 16-bit little-endian</property>
  <property name="meta.media.0.codec.bit_rate">1411200</property>
  <property name="meta.attr.artist.markup">Mike Koenig</property>
  <property name="meta.attr.title.markup">Slow HeartBeat</property>
  <property name="seekable">1</property>
  <property name="kdenlive:file_size">1758560</property>
  <property name="kdenlive:file_hash">3dd7131bb30ff6012c9716429df176ee</property>
  <property name="global_feed">1</property>
 </producer>
 <producer title="Anonymous Submission" id="43" in="0" out="449">
  <property name="length">450</property>
  <property name="eof">pause</property>
  <property name="resource"/>
  <property name="progressive">1</property>
  <property name="aspect_ratio">1</property>
  <property name="seekable">1</property>
  <property name="mlt_service">kdenlivetitle</property>
  <property name="kdenlive:clipname">RLPP</property>
  <property name="kdenlive:folderid">17</property>
  <property name="xmldata">&lt;kdenlivetitle duration="250" LC_NUMERIC="fr_FR.UTF-8" width="1920" height="1080" out="250">
 &lt;item type="QGraphicsTextItem" z-index="0">
  &lt;position x="555" y="517">
   &lt;transform>1,0,0,0,1,0,0,0,1&lt;/transform>
  &lt;/position>
  &lt;content line-spacing="0" shadow="0;#64000000;3;3;3" font-underline="0" box-height="46" font-outline-color="211,215,207,255" font="Geometos" letter-spacing="0" font-pixel-size="45" font-italic="0" alignment="1" font-weight="25" font-outline="0" box-width="810.625" font-color="255,255,255,255">RESPECTE LA PUISSANCE PAPALE&lt;/content>
 &lt;/item>
 &lt;startviewport rect="0,0,1920,1080"/>
 &lt;endviewport rect="0,0,1920,1080"/>
 &lt;background color="0,0,0,0"/>
&lt;/kdenlivetitle>
</property>
  <property name="kdenlive:duration">250</property>
  <property name="force_reload">0</property>
  <property name="meta.media.width">1920</property>
  <property name="meta.media.height">1080</property>
  <property name="kdenlive:file_hash">58b42ac9a069defb79247a9b65466095</property>
  <property name="global_feed">1</property>
 </producer>
 <producer title="Anonymous Submission" id="44" in="0" out="449">
  <property name="length">450</property>
  <property name="eof">pause</property>
  <property name="resource"/>
  <property name="progressive">1</property>
  <property name="aspect_ratio">1</property>
  <property name="seekable">1</property>
  <property name="mlt_service">kdenlivetitle</property>
  <property name="kdenlive:clipname">Missy</property>
  <property name="kdenlive:folderid">17</property>
  <property name="xmldata">&lt;kdenlivetitle duration="250" LC_NUMERIC="fr_FR.UTF-8" width="1920" height="1080" out="250">
 &lt;item type="QGraphicsTextItem" z-index="1">
  &lt;position x="886" y="517">
   &lt;transform>1,0,0,0,1,0,0,0,1&lt;/transform>
  &lt;/position>
  &lt;content line-spacing="0" shadow="0;#64000000;3;3;3" font-underline="0" box-height="46" font-outline-color="211,215,207,255" font="Geometos" letter-spacing="0" font-pixel-size="45" font-italic="0" alignment="1" font-weight="25" font-outline="0" box-width="148.781" font-color="255,255,255,255">MI$$Y&lt;/content>
 &lt;/item>
 &lt;startviewport rect="0,0,1920,1080"/>
 &lt;endviewport rect="0,0,1920,1080"/>
 &lt;background color="0,0,0,0"/>
&lt;/kdenlivetitle>
</property>
  <property name="kdenlive:duration">250</property>
  <property name="force_reload">0</property>
  <property name="meta.media.width">1920</property>
  <property name="meta.media.height">1080</property>
  <property name="kdenlive:file_hash">828132427efe0643677dc7fa55e49b1c</property>
  <property name="global_feed">1</property>
 </producer>
 <producer title="Anonymous Submission" id="45" in="0" out="449">
  <property name="length">450</property>
  <property name="eof">pause</property>
  <property name="resource"/>
  <property name="progressive">1</property>
  <property name="aspect_ratio">1</property>
  <property name="seekable">1</property>
  <property name="mlt_service">kdenlivetitle</property>
  <property name="kdenlive:clipname">LordO</property>
  <property name="kdenlive:folderid">17</property>
  <property name="xmldata">&lt;kdenlivetitle duration="250" LC_NUMERIC="fr_FR.UTF-8" width="1920" height="1080" out="250">
 &lt;item type="QGraphicsTextItem" z-index="1">
  &lt;position x="870" y="517">
   &lt;transform>1,0,0,0,1,0,0,0,1&lt;/transform>
  &lt;/position>
  &lt;content line-spacing="0" shadow="0;#ff14c6ff;5;0;0" font-underline="0" box-height="46" font-outline-color="0,0,0,255" font="Geometos" letter-spacing="0" font-pixel-size="45" font-italic="0" alignment="1" font-weight="25" font-outline="0" box-width="180.047" font-color="255,255,255,255">LORD'O&lt;/content>
 &lt;/item>
 &lt;startviewport rect="0,0,1920,1080"/>
 &lt;endviewport rect="0,0,1920,1080"/>
 &lt;background color="0,0,0,0"/>
&lt;/kdenlivetitle>
</property>
  <property name="kdenlive:duration">250</property>
  <property name="force_reload">0</property>
  <property name="kdenlive:file_hash">36bacc445d102761ed611c4d94c0564e</property>
  <property name="global_feed">1</property>
  <property name="meta.media.width">1920</property>
  <property name="meta.media.height">1080</property>
 </producer>
 <producer id="46" in="0" out="449">
  <property name="length">450</property>
  <property name="eof">pause</property>
  <property name="resource">0x000000ff</property>
  <property name="aspect_ratio">1</property>
  <property name="mlt_service">color</property>
  <property name="kdenlive:clipname">Clip couleur</property>
  <property name="kdenlive:folderid">17</property>
  <property name="kdenlive:duration">250</property>
  <property name="kdenlive:file_hash">9196813120dc5c505072516b15baf414</property>
 </producer>
 <producer title="Anonymous Submission" id="48" in="0" out="43907">
  <property name="length">00:14:38:08</property>
  <property name="eof">pause</property>
  <property name="resource">/media/bordun/plagiat2/CAM1_2019-01-05_0407_C0000.mov</property>
  <property name="audio_index">2</property>
  <property name="video_index">1</property>
  <property name="mute_on_pause">1</property>
  <property name="mlt_service">avformat-novalidate</property>
  <property name="meta.media.nb_streams">3</property>
  <property name="meta.media.1.stream.type">video</property>
  <property name="meta.media.1.stream.frame_rate">50</property>
  <property name="meta.media.1.stream.sample_aspect_ratio">1</property>
  <property name="meta.media.1.codec.width">1920</property>
  <property name="meta.media.1.codec.height">1080</property>
  <property name="meta.media.1.codec.rotate">0</property>
  <property name="meta.media.1.codec.frame_rate">5000</property>
  <property name="meta.media.1.codec.pix_fmt">yuv422p10le</property>
  <property name="meta.media.1.codec.sample_aspect_ratio">0</property>
  <property name="meta.media.1.codec.colorspace">709</property>
  <property name="meta.media.1.codec.color_trc">1</property>
  <property name="meta.media.1.codec.name">prores</property>
  <property name="meta.media.1.codec.long_name">ProRes</property>
  <property name="meta.media.1.codec.bit_rate">366957037</property>
  <property name="meta.attr.1.stream.creation_time.markup">2019-01-05T04:07:04.000000Z</property>
  <property name="meta.attr.1.stream.language.markup">eng</property>
  <property name="meta.attr.1.stream.handler_name.markup">Apple Alias Data Handler</property>
  <property name="meta.attr.1.stream.encoder.markup">Apple ProRes 422 HQ</property>
  <property name="meta.attr.1.stream.timecode.markup">04:07:04:29</property>
  <property name="meta.media.2.stream.type">audio</property>
  <property name="meta.media.2.codec.sample_fmt">s32</property>
  <property name="meta.media.2.codec.sample_rate">48000</property>
  <property name="meta.media.2.codec.channels">2</property>
  <property name="meta.media.2.codec.name">pcm_s24le</property>
  <property name="meta.media.2.codec.long_name">PCM signed 24-bit little-endian</property>
  <property name="meta.media.2.codec.bit_rate">2304000</property>
  <property name="meta.attr.2.stream.creation_time.markup">2019-01-05T04:07:04.000000Z</property>
  <property name="meta.attr.2.stream.language.markup">eng</property>
  <property name="meta.attr.2.stream.handler_name.markup">Apple Alias Data Handler</property>
  <property name="meta.attr.2.stream.timecode.markup">04:07:04:29</property>
  <property name="meta.attr.com.apple.proapps.manufacturer.markup">Blackmagic Design</property>
  <property name="meta.attr.com.apple.proapps.cameraName.markup">CAM1</property>
  <property name="meta.attr.com.apple.proapps.isGood.markup">0</property>
  <property name="meta.attr.com.apple.proapps.customgamma.markup">com.blackmagic-design.cinemacamera.filmlog</property>
  <property name="meta.attr.com.blackmagic-design.cinemacamera.uuid.markup">18E5E00548F94923B646613A73C01B56</property>
  <property name="meta.attr.creation_time.markup">2019-01-05T04:07:04.000000Z</property>
  <property name="meta.attr.timecode.markup">04:07:04:29</property>
  <property name="seekable">1</property>
  <property name="meta.media.sample_aspect_num">1</property>
  <property name="meta.media.sample_aspect_den">1</property>
  <property name="aspect_ratio">1</property>
  <property name="kdenlive:folderid">18</property>
  <property name="meta.media.frame_rate_num">50</property>
  <property name="meta.media.frame_rate_den">1</property>
  <property name="meta.media.colorspace">709</property>
  <property name="meta.media.color_trc">1</property>
  <property name="meta.media.width">1920</property>
  <property name="meta.media.height">1080</property>
  <property name="meta.media.top_field_first">0</property>
  <property name="meta.media.progressive">1</property>
  <property name="kdenlive:file_size">40537867713</property>
  <property name="kdenlive:file_hash">eeb49a6f6e2626b129e2046ec649a60c</property>
  <property name="global_feed">1</property>
  <property name="kdenlive:zone_in">7228</property>
  <property name="kdenlive:zone_out">7355</property>
  <filter id="filter9">
   <property name="version">0,1</property>
   <property name="mlt_service">frei0r.colgate</property>
   <property name="kdenlive_id">frei0r.colgate</property>
   <property name="tag">frei0r.colgate</property>
   <property name="kdenlive_ix">1</property>
   <property name="kdenlive_info"/>
   <property name="Neutral Color">0x7f7f7fff</property>
   <property name="Color Temperature">0=0,466667</property>
   <property name="disable">0</property>
  </filter>
  <filter id="filter10">
   <property name="version">0,3</property>
   <property name="mlt_service">frei0r.levels</property>
   <property name="kdenlive_id">frei0r.levels</property>
   <property name="tag">frei0r.levels</property>
   <property name="kdenlive_ix">2</property>
   <property name="kdenlive_info"/>
   <property name="Channel">0,3</property>
   <property name="Input black level">0=0</property>
   <property name="Input white level">0=1</property>
   <property name="Gamma">0=0,2</property>
   <property name="Black output">0=0</property>
   <property name="White output">0=0,9</property>
   <property name="Show histogram">0</property>
   <property name="Histogram position">0,3</property>
   <property name="disable">1</property>
  </filter>
 </producer>
 <producer id="49" in="0" out="3983">
  <property name="length">00:01:19:34</property>
  <property name="eof">pause</property>
  <property name="resource">/media/bordun/plagiat2/CAM1_2019-01-05_0918_C0009.mov</property>
  <property name="audio_index">2</property>
  <property name="video_index">1</property>
  <property name="mute_on_pause">1</property>
  <property name="mlt_service">avformat-novalidate</property>
  <property name="meta.media.nb_streams">3</property>
  <property name="meta.media.1.stream.type">video</property>
  <property name="meta.media.1.stream.frame_rate">25</property>
  <property name="meta.media.1.stream.sample_aspect_ratio">1</property>
  <property name="meta.media.1.codec.width">1920</property>
  <property name="meta.media.1.codec.height">1080</property>
  <property name="meta.media.1.codec.rotate">0</property>
  <property name="meta.media.1.codec.frame_rate">2500</property>
  <property name="meta.media.1.codec.pix_fmt">yuv422p10le</property>
  <property name="meta.media.1.codec.sample_aspect_ratio">0</property>
  <property name="meta.media.1.codec.colorspace">709</property>
  <property name="meta.media.1.codec.color_trc">1</property>
  <property name="meta.media.1.codec.name">prores</property>
  <property name="meta.media.1.codec.long_name">ProRes</property>
  <property name="meta.media.1.codec.bit_rate">122316581</property>
  <property name="meta.attr.1.stream.creation_time.markup">2019-01-05T09:18:25.000000Z</property>
  <property name="meta.attr.1.stream.language.markup">eng</property>
  <property name="meta.attr.1.stream.handler_name.markup">Apple Alias Data Handler</property>
  <property name="meta.attr.1.stream.encoder.markup">Apple ProRes 422</property>
  <property name="meta.attr.1.stream.timecode.markup">09:18:25:03</property>
  <property name="meta.media.2.stream.type">audio</property>
  <property name="meta.media.2.codec.sample_fmt">s32</property>
  <property name="meta.media.2.codec.sample_rate">48000</property>
  <property name="meta.media.2.codec.channels">2</property>
  <property name="meta.media.2.codec.name">pcm_s24le</property>
  <property name="meta.media.2.codec.long_name">PCM signed 24-bit little-endian</property>
  <property name="meta.media.2.codec.bit_rate">2304000</property>
  <property name="meta.attr.2.stream.creation_time.markup">2019-01-05T09:18:25.000000Z</property>
  <property name="meta.attr.2.stream.language.markup">eng</property>
  <property name="meta.attr.2.stream.handler_name.markup">Apple Alias Data Handler</property>
  <property name="meta.attr.2.stream.timecode.markup">09:18:25:03</property>
  <property name="meta.attr.com.apple.proapps.manufacturer.markup">Blackmagic Design</property>
  <property name="meta.attr.com.apple.proapps.cameraName.markup">CAM1</property>
  <property name="meta.attr.com.apple.proapps.isGood.markup">0</property>
  <property name="meta.attr.com.apple.proapps.customgamma.markup">com.blackmagic-design.cinemacamera.filmlog</property>
  <property name="meta.attr.com.blackmagic-design.cinemacamera.uuid.markup">18E5E00548F94923B646613A73C01B56</property>
  <property name="meta.attr.creation_time.markup">2019-01-05T09:18:25.000000Z</property>
  <property name="meta.attr.timecode.markup">09:18:25:03</property>
  <property name="seekable">1</property>
  <property name="meta.media.sample_aspect_num">1</property>
  <property name="meta.media.sample_aspect_den">1</property>
  <property name="aspect_ratio">1</property>
  <property name="kdenlive:folderid">18</property>
  <property name="meta.media.frame_rate_num">25</property>
  <property name="meta.media.frame_rate_den">1</property>
  <property name="meta.media.colorspace">709</property>
  <property name="meta.media.color_trc">1</property>
  <property name="meta.media.width">1920</property>
  <property name="meta.media.height">1080</property>
  <property name="meta.media.top_field_first">0</property>
  <property name="meta.media.progressive">1</property>
  <property name="kdenlive:file_size">1241534665</property>
  <property name="kdenlive:file_hash">3298342aecc7a336c57ca6af427a29f7</property>
 </producer>
 <producer id="50" in="0" out="5323">
  <property name="length">00:01:46:24</property>
  <property name="eof">pause</property>
  <property name="resource">/media/bordun/plagiat2/CAM1_2019-01-05_0915_C0008.mov</property>
  <property name="audio_index">2</property>
  <property name="video_index">1</property>
  <property name="mute_on_pause">1</property>
  <property name="mlt_service">avformat-novalidate</property>
  <property name="meta.media.nb_streams">3</property>
  <property name="meta.media.1.stream.type">video</property>
  <property name="meta.media.1.stream.frame_rate">25</property>
  <property name="meta.media.1.stream.sample_aspect_ratio">1</property>
  <property name="meta.media.1.codec.width">1920</property>
  <property name="meta.media.1.codec.height">1080</property>
  <property name="meta.media.1.codec.rotate">0</property>
  <property name="meta.media.1.codec.frame_rate">2500</property>
  <property name="meta.media.1.codec.pix_fmt">yuv422p10le</property>
  <property name="meta.media.1.codec.sample_aspect_ratio">0</property>
  <property name="meta.media.1.codec.colorspace">709</property>
  <property name="meta.media.1.codec.color_trc">1</property>
  <property name="meta.media.1.codec.name">prores</property>
  <property name="meta.media.1.codec.long_name">ProRes</property>
  <property name="meta.media.1.codec.bit_rate">122315341</property>
  <property name="meta.attr.1.stream.creation_time.markup">2019-01-05T09:15:40.000000Z</property>
  <property name="meta.attr.1.stream.language.markup">eng</property>
  <property name="meta.attr.1.stream.handler_name.markup">Apple Alias Data Handler</property>
  <property name="meta.attr.1.stream.encoder.markup">Apple ProRes 422</property>
  <property name="meta.attr.1.stream.timecode.markup">09:15:40:03</property>
  <property name="meta.media.2.stream.type">audio</property>
  <property name="meta.media.2.codec.sample_fmt">s32</property>
  <property name="meta.media.2.codec.sample_rate">48000</property>
  <property name="meta.media.2.codec.channels">2</property>
  <property name="meta.media.2.codec.name">pcm_s24le</property>
  <property name="meta.media.2.codec.long_name">PCM signed 24-bit little-endian</property>
  <property name="meta.media.2.codec.bit_rate">2304000</property>
  <property name="meta.attr.2.stream.creation_time.markup">2019-01-05T09:15:40.000000Z</property>
  <property name="meta.attr.2.stream.language.markup">eng</property>
  <property name="meta.attr.2.stream.handler_name.markup">Apple Alias Data Handler</property>
  <property name="meta.attr.2.stream.timecode.markup">09:15:40:03</property>
  <property name="meta.attr.com.apple.proapps.manufacturer.markup">Blackmagic Design</property>
  <property name="meta.attr.com.apple.proapps.cameraName.markup">CAM1</property>
  <property name="meta.attr.com.apple.proapps.isGood.markup">0</property>
  <property name="meta.attr.com.apple.proapps.customgamma.markup">com.blackmagic-design.cinemacamera.filmlog</property>
  <property name="meta.attr.com.blackmagic-design.cinemacamera.uuid.markup">18E5E00548F94923B646613A73C01B56</property>
  <property name="meta.attr.creation_time.markup">2019-01-05T09:15:40.000000Z</property>
  <property name="meta.attr.timecode.markup">09:15:40:03</property>
  <property name="seekable">1</property>
  <property name="meta.media.sample_aspect_num">1</property>
  <property name="meta.media.sample_aspect_den">1</property>
  <property name="aspect_ratio">1</property>
  <property name="kdenlive:folderid">18</property>
  <property name="meta.media.frame_rate_num">25</property>
  <property name="meta.media.frame_rate_den">1</property>
  <property name="meta.media.colorspace">709</property>
  <property name="meta.media.color_trc">1</property>
  <property name="meta.media.width">1920</property>
  <property name="meta.media.height">1080</property>
  <property name="meta.media.top_field_first">0</property>
  <property name="meta.media.progressive">1</property>
  <property name="kdenlive:file_size">1659116449</property>
  <property name="kdenlive:file_hash">f8aa56141d75527d7246be55a57cf7dd</property>
 </producer>
 <producer id="51" in="0" out="9041">
  <property name="length">00:03:00:42</property>
  <property name="eof">pause</property>
  <property name="resource">/media/bordun/plagiat2/CAM1_2019-01-05_0910_C0007.mov</property>
  <property name="audio_index">2</property>
  <property name="video_index">1</property>
  <property name="mute_on_pause">1</property>
  <property name="mlt_service">avformat-novalidate</property>
  <property name="meta.media.nb_streams">3</property>
  <property name="meta.media.1.stream.type">video</property>
  <property name="meta.media.1.stream.frame_rate">25</property>
  <property name="meta.media.1.stream.sample_aspect_ratio">1</property>
  <property name="meta.media.1.codec.width">1920</property>
  <property name="meta.media.1.codec.height">1080</property>
  <property name="meta.media.1.codec.rotate">0</property>
  <property name="meta.media.1.codec.frame_rate">2500</property>
  <property name="meta.media.1.codec.pix_fmt">yuv422p10le</property>
  <property name="meta.media.1.codec.sample_aspect_ratio">0</property>
  <property name="meta.media.1.codec.colorspace">709</property>
  <property name="meta.media.1.codec.color_trc">1</property>
  <property name="meta.media.1.codec.name">prores</property>
  <property name="meta.media.1.codec.long_name">ProRes</property>
  <property name="meta.media.1.codec.bit_rate">122315670</property>
  <property name="meta.attr.1.stream.creation_time.markup">2019-01-05T09:10:10.000000Z</property>
  <property name="meta.attr.1.stream.language.markup">eng</property>
  <property name="meta.attr.1.stream.handler_name.markup">Apple Alias Data Handler</property>
  <property name="meta.attr.1.stream.encoder.markup">Apple ProRes 422</property>
  <property name="meta.attr.1.stream.timecode.markup">09:10:10:17</property>
  <property name="meta.media.2.stream.type">audio</property>
  <property name="meta.media.2.codec.sample_fmt">s32</property>
  <property name="meta.media.2.codec.sample_rate">48000</property>
  <property name="meta.media.2.codec.channels">2</property>
  <property name="meta.media.2.codec.name">pcm_s24le</property>
  <property name="meta.media.2.codec.long_name">PCM signed 24-bit little-endian</property>
  <property name="meta.media.2.codec.bit_rate">2304000</property>
  <property name="meta.attr.2.stream.creation_time.markup">2019-01-05T09:10:10.000000Z</property>
  <property name="meta.attr.2.stream.language.markup">eng</property>
  <property name="meta.attr.2.stream.handler_name.markup">Apple Alias Data Handler</property>
  <property name="meta.attr.2.stream.timecode.markup">09:10:10:17</property>
  <property name="meta.attr.com.apple.proapps.manufacturer.markup">Blackmagic Design</property>
  <property name="meta.attr.com.apple.proapps.cameraName.markup">CAM1</property>
  <property name="meta.attr.com.apple.proapps.isGood.markup">0</property>
  <property name="meta.attr.com.apple.proapps.customgamma.markup">com.blackmagic-design.cinemacamera.filmlog</property>
  <property name="meta.attr.com.blackmagic-design.cinemacamera.uuid.markup">18E5E00548F94923B646613A73C01B56</property>
  <property name="meta.attr.creation_time.markup">2019-01-05T09:10:10.000000Z</property>
  <property name="meta.attr.timecode.markup">09:10:10:17</property>
  <property name="seekable">1</property>
  <property name="meta.media.sample_aspect_num">1</property>
  <property name="meta.media.sample_aspect_den">1</property>
  <property name="aspect_ratio">1</property>
  <property name="kdenlive:folderid">18</property>
  <property name="meta.media.frame_rate_num">25</property>
  <property name="meta.media.frame_rate_den">1</property>
  <property name="meta.media.colorspace">709</property>
  <property name="meta.media.color_trc">1</property>
  <property name="meta.media.width">1920</property>
  <property name="meta.media.height">1080</property>
  <property name="meta.media.top_field_first">0</property>
  <property name="meta.media.progressive">1</property>
  <property name="kdenlive:file_size">2817746417</property>
  <property name="kdenlive:file_hash">b3e4bc9ce3280bb8753bd5e36ee0b214</property>
 </producer>
 <producer id="52" in="0" out="3953">
  <property name="length">00:01:19:04</property>
  <property name="eof">pause</property>
  <property name="resource">/media/bordun/plagiat2/CAM1_2019-01-05_0902_C0006.mov</property>
  <property name="audio_index">2</property>
  <property name="video_index">1</property>
  <property name="mute_on_pause">1</property>
  <property name="mlt_service">avformat-novalidate</property>
  <property name="meta.media.nb_streams">3</property>
  <property name="meta.media.1.stream.type">video</property>
  <property name="meta.media.1.stream.frame_rate">25</property>
  <property name="meta.media.1.stream.sample_aspect_ratio">1</property>
  <property name="meta.media.1.codec.width">1920</property>
  <property name="meta.media.1.codec.height">1080</property>
  <property name="meta.media.1.codec.rotate">0</property>
  <property name="meta.media.1.codec.frame_rate">2500</property>
  <property name="meta.media.1.codec.pix_fmt">yuv422p10le</property>
  <property name="meta.media.1.codec.sample_aspect_ratio">0</property>
  <property name="meta.media.1.codec.colorspace">709</property>
  <property name="meta.media.1.codec.color_trc">1</property>
  <property name="meta.media.1.codec.name">prores</property>
  <property name="meta.media.1.codec.long_name">ProRes</property>
  <property name="meta.media.1.codec.bit_rate">122315923</property>
  <property name="meta.attr.1.stream.creation_time.markup">2019-01-05T09:02:46.000000Z</property>
  <property name="meta.attr.1.stream.language.markup">eng</property>
  <property name="meta.attr.1.stream.handler_name.markup">Apple Alias Data Handler</property>
  <property name="meta.attr.1.stream.encoder.markup">Apple ProRes 422</property>
  <property name="meta.attr.1.stream.timecode.markup">09:02:46:24</property>
  <property name="meta.media.2.stream.type">audio</property>
  <property name="meta.media.2.codec.sample_fmt">s32</property>
  <property name="meta.media.2.codec.sample_rate">48000</property>
  <property name="meta.media.2.codec.channels">2</property>
  <property name="meta.media.2.codec.name">pcm_s24le</property>
  <property name="meta.media.2.codec.long_name">PCM signed 24-bit little-endian</property>
  <property name="meta.media.2.codec.bit_rate">2304000</property>
  <property name="meta.attr.2.stream.creation_time.markup">2019-01-05T09:02:46.000000Z</property>
  <property name="meta.attr.2.stream.language.markup">eng</property>
  <property name="meta.attr.2.stream.handler_name.markup">Apple Alias Data Handler</property>
  <property name="meta.attr.2.stream.timecode.markup">09:02:46:24</property>
  <property name="meta.attr.com.apple.proapps.manufacturer.markup">Blackmagic Design</property>
  <property name="meta.attr.com.apple.proapps.cameraName.markup">CAM1</property>
  <property name="meta.attr.com.apple.proapps.isGood.markup">0</property>
  <property name="meta.attr.com.apple.proapps.customgamma.markup">com.blackmagic-design.cinemacamera.filmlog</property>
  <property name="meta.attr.com.blackmagic-design.cinemacamera.uuid.markup">18E5E00548F94923B646613A73C01B56</property>
  <property name="meta.attr.creation_time.markup">2019-01-05T09:02:46.000000Z</property>
  <property name="meta.attr.timecode.markup">09:02:46:24</property>
  <property name="seekable">1</property>
  <property name="meta.media.sample_aspect_num">1</property>
  <property name="meta.media.sample_aspect_den">1</property>
  <property name="aspect_ratio">1</property>
  <property name="kdenlive:folderid">18</property>
  <property name="meta.media.frame_rate_num">25</property>
  <property name="meta.media.frame_rate_den">1</property>
  <property name="meta.media.colorspace">709</property>
  <property name="meta.media.color_trc">1</property>
  <property name="meta.media.width">1920</property>
  <property name="meta.media.height">1080</property>
  <property name="meta.media.top_field_first">0</property>
  <property name="meta.media.progressive">1</property>
  <property name="kdenlive:file_size">1232186057</property>
  <property name="kdenlive:file_hash">84e349f213f607e7c2eb327a44075451</property>
 </producer>
 <producer title="Anonymous Submission" id="53" in="0" out="5863">
  <property name="length">00:01:57:14</property>
  <property name="eof">pause</property>
  <property name="resource">/media/bordun/plagiat2/CAM1_2019-01-05_0853_C0005.mov</property>
  <property name="audio_index">2</property>
  <property name="video_index">1</property>
  <property name="mute_on_pause">1</property>
  <property name="mlt_service">avformat-novalidate</property>
  <property name="meta.media.nb_streams">3</property>
  <property name="meta.media.1.stream.type">video</property>
  <property name="meta.media.1.stream.frame_rate">25</property>
  <property name="meta.media.1.stream.sample_aspect_ratio">1</property>
  <property name="meta.media.1.codec.width">1920</property>
  <property name="meta.media.1.codec.height">1080</property>
  <property name="meta.media.1.codec.rotate">0</property>
  <property name="meta.media.1.codec.frame_rate">2500</property>
  <property name="meta.media.1.codec.pix_fmt">yuv422p10le</property>
  <property name="meta.media.1.codec.sample_aspect_ratio">0</property>
  <property name="meta.media.1.codec.colorspace">709</property>
  <property name="meta.media.1.codec.color_trc">1</property>
  <property name="meta.media.1.codec.name">prores</property>
  <property name="meta.media.1.codec.long_name">ProRes</property>
  <property name="meta.media.1.codec.bit_rate">122316105</property>
  <property name="meta.attr.1.stream.creation_time.markup">2019-01-05T08:53:39.000000Z</property>
  <property name="meta.attr.1.stream.language.markup">eng</property>
  <property name="meta.attr.1.stream.handler_name.markup">Apple Alias Data Handler</property>
  <property name="meta.attr.1.stream.encoder.markup">Apple ProRes 422</property>
  <property name="meta.attr.1.stream.timecode.markup">08:53:39:10</property>
  <property name="meta.media.2.stream.type">audio</property>
  <property name="meta.media.2.codec.sample_fmt">s32</property>
  <property name="meta.media.2.codec.sample_rate">48000</property>
  <property name="meta.media.2.codec.channels">2</property>
  <property name="meta.media.2.codec.name">pcm_s24le</property>
  <property name="meta.media.2.codec.long_name">PCM signed 24-bit little-endian</property>
  <property name="meta.media.2.codec.bit_rate">2304000</property>
  <property name="meta.attr.2.stream.creation_time.markup">2019-01-05T08:53:39.000000Z</property>
  <property name="meta.attr.2.stream.language.markup">eng</property>
  <property name="meta.attr.2.stream.handler_name.markup">Apple Alias Data Handler</property>
  <property name="meta.attr.2.stream.timecode.markup">08:53:39:10</property>
  <property name="meta.attr.com.apple.proapps.manufacturer.markup">Blackmagic Design</property>
  <property name="meta.attr.com.apple.proapps.cameraName.markup">CAM1</property>
  <property name="meta.attr.com.apple.proapps.isGood.markup">0</property>
  <property name="meta.attr.com.apple.proapps.customgamma.markup">com.blackmagic-design.cinemacamera.filmlog</property>
  <property name="meta.attr.com.blackmagic-design.cinemacamera.uuid.markup">18E5E00548F94923B646613A73C01B56</property>
  <property name="meta.attr.creation_time.markup">2019-01-05T08:53:39.000000Z</property>
  <property name="meta.attr.timecode.markup">08:53:39:10</property>
  <property name="seekable">1</property>
  <property name="meta.media.sample_aspect_num">1</property>
  <property name="meta.media.sample_aspect_den">1</property>
  <property name="aspect_ratio">1</property>
  <property name="kdenlive:folderid">18</property>
  <property name="meta.media.frame_rate_num">25</property>
  <property name="meta.media.frame_rate_den">1</property>
  <property name="meta.media.colorspace">709</property>
  <property name="meta.media.color_trc">1</property>
  <property name="meta.media.width">1920</property>
  <property name="meta.media.height">1080</property>
  <property name="meta.media.top_field_first">0</property>
  <property name="meta.media.progressive">1</property>
  <property name="kdenlive:file_size">1827394553</property>
  <property name="kdenlive:file_hash">f1252aea4a9073267c53ed9979db2a79</property>
  <property name="global_feed">1</property>
 </producer>
 <producer id="54" in="0" out="6601">
  <property name="length">00:02:12:02</property>
  <property name="eof">pause</property>
  <property name="resource">/media/bordun/plagiat2/CAM1_2019-01-05_0616_C0002.mov</property>
  <property name="audio_index">2</property>
  <property name="video_index">1</property>
  <property name="mute_on_pause">1</property>
  <property name="mlt_service">avformat-novalidate</property>
  <property name="meta.media.nb_streams">3</property>
  <property name="meta.media.1.stream.type">video</property>
  <property name="meta.media.1.stream.frame_rate">50</property>
  <property name="meta.media.1.stream.sample_aspect_ratio">1</property>
  <property name="meta.media.1.codec.width">1920</property>
  <property name="meta.media.1.codec.height">1080</property>
  <property name="meta.media.1.codec.rotate">0</property>
  <property name="meta.media.1.codec.frame_rate">5000</property>
  <property name="meta.media.1.codec.pix_fmt">yuv422p10le</property>
  <property name="meta.media.1.codec.sample_aspect_ratio">0</property>
  <property name="meta.media.1.codec.colorspace">709</property>
  <property name="meta.media.1.codec.color_trc">1</property>
  <property name="meta.media.1.codec.name">prores</property>
  <property name="meta.media.1.codec.long_name">ProRes</property>
  <property name="meta.media.1.codec.bit_rate">366956617</property>
  <property name="meta.attr.1.stream.creation_time.markup">2019-01-05T06:16:17.000000Z</property>
  <property name="meta.attr.1.stream.language.markup">eng</property>
  <property name="meta.attr.1.stream.handler_name.markup">Apple Alias Data Handler</property>
  <property name="meta.attr.1.stream.encoder.markup">Apple ProRes 422 HQ</property>
  <property name="meta.attr.1.stream.timecode.markup">06:16:17:16</property>
  <property name="meta.media.2.stream.type">audio</property>
  <property name="meta.media.2.codec.sample_fmt">s32</property>
  <property name="meta.media.2.codec.sample_rate">48000</property>
  <property name="meta.media.2.codec.channels">2</property>
  <property name="meta.media.2.codec.name">pcm_s24le</property>
  <property name="meta.media.2.codec.long_name">PCM signed 24-bit little-endian</property>
  <property name="meta.media.2.codec.bit_rate">2304000</property>
  <property name="meta.attr.2.stream.creation_time.markup">2019-01-05T06:16:17.000000Z</property>
  <property name="meta.attr.2.stream.language.markup">eng</property>
  <property name="meta.attr.2.stream.handler_name.markup">Apple Alias Data Handler</property>
  <property name="meta.attr.2.stream.timecode.markup">06:16:17:16</property>
  <property name="meta.attr.com.apple.proapps.manufacturer.markup">Blackmagic Design</property>
  <property name="meta.attr.com.apple.proapps.cameraName.markup">CAM1</property>
  <property name="meta.attr.com.apple.proapps.isGood.markup">0</property>
  <property name="meta.attr.com.apple.proapps.customgamma.markup">com.blackmagic-design.cinemacamera.filmlog</property>
  <property name="meta.attr.com.blackmagic-design.cinemacamera.uuid.markup">18E5E00548F94923B646613A73C01B56</property>
  <property name="meta.attr.creation_time.markup">2019-01-05T06:16:17.000000Z</property>
  <property name="meta.attr.timecode.markup">06:16:17:16</property>
  <property name="seekable">1</property>
  <property name="meta.media.sample_aspect_num">1</property>
  <property name="meta.media.sample_aspect_den">1</property>
  <property name="aspect_ratio">1</property>
  <property name="kdenlive:folderid">18</property>
  <property name="meta.media.frame_rate_num">50</property>
  <property name="meta.media.frame_rate_den">1</property>
  <property name="meta.media.colorspace">709</property>
  <property name="meta.media.color_trc">1</property>
  <property name="meta.media.width">1920</property>
  <property name="meta.media.height">1080</property>
  <property name="meta.media.top_field_first">0</property>
  <property name="meta.media.progressive">1</property>
  <property name="kdenlive:file_size">6095265905</property>
  <property name="kdenlive:file_hash">15392cd6b98f5c75a2b04073ca3e9ced</property>
 </producer>
 <producer id="55" in="0" out="10077">
  <property name="length">00:03:21:28</property>
  <property name="eof">pause</property>
  <property name="resource">/media/bordun/plagiat2/CAM1_2019-01-05_0612_C0001.mov</property>
  <property name="audio_index">2</property>
  <property name="video_index">1</property>
  <property name="mute_on_pause">1</property>
  <property name="mlt_service">avformat-novalidate</property>
  <property name="meta.media.nb_streams">3</property>
  <property name="meta.media.1.stream.type">video</property>
  <property name="meta.media.1.stream.frame_rate">50</property>
  <property name="meta.media.1.stream.sample_aspect_ratio">1</property>
  <property name="meta.media.1.codec.width">1920</property>
  <property name="meta.media.1.codec.height">1080</property>
  <property name="meta.media.1.codec.rotate">0</property>
  <property name="meta.media.1.codec.frame_rate">5000</property>
  <property name="meta.media.1.codec.pix_fmt">yuv422p10le</property>
  <property name="meta.media.1.codec.sample_aspect_ratio">0</property>
  <property name="meta.media.1.codec.colorspace">709</property>
  <property name="meta.media.1.codec.color_trc">1</property>
  <property name="meta.media.1.codec.name">prores</property>
  <property name="meta.media.1.codec.long_name">ProRes</property>
  <property name="meta.media.1.codec.bit_rate">366957469</property>
  <property name="meta.attr.1.stream.creation_time.markup">2019-01-05T06:12:21.000000Z</property>
  <property name="meta.attr.1.stream.language.markup">eng</property>
  <property name="meta.attr.1.stream.handler_name.markup">Apple Alias Data Handler</property>
  <property name="meta.attr.1.stream.encoder.markup">Apple ProRes 422 HQ</property>
  <property name="meta.attr.1.stream.timecode.markup">06:12:21:43</property>
  <property name="meta.media.2.stream.type">audio</property>
  <property name="meta.media.2.codec.sample_fmt">s32</property>
  <property name="meta.media.2.codec.sample_rate">48000</property>
  <property name="meta.media.2.codec.channels">2</property>
  <property name="meta.media.2.codec.name">pcm_s24le</property>
  <property name="meta.media.2.codec.long_name">PCM signed 24-bit little-endian</property>
  <property name="meta.media.2.codec.bit_rate">2304000</property>
  <property name="meta.attr.2.stream.creation_time.markup">2019-01-05T06:12:21.000000Z</property>
  <property name="meta.attr.2.stream.language.markup">eng</property>
  <property name="meta.attr.2.stream.handler_name.markup">Apple Alias Data Handler</property>
  <property name="meta.attr.2.stream.timecode.markup">06:12:21:43</property>
  <property name="meta.attr.com.apple.proapps.manufacturer.markup">Blackmagic Design</property>
  <property name="meta.attr.com.apple.proapps.cameraName.markup">CAM1</property>
  <property name="meta.attr.com.apple.proapps.isGood.markup">0</property>
  <property name="meta.attr.com.apple.proapps.customgamma.markup">com.blackmagic-design.cinemacamera.filmlog</property>
  <property name="meta.attr.com.blackmagic-design.cinemacamera.uuid.markup">18E5E00548F94923B646613A73C01B56</property>
  <property name="meta.attr.creation_time.markup">2019-01-05T06:12:21.000000Z</property>
  <property name="meta.attr.timecode.markup">06:12:21:43</property>
  <property name="seekable">1</property>
  <property name="meta.media.sample_aspect_num">1</property>
  <property name="meta.media.sample_aspect_den">1</property>
  <property name="aspect_ratio">1</property>
  <property name="kdenlive:folderid">18</property>
  <property name="meta.media.frame_rate_num">50</property>
  <property name="meta.media.frame_rate_den">1</property>
  <property name="meta.media.colorspace">709</property>
  <property name="meta.media.color_trc">1</property>
  <property name="meta.media.width">1920</property>
  <property name="meta.media.height">1080</property>
  <property name="meta.media.top_field_first">0</property>
  <property name="meta.media.progressive">1</property>
  <property name="kdenlive:file_size">9304493209</property>
  <property name="kdenlive:file_hash">5e9906388e5fb2616c7022bce204f437</property>
 </producer>
 <producer id="56" in="0" out="10454">
  <property name="length">00:03:29:05</property>
  <property name="eof">pause</property>
  <property name="resource">/media/bordun/plagiat2/CAM1_2019-01-05_0557_C0004.mov</property>
  <property name="audio_index">2</property>
  <property name="video_index">1</property>
  <property name="mute_on_pause">1</property>
  <property name="mlt_service">avformat-novalidate</property>
  <property name="meta.media.nb_streams">3</property>
  <property name="meta.media.1.stream.type">video</property>
  <property name="meta.media.1.stream.frame_rate">50</property>
  <property name="meta.media.1.stream.sample_aspect_ratio">1</property>
  <property name="meta.media.1.codec.width">1920</property>
  <property name="meta.media.1.codec.height">1080</property>
  <property name="meta.media.1.codec.rotate">0</property>
  <property name="meta.media.1.codec.frame_rate">5000</property>
  <property name="meta.media.1.codec.pix_fmt">yuv422p10le</property>
  <property name="meta.media.1.codec.sample_aspect_ratio">0</property>
  <property name="meta.media.1.codec.colorspace">709</property>
  <property name="meta.media.1.codec.color_trc">1</property>
  <property name="meta.media.1.codec.name">prores</property>
  <property name="meta.media.1.codec.long_name">ProRes</property>
  <property name="meta.media.1.codec.bit_rate">366958528</property>
  <property name="meta.attr.1.stream.creation_time.markup">2019-01-05T05:57:41.000000Z</property>
  <property name="meta.attr.1.stream.language.markup">eng</property>
  <property name="meta.attr.1.stream.handler_name.markup">Apple Alias Data Handler</property>
  <property name="meta.attr.1.stream.encoder.markup">Apple ProRes 422 HQ</property>
  <property name="meta.attr.1.stream.timecode.markup">05:57:41:19</property>
  <property name="meta.media.2.stream.type">audio</property>
  <property name="meta.media.2.codec.sample_fmt">s32</property>
  <property name="meta.media.2.codec.sample_rate">48000</property>
  <property name="meta.media.2.codec.channels">2</property>
  <property name="meta.media.2.codec.name">pcm_s24le</property>
  <property name="meta.media.2.codec.long_name">PCM signed 24-bit little-endian</property>
  <property name="meta.media.2.codec.bit_rate">2304000</property>
  <property name="meta.attr.2.stream.creation_time.markup">2019-01-05T05:57:41.000000Z</property>
  <property name="meta.attr.2.stream.language.markup">eng</property>
  <property name="meta.attr.2.stream.handler_name.markup">Apple Alias Data Handler</property>
  <property name="meta.attr.2.stream.timecode.markup">05:57:41:19</property>
  <property name="meta.attr.com.apple.proapps.manufacturer.markup">Blackmagic Design</property>
  <property name="meta.attr.com.apple.proapps.cameraName.markup">CAM1</property>
  <property name="meta.attr.com.apple.proapps.isGood.markup">0</property>
  <property name="meta.attr.com.apple.proapps.customgamma.markup">com.blackmagic-design.cinemacamera.filmlog</property>
  <property name="meta.attr.com.blackmagic-design.cinemacamera.uuid.markup">18E5E00548F94923B646613A73C01B56</property>
  <property name="meta.attr.creation_time.markup">2019-01-05T05:57:41.000000Z</property>
  <property name="meta.attr.timecode.markup">05:57:41:19</property>
  <property name="seekable">1</property>
  <property name="meta.media.sample_aspect_num">1</property>
  <property name="meta.media.sample_aspect_den">1</property>
  <property name="aspect_ratio">1</property>
  <property name="kdenlive:folderid">18</property>
  <property name="meta.media.frame_rate_num">50</property>
  <property name="meta.media.frame_rate_den">1</property>
  <property name="meta.media.colorspace">709</property>
  <property name="meta.media.color_trc">1</property>
  <property name="meta.media.width">1920</property>
  <property name="meta.media.height">1080</property>
  <property name="meta.media.top_field_first">0</property>
  <property name="meta.media.progressive">1</property>
  <property name="kdenlive:file_size">9652541145</property>
  <property name="kdenlive:file_hash">9d4eddc292544f83f9eb0cb1726027b3</property>
 </producer>
 <producer id="57" in="0" out="19885">
  <property name="length">00:06:37:36</property>
  <property name="eof">pause</property>
  <property name="resource">/media/bordun/plagiat2/CAM1_2019-01-05_0544_C0003.mov</property>
  <property name="audio_index">2</property>
  <property name="video_index">1</property>
  <property name="mute_on_pause">1</property>
  <property name="mlt_service">avformat-novalidate</property>
  <property name="meta.media.nb_streams">3</property>
  <property name="meta.media.1.stream.type">video</property>
  <property name="meta.media.1.stream.frame_rate">50</property>
  <property name="meta.media.1.stream.sample_aspect_ratio">1</property>
  <property name="meta.media.1.codec.width">1920</property>
  <property name="meta.media.1.codec.height">1080</property>
  <property name="meta.media.1.codec.rotate">0</property>
  <property name="meta.media.1.codec.frame_rate">5000</property>
  <property name="meta.media.1.codec.pix_fmt">yuv422p10le</property>
  <property name="meta.media.1.codec.sample_aspect_ratio">0</property>
  <property name="meta.media.1.codec.colorspace">709</property>
  <property name="meta.media.1.codec.color_trc">1</property>
  <property name="meta.media.1.codec.name">prores</property>
  <property name="meta.media.1.codec.long_name">ProRes</property>
  <property name="meta.media.1.codec.bit_rate">366956929</property>
  <property name="meta.attr.1.stream.creation_time.markup">2019-01-05T05:44:18.000000Z</property>
  <property name="meta.attr.1.stream.language.markup">eng</property>
  <property name="meta.attr.1.stream.handler_name.markup">Apple Alias Data Handler</property>
  <property name="meta.attr.1.stream.encoder.markup">Apple ProRes 422 HQ</property>
  <property name="meta.attr.1.stream.timecode.markup">05:44:18:23</property>
  <property name="meta.media.2.stream.type">audio</property>
  <property name="meta.media.2.codec.sample_fmt">s32</property>
  <property name="meta.media.2.codec.sample_rate">48000</property>
  <property name="meta.media.2.codec.channels">2</property>
  <property name="meta.media.2.codec.name">pcm_s24le</property>
  <property name="meta.media.2.codec.long_name">PCM signed 24-bit little-endian</property>
  <property name="meta.media.2.codec.bit_rate">2304000</property>
  <property name="meta.attr.2.stream.creation_time.markup">2019-01-05T05:44:18.000000Z</property>
  <property name="meta.attr.2.stream.language.markup">eng</property>
  <property name="meta.attr.2.stream.handler_name.markup">Apple Alias Data Handler</property>
  <property name="meta.attr.2.stream.timecode.markup">05:44:18:23</property>
  <property name="meta.attr.com.apple.proapps.manufacturer.markup">Blackmagic Design</property>
  <property name="meta.attr.com.apple.proapps.cameraName.markup">CAM1</property>
  <property name="meta.attr.com.apple.proapps.isGood.markup">0</property>
  <property name="meta.attr.com.apple.proapps.customgamma.markup">com.blackmagic-design.cinemacamera.filmlog</property>
  <property name="meta.attr.com.blackmagic-design.cinemacamera.uuid.markup">18E5E00548F94923B646613A73C01B56</property>
  <property name="meta.attr.creation_time.markup">2019-01-05T05:44:18.000000Z</property>
  <property name="meta.attr.timecode.markup">05:44:18:23</property>
  <property name="seekable">1</property>
  <property name="meta.media.sample_aspect_num">1</property>
  <property name="meta.media.sample_aspect_den">1</property>
  <property name="aspect_ratio">1</property>
  <property name="kdenlive:folderid">18</property>
  <property name="meta.media.frame_rate_num">50</property>
  <property name="meta.media.frame_rate_den">1</property>
  <property name="meta.media.colorspace">709</property>
  <property name="meta.media.color_trc">1</property>
  <property name="meta.media.width">1920</property>
  <property name="meta.media.height">1080</property>
  <property name="meta.media.top_field_first">0</property>
  <property name="meta.media.progressive">1</property>
  <property name="kdenlive:file_size">18359664313</property>
  <property name="kdenlive:file_hash">46f909828b8adaa191142911fc3d1240</property>
 </producer>
 <producer id="58" in="0" out="9289">
  <property name="length">00:03:05:40</property>
  <property name="eof">pause</property>
  <property name="resource">/media/bordun/plagiat2/CAM1_2019-01-05_0517_C0001.mov</property>
  <property name="audio_index">2</property>
  <property name="video_index">1</property>
  <property name="mute_on_pause">1</property>
  <property name="mlt_service">avformat-novalidate</property>
  <property name="meta.media.nb_streams">3</property>
  <property name="meta.media.1.stream.type">video</property>
  <property name="meta.media.1.stream.frame_rate">50</property>
  <property name="meta.media.1.stream.sample_aspect_ratio">1</property>
  <property name="meta.media.1.codec.width">1920</property>
  <property name="meta.media.1.codec.height">1080</property>
  <property name="meta.media.1.codec.rotate">0</property>
  <property name="meta.media.1.codec.frame_rate">5000</property>
  <property name="meta.media.1.codec.pix_fmt">yuv422p10le</property>
  <property name="meta.media.1.codec.sample_aspect_ratio">0</property>
  <property name="meta.media.1.codec.colorspace">709</property>
  <property name="meta.media.1.codec.color_trc">1</property>
  <property name="meta.media.1.codec.name">prores</property>
  <property name="meta.media.1.codec.long_name">ProRes</property>
  <property name="meta.media.1.codec.bit_rate">366957016</property>
  <property name="meta.attr.1.stream.creation_time.markup">2019-01-05T05:17:29.000000Z</property>
  <property name="meta.attr.1.stream.language.markup">eng</property>
  <property name="meta.attr.1.stream.handler_name.markup">Apple Alias Data Handler</property>
  <property name="meta.attr.1.stream.encoder.markup">Apple ProRes 422 HQ</property>
  <property name="meta.attr.1.stream.timecode.markup">05:17:29:25</property>
  <property name="meta.media.2.stream.type">audio</property>
  <property name="meta.media.2.codec.sample_fmt">s32</property>
  <property name="meta.media.2.codec.sample_rate">48000</property>
  <property name="meta.media.2.codec.channels">2</property>
  <property name="meta.media.2.codec.name">pcm_s24le</property>
  <property name="meta.media.2.codec.long_name">PCM signed 24-bit little-endian</property>
  <property name="meta.media.2.codec.bit_rate">2304000</property>
  <property name="meta.attr.2.stream.creation_time.markup">2019-01-05T05:17:29.000000Z</property>
  <property name="meta.attr.2.stream.language.markup">eng</property>
  <property name="meta.attr.2.stream.handler_name.markup">Apple Alias Data Handler</property>
  <property name="meta.attr.2.stream.timecode.markup">05:17:29:25</property>
  <property name="meta.attr.com.apple.proapps.manufacturer.markup">Blackmagic Design</property>
  <property name="meta.attr.com.apple.proapps.cameraName.markup">CAM1</property>
  <property name="meta.attr.com.apple.proapps.isGood.markup">0</property>
  <property name="meta.attr.com.apple.proapps.customgamma.markup">com.blackmagic-design.cinemacamera.filmlog</property>
  <property name="meta.attr.com.blackmagic-design.cinemacamera.uuid.markup">18E5E00548F94923B646613A73C01B56</property>
  <property name="meta.attr.creation_time.markup">2019-01-05T05:17:29.000000Z</property>
  <property name="meta.attr.timecode.markup">05:17:29:25</property>
  <property name="seekable">1</property>
  <property name="meta.media.sample_aspect_num">1</property>
  <property name="meta.media.sample_aspect_den">1</property>
  <property name="aspect_ratio">1</property>
  <property name="kdenlive:folderid">18</property>
  <property name="meta.media.frame_rate_num">50</property>
  <property name="meta.media.frame_rate_den">1</property>
  <property name="meta.media.colorspace">709</property>
  <property name="meta.media.color_trc">1</property>
  <property name="meta.media.width">1920</property>
  <property name="meta.media.height">1080</property>
  <property name="meta.media.top_field_first">0</property>
  <property name="meta.media.progressive">1</property>
  <property name="kdenlive:file_size">8576956441</property>
  <property name="kdenlive:file_hash">c2f5e810e9e7275dd3088498b60f8e5f</property>
 </producer>
 <producer id="59" in="0" out="10702">
  <property name="length">00:03:34:03</property>
  <property name="eof">pause</property>
  <property name="resource">/media/bordun/plagiat2/CAM1_2019-01-05_0511_C0000.mov</property>
  <property name="audio_index">2</property>
  <property name="video_index">1</property>
  <property name="mute_on_pause">1</property>
  <property name="mlt_service">avformat-novalidate</property>
  <property name="meta.media.nb_streams">3</property>
  <property name="meta.media.1.stream.type">video</property>
  <property name="meta.media.1.stream.frame_rate">50</property>
  <property name="meta.media.1.stream.sample_aspect_ratio">1</property>
  <property name="meta.media.1.codec.width">1920</property>
  <property name="meta.media.1.codec.height">1080</property>
  <property name="meta.media.1.codec.rotate">0</property>
  <property name="meta.media.1.codec.frame_rate">5000</property>
  <property name="meta.media.1.codec.pix_fmt">yuv422p10le</property>
  <property name="meta.media.1.codec.sample_aspect_ratio">0</property>
  <property name="meta.media.1.codec.colorspace">709</property>
  <property name="meta.media.1.codec.color_trc">1</property>
  <property name="meta.media.1.codec.name">prores</property>
  <property name="meta.media.1.codec.long_name">ProRes</property>
  <property name="meta.media.1.codec.bit_rate">366958294</property>
  <property name="meta.attr.1.stream.creation_time.markup">2019-01-05T05:11:43.000000Z</property>
  <property name="meta.attr.1.stream.language.markup">eng</property>
  <property name="meta.attr.1.stream.handler_name.markup">Apple Alias Data Handler</property>
  <property name="meta.attr.1.stream.encoder.markup">Apple ProRes 422 HQ</property>
  <property name="meta.attr.1.stream.timecode.markup">05:11:43:16</property>
  <property name="meta.media.2.stream.type">audio</property>
  <property name="meta.media.2.codec.sample_fmt">s32</property>
  <property name="meta.media.2.codec.sample_rate">48000</property>
  <property name="meta.media.2.codec.channels">2</property>
  <property name="meta.media.2.codec.name">pcm_s24le</property>
  <property name="meta.media.2.codec.long_name">PCM signed 24-bit little-endian</property>
  <property name="meta.media.2.codec.bit_rate">2304000</property>
  <property name="meta.attr.2.stream.creation_time.markup">2019-01-05T05:11:43.000000Z</property>
  <property name="meta.attr.2.stream.language.markup">eng</property>
  <property name="meta.attr.2.stream.handler_name.markup">Apple Alias Data Handler</property>
  <property name="meta.attr.2.stream.timecode.markup">05:11:43:16</property>
  <property name="meta.attr.com.apple.proapps.manufacturer.markup">Blackmagic Design</property>
  <property name="meta.attr.com.apple.proapps.cameraName.markup">CAM1</property>
  <property name="meta.attr.com.apple.proapps.isGood.markup">0</property>
  <property name="meta.attr.com.apple.proapps.customgamma.markup">com.blackmagic-design.cinemacamera.filmlog</property>
  <property name="meta.attr.com.blackmagic-design.cinemacamera.uuid.markup">18E5E00548F94923B646613A73C01B56</property>
  <property name="meta.attr.creation_time.markup">2019-01-05T05:11:43.000000Z</property>
  <property name="meta.attr.timecode.markup">05:11:43:16</property>
  <property name="seekable">1</property>
  <property name="meta.media.sample_aspect_num">1</property>
  <property name="meta.media.sample_aspect_den">1</property>
  <property name="aspect_ratio">1</property>
  <property name="kdenlive:folderid">18</property>
  <property name="meta.media.frame_rate_num">50</property>
  <property name="meta.media.frame_rate_den">1</property>
  <property name="meta.media.colorspace">709</property>
  <property name="meta.media.color_trc">1</property>
  <property name="meta.media.width">1920</property>
  <property name="meta.media.height">1080</property>
  <property name="meta.media.top_field_first">0</property>
  <property name="meta.media.progressive">1</property>
  <property name="kdenlive:file_size">9881509121</property>
  <property name="kdenlive:file_hash">377aa92a5fbef78369143e30739b498c</property>
 </producer>
 <producer id="60" in="0" out="11268">
  <property name="length">00:03:45:19</property>
  <property name="eof">pause</property>
  <property name="resource">/media/bordun/plagiat2/CAM1_2019-01-05_0525_C0002.mov</property>
  <property name="audio_index">2</property>
  <property name="video_index">1</property>
  <property name="mute_on_pause">1</property>
  <property name="mlt_service">avformat-novalidate</property>
  <property name="meta.media.nb_streams">3</property>
  <property name="meta.media.1.stream.type">video</property>
  <property name="meta.media.1.stream.frame_rate">50</property>
  <property name="meta.media.1.stream.sample_aspect_ratio">1</property>
  <property name="meta.media.1.codec.width">1920</property>
  <property name="meta.media.1.codec.height">1080</property>
  <property name="meta.media.1.codec.rotate">0</property>
  <property name="meta.media.1.codec.frame_rate">5000</property>
  <property name="meta.media.1.codec.pix_fmt">yuv422p10le</property>
  <property name="meta.media.1.codec.sample_aspect_ratio">0</property>
  <property name="meta.media.1.codec.colorspace">709</property>
  <property name="meta.media.1.codec.color_trc">1</property>
  <property name="meta.media.1.codec.name">prores</property>
  <property name="meta.media.1.codec.long_name">ProRes</property>
  <property name="meta.media.1.codec.bit_rate">366958989</property>
  <property name="meta.attr.1.stream.creation_time.markup">2019-01-05T05:25:34.000000Z</property>
  <property name="meta.attr.1.stream.language.markup">eng</property>
  <property name="meta.attr.1.stream.handler_name.markup">Apple Alias Data Handler</property>
  <property name="meta.attr.1.stream.encoder.markup">Apple ProRes 422 HQ</property>
  <property name="meta.attr.1.stream.timecode.markup">05:25:34:21</property>
  <property name="meta.media.2.stream.type">audio</property>
  <property name="meta.media.2.codec.sample_fmt">s32</property>
  <property name="meta.media.2.codec.sample_rate">48000</property>
  <property name="meta.media.2.codec.channels">2</property>
  <property name="meta.media.2.codec.name">pcm_s24le</property>
  <property name="meta.media.2.codec.long_name">PCM signed 24-bit little-endian</property>
  <property name="meta.media.2.codec.bit_rate">2304000</property>
  <property name="meta.attr.2.stream.creation_time.markup">2019-01-05T05:25:34.000000Z</property>
  <property name="meta.attr.2.stream.language.markup">eng</property>
  <property name="meta.attr.2.stream.handler_name.markup">Apple Alias Data Handler</property>
  <property name="meta.attr.2.stream.timecode.markup">05:25:34:21</property>
  <property name="meta.attr.com.apple.proapps.manufacturer.markup">Blackmagic Design</property>
  <property name="meta.attr.com.apple.proapps.cameraName.markup">CAM1</property>
  <property name="meta.attr.com.apple.proapps.isGood.markup">0</property>
  <property name="meta.attr.com.apple.proapps.customgamma.markup">com.blackmagic-design.cinemacamera.filmlog</property>
  <property name="meta.attr.com.blackmagic-design.cinemacamera.uuid.markup">18E5E00548F94923B646613A73C01B56</property>
  <property name="meta.attr.creation_time.markup">2019-01-05T05:25:34.000000Z</property>
  <property name="meta.attr.timecode.markup">05:25:34:21</property>
  <property name="seekable">1</property>
  <property name="meta.media.sample_aspect_num">1</property>
  <property name="meta.media.sample_aspect_den">1</property>
  <property name="aspect_ratio">1</property>
  <property name="kdenlive:folderid">18</property>
  <property name="meta.media.frame_rate_num">50</property>
  <property name="meta.media.frame_rate_den">1</property>
  <property name="meta.media.colorspace">709</property>
  <property name="meta.media.color_trc">1</property>
  <property name="meta.media.width">1920</property>
  <property name="meta.media.height">1080</property>
  <property name="meta.media.top_field_first">0</property>
  <property name="meta.media.progressive">1</property>
  <property name="kdenlive:file_size">10404105561</property>
  <property name="kdenlive:file_hash">2bc47b71e880be9b41ab5c0f2f63d573</property>
 </producer>
 <producer id="61" in="0" out="42317">
  <property name="length">00:14:06:18</property>
  <property name="eof">pause</property>
  <property name="resource">/media/bordun/plagiat2/CAM1_2019-01-05_0345_C0000.mov</property>
  <property name="audio_index">2</property>
  <property name="video_index">1</property>
  <property name="mute_on_pause">1</property>
  <property name="mlt_service">avformat-novalidate</property>
  <property name="meta.media.nb_streams">3</property>
  <property name="meta.media.1.stream.type">video</property>
  <property name="meta.media.1.stream.frame_rate">50</property>
  <property name="meta.media.1.stream.sample_aspect_ratio">1</property>
  <property name="meta.media.1.codec.width">1920</property>
  <property name="meta.media.1.codec.height">1080</property>
  <property name="meta.media.1.codec.rotate">0</property>
  <property name="meta.media.1.codec.frame_rate">5000</property>
  <property name="meta.media.1.codec.pix_fmt">yuv422p10le</property>
  <property name="meta.media.1.codec.sample_aspect_ratio">0</property>
  <property name="meta.media.1.codec.colorspace">709</property>
  <property name="meta.media.1.codec.color_trc">1</property>
  <property name="meta.media.1.codec.name">prores</property>
  <property name="meta.media.1.codec.long_name">ProRes</property>
  <property name="meta.media.1.codec.bit_rate">366957403</property>
  <property name="meta.attr.1.stream.creation_time.markup">2019-01-05T03:45:37.000000Z</property>
  <property name="meta.attr.1.stream.language.markup">eng</property>
  <property name="meta.attr.1.stream.handler_name.markup">Apple Alias Data Handler</property>
  <property name="meta.attr.1.stream.encoder.markup">Apple ProRes 422 HQ</property>
  <property name="meta.attr.1.stream.timecode.markup">03:45:37:07</property>
  <property name="meta.media.2.stream.type">audio</property>
  <property name="meta.media.2.codec.sample_fmt">s32</property>
  <property name="meta.media.2.codec.sample_rate">48000</property>
  <property name="meta.media.2.codec.channels">2</property>
  <property name="meta.media.2.codec.name">pcm_s24le</property>
  <property name="meta.media.2.codec.long_name">PCM signed 24-bit little-endian</property>
  <property name="meta.media.2.codec.bit_rate">2304000</property>
  <property name="meta.attr.2.stream.creation_time.markup">2019-01-05T03:45:37.000000Z</property>
  <property name="meta.attr.2.stream.language.markup">eng</property>
  <property name="meta.attr.2.stream.handler_name.markup">Apple Alias Data Handler</property>
  <property name="meta.attr.2.stream.timecode.markup">03:45:37:07</property>
  <property name="meta.attr.com.apple.proapps.manufacturer.markup">Blackmagic Design</property>
  <property name="meta.attr.com.apple.proapps.cameraName.markup">CAM1</property>
  <property name="meta.attr.com.apple.proapps.isGood.markup">0</property>
  <property name="meta.attr.com.apple.proapps.customgamma.markup">com.blackmagic-design.cinemacamera.filmlog</property>
  <property name="meta.attr.com.blackmagic-design.cinemacamera.uuid.markup">18E5E00548F94923B646613A73C01B56</property>
  <property name="meta.attr.creation_time.markup">2019-01-05T03:45:37.000000Z</property>
  <property name="meta.attr.timecode.markup">03:45:37:07</property>
  <property name="seekable">1</property>
  <property name="meta.media.sample_aspect_num">1</property>
  <property name="meta.media.sample_aspect_den">1</property>
  <property name="aspect_ratio">1</property>
  <property name="kdenlive:folderid">18</property>
  <property name="meta.media.frame_rate_num">50</property>
  <property name="meta.media.frame_rate_den">1</property>
  <property name="meta.media.colorspace">709</property>
  <property name="meta.media.color_trc">1</property>
  <property name="meta.media.width">1920</property>
  <property name="meta.media.height">1080</property>
  <property name="meta.media.top_field_first">0</property>
  <property name="meta.media.progressive">1</property>
  <property name="kdenlive:file_size">39069915329</property>
  <property name="kdenlive:file_hash">73f4a81374204093f22cbe930d68c42b</property>
 </producer>
 <producer id="62" in="0" out="1689">
  <property name="length">00:00:33:40</property>
  <property name="eof">pause</property>
  <property name="resource">/media/bordun/plagiat2/CAM1_2019-01-05_0607_C0006.mov</property>
  <property name="audio_index">2</property>
  <property name="video_index">1</property>
  <property name="mute_on_pause">1</property>
  <property name="mlt_service">avformat-novalidate</property>
  <property name="meta.media.nb_streams">3</property>
  <property name="meta.media.1.stream.type">video</property>
  <property name="meta.media.1.stream.frame_rate">50</property>
  <property name="meta.media.1.stream.sample_aspect_ratio">1</property>
  <property name="meta.media.1.codec.width">1920</property>
  <property name="meta.media.1.codec.height">1080</property>
  <property name="meta.media.1.codec.rotate">0</property>
  <property name="meta.media.1.codec.frame_rate">5000</property>
  <property name="meta.media.1.codec.pix_fmt">yuv422p10le</property>
  <property name="meta.media.1.codec.sample_aspect_ratio">0</property>
  <property name="meta.media.1.codec.colorspace">709</property>
  <property name="meta.media.1.codec.color_trc">1</property>
  <property name="meta.media.1.codec.name">prores</property>
  <property name="meta.media.1.codec.long_name">ProRes</property>
  <property name="meta.media.1.codec.bit_rate">366960162</property>
  <property name="meta.attr.1.stream.creation_time.markup">2019-01-05T06:07:03.000000Z</property>
  <property name="meta.attr.1.stream.language.markup">eng</property>
  <property name="meta.attr.1.stream.handler_name.markup">Apple Alias Data Handler</property>
  <property name="meta.attr.1.stream.encoder.markup">Apple ProRes 422 HQ</property>
  <property name="meta.attr.1.stream.timecode.markup">06:07:03:08</property>
  <property name="meta.media.2.stream.type">audio</property>
  <property name="meta.media.2.codec.sample_fmt">s32</property>
  <property name="meta.media.2.codec.sample_rate">48000</property>
  <property name="meta.media.2.codec.channels">2</property>
  <property name="meta.media.2.codec.name">pcm_s24le</property>
  <property name="meta.media.2.codec.long_name">PCM signed 24-bit little-endian</property>
  <property name="meta.media.2.codec.bit_rate">2304000</property>
  <property name="meta.attr.2.stream.creation_time.markup">2019-01-05T06:07:03.000000Z</property>
  <property name="meta.attr.2.stream.language.markup">eng</property>
  <property name="meta.attr.2.stream.handler_name.markup">Apple Alias Data Handler</property>
  <property name="meta.attr.2.stream.timecode.markup">06:07:03:08</property>
  <property name="meta.attr.com.apple.proapps.manufacturer.markup">Blackmagic Design</property>
  <property name="meta.attr.com.apple.proapps.cameraName.markup">CAM1</property>
  <property name="meta.attr.com.apple.proapps.isGood.markup">0</property>
  <property name="meta.attr.com.apple.proapps.customgamma.markup">com.blackmagic-design.cinemacamera.filmlog</property>
  <property name="meta.attr.com.blackmagic-design.cinemacamera.uuid.markup">18E5E00548F94923B646613A73C01B56</property>
  <property name="meta.attr.creation_time.markup">2019-01-05T06:07:03.000000Z</property>
  <property name="meta.attr.timecode.markup">06:07:03:08</property>
  <property name="seekable">1</property>
  <property name="meta.media.sample_aspect_num">1</property>
  <property name="meta.media.sample_aspect_den">1</property>
  <property name="aspect_ratio">1</property>
  <property name="kdenlive:folderid">18</property>
  <property name="meta.media.frame_rate_num">50</property>
  <property name="meta.media.frame_rate_den">1</property>
  <property name="meta.media.colorspace">709</property>
  <property name="meta.media.color_trc">1</property>
  <property name="meta.media.width">1920</property>
  <property name="meta.media.height">1080</property>
  <property name="meta.media.top_field_first">0</property>
  <property name="meta.media.progressive">1</property>
  <property name="kdenlive:file_size">1560293721</property>
  <property name="kdenlive:file_hash">bd1e6f48bc5cce2ea867955bc59977ea</property>
 </producer>
 <producer id="63" in="0" out="3049">
  <property name="length">00:01:01:00</property>
  <property name="eof">pause</property>
  <property name="resource">/media/bordun/plagiat2/CAM1_2019-01-05_0605_C0005.mov</property>
  <property name="audio_index">2</property>
  <property name="video_index">1</property>
  <property name="mute_on_pause">1</property>
  <property name="mlt_service">avformat-novalidate</property>
  <property name="meta.media.nb_streams">3</property>
  <property name="meta.media.1.stream.type">video</property>
  <property name="meta.media.1.stream.frame_rate">50</property>
  <property name="meta.media.1.stream.sample_aspect_ratio">1</property>
  <property name="meta.media.1.codec.width">1920</property>
  <property name="meta.media.1.codec.height">1080</property>
  <property name="meta.media.1.codec.rotate">0</property>
  <property name="meta.media.1.codec.frame_rate">5000</property>
  <property name="meta.media.1.codec.pix_fmt">yuv422p10le</property>
  <property name="meta.media.1.codec.sample_aspect_ratio">0</property>
  <property name="meta.media.1.codec.colorspace">709</property>
  <property name="meta.media.1.codec.color_trc">1</property>
  <property name="meta.media.1.codec.name">prores</property>
  <property name="meta.media.1.codec.long_name">ProRes</property>
  <property name="meta.media.1.codec.bit_rate">366958797</property>
  <property name="meta.attr.1.stream.creation_time.markup">2019-01-05T06:05:50.000000Z</property>
  <property name="meta.attr.1.stream.language.markup">eng</property>
  <property name="meta.attr.1.stream.handler_name.markup">Apple Alias Data Handler</property>
  <property name="meta.attr.1.stream.encoder.markup">Apple ProRes 422 HQ</property>
  <property name="meta.attr.1.stream.timecode.markup">06:05:50:13</property>
  <property name="meta.media.2.stream.type">audio</property>
  <property name="meta.media.2.codec.sample_fmt">s32</property>
  <property name="meta.media.2.codec.sample_rate">48000</property>
  <property name="meta.media.2.codec.channels">2</property>
  <property name="meta.media.2.codec.name">pcm_s24le</property>
  <property name="meta.media.2.codec.long_name">PCM signed 24-bit little-endian</property>
  <property name="meta.media.2.codec.bit_rate">2304000</property>
  <property name="meta.attr.2.stream.creation_time.markup">2019-01-05T06:05:50.000000Z</property>
  <property name="meta.attr.2.stream.language.markup">eng</property>
  <property name="meta.attr.2.stream.handler_name.markup">Apple Alias Data Handler</property>
  <property name="meta.attr.2.stream.timecode.markup">06:05:50:13</property>
  <property name="meta.attr.com.apple.proapps.manufacturer.markup">Blackmagic Design</property>
  <property name="meta.attr.com.apple.proapps.cameraName.markup">CAM1</property>
  <property name="meta.attr.com.apple.proapps.isGood.markup">0</property>
  <property name="meta.attr.com.apple.proapps.customgamma.markup">com.blackmagic-design.cinemacamera.filmlog</property>
  <property name="meta.attr.com.blackmagic-design.cinemacamera.uuid.markup">18E5E00548F94923B646613A73C01B56</property>
  <property name="meta.attr.creation_time.markup">2019-01-05T06:05:50.000000Z</property>
  <property name="meta.attr.timecode.markup">06:05:50:13</property>
  <property name="seekable">1</property>
  <property name="meta.media.sample_aspect_num">1</property>
  <property name="meta.media.sample_aspect_den">1</property>
  <property name="aspect_ratio">1</property>
  <property name="kdenlive:folderid">18</property>
  <property name="meta.media.frame_rate_num">50</property>
  <property name="meta.media.frame_rate_den">1</property>
  <property name="meta.media.colorspace">709</property>
  <property name="meta.media.color_trc">1</property>
  <property name="meta.media.width">1920</property>
  <property name="meta.media.height">1080</property>
  <property name="meta.media.top_field_first">0</property>
  <property name="meta.media.progressive">1</property>
  <property name="kdenlive:file_size">2815906853</property>
  <property name="kdenlive:file_hash">23a7c272941f6ead8c4c67cee7e89762</property>
 </producer>
 <producer id="66" in="0" out="249">
  <property name="length">250</property>
  <property name="eof">pause</property>
  <property name="resource">0xffffffff</property>
  <property name="aspect_ratio">1</property>
  <property name="mlt_service">color</property>
  <property name="kdenlive:clipname">Clip couleur</property>
  <property name="kdenlive:folderid">17</property>
  <property name="kdenlive:duration">250</property>
  <property name="kdenlive:file_hash">039b56a692cd66eefeea44a17539e5a2</property>
 </producer>
 <producer title="Anonymous Submission" id="68" in="0" out="9961">
  <property name="length">00:03:19:12</property>
  <property name="eof">pause</property>
  <property name="resource">/media/bordun/plagiat/Clip02_RespecteLaPuissancePapale/Assets/vhs_on_greenscreen_stock_footage_royalty_free_Suv1x2CK3xA_360p.mp4</property>
  <property name="audio_index">1</property>
  <property name="video_index">0</property>
  <property name="mute_on_pause">1</property>
  <property name="mlt_service">avformat-novalidate</property>
  <property name="meta.media.nb_streams">2</property>
  <property name="meta.media.0.stream.type">video</property>
  <property name="meta.media.0.stream.frame_rate">29,9701</property>
  <property name="meta.media.0.stream.sample_aspect_ratio">0</property>
  <property name="meta.media.0.codec.width">480</property>
  <property name="meta.media.0.codec.height">360</property>
  <property name="meta.media.0.codec.rotate">0</property>
  <property name="meta.media.0.codec.frame_rate">29,97</property>
  <property name="meta.media.0.codec.pix_fmt">yuv420p</property>
  <property name="meta.media.0.codec.sample_aspect_ratio">1</property>
  <property name="meta.media.0.codec.colorspace">601</property>
  <property name="meta.media.0.codec.name">h264</property>
  <property name="meta.media.0.codec.long_name">H.264 / AVC / MPEG-4 AVC / MPEG-4 part 10</property>
  <property name="meta.media.0.codec.bit_rate">298518</property>
  <property name="meta.attr.0.stream.creation_time.markup">2018-11-05T07:01:08.000000Z</property>
  <property name="meta.attr.0.stream.handler_name.markup">ISO Media file produced by Google Inc. Created on: 11/04/2018.</property>
  <property name="meta.media.1.stream.type">audio</property>
  <property name="meta.media.1.codec.sample_fmt">fltp</property>
  <property name="meta.media.1.codec.sample_rate">44100</property>
  <property name="meta.media.1.codec.channels">2</property>
  <property name="meta.media.1.codec.name">aac</property>
  <property name="meta.media.1.codec.long_name">AAC (Advanced Audio Coding)</property>
  <property name="meta.media.1.codec.bit_rate">95999</property>
  <property name="meta.attr.1.stream.creation_time.markup">2018-11-05T07:01:08.000000Z</property>
  <property name="meta.attr.1.stream.handler_name.markup">ISO Media file produced by Google Inc. Created on: 11/04/2018.</property>
  <property name="meta.attr.major_brand.markup">mp42</property>
  <property name="meta.attr.minor_version.markup">0</property>
  <property name="meta.attr.compatible_brands.markup">isommp42</property>
  <property name="meta.attr.creation_time.markup">2018-11-05T07:01:08.000000Z</property>
  <property name="seekable">1</property>
  <property name="meta.media.sample_aspect_num">1</property>
  <property name="meta.media.sample_aspect_den">1</property>
  <property name="aspect_ratio">1</property>
  <property name="kdenlive:file_size">9887889</property>
  <property name="kdenlive:file_hash">30a067bbfc9642db96df21e0922c6f06</property>
  <property name="global_feed">1</property>
  <property name="kdenlive:clipname">vhs_on_greenscreen_stock_footage_royalty_free_Suv1x2CK3xA_360p.mp4</property>
  <property name="meta.media.frame_rate_num">3731250</property>
  <property name="meta.media.frame_rate_den">124499</property>
  <property name="meta.media.colorspace">601</property>
  <property name="meta.media.color_trc">2</property>
  <property name="meta.media.width">480</property>
  <property name="meta.media.height">360</property>
  <property name="meta.media.top_field_first">0</property>
  <property name="meta.media.progressive">1</property>
 </producer>
 <producer title="Anonymous Submission" id="47" in="0" out="2273">
  <property name="length">2274</property>
  <property name="eof">pause</property>
  <property name="resource">/media/bordun/plagiat/Clip02_RespecteLaPuissancePapale/Assets/00_Intro-f002508.png</property>
  <property name="ttl">25</property>
  <property name="aspect_ratio">1</property>
  <property name="progressive">1</property>
  <property name="seekable">1</property>
  <property name="meta.media.width">1920</property>
  <property name="meta.media.height">1080</property>
  <property name="mlt_service">qimage</property>
  <property name="kdenlive:duration">250</property>
  <property name="kdenlive:file_size">19282</property>
  <property name="kdenlive:file_hash">76a9cd637760e41572e00d28295a3fff</property>
  <property name="kdenlive:folderid">17</property>
  <property name="global_feed">1</property>
 </producer>
 <producer title="Anonymous Submission" id="65" in="0" out="2273">
  <property name="length">2274</property>
  <property name="eof">pause</property>
  <property name="resource">/media/bordun/plagiat/Clip02_RespecteLaPuissancePapale/Assets/00_Intro-f002508-flou.png</property>
  <property name="ttl">25</property>
  <property name="aspect_ratio">1</property>
  <property name="progressive">1</property>
  <property name="seekable">1</property>
  <property name="meta.media.width">1920</property>
  <property name="meta.media.height">1080</property>
  <property name="mlt_service">qimage</property>
  <property name="kdenlive:folderid">17</property>
  <property name="kdenlive:duration">250</property>
  <property name="kdenlive:file_size">114547</property>
  <property name="kdenlive:file_hash">a195a819c4c60c5eeca5b1efc4d4633e</property>
  <property name="global_feed">1</property>
 </producer>
 <producer title="Anonymous Submission" id="70" in="0" out="432">
  <property name="length">433</property>
  <property name="eof">pause</property>
  <property name="resource">/media/bordun/plagiat/Clip02_RespecteLaPuissancePapale/Assets/tarantino_missy.png</property>
  <property name="ttl">25</property>
  <property name="aspect_ratio">1</property>
  <property name="progressive">1</property>
  <property name="seekable">1</property>
  <property name="meta.media.width">3757</property>
  <property name="meta.media.height">2453</property>
  <property name="mlt_service">qimage</property>
  <property name="kdenlive:folderid">17</property>
  <property name="kdenlive:duration">250</property>
  <property name="kdenlive:file_size">87724</property>
  <property name="kdenlive:file_hash">604eb2947964c940c9f9eb378e76ff21</property>
  <property name="global_feed">1</property>
 </producer>
 <producer title="Anonymous Submission" id="69" in="0" out="432">
  <property name="length">433</property>
  <property name="eof">pause</property>
  <property name="resource">/media/bordun/plagiat/Clip02_RespecteLaPuissancePapale/Assets/tarantino_nano.png</property>
  <property name="ttl">25</property>
  <property name="aspect_ratio">1</property>
  <property name="progressive">1</property>
  <property name="seekable">1</property>
  <property name="meta.media.width">3757</property>
  <property name="meta.media.height">2453</property>
  <property name="mlt_service">qimage</property>
  <property name="kdenlive:folderid">17</property>
  <property name="kdenlive:duration">250</property>
  <property name="kdenlive:file_size">83976</property>
  <property name="kdenlive:file_hash">7223e24acce4d09c05aa066ec3a9eb01</property>
  <property name="global_feed">1</property>
 </producer>
 <producer id="73" in="0" out="432">
  <property name="length">433</property>
  <property name="eof">pause</property>
  <property name="resource">/media/bordun/plagiat/Clip02_RespecteLaPuissancePapale/Assets/tarantino_nano_glasses.png</property>
  <property name="ttl">25</property>
  <property name="aspect_ratio">1</property>
  <property name="progressive">1</property>
  <property name="seekable">1</property>
  <property name="meta.media.width">3757</property>
  <property name="meta.media.height">2453</property>
  <property name="mlt_service">qimage</property>
  <property name="kdenlive:folderid">17</property>
  <property name="kdenlive:duration">250</property>
  <property name="kdenlive:file_size">37255</property>
  <property name="kdenlive:file_hash">c559d87f7a40ec30446740be825617ad</property>
 </producer>
 <producer id="74" in="0" out="432">
  <property name="length">433</property>
  <property name="eof">pause</property>
  <property name="resource">/media/bordun/plagiat/Clip02_RespecteLaPuissancePapale/Assets/tarantino_missy_glasses.png</property>
  <property name="ttl">25</property>
  <property name="aspect_ratio">1</property>
  <property name="progressive">1</property>
  <property name="seekable">1</property>
  <property name="meta.media.width">3757</property>
  <property name="meta.media.height">2453</property>
  <property name="mlt_service">qimage</property>
  <property name="kdenlive:folderid">17</property>
  <property name="kdenlive:duration">250</property>
  <property name="kdenlive:file_size">37565</property>
  <property name="kdenlive:file_hash">dd2de6b00441d729b2a01ba9a1e93800</property>
 </producer>
 <producer title="Anonymous Submission" id="42" in="0" out="2363">
  <property name="length">2364</property>
  <property name="eof">pause</property>
  <property name="resource">/media/bordun/plagiat/Clip02_RespecteLaPuissancePapale/Assets/tarantino.png</property>
  <property name="ttl">25</property>
  <property name="aspect_ratio">1</property>
  <property name="progressive">1</property>
  <property name="seekable">1</property>
  <property name="meta.media.width">3757</property>
  <property name="meta.media.height">2453</property>
  <property name="mlt_service">qimage</property>
  <property name="kdenlive:folderid">17</property>
  <property name="kdenlive:duration">250</property>
  <property name="kdenlive:file_size">1159536</property>
  <property name="kdenlive:file_hash">e5906706d0750f299fff4406743bc97e</property>
  <property name="global_feed">1</property>
 </producer>
 <producer title="Anonymous Submission" id="76" in="0" out="435">
  <property name="length">436</property>
  <property name="eof">pause</property>
  <property name="resource">/media/bordun/plagiat/Clip02_RespecteLaPuissancePapale/Assets/particules_grain.png</property>
  <property name="ttl">25</property>
  <property name="aspect_ratio">1</property>
  <property name="progressive">1</property>
  <property name="seekable">1</property>
  <property name="meta.media.width">3021</property>
  <property name="meta.media.height">2118</property>
  <property name="mlt_service">qimage</property>
  <property name="kdenlive:folderid">17</property>
  <property name="kdenlive:duration">250</property>
  <property name="kdenlive:file_size">92250</property>
  <property name="kdenlive:file_hash">63096b2f3aceff0f900d06fae66cc154</property>
  <property name="global_feed">1</property>
 </producer>
 <producer title="Anonymous Submission" id="75" in="0" out="432">
  <property name="length">433</property>
  <property name="eof">pause</property>
  <property name="resource">/media/bordun/plagiat/Clip02_RespecteLaPuissancePapale/Assets/particules.png</property>
  <property name="ttl">25</property>
  <property name="aspect_ratio">1</property>
  <property name="progressive">1</property>
  <property name="seekable">1</property>
  <property name="meta.media.width">1142</property>
  <property name="meta.media.height">1219</property>
  <property name="mlt_service">qimage</property>
  <property name="kdenlive:folderid">17</property>
  <property name="kdenlive:duration">250</property>
  <property name="kdenlive:file_size">171683</property>
  <property name="kdenlive:file_hash">8daadb4af29233cf57ce57bb935b90b4</property>
  <property name="global_feed">1</property>
 </producer>
 <producer title="Anonymous Submission" id="78" in="0" out="432">
  <property name="length">433</property>
  <property name="eof">pause</property>
  <property name="resource">/media/bordun/plagiat/Clip02_RespecteLaPuissancePapale/Assets/godray.png</property>
  <property name="ttl">25</property>
  <property name="aspect_ratio">1</property>
  <property name="progressive">1</property>
  <property name="seekable">1</property>
  <property name="meta.media.width">3757</property>
  <property name="meta.media.height">2453</property>
  <property name="mlt_service">qimage</property>
  <property name="kdenlive:folderid">17</property>
  <property name="kdenlive:duration">250</property>
  <property name="kdenlive:file_size">312482</property>
  <property name="kdenlive:file_hash">a78f9de7f5bcdc4b7ffe09976d46d060</property>
  <property name="global_feed">1</property>
 </producer>
 <playlist id="main bin">
  <property name="kdenlive:docproperties.audiotargettrack">2</property>
  <property name="kdenlive:docproperties.decimalPoint">,</property>
  <property name="kdenlive:docproperties.dirtypreviewchunks">0,25,50,75,100,125,150,175,200,225,250,275,300,325,350,375,400,425,450,475,500,525,550,575,600,625,650,675,700,725,750,775,800,825,850,875,900,925,950,975,1000,1025,1050,1075,1100,1125,1150,1175,1200,1225,1250,1275,1300,1325,1350,1375,1400,1425,1450,1475,1500,1525,1550,1575,1600,1625,1650,1675,1700,1725,1750,1775,1800,1825,1850,1875,1900,1925,1950,1975,2000,2025,2050,2075,2100,2125,2150,2175,2200,2225,2250,2275,2300,2325,2350,2375,2400,2425,2450,2475,2500,2525,2550,2575,2600,2625,2650,2675,2700,2725,2750,2775,2800,2825,2850,2875,2900,2925,2950,2975,3000,3025,3050,3075,3100,3125,3150,3175,3200,3225,3250,3275,3300,3325,3350,3375,3400,3425,3450,3475,3500,3525,3550,3575,3600,3625,3650,3675,3700,3725,3750,3775,3800,3825,3850,3875,3900,3925,3950,3975,4000,4025,4050,4075,4100,4125,4150,4175,4200,4225,4250,4275,4300,4325,4350,4375,4400,4425,4450,4475,4500,4525,4550,4575,4600,4625,4650,4675,4700,4725,4750,4775,4800,4825,4850,4875,4900,4925,4950</property>
  <property name="kdenlive:docproperties.disablepreview">0</property>
  <property name="kdenlive:docproperties.documentid">1547739419641</property>
  <property name="kdenlive:docproperties.enableproxy">0</property>
  <property name="kdenlive:docproperties.generateimageproxy">0</property>
  <property name="kdenlive:docproperties.generateproxy">1</property>
  <property name="kdenlive:docproperties.kdenliveversion">18.12.1</property>
  <property name="kdenlive:docproperties.position">2583</property>
  <property name="kdenlive:docproperties.previewchunks"/>
  <property name="kdenlive:docproperties.previewextension">mov</property>
  <property name="kdenlive:docproperties.previewparameters">r=50 s=1920x1080 vb=72M threads=0 vcodec=dnxhd</property>
  <property name="kdenlive:docproperties.profile">atsc_1080p_50</property>
  <property name="kdenlive:docproperties.proxyextension">mkv</property>
  <property name="kdenlive:docproperties.proxyimageminsize">2000</property>
  <property name="kdenlive:docproperties.proxyminsize">1000</property>
  <property name="kdenlive:docproperties.proxyparams">-vf yadif,scale=960:-2 -qscale 3 -vcodec mjpeg -acodec pcm_s16le</property>
  <property name="kdenlive:docproperties.version">0.96</property>
  <property name="kdenlive:docproperties.verticalzoom">1</property>
  <property name="kdenlive:docproperties.videotargettrack">5</property>
  <property name="kdenlive:docproperties.zonein">483</property>
  <property name="kdenlive:docproperties.zoneout">4554</property>
  <property name="kdenlive:docproperties.zoom">7</property>
  <property name="kdenlive:documentnotes"/>
  <property name="kdenlive:clipgroups"/>
  <property name="kdenlive:folder.-1.5">Part I - Le5</property>
  <property name="kdenlive:folder.-1.6">Part II - Ballade</property>
  <property name="kdenlive:folder.-1.7">Part III - AfroTrap</property>
  <property name="kdenlive:folder.5.9">Autel</property>
  <property name="kdenlive:folder.5.10">ContrePlongee</property>
  <property name="kdenlive:folder.6.11">NanoChiottes</property>
  <property name="kdenlive:folder.6.12">MissyPiano</property>
  <property name="kdenlive:folder.5.13">Trap</property>
  <property name="kdenlive:folder.5.14">InstruRefrain</property>
  <property name="kdenlive:folder.-1.15">Part IV - Meshuggah</property>
  <property name="kdenlive:docproperties.renderaudioquality">256</property>
  <property name="kdenlive:docproperties.rendercategory">Personnalisé</property>
  <property name="kdenlive:docproperties.renderendguide">-1</property>
  <property name="kdenlive:docproperties.renderexportaudio">2</property>
  <property name="kdenlive:docproperties.renderguide">0</property>
  <property name="kdenlive:docproperties.renderplay">0</property>
  <property name="kdenlive:docproperties.renderprofile">MP4HD</property>
  <property name="kdenlive:docproperties.renderquality">19</property>
  <property name="kdenlive:docproperties.renderratio">1</property>
  <property name="kdenlive:docproperties.renderrescale">1</property>
  <property name="kdenlive:docproperties.renderrescaleheight">720</property>
  <property name="kdenlive:docproperties.renderrescalewidth">1280</property>
  <property name="kdenlive:docproperties.renderscanning">0</property>
  <property name="kdenlive:docproperties.renderspeed">2</property>
  <property name="kdenlive:docproperties.renderstartguide">-1</property>
  <property name="kdenlive:docproperties.rendertcoverlay">0</property>
  <property name="kdenlive:docproperties.rendertctype">0</property>
  <property name="kdenlive:docproperties.rendertwopass">0</property>
  <property name="kdenlive:docproperties.renderurl">/media/bordun/plagiat/Clip02_RespecteLaPuissancePapale/Rendus/2019-01-28-RLPP-Intro-test.mp4</property>
  <property name="kdenlive:docproperties.renderzone">1</property>
  <property name="kdenlive:folder.-1.16">Colors</property>
  <property name="kdenlive:customeffects">&lt;customeffects>
 &lt;effect type="custom" unique="1" id="rumble" tag="oldfilm" kdenlive_info="0/-1/" effectcolor="#c92c3e" disable="0">
  &lt;name>rumble&lt;/name>
  &lt;description>Moves the Picture up and down and random brightness change&lt;/description>
  &lt;author>Marco Gittler&lt;/author>
  &lt;parameter type="double" name="delta" value="11" min="0" max="400" default="14">
   &lt;name>Y-Delta&lt;/name>
  &lt;/parameter>
  &lt;parameter type="double" suffix="%" name="every" value="100" min="0" max="100" default="20">
   &lt;name>% of picture have a delta&lt;/name>
  &lt;/parameter>
  &lt;parameter type="double" name="brightnessdelta_up" value="0" min="0" max="100" default="20">
   &lt;name>Brightness up&lt;/name>
  &lt;/parameter>
  &lt;parameter type="double" name="brightnessdelta_down" value="0" min="0" max="100" default="30">
   &lt;name>Brightness down&lt;/name>
  &lt;/parameter>
  &lt;parameter type="double" suffix="%" name="brightnessdelta_every" value="100" min="0" max="100" default="70">
   &lt;name>Brightness every&lt;/name>
  &lt;/parameter>
  &lt;parameter type="double" name="unevendevelop_up" value="0" min="0" max="100" default="60">
   &lt;name>Unevendevelop up&lt;/name>
  &lt;/parameter>
  &lt;parameter type="double" name="unevendevelop_down" value="0" min="0" max="100" default="20">
   &lt;name>Unevendevelop down&lt;/name>
  &lt;/parameter>
  &lt;parameter type="double" name="unevendevelop_duration" value="0" min="0" max="10000" default="70">
   &lt;name>Unevendevelop Duration&lt;/name>
  &lt;/parameter>
  &lt;version>0,2&lt;/version>
  &lt;version>0,2&lt;/version>
 &lt;/effect>
&lt;/customeffects>
</property>
  <property name="kdenlive:folder.-1.17">Logo</property>
  <property name="kdenlive:folder.-1.18">Lavaré</property>
  <property name="kdenlive:guide.54,64">00:00:54:32</property>
  <property name="xml_retain">1</property>
  <entry producer="1" in="0" out="14561"/>
  <entry producer="5" in="0" out="19246"/>
  <entry producer="4" in="0" out="24870"/>
  <entry producer="3" in="0" out="11635"/>
  <entry producer="2" in="0" out="11667"/>
  <entry producer="6" in="0" out="4178"/>
  <entry producer="7" in="0" out="8532"/>
  <entry producer="16" in="0" out="2403"/>
  <entry producer="17" in="0" out="2706"/>
  <entry producer="18" in="0" out="1547"/>
  <entry producer="19" in="0" out="2823"/>
  <entry producer="20" in="0" out="995"/>
  <entry producer="21" in="0" out="8367"/>
  <entry producer="23" in="0" out="90"/>
  <entry producer="24" in="0" out="2194"/>
  <entry producer="22" in="0" out="2303"/>
  <entry producer="14" in="0" out="3805"/>
  <entry producer="15" in="0" out="3941"/>
  <entry producer="10" in="0" out="3856"/>
  <entry producer="9" in="0" out="7720"/>
  <entry producer="11" in="0" out="21338"/>
  <entry producer="8" in="0" out="21621"/>
  <entry producer="25" in="0" out="4317"/>
  <entry producer="26" in="0" out="2406"/>
  <entry producer="13" in="0" out="4748"/>
  <entry producer="12" in="0" out="23600"/>
  <entry producer="27" in="0" out="7640"/>
  <entry producer="28" in="0" out="7733"/>
  <entry producer="29" in="0" out="249"/>
  <entry producer="30" in="0" out="249"/>
  <entry producer="32" in="0" out="252"/>
  <entry producer="33" in="0" out="252"/>
  <entry producer="34" in="0" out="252"/>
  <blank length="250"/>
  <entry producer="36" in="0" out="250"/>
  <entry producer="37" in="0" out="44957"/>
  <entry producer="38" in="0" out="250"/>
  <entry producer="39" in="0" out="250"/>
  <entry producer="40" in="0" out="18113"/>
  <entry producer="41" in="0" out="497"/>
  <entry producer="43" in="0" out="249"/>
  <entry producer="44" in="0" out="249"/>
  <entry producer="45" in="0" out="249"/>
  <entry producer="46" in="0" out="249"/>
  <entry producer="48" in="0" out="43907"/>
  <entry producer="49" in="0" out="3983"/>
  <entry producer="50" in="0" out="5323"/>
  <entry producer="51" in="0" out="9041"/>
  <entry producer="52" in="0" out="3953"/>
  <entry producer="53" in="0" out="5863"/>
  <entry producer="54" in="0" out="6601"/>
  <entry producer="55" in="0" out="10077"/>
  <entry producer="56" in="0" out="10454"/>
  <entry producer="57" in="0" out="19885"/>
  <entry producer="58" in="0" out="9289"/>
  <entry producer="59" in="0" out="10702"/>
  <entry producer="60" in="0" out="11268"/>
  <entry producer="61" in="0" out="42317"/>
  <entry producer="62" in="0" out="1689"/>
  <entry producer="63" in="0" out="3049"/>
  <entry producer="66" in="0" out="249"/>
  <entry producer="68" in="0" out="9961"/>
  <entry producer="47" in="0" out="451"/>
  <entry producer="65" in="0" out="451"/>
  <blank length="2856"/>
  <entry producer="70" in="0" out="432"/>
  <entry producer="69" in="0" out="432"/>
  <entry producer="73" in="0" out="249"/>
  <entry producer="74" in="0" out="249"/>
  <entry producer="42" in="0" out="2363"/>
  <entry producer="76" in="0" out="435"/>
  <entry producer="75" in="0" out="432"/>
  <entry producer="78" in="0" out="432"/>
 </playlist>
 <producer id="black" in="0" out="114270">
  <property name="length">114271</property>
  <property name="eof">pause</property>
  <property name="resource">black</property>
  <property name="aspect_ratio">0</property>
  <property name="mlt_service">colour</property>
  <property name="set.test_audio">0</property>
 </producer>
 <playlist id="black_track">
  <entry producer="black" in="0" out="2800"/>
 </playlist>
 <playlist id="playlist1">
  <property name="kdenlive:audio_track">1</property>
  <property name="kdenlive:track_name">Audio 2</property>
 </playlist>
 <producer title="Anonymous Submission" id="41_playlist2" in="0" out="497">
  <property name="length">00:00:09:48</property>
  <property name="eof">pause</property>
  <property name="resource">/media/bordun/plagiat/Clip02_RespecteLaPuissancePapale/Audio/Slow_HeartBeat-Mike_Koenig-1853475164.wav</property>
  <property name="audio_index">0</property>
  <property name="video_index">-1</property>
  <property name="mute_on_pause">1</property>
  <property name="mlt_service">avformat-novalidate</property>
  <property name="seekable">1</property>
  <property name="kdenlive:file_size">1758560</property>
  <property name="kdenlive:file_hash">3dd7131bb30ff6012c9716429df176ee</property>
  <property name="global_feed">1</property>
  <property name="xml">was here</property>
  <property name="meta.media.nb_streams">1</property>
  <property name="meta.media.0.stream.type">audio</property>
  <property name="meta.media.0.codec.sample_fmt">s16</property>
  <property name="meta.media.0.codec.sample_rate">44100</property>
  <property name="meta.media.0.codec.channels">2</property>
  <property name="meta.media.0.codec.name">pcm_s16le</property>
  <property name="meta.media.0.codec.long_name">PCM signed 16-bit little-endian</property>
  <property name="meta.media.0.codec.bit_rate">1411200</property>
  <property name="meta.attr.artist.markup">Mike Koenig</property>
  <property name="meta.attr.title.markup">Slow HeartBeat</property>
 </producer>
 <playlist id="playlist2">
  <property name="kdenlive:audio_track">1</property>
  <property name="kdenlive:track_name">Audio 1</property>
  <blank length="55"/>
  <entry producer="41_playlist2" in="367" out="491">
   <filter id="fadein" in="367" out="368">
    <property name="window">75</property>
    <property name="max_gain">20dB</property>
    <property name="mlt_service">volume</property>
    <property name="kdenlive_id">fadein</property>
    <property name="tag">volume</property>
    <property name="kdenlive_ix">1</property>
    <property name="kdenlive_info"/>
    <property name="disable"/>
    <property name="gain">0</property>
    <property name="end">1</property>
   </filter>
   <filter id="fadeout" in="490" out="491">
    <property name="window">75</property>
    <property name="max_gain">20dB</property>
    <property name="mlt_service">volume</property>
    <property name="kdenlive_id">fadeout</property>
    <property name="tag">volume</property>
    <property name="kdenlive_ix">2</property>
    <property name="kdenlive_info"/>
    <property name="disable"/>
    <property name="gain">1</property>
    <property name="end">0</property>
   </filter>
  </entry>
  <entry producer="41_playlist2" in="367" out="495">
   <filter id="filter11" in="367" out="368">
    <property name="window">75</property>
    <property name="max_gain">20dB</property>
    <property name="mlt_service">volume</property>
    <property name="kdenlive_id">fadein</property>
    <property name="tag">volume</property>
    <property name="kdenlive_ix">1</property>
    <property name="kdenlive_info"/>
    <property name="disable"/>
    <property name="gain">0</property>
    <property name="end">1</property>
   </filter>
   <filter id="filter12" in="494" out="495">
    <property name="window">75</property>
    <property name="max_gain">20dB</property>
    <property name="mlt_service">volume</property>
    <property name="kdenlive_id">fadeout</property>
    <property name="tag">volume</property>
    <property name="kdenlive_ix">2</property>
    <property name="gain">1</property>
    <property name="end">0</property>
   </filter>
  </entry>
  <entry producer="41_playlist2" in="122" out="181">
   <filter id="filter13" in="122" out="123">
    <property name="window">75</property>
    <property name="max_gain">20dB</property>
    <property name="mlt_service">volume</property>
    <property name="kdenlive_id">fadein</property>
    <property name="tag">volume</property>
    <property name="kdenlive_ix">1</property>
    <property name="gain">0</property>
    <property name="end">1</property>
   </filter>
   <filter id="filter14" in="180" out="181">
    <property name="window">75</property>
    <property name="max_gain">20dB</property>
    <property name="mlt_service">volume</property>
    <property name="kdenlive_id">fadeout</property>
    <property name="tag">volume</property>
    <property name="kdenlive_ix">2</property>
    <property name="gain">1</property>
    <property name="end">0</property>
   </filter>
  </entry>
  <entry producer="41_playlist2" in="122" out="140">
   <filter id="filter15" in="122" out="123">
    <property name="window">75</property>
    <property name="max_gain">20dB</property>
    <property name="mlt_service">volume</property>
    <property name="kdenlive_id">fadein</property>
    <property name="tag">volume</property>
    <property name="kdenlive_ix">1</property>
    <property name="kdenlive_info"/>
    <property name="gain">0</property>
    <property name="end">1</property>
   </filter>
   <filter id="filter16" in="136" out="140">
    <property name="window">75</property>
    <property name="max_gain">20dB</property>
    <property name="mlt_service">volume</property>
    <property name="kdenlive_id">fadeout</property>
    <property name="tag">volume</property>
    <property name="kdenlive_ix">2</property>
    <property name="gain">1</property>
    <property name="end">0</property>
   </filter>
  </entry>
  <blank length="6"/>
  <entry producer="41_playlist2" in="138" out="181">
   <filter id="filter17" in="175" out="182">
    <property name="window">75</property>
    <property name="max_gain">20dB</property>
    <property name="mlt_service">volume</property>
    <property name="kdenlive_id">fadeout</property>
    <property name="tag">volume</property>
    <property name="kdenlive_ix">1</property>
    <property name="kdenlive_info"/>
    <property name="disable"/>
    <property name="gain">1</property>
    <property name="end">0</property>
   </filter>
   <filter id="filter18" in="138" out="141">
    <property name="window">75</property>
    <property name="max_gain">20dB</property>
    <property name="mlt_service">volume</property>
    <property name="kdenlive_id">fadein</property>
    <property name="tag">volume</property>
    <property name="kdenlive_ix">2</property>
    <property name="kdenlive_info"/>
    <property name="gain">0</property>
    <property name="end">1</property>
   </filter>
  </entry>
 </playlist>
 <producer title="Anonymous Submission" id="37_playlist11" in="0" out="44957">
  <property name="length">00:14:59:08</property>
  <property name="eof">pause</property>
  <property name="resource">/media/bordun/plagiat/Clip02_RespecteLaPuissancePapale/Audio/Best Epic Classical Music - Choir.mp3</property>
  <property name="audio_index">0</property>
  <property name="video_index">-1</property>
  <property name="mute_on_pause">1</property>
  <property name="mlt_service">avformat-novalidate</property>
  <property name="seekable">1</property>
  <property name="kdenlive:file_size">14387128</property>
  <property name="kdenlive:file_hash">ca245b7d49dd4565addcb92a32f61a20</property>
  <property name="global_feed">1</property>
  <property name="xml">was here</property>
  <property name="meta.media.nb_streams">1</property>
  <property name="meta.media.0.stream.type">audio</property>
  <property name="meta.media.0.codec.sample_fmt">s16p</property>
  <property name="meta.media.0.codec.sample_rate">44100</property>
  <property name="meta.media.0.codec.channels">2</property>
  <property name="meta.media.0.codec.name">mp3</property>
  <property name="meta.media.0.codec.long_name">MP3 (MPEG audio layer 3)</property>
  <property name="meta.media.0.codec.bit_rate">128000</property>
  <property name="meta.attr.0.stream.encoder.markup">Lavc57.64</property>
  <property name="meta.attr.major_brand.markup">mp42</property>
  <property name="meta.attr.minor_version.markup">0</property>
  <property name="meta.attr.compatible_brands.markup">isommp42</property>
  <property name="meta.attr.encoder.markup">Lavf57.56.100</property>
 </producer>
 <playlist id="playlist11">
  <property name="kdenlive:track_name">Audio 3</property>
  <property name="kdenlive:audio_track">1</property>
  <blank length="1829"/>
  <entry producer="37_playlist11" in="34527" out="35478">
   <filter id="filter19" in="34527" out="34529">
    <property name="window">75</property>
    <property name="max_gain">20dB</property>
    <property name="mlt_service">volume</property>
    <property name="kdenlive_id">fadein</property>
    <property name="tag">volume</property>
    <property name="kdenlive_ix">1</property>
    <property name="kdenlive_info"/>
    <property name="disable"/>
    <property name="gain">0</property>
    <property name="end">1</property>
   </filter>
   <filter id="filter20" in="35410" out="35478">
    <property name="window">75</property>
    <property name="max_gain">20dB</property>
    <property name="mlt_service">volume</property>
    <property name="kdenlive_id">fadeout</property>
    <property name="tag">volume</property>
    <property name="kdenlive_ix">2</property>
    <property name="gain">1</property>
    <property name="end">0</property>
   </filter>
  </entry>
 </playlist>
 <producer title="Anonymous Submission" id="37_playlist15" in="0" out="44957">
  <property name="length">00:14:59:08</property>
  <property name="eof">pause</property>
  <property name="resource">/media/bordun/plagiat/Clip02_RespecteLaPuissancePapale/Audio/Best Epic Classical Music - Choir.mp3</property>
  <property name="audio_index">0</property>
  <property name="video_index">-1</property>
  <property name="mute_on_pause">1</property>
  <property name="mlt_service">avformat-novalidate</property>
  <property name="seekable">1</property>
  <property name="kdenlive:file_size">14387128</property>
  <property name="kdenlive:file_hash">ca245b7d49dd4565addcb92a32f61a20</property>
  <property name="global_feed">1</property>
  <property name="xml">was here</property>
  <property name="meta.media.nb_streams">1</property>
  <property name="meta.media.0.stream.type">audio</property>
  <property name="meta.media.0.codec.sample_fmt">s16p</property>
  <property name="meta.media.0.codec.sample_rate">44100</property>
  <property name="meta.media.0.codec.channels">2</property>
  <property name="meta.media.0.codec.name">mp3</property>
  <property name="meta.media.0.codec.long_name">MP3 (MPEG audio layer 3)</property>
  <property name="meta.media.0.codec.bit_rate">128000</property>
  <property name="meta.attr.0.stream.encoder.markup">Lavc57.64</property>
  <property name="meta.attr.major_brand.markup">mp42</property>
  <property name="meta.attr.minor_version.markup">0</property>
  <property name="meta.attr.compatible_brands.markup">isommp42</property>
  <property name="meta.attr.encoder.markup">Lavf57.56.100</property>
 </producer>
 <playlist id="playlist15">
  <property name="kdenlive:track_name">Audio 4</property>
  <property name="kdenlive:audio_track">1</property>
  <blank length="477"/>
  <entry producer="37_playlist15" in="33152" out="34526">
   <filter id="filter21" in="33152" out="33154">
    <property name="window">75</property>
    <property name="max_gain">20dB</property>
    <property name="mlt_service">volume</property>
    <property name="kdenlive_id">fadein</property>
    <property name="tag">volume</property>
    <property name="kdenlive_ix">1</property>
    <property name="kdenlive_info"/>
    <property name="disable"/>
    <property name="gain">0</property>
    <property name="end">1</property>
   </filter>
   <filter id="filter22" in="34522" out="34526">
    <property name="window">75</property>
    <property name="max_gain">20dB</property>
    <property name="mlt_service">volume</property>
    <property name="kdenlive_id">fadeout</property>
    <property name="tag">volume</property>
    <property name="kdenlive_ix">2</property>
    <property name="kdenlive_info"/>
    <property name="disable"/>
    <property name="gain">1</property>
    <property name="end">0</property>
   </filter>
  </entry>
 </playlist>
 <playlist id="playlist3">
  <property name="kdenlive:track_name">Vidéo 1</property>
 </playlist>
 <playlist id="playlist12">
  <property name="kdenlive:track_name">Vidéo 10</property>
 </playlist>
 <playlist id="playlist4">
  <property name="kdenlive:track_name">Vidéo 2</property>
 </playlist>
 <playlist id="playlist5">
  <property name="kdenlive:track_name">Vidéo 3</property>
  <blank length="2368"/>
  <entry producer="42" in="108" out="539">
   <filter id="qtblend">
    <property name="rotate_center">1</property>
    <property name="mlt_service">qtblend</property>
    <property name="kdenlive_id">qtblend</property>
    <property name="tag">qtblend</property>
    <property name="kdenlive_info">0/-1/</property>
    <property name="kdenlive_ix">1</property>
    <property name="disable">0</property>
    <property name="rect">0=-1443 -806 4608 2592 1;17=-1458 -800 4608 2592 1;42=-1375 -758 4416 2484 1;50=-1375 -758 4416 2484 1;86=-1279 -708 4224 2376 1;108=-1265,17 -700,264 4196,15 2360,33 1;539=-883 -471 3427 1928 1</property>
    <property name="rotation">0=2;17=2;42=2;50=2;86=2;108=2;539=2</property>
    <property name="compositing">0</property>
    <property name="distort">0</property>
   </filter>
  </entry>
 </playlist>
 <playlist id="playlist0">
  <property name="kdenlive:track_name">Vidéo 4</property>
  <property name="kdenlive:locked_track">0</property>
  <blank length="2368"/>
  <entry producer="75" in="0" out="431">
   <filter id="filter23">
    <property name="rotate_center">1</property>
    <property name="mlt_service">qtblend</property>
    <property name="kdenlive_id">qtblend</property>
    <property name="tag">qtblend</property>
    <property name="kdenlive_ix">1</property>
    <property name="rect">0=309 -170 1066 599 1;431=141 -514 1344 756 1</property>
    <property name="rotation">0=0;431=0</property>
    <property name="compositing">0</property>
    <property name="distort">0</property>
    <property name="kdenlive_info"/>
    <property name="disable"/>
   </filter>
   <filter id="mirror">
    <property name="mirror">flip</property>
    <property name="mlt_service">mirror</property>
    <property name="kdenlive_id">mirror</property>
    <property name="tag">mirror</property>
    <property name="kdenlive_ix">2</property>
    <property name="reverse">0</property>
    <property name="kdenlive_info">0/-1/</property>
   </filter>
   <filter id="frei0r.glitch0r">
    <property name="version">0,1</property>
    <property name="mlt_service">frei0r.glitch0r</property>
    <property name="kdenlive_id">frei0r.glitch0r</property>
    <property name="tag">frei0r.glitch0r</property>
    <property name="kdenlive_ix">3</property>
    <property name="0">0,118</property>
    <property name="1">0,001</property>
    <property name="2">0,001</property>
    <property name="3">0</property>
    <property name="kdenlive_info"/>
    <property name="disable">0</property>
   </filter>
   <filter id="filter25">
    <property name="mirror">flip</property>
    <property name="mlt_service">mirror</property>
    <property name="kdenlive_id">mirror</property>
    <property name="tag">mirror</property>
    <property name="kdenlive_ix">4</property>
    <property name="reverse">0</property>
    <property name="kdenlive_info"/>
   </filter>
   <filter id="frei0r.saturat0r">
    <property name="version">0,3</property>
    <property name="mlt_service">frei0r.saturat0r</property>
    <property name="kdenlive_id">frei0r.saturat0r</property>
    <property name="tag">frei0r.saturat0r</property>
    <property name="kdenlive_ix">5</property>
    <property name="Saturation">0=0,046</property>
    <property name="kdenlive_info"/>
   </filter>
  </entry>
 </playlist>
 <playlist id="playlist6">
  <property name="kdenlive:track_name">Vidéo 5</property>
  <blank length="2368"/>
  <entry producer="69" in="0" out="431">
   <filter id="filter26">
    <property name="rotate_center">1</property>
    <property name="mlt_service">qtblend</property>
    <property name="kdenlive_id">qtblend</property>
    <property name="tag">qtblend</property>
    <property name="kdenlive_ix">1</property>
    <property name="rect">0=-1265 -700 4196 2360 1;306=-966,81 -609,833 3650,03 2053,29 1;431=-845 -573 3427 1928 1</property>
    <property name="rotation">0=0;306=0;431=0</property>
    <property name="compositing">0</property>
    <property name="distort">0</property>
    <property name="kdenlive_info"/>
    <property name="disable"/>
   </filter>
  </entry>
 </playlist>
 <producer id="slowmotion:2:0,5:1:0" in="0" out="23335">
  <property name="length">23336</property>
  <property name="eof">pause</property>
  <property name="resource">0,5:/media/bordun/plagiat/2018-12-10_Plagiat_RespecteLaPuissancePapale/Carte_1/CAM1_2018-12-10_1552_C0001.mov</property>
  <property name="aspect_ratio">1</property>
  <property name="meta.media.nb_streams">3</property>
  <property name="meta.media.1.stream.type">video</property>
  <property name="meta.media.1.stream.frame_rate">50</property>
  <property name="meta.media.1.stream.sample_aspect_ratio">1</property>
  <property name="meta.media.1.codec.width">1920</property>
  <property name="meta.media.1.codec.height">1080</property>
  <property name="meta.media.1.codec.rotate">0</property>
  <property name="meta.media.1.codec.frame_rate">5000</property>
  <property name="meta.media.1.codec.pix_fmt">yuv422p10le</property>
  <property name="meta.media.1.codec.sample_aspect_ratio">0</property>
  <property name="meta.media.1.codec.colorspace">709</property>
  <property name="meta.media.1.codec.color_trc">1</property>
  <property name="meta.media.1.codec.name">prores</property>
  <property name="meta.media.1.codec.long_name">ProRes</property>
  <property name="meta.media.1.codec.bit_rate">366959328</property>
  <property name="meta.attr.1.stream.creation_time.markup">2018-12-10T15:52:13.000000Z</property>
  <property name="meta.attr.1.stream.language.markup">eng</property>
  <property name="meta.attr.1.stream.handler_name.markup">Apple Alias Data Handler</property>
  <property name="meta.attr.1.stream.encoder.markup">Apple ProRes 422 HQ</property>
  <property name="meta.attr.1.stream.timecode.markup">15:52:13:35</property>
  <property name="meta.media.2.stream.type">audio</property>
  <property name="meta.media.2.codec.sample_fmt">s32</property>
  <property name="meta.media.2.codec.sample_rate">48000</property>
  <property name="meta.media.2.codec.channels">2</property>
  <property name="meta.media.2.codec.name">pcm_s24le</property>
  <property name="meta.media.2.codec.long_name">PCM signed 24-bit little-endian</property>
  <property name="meta.media.2.codec.bit_rate">2304000</property>
  <property name="meta.attr.2.stream.creation_time.markup">2018-12-10T15:52:13.000000Z</property>
  <property name="meta.attr.2.stream.language.markup">eng</property>
  <property name="meta.attr.2.stream.handler_name.markup">Apple Alias Data Handler</property>
  <property name="meta.attr.2.stream.timecode.markup">15:52:13:35</property>
  <property name="meta.attr.com.apple.proapps.manufacturer.markup">Blackmagic Design</property>
  <property name="meta.attr.com.apple.proapps.cameraName.markup">CAM1</property>
  <property name="meta.attr.com.apple.proapps.isGood.markup">0</property>
  <property name="meta.attr.com.apple.proapps.customgamma.markup">com.blackmagic-design.cinemacamera.filmlog</property>
  <property name="meta.attr.com.blackmagic-design.cinemacamera.uuid.markup">18E5E00548F94923B646613A73C01B56</property>
  <property name="meta.attr.creation_time.markup">2018-12-10T15:52:13.000000Z</property>
  <property name="meta.attr.timecode.markup">15:52:13:35</property>
  <property name="seekable">1</property>
  <property name="meta.media.sample_aspect_num">1</property>
  <property name="meta.media.sample_aspect_den">1</property>
  <property name="audio_index">2</property>
  <property name="video_index">1</property>
  <property name="mute_on_pause">1</property>
  <property name="warp_speed">0,5</property>
  <property name="warp_resource">/media/bordun/plagiat/2018-12-10_Plagiat_RespecteLaPuissancePapale/Carte_1/CAM1_2018-12-10_1552_C0001.mov</property>
  <property name="mlt_service">timewarp</property>
  <property name="meta.media.frame_rate_num">50</property>
  <property name="meta.media.frame_rate_den">1</property>
  <property name="meta.media.colorspace">709</property>
  <property name="meta.media.color_trc">1</property>
  <property name="meta.media.width">1920</property>
  <property name="meta.media.height">1080</property>
  <property name="meta.media.top_field_first">0</property>
  <property name="meta.media.progressive">1</property>
  <filter id="filter27">
   <property name="version">0,1</property>
   <property name="mlt_service">frei0r.colgate</property>
   <property name="kdenlive_id">frei0r.colgate</property>
   <property name="tag">frei0r.colgate</property>
   <property name="kdenlive_ix">1</property>
   <property name="kdenlive_info"/>
   <property name="Neutral Color">0x7f7f7fff</property>
   <property name="Color Temperature">0=0,533333</property>
  </filter>
  <filter id="filter28">
   <property name="version">0,3</property>
   <property name="mlt_service">frei0r.levels</property>
   <property name="kdenlive_id">frei0r.levels</property>
   <property name="tag">frei0r.levels</property>
   <property name="kdenlive_ix">2</property>
   <property name="kdenlive_info"/>
   <property name="Channel">0,3</property>
   <property name="Input black level">0=0</property>
   <property name="Input white level">0=0,65</property>
   <property name="Gamma">0=0,25</property>
   <property name="Black output">0=0</property>
   <property name="White output">0=1</property>
   <property name="Show histogram">0</property>
   <property name="Histogram position">0,3</property>
  </filter>
 </producer>
 <playlist id="playlist7">
  <property name="kdenlive:track_name">Vidéo 6</property>
  <property name="kdenlive:locked_track">0</property>
  <blank length="859"/>
  <entry producer="slowmotion:2:0,5:1:0" in="9336" out="9589">
   <filter id="filter29" in="9336" out="9589">
    <property name="background">colour:0x00000000</property>
    <property name="mlt_service">affine</property>
    <property name="kdenlive_id">pan_zoom</property>
    <property name="tag">affine</property>
    <property name="kdenlive_ix">2</property>
    <property name="transition.geometry">0=-192/-108:2304x1296:100;253=0/0:1920x1080:100</property>
    <property name="transition.distort">0</property>
    <property name="kdenlive:sync_in_out">1</property>
    <property name="kdenlive_info"/>
    <property name="disable"/>
   </filter>
  </entry>
  <blank length="281"/>
  <entry producer="slowmotion:2:0,5:1:0" in="9945" out="10178">
   <filter id="filter30" in="9945" out="10178">
    <property name="background">colour:0x00000000</property>
    <property name="mlt_service">affine</property>
    <property name="kdenlive_id">pan_zoom</property>
    <property name="tag">affine</property>
    <property name="kdenlive_ix">2</property>
    <property name="transition.geometry">0=-192/-108:2304x1296:100;594=0/0:1920x1080:100</property>
    <property name="transition.distort">0</property>
    <property name="kdenlive:sync_in_out">1</property>
    <property name="kdenlive_info"/>
    <property name="disable">0</property>
   </filter>
  </entry>
  <blank length="208"/>
  <entry producer="slowmotion:2:0,5:1:0" in="10379" out="10514"/>
  <blank length="396"/>
  <entry producer="70" in="0" out="431">
   <filter id="filter31">
    <property name="rotate_center">1</property>
    <property name="mlt_service">qtblend</property>
    <property name="kdenlive_id">qtblend</property>
    <property name="tag">qtblend</property>
    <property name="kdenlive_ix">1</property>
    <property name="rect">0=-1265 -700 4196 2360 1;431=-929 -654 3427 1928 1</property>
    <property name="rotation">0=0;431=0</property>
    <property name="compositing">0</property>
    <property name="distort">0</property>
    <property name="kdenlive_info"/>
   </filter>
  </entry>
 </playlist>
 <producer id="slowmotion:1:0,5:1:0" in="0" out="29123">
  <property name="length">29124</property>
  <property name="eof">pause</property>
  <property name="resource">0,5:/media/bordun/plagiat/2018-12-10_Plagiat_RespecteLaPuissancePapale/Carte_1/CAM1_2018-12-10_1541_C0000.mov</property>
  <property name="aspect_ratio">1</property>
  <property name="meta.media.nb_streams">3</property>
  <property name="meta.media.1.stream.type">video</property>
  <property name="meta.media.1.stream.frame_rate">50</property>
  <property name="meta.media.1.stream.sample_aspect_ratio">1</property>
  <property name="meta.media.1.codec.width">1920</property>
  <property name="meta.media.1.codec.height">1080</property>
  <property name="meta.media.1.codec.rotate">0</property>
  <property name="meta.media.1.codec.frame_rate">5000</property>
  <property name="meta.media.1.codec.pix_fmt">yuv422p10le</property>
  <property name="meta.media.1.codec.sample_aspect_ratio">0</property>
  <property name="meta.media.1.codec.colorspace">709</property>
  <property name="meta.media.1.codec.color_trc">1</property>
  <property name="meta.media.1.codec.name">prores</property>
  <property name="meta.media.1.codec.long_name">ProRes</property>
  <property name="meta.media.1.codec.bit_rate">366959179</property>
  <property name="meta.attr.1.stream.creation_time.markup">2018-12-10T15:41:17.000000Z</property>
  <property name="meta.attr.1.stream.language.markup">eng</property>
  <property name="meta.attr.1.stream.handler_name.markup">Apple Alias Data Handler</property>
  <property name="meta.attr.1.stream.encoder.markup">Apple ProRes 422 HQ</property>
  <property name="meta.attr.1.stream.timecode.markup">15:41:17:21</property>
  <property name="meta.media.2.stream.type">audio</property>
  <property name="meta.media.2.codec.sample_fmt">s32</property>
  <property name="meta.media.2.codec.sample_rate">48000</property>
  <property name="meta.media.2.codec.channels">2</property>
  <property name="meta.media.2.codec.name">pcm_s24le</property>
  <property name="meta.media.2.codec.long_name">PCM signed 24-bit little-endian</property>
  <property name="meta.media.2.codec.bit_rate">2304000</property>
  <property name="meta.attr.2.stream.creation_time.markup">2018-12-10T15:41:17.000000Z</property>
  <property name="meta.attr.2.stream.language.markup">eng</property>
  <property name="meta.attr.2.stream.handler_name.markup">Apple Alias Data Handler</property>
  <property name="meta.attr.2.stream.timecode.markup">15:41:17:21</property>
  <property name="meta.attr.com.apple.proapps.manufacturer.markup">Blackmagic Design</property>
  <property name="meta.attr.com.apple.proapps.cameraName.markup">CAM1</property>
  <property name="meta.attr.com.apple.proapps.isGood.markup">0</property>
  <property name="meta.attr.com.apple.proapps.customgamma.markup">com.blackmagic-design.cinemacamera.filmlog</property>
  <property name="meta.attr.com.blackmagic-design.cinemacamera.uuid.markup">18E5E00548F94923B646613A73C01B56</property>
  <property name="meta.attr.creation_time.markup">2018-12-10T15:41:17.000000Z</property>
  <property name="meta.attr.timecode.markup">15:41:17:21</property>
  <property name="seekable">1</property>
  <property name="meta.media.sample_aspect_num">1</property>
  <property name="meta.media.sample_aspect_den">1</property>
  <property name="audio_index">2</property>
  <property name="video_index">1</property>
  <property name="mute_on_pause">1</property>
  <property name="warp_speed">0,5</property>
  <property name="warp_resource">/media/bordun/plagiat/2018-12-10_Plagiat_RespecteLaPuissancePapale/Carte_1/CAM1_2018-12-10_1541_C0000.mov</property>
  <property name="mlt_service">timewarp</property>
  <property name="meta.media.frame_rate_num">50</property>
  <property name="meta.media.frame_rate_den">1</property>
  <property name="meta.media.colorspace">709</property>
  <property name="meta.media.color_trc">1</property>
  <property name="meta.media.width">1920</property>
  <property name="meta.media.height">1080</property>
  <property name="meta.media.top_field_first">0</property>
  <property name="meta.media.progressive">1</property>
  <filter id="filter32">
   <property name="version">0,1</property>
   <property name="mlt_service">frei0r.colgate</property>
   <property name="kdenlive_id">frei0r.colgate</property>
   <property name="tag">frei0r.colgate</property>
   <property name="kdenlive_ix">1</property>
   <property name="kdenlive_info"/>
   <property name="Neutral Color">0x7f7f7fff</property>
   <property name="Color Temperature">0=0,55</property>
  </filter>
  <filter id="filter33">
   <property name="version">0,3</property>
   <property name="mlt_service">frei0r.levels</property>
   <property name="kdenlive_id">frei0r.levels</property>
   <property name="tag">frei0r.levels</property>
   <property name="kdenlive_ix">2</property>
   <property name="kdenlive_info"/>
   <property name="Channel">0,3</property>
   <property name="Input black level">0=0</property>
   <property name="Input white level">0=0,65</property>
   <property name="Gamma">0=0,25</property>
   <property name="Black output">0=0</property>
   <property name="White output">0=1</property>
   <property name="Show histogram">0</property>
   <property name="Histogram position">0,3</property>
  </filter>
 </producer>
 <producer id="slowmotion:48:0,6:1:0" in="0" out="73179">
  <property name="length">73180</property>
  <property name="eof">pause</property>
  <property name="resource">0,6:/media/bordun/plagiat2/CAM1_2019-01-05_0407_C0000.mov</property>
  <property name="aspect_ratio">1</property>
  <property name="meta.media.nb_streams">3</property>
  <property name="meta.media.1.stream.type">video</property>
  <property name="meta.media.1.stream.frame_rate">50</property>
  <property name="meta.media.1.stream.sample_aspect_ratio">1</property>
  <property name="meta.media.1.codec.width">1920</property>
  <property name="meta.media.1.codec.height">1080</property>
  <property name="meta.media.1.codec.rotate">0</property>
  <property name="meta.media.1.codec.frame_rate">5000</property>
  <property name="meta.media.1.codec.pix_fmt">yuv422p10le</property>
  <property name="meta.media.1.codec.sample_aspect_ratio">0</property>
  <property name="meta.media.1.codec.colorspace">709</property>
  <property name="meta.media.1.codec.color_trc">1</property>
  <property name="meta.media.1.codec.name">prores</property>
  <property name="meta.media.1.codec.long_name">ProRes</property>
  <property name="meta.media.1.codec.bit_rate">366957037</property>
  <property name="meta.attr.1.stream.creation_time.markup">2019-01-05T04:07:04.000000Z</property>
  <property name="meta.attr.1.stream.language.markup">eng</property>
  <property name="meta.attr.1.stream.handler_name.markup">Apple Alias Data Handler</property>
  <property name="meta.attr.1.stream.encoder.markup">Apple ProRes 422 HQ</property>
  <property name="meta.attr.1.stream.timecode.markup">04:07:04:29</property>
  <property name="meta.media.2.stream.type">audio</property>
  <property name="meta.media.2.codec.sample_fmt">s32</property>
  <property name="meta.media.2.codec.sample_rate">48000</property>
  <property name="meta.media.2.codec.channels">2</property>
  <property name="meta.media.2.codec.name">pcm_s24le</property>
  <property name="meta.media.2.codec.long_name">PCM signed 24-bit little-endian</property>
  <property name="meta.media.2.codec.bit_rate">2304000</property>
  <property name="meta.attr.2.stream.creation_time.markup">2019-01-05T04:07:04.000000Z</property>
  <property name="meta.attr.2.stream.language.markup">eng</property>
  <property name="meta.attr.2.stream.handler_name.markup">Apple Alias Data Handler</property>
  <property name="meta.attr.2.stream.timecode.markup">04:07:04:29</property>
  <property name="meta.attr.com.apple.proapps.manufacturer.markup">Blackmagic Design</property>
  <property name="meta.attr.com.apple.proapps.cameraName.markup">CAM1</property>
  <property name="meta.attr.com.apple.proapps.isGood.markup">0</property>
  <property name="meta.attr.com.apple.proapps.customgamma.markup">com.blackmagic-design.cinemacamera.filmlog</property>
  <property name="meta.attr.com.blackmagic-design.cinemacamera.uuid.markup">18E5E00548F94923B646613A73C01B56</property>
  <property name="meta.attr.creation_time.markup">2019-01-05T04:07:04.000000Z</property>
  <property name="meta.attr.timecode.markup">04:07:04:29</property>
  <property name="seekable">1</property>
  <property name="meta.media.sample_aspect_num">1</property>
  <property name="meta.media.sample_aspect_den">1</property>
  <property name="audio_index">2</property>
  <property name="video_index">1</property>
  <property name="mute_on_pause">1</property>
  <property name="warp_speed">0,6</property>
  <property name="warp_resource">/media/bordun/plagiat2/CAM1_2019-01-05_0407_C0000.mov</property>
  <property name="mlt_service">timewarp</property>
  <property name="meta.media.frame_rate_num">50</property>
  <property name="meta.media.frame_rate_den">1</property>
  <property name="meta.media.colorspace">709</property>
  <property name="meta.media.color_trc">1</property>
  <property name="meta.media.width">1920</property>
  <property name="meta.media.height">1080</property>
  <property name="meta.media.top_field_first">0</property>
  <property name="meta.media.progressive">1</property>
  <filter id="filter34">
   <property name="version">0,1</property>
   <property name="mlt_service">frei0r.colgate</property>
   <property name="kdenlive_id">frei0r.colgate</property>
   <property name="tag">frei0r.colgate</property>
   <property name="kdenlive_ix">1</property>
   <property name="kdenlive_info"/>
   <property name="Neutral Color">0x7f7f7fff</property>
   <property name="Color Temperature">0=0,466667</property>
   <property name="disable">0</property>
  </filter>
  <filter id="filter35">
   <property name="version">0,3</property>
   <property name="mlt_service">frei0r.levels</property>
   <property name="kdenlive_id">frei0r.levels</property>
   <property name="tag">frei0r.levels</property>
   <property name="kdenlive_ix">2</property>
   <property name="kdenlive_info"/>
   <property name="Channel">0,3</property>
   <property name="Input black level">0=0</property>
   <property name="Input white level">0=1</property>
   <property name="Gamma">0=0,2</property>
   <property name="Black output">0=0</property>
   <property name="White output">0=0,9</property>
   <property name="Show histogram">0</property>
   <property name="Histogram position">0,3</property>
   <property name="disable">1</property>
  </filter>
 </producer>
 <producer id="slowmotion:1:0,62:1:0" in="0" out="23486">
  <property name="length">23487</property>
  <property name="eof">pause</property>
  <property name="resource">0,62:/media/bordun/plagiat/2018-12-10_Plagiat_RespecteLaPuissancePapale/Carte_1/CAM1_2018-12-10_1541_C0000.mov</property>
  <property name="aspect_ratio">1</property>
  <property name="meta.media.nb_streams">3</property>
  <property name="meta.media.1.stream.type">video</property>
  <property name="meta.media.1.stream.frame_rate">50</property>
  <property name="meta.media.1.stream.sample_aspect_ratio">1</property>
  <property name="meta.media.1.codec.width">1920</property>
  <property name="meta.media.1.codec.height">1080</property>
  <property name="meta.media.1.codec.rotate">0</property>
  <property name="meta.media.1.codec.frame_rate">5000</property>
  <property name="meta.media.1.codec.pix_fmt">yuv422p10le</property>
  <property name="meta.media.1.codec.sample_aspect_ratio">0</property>
  <property name="meta.media.1.codec.colorspace">709</property>
  <property name="meta.media.1.codec.color_trc">1</property>
  <property name="meta.media.1.codec.name">prores</property>
  <property name="meta.media.1.codec.long_name">ProRes</property>
  <property name="meta.media.1.codec.bit_rate">366959179</property>
  <property name="meta.attr.1.stream.creation_time.markup">2018-12-10T15:41:17.000000Z</property>
  <property name="meta.attr.1.stream.language.markup">eng</property>
  <property name="meta.attr.1.stream.handler_name.markup">Apple Alias Data Handler</property>
  <property name="meta.attr.1.stream.encoder.markup">Apple ProRes 422 HQ</property>
  <property name="meta.attr.1.stream.timecode.markup">15:41:17:21</property>
  <property name="meta.media.2.stream.type">audio</property>
  <property name="meta.media.2.codec.sample_fmt">s32</property>
  <property name="meta.media.2.codec.sample_rate">48000</property>
  <property name="meta.media.2.codec.channels">2</property>
  <property name="meta.media.2.codec.name">pcm_s24le</property>
  <property name="meta.media.2.codec.long_name">PCM signed 24-bit little-endian</property>
  <property name="meta.media.2.codec.bit_rate">2304000</property>
  <property name="meta.attr.2.stream.creation_time.markup">2018-12-10T15:41:17.000000Z</property>
  <property name="meta.attr.2.stream.language.markup">eng</property>
  <property name="meta.attr.2.stream.handler_name.markup">Apple Alias Data Handler</property>
  <property name="meta.attr.2.stream.timecode.markup">15:41:17:21</property>
  <property name="meta.attr.com.apple.proapps.manufacturer.markup">Blackmagic Design</property>
  <property name="meta.attr.com.apple.proapps.cameraName.markup">CAM1</property>
  <property name="meta.attr.com.apple.proapps.isGood.markup">0</property>
  <property name="meta.attr.com.apple.proapps.customgamma.markup">com.blackmagic-design.cinemacamera.filmlog</property>
  <property name="meta.attr.com.blackmagic-design.cinemacamera.uuid.markup">18E5E00548F94923B646613A73C01B56</property>
  <property name="meta.attr.creation_time.markup">2018-12-10T15:41:17.000000Z</property>
  <property name="meta.attr.timecode.markup">15:41:17:21</property>
  <property name="seekable">1</property>
  <property name="meta.media.sample_aspect_num">1</property>
  <property name="meta.media.sample_aspect_den">1</property>
  <property name="audio_index">2</property>
  <property name="video_index">1</property>
  <property name="mute_on_pause">1</property>
  <property name="warp_speed">0,62</property>
  <property name="warp_resource">/media/bordun/plagiat/2018-12-10_Plagiat_RespecteLaPuissancePapale/Carte_1/CAM1_2018-12-10_1541_C0000.mov</property>
  <property name="mlt_service">timewarp</property>
  <property name="meta.media.frame_rate_num">50</property>
  <property name="meta.media.frame_rate_den">1</property>
  <property name="meta.media.colorspace">709</property>
  <property name="meta.media.color_trc">1</property>
  <property name="meta.media.width">1920</property>
  <property name="meta.media.height">1080</property>
  <property name="meta.media.top_field_first">0</property>
  <property name="meta.media.progressive">1</property>
  <filter id="filter36">
   <property name="version">0,1</property>
   <property name="mlt_service">frei0r.colgate</property>
   <property name="kdenlive_id">frei0r.colgate</property>
   <property name="tag">frei0r.colgate</property>
   <property name="kdenlive_ix">1</property>
   <property name="kdenlive_info"/>
   <property name="Neutral Color">0x7f7f7fff</property>
   <property name="Color Temperature">0=0,55</property>
  </filter>
  <filter id="filter37">
   <property name="version">0,3</property>
   <property name="mlt_service">frei0r.levels</property>
   <property name="kdenlive_id">frei0r.levels</property>
   <property name="tag">frei0r.levels</property>
   <property name="kdenlive_ix">2</property>
   <property name="kdenlive_info"/>
   <property name="Channel">0,3</property>
   <property name="Input black level">0=0</property>
   <property name="Input white level">0=0,65</property>
   <property name="Gamma">0=0,25</property>
   <property name="Black output">0=0</property>
   <property name="White output">0=1</property>
   <property name="Show histogram">0</property>
   <property name="Histogram position">0,3</property>
  </filter>
 </producer>
 <producer id="slowmotion:3:0,3:1:0" in="0" out="38786">
  <property name="length">38787</property>
  <property name="eof">pause</property>
  <property name="resource">0,3:/media/bordun/plagiat/2018-12-10_Plagiat_RespecteLaPuissancePapale/Carte_1/CAM1_2018-12-10_1601_C0002.mov</property>
  <property name="aspect_ratio">1</property>
  <property name="meta.media.nb_streams">3</property>
  <property name="meta.media.1.stream.type">video</property>
  <property name="meta.media.1.stream.frame_rate">50</property>
  <property name="meta.media.1.stream.sample_aspect_ratio">1</property>
  <property name="meta.media.1.codec.width">1920</property>
  <property name="meta.media.1.codec.height">1080</property>
  <property name="meta.media.1.codec.rotate">0</property>
  <property name="meta.media.1.codec.frame_rate">5000</property>
  <property name="meta.media.1.codec.pix_fmt">yuv422p10le</property>
  <property name="meta.media.1.codec.sample_aspect_ratio">0</property>
  <property name="meta.media.1.codec.colorspace">709</property>
  <property name="meta.media.1.codec.color_trc">1</property>
  <property name="meta.media.1.codec.name">prores</property>
  <property name="meta.media.1.codec.long_name">ProRes</property>
  <property name="meta.media.1.codec.bit_rate">366958785</property>
  <property name="meta.attr.1.stream.creation_time.markup">2018-12-10T16:01:37.000000Z</property>
  <property name="meta.attr.1.stream.language.markup">eng</property>
  <property name="meta.attr.1.stream.handler_name.markup">Apple Alias Data Handler</property>
  <property name="meta.attr.1.stream.encoder.markup">Apple ProRes 422 HQ</property>
  <property name="meta.attr.1.stream.timecode.markup">16:01:37:09</property>
  <property name="meta.media.2.stream.type">audio</property>
  <property name="meta.media.2.codec.sample_fmt">s32</property>
  <property name="meta.media.2.codec.sample_rate">48000</property>
  <property name="meta.media.2.codec.channels">2</property>
  <property name="meta.media.2.codec.name">pcm_s24le</property>
  <property name="meta.media.2.codec.long_name">PCM signed 24-bit little-endian</property>
  <property name="meta.media.2.codec.bit_rate">2304000</property>
  <property name="meta.attr.2.stream.creation_time.markup">2018-12-10T16:01:37.000000Z</property>
  <property name="meta.attr.2.stream.language.markup">eng</property>
  <property name="meta.attr.2.stream.handler_name.markup">Apple Alias Data Handler</property>
  <property name="meta.attr.2.stream.timecode.markup">16:01:37:09</property>
  <property name="meta.attr.com.apple.proapps.manufacturer.markup">Blackmagic Design</property>
  <property name="meta.attr.com.apple.proapps.cameraName.markup">CAM1</property>
  <property name="meta.attr.com.apple.proapps.isGood.markup">0</property>
  <property name="meta.attr.com.apple.proapps.customgamma.markup">com.blackmagic-design.cinemacamera.filmlog</property>
  <property name="meta.attr.com.blackmagic-design.cinemacamera.uuid.markup">18E5E00548F94923B646613A73C01B56</property>
  <property name="meta.attr.creation_time.markup">2018-12-10T16:01:37.000000Z</property>
  <property name="meta.attr.timecode.markup">16:01:37:09</property>
  <property name="seekable">1</property>
  <property name="meta.media.sample_aspect_num">1</property>
  <property name="meta.media.sample_aspect_den">1</property>
  <property name="audio_index">2</property>
  <property name="video_index">1</property>
  <property name="mute_on_pause">1</property>
  <property name="warp_speed">0,3</property>
  <property name="warp_resource">/media/bordun/plagiat/2018-12-10_Plagiat_RespecteLaPuissancePapale/Carte_1/CAM1_2018-12-10_1601_C0002.mov</property>
  <property name="mlt_service">timewarp</property>
  <property name="meta.media.frame_rate_num">50</property>
  <property name="meta.media.frame_rate_den">1</property>
  <property name="meta.media.colorspace">709</property>
  <property name="meta.media.color_trc">1</property>
  <property name="meta.media.width">1920</property>
  <property name="meta.media.height">1080</property>
  <property name="meta.media.top_field_first">0</property>
  <property name="meta.media.progressive">1</property>
  <filter id="filter38">
   <property name="version">0,1</property>
   <property name="mlt_service">frei0r.colgate</property>
   <property name="kdenlive_id">frei0r.colgate</property>
   <property name="tag">frei0r.colgate</property>
   <property name="kdenlive_ix">1</property>
   <property name="kdenlive_info"/>
   <property name="Neutral Color">0x7f7f7fff</property>
   <property name="Color Temperature">0=0,55</property>
  </filter>
  <filter id="filter39">
   <property name="version">0,3</property>
   <property name="mlt_service">frei0r.levels</property>
   <property name="kdenlive_id">frei0r.levels</property>
   <property name="tag">frei0r.levels</property>
   <property name="kdenlive_ix">2</property>
   <property name="kdenlive_info"/>
   <property name="Channel">0,3</property>
   <property name="Input black level">0=0</property>
   <property name="Input white level">0=0,65</property>
   <property name="Gamma">0=0,25</property>
   <property name="Black output">0=0</property>
   <property name="White output">0=1</property>
   <property name="Show histogram">0</property>
   <property name="Histogram position">0,3</property>
  </filter>
 </producer>
 <playlist id="playlist9">
  <property name="kdenlive:track_name">Vidéo 8</property>
  <blank length="483"/>
  <entry producer="slowmotion:1:0,5:1:0" in="9762" out="10137"/>
  <blank length="164"/>
  <entry producer="slowmotion:48:0,6:1:0" in="3247" out="3336"/>
  <entry producer="slowmotion:1:0,62:1:0" in="8526" out="8806"/>
  <blank length="578"/>
  <entry producer="slowmotion:3:0,3:1:0" in="15450" out="15649">
   <filter id="filter40" in="15450" out="15649">
    <property name="background">colour:0x00000000</property>
    <property name="mlt_service">affine</property>
    <property name="kdenlive_id">pan_zoom</property>
    <property name="tag">affine</property>
    <property name="kdenlive_info"/>
    <property name="kdenlive_ix">2</property>
    <property name="disable">0</property>
    <property name="transition.geometry">0=-401/-56:2880x1620:100;199=-249/-42:2506x1409:100</property>
    <property name="transition.distort">0</property>
    <property name="kdenlive:sync_in_out">1</property>
   </filter>
  </entry>
  <blank length="127"/>
  <entry producer="slowmotion:3:0,3:1:0" in="15650" out="15718">
   <filter id="filter41" in="15650" out="15776">
    <property name="background">colour:0x00000000</property>
    <property name="mlt_service">affine</property>
    <property name="kdenlive_id">pan_zoom</property>
    <property name="tag">affine</property>
    <property name="kdenlive_info"/>
    <property name="kdenlive_ix">2</property>
    <property name="disable">0</property>
    <property name="transition.geometry">0=-246/-45:2496x1404:100;68=-145/1:2203x1239:100</property>
    <property name="transition.distort">0</property>
    <property name="kdenlive:sync_in_out">1</property>
   </filter>
  </entry>
  <entry producer="74" in="0" out="431">
   <filter id="filter42">
    <property name="rotate_center">1</property>
    <property name="mlt_service">qtblend</property>
    <property name="kdenlive_id">qtblend</property>
    <property name="tag">qtblend</property>
    <property name="kdenlive_info"/>
    <property name="kdenlive_ix">1</property>
    <property name="disable"/>
    <property name="rect">0=-1265 -700 4196 2360 1;431=-929 -654 3427 1928 1</property>
    <property name="rotation">0=0;431=0</property>
    <property name="compositing">0</property>
    <property name="distort">0</property>
   </filter>
   <filter id="filter43">
    <property name="line_width">1</property>
    <property name="num">100</property>
    <property name="darker">100</property>
    <property name="lighter">100</property>
    <property name="mlt_service">lines</property>
    <property name="kdenlive_id">lines</property>
    <property name="tag">lines</property>
    <property name="kdenlive_ix">2</property>
    <property name="line99">1763</property>
    <property name="typeline99">3</property>
    <property name="line98">1876</property>
    <property name="typeline98">1</property>
    <property name="line97">107</property>
    <property name="typeline97">3</property>
    <property name="line96">1372</property>
    <property name="typeline96">1</property>
    <property name="line95">654</property>
    <property name="typeline95">3</property>
    <property name="line94">1145</property>
    <property name="typeline94">1</property>
    <property name="line93">1760</property>
    <property name="typeline93">3</property>
    <property name="line92">1551</property>
    <property name="typeline92">3</property>
    <property name="line91">491</property>
    <property name="typeline91">2</property>
    <property name="line90">275</property>
    <property name="typeline90">1</property>
    <property name="line89">899</property>
    <property name="typeline89">3</property>
    <property name="line88">400</property>
    <property name="typeline88">2</property>
    <property name="line87">1140</property>
    <property name="typeline87">1</property>
    <property name="line86">768</property>
    <property name="typeline86">3</property>
    <property name="line85">607</property>
    <property name="typeline85">3</property>
    <property name="line84">662</property>
    <property name="typeline84">1</property>
    <property name="line83">270</property>
    <property name="typeline83">2</property>
    <property name="line82">1188</property>
    <property name="typeline82">1</property>
    <property name="line81">1342</property>
    <property name="typeline81">3</property>
    <property name="line80">297</property>
    <property name="typeline80">3</property>
    <property name="line79">735</property>
    <property name="typeline79">3</property>
    <property name="line78">342</property>
    <property name="typeline78">3</property>
    <property name="line77">1849</property>
    <property name="typeline77">1</property>
    <property name="line76">1050</property>
    <property name="typeline76">2</property>
    <property name="line75">1847</property>
    <property name="typeline75">2</property>
    <property name="line74">1729</property>
    <property name="typeline74">1</property>
    <property name="line73">86</property>
    <property name="typeline73">3</property>
    <property name="line72">639</property>
    <property name="typeline72">3</property>
    <property name="line71">1717</property>
    <property name="typeline71">3</property>
    <property name="line70">1066</property>
    <property name="typeline70">1</property>
    <property name="line69">586</property>
    <property name="typeline69">2</property>
    <property name="line68">285</property>
    <property name="typeline68">2</property>
    <property name="line67">1247</property>
    <property name="typeline67">3</property>
    <property name="line66">1332</property>
    <property name="typeline66">1</property>
    <property name="line65">1899</property>
    <property name="typeline65">3</property>
    <property name="line64">1591</property>
    <property name="typeline64">2</property>
    <property name="line63">1538</property>
    <property name="typeline63">2</property>
    <property name="line62">1184</property>
    <property name="typeline62">3</property>
    <property name="line61">1538</property>
    <property name="typeline61">2</property>
    <property name="line60">1140</property>
    <property name="typeline60">2</property>
    <property name="line59">1397</property>
    <property name="typeline59">1</property>
    <property name="line58">1720</property>
    <property name="typeline58">2</property>
    <property name="line57">1383</property>
    <property name="typeline57">2</property>
    <property name="line56">1538</property>
    <property name="typeline56">2</property>
    <property name="line55">1809</property>
    <property name="typeline55">1</property>
    <property name="line54">754</property>
    <property name="typeline54">3</property>
    <property name="line53">1326</property>
    <property name="typeline53">3</property>
    <property name="line52">1513</property>
    <property name="typeline52">1</property>
    <property name="line51">972</property>
    <property name="typeline51">2</property>
    <property name="line50">992</property>
    <property name="typeline50">2</property>
    <property name="line49">639</property>
    <property name="typeline49">1</property>
    <property name="line48">266</property>
    <property name="typeline48">3</property>
    <property name="line47">1362</property>
    <property name="typeline47">2</property>
    <property name="line46">1045</property>
    <property name="typeline46">1</property>
    <property name="line45">1528</property>
    <property name="typeline45">3</property>
    <property name="line44">834</property>
    <property name="typeline44">2</property>
    <property name="line43">800</property>
    <property name="typeline43">2</property>
    <property name="line42">794</property>
    <property name="typeline42">3</property>
    <property name="line41">1296</property>
    <property name="typeline41">1</property>
    <property name="line40">1025</property>
    <property name="typeline40">3</property>
    <property name="line39">1037</property>
    <property name="typeline39">2</property>
    <property name="line38">1425</property>
    <property name="typeline38">2</property>
    <property name="line37">1133</property>
    <property name="typeline37">2</property>
    <property name="line36">1585</property>
    <property name="typeline36">2</property>
    <property name="line35">104</property>
    <property name="typeline35">3</property>
    <property name="line34">1363</property>
    <property name="typeline34">3</property>
    <property name="line33">871</property>
    <property name="typeline33">1</property>
    <property name="line32">1421</property>
    <property name="typeline32">1</property>
    <property name="line31">1137</property>
    <property name="typeline31">2</property>
    <property name="line30">1857</property>
    <property name="typeline30">1</property>
    <property name="line29">1535</property>
    <property name="typeline29">3</property>
    <property name="line28">1173</property>
    <property name="typeline28">1</property>
    <property name="line27">626</property>
    <property name="typeline27">1</property>
    <property name="line26">1304</property>
    <property name="typeline26">3</property>
    <property name="line25">315</property>
    <property name="typeline25">3</property>
    <property name="line24">1635</property>
    <property name="typeline24">1</property>
    <property name="line23">1411</property>
    <property name="typeline23">1</property>
    <property name="line22">364</property>
    <property name="typeline22">3</property>
    <property name="line21">919</property>
    <property name="typeline21">2</property>
    <property name="line20">295</property>
    <property name="typeline20">2</property>
    <property name="line19">1096</property>
    <property name="typeline19">2</property>
    <property name="line18">379</property>
    <property name="typeline18">3</property>
    <property name="line17">1538</property>
    <property name="typeline17">2</property>
    <property name="line16">24</property>
    <property name="typeline16">2</property>
    <property name="line15">1885</property>
    <property name="typeline15">1</property>
    <property name="line14">1006</property>
    <property name="typeline14">3</property>
    <property name="line13">991</property>
    <property name="typeline13">1</property>
    <property name="line12">1596</property>
    <property name="typeline12">2</property>
    <property name="line11">185</property>
    <property name="typeline11">1</property>
    <property name="line10">906</property>
    <property name="typeline10">3</property>
    <property name="line9">397</property>
    <property name="typeline9">3</property>
    <property name="line8">1801</property>
    <property name="typeline8">3</property>
    <property name="line7">21</property>
    <property name="typeline7">3</property>
    <property name="line6">1796</property>
    <property name="typeline6">1</property>
    <property name="line5">241</property>
    <property name="typeline5">2</property>
    <property name="line4">1491</property>
    <property name="typeline4">2</property>
    <property name="line3">110</property>
    <property name="typeline3">3</property>
    <property name="line2">340</property>
    <property name="typeline2">2</property>
    <property name="line1">1528</property>
    <property name="typeline1">2</property>
    <property name="line0">1762</property>
    <property name="typeline0">2</property>
    <property name="last_oldfilm_line_pos">0,497685</property>
    <property name="kdenlive_info"/>
   </filter>
   <filter id="filter44">
    <property name="version">0,1</property>
    <property name="mlt_service">frei0r.glitch0r</property>
    <property name="kdenlive_id">frei0r.glitch0r</property>
    <property name="tag">frei0r.glitch0r</property>
    <property name="kdenlive_ix">3</property>
    <property name="0">1</property>
    <property name="1">0,002</property>
    <property name="2">0,001</property>
    <property name="3">0</property>
    <property name="kdenlive_info"/>
   </filter>
  </entry>
 </playlist>
 <producer id="slowmotion:48:0,5:1:0" in="0" out="87815">
  <property name="length">87816</property>
  <property name="eof">pause</property>
  <property name="resource">0,5:/media/bordun/plagiat2/CAM1_2019-01-05_0407_C0000.mov</property>
  <property name="aspect_ratio">1</property>
  <property name="meta.media.nb_streams">3</property>
  <property name="meta.media.1.stream.type">video</property>
  <property name="meta.media.1.stream.frame_rate">50</property>
  <property name="meta.media.1.stream.sample_aspect_ratio">1</property>
  <property name="meta.media.1.codec.width">1920</property>
  <property name="meta.media.1.codec.height">1080</property>
  <property name="meta.media.1.codec.rotate">0</property>
  <property name="meta.media.1.codec.frame_rate">5000</property>
  <property name="meta.media.1.codec.pix_fmt">yuv422p10le</property>
  <property name="meta.media.1.codec.sample_aspect_ratio">0</property>
  <property name="meta.media.1.codec.colorspace">709</property>
  <property name="meta.media.1.codec.color_trc">1</property>
  <property name="meta.media.1.codec.name">prores</property>
  <property name="meta.media.1.codec.long_name">ProRes</property>
  <property name="meta.media.1.codec.bit_rate">366957037</property>
  <property name="meta.attr.1.stream.creation_time.markup">2019-01-05T04:07:04.000000Z</property>
  <property name="meta.attr.1.stream.language.markup">eng</property>
  <property name="meta.attr.1.stream.handler_name.markup">Apple Alias Data Handler</property>
  <property name="meta.attr.1.stream.encoder.markup">Apple ProRes 422 HQ</property>
  <property name="meta.attr.1.stream.timecode.markup">04:07:04:29</property>
  <property name="meta.media.2.stream.type">audio</property>
  <property name="meta.media.2.codec.sample_fmt">s32</property>
  <property name="meta.media.2.codec.sample_rate">48000</property>
  <property name="meta.media.2.codec.channels">2</property>
  <property name="meta.media.2.codec.name">pcm_s24le</property>
  <property name="meta.media.2.codec.long_name">PCM signed 24-bit little-endian</property>
  <property name="meta.media.2.codec.bit_rate">2304000</property>
  <property name="meta.attr.2.stream.creation_time.markup">2019-01-05T04:07:04.000000Z</property>
  <property name="meta.attr.2.stream.language.markup">eng</property>
  <property name="meta.attr.2.stream.handler_name.markup">Apple Alias Data Handler</property>
  <property name="meta.attr.2.stream.timecode.markup">04:07:04:29</property>
  <property name="meta.attr.com.apple.proapps.manufacturer.markup">Blackmagic Design</property>
  <property name="meta.attr.com.apple.proapps.cameraName.markup">CAM1</property>
  <property name="meta.attr.com.apple.proapps.isGood.markup">0</property>
  <property name="meta.attr.com.apple.proapps.customgamma.markup">com.blackmagic-design.cinemacamera.filmlog</property>
  <property name="meta.attr.com.blackmagic-design.cinemacamera.uuid.markup">18E5E00548F94923B646613A73C01B56</property>
  <property name="meta.attr.creation_time.markup">2019-01-05T04:07:04.000000Z</property>
  <property name="meta.attr.timecode.markup">04:07:04:29</property>
  <property name="seekable">1</property>
  <property name="meta.media.sample_aspect_num">1</property>
  <property name="meta.media.sample_aspect_den">1</property>
  <property name="audio_index">2</property>
  <property name="video_index">1</property>
  <property name="mute_on_pause">1</property>
  <property name="warp_speed">0,5</property>
  <property name="warp_resource">/media/bordun/plagiat2/CAM1_2019-01-05_0407_C0000.mov</property>
  <property name="mlt_service">timewarp</property>
  <property name="meta.media.frame_rate_num">50</property>
  <property name="meta.media.frame_rate_den">1</property>
  <property name="meta.media.colorspace">709</property>
  <property name="meta.media.color_trc">1</property>
  <property name="meta.media.width">1920</property>
  <property name="meta.media.height">1080</property>
  <property name="meta.media.top_field_first">0</property>
  <property name="meta.media.progressive">1</property>
  <filter id="filter45">
   <property name="version">0,1</property>
   <property name="mlt_service">frei0r.colgate</property>
   <property name="kdenlive_id">frei0r.colgate</property>
   <property name="tag">frei0r.colgate</property>
   <property name="kdenlive_ix">1</property>
   <property name="kdenlive_info"/>
   <property name="Neutral Color">0x7f7f7fff</property>
   <property name="Color Temperature">0=0,466667</property>
   <property name="disable">0</property>
  </filter>
  <filter id="filter46">
   <property name="version">0,3</property>
   <property name="mlt_service">frei0r.levels</property>
   <property name="kdenlive_id">frei0r.levels</property>
   <property name="tag">frei0r.levels</property>
   <property name="kdenlive_ix">2</property>
   <property name="kdenlive_info"/>
   <property name="Channel">0,3</property>
   <property name="Input black level">0=0</property>
   <property name="Input white level">0=1</property>
   <property name="Gamma">0=0,2</property>
   <property name="Black output">0=0</property>
   <property name="White output">0=0,9</property>
   <property name="Show histogram">0</property>
   <property name="Histogram position">0,3</property>
   <property name="disable">1</property>
  </filter>
 </producer>
 <playlist id="playlist8">
  <property name="kdenlive:track_name">Vidéo 7</property>
  <blank length="62"/>
  <entry producer="slowmotion:1:0,5:1:0" in="8949" out="9011">
   <filter id="frei0r.sigmoidaltransfer">
    <property name="version">0,9</property>
    <property name="mlt_service">frei0r.sigmoidaltransfer</property>
    <property name="kdenlive_id">frei0r.sigmoidaltransfer</property>
    <property name="tag">frei0r.sigmoidaltransfer</property>
    <property name="kdenlive_ix">2</property>
    <property name="0">1</property>
    <property name="1">0,072</property>
    <property name="kdenlive_info"/>
    <property name="disable">0</property>
   </filter>
   <filter id="filter47">
    <property name="version">0,2</property>
    <property name="mlt_service">frei0r.contrast0r</property>
    <property name="kdenlive_id">frei0r.contrast0r</property>
    <property name="tag">frei0r.contrast0r</property>
    <property name="kdenlive_ix">3</property>
    <property name="Contrast">8949=0,702</property>
    <property name="kdenlive_info"/>
    <property name="disable">0</property>
   </filter>
  </entry>
  <entry producer="slowmotion:1:0,5:1:0" in="9034" out="9367">
   <filter id="filter48">
    <property name="version">0,9</property>
    <property name="mlt_service">frei0r.sigmoidaltransfer</property>
    <property name="kdenlive_id">frei0r.sigmoidaltransfer</property>
    <property name="tag">frei0r.sigmoidaltransfer</property>
    <property name="kdenlive_ix">2</property>
    <property name="0">1</property>
    <property name="1">0,072</property>
    <property name="kdenlive_info"/>
    <property name="disable">0</property>
   </filter>
   <filter id="filter49">
    <property name="version">0,2</property>
    <property name="mlt_service">frei0r.contrast0r</property>
    <property name="kdenlive_id">frei0r.contrast0r</property>
    <property name="tag">frei0r.contrast0r</property>
    <property name="kdenlive_ix">3</property>
    <property name="Contrast">9034=0,702</property>
    <property name="kdenlive_info"/>
    <property name="disable">0</property>
   </filter>
  </entry>
  <blank length="206"/>
  <entry producer="slowmotion:48:0,5:1:0" in="3190" out="3330"/>
  <blank length="399"/>
  <entry producer="slowmotion:48:0,5:1:0" in="6504" out="6591"/>
  <blank length="335"/>
  <entry producer="slowmotion:1:0,5:1:0" in="11152" out="11359">
   <filter id="filter50" in="11152" out="11359">
    <property name="background">colour:0x00000000</property>
    <property name="mlt_service">affine</property>
    <property name="kdenlive_id">pan_zoom</property>
    <property name="tag">affine</property>
    <property name="kdenlive_info"/>
    <property name="kdenlive_ix">2</property>
    <property name="disable"/>
    <property name="transition.geometry">-693/0:2688x1512:100</property>
    <property name="transition.distort">0</property>
    <property name="kdenlive:sync_in_out">1</property>
   </filter>
  </entry>
  <blank length="336"/>
  <entry producer="slowmotion:48:0,5:1:0" in="7228" out="7354">
   <filter id="filter51" in="7228" out="7354">
    <property name="background">colour:0x00000000</property>
    <property name="mlt_service">affine</property>
    <property name="kdenlive_id">pan_zoom</property>
    <property name="tag">affine</property>
    <property name="kdenlive_ix">2</property>
    <property name="transition.geometry">0=-96/-54:2112x1188:100;126=0/0:1920x1080:100</property>
    <property name="transition.distort">0</property>
    <property name="kdenlive:sync_in_out">1</property>
    <property name="kdenlive_info"/>
   </filter>
  </entry>
  <blank length="69"/>
  <entry producer="73" in="0" out="431">
   <filter id="filter52">
    <property name="rotate_center">1</property>
    <property name="mlt_service">qtblend</property>
    <property name="kdenlive_id">qtblend</property>
    <property name="tag">qtblend</property>
    <property name="kdenlive_info"/>
    <property name="kdenlive_ix">1</property>
    <property name="disable"/>
    <property name="rect">0=-1265 -700 4196 2360 1;306=-966,81 -609,833 3650,03 2053,29 1;431=-845 -573 3427 1928 1</property>
    <property name="rotation">0=0;306=0;431=0</property>
    <property name="compositing">0</property>
    <property name="distort">0</property>
   </filter>
   <filter id="filter53">
    <property name="line_width">1</property>
    <property name="num">100</property>
    <property name="darker">100</property>
    <property name="lighter">100</property>
    <property name="mlt_service">lines</property>
    <property name="kdenlive_id">lines</property>
    <property name="tag">lines</property>
    <property name="kdenlive_ix">2</property>
    <property name="line4">1705</property>
    <property name="typeline4">3</property>
    <property name="line3">1709</property>
    <property name="typeline3">1</property>
    <property name="line2">811</property>
    <property name="typeline2">3</property>
    <property name="line1">1137</property>
    <property name="typeline1">1</property>
    <property name="line0">829</property>
    <property name="typeline0">3</property>
    <property name="last_oldfilm_line_pos">0,497685</property>
    <property name="kdenlive_info"/>
    <property name="line99">1759</property>
    <property name="typeline99">3</property>
    <property name="line98">540</property>
    <property name="typeline98">1</property>
    <property name="line97">65</property>
    <property name="typeline97">2</property>
    <property name="line96">1011</property>
    <property name="typeline96">3</property>
    <property name="line95">1921</property>
    <property name="typeline95">1</property>
    <property name="line94">244</property>
    <property name="typeline94">1</property>
    <property name="line93">91</property>
    <property name="typeline93">1</property>
    <property name="line92">1769</property>
    <property name="typeline92">2</property>
    <property name="line91">1791</property>
    <property name="typeline91">3</property>
    <property name="line90">275</property>
    <property name="typeline90">1</property>
    <property name="line89">1851</property>
    <property name="typeline89">3</property>
    <property name="line88">903</property>
    <property name="typeline88">3</property>
    <property name="line87">130</property>
    <property name="typeline87">3</property>
    <property name="line86">273</property>
    <property name="typeline86">1</property>
    <property name="line85">1743</property>
    <property name="typeline85">1</property>
    <property name="line84">1378</property>
    <property name="typeline84">3</property>
    <property name="line83">477</property>
    <property name="typeline83">3</property>
    <property name="line82">676</property>
    <property name="typeline82">2</property>
    <property name="line81">1752</property>
    <property name="typeline81">1</property>
    <property name="line80">1297</property>
    <property name="typeline80">1</property>
    <property name="line79">791</property>
    <property name="typeline79">1</property>
    <property name="line78">1112</property>
    <property name="typeline78">2</property>
    <property name="line77">1290</property>
    <property name="typeline77">2</property>
    <property name="line76">208</property>
    <property name="typeline76">3</property>
    <property name="line75">552</property>
    <property name="typeline75">3</property>
    <property name="line74">1529</property>
    <property name="typeline74">2</property>
    <property name="line73">93</property>
    <property name="typeline73">1</property>
    <property name="line72">1627</property>
    <property name="typeline72">3</property>
    <property name="line71">205</property>
    <property name="typeline71">1</property>
    <property name="line70">1966</property>
    <property name="typeline70">2</property>
    <property name="line69">383</property>
    <property name="typeline69">3</property>
    <property name="line68">1288</property>
    <property name="typeline68">3</property>
    <property name="line67">1878</property>
    <property name="typeline67">3</property>
    <property name="line66">1247</property>
    <property name="typeline66">1</property>
    <property name="line65">1588</property>
    <property name="typeline65">1</property>
    <property name="line64">927</property>
    <property name="typeline64">3</property>
    <property name="line63">233</property>
    <property name="typeline63">2</property>
    <property name="line62">762</property>
    <property name="typeline62">1</property>
    <property name="line61">462</property>
    <property name="typeline61">3</property>
    <property name="line60">927</property>
    <property name="typeline60">3</property>
    <property name="line59">1557</property>
    <property name="typeline59">2</property>
    <property name="line58">1473</property>
    <property name="typeline58">2</property>
    <property name="line57">1434</property>
    <property name="typeline57">1</property>
    <property name="line56">719</property>
    <property name="typeline56">1</property>
    <property name="line55">568</property>
    <property name="typeline55">1</property>
    <property name="line54">1442</property>
    <property name="typeline54">1</property>
    <property name="line53">308</property>
    <property name="typeline53">2</property>
    <property name="line52">1726</property>
    <property name="typeline52">2</property>
    <property name="line51">1253</property>
    <property name="typeline51">2</property>
    <property name="line50">246</property>
    <property name="typeline50">2</property>
    <property name="line49">1073</property>
    <property name="typeline49">2</property>
    <property name="line48">1160</property>
    <property name="typeline48">3</property>
    <property name="line47">299</property>
    <property name="typeline47">1</property>
    <property name="line46">305</property>
    <property name="typeline46">1</property>
    <property name="line45">596</property>
    <property name="typeline45">1</property>
    <property name="line44">1469</property>
    <property name="typeline44">3</property>
    <property name="line43">1898</property>
    <property name="typeline43">2</property>
    <property name="line42">951</property>
    <property name="typeline42">1</property>
    <property name="line41">1263</property>
    <property name="typeline41">1</property>
    <property name="line40">44</property>
    <property name="typeline40">2</property>
    <property name="line39">1352</property>
    <property name="typeline39">2</property>
    <property name="line38">761</property>
    <property name="typeline38">2</property>
    <property name="line37">1776</property>
    <property name="typeline37">2</property>
    <property name="line36">1150</property>
    <property name="typeline36">1</property>
    <property name="line35">368</property>
    <property name="typeline35">2</property>
    <property name="line34">1659</property>
    <property name="typeline34">2</property>
    <property name="line33">1387</property>
    <property name="typeline33">1</property>
    <property name="line32">1217</property>
    <property name="typeline32">2</property>
    <property name="line31">1159</property>
    <property name="typeline31">1</property>
    <property name="line30">1327</property>
    <property name="typeline30">2</property>
    <property name="line29">1478</property>
    <property name="typeline29">2</property>
    <property name="line28">1055</property>
    <property name="typeline28">1</property>
    <property name="line27">1561</property>
    <property name="typeline27">2</property>
    <property name="line26">1967</property>
    <property name="typeline26">2</property>
    <property name="line25">987</property>
    <property name="typeline25">1</property>
    <property name="line24">286</property>
    <property name="typeline24">3</property>
    <property name="line23">700</property>
    <property name="typeline23">2</property>
    <property name="line22">516</property>
    <property name="typeline22">3</property>
    <property name="line21">1808</property>
    <property name="typeline21">2</property>
    <property name="line20">1548</property>
    <property name="typeline20">2</property>
    <property name="line19">2035</property>
    <property name="typeline19">3</property>
    <property name="line18">136</property>
    <property name="typeline18">2</property>
    <property name="line17">1297</property>
    <property name="typeline17">1</property>
    <property name="line16">1422</property>
    <property name="typeline16">1</property>
    <property name="line15">139</property>
    <property name="typeline15">1</property>
    <property name="line14">1001</property>
    <property name="typeline14">1</property>
    <property name="line13">1765</property>
    <property name="typeline13">2</property>
    <property name="line12">723</property>
    <property name="typeline12">1</property>
    <property name="line11">329</property>
    <property name="typeline11">3</property>
    <property name="line10">1765</property>
    <property name="typeline10">3</property>
    <property name="line9">1466</property>
    <property name="typeline9">1</property>
    <property name="line8">101</property>
    <property name="typeline8">1</property>
    <property name="line7">595</property>
    <property name="typeline7">2</property>
    <property name="line6">36</property>
    <property name="typeline6">3</property>
    <property name="line5">1494</property>
    <property name="typeline5">2</property>
   </filter>
   <filter id="filter54">
    <property name="version">0,1</property>
    <property name="mlt_service">frei0r.glitch0r</property>
    <property name="kdenlive_id">frei0r.glitch0r</property>
    <property name="tag">frei0r.glitch0r</property>
    <property name="kdenlive_ix">3</property>
    <property name="0">1</property>
    <property name="1">0,002</property>
    <property name="2">0,001</property>
    <property name="3">0</property>
   </filter>
  </entry>
 </playlist>
 <producer title="Anonymous Submission" id="3_playlist10" in="0" out="11635">
  <property name="length">00:03:52:36</property>
  <property name="eof">pause</property>
  <property name="resource">/media/bordun/plagiat/2018-12-10_Plagiat_RespecteLaPuissancePapale/Carte_1/CAM1_2018-12-10_1601_C0002.mov</property>
  <property name="audio_index">2</property>
  <property name="video_index">1</property>
  <property name="mute_on_pause">1</property>
  <property name="mlt_service">avformat-novalidate</property>
  <property name="seekable">1</property>
  <property name="aspect_ratio">1</property>
  <property name="kdenlive:folderid">9</property>
  <property name="kdenlive:file_size">10795373957</property>
  <property name="kdenlive:file_hash">c46cb1ab94a25f5ab196e5d4e002dba1</property>
  <property name="global_feed">1</property>
  <property name="xml">was here</property>
  <property name="meta.media.nb_streams">3</property>
  <property name="meta.media.1.stream.type">video</property>
  <property name="meta.media.1.stream.frame_rate">50</property>
  <property name="meta.media.1.stream.sample_aspect_ratio">1</property>
  <property name="meta.media.1.codec.width">1920</property>
  <property name="meta.media.1.codec.height">1080</property>
  <property name="meta.media.1.codec.rotate">0</property>
  <property name="meta.media.1.codec.frame_rate">5000</property>
  <property name="meta.media.1.codec.pix_fmt">yuv422p10le</property>
  <property name="meta.media.1.codec.sample_aspect_ratio">0</property>
  <property name="meta.media.1.codec.colorspace">709</property>
  <property name="meta.media.1.codec.color_trc">1</property>
  <property name="meta.media.1.codec.name">prores</property>
  <property name="meta.media.1.codec.long_name">ProRes</property>
  <property name="meta.media.1.codec.bit_rate">366958785</property>
  <property name="meta.attr.1.stream.creation_time.markup">2018-12-10T16:01:37.000000Z</property>
  <property name="meta.attr.1.stream.language.markup">eng</property>
  <property name="meta.attr.1.stream.handler_name.markup">Apple Alias Data Handler</property>
  <property name="meta.attr.1.stream.encoder.markup">Apple ProRes 422 HQ</property>
  <property name="meta.attr.1.stream.timecode.markup">16:01:37:09</property>
  <property name="meta.media.2.stream.type">audio</property>
  <property name="meta.media.2.codec.sample_fmt">s32</property>
  <property name="meta.media.2.codec.sample_rate">48000</property>
  <property name="meta.media.2.codec.channels">2</property>
  <property name="meta.media.2.codec.name">pcm_s24le</property>
  <property name="meta.media.2.codec.long_name">PCM signed 24-bit little-endian</property>
  <property name="meta.media.2.codec.bit_rate">2304000</property>
  <property name="meta.attr.2.stream.creation_time.markup">2018-12-10T16:01:37.000000Z</property>
  <property name="meta.attr.2.stream.language.markup">eng</property>
  <property name="meta.attr.2.stream.handler_name.markup">Apple Alias Data Handler</property>
  <property name="meta.attr.2.stream.timecode.markup">16:01:37:09</property>
  <property name="meta.attr.com.apple.proapps.manufacturer.markup">Blackmagic Design</property>
  <property name="meta.attr.com.apple.proapps.cameraName.markup">CAM1</property>
  <property name="meta.attr.com.apple.proapps.isGood.markup">0</property>
  <property name="meta.attr.com.apple.proapps.customgamma.markup">com.blackmagic-design.cinemacamera.filmlog</property>
  <property name="meta.attr.com.blackmagic-design.cinemacamera.uuid.markup">18E5E00548F94923B646613A73C01B56</property>
  <property name="meta.attr.creation_time.markup">2018-12-10T16:01:37.000000Z</property>
  <property name="meta.attr.timecode.markup">16:01:37:09</property>
  <property name="meta.media.sample_aspect_num">1</property>
  <property name="meta.media.sample_aspect_den">1</property>
  <property name="meta.media.frame_rate_num">50</property>
  <property name="meta.media.frame_rate_den">1</property>
  <property name="meta.media.colorspace">709</property>
  <property name="meta.media.color_trc">1</property>
  <property name="meta.media.width">1920</property>
  <property name="meta.media.height">1080</property>
  <property name="meta.media.top_field_first">0</property>
  <property name="meta.media.progressive">1</property>
  <filter id="filter55">
   <property name="version">0,1</property>
   <property name="mlt_service">frei0r.colgate</property>
   <property name="kdenlive_id">frei0r.colgate</property>
   <property name="tag">frei0r.colgate</property>
   <property name="kdenlive_ix">1</property>
   <property name="kdenlive_info"/>
   <property name="Neutral Color">0x7f7f7fff</property>
   <property name="Color Temperature">0=0,55</property>
  </filter>
  <filter id="filter56">
   <property name="version">0,3</property>
   <property name="mlt_service">frei0r.levels</property>
   <property name="kdenlive_id">frei0r.levels</property>
   <property name="tag">frei0r.levels</property>
   <property name="kdenlive_ix">2</property>
   <property name="kdenlive_info"/>
   <property name="Channel">0,3</property>
   <property name="Input black level">0=0</property>
   <property name="Input white level">0=0,65</property>
   <property name="Gamma">0=0,25</property>
   <property name="Black output">0=0</property>
   <property name="White output">0=1</property>
   <property name="Show histogram">0</property>
   <property name="Histogram position">0,3</property>
  </filter>
 </producer>
 <playlist id="playlist10">
  <property name="kdenlive:track_name">Vidéo 9</property>
  <blank length="81"/>
  <entry producer="30" in="35" out="78"/>
  <blank length="18"/>
  <entry producer="30" in="35" out="78"/>
  <blank length="19"/>
  <entry producer="30" in="35" out="78"/>
  <blank length="18"/>
  <entry producer="30" in="35" out="78"/>
  <blank length="19"/>
  <entry producer="30" in="35" out="78"/>
  <blank length="25"/>
  <entry producer="30" in="35" out="117"/>
  <blank length="247"/>
  <entry producer="3_playlist10" in="3278" out="3279">
   <filter id="filter57">
    <property name="mode">alpha</property>
    <property name="alpha_operation">clear</property>
    <property name="invert">0</property>
    <property name="feather">6</property>
    <property name="feather_passes">1</property>
    <property name="mlt_service">rotoscoping</property>
    <property name="kdenlive_id">rotoscoping</property>
    <property name="tag">rotoscoping</property>
    <property name="kdenlive_ix">1</property>
    <property name="kdenlive_info"/>
    <property name="disable"/>
    <property name="spline">[
    [
        [
            0.6337951509153885,
            0.6083731925889274
        ],
        [
            0.6321128154379021,
            0.6090769146187257
        ],
        [
            0.6324096981692232,
            0.612947385782616
        ]
    ],
    [
        [
            0.6333003463631867,
            0.6166419264390566
        ],
        [
            0.6335972290945077,
            0.6205123976029469
        ],
        [
            0.6338941118258288,
            0.6224476331848919
        ]
    ],
    [
        [
            0.6377535873330036,
            0.6361702127659575
        ],
        [
            0.6380504700643247,
            0.6381054483479026
        ],
        [
            0.6375556655121227,
            0.6393369619000495
        ]
    ],
    [
        [
            0.6360712518555172,
            0.6430315025564902
        ],
        [
            0.6355764473033152,
            0.6442630161086372
        ],
        [
            0.6354774863928748,
            0.6502446533619222
        ]
    ],
    [
        [
            0.6332013854527463,
            0.6708285227335203
        ],
        [
            0.6331024245423059,
            0.6768101599868053
        ],
        [
            0.632607619990104,
            0.6840233107922371
        ]
    ],
    [
        [
            0.6331024245423059,
            0.7030238055967892
        ],
        [
            0.632607619990104,
            0.7102369564022212
        ],
        [
            0.6323107372587828,
            0.7167463851778548
        ]
    ],
    [
        [
            0.6374982479190343,
            0.7410446099046849
        ],
        [
            0.6372013651877133,
            0.7475540386803186
        ],
        [
            0.6386857788443189,
            0.748961482739915
        ]
    ],
    [
        [
            0.6357169515311077,
            0.7473600948103314
        ],
        [
            0.6372013651877133,
            0.748767538869928
        ],
        [
            0.6378940915607959,
            0.7547491761232129
        ]
    ],
    [
        [
            0.641316180108857,
            0.7737478695915114
        ],
        [
            0.6420089064819396,
            0.7797295068447964
        ],
        [
            0.6408213755566552,
            0.7807850898894937
        ]
    ],
    [
        [
            0.6382483918852054,
            0.7777942712628513
        ],
        [
            0.6370608609599209,
            0.7788498543075486
        ],
        [
            0.6368629391390402,
            0.7806091593820441
        ]
    ],
    [
        [
            0.6333003463631867,
            0.785887074605531
        ],
        [
            0.6331024245423059,
            0.7876463796800265
        ],
        [
            0.6395348837209304,
            0.7973225575897522
        ]
    ],
    [
        [
            0.6511133102424543,
            0.7904612677992192
        ],
        [
            0.6548738248391887,
            0.7911649898290176
        ],
        [
            0.6555665512122713,
            0.7885260322172741
        ]
    ],
    [
        [
            0.6566551212271153,
            0.7718126340095663
        ],
        [
            0.6573478476001979,
            0.769173676397823
        ],
        [
            0.656556160316675,
            0.7614327340700424
        ]
    ],
    [
        [
            0.654181098466106,
            0.7531640002199131
        ],
        [
            0.653389411182583,
            0.7454230578921326
        ],
        [
            0.65526966848095,
            0.7441915443399858
        ]
    ],
    [
        [
            0.6609104403760515,
            0.740497003683545
        ],
        [
            0.6627906976744187,
            0.7392654901313982
        ],
        [
            0.6619990103908956,
            0.7294133817142229
        ]
    ],
    [
        [
            0.6596239485403267,
            0.6998570564626974
        ],
        [
            0.6588322612568036,
            0.690004948045522
        ],
        [
            0.6597229094507671,
            0.6857826158667327
        ]
    ],
    [
        [
            0.6619000494804552,
            0.6775138820166035
        ],
        [
            0.6627906976744187,
            0.6732915498378141
        ],
        [
            0.6616031667491342,
            0.6655506075100336
        ]
    ],
    [
        [
            0.6543506829785586,
            0.6379666175035111
        ],
        [
            0.6531631520532741,
            0.6302256751757306
        ],
        [
            0.6510849729340262,
            0.6284663701012351
        ]
    ],
    [
        [
            0.6524666363889481,
            0.6290253058144141
        ],
        [
            0.6503884572697003,
            0.6272660007399186
        ],
        [
            0.6496957308966176,
            0.6240992516058265
        ]
    ],
    [
        [
            0.6467678116973147,
            0.605100765061282
        ],
        [
            0.6460750853242321,
            0.60193401592719
        ],
        [
            0.6443927498467457,
            0.6026377379569882
        ]
    ]
]
</property>
   </filter>
   <filter id="filter58">
    <property name="version">0,1</property>
    <property name="mlt_service">frei0r.glitch0r</property>
    <property name="kdenlive_id">frei0r.glitch0r</property>
    <property name="tag">frei0r.glitch0r</property>
    <property name="kdenlive_ix">2</property>
    <property name="kdenlive_info"/>
    <property name="disable"/>
    <property name="0">0,981</property>
    <property name="1">0,001</property>
    <property name="2">0,005</property>
    <property name="3">0</property>
   </filter>
  </entry>
  <blank length="2"/>
  <entry producer="3_playlist10" in="3278" out="3279">
   <filter id="filter59">
    <property name="mode">alpha</property>
    <property name="alpha_operation">clear</property>
    <property name="invert">0</property>
    <property name="feather">5</property>
    <property name="feather_passes">1</property>
    <property name="mlt_service">rotoscoping</property>
    <property name="kdenlive_id">rotoscoping</property>
    <property name="tag">rotoscoping</property>
    <property name="kdenlive_ix">1</property>
    <property name="kdenlive_info"/>
    <property name="disable"/>
    <property name="spline">[
    [
        [
            0.639566294521855,
            0.6012302938973918
        ],
        [
            0.6378839590443686,
            0.60193401592719
        ],
        [
            0.6381808417756897,
            0.6058044870910803
        ]
    ],
    [
        [
            0.6334915131731157,
            0.6138390472282219
        ],
        [
            0.6337883959044368,
            0.6177095183921122
        ],
        [
            0.6340852786357579,
            0.6196447539740573
        ]
    ],
    [
        [
            0.6377535873330036,
            0.6361702127659575
        ],
        [
            0.6380504700643247,
            0.6381054483479026
        ],
        [
            0.6375556655121227,
            0.6393369619000495
        ]
    ],
    [
        [
            0.6360712518555172,
            0.6430315025564902
        ],
        [
            0.6355764473033152,
            0.6442630161086372
        ],
        [
            0.6354774863928748,
            0.6502446533619222
        ]
    ],
    [
        [
            0.6379829199548089,
            0.6663353896712505
        ],
        [
            0.6378839590443686,
            0.6723170269245354
        ],
        [
            0.6373891544921667,
            0.6795301777299674
        ]
    ],
    [
        [
            0.6281398557467412,
            0.6869468795320728
        ],
        [
            0.6276450511945393,
            0.6941600303375047
        ],
        [
            0.6273481684632182,
            0.7006694591131384
        ]
    ],
    [
        [
            0.6354504663490685,
            0.7094936049748404
        ],
        [
            0.6351535836177474,
            0.716003033750474
        ],
        [
            0.636637997274353,
            0.7174104778100705
        ]
    ],
    [
        [
            0.6377647331010736,
            0.7364385931038466
        ],
        [
            0.6392491467576792,
            0.7378460371634432
        ],
        [
            0.6399418731307619,
            0.7438276744167283
        ]
    ],
    [
        [
            0.641316180108857,
            0.7737478695915114
        ],
        [
            0.6420089064819396,
            0.7797295068447964
        ],
        [
            0.6408213755566552,
            0.7807850898894937
        ]
    ],
    [
        [
            0.6382483918852054,
            0.7777942712628513
        ],
        [
            0.6370608609599209,
            0.7788498543075486
        ],
        [
            0.6368629391390402,
            0.7806091593820441
        ]
    ],
    [
        [
            0.6333003463631867,
            0.785887074605531
        ],
        [
            0.6331024245423059,
            0.7876463796800265
        ],
        [
            0.6395348837209304,
            0.7973225575897522
        ]
    ],
    [
        [
            0.6511133102424543,
            0.7904612677992192
        ],
        [
            0.6548738248391887,
            0.7911649898290176
        ],
        [
            0.6555665512122713,
            0.7885260322172741
        ]
    ],
    [
        [
            0.6566551212271153,
            0.7718126340095663
        ],
        [
            0.6573478476001979,
            0.769173676397823
        ],
        [
            0.656556160316675,
            0.7614327340700424
        ]
    ],
    [
        [
            0.6543753050309633,
            0.7480139798704427
        ],
        [
            0.6535836177474402,
            0.740273037542662
        ],
        [
            0.6554638750458074,
            0.7390415239905153
        ]
    ],
    [
        [
            0.665355237582179,
            0.7330100497675431
        ],
        [
            0.667235494880546,
            0.7317785362153962
        ],
        [
            0.666443807597023,
            0.721926427798221
        ]
    ],
    [
        [
            0.6596239485403267,
            0.6998570564626974
        ],
        [
            0.6588322612568036,
            0.690004948045522
        ],
        [
            0.6597229094507671,
            0.6857826158667327
        ]
    ],
    [
        [
            0.6619000494804552,
            0.6775138820166035
        ],
        [
            0.6627906976744187,
            0.6732915498378141
        ],
        [
            0.6616031667491342,
            0.6655506075100336
        ]
    ],
    [
        [
            0.6554605608919881,
            0.6399397337940524
        ],
        [
            0.6542730299667036,
            0.632198791466272
        ],
        [
            0.6521948508474558,
            0.6304394863917764
        ]
    ],
    [
        [
            0.653021575345663,
            0.6280387476691435
        ],
        [
            0.6509433962264151,
            0.626279442594648
        ],
        [
            0.6502506698533324,
            0.6231126934605559
        ]
    ],
    [
        [
            0.6433548424140382,
            0.6038872648716725
        ],
        [
            0.6426621160409556,
            0.6007205157375806
        ],
        [
            0.6409797805634692,
            0.6014242377673787
        ]
    ]
]
</property>
   </filter>
  </entry>
  <blank length="2"/>
  <entry producer="3_playlist10" in="3278" out="3279">
   <filter id="filter60">
    <property name="mode">alpha</property>
    <property name="alpha_operation">clear</property>
    <property name="invert">0</property>
    <property name="feather">5</property>
    <property name="feather_passes">1</property>
    <property name="mlt_service">rotoscoping</property>
    <property name="kdenlive_id">rotoscoping</property>
    <property name="tag">rotoscoping</property>
    <property name="kdenlive_ix">1</property>
    <property name="kdenlive_info"/>
    <property name="disable"/>
    <property name="spline">[
    [
        [
            0.639566294521855,
            0.6012302938973918
        ],
        [
            0.6378839590443686,
            0.60193401592719
        ],
        [
            0.6381808417756897,
            0.6058044870910803
        ]
    ],
    [
        [
            0.6334915131731157,
            0.6138390472282219
        ],
        [
            0.6337883959044368,
            0.6177095183921122
        ],
        [
            0.6340852786357579,
            0.6196447539740573
        ]
    ],
    [
        [
            0.6377535873330036,
            0.6361702127659575
        ],
        [
            0.6380504700643247,
            0.6381054483479026
        ],
        [
            0.6375556655121227,
            0.6393369619000495
        ]
    ],
    [
        [
            0.6360712518555172,
            0.6430315025564902
        ],
        [
            0.6355764473033152,
            0.6442630161086372
        ],
        [
            0.6354774863928748,
            0.6502446533619222
        ]
    ],
    [
        [
            0.6379829199548089,
            0.6663353896712505
        ],
        [
            0.6378839590443686,
            0.6723170269245354
        ],
        [
            0.6373891544921667,
            0.6795301777299674
        ]
    ],
    [
        [
            0.6281398557467412,
            0.6869468795320728
        ],
        [
            0.6276450511945393,
            0.6941600303375047
        ],
        [
            0.6273481684632182,
            0.7006694591131384
        ]
    ],
    [
        [
            0.6354504663490685,
            0.7094936049748404
        ],
        [
            0.6351535836177474,
            0.716003033750474
        ],
        [
            0.636637997274353,
            0.7174104778100705
        ]
    ],
    [
        [
            0.6377647331010736,
            0.7364385931038466
        ],
        [
            0.6392491467576792,
            0.7378460371634432
        ],
        [
            0.6399418731307619,
            0.7438276744167283
        ]
    ],
    [
        [
            0.641316180108857,
            0.7737478695915114
        ],
        [
            0.6420089064819396,
            0.7797295068447964
        ],
        [
            0.6408213755566552,
            0.7807850898894937
        ]
    ],
    [
        [
            0.6382483918852054,
            0.7777942712628513
        ],
        [
            0.6370608609599209,
            0.7788498543075486
        ],
        [
            0.6368629391390402,
            0.7806091593820441
        ]
    ],
    [
        [
            0.6333003463631867,
            0.785887074605531
        ],
        [
            0.6331024245423059,
            0.7876463796800265
        ],
        [
            0.6395348837209304,
            0.7973225575897522
        ]
    ],
    [
        [
            0.6511133102424543,
            0.7904612677992192
        ],
        [
            0.6548738248391887,
            0.7911649898290176
        ],
        [
            0.6555665512122713,
            0.7885260322172741
        ]
    ],
    [
        [
            0.6566551212271153,
            0.7718126340095663
        ],
        [
            0.6573478476001979,
            0.769173676397823
        ],
        [
            0.656556160316675,
            0.7614327340700424
        ]
    ],
    [
        [
            0.6543753050309633,
            0.7480139798704427
        ],
        [
            0.6535836177474402,
            0.740273037542662
        ],
        [
            0.6554638750458074,
            0.7390415239905153
        ]
    ],
    [
        [
            0.665355237582179,
            0.7330100497675431
        ],
        [
            0.667235494880546,
            0.7317785362153962
        ],
        [
            0.666443807597023,
            0.721926427798221
        ]
    ],
    [
        [
            0.6596239485403267,
            0.6998570564626974
        ],
        [
            0.6588322612568036,
            0.690004948045522
        ],
        [
            0.6597229094507671,
            0.6857826158667327
        ]
    ],
    [
        [
            0.6619000494804552,
            0.6775138820166035
        ],
        [
            0.6627906976744187,
            0.6732915498378141
        ],
        [
            0.6616031667491342,
            0.6655506075100336
        ]
    ],
    [
        [
            0.6565704388054177,
            0.6409262919393233
        ],
        [
            0.6553829078801332,
            0.6331853496115427
        ],
        [
            0.6533047287608853,
            0.6314260445370472
        ]
    ],
    [
        [
            0.6496919416053744,
            0.626065631378602
        ],
        [
            0.6476137624861266,
            0.6243063263041065
        ],
        [
            0.6469210361130439,
            0.6211395771700144
        ]
    ],
    [
        [
            0.643866977205491,
            0.6018225636611607
        ],
        [
            0.6431742508324084,
            0.5986558145270686
        ],
        [
            0.641491915354922,
            0.5993595365568669
        ]
    ]
]
</property>
   </filter>
  </entry>
  <blank length="1"/>
  <entry producer="3_playlist10" in="11246" out="11247">
   <filter id="filter61">
    <property name="mode">alpha</property>
    <property name="alpha_operation">clear</property>
    <property name="invert">0</property>
    <property name="feather">4</property>
    <property name="feather_passes">1</property>
    <property name="mlt_service">rotoscoping</property>
    <property name="kdenlive_id">rotoscoping</property>
    <property name="tag">rotoscoping</property>
    <property name="kdenlive_ix">1</property>
    <property name="kdenlive_info"/>
    <property name="disable"/>
    <property name="spline">[
    [
        [
            0.370188679245283,
            0.2658700209643606
        ],
        [
            0.370440251572327,
            0.26631726065688327
        ],
        [
            0.3727044025157233,
            0.2616212438853948
        ]
    ],
    [
        [
            0.37194968553459123,
            0.24753319357092946
        ],
        [
            0.37421383647798745,
            0.24283717679944092
        ],
        [
            0.3757232704402516,
            0.24484975541579315
        ]
    ],
    [
        [
            0.3915723270440251,
            0.2408245981830887
        ],
        [
            0.39308176100628933,
            0.24283717679944092
        ],
        [
            0.3929559748427673,
            0.24909853249475888
        ]
    ],
    [
        [
            0.3888050314465409,
            0.27794549266247376
        ],
        [
            0.38867924528301884,
            0.28420684835779175
        ],
        [
            0.390314465408805,
            0.28756114605171207
        ]
    ],
    [
        [
            0.39522012578616356,
            0.29762403913347313
        ],
        [
            0.39685534591194965,
            0.30097833682739344
        ],
        [
            0.3979874213836478,
            0.31171208944793855
        ]
    ],
    [
        [
            0.40138364779874214,
            0.34391334730957374
        ],
        [
            0.4025157232704403,
            0.3546470999301188
        ],
        [
            0.4026415094339623,
            0.35800139762403915
        ]
    ],
    [
        [
            0.4030188679245283,
            0.36806429070580016
        ],
        [
            0.40314465408805034,
            0.3714185883997205
        ],
        [
            0.40465408805031444,
            0.37499650593990214
        ]
    ],
    [
        [
            0.40477987421383654,
            0.39132075471698113
        ],
        [
            0.40628930817610065,
            0.3948986722571628
        ],
        [
            0.40591194968553457,
            0.4020545073375262
        ]
    ],
    [
        [
            0.39974842767295604,
            0.4011600279524808
        ],
        [
            0.39937106918238996,
            0.4083158630328442
        ],
        [
            0.39811320754716983,
            0.4087631027253669
        ]
    ],
    [
        [
            0.4037735849056604,
            0.42687631027253664
        ],
        [
            0.4025157232704403,
            0.4273235499650594
        ],
        [
            0.4008805031446541,
            0.43380852550663873
        ]
    ],
    [
        [
            0.3959748427672956,
            0.45326345213137664
        ],
        [
            0.39433962264150946,
            0.459748427672956
        ],
        [
            0.39433962264150946,
            0.4644444444444445
        ]
    ],
    [
        [
            0.39433962264150946,
            0.47853249475890985
        ],
        [
            0.39433962264150946,
            0.4832285115303983
        ],
        [
            0.3932075471698113,
            0.48501747030048914
        ]
    ],
    [
        [
            0.3910691823899371,
            0.48814814814814816
        ],
        [
            0.389937106918239,
            0.48993710691823905
        ],
        [
            0.38716981132075473,
            0.48568832983927324
        ]
    ],
    [
        [
            0.37383647798742137,
            0.4628791055206151
        ],
        [
            0.37106918238993714,
            0.4586303284416492
        ],
        [
            0.3737106918238994,
            0.44700209643605876
        ]
    ],
    [
        [
            0.3822641509433963,
            0.4367155835080363
        ],
        [
            0.3849056603773585,
            0.4250873515024458
        ],
        [
            0.38327044025157236,
            0.4253109713487072
        ]
    ],
    [
        [
            0.3815094339622641,
            0.41368273934311667
        ],
        [
            0.379874213836478,
            0.41390635918937807
        ],
        [
            0.37886792452830187,
            0.4123410202655486
        ]
    ],
    [
        [
            0.3758490566037736,
            0.40764500349406013
        ],
        [
            0.3748427672955975,
            0.40607966457023065
        ],
        [
            0.37534591194968553,
            0.40272536687631033
        ]
    ],
    [
        [
            0.3768553459119497,
            0.3926624737945492
        ],
        [
            0.3773584905660377,
            0.3893081761006289
        ],
        [
            0.3754716981132075,
            0.38975541579315165
        ]
    ],
    [
        [
            0.369811320754717,
            0.3910971348707198
        ],
        [
            0.3679245283018868,
            0.3915443745632425
        ],
        [
            0.36566037735849055,
            0.3955695317959469
        ]
    ],
    [
        [
            0.3626415094339623,
            0.3987002096436059
        ],
        [
            0.360377358490566,
            0.4027253668763103
        ],
        [
            0.35899371069182384,
            0.41032844164919624
        ]
    ],
    [
        [
            0.3510691823899371,
            0.44208245981830885
        ],
        [
            0.349685534591195,
            0.449685534591195
        ],
        [
            0.35044025157232706,
            0.45438155136268343
        ]
    ],
    [
        [
            0.35270440251572327,
            0.46846960167714885
        ],
        [
            0.3534591194968553,
            0.4731656184486373
        ],
        [
            0.3513207547169811,
            0.47450733752620544
        ]
    ],
    [
        [
            0.3411320754716981,
            0.4673515024458421
        ],
        [
            0.3389937106918239,
            0.4686932215234102
        ],
        [
            0.3364779874213836,
            0.4673515024458421
        ]
    ],
    [
        [
            0.3333333333333333,
            0.45549965059399017
        ],
        [
            0.33081761006289306,
            0.4541579315164221
        ],
        [
            0.33144654088050307,
            0.4519217330538085
        ]
    ],
    [
        [
            0.3327044025157233,
            0.4642208245981831
        ],
        [
            0.3333333333333333,
            0.4619846261355695
        ],
        [
            0.33408805031446537,
            0.4606429070580014
        ]
    ],
    [
        [
            0.3306918238993711,
            0.46109014675052407
        ],
        [
            0.3314465408805031,
            0.459748427672956
        ],
        [
            0.3305660377358491,
            0.459748427672956
        ]
    ],
    [
        [
            0.3392452830188679,
            0.4485674353598882
        ],
        [
            0.3383647798742138,
            0.4485674353598882
        ],
        [
            0.34088050314465407,
            0.4519217330538085
        ]
    ],
    [
        [
            0.339622641509434,
            0.4063032844164919
        ],
        [
            0.340251572327044,
            0.3915443745632425
        ],
        [
            0.34150943396226413,
            0.38819007686932216
        ]
    ],
    [
        [
            0.34088050314465407,
            0.36806429070580016
        ],
        [
            0.3421383647798742,
            0.36470999301187984
        ],
        [
            0.34150943396226413,
            0.3609084556254368
        ]
    ],
    [
        [
            0.33773584905660375,
            0.3506219426974144
        ],
        [
            0.3371069182389937,
            0.34682040531097136
        ],
        [
            0.33937106918238996,
            0.3340740740740741
        ]
    ],
    [
        [
            0.3480503144654088,
            0.2947169811320755
        ],
        [
            0.350314465408805,
            0.2819706498951782
        ],
        [
            0.3518238993710692,
            0.2819706498951782
        ]
    ],
    [
        [
            0.3563522012578616,
            0.2819706498951782
        ],
        [
            0.3578616352201258,
            0.2819706498951782
        ],
        [
            0.36012578616352203,
            0.2783927323549965
        ]
    ],
    [
        [
            0.36691823899371073,
            0.26765897973445146
        ],
        [
            0.36918238993710695,
            0.26408106219426974
        ],
        [
            0.369433962264151,
            0.26452830188679244
        ]
    ]
]
</property>
   </filter>
  </entry>
  <entry producer="3_playlist10" in="11248" out="11249">
   <filter id="filter62">
    <property name="mode">alpha</property>
    <property name="alpha_operation">clear</property>
    <property name="invert">0</property>
    <property name="feather">4</property>
    <property name="feather_passes">1</property>
    <property name="mlt_service">rotoscoping</property>
    <property name="kdenlive_id">rotoscoping</property>
    <property name="tag">rotoscoping</property>
    <property name="kdenlive_ix">1</property>
    <property name="kdenlive_info"/>
    <property name="disable"/>
    <property name="spline">[
    [
        [
            0.370188679245283,
            0.2658700209643606
        ],
        [
            0.370440251572327,
            0.26631726065688327
        ],
        [
            0.3727044025157233,
            0.2616212438853948
        ]
    ],
    [
        [
            0.37194968553459123,
            0.24753319357092946
        ],
        [
            0.37421383647798745,
            0.24283717679944092
        ],
        [
            0.3757232704402516,
            0.24484975541579315
        ]
    ],
    [
        [
            0.3915723270440251,
            0.2408245981830887
        ],
        [
            0.39308176100628933,
            0.24283717679944092
        ],
        [
            0.3929559748427673,
            0.24909853249475888
        ]
    ],
    [
        [
            0.3888050314465409,
            0.27794549266247376
        ],
        [
            0.38867924528301884,
            0.28420684835779175
        ],
        [
            0.390314465408805,
            0.28756114605171207
        ]
    ],
    [
        [
            0.39522012578616356,
            0.29762403913347313
        ],
        [
            0.39685534591194965,
            0.30097833682739344
        ],
        [
            0.3979874213836478,
            0.31171208944793855
        ]
    ],
    [
        [
            0.40138364779874214,
            0.34391334730957374
        ],
        [
            0.4025157232704403,
            0.3546470999301188
        ],
        [
            0.4026415094339623,
            0.35800139762403915
        ]
    ],
    [
        [
            0.4030188679245283,
            0.36806429070580016
        ],
        [
            0.40314465408805034,
            0.3714185883997205
        ],
        [
            0.40465408805031444,
            0.37499650593990214
        ]
    ],
    [
        [
            0.40477987421383654,
            0.39132075471698113
        ],
        [
            0.40628930817610065,
            0.3948986722571628
        ],
        [
            0.40591194968553457,
            0.4020545073375262
        ]
    ],
    [
        [
            0.39974842767295604,
            0.4011600279524808
        ],
        [
            0.39937106918238996,
            0.4083158630328442
        ],
        [
            0.39811320754716983,
            0.4087631027253669
        ]
    ],
    [
        [
            0.4037735849056604,
            0.42687631027253664
        ],
        [
            0.4025157232704403,
            0.4273235499650594
        ],
        [
            0.4008805031446541,
            0.43380852550663873
        ]
    ],
    [
        [
            0.3959748427672956,
            0.45326345213137664
        ],
        [
            0.39433962264150946,
            0.459748427672956
        ],
        [
            0.39433962264150946,
            0.4644444444444445
        ]
    ],
    [
        [
            0.39433962264150946,
            0.47853249475890985
        ],
        [
            0.39433962264150946,
            0.4832285115303983
        ],
        [
            0.3932075471698113,
            0.48501747030048914
        ]
    ],
    [
        [
            0.3910691823899371,
            0.48814814814814816
        ],
        [
            0.389937106918239,
            0.48993710691823905
        ],
        [
            0.38716981132075473,
            0.48568832983927324
        ]
    ],
    [
        [
            0.37383647798742137,
            0.4628791055206151
        ],
        [
            0.37106918238993714,
            0.4586303284416492
        ],
        [
            0.3737106918238994,
            0.44700209643605876
        ]
    ],
    [
        [
            0.3822641509433963,
            0.4367155835080363
        ],
        [
            0.3849056603773585,
            0.4250873515024458
        ],
        [
            0.38327044025157236,
            0.4253109713487072
        ]
    ],
    [
        [
            0.3815094339622641,
            0.41368273934311667
        ],
        [
            0.379874213836478,
            0.41390635918937807
        ],
        [
            0.37886792452830187,
            0.4123410202655486
        ]
    ],
    [
        [
            0.3758490566037736,
            0.40764500349406013
        ],
        [
            0.3748427672955975,
            0.40607966457023065
        ],
        [
            0.37534591194968553,
            0.40272536687631033
        ]
    ],
    [
        [
            0.3768553459119497,
            0.3926624737945492
        ],
        [
            0.3773584905660377,
            0.3893081761006289
        ],
        [
            0.3754716981132075,
            0.38975541579315165
        ]
    ],
    [
        [
            0.369811320754717,
            0.3910971348707198
        ],
        [
            0.3679245283018868,
            0.3915443745632425
        ],
        [
            0.36566037735849055,
            0.3955695317959469
        ]
    ],
    [
        [
            0.3626415094339623,
            0.3987002096436059
        ],
        [
            0.360377358490566,
            0.4027253668763103
        ],
        [
            0.35899371069182384,
            0.41032844164919624
        ]
    ],
    [
        [
            0.3510691823899371,
            0.44208245981830885
        ],
        [
            0.349685534591195,
            0.449685534591195
        ],
        [
            0.35044025157232706,
            0.45438155136268343
        ]
    ],
    [
        [
            0.35270440251572327,
            0.46846960167714885
        ],
        [
            0.3534591194968553,
            0.4731656184486373
        ],
        [
            0.3513207547169811,
            0.47450733752620544
        ]
    ],
    [
        [
            0.3411320754716981,
            0.4673515024458421
        ],
        [
            0.3389937106918239,
            0.4686932215234102
        ],
        [
            0.3364779874213836,
            0.4673515024458421
        ]
    ],
    [
        [
            0.3333333333333333,
            0.45549965059399017
        ],
        [
            0.33081761006289306,
            0.4541579315164221
        ],
        [
            0.33144654088050307,
            0.4519217330538085
        ]
    ],
    [
        [
            0.3327044025157233,
            0.4642208245981831
        ],
        [
            0.3333333333333333,
            0.4619846261355695
        ],
        [
            0.33408805031446537,
            0.4606429070580014
        ]
    ],
    [
        [
            0.3306918238993711,
            0.46109014675052407
        ],
        [
            0.3314465408805031,
            0.459748427672956
        ],
        [
            0.3305660377358491,
            0.459748427672956
        ]
    ],
    [
        [
            0.3392452830188679,
            0.4485674353598882
        ],
        [
            0.3383647798742138,
            0.4485674353598882
        ],
        [
            0.34088050314465407,
            0.4519217330538085
        ]
    ],
    [
        [
            0.339622641509434,
            0.4063032844164919
        ],
        [
            0.340251572327044,
            0.3915443745632425
        ],
        [
            0.34150943396226413,
            0.38819007686932216
        ]
    ],
    [
        [
            0.34088050314465407,
            0.36806429070580016
        ],
        [
            0.3421383647798742,
            0.36470999301187984
        ],
        [
            0.34150943396226413,
            0.3609084556254368
        ]
    ],
    [
        [
            0.33773584905660375,
            0.3506219426974144
        ],
        [
            0.3371069182389937,
            0.34682040531097136
        ],
        [
            0.33937106918238996,
            0.3340740740740741
        ]
    ],
    [
        [
            0.3480503144654088,
            0.2947169811320755
        ],
        [
            0.350314465408805,
            0.2819706498951782
        ],
        [
            0.3518238993710692,
            0.2819706498951782
        ]
    ],
    [
        [
            0.3563522012578616,
            0.2819706498951782
        ],
        [
            0.3578616352201258,
            0.2819706498951782
        ],
        [
            0.36012578616352203,
            0.2783927323549965
        ]
    ],
    [
        [
            0.36691823899371073,
            0.26765897973445146
        ],
        [
            0.36918238993710695,
            0.26408106219426974
        ],
        [
            0.369433962264151,
            0.26452830188679244
        ]
    ]
]
</property>
   </filter>
   <filter id="filter63">
    <property name="version">0,1</property>
    <property name="mlt_service">frei0r.glitch0r</property>
    <property name="kdenlive_id">frei0r.glitch0r</property>
    <property name="tag">frei0r.glitch0r</property>
    <property name="kdenlive_ix">2</property>
    <property name="kdenlive_info">1/-1/</property>
    <property name="disable"/>
    <property name="0">0,981</property>
    <property name="1">0,001</property>
    <property name="2">0,005</property>
    <property name="3">0</property>
   </filter>
  </entry>
  <blank length="460"/>
  <entry producer="slowmotion:48:0,5:1:0" in="6504" out="6591">
   <filter id="rotoscoping">
    <property name="mode">alpha</property>
    <property name="alpha_operation">clear</property>
    <property name="invert">0</property>
    <property name="feather">6</property>
    <property name="feather_passes">1</property>
    <property name="mlt_service">rotoscoping</property>
    <property name="kdenlive_id">rotoscoping</property>
    <property name="tag">rotoscoping</property>
    <property name="kdenlive_ix">2</property>
    <property name="spline">{
    "6504": [
        [
            [
                0.948926067322202,
                0.13610730104509866
            ],
            [
                0.9415753781950964,
                0.13229583260882166
            ],
            [
                0.9480072311813139,
                0.12249491377268076
            ]
        ],
        [
            [
                0.9492280322511325,
                0.10778387832144778
            ],
            [
                0.95565988523735,
                0.09798295948530689
            ],
            [
                0.9630105743644556,
                0.09798295948530689
            ]
        ],
        [
            [
                0.9711313140027847,
                0.09728742827334376
            ],
            [
                0.9784820031298904,
                0.09728742827334376
            ],
            [
                0.981238511552555,
                0.10164339220051749
            ]
        ],
        [
            [
                1.0014166788491141,
                0.12052086908737447
            ],
            [
                1.0041731872717787,
                0.12487683301454819
            ],
            [
                1.0035606298445203,
                0.1423006887232431
            ]
        ],
        [
            [
                1.0057381324986958,
                0.17031820552947313
            ],
            [
                0.9979134063641105,
                0.18515620471802005
            ],
            [
                0.9893376023824874,
                0.1769887723545693
            ]
        ],
        [
            [
                0.9853938445487741,
                0.17495508027589401
            ],
            [
                0.9713093375065205,
                0.1610444560366313
            ],
            [
                0.9556598852373498,
                0.1489885816959369
            ]
        ]
    ],
    "6515": [
        [
            [
                0.9228436468735844,
                0.13054305134939356
            ],
            [
                0.9154929577464788,
                0.12673158291311656
            ],
            [
                0.9144496609285341,
                0.11467570857242218
            ]
        ],
        [
            [
                0.9247105570294318,
                0.09572800398075344
            ],
            [
                0.9311424100156493,
                0.08592708514461253
            ],
            [
                0.938493099142755,
                0.08592708514461253
            ]
        ],
        [
            [
                0.9550906254268849,
                0.08499971019532834
            ],
            [
                0.9624413145539905,
                0.08499971019532834
            ],
            [
                0.9651978229766552,
                0.08935567412250207
            ]
        ],
        [
            [
                0.9862888749889159,
                0.123302993935227
            ],
            [
                0.9890453834115805,
                0.12765895786240072
            ],
            [
                0.988432825984322,
                0.14508281357109565
            ]
        ],
        [
            [
                0.9687920044799451,
                0.15382172477006237
            ],
            [
                0.9681794470526863,
                0.1712455804787573
            ],
            [
                0.9596036430710632,
                0.16307814811530652
            ]
        ],
        [
            [
                0.954976429959714,
                0.15553310789814032
            ],
            [
                0.9464006259780907,
                0.1473656755346896
            ],
            [
                0.939049936850985,
                0.14355420709841257
            ]
        ]
    ],
    "6530": [
        [
            [
                0.8982785602503912,
                0.11653045847099054
            ],
            [
                0.8925404277516953,
                0.10076508433315944
            ],
            [
                0.8925404277516953,
                0.08129021039819162
            ]
        ],
        [
            [
                0.8996714333987589,
                0.07625313004578557
            ],
            [
                0.9061032863849764,
                0.06645221120964469
            ],
            [
                0.9134539755120821,
                0.06645221120964469
            ]
        ],
        [
            [
                0.9290082049782672,
                0.07201646090534979
            ],
            [
                0.9363588941053729,
                0.07201646090534979
            ],
            [
                0.9391154025280375,
                0.07637242483252353
            ]
        ],
        [
            [
                0.9534250252236577,
                0.10475549494954337
            ],
            [
                0.9561815336463223,
                0.10911145887671708
            ],
            [
                0.9555689762190638,
                0.12653531458541206
            ]
        ],
        [
            [
                0.9509650495565988,
                0.13878745725381092
            ],
            [
                0.9457485654668752,
                0.15084333159450528
            ],
            [
                0.9363588941053729,
                0.14898858169593693
            ]
        ],
        [
            [
                0.9225038165011851,
                0.14046326497227238
            ],
            [
                0.9139280125195618,
                0.13229583260882166
            ],
            [
                0.9008868022952529,
                0.11745783342027473
            ]
        ]
    ],
    "6545": [
        [
            [
                0.8648930620761605,
                0.09891033443459109
            ],
            [
                0.8570683359415753,
                0.08407233524604417
            ],
            [
                0.8513302034428794,
                0.07294383585463397
            ]
        ],
        [
            [
                0.8636776931796667,
                0.05677825611081774
            ],
            [
                0.8701095461658841,
                0.046977337274676866
            ],
            [
                0.8774602352929898,
                0.046977337274676866
            ]
        ],
        [
            [
                0.8826291079812205,
                0.042340462528255955
            ],
            [
                0.9102764736567553,
                0.056251086767518686
            ],
            [
                0.9254042775169535,
                0.06923433605749726
            ]
        ],
        [
            [
                0.9221261206853165,
                0.08064374626815463
            ],
            [
                0.9248826291079811,
                0.08499971019532834
            ],
            [
                0.9242700716807225,
                0.10242356590402325
            ]
        ],
        [
            [
                0.919757054036544,
                0.12414572639296859
            ],
            [
                0.9191444966092852,
                0.14156958210166348
            ],
            [
                0.910568692627662,
                0.13340214973821274
            ]
        ],
        [
            [
                0.8912049119628438,
                0.11913364113873631
            ],
            [
                0.8826291079812205,
                0.11096620877528544
            ],
            [
                0.875278418854115,
                0.10715474033900843
            ]
        ]
    ],
    "6559": [
        [
            [
                0.8408972352634323,
                0.08499971019532834
            ],
            [
                0.8346374543557642,
                0.07108908595606561
            ],
            [
                0.8351591027647365,
                0.05439633686895032
            ]
        ],
        [
            [
                0.8469849440925513,
                0.045649756719407554
            ],
            [
                0.8534167970787688,
                0.035848837883266677
            ],
            [
                0.8607674862058745,
                0.035848837883266677
            ]
        ],
        [
            [
                0.8680229525299947,
                0.03306671303541413
            ],
            [
                0.8836724047991653,
                0.04141308757897177
            ],
            [
                0.9008868022952529,
                0.059960586564655416
            ]
        ],
        [
            [
                0.9029555416555827,
                0.06789234071549712
            ],
            [
                0.9057120500782472,
                0.07224830464267085
            ],
            [
                0.9050994926509887,
                0.08967216035136578
            ]
        ],
        [
            [
                0.9008868022952529,
                0.10354720918101198
            ],
            [
                0.8961919666145017,
                0.12116733321741145
            ],
            [
                0.8821074595722482,
                0.11745783342027473
            ]
        ],
        [
            [
                0.8729472176488114,
                0.11264201649374693
            ],
            [
                0.8643714136671882,
                0.10447458413029617
            ],
            [
                0.8476786645800729,
                0.08963658494174925
            ]
        ]
    ],
    "6573": [
        [
            [
                0.8268127282211789,
                0.06737958615892888
            ],
            [
                0.8221178925404277,
                0.056251086767518686
            ],
            [
                0.8174230568596764,
                0.039558337680403406
            ]
        ],
        [
            [
                0.8245540625067401,
                0.03637600722656573
            ],
            [
                0.8309859154929576,
                0.02657508839042485
            ],
            [
                0.8382889932185706,
                0.019156088796151393
            ]
        ],
        [
            [
                0.8459833072509128,
                0.017996870109546162
            ],
            [
                0.8659363588941053,
                0.022865588593288123
            ],
            [
                0.8841940532081376,
                0.04048571262968758
            ]
        ],
        [
            [
                0.8892622709200584,
                0.05838674748533424
            ],
            [
                0.8920187793427229,
                0.06274271141250796
            ],
            [
                0.8914062219154644,
                0.08016656712120289
            ]
        ],
        [
            [
                0.8904538341158059,
                0.09427345968817016
            ],
            [
                0.8789775691184141,
                0.10725670897814872
            ],
            [
                0.865414710485133,
                0.10725670897814872
            ]
        ],
        [
            [
                0.8583410621975857,
                0.09502189245734745
            ],
            [
                0.8497652582159624,
                0.08685446009389672
            ],
            [
                0.8424145690888568,
                0.0830429916576197
            ]
        ]
    ],
    "6584": [
        [
            [
                0.821074595722483,
                0.05717846171680287
            ],
            [
                0.8148148148148148,
                0.04419521242682432
            ],
            [
                0.8122065727699529,
                0.024720338491856484
            ]
        ],
        [
            [
                0.816028975082331,
                0.01536409518121023
            ],
            [
                0.8224608280685485,
                0.005563176345069347
            ],
            [
                0.8298115171956542,
                0.005563176345069347
            ]
        ],
        [
            [
                0.8414188836724048,
                -0.0003187851388164382
            ],
            [
                0.8633281168492436,
                0.010809714252593751
            ],
            [
                0.8789775691184141,
                0.037703587781835045
            ]
        ],
        [
            [
                0.8824808416034178,
                0.04818562304320823
            ],
            [
                0.8852373500260824,
                0.05254158697038196
            ],
            [
                0.8846247925988239,
                0.06996544267907688
            ]
        ],
        [
            [
                0.8748043818466353,
                0.07387121080391815
            ],
            [
                0.8701095461658841,
                0.09056395989103343
            ],
            [
                0.8591549295774648,
                0.09149133484031761
            ]
        ],
        [
            [
                0.8494730392450556,
                0.07832914337023218
            ],
            [
                0.8408972352634323,
                0.07016171100678142
            ],
            [
                0.8335465461363267,
                0.06635024257050441
            ]
        ]
    ],
    "6591": [
        [
            [
                0.8181285503846057,
                0.04464555024676002
            ],
            [
                0.8113914971309337,
                0.03567495508027589
            ],
            [
                0.812738296662169,
                0.02043243650104485
            ]
        ],
        [
            [
                0.8108580748524192,
                0.006299112387020923
            ],
            [
                0.8172899278386367,
                -0.0035018064491199605
            ],
            [
                0.8246406169657423,
                -0.0035018064491199605
            ]
        ],
        [
            [
                0.843737320768237,
                -0.01056338028169014
            ],
            [
                0.8592771909233177,
                -0.004303599374021909
            ],
            [
                0.8692859802596418,
                0.012729938704314825
            ]
        ],
        [
            [
                0.8797421874563129,
                0.03520237375322968
            ],
            [
                0.8824986958789776,
                0.039558337680403406
            ],
            [
                0.8818861384517189,
                0.05698219338909832
            ]
        ],
        [
            [
                0.8736632759520083,
                0.06535095345736973
            ],
            [
                0.8669144496609285,
                0.07960934330261403
            ],
            [
                0.8570005635879824,
                0.07655774005257669
            ]
        ],
        [
            [
                0.8496008850448273,
                0.071104352848416
            ],
            [
                0.8390714658320291,
                0.05920709441836202
            ],
            [
                0.8276336254724193,
                0.05219442493921424
            ]
        ]
    ]
}
</property>
    <property name="kdenlive_info"/>
    <property name="disable">0</property>
   </filter>
   <filter id="frei0r.brightness">
    <property name="version">0,2</property>
    <property name="mlt_service">frei0r.brightness</property>
    <property name="kdenlive_id">frei0r.brightness</property>
    <property name="tag">frei0r.brightness</property>
    <property name="kdenlive_ix">3</property>
    <property name="Brightness">0,177</property>
    <property name="kdenlive_info"/>
    <property name="disable">1</property>
   </filter>
   <filter id="grain">
    <property name="noise">76</property>
    <property name="contrast">0</property>
    <property name="brightness">0</property>
    <property name="mlt_service">grain</property>
    <property name="kdenlive_id">grain</property>
    <property name="tag">grain</property>
    <property name="kdenlive_ix">4</property>
    <property name="kdenlive_info">0/-1/</property>
    <property name="disable">0</property>
   </filter>
   <filter id="filter64">
    <property name="version">0,2</property>
    <property name="mlt_service">frei0r.contrast0r</property>
    <property name="kdenlive_id">frei0r.contrast0r</property>
    <property name="tag">frei0r.contrast0r</property>
    <property name="kdenlive_ix">5</property>
    <property name="kdenlive_info"/>
    <property name="disable">0</property>
    <property name="Contrast">6504=0,098</property>
   </filter>
   <filter id="filter65">
    <property name="version">0,2</property>
    <property name="mlt_service">frei0r.brightness</property>
    <property name="kdenlive_id">frei0r.brightness</property>
    <property name="tag">frei0r.brightness</property>
    <property name="kdenlive_ix">6</property>
    <property name="kdenlive_info"/>
    <property name="disable">0</property>
    <property name="Brightness">0,229</property>
   </filter>
   <filter id="frei0r.colorize">
    <property name="version">0,1</property>
    <property name="mlt_service">frei0r.colorize</property>
    <property name="kdenlive_id">frei0r.colorize</property>
    <property name="tag">frei0r.colorize</property>
    <property name="kdenlive_ix">7</property>
    <property name="0">0,606</property>
    <property name="1">0,034</property>
    <property name="2">0,499</property>
    <property name="kdenlive_info"/>
    <property name="disable">0</property>
   </filter>
  </entry>
  <blank length="1075"/>
  <entry producer="76" in="0" out="431">
   <filter id="filter66">
    <property name="rotate_center">1</property>
    <property name="mlt_service">qtblend</property>
    <property name="kdenlive_id">qtblend</property>
    <property name="tag">qtblend</property>
    <property name="kdenlive_ix">1</property>
    <property name="rect">0=-325 -326 2496 1404 1;430=-94 -435 2112 1188 1</property>
    <property name="rotation">0=0;430=0</property>
    <property name="compositing">0</property>
    <property name="distort">0</property>
    <property name="kdenlive_info"/>
    <property name="disable">0</property>
   </filter>
   <filter id="invert">
    <property name="mlt_service">invert</property>
    <property name="kdenlive_id">invert</property>
    <property name="tag">invert</property>
    <property name="kdenlive_ix">2</property>
   </filter>
  </entry>
 </playlist>
 <playlist id="playlist18">
  <property name="kdenlive:track_name">Video 1</property>
  <blank length="2368"/>
  <entry producer="78" in="0" out="431">
   <filter id="filter67">
    <property name="rotate_center">1</property>
    <property name="mlt_service">qtblend</property>
    <property name="kdenlive_id">qtblend</property>
    <property name="tag">qtblend</property>
    <property name="kdenlive_info"/>
    <property name="kdenlive_ix">1</property>
    <property name="disable">0</property>
    <property name="rect">0=-898 -554 3427 1928 0,34;431=-839 -545 3235 1820 0,35</property>
    <property name="rotation">0=0;431=0</property>
    <property name="compositing">0</property>
    <property name="distort">0</property>
   </filter>
   <filter id="filter68">
    <property name="version">0,1</property>
    <property name="mlt_service">frei0r.colorize</property>
    <property name="kdenlive_id">frei0r.colorize</property>
    <property name="tag">frei0r.colorize</property>
    <property name="kdenlive_ix">2</property>
    <property name="0">0,138</property>
    <property name="1">1</property>
    <property name="2">0,366</property>
    <property name="kdenlive_info"/>
   </filter>
  </entry>
 </playlist>
 <producer title="Anonymous Submission" id="33_playlist13" in="0" out="252">
  <property name="length">00:00:05:03</property>
  <property name="eof">pause</property>
  <property name="resource">/media/bordun/plagiat/Clip02_RespecteLaPuissancePapale/Logos/logo_ammd.mp4</property>
  <property name="audio_index">1</property>
  <property name="video_index">0</property>
  <property name="mute_on_pause">1</property>
  <property name="mlt_service">avformat-novalidate</property>
  <property name="seekable">1</property>
  <property name="aspect_ratio">1</property>
  <property name="kdenlive:folderid">17</property>
  <property name="kdenlive:file_size">522548</property>
  <property name="kdenlive:file_hash">7e248ce4ffc891ed5e9c0ac7814b383e</property>
  <property name="global_feed">1</property>
  <property name="xml">was here</property>
  <property name="meta.media.nb_streams">1</property>
  <property name="meta.media.0.stream.type">video</property>
  <property name="meta.media.0.stream.frame_rate">50</property>
  <property name="meta.media.0.stream.sample_aspect_ratio">1</property>
  <property name="meta.media.0.codec.width">1920</property>
  <property name="meta.media.0.codec.height">1080</property>
  <property name="meta.media.0.codec.rotate">0</property>
  <property name="meta.media.0.codec.frame_rate">50</property>
  <property name="meta.media.0.codec.pix_fmt">yuv420p</property>
  <property name="meta.media.0.codec.sample_aspect_ratio">1</property>
  <property name="meta.media.0.codec.colorspace">709</property>
  <property name="meta.media.0.codec.color_trc">1</property>
  <property name="meta.media.0.codec.name">h264</property>
  <property name="meta.media.0.codec.long_name">H.264 / AVC / MPEG-4 AVC / MPEG-4 part 10</property>
  <property name="meta.media.0.codec.bit_rate">187250</property>
  <property name="meta.attr.0.stream.handler_name.markup">VideoHandler</property>
  <property name="meta.media.1.stream.type">audio</property>
  <property name="meta.media.1.codec.sample_fmt">fltp</property>
  <property name="meta.media.1.codec.sample_rate">48000</property>
  <property name="meta.media.1.codec.channels">2</property>
  <property name="meta.media.1.codec.name">aac</property>
  <property name="meta.media.1.codec.long_name">AAC (Advanced Audio Coding)</property>
  <property name="meta.media.1.codec.bit_rate">2276</property>
  <property name="meta.attr.1.stream.handler_name.markup">SoundHandler</property>
  <property name="meta.attr.major_brand.markup">isom</property>
  <property name="meta.attr.minor_version.markup">512</property>
  <property name="meta.attr.compatible_brands.markup">isomiso2avc1mp41</property>
  <property name="meta.attr.encoder.markup">Lavf58.20.100</property>
  <property name="meta.media.sample_aspect_num">1</property>
  <property name="meta.media.sample_aspect_den">1</property>
  <property name="meta.media.frame_rate_num">50</property>
  <property name="meta.media.frame_rate_den">1</property>
  <property name="meta.media.colorspace">709</property>
  <property name="meta.media.color_trc">1</property>
  <property name="meta.media.width">1920</property>
  <property name="meta.media.height">1080</property>
  <property name="meta.media.top_field_first">0</property>
  <property name="meta.media.progressive">1</property>
 </producer>
 <producer title="Anonymous Submission" id="32_playlist13" in="0" out="252">
  <property name="length">00:00:05:03</property>
  <property name="eof">pause</property>
  <property name="resource">/media/bordun/plagiat/Clip02_RespecteLaPuissancePapale/Logos/logo_smp.mp4</property>
  <property name="audio_index">1</property>
  <property name="video_index">0</property>
  <property name="mute_on_pause">1</property>
  <property name="mlt_service">avformat-novalidate</property>
  <property name="seekable">1</property>
  <property name="aspect_ratio">1</property>
  <property name="kdenlive:folderid">17</property>
  <property name="kdenlive:file_size">263656</property>
  <property name="kdenlive:file_hash">257a971594b4c9b39d9abda2cbdcb5e3</property>
  <property name="global_feed">1</property>
  <property name="xml">was here</property>
  <property name="meta.media.nb_streams">1</property>
  <property name="meta.media.0.stream.type">video</property>
  <property name="meta.media.0.stream.frame_rate">50</property>
  <property name="meta.media.0.stream.sample_aspect_ratio">1</property>
  <property name="meta.media.0.codec.width">1920</property>
  <property name="meta.media.0.codec.height">1080</property>
  <property name="meta.media.0.codec.rotate">0</property>
  <property name="meta.media.0.codec.frame_rate">50</property>
  <property name="meta.media.0.codec.pix_fmt">yuv420p</property>
  <property name="meta.media.0.codec.sample_aspect_ratio">1</property>
  <property name="meta.media.0.codec.colorspace">709</property>
  <property name="meta.media.0.codec.color_trc">1</property>
  <property name="meta.media.0.codec.name">h264</property>
  <property name="meta.media.0.codec.long_name">H.264 / AVC / MPEG-4 AVC / MPEG-4 part 10</property>
  <property name="meta.media.0.codec.bit_rate">119313</property>
  <property name="meta.attr.0.stream.handler_name.markup">VideoHandler</property>
  <property name="meta.media.1.stream.type">audio</property>
  <property name="meta.media.1.codec.sample_fmt">fltp</property>
  <property name="meta.media.1.codec.sample_rate">48000</property>
  <property name="meta.media.1.codec.channels">2</property>
  <property name="meta.media.1.codec.name">aac</property>
  <property name="meta.media.1.codec.long_name">AAC (Advanced Audio Coding)</property>
  <property name="meta.media.1.codec.bit_rate">2276</property>
  <property name="meta.attr.1.stream.handler_name.markup">SoundHandler</property>
  <property name="meta.attr.major_brand.markup">isom</property>
  <property name="meta.attr.minor_version.markup">512</property>
  <property name="meta.attr.compatible_brands.markup">isomiso2avc1mp41</property>
  <property name="meta.attr.encoder.markup">Lavf58.20.100</property>
  <property name="meta.media.sample_aspect_num">1</property>
  <property name="meta.media.sample_aspect_den">1</property>
  <property name="meta.media.frame_rate_num">50</property>
  <property name="meta.media.frame_rate_den">1</property>
  <property name="meta.media.colorspace">709</property>
  <property name="meta.media.color_trc">1</property>
  <property name="meta.media.width">1920</property>
  <property name="meta.media.height">1080</property>
  <property name="meta.media.top_field_first">0</property>
  <property name="meta.media.progressive">1</property>
 </producer>
 <producer title="Anonymous Submission" id="34_playlist13" in="0" out="252">
  <property name="length">00:00:05:03</property>
  <property name="eof">pause</property>
  <property name="resource">/media/bordun/plagiat/Clip02_RespecteLaPuissancePapale/Logos/logo_2d.mp4</property>
  <property name="audio_index">1</property>
  <property name="video_index">0</property>
  <property name="mute_on_pause">1</property>
  <property name="mlt_service">avformat-novalidate</property>
  <property name="seekable">1</property>
  <property name="aspect_ratio">1</property>
  <property name="kdenlive:folderid">17</property>
  <property name="kdenlive:file_size">279633</property>
  <property name="kdenlive:file_hash">091cdaa080da0e61c5520ca7b8771eb2</property>
  <property name="global_feed">1</property>
  <property name="xml">was here</property>
  <property name="meta.media.nb_streams">1</property>
  <property name="meta.media.0.stream.type">video</property>
  <property name="meta.media.0.stream.frame_rate">50</property>
  <property name="meta.media.0.stream.sample_aspect_ratio">1</property>
  <property name="meta.media.0.codec.width">1920</property>
  <property name="meta.media.0.codec.height">1080</property>
  <property name="meta.media.0.codec.rotate">0</property>
  <property name="meta.media.0.codec.frame_rate">50</property>
  <property name="meta.media.0.codec.pix_fmt">yuv420p</property>
  <property name="meta.media.0.codec.sample_aspect_ratio">1</property>
  <property name="meta.media.0.codec.colorspace">709</property>
  <property name="meta.media.0.codec.color_trc">1</property>
  <property name="meta.media.0.codec.name">h264</property>
  <property name="meta.media.0.codec.long_name">H.264 / AVC / MPEG-4 AVC / MPEG-4 part 10</property>
  <property name="meta.media.0.codec.bit_rate">121858</property>
  <property name="meta.attr.0.stream.handler_name.markup">VideoHandler</property>
  <property name="meta.media.1.stream.type">audio</property>
  <property name="meta.media.1.codec.sample_fmt">fltp</property>
  <property name="meta.media.1.codec.sample_rate">48000</property>
  <property name="meta.media.1.codec.channels">2</property>
  <property name="meta.media.1.codec.name">aac</property>
  <property name="meta.media.1.codec.long_name">AAC (Advanced Audio Coding)</property>
  <property name="meta.media.1.codec.bit_rate">2276</property>
  <property name="meta.attr.1.stream.handler_name.markup">SoundHandler</property>
  <property name="meta.attr.major_brand.markup">isom</property>
  <property name="meta.attr.minor_version.markup">512</property>
  <property name="meta.attr.compatible_brands.markup">isomiso2avc1mp41</property>
  <property name="meta.attr.encoder.markup">Lavf58.20.100</property>
  <property name="meta.media.sample_aspect_num">1</property>
  <property name="meta.media.sample_aspect_den">1</property>
  <property name="meta.media.frame_rate_num">50</property>
  <property name="meta.media.frame_rate_den">1</property>
  <property name="meta.media.colorspace">709</property>
  <property name="meta.media.color_trc">1</property>
  <property name="meta.media.width">1920</property>
  <property name="meta.media.height">1080</property>
  <property name="meta.media.top_field_first">0</property>
  <property name="meta.media.progressive">1</property>
 </producer>
 <producer title="Anonymous Submission" id="39_playlist13" in="0" out="250">
  <property name="length">00:00:05:01</property>
  <property name="eof">pause</property>
  <property name="resource">/media/bordun/plagiat/Clip02_RespecteLaPuissancePapale/Logos/logo_present.mp4</property>
  <property name="audio_index">-1</property>
  <property name="video_index">0</property>
  <property name="mute_on_pause">1</property>
  <property name="mlt_service">avformat-novalidate</property>
  <property name="seekable">1</property>
  <property name="aspect_ratio">1</property>
  <property name="kdenlive:folderid">17</property>
  <property name="kdenlive:file_size">96390</property>
  <property name="kdenlive:file_hash">f293befcf5bbbbda8a6815054cfc4104</property>
  <property name="global_feed">1</property>
  <property name="xml">was here</property>
  <property name="meta.media.nb_streams">1</property>
  <property name="meta.media.0.stream.type">video</property>
  <property name="meta.media.0.stream.frame_rate">50</property>
  <property name="meta.media.0.stream.sample_aspect_ratio">1</property>
  <property name="meta.media.0.codec.width">1920</property>
  <property name="meta.media.0.codec.height">1080</property>
  <property name="meta.media.0.codec.rotate">0</property>
  <property name="meta.media.0.codec.frame_rate">50</property>
  <property name="meta.media.0.codec.pix_fmt">yuv420p</property>
  <property name="meta.media.0.codec.sample_aspect_ratio">1</property>
  <property name="meta.media.0.codec.colorspace">709</property>
  <property name="meta.media.0.codec.color_trc">1</property>
  <property name="meta.media.0.codec.name">h264</property>
  <property name="meta.media.0.codec.long_name">H.264 / AVC / MPEG-4 AVC / MPEG-4 part 10</property>
  <property name="meta.media.0.codec.bit_rate">64777</property>
  <property name="meta.attr.0.stream.handler_name.markup">VideoHandler</property>
  <property name="meta.attr.major_brand.markup">isom</property>
  <property name="meta.attr.minor_version.markup">512</property>
  <property name="meta.attr.compatible_brands.markup">isomiso2avc1mp41</property>
  <property name="meta.attr.encoder.markup">Lavf58.20.100</property>
  <property name="meta.media.sample_aspect_num">1</property>
  <property name="meta.media.sample_aspect_den">1</property>
  <property name="meta.media.frame_rate_num">50</property>
  <property name="meta.media.frame_rate_den">1</property>
  <property name="meta.media.colorspace">709</property>
  <property name="meta.media.color_trc">1</property>
  <property name="meta.media.width">1920</property>
  <property name="meta.media.height">1080</property>
  <property name="meta.media.top_field_first">0</property>
  <property name="meta.media.progressive">1</property>
 </producer>
 <producer title="Anonymous Submission" id="36_playlist13" in="0" out="250">
  <property name="length">00:00:05:01</property>
  <property name="eof">pause</property>
  <property name="resource">/media/bordun/plagiat/Clip02_RespecteLaPuissancePapale/Logos/logo_plagiat.mp4</property>
  <property name="audio_index">-1</property>
  <property name="video_index">0</property>
  <property name="mute_on_pause">1</property>
  <property name="mlt_service">avformat-novalidate</property>
  <property name="seekable">1</property>
  <property name="aspect_ratio">1</property>
  <property name="kdenlive:folderid">17</property>
  <property name="kdenlive:file_size">286465</property>
  <property name="kdenlive:file_hash">ccf8a4849ff202c6f5aecee3ce42f74d</property>
  <property name="global_feed">1</property>
  <property name="xml">was here</property>
  <property name="meta.media.nb_streams">1</property>
  <property name="meta.media.0.stream.type">video</property>
  <property name="meta.media.0.stream.frame_rate">50</property>
  <property name="meta.media.0.stream.sample_aspect_ratio">1</property>
  <property name="meta.media.0.codec.width">1920</property>
  <property name="meta.media.0.codec.height">1080</property>
  <property name="meta.media.0.codec.rotate">0</property>
  <property name="meta.media.0.codec.frame_rate">50</property>
  <property name="meta.media.0.codec.pix_fmt">yuv420p</property>
  <property name="meta.media.0.codec.sample_aspect_ratio">1</property>
  <property name="meta.media.0.codec.colorspace">709</property>
  <property name="meta.media.0.codec.color_trc">1</property>
  <property name="meta.media.0.codec.name">h264</property>
  <property name="meta.media.0.codec.long_name">H.264 / AVC / MPEG-4 AVC / MPEG-4 part 10</property>
  <property name="meta.media.0.codec.bit_rate">148733</property>
  <property name="meta.attr.0.stream.handler_name.markup">VideoHandler</property>
  <property name="meta.attr.major_brand.markup">isom</property>
  <property name="meta.attr.minor_version.markup">512</property>
  <property name="meta.attr.compatible_brands.markup">isomiso2avc1mp41</property>
  <property name="meta.attr.encoder.markup">Lavf58.20.100</property>
  <property name="meta.media.sample_aspect_num">1</property>
  <property name="meta.media.sample_aspect_den">1</property>
  <property name="meta.media.frame_rate_num">50</property>
  <property name="meta.media.frame_rate_den">1</property>
  <property name="meta.media.colorspace">709</property>
  <property name="meta.media.color_trc">1</property>
  <property name="meta.media.width">1920</property>
  <property name="meta.media.height">1080</property>
  <property name="meta.media.top_field_first">0</property>
  <property name="meta.media.progressive">1</property>
 </producer>
 <playlist id="playlist13">
  <property name="kdenlive:track_name">Vidéo 11</property>
  <blank length="483"/>
  <entry producer="33_playlist13" in="0" out="154"/>
  <entry producer="33_playlist13" in="29" out="249"/>
  <entry producer="32_playlist13" in="0" out="11"/>
  <entry producer="32_playlist13" in="11" out="252"/>
  <entry producer="34_playlist13" in="0" out="82"/>
  <entry producer="34_playlist13" in="45" out="230"/>
  <entry producer="34_playlist13" in="238" out="249"/>
  <entry producer="39_playlist13" in="0" out="35"/>
  <entry producer="39_playlist13" in="29" out="114"/>
  <entry producer="39_playlist13" in="114" out="170"/>
  <entry producer="39_playlist13" in="116" out="170"/>
  <entry producer="39_playlist13" in="114" out="203"/>
  <entry producer="39_playlist13" in="132" out="249"/>
  <blank length="136"/>
  <entry producer="36_playlist13" in="0" out="129"/>
  <entry producer="36_playlist13" in="72" out="136"/>
  <entry producer="36_playlist13" in="119" out="221"/>
  <entry producer="36_playlist13" in="153" out="250"/>
  <filter id="filter69">
   <property name="version">0,2</property>
   <property name="mlt_service">frei0r.brightness</property>
   <property name="kdenlive_id">frei0r.brightness</property>
   <property name="tag">frei0r.brightness</property>
   <property name="kdenlive_ix">1</property>
   <property name="kdenlive_info"/>
   <property name="Brightness">0,356</property>
   <property name="disable">0</property>
  </filter>
 </playlist>
 <playlist id="playlist19">
  <property name="kdenlive:track_name">Vidéo 16</property>
  <blank length="2368"/>
  <entry producer="65" in="18" out="449">
   <filter id="filter70" in="18" out="449">
    <property name="background">colour:0x00000000</property>
    <property name="mlt_service">affine</property>
    <property name="kdenlive_id">pan_zoom</property>
    <property name="tag">affine</property>
    <property name="kdenlive_info">0/-1/</property>
    <property name="kdenlive_ix">1</property>
    <property name="disable">0</property>
    <property name="transition.geometry">0=0/-30:1920x1080:100;11=0/-29:1918x1079:100;71=3/-24:1910x1074:100;431=27,9307/-0,066482:1863,13x1048,07:100</property>
    <property name="transition.distort">0</property>
    <property name="kdenlive:sync_in_out">1</property>
   </filter>
  </entry>
 </playlist>
 <playlist id="playlist14">
  <property name="kdenlive:track_name">Vidéo 12</property>
  <blank length="2299"/>
  <entry producer="29" in="0" out="68">
   <filter id="brightness">
    <property name="start">1</property>
    <property name="level">34=0;51=0,15;60=0,3;68=0,69</property>
    <property name="mlt_service">brightness</property>
    <property name="kdenlive_id">brightness</property>
    <property name="tag">brightness</property>
    <property name="kdenlive_ix">1</property>
    <property name="kdenlive_info"/>
   </filter>
  </entry>
  <entry producer="47" in="18" out="449">
   <filter id="filter72">
    <property name="background">colour:0x00000000</property>
    <property name="mlt_service">affine</property>
    <property name="kdenlive_id">pan_zoom</property>
    <property name="tag">affine</property>
    <property name="kdenlive_ix">1</property>
    <property name="kdenlive_info"/>
    <property name="disable">0</property>
    <property name="transition.geometry">0=0/-30:1920x1080:100;432=28/0:1863x1048:100</property>
    <property name="transition.distort">0</property>
   </filter>
  </entry>
 </playlist>
 <playlist id="playlist16">
  <property name="kdenlive:track_name">Vidéo 13</property>
  <blank length="2368"/>
  <entry producer="66" in="8" out="18"/>
 </playlist>
 <producer title="Anonymous Submission" id="68_playlist17" in="0" out="9961">
  <property name="length">00:03:19:12</property>
  <property name="eof">pause</property>
  <property name="resource">/media/bordun/plagiat/Clip02_RespecteLaPuissancePapale/Assets/vhs_on_greenscreen_stock_footage_royalty_free_Suv1x2CK3xA_360p.mp4</property>
  <property name="audio_index">1</property>
  <property name="video_index">0</property>
  <property name="mute_on_pause">1</property>
  <property name="mlt_service">avformat-novalidate</property>
  <property name="seekable">1</property>
  <property name="aspect_ratio">1</property>
  <property name="kdenlive:file_size">9887889</property>
  <property name="kdenlive:file_hash">30a067bbfc9642db96df21e0922c6f06</property>
  <property name="global_feed">1</property>
  <property name="kdenlive:clipname">vhs_on_greenscreen_stock_footage_royalty_free_Suv1x2CK3xA_360p.mp4</property>
  <property name="xml">was here</property>
  <property name="meta.media.nb_streams">2</property>
  <property name="meta.media.0.stream.type">video</property>
  <property name="meta.media.0.stream.frame_rate">29,9701</property>
  <property name="meta.media.0.stream.sample_aspect_ratio">0</property>
  <property name="meta.media.0.codec.width">480</property>
  <property name="meta.media.0.codec.height">360</property>
  <property name="meta.media.0.codec.rotate">0</property>
  <property name="meta.media.0.codec.frame_rate">29,97</property>
  <property name="meta.media.0.codec.pix_fmt">yuv420p</property>
  <property name="meta.media.0.codec.sample_aspect_ratio">1</property>
  <property name="meta.media.0.codec.colorspace">601</property>
  <property name="meta.media.0.codec.name">h264</property>
  <property name="meta.media.0.codec.long_name">H.264 / AVC / MPEG-4 AVC / MPEG-4 part 10</property>
  <property name="meta.media.0.codec.bit_rate">298518</property>
  <property name="meta.attr.0.stream.creation_time.markup">2018-11-05T07:01:08.000000Z</property>
  <property name="meta.attr.0.stream.handler_name.markup">ISO Media file produced by Google Inc. Created on: 11/04/2018.</property>
  <property name="meta.media.1.stream.type">audio</property>
  <property name="meta.media.1.codec.sample_fmt">fltp</property>
  <property name="meta.media.1.codec.sample_rate">44100</property>
  <property name="meta.media.1.codec.channels">2</property>
  <property name="meta.media.1.codec.name">aac</property>
  <property name="meta.media.1.codec.long_name">AAC (Advanced Audio Coding)</property>
  <property name="meta.media.1.codec.bit_rate">95999</property>
  <property name="meta.attr.1.stream.creation_time.markup">2018-11-05T07:01:08.000000Z</property>
  <property name="meta.attr.1.stream.handler_name.markup">ISO Media file produced by Google Inc. Created on: 11/04/2018.</property>
  <property name="meta.attr.major_brand.markup">mp42</property>
  <property name="meta.attr.minor_version.markup">0</property>
  <property name="meta.attr.compatible_brands.markup">isommp42</property>
  <property name="meta.attr.creation_time.markup">2018-11-05T07:01:08.000000Z</property>
  <property name="meta.media.sample_aspect_num">1</property>
  <property name="meta.media.sample_aspect_den">1</property>
  <property name="meta.media.frame_rate_num">3731250</property>
  <property name="meta.media.frame_rate_den">124499</property>
  <property name="meta.media.colorspace">601</property>
  <property name="meta.media.color_trc">2</property>
  <property name="meta.media.width">480</property>
  <property name="meta.media.height">360</property>
  <property name="meta.media.top_field_first">0</property>
  <property name="meta.media.progressive">1</property>
 </producer>
 <playlist id="playlist17">
  <property name="kdenlive:track_name">Vidéo 14</property>
  <blank length="2361"/>
  <entry producer="68_playlist17" in="5161" out="5599">
   <filter id="filter74">
    <property name="version">0,3</property>
    <property name="mlt_service">frei0r.saturat0r</property>
    <property name="kdenlive_id">frei0r.saturat0r</property>
    <property name="tag">frei0r.saturat0r</property>
    <property name="kdenlive_ix">1</property>
    <property name="Saturation">5161=0,001</property>
    <property name="kdenlive_info"/>
    <property name="disable">0</property>
   </filter>
   <filter id="filter75">
    <property name="version">0,2</property>
    <property name="mlt_service">frei0r.brightness</property>
    <property name="kdenlive_id">frei0r.brightness</property>
    <property name="tag">frei0r.brightness</property>
    <property name="kdenlive_ix">2</property>
    <property name="Brightness">0,356</property>
    <property name="kdenlive_info"/>
    <property name="disable">0</property>
   </filter>
   <filter id="filter76" in="5161" out="5599">
    <property name="background">colour:0x00000000</property>
    <property name="mlt_service">affine</property>
    <property name="kdenlive_id">pan_zoom</property>
    <property name="tag">affine</property>
    <property name="kdenlive_ix">3</property>
    <property name="transition.geometry">-384/-216:2688x1512:100</property>
    <property name="transition.distort">0</property>
    <property name="kdenlive:sync_in_out">1</property>
    <property name="kdenlive_info"/>
   </filter>
  </entry>
 </playlist>
 <tractor title="Anonymous Submission" id="maintractor" global_feed="1" in="0" out="2800">
  <track producer="black_track"/>
  <track hide="video" producer="playlist1"/>
  <track hide="video" producer="playlist2"/>
  <track hide="video" producer="playlist11"/>
  <track hide="video" producer="playlist15"/>
  <track hide="audio" producer="playlist3"/>
  <track producer="playlist12"/>
  <track hide="audio" producer="playlist4"/>
  <track hide="audio" producer="playlist5"/>
  <track hide="audio" producer="playlist0"/>
  <track hide="audio" producer="playlist6"/>
  <track hide="audio" producer="playlist7"/>
  <track hide="audio" producer="playlist9"/>
  <track hide="audio" producer="playlist8"/>
  <track hide="audio" producer="playlist10"/>
  <track producer="playlist18"/>
  <track hide="audio" producer="playlist13"/>
  <track producer="playlist19"/>
  <track producer="playlist14"/>
  <track hide="audio" producer="playlist16"/>
  <track producer="playlist17"/>
  <transition id="transition0">
   <property name="a_track">0</property>
   <property name="b_track">1</property>
   <property name="mlt_service">mix</property>
   <property name="always_active">1</property>
   <property name="sum">1</property>
   <property name="internal_added">237</property>
  </transition>
  <transition id="transition1">
   <property name="a_track">0</property>
   <property name="b_track">2</property>
   <property name="mlt_service">mix</property>
   <property name="always_active">1</property>
   <property name="sum">1</property>
   <property name="internal_added">237</property>
  </transition>
  <transition id="transition2">
   <property name="a_track">0</property>
   <property name="b_track">3</property>
   <property name="mlt_service">mix</property>
   <property name="always_active">1</property>
   <property name="sum">1</property>
   <property name="internal_added">237</property>
  </transition>
  <transition id="transition3">
   <property name="a_track">0</property>
   <property name="b_track">4</property>
   <property name="mlt_service">mix</property>
   <property name="always_active">1</property>
   <property name="sum">1</property>
   <property name="internal_added">237</property>
  </transition>
  <transition id="transition4">
   <property name="a_track">0</property>
   <property name="b_track">5</property>
   <property name="mlt_service">mix</property>
   <property name="always_active">1</property>
   <property name="sum">1</property>
   <property name="internal_added">237</property>
  </transition>
  <transition id="transition5">
   <property name="a_track">0</property>
   <property name="b_track">6</property>
   <property name="mlt_service">mix</property>
   <property name="always_active">1</property>
   <property name="sum">1</property>
   <property name="internal_added">237</property>
  </transition>
  <transition id="transition6">
   <property name="a_track">0</property>
   <property name="b_track">7</property>
   <property name="mlt_service">mix</property>
   <property name="always_active">1</property>
   <property name="sum">1</property>
   <property name="internal_added">237</property>
  </transition>
  <transition id="transition7">
   <property name="a_track">0</property>
   <property name="b_track">8</property>
   <property name="mlt_service">mix</property>
   <property name="always_active">1</property>
   <property name="sum">1</property>
   <property name="internal_added">237</property>
  </transition>
  <transition id="transition8">
   <property name="a_track">0</property>
   <property name="b_track">9</property>
   <property name="mlt_service">mix</property>
   <property name="always_active">1</property>
   <property name="sum">1</property>
   <property name="internal_added">237</property>
  </transition>
  <transition id="transition9">
   <property name="a_track">0</property>
   <property name="b_track">10</property>
   <property name="mlt_service">mix</property>
   <property name="always_active">1</property>
   <property name="sum">1</property>
   <property name="internal_added">237</property>
  </transition>
  <transition id="transition10">
   <property name="a_track">0</property>
   <property name="b_track">11</property>
   <property name="mlt_service">mix</property>
   <property name="always_active">1</property>
   <property name="sum">1</property>
   <property name="internal_added">237</property>
  </transition>
  <transition id="transition11">
   <property name="a_track">0</property>
   <property name="b_track">12</property>
   <property name="mlt_service">mix</property>
   <property name="always_active">1</property>
   <property name="sum">1</property>
   <property name="internal_added">237</property>
  </transition>
  <transition id="transition12">
   <property name="a_track">0</property>
   <property name="b_track">13</property>
   <property name="mlt_service">mix</property>
   <property name="always_active">1</property>
   <property name="sum">1</property>
   <property name="internal_added">237</property>
  </transition>
  <transition id="transition13">
   <property name="a_track">0</property>
   <property name="b_track">14</property>
   <property name="mlt_service">mix</property>
   <property name="always_active">1</property>
   <property name="sum">1</property>
   <property name="internal_added">237</property>
  </transition>
  <transition id="transition14">
   <property name="a_track">0</property>
   <property name="b_track">15</property>
   <property name="mlt_service">mix</property>
   <property name="always_active">1</property>
   <property name="sum">1</property>
   <property name="internal_added">237</property>
  </transition>
  <transition id="transition15">
   <property name="a_track">0</property>
   <property name="b_track">16</property>
   <property name="mlt_service">mix</property>
   <property name="always_active">1</property>
   <property name="sum">1</property>
   <property name="internal_added">237</property>
  </transition>
  <transition id="transition17">
   <property name="a_track">0</property>
   <property name="b_track">17</property>
   <property name="mlt_service">mix</property>
   <property name="always_active">1</property>
   <property name="sum">1</property>
   <property name="internal_added">237</property>
  </transition>
  <transition id="transition18">
   <property name="a_track">0</property>
   <property name="b_track">18</property>
   <property name="mlt_service">mix</property>
   <property name="always_active">1</property>
   <property name="sum">1</property>
   <property name="internal_added">237</property>
  </transition>
  <transition id="transition19">
   <property name="a_track">0</property>
   <property name="b_track">19</property>
   <property name="mlt_service">mix</property>
   <property name="always_active">1</property>
   <property name="sum">1</property>
   <property name="internal_added">237</property>
  </transition>
  <transition id="transition20">
   <property name="a_track">0</property>
   <property name="b_track">20</property>
   <property name="mlt_service">mix</property>
   <property name="always_active">1</property>
   <property name="sum">1</property>
   <property name="internal_added">237</property>
  </transition>
  <transition id="transition16" in="2361" out="2378">
   <property name="a_track">18</property>
   <property name="b_track">19</property>
   <property name="factory">loader</property>
   <property name="mlt_service">luma</property>
   <property name="kdenlive_id">dissolve</property>
   <property name="force_track">0</property>
   <property name="reverse">1</property>
  </transition>
  <transition id="transition21" in="400" out="458">
   <property name="a_track">13</property>
   <property name="b_track">14</property>
   <property name="factory">loader</property>
   <property name="mlt_service">luma</property>
   <property name="kdenlive_id">dissolve</property>
   <property name="force_track">0</property>
   <property name="reverse">0</property>
  </transition>
  <transition id="transition22" in="206" out="237">
   <property name="a_track">13</property>
   <property name="b_track">14</property>
   <property name="factory">loader</property>
   <property name="mlt_service">luma</property>
   <property name="kdenlive_id">dissolve</property>
   <property name="force_track">0</property>
   <property name="reverse">0</property>
  </transition>
  <transition id="transition23" in="331" out="361">
   <property name="a_track">13</property>
   <property name="b_track">14</property>
   <property name="factory">loader</property>
   <property name="mlt_service">luma</property>
   <property name="kdenlive_id">dissolve</property>
   <property name="force_track">0</property>
   <property name="reverse">0</property>
  </transition>
  <transition id="transition24" in="268" out="299">
   <property name="a_track">13</property>
   <property name="b_track">14</property>
   <property name="factory">loader</property>
   <property name="mlt_service">luma</property>
   <property name="kdenlive_id">dissolve</property>
   <property name="force_track">0</property>
   <property name="reverse">0</property>
  </transition>
  <transition id="transition25" in="143" out="174">
   <property name="a_track">13</property>
   <property name="b_track">14</property>
   <property name="factory">loader</property>
   <property name="mlt_service">luma</property>
   <property name="kdenlive_id">dissolve</property>
   <property name="force_track">0</property>
   <property name="reverse">0</property>
  </transition>
  <transition id="transition26" in="81" out="112">
   <property name="a_track">13</property>
   <property name="b_track">14</property>
   <property name="factory">loader</property>
   <property name="mlt_service">luma</property>
   <property name="kdenlive_id">dissolve</property>
   <property name="force_track">0</property>
   <property name="reverse">0</property>
  </transition>
  <transition id="transition27" in="1205" out="1292">
   <property name="a_track">13</property>
   <property name="b_track">14</property>
   <property name="start">0/0:100%x100%</property>
   <property name="factory">loader</property>
   <property name="aligned">1</property>
   <property name="progressive">1</property>
   <property name="mlt_service">composite</property>
   <property name="kdenlive_id">composite</property>
   <property name="force_track">0</property>
   <property name="deinterlace">0</property>
   <property name="distort">0</property>
   <property name="fill">1</property>
   <property name="geometry">0/0:1920x1080:100</property>
   <property name="halign">centre</property>
   <property name="luma_invert">0</property>
   <property name="operator">over</property>
   <property name="softness">0</property>
   <property name="valign">middle</property>
   <property name="automatic">0</property>
   <property name="luma"/>
  </transition>
  <transition id="transition30" in="730" out="731">
   <property name="a_track">12</property>
   <property name="b_track">14</property>
   <property name="rect">0=-631 -620 2880 1620 1</property>
   <property name="compositing">0</property>
   <property name="distort">0</property>
   <property name="rotate_center">0</property>
   <property name="mlt_service">qtblend</property>
   <property name="kdenlive_id">qtblend</property>
   <property name="force_track">1</property>
   <property name="rotation">0=1</property>
  </transition>
  <transition id="transition31" in="734" out="735">
   <property name="a_track">12</property>
   <property name="b_track">14</property>
   <property name="rect">0=-623 -621 2880 1620 1</property>
   <property name="compositing">0</property>
   <property name="distort">0</property>
   <property name="rotate_center">0</property>
   <property name="mlt_service">qtblend</property>
   <property name="kdenlive_id">qtblend</property>
   <property name="force_track">1</property>
   <property name="rotation">0=1</property>
  </transition>
  <transition id="transition32" in="738" out="739">
   <property name="a_track">12</property>
   <property name="b_track">14</property>
   <property name="rect">0=-614 -622 2880 1620 1</property>
   <property name="compositing">0</property>
   <property name="distort">0</property>
   <property name="rotate_center">0</property>
   <property name="mlt_service">qtblend</property>
   <property name="kdenlive_id">qtblend</property>
   <property name="force_track">1</property>
   <property name="rotation">0=1</property>
  </transition>
  <transition id="transition33" in="741" out="744">
   <property name="a_track">12</property>
   <property name="b_track">14</property>
   <property name="rect">0=546 147 1728 972 1;1=552 147 1728 972 1;2=556 147 1728 972 1;3=561 147 1728 972 1</property>
   <property name="compositing">0</property>
   <property name="distort">0</property>
   <property name="rotate_center">0</property>
   <property name="mlt_service">qtblend</property>
   <property name="kdenlive_id">qtblend</property>
   <property name="force_track">1</property>
   <property name="rotation">0=1;1=1;2=1;3=1</property>
  </transition>
  <transition id="transition28" in="2299" out="2367">
   <property name="a_track">12</property>
   <property name="b_track">18</property>
   <property name="version">0,2</property>
   <property name="mlt_service">frei0r.dodge</property>
   <property name="force_track">1</property>
  </transition>
  <transition id="transition29" in="2356" out="2367">
   <property name="a_track">12</property>
   <property name="b_track">20</property>
   <property name="version">0,2</property>
   <property name="mlt_service">frei0r.grain_merge</property>
   <property name="force_track">1</property>
  </transition>
  <transition id="transition43" in="187" out="2190">
   <property name="a_track">8</property>
   <property name="b_track">11</property>
   <property name="start">0/0:100%x100%</property>
   <property name="factory">loader</property>
   <property name="aligned">1</property>
   <property name="progressive">1</property>
   <property name="mlt_service">composite</property>
   <property name="kdenlive_id">composite</property>
   <property name="force_track">1</property>
   <property name="deinterlace">0</property>
   <property name="distort">0</property>
   <property name="fill">1</property>
   <property name="geometry">0%/0%:100%x100%:100</property>
   <property name="halign">centre</property>
   <property name="luma_invert">0</property>
   <property name="operator">over</property>
   <property name="softness">0</property>
   <property name="valign">middle</property>
   <property name="automatic">0</property>
   <property name="luma"/>
  </transition>
  <transition id="transition44" in="187" out="2298">
   <property name="a_track">8</property>
   <property name="b_track">12</property>
   <property name="start">0/0:100%x100%</property>
   <property name="factory">loader</property>
   <property name="aligned">1</property>
   <property name="progressive">1</property>
   <property name="mlt_service">composite</property>
   <property name="kdenlive_id">composite</property>
   <property name="force_track">1</property>
   <property name="deinterlace">0</property>
   <property name="distort">0</property>
   <property name="fill">1</property>
   <property name="geometry">0=0/0:1920x1080:100;2111=0/0:1920x1080:100</property>
   <property name="halign">centre</property>
   <property name="luma_invert">0</property>
   <property name="operator">over</property>
   <property name="softness">0</property>
   <property name="valign">middle</property>
   <property name="automatic">0</property>
   <property name="luma"/>
  </transition>
  <transition id="transition39" in="1113" out="2298">
   <property name="a_track">8</property>
   <property name="b_track">13</property>
   <property name="start">0/0:100%x100%</property>
   <property name="factory">loader</property>
   <property name="aligned">1</property>
   <property name="progressive">1</property>
   <property name="mlt_service">composite</property>
   <property name="kdenlive_id">composite</property>
   <property name="force_track">1</property>
   <property name="deinterlace">0</property>
   <property name="distort">0</property>
   <property name="fill">1</property>
   <property name="geometry">0%/0%:100%x100%:100</property>
   <property name="halign">centre</property>
   <property name="luma_invert">0</property>
   <property name="operator">over</property>
   <property name="softness">0</property>
   <property name="valign">middle</property>
   <property name="automatic">0</property>
   <property name="luma"/>
  </transition>
  <transition id="transition40" in="187" out="857">
   <property name="a_track">8</property>
   <property name="b_track">13</property>
   <property name="start">0/0:100%x100%</property>
   <property name="factory">loader</property>
   <property name="aligned">1</property>
   <property name="progressive">1</property>
   <property name="mlt_service">composite</property>
   <property name="kdenlive_id">composite</property>
   <property name="force_track">1</property>
   <property name="deinterlace">0</property>
   <property name="distort">0</property>
   <property name="fill">1</property>
   <property name="geometry">0%/0%:100%x100%:100</property>
   <property name="halign">centre</property>
   <property name="luma_invert">0</property>
   <property name="operator">over</property>
   <property name="softness">0</property>
   <property name="valign">middle</property>
  </transition>
  <transition id="transition41" in="187" out="2367">
   <property name="a_track">8</property>
   <property name="b_track">16</property>
   <property name="version">0,2</property>
   <property name="mlt_service">frei0r.addition_alpha</property>
   <property name="force_track">1</property>
   <property name="automatic">0</property>
  </transition>
  <transition id="transition38" in="2368" out="2799">
   <property name="a_track">8</property>
   <property name="b_track">17</property>
   <property name="version">0,2</property>
   <property name="mlt_service">frei0r.addition_alpha</property>
   <property name="force_track">1</property>
  </transition>
  <transition id="transition42" in="2368" out="2799">
   <property name="a_track">8</property>
   <property name="b_track">18</property>
   <property name="version">0,2</property>
   <property name="mlt_service">frei0r.addition_alpha</property>
   <property name="force_track">1</property>
  </transition>
  <transition id="transition45" in="2368" out="2799">
   <property name="a_track">8</property>
   <property name="b_track">20</property>
   <property name="version">0,2</property>
   <property name="mlt_service">frei0r.grain_merge</property>
   <property name="force_track">1</property>
  </transition>
  <transition id="transition34" in="2368" out="2799">
   <property name="a_track">7</property>
   <property name="b_track">9</property>
   <property name="start">0/0:100%x100%</property>
   <property name="factory">loader</property>
   <property name="aligned">0</property>
   <property name="progressive">1</property>
   <property name="mlt_service">composite</property>
   <property name="kdenlive_id">slide</property>
   <property name="force_track">1</property>
   <property name="deinterlace">0</property>
   <property name="geometry">0%/0%:100%x100%:100;-1=0%/0%:100%x100%:100</property>
   <property name="invert">0</property>
  </transition>
  <transition id="transition35" in="2368" out="2799">
   <property name="a_track">7</property>
   <property name="b_track">10</property>
   <property name="start">0/0:100%x100%</property>
   <property name="factory">loader</property>
   <property name="aligned">0</property>
   <property name="progressive">1</property>
   <property name="mlt_service">composite</property>
   <property name="kdenlive_id">slide</property>
   <property name="force_track">1</property>
   <property name="deinterlace">0</property>
   <property name="geometry">0%/0%:100%x100%:100;-1=0%/0%:100%x100%:100</property>
   <property name="invert">0</property>
  </transition>
  <transition id="transition36" in="2368" out="2799">
   <property name="a_track">7</property>
   <property name="b_track">11</property>
   <property name="start">0/0:100%x100%</property>
   <property name="factory">loader</property>
   <property name="aligned">0</property>
   <property name="progressive">1</property>
   <property name="mlt_service">composite</property>
   <property name="kdenlive_id">slide</property>
   <property name="force_track">1</property>
   <property name="deinterlace">0</property>
   <property name="geometry">0%/0%:100%x100%:100;-1=0%/0%:100%x100%:100</property>
   <property name="invert">0</property>
   <property name="automatic">0</property>
  </transition>
  <transition id="transition37" in="2368" out="2799">
   <property name="a_track">7</property>
   <property name="b_track">12</property>
   <property name="start">0/0:100%x100%</property>
   <property name="factory">loader</property>
   <property name="aligned">0</property>
   <property name="progressive">1</property>
   <property name="mlt_service">composite</property>
   <property name="kdenlive_id">slide</property>
   <property name="force_track">1</property>
   <property name="deinterlace">0</property>
   <property name="geometry">0%/0%:100%x100%:100;-1=0%/0%:100%x100%:100</property>
   <property name="invert">0</property>
   <property name="automatic">0</property>
  </transition>
  <transition id="transition46" in="2368" out="2799">
   <property name="a_track">7</property>
   <property name="b_track">13</property>
   <property name="start">0/0:100%x100%</property>
   <property name="factory">loader</property>
   <property name="aligned">0</property>
   <property name="progressive">1</property>
   <property name="mlt_service">composite</property>
   <property name="kdenlive_id">slide</property>
   <property name="force_track">1</property>
   <property name="deinterlace">0</property>
   <property name="geometry">0%/0%:100%x100%:100;-1=0%/0%:100%x100%:100</property>
   <property name="invert">0</property>
  </transition>
  <transition id="transition47" in="2368" out="2799">
   <property name="a_track">7</property>
   <property name="b_track">14</property>
   <property name="start">0/0:100%x100%</property>
   <property name="factory">loader</property>
   <property name="aligned">0</property>
   <property name="progressive">1</property>
   <property name="mlt_service">composite</property>
   <property name="kdenlive_id">slide</property>
   <property name="force_track">1</property>
   <property name="deinterlace">0</property>
   <property name="geometry">0%/0%:100%x100%:100;-1=0%/0%:100%x100%:100</property>
   <property name="invert">0</property>
  </transition>
  <transition id="transition48" in="2368" out="2799">
   <property name="a_track">7</property>
   <property name="b_track">15</property>
   <property name="start">0/0:100%x100%</property>
   <property name="factory">loader</property>
   <property name="aligned">0</property>
   <property name="progressive">1</property>
   <property name="mlt_service">composite</property>
   <property name="kdenlive_id">slide</property>
   <property name="force_track">1</property>
   <property name="deinterlace">0</property>
   <property name="geometry">0%/0%:100%x100%:100;-1=0%/0%:100%x100%:100</property>
   <property name="invert">0</property>
  </transition>
 </tractor>
</mlt>
