<?xml version='1.0' encoding='utf-8'?>
<mlt title="Anonymous Submission" LC_NUMERIC="fr_FR.UTF-8" producer="main bin" version="6.13.0" root="/media/bordun/plagiat/Clip02_RespecteLaPuissancePapale/Video">
 <profile frame_rate_num="50" sample_aspect_num="1" display_aspect_den="9" colorspace="709" progressive="1" description="HD 1080p 50 fps" display_aspect_num="16" frame_rate_den="1" width="1920" height="1080" sample_aspect_den="1"/>
 <producer title="Anonymous Submission" id="1" in="0" out="14561">
  <property name="length">00:04:51:12</property>
  <property name="eof">pause</property>
  <property name="resource">/media/bordun/plagiat/2018-12-10_Plagiat_RespecteLaPuissancePapale/Carte_1/CAM1_2018-12-10_1541_C0000.mov</property>
  <property name="audio_index">2</property>
  <property name="video_index">1</property>
  <property name="mute_on_pause">1</property>
  <property name="mlt_service">avformat-novalidate</property>
  <property name="meta.media.nb_streams">3</property>
  <property name="meta.media.1.stream.type">video</property>
  <property name="meta.media.1.stream.frame_rate">50</property>
  <property name="meta.media.1.stream.sample_aspect_ratio">1</property>
  <property name="meta.media.1.codec.width">1920</property>
  <property name="meta.media.1.codec.height">1080</property>
  <property name="meta.media.1.codec.rotate">0</property>
  <property name="meta.media.1.codec.frame_rate">5000</property>
  <property name="meta.media.1.codec.pix_fmt">yuv422p10le</property>
  <property name="meta.media.1.codec.sample_aspect_ratio">0</property>
  <property name="meta.media.1.codec.colorspace">709</property>
  <property name="meta.media.1.codec.name">prores</property>
  <property name="meta.media.1.codec.long_name">ProRes</property>
  <property name="meta.media.1.codec.bit_rate">366959179</property>
  <property name="meta.attr.1.stream.creation_time.markup">2018-12-10T15:41:17.000000Z</property>
  <property name="meta.attr.1.stream.language.markup">eng</property>
  <property name="meta.attr.1.stream.handler_name.markup">Apple Alias Data Handler</property>
  <property name="meta.attr.1.stream.encoder.markup">Apple ProRes 422 HQ</property>
  <property name="meta.attr.1.stream.timecode.markup">15:41:17:21</property>
  <property name="meta.media.2.stream.type">audio</property>
  <property name="meta.media.2.codec.sample_fmt">s32</property>
  <property name="meta.media.2.codec.sample_rate">48000</property>
  <property name="meta.media.2.codec.channels">2</property>
  <property name="meta.media.2.codec.name">pcm_s24le</property>
  <property name="meta.media.2.codec.long_name">PCM signed 24-bit little-endian</property>
  <property name="meta.media.2.codec.bit_rate">2304000</property>
  <property name="meta.attr.2.stream.creation_time.markup">2018-12-10T15:41:17.000000Z</property>
  <property name="meta.attr.2.stream.language.markup">eng</property>
  <property name="meta.attr.2.stream.handler_name.markup">Apple Alias Data Handler</property>
  <property name="meta.attr.2.stream.timecode.markup">15:41:17:21</property>
  <property name="meta.attr.com.apple.proapps.manufacturer.markup">Blackmagic Design</property>
  <property name="meta.attr.com.apple.proapps.cameraName.markup">CAM1</property>
  <property name="meta.attr.com.apple.proapps.isGood.markup">0</property>
  <property name="meta.attr.com.apple.proapps.customgamma.markup">com.blackmagic-design.cinemacamera.filmlog</property>
  <property name="meta.attr.com.blackmagic-design.cinemacamera.uuid.markup">18E5E00548F94923B646613A73C01B56</property>
  <property name="meta.attr.creation_time.markup">2018-12-10T15:41:17.000000Z</property>
  <property name="meta.attr.timecode.markup">15:41:17:21</property>
  <property name="seekable">1</property>
  <property name="meta.media.sample_aspect_num">1</property>
  <property name="meta.media.sample_aspect_den">1</property>
  <property name="aspect_ratio">1</property>
  <property name="kdenlive:folderid">9</property>
  <property name="kdenlive:file_size">13444313961</property>
  <property name="kdenlive:file_hash">ef25fabf181f2da437febd9d2ce92b72</property>
  <property name="global_feed">1</property>
  <property name="meta.media.frame_rate_num">50</property>
  <property name="meta.media.frame_rate_den">1</property>
  <property name="meta.media.colorspace">709</property>
  <property name="meta.media.color_trc">1</property>
  <property name="meta.media.width">1920</property>
  <property name="meta.media.height">1080</property>
  <property name="meta.media.top_field_first">0</property>
  <property name="meta.media.progressive">1</property>
  <property name="meta.media.1.codec.color_trc">1</property>
  <filter id="frei0r.colgate">
   <property name="version">0,1</property>
   <property name="mlt_service">frei0r.colgate</property>
   <property name="kdenlive_id">frei0r.colgate</property>
   <property name="tag">frei0r.colgate</property>
   <property name="kdenlive_ix">1</property>
   <property name="kdenlive_info"/>
   <property name="Neutral Color">0x7f7f7fff</property>
   <property name="Color Temperature">0=0,5</property>
  </filter>
  <filter id="frei0r.levels">
   <property name="version">0,3</property>
   <property name="mlt_service">frei0r.levels</property>
   <property name="kdenlive_id">frei0r.levels</property>
   <property name="tag">frei0r.levels</property>
   <property name="kdenlive_ix">2</property>
   <property name="kdenlive_info"/>
   <property name="Channel">0,3</property>
   <property name="Input black level">0=0</property>
   <property name="Input white level">0=0,65</property>
   <property name="Gamma">0=0,25</property>
   <property name="Black output">0=0</property>
   <property name="White output">0=1</property>
   <property name="Show histogram">0</property>
   <property name="Histogram position">0,3</property>
  </filter>
 </producer>
 <producer title="Anonymous Submission" id="5" in="0" out="19246">
  <property name="length">00:06:24:47</property>
  <property name="eof">pause</property>
  <property name="resource">/media/bordun/plagiat/2018-12-10_Plagiat_RespecteLaPuissancePapale/Carte_2/CAM1_2018-12-10_1629_C0000.mov</property>
  <property name="audio_index">2</property>
  <property name="video_index">1</property>
  <property name="mute_on_pause">1</property>
  <property name="mlt_service">avformat-novalidate</property>
  <property name="meta.media.nb_streams">3</property>
  <property name="meta.media.1.stream.type">video</property>
  <property name="meta.media.1.stream.frame_rate">50</property>
  <property name="meta.media.1.stream.sample_aspect_ratio">1</property>
  <property name="meta.media.1.codec.width">1920</property>
  <property name="meta.media.1.codec.height">1080</property>
  <property name="meta.media.1.codec.rotate">0</property>
  <property name="meta.media.1.codec.frame_rate">5000</property>
  <property name="meta.media.1.codec.pix_fmt">yuv422p10le</property>
  <property name="meta.media.1.codec.sample_aspect_ratio">0</property>
  <property name="meta.media.1.codec.colorspace">709</property>
  <property name="meta.media.1.codec.name">prores</property>
  <property name="meta.media.1.codec.long_name">ProRes</property>
  <property name="meta.media.1.codec.bit_rate">366959020</property>
  <property name="meta.attr.1.stream.creation_time.markup">2018-12-10T16:29:10.000000Z</property>
  <property name="meta.attr.1.stream.language.markup">eng</property>
  <property name="meta.attr.1.stream.handler_name.markup">Apple Alias Data Handler</property>
  <property name="meta.attr.1.stream.encoder.markup">Apple ProRes 422 HQ</property>
  <property name="meta.attr.1.stream.timecode.markup">16:29:10:24</property>
  <property name="meta.media.2.stream.type">audio</property>
  <property name="meta.media.2.codec.sample_fmt">s32</property>
  <property name="meta.media.2.codec.sample_rate">48000</property>
  <property name="meta.media.2.codec.channels">2</property>
  <property name="meta.media.2.codec.name">pcm_s24le</property>
  <property name="meta.media.2.codec.long_name">PCM signed 24-bit little-endian</property>
  <property name="meta.media.2.codec.bit_rate">2304000</property>
  <property name="meta.attr.2.stream.creation_time.markup">2018-12-10T16:29:10.000000Z</property>
  <property name="meta.attr.2.stream.language.markup">eng</property>
  <property name="meta.attr.2.stream.handler_name.markup">Apple Alias Data Handler</property>
  <property name="meta.attr.2.stream.timecode.markup">16:29:10:24</property>
  <property name="meta.attr.com.apple.proapps.manufacturer.markup">Blackmagic Design</property>
  <property name="meta.attr.com.apple.proapps.cameraName.markup">CAM1</property>
  <property name="meta.attr.com.apple.proapps.isGood.markup">0</property>
  <property name="meta.attr.com.apple.proapps.customgamma.markup">com.blackmagic-design.cinemacamera.filmlog</property>
  <property name="meta.attr.com.blackmagic-design.cinemacamera.uuid.markup">18E5E00548F94923B646613A73C01B56</property>
  <property name="meta.attr.creation_time.markup">2018-12-10T16:29:10.000000Z</property>
  <property name="meta.attr.timecode.markup">16:29:10:24</property>
  <property name="seekable">1</property>
  <property name="meta.media.sample_aspect_num">1</property>
  <property name="meta.media.sample_aspect_den">1</property>
  <property name="aspect_ratio">1</property>
  <property name="kdenlive:folderid">9</property>
  <property name="kdenlive:file_size">17769713233</property>
  <property name="kdenlive:file_hash">40fd95546ae131f6c5881d8660dbcccc</property>
  <property name="global_feed">1</property>
  <property name="meta.media.frame_rate_num">50</property>
  <property name="meta.media.frame_rate_den">1</property>
  <property name="meta.media.colorspace">709</property>
  <property name="meta.media.color_trc">1</property>
  <property name="meta.media.width">1920</property>
  <property name="meta.media.height">1080</property>
  <property name="meta.media.top_field_first">0</property>
  <property name="meta.media.progressive">1</property>
  <property name="meta.media.1.codec.color_trc">1</property>
  <property name="kdenlive:zone_in">15227</property>
  <property name="kdenlive:zone_out">15543</property>
  <filter id="filter0">
   <property name="version">0,1</property>
   <property name="mlt_service">frei0r.colgate</property>
   <property name="kdenlive_id">frei0r.colgate</property>
   <property name="tag">frei0r.colgate</property>
   <property name="kdenlive_ix">1</property>
   <property name="kdenlive_info"/>
   <property name="Neutral Color">0x7f7f7fff</property>
   <property name="Color Temperature">0=0,5</property>
   <property name="disable">0</property>
  </filter>
  <filter id="filter1">
   <property name="version">0,3</property>
   <property name="mlt_service">frei0r.levels</property>
   <property name="kdenlive_id">frei0r.levels</property>
   <property name="tag">frei0r.levels</property>
   <property name="kdenlive_ix">2</property>
   <property name="kdenlive_info"/>
   <property name="Channel">0,3</property>
   <property name="Input black level">0=0</property>
   <property name="Input white level">0=0,65</property>
   <property name="Gamma">0=0,25</property>
   <property name="Black output">0=0</property>
   <property name="White output">0=1</property>
   <property name="Show histogram">0</property>
   <property name="Histogram position">0,3</property>
  </filter>
 </producer>
 <producer title="Anonymous Submission" id="4" in="0" out="24870">
  <property name="length">00:08:17:21</property>
  <property name="eof">pause</property>
  <property name="resource">/media/bordun/plagiat/2018-12-10_Plagiat_RespecteLaPuissancePapale/Carte_1/CAM1_2018-12-10_1615_C0003.mov</property>
  <property name="audio_index">2</property>
  <property name="video_index">1</property>
  <property name="mute_on_pause">1</property>
  <property name="mlt_service">avformat-novalidate</property>
  <property name="meta.media.nb_streams">3</property>
  <property name="meta.media.1.stream.type">video</property>
  <property name="meta.media.1.stream.frame_rate">50</property>
  <property name="meta.media.1.stream.sample_aspect_ratio">1</property>
  <property name="meta.media.1.codec.width">1920</property>
  <property name="meta.media.1.codec.height">1080</property>
  <property name="meta.media.1.codec.rotate">0</property>
  <property name="meta.media.1.codec.frame_rate">5000</property>
  <property name="meta.media.1.codec.pix_fmt">yuv422p10le</property>
  <property name="meta.media.1.codec.sample_aspect_ratio">0</property>
  <property name="meta.media.1.codec.colorspace">709</property>
  <property name="meta.media.1.codec.name">prores</property>
  <property name="meta.media.1.codec.long_name">ProRes</property>
  <property name="meta.media.1.codec.bit_rate">366958409</property>
  <property name="meta.attr.1.stream.creation_time.markup">2018-12-10T16:15:42.000000Z</property>
  <property name="meta.attr.1.stream.language.markup">eng</property>
  <property name="meta.attr.1.stream.handler_name.markup">Apple Alias Data Handler</property>
  <property name="meta.attr.1.stream.encoder.markup">Apple ProRes 422 HQ</property>
  <property name="meta.attr.1.stream.timecode.markup">16:15:42:33</property>
  <property name="meta.media.2.stream.type">audio</property>
  <property name="meta.media.2.codec.sample_fmt">s32</property>
  <property name="meta.media.2.codec.sample_rate">48000</property>
  <property name="meta.media.2.codec.channels">2</property>
  <property name="meta.media.2.codec.name">pcm_s24le</property>
  <property name="meta.media.2.codec.long_name">PCM signed 24-bit little-endian</property>
  <property name="meta.media.2.codec.bit_rate">2304000</property>
  <property name="meta.attr.2.stream.creation_time.markup">2018-12-10T16:15:42.000000Z</property>
  <property name="meta.attr.2.stream.language.markup">eng</property>
  <property name="meta.attr.2.stream.handler_name.markup">Apple Alias Data Handler</property>
  <property name="meta.attr.2.stream.timecode.markup">16:15:42:33</property>
  <property name="meta.attr.com.apple.proapps.manufacturer.markup">Blackmagic Design</property>
  <property name="meta.attr.com.apple.proapps.cameraName.markup">CAM1</property>
  <property name="meta.attr.com.apple.proapps.isGood.markup">0</property>
  <property name="meta.attr.com.apple.proapps.customgamma.markup">com.blackmagic-design.cinemacamera.filmlog</property>
  <property name="meta.attr.com.blackmagic-design.cinemacamera.uuid.markup">18E5E00548F94923B646613A73C01B56</property>
  <property name="meta.attr.creation_time.markup">2018-12-10T16:15:42.000000Z</property>
  <property name="meta.attr.timecode.markup">16:15:42:33</property>
  <property name="seekable">1</property>
  <property name="meta.media.sample_aspect_num">1</property>
  <property name="meta.media.sample_aspect_den">1</property>
  <property name="aspect_ratio">1</property>
  <property name="kdenlive:folderid">9</property>
  <property name="kdenlive:file_size">22962054105</property>
  <property name="kdenlive:file_hash">c46129788c0a47f07299f13c18fcc857</property>
  <property name="global_feed">1</property>
  <property name="meta.media.frame_rate_num">50</property>
  <property name="meta.media.frame_rate_den">1</property>
  <property name="meta.media.colorspace">709</property>
  <property name="meta.media.color_trc">1</property>
  <property name="meta.media.width">1920</property>
  <property name="meta.media.height">1080</property>
  <property name="meta.media.top_field_first">0</property>
  <property name="meta.media.progressive">1</property>
  <property name="meta.media.1.codec.color_trc">1</property>
  <property name="kdenlive:zone_in">18524</property>
  <property name="kdenlive:zone_out">18572</property>
  <filter id="filter2">
   <property name="version">0,1</property>
   <property name="mlt_service">frei0r.colgate</property>
   <property name="kdenlive_id">frei0r.colgate</property>
   <property name="tag">frei0r.colgate</property>
   <property name="kdenlive_ix">1</property>
   <property name="kdenlive_info"/>
   <property name="Neutral Color">0x7f7f7fff</property>
   <property name="Color Temperature">0=0,5</property>
  </filter>
  <filter id="filter3">
   <property name="version">0,3</property>
   <property name="mlt_service">frei0r.levels</property>
   <property name="kdenlive_id">frei0r.levels</property>
   <property name="tag">frei0r.levels</property>
   <property name="kdenlive_ix">2</property>
   <property name="kdenlive_info"/>
   <property name="Channel">0,3</property>
   <property name="Input black level">0=0</property>
   <property name="Input white level">0=0,65</property>
   <property name="Gamma">0=0,25</property>
   <property name="Black output">0=0</property>
   <property name="White output">0=1</property>
   <property name="Show histogram">0</property>
   <property name="Histogram position">0,3</property>
  </filter>
 </producer>
 <producer title="Anonymous Submission" id="3" in="0" out="11635">
  <property name="length">00:03:52:36</property>
  <property name="eof">pause</property>
  <property name="resource">/media/bordun/plagiat/2018-12-10_Plagiat_RespecteLaPuissancePapale/Carte_1/CAM1_2018-12-10_1601_C0002.mov</property>
  <property name="audio_index">2</property>
  <property name="video_index">1</property>
  <property name="mute_on_pause">1</property>
  <property name="mlt_service">avformat-novalidate</property>
  <property name="meta.media.nb_streams">3</property>
  <property name="meta.media.1.stream.type">video</property>
  <property name="meta.media.1.stream.frame_rate">50</property>
  <property name="meta.media.1.stream.sample_aspect_ratio">1</property>
  <property name="meta.media.1.codec.width">1920</property>
  <property name="meta.media.1.codec.height">1080</property>
  <property name="meta.media.1.codec.rotate">0</property>
  <property name="meta.media.1.codec.frame_rate">5000</property>
  <property name="meta.media.1.codec.pix_fmt">yuv422p10le</property>
  <property name="meta.media.1.codec.sample_aspect_ratio">0</property>
  <property name="meta.media.1.codec.colorspace">709</property>
  <property name="meta.media.1.codec.name">prores</property>
  <property name="meta.media.1.codec.long_name">ProRes</property>
  <property name="meta.media.1.codec.bit_rate">366958785</property>
  <property name="meta.attr.1.stream.creation_time.markup">2018-12-10T16:01:37.000000Z</property>
  <property name="meta.attr.1.stream.language.markup">eng</property>
  <property name="meta.attr.1.stream.handler_name.markup">Apple Alias Data Handler</property>
  <property name="meta.attr.1.stream.encoder.markup">Apple ProRes 422 HQ</property>
  <property name="meta.attr.1.stream.timecode.markup">16:01:37:09</property>
  <property name="meta.media.2.stream.type">audio</property>
  <property name="meta.media.2.codec.sample_fmt">s32</property>
  <property name="meta.media.2.codec.sample_rate">48000</property>
  <property name="meta.media.2.codec.channels">2</property>
  <property name="meta.media.2.codec.name">pcm_s24le</property>
  <property name="meta.media.2.codec.long_name">PCM signed 24-bit little-endian</property>
  <property name="meta.media.2.codec.bit_rate">2304000</property>
  <property name="meta.attr.2.stream.creation_time.markup">2018-12-10T16:01:37.000000Z</property>
  <property name="meta.attr.2.stream.language.markup">eng</property>
  <property name="meta.attr.2.stream.handler_name.markup">Apple Alias Data Handler</property>
  <property name="meta.attr.2.stream.timecode.markup">16:01:37:09</property>
  <property name="meta.attr.com.apple.proapps.manufacturer.markup">Blackmagic Design</property>
  <property name="meta.attr.com.apple.proapps.cameraName.markup">CAM1</property>
  <property name="meta.attr.com.apple.proapps.isGood.markup">0</property>
  <property name="meta.attr.com.apple.proapps.customgamma.markup">com.blackmagic-design.cinemacamera.filmlog</property>
  <property name="meta.attr.com.blackmagic-design.cinemacamera.uuid.markup">18E5E00548F94923B646613A73C01B56</property>
  <property name="meta.attr.creation_time.markup">2018-12-10T16:01:37.000000Z</property>
  <property name="meta.attr.timecode.markup">16:01:37:09</property>
  <property name="seekable">1</property>
  <property name="meta.media.sample_aspect_num">1</property>
  <property name="meta.media.sample_aspect_den">1</property>
  <property name="aspect_ratio">1</property>
  <property name="kdenlive:folderid">9</property>
  <property name="kdenlive:file_size">10795373957</property>
  <property name="kdenlive:file_hash">c46cb1ab94a25f5ab196e5d4e002dba1</property>
  <property name="global_feed">1</property>
  <property name="meta.media.frame_rate_num">50</property>
  <property name="meta.media.frame_rate_den">1</property>
  <property name="meta.media.colorspace">709</property>
  <property name="meta.media.color_trc">1</property>
  <property name="meta.media.width">1920</property>
  <property name="meta.media.height">1080</property>
  <property name="meta.media.top_field_first">0</property>
  <property name="meta.media.progressive">1</property>
  <property name="meta.media.1.codec.color_trc">1</property>
  <filter id="filter4">
   <property name="version">0,1</property>
   <property name="mlt_service">frei0r.colgate</property>
   <property name="kdenlive_id">frei0r.colgate</property>
   <property name="tag">frei0r.colgate</property>
   <property name="kdenlive_ix">1</property>
   <property name="kdenlive_info"/>
   <property name="Neutral Color">0x7f7f7fff</property>
   <property name="Color Temperature">0=0,5</property>
  </filter>
  <filter id="filter5">
   <property name="version">0,3</property>
   <property name="mlt_service">frei0r.levels</property>
   <property name="kdenlive_id">frei0r.levels</property>
   <property name="tag">frei0r.levels</property>
   <property name="kdenlive_ix">2</property>
   <property name="kdenlive_info"/>
   <property name="Channel">0,3</property>
   <property name="Input black level">0=0</property>
   <property name="Input white level">0=0,65</property>
   <property name="Gamma">0=0,25</property>
   <property name="Black output">0=0</property>
   <property name="White output">0=1</property>
   <property name="Show histogram">0</property>
   <property name="Histogram position">0,3</property>
  </filter>
 </producer>
 <producer title="Anonymous Submission" id="2" in="0" out="11667">
  <property name="length">00:03:53:18</property>
  <property name="eof">pause</property>
  <property name="resource">/media/bordun/plagiat/2018-12-10_Plagiat_RespecteLaPuissancePapale/Carte_1/CAM1_2018-12-10_1552_C0001.mov</property>
  <property name="audio_index">2</property>
  <property name="video_index">1</property>
  <property name="mute_on_pause">1</property>
  <property name="mlt_service">avformat-novalidate</property>
  <property name="meta.media.nb_streams">3</property>
  <property name="meta.media.1.stream.type">video</property>
  <property name="meta.media.1.stream.frame_rate">50</property>
  <property name="meta.media.1.stream.sample_aspect_ratio">1</property>
  <property name="meta.media.1.codec.width">1920</property>
  <property name="meta.media.1.codec.height">1080</property>
  <property name="meta.media.1.codec.rotate">0</property>
  <property name="meta.media.1.codec.frame_rate">5000</property>
  <property name="meta.media.1.codec.pix_fmt">yuv422p10le</property>
  <property name="meta.media.1.codec.sample_aspect_ratio">0</property>
  <property name="meta.media.1.codec.colorspace">709</property>
  <property name="meta.media.1.codec.name">prores</property>
  <property name="meta.media.1.codec.long_name">ProRes</property>
  <property name="meta.media.1.codec.bit_rate">366959328</property>
  <property name="meta.attr.1.stream.creation_time.markup">2018-12-10T15:52:13.000000Z</property>
  <property name="meta.attr.1.stream.language.markup">eng</property>
  <property name="meta.attr.1.stream.handler_name.markup">Apple Alias Data Handler</property>
  <property name="meta.attr.1.stream.encoder.markup">Apple ProRes 422 HQ</property>
  <property name="meta.attr.1.stream.timecode.markup">15:52:13:35</property>
  <property name="meta.media.2.stream.type">audio</property>
  <property name="meta.media.2.codec.sample_fmt">s32</property>
  <property name="meta.media.2.codec.sample_rate">48000</property>
  <property name="meta.media.2.codec.channels">2</property>
  <property name="meta.media.2.codec.name">pcm_s24le</property>
  <property name="meta.media.2.codec.long_name">PCM signed 24-bit little-endian</property>
  <property name="meta.media.2.codec.bit_rate">2304000</property>
  <property name="meta.attr.2.stream.creation_time.markup">2018-12-10T15:52:13.000000Z</property>
  <property name="meta.attr.2.stream.language.markup">eng</property>
  <property name="meta.attr.2.stream.handler_name.markup">Apple Alias Data Handler</property>
  <property name="meta.attr.2.stream.timecode.markup">15:52:13:35</property>
  <property name="meta.attr.com.apple.proapps.manufacturer.markup">Blackmagic Design</property>
  <property name="meta.attr.com.apple.proapps.cameraName.markup">CAM1</property>
  <property name="meta.attr.com.apple.proapps.isGood.markup">0</property>
  <property name="meta.attr.com.apple.proapps.customgamma.markup">com.blackmagic-design.cinemacamera.filmlog</property>
  <property name="meta.attr.com.blackmagic-design.cinemacamera.uuid.markup">18E5E00548F94923B646613A73C01B56</property>
  <property name="meta.attr.creation_time.markup">2018-12-10T15:52:13.000000Z</property>
  <property name="meta.attr.timecode.markup">15:52:13:35</property>
  <property name="seekable">1</property>
  <property name="meta.media.sample_aspect_num">1</property>
  <property name="meta.media.sample_aspect_den">1</property>
  <property name="aspect_ratio">1</property>
  <property name="kdenlive:folderid">9</property>
  <property name="kdenlive:file_size">10772440985</property>
  <property name="kdenlive:file_hash">3b4484753689f48a337c1729ea18ad59</property>
  <property name="global_feed">1</property>
  <property name="meta.media.frame_rate_num">50</property>
  <property name="meta.media.frame_rate_den">1</property>
  <property name="meta.media.colorspace">709</property>
  <property name="meta.media.color_trc">1</property>
  <property name="meta.media.width">1920</property>
  <property name="meta.media.height">1080</property>
  <property name="meta.media.top_field_first">0</property>
  <property name="meta.media.progressive">1</property>
  <property name="meta.media.1.codec.color_trc">1</property>
  <filter id="filter6">
   <property name="version">0,1</property>
   <property name="mlt_service">frei0r.colgate</property>
   <property name="kdenlive_id">frei0r.colgate</property>
   <property name="tag">frei0r.colgate</property>
   <property name="kdenlive_ix">1</property>
   <property name="kdenlive_info"/>
   <property name="Neutral Color">0x7f7f7fff</property>
   <property name="Color Temperature">0=0,5</property>
  </filter>
  <filter id="filter7">
   <property name="version">0,3</property>
   <property name="mlt_service">frei0r.levels</property>
   <property name="kdenlive_id">frei0r.levels</property>
   <property name="tag">frei0r.levels</property>
   <property name="kdenlive_ix">2</property>
   <property name="kdenlive_info"/>
   <property name="Channel">0,3</property>
   <property name="Input black level">0=0</property>
   <property name="Input white level">0=0,65</property>
   <property name="Gamma">0=0,25</property>
   <property name="Black output">0=0</property>
   <property name="White output">0=1</property>
   <property name="Show histogram">0</property>
   <property name="Histogram position">0,3</property>
  </filter>
 </producer>
 <producer title="Anonymous Submission" id="6" in="0" out="4178">
  <property name="length">00:01:23:29</property>
  <property name="eof">pause</property>
  <property name="resource">/media/bordun/plagiat/2018-12-10_Plagiat_RespecteLaPuissancePapale/Carte_2/CAM1_2018-12-10_1638_C0001.mov</property>
  <property name="audio_index">2</property>
  <property name="video_index">1</property>
  <property name="mute_on_pause">1</property>
  <property name="mlt_service">avformat-novalidate</property>
  <property name="meta.media.nb_streams">3</property>
  <property name="meta.media.1.stream.type">video</property>
  <property name="meta.media.1.stream.frame_rate">50</property>
  <property name="meta.media.1.stream.sample_aspect_ratio">1</property>
  <property name="meta.media.1.codec.width">1920</property>
  <property name="meta.media.1.codec.height">1080</property>
  <property name="meta.media.1.codec.rotate">0</property>
  <property name="meta.media.1.codec.frame_rate">5000</property>
  <property name="meta.media.1.codec.pix_fmt">yuv422p10le</property>
  <property name="meta.media.1.codec.sample_aspect_ratio">0</property>
  <property name="meta.media.1.codec.colorspace">709</property>
  <property name="meta.media.1.codec.name">prores</property>
  <property name="meta.media.1.codec.long_name">ProRes</property>
  <property name="meta.media.1.codec.bit_rate">366955515</property>
  <property name="meta.attr.1.stream.creation_time.markup">2018-12-10T16:38:23.000000Z</property>
  <property name="meta.attr.1.stream.language.markup">eng</property>
  <property name="meta.attr.1.stream.handler_name.markup">Apple Alias Data Handler</property>
  <property name="meta.attr.1.stream.encoder.markup">Apple ProRes 422 HQ</property>
  <property name="meta.attr.1.stream.timecode.markup">16:38:23:16</property>
  <property name="meta.media.2.stream.type">audio</property>
  <property name="meta.media.2.codec.sample_fmt">s32</property>
  <property name="meta.media.2.codec.sample_rate">48000</property>
  <property name="meta.media.2.codec.channels">2</property>
  <property name="meta.media.2.codec.name">pcm_s24le</property>
  <property name="meta.media.2.codec.long_name">PCM signed 24-bit little-endian</property>
  <property name="meta.media.2.codec.bit_rate">2304000</property>
  <property name="meta.attr.2.stream.creation_time.markup">2018-12-10T16:38:23.000000Z</property>
  <property name="meta.attr.2.stream.language.markup">eng</property>
  <property name="meta.attr.2.stream.handler_name.markup">Apple Alias Data Handler</property>
  <property name="meta.attr.2.stream.timecode.markup">16:38:23:16</property>
  <property name="meta.attr.com.apple.proapps.manufacturer.markup">Blackmagic Design</property>
  <property name="meta.attr.com.apple.proapps.cameraName.markup">CAM1</property>
  <property name="meta.attr.com.apple.proapps.isGood.markup">0</property>
  <property name="meta.attr.com.apple.proapps.customgamma.markup">com.blackmagic-design.cinemacamera.filmlog</property>
  <property name="meta.attr.com.blackmagic-design.cinemacamera.uuid.markup">18E5E00548F94923B646613A73C01B56</property>
  <property name="meta.attr.creation_time.markup">2018-12-10T16:38:23.000000Z</property>
  <property name="meta.attr.timecode.markup">16:38:23:16</property>
  <property name="seekable">1</property>
  <property name="meta.media.sample_aspect_num">1</property>
  <property name="meta.media.sample_aspect_den">1</property>
  <property name="aspect_ratio">1</property>
  <property name="kdenlive:folderid">10</property>
  <property name="kdenlive:file_size">3858252521</property>
  <property name="kdenlive:file_hash">5c73d3cae02de055fc4255e57a85a699</property>
  <property name="global_feed">1</property>
  <property name="meta.media.frame_rate_num">50</property>
  <property name="meta.media.frame_rate_den">1</property>
  <property name="meta.media.colorspace">709</property>
  <property name="meta.media.color_trc">1</property>
  <property name="meta.media.width">1920</property>
  <property name="meta.media.height">1080</property>
  <property name="meta.media.top_field_first">0</property>
  <property name="meta.media.progressive">1</property>
  <property name="meta.media.1.codec.color_trc">1</property>
  <filter id="filter8">
   <property name="version">0,1</property>
   <property name="mlt_service">frei0r.colgate</property>
   <property name="kdenlive_id">frei0r.colgate</property>
   <property name="tag">frei0r.colgate</property>
   <property name="kdenlive_ix">1</property>
   <property name="kdenlive_info"/>
   <property name="Neutral Color">0x7f7f7fff</property>
   <property name="Color Temperature">0=0,5</property>
  </filter>
  <filter id="filter9">
   <property name="version">0,3</property>
   <property name="mlt_service">frei0r.levels</property>
   <property name="kdenlive_id">frei0r.levels</property>
   <property name="tag">frei0r.levels</property>
   <property name="kdenlive_ix">2</property>
   <property name="kdenlive_info"/>
   <property name="Channel">0,3</property>
   <property name="Input black level">0=0</property>
   <property name="Input white level">0=0,65</property>
   <property name="Gamma">0=0,25</property>
   <property name="Black output">0=0</property>
   <property name="White output">0=1</property>
   <property name="Show histogram">0</property>
   <property name="Histogram position">0,3</property>
  </filter>
 </producer>
 <producer title="Anonymous Submission" id="7" in="0" out="8532">
  <property name="length">00:02:50:33</property>
  <property name="eof">pause</property>
  <property name="resource">/media/bordun/plagiat/2018-12-10_Plagiat_RespecteLaPuissancePapale/Carte_2/CAM1_2018-12-10_1642_C0002.mov</property>
  <property name="audio_index">2</property>
  <property name="video_index">1</property>
  <property name="mute_on_pause">1</property>
  <property name="mlt_service">avformat-novalidate</property>
  <property name="meta.media.nb_streams">3</property>
  <property name="meta.media.1.stream.type">video</property>
  <property name="meta.media.1.stream.frame_rate">50</property>
  <property name="meta.media.1.stream.sample_aspect_ratio">1</property>
  <property name="meta.media.1.codec.width">1920</property>
  <property name="meta.media.1.codec.height">1080</property>
  <property name="meta.media.1.codec.rotate">0</property>
  <property name="meta.media.1.codec.frame_rate">5000</property>
  <property name="meta.media.1.codec.pix_fmt">yuv422p10le</property>
  <property name="meta.media.1.codec.sample_aspect_ratio">0</property>
  <property name="meta.media.1.codec.colorspace">709</property>
  <property name="meta.media.1.codec.name">prores</property>
  <property name="meta.media.1.codec.long_name">ProRes</property>
  <property name="meta.media.1.codec.bit_rate">366955794</property>
  <property name="meta.attr.1.stream.creation_time.markup">2018-12-10T16:42:49.000000Z</property>
  <property name="meta.attr.1.stream.language.markup">eng</property>
  <property name="meta.attr.1.stream.handler_name.markup">Apple Alias Data Handler</property>
  <property name="meta.attr.1.stream.encoder.markup">Apple ProRes 422 HQ</property>
  <property name="meta.attr.1.stream.timecode.markup">16:42:49:18</property>
  <property name="meta.media.2.stream.type">audio</property>
  <property name="meta.media.2.codec.sample_fmt">s32</property>
  <property name="meta.media.2.codec.sample_rate">48000</property>
  <property name="meta.media.2.codec.channels">2</property>
  <property name="meta.media.2.codec.name">pcm_s24le</property>
  <property name="meta.media.2.codec.long_name">PCM signed 24-bit little-endian</property>
  <property name="meta.media.2.codec.bit_rate">2304000</property>
  <property name="meta.attr.2.stream.creation_time.markup">2018-12-10T16:42:49.000000Z</property>
  <property name="meta.attr.2.stream.language.markup">eng</property>
  <property name="meta.attr.2.stream.handler_name.markup">Apple Alias Data Handler</property>
  <property name="meta.attr.2.stream.timecode.markup">16:42:49:18</property>
  <property name="meta.attr.com.apple.proapps.manufacturer.markup">Blackmagic Design</property>
  <property name="meta.attr.com.apple.proapps.cameraName.markup">CAM1</property>
  <property name="meta.attr.com.apple.proapps.isGood.markup">0</property>
  <property name="meta.attr.com.apple.proapps.customgamma.markup">com.blackmagic-design.cinemacamera.filmlog</property>
  <property name="meta.attr.com.blackmagic-design.cinemacamera.uuid.markup">18E5E00548F94923B646613A73C01B56</property>
  <property name="meta.attr.creation_time.markup">2018-12-10T16:42:49.000000Z</property>
  <property name="meta.attr.timecode.markup">16:42:49:18</property>
  <property name="seekable">1</property>
  <property name="meta.media.sample_aspect_num">1</property>
  <property name="meta.media.sample_aspect_den">1</property>
  <property name="aspect_ratio">1</property>
  <property name="kdenlive:folderid">10</property>
  <property name="kdenlive:file_size">7878058913</property>
  <property name="kdenlive:file_hash">804eaf7e1fe7b8bd61bac5713c20d510</property>
  <property name="global_feed">1</property>
  <property name="meta.media.frame_rate_num">50</property>
  <property name="meta.media.frame_rate_den">1</property>
  <property name="meta.media.colorspace">709</property>
  <property name="meta.media.color_trc">1</property>
  <property name="meta.media.width">1920</property>
  <property name="meta.media.height">1080</property>
  <property name="meta.media.top_field_first">0</property>
  <property name="meta.media.progressive">1</property>
  <property name="meta.media.1.codec.color_trc">1</property>
  <filter id="filter10">
   <property name="version">0,1</property>
   <property name="mlt_service">frei0r.colgate</property>
   <property name="kdenlive_id">frei0r.colgate</property>
   <property name="tag">frei0r.colgate</property>
   <property name="kdenlive_ix">1</property>
   <property name="kdenlive_info"/>
   <property name="Neutral Color">0x7f7f7fff</property>
   <property name="Color Temperature">0=0,5</property>
  </filter>
  <filter id="filter11">
   <property name="version">0,3</property>
   <property name="mlt_service">frei0r.levels</property>
   <property name="kdenlive_id">frei0r.levels</property>
   <property name="tag">frei0r.levels</property>
   <property name="kdenlive_ix">2</property>
   <property name="kdenlive_info"/>
   <property name="Channel">0,3</property>
   <property name="Input black level">0=0</property>
   <property name="Input white level">0=0,65</property>
   <property name="Gamma">0=0,25</property>
   <property name="Black output">0=0</property>
   <property name="White output">0=1</property>
   <property name="Show histogram">0</property>
   <property name="Histogram position">0,3</property>
   <property name="disable">0</property>
  </filter>
 </producer>
 <producer title="Anonymous Submission" id="16" in="0" out="2403">
  <property name="length">00:00:48:04</property>
  <property name="eof">pause</property>
  <property name="resource">/media/bordun/plagiat/2018-12-10_Plagiat_RespecteLaPuissancePapale/Carte_3/CAM1_2018-12-10_1851_C0005.mov</property>
  <property name="audio_index">2</property>
  <property name="video_index">1</property>
  <property name="mute_on_pause">1</property>
  <property name="mlt_service">avformat-novalidate</property>
  <property name="meta.media.nb_streams">3</property>
  <property name="meta.media.1.stream.type">video</property>
  <property name="meta.media.1.stream.frame_rate">50</property>
  <property name="meta.media.1.stream.sample_aspect_ratio">1</property>
  <property name="meta.media.1.codec.width">1920</property>
  <property name="meta.media.1.codec.height">1080</property>
  <property name="meta.media.1.codec.rotate">0</property>
  <property name="meta.media.1.codec.frame_rate">5000</property>
  <property name="meta.media.1.codec.pix_fmt">yuv422p10le</property>
  <property name="meta.media.1.codec.sample_aspect_ratio">0</property>
  <property name="meta.media.1.codec.colorspace">709</property>
  <property name="meta.media.1.codec.name">prores</property>
  <property name="meta.media.1.codec.long_name">ProRes</property>
  <property name="meta.media.1.codec.bit_rate">366956708</property>
  <property name="meta.attr.1.stream.creation_time.markup">2018-12-10T18:51:16.000000Z</property>
  <property name="meta.attr.1.stream.language.markup">eng</property>
  <property name="meta.attr.1.stream.handler_name.markup">Apple Alias Data Handler</property>
  <property name="meta.attr.1.stream.encoder.markup">Apple ProRes 422 HQ</property>
  <property name="meta.attr.1.stream.timecode.markup">18:51:16:13</property>
  <property name="meta.media.2.stream.type">audio</property>
  <property name="meta.media.2.codec.sample_fmt">s32</property>
  <property name="meta.media.2.codec.sample_rate">48000</property>
  <property name="meta.media.2.codec.channels">2</property>
  <property name="meta.media.2.codec.name">pcm_s24le</property>
  <property name="meta.media.2.codec.long_name">PCM signed 24-bit little-endian</property>
  <property name="meta.media.2.codec.bit_rate">2304000</property>
  <property name="meta.attr.2.stream.creation_time.markup">2018-12-10T18:51:16.000000Z</property>
  <property name="meta.attr.2.stream.language.markup">eng</property>
  <property name="meta.attr.2.stream.handler_name.markup">Apple Alias Data Handler</property>
  <property name="meta.attr.2.stream.timecode.markup">18:51:16:13</property>
  <property name="meta.attr.com.apple.proapps.manufacturer.markup">Blackmagic Design</property>
  <property name="meta.attr.com.apple.proapps.cameraName.markup">CAM1</property>
  <property name="meta.attr.com.apple.proapps.isGood.markup">0</property>
  <property name="meta.attr.com.apple.proapps.customgamma.markup">com.blackmagic-design.cinemacamera.filmlog</property>
  <property name="meta.attr.com.blackmagic-design.cinemacamera.uuid.markup">18E5E00548F94923B646613A73C01B56</property>
  <property name="meta.attr.creation_time.markup">2018-12-10T18:51:16.000000Z</property>
  <property name="meta.attr.timecode.markup">18:51:16:13</property>
  <property name="seekable">1</property>
  <property name="meta.media.sample_aspect_num">1</property>
  <property name="meta.media.sample_aspect_den">1</property>
  <property name="aspect_ratio">1</property>
  <property name="kdenlive:folderid">13</property>
  <property name="kdenlive:file_size">2219492305</property>
  <property name="kdenlive:file_hash">5decca499b71c19207e6eb5441ec1c74</property>
  <property name="global_feed">1</property>
  <property name="meta.media.frame_rate_num">50</property>
  <property name="meta.media.frame_rate_den">1</property>
  <property name="meta.media.colorspace">709</property>
  <property name="meta.media.color_trc">1</property>
  <property name="meta.media.width">1920</property>
  <property name="meta.media.height">1080</property>
  <property name="meta.media.top_field_first">0</property>
  <property name="meta.media.progressive">1</property>
  <property name="meta.media.1.codec.color_trc">1</property>
  <filter id="filter12">
   <property name="version">0,1</property>
   <property name="mlt_service">frei0r.colgate</property>
   <property name="kdenlive_id">frei0r.colgate</property>
   <property name="tag">frei0r.colgate</property>
   <property name="kdenlive_ix">1</property>
   <property name="kdenlive_info"/>
   <property name="Neutral Color">0x7f7f7fff</property>
   <property name="Color Temperature">0=0,523333</property>
  </filter>
  <filter id="filter13">
   <property name="version">0,3</property>
   <property name="mlt_service">frei0r.levels</property>
   <property name="kdenlive_id">frei0r.levels</property>
   <property name="tag">frei0r.levels</property>
   <property name="kdenlive_ix">2</property>
   <property name="kdenlive_info"/>
   <property name="Channel">0,3</property>
   <property name="Input black level">0=0</property>
   <property name="Input white level">0=0,85</property>
   <property name="Gamma">0=0,25</property>
   <property name="Black output">0=0</property>
   <property name="White output">0=1</property>
   <property name="Show histogram">0</property>
   <property name="Histogram position">0,3</property>
  </filter>
 </producer>
 <producer title="Anonymous Submission" id="17" in="0" out="2706">
  <property name="length">00:00:54:07</property>
  <property name="eof">pause</property>
  <property name="resource">/media/bordun/plagiat/2018-12-10_Plagiat_RespecteLaPuissancePapale/Carte_3/CAM1_2018-12-10_1853_C0006.mov</property>
  <property name="audio_index">2</property>
  <property name="video_index">1</property>
  <property name="mute_on_pause">1</property>
  <property name="mlt_service">avformat-novalidate</property>
  <property name="meta.media.nb_streams">3</property>
  <property name="meta.media.1.stream.type">video</property>
  <property name="meta.media.1.stream.frame_rate">50</property>
  <property name="meta.media.1.stream.sample_aspect_ratio">1</property>
  <property name="meta.media.1.codec.width">1920</property>
  <property name="meta.media.1.codec.height">1080</property>
  <property name="meta.media.1.codec.rotate">0</property>
  <property name="meta.media.1.codec.frame_rate">5000</property>
  <property name="meta.media.1.codec.pix_fmt">yuv422p10le</property>
  <property name="meta.media.1.codec.sample_aspect_ratio">0</property>
  <property name="meta.media.1.codec.colorspace">709</property>
  <property name="meta.media.1.codec.name">prores</property>
  <property name="meta.media.1.codec.long_name">ProRes</property>
  <property name="meta.media.1.codec.bit_rate">366954964</property>
  <property name="meta.attr.1.stream.creation_time.markup">2018-12-10T18:53:43.000000Z</property>
  <property name="meta.attr.1.stream.language.markup">eng</property>
  <property name="meta.attr.1.stream.handler_name.markup">Apple Alias Data Handler</property>
  <property name="meta.attr.1.stream.encoder.markup">Apple ProRes 422 HQ</property>
  <property name="meta.attr.1.stream.timecode.markup">18:53:43:03</property>
  <property name="meta.media.2.stream.type">audio</property>
  <property name="meta.media.2.codec.sample_fmt">s32</property>
  <property name="meta.media.2.codec.sample_rate">48000</property>
  <property name="meta.media.2.codec.channels">2</property>
  <property name="meta.media.2.codec.name">pcm_s24le</property>
  <property name="meta.media.2.codec.long_name">PCM signed 24-bit little-endian</property>
  <property name="meta.media.2.codec.bit_rate">2304000</property>
  <property name="meta.attr.2.stream.creation_time.markup">2018-12-10T18:53:43.000000Z</property>
  <property name="meta.attr.2.stream.language.markup">eng</property>
  <property name="meta.attr.2.stream.handler_name.markup">Apple Alias Data Handler</property>
  <property name="meta.attr.2.stream.timecode.markup">18:53:43:03</property>
  <property name="meta.attr.com.apple.proapps.manufacturer.markup">Blackmagic Design</property>
  <property name="meta.attr.com.apple.proapps.cameraName.markup">CAM1</property>
  <property name="meta.attr.com.apple.proapps.isGood.markup">0</property>
  <property name="meta.attr.com.apple.proapps.customgamma.markup">com.blackmagic-design.cinemacamera.filmlog</property>
  <property name="meta.attr.com.blackmagic-design.cinemacamera.uuid.markup">18E5E00548F94923B646613A73C01B56</property>
  <property name="meta.attr.creation_time.markup">2018-12-10T18:53:43.000000Z</property>
  <property name="meta.attr.timecode.markup">18:53:43:03</property>
  <property name="seekable">1</property>
  <property name="meta.media.sample_aspect_num">1</property>
  <property name="meta.media.sample_aspect_den">1</property>
  <property name="aspect_ratio">1</property>
  <property name="kdenlive:folderid">13</property>
  <property name="kdenlive:file_size">2499243521</property>
  <property name="kdenlive:file_hash">c52a59c46a49b670f466d109daab353c</property>
  <property name="global_feed">1</property>
  <property name="meta.media.frame_rate_num">50</property>
  <property name="meta.media.frame_rate_den">1</property>
  <property name="meta.media.colorspace">709</property>
  <property name="meta.media.color_trc">1</property>
  <property name="meta.media.width">1920</property>
  <property name="meta.media.height">1080</property>
  <property name="meta.media.top_field_first">0</property>
  <property name="meta.media.progressive">1</property>
  <property name="meta.media.1.codec.color_trc">1</property>
  <filter id="filter14">
   <property name="version">0,1</property>
   <property name="mlt_service">frei0r.colgate</property>
   <property name="kdenlive_id">frei0r.colgate</property>
   <property name="tag">frei0r.colgate</property>
   <property name="kdenlive_ix">1</property>
   <property name="kdenlive_info"/>
   <property name="Neutral Color">0x7f7f7fff</property>
   <property name="Color Temperature">0=0,523333</property>
  </filter>
  <filter id="filter15">
   <property name="version">0,3</property>
   <property name="mlt_service">frei0r.levels</property>
   <property name="kdenlive_id">frei0r.levels</property>
   <property name="tag">frei0r.levels</property>
   <property name="kdenlive_ix">2</property>
   <property name="kdenlive_info"/>
   <property name="Channel">0,3</property>
   <property name="Input black level">0=0</property>
   <property name="Input white level">0=0,85</property>
   <property name="Gamma">0=0,25</property>
   <property name="Black output">0=0</property>
   <property name="White output">0=1</property>
   <property name="Show histogram">0</property>
   <property name="Histogram position">0,3</property>
  </filter>
 </producer>
 <producer title="Anonymous Submission" id="18" in="0" out="1547">
  <property name="length">00:00:30:48</property>
  <property name="eof">pause</property>
  <property name="resource">/media/bordun/plagiat/2018-12-10_Plagiat_RespecteLaPuissancePapale/Carte_3/CAM1_2018-12-10_1855_C0007.mov</property>
  <property name="audio_index">2</property>
  <property name="video_index">1</property>
  <property name="mute_on_pause">1</property>
  <property name="mlt_service">avformat-novalidate</property>
  <property name="meta.media.nb_streams">3</property>
  <property name="meta.media.1.stream.type">video</property>
  <property name="meta.media.1.stream.frame_rate">50</property>
  <property name="meta.media.1.stream.sample_aspect_ratio">1</property>
  <property name="meta.media.1.codec.width">1920</property>
  <property name="meta.media.1.codec.height">1080</property>
  <property name="meta.media.1.codec.rotate">0</property>
  <property name="meta.media.1.codec.frame_rate">5000</property>
  <property name="meta.media.1.codec.pix_fmt">yuv422p10le</property>
  <property name="meta.media.1.codec.sample_aspect_ratio">0</property>
  <property name="meta.media.1.codec.colorspace">709</property>
  <property name="meta.media.1.codec.name">prores</property>
  <property name="meta.media.1.codec.long_name">ProRes</property>
  <property name="meta.media.1.codec.bit_rate">366957395</property>
  <property name="meta.attr.1.stream.creation_time.markup">2018-12-10T18:55:29.000000Z</property>
  <property name="meta.attr.1.stream.language.markup">eng</property>
  <property name="meta.attr.1.stream.handler_name.markup">Apple Alias Data Handler</property>
  <property name="meta.attr.1.stream.encoder.markup">Apple ProRes 422 HQ</property>
  <property name="meta.attr.1.stream.timecode.markup">18:55:29:30</property>
  <property name="meta.media.2.stream.type">audio</property>
  <property name="meta.media.2.codec.sample_fmt">s32</property>
  <property name="meta.media.2.codec.sample_rate">48000</property>
  <property name="meta.media.2.codec.channels">2</property>
  <property name="meta.media.2.codec.name">pcm_s24le</property>
  <property name="meta.media.2.codec.long_name">PCM signed 24-bit little-endian</property>
  <property name="meta.media.2.codec.bit_rate">2304000</property>
  <property name="meta.attr.2.stream.creation_time.markup">2018-12-10T18:55:29.000000Z</property>
  <property name="meta.attr.2.stream.language.markup">eng</property>
  <property name="meta.attr.2.stream.handler_name.markup">Apple Alias Data Handler</property>
  <property name="meta.attr.2.stream.timecode.markup">18:55:29:30</property>
  <property name="meta.attr.com.apple.proapps.manufacturer.markup">Blackmagic Design</property>
  <property name="meta.attr.com.apple.proapps.cameraName.markup">CAM1</property>
  <property name="meta.attr.com.apple.proapps.isGood.markup">0</property>
  <property name="meta.attr.com.apple.proapps.customgamma.markup">com.blackmagic-design.cinemacamera.filmlog</property>
  <property name="meta.attr.com.blackmagic-design.cinemacamera.uuid.markup">18E5E00548F94923B646613A73C01B56</property>
  <property name="meta.attr.creation_time.markup">2018-12-10T18:55:29.000000Z</property>
  <property name="meta.attr.timecode.markup">18:55:29:30</property>
  <property name="seekable">1</property>
  <property name="meta.media.sample_aspect_num">1</property>
  <property name="meta.media.sample_aspect_den">1</property>
  <property name="aspect_ratio">1</property>
  <property name="kdenlive:folderid">13</property>
  <property name="kdenlive:file_size">1429192513</property>
  <property name="kdenlive:file_hash">626434d53e10f12816265ac334d41379</property>
  <property name="global_feed">1</property>
  <property name="meta.media.frame_rate_num">50</property>
  <property name="meta.media.frame_rate_den">1</property>
  <property name="meta.media.colorspace">709</property>
  <property name="meta.media.color_trc">1</property>
  <property name="meta.media.width">1920</property>
  <property name="meta.media.height">1080</property>
  <property name="meta.media.top_field_first">0</property>
  <property name="meta.media.progressive">1</property>
  <property name="meta.media.1.codec.color_trc">1</property>
  <property name="kdenlive:zone_in">1079</property>
  <property name="kdenlive:zone_out">1155</property>
  <filter id="filter16">
   <property name="version">0,1</property>
   <property name="mlt_service">frei0r.colgate</property>
   <property name="kdenlive_id">frei0r.colgate</property>
   <property name="tag">frei0r.colgate</property>
   <property name="kdenlive_ix">1</property>
   <property name="kdenlive_info"/>
   <property name="Neutral Color">0x7f7f7fff</property>
   <property name="Color Temperature">0=0,566667</property>
  </filter>
  <filter id="filter17">
   <property name="version">0,3</property>
   <property name="mlt_service">frei0r.levels</property>
   <property name="kdenlive_id">frei0r.levels</property>
   <property name="tag">frei0r.levels</property>
   <property name="kdenlive_ix">2</property>
   <property name="kdenlive_info"/>
   <property name="Channel">0,3</property>
   <property name="Input black level">0=0</property>
   <property name="Input white level">0=0,85</property>
   <property name="Gamma">0=0,25</property>
   <property name="Black output">0=0</property>
   <property name="White output">0=1</property>
   <property name="Show histogram">0</property>
   <property name="Histogram position">0,3</property>
  </filter>
 </producer>
 <producer title="Anonymous Submission" id="19" in="0" out="2823">
  <property name="length">00:00:56:24</property>
  <property name="eof">pause</property>
  <property name="resource">/media/bordun/plagiat/2018-12-10_Plagiat_RespecteLaPuissancePapale/Carte_3/CAM1_2018-12-10_1856_C0008.mov</property>
  <property name="audio_index">2</property>
  <property name="video_index">1</property>
  <property name="mute_on_pause">1</property>
  <property name="mlt_service">avformat-novalidate</property>
  <property name="meta.media.nb_streams">3</property>
  <property name="meta.media.1.stream.type">video</property>
  <property name="meta.media.1.stream.frame_rate">50</property>
  <property name="meta.media.1.stream.sample_aspect_ratio">1</property>
  <property name="meta.media.1.codec.width">1920</property>
  <property name="meta.media.1.codec.height">1080</property>
  <property name="meta.media.1.codec.rotate">0</property>
  <property name="meta.media.1.codec.frame_rate">5000</property>
  <property name="meta.media.1.codec.pix_fmt">yuv422p10le</property>
  <property name="meta.media.1.codec.sample_aspect_ratio">0</property>
  <property name="meta.media.1.codec.colorspace">709</property>
  <property name="meta.media.1.codec.name">prores</property>
  <property name="meta.media.1.codec.long_name">ProRes</property>
  <property name="meta.media.1.codec.bit_rate">366955049</property>
  <property name="meta.attr.1.stream.creation_time.markup">2018-12-10T18:56:22.000000Z</property>
  <property name="meta.attr.1.stream.language.markup">eng</property>
  <property name="meta.attr.1.stream.handler_name.markup">Apple Alias Data Handler</property>
  <property name="meta.attr.1.stream.encoder.markup">Apple ProRes 422 HQ</property>
  <property name="meta.attr.1.stream.timecode.markup">18:56:22:36</property>
  <property name="meta.media.2.stream.type">audio</property>
  <property name="meta.media.2.codec.sample_fmt">s32</property>
  <property name="meta.media.2.codec.sample_rate">48000</property>
  <property name="meta.media.2.codec.channels">2</property>
  <property name="meta.media.2.codec.name">pcm_s24le</property>
  <property name="meta.media.2.codec.long_name">PCM signed 24-bit little-endian</property>
  <property name="meta.media.2.codec.bit_rate">2304000</property>
  <property name="meta.attr.2.stream.creation_time.markup">2018-12-10T18:56:22.000000Z</property>
  <property name="meta.attr.2.stream.language.markup">eng</property>
  <property name="meta.attr.2.stream.handler_name.markup">Apple Alias Data Handler</property>
  <property name="meta.attr.2.stream.timecode.markup">18:56:22:36</property>
  <property name="meta.attr.com.apple.proapps.manufacturer.markup">Blackmagic Design</property>
  <property name="meta.attr.com.apple.proapps.cameraName.markup">CAM1</property>
  <property name="meta.attr.com.apple.proapps.isGood.markup">0</property>
  <property name="meta.attr.com.apple.proapps.customgamma.markup">com.blackmagic-design.cinemacamera.filmlog</property>
  <property name="meta.attr.com.blackmagic-design.cinemacamera.uuid.markup">18E5E00548F94923B646613A73C01B56</property>
  <property name="meta.attr.creation_time.markup">2018-12-10T18:56:22.000000Z</property>
  <property name="meta.attr.timecode.markup">18:56:22:36</property>
  <property name="seekable">1</property>
  <property name="meta.media.sample_aspect_num">1</property>
  <property name="meta.media.sample_aspect_den">1</property>
  <property name="aspect_ratio">1</property>
  <property name="kdenlive:folderid">13</property>
  <property name="kdenlive:file_size">2607255569</property>
  <property name="kdenlive:file_hash">4d6c52ada6c928dfc33b28648fd401f1</property>
  <property name="global_feed">1</property>
  <property name="meta.media.frame_rate_num">50</property>
  <property name="meta.media.frame_rate_den">1</property>
  <property name="meta.media.colorspace">709</property>
  <property name="meta.media.color_trc">1</property>
  <property name="meta.media.width">1920</property>
  <property name="meta.media.height">1080</property>
  <property name="meta.media.top_field_first">0</property>
  <property name="meta.media.progressive">1</property>
  <property name="kdenlive:zone_in">1818</property>
  <property name="kdenlive:zone_out">1823</property>
  <property name="meta.media.1.codec.color_trc">1</property>
  <filter id="filter18">
   <property name="version">0,1</property>
   <property name="mlt_service">frei0r.colgate</property>
   <property name="kdenlive_id">frei0r.colgate</property>
   <property name="tag">frei0r.colgate</property>
   <property name="kdenlive_ix">1</property>
   <property name="kdenlive_info"/>
   <property name="Neutral Color">0x7f7f7fff</property>
   <property name="Color Temperature">0=0,523333</property>
   <property name="disable">0</property>
  </filter>
  <filter id="filter19">
   <property name="version">0,3</property>
   <property name="mlt_service">frei0r.levels</property>
   <property name="kdenlive_id">frei0r.levels</property>
   <property name="tag">frei0r.levels</property>
   <property name="kdenlive_ix">2</property>
   <property name="kdenlive_info"/>
   <property name="Channel">0,3</property>
   <property name="Input black level">0=0</property>
   <property name="Input white level">0=0,85</property>
   <property name="Gamma">0=0,25</property>
   <property name="Black output">0=0</property>
   <property name="White output">0=1</property>
   <property name="Show histogram">0</property>
   <property name="Histogram position">0,3</property>
   <property name="disable">0</property>
  </filter>
 </producer>
 <producer title="Anonymous Submission" id="20" in="0" out="995">
  <property name="length">00:00:19:46</property>
  <property name="eof">pause</property>
  <property name="resource">/media/bordun/plagiat/2018-12-10_Plagiat_RespecteLaPuissancePapale/Carte_3/CAM1_2018-12-10_1857_C0009.mov</property>
  <property name="audio_index">2</property>
  <property name="video_index">1</property>
  <property name="mute_on_pause">1</property>
  <property name="mlt_service">avformat-novalidate</property>
  <property name="meta.media.nb_streams">3</property>
  <property name="meta.media.1.stream.type">video</property>
  <property name="meta.media.1.stream.frame_rate">50</property>
  <property name="meta.media.1.stream.sample_aspect_ratio">1</property>
  <property name="meta.media.1.codec.width">1920</property>
  <property name="meta.media.1.codec.height">1080</property>
  <property name="meta.media.1.codec.rotate">0</property>
  <property name="meta.media.1.codec.frame_rate">5000</property>
  <property name="meta.media.1.codec.pix_fmt">yuv422p10le</property>
  <property name="meta.media.1.codec.sample_aspect_ratio">0</property>
  <property name="meta.media.1.codec.colorspace">709</property>
  <property name="meta.media.1.codec.name">prores</property>
  <property name="meta.media.1.codec.long_name">ProRes</property>
  <property name="meta.media.1.codec.bit_rate">366959048</property>
  <property name="meta.attr.1.stream.creation_time.markup">2018-12-10T18:57:40.000000Z</property>
  <property name="meta.attr.1.stream.language.markup">eng</property>
  <property name="meta.attr.1.stream.handler_name.markup">Apple Alias Data Handler</property>
  <property name="meta.attr.1.stream.encoder.markup">Apple ProRes 422 HQ</property>
  <property name="meta.attr.1.stream.timecode.markup">18:57:40:47</property>
  <property name="meta.media.2.stream.type">audio</property>
  <property name="meta.media.2.codec.sample_fmt">s32</property>
  <property name="meta.media.2.codec.sample_rate">48000</property>
  <property name="meta.media.2.codec.channels">2</property>
  <property name="meta.media.2.codec.name">pcm_s24le</property>
  <property name="meta.media.2.codec.long_name">PCM signed 24-bit little-endian</property>
  <property name="meta.media.2.codec.bit_rate">2304000</property>
  <property name="meta.attr.2.stream.creation_time.markup">2018-12-10T18:57:40.000000Z</property>
  <property name="meta.attr.2.stream.language.markup">eng</property>
  <property name="meta.attr.2.stream.handler_name.markup">Apple Alias Data Handler</property>
  <property name="meta.attr.2.stream.timecode.markup">18:57:40:47</property>
  <property name="meta.attr.com.apple.proapps.manufacturer.markup">Blackmagic Design</property>
  <property name="meta.attr.com.apple.proapps.cameraName.markup">CAM1</property>
  <property name="meta.attr.com.apple.proapps.isGood.markup">0</property>
  <property name="meta.attr.com.apple.proapps.customgamma.markup">com.blackmagic-design.cinemacamera.filmlog</property>
  <property name="meta.attr.com.blackmagic-design.cinemacamera.uuid.markup">18E5E00548F94923B646613A73C01B56</property>
  <property name="meta.attr.creation_time.markup">2018-12-10T18:57:40.000000Z</property>
  <property name="meta.attr.timecode.markup">18:57:40:47</property>
  <property name="seekable">1</property>
  <property name="meta.media.sample_aspect_num">1</property>
  <property name="meta.media.sample_aspect_den">1</property>
  <property name="aspect_ratio">1</property>
  <property name="kdenlive:folderid">13</property>
  <property name="kdenlive:file_size">919559913</property>
  <property name="kdenlive:file_hash">1729a26f0eb1c7c9bfd5136f79c4245a</property>
  <property name="global_feed">1</property>
  <property name="meta.media.frame_rate_num">50</property>
  <property name="meta.media.frame_rate_den">1</property>
  <property name="meta.media.colorspace">709</property>
  <property name="meta.media.color_trc">1</property>
  <property name="meta.media.width">1920</property>
  <property name="meta.media.height">1080</property>
  <property name="meta.media.top_field_first">0</property>
  <property name="meta.media.progressive">1</property>
  <property name="meta.media.1.codec.color_trc">1</property>
  <filter id="filter20">
   <property name="version">0,1</property>
   <property name="mlt_service">frei0r.colgate</property>
   <property name="kdenlive_id">frei0r.colgate</property>
   <property name="tag">frei0r.colgate</property>
   <property name="kdenlive_ix">1</property>
   <property name="kdenlive_info"/>
   <property name="Neutral Color">0x7f7f7fff</property>
   <property name="Color Temperature">0=0,523333</property>
  </filter>
  <filter id="filter21">
   <property name="version">0,3</property>
   <property name="mlt_service">frei0r.levels</property>
   <property name="kdenlive_id">frei0r.levels</property>
   <property name="tag">frei0r.levels</property>
   <property name="kdenlive_ix">2</property>
   <property name="kdenlive_info"/>
   <property name="Channel">0,3</property>
   <property name="Input black level">0=0</property>
   <property name="Input white level">0=0,85</property>
   <property name="Gamma">0=0,25</property>
   <property name="Black output">0=0</property>
   <property name="White output">0=1</property>
   <property name="Show histogram">0</property>
   <property name="Histogram position">0,3</property>
  </filter>
 </producer>
 <producer title="Anonymous Submission" id="21" in="0" out="8367">
  <property name="length">00:02:47:18</property>
  <property name="eof">pause</property>
  <property name="resource">/media/bordun/plagiat/2018-12-10_Plagiat_RespecteLaPuissancePapale/Carte_4/CAM1_2018-12-10_1918_C0004.mov</property>
  <property name="audio_index">2</property>
  <property name="video_index">1</property>
  <property name="mute_on_pause">1</property>
  <property name="mlt_service">avformat-novalidate</property>
  <property name="meta.media.nb_streams">3</property>
  <property name="meta.media.1.stream.type">video</property>
  <property name="meta.media.1.stream.frame_rate">50</property>
  <property name="meta.media.1.stream.sample_aspect_ratio">1</property>
  <property name="meta.media.1.codec.width">1920</property>
  <property name="meta.media.1.codec.height">1080</property>
  <property name="meta.media.1.codec.rotate">0</property>
  <property name="meta.media.1.codec.frame_rate">5000</property>
  <property name="meta.media.1.codec.pix_fmt">yuv422p10le</property>
  <property name="meta.media.1.codec.sample_aspect_ratio">0</property>
  <property name="meta.media.1.codec.colorspace">709</property>
  <property name="meta.media.1.codec.name">prores</property>
  <property name="meta.media.1.codec.long_name">ProRes</property>
  <property name="meta.media.1.codec.bit_rate">366957425</property>
  <property name="meta.attr.1.stream.creation_time.markup">2018-12-10T19:18:09.000000Z</property>
  <property name="meta.attr.1.stream.language.markup">eng</property>
  <property name="meta.attr.1.stream.handler_name.markup">Apple Alias Data Handler</property>
  <property name="meta.attr.1.stream.encoder.markup">Apple ProRes 422 HQ</property>
  <property name="meta.attr.1.stream.timecode.markup">19:18:09:37</property>
  <property name="meta.media.2.stream.type">audio</property>
  <property name="meta.media.2.codec.sample_fmt">s32</property>
  <property name="meta.media.2.codec.sample_rate">48000</property>
  <property name="meta.media.2.codec.channels">2</property>
  <property name="meta.media.2.codec.name">pcm_s24le</property>
  <property name="meta.media.2.codec.long_name">PCM signed 24-bit little-endian</property>
  <property name="meta.media.2.codec.bit_rate">2304000</property>
  <property name="meta.attr.2.stream.creation_time.markup">2018-12-10T19:18:09.000000Z</property>
  <property name="meta.attr.2.stream.language.markup">eng</property>
  <property name="meta.attr.2.stream.handler_name.markup">Apple Alias Data Handler</property>
  <property name="meta.attr.2.stream.timecode.markup">19:18:09:37</property>
  <property name="meta.attr.com.apple.proapps.manufacturer.markup">Blackmagic Design</property>
  <property name="meta.attr.com.apple.proapps.cameraName.markup">CAM1</property>
  <property name="meta.attr.com.apple.proapps.isGood.markup">0</property>
  <property name="meta.attr.com.apple.proapps.customgamma.markup">com.blackmagic-design.cinemacamera.filmlog</property>
  <property name="meta.attr.com.blackmagic-design.cinemacamera.uuid.markup">18E5E00548F94923B646613A73C01B56</property>
  <property name="meta.attr.creation_time.markup">2018-12-10T19:18:09.000000Z</property>
  <property name="meta.attr.timecode.markup">19:18:09:37</property>
  <property name="seekable">1</property>
  <property name="meta.media.sample_aspect_num">1</property>
  <property name="meta.media.sample_aspect_den">1</property>
  <property name="aspect_ratio">1</property>
  <property name="kdenlive:folderid">13</property>
  <property name="kdenlive:file_size">7725732233</property>
  <property name="kdenlive:file_hash">4738ec11929b714df4a2322c7cba3752</property>
  <property name="global_feed">1</property>
  <property name="meta.media.frame_rate_num">50</property>
  <property name="meta.media.frame_rate_den">1</property>
  <property name="meta.media.colorspace">709</property>
  <property name="meta.media.color_trc">1</property>
  <property name="meta.media.width">1920</property>
  <property name="meta.media.height">1080</property>
  <property name="meta.media.top_field_first">0</property>
  <property name="meta.media.progressive">1</property>
  <property name="meta.media.1.codec.color_trc">1</property>
  <filter id="filter22">
   <property name="version">0,1</property>
   <property name="mlt_service">frei0r.colgate</property>
   <property name="kdenlive_id">frei0r.colgate</property>
   <property name="tag">frei0r.colgate</property>
   <property name="kdenlive_ix">1</property>
   <property name="kdenlive_info"/>
   <property name="Neutral Color">0x7f7f7fff</property>
   <property name="Color Temperature">0=0,5</property>
   <property name="disable">0</property>
  </filter>
  <filter id="filter23">
   <property name="version">0,3</property>
   <property name="mlt_service">frei0r.levels</property>
   <property name="kdenlive_id">frei0r.levels</property>
   <property name="tag">frei0r.levels</property>
   <property name="kdenlive_ix">2</property>
   <property name="kdenlive_info"/>
   <property name="Channel">0,3</property>
   <property name="Input black level">0=0</property>
   <property name="Input white level">0=0,65</property>
   <property name="Gamma">0=0,25</property>
   <property name="Black output">0=0</property>
   <property name="White output">0=1</property>
   <property name="Show histogram">0</property>
   <property name="Histogram position">0,3</property>
  </filter>
 </producer>
 <producer title="Anonymous Submission" id="23" in="0" out="90">
  <property name="length">00:00:01:41</property>
  <property name="eof">pause</property>
  <property name="resource">/media/bordun/plagiat/2018-12-10_Plagiat_RespecteLaPuissancePapale/Carte_4/CAM1_2018-12-10_1930_C0006.mov</property>
  <property name="audio_index">2</property>
  <property name="video_index">1</property>
  <property name="mute_on_pause">1</property>
  <property name="mlt_service">avformat-novalidate</property>
  <property name="meta.media.nb_streams">3</property>
  <property name="meta.media.1.stream.type">video</property>
  <property name="meta.media.1.stream.frame_rate">50</property>
  <property name="meta.media.1.stream.sample_aspect_ratio">1</property>
  <property name="meta.media.1.codec.width">1920</property>
  <property name="meta.media.1.codec.height">1080</property>
  <property name="meta.media.1.codec.rotate">0</property>
  <property name="meta.media.1.codec.frame_rate">5000</property>
  <property name="meta.media.1.codec.pix_fmt">yuv422p10le</property>
  <property name="meta.media.1.codec.sample_aspect_ratio">0</property>
  <property name="meta.media.1.codec.colorspace">709</property>
  <property name="meta.media.1.codec.name">prores</property>
  <property name="meta.media.1.codec.long_name">ProRes</property>
  <property name="meta.media.1.codec.bit_rate">366959648</property>
  <property name="meta.attr.1.stream.creation_time.markup">2018-12-10T19:30:36.000000Z</property>
  <property name="meta.attr.1.stream.language.markup">eng</property>
  <property name="meta.attr.1.stream.handler_name.markup">Apple Alias Data Handler</property>
  <property name="meta.attr.1.stream.encoder.markup">Apple ProRes 422 HQ</property>
  <property name="meta.attr.1.stream.timecode.markup">19:30:36:33</property>
  <property name="meta.media.2.stream.type">audio</property>
  <property name="meta.media.2.codec.sample_fmt">s32</property>
  <property name="meta.media.2.codec.sample_rate">48000</property>
  <property name="meta.media.2.codec.channels">2</property>
  <property name="meta.media.2.codec.name">pcm_s24le</property>
  <property name="meta.media.2.codec.long_name">PCM signed 24-bit little-endian</property>
  <property name="meta.media.2.codec.bit_rate">2304000</property>
  <property name="meta.attr.2.stream.creation_time.markup">2018-12-10T19:30:36.000000Z</property>
  <property name="meta.attr.2.stream.language.markup">eng</property>
  <property name="meta.attr.2.stream.handler_name.markup">Apple Alias Data Handler</property>
  <property name="meta.attr.2.stream.timecode.markup">19:30:36:33</property>
  <property name="meta.attr.com.apple.proapps.manufacturer.markup">Blackmagic Design</property>
  <property name="meta.attr.com.apple.proapps.cameraName.markup">CAM1</property>
  <property name="meta.attr.com.apple.proapps.isGood.markup">0</property>
  <property name="meta.attr.com.apple.proapps.customgamma.markup">com.blackmagic-design.cinemacamera.filmlog</property>
  <property name="meta.attr.com.blackmagic-design.cinemacamera.uuid.markup">18E5E00548F94923B646613A73C01B56</property>
  <property name="meta.attr.creation_time.markup">2018-12-10T19:30:36.000000Z</property>
  <property name="meta.attr.timecode.markup">19:30:36:33</property>
  <property name="seekable">1</property>
  <property name="meta.media.sample_aspect_num">1</property>
  <property name="meta.media.sample_aspect_den">1</property>
  <property name="aspect_ratio">1</property>
  <property name="kdenlive:folderid">13</property>
  <property name="kdenlive:file_size">84022873</property>
  <property name="kdenlive:file_hash">1ba34791faa62b04135628a57849c83e</property>
  <property name="global_feed">1</property>
  <property name="meta.media.frame_rate_num">50</property>
  <property name="meta.media.frame_rate_den">1</property>
  <property name="meta.media.colorspace">709</property>
  <property name="meta.media.color_trc">1</property>
  <property name="meta.media.width">1920</property>
  <property name="meta.media.height">1080</property>
  <property name="meta.media.top_field_first">0</property>
  <property name="meta.media.progressive">1</property>
  <property name="meta.media.1.codec.color_trc">1</property>
 </producer>
 <producer title="Anonymous Submission" id="24" in="0" out="2194">
  <property name="length">00:00:43:45</property>
  <property name="eof">pause</property>
  <property name="resource">/media/bordun/plagiat/2018-12-10_Plagiat_RespecteLaPuissancePapale/Carte_4/CAM1_2018-12-10_1932_C0007.mov</property>
  <property name="audio_index">2</property>
  <property name="video_index">1</property>
  <property name="mute_on_pause">1</property>
  <property name="mlt_service">avformat-novalidate</property>
  <property name="meta.media.nb_streams">3</property>
  <property name="meta.media.1.stream.type">video</property>
  <property name="meta.media.1.stream.frame_rate">50</property>
  <property name="meta.media.1.stream.sample_aspect_ratio">1</property>
  <property name="meta.media.1.codec.width">1920</property>
  <property name="meta.media.1.codec.height">1080</property>
  <property name="meta.media.1.codec.rotate">0</property>
  <property name="meta.media.1.codec.frame_rate">5000</property>
  <property name="meta.media.1.codec.pix_fmt">yuv422p10le</property>
  <property name="meta.media.1.codec.sample_aspect_ratio">0</property>
  <property name="meta.media.1.codec.colorspace">709</property>
  <property name="meta.media.1.codec.name">prores</property>
  <property name="meta.media.1.codec.long_name">ProRes</property>
  <property name="meta.media.1.codec.bit_rate">366958350</property>
  <property name="meta.attr.1.stream.creation_time.markup">2018-12-10T19:32:10.000000Z</property>
  <property name="meta.attr.1.stream.language.markup">eng</property>
  <property name="meta.attr.1.stream.handler_name.markup">Apple Alias Data Handler</property>
  <property name="meta.attr.1.stream.encoder.markup">Apple ProRes 422 HQ</property>
  <property name="meta.attr.1.stream.timecode.markup">19:32:10:35</property>
  <property name="meta.media.2.stream.type">audio</property>
  <property name="meta.media.2.codec.sample_fmt">s32</property>
  <property name="meta.media.2.codec.sample_rate">48000</property>
  <property name="meta.media.2.codec.channels">2</property>
  <property name="meta.media.2.codec.name">pcm_s24le</property>
  <property name="meta.media.2.codec.long_name">PCM signed 24-bit little-endian</property>
  <property name="meta.media.2.codec.bit_rate">2304000</property>
  <property name="meta.attr.2.stream.creation_time.markup">2018-12-10T19:32:10.000000Z</property>
  <property name="meta.attr.2.stream.language.markup">eng</property>
  <property name="meta.attr.2.stream.handler_name.markup">Apple Alias Data Handler</property>
  <property name="meta.attr.2.stream.timecode.markup">19:32:10:35</property>
  <property name="meta.attr.com.apple.proapps.manufacturer.markup">Blackmagic Design</property>
  <property name="meta.attr.com.apple.proapps.cameraName.markup">CAM1</property>
  <property name="meta.attr.com.apple.proapps.isGood.markup">0</property>
  <property name="meta.attr.com.apple.proapps.customgamma.markup">com.blackmagic-design.cinemacamera.filmlog</property>
  <property name="meta.attr.com.blackmagic-design.cinemacamera.uuid.markup">18E5E00548F94923B646613A73C01B56</property>
  <property name="meta.attr.creation_time.markup">2018-12-10T19:32:10.000000Z</property>
  <property name="meta.attr.timecode.markup">19:32:10:35</property>
  <property name="seekable">1</property>
  <property name="meta.media.sample_aspect_num">1</property>
  <property name="meta.media.sample_aspect_den">1</property>
  <property name="aspect_ratio">1</property>
  <property name="kdenlive:folderid">13</property>
  <property name="kdenlive:file_size">2026532265</property>
  <property name="kdenlive:file_hash">817b2a44d7814a42acea89e05d1f8fde</property>
  <property name="global_feed">1</property>
  <property name="meta.media.frame_rate_num">50</property>
  <property name="meta.media.frame_rate_den">1</property>
  <property name="meta.media.colorspace">709</property>
  <property name="meta.media.color_trc">1</property>
  <property name="meta.media.width">1920</property>
  <property name="meta.media.height">1080</property>
  <property name="meta.media.top_field_first">0</property>
  <property name="meta.media.progressive">1</property>
  <property name="kdenlive:zone_in">1490</property>
  <property name="kdenlive:zone_out">1492</property>
  <property name="meta.media.1.codec.color_trc">1</property>
  <filter id="frei0r.sopsat">
   <property name="version">0,3</property>
   <property name="mlt_service">frei0r.sopsat</property>
   <property name="kdenlive_id">frei0r.sopsat</property>
   <property name="tag">frei0r.sopsat</property>
   <property name="kdenlive_ix">1</property>
   <property name="kdenlive_info">1/-1/</property>
   <property name="rSlope">0=0,1055</property>
   <property name="gSlope">0=0,05</property>
   <property name="bSlope">0=0,088</property>
   <property name="aSlope">0=0,05</property>
   <property name="rOffset">0=0,456543</property>
   <property name="gOffset">0=0,238281</property>
   <property name="bOffset">0=0,5</property>
   <property name="aOffset">0=0,5</property>
   <property name="rPower">0=0,025</property>
   <property name="gPower">0=0,0525</property>
   <property name="bPower">0=0,0655</property>
   <property name="aPower">0=0,05</property>
   <property name="saturation">0=0,1</property>
   <property name="disable">0</property>
  </filter>
  <filter id="gamma">
   <property name="gamma">0=1,3</property>
   <property name="mlt_service">gamma</property>
   <property name="kdenlive_id">gamma</property>
   <property name="tag">gamma</property>
   <property name="kdenlive_ix">2</property>
   <property name="kdenlive_info"/>
   <property name="disable">0</property>
  </filter>
  <filter id="RLPP - Violet Degueux">
   <property name="version">0,3</property>
   <property name="mlt_service">frei0r.sopsat</property>
   <property name="kdenlive_id">RLPP - Violet Degueux</property>
   <property name="tag">frei0r.sopsat</property>
   <property name="kdenlive_ix">3</property>
   <property name="kdenlive_info"/>
   <property name="rSlope">0=0,066</property>
   <property name="gSlope">0=0,3215</property>
   <property name="bSlope">0=0,079</property>
   <property name="aSlope">0=0,05</property>
   <property name="rOffset">0=0,456055</property>
   <property name="gOffset">0=0,237793</property>
   <property name="bOffset">0=0,5</property>
   <property name="aOffset">0=0,5</property>
   <property name="rPower">0=0,025</property>
   <property name="gPower">0=0,0525</property>
   <property name="bPower">0=0,0655</property>
   <property name="aPower">0=0,05</property>
   <property name="saturation">0=0,1</property>
   <property name="disable">1</property>
  </filter>
 </producer>
 <producer title="Anonymous Submission" id="22" in="0" out="2303">
  <property name="length">00:00:46:04</property>
  <property name="eof">pause</property>
  <property name="resource">/media/bordun/plagiat/2018-12-10_Plagiat_RespecteLaPuissancePapale/Carte_4/CAM1_2018-12-10_1921_C0005.mov</property>
  <property name="audio_index">2</property>
  <property name="video_index">1</property>
  <property name="mute_on_pause">1</property>
  <property name="mlt_service">avformat-novalidate</property>
  <property name="meta.media.nb_streams">3</property>
  <property name="meta.media.1.stream.type">video</property>
  <property name="meta.media.1.stream.frame_rate">50</property>
  <property name="meta.media.1.stream.sample_aspect_ratio">1</property>
  <property name="meta.media.1.codec.width">1920</property>
  <property name="meta.media.1.codec.height">1080</property>
  <property name="meta.media.1.codec.rotate">0</property>
  <property name="meta.media.1.codec.frame_rate">5000</property>
  <property name="meta.media.1.codec.pix_fmt">yuv422p10le</property>
  <property name="meta.media.1.codec.sample_aspect_ratio">0</property>
  <property name="meta.media.1.codec.colorspace">709</property>
  <property name="meta.media.1.codec.name">prores</property>
  <property name="meta.media.1.codec.long_name">ProRes</property>
  <property name="meta.media.1.codec.bit_rate">366955247</property>
  <property name="meta.attr.1.stream.creation_time.markup">2018-12-10T19:21:23.000000Z</property>
  <property name="meta.attr.1.stream.language.markup">eng</property>
  <property name="meta.attr.1.stream.handler_name.markup">Apple Alias Data Handler</property>
  <property name="meta.attr.1.stream.encoder.markup">Apple ProRes 422 HQ</property>
  <property name="meta.attr.1.stream.timecode.markup">19:21:23:42</property>
  <property name="meta.media.2.stream.type">audio</property>
  <property name="meta.media.2.codec.sample_fmt">s32</property>
  <property name="meta.media.2.codec.sample_rate">48000</property>
  <property name="meta.media.2.codec.channels">2</property>
  <property name="meta.media.2.codec.name">pcm_s24le</property>
  <property name="meta.media.2.codec.long_name">PCM signed 24-bit little-endian</property>
  <property name="meta.media.2.codec.bit_rate">2304000</property>
  <property name="meta.attr.2.stream.creation_time.markup">2018-12-10T19:21:23.000000Z</property>
  <property name="meta.attr.2.stream.language.markup">eng</property>
  <property name="meta.attr.2.stream.handler_name.markup">Apple Alias Data Handler</property>
  <property name="meta.attr.2.stream.timecode.markup">19:21:23:42</property>
  <property name="meta.attr.com.apple.proapps.manufacturer.markup">Blackmagic Design</property>
  <property name="meta.attr.com.apple.proapps.cameraName.markup">CAM1</property>
  <property name="meta.attr.com.apple.proapps.isGood.markup">0</property>
  <property name="meta.attr.com.apple.proapps.customgamma.markup">com.blackmagic-design.cinemacamera.filmlog</property>
  <property name="meta.attr.com.blackmagic-design.cinemacamera.uuid.markup">18E5E00548F94923B646613A73C01B56</property>
  <property name="meta.attr.creation_time.markup">2018-12-10T19:21:23.000000Z</property>
  <property name="meta.attr.timecode.markup">19:21:23:42</property>
  <property name="seekable">1</property>
  <property name="meta.media.sample_aspect_num">1</property>
  <property name="meta.media.sample_aspect_den">1</property>
  <property name="aspect_ratio">1</property>
  <property name="kdenlive:folderid">13</property>
  <property name="kdenlive:file_size">2127176129</property>
  <property name="kdenlive:file_hash">498399b1185fccb66f9150f51f3e9c22</property>
  <property name="global_feed">1</property>
  <property name="meta.media.frame_rate_num">50</property>
  <property name="meta.media.frame_rate_den">1</property>
  <property name="meta.media.colorspace">709</property>
  <property name="meta.media.color_trc">1</property>
  <property name="meta.media.width">1920</property>
  <property name="meta.media.height">1080</property>
  <property name="meta.media.top_field_first">0</property>
  <property name="meta.media.progressive">1</property>
  <property name="meta.media.1.codec.color_trc">1</property>
 </producer>
 <producer title="Anonymous Submission" id="14" in="0" out="3805">
  <property name="length">00:01:16:06</property>
  <property name="eof">pause</property>
  <property name="resource">/media/bordun/plagiat/2018-12-10_Plagiat_RespecteLaPuissancePapale/Carte_3/CAM1_2018-12-10_1833_C0003.mov</property>
  <property name="audio_index">2</property>
  <property name="video_index">1</property>
  <property name="mute_on_pause">1</property>
  <property name="mlt_service">avformat-novalidate</property>
  <property name="meta.media.nb_streams">3</property>
  <property name="meta.media.1.stream.type">video</property>
  <property name="meta.media.1.stream.frame_rate">50</property>
  <property name="meta.media.1.stream.sample_aspect_ratio">1</property>
  <property name="meta.media.1.codec.width">1920</property>
  <property name="meta.media.1.codec.height">1080</property>
  <property name="meta.media.1.codec.rotate">0</property>
  <property name="meta.media.1.codec.frame_rate">5000</property>
  <property name="meta.media.1.codec.pix_fmt">yuv422p10le</property>
  <property name="meta.media.1.codec.sample_aspect_ratio">0</property>
  <property name="meta.media.1.codec.colorspace">709</property>
  <property name="meta.media.1.codec.name">prores</property>
  <property name="meta.media.1.codec.long_name">ProRes</property>
  <property name="meta.media.1.codec.bit_rate">366958122</property>
  <property name="meta.attr.1.stream.creation_time.markup">2018-12-10T18:33:13.000000Z</property>
  <property name="meta.attr.1.stream.language.markup">eng</property>
  <property name="meta.attr.1.stream.handler_name.markup">Apple Alias Data Handler</property>
  <property name="meta.attr.1.stream.encoder.markup">Apple ProRes 422 HQ</property>
  <property name="meta.attr.1.stream.timecode.markup">18:33:13:41</property>
  <property name="meta.media.2.stream.type">audio</property>
  <property name="meta.media.2.codec.sample_fmt">s32</property>
  <property name="meta.media.2.codec.sample_rate">48000</property>
  <property name="meta.media.2.codec.channels">2</property>
  <property name="meta.media.2.codec.name">pcm_s24le</property>
  <property name="meta.media.2.codec.long_name">PCM signed 24-bit little-endian</property>
  <property name="meta.media.2.codec.bit_rate">2304000</property>
  <property name="meta.attr.2.stream.creation_time.markup">2018-12-10T18:33:13.000000Z</property>
  <property name="meta.attr.2.stream.language.markup">eng</property>
  <property name="meta.attr.2.stream.handler_name.markup">Apple Alias Data Handler</property>
  <property name="meta.attr.2.stream.timecode.markup">18:33:13:41</property>
  <property name="meta.attr.com.apple.proapps.manufacturer.markup">Blackmagic Design</property>
  <property name="meta.attr.com.apple.proapps.cameraName.markup">CAM1</property>
  <property name="meta.attr.com.apple.proapps.isGood.markup">0</property>
  <property name="meta.attr.com.apple.proapps.customgamma.markup">com.blackmagic-design.cinemacamera.filmlog</property>
  <property name="meta.attr.com.blackmagic-design.cinemacamera.uuid.markup">18E5E00548F94923B646613A73C01B56</property>
  <property name="meta.attr.creation_time.markup">2018-12-10T18:33:13.000000Z</property>
  <property name="meta.attr.timecode.markup">18:33:13:41</property>
  <property name="seekable">1</property>
  <property name="meta.media.sample_aspect_num">1</property>
  <property name="meta.media.sample_aspect_den">1</property>
  <property name="aspect_ratio">1</property>
  <property name="kdenlive:folderid">14</property>
  <property name="kdenlive:file_size">3513882801</property>
  <property name="kdenlive:file_hash">911165815b4f50c12a788c8017dec34b</property>
  <property name="global_feed">1</property>
  <property name="meta.media.frame_rate_num">50</property>
  <property name="meta.media.frame_rate_den">1</property>
  <property name="meta.media.colorspace">709</property>
  <property name="meta.media.color_trc">1</property>
  <property name="meta.media.width">1920</property>
  <property name="meta.media.height">1080</property>
  <property name="meta.media.top_field_first">0</property>
  <property name="meta.media.progressive">1</property>
  <property name="meta.media.1.codec.color_trc">1</property>
  <property name="kdenlive:zone_in">2778</property>
  <property name="kdenlive:zone_out">2808</property>
  <filter id="filter24">
   <property name="version">0,1</property>
   <property name="mlt_service">frei0r.colgate</property>
   <property name="kdenlive_id">frei0r.colgate</property>
   <property name="tag">frei0r.colgate</property>
   <property name="kdenlive_ix">1</property>
   <property name="kdenlive_info"/>
   <property name="Neutral Color">0x7f7f7fff</property>
   <property name="Color Temperature">0=0,523333</property>
  </filter>
  <filter id="filter25">
   <property name="version">0,3</property>
   <property name="mlt_service">frei0r.levels</property>
   <property name="kdenlive_id">frei0r.levels</property>
   <property name="tag">frei0r.levels</property>
   <property name="kdenlive_ix">2</property>
   <property name="kdenlive_info"/>
   <property name="Channel">0,3</property>
   <property name="Input black level">0=0</property>
   <property name="Input white level">0=0,85</property>
   <property name="Gamma">0=0,25</property>
   <property name="Black output">0=0</property>
   <property name="White output">0=1</property>
   <property name="Show histogram">0</property>
   <property name="Histogram position">0,3</property>
  </filter>
 </producer>
 <producer title="Anonymous Submission" id="15" in="0" out="3941">
  <property name="length">00:01:18:42</property>
  <property name="eof">pause</property>
  <property name="resource">/media/bordun/plagiat/2018-12-10_Plagiat_RespecteLaPuissancePapale/Carte_3/CAM1_2018-12-10_1834_C0004.mov</property>
  <property name="audio_index">2</property>
  <property name="video_index">1</property>
  <property name="mute_on_pause">1</property>
  <property name="mlt_service">avformat-novalidate</property>
  <property name="meta.media.nb_streams">3</property>
  <property name="meta.media.1.stream.type">video</property>
  <property name="meta.media.1.stream.frame_rate">50</property>
  <property name="meta.media.1.stream.sample_aspect_ratio">1</property>
  <property name="meta.media.1.codec.width">1920</property>
  <property name="meta.media.1.codec.height">1080</property>
  <property name="meta.media.1.codec.rotate">0</property>
  <property name="meta.media.1.codec.frame_rate">5000</property>
  <property name="meta.media.1.codec.pix_fmt">yuv422p10le</property>
  <property name="meta.media.1.codec.sample_aspect_ratio">0</property>
  <property name="meta.media.1.codec.colorspace">709</property>
  <property name="meta.media.1.codec.name">prores</property>
  <property name="meta.media.1.codec.long_name">ProRes</property>
  <property name="meta.media.1.codec.bit_rate">366957579</property>
  <property name="meta.attr.1.stream.creation_time.markup">2018-12-10T18:34:58.000000Z</property>
  <property name="meta.attr.1.stream.language.markup">eng</property>
  <property name="meta.attr.1.stream.handler_name.markup">Apple Alias Data Handler</property>
  <property name="meta.attr.1.stream.encoder.markup">Apple ProRes 422 HQ</property>
  <property name="meta.attr.1.stream.timecode.markup">18:34:58:08</property>
  <property name="meta.media.2.stream.type">audio</property>
  <property name="meta.media.2.codec.sample_fmt">s32</property>
  <property name="meta.media.2.codec.sample_rate">48000</property>
  <property name="meta.media.2.codec.channels">2</property>
  <property name="meta.media.2.codec.name">pcm_s24le</property>
  <property name="meta.media.2.codec.long_name">PCM signed 24-bit little-endian</property>
  <property name="meta.media.2.codec.bit_rate">2304000</property>
  <property name="meta.attr.2.stream.creation_time.markup">2018-12-10T18:34:58.000000Z</property>
  <property name="meta.attr.2.stream.language.markup">eng</property>
  <property name="meta.attr.2.stream.handler_name.markup">Apple Alias Data Handler</property>
  <property name="meta.attr.2.stream.timecode.markup">18:34:58:08</property>
  <property name="meta.attr.com.apple.proapps.manufacturer.markup">Blackmagic Design</property>
  <property name="meta.attr.com.apple.proapps.cameraName.markup">CAM1</property>
  <property name="meta.attr.com.apple.proapps.isGood.markup">0</property>
  <property name="meta.attr.com.apple.proapps.customgamma.markup">com.blackmagic-design.cinemacamera.filmlog</property>
  <property name="meta.attr.com.blackmagic-design.cinemacamera.uuid.markup">18E5E00548F94923B646613A73C01B56</property>
  <property name="meta.attr.creation_time.markup">2018-12-10T18:34:58.000000Z</property>
  <property name="meta.attr.timecode.markup">18:34:58:08</property>
  <property name="seekable">1</property>
  <property name="meta.media.sample_aspect_num">1</property>
  <property name="meta.media.sample_aspect_den">1</property>
  <property name="aspect_ratio">1</property>
  <property name="kdenlive:folderid">14</property>
  <property name="kdenlive:file_size">3639442625</property>
  <property name="kdenlive:file_hash">b37e37844340c239c0192cc4d49711fe</property>
  <property name="global_feed">1</property>
  <property name="meta.media.frame_rate_num">50</property>
  <property name="meta.media.frame_rate_den">1</property>
  <property name="meta.media.colorspace">709</property>
  <property name="meta.media.color_trc">1</property>
  <property name="meta.media.width">1920</property>
  <property name="meta.media.height">1080</property>
  <property name="meta.media.top_field_first">0</property>
  <property name="meta.media.progressive">1</property>
  <property name="meta.media.1.codec.color_trc">1</property>
  <property name="kdenlive:zone_in">1468</property>
  <property name="kdenlive:zone_out">1492</property>
  <filter id="filter26">
   <property name="version">0,1</property>
   <property name="mlt_service">frei0r.colgate</property>
   <property name="kdenlive_id">frei0r.colgate</property>
   <property name="tag">frei0r.colgate</property>
   <property name="kdenlive_ix">1</property>
   <property name="kdenlive_info"/>
   <property name="Neutral Color">0x7f7f7fff</property>
   <property name="Color Temperature">0=0,523333</property>
   <property name="disable">0</property>
  </filter>
  <filter id="filter27">
   <property name="version">0,3</property>
   <property name="mlt_service">frei0r.levels</property>
   <property name="kdenlive_id">frei0r.levels</property>
   <property name="tag">frei0r.levels</property>
   <property name="kdenlive_ix">2</property>
   <property name="kdenlive_info"/>
   <property name="Channel">0,3</property>
   <property name="Input black level">0=0</property>
   <property name="Input white level">0=0,85</property>
   <property name="Gamma">0=0,25</property>
   <property name="Black output">0=0</property>
   <property name="White output">0=1</property>
   <property name="Show histogram">0</property>
   <property name="Histogram position">0,3</property>
   <property name="disable">0</property>
  </filter>
 </producer>
 <producer title="Anonymous Submission" id="10" in="0" out="3856">
  <property name="length">00:01:17:07</property>
  <property name="eof">pause</property>
  <property name="resource">/media/bordun/plagiat/2018-12-10_Plagiat_RespecteLaPuissancePapale/Carte_2/CAM1_2018-12-10_1727_C0005.mov</property>
  <property name="audio_index">2</property>
  <property name="video_index">1</property>
  <property name="mute_on_pause">1</property>
  <property name="mlt_service">avformat-novalidate</property>
  <property name="meta.media.nb_streams">3</property>
  <property name="meta.media.1.stream.type">video</property>
  <property name="meta.media.1.stream.frame_rate">50</property>
  <property name="meta.media.1.stream.sample_aspect_ratio">1</property>
  <property name="meta.media.1.codec.width">1920</property>
  <property name="meta.media.1.codec.height">1080</property>
  <property name="meta.media.1.codec.rotate">0</property>
  <property name="meta.media.1.codec.frame_rate">5000</property>
  <property name="meta.media.1.codec.pix_fmt">yuv422p10le</property>
  <property name="meta.media.1.codec.sample_aspect_ratio">0</property>
  <property name="meta.media.1.codec.colorspace">709</property>
  <property name="meta.media.1.codec.name">prores</property>
  <property name="meta.media.1.codec.long_name">ProRes (iCodec Pro)</property>
  <property name="meta.media.1.codec.bit_rate">366957401</property>
  <property name="meta.attr.1.stream.creation_time.markup">2018-12-10T17:27:46.000000Z</property>
  <property name="meta.attr.1.stream.language.markup">eng</property>
  <property name="meta.attr.1.stream.handler_name.markup">Apple Video Media Handler</property>
  <property name="meta.attr.1.stream.encoder.markup">Apple ProRes 422 HQ</property>
  <property name="meta.attr.1.stream.timecode.markup">17:27:46:06</property>
  <property name="meta.media.2.stream.type">audio</property>
  <property name="meta.media.2.codec.sample_fmt">s32</property>
  <property name="meta.media.2.codec.sample_rate">48000</property>
  <property name="meta.media.2.codec.channels">2</property>
  <property name="meta.media.2.codec.name">pcm_s24le</property>
  <property name="meta.media.2.codec.long_name">PCM signed 24-bit little-endian</property>
  <property name="meta.media.2.codec.bit_rate">2304000</property>
  <property name="meta.attr.2.stream.creation_time.markup">2018-12-10T17:27:46.000000Z</property>
  <property name="meta.attr.2.stream.language.markup">eng</property>
  <property name="meta.attr.2.stream.handler_name.markup">Apple Sound Media Handler</property>
  <property name="meta.attr.2.stream.timecode.markup">17:27:46:06</property>
  <property name="meta.attr.com.apple.proapps.manufacturer.markup">Blackmagic Design</property>
  <property name="meta.attr.com.apple.proapps.cameraName.markup">CAM1</property>
  <property name="meta.attr.com.apple.proapps.isGood.markup">0</property>
  <property name="meta.attr.com.apple.proapps.customgamma.markup">com.blackmagic-design.cinemacamera.filmlog</property>
  <property name="meta.attr.com.blackmagic-design.cinemacamera.uuid.markup">18E5E00548F94923B646613A73C01B56</property>
  <property name="meta.attr.creation_time.markup">2018-12-10T17:27:46.000000Z</property>
  <property name="meta.attr.timecode.markup">17:27:46:06</property>
  <property name="seekable">1</property>
  <property name="meta.media.sample_aspect_num">1</property>
  <property name="meta.media.sample_aspect_den">1</property>
  <property name="aspect_ratio">1</property>
  <property name="kdenlive:folderid">11</property>
  <property name="kdenlive:file_size">3560966841</property>
  <property name="kdenlive:file_hash">d4c6ef671e1439d8b3d95b2e51c4f714</property>
  <property name="global_feed">1</property>
  <property name="meta.media.frame_rate_num">50</property>
  <property name="meta.media.frame_rate_den">1</property>
  <property name="meta.media.colorspace">709</property>
  <property name="meta.media.color_trc">2</property>
  <property name="meta.media.width">1920</property>
  <property name="meta.media.height">1080</property>
  <property name="meta.media.top_field_first">0</property>
  <property name="meta.media.progressive">1</property>
 </producer>
 <producer title="Anonymous Submission" id="9" in="0" out="7720">
  <property name="length">00:02:34:21</property>
  <property name="eof">pause</property>
  <property name="resource">/media/bordun/plagiat/2018-12-10_Plagiat_RespecteLaPuissancePapale/Carte_2/CAM1_2018-12-10_1724_C0004.mov</property>
  <property name="audio_index">2</property>
  <property name="video_index">1</property>
  <property name="mute_on_pause">1</property>
  <property name="mlt_service">avformat-novalidate</property>
  <property name="meta.media.nb_streams">3</property>
  <property name="meta.media.1.stream.type">video</property>
  <property name="meta.media.1.stream.frame_rate">50</property>
  <property name="meta.media.1.stream.sample_aspect_ratio">1</property>
  <property name="meta.media.1.codec.width">1920</property>
  <property name="meta.media.1.codec.height">1080</property>
  <property name="meta.media.1.codec.rotate">0</property>
  <property name="meta.media.1.codec.frame_rate">5000</property>
  <property name="meta.media.1.codec.pix_fmt">yuv422p10le</property>
  <property name="meta.media.1.codec.sample_aspect_ratio">0</property>
  <property name="meta.media.1.codec.colorspace">709</property>
  <property name="meta.media.1.codec.name">prores</property>
  <property name="meta.media.1.codec.long_name">ProRes (iCodec Pro)</property>
  <property name="meta.media.1.codec.bit_rate">366955249</property>
  <property name="meta.attr.1.stream.creation_time.markup">2018-12-10T17:24:30.000000Z</property>
  <property name="meta.attr.1.stream.language.markup">eng</property>
  <property name="meta.attr.1.stream.handler_name.markup">Apple Video Media Handler</property>
  <property name="meta.attr.1.stream.encoder.markup">Apple ProRes 422 HQ</property>
  <property name="meta.attr.1.stream.timecode.markup">17:24:30:16</property>
  <property name="meta.media.2.stream.type">audio</property>
  <property name="meta.media.2.codec.sample_fmt">s32</property>
  <property name="meta.media.2.codec.sample_rate">48000</property>
  <property name="meta.media.2.codec.channels">2</property>
  <property name="meta.media.2.codec.name">pcm_s24le</property>
  <property name="meta.media.2.codec.long_name">PCM signed 24-bit little-endian</property>
  <property name="meta.media.2.codec.bit_rate">2304000</property>
  <property name="meta.attr.2.stream.creation_time.markup">2018-12-10T17:24:30.000000Z</property>
  <property name="meta.attr.2.stream.language.markup">eng</property>
  <property name="meta.attr.2.stream.handler_name.markup">Apple Sound Media Handler</property>
  <property name="meta.attr.2.stream.timecode.markup">17:24:30:16</property>
  <property name="meta.attr.com.apple.proapps.manufacturer.markup">Blackmagic Design</property>
  <property name="meta.attr.com.apple.proapps.cameraName.markup">CAM1</property>
  <property name="meta.attr.com.apple.proapps.isGood.markup">0</property>
  <property name="meta.attr.com.apple.proapps.customgamma.markup">com.blackmagic-design.cinemacamera.filmlog</property>
  <property name="meta.attr.com.blackmagic-design.cinemacamera.uuid.markup">18E5E00548F94923B646613A73C01B56</property>
  <property name="meta.attr.creation_time.markup">2018-12-10T17:24:30.000000Z</property>
  <property name="meta.attr.timecode.markup">17:24:30:16</property>
  <property name="seekable">1</property>
  <property name="meta.media.sample_aspect_num">1</property>
  <property name="meta.media.sample_aspect_den">1</property>
  <property name="aspect_ratio">1</property>
  <property name="kdenlive:folderid">11</property>
  <property name="kdenlive:file_size">7128395553</property>
  <property name="kdenlive:file_hash">26d06da8085fc8a55dca3b4629142f61</property>
  <property name="global_feed">1</property>
  <property name="meta.media.frame_rate_num">50</property>
  <property name="meta.media.frame_rate_den">1</property>
  <property name="meta.media.colorspace">709</property>
  <property name="meta.media.color_trc">2</property>
  <property name="meta.media.width">1920</property>
  <property name="meta.media.height">1080</property>
  <property name="meta.media.top_field_first">0</property>
  <property name="meta.media.progressive">1</property>
 </producer>
 <producer title="Anonymous Submission" id="11" in="0" out="21338">
  <property name="length">00:07:06:39</property>
  <property name="eof">pause</property>
  <property name="resource">/media/bordun/plagiat/2018-12-10_Plagiat_RespecteLaPuissancePapale/Carte_3/CAM1_2018-12-10_1738_C0000.mov</property>
  <property name="audio_index">2</property>
  <property name="video_index">1</property>
  <property name="mute_on_pause">1</property>
  <property name="mlt_service">avformat-novalidate</property>
  <property name="meta.media.nb_streams">3</property>
  <property name="meta.media.1.stream.type">video</property>
  <property name="meta.media.1.stream.frame_rate">50</property>
  <property name="meta.media.1.stream.sample_aspect_ratio">1</property>
  <property name="meta.media.1.codec.width">1920</property>
  <property name="meta.media.1.codec.height">1080</property>
  <property name="meta.media.1.codec.rotate">0</property>
  <property name="meta.media.1.codec.frame_rate">5000</property>
  <property name="meta.media.1.codec.pix_fmt">yuv422p10le</property>
  <property name="meta.media.1.codec.sample_aspect_ratio">0</property>
  <property name="meta.media.1.codec.colorspace">709</property>
  <property name="meta.media.1.codec.name">prores</property>
  <property name="meta.media.1.codec.long_name">ProRes (iCodec Pro)</property>
  <property name="meta.media.1.codec.bit_rate">366957439</property>
  <property name="meta.attr.1.stream.creation_time.markup">2018-12-10T17:38:54.000000Z</property>
  <property name="meta.attr.1.stream.language.markup">eng</property>
  <property name="meta.attr.1.stream.handler_name.markup">Apple Video Media Handler</property>
  <property name="meta.attr.1.stream.encoder.markup">Apple ProRes 422 HQ</property>
  <property name="meta.attr.1.stream.timecode.markup">17:38:54:28</property>
  <property name="meta.media.2.stream.type">audio</property>
  <property name="meta.media.2.codec.sample_fmt">s32</property>
  <property name="meta.media.2.codec.sample_rate">48000</property>
  <property name="meta.media.2.codec.channels">2</property>
  <property name="meta.media.2.codec.name">pcm_s24le</property>
  <property name="meta.media.2.codec.long_name">PCM signed 24-bit little-endian</property>
  <property name="meta.media.2.codec.bit_rate">2304000</property>
  <property name="meta.attr.2.stream.creation_time.markup">2018-12-10T17:38:54.000000Z</property>
  <property name="meta.attr.2.stream.language.markup">eng</property>
  <property name="meta.attr.2.stream.handler_name.markup">Apple Sound Media Handler</property>
  <property name="meta.attr.2.stream.timecode.markup">17:38:54:28</property>
  <property name="meta.attr.com.apple.proapps.manufacturer.markup">Blackmagic Design</property>
  <property name="meta.attr.com.apple.proapps.cameraName.markup">CAM1</property>
  <property name="meta.attr.com.apple.proapps.isGood.markup">0</property>
  <property name="meta.attr.com.apple.proapps.customgamma.markup">com.blackmagic-design.cinemacamera.filmlog</property>
  <property name="meta.attr.com.blackmagic-design.cinemacamera.uuid.markup">18E5E00548F94923B646613A73C01B56</property>
  <property name="meta.attr.creation_time.markup">2018-12-10T17:38:54.000000Z</property>
  <property name="meta.attr.timecode.markup">17:38:54:28</property>
  <property name="seekable">1</property>
  <property name="meta.media.sample_aspect_num">1</property>
  <property name="meta.media.sample_aspect_den">1</property>
  <property name="aspect_ratio">1</property>
  <property name="kdenlive:folderid">12</property>
  <property name="kdenlive:file_size">19701162913</property>
  <property name="kdenlive:file_hash">7247768fd7b55d6de0224125e0ef06f4</property>
  <property name="global_feed">1</property>
  <property name="meta.media.frame_rate_num">50</property>
  <property name="meta.media.frame_rate_den">1</property>
  <property name="meta.media.colorspace">709</property>
  <property name="meta.media.color_trc">2</property>
  <property name="meta.media.width">1920</property>
  <property name="meta.media.height">1080</property>
  <property name="meta.media.top_field_first">0</property>
  <property name="meta.media.progressive">1</property>
 </producer>
 <producer title="Anonymous Submission" id="8" in="0" out="21621">
  <property name="length">00:07:12:22</property>
  <property name="eof">pause</property>
  <property name="resource">/media/bordun/plagiat/2018-12-10_Plagiat_RespecteLaPuissancePapale/Carte_2/CAM1_2018-12-10_1649_C0003.mov</property>
  <property name="audio_index">2</property>
  <property name="video_index">1</property>
  <property name="mute_on_pause">1</property>
  <property name="mlt_service">avformat-novalidate</property>
  <property name="meta.media.nb_streams">3</property>
  <property name="meta.media.1.stream.type">video</property>
  <property name="meta.media.1.stream.frame_rate">50</property>
  <property name="meta.media.1.stream.sample_aspect_ratio">1</property>
  <property name="meta.media.1.codec.width">1920</property>
  <property name="meta.media.1.codec.height">1080</property>
  <property name="meta.media.1.codec.rotate">0</property>
  <property name="meta.media.1.codec.frame_rate">5000</property>
  <property name="meta.media.1.codec.pix_fmt">yuv422p10le</property>
  <property name="meta.media.1.codec.sample_aspect_ratio">0</property>
  <property name="meta.media.1.codec.colorspace">709</property>
  <property name="meta.media.1.codec.name">prores</property>
  <property name="meta.media.1.codec.long_name">ProRes (iCodec Pro)</property>
  <property name="meta.media.1.codec.bit_rate">366956838</property>
  <property name="meta.attr.1.stream.creation_time.markup">2018-12-10T16:49:40.000000Z</property>
  <property name="meta.attr.1.stream.language.markup">eng</property>
  <property name="meta.attr.1.stream.handler_name.markup">Apple Video Media Handler</property>
  <property name="meta.attr.1.stream.encoder.markup">Apple ProRes 422 HQ</property>
  <property name="meta.attr.1.stream.timecode.markup">16:49:40:04</property>
  <property name="meta.media.2.stream.type">audio</property>
  <property name="meta.media.2.codec.sample_fmt">s32</property>
  <property name="meta.media.2.codec.sample_rate">48000</property>
  <property name="meta.media.2.codec.channels">2</property>
  <property name="meta.media.2.codec.name">pcm_s24le</property>
  <property name="meta.media.2.codec.long_name">PCM signed 24-bit little-endian</property>
  <property name="meta.media.2.codec.bit_rate">2304000</property>
  <property name="meta.attr.2.stream.creation_time.markup">2018-12-10T16:49:40.000000Z</property>
  <property name="meta.attr.2.stream.language.markup">eng</property>
  <property name="meta.attr.2.stream.handler_name.markup">Apple Sound Media Handler</property>
  <property name="meta.attr.2.stream.timecode.markup">16:49:40:04</property>
  <property name="meta.attr.com.apple.proapps.manufacturer.markup">Blackmagic Design</property>
  <property name="meta.attr.com.apple.proapps.cameraName.markup">CAM1</property>
  <property name="meta.attr.com.apple.proapps.isGood.markup">0</property>
  <property name="meta.attr.com.apple.proapps.customgamma.markup">com.blackmagic-design.cinemacamera.filmlog</property>
  <property name="meta.attr.com.blackmagic-design.cinemacamera.uuid.markup">18E5E00548F94923B646613A73C01B56</property>
  <property name="meta.attr.creation_time.markup">2018-12-10T16:49:40.000000Z</property>
  <property name="meta.attr.timecode.markup">16:49:40:04</property>
  <property name="seekable">1</property>
  <property name="meta.media.sample_aspect_num">1</property>
  <property name="meta.media.sample_aspect_den">1</property>
  <property name="aspect_ratio">1</property>
  <property name="kdenlive:folderid">7</property>
  <property name="kdenlive:file_size">19962436561</property>
  <property name="kdenlive:file_hash">5ccc04e85e02ddf58369dec9f30fa947</property>
  <property name="global_feed">1</property>
  <property name="meta.media.frame_rate_num">50</property>
  <property name="meta.media.frame_rate_den">1</property>
  <property name="meta.media.colorspace">709</property>
  <property name="meta.media.color_trc">2</property>
  <property name="meta.media.width">1920</property>
  <property name="meta.media.height">1080</property>
  <property name="meta.media.top_field_first">0</property>
  <property name="meta.media.progressive">1</property>
 </producer>
 <producer title="Anonymous Submission" id="25" in="0" out="4317">
  <property name="length">00:01:26:18</property>
  <property name="eof">pause</property>
  <property name="resource">/media/bordun/plagiat/2018-12-10_Plagiat_RespecteLaPuissancePapale/Carte_4/CAM1_2018-12-10_1941_C0008.mov</property>
  <property name="audio_index">2</property>
  <property name="video_index">1</property>
  <property name="mute_on_pause">1</property>
  <property name="mlt_service">avformat-novalidate</property>
  <property name="meta.media.nb_streams">3</property>
  <property name="meta.media.1.stream.type">video</property>
  <property name="meta.media.1.stream.frame_rate">50</property>
  <property name="meta.media.1.stream.sample_aspect_ratio">1</property>
  <property name="meta.media.1.codec.width">1920</property>
  <property name="meta.media.1.codec.height">1080</property>
  <property name="meta.media.1.codec.rotate">0</property>
  <property name="meta.media.1.codec.frame_rate">5000</property>
  <property name="meta.media.1.codec.pix_fmt">yuv422p10le</property>
  <property name="meta.media.1.codec.sample_aspect_ratio">0</property>
  <property name="meta.media.1.codec.colorspace">709</property>
  <property name="meta.media.1.codec.name">prores</property>
  <property name="meta.media.1.codec.long_name">ProRes (iCodec Pro)</property>
  <property name="meta.media.1.codec.bit_rate">366957366</property>
  <property name="meta.attr.1.stream.creation_time.markup">2018-12-10T19:41:35.000000Z</property>
  <property name="meta.attr.1.stream.language.markup">eng</property>
  <property name="meta.attr.1.stream.handler_name.markup">Apple Video Media Handler</property>
  <property name="meta.attr.1.stream.encoder.markup">Apple ProRes 422 HQ</property>
  <property name="meta.attr.1.stream.timecode.markup">19:41:35:01</property>
  <property name="meta.media.2.stream.type">audio</property>
  <property name="meta.media.2.codec.sample_fmt">s32</property>
  <property name="meta.media.2.codec.sample_rate">48000</property>
  <property name="meta.media.2.codec.channels">2</property>
  <property name="meta.media.2.codec.name">pcm_s24le</property>
  <property name="meta.media.2.codec.long_name">PCM signed 24-bit little-endian</property>
  <property name="meta.media.2.codec.bit_rate">2304000</property>
  <property name="meta.attr.2.stream.creation_time.markup">2018-12-10T19:41:35.000000Z</property>
  <property name="meta.attr.2.stream.language.markup">eng</property>
  <property name="meta.attr.2.stream.handler_name.markup">Apple Sound Media Handler</property>
  <property name="meta.attr.2.stream.timecode.markup">19:41:35:01</property>
  <property name="meta.attr.com.apple.proapps.manufacturer.markup">Blackmagic Design</property>
  <property name="meta.attr.com.apple.proapps.cameraName.markup">CAM1</property>
  <property name="meta.attr.com.apple.proapps.isGood.markup">0</property>
  <property name="meta.attr.com.apple.proapps.customgamma.markup">com.blackmagic-design.cinemacamera.filmlog</property>
  <property name="meta.attr.com.blackmagic-design.cinemacamera.uuid.markup">18E5E00548F94923B646613A73C01B56</property>
  <property name="meta.attr.creation_time.markup">2018-12-10T19:41:35.000000Z</property>
  <property name="meta.attr.timecode.markup">19:41:35:01</property>
  <property name="seekable">1</property>
  <property name="meta.media.sample_aspect_num">1</property>
  <property name="meta.media.sample_aspect_den">1</property>
  <property name="aspect_ratio">1</property>
  <property name="kdenlive:folderid">7</property>
  <property name="kdenlive:file_size">3986584833</property>
  <property name="kdenlive:file_hash">090baf1e7089bd64f9705012f4444883</property>
  <property name="global_feed">1</property>
  <property name="meta.media.frame_rate_num">50</property>
  <property name="meta.media.frame_rate_den">1</property>
  <property name="meta.media.colorspace">709</property>
  <property name="meta.media.color_trc">2</property>
  <property name="meta.media.width">1920</property>
  <property name="meta.media.height">1080</property>
  <property name="meta.media.top_field_first">0</property>
  <property name="meta.media.progressive">1</property>
 </producer>
 <producer title="Anonymous Submission" id="26" in="0" out="2406">
  <property name="length">00:00:48:07</property>
  <property name="eof">pause</property>
  <property name="resource">/media/bordun/plagiat/2018-12-10_Plagiat_RespecteLaPuissancePapale/Carte_4/CAM1_2018-12-10_1950_C0009.mov</property>
  <property name="audio_index">2</property>
  <property name="video_index">1</property>
  <property name="mute_on_pause">1</property>
  <property name="mlt_service">avformat-novalidate</property>
  <property name="meta.media.nb_streams">3</property>
  <property name="meta.media.1.stream.type">video</property>
  <property name="meta.media.1.stream.frame_rate">50</property>
  <property name="meta.media.1.stream.sample_aspect_ratio">1</property>
  <property name="meta.media.1.codec.width">1920</property>
  <property name="meta.media.1.codec.height">1080</property>
  <property name="meta.media.1.codec.rotate">0</property>
  <property name="meta.media.1.codec.frame_rate">5000</property>
  <property name="meta.media.1.codec.pix_fmt">yuv422p10le</property>
  <property name="meta.media.1.codec.sample_aspect_ratio">0</property>
  <property name="meta.media.1.codec.colorspace">709</property>
  <property name="meta.media.1.codec.name">prores</property>
  <property name="meta.media.1.codec.long_name">ProRes (iCodec Pro)</property>
  <property name="meta.media.1.codec.bit_rate">366957768</property>
  <property name="meta.attr.1.stream.creation_time.markup">2018-12-10T19:50:41.000000Z</property>
  <property name="meta.attr.1.stream.language.markup">eng</property>
  <property name="meta.attr.1.stream.handler_name.markup">Apple Video Media Handler</property>
  <property name="meta.attr.1.stream.encoder.markup">Apple ProRes 422 HQ</property>
  <property name="meta.attr.1.stream.timecode.markup">19:50:41:10</property>
  <property name="meta.media.2.stream.type">audio</property>
  <property name="meta.media.2.codec.sample_fmt">s32</property>
  <property name="meta.media.2.codec.sample_rate">48000</property>
  <property name="meta.media.2.codec.channels">2</property>
  <property name="meta.media.2.codec.name">pcm_s24le</property>
  <property name="meta.media.2.codec.long_name">PCM signed 24-bit little-endian</property>
  <property name="meta.media.2.codec.bit_rate">2304000</property>
  <property name="meta.attr.2.stream.creation_time.markup">2018-12-10T19:50:41.000000Z</property>
  <property name="meta.attr.2.stream.language.markup">eng</property>
  <property name="meta.attr.2.stream.handler_name.markup">Apple Sound Media Handler</property>
  <property name="meta.attr.2.stream.timecode.markup">19:50:41:10</property>
  <property name="meta.attr.com.apple.proapps.manufacturer.markup">Blackmagic Design</property>
  <property name="meta.attr.com.apple.proapps.cameraName.markup">CAM1</property>
  <property name="meta.attr.com.apple.proapps.isGood.markup">0</property>
  <property name="meta.attr.com.apple.proapps.customgamma.markup">com.blackmagic-design.cinemacamera.filmlog</property>
  <property name="meta.attr.com.blackmagic-design.cinemacamera.uuid.markup">18E5E00548F94923B646613A73C01B56</property>
  <property name="meta.attr.creation_time.markup">2018-12-10T19:50:41.000000Z</property>
  <property name="meta.attr.timecode.markup">19:50:41:10</property>
  <property name="seekable">1</property>
  <property name="meta.media.sample_aspect_num">1</property>
  <property name="meta.media.sample_aspect_den">1</property>
  <property name="aspect_ratio">1</property>
  <property name="kdenlive:folderid">15</property>
  <property name="kdenlive:file_size">2222269393</property>
  <property name="kdenlive:file_hash">31d97f0f897fd63981b85562c9492a1e</property>
  <property name="global_feed">1</property>
  <property name="meta.media.frame_rate_num">50</property>
  <property name="meta.media.frame_rate_den">1</property>
  <property name="meta.media.colorspace">709</property>
  <property name="meta.media.color_trc">2</property>
  <property name="meta.media.width">1920</property>
  <property name="meta.media.height">1080</property>
  <property name="meta.media.top_field_first">0</property>
  <property name="meta.media.progressive">1</property>
 </producer>
 <producer title="Anonymous Submission" id="13" in="0" out="4748">
  <property name="length">00:01:34:49</property>
  <property name="eof">pause</property>
  <property name="resource">/media/bordun/plagiat/2018-12-10_Plagiat_RespecteLaPuissancePapale/Carte_3/CAM1_2018-12-10_1827_C0002.mov</property>
  <property name="audio_index">2</property>
  <property name="video_index">1</property>
  <property name="mute_on_pause">1</property>
  <property name="mlt_service">avformat-novalidate</property>
  <property name="meta.media.nb_streams">3</property>
  <property name="meta.media.1.stream.type">video</property>
  <property name="meta.media.1.stream.frame_rate">50</property>
  <property name="meta.media.1.stream.sample_aspect_ratio">1</property>
  <property name="meta.media.1.codec.width">1920</property>
  <property name="meta.media.1.codec.height">1080</property>
  <property name="meta.media.1.codec.rotate">0</property>
  <property name="meta.media.1.codec.frame_rate">5000</property>
  <property name="meta.media.1.codec.pix_fmt">yuv422p10le</property>
  <property name="meta.media.1.codec.sample_aspect_ratio">0</property>
  <property name="meta.media.1.codec.colorspace">709</property>
  <property name="meta.media.1.codec.name">prores</property>
  <property name="meta.media.1.codec.long_name">ProRes (iCodec Pro)</property>
  <property name="meta.media.1.codec.bit_rate">366955583</property>
  <property name="meta.attr.1.stream.creation_time.markup">2018-12-10T18:27:53.000000Z</property>
  <property name="meta.attr.1.stream.language.markup">eng</property>
  <property name="meta.attr.1.stream.handler_name.markup">Apple Video Media Handler</property>
  <property name="meta.attr.1.stream.encoder.markup">Apple ProRes 422 HQ</property>
  <property name="meta.attr.1.stream.timecode.markup">18:27:53:15</property>
  <property name="meta.media.2.stream.type">audio</property>
  <property name="meta.media.2.codec.sample_fmt">s32</property>
  <property name="meta.media.2.codec.sample_rate">48000</property>
  <property name="meta.media.2.codec.channels">2</property>
  <property name="meta.media.2.codec.name">pcm_s24le</property>
  <property name="meta.media.2.codec.long_name">PCM signed 24-bit little-endian</property>
  <property name="meta.media.2.codec.bit_rate">2304000</property>
  <property name="meta.attr.2.stream.creation_time.markup">2018-12-10T18:27:53.000000Z</property>
  <property name="meta.attr.2.stream.language.markup">eng</property>
  <property name="meta.attr.2.stream.handler_name.markup">Apple Sound Media Handler</property>
  <property name="meta.attr.2.stream.timecode.markup">18:27:53:15</property>
  <property name="meta.attr.com.apple.proapps.manufacturer.markup">Blackmagic Design</property>
  <property name="meta.attr.com.apple.proapps.cameraName.markup">CAM1</property>
  <property name="meta.attr.com.apple.proapps.isGood.markup">0</property>
  <property name="meta.attr.com.apple.proapps.customgamma.markup">com.blackmagic-design.cinemacamera.filmlog</property>
  <property name="meta.attr.com.blackmagic-design.cinemacamera.uuid.markup">18E5E00548F94923B646613A73C01B56</property>
  <property name="meta.attr.creation_time.markup">2018-12-10T18:27:53.000000Z</property>
  <property name="meta.attr.timecode.markup">18:27:53:15</property>
  <property name="seekable">1</property>
  <property name="meta.media.sample_aspect_num">1</property>
  <property name="meta.media.sample_aspect_den">1</property>
  <property name="aspect_ratio">1</property>
  <property name="kdenlive:folderid">15</property>
  <property name="kdenlive:file_size">4384498497</property>
  <property name="kdenlive:file_hash">ae32c687eeaacc4b45c49f0baeccff11</property>
  <property name="global_feed">1</property>
  <property name="meta.media.frame_rate_num">50</property>
  <property name="meta.media.frame_rate_den">1</property>
  <property name="meta.media.colorspace">709</property>
  <property name="meta.media.color_trc">2</property>
  <property name="meta.media.width">1920</property>
  <property name="meta.media.height">1080</property>
  <property name="meta.media.top_field_first">0</property>
  <property name="meta.media.progressive">1</property>
 </producer>
 <producer title="Anonymous Submission" id="12" in="0" out="23600">
  <property name="length">00:07:52:01</property>
  <property name="eof">pause</property>
  <property name="resource">/media/bordun/plagiat/2018-12-10_Plagiat_RespecteLaPuissancePapale/Carte_3/CAM1_2018-12-10_1819_C0001.mov</property>
  <property name="audio_index">2</property>
  <property name="video_index">1</property>
  <property name="mute_on_pause">1</property>
  <property name="mlt_service">avformat-novalidate</property>
  <property name="meta.media.nb_streams">3</property>
  <property name="meta.media.1.stream.type">video</property>
  <property name="meta.media.1.stream.frame_rate">50</property>
  <property name="meta.media.1.stream.sample_aspect_ratio">1</property>
  <property name="meta.media.1.codec.width">1920</property>
  <property name="meta.media.1.codec.height">1080</property>
  <property name="meta.media.1.codec.rotate">0</property>
  <property name="meta.media.1.codec.frame_rate">5000</property>
  <property name="meta.media.1.codec.pix_fmt">yuv422p10le</property>
  <property name="meta.media.1.codec.sample_aspect_ratio">0</property>
  <property name="meta.media.1.codec.colorspace">709</property>
  <property name="meta.media.1.codec.name">prores</property>
  <property name="meta.media.1.codec.long_name">ProRes (iCodec Pro)</property>
  <property name="meta.media.1.codec.bit_rate">366956856</property>
  <property name="meta.attr.1.stream.creation_time.markup">2018-12-10T18:19:34.000000Z</property>
  <property name="meta.attr.1.stream.language.markup">eng</property>
  <property name="meta.attr.1.stream.handler_name.markup">Apple Video Media Handler</property>
  <property name="meta.attr.1.stream.encoder.markup">Apple ProRes 422 HQ</property>
  <property name="meta.attr.1.stream.timecode.markup">18:19:34:45</property>
  <property name="meta.media.2.stream.type">audio</property>
  <property name="meta.media.2.codec.sample_fmt">s32</property>
  <property name="meta.media.2.codec.sample_rate">48000</property>
  <property name="meta.media.2.codec.channels">2</property>
  <property name="meta.media.2.codec.name">pcm_s24le</property>
  <property name="meta.media.2.codec.long_name">PCM signed 24-bit little-endian</property>
  <property name="meta.media.2.codec.bit_rate">2304000</property>
  <property name="meta.attr.2.stream.creation_time.markup">2018-12-10T18:19:34.000000Z</property>
  <property name="meta.attr.2.stream.language.markup">eng</property>
  <property name="meta.attr.2.stream.handler_name.markup">Apple Sound Media Handler</property>
  <property name="meta.attr.2.stream.timecode.markup">18:19:34:45</property>
  <property name="meta.attr.com.apple.proapps.manufacturer.markup">Blackmagic Design</property>
  <property name="meta.attr.com.apple.proapps.cameraName.markup">CAM1</property>
  <property name="meta.attr.com.apple.proapps.isGood.markup">0</property>
  <property name="meta.attr.com.apple.proapps.customgamma.markup">com.blackmagic-design.cinemacamera.filmlog</property>
  <property name="meta.attr.com.blackmagic-design.cinemacamera.uuid.markup">18E5E00548F94923B646613A73C01B56</property>
  <property name="meta.attr.creation_time.markup">2018-12-10T18:19:34.000000Z</property>
  <property name="meta.attr.timecode.markup">18:19:34:45</property>
  <property name="seekable">1</property>
  <property name="meta.media.sample_aspect_num">1</property>
  <property name="meta.media.sample_aspect_den">1</property>
  <property name="aspect_ratio">1</property>
  <property name="kdenlive:folderid">15</property>
  <property name="kdenlive:file_size">21789523729</property>
  <property name="kdenlive:file_hash">3b63588261e8ab0454ca51230a000191</property>
  <property name="global_feed">1</property>
  <property name="meta.media.frame_rate_num">50</property>
  <property name="meta.media.frame_rate_den">1</property>
  <property name="meta.media.colorspace">709</property>
  <property name="meta.media.color_trc">2</property>
  <property name="meta.media.width">1920</property>
  <property name="meta.media.height">1080</property>
  <property name="meta.media.top_field_first">0</property>
  <property name="meta.media.progressive">1</property>
 </producer>
 <producer title="Anonymous Submission" id="27" in="0" out="7640">
  <property name="length">00:02:32:41</property>
  <property name="eof">pause</property>
  <property name="resource">/home/bordun/scp/2018-12-06_RespecteLaPuissancePapale_Clip_part1.wav</property>
  <property name="audio_index">0</property>
  <property name="video_index">-1</property>
  <property name="mute_on_pause">1</property>
  <property name="mlt_service">avformat-novalidate</property>
  <property name="meta.media.nb_streams">1</property>
  <property name="meta.media.0.stream.type">audio</property>
  <property name="meta.media.0.codec.sample_fmt">s16</property>
  <property name="meta.media.0.codec.sample_rate">48000</property>
  <property name="meta.media.0.codec.channels">2</property>
  <property name="meta.media.0.codec.name">pcm_s16le</property>
  <property name="meta.media.0.codec.long_name">PCM signed 16-bit little-endian</property>
  <property name="meta.media.0.codec.bit_rate">1536000</property>
  <property name="seekable">1</property>
  <property name="kdenlive:file_size">29340044</property>
  <property name="kdenlive:file_hash">7d93ed9df433504c583e8f008ae3ee69</property>
  <property name="global_feed">1</property>
 </producer>
 <producer title="Anonymous Submission" id="28" in="0" out="7733">
  <property name="length">00:02:34:34</property>
  <property name="eof">pause</property>
  <property name="resource">/media/bordun/plagiat/Clip02_RespecteLaPuissancePapale/Audio/2018-12-06_RespecteLaPuissancePapale_Clip_part1_OLD.ogg</property>
  <property name="audio_index">0</property>
  <property name="video_index">-1</property>
  <property name="mute_on_pause">1</property>
  <property name="mlt_service">avformat-novalidate</property>
  <property name="meta.media.nb_streams">1</property>
  <property name="meta.media.0.stream.type">audio</property>
  <property name="meta.media.0.codec.sample_fmt">fltp</property>
  <property name="meta.media.0.codec.sample_rate">48000</property>
  <property name="meta.media.0.codec.channels">2</property>
  <property name="meta.media.0.codec.name">vorbis</property>
  <property name="meta.media.0.codec.long_name">Vorbis</property>
  <property name="meta.media.0.codec.bit_rate">128000</property>
  <property name="meta.attr.0.stream.disc.markup">0</property>
  <property name="meta.attr.0.stream.ENCODER.markup">libsndfile</property>
  <property name="seekable">1</property>
  <property name="kdenlive:file_size">2263496</property>
  <property name="kdenlive:file_hash">1137434253767f92924bc94a8dcad7c3</property>
  <property name="global_feed">1</property>
  <property name="kdenlive:zone_in">0</property>
  <property name="kdenlive:zone_out">7734</property>
 </producer>
 <producer title="Anonymous Submission" id="29" in="0" out="249">
  <property name="length">250</property>
  <property name="eof">pause</property>
  <property name="resource">0xffffffff</property>
  <property name="aspect_ratio">1</property>
  <property name="mlt_service">color</property>
  <property name="kdenlive:clipname">Clip couleur</property>
  <property name="kdenlive:folderid">16</property>
  <property name="kdenlive:duration">250</property>
  <property name="kdenlive:file_hash">039b56a692cd66eefeea44a17539e5a2</property>
  <property name="global_feed">1</property>
 </producer>
 <producer id="30" in="0" out="249">
  <property name="length">250</property>
  <property name="eof">pause</property>
  <property name="resource">0x000000ff</property>
  <property name="aspect_ratio">1</property>
  <property name="mlt_service">color</property>
  <property name="kdenlive:clipname">Clip couleur</property>
  <property name="kdenlive:folderid">16</property>
  <property name="kdenlive:duration">250</property>
  <property name="kdenlive:file_hash">9196813120dc5c505072516b15baf414</property>
 </producer>
 <producer title="Anonymous Submission" id="31" in="0" out="9374">
  <property name="length">00:03:07:25</property>
  <property name="eof">pause</property>
  <property name="resource">/media/bordun/plagiat/Clip02_RespecteLaPuissancePapale/Audio/2018-12-06_RespecteLaPuissancePapale_Clip_part1.ogg</property>
  <property name="audio_index">0</property>
  <property name="video_index">-1</property>
  <property name="mute_on_pause">1</property>
  <property name="mlt_service">avformat-novalidate</property>
  <property name="meta.media.nb_streams">1</property>
  <property name="meta.media.0.stream.type">audio</property>
  <property name="meta.media.0.codec.sample_fmt">fltp</property>
  <property name="meta.media.0.codec.sample_rate">48000</property>
  <property name="meta.media.0.codec.channels">2</property>
  <property name="meta.media.0.codec.name">vorbis</property>
  <property name="meta.media.0.codec.long_name">Vorbis</property>
  <property name="meta.media.0.codec.bit_rate">128000</property>
  <property name="meta.attr.0.stream.disc.markup">0</property>
  <property name="meta.attr.0.stream.ENCODER.markup">libsndfile</property>
  <property name="seekable">1</property>
  <property name="kdenlive:file_size">2248940</property>
  <property name="kdenlive:file_hash">36d235cf32170d398007c5f515b1017f</property>
  <property name="global_feed">1</property>
  <property name="kdenlive:zone_in">187</property>
  <property name="kdenlive:zone_out">4168</property>
 </producer>
 <producer id="32" in="0" out="9374">
  <property name="length">00:03:07:25</property>
  <property name="eof">pause</property>
  <property name="resource">/media/bordun/plagiat/Clip02_RespecteLaPuissancePapale/Audio/2018-12-06_RespecteLaPuissancePapale_Clip_part1.ogg</property>
  <property name="audio_index">0</property>
  <property name="video_index">-1</property>
  <property name="mute_on_pause">1</property>
  <property name="mlt_service">avformat-novalidate</property>
  <property name="meta.media.nb_streams">1</property>
  <property name="meta.media.0.stream.type">audio</property>
  <property name="meta.media.0.codec.sample_fmt">fltp</property>
  <property name="meta.media.0.codec.sample_rate">48000</property>
  <property name="meta.media.0.codec.channels">2</property>
  <property name="meta.media.0.codec.name">vorbis</property>
  <property name="meta.media.0.codec.long_name">Vorbis</property>
  <property name="meta.media.0.codec.bit_rate">128000</property>
  <property name="meta.attr.0.stream.disc.markup">0</property>
  <property name="meta.attr.0.stream.ENCODER.markup">libsndfile</property>
  <property name="seekable">1</property>
  <property name="kdenlive:file_size">2248940</property>
  <property name="kdenlive:file_hash">36d235cf32170d398007c5f515b1017f</property>
 </producer>
 <producer title="Anonymous Submission" id="33" in="0" out="9374">
  <property name="length">00:03:07:25</property>
  <property name="eof">pause</property>
  <property name="resource">/media/bordun/plagiat/Clip02_RespecteLaPuissancePapale/Audio/2018-12-06_RespecteLaPuissancePapale_Clip_part1.ogg</property>
  <property name="audio_index">0</property>
  <property name="video_index">-1</property>
  <property name="mute_on_pause">1</property>
  <property name="mlt_service">avformat-novalidate</property>
  <property name="meta.media.nb_streams">1</property>
  <property name="meta.media.0.stream.type">audio</property>
  <property name="meta.media.0.codec.sample_fmt">fltp</property>
  <property name="meta.media.0.codec.sample_rate">48000</property>
  <property name="meta.media.0.codec.channels">2</property>
  <property name="meta.media.0.codec.name">vorbis</property>
  <property name="meta.media.0.codec.long_name">Vorbis</property>
  <property name="meta.media.0.codec.bit_rate">128000</property>
  <property name="meta.attr.0.stream.disc.markup">0</property>
  <property name="meta.attr.0.stream.ENCODER.markup">libsndfile</property>
  <property name="seekable">1</property>
  <property name="kdenlive:file_size">2248940</property>
  <property name="kdenlive:file_hash">36d235cf32170d398007c5f515b1017f</property>
  <property name="global_feed">1</property>
 </producer>
 <producer title="Anonymous Submission" id="34" in="0" out="7733">
  <property name="length">00:02:34:34</property>
  <property name="eof">pause</property>
  <property name="resource">/media/bordun/plagiat/Clip02_RespecteLaPuissancePapale/Audio/2018-12-06_RespecteLaPuissancePapale_Clip_part1_OLD.ogg</property>
  <property name="audio_index">0</property>
  <property name="video_index">-1</property>
  <property name="mute_on_pause">1</property>
  <property name="mlt_service">avformat-novalidate</property>
  <property name="meta.media.nb_streams">1</property>
  <property name="meta.media.0.stream.type">audio</property>
  <property name="meta.media.0.codec.sample_fmt">fltp</property>
  <property name="meta.media.0.codec.sample_rate">48000</property>
  <property name="meta.media.0.codec.channels">2</property>
  <property name="meta.media.0.codec.name">vorbis</property>
  <property name="meta.media.0.codec.long_name">Vorbis</property>
  <property name="meta.media.0.codec.bit_rate">128000</property>
  <property name="meta.attr.0.stream.disc.markup">0</property>
  <property name="meta.attr.0.stream.ENCODER.markup">libsndfile</property>
  <property name="seekable">1</property>
  <property name="kdenlive:file_size">2263496</property>
  <property name="kdenlive:file_hash">1137434253767f92924bc94a8dcad7c3</property>
  <property name="global_feed">1</property>
 </producer>
 <producer title="Anonymous Submission" id="35" in="0" out="43907">
  <property name="length">00:14:38:08</property>
  <property name="eof">pause</property>
  <property name="resource">/media/bordun/plagiat2/CAM1_2019-01-05_0407_C0000.mov</property>
  <property name="audio_index">2</property>
  <property name="video_index">1</property>
  <property name="mute_on_pause">1</property>
  <property name="mlt_service">avformat-novalidate</property>
  <property name="meta.media.nb_streams">3</property>
  <property name="meta.media.1.stream.type">video</property>
  <property name="meta.media.1.stream.frame_rate">50</property>
  <property name="meta.media.1.stream.sample_aspect_ratio">1</property>
  <property name="meta.media.1.codec.width">1920</property>
  <property name="meta.media.1.codec.height">1080</property>
  <property name="meta.media.1.codec.rotate">0</property>
  <property name="meta.media.1.codec.frame_rate">5000</property>
  <property name="meta.media.1.codec.pix_fmt">yuv422p10le</property>
  <property name="meta.media.1.codec.sample_aspect_ratio">0</property>
  <property name="meta.media.1.codec.colorspace">709</property>
  <property name="meta.media.1.codec.color_trc">1</property>
  <property name="meta.media.1.codec.name">prores</property>
  <property name="meta.media.1.codec.long_name">ProRes</property>
  <property name="meta.media.1.codec.bit_rate">366957037</property>
  <property name="meta.attr.1.stream.creation_time.markup">2019-01-05T04:07:04.000000Z</property>
  <property name="meta.attr.1.stream.language.markup">eng</property>
  <property name="meta.attr.1.stream.handler_name.markup">Apple Alias Data Handler</property>
  <property name="meta.attr.1.stream.encoder.markup">Apple ProRes 422 HQ</property>
  <property name="meta.attr.1.stream.timecode.markup">04:07:04:29</property>
  <property name="meta.media.2.stream.type">audio</property>
  <property name="meta.media.2.codec.sample_fmt">s32</property>
  <property name="meta.media.2.codec.sample_rate">48000</property>
  <property name="meta.media.2.codec.channels">2</property>
  <property name="meta.media.2.codec.name">pcm_s24le</property>
  <property name="meta.media.2.codec.long_name">PCM signed 24-bit little-endian</property>
  <property name="meta.media.2.codec.bit_rate">2304000</property>
  <property name="meta.attr.2.stream.creation_time.markup">2019-01-05T04:07:04.000000Z</property>
  <property name="meta.attr.2.stream.language.markup">eng</property>
  <property name="meta.attr.2.stream.handler_name.markup">Apple Alias Data Handler</property>
  <property name="meta.attr.2.stream.timecode.markup">04:07:04:29</property>
  <property name="meta.attr.com.apple.proapps.manufacturer.markup">Blackmagic Design</property>
  <property name="meta.attr.com.apple.proapps.cameraName.markup">CAM1</property>
  <property name="meta.attr.com.apple.proapps.isGood.markup">0</property>
  <property name="meta.attr.com.apple.proapps.customgamma.markup">com.blackmagic-design.cinemacamera.filmlog</property>
  <property name="meta.attr.com.blackmagic-design.cinemacamera.uuid.markup">18E5E00548F94923B646613A73C01B56</property>
  <property name="meta.attr.creation_time.markup">2019-01-05T04:07:04.000000Z</property>
  <property name="meta.attr.timecode.markup">04:07:04:29</property>
  <property name="seekable">1</property>
  <property name="meta.media.sample_aspect_num">1</property>
  <property name="meta.media.sample_aspect_den">1</property>
  <property name="aspect_ratio">1</property>
  <property name="kdenlive:folderid">17</property>
  <property name="meta.media.frame_rate_num">50</property>
  <property name="meta.media.frame_rate_den">1</property>
  <property name="meta.media.colorspace">709</property>
  <property name="meta.media.color_trc">1</property>
  <property name="meta.media.width">1920</property>
  <property name="meta.media.height">1080</property>
  <property name="meta.media.top_field_first">0</property>
  <property name="meta.media.progressive">1</property>
  <property name="kdenlive:file_size">40537867713</property>
  <property name="kdenlive:file_hash">eeb49a6f6e2626b129e2046ec649a60c</property>
  <property name="global_feed">1</property>
  <property name="kdenlive:zone_in">5721</property>
  <property name="kdenlive:zone_out">5778</property>
  <filter id="filter28">
   <property name="version">0,3</property>
   <property name="mlt_service">frei0r.levels</property>
   <property name="kdenlive_id">frei0r.levels</property>
   <property name="tag">frei0r.levels</property>
   <property name="kdenlive_ix">1</property>
   <property name="kdenlive_info"/>
   <property name="Channel">0,3</property>
   <property name="Input black level">0=0</property>
   <property name="Input white level">0=1</property>
   <property name="Gamma">0=0,2</property>
   <property name="Black output">0=0,01</property>
   <property name="White output">0=0,9</property>
   <property name="Show histogram">0</property>
   <property name="Histogram position">0,3</property>
   <property name="disable">1</property>
  </filter>
 </producer>
 <producer id="36" in="0" out="3983">
  <property name="length">00:01:19:34</property>
  <property name="eof">pause</property>
  <property name="resource">/media/bordun/plagiat2/CAM1_2019-01-05_0918_C0009.mov</property>
  <property name="audio_index">2</property>
  <property name="video_index">1</property>
  <property name="mute_on_pause">1</property>
  <property name="mlt_service">avformat-novalidate</property>
  <property name="meta.media.nb_streams">3</property>
  <property name="meta.media.1.stream.type">video</property>
  <property name="meta.media.1.stream.frame_rate">25</property>
  <property name="meta.media.1.stream.sample_aspect_ratio">1</property>
  <property name="meta.media.1.codec.width">1920</property>
  <property name="meta.media.1.codec.height">1080</property>
  <property name="meta.media.1.codec.rotate">0</property>
  <property name="meta.media.1.codec.frame_rate">2500</property>
  <property name="meta.media.1.codec.pix_fmt">yuv422p10le</property>
  <property name="meta.media.1.codec.sample_aspect_ratio">0</property>
  <property name="meta.media.1.codec.colorspace">709</property>
  <property name="meta.media.1.codec.color_trc">1</property>
  <property name="meta.media.1.codec.name">prores</property>
  <property name="meta.media.1.codec.long_name">ProRes</property>
  <property name="meta.media.1.codec.bit_rate">122316581</property>
  <property name="meta.attr.1.stream.creation_time.markup">2019-01-05T09:18:25.000000Z</property>
  <property name="meta.attr.1.stream.language.markup">eng</property>
  <property name="meta.attr.1.stream.handler_name.markup">Apple Alias Data Handler</property>
  <property name="meta.attr.1.stream.encoder.markup">Apple ProRes 422</property>
  <property name="meta.attr.1.stream.timecode.markup">09:18:25:03</property>
  <property name="meta.media.2.stream.type">audio</property>
  <property name="meta.media.2.codec.sample_fmt">s32</property>
  <property name="meta.media.2.codec.sample_rate">48000</property>
  <property name="meta.media.2.codec.channels">2</property>
  <property name="meta.media.2.codec.name">pcm_s24le</property>
  <property name="meta.media.2.codec.long_name">PCM signed 24-bit little-endian</property>
  <property name="meta.media.2.codec.bit_rate">2304000</property>
  <property name="meta.attr.2.stream.creation_time.markup">2019-01-05T09:18:25.000000Z</property>
  <property name="meta.attr.2.stream.language.markup">eng</property>
  <property name="meta.attr.2.stream.handler_name.markup">Apple Alias Data Handler</property>
  <property name="meta.attr.2.stream.timecode.markup">09:18:25:03</property>
  <property name="meta.attr.com.apple.proapps.manufacturer.markup">Blackmagic Design</property>
  <property name="meta.attr.com.apple.proapps.cameraName.markup">CAM1</property>
  <property name="meta.attr.com.apple.proapps.isGood.markup">0</property>
  <property name="meta.attr.com.apple.proapps.customgamma.markup">com.blackmagic-design.cinemacamera.filmlog</property>
  <property name="meta.attr.com.blackmagic-design.cinemacamera.uuid.markup">18E5E00548F94923B646613A73C01B56</property>
  <property name="meta.attr.creation_time.markup">2019-01-05T09:18:25.000000Z</property>
  <property name="meta.attr.timecode.markup">09:18:25:03</property>
  <property name="seekable">1</property>
  <property name="meta.media.sample_aspect_num">1</property>
  <property name="meta.media.sample_aspect_den">1</property>
  <property name="aspect_ratio">1</property>
  <property name="kdenlive:folderid">17</property>
  <property name="meta.media.frame_rate_num">25</property>
  <property name="meta.media.frame_rate_den">1</property>
  <property name="meta.media.colorspace">709</property>
  <property name="meta.media.color_trc">1</property>
  <property name="meta.media.width">1920</property>
  <property name="meta.media.height">1080</property>
  <property name="meta.media.top_field_first">0</property>
  <property name="meta.media.progressive">1</property>
  <property name="kdenlive:file_size">1241534665</property>
  <property name="kdenlive:file_hash">3298342aecc7a336c57ca6af427a29f7</property>
 </producer>
 <producer id="37" in="0" out="5323">
  <property name="length">00:01:46:24</property>
  <property name="eof">pause</property>
  <property name="resource">/media/bordun/plagiat2/CAM1_2019-01-05_0915_C0008.mov</property>
  <property name="audio_index">2</property>
  <property name="video_index">1</property>
  <property name="mute_on_pause">1</property>
  <property name="mlt_service">avformat-novalidate</property>
  <property name="meta.media.nb_streams">3</property>
  <property name="meta.media.1.stream.type">video</property>
  <property name="meta.media.1.stream.frame_rate">25</property>
  <property name="meta.media.1.stream.sample_aspect_ratio">1</property>
  <property name="meta.media.1.codec.width">1920</property>
  <property name="meta.media.1.codec.height">1080</property>
  <property name="meta.media.1.codec.rotate">0</property>
  <property name="meta.media.1.codec.frame_rate">2500</property>
  <property name="meta.media.1.codec.pix_fmt">yuv422p10le</property>
  <property name="meta.media.1.codec.sample_aspect_ratio">0</property>
  <property name="meta.media.1.codec.colorspace">709</property>
  <property name="meta.media.1.codec.color_trc">1</property>
  <property name="meta.media.1.codec.name">prores</property>
  <property name="meta.media.1.codec.long_name">ProRes</property>
  <property name="meta.media.1.codec.bit_rate">122315341</property>
  <property name="meta.attr.1.stream.creation_time.markup">2019-01-05T09:15:40.000000Z</property>
  <property name="meta.attr.1.stream.language.markup">eng</property>
  <property name="meta.attr.1.stream.handler_name.markup">Apple Alias Data Handler</property>
  <property name="meta.attr.1.stream.encoder.markup">Apple ProRes 422</property>
  <property name="meta.attr.1.stream.timecode.markup">09:15:40:03</property>
  <property name="meta.media.2.stream.type">audio</property>
  <property name="meta.media.2.codec.sample_fmt">s32</property>
  <property name="meta.media.2.codec.sample_rate">48000</property>
  <property name="meta.media.2.codec.channels">2</property>
  <property name="meta.media.2.codec.name">pcm_s24le</property>
  <property name="meta.media.2.codec.long_name">PCM signed 24-bit little-endian</property>
  <property name="meta.media.2.codec.bit_rate">2304000</property>
  <property name="meta.attr.2.stream.creation_time.markup">2019-01-05T09:15:40.000000Z</property>
  <property name="meta.attr.2.stream.language.markup">eng</property>
  <property name="meta.attr.2.stream.handler_name.markup">Apple Alias Data Handler</property>
  <property name="meta.attr.2.stream.timecode.markup">09:15:40:03</property>
  <property name="meta.attr.com.apple.proapps.manufacturer.markup">Blackmagic Design</property>
  <property name="meta.attr.com.apple.proapps.cameraName.markup">CAM1</property>
  <property name="meta.attr.com.apple.proapps.isGood.markup">0</property>
  <property name="meta.attr.com.apple.proapps.customgamma.markup">com.blackmagic-design.cinemacamera.filmlog</property>
  <property name="meta.attr.com.blackmagic-design.cinemacamera.uuid.markup">18E5E00548F94923B646613A73C01B56</property>
  <property name="meta.attr.creation_time.markup">2019-01-05T09:15:40.000000Z</property>
  <property name="meta.attr.timecode.markup">09:15:40:03</property>
  <property name="seekable">1</property>
  <property name="meta.media.sample_aspect_num">1</property>
  <property name="meta.media.sample_aspect_den">1</property>
  <property name="aspect_ratio">1</property>
  <property name="kdenlive:folderid">17</property>
  <property name="meta.media.frame_rate_num">25</property>
  <property name="meta.media.frame_rate_den">1</property>
  <property name="meta.media.colorspace">709</property>
  <property name="meta.media.color_trc">1</property>
  <property name="meta.media.width">1920</property>
  <property name="meta.media.height">1080</property>
  <property name="meta.media.top_field_first">0</property>
  <property name="meta.media.progressive">1</property>
  <property name="kdenlive:file_size">1659116449</property>
  <property name="kdenlive:file_hash">f8aa56141d75527d7246be55a57cf7dd</property>
 </producer>
 <producer id="38" in="0" out="9041">
  <property name="length">00:03:00:42</property>
  <property name="eof">pause</property>
  <property name="resource">/media/bordun/plagiat2/CAM1_2019-01-05_0910_C0007.mov</property>
  <property name="audio_index">2</property>
  <property name="video_index">1</property>
  <property name="mute_on_pause">1</property>
  <property name="mlt_service">avformat-novalidate</property>
  <property name="meta.media.nb_streams">3</property>
  <property name="meta.media.1.stream.type">video</property>
  <property name="meta.media.1.stream.frame_rate">25</property>
  <property name="meta.media.1.stream.sample_aspect_ratio">1</property>
  <property name="meta.media.1.codec.width">1920</property>
  <property name="meta.media.1.codec.height">1080</property>
  <property name="meta.media.1.codec.rotate">0</property>
  <property name="meta.media.1.codec.frame_rate">2500</property>
  <property name="meta.media.1.codec.pix_fmt">yuv422p10le</property>
  <property name="meta.media.1.codec.sample_aspect_ratio">0</property>
  <property name="meta.media.1.codec.colorspace">709</property>
  <property name="meta.media.1.codec.color_trc">1</property>
  <property name="meta.media.1.codec.name">prores</property>
  <property name="meta.media.1.codec.long_name">ProRes</property>
  <property name="meta.media.1.codec.bit_rate">122315670</property>
  <property name="meta.attr.1.stream.creation_time.markup">2019-01-05T09:10:10.000000Z</property>
  <property name="meta.attr.1.stream.language.markup">eng</property>
  <property name="meta.attr.1.stream.handler_name.markup">Apple Alias Data Handler</property>
  <property name="meta.attr.1.stream.encoder.markup">Apple ProRes 422</property>
  <property name="meta.attr.1.stream.timecode.markup">09:10:10:17</property>
  <property name="meta.media.2.stream.type">audio</property>
  <property name="meta.media.2.codec.sample_fmt">s32</property>
  <property name="meta.media.2.codec.sample_rate">48000</property>
  <property name="meta.media.2.codec.channels">2</property>
  <property name="meta.media.2.codec.name">pcm_s24le</property>
  <property name="meta.media.2.codec.long_name">PCM signed 24-bit little-endian</property>
  <property name="meta.media.2.codec.bit_rate">2304000</property>
  <property name="meta.attr.2.stream.creation_time.markup">2019-01-05T09:10:10.000000Z</property>
  <property name="meta.attr.2.stream.language.markup">eng</property>
  <property name="meta.attr.2.stream.handler_name.markup">Apple Alias Data Handler</property>
  <property name="meta.attr.2.stream.timecode.markup">09:10:10:17</property>
  <property name="meta.attr.com.apple.proapps.manufacturer.markup">Blackmagic Design</property>
  <property name="meta.attr.com.apple.proapps.cameraName.markup">CAM1</property>
  <property name="meta.attr.com.apple.proapps.isGood.markup">0</property>
  <property name="meta.attr.com.apple.proapps.customgamma.markup">com.blackmagic-design.cinemacamera.filmlog</property>
  <property name="meta.attr.com.blackmagic-design.cinemacamera.uuid.markup">18E5E00548F94923B646613A73C01B56</property>
  <property name="meta.attr.creation_time.markup">2019-01-05T09:10:10.000000Z</property>
  <property name="meta.attr.timecode.markup">09:10:10:17</property>
  <property name="seekable">1</property>
  <property name="meta.media.sample_aspect_num">1</property>
  <property name="meta.media.sample_aspect_den">1</property>
  <property name="aspect_ratio">1</property>
  <property name="kdenlive:folderid">17</property>
  <property name="meta.media.frame_rate_num">25</property>
  <property name="meta.media.frame_rate_den">1</property>
  <property name="meta.media.colorspace">709</property>
  <property name="meta.media.color_trc">1</property>
  <property name="meta.media.width">1920</property>
  <property name="meta.media.height">1080</property>
  <property name="meta.media.top_field_first">0</property>
  <property name="meta.media.progressive">1</property>
  <property name="kdenlive:file_size">2817746417</property>
  <property name="kdenlive:file_hash">b3e4bc9ce3280bb8753bd5e36ee0b214</property>
 </producer>
 <producer id="39" in="0" out="3953">
  <property name="length">00:01:19:04</property>
  <property name="eof">pause</property>
  <property name="resource">/media/bordun/plagiat2/CAM1_2019-01-05_0902_C0006.mov</property>
  <property name="audio_index">2</property>
  <property name="video_index">1</property>
  <property name="mute_on_pause">1</property>
  <property name="mlt_service">avformat-novalidate</property>
  <property name="meta.media.nb_streams">3</property>
  <property name="meta.media.1.stream.type">video</property>
  <property name="meta.media.1.stream.frame_rate">25</property>
  <property name="meta.media.1.stream.sample_aspect_ratio">1</property>
  <property name="meta.media.1.codec.width">1920</property>
  <property name="meta.media.1.codec.height">1080</property>
  <property name="meta.media.1.codec.rotate">0</property>
  <property name="meta.media.1.codec.frame_rate">2500</property>
  <property name="meta.media.1.codec.pix_fmt">yuv422p10le</property>
  <property name="meta.media.1.codec.sample_aspect_ratio">0</property>
  <property name="meta.media.1.codec.colorspace">709</property>
  <property name="meta.media.1.codec.color_trc">1</property>
  <property name="meta.media.1.codec.name">prores</property>
  <property name="meta.media.1.codec.long_name">ProRes</property>
  <property name="meta.media.1.codec.bit_rate">122315923</property>
  <property name="meta.attr.1.stream.creation_time.markup">2019-01-05T09:02:46.000000Z</property>
  <property name="meta.attr.1.stream.language.markup">eng</property>
  <property name="meta.attr.1.stream.handler_name.markup">Apple Alias Data Handler</property>
  <property name="meta.attr.1.stream.encoder.markup">Apple ProRes 422</property>
  <property name="meta.attr.1.stream.timecode.markup">09:02:46:24</property>
  <property name="meta.media.2.stream.type">audio</property>
  <property name="meta.media.2.codec.sample_fmt">s32</property>
  <property name="meta.media.2.codec.sample_rate">48000</property>
  <property name="meta.media.2.codec.channels">2</property>
  <property name="meta.media.2.codec.name">pcm_s24le</property>
  <property name="meta.media.2.codec.long_name">PCM signed 24-bit little-endian</property>
  <property name="meta.media.2.codec.bit_rate">2304000</property>
  <property name="meta.attr.2.stream.creation_time.markup">2019-01-05T09:02:46.000000Z</property>
  <property name="meta.attr.2.stream.language.markup">eng</property>
  <property name="meta.attr.2.stream.handler_name.markup">Apple Alias Data Handler</property>
  <property name="meta.attr.2.stream.timecode.markup">09:02:46:24</property>
  <property name="meta.attr.com.apple.proapps.manufacturer.markup">Blackmagic Design</property>
  <property name="meta.attr.com.apple.proapps.cameraName.markup">CAM1</property>
  <property name="meta.attr.com.apple.proapps.isGood.markup">0</property>
  <property name="meta.attr.com.apple.proapps.customgamma.markup">com.blackmagic-design.cinemacamera.filmlog</property>
  <property name="meta.attr.com.blackmagic-design.cinemacamera.uuid.markup">18E5E00548F94923B646613A73C01B56</property>
  <property name="meta.attr.creation_time.markup">2019-01-05T09:02:46.000000Z</property>
  <property name="meta.attr.timecode.markup">09:02:46:24</property>
  <property name="seekable">1</property>
  <property name="meta.media.sample_aspect_num">1</property>
  <property name="meta.media.sample_aspect_den">1</property>
  <property name="aspect_ratio">1</property>
  <property name="kdenlive:folderid">17</property>
  <property name="meta.media.frame_rate_num">25</property>
  <property name="meta.media.frame_rate_den">1</property>
  <property name="meta.media.colorspace">709</property>
  <property name="meta.media.color_trc">1</property>
  <property name="meta.media.width">1920</property>
  <property name="meta.media.height">1080</property>
  <property name="meta.media.top_field_first">0</property>
  <property name="meta.media.progressive">1</property>
  <property name="kdenlive:file_size">1232186057</property>
  <property name="kdenlive:file_hash">84e349f213f607e7c2eb327a44075451</property>
 </producer>
 <producer id="40" in="0" out="5863">
  <property name="length">00:01:57:14</property>
  <property name="eof">pause</property>
  <property name="resource">/media/bordun/plagiat2/CAM1_2019-01-05_0853_C0005.mov</property>
  <property name="audio_index">2</property>
  <property name="video_index">1</property>
  <property name="mute_on_pause">1</property>
  <property name="mlt_service">avformat-novalidate</property>
  <property name="meta.media.nb_streams">3</property>
  <property name="meta.media.1.stream.type">video</property>
  <property name="meta.media.1.stream.frame_rate">25</property>
  <property name="meta.media.1.stream.sample_aspect_ratio">1</property>
  <property name="meta.media.1.codec.width">1920</property>
  <property name="meta.media.1.codec.height">1080</property>
  <property name="meta.media.1.codec.rotate">0</property>
  <property name="meta.media.1.codec.frame_rate">2500</property>
  <property name="meta.media.1.codec.pix_fmt">yuv422p10le</property>
  <property name="meta.media.1.codec.sample_aspect_ratio">0</property>
  <property name="meta.media.1.codec.colorspace">709</property>
  <property name="meta.media.1.codec.color_trc">1</property>
  <property name="meta.media.1.codec.name">prores</property>
  <property name="meta.media.1.codec.long_name">ProRes</property>
  <property name="meta.media.1.codec.bit_rate">122316105</property>
  <property name="meta.attr.1.stream.creation_time.markup">2019-01-05T08:53:39.000000Z</property>
  <property name="meta.attr.1.stream.language.markup">eng</property>
  <property name="meta.attr.1.stream.handler_name.markup">Apple Alias Data Handler</property>
  <property name="meta.attr.1.stream.encoder.markup">Apple ProRes 422</property>
  <property name="meta.attr.1.stream.timecode.markup">08:53:39:10</property>
  <property name="meta.media.2.stream.type">audio</property>
  <property name="meta.media.2.codec.sample_fmt">s32</property>
  <property name="meta.media.2.codec.sample_rate">48000</property>
  <property name="meta.media.2.codec.channels">2</property>
  <property name="meta.media.2.codec.name">pcm_s24le</property>
  <property name="meta.media.2.codec.long_name">PCM signed 24-bit little-endian</property>
  <property name="meta.media.2.codec.bit_rate">2304000</property>
  <property name="meta.attr.2.stream.creation_time.markup">2019-01-05T08:53:39.000000Z</property>
  <property name="meta.attr.2.stream.language.markup">eng</property>
  <property name="meta.attr.2.stream.handler_name.markup">Apple Alias Data Handler</property>
  <property name="meta.attr.2.stream.timecode.markup">08:53:39:10</property>
  <property name="meta.attr.com.apple.proapps.manufacturer.markup">Blackmagic Design</property>
  <property name="meta.attr.com.apple.proapps.cameraName.markup">CAM1</property>
  <property name="meta.attr.com.apple.proapps.isGood.markup">0</property>
  <property name="meta.attr.com.apple.proapps.customgamma.markup">com.blackmagic-design.cinemacamera.filmlog</property>
  <property name="meta.attr.com.blackmagic-design.cinemacamera.uuid.markup">18E5E00548F94923B646613A73C01B56</property>
  <property name="meta.attr.creation_time.markup">2019-01-05T08:53:39.000000Z</property>
  <property name="meta.attr.timecode.markup">08:53:39:10</property>
  <property name="seekable">1</property>
  <property name="meta.media.sample_aspect_num">1</property>
  <property name="meta.media.sample_aspect_den">1</property>
  <property name="aspect_ratio">1</property>
  <property name="kdenlive:folderid">17</property>
  <property name="meta.media.frame_rate_num">25</property>
  <property name="meta.media.frame_rate_den">1</property>
  <property name="meta.media.colorspace">709</property>
  <property name="meta.media.color_trc">1</property>
  <property name="meta.media.width">1920</property>
  <property name="meta.media.height">1080</property>
  <property name="meta.media.top_field_first">0</property>
  <property name="meta.media.progressive">1</property>
  <property name="kdenlive:file_size">1827394553</property>
  <property name="kdenlive:file_hash">f1252aea4a9073267c53ed9979db2a79</property>
 </producer>
 <producer id="41" in="0" out="6601">
  <property name="length">00:02:12:02</property>
  <property name="eof">pause</property>
  <property name="resource">/media/bordun/plagiat2/CAM1_2019-01-05_0616_C0002.mov</property>
  <property name="audio_index">2</property>
  <property name="video_index">1</property>
  <property name="mute_on_pause">1</property>
  <property name="mlt_service">avformat-novalidate</property>
  <property name="meta.media.nb_streams">3</property>
  <property name="meta.media.1.stream.type">video</property>
  <property name="meta.media.1.stream.frame_rate">50</property>
  <property name="meta.media.1.stream.sample_aspect_ratio">1</property>
  <property name="meta.media.1.codec.width">1920</property>
  <property name="meta.media.1.codec.height">1080</property>
  <property name="meta.media.1.codec.rotate">0</property>
  <property name="meta.media.1.codec.frame_rate">5000</property>
  <property name="meta.media.1.codec.pix_fmt">yuv422p10le</property>
  <property name="meta.media.1.codec.sample_aspect_ratio">0</property>
  <property name="meta.media.1.codec.colorspace">709</property>
  <property name="meta.media.1.codec.color_trc">1</property>
  <property name="meta.media.1.codec.name">prores</property>
  <property name="meta.media.1.codec.long_name">ProRes</property>
  <property name="meta.media.1.codec.bit_rate">366956617</property>
  <property name="meta.attr.1.stream.creation_time.markup">2019-01-05T06:16:17.000000Z</property>
  <property name="meta.attr.1.stream.language.markup">eng</property>
  <property name="meta.attr.1.stream.handler_name.markup">Apple Alias Data Handler</property>
  <property name="meta.attr.1.stream.encoder.markup">Apple ProRes 422 HQ</property>
  <property name="meta.attr.1.stream.timecode.markup">06:16:17:16</property>
  <property name="meta.media.2.stream.type">audio</property>
  <property name="meta.media.2.codec.sample_fmt">s32</property>
  <property name="meta.media.2.codec.sample_rate">48000</property>
  <property name="meta.media.2.codec.channels">2</property>
  <property name="meta.media.2.codec.name">pcm_s24le</property>
  <property name="meta.media.2.codec.long_name">PCM signed 24-bit little-endian</property>
  <property name="meta.media.2.codec.bit_rate">2304000</property>
  <property name="meta.attr.2.stream.creation_time.markup">2019-01-05T06:16:17.000000Z</property>
  <property name="meta.attr.2.stream.language.markup">eng</property>
  <property name="meta.attr.2.stream.handler_name.markup">Apple Alias Data Handler</property>
  <property name="meta.attr.2.stream.timecode.markup">06:16:17:16</property>
  <property name="meta.attr.com.apple.proapps.manufacturer.markup">Blackmagic Design</property>
  <property name="meta.attr.com.apple.proapps.cameraName.markup">CAM1</property>
  <property name="meta.attr.com.apple.proapps.isGood.markup">0</property>
  <property name="meta.attr.com.apple.proapps.customgamma.markup">com.blackmagic-design.cinemacamera.filmlog</property>
  <property name="meta.attr.com.blackmagic-design.cinemacamera.uuid.markup">18E5E00548F94923B646613A73C01B56</property>
  <property name="meta.attr.creation_time.markup">2019-01-05T06:16:17.000000Z</property>
  <property name="meta.attr.timecode.markup">06:16:17:16</property>
  <property name="seekable">1</property>
  <property name="meta.media.sample_aspect_num">1</property>
  <property name="meta.media.sample_aspect_den">1</property>
  <property name="aspect_ratio">1</property>
  <property name="kdenlive:folderid">17</property>
  <property name="meta.media.frame_rate_num">50</property>
  <property name="meta.media.frame_rate_den">1</property>
  <property name="meta.media.colorspace">709</property>
  <property name="meta.media.color_trc">1</property>
  <property name="meta.media.width">1920</property>
  <property name="meta.media.height">1080</property>
  <property name="meta.media.top_field_first">0</property>
  <property name="meta.media.progressive">1</property>
  <property name="kdenlive:file_size">6095265905</property>
  <property name="kdenlive:file_hash">15392cd6b98f5c75a2b04073ca3e9ced</property>
 </producer>
 <producer id="42" in="0" out="10077">
  <property name="length">00:03:21:28</property>
  <property name="eof">pause</property>
  <property name="resource">/media/bordun/plagiat2/CAM1_2019-01-05_0612_C0001.mov</property>
  <property name="audio_index">2</property>
  <property name="video_index">1</property>
  <property name="mute_on_pause">1</property>
  <property name="mlt_service">avformat-novalidate</property>
  <property name="meta.media.nb_streams">3</property>
  <property name="meta.media.1.stream.type">video</property>
  <property name="meta.media.1.stream.frame_rate">50</property>
  <property name="meta.media.1.stream.sample_aspect_ratio">1</property>
  <property name="meta.media.1.codec.width">1920</property>
  <property name="meta.media.1.codec.height">1080</property>
  <property name="meta.media.1.codec.rotate">0</property>
  <property name="meta.media.1.codec.frame_rate">5000</property>
  <property name="meta.media.1.codec.pix_fmt">yuv422p10le</property>
  <property name="meta.media.1.codec.sample_aspect_ratio">0</property>
  <property name="meta.media.1.codec.colorspace">709</property>
  <property name="meta.media.1.codec.color_trc">1</property>
  <property name="meta.media.1.codec.name">prores</property>
  <property name="meta.media.1.codec.long_name">ProRes</property>
  <property name="meta.media.1.codec.bit_rate">366957469</property>
  <property name="meta.attr.1.stream.creation_time.markup">2019-01-05T06:12:21.000000Z</property>
  <property name="meta.attr.1.stream.language.markup">eng</property>
  <property name="meta.attr.1.stream.handler_name.markup">Apple Alias Data Handler</property>
  <property name="meta.attr.1.stream.encoder.markup">Apple ProRes 422 HQ</property>
  <property name="meta.attr.1.stream.timecode.markup">06:12:21:43</property>
  <property name="meta.media.2.stream.type">audio</property>
  <property name="meta.media.2.codec.sample_fmt">s32</property>
  <property name="meta.media.2.codec.sample_rate">48000</property>
  <property name="meta.media.2.codec.channels">2</property>
  <property name="meta.media.2.codec.name">pcm_s24le</property>
  <property name="meta.media.2.codec.long_name">PCM signed 24-bit little-endian</property>
  <property name="meta.media.2.codec.bit_rate">2304000</property>
  <property name="meta.attr.2.stream.creation_time.markup">2019-01-05T06:12:21.000000Z</property>
  <property name="meta.attr.2.stream.language.markup">eng</property>
  <property name="meta.attr.2.stream.handler_name.markup">Apple Alias Data Handler</property>
  <property name="meta.attr.2.stream.timecode.markup">06:12:21:43</property>
  <property name="meta.attr.com.apple.proapps.manufacturer.markup">Blackmagic Design</property>
  <property name="meta.attr.com.apple.proapps.cameraName.markup">CAM1</property>
  <property name="meta.attr.com.apple.proapps.isGood.markup">0</property>
  <property name="meta.attr.com.apple.proapps.customgamma.markup">com.blackmagic-design.cinemacamera.filmlog</property>
  <property name="meta.attr.com.blackmagic-design.cinemacamera.uuid.markup">18E5E00548F94923B646613A73C01B56</property>
  <property name="meta.attr.creation_time.markup">2019-01-05T06:12:21.000000Z</property>
  <property name="meta.attr.timecode.markup">06:12:21:43</property>
  <property name="seekable">1</property>
  <property name="meta.media.sample_aspect_num">1</property>
  <property name="meta.media.sample_aspect_den">1</property>
  <property name="aspect_ratio">1</property>
  <property name="kdenlive:folderid">17</property>
  <property name="meta.media.frame_rate_num">50</property>
  <property name="meta.media.frame_rate_den">1</property>
  <property name="meta.media.colorspace">709</property>
  <property name="meta.media.color_trc">1</property>
  <property name="meta.media.width">1920</property>
  <property name="meta.media.height">1080</property>
  <property name="meta.media.top_field_first">0</property>
  <property name="meta.media.progressive">1</property>
  <property name="kdenlive:file_size">9304493209</property>
  <property name="kdenlive:file_hash">5e9906388e5fb2616c7022bce204f437</property>
 </producer>
 <producer id="43" in="0" out="10454">
  <property name="length">00:03:29:05</property>
  <property name="eof">pause</property>
  <property name="resource">/media/bordun/plagiat2/CAM1_2019-01-05_0557_C0004.mov</property>
  <property name="audio_index">2</property>
  <property name="video_index">1</property>
  <property name="mute_on_pause">1</property>
  <property name="mlt_service">avformat-novalidate</property>
  <property name="meta.media.nb_streams">3</property>
  <property name="meta.media.1.stream.type">video</property>
  <property name="meta.media.1.stream.frame_rate">50</property>
  <property name="meta.media.1.stream.sample_aspect_ratio">1</property>
  <property name="meta.media.1.codec.width">1920</property>
  <property name="meta.media.1.codec.height">1080</property>
  <property name="meta.media.1.codec.rotate">0</property>
  <property name="meta.media.1.codec.frame_rate">5000</property>
  <property name="meta.media.1.codec.pix_fmt">yuv422p10le</property>
  <property name="meta.media.1.codec.sample_aspect_ratio">0</property>
  <property name="meta.media.1.codec.colorspace">709</property>
  <property name="meta.media.1.codec.color_trc">1</property>
  <property name="meta.media.1.codec.name">prores</property>
  <property name="meta.media.1.codec.long_name">ProRes</property>
  <property name="meta.media.1.codec.bit_rate">366958528</property>
  <property name="meta.attr.1.stream.creation_time.markup">2019-01-05T05:57:41.000000Z</property>
  <property name="meta.attr.1.stream.language.markup">eng</property>
  <property name="meta.attr.1.stream.handler_name.markup">Apple Alias Data Handler</property>
  <property name="meta.attr.1.stream.encoder.markup">Apple ProRes 422 HQ</property>
  <property name="meta.attr.1.stream.timecode.markup">05:57:41:19</property>
  <property name="meta.media.2.stream.type">audio</property>
  <property name="meta.media.2.codec.sample_fmt">s32</property>
  <property name="meta.media.2.codec.sample_rate">48000</property>
  <property name="meta.media.2.codec.channels">2</property>
  <property name="meta.media.2.codec.name">pcm_s24le</property>
  <property name="meta.media.2.codec.long_name">PCM signed 24-bit little-endian</property>
  <property name="meta.media.2.codec.bit_rate">2304000</property>
  <property name="meta.attr.2.stream.creation_time.markup">2019-01-05T05:57:41.000000Z</property>
  <property name="meta.attr.2.stream.language.markup">eng</property>
  <property name="meta.attr.2.stream.handler_name.markup">Apple Alias Data Handler</property>
  <property name="meta.attr.2.stream.timecode.markup">05:57:41:19</property>
  <property name="meta.attr.com.apple.proapps.manufacturer.markup">Blackmagic Design</property>
  <property name="meta.attr.com.apple.proapps.cameraName.markup">CAM1</property>
  <property name="meta.attr.com.apple.proapps.isGood.markup">0</property>
  <property name="meta.attr.com.apple.proapps.customgamma.markup">com.blackmagic-design.cinemacamera.filmlog</property>
  <property name="meta.attr.com.blackmagic-design.cinemacamera.uuid.markup">18E5E00548F94923B646613A73C01B56</property>
  <property name="meta.attr.creation_time.markup">2019-01-05T05:57:41.000000Z</property>
  <property name="meta.attr.timecode.markup">05:57:41:19</property>
  <property name="seekable">1</property>
  <property name="meta.media.sample_aspect_num">1</property>
  <property name="meta.media.sample_aspect_den">1</property>
  <property name="aspect_ratio">1</property>
  <property name="kdenlive:folderid">17</property>
  <property name="meta.media.frame_rate_num">50</property>
  <property name="meta.media.frame_rate_den">1</property>
  <property name="meta.media.colorspace">709</property>
  <property name="meta.media.color_trc">1</property>
  <property name="meta.media.width">1920</property>
  <property name="meta.media.height">1080</property>
  <property name="meta.media.top_field_first">0</property>
  <property name="meta.media.progressive">1</property>
  <property name="kdenlive:file_size">9652541145</property>
  <property name="kdenlive:file_hash">9d4eddc292544f83f9eb0cb1726027b3</property>
 </producer>
 <producer id="44" in="0" out="19885">
  <property name="length">00:06:37:36</property>
  <property name="eof">pause</property>
  <property name="resource">/media/bordun/plagiat2/CAM1_2019-01-05_0544_C0003.mov</property>
  <property name="audio_index">2</property>
  <property name="video_index">1</property>
  <property name="mute_on_pause">1</property>
  <property name="mlt_service">avformat-novalidate</property>
  <property name="meta.media.nb_streams">3</property>
  <property name="meta.media.1.stream.type">video</property>
  <property name="meta.media.1.stream.frame_rate">50</property>
  <property name="meta.media.1.stream.sample_aspect_ratio">1</property>
  <property name="meta.media.1.codec.width">1920</property>
  <property name="meta.media.1.codec.height">1080</property>
  <property name="meta.media.1.codec.rotate">0</property>
  <property name="meta.media.1.codec.frame_rate">5000</property>
  <property name="meta.media.1.codec.pix_fmt">yuv422p10le</property>
  <property name="meta.media.1.codec.sample_aspect_ratio">0</property>
  <property name="meta.media.1.codec.colorspace">709</property>
  <property name="meta.media.1.codec.color_trc">1</property>
  <property name="meta.media.1.codec.name">prores</property>
  <property name="meta.media.1.codec.long_name">ProRes</property>
  <property name="meta.media.1.codec.bit_rate">366956929</property>
  <property name="meta.attr.1.stream.creation_time.markup">2019-01-05T05:44:18.000000Z</property>
  <property name="meta.attr.1.stream.language.markup">eng</property>
  <property name="meta.attr.1.stream.handler_name.markup">Apple Alias Data Handler</property>
  <property name="meta.attr.1.stream.encoder.markup">Apple ProRes 422 HQ</property>
  <property name="meta.attr.1.stream.timecode.markup">05:44:18:23</property>
  <property name="meta.media.2.stream.type">audio</property>
  <property name="meta.media.2.codec.sample_fmt">s32</property>
  <property name="meta.media.2.codec.sample_rate">48000</property>
  <property name="meta.media.2.codec.channels">2</property>
  <property name="meta.media.2.codec.name">pcm_s24le</property>
  <property name="meta.media.2.codec.long_name">PCM signed 24-bit little-endian</property>
  <property name="meta.media.2.codec.bit_rate">2304000</property>
  <property name="meta.attr.2.stream.creation_time.markup">2019-01-05T05:44:18.000000Z</property>
  <property name="meta.attr.2.stream.language.markup">eng</property>
  <property name="meta.attr.2.stream.handler_name.markup">Apple Alias Data Handler</property>
  <property name="meta.attr.2.stream.timecode.markup">05:44:18:23</property>
  <property name="meta.attr.com.apple.proapps.manufacturer.markup">Blackmagic Design</property>
  <property name="meta.attr.com.apple.proapps.cameraName.markup">CAM1</property>
  <property name="meta.attr.com.apple.proapps.isGood.markup">0</property>
  <property name="meta.attr.com.apple.proapps.customgamma.markup">com.blackmagic-design.cinemacamera.filmlog</property>
  <property name="meta.attr.com.blackmagic-design.cinemacamera.uuid.markup">18E5E00548F94923B646613A73C01B56</property>
  <property name="meta.attr.creation_time.markup">2019-01-05T05:44:18.000000Z</property>
  <property name="meta.attr.timecode.markup">05:44:18:23</property>
  <property name="seekable">1</property>
  <property name="meta.media.sample_aspect_num">1</property>
  <property name="meta.media.sample_aspect_den">1</property>
  <property name="aspect_ratio">1</property>
  <property name="kdenlive:folderid">17</property>
  <property name="meta.media.frame_rate_num">50</property>
  <property name="meta.media.frame_rate_den">1</property>
  <property name="meta.media.colorspace">709</property>
  <property name="meta.media.color_trc">1</property>
  <property name="meta.media.width">1920</property>
  <property name="meta.media.height">1080</property>
  <property name="meta.media.top_field_first">0</property>
  <property name="meta.media.progressive">1</property>
  <property name="kdenlive:file_size">18359664313</property>
  <property name="kdenlive:file_hash">46f909828b8adaa191142911fc3d1240</property>
  <filter id="filter29">
   <property name="version">0,3</property>
   <property name="mlt_service">frei0r.levels</property>
   <property name="kdenlive_id">frei0r.levels</property>
   <property name="tag">frei0r.levels</property>
   <property name="kdenlive_ix">1</property>
   <property name="kdenlive_info"/>
   <property name="Channel">0,3</property>
   <property name="Input black level">0=0</property>
   <property name="Input white level">0=1</property>
   <property name="Gamma">0=0,179</property>
   <property name="Black output">0=0,01</property>
   <property name="White output">0=1</property>
   <property name="Show histogram">0</property>
   <property name="Histogram position">0,3</property>
   <property name="disable">1</property>
  </filter>
 </producer>
 <producer id="45" in="0" out="9289">
  <property name="length">00:03:05:40</property>
  <property name="eof">pause</property>
  <property name="resource">/media/bordun/plagiat2/CAM1_2019-01-05_0517_C0001.mov</property>
  <property name="audio_index">2</property>
  <property name="video_index">1</property>
  <property name="mute_on_pause">1</property>
  <property name="mlt_service">avformat-novalidate</property>
  <property name="meta.media.nb_streams">3</property>
  <property name="meta.media.1.stream.type">video</property>
  <property name="meta.media.1.stream.frame_rate">50</property>
  <property name="meta.media.1.stream.sample_aspect_ratio">1</property>
  <property name="meta.media.1.codec.width">1920</property>
  <property name="meta.media.1.codec.height">1080</property>
  <property name="meta.media.1.codec.rotate">0</property>
  <property name="meta.media.1.codec.frame_rate">5000</property>
  <property name="meta.media.1.codec.pix_fmt">yuv422p10le</property>
  <property name="meta.media.1.codec.sample_aspect_ratio">0</property>
  <property name="meta.media.1.codec.colorspace">709</property>
  <property name="meta.media.1.codec.color_trc">1</property>
  <property name="meta.media.1.codec.name">prores</property>
  <property name="meta.media.1.codec.long_name">ProRes</property>
  <property name="meta.media.1.codec.bit_rate">366957016</property>
  <property name="meta.attr.1.stream.creation_time.markup">2019-01-05T05:17:29.000000Z</property>
  <property name="meta.attr.1.stream.language.markup">eng</property>
  <property name="meta.attr.1.stream.handler_name.markup">Apple Alias Data Handler</property>
  <property name="meta.attr.1.stream.encoder.markup">Apple ProRes 422 HQ</property>
  <property name="meta.attr.1.stream.timecode.markup">05:17:29:25</property>
  <property name="meta.media.2.stream.type">audio</property>
  <property name="meta.media.2.codec.sample_fmt">s32</property>
  <property name="meta.media.2.codec.sample_rate">48000</property>
  <property name="meta.media.2.codec.channels">2</property>
  <property name="meta.media.2.codec.name">pcm_s24le</property>
  <property name="meta.media.2.codec.long_name">PCM signed 24-bit little-endian</property>
  <property name="meta.media.2.codec.bit_rate">2304000</property>
  <property name="meta.attr.2.stream.creation_time.markup">2019-01-05T05:17:29.000000Z</property>
  <property name="meta.attr.2.stream.language.markup">eng</property>
  <property name="meta.attr.2.stream.handler_name.markup">Apple Alias Data Handler</property>
  <property name="meta.attr.2.stream.timecode.markup">05:17:29:25</property>
  <property name="meta.attr.com.apple.proapps.manufacturer.markup">Blackmagic Design</property>
  <property name="meta.attr.com.apple.proapps.cameraName.markup">CAM1</property>
  <property name="meta.attr.com.apple.proapps.isGood.markup">0</property>
  <property name="meta.attr.com.apple.proapps.customgamma.markup">com.blackmagic-design.cinemacamera.filmlog</property>
  <property name="meta.attr.com.blackmagic-design.cinemacamera.uuid.markup">18E5E00548F94923B646613A73C01B56</property>
  <property name="meta.attr.creation_time.markup">2019-01-05T05:17:29.000000Z</property>
  <property name="meta.attr.timecode.markup">05:17:29:25</property>
  <property name="seekable">1</property>
  <property name="meta.media.sample_aspect_num">1</property>
  <property name="meta.media.sample_aspect_den">1</property>
  <property name="aspect_ratio">1</property>
  <property name="kdenlive:folderid">17</property>
  <property name="meta.media.frame_rate_num">50</property>
  <property name="meta.media.frame_rate_den">1</property>
  <property name="meta.media.colorspace">709</property>
  <property name="meta.media.color_trc">1</property>
  <property name="meta.media.width">1920</property>
  <property name="meta.media.height">1080</property>
  <property name="meta.media.top_field_first">0</property>
  <property name="meta.media.progressive">1</property>
  <property name="kdenlive:file_size">8576956441</property>
  <property name="kdenlive:file_hash">c2f5e810e9e7275dd3088498b60f8e5f</property>
 </producer>
 <producer id="46" in="0" out="10702">
  <property name="length">00:03:34:03</property>
  <property name="eof">pause</property>
  <property name="resource">/media/bordun/plagiat2/CAM1_2019-01-05_0511_C0000.mov</property>
  <property name="audio_index">2</property>
  <property name="video_index">1</property>
  <property name="mute_on_pause">1</property>
  <property name="mlt_service">avformat-novalidate</property>
  <property name="meta.media.nb_streams">3</property>
  <property name="meta.media.1.stream.type">video</property>
  <property name="meta.media.1.stream.frame_rate">50</property>
  <property name="meta.media.1.stream.sample_aspect_ratio">1</property>
  <property name="meta.media.1.codec.width">1920</property>
  <property name="meta.media.1.codec.height">1080</property>
  <property name="meta.media.1.codec.rotate">0</property>
  <property name="meta.media.1.codec.frame_rate">5000</property>
  <property name="meta.media.1.codec.pix_fmt">yuv422p10le</property>
  <property name="meta.media.1.codec.sample_aspect_ratio">0</property>
  <property name="meta.media.1.codec.colorspace">709</property>
  <property name="meta.media.1.codec.color_trc">1</property>
  <property name="meta.media.1.codec.name">prores</property>
  <property name="meta.media.1.codec.long_name">ProRes</property>
  <property name="meta.media.1.codec.bit_rate">366958294</property>
  <property name="meta.attr.1.stream.creation_time.markup">2019-01-05T05:11:43.000000Z</property>
  <property name="meta.attr.1.stream.language.markup">eng</property>
  <property name="meta.attr.1.stream.handler_name.markup">Apple Alias Data Handler</property>
  <property name="meta.attr.1.stream.encoder.markup">Apple ProRes 422 HQ</property>
  <property name="meta.attr.1.stream.timecode.markup">05:11:43:16</property>
  <property name="meta.media.2.stream.type">audio</property>
  <property name="meta.media.2.codec.sample_fmt">s32</property>
  <property name="meta.media.2.codec.sample_rate">48000</property>
  <property name="meta.media.2.codec.channels">2</property>
  <property name="meta.media.2.codec.name">pcm_s24le</property>
  <property name="meta.media.2.codec.long_name">PCM signed 24-bit little-endian</property>
  <property name="meta.media.2.codec.bit_rate">2304000</property>
  <property name="meta.attr.2.stream.creation_time.markup">2019-01-05T05:11:43.000000Z</property>
  <property name="meta.attr.2.stream.language.markup">eng</property>
  <property name="meta.attr.2.stream.handler_name.markup">Apple Alias Data Handler</property>
  <property name="meta.attr.2.stream.timecode.markup">05:11:43:16</property>
  <property name="meta.attr.com.apple.proapps.manufacturer.markup">Blackmagic Design</property>
  <property name="meta.attr.com.apple.proapps.cameraName.markup">CAM1</property>
  <property name="meta.attr.com.apple.proapps.isGood.markup">0</property>
  <property name="meta.attr.com.apple.proapps.customgamma.markup">com.blackmagic-design.cinemacamera.filmlog</property>
  <property name="meta.attr.com.blackmagic-design.cinemacamera.uuid.markup">18E5E00548F94923B646613A73C01B56</property>
  <property name="meta.attr.creation_time.markup">2019-01-05T05:11:43.000000Z</property>
  <property name="meta.attr.timecode.markup">05:11:43:16</property>
  <property name="seekable">1</property>
  <property name="meta.media.sample_aspect_num">1</property>
  <property name="meta.media.sample_aspect_den">1</property>
  <property name="aspect_ratio">1</property>
  <property name="kdenlive:folderid">17</property>
  <property name="meta.media.frame_rate_num">50</property>
  <property name="meta.media.frame_rate_den">1</property>
  <property name="meta.media.colorspace">709</property>
  <property name="meta.media.color_trc">1</property>
  <property name="meta.media.width">1920</property>
  <property name="meta.media.height">1080</property>
  <property name="meta.media.top_field_first">0</property>
  <property name="meta.media.progressive">1</property>
  <property name="kdenlive:file_size">9881509121</property>
  <property name="kdenlive:file_hash">377aa92a5fbef78369143e30739b498c</property>
 </producer>
 <producer title="Anonymous Submission" id="47" in="0" out="11268">
  <property name="length">00:03:45:19</property>
  <property name="eof">pause</property>
  <property name="resource">/media/bordun/plagiat2/CAM1_2019-01-05_0525_C0002.mov</property>
  <property name="audio_index">2</property>
  <property name="video_index">1</property>
  <property name="mute_on_pause">1</property>
  <property name="mlt_service">avformat-novalidate</property>
  <property name="meta.media.nb_streams">3</property>
  <property name="meta.media.1.stream.type">video</property>
  <property name="meta.media.1.stream.frame_rate">50</property>
  <property name="meta.media.1.stream.sample_aspect_ratio">1</property>
  <property name="meta.media.1.codec.width">1920</property>
  <property name="meta.media.1.codec.height">1080</property>
  <property name="meta.media.1.codec.rotate">0</property>
  <property name="meta.media.1.codec.frame_rate">5000</property>
  <property name="meta.media.1.codec.pix_fmt">yuv422p10le</property>
  <property name="meta.media.1.codec.sample_aspect_ratio">0</property>
  <property name="meta.media.1.codec.colorspace">709</property>
  <property name="meta.media.1.codec.color_trc">1</property>
  <property name="meta.media.1.codec.name">prores</property>
  <property name="meta.media.1.codec.long_name">ProRes</property>
  <property name="meta.media.1.codec.bit_rate">366958989</property>
  <property name="meta.attr.1.stream.creation_time.markup">2019-01-05T05:25:34.000000Z</property>
  <property name="meta.attr.1.stream.language.markup">eng</property>
  <property name="meta.attr.1.stream.handler_name.markup">Apple Alias Data Handler</property>
  <property name="meta.attr.1.stream.encoder.markup">Apple ProRes 422 HQ</property>
  <property name="meta.attr.1.stream.timecode.markup">05:25:34:21</property>
  <property name="meta.media.2.stream.type">audio</property>
  <property name="meta.media.2.codec.sample_fmt">s32</property>
  <property name="meta.media.2.codec.sample_rate">48000</property>
  <property name="meta.media.2.codec.channels">2</property>
  <property name="meta.media.2.codec.name">pcm_s24le</property>
  <property name="meta.media.2.codec.long_name">PCM signed 24-bit little-endian</property>
  <property name="meta.media.2.codec.bit_rate">2304000</property>
  <property name="meta.attr.2.stream.creation_time.markup">2019-01-05T05:25:34.000000Z</property>
  <property name="meta.attr.2.stream.language.markup">eng</property>
  <property name="meta.attr.2.stream.handler_name.markup">Apple Alias Data Handler</property>
  <property name="meta.attr.2.stream.timecode.markup">05:25:34:21</property>
  <property name="meta.attr.com.apple.proapps.manufacturer.markup">Blackmagic Design</property>
  <property name="meta.attr.com.apple.proapps.cameraName.markup">CAM1</property>
  <property name="meta.attr.com.apple.proapps.isGood.markup">0</property>
  <property name="meta.attr.com.apple.proapps.customgamma.markup">com.blackmagic-design.cinemacamera.filmlog</property>
  <property name="meta.attr.com.blackmagic-design.cinemacamera.uuid.markup">18E5E00548F94923B646613A73C01B56</property>
  <property name="meta.attr.creation_time.markup">2019-01-05T05:25:34.000000Z</property>
  <property name="meta.attr.timecode.markup">05:25:34:21</property>
  <property name="seekable">1</property>
  <property name="meta.media.sample_aspect_num">1</property>
  <property name="meta.media.sample_aspect_den">1</property>
  <property name="aspect_ratio">1</property>
  <property name="kdenlive:folderid">17</property>
  <property name="meta.media.frame_rate_num">50</property>
  <property name="meta.media.frame_rate_den">1</property>
  <property name="meta.media.colorspace">709</property>
  <property name="meta.media.color_trc">1</property>
  <property name="meta.media.width">1920</property>
  <property name="meta.media.height">1080</property>
  <property name="meta.media.top_field_first">0</property>
  <property name="meta.media.progressive">1</property>
  <property name="kdenlive:file_size">10404105561</property>
  <property name="kdenlive:file_hash">2bc47b71e880be9b41ab5c0f2f63d573</property>
  <property name="global_feed">1</property>
  <property name="kdenlive:zone_in">14436</property>
  <property name="kdenlive:zone_out">14476</property>
  <filter id="filter30">
   <property name="version">0,3</property>
   <property name="mlt_service">frei0r.sopsat</property>
   <property name="kdenlive_id">frei0r.sopsat</property>
   <property name="tag">frei0r.sopsat</property>
   <property name="kdenlive_ix">1</property>
   <property name="kdenlive_info">1/-1/</property>
   <property name="rSlope">0=0,1055</property>
   <property name="gSlope">0=0,2945</property>
   <property name="bSlope">0=0,05</property>
   <property name="aSlope">0=0,05</property>
   <property name="rOffset">0=0,456543</property>
   <property name="gOffset">0=0,238281</property>
   <property name="bOffset">0=0,5</property>
   <property name="aOffset">0=0,5</property>
   <property name="rPower">0=0,025</property>
   <property name="gPower">0=0,0525</property>
   <property name="bPower">0=0,0655</property>
   <property name="aPower">0=0,05</property>
   <property name="saturation">0=0,1</property>
   <property name="disable">1</property>
  </filter>
  <filter id="filter31">
   <property name="gamma">0=1,12</property>
   <property name="mlt_service">gamma</property>
   <property name="kdenlive_id">gamma</property>
   <property name="tag">gamma</property>
   <property name="kdenlive_ix">2</property>
   <property name="kdenlive_info"/>
  </filter>
  <filter id="filter32">
   <property name="version">0,3</property>
   <property name="mlt_service">frei0r.sopsat</property>
   <property name="kdenlive_id">RLPP - Violet Degueux</property>
   <property name="tag">frei0r.sopsat</property>
   <property name="kdenlive_ix">3</property>
   <property name="kdenlive_info"/>
   <property name="rSlope">0=0,1055</property>
   <property name="gSlope">0=0,3295</property>
   <property name="bSlope">0=0,088</property>
   <property name="aSlope">0=0,05</property>
   <property name="rOffset">0=0,456055</property>
   <property name="gOffset">0=0,237793</property>
   <property name="bOffset">0=0,5</property>
   <property name="aOffset">0=0,5</property>
   <property name="rPower">0=0,025</property>
   <property name="gPower">0=0,0525</property>
   <property name="bPower">0=0,0655</property>
   <property name="aPower">0=0,05</property>
   <property name="saturation">0=0,1</property>
  </filter>
 </producer>
 <producer title="Anonymous Submission" id="48" in="0" out="42317">
  <property name="length">00:14:06:18</property>
  <property name="eof">pause</property>
  <property name="resource">/media/bordun/plagiat2/CAM1_2019-01-05_0345_C0000.mov</property>
  <property name="audio_index">2</property>
  <property name="video_index">1</property>
  <property name="mute_on_pause">1</property>
  <property name="mlt_service">avformat-novalidate</property>
  <property name="meta.media.nb_streams">3</property>
  <property name="meta.media.1.stream.type">video</property>
  <property name="meta.media.1.stream.frame_rate">50</property>
  <property name="meta.media.1.stream.sample_aspect_ratio">1</property>
  <property name="meta.media.1.codec.width">1920</property>
  <property name="meta.media.1.codec.height">1080</property>
  <property name="meta.media.1.codec.rotate">0</property>
  <property name="meta.media.1.codec.frame_rate">5000</property>
  <property name="meta.media.1.codec.pix_fmt">yuv422p10le</property>
  <property name="meta.media.1.codec.sample_aspect_ratio">0</property>
  <property name="meta.media.1.codec.colorspace">709</property>
  <property name="meta.media.1.codec.color_trc">1</property>
  <property name="meta.media.1.codec.name">prores</property>
  <property name="meta.media.1.codec.long_name">ProRes</property>
  <property name="meta.media.1.codec.bit_rate">366957403</property>
  <property name="meta.attr.1.stream.creation_time.markup">2019-01-05T03:45:37.000000Z</property>
  <property name="meta.attr.1.stream.language.markup">eng</property>
  <property name="meta.attr.1.stream.handler_name.markup">Apple Alias Data Handler</property>
  <property name="meta.attr.1.stream.encoder.markup">Apple ProRes 422 HQ</property>
  <property name="meta.attr.1.stream.timecode.markup">03:45:37:07</property>
  <property name="meta.media.2.stream.type">audio</property>
  <property name="meta.media.2.codec.sample_fmt">s32</property>
  <property name="meta.media.2.codec.sample_rate">48000</property>
  <property name="meta.media.2.codec.channels">2</property>
  <property name="meta.media.2.codec.name">pcm_s24le</property>
  <property name="meta.media.2.codec.long_name">PCM signed 24-bit little-endian</property>
  <property name="meta.media.2.codec.bit_rate">2304000</property>
  <property name="meta.attr.2.stream.creation_time.markup">2019-01-05T03:45:37.000000Z</property>
  <property name="meta.attr.2.stream.language.markup">eng</property>
  <property name="meta.attr.2.stream.handler_name.markup">Apple Alias Data Handler</property>
  <property name="meta.attr.2.stream.timecode.markup">03:45:37:07</property>
  <property name="meta.attr.com.apple.proapps.manufacturer.markup">Blackmagic Design</property>
  <property name="meta.attr.com.apple.proapps.cameraName.markup">CAM1</property>
  <property name="meta.attr.com.apple.proapps.isGood.markup">0</property>
  <property name="meta.attr.com.apple.proapps.customgamma.markup">com.blackmagic-design.cinemacamera.filmlog</property>
  <property name="meta.attr.com.blackmagic-design.cinemacamera.uuid.markup">18E5E00548F94923B646613A73C01B56</property>
  <property name="meta.attr.creation_time.markup">2019-01-05T03:45:37.000000Z</property>
  <property name="meta.attr.timecode.markup">03:45:37:07</property>
  <property name="seekable">1</property>
  <property name="meta.media.sample_aspect_num">1</property>
  <property name="meta.media.sample_aspect_den">1</property>
  <property name="aspect_ratio">1</property>
  <property name="kdenlive:folderid">17</property>
  <property name="meta.media.frame_rate_num">50</property>
  <property name="meta.media.frame_rate_den">1</property>
  <property name="meta.media.colorspace">709</property>
  <property name="meta.media.color_trc">1</property>
  <property name="meta.media.width">1920</property>
  <property name="meta.media.height">1080</property>
  <property name="meta.media.top_field_first">0</property>
  <property name="meta.media.progressive">1</property>
  <property name="kdenlive:file_size">39069915329</property>
  <property name="kdenlive:file_hash">73f4a81374204093f22cbe930d68c42b</property>
  <property name="global_feed">1</property>
  <property name="kdenlive:zone_in">4909</property>
  <property name="kdenlive:zone_out">4934</property>
  <filter id="filter33">
   <property name="version">0,3</property>
   <property name="mlt_service">frei0r.levels</property>
   <property name="kdenlive_id">frei0r.levels</property>
   <property name="tag">frei0r.levels</property>
   <property name="kdenlive_ix">1</property>
   <property name="kdenlive_info"/>
   <property name="Channel">0,3</property>
   <property name="Input black level">0=0</property>
   <property name="Input white level">0=1</property>
   <property name="Gamma">0=0,2</property>
   <property name="Black output">0=0,01</property>
   <property name="White output">0=0,9</property>
   <property name="Show histogram">0</property>
   <property name="Histogram position">0,3</property>
   <property name="disable">1</property>
  </filter>
 </producer>
 <producer id="49" in="0" out="1689">
  <property name="length">00:00:33:40</property>
  <property name="eof">pause</property>
  <property name="resource">/media/bordun/plagiat2/CAM1_2019-01-05_0607_C0006.mov</property>
  <property name="audio_index">2</property>
  <property name="video_index">1</property>
  <property name="mute_on_pause">1</property>
  <property name="mlt_service">avformat-novalidate</property>
  <property name="meta.media.nb_streams">3</property>
  <property name="meta.media.1.stream.type">video</property>
  <property name="meta.media.1.stream.frame_rate">50</property>
  <property name="meta.media.1.stream.sample_aspect_ratio">1</property>
  <property name="meta.media.1.codec.width">1920</property>
  <property name="meta.media.1.codec.height">1080</property>
  <property name="meta.media.1.codec.rotate">0</property>
  <property name="meta.media.1.codec.frame_rate">5000</property>
  <property name="meta.media.1.codec.pix_fmt">yuv422p10le</property>
  <property name="meta.media.1.codec.sample_aspect_ratio">0</property>
  <property name="meta.media.1.codec.colorspace">709</property>
  <property name="meta.media.1.codec.color_trc">1</property>
  <property name="meta.media.1.codec.name">prores</property>
  <property name="meta.media.1.codec.long_name">ProRes</property>
  <property name="meta.media.1.codec.bit_rate">366960162</property>
  <property name="meta.attr.1.stream.creation_time.markup">2019-01-05T06:07:03.000000Z</property>
  <property name="meta.attr.1.stream.language.markup">eng</property>
  <property name="meta.attr.1.stream.handler_name.markup">Apple Alias Data Handler</property>
  <property name="meta.attr.1.stream.encoder.markup">Apple ProRes 422 HQ</property>
  <property name="meta.attr.1.stream.timecode.markup">06:07:03:08</property>
  <property name="meta.media.2.stream.type">audio</property>
  <property name="meta.media.2.codec.sample_fmt">s32</property>
  <property name="meta.media.2.codec.sample_rate">48000</property>
  <property name="meta.media.2.codec.channels">2</property>
  <property name="meta.media.2.codec.name">pcm_s24le</property>
  <property name="meta.media.2.codec.long_name">PCM signed 24-bit little-endian</property>
  <property name="meta.media.2.codec.bit_rate">2304000</property>
  <property name="meta.attr.2.stream.creation_time.markup">2019-01-05T06:07:03.000000Z</property>
  <property name="meta.attr.2.stream.language.markup">eng</property>
  <property name="meta.attr.2.stream.handler_name.markup">Apple Alias Data Handler</property>
  <property name="meta.attr.2.stream.timecode.markup">06:07:03:08</property>
  <property name="meta.attr.com.apple.proapps.manufacturer.markup">Blackmagic Design</property>
  <property name="meta.attr.com.apple.proapps.cameraName.markup">CAM1</property>
  <property name="meta.attr.com.apple.proapps.isGood.markup">0</property>
  <property name="meta.attr.com.apple.proapps.customgamma.markup">com.blackmagic-design.cinemacamera.filmlog</property>
  <property name="meta.attr.com.blackmagic-design.cinemacamera.uuid.markup">18E5E00548F94923B646613A73C01B56</property>
  <property name="meta.attr.creation_time.markup">2019-01-05T06:07:03.000000Z</property>
  <property name="meta.attr.timecode.markup">06:07:03:08</property>
  <property name="seekable">1</property>
  <property name="meta.media.sample_aspect_num">1</property>
  <property name="meta.media.sample_aspect_den">1</property>
  <property name="aspect_ratio">1</property>
  <property name="kdenlive:folderid">17</property>
  <property name="meta.media.frame_rate_num">50</property>
  <property name="meta.media.frame_rate_den">1</property>
  <property name="meta.media.colorspace">709</property>
  <property name="meta.media.color_trc">1</property>
  <property name="meta.media.width">1920</property>
  <property name="meta.media.height">1080</property>
  <property name="meta.media.top_field_first">0</property>
  <property name="meta.media.progressive">1</property>
  <property name="kdenlive:file_size">1560293721</property>
  <property name="kdenlive:file_hash">bd1e6f48bc5cce2ea867955bc59977ea</property>
 </producer>
 <producer id="50" in="0" out="3049">
  <property name="length">00:01:01:00</property>
  <property name="eof">pause</property>
  <property name="resource">/media/bordun/plagiat2/CAM1_2019-01-05_0605_C0005.mov</property>
  <property name="audio_index">2</property>
  <property name="video_index">1</property>
  <property name="mute_on_pause">1</property>
  <property name="mlt_service">avformat-novalidate</property>
  <property name="meta.media.nb_streams">3</property>
  <property name="meta.media.1.stream.type">video</property>
  <property name="meta.media.1.stream.frame_rate">50</property>
  <property name="meta.media.1.stream.sample_aspect_ratio">1</property>
  <property name="meta.media.1.codec.width">1920</property>
  <property name="meta.media.1.codec.height">1080</property>
  <property name="meta.media.1.codec.rotate">0</property>
  <property name="meta.media.1.codec.frame_rate">5000</property>
  <property name="meta.media.1.codec.pix_fmt">yuv422p10le</property>
  <property name="meta.media.1.codec.sample_aspect_ratio">0</property>
  <property name="meta.media.1.codec.colorspace">709</property>
  <property name="meta.media.1.codec.color_trc">1</property>
  <property name="meta.media.1.codec.name">prores</property>
  <property name="meta.media.1.codec.long_name">ProRes</property>
  <property name="meta.media.1.codec.bit_rate">366958797</property>
  <property name="meta.attr.1.stream.creation_time.markup">2019-01-05T06:05:50.000000Z</property>
  <property name="meta.attr.1.stream.language.markup">eng</property>
  <property name="meta.attr.1.stream.handler_name.markup">Apple Alias Data Handler</property>
  <property name="meta.attr.1.stream.encoder.markup">Apple ProRes 422 HQ</property>
  <property name="meta.attr.1.stream.timecode.markup">06:05:50:13</property>
  <property name="meta.media.2.stream.type">audio</property>
  <property name="meta.media.2.codec.sample_fmt">s32</property>
  <property name="meta.media.2.codec.sample_rate">48000</property>
  <property name="meta.media.2.codec.channels">2</property>
  <property name="meta.media.2.codec.name">pcm_s24le</property>
  <property name="meta.media.2.codec.long_name">PCM signed 24-bit little-endian</property>
  <property name="meta.media.2.codec.bit_rate">2304000</property>
  <property name="meta.attr.2.stream.creation_time.markup">2019-01-05T06:05:50.000000Z</property>
  <property name="meta.attr.2.stream.language.markup">eng</property>
  <property name="meta.attr.2.stream.handler_name.markup">Apple Alias Data Handler</property>
  <property name="meta.attr.2.stream.timecode.markup">06:05:50:13</property>
  <property name="meta.attr.com.apple.proapps.manufacturer.markup">Blackmagic Design</property>
  <property name="meta.attr.com.apple.proapps.cameraName.markup">CAM1</property>
  <property name="meta.attr.com.apple.proapps.isGood.markup">0</property>
  <property name="meta.attr.com.apple.proapps.customgamma.markup">com.blackmagic-design.cinemacamera.filmlog</property>
  <property name="meta.attr.com.blackmagic-design.cinemacamera.uuid.markup">18E5E00548F94923B646613A73C01B56</property>
  <property name="meta.attr.creation_time.markup">2019-01-05T06:05:50.000000Z</property>
  <property name="meta.attr.timecode.markup">06:05:50:13</property>
  <property name="seekable">1</property>
  <property name="meta.media.sample_aspect_num">1</property>
  <property name="meta.media.sample_aspect_den">1</property>
  <property name="aspect_ratio">1</property>
  <property name="kdenlive:folderid">17</property>
  <property name="meta.media.frame_rate_num">50</property>
  <property name="meta.media.frame_rate_den">1</property>
  <property name="meta.media.colorspace">709</property>
  <property name="meta.media.color_trc">1</property>
  <property name="meta.media.width">1920</property>
  <property name="meta.media.height">1080</property>
  <property name="meta.media.top_field_first">0</property>
  <property name="meta.media.progressive">1</property>
  <property name="kdenlive:file_size">2815906853</property>
  <property name="kdenlive:file_hash">23a7c272941f6ead8c4c67cee7e89762</property>
 </producer>
 <producer title="Anonymous Submission" id="51" in="0" out="9961">
  <property name="length">00:03:19:12</property>
  <property name="eof">pause</property>
  <property name="resource">/media/bordun/plagiat/Clip02_RespecteLaPuissancePapale/Assets/vhs_on_greenscreen_stock_footage_royalty_free_Suv1x2CK3xA_360p.mp4</property>
  <property name="audio_index">1</property>
  <property name="video_index">0</property>
  <property name="mute_on_pause">1</property>
  <property name="mlt_service">avformat-novalidate</property>
  <property name="meta.media.nb_streams">2</property>
  <property name="meta.media.0.stream.type">video</property>
  <property name="meta.media.0.stream.frame_rate">29,9701</property>
  <property name="meta.media.0.stream.sample_aspect_ratio">0</property>
  <property name="meta.media.0.codec.width">480</property>
  <property name="meta.media.0.codec.height">360</property>
  <property name="meta.media.0.codec.rotate">0</property>
  <property name="meta.media.0.codec.frame_rate">29,97</property>
  <property name="meta.media.0.codec.pix_fmt">yuv420p</property>
  <property name="meta.media.0.codec.sample_aspect_ratio">1</property>
  <property name="meta.media.0.codec.colorspace">601</property>
  <property name="meta.media.0.codec.name">h264</property>
  <property name="meta.media.0.codec.long_name">H.264 / AVC / MPEG-4 AVC / MPEG-4 part 10</property>
  <property name="meta.media.0.codec.bit_rate">298518</property>
  <property name="meta.attr.0.stream.creation_time.markup">2018-11-05T07:01:08.000000Z</property>
  <property name="meta.attr.0.stream.handler_name.markup">ISO Media file produced by Google Inc. Created on: 11/04/2018.</property>
  <property name="meta.media.1.stream.type">audio</property>
  <property name="meta.media.1.codec.sample_fmt">fltp</property>
  <property name="meta.media.1.codec.sample_rate">44100</property>
  <property name="meta.media.1.codec.channels">2</property>
  <property name="meta.media.1.codec.name">aac</property>
  <property name="meta.media.1.codec.long_name">AAC (Advanced Audio Coding)</property>
  <property name="meta.media.1.codec.bit_rate">95999</property>
  <property name="meta.attr.1.stream.creation_time.markup">2018-11-05T07:01:08.000000Z</property>
  <property name="meta.attr.1.stream.handler_name.markup">ISO Media file produced by Google Inc. Created on: 11/04/2018.</property>
  <property name="meta.attr.major_brand.markup">mp42</property>
  <property name="meta.attr.minor_version.markup">0</property>
  <property name="meta.attr.compatible_brands.markup">isommp42</property>
  <property name="meta.attr.creation_time.markup">2018-11-05T07:01:08.000000Z</property>
  <property name="seekable">1</property>
  <property name="meta.media.sample_aspect_num">1</property>
  <property name="meta.media.sample_aspect_den">1</property>
  <property name="aspect_ratio">1</property>
  <property name="meta.media.frame_rate_num">3731250</property>
  <property name="meta.media.frame_rate_den">124499</property>
  <property name="meta.media.colorspace">601</property>
  <property name="meta.media.color_trc">2</property>
  <property name="meta.media.width">480</property>
  <property name="meta.media.height">360</property>
  <property name="meta.media.top_field_first">0</property>
  <property name="meta.media.progressive">1</property>
  <property name="kdenlive:file_size">9887889</property>
  <property name="kdenlive:file_hash">30a067bbfc9642db96df21e0922c6f06</property>
  <property name="global_feed">1</property>
 </producer>
 <producer title="Anonymous Submission" id="52" in="0" out="4343">
  <property name="length">00:01:26:44</property>
  <property name="eof">pause</property>
  <property name="resource">/media/bordun/plagiat/Clip02_RespecteLaPuissancePapale/Audio/2018-12-06_RespecteLaPuissancePapale_Clip_Part1-Couplet1Refrain1_r1.ogg</property>
  <property name="audio_index">0</property>
  <property name="video_index">-1</property>
  <property name="mute_on_pause">1</property>
  <property name="mlt_service">avformat-novalidate</property>
  <property name="meta.media.nb_streams">1</property>
  <property name="meta.media.0.stream.type">audio</property>
  <property name="meta.media.0.codec.sample_fmt">fltp</property>
  <property name="meta.media.0.codec.sample_rate">48000</property>
  <property name="meta.media.0.codec.channels">2</property>
  <property name="meta.media.0.codec.name">vorbis</property>
  <property name="meta.media.0.codec.long_name">Vorbis</property>
  <property name="meta.media.0.codec.bit_rate">128000</property>
  <property name="meta.attr.0.stream.disc.markup">0</property>
  <property name="meta.attr.0.stream.ENCODER.markup">libsndfile</property>
  <property name="seekable">1</property>
  <property name="kdenlive:file_size">1262407</property>
  <property name="kdenlive:file_hash">d81388a0072b69b18a1a90b7310cda2e</property>
  <property name="global_feed">1</property>
 </producer>
 <producer title="Anonymous Submission" id="53" in="0" out="23437">
  <property name="length">00:07:48:38</property>
  <property name="eof">pause</property>
  <property name="resource">/media/bordun/plagiat/Clip02_RespecteLaPuissancePapale/Audio/2018-12-06_RespecteLaPuissancePapale_Clip_Part1-2_r1.ogg</property>
  <property name="meta.media.nb_streams">1</property>
  <property name="meta.media.0.stream.type">audio</property>
  <property name="meta.media.0.codec.sample_fmt">fltp</property>
  <property name="meta.media.0.codec.sample_rate">48000</property>
  <property name="meta.media.0.codec.channels">2</property>
  <property name="meta.media.0.codec.name">vorbis</property>
  <property name="meta.media.0.codec.long_name">Vorbis</property>
  <property name="meta.media.0.codec.bit_rate">128000</property>
  <property name="meta.attr.0.stream.disc.markup">0</property>
  <property name="meta.attr.0.stream.ENCODER.markup">libsndfile</property>
  <property name="seekable">1</property>
  <property name="audio_index">0</property>
  <property name="video_index">-1</property>
  <property name="mute_on_pause">1</property>
  <property name="mlt_service">avformat-novalidate</property>
  <property name="kdenlive:file_size">6122194</property>
  <property name="kdenlive:file_hash">df9aa9dd771d7abbcc4a5132bde79bec</property>
  <property name="global_feed">1</property>
 </producer>
 <playlist id="main bin">
  <property name="kdenlive:docproperties.audiotargettrack">2</property>
  <property name="kdenlive:docproperties.decimalPoint">,</property>
  <property name="kdenlive:docproperties.dirtypreviewchunks">0,25,50,75,100,125,150,175,200,225,250,275,300,325,350,375,400,425,450,475,500,525,550,575,600,625,650,675,700,725,750,775,800,825,850,875,900,925,950,975,1000,1025,1050,1075,1100,1125,1150,1175,1200,1225,1250,1275,1300,1325,1350,1375,1400,1425,1450,1475,1500,1525,1550,1575,1600,1625,1650,1675,1700,1725,1750,1775,1800,1825,1850,1875,1900,1925,1950,1975,2000,2025,2050,2075,2100,2125,2150,2175,2200,2225,2250,2275,2300,2325,2350,2375,2400,2425,2450,2475,2500,2525,2550,2575,2600,2625,2650,2675,2700,2725,2750,2775,2800,2825,2850,2875,2900,2925,2950,2975,3000,3025,3050,3075,3100,3125,3150,3175,3200,3225,3250,3275,3300,3325,3350,3375,3400,3425,3450,3475,3500,3525,3550,3575,3600,3625,3650,3675,3700,3725,3750,3775,3800,3825,3850,3875,3900,3925,3950,3975,4000,4025,4050,4075,4100,4125,4150,4175,4200,4225,4250,4275,4300,4325,4350,4375,4400,4425,4450,4475,4500,4525,4550,4575,4600,4625,4650,4675,4700,4725,4750,4775,4800,4825,4850,4875,4900,4925,4950</property>
  <property name="kdenlive:docproperties.disablepreview">0</property>
  <property name="kdenlive:docproperties.documentid">1547739419641</property>
  <property name="kdenlive:docproperties.enableproxy">0</property>
  <property name="kdenlive:docproperties.generateimageproxy">0</property>
  <property name="kdenlive:docproperties.generateproxy">1</property>
  <property name="kdenlive:docproperties.kdenliveversion">18.12.1</property>
  <property name="kdenlive:docproperties.position">4865</property>
  <property name="kdenlive:docproperties.previewchunks"/>
  <property name="kdenlive:docproperties.previewextension">mov</property>
  <property name="kdenlive:docproperties.previewparameters">r=50 s=1920x1080 vb=72M threads=0 vcodec=dnxhd</property>
  <property name="kdenlive:docproperties.profile">atsc_1080p_50</property>
  <property name="kdenlive:docproperties.proxyextension">mkv</property>
  <property name="kdenlive:docproperties.proxyimageminsize">2000</property>
  <property name="kdenlive:docproperties.proxyminsize">1000</property>
  <property name="kdenlive:docproperties.proxyparams">-vf yadif,scale=960:-2 -qscale 3 -vcodec mjpeg -acodec pcm_s16le</property>
  <property name="kdenlive:docproperties.version">0.96</property>
  <property name="kdenlive:docproperties.verticalzoom">1</property>
  <property name="kdenlive:docproperties.videotargettrack">4</property>
  <property name="kdenlive:docproperties.zonein">2080</property>
  <property name="kdenlive:docproperties.zoneout">2618</property>
  <property name="kdenlive:docproperties.zoom">6</property>
  <property name="kdenlive:documentnotes"/>
  <property name="kdenlive:clipgroups"/>
  <property name="kdenlive:folder.-1.5">Part I - Le5</property>
  <property name="kdenlive:folder.-1.6">Part II - Ballade</property>
  <property name="kdenlive:folder.-1.7">Part III - AfroTrap</property>
  <property name="kdenlive:folder.5.9">Autel</property>
  <property name="kdenlive:folder.5.10">ContrePlongee</property>
  <property name="kdenlive:folder.6.11">NanoChiottes</property>
  <property name="kdenlive:folder.6.12">MissyPiano</property>
  <property name="kdenlive:folder.5.13">Trap</property>
  <property name="kdenlive:folder.5.14">InstruRefrain</property>
  <property name="kdenlive:folder.-1.15">Part IV - Meshuggah</property>
  <property name="kdenlive:guide.4,62">00:00:04:31</property>
  <property name="kdenlive:docproperties.renderaudioquality">320</property>
  <property name="kdenlive:docproperties.rendercategory">Personnalisé</property>
  <property name="kdenlive:docproperties.renderendguide">0</property>
  <property name="kdenlive:docproperties.renderexportaudio">0</property>
  <property name="kdenlive:docproperties.renderguide">0</property>
  <property name="kdenlive:docproperties.renderplay">0</property>
  <property name="kdenlive:docproperties.renderprofile">MP4HD</property>
  <property name="kdenlive:docproperties.renderquality">18</property>
  <property name="kdenlive:docproperties.renderratio">1</property>
  <property name="kdenlive:docproperties.renderrescale">0</property>
  <property name="kdenlive:docproperties.renderrescaleheight">720</property>
  <property name="kdenlive:docproperties.renderrescalewidth">1280</property>
  <property name="kdenlive:docproperties.renderscanning">0</property>
  <property name="kdenlive:docproperties.renderspeed">2</property>
  <property name="kdenlive:docproperties.renderstartguide">0</property>
  <property name="kdenlive:docproperties.rendertcoverlay">0</property>
  <property name="kdenlive:docproperties.rendertctype">0</property>
  <property name="kdenlive:docproperties.rendertwopass">0</property>
  <property name="kdenlive:docproperties.renderurl">/media/bordun/plagiat/Clip02_RespecteLaPuissancePapale/Rendus/2019-12-02_RLPP_part1-test.mp4</property>
  <property name="kdenlive:docproperties.renderzone">1</property>
  <property name="kdenlive:folder.-1.16">Colors</property>
  <property name="kdenlive:customeffects">&lt;customeffects>
 &lt;effectgroup type="custom" name="Effect Group" id="Effect Group" effectcolor="#9963f7">
  &lt;effect type="video" unique="1" tag="lines" id="lines" kdenlive_info="0/-1/Effect Group" effectcolor="#9e2513" disable="0">
   &lt;name>Scratchlines&lt;/name>
   &lt;description>Scratchlines over the picture&lt;/description>
   &lt;author>Marco Gittler&lt;/author>
   &lt;parameter type="double" name="line_width" max="100" min="0" value="9" default="2">
    &lt;name>Width of line&lt;/name>
   &lt;/parameter>
   &lt;parameter type="double" name="num" max="100" min="0" value="100" default="5">
    &lt;name>Max number of lines&lt;/name>
   &lt;/parameter>
   &lt;parameter type="double" name="darker" max="100" min="0" value="0" default="40">
    &lt;name>Max darker&lt;/name>
   &lt;/parameter>
   &lt;parameter type="double" name="lighter" max="100" min="0" value="100" default="40">
    &lt;name>Max lighter&lt;/name>
   &lt;/parameter>
   &lt;version>0,2&lt;/version>
   &lt;version>0,2&lt;/version>
  &lt;/effect>
 &lt;/effectgroup>
 &lt;effectgroup type="custom" name="Effect Group" id="Effect Group" effectcolor="#9963f7">
  &lt;effect type="video" unique="1" tag="lines" id="lines" kdenlive_info="0/-1/Effect Group" effectcolor="#9e2513" disable="0">
   &lt;name>Scratchlines&lt;/name>
   &lt;description>Scratchlines over the picture&lt;/description>
   &lt;author>Marco Gittler&lt;/author>
   &lt;parameter type="double" name="line_width" max="100" min="0" value="9" default="2">
    &lt;name>Width of line&lt;/name>
   &lt;/parameter>
   &lt;parameter type="double" name="num" max="100" min="0" value="100" default="5">
    &lt;name>Max number of lines&lt;/name>
   &lt;/parameter>
   &lt;parameter type="double" name="darker" max="100" min="0" value="0" default="40">
    &lt;name>Max darker&lt;/name>
   &lt;/parameter>
   &lt;parameter type="double" name="lighter" max="100" min="0" value="100" default="40">
    &lt;name>Max lighter&lt;/name>
   &lt;/parameter>
   &lt;version>0,2&lt;/version>
   &lt;version>0,2&lt;/version>
  &lt;/effect>
 &lt;/effectgroup>
&lt;/customeffects>
</property>
  <property name="kdenlive:folder.-1.17">Lavaré</property>
  <property name="kdenlive:guide.93,36">00:01:33:18</property>
  <property name="xml_retain">1</property>
  <entry producer="1" in="0" out="14561"/>
  <entry producer="5" in="0" out="19246"/>
  <entry producer="4" in="0" out="24870"/>
  <entry producer="3" in="0" out="11635"/>
  <entry producer="2" in="0" out="11667"/>
  <entry producer="6" in="0" out="4178"/>
  <entry producer="7" in="0" out="8532"/>
  <entry producer="16" in="0" out="2403"/>
  <entry producer="17" in="0" out="2706"/>
  <entry producer="18" in="0" out="1547"/>
  <entry producer="19" in="0" out="2823"/>
  <entry producer="20" in="0" out="995"/>
  <entry producer="21" in="0" out="8367"/>
  <entry producer="23" in="0" out="90"/>
  <entry producer="24" in="0" out="2194"/>
  <entry producer="22" in="0" out="2303"/>
  <entry producer="14" in="0" out="3805"/>
  <entry producer="15" in="0" out="3941"/>
  <entry producer="10" in="0" out="3856"/>
  <entry producer="9" in="0" out="7720"/>
  <entry producer="11" in="0" out="21338"/>
  <entry producer="8" in="0" out="21621"/>
  <entry producer="25" in="0" out="4317"/>
  <entry producer="26" in="0" out="2406"/>
  <entry producer="13" in="0" out="4748"/>
  <entry producer="12" in="0" out="23600"/>
  <entry producer="27" in="0" out="7640"/>
  <entry producer="28" in="0" out="7733"/>
  <entry producer="29" in="0" out="249"/>
  <entry producer="30" in="0" out="249"/>
  <entry producer="31" in="0" out="9374"/>
  <entry producer="32" in="0" out="9374"/>
  <entry producer="33" in="0" out="9374"/>
  <entry producer="34" in="0" out="7733"/>
  <entry producer="35" in="0" out="43907"/>
  <entry producer="36" in="0" out="3983"/>
  <entry producer="37" in="0" out="5323"/>
  <entry producer="38" in="0" out="9041"/>
  <entry producer="39" in="0" out="3953"/>
  <entry producer="40" in="0" out="5863"/>
  <entry producer="41" in="0" out="6601"/>
  <entry producer="42" in="0" out="10077"/>
  <entry producer="43" in="0" out="10454"/>
  <entry producer="44" in="0" out="19885"/>
  <entry producer="45" in="0" out="9289"/>
  <entry producer="46" in="0" out="10702"/>
  <entry producer="47" in="0" out="11268"/>
  <entry producer="48" in="0" out="42317"/>
  <entry producer="49" in="0" out="1689"/>
  <entry producer="50" in="0" out="3049"/>
  <entry producer="51" in="0" out="9961"/>
  <entry producer="52" in="0" out="4343"/>
  <blank length="249"/>
  <entry producer="53" in="0" out="23437"/>
 </playlist>
 <producer id="black" in="0" out="83785">
  <property name="length">83786</property>
  <property name="eof">pause</property>
  <property name="resource">black</property>
  <property name="aspect_ratio">0</property>
  <property name="mlt_service">colour</property>
  <property name="set.test_audio">0</property>
 </producer>
 <playlist id="black_track">
  <entry producer="black" in="0" out="68146"/>
 </playlist>
 <producer title="Anonymous Submission" id="53_playlist1" in="0" out="23437">
  <property name="length">00:07:48:38</property>
  <property name="eof">pause</property>
  <property name="resource">/media/bordun/plagiat/Clip02_RespecteLaPuissancePapale/Audio/2018-12-06_RespecteLaPuissancePapale_Clip_Part1-2_r1.ogg</property>
  <property name="audio_index">0</property>
  <property name="video_index">-1</property>
  <property name="mute_on_pause">1</property>
  <property name="mlt_service">avformat-novalidate</property>
  <property name="seekable">1</property>
  <property name="kdenlive:file_size">6122194</property>
  <property name="kdenlive:file_hash">df9aa9dd771d7abbcc4a5132bde79bec</property>
  <property name="global_feed">1</property>
  <property name="xml">was here</property>
  <property name="meta.media.nb_streams">1</property>
  <property name="meta.media.0.stream.type">audio</property>
  <property name="meta.media.0.codec.sample_fmt">fltp</property>
  <property name="meta.media.0.codec.sample_rate">48000</property>
  <property name="meta.media.0.codec.channels">2</property>
  <property name="meta.media.0.codec.name">vorbis</property>
  <property name="meta.media.0.codec.long_name">Vorbis</property>
  <property name="meta.media.0.codec.bit_rate">128000</property>
  <property name="meta.attr.0.stream.disc.markup">0</property>
  <property name="meta.attr.0.stream.ENCODER.markup">libsndfile</property>
 </producer>
 <playlist id="playlist1">
  <property name="kdenlive:audio_track">1</property>
  <property name="kdenlive:track_name">Audio 2</property>
  <property name="kdenlive:locked_track">0</property>
  <blank length="1397"/>
  <entry producer="53_playlist1" in="1444" out="7986"/>
 </playlist>
 <producer title="Anonymous Submission" id="31_playlist2" in="0" out="9374">
  <property name="length">00:03:07:25</property>
  <property name="eof">pause</property>
  <property name="resource">/media/bordun/plagiat/Clip02_RespecteLaPuissancePapale/Audio/2018-12-06_RespecteLaPuissancePapale_Clip_part1.ogg</property>
  <property name="audio_index">0</property>
  <property name="video_index">-1</property>
  <property name="mute_on_pause">1</property>
  <property name="mlt_service">avformat-novalidate</property>
  <property name="seekable">1</property>
  <property name="kdenlive:file_size">2248940</property>
  <property name="kdenlive:file_hash">36d235cf32170d398007c5f515b1017f</property>
  <property name="global_feed">1</property>
  <property name="kdenlive:zone_in">187</property>
  <property name="kdenlive:zone_out">4168</property>
  <property name="xml">was here</property>
  <property name="meta.media.nb_streams">1</property>
  <property name="meta.media.0.stream.type">audio</property>
  <property name="meta.media.0.codec.sample_fmt">fltp</property>
  <property name="meta.media.0.codec.sample_rate">48000</property>
  <property name="meta.media.0.codec.channels">2</property>
  <property name="meta.media.0.codec.name">vorbis</property>
  <property name="meta.media.0.codec.long_name">Vorbis</property>
  <property name="meta.media.0.codec.bit_rate">128000</property>
  <property name="meta.attr.0.stream.disc.markup">0</property>
  <property name="meta.attr.0.stream.ENCODER.markup">libsndfile</property>
 </producer>
 <playlist id="playlist2">
  <property name="kdenlive:audio_track">1</property>
  <property name="kdenlive:track_name">Audio 1</property>
  <entry producer="31_playlist2" in="187" out="1583"/>
 </playlist>
 <playlist id="playlist11">
  <property name="kdenlive:track_name">Audio 0</property>
 </playlist>
 <producer title="Anonymous Submission" id="5_playlist3" in="0" out="19246">
  <property name="length">00:06:24:47</property>
  <property name="eof">pause</property>
  <property name="resource">/media/bordun/plagiat/2018-12-10_Plagiat_RespecteLaPuissancePapale/Carte_2/CAM1_2018-12-10_1629_C0000.mov</property>
  <property name="audio_index">2</property>
  <property name="video_index">1</property>
  <property name="mute_on_pause">1</property>
  <property name="mlt_service">avformat-novalidate</property>
  <property name="seekable">1</property>
  <property name="aspect_ratio">1</property>
  <property name="kdenlive:folderid">9</property>
  <property name="kdenlive:file_size">17769713233</property>
  <property name="kdenlive:file_hash">40fd95546ae131f6c5881d8660dbcccc</property>
  <property name="global_feed">1</property>
  <property name="xml">was here</property>
  <property name="meta.media.nb_streams">3</property>
  <property name="meta.media.1.stream.type">video</property>
  <property name="meta.media.1.stream.frame_rate">50</property>
  <property name="meta.media.1.stream.sample_aspect_ratio">1</property>
  <property name="meta.media.1.codec.width">1920</property>
  <property name="meta.media.1.codec.height">1080</property>
  <property name="meta.media.1.codec.rotate">0</property>
  <property name="meta.media.1.codec.frame_rate">5000</property>
  <property name="meta.media.1.codec.pix_fmt">yuv422p10le</property>
  <property name="meta.media.1.codec.sample_aspect_ratio">0</property>
  <property name="meta.media.1.codec.colorspace">709</property>
  <property name="meta.media.1.codec.name">prores</property>
  <property name="meta.media.1.codec.long_name">ProRes</property>
  <property name="meta.media.1.codec.bit_rate">366959020</property>
  <property name="meta.attr.1.stream.creation_time.markup">2018-12-10T16:29:10.000000Z</property>
  <property name="meta.attr.1.stream.language.markup">eng</property>
  <property name="meta.attr.1.stream.handler_name.markup">Apple Alias Data Handler</property>
  <property name="meta.attr.1.stream.encoder.markup">Apple ProRes 422 HQ</property>
  <property name="meta.attr.1.stream.timecode.markup">16:29:10:24</property>
  <property name="meta.media.2.stream.type">audio</property>
  <property name="meta.media.2.codec.sample_fmt">s32</property>
  <property name="meta.media.2.codec.sample_rate">48000</property>
  <property name="meta.media.2.codec.channels">2</property>
  <property name="meta.media.2.codec.name">pcm_s24le</property>
  <property name="meta.media.2.codec.long_name">PCM signed 24-bit little-endian</property>
  <property name="meta.media.2.codec.bit_rate">2304000</property>
  <property name="meta.attr.2.stream.creation_time.markup">2018-12-10T16:29:10.000000Z</property>
  <property name="meta.attr.2.stream.language.markup">eng</property>
  <property name="meta.attr.2.stream.handler_name.markup">Apple Alias Data Handler</property>
  <property name="meta.attr.2.stream.timecode.markup">16:29:10:24</property>
  <property name="meta.attr.com.apple.proapps.manufacturer.markup">Blackmagic Design</property>
  <property name="meta.attr.com.apple.proapps.cameraName.markup">CAM1</property>
  <property name="meta.attr.com.apple.proapps.isGood.markup">0</property>
  <property name="meta.attr.com.apple.proapps.customgamma.markup">com.blackmagic-design.cinemacamera.filmlog</property>
  <property name="meta.attr.com.blackmagic-design.cinemacamera.uuid.markup">18E5E00548F94923B646613A73C01B56</property>
  <property name="meta.attr.creation_time.markup">2018-12-10T16:29:10.000000Z</property>
  <property name="meta.attr.timecode.markup">16:29:10:24</property>
  <property name="meta.media.sample_aspect_num">1</property>
  <property name="meta.media.sample_aspect_den">1</property>
  <property name="meta.media.frame_rate_num">50</property>
  <property name="meta.media.frame_rate_den">1</property>
  <property name="meta.media.colorspace">709</property>
  <property name="meta.media.color_trc">1</property>
  <property name="meta.media.width">1920</property>
  <property name="meta.media.height">1080</property>
  <property name="meta.media.top_field_first">0</property>
  <property name="meta.media.progressive">1</property>
  <property name="meta.media.1.codec.color_trc">1</property>
  <filter id="filter34">
   <property name="version">0,1</property>
   <property name="mlt_service">frei0r.colgate</property>
   <property name="kdenlive_id">frei0r.colgate</property>
   <property name="tag">frei0r.colgate</property>
   <property name="kdenlive_ix">1</property>
   <property name="kdenlive_info"/>
   <property name="Neutral Color">0x7f7f7fff</property>
   <property name="Color Temperature">0=0,5</property>
   <property name="disable">0</property>
  </filter>
  <filter id="filter35">
   <property name="version">0,3</property>
   <property name="mlt_service">frei0r.levels</property>
   <property name="kdenlive_id">frei0r.levels</property>
   <property name="tag">frei0r.levels</property>
   <property name="kdenlive_ix">2</property>
   <property name="kdenlive_info"/>
   <property name="Channel">0,3</property>
   <property name="Input black level">0=0</property>
   <property name="Input white level">0=0,65</property>
   <property name="Gamma">0=0,25</property>
   <property name="Black output">0=0</property>
   <property name="White output">0=1</property>
   <property name="Show histogram">0</property>
   <property name="Histogram position">0,3</property>
  </filter>
 </producer>
 <playlist id="playlist3">
  <property name="kdenlive:track_name">Vidéo 1</property>
  <entry producer="5_playlist3" in="2286" out="2517"/>
  <entry producer="5_playlist3" in="2518" out="2658"/>
  <entry producer="5_playlist3" in="2659" out="2914"/>
  <entry producer="5_playlist3" in="2915" out="3415"/>
  <blank length="126"/>
  <entry producer="5_playlist3" in="3542" out="3793"/>
  <filter id="filter36" out="2552">
   <property name="background">colour:0x00000000</property>
   <property name="mlt_service">affine</property>
   <property name="kdenlive_id">pan_zoom</property>
   <property name="tag">affine</property>
   <property name="kdenlive_ix">1</property>
   <property name="kdenlive:sync_in_out">1</property>
   <property name="kdenlive_info"/>
   <property name="disable"/>
   <property name="transition.geometry">-19/-27:2112x1188:100</property>
   <property name="transition.distort">0</property>
  </filter>
 </playlist>
 <playlist id="playlist12">
  <property name="kdenlive:track_name">Vidéo 10</property>
 </playlist>
 <producer title="Anonymous Submission" id="producer2" in="0" out="19246">
  <property name="length">00:06:24:47</property>
  <property name="eof">pause</property>
  <property name="resource">/media/bordun/plagiat/2018-12-10_Plagiat_RespecteLaPuissancePapale/Carte_2/CAM1_2018-12-10_1629_C0000.mov</property>
  <property name="audio_index">-1</property>
  <property name="video_index">-1</property>
  <property name="mute_on_pause">1</property>
  <property name="mlt_service">avformat-novalidate</property>
  <property name="seekable">1</property>
  <property name="aspect_ratio">1</property>
  <property name="kdenlive:folderid">9</property>
  <property name="kdenlive:file_size">17769713233</property>
  <property name="kdenlive:file_hash">40fd95546ae131f6c5881d8660dbcccc</property>
  <property name="global_feed">1</property>
  <property name="xml">was here</property>
  <property name="kdenlive:binid">5</property>
  <property name="kdenlive:clipstate">0</property>
 </producer>
 <producer title="Anonymous Submission" id="5_playlist4" in="0" out="19246">
  <property name="length">00:06:24:47</property>
  <property name="eof">pause</property>
  <property name="resource">/media/bordun/plagiat/2018-12-10_Plagiat_RespecteLaPuissancePapale/Carte_2/CAM1_2018-12-10_1629_C0000.mov</property>
  <property name="audio_index">2</property>
  <property name="video_index">1</property>
  <property name="mute_on_pause">1</property>
  <property name="mlt_service">avformat-novalidate</property>
  <property name="seekable">1</property>
  <property name="aspect_ratio">1</property>
  <property name="kdenlive:folderid">9</property>
  <property name="kdenlive:file_size">17769713233</property>
  <property name="kdenlive:file_hash">40fd95546ae131f6c5881d8660dbcccc</property>
  <property name="global_feed">1</property>
  <property name="xml">was here</property>
  <property name="meta.media.nb_streams">3</property>
  <property name="meta.media.1.stream.type">video</property>
  <property name="meta.media.1.stream.frame_rate">50</property>
  <property name="meta.media.1.stream.sample_aspect_ratio">1</property>
  <property name="meta.media.1.codec.width">1920</property>
  <property name="meta.media.1.codec.height">1080</property>
  <property name="meta.media.1.codec.rotate">0</property>
  <property name="meta.media.1.codec.frame_rate">5000</property>
  <property name="meta.media.1.codec.pix_fmt">yuv422p10le</property>
  <property name="meta.media.1.codec.sample_aspect_ratio">0</property>
  <property name="meta.media.1.codec.colorspace">709</property>
  <property name="meta.media.1.codec.name">prores</property>
  <property name="meta.media.1.codec.long_name">ProRes</property>
  <property name="meta.media.1.codec.bit_rate">366959020</property>
  <property name="meta.attr.1.stream.creation_time.markup">2018-12-10T16:29:10.000000Z</property>
  <property name="meta.attr.1.stream.language.markup">eng</property>
  <property name="meta.attr.1.stream.handler_name.markup">Apple Alias Data Handler</property>
  <property name="meta.attr.1.stream.encoder.markup">Apple ProRes 422 HQ</property>
  <property name="meta.attr.1.stream.timecode.markup">16:29:10:24</property>
  <property name="meta.media.2.stream.type">audio</property>
  <property name="meta.media.2.codec.sample_fmt">s32</property>
  <property name="meta.media.2.codec.sample_rate">48000</property>
  <property name="meta.media.2.codec.channels">2</property>
  <property name="meta.media.2.codec.name">pcm_s24le</property>
  <property name="meta.media.2.codec.long_name">PCM signed 24-bit little-endian</property>
  <property name="meta.media.2.codec.bit_rate">2304000</property>
  <property name="meta.attr.2.stream.creation_time.markup">2018-12-10T16:29:10.000000Z</property>
  <property name="meta.attr.2.stream.language.markup">eng</property>
  <property name="meta.attr.2.stream.handler_name.markup">Apple Alias Data Handler</property>
  <property name="meta.attr.2.stream.timecode.markup">16:29:10:24</property>
  <property name="meta.attr.com.apple.proapps.manufacturer.markup">Blackmagic Design</property>
  <property name="meta.attr.com.apple.proapps.cameraName.markup">CAM1</property>
  <property name="meta.attr.com.apple.proapps.isGood.markup">0</property>
  <property name="meta.attr.com.apple.proapps.customgamma.markup">com.blackmagic-design.cinemacamera.filmlog</property>
  <property name="meta.attr.com.blackmagic-design.cinemacamera.uuid.markup">18E5E00548F94923B646613A73C01B56</property>
  <property name="meta.attr.creation_time.markup">2018-12-10T16:29:10.000000Z</property>
  <property name="meta.attr.timecode.markup">16:29:10:24</property>
  <property name="meta.media.sample_aspect_num">1</property>
  <property name="meta.media.sample_aspect_den">1</property>
  <property name="meta.media.frame_rate_num">50</property>
  <property name="meta.media.frame_rate_den">1</property>
  <property name="meta.media.colorspace">709</property>
  <property name="meta.media.color_trc">1</property>
  <property name="meta.media.width">1920</property>
  <property name="meta.media.height">1080</property>
  <property name="meta.media.top_field_first">0</property>
  <property name="meta.media.progressive">1</property>
  <property name="meta.media.1.codec.color_trc">1</property>
  <filter id="filter37">
   <property name="version">0,1</property>
   <property name="mlt_service">frei0r.colgate</property>
   <property name="kdenlive_id">frei0r.colgate</property>
   <property name="tag">frei0r.colgate</property>
   <property name="kdenlive_ix">1</property>
   <property name="kdenlive_info"/>
   <property name="Neutral Color">0x7f7f7fff</property>
   <property name="Color Temperature">0=0,5</property>
   <property name="disable">0</property>
  </filter>
  <filter id="filter38">
   <property name="version">0,3</property>
   <property name="mlt_service">frei0r.levels</property>
   <property name="kdenlive_id">frei0r.levels</property>
   <property name="tag">frei0r.levels</property>
   <property name="kdenlive_ix">2</property>
   <property name="kdenlive_info"/>
   <property name="Channel">0,3</property>
   <property name="Input black level">0=0</property>
   <property name="Input white level">0=0,65</property>
   <property name="Gamma">0=0,25</property>
   <property name="Black output">0=0</property>
   <property name="White output">0=1</property>
   <property name="Show histogram">0</property>
   <property name="Histogram position">0,3</property>
  </filter>
 </producer>
 <playlist id="playlist4">
  <property name="kdenlive:track_name">Vidéo 2</property>
  <blank length="334"/>
  <entry producer="producer2" in="8222" out="8256">
   <filter id="filter39">
    <property name="background">colour:0x00000000</property>
    <property name="mlt_service">affine</property>
    <property name="kdenlive_id">pan_zoom</property>
    <property name="tag">affine</property>
    <property name="kdenlive_ix">1</property>
    <property name="kdenlive_info"/>
    <property name="disable"/>
    <property name="transition.geometry">0/0:1920x1080:100</property>
    <property name="transition.distort">0</property>
   </filter>
  </entry>
  <entry producer="5_playlist4" in="8257" out="8455"/>
  <entry producer="5_playlist4" in="8456" out="8591">
   <filter id="filter40" in="8456" out="8591">
    <property name="background">colour:0x00000000</property>
    <property name="mlt_service">affine</property>
    <property name="kdenlive_id">pan_zoom</property>
    <property name="tag">affine</property>
    <property name="kdenlive_ix">1</property>
    <property name="transition.geometry">-151/0:2304x1296:100</property>
    <property name="transition.distort">0</property>
    <property name="kdenlive:sync_in_out">1</property>
    <property name="kdenlive_info"/>
    <property name="disable">1</property>
   </filter>
  </entry>
  <entry producer="5_playlist4" in="8592" out="10034"/>
  <entry producer="5_playlist4" in="10035" out="10153">
   <filter id="filter41" in="10035" out="10153">
    <property name="background">colour:0x00000000</property>
    <property name="mlt_service">affine</property>
    <property name="kdenlive_id">pan_zoom</property>
    <property name="tag">affine</property>
    <property name="kdenlive_ix">1</property>
    <property name="transition.geometry">-192/0:2304x1296:100</property>
    <property name="transition.distort">0</property>
    <property name="kdenlive:sync_in_out">1</property>
    <property name="kdenlive_info"/>
   </filter>
  </entry>
  <entry producer="5_playlist4" in="10154" out="10322"/>
  <entry producer="5_playlist4" in="10323" out="10416"/>
 </playlist>
 <producer title="Anonymous Submission" id="5_playlist5" in="0" out="19246">
  <property name="length">00:06:24:47</property>
  <property name="eof">pause</property>
  <property name="resource">/media/bordun/plagiat/2018-12-10_Plagiat_RespecteLaPuissancePapale/Carte_2/CAM1_2018-12-10_1629_C0000.mov</property>
  <property name="audio_index">2</property>
  <property name="video_index">1</property>
  <property name="mute_on_pause">1</property>
  <property name="mlt_service">avformat-novalidate</property>
  <property name="seekable">1</property>
  <property name="aspect_ratio">1</property>
  <property name="kdenlive:folderid">9</property>
  <property name="kdenlive:file_size">17769713233</property>
  <property name="kdenlive:file_hash">40fd95546ae131f6c5881d8660dbcccc</property>
  <property name="global_feed">1</property>
  <property name="xml">was here</property>
  <property name="meta.media.nb_streams">3</property>
  <property name="meta.media.1.stream.type">video</property>
  <property name="meta.media.1.stream.frame_rate">50</property>
  <property name="meta.media.1.stream.sample_aspect_ratio">1</property>
  <property name="meta.media.1.codec.width">1920</property>
  <property name="meta.media.1.codec.height">1080</property>
  <property name="meta.media.1.codec.rotate">0</property>
  <property name="meta.media.1.codec.frame_rate">5000</property>
  <property name="meta.media.1.codec.pix_fmt">yuv422p10le</property>
  <property name="meta.media.1.codec.sample_aspect_ratio">0</property>
  <property name="meta.media.1.codec.colorspace">709</property>
  <property name="meta.media.1.codec.name">prores</property>
  <property name="meta.media.1.codec.long_name">ProRes</property>
  <property name="meta.media.1.codec.bit_rate">366959020</property>
  <property name="meta.attr.1.stream.creation_time.markup">2018-12-10T16:29:10.000000Z</property>
  <property name="meta.attr.1.stream.language.markup">eng</property>
  <property name="meta.attr.1.stream.handler_name.markup">Apple Alias Data Handler</property>
  <property name="meta.attr.1.stream.encoder.markup">Apple ProRes 422 HQ</property>
  <property name="meta.attr.1.stream.timecode.markup">16:29:10:24</property>
  <property name="meta.media.2.stream.type">audio</property>
  <property name="meta.media.2.codec.sample_fmt">s32</property>
  <property name="meta.media.2.codec.sample_rate">48000</property>
  <property name="meta.media.2.codec.channels">2</property>
  <property name="meta.media.2.codec.name">pcm_s24le</property>
  <property name="meta.media.2.codec.long_name">PCM signed 24-bit little-endian</property>
  <property name="meta.media.2.codec.bit_rate">2304000</property>
  <property name="meta.attr.2.stream.creation_time.markup">2018-12-10T16:29:10.000000Z</property>
  <property name="meta.attr.2.stream.language.markup">eng</property>
  <property name="meta.attr.2.stream.handler_name.markup">Apple Alias Data Handler</property>
  <property name="meta.attr.2.stream.timecode.markup">16:29:10:24</property>
  <property name="meta.attr.com.apple.proapps.manufacturer.markup">Blackmagic Design</property>
  <property name="meta.attr.com.apple.proapps.cameraName.markup">CAM1</property>
  <property name="meta.attr.com.apple.proapps.isGood.markup">0</property>
  <property name="meta.attr.com.apple.proapps.customgamma.markup">com.blackmagic-design.cinemacamera.filmlog</property>
  <property name="meta.attr.com.blackmagic-design.cinemacamera.uuid.markup">18E5E00548F94923B646613A73C01B56</property>
  <property name="meta.attr.creation_time.markup">2018-12-10T16:29:10.000000Z</property>
  <property name="meta.attr.timecode.markup">16:29:10:24</property>
  <property name="meta.media.sample_aspect_num">1</property>
  <property name="meta.media.sample_aspect_den">1</property>
  <property name="meta.media.frame_rate_num">50</property>
  <property name="meta.media.frame_rate_den">1</property>
  <property name="meta.media.colorspace">709</property>
  <property name="meta.media.color_trc">1</property>
  <property name="meta.media.width">1920</property>
  <property name="meta.media.height">1080</property>
  <property name="meta.media.top_field_first">0</property>
  <property name="meta.media.progressive">1</property>
  <property name="meta.media.1.codec.color_trc">1</property>
  <filter id="filter42">
   <property name="version">0,1</property>
   <property name="mlt_service">frei0r.colgate</property>
   <property name="kdenlive_id">frei0r.colgate</property>
   <property name="tag">frei0r.colgate</property>
   <property name="kdenlive_ix">1</property>
   <property name="kdenlive_info"/>
   <property name="Neutral Color">0x7f7f7fff</property>
   <property name="Color Temperature">0=0,5</property>
   <property name="disable">0</property>
  </filter>
  <filter id="filter43">
   <property name="version">0,3</property>
   <property name="mlt_service">frei0r.levels</property>
   <property name="kdenlive_id">frei0r.levels</property>
   <property name="tag">frei0r.levels</property>
   <property name="kdenlive_ix">2</property>
   <property name="kdenlive_info"/>
   <property name="Channel">0,3</property>
   <property name="Input black level">0=0</property>
   <property name="Input white level">0=0,65</property>
   <property name="Gamma">0=0,25</property>
   <property name="Black output">0=0</property>
   <property name="White output">0=1</property>
   <property name="Show histogram">0</property>
   <property name="Histogram position">0,3</property>
  </filter>
 </producer>
 <producer id="slowmotion:5:2:1:0" in="0" out="9623">
  <property name="length">9624</property>
  <property name="eof">pause</property>
  <property name="resource">2:/media/bordun/plagiat/2018-12-10_Plagiat_RespecteLaPuissancePapale/Carte_2/CAM1_2018-12-10_1629_C0000.mov</property>
  <property name="aspect_ratio">1</property>
  <property name="meta.media.nb_streams">3</property>
  <property name="meta.media.1.stream.type">video</property>
  <property name="meta.media.1.stream.frame_rate">50</property>
  <property name="meta.media.1.stream.sample_aspect_ratio">1</property>
  <property name="meta.media.1.codec.width">1920</property>
  <property name="meta.media.1.codec.height">1080</property>
  <property name="meta.media.1.codec.rotate">0</property>
  <property name="meta.media.1.codec.frame_rate">5000</property>
  <property name="meta.media.1.codec.pix_fmt">yuv422p10le</property>
  <property name="meta.media.1.codec.sample_aspect_ratio">0</property>
  <property name="meta.media.1.codec.colorspace">709</property>
  <property name="meta.media.1.codec.color_trc">1</property>
  <property name="meta.media.1.codec.name">prores</property>
  <property name="meta.media.1.codec.long_name">ProRes</property>
  <property name="meta.media.1.codec.bit_rate">366959020</property>
  <property name="meta.attr.1.stream.creation_time.markup">2018-12-10T16:29:10.000000Z</property>
  <property name="meta.attr.1.stream.language.markup">eng</property>
  <property name="meta.attr.1.stream.handler_name.markup">Apple Alias Data Handler</property>
  <property name="meta.attr.1.stream.encoder.markup">Apple ProRes 422 HQ</property>
  <property name="meta.attr.1.stream.timecode.markup">16:29:10:24</property>
  <property name="meta.media.2.stream.type">audio</property>
  <property name="meta.media.2.codec.sample_fmt">s32</property>
  <property name="meta.media.2.codec.sample_rate">48000</property>
  <property name="meta.media.2.codec.channels">2</property>
  <property name="meta.media.2.codec.name">pcm_s24le</property>
  <property name="meta.media.2.codec.long_name">PCM signed 24-bit little-endian</property>
  <property name="meta.media.2.codec.bit_rate">2304000</property>
  <property name="meta.attr.2.stream.creation_time.markup">2018-12-10T16:29:10.000000Z</property>
  <property name="meta.attr.2.stream.language.markup">eng</property>
  <property name="meta.attr.2.stream.handler_name.markup">Apple Alias Data Handler</property>
  <property name="meta.attr.2.stream.timecode.markup">16:29:10:24</property>
  <property name="meta.attr.com.apple.proapps.manufacturer.markup">Blackmagic Design</property>
  <property name="meta.attr.com.apple.proapps.cameraName.markup">CAM1</property>
  <property name="meta.attr.com.apple.proapps.isGood.markup">0</property>
  <property name="meta.attr.com.apple.proapps.customgamma.markup">com.blackmagic-design.cinemacamera.filmlog</property>
  <property name="meta.attr.com.blackmagic-design.cinemacamera.uuid.markup">18E5E00548F94923B646613A73C01B56</property>
  <property name="meta.attr.creation_time.markup">2018-12-10T16:29:10.000000Z</property>
  <property name="meta.attr.timecode.markup">16:29:10:24</property>
  <property name="seekable">1</property>
  <property name="meta.media.sample_aspect_num">1</property>
  <property name="meta.media.sample_aspect_den">1</property>
  <property name="audio_index">2</property>
  <property name="video_index">1</property>
  <property name="mute_on_pause">1</property>
  <property name="warp_speed">2</property>
  <property name="warp_resource">/media/bordun/plagiat/2018-12-10_Plagiat_RespecteLaPuissancePapale/Carte_2/CAM1_2018-12-10_1629_C0000.mov</property>
  <property name="mlt_service">timewarp</property>
  <property name="meta.media.frame_rate_num">50</property>
  <property name="meta.media.frame_rate_den">1</property>
  <property name="meta.media.colorspace">709</property>
  <property name="meta.media.color_trc">1</property>
  <property name="meta.media.width">1920</property>
  <property name="meta.media.height">1080</property>
  <property name="meta.media.top_field_first">0</property>
  <property name="meta.media.progressive">1</property>
  <filter id="filter44">
   <property name="version">0,1</property>
   <property name="mlt_service">frei0r.colgate</property>
   <property name="kdenlive_id">frei0r.colgate</property>
   <property name="tag">frei0r.colgate</property>
   <property name="kdenlive_ix">1</property>
   <property name="kdenlive_info"/>
   <property name="Neutral Color">0x7f7f7fff</property>
   <property name="Color Temperature">0=0,5</property>
   <property name="disable">0</property>
  </filter>
  <filter id="filter45">
   <property name="version">0,3</property>
   <property name="mlt_service">frei0r.levels</property>
   <property name="kdenlive_id">frei0r.levels</property>
   <property name="tag">frei0r.levels</property>
   <property name="kdenlive_ix">2</property>
   <property name="kdenlive_info"/>
   <property name="Channel">0,3</property>
   <property name="Input black level">0=0</property>
   <property name="Input white level">0=0,65</property>
   <property name="Gamma">0=0,25</property>
   <property name="Black output">0=0</property>
   <property name="White output">0=1</property>
   <property name="Show histogram">0</property>
   <property name="Histogram position">0,3</property>
  </filter>
 </producer>
 <producer id="slowmotion:5:0,5:1:0" in="0" out="38493">
  <property name="length">38494</property>
  <property name="eof">pause</property>
  <property name="resource">0,5:/media/bordun/plagiat/2018-12-10_Plagiat_RespecteLaPuissancePapale/Carte_2/CAM1_2018-12-10_1629_C0000.mov</property>
  <property name="aspect_ratio">1</property>
  <property name="meta.media.nb_streams">3</property>
  <property name="meta.media.1.stream.type">video</property>
  <property name="meta.media.1.stream.frame_rate">50</property>
  <property name="meta.media.1.stream.sample_aspect_ratio">1</property>
  <property name="meta.media.1.codec.width">1920</property>
  <property name="meta.media.1.codec.height">1080</property>
  <property name="meta.media.1.codec.rotate">0</property>
  <property name="meta.media.1.codec.frame_rate">5000</property>
  <property name="meta.media.1.codec.pix_fmt">yuv422p10le</property>
  <property name="meta.media.1.codec.sample_aspect_ratio">0</property>
  <property name="meta.media.1.codec.colorspace">709</property>
  <property name="meta.media.1.codec.color_trc">1</property>
  <property name="meta.media.1.codec.name">prores</property>
  <property name="meta.media.1.codec.long_name">ProRes</property>
  <property name="meta.media.1.codec.bit_rate">366959020</property>
  <property name="meta.attr.1.stream.creation_time.markup">2018-12-10T16:29:10.000000Z</property>
  <property name="meta.attr.1.stream.language.markup">eng</property>
  <property name="meta.attr.1.stream.handler_name.markup">Apple Alias Data Handler</property>
  <property name="meta.attr.1.stream.encoder.markup">Apple ProRes 422 HQ</property>
  <property name="meta.attr.1.stream.timecode.markup">16:29:10:24</property>
  <property name="meta.media.2.stream.type">audio</property>
  <property name="meta.media.2.codec.sample_fmt">s32</property>
  <property name="meta.media.2.codec.sample_rate">48000</property>
  <property name="meta.media.2.codec.channels">2</property>
  <property name="meta.media.2.codec.name">pcm_s24le</property>
  <property name="meta.media.2.codec.long_name">PCM signed 24-bit little-endian</property>
  <property name="meta.media.2.codec.bit_rate">2304000</property>
  <property name="meta.attr.2.stream.creation_time.markup">2018-12-10T16:29:10.000000Z</property>
  <property name="meta.attr.2.stream.language.markup">eng</property>
  <property name="meta.attr.2.stream.handler_name.markup">Apple Alias Data Handler</property>
  <property name="meta.attr.2.stream.timecode.markup">16:29:10:24</property>
  <property name="meta.attr.com.apple.proapps.manufacturer.markup">Blackmagic Design</property>
  <property name="meta.attr.com.apple.proapps.cameraName.markup">CAM1</property>
  <property name="meta.attr.com.apple.proapps.isGood.markup">0</property>
  <property name="meta.attr.com.apple.proapps.customgamma.markup">com.blackmagic-design.cinemacamera.filmlog</property>
  <property name="meta.attr.com.blackmagic-design.cinemacamera.uuid.markup">18E5E00548F94923B646613A73C01B56</property>
  <property name="meta.attr.creation_time.markup">2018-12-10T16:29:10.000000Z</property>
  <property name="meta.attr.timecode.markup">16:29:10:24</property>
  <property name="seekable">1</property>
  <property name="meta.media.sample_aspect_num">1</property>
  <property name="meta.media.sample_aspect_den">1</property>
  <property name="audio_index">2</property>
  <property name="video_index">1</property>
  <property name="mute_on_pause">1</property>
  <property name="warp_speed">0,5</property>
  <property name="warp_resource">/media/bordun/plagiat/2018-12-10_Plagiat_RespecteLaPuissancePapale/Carte_2/CAM1_2018-12-10_1629_C0000.mov</property>
  <property name="mlt_service">timewarp</property>
  <property name="meta.media.frame_rate_num">50</property>
  <property name="meta.media.frame_rate_den">1</property>
  <property name="meta.media.colorspace">709</property>
  <property name="meta.media.color_trc">1</property>
  <property name="meta.media.width">1920</property>
  <property name="meta.media.height">1080</property>
  <property name="meta.media.top_field_first">0</property>
  <property name="meta.media.progressive">1</property>
  <filter id="filter46">
   <property name="version">0,1</property>
   <property name="mlt_service">frei0r.colgate</property>
   <property name="kdenlive_id">frei0r.colgate</property>
   <property name="tag">frei0r.colgate</property>
   <property name="kdenlive_ix">1</property>
   <property name="kdenlive_info"/>
   <property name="Neutral Color">0x7f7f7fff</property>
   <property name="Color Temperature">0=0,5</property>
   <property name="disable">0</property>
  </filter>
  <filter id="filter47">
   <property name="version">0,3</property>
   <property name="mlt_service">frei0r.levels</property>
   <property name="kdenlive_id">frei0r.levels</property>
   <property name="tag">frei0r.levels</property>
   <property name="kdenlive_ix">2</property>
   <property name="kdenlive_info"/>
   <property name="Channel">0,3</property>
   <property name="Input black level">0=0</property>
   <property name="Input white level">0=0,65</property>
   <property name="Gamma">0=0,25</property>
   <property name="Black output">0=0</property>
   <property name="White output">0=1</property>
   <property name="Show histogram">0</property>
   <property name="Histogram position">0,3</property>
  </filter>
 </producer>
 <producer id="slowmotion:4:3:1:0" in="0" out="8289">
  <property name="length">8290</property>
  <property name="eof">pause</property>
  <property name="resource">3:/media/bordun/plagiat/2018-12-10_Plagiat_RespecteLaPuissancePapale/Carte_1/CAM1_2018-12-10_1615_C0003.mov</property>
  <property name="aspect_ratio">1</property>
  <property name="meta.media.nb_streams">3</property>
  <property name="meta.media.1.stream.type">video</property>
  <property name="meta.media.1.stream.frame_rate">50</property>
  <property name="meta.media.1.stream.sample_aspect_ratio">1</property>
  <property name="meta.media.1.codec.width">1920</property>
  <property name="meta.media.1.codec.height">1080</property>
  <property name="meta.media.1.codec.rotate">0</property>
  <property name="meta.media.1.codec.frame_rate">5000</property>
  <property name="meta.media.1.codec.pix_fmt">yuv422p10le</property>
  <property name="meta.media.1.codec.sample_aspect_ratio">0</property>
  <property name="meta.media.1.codec.colorspace">709</property>
  <property name="meta.media.1.codec.color_trc">1</property>
  <property name="meta.media.1.codec.name">prores</property>
  <property name="meta.media.1.codec.long_name">ProRes</property>
  <property name="meta.media.1.codec.bit_rate">366958409</property>
  <property name="meta.attr.1.stream.creation_time.markup">2018-12-10T16:15:42.000000Z</property>
  <property name="meta.attr.1.stream.language.markup">eng</property>
  <property name="meta.attr.1.stream.handler_name.markup">Apple Alias Data Handler</property>
  <property name="meta.attr.1.stream.encoder.markup">Apple ProRes 422 HQ</property>
  <property name="meta.attr.1.stream.timecode.markup">16:15:42:33</property>
  <property name="meta.media.2.stream.type">audio</property>
  <property name="meta.media.2.codec.sample_fmt">s32</property>
  <property name="meta.media.2.codec.sample_rate">48000</property>
  <property name="meta.media.2.codec.channels">2</property>
  <property name="meta.media.2.codec.name">pcm_s24le</property>
  <property name="meta.media.2.codec.long_name">PCM signed 24-bit little-endian</property>
  <property name="meta.media.2.codec.bit_rate">2304000</property>
  <property name="meta.attr.2.stream.creation_time.markup">2018-12-10T16:15:42.000000Z</property>
  <property name="meta.attr.2.stream.language.markup">eng</property>
  <property name="meta.attr.2.stream.handler_name.markup">Apple Alias Data Handler</property>
  <property name="meta.attr.2.stream.timecode.markup">16:15:42:33</property>
  <property name="meta.attr.com.apple.proapps.manufacturer.markup">Blackmagic Design</property>
  <property name="meta.attr.com.apple.proapps.cameraName.markup">CAM1</property>
  <property name="meta.attr.com.apple.proapps.isGood.markup">0</property>
  <property name="meta.attr.com.apple.proapps.customgamma.markup">com.blackmagic-design.cinemacamera.filmlog</property>
  <property name="meta.attr.com.blackmagic-design.cinemacamera.uuid.markup">18E5E00548F94923B646613A73C01B56</property>
  <property name="meta.attr.creation_time.markup">2018-12-10T16:15:42.000000Z</property>
  <property name="meta.attr.timecode.markup">16:15:42:33</property>
  <property name="seekable">1</property>
  <property name="meta.media.sample_aspect_num">1</property>
  <property name="meta.media.sample_aspect_den">1</property>
  <property name="audio_index">2</property>
  <property name="video_index">1</property>
  <property name="mute_on_pause">1</property>
  <property name="warp_speed">3</property>
  <property name="warp_resource">/media/bordun/plagiat/2018-12-10_Plagiat_RespecteLaPuissancePapale/Carte_1/CAM1_2018-12-10_1615_C0003.mov</property>
  <property name="mlt_service">timewarp</property>
  <property name="meta.media.frame_rate_num">50</property>
  <property name="meta.media.frame_rate_den">1</property>
  <property name="meta.media.colorspace">709</property>
  <property name="meta.media.color_trc">1</property>
  <property name="meta.media.width">1920</property>
  <property name="meta.media.height">1080</property>
  <property name="meta.media.top_field_first">0</property>
  <property name="meta.media.progressive">1</property>
  <filter id="filter48">
   <property name="version">0,1</property>
   <property name="mlt_service">frei0r.colgate</property>
   <property name="kdenlive_id">frei0r.colgate</property>
   <property name="tag">frei0r.colgate</property>
   <property name="kdenlive_ix">1</property>
   <property name="kdenlive_info"/>
   <property name="Neutral Color">0x7f7f7fff</property>
   <property name="Color Temperature">0=0,5</property>
  </filter>
  <filter id="filter49">
   <property name="version">0,3</property>
   <property name="mlt_service">frei0r.levels</property>
   <property name="kdenlive_id">frei0r.levels</property>
   <property name="tag">frei0r.levels</property>
   <property name="kdenlive_ix">2</property>
   <property name="kdenlive_info"/>
   <property name="Channel">0,3</property>
   <property name="Input black level">0=0</property>
   <property name="Input white level">0=0,65</property>
   <property name="Gamma">0=0,25</property>
   <property name="Black output">0=0</property>
   <property name="White output">0=1</property>
   <property name="Show histogram">0</property>
   <property name="Histogram position">0,3</property>
  </filter>
 </producer>
 <playlist id="playlist5">
  <property name="kdenlive:track_name">Vidéo 3</property>
  <blank length="781"/>
  <entry producer="5_playlist5" in="15227" out="15542"/>
  <blank length="54"/>
  <entry producer="slowmotion:5:2:1:0" in="7799" out="7820"/>
  <entry producer="slowmotion:5:0,5:1:0" in="31284" out="31337"/>
  <entry producer="5_playlist5" in="15673" out="15945"/>
  <entry producer="5_playlist5" in="15946" out="16074">
   <filter id="filter50" in="15946" out="16074">
    <property name="background">colour:0x00000000</property>
    <property name="mlt_service">affine</property>
    <property name="kdenlive_id">pan_zoom</property>
    <property name="tag">affine</property>
    <property name="kdenlive_ix">1</property>
    <property name="transition.geometry">-192/-108:2304x1296:100</property>
    <property name="transition.distort">0</property>
    <property name="kdenlive:sync_in_out">1</property>
    <property name="kdenlive_info"/>
   </filter>
  </entry>
  <blank length="88"/>
  <entry producer="5_playlist5" in="16163" out="16239"/>
  <entry producer="5_playlist5" in="16240" out="16304"/>
  <blank length="5"/>
  <entry producer="5_playlist5" in="16313" out="16474"/>
  <blank length="12"/>
  <entry producer="5_playlist5" in="16484" out="16592"/>
  <blank length="204"/>
  <entry producer="5_playlist5" in="16797" out="16846"/>
  <blank length="282"/>
  <entry producer="5_playlist5" in="17124" out="17279"/>
  <blank length="64"/>
  <entry producer="5_playlist5" in="17344" out="18055"/>
  <blank length="244"/>
  <entry producer="5_playlist5" in="16942" out="17123">
   <filter id="filter51">
    <property name="background">colour:0x00000000</property>
    <property name="mlt_service">affine</property>
    <property name="kdenlive_id">pan_zoom</property>
    <property name="tag">affine</property>
    <property name="kdenlive_ix">1</property>
    <property name="kdenlive_info"/>
    <property name="disable"/>
    <property name="transition.geometry">0=-344/-222:2880x1620:100;33=-344/-222:2880x1620:100;41=-96/-54:2112x1188:100</property>
    <property name="transition.distort">0</property>
   </filter>
  </entry>
  <blank length="1485"/>
  <entry producer="slowmotion:4:3:1:0" in="2995" out="3181">
   <filter id="mirror">
    <property name="mirror">flip</property>
    <property name="mlt_service">mirror</property>
    <property name="kdenlive_id">mirror</property>
    <property name="tag">mirror</property>
    <property name="kdenlive_ix">2</property>
    <property name="reverse">0</property>
    <property name="kdenlive_info"/>
   </filter>
  </entry>
  <blank length="13"/>
  <entry producer="slowmotion:4:3:1:0" in="3175" out="3183"/>
 </playlist>
 <producer id="slowmotion:4:2,5:1:0" in="0" out="9947">
  <property name="length">9948</property>
  <property name="eof">pause</property>
  <property name="resource">2,5:/media/bordun/plagiat/2018-12-10_Plagiat_RespecteLaPuissancePapale/Carte_1/CAM1_2018-12-10_1615_C0003.mov</property>
  <property name="aspect_ratio">1</property>
  <property name="meta.media.nb_streams">3</property>
  <property name="meta.media.1.stream.type">video</property>
  <property name="meta.media.1.stream.frame_rate">50</property>
  <property name="meta.media.1.stream.sample_aspect_ratio">1</property>
  <property name="meta.media.1.codec.width">1920</property>
  <property name="meta.media.1.codec.height">1080</property>
  <property name="meta.media.1.codec.rotate">0</property>
  <property name="meta.media.1.codec.frame_rate">5000</property>
  <property name="meta.media.1.codec.pix_fmt">yuv422p10le</property>
  <property name="meta.media.1.codec.sample_aspect_ratio">0</property>
  <property name="meta.media.1.codec.colorspace">709</property>
  <property name="meta.media.1.codec.color_trc">1</property>
  <property name="meta.media.1.codec.name">prores</property>
  <property name="meta.media.1.codec.long_name">ProRes</property>
  <property name="meta.media.1.codec.bit_rate">366958409</property>
  <property name="meta.attr.1.stream.creation_time.markup">2018-12-10T16:15:42.000000Z</property>
  <property name="meta.attr.1.stream.language.markup">eng</property>
  <property name="meta.attr.1.stream.handler_name.markup">Apple Alias Data Handler</property>
  <property name="meta.attr.1.stream.encoder.markup">Apple ProRes 422 HQ</property>
  <property name="meta.attr.1.stream.timecode.markup">16:15:42:33</property>
  <property name="meta.media.2.stream.type">audio</property>
  <property name="meta.media.2.codec.sample_fmt">s32</property>
  <property name="meta.media.2.codec.sample_rate">48000</property>
  <property name="meta.media.2.codec.channels">2</property>
  <property name="meta.media.2.codec.name">pcm_s24le</property>
  <property name="meta.media.2.codec.long_name">PCM signed 24-bit little-endian</property>
  <property name="meta.media.2.codec.bit_rate">2304000</property>
  <property name="meta.attr.2.stream.creation_time.markup">2018-12-10T16:15:42.000000Z</property>
  <property name="meta.attr.2.stream.language.markup">eng</property>
  <property name="meta.attr.2.stream.handler_name.markup">Apple Alias Data Handler</property>
  <property name="meta.attr.2.stream.timecode.markup">16:15:42:33</property>
  <property name="meta.attr.com.apple.proapps.manufacturer.markup">Blackmagic Design</property>
  <property name="meta.attr.com.apple.proapps.cameraName.markup">CAM1</property>
  <property name="meta.attr.com.apple.proapps.isGood.markup">0</property>
  <property name="meta.attr.com.apple.proapps.customgamma.markup">com.blackmagic-design.cinemacamera.filmlog</property>
  <property name="meta.attr.com.blackmagic-design.cinemacamera.uuid.markup">18E5E00548F94923B646613A73C01B56</property>
  <property name="meta.attr.creation_time.markup">2018-12-10T16:15:42.000000Z</property>
  <property name="meta.attr.timecode.markup">16:15:42:33</property>
  <property name="seekable">1</property>
  <property name="meta.media.sample_aspect_num">1</property>
  <property name="meta.media.sample_aspect_den">1</property>
  <property name="audio_index">2</property>
  <property name="video_index">1</property>
  <property name="mute_on_pause">1</property>
  <property name="warp_speed">2,5</property>
  <property name="warp_resource">/media/bordun/plagiat/2018-12-10_Plagiat_RespecteLaPuissancePapale/Carte_1/CAM1_2018-12-10_1615_C0003.mov</property>
  <property name="mlt_service">timewarp</property>
  <property name="meta.media.frame_rate_num">50</property>
  <property name="meta.media.frame_rate_den">1</property>
  <property name="meta.media.colorspace">709</property>
  <property name="meta.media.color_trc">1</property>
  <property name="meta.media.width">1920</property>
  <property name="meta.media.height">1080</property>
  <property name="meta.media.top_field_first">0</property>
  <property name="meta.media.progressive">1</property>
  <filter id="filter52">
   <property name="version">0,1</property>
   <property name="mlt_service">frei0r.colgate</property>
   <property name="kdenlive_id">frei0r.colgate</property>
   <property name="tag">frei0r.colgate</property>
   <property name="kdenlive_ix">1</property>
   <property name="kdenlive_info"/>
   <property name="Neutral Color">0x7f7f7fff</property>
   <property name="Color Temperature">0=0,5</property>
  </filter>
  <filter id="filter53">
   <property name="version">0,3</property>
   <property name="mlt_service">frei0r.levels</property>
   <property name="kdenlive_id">frei0r.levels</property>
   <property name="tag">frei0r.levels</property>
   <property name="kdenlive_ix">2</property>
   <property name="kdenlive_info"/>
   <property name="Channel">0,3</property>
   <property name="Input black level">0=0</property>
   <property name="Input white level">0=0,65</property>
   <property name="Gamma">0=0,25</property>
   <property name="Black output">0=0</property>
   <property name="White output">0=1</property>
   <property name="Show histogram">0</property>
   <property name="Histogram position">0,3</property>
  </filter>
 </producer>
 <producer title="Anonymous Submission" id="4_playlist0" in="0" out="24870">
  <property name="length">00:08:17:21</property>
  <property name="eof">pause</property>
  <property name="resource">/media/bordun/plagiat/2018-12-10_Plagiat_RespecteLaPuissancePapale/Carte_1/CAM1_2018-12-10_1615_C0003.mov</property>
  <property name="audio_index">2</property>
  <property name="video_index">1</property>
  <property name="mute_on_pause">1</property>
  <property name="mlt_service">avformat-novalidate</property>
  <property name="seekable">1</property>
  <property name="aspect_ratio">1</property>
  <property name="kdenlive:folderid">9</property>
  <property name="kdenlive:file_size">22962054105</property>
  <property name="kdenlive:file_hash">c46129788c0a47f07299f13c18fcc857</property>
  <property name="global_feed">1</property>
  <property name="xml">was here</property>
  <property name="meta.media.nb_streams">3</property>
  <property name="meta.media.1.stream.type">video</property>
  <property name="meta.media.1.stream.frame_rate">50</property>
  <property name="meta.media.1.stream.sample_aspect_ratio">1</property>
  <property name="meta.media.1.codec.width">1920</property>
  <property name="meta.media.1.codec.height">1080</property>
  <property name="meta.media.1.codec.rotate">0</property>
  <property name="meta.media.1.codec.frame_rate">5000</property>
  <property name="meta.media.1.codec.pix_fmt">yuv422p10le</property>
  <property name="meta.media.1.codec.sample_aspect_ratio">0</property>
  <property name="meta.media.1.codec.colorspace">709</property>
  <property name="meta.media.1.codec.name">prores</property>
  <property name="meta.media.1.codec.long_name">ProRes</property>
  <property name="meta.media.1.codec.bit_rate">366958409</property>
  <property name="meta.attr.1.stream.creation_time.markup">2018-12-10T16:15:42.000000Z</property>
  <property name="meta.attr.1.stream.language.markup">eng</property>
  <property name="meta.attr.1.stream.handler_name.markup">Apple Alias Data Handler</property>
  <property name="meta.attr.1.stream.encoder.markup">Apple ProRes 422 HQ</property>
  <property name="meta.attr.1.stream.timecode.markup">16:15:42:33</property>
  <property name="meta.media.2.stream.type">audio</property>
  <property name="meta.media.2.codec.sample_fmt">s32</property>
  <property name="meta.media.2.codec.sample_rate">48000</property>
  <property name="meta.media.2.codec.channels">2</property>
  <property name="meta.media.2.codec.name">pcm_s24le</property>
  <property name="meta.media.2.codec.long_name">PCM signed 24-bit little-endian</property>
  <property name="meta.media.2.codec.bit_rate">2304000</property>
  <property name="meta.attr.2.stream.creation_time.markup">2018-12-10T16:15:42.000000Z</property>
  <property name="meta.attr.2.stream.language.markup">eng</property>
  <property name="meta.attr.2.stream.handler_name.markup">Apple Alias Data Handler</property>
  <property name="meta.attr.2.stream.timecode.markup">16:15:42:33</property>
  <property name="meta.attr.com.apple.proapps.manufacturer.markup">Blackmagic Design</property>
  <property name="meta.attr.com.apple.proapps.cameraName.markup">CAM1</property>
  <property name="meta.attr.com.apple.proapps.isGood.markup">0</property>
  <property name="meta.attr.com.apple.proapps.customgamma.markup">com.blackmagic-design.cinemacamera.filmlog</property>
  <property name="meta.attr.com.blackmagic-design.cinemacamera.uuid.markup">18E5E00548F94923B646613A73C01B56</property>
  <property name="meta.attr.creation_time.markup">2018-12-10T16:15:42.000000Z</property>
  <property name="meta.attr.timecode.markup">16:15:42:33</property>
  <property name="meta.media.sample_aspect_num">1</property>
  <property name="meta.media.sample_aspect_den">1</property>
  <property name="meta.media.frame_rate_num">50</property>
  <property name="meta.media.frame_rate_den">1</property>
  <property name="meta.media.colorspace">709</property>
  <property name="meta.media.color_trc">1</property>
  <property name="meta.media.width">1920</property>
  <property name="meta.media.height">1080</property>
  <property name="meta.media.top_field_first">0</property>
  <property name="meta.media.progressive">1</property>
  <property name="meta.media.1.codec.color_trc">1</property>
  <filter id="filter54">
   <property name="version">0,1</property>
   <property name="mlt_service">frei0r.colgate</property>
   <property name="kdenlive_id">frei0r.colgate</property>
   <property name="tag">frei0r.colgate</property>
   <property name="kdenlive_ix">1</property>
   <property name="kdenlive_info"/>
   <property name="Neutral Color">0x7f7f7fff</property>
   <property name="Color Temperature">0=0,5</property>
  </filter>
  <filter id="filter55">
   <property name="version">0,3</property>
   <property name="mlt_service">frei0r.levels</property>
   <property name="kdenlive_id">frei0r.levels</property>
   <property name="tag">frei0r.levels</property>
   <property name="kdenlive_ix">2</property>
   <property name="kdenlive_info"/>
   <property name="Channel">0,3</property>
   <property name="Input black level">0=0</property>
   <property name="Input white level">0=0,65</property>
   <property name="Gamma">0=0,25</property>
   <property name="Black output">0=0</property>
   <property name="White output">0=1</property>
   <property name="Show histogram">0</property>
   <property name="Histogram position">0,3</property>
  </filter>
 </producer>
 <producer title="Anonymous Submission" id="6_playlist0" in="0" out="4178">
  <property name="length">00:01:23:29</property>
  <property name="eof">pause</property>
  <property name="resource">/media/bordun/plagiat/2018-12-10_Plagiat_RespecteLaPuissancePapale/Carte_2/CAM1_2018-12-10_1638_C0001.mov</property>
  <property name="audio_index">2</property>
  <property name="video_index">1</property>
  <property name="mute_on_pause">1</property>
  <property name="mlt_service">avformat-novalidate</property>
  <property name="seekable">1</property>
  <property name="aspect_ratio">1</property>
  <property name="kdenlive:folderid">10</property>
  <property name="kdenlive:file_size">3858252521</property>
  <property name="kdenlive:file_hash">5c73d3cae02de055fc4255e57a85a699</property>
  <property name="global_feed">1</property>
  <property name="xml">was here</property>
  <property name="meta.media.nb_streams">3</property>
  <property name="meta.media.1.stream.type">video</property>
  <property name="meta.media.1.stream.frame_rate">50</property>
  <property name="meta.media.1.stream.sample_aspect_ratio">1</property>
  <property name="meta.media.1.codec.width">1920</property>
  <property name="meta.media.1.codec.height">1080</property>
  <property name="meta.media.1.codec.rotate">0</property>
  <property name="meta.media.1.codec.frame_rate">5000</property>
  <property name="meta.media.1.codec.pix_fmt">yuv422p10le</property>
  <property name="meta.media.1.codec.sample_aspect_ratio">0</property>
  <property name="meta.media.1.codec.colorspace">709</property>
  <property name="meta.media.1.codec.name">prores</property>
  <property name="meta.media.1.codec.long_name">ProRes</property>
  <property name="meta.media.1.codec.bit_rate">366955515</property>
  <property name="meta.attr.1.stream.creation_time.markup">2018-12-10T16:38:23.000000Z</property>
  <property name="meta.attr.1.stream.language.markup">eng</property>
  <property name="meta.attr.1.stream.handler_name.markup">Apple Alias Data Handler</property>
  <property name="meta.attr.1.stream.encoder.markup">Apple ProRes 422 HQ</property>
  <property name="meta.attr.1.stream.timecode.markup">16:38:23:16</property>
  <property name="meta.media.2.stream.type">audio</property>
  <property name="meta.media.2.codec.sample_fmt">s32</property>
  <property name="meta.media.2.codec.sample_rate">48000</property>
  <property name="meta.media.2.codec.channels">2</property>
  <property name="meta.media.2.codec.name">pcm_s24le</property>
  <property name="meta.media.2.codec.long_name">PCM signed 24-bit little-endian</property>
  <property name="meta.media.2.codec.bit_rate">2304000</property>
  <property name="meta.attr.2.stream.creation_time.markup">2018-12-10T16:38:23.000000Z</property>
  <property name="meta.attr.2.stream.language.markup">eng</property>
  <property name="meta.attr.2.stream.handler_name.markup">Apple Alias Data Handler</property>
  <property name="meta.attr.2.stream.timecode.markup">16:38:23:16</property>
  <property name="meta.attr.com.apple.proapps.manufacturer.markup">Blackmagic Design</property>
  <property name="meta.attr.com.apple.proapps.cameraName.markup">CAM1</property>
  <property name="meta.attr.com.apple.proapps.isGood.markup">0</property>
  <property name="meta.attr.com.apple.proapps.customgamma.markup">com.blackmagic-design.cinemacamera.filmlog</property>
  <property name="meta.attr.com.blackmagic-design.cinemacamera.uuid.markup">18E5E00548F94923B646613A73C01B56</property>
  <property name="meta.attr.creation_time.markup">2018-12-10T16:38:23.000000Z</property>
  <property name="meta.attr.timecode.markup">16:38:23:16</property>
  <property name="meta.media.sample_aspect_num">1</property>
  <property name="meta.media.sample_aspect_den">1</property>
  <property name="meta.media.frame_rate_num">50</property>
  <property name="meta.media.frame_rate_den">1</property>
  <property name="meta.media.colorspace">709</property>
  <property name="meta.media.color_trc">1</property>
  <property name="meta.media.width">1920</property>
  <property name="meta.media.height">1080</property>
  <property name="meta.media.top_field_first">0</property>
  <property name="meta.media.progressive">1</property>
  <property name="meta.media.1.codec.color_trc">1</property>
  <filter id="filter56">
   <property name="version">0,1</property>
   <property name="mlt_service">frei0r.colgate</property>
   <property name="kdenlive_id">frei0r.colgate</property>
   <property name="tag">frei0r.colgate</property>
   <property name="kdenlive_ix">1</property>
   <property name="kdenlive_info"/>
   <property name="Neutral Color">0x7f7f7fff</property>
   <property name="Color Temperature">0=0,5</property>
  </filter>
  <filter id="filter57">
   <property name="version">0,3</property>
   <property name="mlt_service">frei0r.levels</property>
   <property name="kdenlive_id">frei0r.levels</property>
   <property name="tag">frei0r.levels</property>
   <property name="kdenlive_ix">2</property>
   <property name="kdenlive_info"/>
   <property name="Channel">0,3</property>
   <property name="Input black level">0=0</property>
   <property name="Input white level">0=0,65</property>
   <property name="Gamma">0=0,25</property>
   <property name="Black output">0=0</property>
   <property name="White output">0=1</property>
   <property name="Show histogram">0</property>
   <property name="Histogram position">0,3</property>
  </filter>
 </producer>
 <producer id="slowmotion:4:2:1:0" in="0" out="12434">
  <property name="length">12435</property>
  <property name="eof">pause</property>
  <property name="resource">2:/media/bordun/plagiat/2018-12-10_Plagiat_RespecteLaPuissancePapale/Carte_1/CAM1_2018-12-10_1615_C0003.mov</property>
  <property name="aspect_ratio">1</property>
  <property name="meta.media.nb_streams">3</property>
  <property name="meta.media.1.stream.type">video</property>
  <property name="meta.media.1.stream.frame_rate">50</property>
  <property name="meta.media.1.stream.sample_aspect_ratio">1</property>
  <property name="meta.media.1.codec.width">1920</property>
  <property name="meta.media.1.codec.height">1080</property>
  <property name="meta.media.1.codec.rotate">0</property>
  <property name="meta.media.1.codec.frame_rate">5000</property>
  <property name="meta.media.1.codec.pix_fmt">yuv422p10le</property>
  <property name="meta.media.1.codec.sample_aspect_ratio">0</property>
  <property name="meta.media.1.codec.colorspace">709</property>
  <property name="meta.media.1.codec.color_trc">1</property>
  <property name="meta.media.1.codec.name">prores</property>
  <property name="meta.media.1.codec.long_name">ProRes</property>
  <property name="meta.media.1.codec.bit_rate">366958409</property>
  <property name="meta.attr.1.stream.creation_time.markup">2018-12-10T16:15:42.000000Z</property>
  <property name="meta.attr.1.stream.language.markup">eng</property>
  <property name="meta.attr.1.stream.handler_name.markup">Apple Alias Data Handler</property>
  <property name="meta.attr.1.stream.encoder.markup">Apple ProRes 422 HQ</property>
  <property name="meta.attr.1.stream.timecode.markup">16:15:42:33</property>
  <property name="meta.media.2.stream.type">audio</property>
  <property name="meta.media.2.codec.sample_fmt">s32</property>
  <property name="meta.media.2.codec.sample_rate">48000</property>
  <property name="meta.media.2.codec.channels">2</property>
  <property name="meta.media.2.codec.name">pcm_s24le</property>
  <property name="meta.media.2.codec.long_name">PCM signed 24-bit little-endian</property>
  <property name="meta.media.2.codec.bit_rate">2304000</property>
  <property name="meta.attr.2.stream.creation_time.markup">2018-12-10T16:15:42.000000Z</property>
  <property name="meta.attr.2.stream.language.markup">eng</property>
  <property name="meta.attr.2.stream.handler_name.markup">Apple Alias Data Handler</property>
  <property name="meta.attr.2.stream.timecode.markup">16:15:42:33</property>
  <property name="meta.attr.com.apple.proapps.manufacturer.markup">Blackmagic Design</property>
  <property name="meta.attr.com.apple.proapps.cameraName.markup">CAM1</property>
  <property name="meta.attr.com.apple.proapps.isGood.markup">0</property>
  <property name="meta.attr.com.apple.proapps.customgamma.markup">com.blackmagic-design.cinemacamera.filmlog</property>
  <property name="meta.attr.com.blackmagic-design.cinemacamera.uuid.markup">18E5E00548F94923B646613A73C01B56</property>
  <property name="meta.attr.creation_time.markup">2018-12-10T16:15:42.000000Z</property>
  <property name="meta.attr.timecode.markup">16:15:42:33</property>
  <property name="seekable">1</property>
  <property name="meta.media.sample_aspect_num">1</property>
  <property name="meta.media.sample_aspect_den">1</property>
  <property name="audio_index">2</property>
  <property name="video_index">1</property>
  <property name="mute_on_pause">1</property>
  <property name="warp_speed">2</property>
  <property name="warp_resource">/media/bordun/plagiat/2018-12-10_Plagiat_RespecteLaPuissancePapale/Carte_1/CAM1_2018-12-10_1615_C0003.mov</property>
  <property name="mlt_service">timewarp</property>
  <property name="meta.media.frame_rate_num">50</property>
  <property name="meta.media.frame_rate_den">1</property>
  <property name="meta.media.colorspace">709</property>
  <property name="meta.media.color_trc">1</property>
  <property name="meta.media.width">1920</property>
  <property name="meta.media.height">1080</property>
  <property name="meta.media.top_field_first">0</property>
  <property name="meta.media.progressive">1</property>
  <filter id="filter58">
   <property name="version">0,1</property>
   <property name="mlt_service">frei0r.colgate</property>
   <property name="kdenlive_id">frei0r.colgate</property>
   <property name="tag">frei0r.colgate</property>
   <property name="kdenlive_ix">1</property>
   <property name="kdenlive_info"/>
   <property name="Neutral Color">0x7f7f7fff</property>
   <property name="Color Temperature">0=0,5</property>
  </filter>
  <filter id="filter59">
   <property name="version">0,3</property>
   <property name="mlt_service">frei0r.levels</property>
   <property name="kdenlive_id">frei0r.levels</property>
   <property name="tag">frei0r.levels</property>
   <property name="kdenlive_ix">2</property>
   <property name="kdenlive_info"/>
   <property name="Channel">0,3</property>
   <property name="Input black level">0=0</property>
   <property name="Input white level">0=0,65</property>
   <property name="Gamma">0=0,25</property>
   <property name="Black output">0=0</property>
   <property name="White output">0=1</property>
   <property name="Show histogram">0</property>
   <property name="Histogram position">0,3</property>
  </filter>
 </producer>
 <producer id="slowmotion:6:0,94:1:0" in="0" out="4445">
  <property name="length">4446</property>
  <property name="eof">pause</property>
  <property name="resource">0,94:/media/bordun/plagiat/2018-12-10_Plagiat_RespecteLaPuissancePapale/Carte_2/CAM1_2018-12-10_1638_C0001.mov</property>
  <property name="aspect_ratio">1</property>
  <property name="meta.media.nb_streams">3</property>
  <property name="meta.media.1.stream.type">video</property>
  <property name="meta.media.1.stream.frame_rate">50</property>
  <property name="meta.media.1.stream.sample_aspect_ratio">1</property>
  <property name="meta.media.1.codec.width">1920</property>
  <property name="meta.media.1.codec.height">1080</property>
  <property name="meta.media.1.codec.rotate">0</property>
  <property name="meta.media.1.codec.frame_rate">5000</property>
  <property name="meta.media.1.codec.pix_fmt">yuv422p10le</property>
  <property name="meta.media.1.codec.sample_aspect_ratio">0</property>
  <property name="meta.media.1.codec.colorspace">709</property>
  <property name="meta.media.1.codec.color_trc">1</property>
  <property name="meta.media.1.codec.name">prores</property>
  <property name="meta.media.1.codec.long_name">ProRes</property>
  <property name="meta.media.1.codec.bit_rate">366955515</property>
  <property name="meta.attr.1.stream.creation_time.markup">2018-12-10T16:38:23.000000Z</property>
  <property name="meta.attr.1.stream.language.markup">eng</property>
  <property name="meta.attr.1.stream.handler_name.markup">Apple Alias Data Handler</property>
  <property name="meta.attr.1.stream.encoder.markup">Apple ProRes 422 HQ</property>
  <property name="meta.attr.1.stream.timecode.markup">16:38:23:16</property>
  <property name="meta.media.2.stream.type">audio</property>
  <property name="meta.media.2.codec.sample_fmt">s32</property>
  <property name="meta.media.2.codec.sample_rate">48000</property>
  <property name="meta.media.2.codec.channels">2</property>
  <property name="meta.media.2.codec.name">pcm_s24le</property>
  <property name="meta.media.2.codec.long_name">PCM signed 24-bit little-endian</property>
  <property name="meta.media.2.codec.bit_rate">2304000</property>
  <property name="meta.attr.2.stream.creation_time.markup">2018-12-10T16:38:23.000000Z</property>
  <property name="meta.attr.2.stream.language.markup">eng</property>
  <property name="meta.attr.2.stream.handler_name.markup">Apple Alias Data Handler</property>
  <property name="meta.attr.2.stream.timecode.markup">16:38:23:16</property>
  <property name="meta.attr.com.apple.proapps.manufacturer.markup">Blackmagic Design</property>
  <property name="meta.attr.com.apple.proapps.cameraName.markup">CAM1</property>
  <property name="meta.attr.com.apple.proapps.isGood.markup">0</property>
  <property name="meta.attr.com.apple.proapps.customgamma.markup">com.blackmagic-design.cinemacamera.filmlog</property>
  <property name="meta.attr.com.blackmagic-design.cinemacamera.uuid.markup">18E5E00548F94923B646613A73C01B56</property>
  <property name="meta.attr.creation_time.markup">2018-12-10T16:38:23.000000Z</property>
  <property name="meta.attr.timecode.markup">16:38:23:16</property>
  <property name="seekable">1</property>
  <property name="meta.media.sample_aspect_num">1</property>
  <property name="meta.media.sample_aspect_den">1</property>
  <property name="audio_index">2</property>
  <property name="video_index">1</property>
  <property name="mute_on_pause">1</property>
  <property name="warp_speed">0,94</property>
  <property name="warp_resource">/media/bordun/plagiat/2018-12-10_Plagiat_RespecteLaPuissancePapale/Carte_2/CAM1_2018-12-10_1638_C0001.mov</property>
  <property name="mlt_service">timewarp</property>
  <property name="meta.media.frame_rate_num">50</property>
  <property name="meta.media.frame_rate_den">1</property>
  <property name="meta.media.colorspace">709</property>
  <property name="meta.media.color_trc">1</property>
  <property name="meta.media.width">1920</property>
  <property name="meta.media.height">1080</property>
  <property name="meta.media.top_field_first">0</property>
  <property name="meta.media.progressive">1</property>
  <filter id="filter60">
   <property name="version">0,1</property>
   <property name="mlt_service">frei0r.colgate</property>
   <property name="kdenlive_id">frei0r.colgate</property>
   <property name="tag">frei0r.colgate</property>
   <property name="kdenlive_ix">1</property>
   <property name="kdenlive_info"/>
   <property name="Neutral Color">0x7f7f7fff</property>
   <property name="Color Temperature">0=0,5</property>
  </filter>
  <filter id="filter61">
   <property name="version">0,3</property>
   <property name="mlt_service">frei0r.levels</property>
   <property name="kdenlive_id">frei0r.levels</property>
   <property name="tag">frei0r.levels</property>
   <property name="kdenlive_ix">2</property>
   <property name="kdenlive_info"/>
   <property name="Channel">0,3</property>
   <property name="Input black level">0=0</property>
   <property name="Input white level">0=0,65</property>
   <property name="Gamma">0=0,25</property>
   <property name="Black output">0=0</property>
   <property name="White output">0=1</property>
   <property name="Show histogram">0</property>
   <property name="Histogram position">0,3</property>
  </filter>
 </producer>
 <producer title="Anonymous Submission" id="5_playlist0" in="0" out="19246">
  <property name="length">00:06:24:47</property>
  <property name="eof">pause</property>
  <property name="resource">/media/bordun/plagiat/2018-12-10_Plagiat_RespecteLaPuissancePapale/Carte_2/CAM1_2018-12-10_1629_C0000.mov</property>
  <property name="audio_index">2</property>
  <property name="video_index">1</property>
  <property name="mute_on_pause">1</property>
  <property name="mlt_service">avformat-novalidate</property>
  <property name="seekable">1</property>
  <property name="aspect_ratio">1</property>
  <property name="kdenlive:folderid">9</property>
  <property name="kdenlive:file_size">17769713233</property>
  <property name="kdenlive:file_hash">40fd95546ae131f6c5881d8660dbcccc</property>
  <property name="global_feed">1</property>
  <property name="xml">was here</property>
  <property name="meta.media.nb_streams">3</property>
  <property name="meta.media.1.stream.type">video</property>
  <property name="meta.media.1.stream.frame_rate">50</property>
  <property name="meta.media.1.stream.sample_aspect_ratio">1</property>
  <property name="meta.media.1.codec.width">1920</property>
  <property name="meta.media.1.codec.height">1080</property>
  <property name="meta.media.1.codec.rotate">0</property>
  <property name="meta.media.1.codec.frame_rate">5000</property>
  <property name="meta.media.1.codec.pix_fmt">yuv422p10le</property>
  <property name="meta.media.1.codec.sample_aspect_ratio">0</property>
  <property name="meta.media.1.codec.colorspace">709</property>
  <property name="meta.media.1.codec.name">prores</property>
  <property name="meta.media.1.codec.long_name">ProRes</property>
  <property name="meta.media.1.codec.bit_rate">366959020</property>
  <property name="meta.attr.1.stream.creation_time.markup">2018-12-10T16:29:10.000000Z</property>
  <property name="meta.attr.1.stream.language.markup">eng</property>
  <property name="meta.attr.1.stream.handler_name.markup">Apple Alias Data Handler</property>
  <property name="meta.attr.1.stream.encoder.markup">Apple ProRes 422 HQ</property>
  <property name="meta.attr.1.stream.timecode.markup">16:29:10:24</property>
  <property name="meta.media.2.stream.type">audio</property>
  <property name="meta.media.2.codec.sample_fmt">s32</property>
  <property name="meta.media.2.codec.sample_rate">48000</property>
  <property name="meta.media.2.codec.channels">2</property>
  <property name="meta.media.2.codec.name">pcm_s24le</property>
  <property name="meta.media.2.codec.long_name">PCM signed 24-bit little-endian</property>
  <property name="meta.media.2.codec.bit_rate">2304000</property>
  <property name="meta.attr.2.stream.creation_time.markup">2018-12-10T16:29:10.000000Z</property>
  <property name="meta.attr.2.stream.language.markup">eng</property>
  <property name="meta.attr.2.stream.handler_name.markup">Apple Alias Data Handler</property>
  <property name="meta.attr.2.stream.timecode.markup">16:29:10:24</property>
  <property name="meta.attr.com.apple.proapps.manufacturer.markup">Blackmagic Design</property>
  <property name="meta.attr.com.apple.proapps.cameraName.markup">CAM1</property>
  <property name="meta.attr.com.apple.proapps.isGood.markup">0</property>
  <property name="meta.attr.com.apple.proapps.customgamma.markup">com.blackmagic-design.cinemacamera.filmlog</property>
  <property name="meta.attr.com.blackmagic-design.cinemacamera.uuid.markup">18E5E00548F94923B646613A73C01B56</property>
  <property name="meta.attr.creation_time.markup">2018-12-10T16:29:10.000000Z</property>
  <property name="meta.attr.timecode.markup">16:29:10:24</property>
  <property name="meta.media.sample_aspect_num">1</property>
  <property name="meta.media.sample_aspect_den">1</property>
  <property name="meta.media.frame_rate_num">50</property>
  <property name="meta.media.frame_rate_den">1</property>
  <property name="meta.media.colorspace">709</property>
  <property name="meta.media.color_trc">1</property>
  <property name="meta.media.width">1920</property>
  <property name="meta.media.height">1080</property>
  <property name="meta.media.top_field_first">0</property>
  <property name="meta.media.progressive">1</property>
  <property name="meta.media.1.codec.color_trc">1</property>
  <filter id="filter62">
   <property name="version">0,1</property>
   <property name="mlt_service">frei0r.colgate</property>
   <property name="kdenlive_id">frei0r.colgate</property>
   <property name="tag">frei0r.colgate</property>
   <property name="kdenlive_ix">1</property>
   <property name="kdenlive_info"/>
   <property name="Neutral Color">0x7f7f7fff</property>
   <property name="Color Temperature">0=0,5</property>
   <property name="disable">0</property>
  </filter>
  <filter id="filter63">
   <property name="version">0,3</property>
   <property name="mlt_service">frei0r.levels</property>
   <property name="kdenlive_id">frei0r.levels</property>
   <property name="tag">frei0r.levels</property>
   <property name="kdenlive_ix">2</property>
   <property name="kdenlive_info"/>
   <property name="Channel">0,3</property>
   <property name="Input black level">0=0</property>
   <property name="Input white level">0=0,65</property>
   <property name="Gamma">0=0,25</property>
   <property name="Black output">0=0</property>
   <property name="White output">0=1</property>
   <property name="Show histogram">0</property>
   <property name="Histogram position">0,3</property>
  </filter>
 </producer>
 <producer id="slowmotion:6:0,5:1:0" in="0" out="8357">
  <property name="length">8358</property>
  <property name="eof">pause</property>
  <property name="resource">0,5:/media/bordun/plagiat/2018-12-10_Plagiat_RespecteLaPuissancePapale/Carte_2/CAM1_2018-12-10_1638_C0001.mov</property>
  <property name="aspect_ratio">1</property>
  <property name="meta.media.nb_streams">3</property>
  <property name="meta.media.1.stream.type">video</property>
  <property name="meta.media.1.stream.frame_rate">50</property>
  <property name="meta.media.1.stream.sample_aspect_ratio">1</property>
  <property name="meta.media.1.codec.width">1920</property>
  <property name="meta.media.1.codec.height">1080</property>
  <property name="meta.media.1.codec.rotate">0</property>
  <property name="meta.media.1.codec.frame_rate">5000</property>
  <property name="meta.media.1.codec.pix_fmt">yuv422p10le</property>
  <property name="meta.media.1.codec.sample_aspect_ratio">0</property>
  <property name="meta.media.1.codec.colorspace">709</property>
  <property name="meta.media.1.codec.color_trc">1</property>
  <property name="meta.media.1.codec.name">prores</property>
  <property name="meta.media.1.codec.long_name">ProRes</property>
  <property name="meta.media.1.codec.bit_rate">366955515</property>
  <property name="meta.attr.1.stream.creation_time.markup">2018-12-10T16:38:23.000000Z</property>
  <property name="meta.attr.1.stream.language.markup">eng</property>
  <property name="meta.attr.1.stream.handler_name.markup">Apple Alias Data Handler</property>
  <property name="meta.attr.1.stream.encoder.markup">Apple ProRes 422 HQ</property>
  <property name="meta.attr.1.stream.timecode.markup">16:38:23:16</property>
  <property name="meta.media.2.stream.type">audio</property>
  <property name="meta.media.2.codec.sample_fmt">s32</property>
  <property name="meta.media.2.codec.sample_rate">48000</property>
  <property name="meta.media.2.codec.channels">2</property>
  <property name="meta.media.2.codec.name">pcm_s24le</property>
  <property name="meta.media.2.codec.long_name">PCM signed 24-bit little-endian</property>
  <property name="meta.media.2.codec.bit_rate">2304000</property>
  <property name="meta.attr.2.stream.creation_time.markup">2018-12-10T16:38:23.000000Z</property>
  <property name="meta.attr.2.stream.language.markup">eng</property>
  <property name="meta.attr.2.stream.handler_name.markup">Apple Alias Data Handler</property>
  <property name="meta.attr.2.stream.timecode.markup">16:38:23:16</property>
  <property name="meta.attr.com.apple.proapps.manufacturer.markup">Blackmagic Design</property>
  <property name="meta.attr.com.apple.proapps.cameraName.markup">CAM1</property>
  <property name="meta.attr.com.apple.proapps.isGood.markup">0</property>
  <property name="meta.attr.com.apple.proapps.customgamma.markup">com.blackmagic-design.cinemacamera.filmlog</property>
  <property name="meta.attr.com.blackmagic-design.cinemacamera.uuid.markup">18E5E00548F94923B646613A73C01B56</property>
  <property name="meta.attr.creation_time.markup">2018-12-10T16:38:23.000000Z</property>
  <property name="meta.attr.timecode.markup">16:38:23:16</property>
  <property name="seekable">1</property>
  <property name="meta.media.sample_aspect_num">1</property>
  <property name="meta.media.sample_aspect_den">1</property>
  <property name="audio_index">2</property>
  <property name="video_index">1</property>
  <property name="mute_on_pause">1</property>
  <property name="warp_speed">0,5</property>
  <property name="warp_resource">/media/bordun/plagiat/2018-12-10_Plagiat_RespecteLaPuissancePapale/Carte_2/CAM1_2018-12-10_1638_C0001.mov</property>
  <property name="mlt_service">timewarp</property>
  <property name="meta.media.frame_rate_num">50</property>
  <property name="meta.media.frame_rate_den">1</property>
  <property name="meta.media.colorspace">709</property>
  <property name="meta.media.color_trc">1</property>
  <property name="meta.media.width">1920</property>
  <property name="meta.media.height">1080</property>
  <property name="meta.media.top_field_first">0</property>
  <property name="meta.media.progressive">1</property>
  <filter id="filter64">
   <property name="version">0,1</property>
   <property name="mlt_service">frei0r.colgate</property>
   <property name="kdenlive_id">frei0r.colgate</property>
   <property name="tag">frei0r.colgate</property>
   <property name="kdenlive_ix">1</property>
   <property name="kdenlive_info"/>
   <property name="Neutral Color">0x7f7f7fff</property>
   <property name="Color Temperature">0=0,5</property>
  </filter>
  <filter id="filter65">
   <property name="version">0,3</property>
   <property name="mlt_service">frei0r.levels</property>
   <property name="kdenlive_id">frei0r.levels</property>
   <property name="tag">frei0r.levels</property>
   <property name="kdenlive_ix">2</property>
   <property name="kdenlive_info"/>
   <property name="Channel">0,3</property>
   <property name="Input black level">0=0</property>
   <property name="Input white level">0=0,65</property>
   <property name="Gamma">0=0,25</property>
   <property name="Black output">0=0</property>
   <property name="White output">0=1</property>
   <property name="Show histogram">0</property>
   <property name="Histogram position">0,3</property>
  </filter>
 </producer>
 <producer id="slowmotion:4:0,7:1:0" in="0" out="35529">
  <property name="length">35530</property>
  <property name="eof">pause</property>
  <property name="resource">0,7:/media/bordun/plagiat/2018-12-10_Plagiat_RespecteLaPuissancePapale/Carte_1/CAM1_2018-12-10_1615_C0003.mov</property>
  <property name="aspect_ratio">1</property>
  <property name="meta.media.nb_streams">3</property>
  <property name="meta.media.1.stream.type">video</property>
  <property name="meta.media.1.stream.frame_rate">50</property>
  <property name="meta.media.1.stream.sample_aspect_ratio">1</property>
  <property name="meta.media.1.codec.width">1920</property>
  <property name="meta.media.1.codec.height">1080</property>
  <property name="meta.media.1.codec.rotate">0</property>
  <property name="meta.media.1.codec.frame_rate">5000</property>
  <property name="meta.media.1.codec.pix_fmt">yuv422p10le</property>
  <property name="meta.media.1.codec.sample_aspect_ratio">0</property>
  <property name="meta.media.1.codec.colorspace">709</property>
  <property name="meta.media.1.codec.color_trc">1</property>
  <property name="meta.media.1.codec.name">prores</property>
  <property name="meta.media.1.codec.long_name">ProRes</property>
  <property name="meta.media.1.codec.bit_rate">366958409</property>
  <property name="meta.attr.1.stream.creation_time.markup">2018-12-10T16:15:42.000000Z</property>
  <property name="meta.attr.1.stream.language.markup">eng</property>
  <property name="meta.attr.1.stream.handler_name.markup">Apple Alias Data Handler</property>
  <property name="meta.attr.1.stream.encoder.markup">Apple ProRes 422 HQ</property>
  <property name="meta.attr.1.stream.timecode.markup">16:15:42:33</property>
  <property name="meta.media.2.stream.type">audio</property>
  <property name="meta.media.2.codec.sample_fmt">s32</property>
  <property name="meta.media.2.codec.sample_rate">48000</property>
  <property name="meta.media.2.codec.channels">2</property>
  <property name="meta.media.2.codec.name">pcm_s24le</property>
  <property name="meta.media.2.codec.long_name">PCM signed 24-bit little-endian</property>
  <property name="meta.media.2.codec.bit_rate">2304000</property>
  <property name="meta.attr.2.stream.creation_time.markup">2018-12-10T16:15:42.000000Z</property>
  <property name="meta.attr.2.stream.language.markup">eng</property>
  <property name="meta.attr.2.stream.handler_name.markup">Apple Alias Data Handler</property>
  <property name="meta.attr.2.stream.timecode.markup">16:15:42:33</property>
  <property name="meta.attr.com.apple.proapps.manufacturer.markup">Blackmagic Design</property>
  <property name="meta.attr.com.apple.proapps.cameraName.markup">CAM1</property>
  <property name="meta.attr.com.apple.proapps.isGood.markup">0</property>
  <property name="meta.attr.com.apple.proapps.customgamma.markup">com.blackmagic-design.cinemacamera.filmlog</property>
  <property name="meta.attr.com.blackmagic-design.cinemacamera.uuid.markup">18E5E00548F94923B646613A73C01B56</property>
  <property name="meta.attr.creation_time.markup">2018-12-10T16:15:42.000000Z</property>
  <property name="meta.attr.timecode.markup">16:15:42:33</property>
  <property name="seekable">1</property>
  <property name="meta.media.sample_aspect_num">1</property>
  <property name="meta.media.sample_aspect_den">1</property>
  <property name="audio_index">2</property>
  <property name="video_index">1</property>
  <property name="mute_on_pause">1</property>
  <property name="warp_speed">0,7</property>
  <property name="warp_resource">/media/bordun/plagiat/2018-12-10_Plagiat_RespecteLaPuissancePapale/Carte_1/CAM1_2018-12-10_1615_C0003.mov</property>
  <property name="mlt_service">timewarp</property>
  <property name="meta.media.frame_rate_num">50</property>
  <property name="meta.media.frame_rate_den">1</property>
  <property name="meta.media.colorspace">709</property>
  <property name="meta.media.color_trc">1</property>
  <property name="meta.media.width">1920</property>
  <property name="meta.media.height">1080</property>
  <property name="meta.media.top_field_first">0</property>
  <property name="meta.media.progressive">1</property>
  <filter id="filter66">
   <property name="version">0,1</property>
   <property name="mlt_service">frei0r.colgate</property>
   <property name="kdenlive_id">frei0r.colgate</property>
   <property name="tag">frei0r.colgate</property>
   <property name="kdenlive_ix">1</property>
   <property name="kdenlive_info"/>
   <property name="Neutral Color">0x7f7f7fff</property>
   <property name="Color Temperature">0=0,5</property>
  </filter>
  <filter id="filter67">
   <property name="version">0,3</property>
   <property name="mlt_service">frei0r.levels</property>
   <property name="kdenlive_id">frei0r.levels</property>
   <property name="tag">frei0r.levels</property>
   <property name="kdenlive_ix">2</property>
   <property name="kdenlive_info"/>
   <property name="Channel">0,3</property>
   <property name="Input black level">0=0</property>
   <property name="Input white level">0=0,65</property>
   <property name="Gamma">0=0,25</property>
   <property name="Black output">0=0</property>
   <property name="White output">0=1</property>
   <property name="Show histogram">0</property>
   <property name="Histogram position">0,3</property>
  </filter>
 </producer>
 <producer id="slowmotion:4:1:1:0" in="0" out="24870">
  <property name="length">24871</property>
  <property name="eof">pause</property>
  <property name="resource">1:/media/bordun/plagiat/2018-12-10_Plagiat_RespecteLaPuissancePapale/Carte_1/CAM1_2018-12-10_1615_C0003.mov</property>
  <property name="aspect_ratio">1</property>
  <property name="meta.media.nb_streams">3</property>
  <property name="meta.media.1.stream.type">video</property>
  <property name="meta.media.1.stream.frame_rate">50</property>
  <property name="meta.media.1.stream.sample_aspect_ratio">1</property>
  <property name="meta.media.1.codec.width">1920</property>
  <property name="meta.media.1.codec.height">1080</property>
  <property name="meta.media.1.codec.rotate">0</property>
  <property name="meta.media.1.codec.frame_rate">5000</property>
  <property name="meta.media.1.codec.pix_fmt">yuv422p10le</property>
  <property name="meta.media.1.codec.sample_aspect_ratio">0</property>
  <property name="meta.media.1.codec.colorspace">709</property>
  <property name="meta.media.1.codec.color_trc">1</property>
  <property name="meta.media.1.codec.name">prores</property>
  <property name="meta.media.1.codec.long_name">ProRes</property>
  <property name="meta.media.1.codec.bit_rate">366958409</property>
  <property name="meta.attr.1.stream.creation_time.markup">2018-12-10T16:15:42.000000Z</property>
  <property name="meta.attr.1.stream.language.markup">eng</property>
  <property name="meta.attr.1.stream.handler_name.markup">Apple Alias Data Handler</property>
  <property name="meta.attr.1.stream.encoder.markup">Apple ProRes 422 HQ</property>
  <property name="meta.attr.1.stream.timecode.markup">16:15:42:33</property>
  <property name="meta.media.2.stream.type">audio</property>
  <property name="meta.media.2.codec.sample_fmt">s32</property>
  <property name="meta.media.2.codec.sample_rate">48000</property>
  <property name="meta.media.2.codec.channels">2</property>
  <property name="meta.media.2.codec.name">pcm_s24le</property>
  <property name="meta.media.2.codec.long_name">PCM signed 24-bit little-endian</property>
  <property name="meta.media.2.codec.bit_rate">2304000</property>
  <property name="meta.attr.2.stream.creation_time.markup">2018-12-10T16:15:42.000000Z</property>
  <property name="meta.attr.2.stream.language.markup">eng</property>
  <property name="meta.attr.2.stream.handler_name.markup">Apple Alias Data Handler</property>
  <property name="meta.attr.2.stream.timecode.markup">16:15:42:33</property>
  <property name="meta.attr.com.apple.proapps.manufacturer.markup">Blackmagic Design</property>
  <property name="meta.attr.com.apple.proapps.cameraName.markup">CAM1</property>
  <property name="meta.attr.com.apple.proapps.isGood.markup">0</property>
  <property name="meta.attr.com.apple.proapps.customgamma.markup">com.blackmagic-design.cinemacamera.filmlog</property>
  <property name="meta.attr.com.blackmagic-design.cinemacamera.uuid.markup">18E5E00548F94923B646613A73C01B56</property>
  <property name="meta.attr.creation_time.markup">2018-12-10T16:15:42.000000Z</property>
  <property name="meta.attr.timecode.markup">16:15:42:33</property>
  <property name="seekable">1</property>
  <property name="meta.media.sample_aspect_num">1</property>
  <property name="meta.media.sample_aspect_den">1</property>
  <property name="audio_index">2</property>
  <property name="video_index">1</property>
  <property name="mute_on_pause">1</property>
  <property name="warp_speed">1</property>
  <property name="warp_resource">/media/bordun/plagiat/2018-12-10_Plagiat_RespecteLaPuissancePapale/Carte_1/CAM1_2018-12-10_1615_C0003.mov</property>
  <property name="mlt_service">timewarp</property>
  <property name="meta.media.frame_rate_num">50</property>
  <property name="meta.media.frame_rate_den">1</property>
  <property name="meta.media.colorspace">709</property>
  <property name="meta.media.color_trc">1</property>
  <property name="meta.media.width">1920</property>
  <property name="meta.media.height">1080</property>
  <property name="meta.media.top_field_first">0</property>
  <property name="meta.media.progressive">1</property>
  <filter id="filter68">
   <property name="version">0,1</property>
   <property name="mlt_service">frei0r.colgate</property>
   <property name="kdenlive_id">frei0r.colgate</property>
   <property name="tag">frei0r.colgate</property>
   <property name="kdenlive_ix">1</property>
   <property name="kdenlive_info"/>
   <property name="Neutral Color">0x7f7f7fff</property>
   <property name="Color Temperature">0=0,5</property>
  </filter>
  <filter id="filter69">
   <property name="version">0,3</property>
   <property name="mlt_service">frei0r.levels</property>
   <property name="kdenlive_id">frei0r.levels</property>
   <property name="tag">frei0r.levels</property>
   <property name="kdenlive_ix">2</property>
   <property name="kdenlive_info"/>
   <property name="Channel">0,3</property>
   <property name="Input black level">0=0</property>
   <property name="Input white level">0=0,65</property>
   <property name="Gamma">0=0,25</property>
   <property name="Black output">0=0</property>
   <property name="White output">0=1</property>
   <property name="Show histogram">0</property>
   <property name="Histogram position">0,3</property>
  </filter>
 </producer>
 <producer id="slowmotion:4:1,3:1:0" in="0" out="19130">
  <property name="length">19131</property>
  <property name="eof">pause</property>
  <property name="resource">1,3:/media/bordun/plagiat/2018-12-10_Plagiat_RespecteLaPuissancePapale/Carte_1/CAM1_2018-12-10_1615_C0003.mov</property>
  <property name="aspect_ratio">1</property>
  <property name="meta.media.nb_streams">3</property>
  <property name="meta.media.1.stream.type">video</property>
  <property name="meta.media.1.stream.frame_rate">50</property>
  <property name="meta.media.1.stream.sample_aspect_ratio">1</property>
  <property name="meta.media.1.codec.width">1920</property>
  <property name="meta.media.1.codec.height">1080</property>
  <property name="meta.media.1.codec.rotate">0</property>
  <property name="meta.media.1.codec.frame_rate">5000</property>
  <property name="meta.media.1.codec.pix_fmt">yuv422p10le</property>
  <property name="meta.media.1.codec.sample_aspect_ratio">0</property>
  <property name="meta.media.1.codec.colorspace">709</property>
  <property name="meta.media.1.codec.color_trc">1</property>
  <property name="meta.media.1.codec.name">prores</property>
  <property name="meta.media.1.codec.long_name">ProRes</property>
  <property name="meta.media.1.codec.bit_rate">366958409</property>
  <property name="meta.attr.1.stream.creation_time.markup">2018-12-10T16:15:42.000000Z</property>
  <property name="meta.attr.1.stream.language.markup">eng</property>
  <property name="meta.attr.1.stream.handler_name.markup">Apple Alias Data Handler</property>
  <property name="meta.attr.1.stream.encoder.markup">Apple ProRes 422 HQ</property>
  <property name="meta.attr.1.stream.timecode.markup">16:15:42:33</property>
  <property name="meta.media.2.stream.type">audio</property>
  <property name="meta.media.2.codec.sample_fmt">s32</property>
  <property name="meta.media.2.codec.sample_rate">48000</property>
  <property name="meta.media.2.codec.channels">2</property>
  <property name="meta.media.2.codec.name">pcm_s24le</property>
  <property name="meta.media.2.codec.long_name">PCM signed 24-bit little-endian</property>
  <property name="meta.media.2.codec.bit_rate">2304000</property>
  <property name="meta.attr.2.stream.creation_time.markup">2018-12-10T16:15:42.000000Z</property>
  <property name="meta.attr.2.stream.language.markup">eng</property>
  <property name="meta.attr.2.stream.handler_name.markup">Apple Alias Data Handler</property>
  <property name="meta.attr.2.stream.timecode.markup">16:15:42:33</property>
  <property name="meta.attr.com.apple.proapps.manufacturer.markup">Blackmagic Design</property>
  <property name="meta.attr.com.apple.proapps.cameraName.markup">CAM1</property>
  <property name="meta.attr.com.apple.proapps.isGood.markup">0</property>
  <property name="meta.attr.com.apple.proapps.customgamma.markup">com.blackmagic-design.cinemacamera.filmlog</property>
  <property name="meta.attr.com.blackmagic-design.cinemacamera.uuid.markup">18E5E00548F94923B646613A73C01B56</property>
  <property name="meta.attr.creation_time.markup">2018-12-10T16:15:42.000000Z</property>
  <property name="meta.attr.timecode.markup">16:15:42:33</property>
  <property name="seekable">1</property>
  <property name="meta.media.sample_aspect_num">1</property>
  <property name="meta.media.sample_aspect_den">1</property>
  <property name="audio_index">2</property>
  <property name="video_index">1</property>
  <property name="mute_on_pause">1</property>
  <property name="warp_speed">1,3</property>
  <property name="warp_resource">/media/bordun/plagiat/2018-12-10_Plagiat_RespecteLaPuissancePapale/Carte_1/CAM1_2018-12-10_1615_C0003.mov</property>
  <property name="mlt_service">timewarp</property>
  <property name="meta.media.frame_rate_num">50</property>
  <property name="meta.media.frame_rate_den">1</property>
  <property name="meta.media.colorspace">709</property>
  <property name="meta.media.color_trc">1</property>
  <property name="meta.media.width">1920</property>
  <property name="meta.media.height">1080</property>
  <property name="meta.media.top_field_first">0</property>
  <property name="meta.media.progressive">1</property>
  <filter id="filter70">
   <property name="version">0,1</property>
   <property name="mlt_service">frei0r.colgate</property>
   <property name="kdenlive_id">frei0r.colgate</property>
   <property name="tag">frei0r.colgate</property>
   <property name="kdenlive_ix">1</property>
   <property name="kdenlive_info"/>
   <property name="Neutral Color">0x7f7f7fff</property>
   <property name="Color Temperature">0=0,5</property>
  </filter>
  <filter id="filter71">
   <property name="version">0,3</property>
   <property name="mlt_service">frei0r.levels</property>
   <property name="kdenlive_id">frei0r.levels</property>
   <property name="tag">frei0r.levels</property>
   <property name="kdenlive_ix">2</property>
   <property name="kdenlive_info"/>
   <property name="Channel">0,3</property>
   <property name="Input black level">0=0</property>
   <property name="Input white level">0=0,65</property>
   <property name="Gamma">0=0,25</property>
   <property name="Black output">0=0</property>
   <property name="White output">0=1</property>
   <property name="Show histogram">0</property>
   <property name="Histogram position">0,3</property>
  </filter>
 </producer>
 <producer id="slowmotion:4:0,5:1:0" in="0" out="49741">
  <property name="length">49742</property>
  <property name="eof">pause</property>
  <property name="resource">0,5:/media/bordun/plagiat/2018-12-10_Plagiat_RespecteLaPuissancePapale/Carte_1/CAM1_2018-12-10_1615_C0003.mov</property>
  <property name="aspect_ratio">1</property>
  <property name="meta.media.nb_streams">3</property>
  <property name="meta.media.1.stream.type">video</property>
  <property name="meta.media.1.stream.frame_rate">50</property>
  <property name="meta.media.1.stream.sample_aspect_ratio">1</property>
  <property name="meta.media.1.codec.width">1920</property>
  <property name="meta.media.1.codec.height">1080</property>
  <property name="meta.media.1.codec.rotate">0</property>
  <property name="meta.media.1.codec.frame_rate">5000</property>
  <property name="meta.media.1.codec.pix_fmt">yuv422p10le</property>
  <property name="meta.media.1.codec.sample_aspect_ratio">0</property>
  <property name="meta.media.1.codec.colorspace">709</property>
  <property name="meta.media.1.codec.color_trc">1</property>
  <property name="meta.media.1.codec.name">prores</property>
  <property name="meta.media.1.codec.long_name">ProRes</property>
  <property name="meta.media.1.codec.bit_rate">366958409</property>
  <property name="meta.attr.1.stream.creation_time.markup">2018-12-10T16:15:42.000000Z</property>
  <property name="meta.attr.1.stream.language.markup">eng</property>
  <property name="meta.attr.1.stream.handler_name.markup">Apple Alias Data Handler</property>
  <property name="meta.attr.1.stream.encoder.markup">Apple ProRes 422 HQ</property>
  <property name="meta.attr.1.stream.timecode.markup">16:15:42:33</property>
  <property name="meta.media.2.stream.type">audio</property>
  <property name="meta.media.2.codec.sample_fmt">s32</property>
  <property name="meta.media.2.codec.sample_rate">48000</property>
  <property name="meta.media.2.codec.channels">2</property>
  <property name="meta.media.2.codec.name">pcm_s24le</property>
  <property name="meta.media.2.codec.long_name">PCM signed 24-bit little-endian</property>
  <property name="meta.media.2.codec.bit_rate">2304000</property>
  <property name="meta.attr.2.stream.creation_time.markup">2018-12-10T16:15:42.000000Z</property>
  <property name="meta.attr.2.stream.language.markup">eng</property>
  <property name="meta.attr.2.stream.handler_name.markup">Apple Alias Data Handler</property>
  <property name="meta.attr.2.stream.timecode.markup">16:15:42:33</property>
  <property name="meta.attr.com.apple.proapps.manufacturer.markup">Blackmagic Design</property>
  <property name="meta.attr.com.apple.proapps.cameraName.markup">CAM1</property>
  <property name="meta.attr.com.apple.proapps.isGood.markup">0</property>
  <property name="meta.attr.com.apple.proapps.customgamma.markup">com.blackmagic-design.cinemacamera.filmlog</property>
  <property name="meta.attr.com.blackmagic-design.cinemacamera.uuid.markup">18E5E00548F94923B646613A73C01B56</property>
  <property name="meta.attr.creation_time.markup">2018-12-10T16:15:42.000000Z</property>
  <property name="meta.attr.timecode.markup">16:15:42:33</property>
  <property name="seekable">1</property>
  <property name="meta.media.sample_aspect_num">1</property>
  <property name="meta.media.sample_aspect_den">1</property>
  <property name="audio_index">2</property>
  <property name="video_index">1</property>
  <property name="mute_on_pause">1</property>
  <property name="warp_speed">0,5</property>
  <property name="warp_resource">/media/bordun/plagiat/2018-12-10_Plagiat_RespecteLaPuissancePapale/Carte_1/CAM1_2018-12-10_1615_C0003.mov</property>
  <property name="mlt_service">timewarp</property>
  <property name="meta.media.frame_rate_num">50</property>
  <property name="meta.media.frame_rate_den">1</property>
  <property name="meta.media.colorspace">709</property>
  <property name="meta.media.color_trc">1</property>
  <property name="meta.media.width">1920</property>
  <property name="meta.media.height">1080</property>
  <property name="meta.media.top_field_first">0</property>
  <property name="meta.media.progressive">1</property>
  <filter id="filter72">
   <property name="version">0,1</property>
   <property name="mlt_service">frei0r.colgate</property>
   <property name="kdenlive_id">frei0r.colgate</property>
   <property name="tag">frei0r.colgate</property>
   <property name="kdenlive_ix">1</property>
   <property name="kdenlive_info"/>
   <property name="Neutral Color">0x7f7f7fff</property>
   <property name="Color Temperature">0=0,5</property>
  </filter>
  <filter id="filter73">
   <property name="version">0,3</property>
   <property name="mlt_service">frei0r.levels</property>
   <property name="kdenlive_id">frei0r.levels</property>
   <property name="tag">frei0r.levels</property>
   <property name="kdenlive_ix">2</property>
   <property name="kdenlive_info"/>
   <property name="Channel">0,3</property>
   <property name="Input black level">0=0</property>
   <property name="Input white level">0=0,65</property>
   <property name="Gamma">0=0,25</property>
   <property name="Black output">0=0</property>
   <property name="White output">0=1</property>
   <property name="Show histogram">0</property>
   <property name="Histogram position">0,3</property>
  </filter>
 </producer>
 <producer id="slowmotion:4:1,5:1:0" in="0" out="16580">
  <property name="length">16581</property>
  <property name="eof">pause</property>
  <property name="resource">1,5:/media/bordun/plagiat/2018-12-10_Plagiat_RespecteLaPuissancePapale/Carte_1/CAM1_2018-12-10_1615_C0003.mov</property>
  <property name="aspect_ratio">1</property>
  <property name="meta.media.nb_streams">3</property>
  <property name="meta.media.1.stream.type">video</property>
  <property name="meta.media.1.stream.frame_rate">50</property>
  <property name="meta.media.1.stream.sample_aspect_ratio">1</property>
  <property name="meta.media.1.codec.width">1920</property>
  <property name="meta.media.1.codec.height">1080</property>
  <property name="meta.media.1.codec.rotate">0</property>
  <property name="meta.media.1.codec.frame_rate">5000</property>
  <property name="meta.media.1.codec.pix_fmt">yuv422p10le</property>
  <property name="meta.media.1.codec.sample_aspect_ratio">0</property>
  <property name="meta.media.1.codec.colorspace">709</property>
  <property name="meta.media.1.codec.color_trc">1</property>
  <property name="meta.media.1.codec.name">prores</property>
  <property name="meta.media.1.codec.long_name">ProRes</property>
  <property name="meta.media.1.codec.bit_rate">366958409</property>
  <property name="meta.attr.1.stream.creation_time.markup">2018-12-10T16:15:42.000000Z</property>
  <property name="meta.attr.1.stream.language.markup">eng</property>
  <property name="meta.attr.1.stream.handler_name.markup">Apple Alias Data Handler</property>
  <property name="meta.attr.1.stream.encoder.markup">Apple ProRes 422 HQ</property>
  <property name="meta.attr.1.stream.timecode.markup">16:15:42:33</property>
  <property name="meta.media.2.stream.type">audio</property>
  <property name="meta.media.2.codec.sample_fmt">s32</property>
  <property name="meta.media.2.codec.sample_rate">48000</property>
  <property name="meta.media.2.codec.channels">2</property>
  <property name="meta.media.2.codec.name">pcm_s24le</property>
  <property name="meta.media.2.codec.long_name">PCM signed 24-bit little-endian</property>
  <property name="meta.media.2.codec.bit_rate">2304000</property>
  <property name="meta.attr.2.stream.creation_time.markup">2018-12-10T16:15:42.000000Z</property>
  <property name="meta.attr.2.stream.language.markup">eng</property>
  <property name="meta.attr.2.stream.handler_name.markup">Apple Alias Data Handler</property>
  <property name="meta.attr.2.stream.timecode.markup">16:15:42:33</property>
  <property name="meta.attr.com.apple.proapps.manufacturer.markup">Blackmagic Design</property>
  <property name="meta.attr.com.apple.proapps.cameraName.markup">CAM1</property>
  <property name="meta.attr.com.apple.proapps.isGood.markup">0</property>
  <property name="meta.attr.com.apple.proapps.customgamma.markup">com.blackmagic-design.cinemacamera.filmlog</property>
  <property name="meta.attr.com.blackmagic-design.cinemacamera.uuid.markup">18E5E00548F94923B646613A73C01B56</property>
  <property name="meta.attr.creation_time.markup">2018-12-10T16:15:42.000000Z</property>
  <property name="meta.attr.timecode.markup">16:15:42:33</property>
  <property name="seekable">1</property>
  <property name="meta.media.sample_aspect_num">1</property>
  <property name="meta.media.sample_aspect_den">1</property>
  <property name="audio_index">2</property>
  <property name="video_index">1</property>
  <property name="mute_on_pause">1</property>
  <property name="warp_speed">1,5</property>
  <property name="warp_resource">/media/bordun/plagiat/2018-12-10_Plagiat_RespecteLaPuissancePapale/Carte_1/CAM1_2018-12-10_1615_C0003.mov</property>
  <property name="mlt_service">timewarp</property>
  <property name="meta.media.frame_rate_num">50</property>
  <property name="meta.media.frame_rate_den">1</property>
  <property name="meta.media.colorspace">709</property>
  <property name="meta.media.color_trc">1</property>
  <property name="meta.media.width">1920</property>
  <property name="meta.media.height">1080</property>
  <property name="meta.media.top_field_first">0</property>
  <property name="meta.media.progressive">1</property>
  <filter id="filter74">
   <property name="version">0,1</property>
   <property name="mlt_service">frei0r.colgate</property>
   <property name="kdenlive_id">frei0r.colgate</property>
   <property name="tag">frei0r.colgate</property>
   <property name="kdenlive_ix">1</property>
   <property name="kdenlive_info"/>
   <property name="Neutral Color">0x7f7f7fff</property>
   <property name="Color Temperature">0=0,5</property>
  </filter>
  <filter id="filter75">
   <property name="version">0,3</property>
   <property name="mlt_service">frei0r.levels</property>
   <property name="kdenlive_id">frei0r.levels</property>
   <property name="tag">frei0r.levels</property>
   <property name="kdenlive_ix">2</property>
   <property name="kdenlive_info"/>
   <property name="Channel">0,3</property>
   <property name="Input black level">0=0</property>
   <property name="Input white level">0=0,65</property>
   <property name="Gamma">0=0,25</property>
   <property name="Black output">0=0</property>
   <property name="White output">0=1</property>
   <property name="Show histogram">0</property>
   <property name="Histogram position">0,3</property>
  </filter>
 </producer>
 <playlist id="playlist0">
  <property name="kdenlive:track_name">Vidéo 4</property>
  <property name="kdenlive:locked_track">0</property>
  <blank length="1077"/>
  <entry producer="slowmotion:4:2,5:1:0" in="4520" out="4534"/>
  <entry producer="4_playlist0" in="11338" out="11398"/>
  <blank length="472"/>
  <entry producer="6_playlist0" in="1116" out="1223"/>
  <blank length="50"/>
  <entry producer="slowmotion:4:2:1:0" in="11618" out="11651"/>
  <blank length="433"/>
  <entry producer="6_playlist0" in="1791" out="1806"/>
  <blank length="169"/>
  <entry producer="6_playlist0" in="1926" out="2019">
   <filter id="frei0r.select0r">
    <property name="version">0,5</property>
    <property name="mlt_service">frei0r.select0r</property>
    <property name="kdenlive_id">frei0r.select0r</property>
    <property name="tag">frei0r.select0r</property>
    <property name="kdenlive_ix">1</property>
    <property name="Color to select">0x000000ff</property>
    <property name="Invert selection">1</property>
    <property name="Selection subspace">0,0</property>
    <property name="Subspace shape">0,5</property>
    <property name="Edge mode">0,9</property>
    <property name="Delta R / A / Hue">1926=0,06;1974=0,057;1989=0,084;2003=0,06;2019=0,06</property>
    <property name="Delta G / B / Chroma">1926=0,736;1974=0,653;1989=0,734;2003=0,736;2019=0,736</property>
    <property name="Delta B / I / I">1926=0,046;1974=0,067;1989=0,12;2003=0,149;2019=0,005</property>
    <property name="Slope">1926=0,198;1974=0,278;1989=0,198;2003=0,198;2019=0,144</property>
    <property name="Operation">0,0</property>
    <property name="disable">0</property>
    <property name="kdenlive_info">1/-1/</property>
   </filter>
  </entry>
  <blank length="338"/>
  <entry producer="6_playlist0" in="2358" out="2477"/>
  <blank length="50"/>
  <entry producer="6_playlist0" in="2528" out="2571"/>
  <entry producer="slowmotion:6:0,94:1:0" in="2739" out="2803"/>
  <blank length="4"/>
  <entry producer="6_playlist0" in="2641" out="3006"/>
  <blank length="64"/>
  <entry producer="5_playlist0" in="17298" out="17365"/>
  <blank length="318"/>
  <entry producer="6_playlist0" in="3458" out="3562">
   <filter id="qtblend">
    <property name="rotate_center">1</property>
    <property name="mlt_service">qtblend</property>
    <property name="kdenlive_id">qtblend</property>
    <property name="tag">qtblend</property>
    <property name="kdenlive_ix">1</property>
    <property name="rect">3458=0 0 1920 1080 1</property>
    <property name="rotation">3458=0</property>
    <property name="compositing">0</property>
    <property name="distort">0</property>
    <property name="kdenlive_info"/>
   </filter>
  </entry>
  <entry producer="6_playlist0" in="3563" out="3639"/>
  <blank length="7"/>
  <entry producer="slowmotion:6:0,5:1:0" in="7304" out="7368"/>
  <entry producer="6_playlist0" in="3712" out="4178"/>
  <blank length="284"/>
  <entry producer="slowmotion:4:0,7:1:0" in="7291" out="7489"/>
  <entry producer="slowmotion:4:1:1:0" in="5303" out="5354"/>
  <entry producer="slowmotion:4:1,3:1:0" in="4119" out="4196"/>
  <blank length="24"/>
  <entry producer="slowmotion:4:1:1:0" in="5457" out="5614"/>
  <entry producer="slowmotion:4:3:1:0" in="1872" out="1972"/>
  <blank length="128"/>
  <entry producer="slowmotion:4:1:1:0" in="9545" out="9567"/>
  <entry producer="slowmotion:4:0,5:1:0" in="19136" out="19181">
   <filter id="filter76" in="19136" out="19183">
    <property name="background">colour:0x00000000</property>
    <property name="mlt_service">affine</property>
    <property name="kdenlive_id">pan_zoom</property>
    <property name="tag">affine</property>
    <property name="kdenlive_ix">2</property>
    <property name="transition.geometry">-192/-108:2304x1296:100</property>
    <property name="transition.distort">0</property>
    <property name="kdenlive:sync_in_out">1</property>
    <property name="kdenlive_info"/>
    <property name="disable"/>
   </filter>
  </entry>
  <entry producer="slowmotion:4:1,5:1:0" in="6395" out="6444">
   <filter id="filter77" in="6395" out="6444">
    <property name="background">colour:0x00000000</property>
    <property name="mlt_service">affine</property>
    <property name="kdenlive_id">pan_zoom</property>
    <property name="tag">affine</property>
    <property name="kdenlive_ix">2</property>
    <property name="transition.geometry">-485/-133:2688x1512:100</property>
    <property name="transition.distort">0</property>
    <property name="kdenlive:sync_in_out">1</property>
    <property name="kdenlive_info"/>
    <property name="disable"/>
   </filter>
  </entry>
  <entry producer="slowmotion:4:1,5:1:0" in="6445" out="6515">
   <filter id="filter78" in="6445" out="6515">
    <property name="background">colour:0x00000000</property>
    <property name="mlt_service">affine</property>
    <property name="kdenlive_id">pan_zoom</property>
    <property name="tag">affine</property>
    <property name="kdenlive_ix">2</property>
    <property name="transition.geometry">-309/-63:3072x1728:100</property>
    <property name="transition.distort">0</property>
    <property name="kdenlive:sync_in_out">1</property>
    <property name="kdenlive_info"/>
    <property name="disable"/>
   </filter>
  </entry>
 </playlist>
 <producer title="Anonymous Submission" id="7_playlist6" in="0" out="8532">
  <property name="length">00:02:50:33</property>
  <property name="eof">pause</property>
  <property name="resource">/media/bordun/plagiat/2018-12-10_Plagiat_RespecteLaPuissancePapale/Carte_2/CAM1_2018-12-10_1642_C0002.mov</property>
  <property name="audio_index">2</property>
  <property name="video_index">1</property>
  <property name="mute_on_pause">1</property>
  <property name="mlt_service">avformat-novalidate</property>
  <property name="seekable">1</property>
  <property name="aspect_ratio">1</property>
  <property name="kdenlive:folderid">10</property>
  <property name="kdenlive:file_size">7878058913</property>
  <property name="kdenlive:file_hash">804eaf7e1fe7b8bd61bac5713c20d510</property>
  <property name="global_feed">1</property>
  <property name="xml">was here</property>
  <property name="meta.media.nb_streams">3</property>
  <property name="meta.media.1.stream.type">video</property>
  <property name="meta.media.1.stream.frame_rate">50</property>
  <property name="meta.media.1.stream.sample_aspect_ratio">1</property>
  <property name="meta.media.1.codec.width">1920</property>
  <property name="meta.media.1.codec.height">1080</property>
  <property name="meta.media.1.codec.rotate">0</property>
  <property name="meta.media.1.codec.frame_rate">5000</property>
  <property name="meta.media.1.codec.pix_fmt">yuv422p10le</property>
  <property name="meta.media.1.codec.sample_aspect_ratio">0</property>
  <property name="meta.media.1.codec.colorspace">709</property>
  <property name="meta.media.1.codec.name">prores</property>
  <property name="meta.media.1.codec.long_name">ProRes</property>
  <property name="meta.media.1.codec.bit_rate">366955794</property>
  <property name="meta.attr.1.stream.creation_time.markup">2018-12-10T16:42:49.000000Z</property>
  <property name="meta.attr.1.stream.language.markup">eng</property>
  <property name="meta.attr.1.stream.handler_name.markup">Apple Alias Data Handler</property>
  <property name="meta.attr.1.stream.encoder.markup">Apple ProRes 422 HQ</property>
  <property name="meta.attr.1.stream.timecode.markup">16:42:49:18</property>
  <property name="meta.media.2.stream.type">audio</property>
  <property name="meta.media.2.codec.sample_fmt">s32</property>
  <property name="meta.media.2.codec.sample_rate">48000</property>
  <property name="meta.media.2.codec.channels">2</property>
  <property name="meta.media.2.codec.name">pcm_s24le</property>
  <property name="meta.media.2.codec.long_name">PCM signed 24-bit little-endian</property>
  <property name="meta.media.2.codec.bit_rate">2304000</property>
  <property name="meta.attr.2.stream.creation_time.markup">2018-12-10T16:42:49.000000Z</property>
  <property name="meta.attr.2.stream.language.markup">eng</property>
  <property name="meta.attr.2.stream.handler_name.markup">Apple Alias Data Handler</property>
  <property name="meta.attr.2.stream.timecode.markup">16:42:49:18</property>
  <property name="meta.attr.com.apple.proapps.manufacturer.markup">Blackmagic Design</property>
  <property name="meta.attr.com.apple.proapps.cameraName.markup">CAM1</property>
  <property name="meta.attr.com.apple.proapps.isGood.markup">0</property>
  <property name="meta.attr.com.apple.proapps.customgamma.markup">com.blackmagic-design.cinemacamera.filmlog</property>
  <property name="meta.attr.com.blackmagic-design.cinemacamera.uuid.markup">18E5E00548F94923B646613A73C01B56</property>
  <property name="meta.attr.creation_time.markup">2018-12-10T16:42:49.000000Z</property>
  <property name="meta.attr.timecode.markup">16:42:49:18</property>
  <property name="meta.media.sample_aspect_num">1</property>
  <property name="meta.media.sample_aspect_den">1</property>
  <property name="meta.media.frame_rate_num">50</property>
  <property name="meta.media.frame_rate_den">1</property>
  <property name="meta.media.colorspace">709</property>
  <property name="meta.media.color_trc">1</property>
  <property name="meta.media.width">1920</property>
  <property name="meta.media.height">1080</property>
  <property name="meta.media.top_field_first">0</property>
  <property name="meta.media.progressive">1</property>
  <property name="meta.media.1.codec.color_trc">1</property>
  <filter id="filter79">
   <property name="version">0,1</property>
   <property name="mlt_service">frei0r.colgate</property>
   <property name="kdenlive_id">frei0r.colgate</property>
   <property name="tag">frei0r.colgate</property>
   <property name="kdenlive_ix">1</property>
   <property name="kdenlive_info"/>
   <property name="Neutral Color">0x7f7f7fff</property>
   <property name="Color Temperature">0=0,5</property>
  </filter>
  <filter id="filter80">
   <property name="version">0,3</property>
   <property name="mlt_service">frei0r.levels</property>
   <property name="kdenlive_id">frei0r.levels</property>
   <property name="tag">frei0r.levels</property>
   <property name="kdenlive_ix">2</property>
   <property name="kdenlive_info"/>
   <property name="Channel">0,3</property>
   <property name="Input black level">0=0</property>
   <property name="Input white level">0=0,65</property>
   <property name="Gamma">0=0,25</property>
   <property name="Black output">0=0</property>
   <property name="White output">0=1</property>
   <property name="Show histogram">0</property>
   <property name="Histogram position">0,3</property>
   <property name="disable">0</property>
  </filter>
 </producer>
 <producer title="Anonymous Submission" id="6_playlist6" in="0" out="4178">
  <property name="length">00:01:23:29</property>
  <property name="eof">pause</property>
  <property name="resource">/media/bordun/plagiat/2018-12-10_Plagiat_RespecteLaPuissancePapale/Carte_2/CAM1_2018-12-10_1638_C0001.mov</property>
  <property name="audio_index">2</property>
  <property name="video_index">1</property>
  <property name="mute_on_pause">1</property>
  <property name="mlt_service">avformat-novalidate</property>
  <property name="seekable">1</property>
  <property name="aspect_ratio">1</property>
  <property name="kdenlive:folderid">10</property>
  <property name="kdenlive:file_size">3858252521</property>
  <property name="kdenlive:file_hash">5c73d3cae02de055fc4255e57a85a699</property>
  <property name="global_feed">1</property>
  <property name="xml">was here</property>
  <property name="meta.media.nb_streams">3</property>
  <property name="meta.media.1.stream.type">video</property>
  <property name="meta.media.1.stream.frame_rate">50</property>
  <property name="meta.media.1.stream.sample_aspect_ratio">1</property>
  <property name="meta.media.1.codec.width">1920</property>
  <property name="meta.media.1.codec.height">1080</property>
  <property name="meta.media.1.codec.rotate">0</property>
  <property name="meta.media.1.codec.frame_rate">5000</property>
  <property name="meta.media.1.codec.pix_fmt">yuv422p10le</property>
  <property name="meta.media.1.codec.sample_aspect_ratio">0</property>
  <property name="meta.media.1.codec.colorspace">709</property>
  <property name="meta.media.1.codec.name">prores</property>
  <property name="meta.media.1.codec.long_name">ProRes</property>
  <property name="meta.media.1.codec.bit_rate">366955515</property>
  <property name="meta.attr.1.stream.creation_time.markup">2018-12-10T16:38:23.000000Z</property>
  <property name="meta.attr.1.stream.language.markup">eng</property>
  <property name="meta.attr.1.stream.handler_name.markup">Apple Alias Data Handler</property>
  <property name="meta.attr.1.stream.encoder.markup">Apple ProRes 422 HQ</property>
  <property name="meta.attr.1.stream.timecode.markup">16:38:23:16</property>
  <property name="meta.media.2.stream.type">audio</property>
  <property name="meta.media.2.codec.sample_fmt">s32</property>
  <property name="meta.media.2.codec.sample_rate">48000</property>
  <property name="meta.media.2.codec.channels">2</property>
  <property name="meta.media.2.codec.name">pcm_s24le</property>
  <property name="meta.media.2.codec.long_name">PCM signed 24-bit little-endian</property>
  <property name="meta.media.2.codec.bit_rate">2304000</property>
  <property name="meta.attr.2.stream.creation_time.markup">2018-12-10T16:38:23.000000Z</property>
  <property name="meta.attr.2.stream.language.markup">eng</property>
  <property name="meta.attr.2.stream.handler_name.markup">Apple Alias Data Handler</property>
  <property name="meta.attr.2.stream.timecode.markup">16:38:23:16</property>
  <property name="meta.attr.com.apple.proapps.manufacturer.markup">Blackmagic Design</property>
  <property name="meta.attr.com.apple.proapps.cameraName.markup">CAM1</property>
  <property name="meta.attr.com.apple.proapps.isGood.markup">0</property>
  <property name="meta.attr.com.apple.proapps.customgamma.markup">com.blackmagic-design.cinemacamera.filmlog</property>
  <property name="meta.attr.com.blackmagic-design.cinemacamera.uuid.markup">18E5E00548F94923B646613A73C01B56</property>
  <property name="meta.attr.creation_time.markup">2018-12-10T16:38:23.000000Z</property>
  <property name="meta.attr.timecode.markup">16:38:23:16</property>
  <property name="meta.media.sample_aspect_num">1</property>
  <property name="meta.media.sample_aspect_den">1</property>
  <property name="meta.media.frame_rate_num">50</property>
  <property name="meta.media.frame_rate_den">1</property>
  <property name="meta.media.colorspace">709</property>
  <property name="meta.media.color_trc">1</property>
  <property name="meta.media.width">1920</property>
  <property name="meta.media.height">1080</property>
  <property name="meta.media.top_field_first">0</property>
  <property name="meta.media.progressive">1</property>
  <property name="meta.media.1.codec.color_trc">1</property>
  <filter id="filter81">
   <property name="version">0,1</property>
   <property name="mlt_service">frei0r.colgate</property>
   <property name="kdenlive_id">frei0r.colgate</property>
   <property name="tag">frei0r.colgate</property>
   <property name="kdenlive_ix">1</property>
   <property name="kdenlive_info"/>
   <property name="Neutral Color">0x7f7f7fff</property>
   <property name="Color Temperature">0=0,5</property>
  </filter>
  <filter id="filter82">
   <property name="version">0,3</property>
   <property name="mlt_service">frei0r.levels</property>
   <property name="kdenlive_id">frei0r.levels</property>
   <property name="tag">frei0r.levels</property>
   <property name="kdenlive_ix">2</property>
   <property name="kdenlive_info"/>
   <property name="Channel">0,3</property>
   <property name="Input black level">0=0</property>
   <property name="Input white level">0=0,65</property>
   <property name="Gamma">0=0,25</property>
   <property name="Black output">0=0</property>
   <property name="White output">0=1</property>
   <property name="Show histogram">0</property>
   <property name="Histogram position">0,3</property>
  </filter>
 </producer>
 <producer title="Anonymous Submission" id="5_playlist6" in="0" out="19246">
  <property name="length">00:06:24:47</property>
  <property name="eof">pause</property>
  <property name="resource">/media/bordun/plagiat/2018-12-10_Plagiat_RespecteLaPuissancePapale/Carte_2/CAM1_2018-12-10_1629_C0000.mov</property>
  <property name="audio_index">2</property>
  <property name="video_index">1</property>
  <property name="mute_on_pause">1</property>
  <property name="mlt_service">avformat-novalidate</property>
  <property name="seekable">1</property>
  <property name="aspect_ratio">1</property>
  <property name="kdenlive:folderid">9</property>
  <property name="kdenlive:file_size">17769713233</property>
  <property name="kdenlive:file_hash">40fd95546ae131f6c5881d8660dbcccc</property>
  <property name="global_feed">1</property>
  <property name="xml">was here</property>
  <property name="meta.media.nb_streams">3</property>
  <property name="meta.media.1.stream.type">video</property>
  <property name="meta.media.1.stream.frame_rate">50</property>
  <property name="meta.media.1.stream.sample_aspect_ratio">1</property>
  <property name="meta.media.1.codec.width">1920</property>
  <property name="meta.media.1.codec.height">1080</property>
  <property name="meta.media.1.codec.rotate">0</property>
  <property name="meta.media.1.codec.frame_rate">5000</property>
  <property name="meta.media.1.codec.pix_fmt">yuv422p10le</property>
  <property name="meta.media.1.codec.sample_aspect_ratio">0</property>
  <property name="meta.media.1.codec.colorspace">709</property>
  <property name="meta.media.1.codec.name">prores</property>
  <property name="meta.media.1.codec.long_name">ProRes</property>
  <property name="meta.media.1.codec.bit_rate">366959020</property>
  <property name="meta.attr.1.stream.creation_time.markup">2018-12-10T16:29:10.000000Z</property>
  <property name="meta.attr.1.stream.language.markup">eng</property>
  <property name="meta.attr.1.stream.handler_name.markup">Apple Alias Data Handler</property>
  <property name="meta.attr.1.stream.encoder.markup">Apple ProRes 422 HQ</property>
  <property name="meta.attr.1.stream.timecode.markup">16:29:10:24</property>
  <property name="meta.media.2.stream.type">audio</property>
  <property name="meta.media.2.codec.sample_fmt">s32</property>
  <property name="meta.media.2.codec.sample_rate">48000</property>
  <property name="meta.media.2.codec.channels">2</property>
  <property name="meta.media.2.codec.name">pcm_s24le</property>
  <property name="meta.media.2.codec.long_name">PCM signed 24-bit little-endian</property>
  <property name="meta.media.2.codec.bit_rate">2304000</property>
  <property name="meta.attr.2.stream.creation_time.markup">2018-12-10T16:29:10.000000Z</property>
  <property name="meta.attr.2.stream.language.markup">eng</property>
  <property name="meta.attr.2.stream.handler_name.markup">Apple Alias Data Handler</property>
  <property name="meta.attr.2.stream.timecode.markup">16:29:10:24</property>
  <property name="meta.attr.com.apple.proapps.manufacturer.markup">Blackmagic Design</property>
  <property name="meta.attr.com.apple.proapps.cameraName.markup">CAM1</property>
  <property name="meta.attr.com.apple.proapps.isGood.markup">0</property>
  <property name="meta.attr.com.apple.proapps.customgamma.markup">com.blackmagic-design.cinemacamera.filmlog</property>
  <property name="meta.attr.com.blackmagic-design.cinemacamera.uuid.markup">18E5E00548F94923B646613A73C01B56</property>
  <property name="meta.attr.creation_time.markup">2018-12-10T16:29:10.000000Z</property>
  <property name="meta.attr.timecode.markup">16:29:10:24</property>
  <property name="meta.media.sample_aspect_num">1</property>
  <property name="meta.media.sample_aspect_den">1</property>
  <property name="meta.media.frame_rate_num">50</property>
  <property name="meta.media.frame_rate_den">1</property>
  <property name="meta.media.colorspace">709</property>
  <property name="meta.media.color_trc">1</property>
  <property name="meta.media.width">1920</property>
  <property name="meta.media.height">1080</property>
  <property name="meta.media.top_field_first">0</property>
  <property name="meta.media.progressive">1</property>
  <property name="meta.media.1.codec.color_trc">1</property>
  <filter id="filter83">
   <property name="version">0,1</property>
   <property name="mlt_service">frei0r.colgate</property>
   <property name="kdenlive_id">frei0r.colgate</property>
   <property name="tag">frei0r.colgate</property>
   <property name="kdenlive_ix">1</property>
   <property name="kdenlive_info"/>
   <property name="Neutral Color">0x7f7f7fff</property>
   <property name="Color Temperature">0=0,5</property>
   <property name="disable">0</property>
  </filter>
  <filter id="filter84">
   <property name="version">0,3</property>
   <property name="mlt_service">frei0r.levels</property>
   <property name="kdenlive_id">frei0r.levels</property>
   <property name="tag">frei0r.levels</property>
   <property name="kdenlive_ix">2</property>
   <property name="kdenlive_info"/>
   <property name="Channel">0,3</property>
   <property name="Input black level">0=0</property>
   <property name="Input white level">0=0,65</property>
   <property name="Gamma">0=0,25</property>
   <property name="Black output">0=0</property>
   <property name="White output">0=1</property>
   <property name="Show histogram">0</property>
   <property name="Histogram position">0,3</property>
  </filter>
 </producer>
 <producer title="Anonymous Submission" id="producer3" in="0" out="8532">
  <property name="length">00:02:50:33</property>
  <property name="eof">pause</property>
  <property name="resource">/media/bordun/plagiat/2018-12-10_Plagiat_RespecteLaPuissancePapale/Carte_2/CAM1_2018-12-10_1642_C0002.mov</property>
  <property name="audio_index">-1</property>
  <property name="video_index">-1</property>
  <property name="mute_on_pause">1</property>
  <property name="mlt_service">avformat-novalidate</property>
  <property name="seekable">1</property>
  <property name="aspect_ratio">1</property>
  <property name="kdenlive:folderid">10</property>
  <property name="kdenlive:file_size">7878058913</property>
  <property name="kdenlive:file_hash">804eaf7e1fe7b8bd61bac5713c20d510</property>
  <property name="global_feed">1</property>
  <property name="xml">was here</property>
  <property name="kdenlive:binid">7</property>
 </producer>
 <producer id="slowmotion:7:1,22:1:0" in="0" out="6993">
  <property name="length">6994</property>
  <property name="eof">pause</property>
  <property name="resource">1,22:/media/bordun/plagiat/2018-12-10_Plagiat_RespecteLaPuissancePapale/Carte_2/CAM1_2018-12-10_1642_C0002.mov</property>
  <property name="aspect_ratio">1</property>
  <property name="meta.media.nb_streams">3</property>
  <property name="meta.media.1.stream.type">video</property>
  <property name="meta.media.1.stream.frame_rate">50</property>
  <property name="meta.media.1.stream.sample_aspect_ratio">1</property>
  <property name="meta.media.1.codec.width">1920</property>
  <property name="meta.media.1.codec.height">1080</property>
  <property name="meta.media.1.codec.rotate">0</property>
  <property name="meta.media.1.codec.frame_rate">5000</property>
  <property name="meta.media.1.codec.pix_fmt">yuv422p10le</property>
  <property name="meta.media.1.codec.sample_aspect_ratio">0</property>
  <property name="meta.media.1.codec.colorspace">709</property>
  <property name="meta.media.1.codec.color_trc">1</property>
  <property name="meta.media.1.codec.name">prores</property>
  <property name="meta.media.1.codec.long_name">ProRes</property>
  <property name="meta.media.1.codec.bit_rate">366955794</property>
  <property name="meta.attr.1.stream.creation_time.markup">2018-12-10T16:42:49.000000Z</property>
  <property name="meta.attr.1.stream.language.markup">eng</property>
  <property name="meta.attr.1.stream.handler_name.markup">Apple Alias Data Handler</property>
  <property name="meta.attr.1.stream.encoder.markup">Apple ProRes 422 HQ</property>
  <property name="meta.attr.1.stream.timecode.markup">16:42:49:18</property>
  <property name="meta.media.2.stream.type">audio</property>
  <property name="meta.media.2.codec.sample_fmt">s32</property>
  <property name="meta.media.2.codec.sample_rate">48000</property>
  <property name="meta.media.2.codec.channels">2</property>
  <property name="meta.media.2.codec.name">pcm_s24le</property>
  <property name="meta.media.2.codec.long_name">PCM signed 24-bit little-endian</property>
  <property name="meta.media.2.codec.bit_rate">2304000</property>
  <property name="meta.attr.2.stream.creation_time.markup">2018-12-10T16:42:49.000000Z</property>
  <property name="meta.attr.2.stream.language.markup">eng</property>
  <property name="meta.attr.2.stream.handler_name.markup">Apple Alias Data Handler</property>
  <property name="meta.attr.2.stream.timecode.markup">16:42:49:18</property>
  <property name="meta.attr.com.apple.proapps.manufacturer.markup">Blackmagic Design</property>
  <property name="meta.attr.com.apple.proapps.cameraName.markup">CAM1</property>
  <property name="meta.attr.com.apple.proapps.isGood.markup">0</property>
  <property name="meta.attr.com.apple.proapps.customgamma.markup">com.blackmagic-design.cinemacamera.filmlog</property>
  <property name="meta.attr.com.blackmagic-design.cinemacamera.uuid.markup">18E5E00548F94923B646613A73C01B56</property>
  <property name="meta.attr.creation_time.markup">2018-12-10T16:42:49.000000Z</property>
  <property name="meta.attr.timecode.markup">16:42:49:18</property>
  <property name="seekable">1</property>
  <property name="meta.media.sample_aspect_num">1</property>
  <property name="meta.media.sample_aspect_den">1</property>
  <property name="audio_index">2</property>
  <property name="video_index">1</property>
  <property name="mute_on_pause">1</property>
  <property name="warp_speed">1,22</property>
  <property name="warp_resource">/media/bordun/plagiat/2018-12-10_Plagiat_RespecteLaPuissancePapale/Carte_2/CAM1_2018-12-10_1642_C0002.mov</property>
  <property name="mlt_service">timewarp</property>
  <property name="meta.media.frame_rate_num">50</property>
  <property name="meta.media.frame_rate_den">1</property>
  <property name="meta.media.colorspace">709</property>
  <property name="meta.media.color_trc">1</property>
  <property name="meta.media.width">1920</property>
  <property name="meta.media.height">1080</property>
  <property name="meta.media.top_field_first">0</property>
  <property name="meta.media.progressive">1</property>
  <filter id="filter85">
   <property name="version">0,1</property>
   <property name="mlt_service">frei0r.colgate</property>
   <property name="kdenlive_id">frei0r.colgate</property>
   <property name="tag">frei0r.colgate</property>
   <property name="kdenlive_ix">1</property>
   <property name="kdenlive_info"/>
   <property name="Neutral Color">0x7f7f7fff</property>
   <property name="Color Temperature">0=0,5</property>
  </filter>
  <filter id="filter86">
   <property name="version">0,3</property>
   <property name="mlt_service">frei0r.levels</property>
   <property name="kdenlive_id">frei0r.levels</property>
   <property name="tag">frei0r.levels</property>
   <property name="kdenlive_ix">2</property>
   <property name="kdenlive_info"/>
   <property name="Channel">0,3</property>
   <property name="Input black level">0=0</property>
   <property name="Input white level">0=0,65</property>
   <property name="Gamma">0=0,25</property>
   <property name="Black output">0=0</property>
   <property name="White output">0=1</property>
   <property name="Show histogram">0</property>
   <property name="Histogram position">0,3</property>
   <property name="disable">0</property>
  </filter>
 </producer>
 <producer id="slowmotion:7:0,5:1:0" in="0" out="17065">
  <property name="length">17066</property>
  <property name="eof">pause</property>
  <property name="resource">0,5:/media/bordun/plagiat/2018-12-10_Plagiat_RespecteLaPuissancePapale/Carte_2/CAM1_2018-12-10_1642_C0002.mov</property>
  <property name="aspect_ratio">1</property>
  <property name="meta.media.nb_streams">3</property>
  <property name="meta.media.1.stream.type">video</property>
  <property name="meta.media.1.stream.frame_rate">50</property>
  <property name="meta.media.1.stream.sample_aspect_ratio">1</property>
  <property name="meta.media.1.codec.width">1920</property>
  <property name="meta.media.1.codec.height">1080</property>
  <property name="meta.media.1.codec.rotate">0</property>
  <property name="meta.media.1.codec.frame_rate">5000</property>
  <property name="meta.media.1.codec.pix_fmt">yuv422p10le</property>
  <property name="meta.media.1.codec.sample_aspect_ratio">0</property>
  <property name="meta.media.1.codec.colorspace">709</property>
  <property name="meta.media.1.codec.color_trc">1</property>
  <property name="meta.media.1.codec.name">prores</property>
  <property name="meta.media.1.codec.long_name">ProRes</property>
  <property name="meta.media.1.codec.bit_rate">366955794</property>
  <property name="meta.attr.1.stream.creation_time.markup">2018-12-10T16:42:49.000000Z</property>
  <property name="meta.attr.1.stream.language.markup">eng</property>
  <property name="meta.attr.1.stream.handler_name.markup">Apple Alias Data Handler</property>
  <property name="meta.attr.1.stream.encoder.markup">Apple ProRes 422 HQ</property>
  <property name="meta.attr.1.stream.timecode.markup">16:42:49:18</property>
  <property name="meta.media.2.stream.type">audio</property>
  <property name="meta.media.2.codec.sample_fmt">s32</property>
  <property name="meta.media.2.codec.sample_rate">48000</property>
  <property name="meta.media.2.codec.channels">2</property>
  <property name="meta.media.2.codec.name">pcm_s24le</property>
  <property name="meta.media.2.codec.long_name">PCM signed 24-bit little-endian</property>
  <property name="meta.media.2.codec.bit_rate">2304000</property>
  <property name="meta.attr.2.stream.creation_time.markup">2018-12-10T16:42:49.000000Z</property>
  <property name="meta.attr.2.stream.language.markup">eng</property>
  <property name="meta.attr.2.stream.handler_name.markup">Apple Alias Data Handler</property>
  <property name="meta.attr.2.stream.timecode.markup">16:42:49:18</property>
  <property name="meta.attr.com.apple.proapps.manufacturer.markup">Blackmagic Design</property>
  <property name="meta.attr.com.apple.proapps.cameraName.markup">CAM1</property>
  <property name="meta.attr.com.apple.proapps.isGood.markup">0</property>
  <property name="meta.attr.com.apple.proapps.customgamma.markup">com.blackmagic-design.cinemacamera.filmlog</property>
  <property name="meta.attr.com.blackmagic-design.cinemacamera.uuid.markup">18E5E00548F94923B646613A73C01B56</property>
  <property name="meta.attr.creation_time.markup">2018-12-10T16:42:49.000000Z</property>
  <property name="meta.attr.timecode.markup">16:42:49:18</property>
  <property name="seekable">1</property>
  <property name="meta.media.sample_aspect_num">1</property>
  <property name="meta.media.sample_aspect_den">1</property>
  <property name="audio_index">2</property>
  <property name="video_index">1</property>
  <property name="mute_on_pause">1</property>
  <property name="warp_speed">0,5</property>
  <property name="warp_resource">/media/bordun/plagiat/2018-12-10_Plagiat_RespecteLaPuissancePapale/Carte_2/CAM1_2018-12-10_1642_C0002.mov</property>
  <property name="mlt_service">timewarp</property>
  <property name="meta.media.frame_rate_num">50</property>
  <property name="meta.media.frame_rate_den">1</property>
  <property name="meta.media.colorspace">709</property>
  <property name="meta.media.color_trc">1</property>
  <property name="meta.media.width">1920</property>
  <property name="meta.media.height">1080</property>
  <property name="meta.media.top_field_first">0</property>
  <property name="meta.media.progressive">1</property>
  <filter id="filter87">
   <property name="version">0,1</property>
   <property name="mlt_service">frei0r.colgate</property>
   <property name="kdenlive_id">frei0r.colgate</property>
   <property name="tag">frei0r.colgate</property>
   <property name="kdenlive_ix">1</property>
   <property name="kdenlive_info"/>
   <property name="Neutral Color">0x7f7f7fff</property>
   <property name="Color Temperature">0=0,5</property>
  </filter>
  <filter id="filter88">
   <property name="version">0,3</property>
   <property name="mlt_service">frei0r.levels</property>
   <property name="kdenlive_id">frei0r.levels</property>
   <property name="tag">frei0r.levels</property>
   <property name="kdenlive_ix">2</property>
   <property name="kdenlive_info"/>
   <property name="Channel">0,3</property>
   <property name="Input black level">0=0</property>
   <property name="Input white level">0=0,65</property>
   <property name="Gamma">0=0,25</property>
   <property name="Black output">0=0</property>
   <property name="White output">0=1</property>
   <property name="Show histogram">0</property>
   <property name="Histogram position">0,3</property>
   <property name="disable">0</property>
  </filter>
 </producer>
 <producer title="Anonymous Submission" id="4_playlist6" in="0" out="24870">
  <property name="length">00:08:17:21</property>
  <property name="eof">pause</property>
  <property name="resource">/media/bordun/plagiat/2018-12-10_Plagiat_RespecteLaPuissancePapale/Carte_1/CAM1_2018-12-10_1615_C0003.mov</property>
  <property name="audio_index">2</property>
  <property name="video_index">1</property>
  <property name="mute_on_pause">1</property>
  <property name="mlt_service">avformat-novalidate</property>
  <property name="seekable">1</property>
  <property name="aspect_ratio">1</property>
  <property name="kdenlive:folderid">9</property>
  <property name="kdenlive:file_size">22962054105</property>
  <property name="kdenlive:file_hash">c46129788c0a47f07299f13c18fcc857</property>
  <property name="global_feed">1</property>
  <property name="xml">was here</property>
  <property name="meta.media.nb_streams">3</property>
  <property name="meta.media.1.stream.type">video</property>
  <property name="meta.media.1.stream.frame_rate">50</property>
  <property name="meta.media.1.stream.sample_aspect_ratio">1</property>
  <property name="meta.media.1.codec.width">1920</property>
  <property name="meta.media.1.codec.height">1080</property>
  <property name="meta.media.1.codec.rotate">0</property>
  <property name="meta.media.1.codec.frame_rate">5000</property>
  <property name="meta.media.1.codec.pix_fmt">yuv422p10le</property>
  <property name="meta.media.1.codec.sample_aspect_ratio">0</property>
  <property name="meta.media.1.codec.colorspace">709</property>
  <property name="meta.media.1.codec.name">prores</property>
  <property name="meta.media.1.codec.long_name">ProRes</property>
  <property name="meta.media.1.codec.bit_rate">366958409</property>
  <property name="meta.attr.1.stream.creation_time.markup">2018-12-10T16:15:42.000000Z</property>
  <property name="meta.attr.1.stream.language.markup">eng</property>
  <property name="meta.attr.1.stream.handler_name.markup">Apple Alias Data Handler</property>
  <property name="meta.attr.1.stream.encoder.markup">Apple ProRes 422 HQ</property>
  <property name="meta.attr.1.stream.timecode.markup">16:15:42:33</property>
  <property name="meta.media.2.stream.type">audio</property>
  <property name="meta.media.2.codec.sample_fmt">s32</property>
  <property name="meta.media.2.codec.sample_rate">48000</property>
  <property name="meta.media.2.codec.channels">2</property>
  <property name="meta.media.2.codec.name">pcm_s24le</property>
  <property name="meta.media.2.codec.long_name">PCM signed 24-bit little-endian</property>
  <property name="meta.media.2.codec.bit_rate">2304000</property>
  <property name="meta.attr.2.stream.creation_time.markup">2018-12-10T16:15:42.000000Z</property>
  <property name="meta.attr.2.stream.language.markup">eng</property>
  <property name="meta.attr.2.stream.handler_name.markup">Apple Alias Data Handler</property>
  <property name="meta.attr.2.stream.timecode.markup">16:15:42:33</property>
  <property name="meta.attr.com.apple.proapps.manufacturer.markup">Blackmagic Design</property>
  <property name="meta.attr.com.apple.proapps.cameraName.markup">CAM1</property>
  <property name="meta.attr.com.apple.proapps.isGood.markup">0</property>
  <property name="meta.attr.com.apple.proapps.customgamma.markup">com.blackmagic-design.cinemacamera.filmlog</property>
  <property name="meta.attr.com.blackmagic-design.cinemacamera.uuid.markup">18E5E00548F94923B646613A73C01B56</property>
  <property name="meta.attr.creation_time.markup">2018-12-10T16:15:42.000000Z</property>
  <property name="meta.attr.timecode.markup">16:15:42:33</property>
  <property name="meta.media.sample_aspect_num">1</property>
  <property name="meta.media.sample_aspect_den">1</property>
  <property name="meta.media.frame_rate_num">50</property>
  <property name="meta.media.frame_rate_den">1</property>
  <property name="meta.media.colorspace">709</property>
  <property name="meta.media.color_trc">1</property>
  <property name="meta.media.width">1920</property>
  <property name="meta.media.height">1080</property>
  <property name="meta.media.top_field_first">0</property>
  <property name="meta.media.progressive">1</property>
  <property name="meta.media.1.codec.color_trc">1</property>
  <filter id="filter89">
   <property name="version">0,1</property>
   <property name="mlt_service">frei0r.colgate</property>
   <property name="kdenlive_id">frei0r.colgate</property>
   <property name="tag">frei0r.colgate</property>
   <property name="kdenlive_ix">1</property>
   <property name="kdenlive_info"/>
   <property name="Neutral Color">0x7f7f7fff</property>
   <property name="Color Temperature">0=0,5</property>
  </filter>
  <filter id="filter90">
   <property name="version">0,3</property>
   <property name="mlt_service">frei0r.levels</property>
   <property name="kdenlive_id">frei0r.levels</property>
   <property name="tag">frei0r.levels</property>
   <property name="kdenlive_ix">2</property>
   <property name="kdenlive_info"/>
   <property name="Channel">0,3</property>
   <property name="Input black level">0=0</property>
   <property name="Input white level">0=0,65</property>
   <property name="Gamma">0=0,25</property>
   <property name="Black output">0=0</property>
   <property name="White output">0=1</property>
   <property name="Show histogram">0</property>
   <property name="Histogram position">0,3</property>
  </filter>
 </producer>
 <playlist id="playlist6">
  <property name="kdenlive:track_name">Vidéo 5</property>
  <blank length="367"/>
  <entry producer="7_playlist6" in="3372" out="3513"/>
  <blank length="101"/>
  <entry producer="7_playlist6" in="3615" out="3708"/>
  <blank length="49"/>
  <entry producer="7_playlist6" in="3758" out="3861"/>
  <blank length="465"/>
  <entry producer="7_playlist6" in="4328" out="4411"/>
  <blank length="199"/>
  <entry producer="6_playlist6" in="1096" out="1223">
   <filter id="filter91" in="1096" out="1223">
    <property name="background">colour:0x00000000</property>
    <property name="mlt_service">affine</property>
    <property name="kdenlive_id">pan_zoom</property>
    <property name="tag">affine</property>
    <property name="kdenlive_ix">1</property>
    <property name="transition.geometry">-192/-54:2304x1296:100</property>
    <property name="transition.distort">0</property>
    <property name="kdenlive:sync_in_out">1</property>
    <property name="kdenlive_info"/>
   </filter>
  </entry>
  <blank length="885"/>
  <entry producer="5_playlist6" in="17062" out="17123">
   <filter id="filter92">
    <property name="background">colour:0x00000000</property>
    <property name="mlt_service">affine</property>
    <property name="kdenlive_id">pan_zoom</property>
    <property name="tag">affine</property>
    <property name="kdenlive_ix">1</property>
    <property name="kdenlive_info"/>
    <property name="disable"/>
    <property name="transition.geometry">-369/-144:2880x1620:100</property>
    <property name="transition.distort">0</property>
   </filter>
  </entry>
  <blank length="47"/>
  <entry producer="producer3" in="5573" out="5600"/>
  <blank length="84"/>
  <entry producer="7_playlist6" in="6213" out="6291"/>
  <blank length="4"/>
  <entry producer="7_playlist6" in="6482" out="6558"/>
  <blank length="38"/>
  <entry producer="7_playlist6" in="5695" out="5750"/>
  <blank length="127"/>
  <entry producer="7_playlist6" in="5707" out="5769"/>
  <blank length="69"/>
  <entry producer="7_playlist6" in="5840" out="5966"/>
  <blank length="34"/>
  <entry producer="7_playlist6" in="6004" out="6035"/>
  <entry producer="7_playlist6" in="6035" out="6069"/>
  <blank length="55"/>
  <entry producer="7_playlist6" in="6639" out="6690"/>
  <blank length="5"/>
  <entry producer="7_playlist6" in="6691" out="6762"/>
  <blank length="23"/>
  <entry producer="7_playlist6" in="6792" out="6850"/>
  <entry producer="7_playlist6" in="6851" out="6883">
   <filter id="pan_zoom" in="6851" out="6883">
    <property name="background">colour:0x00000000</property>
    <property name="mlt_service">affine</property>
    <property name="kdenlive_id">pan_zoom</property>
    <property name="tag">affine</property>
    <property name="kdenlive_ix">1</property>
    <property name="transition.geometry">-157/-116:2304x1296:100</property>
    <property name="transition.distort">0</property>
    <property name="kdenlive:sync_in_out">1</property>
    <property name="kdenlive_info"/>
   </filter>
  </entry>
  <blank length="87"/>
  <entry producer="7_playlist6" in="6962" out="7003"/>
  <entry producer="slowmotion:7:1,22:1:0" in="5741" out="5763"/>
  <blank length="19"/>
  <entry producer="7_playlist6" in="7046" out="7066"/>
  <blank length="53"/>
  <entry producer="7_playlist6" in="7130" out="7157"/>
  <entry producer="slowmotion:7:0,5:1:0" in="14316" out="14333"/>
  <blank length="797"/>
  <entry producer="slowmotion:4:2:1:0" in="4225" out="4290"/>
  <blank length="86"/>
  <entry producer="4_playlist6" in="8613" out="8664"/>
  <blank length="51"/>
  <entry producer="slowmotion:4:2:1:0" in="4421" out="4454"/>
  <blank length="45"/>
  <entry producer="slowmotion:4:3:1:0" in="2974" out="2982"/>
  <entry producer="slowmotion:4:1,5:1:0" in="5965" out="5983"/>
 </playlist>
 <producer title="Anonymous Submission" id="5_playlist7" in="0" out="19246">
  <property name="length">00:06:24:47</property>
  <property name="eof">pause</property>
  <property name="resource">/media/bordun/plagiat/2018-12-10_Plagiat_RespecteLaPuissancePapale/Carte_2/CAM1_2018-12-10_1629_C0000.mov</property>
  <property name="audio_index">2</property>
  <property name="video_index">1</property>
  <property name="mute_on_pause">1</property>
  <property name="mlt_service">avformat-novalidate</property>
  <property name="seekable">1</property>
  <property name="aspect_ratio">1</property>
  <property name="kdenlive:folderid">9</property>
  <property name="kdenlive:file_size">17769713233</property>
  <property name="kdenlive:file_hash">40fd95546ae131f6c5881d8660dbcccc</property>
  <property name="global_feed">1</property>
  <property name="xml">was here</property>
  <property name="meta.media.nb_streams">3</property>
  <property name="meta.media.1.stream.type">video</property>
  <property name="meta.media.1.stream.frame_rate">50</property>
  <property name="meta.media.1.stream.sample_aspect_ratio">1</property>
  <property name="meta.media.1.codec.width">1920</property>
  <property name="meta.media.1.codec.height">1080</property>
  <property name="meta.media.1.codec.rotate">0</property>
  <property name="meta.media.1.codec.frame_rate">5000</property>
  <property name="meta.media.1.codec.pix_fmt">yuv422p10le</property>
  <property name="meta.media.1.codec.sample_aspect_ratio">0</property>
  <property name="meta.media.1.codec.colorspace">709</property>
  <property name="meta.media.1.codec.name">prores</property>
  <property name="meta.media.1.codec.long_name">ProRes</property>
  <property name="meta.media.1.codec.bit_rate">366959020</property>
  <property name="meta.attr.1.stream.creation_time.markup">2018-12-10T16:29:10.000000Z</property>
  <property name="meta.attr.1.stream.language.markup">eng</property>
  <property name="meta.attr.1.stream.handler_name.markup">Apple Alias Data Handler</property>
  <property name="meta.attr.1.stream.encoder.markup">Apple ProRes 422 HQ</property>
  <property name="meta.attr.1.stream.timecode.markup">16:29:10:24</property>
  <property name="meta.media.2.stream.type">audio</property>
  <property name="meta.media.2.codec.sample_fmt">s32</property>
  <property name="meta.media.2.codec.sample_rate">48000</property>
  <property name="meta.media.2.codec.channels">2</property>
  <property name="meta.media.2.codec.name">pcm_s24le</property>
  <property name="meta.media.2.codec.long_name">PCM signed 24-bit little-endian</property>
  <property name="meta.media.2.codec.bit_rate">2304000</property>
  <property name="meta.attr.2.stream.creation_time.markup">2018-12-10T16:29:10.000000Z</property>
  <property name="meta.attr.2.stream.language.markup">eng</property>
  <property name="meta.attr.2.stream.handler_name.markup">Apple Alias Data Handler</property>
  <property name="meta.attr.2.stream.timecode.markup">16:29:10:24</property>
  <property name="meta.attr.com.apple.proapps.manufacturer.markup">Blackmagic Design</property>
  <property name="meta.attr.com.apple.proapps.cameraName.markup">CAM1</property>
  <property name="meta.attr.com.apple.proapps.isGood.markup">0</property>
  <property name="meta.attr.com.apple.proapps.customgamma.markup">com.blackmagic-design.cinemacamera.filmlog</property>
  <property name="meta.attr.com.blackmagic-design.cinemacamera.uuid.markup">18E5E00548F94923B646613A73C01B56</property>
  <property name="meta.attr.creation_time.markup">2018-12-10T16:29:10.000000Z</property>
  <property name="meta.attr.timecode.markup">16:29:10:24</property>
  <property name="meta.media.sample_aspect_num">1</property>
  <property name="meta.media.sample_aspect_den">1</property>
  <property name="meta.media.frame_rate_num">50</property>
  <property name="meta.media.frame_rate_den">1</property>
  <property name="meta.media.colorspace">709</property>
  <property name="meta.media.color_trc">1</property>
  <property name="meta.media.width">1920</property>
  <property name="meta.media.height">1080</property>
  <property name="meta.media.top_field_first">0</property>
  <property name="meta.media.progressive">1</property>
  <property name="meta.media.1.codec.color_trc">1</property>
  <filter id="filter93">
   <property name="version">0,1</property>
   <property name="mlt_service">frei0r.colgate</property>
   <property name="kdenlive_id">frei0r.colgate</property>
   <property name="tag">frei0r.colgate</property>
   <property name="kdenlive_ix">1</property>
   <property name="kdenlive_info"/>
   <property name="Neutral Color">0x7f7f7fff</property>
   <property name="Color Temperature">0=0,5</property>
   <property name="disable">0</property>
  </filter>
  <filter id="filter94">
   <property name="version">0,3</property>
   <property name="mlt_service">frei0r.levels</property>
   <property name="kdenlive_id">frei0r.levels</property>
   <property name="tag">frei0r.levels</property>
   <property name="kdenlive_ix">2</property>
   <property name="kdenlive_info"/>
   <property name="Channel">0,3</property>
   <property name="Input black level">0=0</property>
   <property name="Input white level">0=0,65</property>
   <property name="Gamma">0=0,25</property>
   <property name="Black output">0=0</property>
   <property name="White output">0=1</property>
   <property name="Show histogram">0</property>
   <property name="Histogram position">0,3</property>
  </filter>
 </producer>
 <producer title="Anonymous Submission" id="6_playlist7" in="0" out="4178">
  <property name="length">00:01:23:29</property>
  <property name="eof">pause</property>
  <property name="resource">/media/bordun/plagiat/2018-12-10_Plagiat_RespecteLaPuissancePapale/Carte_2/CAM1_2018-12-10_1638_C0001.mov</property>
  <property name="audio_index">2</property>
  <property name="video_index">1</property>
  <property name="mute_on_pause">1</property>
  <property name="mlt_service">avformat-novalidate</property>
  <property name="seekable">1</property>
  <property name="aspect_ratio">1</property>
  <property name="kdenlive:folderid">10</property>
  <property name="kdenlive:file_size">3858252521</property>
  <property name="kdenlive:file_hash">5c73d3cae02de055fc4255e57a85a699</property>
  <property name="global_feed">1</property>
  <property name="xml">was here</property>
  <property name="meta.media.nb_streams">3</property>
  <property name="meta.media.1.stream.type">video</property>
  <property name="meta.media.1.stream.frame_rate">50</property>
  <property name="meta.media.1.stream.sample_aspect_ratio">1</property>
  <property name="meta.media.1.codec.width">1920</property>
  <property name="meta.media.1.codec.height">1080</property>
  <property name="meta.media.1.codec.rotate">0</property>
  <property name="meta.media.1.codec.frame_rate">5000</property>
  <property name="meta.media.1.codec.pix_fmt">yuv422p10le</property>
  <property name="meta.media.1.codec.sample_aspect_ratio">0</property>
  <property name="meta.media.1.codec.colorspace">709</property>
  <property name="meta.media.1.codec.name">prores</property>
  <property name="meta.media.1.codec.long_name">ProRes</property>
  <property name="meta.media.1.codec.bit_rate">366955515</property>
  <property name="meta.attr.1.stream.creation_time.markup">2018-12-10T16:38:23.000000Z</property>
  <property name="meta.attr.1.stream.language.markup">eng</property>
  <property name="meta.attr.1.stream.handler_name.markup">Apple Alias Data Handler</property>
  <property name="meta.attr.1.stream.encoder.markup">Apple ProRes 422 HQ</property>
  <property name="meta.attr.1.stream.timecode.markup">16:38:23:16</property>
  <property name="meta.media.2.stream.type">audio</property>
  <property name="meta.media.2.codec.sample_fmt">s32</property>
  <property name="meta.media.2.codec.sample_rate">48000</property>
  <property name="meta.media.2.codec.channels">2</property>
  <property name="meta.media.2.codec.name">pcm_s24le</property>
  <property name="meta.media.2.codec.long_name">PCM signed 24-bit little-endian</property>
  <property name="meta.media.2.codec.bit_rate">2304000</property>
  <property name="meta.attr.2.stream.creation_time.markup">2018-12-10T16:38:23.000000Z</property>
  <property name="meta.attr.2.stream.language.markup">eng</property>
  <property name="meta.attr.2.stream.handler_name.markup">Apple Alias Data Handler</property>
  <property name="meta.attr.2.stream.timecode.markup">16:38:23:16</property>
  <property name="meta.attr.com.apple.proapps.manufacturer.markup">Blackmagic Design</property>
  <property name="meta.attr.com.apple.proapps.cameraName.markup">CAM1</property>
  <property name="meta.attr.com.apple.proapps.isGood.markup">0</property>
  <property name="meta.attr.com.apple.proapps.customgamma.markup">com.blackmagic-design.cinemacamera.filmlog</property>
  <property name="meta.attr.com.blackmagic-design.cinemacamera.uuid.markup">18E5E00548F94923B646613A73C01B56</property>
  <property name="meta.attr.creation_time.markup">2018-12-10T16:38:23.000000Z</property>
  <property name="meta.attr.timecode.markup">16:38:23:16</property>
  <property name="meta.media.sample_aspect_num">1</property>
  <property name="meta.media.sample_aspect_den">1</property>
  <property name="meta.media.frame_rate_num">50</property>
  <property name="meta.media.frame_rate_den">1</property>
  <property name="meta.media.colorspace">709</property>
  <property name="meta.media.color_trc">1</property>
  <property name="meta.media.width">1920</property>
  <property name="meta.media.height">1080</property>
  <property name="meta.media.top_field_first">0</property>
  <property name="meta.media.progressive">1</property>
  <property name="meta.media.1.codec.color_trc">1</property>
  <filter id="filter95">
   <property name="version">0,1</property>
   <property name="mlt_service">frei0r.colgate</property>
   <property name="kdenlive_id">frei0r.colgate</property>
   <property name="tag">frei0r.colgate</property>
   <property name="kdenlive_ix">1</property>
   <property name="kdenlive_info"/>
   <property name="Neutral Color">0x7f7f7fff</property>
   <property name="Color Temperature">0=0,5</property>
  </filter>
  <filter id="filter96">
   <property name="version">0,3</property>
   <property name="mlt_service">frei0r.levels</property>
   <property name="kdenlive_id">frei0r.levels</property>
   <property name="tag">frei0r.levels</property>
   <property name="kdenlive_ix">2</property>
   <property name="kdenlive_info"/>
   <property name="Channel">0,3</property>
   <property name="Input black level">0=0</property>
   <property name="Input white level">0=0,65</property>
   <property name="Gamma">0=0,25</property>
   <property name="Black output">0=0</property>
   <property name="White output">0=1</property>
   <property name="Show histogram">0</property>
   <property name="Histogram position">0,3</property>
  </filter>
 </producer>
 <producer id="slowmotion:6:0,8:1:0" in="0" out="5223">
  <property name="length">5224</property>
  <property name="eof">pause</property>
  <property name="resource">0,8:/media/bordun/plagiat/2018-12-10_Plagiat_RespecteLaPuissancePapale/Carte_2/CAM1_2018-12-10_1638_C0001.mov</property>
  <property name="aspect_ratio">1</property>
  <property name="meta.media.nb_streams">3</property>
  <property name="meta.media.1.stream.type">video</property>
  <property name="meta.media.1.stream.frame_rate">50</property>
  <property name="meta.media.1.stream.sample_aspect_ratio">1</property>
  <property name="meta.media.1.codec.width">1920</property>
  <property name="meta.media.1.codec.height">1080</property>
  <property name="meta.media.1.codec.rotate">0</property>
  <property name="meta.media.1.codec.frame_rate">5000</property>
  <property name="meta.media.1.codec.pix_fmt">yuv422p10le</property>
  <property name="meta.media.1.codec.sample_aspect_ratio">0</property>
  <property name="meta.media.1.codec.colorspace">709</property>
  <property name="meta.media.1.codec.color_trc">1</property>
  <property name="meta.media.1.codec.name">prores</property>
  <property name="meta.media.1.codec.long_name">ProRes</property>
  <property name="meta.media.1.codec.bit_rate">366955515</property>
  <property name="meta.attr.1.stream.creation_time.markup">2018-12-10T16:38:23.000000Z</property>
  <property name="meta.attr.1.stream.language.markup">eng</property>
  <property name="meta.attr.1.stream.handler_name.markup">Apple Alias Data Handler</property>
  <property name="meta.attr.1.stream.encoder.markup">Apple ProRes 422 HQ</property>
  <property name="meta.attr.1.stream.timecode.markup">16:38:23:16</property>
  <property name="meta.media.2.stream.type">audio</property>
  <property name="meta.media.2.codec.sample_fmt">s32</property>
  <property name="meta.media.2.codec.sample_rate">48000</property>
  <property name="meta.media.2.codec.channels">2</property>
  <property name="meta.media.2.codec.name">pcm_s24le</property>
  <property name="meta.media.2.codec.long_name">PCM signed 24-bit little-endian</property>
  <property name="meta.media.2.codec.bit_rate">2304000</property>
  <property name="meta.attr.2.stream.creation_time.markup">2018-12-10T16:38:23.000000Z</property>
  <property name="meta.attr.2.stream.language.markup">eng</property>
  <property name="meta.attr.2.stream.handler_name.markup">Apple Alias Data Handler</property>
  <property name="meta.attr.2.stream.timecode.markup">16:38:23:16</property>
  <property name="meta.attr.com.apple.proapps.manufacturer.markup">Blackmagic Design</property>
  <property name="meta.attr.com.apple.proapps.cameraName.markup">CAM1</property>
  <property name="meta.attr.com.apple.proapps.isGood.markup">0</property>
  <property name="meta.attr.com.apple.proapps.customgamma.markup">com.blackmagic-design.cinemacamera.filmlog</property>
  <property name="meta.attr.com.blackmagic-design.cinemacamera.uuid.markup">18E5E00548F94923B646613A73C01B56</property>
  <property name="meta.attr.creation_time.markup">2018-12-10T16:38:23.000000Z</property>
  <property name="meta.attr.timecode.markup">16:38:23:16</property>
  <property name="seekable">1</property>
  <property name="meta.media.sample_aspect_num">1</property>
  <property name="meta.media.sample_aspect_den">1</property>
  <property name="audio_index">2</property>
  <property name="video_index">1</property>
  <property name="mute_on_pause">1</property>
  <property name="warp_speed">0,8</property>
  <property name="warp_resource">/media/bordun/plagiat/2018-12-10_Plagiat_RespecteLaPuissancePapale/Carte_2/CAM1_2018-12-10_1638_C0001.mov</property>
  <property name="mlt_service">timewarp</property>
  <property name="meta.media.frame_rate_num">50</property>
  <property name="meta.media.frame_rate_den">1</property>
  <property name="meta.media.colorspace">709</property>
  <property name="meta.media.color_trc">1</property>
  <property name="meta.media.width">1920</property>
  <property name="meta.media.height">1080</property>
  <property name="meta.media.top_field_first">0</property>
  <property name="meta.media.progressive">1</property>
  <filter id="filter97">
   <property name="version">0,1</property>
   <property name="mlt_service">frei0r.colgate</property>
   <property name="kdenlive_id">frei0r.colgate</property>
   <property name="tag">frei0r.colgate</property>
   <property name="kdenlive_ix">1</property>
   <property name="kdenlive_info"/>
   <property name="Neutral Color">0x7f7f7fff</property>
   <property name="Color Temperature">0=0,5</property>
  </filter>
  <filter id="filter98">
   <property name="version">0,3</property>
   <property name="mlt_service">frei0r.levels</property>
   <property name="kdenlive_id">frei0r.levels</property>
   <property name="tag">frei0r.levels</property>
   <property name="kdenlive_ix">2</property>
   <property name="kdenlive_info"/>
   <property name="Channel">0,3</property>
   <property name="Input black level">0=0</property>
   <property name="Input white level">0=0,65</property>
   <property name="Gamma">0=0,25</property>
   <property name="Black output">0=0</property>
   <property name="White output">0=1</property>
   <property name="Show histogram">0</property>
   <property name="Histogram position">0,3</property>
  </filter>
 </producer>
 <producer title="Anonymous Submission" id="7_playlist7" in="0" out="8532">
  <property name="length">00:02:50:33</property>
  <property name="eof">pause</property>
  <property name="resource">/media/bordun/plagiat/2018-12-10_Plagiat_RespecteLaPuissancePapale/Carte_2/CAM1_2018-12-10_1642_C0002.mov</property>
  <property name="audio_index">2</property>
  <property name="video_index">1</property>
  <property name="mute_on_pause">1</property>
  <property name="mlt_service">avformat-novalidate</property>
  <property name="seekable">1</property>
  <property name="aspect_ratio">1</property>
  <property name="kdenlive:folderid">10</property>
  <property name="kdenlive:file_size">7878058913</property>
  <property name="kdenlive:file_hash">804eaf7e1fe7b8bd61bac5713c20d510</property>
  <property name="global_feed">1</property>
  <property name="xml">was here</property>
  <property name="meta.media.nb_streams">3</property>
  <property name="meta.media.1.stream.type">video</property>
  <property name="meta.media.1.stream.frame_rate">50</property>
  <property name="meta.media.1.stream.sample_aspect_ratio">1</property>
  <property name="meta.media.1.codec.width">1920</property>
  <property name="meta.media.1.codec.height">1080</property>
  <property name="meta.media.1.codec.rotate">0</property>
  <property name="meta.media.1.codec.frame_rate">5000</property>
  <property name="meta.media.1.codec.pix_fmt">yuv422p10le</property>
  <property name="meta.media.1.codec.sample_aspect_ratio">0</property>
  <property name="meta.media.1.codec.colorspace">709</property>
  <property name="meta.media.1.codec.name">prores</property>
  <property name="meta.media.1.codec.long_name">ProRes</property>
  <property name="meta.media.1.codec.bit_rate">366955794</property>
  <property name="meta.attr.1.stream.creation_time.markup">2018-12-10T16:42:49.000000Z</property>
  <property name="meta.attr.1.stream.language.markup">eng</property>
  <property name="meta.attr.1.stream.handler_name.markup">Apple Alias Data Handler</property>
  <property name="meta.attr.1.stream.encoder.markup">Apple ProRes 422 HQ</property>
  <property name="meta.attr.1.stream.timecode.markup">16:42:49:18</property>
  <property name="meta.media.2.stream.type">audio</property>
  <property name="meta.media.2.codec.sample_fmt">s32</property>
  <property name="meta.media.2.codec.sample_rate">48000</property>
  <property name="meta.media.2.codec.channels">2</property>
  <property name="meta.media.2.codec.name">pcm_s24le</property>
  <property name="meta.media.2.codec.long_name">PCM signed 24-bit little-endian</property>
  <property name="meta.media.2.codec.bit_rate">2304000</property>
  <property name="meta.attr.2.stream.creation_time.markup">2018-12-10T16:42:49.000000Z</property>
  <property name="meta.attr.2.stream.language.markup">eng</property>
  <property name="meta.attr.2.stream.handler_name.markup">Apple Alias Data Handler</property>
  <property name="meta.attr.2.stream.timecode.markup">16:42:49:18</property>
  <property name="meta.attr.com.apple.proapps.manufacturer.markup">Blackmagic Design</property>
  <property name="meta.attr.com.apple.proapps.cameraName.markup">CAM1</property>
  <property name="meta.attr.com.apple.proapps.isGood.markup">0</property>
  <property name="meta.attr.com.apple.proapps.customgamma.markup">com.blackmagic-design.cinemacamera.filmlog</property>
  <property name="meta.attr.com.blackmagic-design.cinemacamera.uuid.markup">18E5E00548F94923B646613A73C01B56</property>
  <property name="meta.attr.creation_time.markup">2018-12-10T16:42:49.000000Z</property>
  <property name="meta.attr.timecode.markup">16:42:49:18</property>
  <property name="meta.media.sample_aspect_num">1</property>
  <property name="meta.media.sample_aspect_den">1</property>
  <property name="meta.media.frame_rate_num">50</property>
  <property name="meta.media.frame_rate_den">1</property>
  <property name="meta.media.colorspace">709</property>
  <property name="meta.media.color_trc">1</property>
  <property name="meta.media.width">1920</property>
  <property name="meta.media.height">1080</property>
  <property name="meta.media.top_field_first">0</property>
  <property name="meta.media.progressive">1</property>
  <property name="meta.media.1.codec.color_trc">1</property>
  <filter id="filter99">
   <property name="version">0,1</property>
   <property name="mlt_service">frei0r.colgate</property>
   <property name="kdenlive_id">frei0r.colgate</property>
   <property name="tag">frei0r.colgate</property>
   <property name="kdenlive_ix">1</property>
   <property name="kdenlive_info"/>
   <property name="Neutral Color">0x7f7f7fff</property>
   <property name="Color Temperature">0=0,5</property>
  </filter>
  <filter id="filter100">
   <property name="version">0,3</property>
   <property name="mlt_service">frei0r.levels</property>
   <property name="kdenlive_id">frei0r.levels</property>
   <property name="tag">frei0r.levels</property>
   <property name="kdenlive_ix">2</property>
   <property name="kdenlive_info"/>
   <property name="Channel">0,3</property>
   <property name="Input black level">0=0</property>
   <property name="Input white level">0=0,65</property>
   <property name="Gamma">0=0,25</property>
   <property name="Black output">0=0</property>
   <property name="White output">0=1</property>
   <property name="Show histogram">0</property>
   <property name="Histogram position">0,3</property>
   <property name="disable">0</property>
  </filter>
 </producer>
 <producer title="Anonymous Submission" id="producer0" in="0" out="4178">
  <property name="length">00:01:23:29</property>
  <property name="eof">pause</property>
  <property name="resource">/media/bordun/plagiat/2018-12-10_Plagiat_RespecteLaPuissancePapale/Carte_2/CAM1_2018-12-10_1638_C0001.mov</property>
  <property name="audio_index">-1</property>
  <property name="video_index">-1</property>
  <property name="mute_on_pause">1</property>
  <property name="mlt_service">avformat-novalidate</property>
  <property name="seekable">1</property>
  <property name="aspect_ratio">1</property>
  <property name="kdenlive:folderid">10</property>
  <property name="kdenlive:file_size">3858252521</property>
  <property name="kdenlive:file_hash">5c73d3cae02de055fc4255e57a85a699</property>
  <property name="global_feed">1</property>
  <property name="xml">was here</property>
  <property name="kdenlive:binid">6</property>
  <property name="kdenlive:clipstate">0</property>
 </producer>
 <producer id="slowmotion:19:1,33:1:0" in="0" out="2122">
  <property name="length">2123</property>
  <property name="eof">pause</property>
  <property name="resource">1,33:/media/bordun/plagiat/2018-12-10_Plagiat_RespecteLaPuissancePapale/Carte_3/CAM1_2018-12-10_1856_C0008.mov</property>
  <property name="aspect_ratio">1</property>
  <property name="meta.media.nb_streams">3</property>
  <property name="meta.media.1.stream.type">video</property>
  <property name="meta.media.1.stream.frame_rate">50</property>
  <property name="meta.media.1.stream.sample_aspect_ratio">1</property>
  <property name="meta.media.1.codec.width">1920</property>
  <property name="meta.media.1.codec.height">1080</property>
  <property name="meta.media.1.codec.rotate">0</property>
  <property name="meta.media.1.codec.frame_rate">5000</property>
  <property name="meta.media.1.codec.pix_fmt">yuv422p10le</property>
  <property name="meta.media.1.codec.sample_aspect_ratio">0</property>
  <property name="meta.media.1.codec.colorspace">709</property>
  <property name="meta.media.1.codec.color_trc">1</property>
  <property name="meta.media.1.codec.name">prores</property>
  <property name="meta.media.1.codec.long_name">ProRes</property>
  <property name="meta.media.1.codec.bit_rate">366955049</property>
  <property name="meta.attr.1.stream.creation_time.markup">2018-12-10T18:56:22.000000Z</property>
  <property name="meta.attr.1.stream.language.markup">eng</property>
  <property name="meta.attr.1.stream.handler_name.markup">Apple Alias Data Handler</property>
  <property name="meta.attr.1.stream.encoder.markup">Apple ProRes 422 HQ</property>
  <property name="meta.attr.1.stream.timecode.markup">18:56:22:36</property>
  <property name="meta.media.2.stream.type">audio</property>
  <property name="meta.media.2.codec.sample_fmt">s32</property>
  <property name="meta.media.2.codec.sample_rate">48000</property>
  <property name="meta.media.2.codec.channels">2</property>
  <property name="meta.media.2.codec.name">pcm_s24le</property>
  <property name="meta.media.2.codec.long_name">PCM signed 24-bit little-endian</property>
  <property name="meta.media.2.codec.bit_rate">2304000</property>
  <property name="meta.attr.2.stream.creation_time.markup">2018-12-10T18:56:22.000000Z</property>
  <property name="meta.attr.2.stream.language.markup">eng</property>
  <property name="meta.attr.2.stream.handler_name.markup">Apple Alias Data Handler</property>
  <property name="meta.attr.2.stream.timecode.markup">18:56:22:36</property>
  <property name="meta.attr.com.apple.proapps.manufacturer.markup">Blackmagic Design</property>
  <property name="meta.attr.com.apple.proapps.cameraName.markup">CAM1</property>
  <property name="meta.attr.com.apple.proapps.isGood.markup">0</property>
  <property name="meta.attr.com.apple.proapps.customgamma.markup">com.blackmagic-design.cinemacamera.filmlog</property>
  <property name="meta.attr.com.blackmagic-design.cinemacamera.uuid.markup">18E5E00548F94923B646613A73C01B56</property>
  <property name="meta.attr.creation_time.markup">2018-12-10T18:56:22.000000Z</property>
  <property name="meta.attr.timecode.markup">18:56:22:36</property>
  <property name="seekable">1</property>
  <property name="meta.media.sample_aspect_num">1</property>
  <property name="meta.media.sample_aspect_den">1</property>
  <property name="audio_index">2</property>
  <property name="video_index">1</property>
  <property name="mute_on_pause">1</property>
  <property name="warp_speed">1,33</property>
  <property name="warp_resource">/media/bordun/plagiat/2018-12-10_Plagiat_RespecteLaPuissancePapale/Carte_3/CAM1_2018-12-10_1856_C0008.mov</property>
  <property name="mlt_service">timewarp</property>
  <property name="meta.media.frame_rate_num">50</property>
  <property name="meta.media.frame_rate_den">1</property>
  <property name="meta.media.colorspace">709</property>
  <property name="meta.media.color_trc">1</property>
  <property name="meta.media.width">1920</property>
  <property name="meta.media.height">1080</property>
  <property name="meta.media.top_field_first">0</property>
  <property name="meta.media.progressive">1</property>
  <filter id="filter101">
   <property name="version">0,1</property>
   <property name="mlt_service">frei0r.colgate</property>
   <property name="kdenlive_id">frei0r.colgate</property>
   <property name="tag">frei0r.colgate</property>
   <property name="kdenlive_ix">1</property>
   <property name="kdenlive_info"/>
   <property name="Neutral Color">0x7f7f7fff</property>
   <property name="Color Temperature">0=0,523333</property>
   <property name="disable">0</property>
  </filter>
  <filter id="filter102">
   <property name="version">0,3</property>
   <property name="mlt_service">frei0r.levels</property>
   <property name="kdenlive_id">frei0r.levels</property>
   <property name="tag">frei0r.levels</property>
   <property name="kdenlive_ix">2</property>
   <property name="kdenlive_info"/>
   <property name="Channel">0,3</property>
   <property name="Input black level">0=0</property>
   <property name="Input white level">0=0,85</property>
   <property name="Gamma">0=0,25</property>
   <property name="Black output">0=0</property>
   <property name="White output">0=1</property>
   <property name="Show histogram">0</property>
   <property name="Histogram position">0,3</property>
   <property name="disable">0</property>
  </filter>
 </producer>
 <producer title="Anonymous Submission" id="19_playlist7" in="0" out="2823">
  <property name="length">00:00:56:24</property>
  <property name="eof">pause</property>
  <property name="resource">/media/bordun/plagiat/2018-12-10_Plagiat_RespecteLaPuissancePapale/Carte_3/CAM1_2018-12-10_1856_C0008.mov</property>
  <property name="audio_index">2</property>
  <property name="video_index">1</property>
  <property name="mute_on_pause">1</property>
  <property name="mlt_service">avformat-novalidate</property>
  <property name="seekable">1</property>
  <property name="aspect_ratio">1</property>
  <property name="kdenlive:folderid">13</property>
  <property name="kdenlive:file_size">2607255569</property>
  <property name="kdenlive:file_hash">4d6c52ada6c928dfc33b28648fd401f1</property>
  <property name="global_feed">1</property>
  <property name="kdenlive:zone_in">261</property>
  <property name="kdenlive:zone_out">1043</property>
  <property name="xml">was here</property>
  <property name="meta.media.nb_streams">3</property>
  <property name="meta.media.1.stream.type">video</property>
  <property name="meta.media.1.stream.frame_rate">50</property>
  <property name="meta.media.1.stream.sample_aspect_ratio">1</property>
  <property name="meta.media.1.codec.width">1920</property>
  <property name="meta.media.1.codec.height">1080</property>
  <property name="meta.media.1.codec.rotate">0</property>
  <property name="meta.media.1.codec.frame_rate">5000</property>
  <property name="meta.media.1.codec.pix_fmt">yuv422p10le</property>
  <property name="meta.media.1.codec.sample_aspect_ratio">0</property>
  <property name="meta.media.1.codec.colorspace">709</property>
  <property name="meta.media.1.codec.name">prores</property>
  <property name="meta.media.1.codec.long_name">ProRes</property>
  <property name="meta.media.1.codec.bit_rate">366955049</property>
  <property name="meta.attr.1.stream.creation_time.markup">2018-12-10T18:56:22.000000Z</property>
  <property name="meta.attr.1.stream.language.markup">eng</property>
  <property name="meta.attr.1.stream.handler_name.markup">Apple Alias Data Handler</property>
  <property name="meta.attr.1.stream.encoder.markup">Apple ProRes 422 HQ</property>
  <property name="meta.attr.1.stream.timecode.markup">18:56:22:36</property>
  <property name="meta.media.2.stream.type">audio</property>
  <property name="meta.media.2.codec.sample_fmt">s32</property>
  <property name="meta.media.2.codec.sample_rate">48000</property>
  <property name="meta.media.2.codec.channels">2</property>
  <property name="meta.media.2.codec.name">pcm_s24le</property>
  <property name="meta.media.2.codec.long_name">PCM signed 24-bit little-endian</property>
  <property name="meta.media.2.codec.bit_rate">2304000</property>
  <property name="meta.attr.2.stream.creation_time.markup">2018-12-10T18:56:22.000000Z</property>
  <property name="meta.attr.2.stream.language.markup">eng</property>
  <property name="meta.attr.2.stream.handler_name.markup">Apple Alias Data Handler</property>
  <property name="meta.attr.2.stream.timecode.markup">18:56:22:36</property>
  <property name="meta.attr.com.apple.proapps.manufacturer.markup">Blackmagic Design</property>
  <property name="meta.attr.com.apple.proapps.cameraName.markup">CAM1</property>
  <property name="meta.attr.com.apple.proapps.isGood.markup">0</property>
  <property name="meta.attr.com.apple.proapps.customgamma.markup">com.blackmagic-design.cinemacamera.filmlog</property>
  <property name="meta.attr.com.blackmagic-design.cinemacamera.uuid.markup">18E5E00548F94923B646613A73C01B56</property>
  <property name="meta.attr.creation_time.markup">2018-12-10T18:56:22.000000Z</property>
  <property name="meta.attr.timecode.markup">18:56:22:36</property>
  <property name="meta.media.sample_aspect_num">1</property>
  <property name="meta.media.sample_aspect_den">1</property>
  <property name="meta.media.frame_rate_num">50</property>
  <property name="meta.media.frame_rate_den">1</property>
  <property name="meta.media.colorspace">709</property>
  <property name="meta.media.color_trc">1</property>
  <property name="meta.media.width">1920</property>
  <property name="meta.media.height">1080</property>
  <property name="meta.media.top_field_first">0</property>
  <property name="meta.media.progressive">1</property>
  <property name="meta.media.1.codec.color_trc">1</property>
  <filter id="filter103">
   <property name="version">0,1</property>
   <property name="mlt_service">frei0r.colgate</property>
   <property name="kdenlive_id">frei0r.colgate</property>
   <property name="tag">frei0r.colgate</property>
   <property name="kdenlive_ix">1</property>
   <property name="kdenlive_info"/>
   <property name="Neutral Color">0x7f7f7fff</property>
   <property name="Color Temperature">0=0,523333</property>
   <property name="disable">0</property>
  </filter>
  <filter id="filter104">
   <property name="version">0,3</property>
   <property name="mlt_service">frei0r.levels</property>
   <property name="kdenlive_id">frei0r.levels</property>
   <property name="tag">frei0r.levels</property>
   <property name="kdenlive_ix">2</property>
   <property name="kdenlive_info"/>
   <property name="Channel">0,3</property>
   <property name="Input black level">0=0</property>
   <property name="Input white level">0=0,85</property>
   <property name="Gamma">0=0,25</property>
   <property name="Black output">0=0</property>
   <property name="White output">0=1</property>
   <property name="Show histogram">0</property>
   <property name="Histogram position">0,3</property>
   <property name="disable">0</property>
  </filter>
 </producer>
 <playlist id="playlist7">
  <property name="kdenlive:track_name">Vidéo 6</property>
  <property name="kdenlive:locked_track">0</property>
  <blank length="1587"/>
  <entry producer="5_playlist7" in="3881" out="3913"/>
  <blank length="182"/>
  <entry producer="6_playlist7" in="1293" out="1364"/>
  <blank length="145"/>
  <entry producer="6_playlist7" in="1510" out="1535"/>
  <entry producer="slowmotion:6:0,8:1:0" in="1920" out="1964"/>
  <blank length="439"/>
  <entry producer="6_playlist7" in="2020" out="2113"/>
  <blank length="44"/>
  <entry producer="6_playlist7" in="2158" out="2208"/>
  <blank length="43"/>
  <entry producer="6_playlist7" in="2252" out="2294"/>
  <blank length="102"/>
  <entry producer="7_playlist7" in="5579" out="5624"/>
  <blank length="85"/>
  <entry producer="6_playlist7" in="2528" out="2583"/>
  <blank length="45"/>
  <entry producer="6_playlist7" in="2629" out="2666"/>
  <entry producer="6_playlist7" in="2667" out="2767"/>
  <blank length="46"/>
  <entry producer="6_playlist7" in="2865" out="2906">
   <filter id="filter105" in="2865" out="2906">
    <property name="background">colour:0x00000000</property>
    <property name="mlt_service">affine</property>
    <property name="kdenlive_id">pan_zoom</property>
    <property name="tag">affine</property>
    <property name="kdenlive_ix">1</property>
    <property name="transition.geometry">0=-384/-216:2688x1512:100;41=-96/-54:2112x1188:100</property>
    <property name="transition.distort">0</property>
    <property name="kdenlive:sync_in_out">1</property>
    <property name="kdenlive_info"/>
   </filter>
  </entry>
  <blank length="97"/>
  <entry producer="6_playlist7" in="2950" out="3000"/>
  <blank length="92"/>
  <entry producer="6_playlist7" in="3093" out="3142"/>
  <blank length="93"/>
  <entry producer="producer0" in="3239" out="3285"/>
  <blank length="1599"/>
  <entry producer="slowmotion:19:1,33:1:0" in="1818" out="1822"/>
  <entry producer="19_playlist7" in="2425" out="2440"/>
  <entry producer="19_playlist7" in="2441" out="2449">
   <filter id="filter106" in="2441" out="2449">
    <property name="background">colour:0x00000000</property>
    <property name="mlt_service">affine</property>
    <property name="kdenlive_id">pan_zoom</property>
    <property name="tag">affine</property>
    <property name="kdenlive_ix">1</property>
    <property name="transition.geometry">-247/-115:2496x1404:100</property>
    <property name="transition.distort">0</property>
    <property name="kdenlive:sync_in_out">1</property>
    <property name="kdenlive_info"/>
    <property name="disable">1</property>
   </filter>
  </entry>
  <entry producer="19_playlist7" in="2450" out="2507"/>
 </playlist>
 <producer title="Anonymous Submission" id="6_playlist9" in="0" out="4178">
  <property name="length">00:01:23:29</property>
  <property name="eof">pause</property>
  <property name="resource">/media/bordun/plagiat/2018-12-10_Plagiat_RespecteLaPuissancePapale/Carte_2/CAM1_2018-12-10_1638_C0001.mov</property>
  <property name="audio_index">2</property>
  <property name="video_index">1</property>
  <property name="mute_on_pause">1</property>
  <property name="mlt_service">avformat-novalidate</property>
  <property name="seekable">1</property>
  <property name="aspect_ratio">1</property>
  <property name="kdenlive:folderid">10</property>
  <property name="kdenlive:file_size">3858252521</property>
  <property name="kdenlive:file_hash">5c73d3cae02de055fc4255e57a85a699</property>
  <property name="global_feed">1</property>
  <property name="xml">was here</property>
  <property name="meta.media.nb_streams">3</property>
  <property name="meta.media.1.stream.type">video</property>
  <property name="meta.media.1.stream.frame_rate">50</property>
  <property name="meta.media.1.stream.sample_aspect_ratio">1</property>
  <property name="meta.media.1.codec.width">1920</property>
  <property name="meta.media.1.codec.height">1080</property>
  <property name="meta.media.1.codec.rotate">0</property>
  <property name="meta.media.1.codec.frame_rate">5000</property>
  <property name="meta.media.1.codec.pix_fmt">yuv422p10le</property>
  <property name="meta.media.1.codec.sample_aspect_ratio">0</property>
  <property name="meta.media.1.codec.colorspace">709</property>
  <property name="meta.media.1.codec.name">prores</property>
  <property name="meta.media.1.codec.long_name">ProRes</property>
  <property name="meta.media.1.codec.bit_rate">366955515</property>
  <property name="meta.attr.1.stream.creation_time.markup">2018-12-10T16:38:23.000000Z</property>
  <property name="meta.attr.1.stream.language.markup">eng</property>
  <property name="meta.attr.1.stream.handler_name.markup">Apple Alias Data Handler</property>
  <property name="meta.attr.1.stream.encoder.markup">Apple ProRes 422 HQ</property>
  <property name="meta.attr.1.stream.timecode.markup">16:38:23:16</property>
  <property name="meta.media.2.stream.type">audio</property>
  <property name="meta.media.2.codec.sample_fmt">s32</property>
  <property name="meta.media.2.codec.sample_rate">48000</property>
  <property name="meta.media.2.codec.channels">2</property>
  <property name="meta.media.2.codec.name">pcm_s24le</property>
  <property name="meta.media.2.codec.long_name">PCM signed 24-bit little-endian</property>
  <property name="meta.media.2.codec.bit_rate">2304000</property>
  <property name="meta.attr.2.stream.creation_time.markup">2018-12-10T16:38:23.000000Z</property>
  <property name="meta.attr.2.stream.language.markup">eng</property>
  <property name="meta.attr.2.stream.handler_name.markup">Apple Alias Data Handler</property>
  <property name="meta.attr.2.stream.timecode.markup">16:38:23:16</property>
  <property name="meta.attr.com.apple.proapps.manufacturer.markup">Blackmagic Design</property>
  <property name="meta.attr.com.apple.proapps.cameraName.markup">CAM1</property>
  <property name="meta.attr.com.apple.proapps.isGood.markup">0</property>
  <property name="meta.attr.com.apple.proapps.customgamma.markup">com.blackmagic-design.cinemacamera.filmlog</property>
  <property name="meta.attr.com.blackmagic-design.cinemacamera.uuid.markup">18E5E00548F94923B646613A73C01B56</property>
  <property name="meta.attr.creation_time.markup">2018-12-10T16:38:23.000000Z</property>
  <property name="meta.attr.timecode.markup">16:38:23:16</property>
  <property name="meta.media.sample_aspect_num">1</property>
  <property name="meta.media.sample_aspect_den">1</property>
  <property name="meta.media.frame_rate_num">50</property>
  <property name="meta.media.frame_rate_den">1</property>
  <property name="meta.media.colorspace">709</property>
  <property name="meta.media.color_trc">1</property>
  <property name="meta.media.width">1920</property>
  <property name="meta.media.height">1080</property>
  <property name="meta.media.top_field_first">0</property>
  <property name="meta.media.progressive">1</property>
  <property name="meta.media.1.codec.color_trc">1</property>
  <filter id="filter107">
   <property name="version">0,1</property>
   <property name="mlt_service">frei0r.colgate</property>
   <property name="kdenlive_id">frei0r.colgate</property>
   <property name="tag">frei0r.colgate</property>
   <property name="kdenlive_ix">1</property>
   <property name="kdenlive_info"/>
   <property name="Neutral Color">0x7f7f7fff</property>
   <property name="Color Temperature">0=0,5</property>
  </filter>
  <filter id="filter108">
   <property name="version">0,3</property>
   <property name="mlt_service">frei0r.levels</property>
   <property name="kdenlive_id">frei0r.levels</property>
   <property name="tag">frei0r.levels</property>
   <property name="kdenlive_ix">2</property>
   <property name="kdenlive_info"/>
   <property name="Channel">0,3</property>
   <property name="Input black level">0=0</property>
   <property name="Input white level">0=0,65</property>
   <property name="Gamma">0=0,25</property>
   <property name="Black output">0=0</property>
   <property name="White output">0=1</property>
   <property name="Show histogram">0</property>
   <property name="Histogram position">0,3</property>
  </filter>
 </producer>
 <producer title="Anonymous Submission" id="19_playlist9" in="0" out="2823">
  <property name="length">00:00:56:24</property>
  <property name="eof">pause</property>
  <property name="resource">/media/bordun/plagiat/2018-12-10_Plagiat_RespecteLaPuissancePapale/Carte_3/CAM1_2018-12-10_1856_C0008.mov</property>
  <property name="audio_index">2</property>
  <property name="video_index">1</property>
  <property name="mute_on_pause">1</property>
  <property name="mlt_service">avformat-novalidate</property>
  <property name="seekable">1</property>
  <property name="aspect_ratio">1</property>
  <property name="kdenlive:folderid">13</property>
  <property name="kdenlive:file_size">2607255569</property>
  <property name="kdenlive:file_hash">4d6c52ada6c928dfc33b28648fd401f1</property>
  <property name="global_feed">1</property>
  <property name="xml">was here</property>
  <property name="meta.media.nb_streams">3</property>
  <property name="meta.media.1.stream.type">video</property>
  <property name="meta.media.1.stream.frame_rate">50</property>
  <property name="meta.media.1.stream.sample_aspect_ratio">1</property>
  <property name="meta.media.1.codec.width">1920</property>
  <property name="meta.media.1.codec.height">1080</property>
  <property name="meta.media.1.codec.rotate">0</property>
  <property name="meta.media.1.codec.frame_rate">5000</property>
  <property name="meta.media.1.codec.pix_fmt">yuv422p10le</property>
  <property name="meta.media.1.codec.sample_aspect_ratio">0</property>
  <property name="meta.media.1.codec.colorspace">709</property>
  <property name="meta.media.1.codec.name">prores</property>
  <property name="meta.media.1.codec.long_name">ProRes</property>
  <property name="meta.media.1.codec.bit_rate">366955049</property>
  <property name="meta.attr.1.stream.creation_time.markup">2018-12-10T18:56:22.000000Z</property>
  <property name="meta.attr.1.stream.language.markup">eng</property>
  <property name="meta.attr.1.stream.handler_name.markup">Apple Alias Data Handler</property>
  <property name="meta.attr.1.stream.encoder.markup">Apple ProRes 422 HQ</property>
  <property name="meta.attr.1.stream.timecode.markup">18:56:22:36</property>
  <property name="meta.media.2.stream.type">audio</property>
  <property name="meta.media.2.codec.sample_fmt">s32</property>
  <property name="meta.media.2.codec.sample_rate">48000</property>
  <property name="meta.media.2.codec.channels">2</property>
  <property name="meta.media.2.codec.name">pcm_s24le</property>
  <property name="meta.media.2.codec.long_name">PCM signed 24-bit little-endian</property>
  <property name="meta.media.2.codec.bit_rate">2304000</property>
  <property name="meta.attr.2.stream.creation_time.markup">2018-12-10T18:56:22.000000Z</property>
  <property name="meta.attr.2.stream.language.markup">eng</property>
  <property name="meta.attr.2.stream.handler_name.markup">Apple Alias Data Handler</property>
  <property name="meta.attr.2.stream.timecode.markup">18:56:22:36</property>
  <property name="meta.attr.com.apple.proapps.manufacturer.markup">Blackmagic Design</property>
  <property name="meta.attr.com.apple.proapps.cameraName.markup">CAM1</property>
  <property name="meta.attr.com.apple.proapps.isGood.markup">0</property>
  <property name="meta.attr.com.apple.proapps.customgamma.markup">com.blackmagic-design.cinemacamera.filmlog</property>
  <property name="meta.attr.com.blackmagic-design.cinemacamera.uuid.markup">18E5E00548F94923B646613A73C01B56</property>
  <property name="meta.attr.creation_time.markup">2018-12-10T18:56:22.000000Z</property>
  <property name="meta.attr.timecode.markup">18:56:22:36</property>
  <property name="meta.media.sample_aspect_num">1</property>
  <property name="meta.media.sample_aspect_den">1</property>
  <property name="meta.media.frame_rate_num">50</property>
  <property name="meta.media.frame_rate_den">1</property>
  <property name="meta.media.colorspace">709</property>
  <property name="meta.media.color_trc">1</property>
  <property name="meta.media.width">1920</property>
  <property name="meta.media.height">1080</property>
  <property name="meta.media.top_field_first">0</property>
  <property name="meta.media.progressive">1</property>
  <property name="meta.media.1.codec.color_trc">1</property>
  <filter id="filter109">
   <property name="version">0,1</property>
   <property name="mlt_service">frei0r.colgate</property>
   <property name="kdenlive_id">frei0r.colgate</property>
   <property name="tag">frei0r.colgate</property>
   <property name="kdenlive_ix">1</property>
   <property name="kdenlive_info"/>
   <property name="Neutral Color">0x7f7f7fff</property>
   <property name="Color Temperature">0=0,523333</property>
   <property name="disable">0</property>
  </filter>
  <filter id="filter110">
   <property name="version">0,3</property>
   <property name="mlt_service">frei0r.levels</property>
   <property name="kdenlive_id">frei0r.levels</property>
   <property name="tag">frei0r.levels</property>
   <property name="kdenlive_ix">2</property>
   <property name="kdenlive_info"/>
   <property name="Channel">0,3</property>
   <property name="Input black level">0=0</property>
   <property name="Input white level">0=0,85</property>
   <property name="Gamma">0=0,25</property>
   <property name="Black output">0=0</property>
   <property name="White output">0=1</property>
   <property name="Show histogram">0</property>
   <property name="Histogram position">0,3</property>
   <property name="disable">0</property>
  </filter>
 </producer>
 <producer id="slowmotion:19:0,4:1:0" in="0" out="7059">
  <property name="length">7060</property>
  <property name="eof">pause</property>
  <property name="resource">0,4:/media/bordun/plagiat/2018-12-10_Plagiat_RespecteLaPuissancePapale/Carte_3/CAM1_2018-12-10_1856_C0008.mov</property>
  <property name="aspect_ratio">1</property>
  <property name="meta.media.nb_streams">3</property>
  <property name="meta.media.1.stream.type">video</property>
  <property name="meta.media.1.stream.frame_rate">50</property>
  <property name="meta.media.1.stream.sample_aspect_ratio">1</property>
  <property name="meta.media.1.codec.width">1920</property>
  <property name="meta.media.1.codec.height">1080</property>
  <property name="meta.media.1.codec.rotate">0</property>
  <property name="meta.media.1.codec.frame_rate">5000</property>
  <property name="meta.media.1.codec.pix_fmt">yuv422p10le</property>
  <property name="meta.media.1.codec.sample_aspect_ratio">0</property>
  <property name="meta.media.1.codec.colorspace">709</property>
  <property name="meta.media.1.codec.color_trc">1</property>
  <property name="meta.media.1.codec.name">prores</property>
  <property name="meta.media.1.codec.long_name">ProRes</property>
  <property name="meta.media.1.codec.bit_rate">366955049</property>
  <property name="meta.attr.1.stream.creation_time.markup">2018-12-10T18:56:22.000000Z</property>
  <property name="meta.attr.1.stream.language.markup">eng</property>
  <property name="meta.attr.1.stream.handler_name.markup">Apple Alias Data Handler</property>
  <property name="meta.attr.1.stream.encoder.markup">Apple ProRes 422 HQ</property>
  <property name="meta.attr.1.stream.timecode.markup">18:56:22:36</property>
  <property name="meta.media.2.stream.type">audio</property>
  <property name="meta.media.2.codec.sample_fmt">s32</property>
  <property name="meta.media.2.codec.sample_rate">48000</property>
  <property name="meta.media.2.codec.channels">2</property>
  <property name="meta.media.2.codec.name">pcm_s24le</property>
  <property name="meta.media.2.codec.long_name">PCM signed 24-bit little-endian</property>
  <property name="meta.media.2.codec.bit_rate">2304000</property>
  <property name="meta.attr.2.stream.creation_time.markup">2018-12-10T18:56:22.000000Z</property>
  <property name="meta.attr.2.stream.language.markup">eng</property>
  <property name="meta.attr.2.stream.handler_name.markup">Apple Alias Data Handler</property>
  <property name="meta.attr.2.stream.timecode.markup">18:56:22:36</property>
  <property name="meta.attr.com.apple.proapps.manufacturer.markup">Blackmagic Design</property>
  <property name="meta.attr.com.apple.proapps.cameraName.markup">CAM1</property>
  <property name="meta.attr.com.apple.proapps.isGood.markup">0</property>
  <property name="meta.attr.com.apple.proapps.customgamma.markup">com.blackmagic-design.cinemacamera.filmlog</property>
  <property name="meta.attr.com.blackmagic-design.cinemacamera.uuid.markup">18E5E00548F94923B646613A73C01B56</property>
  <property name="meta.attr.creation_time.markup">2018-12-10T18:56:22.000000Z</property>
  <property name="meta.attr.timecode.markup">18:56:22:36</property>
  <property name="seekable">1</property>
  <property name="meta.media.sample_aspect_num">1</property>
  <property name="meta.media.sample_aspect_den">1</property>
  <property name="audio_index">2</property>
  <property name="video_index">1</property>
  <property name="mute_on_pause">1</property>
  <property name="warp_speed">0,4</property>
  <property name="warp_resource">/media/bordun/plagiat/2018-12-10_Plagiat_RespecteLaPuissancePapale/Carte_3/CAM1_2018-12-10_1856_C0008.mov</property>
  <property name="mlt_service">timewarp</property>
  <property name="meta.media.frame_rate_num">50</property>
  <property name="meta.media.frame_rate_den">1</property>
  <property name="meta.media.colorspace">709</property>
  <property name="meta.media.color_trc">1</property>
  <property name="meta.media.width">1920</property>
  <property name="meta.media.height">1080</property>
  <property name="meta.media.top_field_first">0</property>
  <property name="meta.media.progressive">1</property>
  <filter id="filter111">
   <property name="version">0,1</property>
   <property name="mlt_service">frei0r.colgate</property>
   <property name="kdenlive_id">frei0r.colgate</property>
   <property name="tag">frei0r.colgate</property>
   <property name="kdenlive_ix">1</property>
   <property name="kdenlive_info"/>
   <property name="Neutral Color">0x7f7f7fff</property>
   <property name="Color Temperature">0=0,523333</property>
   <property name="disable">0</property>
  </filter>
  <filter id="filter112">
   <property name="version">0,3</property>
   <property name="mlt_service">frei0r.levels</property>
   <property name="kdenlive_id">frei0r.levels</property>
   <property name="tag">frei0r.levels</property>
   <property name="kdenlive_ix">2</property>
   <property name="kdenlive_info"/>
   <property name="Channel">0,3</property>
   <property name="Input black level">0=0</property>
   <property name="Input white level">0=0,85</property>
   <property name="Gamma">0=0,25</property>
   <property name="Black output">0=0</property>
   <property name="White output">0=1</property>
   <property name="Show histogram">0</property>
   <property name="Histogram position">0,3</property>
   <property name="disable">0</property>
  </filter>
 </producer>
 <producer title="Anonymous Submission" id="producer1" in="0" out="2823">
  <property name="length">00:00:56:24</property>
  <property name="eof">pause</property>
  <property name="resource">/media/bordun/plagiat/2018-12-10_Plagiat_RespecteLaPuissancePapale/Carte_3/CAM1_2018-12-10_1856_C0008.mov</property>
  <property name="audio_index">-1</property>
  <property name="video_index">-1</property>
  <property name="mute_on_pause">1</property>
  <property name="mlt_service">avformat-novalidate</property>
  <property name="seekable">1</property>
  <property name="aspect_ratio">1</property>
  <property name="kdenlive:folderid">13</property>
  <property name="kdenlive:file_size">2607255569</property>
  <property name="kdenlive:file_hash">4d6c52ada6c928dfc33b28648fd401f1</property>
  <property name="global_feed">1</property>
  <property name="kdenlive:zone_in">1210</property>
  <property name="kdenlive:zone_out">1213</property>
  <property name="xml">was here</property>
  <property name="kdenlive:binid">19</property>
  <property name="kdenlive:clipstate">0</property>
  <filter id="filter113">
   <property name="version">0,1</property>
   <property name="mlt_service">frei0r.colgate</property>
   <property name="kdenlive_id">frei0r.colgate</property>
   <property name="tag">frei0r.colgate</property>
   <property name="kdenlive_ix">1</property>
   <property name="kdenlive_info"/>
   <property name="Neutral Color">0x7f7f7fff</property>
   <property name="Color Temperature">0=0,523333</property>
  </filter>
  <filter id="filter114">
   <property name="version">0,3</property>
   <property name="mlt_service">frei0r.levels</property>
   <property name="kdenlive_id">frei0r.levels</property>
   <property name="tag">frei0r.levels</property>
   <property name="kdenlive_ix">2</property>
   <property name="kdenlive_info"/>
   <property name="Channel">0,3</property>
   <property name="Input black level">0=0</property>
   <property name="Input white level">0=0,85</property>
   <property name="Gamma">0=0,25</property>
   <property name="Black output">0=0</property>
   <property name="White output">0=1</property>
   <property name="Show histogram">0</property>
   <property name="Histogram position">0,3</property>
   <property name="disable">0</property>
  </filter>
 </producer>
 <producer title="Anonymous Submission" id="producer4" in="0" out="2823">
  <property name="length">00:00:56:24</property>
  <property name="eof">pause</property>
  <property name="resource">/media/bordun/plagiat/2018-12-10_Plagiat_RespecteLaPuissancePapale/Carte_3/CAM1_2018-12-10_1856_C0008.mov</property>
  <property name="audio_index">-1</property>
  <property name="video_index">-1</property>
  <property name="mute_on_pause">1</property>
  <property name="mlt_service">avformat-novalidate</property>
  <property name="seekable">1</property>
  <property name="aspect_ratio">1</property>
  <property name="kdenlive:folderid">13</property>
  <property name="kdenlive:file_size">2607255569</property>
  <property name="kdenlive:file_hash">4d6c52ada6c928dfc33b28648fd401f1</property>
  <property name="global_feed">1</property>
  <property name="kdenlive:zone_in">1818</property>
  <property name="kdenlive:zone_out">1823</property>
  <property name="xml">was here</property>
  <property name="kdenlive:binid">19</property>
  <property name="kdenlive:clipstate">0</property>
  <filter id="filter115">
   <property name="version">0,1</property>
   <property name="mlt_service">frei0r.colgate</property>
   <property name="kdenlive_id">frei0r.colgate</property>
   <property name="tag">frei0r.colgate</property>
   <property name="kdenlive_ix">1</property>
   <property name="kdenlive_info"/>
   <property name="Neutral Color">0x7f7f7fff</property>
   <property name="Color Temperature">0=0,523333</property>
   <property name="disable">0</property>
  </filter>
  <filter id="filter116">
   <property name="version">0,3</property>
   <property name="mlt_service">frei0r.levels</property>
   <property name="kdenlive_id">frei0r.levels</property>
   <property name="tag">frei0r.levels</property>
   <property name="kdenlive_ix">2</property>
   <property name="kdenlive_info"/>
   <property name="Channel">0,3</property>
   <property name="Input black level">0=0</property>
   <property name="Input white level">0=0,85</property>
   <property name="Gamma">0=0,25</property>
   <property name="Black output">0=0</property>
   <property name="White output">0=1</property>
   <property name="Show histogram">0</property>
   <property name="Histogram position">0,3</property>
   <property name="disable">0</property>
  </filter>
 </producer>
 <producer id="slowmotion:19:0,5:1:0" in="0" out="5647">
  <property name="length">5648</property>
  <property name="eof">pause</property>
  <property name="resource">0,5:/media/bordun/plagiat/2018-12-10_Plagiat_RespecteLaPuissancePapale/Carte_3/CAM1_2018-12-10_1856_C0008.mov</property>
  <property name="aspect_ratio">1</property>
  <property name="meta.media.nb_streams">3</property>
  <property name="meta.media.1.stream.type">video</property>
  <property name="meta.media.1.stream.frame_rate">50</property>
  <property name="meta.media.1.stream.sample_aspect_ratio">1</property>
  <property name="meta.media.1.codec.width">1920</property>
  <property name="meta.media.1.codec.height">1080</property>
  <property name="meta.media.1.codec.rotate">0</property>
  <property name="meta.media.1.codec.frame_rate">5000</property>
  <property name="meta.media.1.codec.pix_fmt">yuv422p10le</property>
  <property name="meta.media.1.codec.sample_aspect_ratio">0</property>
  <property name="meta.media.1.codec.colorspace">709</property>
  <property name="meta.media.1.codec.color_trc">1</property>
  <property name="meta.media.1.codec.name">prores</property>
  <property name="meta.media.1.codec.long_name">ProRes</property>
  <property name="meta.media.1.codec.bit_rate">366955049</property>
  <property name="meta.attr.1.stream.creation_time.markup">2018-12-10T18:56:22.000000Z</property>
  <property name="meta.attr.1.stream.language.markup">eng</property>
  <property name="meta.attr.1.stream.handler_name.markup">Apple Alias Data Handler</property>
  <property name="meta.attr.1.stream.encoder.markup">Apple ProRes 422 HQ</property>
  <property name="meta.attr.1.stream.timecode.markup">18:56:22:36</property>
  <property name="meta.media.2.stream.type">audio</property>
  <property name="meta.media.2.codec.sample_fmt">s32</property>
  <property name="meta.media.2.codec.sample_rate">48000</property>
  <property name="meta.media.2.codec.channels">2</property>
  <property name="meta.media.2.codec.name">pcm_s24le</property>
  <property name="meta.media.2.codec.long_name">PCM signed 24-bit little-endian</property>
  <property name="meta.media.2.codec.bit_rate">2304000</property>
  <property name="meta.attr.2.stream.creation_time.markup">2018-12-10T18:56:22.000000Z</property>
  <property name="meta.attr.2.stream.language.markup">eng</property>
  <property name="meta.attr.2.stream.handler_name.markup">Apple Alias Data Handler</property>
  <property name="meta.attr.2.stream.timecode.markup">18:56:22:36</property>
  <property name="meta.attr.com.apple.proapps.manufacturer.markup">Blackmagic Design</property>
  <property name="meta.attr.com.apple.proapps.cameraName.markup">CAM1</property>
  <property name="meta.attr.com.apple.proapps.isGood.markup">0</property>
  <property name="meta.attr.com.apple.proapps.customgamma.markup">com.blackmagic-design.cinemacamera.filmlog</property>
  <property name="meta.attr.com.blackmagic-design.cinemacamera.uuid.markup">18E5E00548F94923B646613A73C01B56</property>
  <property name="meta.attr.creation_time.markup">2018-12-10T18:56:22.000000Z</property>
  <property name="meta.attr.timecode.markup">18:56:22:36</property>
  <property name="seekable">1</property>
  <property name="meta.media.sample_aspect_num">1</property>
  <property name="meta.media.sample_aspect_den">1</property>
  <property name="audio_index">2</property>
  <property name="video_index">1</property>
  <property name="mute_on_pause">1</property>
  <property name="warp_speed">0,5</property>
  <property name="warp_resource">/media/bordun/plagiat/2018-12-10_Plagiat_RespecteLaPuissancePapale/Carte_3/CAM1_2018-12-10_1856_C0008.mov</property>
  <property name="mlt_service">timewarp</property>
  <property name="meta.media.frame_rate_num">50</property>
  <property name="meta.media.frame_rate_den">1</property>
  <property name="meta.media.colorspace">709</property>
  <property name="meta.media.color_trc">1</property>
  <property name="meta.media.width">1920</property>
  <property name="meta.media.height">1080</property>
  <property name="meta.media.top_field_first">0</property>
  <property name="meta.media.progressive">1</property>
  <filter id="filter117">
   <property name="version">0,1</property>
   <property name="mlt_service">frei0r.colgate</property>
   <property name="kdenlive_id">frei0r.colgate</property>
   <property name="tag">frei0r.colgate</property>
   <property name="kdenlive_ix">1</property>
   <property name="kdenlive_info"/>
   <property name="Neutral Color">0x7f7f7fff</property>
   <property name="Color Temperature">0=0,523333</property>
   <property name="disable">0</property>
  </filter>
  <filter id="filter118">
   <property name="version">0,3</property>
   <property name="mlt_service">frei0r.levels</property>
   <property name="kdenlive_id">frei0r.levels</property>
   <property name="tag">frei0r.levels</property>
   <property name="kdenlive_ix">2</property>
   <property name="kdenlive_info"/>
   <property name="Channel">0,3</property>
   <property name="Input black level">0=0</property>
   <property name="Input white level">0=0,85</property>
   <property name="Gamma">0=0,25</property>
   <property name="Black output">0=0</property>
   <property name="White output">0=1</property>
   <property name="Show histogram">0</property>
   <property name="Histogram position">0,3</property>
   <property name="disable">0</property>
  </filter>
 </producer>
 <producer id="slowmotion:14:0,9:1:0" in="0" out="4228">
  <property name="length">4229</property>
  <property name="eof">pause</property>
  <property name="resource">0,9:/media/bordun/plagiat/2018-12-10_Plagiat_RespecteLaPuissancePapale/Carte_3/CAM1_2018-12-10_1833_C0003.mov</property>
  <property name="aspect_ratio">1</property>
  <property name="meta.media.nb_streams">3</property>
  <property name="meta.media.1.stream.type">video</property>
  <property name="meta.media.1.stream.frame_rate">50</property>
  <property name="meta.media.1.stream.sample_aspect_ratio">1</property>
  <property name="meta.media.1.codec.width">1920</property>
  <property name="meta.media.1.codec.height">1080</property>
  <property name="meta.media.1.codec.rotate">0</property>
  <property name="meta.media.1.codec.frame_rate">5000</property>
  <property name="meta.media.1.codec.pix_fmt">yuv422p10le</property>
  <property name="meta.media.1.codec.sample_aspect_ratio">0</property>
  <property name="meta.media.1.codec.colorspace">709</property>
  <property name="meta.media.1.codec.color_trc">1</property>
  <property name="meta.media.1.codec.name">prores</property>
  <property name="meta.media.1.codec.long_name">ProRes</property>
  <property name="meta.media.1.codec.bit_rate">366958122</property>
  <property name="meta.attr.1.stream.creation_time.markup">2018-12-10T18:33:13.000000Z</property>
  <property name="meta.attr.1.stream.language.markup">eng</property>
  <property name="meta.attr.1.stream.handler_name.markup">Apple Alias Data Handler</property>
  <property name="meta.attr.1.stream.encoder.markup">Apple ProRes 422 HQ</property>
  <property name="meta.attr.1.stream.timecode.markup">18:33:13:41</property>
  <property name="meta.media.2.stream.type">audio</property>
  <property name="meta.media.2.codec.sample_fmt">s32</property>
  <property name="meta.media.2.codec.sample_rate">48000</property>
  <property name="meta.media.2.codec.channels">2</property>
  <property name="meta.media.2.codec.name">pcm_s24le</property>
  <property name="meta.media.2.codec.long_name">PCM signed 24-bit little-endian</property>
  <property name="meta.media.2.codec.bit_rate">2304000</property>
  <property name="meta.attr.2.stream.creation_time.markup">2018-12-10T18:33:13.000000Z</property>
  <property name="meta.attr.2.stream.language.markup">eng</property>
  <property name="meta.attr.2.stream.handler_name.markup">Apple Alias Data Handler</property>
  <property name="meta.attr.2.stream.timecode.markup">18:33:13:41</property>
  <property name="meta.attr.com.apple.proapps.manufacturer.markup">Blackmagic Design</property>
  <property name="meta.attr.com.apple.proapps.cameraName.markup">CAM1</property>
  <property name="meta.attr.com.apple.proapps.isGood.markup">0</property>
  <property name="meta.attr.com.apple.proapps.customgamma.markup">com.blackmagic-design.cinemacamera.filmlog</property>
  <property name="meta.attr.com.blackmagic-design.cinemacamera.uuid.markup">18E5E00548F94923B646613A73C01B56</property>
  <property name="meta.attr.creation_time.markup">2018-12-10T18:33:13.000000Z</property>
  <property name="meta.attr.timecode.markup">18:33:13:41</property>
  <property name="seekable">1</property>
  <property name="meta.media.sample_aspect_num">1</property>
  <property name="meta.media.sample_aspect_den">1</property>
  <property name="audio_index">2</property>
  <property name="video_index">1</property>
  <property name="mute_on_pause">1</property>
  <property name="warp_speed">0,9</property>
  <property name="warp_resource">/media/bordun/plagiat/2018-12-10_Plagiat_RespecteLaPuissancePapale/Carte_3/CAM1_2018-12-10_1833_C0003.mov</property>
  <property name="mlt_service">timewarp</property>
  <property name="meta.media.frame_rate_num">50</property>
  <property name="meta.media.frame_rate_den">1</property>
  <property name="meta.media.colorspace">709</property>
  <property name="meta.media.color_trc">1</property>
  <property name="meta.media.width">1920</property>
  <property name="meta.media.height">1080</property>
  <property name="meta.media.top_field_first">0</property>
  <property name="meta.media.progressive">1</property>
  <filter id="filter119">
   <property name="version">0,1</property>
   <property name="mlt_service">frei0r.colgate</property>
   <property name="kdenlive_id">frei0r.colgate</property>
   <property name="tag">frei0r.colgate</property>
   <property name="kdenlive_ix">1</property>
   <property name="kdenlive_info"/>
   <property name="Neutral Color">0x7f7f7fff</property>
   <property name="Color Temperature">0=0,523333</property>
  </filter>
  <filter id="filter120">
   <property name="version">0,3</property>
   <property name="mlt_service">frei0r.levels</property>
   <property name="kdenlive_id">frei0r.levels</property>
   <property name="tag">frei0r.levels</property>
   <property name="kdenlive_ix">2</property>
   <property name="kdenlive_info"/>
   <property name="Channel">0,3</property>
   <property name="Input black level">0=0</property>
   <property name="Input white level">0=0,85</property>
   <property name="Gamma">0=0,25</property>
   <property name="Black output">0=0</property>
   <property name="White output">0=1</property>
   <property name="Show histogram">0</property>
   <property name="Histogram position">0,3</property>
  </filter>
 </producer>
 <producer title="Anonymous Submission" id="14_playlist9" in="0" out="3805">
  <property name="length">00:01:16:06</property>
  <property name="eof">pause</property>
  <property name="resource">/media/bordun/plagiat/2018-12-10_Plagiat_RespecteLaPuissancePapale/Carte_3/CAM1_2018-12-10_1833_C0003.mov</property>
  <property name="audio_index">2</property>
  <property name="video_index">1</property>
  <property name="mute_on_pause">1</property>
  <property name="mlt_service">avformat-novalidate</property>
  <property name="seekable">1</property>
  <property name="aspect_ratio">1</property>
  <property name="kdenlive:folderid">14</property>
  <property name="kdenlive:file_size">3513882801</property>
  <property name="kdenlive:file_hash">911165815b4f50c12a788c8017dec34b</property>
  <property name="global_feed">1</property>
  <property name="xml">was here</property>
  <property name="meta.media.nb_streams">3</property>
  <property name="meta.media.1.stream.type">video</property>
  <property name="meta.media.1.stream.frame_rate">50</property>
  <property name="meta.media.1.stream.sample_aspect_ratio">1</property>
  <property name="meta.media.1.codec.width">1920</property>
  <property name="meta.media.1.codec.height">1080</property>
  <property name="meta.media.1.codec.rotate">0</property>
  <property name="meta.media.1.codec.frame_rate">5000</property>
  <property name="meta.media.1.codec.pix_fmt">yuv422p10le</property>
  <property name="meta.media.1.codec.sample_aspect_ratio">0</property>
  <property name="meta.media.1.codec.colorspace">709</property>
  <property name="meta.media.1.codec.name">prores</property>
  <property name="meta.media.1.codec.long_name">ProRes</property>
  <property name="meta.media.1.codec.bit_rate">366958122</property>
  <property name="meta.attr.1.stream.creation_time.markup">2018-12-10T18:33:13.000000Z</property>
  <property name="meta.attr.1.stream.language.markup">eng</property>
  <property name="meta.attr.1.stream.handler_name.markup">Apple Alias Data Handler</property>
  <property name="meta.attr.1.stream.encoder.markup">Apple ProRes 422 HQ</property>
  <property name="meta.attr.1.stream.timecode.markup">18:33:13:41</property>
  <property name="meta.media.2.stream.type">audio</property>
  <property name="meta.media.2.codec.sample_fmt">s32</property>
  <property name="meta.media.2.codec.sample_rate">48000</property>
  <property name="meta.media.2.codec.channels">2</property>
  <property name="meta.media.2.codec.name">pcm_s24le</property>
  <property name="meta.media.2.codec.long_name">PCM signed 24-bit little-endian</property>
  <property name="meta.media.2.codec.bit_rate">2304000</property>
  <property name="meta.attr.2.stream.creation_time.markup">2018-12-10T18:33:13.000000Z</property>
  <property name="meta.attr.2.stream.language.markup">eng</property>
  <property name="meta.attr.2.stream.handler_name.markup">Apple Alias Data Handler</property>
  <property name="meta.attr.2.stream.timecode.markup">18:33:13:41</property>
  <property name="meta.attr.com.apple.proapps.manufacturer.markup">Blackmagic Design</property>
  <property name="meta.attr.com.apple.proapps.cameraName.markup">CAM1</property>
  <property name="meta.attr.com.apple.proapps.isGood.markup">0</property>
  <property name="meta.attr.com.apple.proapps.customgamma.markup">com.blackmagic-design.cinemacamera.filmlog</property>
  <property name="meta.attr.com.blackmagic-design.cinemacamera.uuid.markup">18E5E00548F94923B646613A73C01B56</property>
  <property name="meta.attr.creation_time.markup">2018-12-10T18:33:13.000000Z</property>
  <property name="meta.attr.timecode.markup">18:33:13:41</property>
  <property name="meta.media.sample_aspect_num">1</property>
  <property name="meta.media.sample_aspect_den">1</property>
  <property name="meta.media.frame_rate_num">50</property>
  <property name="meta.media.frame_rate_den">1</property>
  <property name="meta.media.colorspace">709</property>
  <property name="meta.media.color_trc">1</property>
  <property name="meta.media.width">1920</property>
  <property name="meta.media.height">1080</property>
  <property name="meta.media.top_field_first">0</property>
  <property name="meta.media.progressive">1</property>
  <property name="meta.media.1.codec.color_trc">1</property>
  <filter id="filter121">
   <property name="version">0,1</property>
   <property name="mlt_service">frei0r.colgate</property>
   <property name="kdenlive_id">frei0r.colgate</property>
   <property name="tag">frei0r.colgate</property>
   <property name="kdenlive_ix">1</property>
   <property name="kdenlive_info"/>
   <property name="Neutral Color">0x7f7f7fff</property>
   <property name="Color Temperature">0=0,523333</property>
  </filter>
  <filter id="filter122">
   <property name="version">0,3</property>
   <property name="mlt_service">frei0r.levels</property>
   <property name="kdenlive_id">frei0r.levels</property>
   <property name="tag">frei0r.levels</property>
   <property name="kdenlive_ix">2</property>
   <property name="kdenlive_info"/>
   <property name="Channel">0,3</property>
   <property name="Input black level">0=0</property>
   <property name="Input white level">0=0,85</property>
   <property name="Gamma">0=0,25</property>
   <property name="Black output">0=0</property>
   <property name="White output">0=1</property>
   <property name="Show histogram">0</property>
   <property name="Histogram position">0,3</property>
  </filter>
 </producer>
 <producer id="slowmotion:4:0,6:1:0" in="0" out="41451">
  <property name="length">41452</property>
  <property name="eof">pause</property>
  <property name="resource">0,6:/media/bordun/plagiat/2018-12-10_Plagiat_RespecteLaPuissancePapale/Carte_1/CAM1_2018-12-10_1615_C0003.mov</property>
  <property name="aspect_ratio">1</property>
  <property name="meta.media.nb_streams">3</property>
  <property name="meta.media.1.stream.type">video</property>
  <property name="meta.media.1.stream.frame_rate">50</property>
  <property name="meta.media.1.stream.sample_aspect_ratio">1</property>
  <property name="meta.media.1.codec.width">1920</property>
  <property name="meta.media.1.codec.height">1080</property>
  <property name="meta.media.1.codec.rotate">0</property>
  <property name="meta.media.1.codec.frame_rate">5000</property>
  <property name="meta.media.1.codec.pix_fmt">yuv422p10le</property>
  <property name="meta.media.1.codec.sample_aspect_ratio">0</property>
  <property name="meta.media.1.codec.colorspace">709</property>
  <property name="meta.media.1.codec.color_trc">1</property>
  <property name="meta.media.1.codec.name">prores</property>
  <property name="meta.media.1.codec.long_name">ProRes</property>
  <property name="meta.media.1.codec.bit_rate">366958409</property>
  <property name="meta.attr.1.stream.creation_time.markup">2018-12-10T16:15:42.000000Z</property>
  <property name="meta.attr.1.stream.language.markup">eng</property>
  <property name="meta.attr.1.stream.handler_name.markup">Apple Alias Data Handler</property>
  <property name="meta.attr.1.stream.encoder.markup">Apple ProRes 422 HQ</property>
  <property name="meta.attr.1.stream.timecode.markup">16:15:42:33</property>
  <property name="meta.media.2.stream.type">audio</property>
  <property name="meta.media.2.codec.sample_fmt">s32</property>
  <property name="meta.media.2.codec.sample_rate">48000</property>
  <property name="meta.media.2.codec.channels">2</property>
  <property name="meta.media.2.codec.name">pcm_s24le</property>
  <property name="meta.media.2.codec.long_name">PCM signed 24-bit little-endian</property>
  <property name="meta.media.2.codec.bit_rate">2304000</property>
  <property name="meta.attr.2.stream.creation_time.markup">2018-12-10T16:15:42.000000Z</property>
  <property name="meta.attr.2.stream.language.markup">eng</property>
  <property name="meta.attr.2.stream.handler_name.markup">Apple Alias Data Handler</property>
  <property name="meta.attr.2.stream.timecode.markup">16:15:42:33</property>
  <property name="meta.attr.com.apple.proapps.manufacturer.markup">Blackmagic Design</property>
  <property name="meta.attr.com.apple.proapps.cameraName.markup">CAM1</property>
  <property name="meta.attr.com.apple.proapps.isGood.markup">0</property>
  <property name="meta.attr.com.apple.proapps.customgamma.markup">com.blackmagic-design.cinemacamera.filmlog</property>
  <property name="meta.attr.com.blackmagic-design.cinemacamera.uuid.markup">18E5E00548F94923B646613A73C01B56</property>
  <property name="meta.attr.creation_time.markup">2018-12-10T16:15:42.000000Z</property>
  <property name="meta.attr.timecode.markup">16:15:42:33</property>
  <property name="seekable">1</property>
  <property name="meta.media.sample_aspect_num">1</property>
  <property name="meta.media.sample_aspect_den">1</property>
  <property name="audio_index">2</property>
  <property name="video_index">1</property>
  <property name="mute_on_pause">1</property>
  <property name="warp_speed">0,6</property>
  <property name="warp_resource">/media/bordun/plagiat/2018-12-10_Plagiat_RespecteLaPuissancePapale/Carte_1/CAM1_2018-12-10_1615_C0003.mov</property>
  <property name="mlt_service">timewarp</property>
  <property name="meta.media.frame_rate_num">50</property>
  <property name="meta.media.frame_rate_den">1</property>
  <property name="meta.media.colorspace">709</property>
  <property name="meta.media.color_trc">1</property>
  <property name="meta.media.width">1920</property>
  <property name="meta.media.height">1080</property>
  <property name="meta.media.top_field_first">0</property>
  <property name="meta.media.progressive">1</property>
  <filter id="filter123">
   <property name="version">0,1</property>
   <property name="mlt_service">frei0r.colgate</property>
   <property name="kdenlive_id">frei0r.colgate</property>
   <property name="tag">frei0r.colgate</property>
   <property name="kdenlive_ix">1</property>
   <property name="kdenlive_info"/>
   <property name="Neutral Color">0x7f7f7fff</property>
   <property name="Color Temperature">0=0,5</property>
  </filter>
  <filter id="filter124">
   <property name="version">0,3</property>
   <property name="mlt_service">frei0r.levels</property>
   <property name="kdenlive_id">frei0r.levels</property>
   <property name="tag">frei0r.levels</property>
   <property name="kdenlive_ix">2</property>
   <property name="kdenlive_info"/>
   <property name="Channel">0,3</property>
   <property name="Input black level">0=0</property>
   <property name="Input white level">0=0,65</property>
   <property name="Gamma">0=0,25</property>
   <property name="Black output">0=0</property>
   <property name="White output">0=1</property>
   <property name="Show histogram">0</property>
   <property name="Histogram position">0,3</property>
  </filter>
 </producer>
 <playlist id="playlist9">
  <property name="kdenlive:track_name">Vidéo 8</property>
  <blank length="3186"/>
  <entry producer="6_playlist9" in="2629" out="2651"/>
  <blank length="65"/>
  <entry producer="6_playlist9" in="2810" out="2862">
   <filter id="filter125" in="2810" out="2862">
    <property name="background">colour:0x00000000</property>
    <property name="mlt_service">affine</property>
    <property name="kdenlive_id">pan_zoom</property>
    <property name="tag">affine</property>
    <property name="kdenlive_ix">1</property>
    <property name="transition.geometry">-192/-108:2304x1296:100</property>
    <property name="transition.distort">0</property>
    <property name="kdenlive:sync_in_out">1</property>
    <property name="kdenlive_info"/>
   </filter>
  </entry>
  <blank length="37"/>
  <entry producer="6_playlist9" in="2768" out="2819">
   <filter id="filter126" in="2768" out="2819">
    <property name="background">colour:0x00000000</property>
    <property name="mlt_service">affine</property>
    <property name="kdenlive_id">pan_zoom</property>
    <property name="tag">affine</property>
    <property name="kdenlive_ix">1</property>
    <property name="transition.geometry">0=0/-211:2496x1404:100;23=0/0:1920x1080:100</property>
    <property name="transition.distort">0</property>
    <property name="kdenlive:sync_in_out">1</property>
    <property name="kdenlive_info"/>
    <property name="disable">0</property>
   </filter>
  </entry>
  <blank length="239"/>
  <entry producer="6_playlist9" in="3237" out="3285"/>
  <blank length="46"/>
  <entry producer="6_playlist9" in="3146" out="3180"/>
  <entry producer="6_playlist9" in="3178" out="3181"/>
  <entry producer="6_playlist9" in="3178" out="3181"/>
  <entry producer="6_playlist9" in="3178" out="3179"/>
  <blank length="396"/>
  <entry producer="19_playlist9" in="267" out="438"/>
  <entry producer="19_playlist9" in="439" out="610"/>
  <entry producer="19_playlist9" in="611" out="782"/>
  <entry producer="19_playlist9" in="783" out="820">
   <filter id="filter127">
    <property name="mirror">flip</property>
    <property name="mlt_service">mirror</property>
    <property name="kdenlive_id">mirror</property>
    <property name="tag">mirror</property>
    <property name="kdenlive_ix">1</property>
    <property name="kdenlive_info"/>
    <property name="disable"/>
    <property name="reverse">0</property>
   </filter>
   <filter id="filter128">
    <property name="background">colour:0x00000000</property>
    <property name="mlt_service">affine</property>
    <property name="kdenlive_id">pan_zoom</property>
    <property name="tag">affine</property>
    <property name="kdenlive_ix">2</property>
    <property name="kdenlive_info"/>
    <property name="disable"/>
    <property name="transition.geometry">0/-270:2880x1620:100</property>
    <property name="transition.distort">0</property>
   </filter>
  </entry>
  <entry producer="19_playlist9" in="821" out="854"/>
  <entry producer="19_playlist9" in="855" out="1002"/>
  <entry producer="slowmotion:19:0,4:1:0" in="2505" out="2544"/>
  <blank length="441"/>
  <entry producer="producer1" in="1943" out="1958">
   <filter id="filter129" in="1943" out="1958">
    <property name="background">colour:0x00000000</property>
    <property name="mlt_service">affine</property>
    <property name="kdenlive_id">pan_zoom</property>
    <property name="tag">affine</property>
    <property name="kdenlive_ix">1</property>
    <property name="transition.geometry">0/0:2304x1296:100</property>
    <property name="transition.distort">0</property>
    <property name="kdenlive:sync_in_out">1</property>
    <property name="kdenlive_info"/>
   </filter>
  </entry>
  <entry producer="producer4" in="1958" out="1970">
   <filter id="filter130" in="1958" out="1970">
    <property name="background">colour:0x00000000</property>
    <property name="mlt_service">affine</property>
    <property name="kdenlive_id">pan_zoom</property>
    <property name="tag">affine</property>
    <property name="kdenlive_ix">1</property>
    <property name="transition.geometry">-37/-31:2400x1350:100</property>
    <property name="transition.distort">0</property>
    <property name="kdenlive:sync_in_out">1</property>
    <property name="kdenlive_info"/>
    <property name="disable">0</property>
   </filter>
  </entry>
  <entry producer="slowmotion:19:0,5:1:0" in="3952" out="3996"/>
  <blank length="498"/>
  <entry producer="slowmotion:14:0,9:1:0" in="2779" out="2900">
   <filter id="filter131" in="2779" out="2900">
    <property name="background">colour:0x00000000</property>
    <property name="mlt_service">affine</property>
    <property name="kdenlive_id">pan_zoom</property>
    <property name="tag">affine</property>
    <property name="kdenlive_ix">2</property>
    <property name="transition.geometry">-96/-54:2112x1188:100</property>
    <property name="transition.distort">0</property>
    <property name="kdenlive:sync_in_out">1</property>
    <property name="kdenlive_info"/>
   </filter>
  </entry>
  <blank length="866"/>
  <entry producer="14_playlist9" in="3475" out="3512">
   <filter id="filter132" in="3475" out="3512">
    <property name="background">colour:0x00000000</property>
    <property name="mlt_service">affine</property>
    <property name="kdenlive_id">pan_zoom</property>
    <property name="tag">affine</property>
    <property name="kdenlive_ix">1</property>
    <property name="transition.geometry">-192/-54:2112x1188:100</property>
    <property name="transition.distort">0</property>
    <property name="kdenlive:sync_in_out">1</property>
    <property name="kdenlive_info"/>
   </filter>
  </entry>
  <blank length="258"/>
  <entry producer="slowmotion:4:3:1:0" in="3456" out="3568"/>
  <entry producer="4" in="10707" out="10754"/>
  <blank length="43"/>
  <entry producer="slowmotion:4:0,6:1:0" in="17947" out="18085"/>
 </playlist>
 <producer id="slowmotion:7:0,8:1:0" in="0" out="10665">
  <property name="length">10666</property>
  <property name="eof">pause</property>
  <property name="resource">0,8:/media/bordun/plagiat/2018-12-10_Plagiat_RespecteLaPuissancePapale/Carte_2/CAM1_2018-12-10_1642_C0002.mov</property>
  <property name="aspect_ratio">1</property>
  <property name="meta.media.nb_streams">3</property>
  <property name="meta.media.1.stream.type">video</property>
  <property name="meta.media.1.stream.frame_rate">50</property>
  <property name="meta.media.1.stream.sample_aspect_ratio">1</property>
  <property name="meta.media.1.codec.width">1920</property>
  <property name="meta.media.1.codec.height">1080</property>
  <property name="meta.media.1.codec.rotate">0</property>
  <property name="meta.media.1.codec.frame_rate">5000</property>
  <property name="meta.media.1.codec.pix_fmt">yuv422p10le</property>
  <property name="meta.media.1.codec.sample_aspect_ratio">0</property>
  <property name="meta.media.1.codec.colorspace">709</property>
  <property name="meta.media.1.codec.color_trc">1</property>
  <property name="meta.media.1.codec.name">prores</property>
  <property name="meta.media.1.codec.long_name">ProRes</property>
  <property name="meta.media.1.codec.bit_rate">366955794</property>
  <property name="meta.attr.1.stream.creation_time.markup">2018-12-10T16:42:49.000000Z</property>
  <property name="meta.attr.1.stream.language.markup">eng</property>
  <property name="meta.attr.1.stream.handler_name.markup">Apple Alias Data Handler</property>
  <property name="meta.attr.1.stream.encoder.markup">Apple ProRes 422 HQ</property>
  <property name="meta.attr.1.stream.timecode.markup">16:42:49:18</property>
  <property name="meta.media.2.stream.type">audio</property>
  <property name="meta.media.2.codec.sample_fmt">s32</property>
  <property name="meta.media.2.codec.sample_rate">48000</property>
  <property name="meta.media.2.codec.channels">2</property>
  <property name="meta.media.2.codec.name">pcm_s24le</property>
  <property name="meta.media.2.codec.long_name">PCM signed 24-bit little-endian</property>
  <property name="meta.media.2.codec.bit_rate">2304000</property>
  <property name="meta.attr.2.stream.creation_time.markup">2018-12-10T16:42:49.000000Z</property>
  <property name="meta.attr.2.stream.language.markup">eng</property>
  <property name="meta.attr.2.stream.handler_name.markup">Apple Alias Data Handler</property>
  <property name="meta.attr.2.stream.timecode.markup">16:42:49:18</property>
  <property name="meta.attr.com.apple.proapps.manufacturer.markup">Blackmagic Design</property>
  <property name="meta.attr.com.apple.proapps.cameraName.markup">CAM1</property>
  <property name="meta.attr.com.apple.proapps.isGood.markup">0</property>
  <property name="meta.attr.com.apple.proapps.customgamma.markup">com.blackmagic-design.cinemacamera.filmlog</property>
  <property name="meta.attr.com.blackmagic-design.cinemacamera.uuid.markup">18E5E00548F94923B646613A73C01B56</property>
  <property name="meta.attr.creation_time.markup">2018-12-10T16:42:49.000000Z</property>
  <property name="meta.attr.timecode.markup">16:42:49:18</property>
  <property name="seekable">1</property>
  <property name="meta.media.sample_aspect_num">1</property>
  <property name="meta.media.sample_aspect_den">1</property>
  <property name="audio_index">2</property>
  <property name="video_index">1</property>
  <property name="mute_on_pause">1</property>
  <property name="warp_speed">0,8</property>
  <property name="warp_resource">/media/bordun/plagiat/2018-12-10_Plagiat_RespecteLaPuissancePapale/Carte_2/CAM1_2018-12-10_1642_C0002.mov</property>
  <property name="mlt_service">timewarp</property>
  <property name="meta.media.frame_rate_num">50</property>
  <property name="meta.media.frame_rate_den">1</property>
  <property name="meta.media.colorspace">709</property>
  <property name="meta.media.color_trc">1</property>
  <property name="meta.media.width">1920</property>
  <property name="meta.media.height">1080</property>
  <property name="meta.media.top_field_first">0</property>
  <property name="meta.media.progressive">1</property>
  <filter id="filter133">
   <property name="version">0,1</property>
   <property name="mlt_service">frei0r.colgate</property>
   <property name="kdenlive_id">frei0r.colgate</property>
   <property name="tag">frei0r.colgate</property>
   <property name="kdenlive_ix">1</property>
   <property name="kdenlive_info"/>
   <property name="Neutral Color">0x7f7f7fff</property>
   <property name="Color Temperature">0=0,5</property>
  </filter>
  <filter id="filter134">
   <property name="version">0,3</property>
   <property name="mlt_service">frei0r.levels</property>
   <property name="kdenlive_id">frei0r.levels</property>
   <property name="tag">frei0r.levels</property>
   <property name="kdenlive_ix">2</property>
   <property name="kdenlive_info"/>
   <property name="Channel">0,3</property>
   <property name="Input black level">0=0</property>
   <property name="Input white level">0=0,65</property>
   <property name="Gamma">0=0,25</property>
   <property name="Black output">0=0</property>
   <property name="White output">0=1</property>
   <property name="Show histogram">0</property>
   <property name="Histogram position">0,3</property>
   <property name="disable">0</property>
  </filter>
 </producer>
 <producer title="Anonymous Submission" id="19_playlist8" in="0" out="2823">
  <property name="length">00:00:56:24</property>
  <property name="eof">pause</property>
  <property name="resource">/media/bordun/plagiat/2018-12-10_Plagiat_RespecteLaPuissancePapale/Carte_3/CAM1_2018-12-10_1856_C0008.mov</property>
  <property name="audio_index">2</property>
  <property name="video_index">1</property>
  <property name="mute_on_pause">1</property>
  <property name="mlt_service">avformat-novalidate</property>
  <property name="seekable">1</property>
  <property name="aspect_ratio">1</property>
  <property name="kdenlive:folderid">13</property>
  <property name="kdenlive:file_size">2607255569</property>
  <property name="kdenlive:file_hash">4d6c52ada6c928dfc33b28648fd401f1</property>
  <property name="global_feed">1</property>
  <property name="kdenlive:zone_in">261</property>
  <property name="kdenlive:zone_out">1043</property>
  <property name="xml">was here</property>
  <property name="meta.media.nb_streams">3</property>
  <property name="meta.media.1.stream.type">video</property>
  <property name="meta.media.1.stream.frame_rate">50</property>
  <property name="meta.media.1.stream.sample_aspect_ratio">1</property>
  <property name="meta.media.1.codec.width">1920</property>
  <property name="meta.media.1.codec.height">1080</property>
  <property name="meta.media.1.codec.rotate">0</property>
  <property name="meta.media.1.codec.frame_rate">5000</property>
  <property name="meta.media.1.codec.pix_fmt">yuv422p10le</property>
  <property name="meta.media.1.codec.sample_aspect_ratio">0</property>
  <property name="meta.media.1.codec.colorspace">709</property>
  <property name="meta.media.1.codec.name">prores</property>
  <property name="meta.media.1.codec.long_name">ProRes</property>
  <property name="meta.media.1.codec.bit_rate">366955049</property>
  <property name="meta.attr.1.stream.creation_time.markup">2018-12-10T18:56:22.000000Z</property>
  <property name="meta.attr.1.stream.language.markup">eng</property>
  <property name="meta.attr.1.stream.handler_name.markup">Apple Alias Data Handler</property>
  <property name="meta.attr.1.stream.encoder.markup">Apple ProRes 422 HQ</property>
  <property name="meta.attr.1.stream.timecode.markup">18:56:22:36</property>
  <property name="meta.media.2.stream.type">audio</property>
  <property name="meta.media.2.codec.sample_fmt">s32</property>
  <property name="meta.media.2.codec.sample_rate">48000</property>
  <property name="meta.media.2.codec.channels">2</property>
  <property name="meta.media.2.codec.name">pcm_s24le</property>
  <property name="meta.media.2.codec.long_name">PCM signed 24-bit little-endian</property>
  <property name="meta.media.2.codec.bit_rate">2304000</property>
  <property name="meta.attr.2.stream.creation_time.markup">2018-12-10T18:56:22.000000Z</property>
  <property name="meta.attr.2.stream.language.markup">eng</property>
  <property name="meta.attr.2.stream.handler_name.markup">Apple Alias Data Handler</property>
  <property name="meta.attr.2.stream.timecode.markup">18:56:22:36</property>
  <property name="meta.attr.com.apple.proapps.manufacturer.markup">Blackmagic Design</property>
  <property name="meta.attr.com.apple.proapps.cameraName.markup">CAM1</property>
  <property name="meta.attr.com.apple.proapps.isGood.markup">0</property>
  <property name="meta.attr.com.apple.proapps.customgamma.markup">com.blackmagic-design.cinemacamera.filmlog</property>
  <property name="meta.attr.com.blackmagic-design.cinemacamera.uuid.markup">18E5E00548F94923B646613A73C01B56</property>
  <property name="meta.attr.creation_time.markup">2018-12-10T18:56:22.000000Z</property>
  <property name="meta.attr.timecode.markup">18:56:22:36</property>
  <property name="meta.media.sample_aspect_num">1</property>
  <property name="meta.media.sample_aspect_den">1</property>
  <property name="meta.media.frame_rate_num">50</property>
  <property name="meta.media.frame_rate_den">1</property>
  <property name="meta.media.colorspace">709</property>
  <property name="meta.media.color_trc">1</property>
  <property name="meta.media.width">1920</property>
  <property name="meta.media.height">1080</property>
  <property name="meta.media.top_field_first">0</property>
  <property name="meta.media.progressive">1</property>
  <property name="meta.media.1.codec.color_trc">1</property>
  <filter id="filter135">
   <property name="version">0,1</property>
   <property name="mlt_service">frei0r.colgate</property>
   <property name="kdenlive_id">frei0r.colgate</property>
   <property name="tag">frei0r.colgate</property>
   <property name="kdenlive_ix">1</property>
   <property name="kdenlive_info"/>
   <property name="Neutral Color">0x7f7f7fff</property>
   <property name="Color Temperature">0=0,523333</property>
   <property name="disable">0</property>
  </filter>
  <filter id="filter136">
   <property name="version">0,3</property>
   <property name="mlt_service">frei0r.levels</property>
   <property name="kdenlive_id">frei0r.levels</property>
   <property name="tag">frei0r.levels</property>
   <property name="kdenlive_ix">2</property>
   <property name="kdenlive_info"/>
   <property name="Channel">0,3</property>
   <property name="Input black level">0=0</property>
   <property name="Input white level">0=0,85</property>
   <property name="Gamma">0=0,25</property>
   <property name="Black output">0=0</property>
   <property name="White output">0=1</property>
   <property name="Show histogram">0</property>
   <property name="Histogram position">0,3</property>
   <property name="disable">0</property>
  </filter>
 </producer>
 <producer title="Anonymous Submission" id="18_playlist8" in="0" out="1547">
  <property name="length">00:00:30:48</property>
  <property name="eof">pause</property>
  <property name="resource">/media/bordun/plagiat/2018-12-10_Plagiat_RespecteLaPuissancePapale/Carte_3/CAM1_2018-12-10_1855_C0007.mov</property>
  <property name="audio_index">2</property>
  <property name="video_index">1</property>
  <property name="mute_on_pause">1</property>
  <property name="mlt_service">avformat-novalidate</property>
  <property name="seekable">1</property>
  <property name="aspect_ratio">1</property>
  <property name="kdenlive:folderid">13</property>
  <property name="kdenlive:file_size">1429192513</property>
  <property name="kdenlive:file_hash">626434d53e10f12816265ac334d41379</property>
  <property name="global_feed">1</property>
  <property name="xml">was here</property>
  <property name="meta.media.nb_streams">3</property>
  <property name="meta.media.1.stream.type">video</property>
  <property name="meta.media.1.stream.frame_rate">50</property>
  <property name="meta.media.1.stream.sample_aspect_ratio">1</property>
  <property name="meta.media.1.codec.width">1920</property>
  <property name="meta.media.1.codec.height">1080</property>
  <property name="meta.media.1.codec.rotate">0</property>
  <property name="meta.media.1.codec.frame_rate">5000</property>
  <property name="meta.media.1.codec.pix_fmt">yuv422p10le</property>
  <property name="meta.media.1.codec.sample_aspect_ratio">0</property>
  <property name="meta.media.1.codec.colorspace">709</property>
  <property name="meta.media.1.codec.name">prores</property>
  <property name="meta.media.1.codec.long_name">ProRes</property>
  <property name="meta.media.1.codec.bit_rate">366957395</property>
  <property name="meta.attr.1.stream.creation_time.markup">2018-12-10T18:55:29.000000Z</property>
  <property name="meta.attr.1.stream.language.markup">eng</property>
  <property name="meta.attr.1.stream.handler_name.markup">Apple Alias Data Handler</property>
  <property name="meta.attr.1.stream.encoder.markup">Apple ProRes 422 HQ</property>
  <property name="meta.attr.1.stream.timecode.markup">18:55:29:30</property>
  <property name="meta.media.2.stream.type">audio</property>
  <property name="meta.media.2.codec.sample_fmt">s32</property>
  <property name="meta.media.2.codec.sample_rate">48000</property>
  <property name="meta.media.2.codec.channels">2</property>
  <property name="meta.media.2.codec.name">pcm_s24le</property>
  <property name="meta.media.2.codec.long_name">PCM signed 24-bit little-endian</property>
  <property name="meta.media.2.codec.bit_rate">2304000</property>
  <property name="meta.attr.2.stream.creation_time.markup">2018-12-10T18:55:29.000000Z</property>
  <property name="meta.attr.2.stream.language.markup">eng</property>
  <property name="meta.attr.2.stream.handler_name.markup">Apple Alias Data Handler</property>
  <property name="meta.attr.2.stream.timecode.markup">18:55:29:30</property>
  <property name="meta.attr.com.apple.proapps.manufacturer.markup">Blackmagic Design</property>
  <property name="meta.attr.com.apple.proapps.cameraName.markup">CAM1</property>
  <property name="meta.attr.com.apple.proapps.isGood.markup">0</property>
  <property name="meta.attr.com.apple.proapps.customgamma.markup">com.blackmagic-design.cinemacamera.filmlog</property>
  <property name="meta.attr.com.blackmagic-design.cinemacamera.uuid.markup">18E5E00548F94923B646613A73C01B56</property>
  <property name="meta.attr.creation_time.markup">2018-12-10T18:55:29.000000Z</property>
  <property name="meta.attr.timecode.markup">18:55:29:30</property>
  <property name="meta.media.sample_aspect_num">1</property>
  <property name="meta.media.sample_aspect_den">1</property>
  <property name="meta.media.frame_rate_num">50</property>
  <property name="meta.media.frame_rate_den">1</property>
  <property name="meta.media.colorspace">709</property>
  <property name="meta.media.color_trc">1</property>
  <property name="meta.media.width">1920</property>
  <property name="meta.media.height">1080</property>
  <property name="meta.media.top_field_first">0</property>
  <property name="meta.media.progressive">1</property>
  <property name="meta.media.1.codec.color_trc">1</property>
  <filter id="filter138">
   <property name="version">0,1</property>
   <property name="mlt_service">frei0r.colgate</property>
   <property name="kdenlive_id">frei0r.colgate</property>
   <property name="tag">frei0r.colgate</property>
   <property name="kdenlive_ix">1</property>
   <property name="kdenlive_info"/>
   <property name="Neutral Color">0x7f7f7fff</property>
   <property name="Color Temperature">0=0,566667</property>
  </filter>
  <filter id="filter139">
   <property name="version">0,3</property>
   <property name="mlt_service">frei0r.levels</property>
   <property name="kdenlive_id">frei0r.levels</property>
   <property name="tag">frei0r.levels</property>
   <property name="kdenlive_ix">2</property>
   <property name="kdenlive_info"/>
   <property name="Channel">0,3</property>
   <property name="Input black level">0=0</property>
   <property name="Input white level">0=0,85</property>
   <property name="Gamma">0=0,25</property>
   <property name="Black output">0=0</property>
   <property name="White output">0=1</property>
   <property name="Show histogram">0</property>
   <property name="Histogram position">0,3</property>
  </filter>
 </producer>
 <producer title="Anonymous Submission" id="producer9" in="0" out="2823">
  <property name="length">00:00:56:24</property>
  <property name="eof">pause</property>
  <property name="resource">/media/bordun/plagiat/2018-12-10_Plagiat_RespecteLaPuissancePapale/Carte_3/CAM1_2018-12-10_1856_C0008.mov</property>
  <property name="audio_index">-1</property>
  <property name="video_index">-1</property>
  <property name="mute_on_pause">1</property>
  <property name="mlt_service">avformat-novalidate</property>
  <property name="seekable">1</property>
  <property name="aspect_ratio">1</property>
  <property name="kdenlive:folderid">13</property>
  <property name="kdenlive:file_size">2607255569</property>
  <property name="kdenlive:file_hash">4d6c52ada6c928dfc33b28648fd401f1</property>
  <property name="global_feed">1</property>
  <property name="kdenlive:zone_in">261</property>
  <property name="kdenlive:zone_out">1043</property>
  <property name="xml">was here</property>
  <property name="kdenlive:binid">19</property>
  <filter id="filter140" out="2823">
   <property name="background">colour:0x00000000</property>
   <property name="mlt_service">affine</property>
   <property name="kdenlive_id">pan_zoom</property>
   <property name="tag">affine</property>
   <property name="kdenlive_ix">1</property>
   <property name="kdenlive:sync_in_out">1</property>
   <property name="kdenlive_info"/>
   <property name="transition.geometry">-768/-333:2688x1512:100</property>
   <property name="transition.distort">0</property>
   <property name="disable">1</property>
  </filter>
 </producer>
 <producer title="Anonymous Submission" id="14_playlist8" in="0" out="3805">
  <property name="length">00:01:16:06</property>
  <property name="eof">pause</property>
  <property name="resource">/media/bordun/plagiat/2018-12-10_Plagiat_RespecteLaPuissancePapale/Carte_3/CAM1_2018-12-10_1833_C0003.mov</property>
  <property name="audio_index">2</property>
  <property name="video_index">1</property>
  <property name="mute_on_pause">1</property>
  <property name="mlt_service">avformat-novalidate</property>
  <property name="seekable">1</property>
  <property name="aspect_ratio">1</property>
  <property name="kdenlive:folderid">14</property>
  <property name="kdenlive:file_size">3513882801</property>
  <property name="kdenlive:file_hash">911165815b4f50c12a788c8017dec34b</property>
  <property name="global_feed">1</property>
  <property name="xml">was here</property>
  <property name="meta.media.nb_streams">3</property>
  <property name="meta.media.1.stream.type">video</property>
  <property name="meta.media.1.stream.frame_rate">50</property>
  <property name="meta.media.1.stream.sample_aspect_ratio">1</property>
  <property name="meta.media.1.codec.width">1920</property>
  <property name="meta.media.1.codec.height">1080</property>
  <property name="meta.media.1.codec.rotate">0</property>
  <property name="meta.media.1.codec.frame_rate">5000</property>
  <property name="meta.media.1.codec.pix_fmt">yuv422p10le</property>
  <property name="meta.media.1.codec.sample_aspect_ratio">0</property>
  <property name="meta.media.1.codec.colorspace">709</property>
  <property name="meta.media.1.codec.name">prores</property>
  <property name="meta.media.1.codec.long_name">ProRes</property>
  <property name="meta.media.1.codec.bit_rate">366958122</property>
  <property name="meta.attr.1.stream.creation_time.markup">2018-12-10T18:33:13.000000Z</property>
  <property name="meta.attr.1.stream.language.markup">eng</property>
  <property name="meta.attr.1.stream.handler_name.markup">Apple Alias Data Handler</property>
  <property name="meta.attr.1.stream.encoder.markup">Apple ProRes 422 HQ</property>
  <property name="meta.attr.1.stream.timecode.markup">18:33:13:41</property>
  <property name="meta.media.2.stream.type">audio</property>
  <property name="meta.media.2.codec.sample_fmt">s32</property>
  <property name="meta.media.2.codec.sample_rate">48000</property>
  <property name="meta.media.2.codec.channels">2</property>
  <property name="meta.media.2.codec.name">pcm_s24le</property>
  <property name="meta.media.2.codec.long_name">PCM signed 24-bit little-endian</property>
  <property name="meta.media.2.codec.bit_rate">2304000</property>
  <property name="meta.attr.2.stream.creation_time.markup">2018-12-10T18:33:13.000000Z</property>
  <property name="meta.attr.2.stream.language.markup">eng</property>
  <property name="meta.attr.2.stream.handler_name.markup">Apple Alias Data Handler</property>
  <property name="meta.attr.2.stream.timecode.markup">18:33:13:41</property>
  <property name="meta.attr.com.apple.proapps.manufacturer.markup">Blackmagic Design</property>
  <property name="meta.attr.com.apple.proapps.cameraName.markup">CAM1</property>
  <property name="meta.attr.com.apple.proapps.isGood.markup">0</property>
  <property name="meta.attr.com.apple.proapps.customgamma.markup">com.blackmagic-design.cinemacamera.filmlog</property>
  <property name="meta.attr.com.blackmagic-design.cinemacamera.uuid.markup">18E5E00548F94923B646613A73C01B56</property>
  <property name="meta.attr.creation_time.markup">2018-12-10T18:33:13.000000Z</property>
  <property name="meta.attr.timecode.markup">18:33:13:41</property>
  <property name="meta.media.sample_aspect_num">1</property>
  <property name="meta.media.sample_aspect_den">1</property>
  <property name="meta.media.frame_rate_num">50</property>
  <property name="meta.media.frame_rate_den">1</property>
  <property name="meta.media.colorspace">709</property>
  <property name="meta.media.color_trc">1</property>
  <property name="meta.media.width">1920</property>
  <property name="meta.media.height">1080</property>
  <property name="meta.media.top_field_first">0</property>
  <property name="meta.media.progressive">1</property>
  <property name="meta.media.1.codec.color_trc">1</property>
  <filter id="filter141">
   <property name="version">0,1</property>
   <property name="mlt_service">frei0r.colgate</property>
   <property name="kdenlive_id">frei0r.colgate</property>
   <property name="tag">frei0r.colgate</property>
   <property name="kdenlive_ix">1</property>
   <property name="kdenlive_info"/>
   <property name="Neutral Color">0x7f7f7fff</property>
   <property name="Color Temperature">0=0,523333</property>
  </filter>
  <filter id="filter142">
   <property name="version">0,3</property>
   <property name="mlt_service">frei0r.levels</property>
   <property name="kdenlive_id">frei0r.levels</property>
   <property name="tag">frei0r.levels</property>
   <property name="kdenlive_ix">2</property>
   <property name="kdenlive_info"/>
   <property name="Channel">0,3</property>
   <property name="Input black level">0=0</property>
   <property name="Input white level">0=0,85</property>
   <property name="Gamma">0=0,25</property>
   <property name="Black output">0=0</property>
   <property name="White output">0=1</property>
   <property name="Show histogram">0</property>
   <property name="Histogram position">0,3</property>
  </filter>
 </producer>
 <producer title="Anonymous Submission" id="15_playlist8" in="0" out="3941">
  <property name="length">00:01:18:42</property>
  <property name="eof">pause</property>
  <property name="resource">/media/bordun/plagiat/2018-12-10_Plagiat_RespecteLaPuissancePapale/Carte_3/CAM1_2018-12-10_1834_C0004.mov</property>
  <property name="audio_index">2</property>
  <property name="video_index">1</property>
  <property name="mute_on_pause">1</property>
  <property name="mlt_service">avformat-novalidate</property>
  <property name="seekable">1</property>
  <property name="aspect_ratio">1</property>
  <property name="kdenlive:folderid">14</property>
  <property name="kdenlive:file_size">3639442625</property>
  <property name="kdenlive:file_hash">b37e37844340c239c0192cc4d49711fe</property>
  <property name="global_feed">1</property>
  <property name="xml">was here</property>
  <property name="meta.media.nb_streams">3</property>
  <property name="meta.media.1.stream.type">video</property>
  <property name="meta.media.1.stream.frame_rate">50</property>
  <property name="meta.media.1.stream.sample_aspect_ratio">1</property>
  <property name="meta.media.1.codec.width">1920</property>
  <property name="meta.media.1.codec.height">1080</property>
  <property name="meta.media.1.codec.rotate">0</property>
  <property name="meta.media.1.codec.frame_rate">5000</property>
  <property name="meta.media.1.codec.pix_fmt">yuv422p10le</property>
  <property name="meta.media.1.codec.sample_aspect_ratio">0</property>
  <property name="meta.media.1.codec.colorspace">709</property>
  <property name="meta.media.1.codec.name">prores</property>
  <property name="meta.media.1.codec.long_name">ProRes</property>
  <property name="meta.media.1.codec.bit_rate">366957579</property>
  <property name="meta.attr.1.stream.creation_time.markup">2018-12-10T18:34:58.000000Z</property>
  <property name="meta.attr.1.stream.language.markup">eng</property>
  <property name="meta.attr.1.stream.handler_name.markup">Apple Alias Data Handler</property>
  <property name="meta.attr.1.stream.encoder.markup">Apple ProRes 422 HQ</property>
  <property name="meta.attr.1.stream.timecode.markup">18:34:58:08</property>
  <property name="meta.media.2.stream.type">audio</property>
  <property name="meta.media.2.codec.sample_fmt">s32</property>
  <property name="meta.media.2.codec.sample_rate">48000</property>
  <property name="meta.media.2.codec.channels">2</property>
  <property name="meta.media.2.codec.name">pcm_s24le</property>
  <property name="meta.media.2.codec.long_name">PCM signed 24-bit little-endian</property>
  <property name="meta.media.2.codec.bit_rate">2304000</property>
  <property name="meta.attr.2.stream.creation_time.markup">2018-12-10T18:34:58.000000Z</property>
  <property name="meta.attr.2.stream.language.markup">eng</property>
  <property name="meta.attr.2.stream.handler_name.markup">Apple Alias Data Handler</property>
  <property name="meta.attr.2.stream.timecode.markup">18:34:58:08</property>
  <property name="meta.attr.com.apple.proapps.manufacturer.markup">Blackmagic Design</property>
  <property name="meta.attr.com.apple.proapps.cameraName.markup">CAM1</property>
  <property name="meta.attr.com.apple.proapps.isGood.markup">0</property>
  <property name="meta.attr.com.apple.proapps.customgamma.markup">com.blackmagic-design.cinemacamera.filmlog</property>
  <property name="meta.attr.com.blackmagic-design.cinemacamera.uuid.markup">18E5E00548F94923B646613A73C01B56</property>
  <property name="meta.attr.creation_time.markup">2018-12-10T18:34:58.000000Z</property>
  <property name="meta.attr.timecode.markup">18:34:58:08</property>
  <property name="meta.media.sample_aspect_num">1</property>
  <property name="meta.media.sample_aspect_den">1</property>
  <property name="meta.media.frame_rate_num">50</property>
  <property name="meta.media.frame_rate_den">1</property>
  <property name="meta.media.colorspace">709</property>
  <property name="meta.media.color_trc">1</property>
  <property name="meta.media.width">1920</property>
  <property name="meta.media.height">1080</property>
  <property name="meta.media.top_field_first">0</property>
  <property name="meta.media.progressive">1</property>
  <property name="meta.media.1.codec.color_trc">1</property>
  <filter id="filter137">
   <property name="version">0,1</property>
   <property name="mlt_service">frei0r.colgate</property>
   <property name="kdenlive_id">frei0r.colgate</property>
   <property name="tag">frei0r.colgate</property>
   <property name="kdenlive_ix">1</property>
   <property name="kdenlive_info"/>
   <property name="Neutral Color">0x7f7f7fff</property>
   <property name="Color Temperature">0=0,523333</property>
   <property name="disable">0</property>
  </filter>
  <filter id="filter143">
   <property name="version">0,3</property>
   <property name="mlt_service">frei0r.levels</property>
   <property name="kdenlive_id">frei0r.levels</property>
   <property name="tag">frei0r.levels</property>
   <property name="kdenlive_ix">2</property>
   <property name="kdenlive_info"/>
   <property name="Channel">0,3</property>
   <property name="Input black level">0=0</property>
   <property name="Input white level">0=0,85</property>
   <property name="Gamma">0=0,25</property>
   <property name="Black output">0=0</property>
   <property name="White output">0=1</property>
   <property name="Show histogram">0</property>
   <property name="Histogram position">0,3</property>
   <property name="disable">0</property>
  </filter>
 </producer>
 <playlist id="playlist8">
  <property name="kdenlive:track_name">Vidéo 7</property>
  <blank length="4185"/>
  <entry producer="slowmotion:7:0,8:1:0" in="8991" out="9013"/>
  <blank length="147"/>
  <entry producer="19_playlist8" in="427" out="430">
   <filter id="rotoscoping">
    <property name="mode">alpha</property>
    <property name="alpha_operation">clear</property>
    <property name="invert">0</property>
    <property name="feather">10</property>
    <property name="feather_passes">1</property>
    <property name="mlt_service">rotoscoping</property>
    <property name="kdenlive_id">rotoscoping</property>
    <property name="tag">rotoscoping</property>
    <property name="kdenlive_ix">1</property>
    <property name="kdenlive_info"/>
    <property name="disable"/>
    <property name="spline">[
    [
        [
            0.7334302325581395,
            -0.045219638242894065
        ],
        [
            0.6584302325581395,
            -0.04780361757105943
        ],
        [
            0.6607558139534884,
            0.05555555555555567
        ]
    ],
    [
        [
            0.6517441860465116,
            0.41731266149870805
        ],
        [
            0.6540697674418605,
            0.5206718346253231
        ],
        [
            0.6502906976744186,
            0.5284237726098192
        ]
    ],
    [
        [
            0.638953488372093,
            0.5516795865633074
        ],
        [
            0.6351744186046511,
            0.5594315245478035
        ],
        [
            0.6351744186046511,
            0.5945736434108527
        ]
    ],
    [
        [
            0.6409883720930233,
            0.728423772609819
        ],
        [
            0.6409883720930233,
            0.7635658914728681
        ],
        [
            0.6380813953488372,
            0.851421188630491
        ]
    ],
    [
        [
            0.6194767441860465,
            0.8839793281653746
        ],
        [
            0.6191860465116279,
            0.9186046511627907
        ],
        [
            0.6133720930232559,
            0.9330749354005168
        ]
    ],
    [
        [
            0.6104651162790697,
            1.0229974160206716
        ],
        [
            0.6046511627906976,
            1.0374677002583979
        ],
        [
            0.6877906976744187,
            1.0400516795865633
        ]
    ],
    [
        [
            0.9546511627906976,
            1.0400516795865633
        ],
        [
            1.0377906976744184,
            1.0426356589147288
        ],
        [
            1.0372093023255815,
            0.8472868217054264
        ]
    ],
    [
        [
            1.0209302325581393,
            0.1320413436692507
        ],
        [
            1.0203488372093024,
            -0.06330749354005168
        ],
        [
            0.9453488372093022,
            -0.06589147286821706
        ]
    ]
]
</property>
   </filter>
  </entry>
  <entry producer="19_playlist8" in="436" out="438">
   <filter id="filter145">
    <property name="mode">alpha</property>
    <property name="alpha_operation">clear</property>
    <property name="invert">0</property>
    <property name="feather">10</property>
    <property name="feather_passes">1</property>
    <property name="mlt_service">rotoscoping</property>
    <property name="kdenlive_id">rotoscoping</property>
    <property name="tag">rotoscoping</property>
    <property name="kdenlive_ix">1</property>
    <property name="kdenlive_info"/>
    <property name="disable"/>
    <property name="spline">[
    [
        [
            0.7334302325581395,
            -0.045219638242894065
        ],
        [
            0.6584302325581395,
            -0.04780361757105943
        ],
        [
            0.6607558139534884,
            0.05555555555555567
        ]
    ],
    [
        [
            0.6517441860465116,
            0.41731266149870805
        ],
        [
            0.6540697674418605,
            0.5206718346253231
        ],
        [
            0.6502906976744186,
            0.5284237726098192
        ]
    ],
    [
        [
            0.638953488372093,
            0.5516795865633074
        ],
        [
            0.6351744186046511,
            0.5594315245478035
        ],
        [
            0.6351744186046511,
            0.5945736434108527
        ]
    ],
    [
        [
            0.6409883720930233,
            0.728423772609819
        ],
        [
            0.6409883720930233,
            0.7635658914728681
        ],
        [
            0.6380813953488372,
            0.851421188630491
        ]
    ],
    [
        [
            0.6194767441860465,
            0.8839793281653746
        ],
        [
            0.6191860465116279,
            0.9186046511627907
        ],
        [
            0.6133720930232559,
            0.9330749354005168
        ]
    ],
    [
        [
            0.6104651162790697,
            1.0229974160206716
        ],
        [
            0.6046511627906976,
            1.0374677002583979
        ],
        [
            0.6877906976744187,
            1.0400516795865633
        ]
    ],
    [
        [
            0.9546511627906976,
            1.0400516795865633
        ],
        [
            1.0377906976744184,
            1.0426356589147288
        ],
        [
            1.0372093023255815,
            0.8472868217054264
        ]
    ],
    [
        [
            1.0209302325581393,
            0.1320413436692507
        ],
        [
            1.0203488372093024,
            -0.06330749354005168
        ],
        [
            0.9453488372093022,
            -0.06589147286821706
        ]
    ]
]
</property>
   </filter>
  </entry>
  <entry producer="19_playlist8" in="436" out="438">
   <filter id="filter146">
    <property name="mode">alpha</property>
    <property name="alpha_operation">clear</property>
    <property name="invert">0</property>
    <property name="feather">10</property>
    <property name="feather_passes">1</property>
    <property name="mlt_service">rotoscoping</property>
    <property name="kdenlive_id">rotoscoping</property>
    <property name="tag">rotoscoping</property>
    <property name="kdenlive_ix">1</property>
    <property name="kdenlive_info"/>
    <property name="disable"/>
    <property name="spline">[
    [
        [
            0.7334302325581395,
            -0.045219638242894065
        ],
        [
            0.6584302325581395,
            -0.04780361757105943
        ],
        [
            0.6607558139534884,
            0.05555555555555567
        ]
    ],
    [
        [
            0.6517441860465116,
            0.41731266149870805
        ],
        [
            0.6540697674418605,
            0.5206718346253231
        ],
        [
            0.6502906976744186,
            0.5284237726098192
        ]
    ],
    [
        [
            0.638953488372093,
            0.5516795865633074
        ],
        [
            0.6351744186046511,
            0.5594315245478035
        ],
        [
            0.6351744186046511,
            0.5945736434108527
        ]
    ],
    [
        [
            0.6409883720930233,
            0.728423772609819
        ],
        [
            0.6409883720930233,
            0.7635658914728681
        ],
        [
            0.6380813953488372,
            0.851421188630491
        ]
    ],
    [
        [
            0.6194767441860465,
            0.8839793281653746
        ],
        [
            0.6191860465116279,
            0.9186046511627907
        ],
        [
            0.6133720930232559,
            0.9330749354005168
        ]
    ],
    [
        [
            0.6104651162790697,
            1.0229974160206716
        ],
        [
            0.6046511627906976,
            1.0374677002583979
        ],
        [
            0.6877906976744187,
            1.0400516795865633
        ]
    ],
    [
        [
            0.9546511627906976,
            1.0400516795865633
        ],
        [
            1.0377906976744184,
            1.0426356589147288
        ],
        [
            1.0372093023255815,
            0.8472868217054264
        ]
    ],
    [
        [
            1.0209302325581393,
            0.1320413436692507
        ],
        [
            1.0203488372093024,
            -0.06330749354005168
        ],
        [
            0.9453488372093022,
            -0.06589147286821706
        ]
    ]
]
</property>
   </filter>
  </entry>
  <entry producer="19_playlist8" in="440" out="443">
   <filter id="filter147">
    <property name="mode">alpha</property>
    <property name="alpha_operation">clear</property>
    <property name="invert">0</property>
    <property name="feather">10</property>
    <property name="feather_passes">1</property>
    <property name="mlt_service">rotoscoping</property>
    <property name="kdenlive_id">rotoscoping</property>
    <property name="tag">rotoscoping</property>
    <property name="kdenlive_ix">1</property>
    <property name="kdenlive_info"/>
    <property name="disable"/>
    <property name="spline">[
    [
        [
            0.7334302325581395,
            -0.045219638242894065
        ],
        [
            0.6584302325581395,
            -0.04780361757105943
        ],
        [
            0.6607558139534884,
            0.05555555555555567
        ]
    ],
    [
        [
            0.6517441860465116,
            0.41731266149870805
        ],
        [
            0.6540697674418605,
            0.5206718346253231
        ],
        [
            0.6502906976744186,
            0.5284237726098192
        ]
    ],
    [
        [
            0.638953488372093,
            0.5516795865633074
        ],
        [
            0.6351744186046511,
            0.5594315245478035
        ],
        [
            0.6351744186046511,
            0.5945736434108527
        ]
    ],
    [
        [
            0.6409883720930233,
            0.728423772609819
        ],
        [
            0.6409883720930233,
            0.7635658914728681
        ],
        [
            0.6380813953488372,
            0.851421188630491
        ]
    ],
    [
        [
            0.6194767441860465,
            0.8839793281653746
        ],
        [
            0.6191860465116279,
            0.9186046511627907
        ],
        [
            0.6133720930232559,
            0.9330749354005168
        ]
    ],
    [
        [
            0.6104651162790697,
            1.0229974160206716
        ],
        [
            0.6046511627906976,
            1.0374677002583979
        ],
        [
            0.6877906976744187,
            1.0400516795865633
        ]
    ],
    [
        [
            0.9546511627906976,
            1.0400516795865633
        ],
        [
            1.0377906976744184,
            1.0426356589147288
        ],
        [
            1.0372093023255815,
            0.8472868217054264
        ]
    ],
    [
        [
            1.0209302325581393,
            0.1320413436692507
        ],
        [
            1.0203488372093024,
            -0.06330749354005168
        ],
        [
            0.9453488372093022,
            -0.06589147286821706
        ]
    ]
]
</property>
   </filter>
  </entry>
  <entry producer="19_playlist8" in="444" out="445">
   <filter id="filter148">
    <property name="mode">alpha</property>
    <property name="alpha_operation">clear</property>
    <property name="invert">0</property>
    <property name="feather">10</property>
    <property name="feather_passes">1</property>
    <property name="mlt_service">rotoscoping</property>
    <property name="kdenlive_id">rotoscoping</property>
    <property name="tag">rotoscoping</property>
    <property name="kdenlive_ix">1</property>
    <property name="kdenlive_info"/>
    <property name="disable"/>
    <property name="spline">[
    [
        [
            0.7334302325581395,
            -0.045219638242894065
        ],
        [
            0.6584302325581395,
            -0.04780361757105943
        ],
        [
            0.6607558139534884,
            0.05555555555555567
        ]
    ],
    [
        [
            0.6517441860465116,
            0.41731266149870805
        ],
        [
            0.6540697674418605,
            0.5206718346253231
        ],
        [
            0.6502906976744186,
            0.5284237726098192
        ]
    ],
    [
        [
            0.638953488372093,
            0.5516795865633074
        ],
        [
            0.6351744186046511,
            0.5594315245478035
        ],
        [
            0.6351744186046511,
            0.5945736434108527
        ]
    ],
    [
        [
            0.6409883720930233,
            0.728423772609819
        ],
        [
            0.6409883720930233,
            0.7635658914728681
        ],
        [
            0.6380813953488372,
            0.851421188630491
        ]
    ],
    [
        [
            0.6194767441860465,
            0.8839793281653746
        ],
        [
            0.6191860465116279,
            0.9186046511627907
        ],
        [
            0.6133720930232559,
            0.9330749354005168
        ]
    ],
    [
        [
            0.6104651162790697,
            1.0229974160206716
        ],
        [
            0.6046511627906976,
            1.0374677002583979
        ],
        [
            0.6877906976744187,
            1.0400516795865633
        ]
    ],
    [
        [
            0.9546511627906976,
            1.0400516795865633
        ],
        [
            1.0377906976744184,
            1.0426356589147288
        ],
        [
            1.0372093023255815,
            0.8472868217054264
        ]
    ],
    [
        [
            1.0209302325581393,
            0.1320413436692507
        ],
        [
            1.0203488372093024,
            -0.06330749354005168
        ],
        [
            0.9453488372093022,
            -0.06589147286821706
        ]
    ]
]
</property>
   </filter>
   <filter id="filter149">
    <property name="version">0,1</property>
    <property name="mlt_service">frei0r.glitch0r</property>
    <property name="kdenlive_id">frei0r.glitch0r</property>
    <property name="tag">frei0r.glitch0r</property>
    <property name="kdenlive_ix">2</property>
    <property name="kdenlive_info"/>
    <property name="disable"/>
    <property name="0">0,225</property>
    <property name="1">0,014</property>
    <property name="2">0,006</property>
    <property name="3">0,019</property>
   </filter>
  </entry>
  <entry producer="19_playlist8" in="446" out="450">
   <filter id="filter150">
    <property name="mode">alpha</property>
    <property name="alpha_operation">clear</property>
    <property name="invert">0</property>
    <property name="feather">10</property>
    <property name="feather_passes">1</property>
    <property name="mlt_service">rotoscoping</property>
    <property name="kdenlive_id">rotoscoping</property>
    <property name="tag">rotoscoping</property>
    <property name="kdenlive_ix">1</property>
    <property name="kdenlive_info"/>
    <property name="disable"/>
    <property name="spline">[
    [
        [
            0.7334302325581395,
            -0.045219638242894065
        ],
        [
            0.6584302325581395,
            -0.04780361757105943
        ],
        [
            0.6607558139534884,
            0.05555555555555567
        ]
    ],
    [
        [
            0.6517441860465116,
            0.41731266149870805
        ],
        [
            0.6540697674418605,
            0.5206718346253231
        ],
        [
            0.6502906976744186,
            0.5284237726098192
        ]
    ],
    [
        [
            0.638953488372093,
            0.5516795865633074
        ],
        [
            0.6351744186046511,
            0.5594315245478035
        ],
        [
            0.6351744186046511,
            0.5945736434108527
        ]
    ],
    [
        [
            0.6409883720930233,
            0.728423772609819
        ],
        [
            0.6409883720930233,
            0.7635658914728681
        ],
        [
            0.6380813953488372,
            0.851421188630491
        ]
    ],
    [
        [
            0.6194767441860465,
            0.8839793281653746
        ],
        [
            0.6191860465116279,
            0.9186046511627907
        ],
        [
            0.6133720930232559,
            0.9330749354005168
        ]
    ],
    [
        [
            0.6104651162790697,
            1.0229974160206716
        ],
        [
            0.6046511627906976,
            1.0374677002583979
        ],
        [
            0.6877906976744187,
            1.0400516795865633
        ]
    ],
    [
        [
            0.9546511627906976,
            1.0400516795865633
        ],
        [
            1.0377906976744184,
            1.0426356589147288
        ],
        [
            1.0372093023255815,
            0.8472868217054264
        ]
    ],
    [
        [
            1.0209302325581393,
            0.1320413436692507
        ],
        [
            1.0203488372093024,
            -0.06330749354005168
        ],
        [
            0.9453488372093022,
            -0.06589147286821706
        ]
    ]
]
</property>
   </filter>
  </entry>
  <entry producer="19_playlist8" in="451" out="453">
   <filter id="filter151">
    <property name="mode">alpha</property>
    <property name="alpha_operation">clear</property>
    <property name="invert">0</property>
    <property name="feather">10</property>
    <property name="feather_passes">1</property>
    <property name="mlt_service">rotoscoping</property>
    <property name="kdenlive_id">rotoscoping</property>
    <property name="tag">rotoscoping</property>
    <property name="kdenlive_ix">1</property>
    <property name="kdenlive_info"/>
    <property name="disable"/>
    <property name="spline">[
    [
        [
            0.7334302325581395,
            -0.045219638242894065
        ],
        [
            0.6584302325581395,
            -0.04780361757105943
        ],
        [
            0.6607558139534884,
            0.05555555555555567
        ]
    ],
    [
        [
            0.6517441860465116,
            0.41731266149870805
        ],
        [
            0.6540697674418605,
            0.5206718346253231
        ],
        [
            0.6502906976744186,
            0.5284237726098192
        ]
    ],
    [
        [
            0.638953488372093,
            0.5516795865633074
        ],
        [
            0.6351744186046511,
            0.5594315245478035
        ],
        [
            0.6351744186046511,
            0.5945736434108527
        ]
    ],
    [
        [
            0.6409883720930233,
            0.728423772609819
        ],
        [
            0.6409883720930233,
            0.7635658914728681
        ],
        [
            0.6380813953488372,
            0.851421188630491
        ]
    ],
    [
        [
            0.6194767441860465,
            0.8839793281653746
        ],
        [
            0.6191860465116279,
            0.9186046511627907
        ],
        [
            0.6133720930232559,
            0.9330749354005168
        ]
    ],
    [
        [
            0.6104651162790697,
            1.0229974160206716
        ],
        [
            0.6046511627906976,
            1.0374677002583979
        ],
        [
            0.6877906976744187,
            1.0400516795865633
        ]
    ],
    [
        [
            0.9546511627906976,
            1.0400516795865633
        ],
        [
            1.0377906976744184,
            1.0426356589147288
        ],
        [
            1.0372093023255815,
            0.8472868217054264
        ]
    ],
    [
        [
            1.0209302325581393,
            0.1320413436692507
        ],
        [
            1.0203488372093024,
            -0.06330749354005168
        ],
        [
            0.9453488372093022,
            -0.06589147286821706
        ]
    ]
]
</property>
   </filter>
  </entry>
  <entry producer="19_playlist8" in="454" out="458">
   <filter id="filter152">
    <property name="mode">alpha</property>
    <property name="alpha_operation">clear</property>
    <property name="invert">0</property>
    <property name="feather">10</property>
    <property name="feather_passes">1</property>
    <property name="mlt_service">rotoscoping</property>
    <property name="kdenlive_id">rotoscoping</property>
    <property name="tag">rotoscoping</property>
    <property name="kdenlive_ix">1</property>
    <property name="kdenlive_info"/>
    <property name="disable"/>
    <property name="spline">[
    [
        [
            0.7334302325581395,
            -0.045219638242894065
        ],
        [
            0.6584302325581395,
            -0.04780361757105943
        ],
        [
            0.6607558139534884,
            0.05555555555555567
        ]
    ],
    [
        [
            0.6517441860465116,
            0.41731266149870805
        ],
        [
            0.6540697674418605,
            0.5206718346253231
        ],
        [
            0.6502906976744186,
            0.5284237726098192
        ]
    ],
    [
        [
            0.638953488372093,
            0.5516795865633074
        ],
        [
            0.6351744186046511,
            0.5594315245478035
        ],
        [
            0.6351744186046511,
            0.5945736434108527
        ]
    ],
    [
        [
            0.6409883720930233,
            0.728423772609819
        ],
        [
            0.6409883720930233,
            0.7635658914728681
        ],
        [
            0.6380813953488372,
            0.851421188630491
        ]
    ],
    [
        [
            0.6194767441860465,
            0.8839793281653746
        ],
        [
            0.6191860465116279,
            0.9186046511627907
        ],
        [
            0.6133720930232559,
            0.9330749354005168
        ]
    ],
    [
        [
            0.6104651162790697,
            1.0229974160206716
        ],
        [
            0.6046511627906976,
            1.0374677002583979
        ],
        [
            0.6877906976744187,
            1.0400516795865633
        ]
    ],
    [
        [
            0.9546511627906976,
            1.0400516795865633
        ],
        [
            1.0377906976744184,
            1.0426356589147288
        ],
        [
            1.0372093023255815,
            0.8472868217054264
        ]
    ],
    [
        [
            1.0209302325581393,
            0.1320413436692507
        ],
        [
            1.0203488372093024,
            -0.06330749354005168
        ],
        [
            0.9453488372093022,
            -0.06589147286821706
        ]
    ]
]
</property>
   </filter>
  </entry>
  <entry producer="19_playlist8" in="459" out="462">
   <filter id="filter153">
    <property name="mode">alpha</property>
    <property name="alpha_operation">clear</property>
    <property name="invert">0</property>
    <property name="feather">10</property>
    <property name="feather_passes">1</property>
    <property name="mlt_service">rotoscoping</property>
    <property name="kdenlive_id">rotoscoping</property>
    <property name="tag">rotoscoping</property>
    <property name="kdenlive_ix">1</property>
    <property name="kdenlive_info"/>
    <property name="disable"/>
    <property name="spline">[
    [
        [
            0.7334302325581395,
            -0.045219638242894065
        ],
        [
            0.6584302325581395,
            -0.04780361757105943
        ],
        [
            0.6607558139534884,
            0.05555555555555567
        ]
    ],
    [
        [
            0.6517441860465116,
            0.41731266149870805
        ],
        [
            0.6540697674418605,
            0.5206718346253231
        ],
        [
            0.6502906976744186,
            0.5284237726098192
        ]
    ],
    [
        [
            0.638953488372093,
            0.5516795865633074
        ],
        [
            0.6351744186046511,
            0.5594315245478035
        ],
        [
            0.6351744186046511,
            0.5945736434108527
        ]
    ],
    [
        [
            0.6409883720930233,
            0.728423772609819
        ],
        [
            0.6409883720930233,
            0.7635658914728681
        ],
        [
            0.6380813953488372,
            0.851421188630491
        ]
    ],
    [
        [
            0.6194767441860465,
            0.8839793281653746
        ],
        [
            0.6191860465116279,
            0.9186046511627907
        ],
        [
            0.6133720930232559,
            0.9330749354005168
        ]
    ],
    [
        [
            0.6104651162790697,
            1.0229974160206716
        ],
        [
            0.6046511627906976,
            1.0374677002583979
        ],
        [
            0.6877906976744187,
            1.0400516795865633
        ]
    ],
    [
        [
            0.9546511627906976,
            1.0400516795865633
        ],
        [
            1.0377906976744184,
            1.0426356589147288
        ],
        [
            1.0372093023255815,
            0.8472868217054264
        ]
    ],
    [
        [
            1.0209302325581393,
            0.1320413436692507
        ],
        [
            1.0203488372093024,
            -0.06330749354005168
        ],
        [
            0.9453488372093022,
            -0.06589147286821706
        ]
    ]
]
</property>
   </filter>
  </entry>
  <entry producer="19_playlist8" in="460" out="474">
   <filter id="filter154">
    <property name="mode">alpha</property>
    <property name="alpha_operation">clear</property>
    <property name="invert">0</property>
    <property name="feather">10</property>
    <property name="feather_passes">1</property>
    <property name="mlt_service">rotoscoping</property>
    <property name="kdenlive_id">rotoscoping</property>
    <property name="tag">rotoscoping</property>
    <property name="kdenlive_ix">1</property>
    <property name="kdenlive_info"/>
    <property name="disable"/>
    <property name="spline">[
    [
        [
            0.7334302325581395,
            -0.045219638242894065
        ],
        [
            0.6584302325581395,
            -0.04780361757105943
        ],
        [
            0.6607558139534884,
            0.05555555555555567
        ]
    ],
    [
        [
            0.6517441860465116,
            0.41731266149870805
        ],
        [
            0.6540697674418605,
            0.5206718346253231
        ],
        [
            0.6502906976744186,
            0.5284237726098192
        ]
    ],
    [
        [
            0.638953488372093,
            0.5516795865633074
        ],
        [
            0.6351744186046511,
            0.5594315245478035
        ],
        [
            0.6351744186046511,
            0.5945736434108527
        ]
    ],
    [
        [
            0.6409883720930233,
            0.728423772609819
        ],
        [
            0.6409883720930233,
            0.7635658914728681
        ],
        [
            0.6380813953488372,
            0.851421188630491
        ]
    ],
    [
        [
            0.6194767441860465,
            0.8839793281653746
        ],
        [
            0.6191860465116279,
            0.9186046511627907
        ],
        [
            0.6133720930232559,
            0.9330749354005168
        ]
    ],
    [
        [
            0.6104651162790697,
            1.0229974160206716
        ],
        [
            0.6046511627906976,
            1.0374677002583979
        ],
        [
            0.6877906976744187,
            1.0400516795865633
        ]
    ],
    [
        [
            0.9546511627906976,
            1.0400516795865633
        ],
        [
            1.0377906976744184,
            1.0426356589147288
        ],
        [
            1.0372093023255815,
            0.8472868217054264
        ]
    ],
    [
        [
            1.0209302325581393,
            0.1320413436692507
        ],
        [
            1.0203488372093024,
            -0.06330749354005168
        ],
        [
            0.9453488372093022,
            -0.06589147286821706
        ]
    ]
]
</property>
   </filter>
   <filter id="frei0r.nervous">
    <property name="version">3,1</property>
    <property name="mlt_service">frei0r.nervous</property>
    <property name="kdenlive_id">frei0r.nervous</property>
    <property name="tag">frei0r.nervous</property>
    <property name="kdenlive_ix">2</property>
   </filter>
  </entry>
  <entry producer="19_playlist8" in="492" out="503">
   <filter id="filter155">
    <property name="mode">alpha</property>
    <property name="alpha_operation">clear</property>
    <property name="invert">0</property>
    <property name="feather">10</property>
    <property name="feather_passes">1</property>
    <property name="mlt_service">rotoscoping</property>
    <property name="kdenlive_id">rotoscoping</property>
    <property name="tag">rotoscoping</property>
    <property name="kdenlive_ix">1</property>
    <property name="kdenlive_info">0/-1/</property>
    <property name="disable"/>
    <property name="spline">[
    [
        [
            0.7334302325581395,
            -0.045219638242894065
        ],
        [
            0.6584302325581395,
            -0.04780361757105943
        ],
        [
            0.6607558139534884,
            0.05555555555555567
        ]
    ],
    [
        [
            0.6517441860465116,
            0.41731266149870805
        ],
        [
            0.6540697674418605,
            0.5206718346253231
        ],
        [
            0.6502906976744186,
            0.5284237726098192
        ]
    ],
    [
        [
            0.638953488372093,
            0.5516795865633074
        ],
        [
            0.6351744186046511,
            0.5594315245478035
        ],
        [
            0.6351744186046511,
            0.5945736434108527
        ]
    ],
    [
        [
            0.6409883720930233,
            0.728423772609819
        ],
        [
            0.6409883720930233,
            0.7635658914728681
        ],
        [
            0.6380813953488372,
            0.851421188630491
        ]
    ],
    [
        [
            0.6194767441860465,
            0.8839793281653746
        ],
        [
            0.6191860465116279,
            0.9186046511627907
        ],
        [
            0.6133720930232559,
            0.9330749354005168
        ]
    ],
    [
        [
            0.6104651162790697,
            1.0229974160206716
        ],
        [
            0.6046511627906976,
            1.0374677002583979
        ],
        [
            0.6877906976744187,
            1.0400516795865633
        ]
    ],
    [
        [
            0.9546511627906976,
            1.0400516795865633
        ],
        [
            1.0377906976744184,
            1.0426356589147288
        ],
        [
            1.0372093023255815,
            0.8472868217054264
        ]
    ],
    [
        [
            1.0209302325581393,
            0.1320413436692507
        ],
        [
            1.0203488372093024,
            -0.06330749354005168
        ],
        [
            0.9453488372093022,
            -0.06589147286821706
        ]
    ]
]
</property>
   </filter>
  </entry>
  <entry producer="19_playlist8" in="492" out="504">
   <filter id="filter156">
    <property name="mode">alpha</property>
    <property name="alpha_operation">clear</property>
    <property name="invert">0</property>
    <property name="feather">10</property>
    <property name="feather_passes">1</property>
    <property name="mlt_service">rotoscoping</property>
    <property name="kdenlive_id">rotoscoping</property>
    <property name="tag">rotoscoping</property>
    <property name="kdenlive_ix">1</property>
    <property name="kdenlive_info"/>
    <property name="disable"/>
    <property name="spline">[
    [
        [
            0.7334302325581395,
            -0.045219638242894065
        ],
        [
            0.6584302325581395,
            -0.04780361757105943
        ],
        [
            0.6607558139534884,
            0.05555555555555567
        ]
    ],
    [
        [
            0.6517441860465116,
            0.41731266149870805
        ],
        [
            0.6540697674418605,
            0.5206718346253231
        ],
        [
            0.6502906976744186,
            0.5284237726098192
        ]
    ],
    [
        [
            0.638953488372093,
            0.5516795865633074
        ],
        [
            0.6351744186046511,
            0.5594315245478035
        ],
        [
            0.6351744186046511,
            0.5945736434108527
        ]
    ],
    [
        [
            0.6409883720930233,
            0.728423772609819
        ],
        [
            0.6409883720930233,
            0.7635658914728681
        ],
        [
            0.6380813953488372,
            0.851421188630491
        ]
    ],
    [
        [
            0.6194767441860465,
            0.8839793281653746
        ],
        [
            0.6191860465116279,
            0.9186046511627907
        ],
        [
            0.6133720930232559,
            0.9330749354005168
        ]
    ],
    [
        [
            0.6104651162790697,
            1.0229974160206716
        ],
        [
            0.6046511627906976,
            1.0374677002583979
        ],
        [
            0.6877906976744187,
            1.0400516795865633
        ]
    ],
    [
        [
            0.9546511627906976,
            1.0400516795865633
        ],
        [
            1.0377906976744184,
            1.0426356589147288
        ],
        [
            1.0372093023255815,
            0.8472868217054264
        ]
    ],
    [
        [
            1.0209302325581393,
            0.1320413436692507
        ],
        [
            1.0203488372093024,
            -0.06330749354005168
        ],
        [
            0.9453488372093022,
            -0.06589147286821706
        ]
    ]
]
</property>
   </filter>
  </entry>
  <entry producer="19_playlist8" in="492" out="500">
   <filter id="filter157">
    <property name="mode">alpha</property>
    <property name="alpha_operation">clear</property>
    <property name="invert">0</property>
    <property name="feather">10</property>
    <property name="feather_passes">1</property>
    <property name="mlt_service">rotoscoping</property>
    <property name="kdenlive_id">rotoscoping</property>
    <property name="tag">rotoscoping</property>
    <property name="kdenlive_ix">1</property>
    <property name="kdenlive_info"/>
    <property name="disable"/>
    <property name="spline">[
    [
        [
            0.7334302325581395,
            -0.045219638242894065
        ],
        [
            0.6584302325581395,
            -0.04780361757105943
        ],
        [
            0.6607558139534884,
            0.05555555555555567
        ]
    ],
    [
        [
            0.6707142857142858,
            0.43142857142857144
        ],
        [
            0.6421428571428572,
            0.5266666666666667
        ],
        [
            0.6383637873754153,
            0.5344186046511629
        ]
    ],
    [
        [
            0.6223504983388704,
            0.5468512366186785
        ],
        [
            0.6185714285714285,
            0.5546031746031747
        ],
        [
            0.6112541528239203,
            0.6335843484680694
        ]
    ],
    [
        [
            0.6357142857142858,
            0.7734293097083795
        ],
        [
            0.6357142857142858,
            0.8085714285714286
        ],
        [
            0.6328073089700996,
            0.8964267257290515
        ]
    ],
    [
        [
            0.6194767441860465,
            0.8839793281653746
        ],
        [
            0.6191860465116279,
            0.9186046511627907
        ],
        [
            0.6133720930232559,
            0.9330749354005168
        ]
    ],
    [
        [
            0.6104651162790697,
            1.0229974160206716
        ],
        [
            0.6046511627906976,
            1.0374677002583979
        ],
        [
            0.6877906976744187,
            1.0400516795865633
        ]
    ],
    [
        [
            0.9546511627906976,
            1.0400516795865633
        ],
        [
            1.0377906976744184,
            1.0426356589147288
        ],
        [
            1.0372093023255815,
            0.8472868217054264
        ]
    ],
    [
        [
            1.0209302325581393,
            0.1320413436692507
        ],
        [
            1.0203488372093024,
            -0.06330749354005168
        ],
        [
            0.9453488372093022,
            -0.06589147286821706
        ]
    ]
]
</property>
   </filter>
  </entry>
  <entry producer="slowmotion:19:0,5:1:0" in="1013" out="1036">
   <filter id="filter158">
    <property name="mode">alpha</property>
    <property name="alpha_operation">clear</property>
    <property name="invert">0</property>
    <property name="feather">10</property>
    <property name="feather_passes">1</property>
    <property name="mlt_service">rotoscoping</property>
    <property name="kdenlive_id">rotoscoping</property>
    <property name="tag">rotoscoping</property>
    <property name="kdenlive_ix">2</property>
    <property name="kdenlive_info"/>
    <property name="disable">0</property>
    <property name="spline">[
    [
        [
            0.7334302325581395,
            -0.045219638242894065
        ],
        [
            0.6584302325581395,
            -0.04780361757105943
        ],
        [
            0.6607558139534884,
            0.05555555555555567
        ]
    ],
    [
        [
            0.6628571428571429,
            0.5038095238095237
        ],
        [
            0.617857142857143,
            0.5495238095238095
        ],
        [
            0.6140780730897011,
            0.5572757475083057
        ]
    ],
    [
        [
            0.620921926910299,
            0.6344702842377261
        ],
        [
            0.6171428571428572,
            0.6422222222222222
        ],
        [
            0.6171428571428572,
            0.6773643410852713
        ]
    ],
    [
        [
            0.6409883720930233,
            0.728423772609819
        ],
        [
            0.6409883720930233,
            0.7635658914728681
        ],
        [
            0.6380813953488372,
            0.851421188630491
        ]
    ],
    [
        [
            0.6194767441860465,
            0.8839793281653746
        ],
        [
            0.6191860465116279,
            0.9186046511627907
        ],
        [
            0.6133720930232559,
            0.9330749354005168
        ]
    ],
    [
        [
            0.6104651162790697,
            1.0229974160206716
        ],
        [
            0.6046511627906976,
            1.0374677002583979
        ],
        [
            0.6877906976744187,
            1.0400516795865633
        ]
    ],
    [
        [
            0.9546511627906976,
            1.0400516795865633
        ],
        [
            1.0377906976744184,
            1.0426356589147288
        ],
        [
            1.0372093023255815,
            0.8472868217054264
        ]
    ],
    [
        [
            1.0209302325581393,
            0.1320413436692507
        ],
        [
            1.0203488372093024,
            -0.06330749354005168
        ],
        [
            0.9453488372093022,
            -0.06589147286821706
        ]
    ]
]
</property>
   </filter>
  </entry>
  <entry producer="slowmotion:19:0,5:1:0" in="1037" out="1039">
   <filter id="filter159">
    <property name="mode">alpha</property>
    <property name="alpha_operation">clear</property>
    <property name="invert">0</property>
    <property name="feather">10</property>
    <property name="feather_passes">1</property>
    <property name="mlt_service">rotoscoping</property>
    <property name="kdenlive_id">rotoscoping</property>
    <property name="tag">rotoscoping</property>
    <property name="kdenlive_info"/>
    <property name="kdenlive_ix">2</property>
    <property name="disable">0</property>
    <property name="spline">[
    [
        [
            0.7334302325581395,
            -0.045219638242894065
        ],
        [
            0.6584302325581395,
            -0.04780361757105943
        ],
        [
            0.6607558139534884,
            0.05555555555555567
        ]
    ],
    [
        [
            0.6628571428571429,
            0.5038095238095237
        ],
        [
            0.617857142857143,
            0.5495238095238095
        ],
        [
            0.6140780730897011,
            0.5572757475083057
        ]
    ],
    [
        [
            0.620921926910299,
            0.6344702842377261
        ],
        [
            0.6171428571428572,
            0.6422222222222222
        ],
        [
            0.6171428571428572,
            0.6773643410852713
        ]
    ],
    [
        [
            0.6409883720930233,
            0.728423772609819
        ],
        [
            0.6409883720930233,
            0.7635658914728681
        ],
        [
            0.6380813953488372,
            0.851421188630491
        ]
    ],
    [
        [
            0.6194767441860465,
            0.8839793281653746
        ],
        [
            0.6191860465116279,
            0.9186046511627907
        ],
        [
            0.6133720930232559,
            0.9330749354005168
        ]
    ],
    [
        [
            0.6104651162790697,
            1.0229974160206716
        ],
        [
            0.6046511627906976,
            1.0374677002583979
        ],
        [
            0.6877906976744187,
            1.0400516795865633
        ]
    ],
    [
        [
            0.9546511627906976,
            1.0400516795865633
        ],
        [
            1.0377906976744184,
            1.0426356589147288
        ],
        [
            1.0372093023255815,
            0.8472868217054264
        ]
    ],
    [
        [
            1.0209302325581393,
            0.1320413436692507
        ],
        [
            1.0203488372093024,
            -0.06330749354005168
        ],
        [
            0.9453488372093022,
            -0.06589147286821706
        ]
    ]
]
</property>
   </filter>
  </entry>
  <entry producer="19_playlist8" in="640" out="684">
   <filter id="filter160">
    <property name="mode">alpha</property>
    <property name="alpha_operation">clear</property>
    <property name="invert">0</property>
    <property name="feather">14</property>
    <property name="feather_passes">1</property>
    <property name="mlt_service">rotoscoping</property>
    <property name="kdenlive_id">rotoscoping</property>
    <property name="tag">rotoscoping</property>
    <property name="kdenlive_ix">1</property>
    <property name="kdenlive_info"/>
    <property name="disable">0</property>
    <property name="spline">[
    [
        [
            0.7334302325581395,
            -0.045219638242894065
        ],
        [
            0.6584302325581395,
            -0.04780361757105943
        ],
        [
            0.6607558139534884,
            0.05555555555555567
        ]
    ],
    [
        [
            0.6343023255813952,
            0.39664082687338503
        ],
        [
            0.6366279069767441,
            0.5
        ],
        [
            0.6328488372093023,
            0.5077519379844964
        ]
    ],
    [
        [
            0.6258720930232557,
            0.5413436692506459
        ],
        [
            0.622093023255814,
            0.5490956072351422
        ],
        [
            0.622093023255814,
            0.5842377260981914
        ]
    ],
    [
        [
            0.6090116279069767,
            0.5630490956072353
        ],
        [
            0.6090116279069767,
            0.5981912144702842
        ],
        [
            0.6061046511627907,
            0.6860465116279071
        ]
    ],
    [
        [
            0.6194767441860465,
            0.8839793281653746
        ],
        [
            0.6191860465116279,
            0.9186046511627907
        ],
        [
            0.6133720930232559,
            0.9330749354005168
        ]
    ],
    [
        [
            0.6104651162790697,
            1.0229974160206716
        ],
        [
            0.6046511627906976,
            1.0374677002583979
        ],
        [
            0.6877906976744187,
            1.0400516795865633
        ]
    ],
    [
        [
            0.9546511627906976,
            1.0400516795865633
        ],
        [
            1.0377906976744184,
            1.0426356589147288
        ],
        [
            1.0372093023255815,
            0.8472868217054264
        ]
    ],
    [
        [
            1.0209302325581393,
            0.1320413436692507
        ],
        [
            1.0203488372093024,
            -0.06330749354005168
        ],
        [
            0.9453488372093022,
            -0.06589147286821706
        ]
    ]
]
</property>
   </filter>
  </entry>
  <entry producer="slowmotion:19:0,5:1:0" in="1370" out="1396">
   <filter id="filter161">
    <property name="mode">alpha</property>
    <property name="alpha_operation">clear</property>
    <property name="invert">0</property>
    <property name="feather">14</property>
    <property name="feather_passes">1</property>
    <property name="mlt_service">rotoscoping</property>
    <property name="kdenlive_id">rotoscoping</property>
    <property name="tag">rotoscoping</property>
    <property name="kdenlive_ix">2</property>
    <property name="kdenlive_info"/>
    <property name="disable">1</property>
    <property name="spline">[
    [
        [
            0.7334302325581395,
            -0.045219638242894065
        ],
        [
            0.6584302325581395,
            -0.04780361757105943
        ],
        [
            0.6607558139534884,
            0.05555555555555567
        ]
    ],
    [
        [
            0.6343023255813952,
            0.39664082687338503
        ],
        [
            0.6366279069767441,
            0.5
        ],
        [
            0.6328488372093023,
            0.5077519379844964
        ]
    ],
    [
        [
            0.6258720930232557,
            0.5413436692506459
        ],
        [
            0.622093023255814,
            0.5490956072351422
        ],
        [
            0.622093023255814,
            0.5842377260981914
        ]
    ],
    [
        [
            0.6090116279069767,
            0.5630490956072353
        ],
        [
            0.6090116279069767,
            0.5981912144702842
        ],
        [
            0.6061046511627907,
            0.6860465116279071
        ]
    ],
    [
        [
            0.6194767441860465,
            0.8839793281653746
        ],
        [
            0.6191860465116279,
            0.9186046511627907
        ],
        [
            0.6133720930232559,
            0.9330749354005168
        ]
    ],
    [
        [
            0.6104651162790697,
            1.0229974160206716
        ],
        [
            0.6046511627906976,
            1.0374677002583979
        ],
        [
            0.6877906976744187,
            1.0400516795865633
        ]
    ],
    [
        [
            0.9546511627906976,
            1.0400516795865633
        ],
        [
            1.0377906976744184,
            1.0426356589147288
        ],
        [
            1.0372093023255815,
            0.8472868217054264
        ]
    ],
    [
        [
            1.0209302325581393,
            0.1320413436692507
        ],
        [
            1.0203488372093024,
            -0.06330749354005168
        ],
        [
            0.9453488372093022,
            -0.06589147286821706
        ]
    ]
]
</property>
   </filter>
   <filter id="filter162">
    <property name="mode">alpha</property>
    <property name="alpha_operation">clear</property>
    <property name="invert">0</property>
    <property name="feather">14</property>
    <property name="feather_passes">1</property>
    <property name="mlt_service">rotoscoping</property>
    <property name="kdenlive_id">rotoscoping</property>
    <property name="tag">rotoscoping</property>
    <property name="kdenlive_ix">3</property>
    <property name="kdenlive_info"/>
    <property name="disable">0</property>
    <property name="spline">[
    [
        [
            0.7334302325581395,
            -0.045219638242894065
        ],
        [
            0.6584302325581395,
            -0.04780361757105943
        ],
        [
            0.6607558139534884,
            0.05555555555555567
        ]
    ],
    [
        [
            0.6343023255813952,
            0.39664082687338503
        ],
        [
            0.6366279069767441,
            0.5
        ],
        [
            0.6328488372093023,
            0.5077519379844964
        ]
    ],
    [
        [
            0.6258720930232557,
            0.5413436692506459
        ],
        [
            0.622093023255814,
            0.5490956072351422
        ],
        [
            0.622093023255814,
            0.5842377260981914
        ]
    ],
    [
        [
            0.6090116279069767,
            0.5630490956072353
        ],
        [
            0.6090116279069767,
            0.5981912144702842
        ],
        [
            0.6061046511627907,
            0.6860465116279071
        ]
    ],
    [
        [
            0.6194767441860465,
            0.8839793281653746
        ],
        [
            0.6191860465116279,
            0.9186046511627907
        ],
        [
            0.6133720930232559,
            0.9330749354005168
        ]
    ],
    [
        [
            0.6104651162790697,
            1.0229974160206716
        ],
        [
            0.6046511627906976,
            1.0374677002583979
        ],
        [
            0.6877906976744187,
            1.0400516795865633
        ]
    ],
    [
        [
            0.9546511627906976,
            1.0400516795865633
        ],
        [
            1.0377906976744184,
            1.0426356589147288
        ],
        [
            1.0372093023255815,
            0.8472868217054264
        ]
    ],
    [
        [
            1.0209302325581393,
            0.1320413436692507
        ],
        [
            1.0203488372093024,
            -0.06330749354005168
        ],
        [
            0.9453488372093022,
            -0.06589147286821706
        ]
    ]
]
</property>
   </filter>
  </entry>
  <blank length="58"/>
  <entry producer="18_playlist8" in="836" out="864"/>
  <blank length="18"/>
  <entry producer="18_playlist8" in="883" out="949"/>
  <entry producer="producer9" in="737" out="773">
   <filter id="filter165">
    <property name="mirror">flip</property>
    <property name="mlt_service">mirror</property>
    <property name="kdenlive_id">mirror</property>
    <property name="tag">mirror</property>
    <property name="kdenlive_ix">1</property>
    <property name="kdenlive_info"/>
    <property name="disable"/>
    <property name="reverse">0</property>
   </filter>
   <filter id="filter166">
    <property name="mode">alpha</property>
    <property name="alpha_operation">clear</property>
    <property name="invert">0</property>
    <property name="feather">108</property>
    <property name="feather_passes">12</property>
    <property name="mlt_service">rotoscoping</property>
    <property name="kdenlive_id">rotoscoping</property>
    <property name="tag">rotoscoping</property>
    <property name="kdenlive_ix">2</property>
    <property name="kdenlive_info"/>
    <property name="disable"/>
    <property name="spline">[
    [
        [
            -0.006686046511627906,
            0.6074935400516795
        ],
        [
            -0.0029069767441860465,
            0.5155038759689922
        ],
        [
            0.0005813953488372094,
            0.51343669250646
        ]
    ],
    [
        [
            -0.002034883720930233,
            0.4891472868217054
        ],
        [
            0.0014534883720930232,
            0.4870801033591731
        ],
        [
            0.0011627906976744182,
            0.479328165374677
        ]
    ],
    [
        [
            0.013372093023255814,
            0.47416020671834624
        ],
        [
            0.013081395348837208,
            0.46640826873385016
        ],
        [
            0.012790697674418603,
            0.45348837209302323
        ]
    ],
    [
        [
            0.011918604651162791,
            0.41472868217054265
        ],
        [
            0.011627906976744186,
            0.4018087855297158
        ],
        [
            0.02005813953488372,
            0.39870801033591735
        ]
    ],
    [
        [
            0.04534883720930232,
            0.389405684754522
        ],
        [
            0.05377906976744186,
            0.3863049095607235
        ],
        [
            0.05988372093023256,
            0.375968992248062
        ]
    ],
    [
        [
            0.07819767441860465,
            0.3449612403100776
        ],
        [
            0.08430232558139535,
            0.33462532299741604
        ],
        [
            0.09331395348837208,
            0.3315245478036176
        ]
    ],
    [
        [
            0.0912900312182118,
            0.30199469173477383
        ],
        [
            0.10030165912518854,
            0.29889391654097536
        ],
        [
            0.09826677540425831,
            0.29889391654097536
        ]
    ],
    [
        [
            0.12703488372093022,
            0.28036175710594313
        ],
        [
            0.125,
            0.28036175710594313
        ],
        [
            0.12703488372093022,
            0.2633074935400517
        ]
    ],
    [
        [
            0.12732558139534883,
            0.2509043927648579
        ],
        [
            0.12936046511627908,
            0.2338501291989664
        ],
        [
            0.13866279069767443,
            0.2317829457364341
        ]
    ],
    [
        [
            0.1665697674418605,
            0.2255813953488372
        ],
        [
            0.17587209302325582,
            0.2235142118863049
        ],
        [
            0.18604651162790697,
            0.23901808785529713
        ]
    ],
    [
        [
            0.21656976744186046,
            0.2855297157622739
        ],
        [
            0.22674418604651161,
            0.30103359173126615
        ],
        [
            0.22703488372093023,
            0.31498708010335913
        ]
    ],
    [
        [
            0.22790697674418603,
            0.35684754521963824
        ],
        [
            0.22819767441860464,
            0.3708010335917313
        ],
        [
            0.23691860465116277,
            0.3806201550387597
        ]
    ],
    [
        [
            0.26308139534883723,
            0.410077519379845
        ],
        [
            0.2718023255813954,
            0.4198966408268734
        ],
        [
            0.2741279069767442,
            0.4281653746770026
        ]
    ],
    [
        [
            0.28036491719355056,
            0.4616277854349131
        ],
        [
            0.2826904985888994,
            0.46989651928504234
        ],
        [
            0.28210910324006216,
            0.4838500076571356
        ]
    ],
    [
        [
            0.2682201535802577,
            0.506115498771212
        ],
        [
            0.2676387582314205,
            0.5200689871433052
        ],
        [
            0.2711271303244437,
            0.5267873333965349
        ]
    ],
    [
        [
            0.28578726290227313,
            0.5585058619625117
        ],
        [
            0.28927563499529635,
            0.5652242082157416
        ],
        [
            0.2947988908092498,
            0.5683249834095402
        ]
    ],
    [
        [
            0.31667806121332787,
            0.5721579265935958
        ],
        [
            0.32220131702728133,
            0.5752587017873942
        ],
        [
            0.3265617821435604,
            0.5819770480406243
        ]
    ],
    [
        [
            0.34011627906976744,
            0.5992248062015504
        ],
        [
            0.3444767441860465,
            0.6059431524547804
        ],
        [
            0.34767441860465115,
            0.6312661498708011
        ]
    ],
    [
        [
            0.3587209302325582,
            0.6581395348837209
        ],
        [
            0.3619186046511628,
            0.6834625322997415
        ],
        [
            0.361046511627907,
            0.6974160206718346
        ]
    ],
    [
        [
            0.3656976744186046,
            0.7651162790697674
        ],
        [
            0.3648255813953488,
            0.7790697674418605
        ],
        [
            0.3633720930232558,
            0.7852713178294574
        ]
    ],
    [
        [
            0.36337209302325585,
            0.8426356589147287
        ],
        [
            0.3619186046511628,
            0.8488372093023255
        ],
        [
            0.36453488372093024,
            0.8643410852713177
        ]
    ],
    [
        [
            0.37674418604651166,
            0.8669250645994834
        ],
        [
            0.3793604651162791,
            0.8824289405684754
        ],
        [
            0.3755813953488372,
            0.896382428940569
        ]
    ],
    [
        [
            0.34389534883720935,
            0.9950904392764859
        ],
        [
            0.34011627906976744,
            1.0090439276485788
        ],
        [
            0.2665697674418605,
            1.0064599483204135
        ]
    ],
    [
        [
            0.06627906976744187,
            1.0348837209302326
        ],
        [
            -0.007267441860465116,
            1.0322997416020672
        ],
        [
            -0.0034883720930232566,
            0.9403100775193798
        ]
    ]
]
</property>
   </filter>
  </entry>
  <entry producer="18_playlist8" in="987" out="1021"/>
  <entry producer="slowmotion:19:0,5:1:0" in="1720" out="1776">
   <filter id="filter167">
    <property name="mode">alpha</property>
    <property name="alpha_operation">clear</property>
    <property name="invert">0</property>
    <property name="feather">10</property>
    <property name="feather_passes">1</property>
    <property name="mlt_service">rotoscoping</property>
    <property name="kdenlive_id">rotoscoping</property>
    <property name="tag">rotoscoping</property>
    <property name="kdenlive_ix">2</property>
    <property name="kdenlive_info"/>
    <property name="disable">0</property>
    <property name="spline">[
    [
        [
            0.7334302325581395,
            -0.045219638242894065
        ],
        [
            0.6584302325581395,
            -0.04780361757105943
        ],
        [
            0.6607558139534884,
            0.05555555555555567
        ]
    ],
    [
        [
            0.6430232558139534,
            0.2777777777777778
        ],
        [
            0.6453488372093024,
            0.38113695090439276
        ],
        [
            0.6415697674418605,
            0.38888888888888884
        ]
    ],
    [
        [
            0.6678571428571429,
            0.48984126984126986
        ],
        [
            0.6242857142857142,
            0.5457142857142857
        ],
        [
            0.590564784053156,
            0.555031376891842
        ]
    ],
    [
        [
            0.6207142857142858,
            0.7340642303433002
        ],
        [
            0.6207142857142858,
            0.7692063492063492
        ],
        [
            0.6400000000000001,
            0.8796825396825396
        ]
    ],
    [
        [
            0.6194767441860465,
            0.8839793281653746
        ],
        [
            0.6191860465116279,
            0.9186046511627907
        ],
        [
            0.6133720930232559,
            0.9330749354005168
        ]
    ],
    [
        [
            0.6104651162790697,
            1.0229974160206716
        ],
        [
            0.6046511627906976,
            1.0374677002583979
        ],
        [
            0.6877906976744187,
            1.0400516795865633
        ]
    ],
    [
        [
            0.9546511627906976,
            1.0400516795865633
        ],
        [
            1.0377906976744184,
            1.0426356589147288
        ],
        [
            1.0372093023255815,
            0.8472868217054264
        ]
    ],
    [
        [
            1.0209302325581393,
            0.1320413436692507
        ],
        [
            1.0203488372093024,
            -0.06330749354005168
        ],
        [
            0.9453488372093022,
            -0.06589147286821706
        ]
    ]
]
</property>
   </filter>
  </entry>
  <entry producer="18_playlist8" in="1079" out="1154"/>
  <entry producer="18_playlist8" in="1155" out="1169">
   <filter id="filter168" in="1155" out="1169">
    <property name="background">colour:0x00000000</property>
    <property name="mlt_service">affine</property>
    <property name="kdenlive_id">pan_zoom</property>
    <property name="tag">affine</property>
    <property name="kdenlive_ix">1</property>
    <property name="transition.geometry">-459/-97:2688x1512:100</property>
    <property name="transition.distort">0</property>
    <property name="kdenlive:sync_in_out">1</property>
    <property name="kdenlive_info"/>
   </filter>
  </entry>
  <blank length="1053"/>
  <entry producer="slowmotion:14:0,9:1:0" in="2778" out="2807">
   <filter id="rumble">
    <property name="delta">15</property>
    <property name="every">100</property>
    <property name="brightnessdelta_up">0</property>
    <property name="brightnessdelta_down">0</property>
    <property name="brightnessdelta_every">100</property>
    <property name="unevendevelop_up">0</property>
    <property name="unevendevelop_down">0</property>
    <property name="unevendevelop_duration">0</property>
    <property name="mlt_service">oldfilm</property>
    <property name="kdenlive_id">rumble</property>
    <property name="tag">oldfilm</property>
    <property name="kdenlive_info">0/-1/</property>
    <property name="kdenlive_ix">2</property>
    <property name="disable">0</property>
   </filter>
   <filter id="filter169" in="2778" out="2810">
    <property name="background">colour:0x00000000</property>
    <property name="mlt_service">affine</property>
    <property name="kdenlive_id">pan_zoom</property>
    <property name="tag">affine</property>
    <property name="kdenlive_ix">3</property>
    <property name="transition.geometry">-96/-54:2112x1188:100</property>
    <property name="transition.distort">0</property>
    <property name="kdenlive:sync_in_out">1</property>
    <property name="kdenlive_info"/>
    <property name="disable"/>
   </filter>
  </entry>
  <blank length="163"/>
  <entry producer="14_playlist8" in="2681" out="2805"/>
  <entry producer="14_playlist8" in="2806" out="2817"/>
  <entry producer="14_playlist8" in="2818" out="2825"/>
  <blank length="116"/>
  <entry producer="15_playlist8" in="823" out="918"/>
  <blank length="35"/>
  <entry producer="15_playlist8" in="905" out="946"/>
  <entry producer="15_playlist8" in="947" out="1045">
   <filter id="filter170" in="947" out="1045">
    <property name="background">colour:0x00000000</property>
    <property name="mlt_service">affine</property>
    <property name="kdenlive_id">pan_zoom</property>
    <property name="tag">affine</property>
    <property name="kdenlive_ix">1</property>
    <property name="transition.geometry">-192/-108:2304x1296:100</property>
    <property name="transition.distort">0</property>
    <property name="kdenlive:sync_in_out">1</property>
    <property name="kdenlive_info"/>
    <property name="disable"/>
   </filter>
  </entry>
  <blank length="34"/>
  <entry producer="15_playlist8" in="482" out="719"/>
  <blank length="24"/>
  <entry producer="15_playlist8" in="644" out="712"/>
  <entry producer="15_playlist8" in="713" out="756"/>
  <blank length="95"/>
  <entry producer="14_playlist8" in="1763" out="1883">
   <filter id="filter171" in="1763" out="1893">
    <property name="background">colour:0x00000000</property>
    <property name="mlt_service">affine</property>
    <property name="kdenlive_id">pan_zoom</property>
    <property name="tag">affine</property>
    <property name="kdenlive_ix">1</property>
    <property name="transition.geometry">0/-216:2304x1296:100</property>
    <property name="transition.distort">0</property>
    <property name="kdenlive:sync_in_out">1</property>
    <property name="kdenlive_info"/>
    <property name="disable"/>
   </filter>
  </entry>
  <blank length="69"/>
  <entry producer="14_playlist8" in="2076" out="2149"/>
 </playlist>
 <producer title="Anonymous Submission" id="producer5" in="0" out="2194">
  <property name="length">00:00:43:45</property>
  <property name="eof">pause</property>
  <property name="resource">/media/bordun/plagiat/2018-12-10_Plagiat_RespecteLaPuissancePapale/Carte_4/CAM1_2018-12-10_1932_C0007.mov</property>
  <property name="audio_index">-1</property>
  <property name="video_index">-1</property>
  <property name="mute_on_pause">1</property>
  <property name="mlt_service">avformat-novalidate</property>
  <property name="seekable">1</property>
  <property name="aspect_ratio">1</property>
  <property name="kdenlive:folderid">13</property>
  <property name="kdenlive:file_size">2026532265</property>
  <property name="kdenlive:file_hash">817b2a44d7814a42acea89e05d1f8fde</property>
  <property name="global_feed">1</property>
  <property name="kdenlive:zone_in">1490</property>
  <property name="kdenlive:zone_out">1492</property>
  <property name="xml">was here</property>
  <property name="kdenlive:binid">24</property>
  <property name="kdenlive:clipstate">0</property>
  <filter id="filter144">
   <property name="version">0,3</property>
   <property name="mlt_service">frei0r.sopsat</property>
   <property name="kdenlive_id">frei0r.sopsat</property>
   <property name="tag">frei0r.sopsat</property>
   <property name="kdenlive_ix">1</property>
   <property name="kdenlive_info">1/-1/</property>
   <property name="rSlope">0=0,1055</property>
   <property name="gSlope">0=0,05</property>
   <property name="bSlope">0=0,088</property>
   <property name="aSlope">0=0,05</property>
   <property name="rOffset">0=0,455078</property>
   <property name="gOffset">0=0,236816</property>
   <property name="bOffset">0=0,5</property>
   <property name="aOffset">0=0,5</property>
   <property name="rPower">0=0,025</property>
   <property name="gPower">0=0,0525</property>
   <property name="bPower">0=0,0655</property>
   <property name="aPower">0=0,05</property>
   <property name="saturation">0=0,1</property>
  </filter>
  <filter id="filter163">
   <property name="gamma">0=1,25</property>
   <property name="mlt_service">gamma</property>
   <property name="kdenlive_id">gamma</property>
   <property name="tag">gamma</property>
   <property name="kdenlive_ix">2</property>
   <property name="kdenlive_info">1/-1/</property>
  </filter>
 </producer>
 <producer title="Anonymous Submission" id="producer11" in="0" out="8532">
  <property name="length">00:02:50:33</property>
  <property name="eof">pause</property>
  <property name="resource">/media/bordun/plagiat/2018-12-10_Plagiat_RespecteLaPuissancePapale/Carte_2/CAM1_2018-12-10_1642_C0002.mov</property>
  <property name="audio_index">-1</property>
  <property name="video_index">-1</property>
  <property name="mute_on_pause">1</property>
  <property name="mlt_service">avformat-novalidate</property>
  <property name="seekable">1</property>
  <property name="aspect_ratio">1</property>
  <property name="kdenlive:folderid">10</property>
  <property name="kdenlive:file_size">7878058913</property>
  <property name="kdenlive:file_hash">804eaf7e1fe7b8bd61bac5713c20d510</property>
  <property name="global_feed">1</property>
  <property name="xml">was here</property>
  <property name="kdenlive:binid">7</property>
  <property name="kdenlive:clipstate">0</property>
 </producer>
 <producer title="Anonymous Submission" id="producer12" in="0" out="2823">
  <property name="length">00:00:56:24</property>
  <property name="eof">pause</property>
  <property name="resource">/media/bordun/plagiat/2018-12-10_Plagiat_RespecteLaPuissancePapale/Carte_3/CAM1_2018-12-10_1856_C0008.mov</property>
  <property name="audio_index">-1</property>
  <property name="video_index">-1</property>
  <property name="mute_on_pause">1</property>
  <property name="mlt_service">avformat-novalidate</property>
  <property name="seekable">1</property>
  <property name="aspect_ratio">1</property>
  <property name="kdenlive:folderid">13</property>
  <property name="kdenlive:file_size">2607255569</property>
  <property name="kdenlive:file_hash">4d6c52ada6c928dfc33b28648fd401f1</property>
  <property name="global_feed">1</property>
  <property name="kdenlive:zone_in">261</property>
  <property name="kdenlive:zone_out">1043</property>
  <property name="xml">was here</property>
  <property name="kdenlive:binid">19</property>
  <filter id="filter172" out="2823">
   <property name="background">colour:0x00000000</property>
   <property name="mlt_service">affine</property>
   <property name="kdenlive_id">pan_zoom</property>
   <property name="tag">affine</property>
   <property name="kdenlive_ix">1</property>
   <property name="kdenlive:sync_in_out">1</property>
   <property name="kdenlive_info"/>
   <property name="transition.geometry">-768/-333:2688x1512:100</property>
   <property name="transition.distort">0</property>
   <property name="disable">1</property>
  </filter>
 </producer>
 <producer title="Anonymous Submission" id="7_playlist10" in="0" out="8532">
  <property name="length">00:02:50:33</property>
  <property name="eof">pause</property>
  <property name="resource">/media/bordun/plagiat/2018-12-10_Plagiat_RespecteLaPuissancePapale/Carte_2/CAM1_2018-12-10_1642_C0002.mov</property>
  <property name="audio_index">2</property>
  <property name="video_index">1</property>
  <property name="mute_on_pause">1</property>
  <property name="mlt_service">avformat-novalidate</property>
  <property name="seekable">1</property>
  <property name="aspect_ratio">1</property>
  <property name="kdenlive:folderid">10</property>
  <property name="kdenlive:file_size">7878058913</property>
  <property name="kdenlive:file_hash">804eaf7e1fe7b8bd61bac5713c20d510</property>
  <property name="global_feed">1</property>
  <property name="xml">was here</property>
  <property name="meta.media.nb_streams">3</property>
  <property name="meta.media.1.stream.type">video</property>
  <property name="meta.media.1.stream.frame_rate">50</property>
  <property name="meta.media.1.stream.sample_aspect_ratio">1</property>
  <property name="meta.media.1.codec.width">1920</property>
  <property name="meta.media.1.codec.height">1080</property>
  <property name="meta.media.1.codec.rotate">0</property>
  <property name="meta.media.1.codec.frame_rate">5000</property>
  <property name="meta.media.1.codec.pix_fmt">yuv422p10le</property>
  <property name="meta.media.1.codec.sample_aspect_ratio">0</property>
  <property name="meta.media.1.codec.colorspace">709</property>
  <property name="meta.media.1.codec.name">prores</property>
  <property name="meta.media.1.codec.long_name">ProRes</property>
  <property name="meta.media.1.codec.bit_rate">366955794</property>
  <property name="meta.attr.1.stream.creation_time.markup">2018-12-10T16:42:49.000000Z</property>
  <property name="meta.attr.1.stream.language.markup">eng</property>
  <property name="meta.attr.1.stream.handler_name.markup">Apple Alias Data Handler</property>
  <property name="meta.attr.1.stream.encoder.markup">Apple ProRes 422 HQ</property>
  <property name="meta.attr.1.stream.timecode.markup">16:42:49:18</property>
  <property name="meta.media.2.stream.type">audio</property>
  <property name="meta.media.2.codec.sample_fmt">s32</property>
  <property name="meta.media.2.codec.sample_rate">48000</property>
  <property name="meta.media.2.codec.channels">2</property>
  <property name="meta.media.2.codec.name">pcm_s24le</property>
  <property name="meta.media.2.codec.long_name">PCM signed 24-bit little-endian</property>
  <property name="meta.media.2.codec.bit_rate">2304000</property>
  <property name="meta.attr.2.stream.creation_time.markup">2018-12-10T16:42:49.000000Z</property>
  <property name="meta.attr.2.stream.language.markup">eng</property>
  <property name="meta.attr.2.stream.handler_name.markup">Apple Alias Data Handler</property>
  <property name="meta.attr.2.stream.timecode.markup">16:42:49:18</property>
  <property name="meta.attr.com.apple.proapps.manufacturer.markup">Blackmagic Design</property>
  <property name="meta.attr.com.apple.proapps.cameraName.markup">CAM1</property>
  <property name="meta.attr.com.apple.proapps.isGood.markup">0</property>
  <property name="meta.attr.com.apple.proapps.customgamma.markup">com.blackmagic-design.cinemacamera.filmlog</property>
  <property name="meta.attr.com.blackmagic-design.cinemacamera.uuid.markup">18E5E00548F94923B646613A73C01B56</property>
  <property name="meta.attr.creation_time.markup">2018-12-10T16:42:49.000000Z</property>
  <property name="meta.attr.timecode.markup">16:42:49:18</property>
  <property name="meta.media.sample_aspect_num">1</property>
  <property name="meta.media.sample_aspect_den">1</property>
  <property name="meta.media.frame_rate_num">50</property>
  <property name="meta.media.frame_rate_den">1</property>
  <property name="meta.media.colorspace">709</property>
  <property name="meta.media.color_trc">1</property>
  <property name="meta.media.width">1920</property>
  <property name="meta.media.height">1080</property>
  <property name="meta.media.top_field_first">0</property>
  <property name="meta.media.progressive">1</property>
  <property name="meta.media.1.codec.color_trc">1</property>
  <filter id="filter173">
   <property name="version">0,1</property>
   <property name="mlt_service">frei0r.colgate</property>
   <property name="kdenlive_id">frei0r.colgate</property>
   <property name="tag">frei0r.colgate</property>
   <property name="kdenlive_ix">1</property>
   <property name="kdenlive_info"/>
   <property name="Neutral Color">0x7f7f7fff</property>
   <property name="Color Temperature">0=0,5</property>
  </filter>
  <filter id="filter174">
   <property name="version">0,3</property>
   <property name="mlt_service">frei0r.levels</property>
   <property name="kdenlive_id">frei0r.levels</property>
   <property name="tag">frei0r.levels</property>
   <property name="kdenlive_ix">2</property>
   <property name="kdenlive_info"/>
   <property name="Channel">0,3</property>
   <property name="Input black level">0=0</property>
   <property name="Input white level">0=0,65</property>
   <property name="Gamma">0=0,25</property>
   <property name="Black output">0=0</property>
   <property name="White output">0=1</property>
   <property name="Show histogram">0</property>
   <property name="Histogram position">0,3</property>
   <property name="disable">0</property>
  </filter>
 </producer>
 <producer title="Anonymous Submission" id="15_playlist10" in="0" out="3941">
  <property name="length">00:01:18:42</property>
  <property name="eof">pause</property>
  <property name="resource">/media/bordun/plagiat/2018-12-10_Plagiat_RespecteLaPuissancePapale/Carte_3/CAM1_2018-12-10_1834_C0004.mov</property>
  <property name="audio_index">2</property>
  <property name="video_index">1</property>
  <property name="mute_on_pause">1</property>
  <property name="mlt_service">avformat-novalidate</property>
  <property name="seekable">1</property>
  <property name="aspect_ratio">1</property>
  <property name="kdenlive:folderid">14</property>
  <property name="kdenlive:file_size">3639442625</property>
  <property name="kdenlive:file_hash">b37e37844340c239c0192cc4d49711fe</property>
  <property name="global_feed">1</property>
  <property name="xml">was here</property>
  <property name="meta.media.nb_streams">3</property>
  <property name="meta.media.1.stream.type">video</property>
  <property name="meta.media.1.stream.frame_rate">50</property>
  <property name="meta.media.1.stream.sample_aspect_ratio">1</property>
  <property name="meta.media.1.codec.width">1920</property>
  <property name="meta.media.1.codec.height">1080</property>
  <property name="meta.media.1.codec.rotate">0</property>
  <property name="meta.media.1.codec.frame_rate">5000</property>
  <property name="meta.media.1.codec.pix_fmt">yuv422p10le</property>
  <property name="meta.media.1.codec.sample_aspect_ratio">0</property>
  <property name="meta.media.1.codec.colorspace">709</property>
  <property name="meta.media.1.codec.name">prores</property>
  <property name="meta.media.1.codec.long_name">ProRes</property>
  <property name="meta.media.1.codec.bit_rate">366957579</property>
  <property name="meta.attr.1.stream.creation_time.markup">2018-12-10T18:34:58.000000Z</property>
  <property name="meta.attr.1.stream.language.markup">eng</property>
  <property name="meta.attr.1.stream.handler_name.markup">Apple Alias Data Handler</property>
  <property name="meta.attr.1.stream.encoder.markup">Apple ProRes 422 HQ</property>
  <property name="meta.attr.1.stream.timecode.markup">18:34:58:08</property>
  <property name="meta.media.2.stream.type">audio</property>
  <property name="meta.media.2.codec.sample_fmt">s32</property>
  <property name="meta.media.2.codec.sample_rate">48000</property>
  <property name="meta.media.2.codec.channels">2</property>
  <property name="meta.media.2.codec.name">pcm_s24le</property>
  <property name="meta.media.2.codec.long_name">PCM signed 24-bit little-endian</property>
  <property name="meta.media.2.codec.bit_rate">2304000</property>
  <property name="meta.attr.2.stream.creation_time.markup">2018-12-10T18:34:58.000000Z</property>
  <property name="meta.attr.2.stream.language.markup">eng</property>
  <property name="meta.attr.2.stream.handler_name.markup">Apple Alias Data Handler</property>
  <property name="meta.attr.2.stream.timecode.markup">18:34:58:08</property>
  <property name="meta.attr.com.apple.proapps.manufacturer.markup">Blackmagic Design</property>
  <property name="meta.attr.com.apple.proapps.cameraName.markup">CAM1</property>
  <property name="meta.attr.com.apple.proapps.isGood.markup">0</property>
  <property name="meta.attr.com.apple.proapps.customgamma.markup">com.blackmagic-design.cinemacamera.filmlog</property>
  <property name="meta.attr.com.blackmagic-design.cinemacamera.uuid.markup">18E5E00548F94923B646613A73C01B56</property>
  <property name="meta.attr.creation_time.markup">2018-12-10T18:34:58.000000Z</property>
  <property name="meta.attr.timecode.markup">18:34:58:08</property>
  <property name="meta.media.sample_aspect_num">1</property>
  <property name="meta.media.sample_aspect_den">1</property>
  <property name="meta.media.frame_rate_num">50</property>
  <property name="meta.media.frame_rate_den">1</property>
  <property name="meta.media.colorspace">709</property>
  <property name="meta.media.color_trc">1</property>
  <property name="meta.media.width">1920</property>
  <property name="meta.media.height">1080</property>
  <property name="meta.media.top_field_first">0</property>
  <property name="meta.media.progressive">1</property>
  <property name="meta.media.1.codec.color_trc">1</property>
  <filter id="filter164">
   <property name="version">0,1</property>
   <property name="mlt_service">frei0r.colgate</property>
   <property name="kdenlive_id">frei0r.colgate</property>
   <property name="tag">frei0r.colgate</property>
   <property name="kdenlive_ix">1</property>
   <property name="kdenlive_info"/>
   <property name="Neutral Color">0x7f7f7fff</property>
   <property name="Color Temperature">0=0,523333</property>
   <property name="disable">0</property>
  </filter>
  <filter id="filter175">
   <property name="version">0,3</property>
   <property name="mlt_service">frei0r.levels</property>
   <property name="kdenlive_id">frei0r.levels</property>
   <property name="tag">frei0r.levels</property>
   <property name="kdenlive_ix">2</property>
   <property name="kdenlive_info"/>
   <property name="Channel">0,3</property>
   <property name="Input black level">0=0</property>
   <property name="Input white level">0=0,85</property>
   <property name="Gamma">0=0,25</property>
   <property name="Black output">0=0</property>
   <property name="White output">0=1</property>
   <property name="Show histogram">0</property>
   <property name="Histogram position">0,3</property>
   <property name="disable">0</property>
  </filter>
 </producer>
 <producer id="slowmotion:15:2:1:0" in="0" out="1970">
  <property name="length">1971</property>
  <property name="eof">pause</property>
  <property name="resource">2:/media/bordun/plagiat/2018-12-10_Plagiat_RespecteLaPuissancePapale/Carte_3/CAM1_2018-12-10_1834_C0004.mov</property>
  <property name="aspect_ratio">1</property>
  <property name="meta.media.nb_streams">3</property>
  <property name="meta.media.1.stream.type">video</property>
  <property name="meta.media.1.stream.frame_rate">50</property>
  <property name="meta.media.1.stream.sample_aspect_ratio">1</property>
  <property name="meta.media.1.codec.width">1920</property>
  <property name="meta.media.1.codec.height">1080</property>
  <property name="meta.media.1.codec.rotate">0</property>
  <property name="meta.media.1.codec.frame_rate">5000</property>
  <property name="meta.media.1.codec.pix_fmt">yuv422p10le</property>
  <property name="meta.media.1.codec.sample_aspect_ratio">0</property>
  <property name="meta.media.1.codec.colorspace">709</property>
  <property name="meta.media.1.codec.color_trc">1</property>
  <property name="meta.media.1.codec.name">prores</property>
  <property name="meta.media.1.codec.long_name">ProRes</property>
  <property name="meta.media.1.codec.bit_rate">366957579</property>
  <property name="meta.attr.1.stream.creation_time.markup">2018-12-10T18:34:58.000000Z</property>
  <property name="meta.attr.1.stream.language.markup">eng</property>
  <property name="meta.attr.1.stream.handler_name.markup">Apple Alias Data Handler</property>
  <property name="meta.attr.1.stream.encoder.markup">Apple ProRes 422 HQ</property>
  <property name="meta.attr.1.stream.timecode.markup">18:34:58:08</property>
  <property name="meta.media.2.stream.type">audio</property>
  <property name="meta.media.2.codec.sample_fmt">s32</property>
  <property name="meta.media.2.codec.sample_rate">48000</property>
  <property name="meta.media.2.codec.channels">2</property>
  <property name="meta.media.2.codec.name">pcm_s24le</property>
  <property name="meta.media.2.codec.long_name">PCM signed 24-bit little-endian</property>
  <property name="meta.media.2.codec.bit_rate">2304000</property>
  <property name="meta.attr.2.stream.creation_time.markup">2018-12-10T18:34:58.000000Z</property>
  <property name="meta.attr.2.stream.language.markup">eng</property>
  <property name="meta.attr.2.stream.handler_name.markup">Apple Alias Data Handler</property>
  <property name="meta.attr.2.stream.timecode.markup">18:34:58:08</property>
  <property name="meta.attr.com.apple.proapps.manufacturer.markup">Blackmagic Design</property>
  <property name="meta.attr.com.apple.proapps.cameraName.markup">CAM1</property>
  <property name="meta.attr.com.apple.proapps.isGood.markup">0</property>
  <property name="meta.attr.com.apple.proapps.customgamma.markup">com.blackmagic-design.cinemacamera.filmlog</property>
  <property name="meta.attr.com.blackmagic-design.cinemacamera.uuid.markup">18E5E00548F94923B646613A73C01B56</property>
  <property name="meta.attr.creation_time.markup">2018-12-10T18:34:58.000000Z</property>
  <property name="meta.attr.timecode.markup">18:34:58:08</property>
  <property name="seekable">1</property>
  <property name="meta.media.sample_aspect_num">1</property>
  <property name="meta.media.sample_aspect_den">1</property>
  <property name="audio_index">2</property>
  <property name="video_index">1</property>
  <property name="mute_on_pause">1</property>
  <property name="warp_speed">2</property>
  <property name="warp_resource">/media/bordun/plagiat/2018-12-10_Plagiat_RespecteLaPuissancePapale/Carte_3/CAM1_2018-12-10_1834_C0004.mov</property>
  <property name="mlt_service">timewarp</property>
  <property name="meta.media.frame_rate_num">50</property>
  <property name="meta.media.frame_rate_den">1</property>
  <property name="meta.media.colorspace">709</property>
  <property name="meta.media.color_trc">1</property>
  <property name="meta.media.width">1920</property>
  <property name="meta.media.height">1080</property>
  <property name="meta.media.top_field_first">0</property>
  <property name="meta.media.progressive">1</property>
  <filter id="filter176">
   <property name="version">0,1</property>
   <property name="mlt_service">frei0r.colgate</property>
   <property name="kdenlive_id">frei0r.colgate</property>
   <property name="tag">frei0r.colgate</property>
   <property name="kdenlive_ix">1</property>
   <property name="kdenlive_info"/>
   <property name="Neutral Color">0x7f7f7fff</property>
   <property name="Color Temperature">0=0,523333</property>
   <property name="disable">0</property>
  </filter>
  <filter id="filter177">
   <property name="version">0,3</property>
   <property name="mlt_service">frei0r.levels</property>
   <property name="kdenlive_id">frei0r.levels</property>
   <property name="tag">frei0r.levels</property>
   <property name="kdenlive_ix">2</property>
   <property name="kdenlive_info"/>
   <property name="Channel">0,3</property>
   <property name="Input black level">0=0</property>
   <property name="Input white level">0=0,85</property>
   <property name="Gamma">0=0,25</property>
   <property name="Black output">0=0</property>
   <property name="White output">0=1</property>
   <property name="Show histogram">0</property>
   <property name="Histogram position">0,3</property>
   <property name="disable">0</property>
  </filter>
 </producer>
 <producer title="Anonymous Submission" id="producer13" in="0" out="3805">
  <property name="length">00:01:16:06</property>
  <property name="eof">pause</property>
  <property name="resource">/media/bordun/plagiat/2018-12-10_Plagiat_RespecteLaPuissancePapale/Carte_3/CAM1_2018-12-10_1833_C0003.mov</property>
  <property name="audio_index">-1</property>
  <property name="video_index">-1</property>
  <property name="mute_on_pause">1</property>
  <property name="mlt_service">avformat-novalidate</property>
  <property name="seekable">1</property>
  <property name="aspect_ratio">1</property>
  <property name="kdenlive:folderid">14</property>
  <property name="kdenlive:file_size">3513882801</property>
  <property name="kdenlive:file_hash">911165815b4f50c12a788c8017dec34b</property>
  <property name="global_feed">1</property>
  <property name="xml">was here</property>
  <property name="kdenlive:binid">14</property>
  <property name="kdenlive:clipstate">0</property>
 </producer>
 <producer title="Anonymous Submission" id="14_playlist10" in="0" out="3805">
  <property name="length">00:01:16:06</property>
  <property name="eof">pause</property>
  <property name="resource">/media/bordun/plagiat/2018-12-10_Plagiat_RespecteLaPuissancePapale/Carte_3/CAM1_2018-12-10_1833_C0003.mov</property>
  <property name="audio_index">2</property>
  <property name="video_index">1</property>
  <property name="mute_on_pause">1</property>
  <property name="mlt_service">avformat-novalidate</property>
  <property name="seekable">1</property>
  <property name="aspect_ratio">1</property>
  <property name="kdenlive:folderid">14</property>
  <property name="kdenlive:file_size">3513882801</property>
  <property name="kdenlive:file_hash">911165815b4f50c12a788c8017dec34b</property>
  <property name="global_feed">1</property>
  <property name="xml">was here</property>
  <property name="meta.media.nb_streams">3</property>
  <property name="meta.media.1.stream.type">video</property>
  <property name="meta.media.1.stream.frame_rate">50</property>
  <property name="meta.media.1.stream.sample_aspect_ratio">1</property>
  <property name="meta.media.1.codec.width">1920</property>
  <property name="meta.media.1.codec.height">1080</property>
  <property name="meta.media.1.codec.rotate">0</property>
  <property name="meta.media.1.codec.frame_rate">5000</property>
  <property name="meta.media.1.codec.pix_fmt">yuv422p10le</property>
  <property name="meta.media.1.codec.sample_aspect_ratio">0</property>
  <property name="meta.media.1.codec.colorspace">709</property>
  <property name="meta.media.1.codec.name">prores</property>
  <property name="meta.media.1.codec.long_name">ProRes</property>
  <property name="meta.media.1.codec.bit_rate">366958122</property>
  <property name="meta.attr.1.stream.creation_time.markup">2018-12-10T18:33:13.000000Z</property>
  <property name="meta.attr.1.stream.language.markup">eng</property>
  <property name="meta.attr.1.stream.handler_name.markup">Apple Alias Data Handler</property>
  <property name="meta.attr.1.stream.encoder.markup">Apple ProRes 422 HQ</property>
  <property name="meta.attr.1.stream.timecode.markup">18:33:13:41</property>
  <property name="meta.media.2.stream.type">audio</property>
  <property name="meta.media.2.codec.sample_fmt">s32</property>
  <property name="meta.media.2.codec.sample_rate">48000</property>
  <property name="meta.media.2.codec.channels">2</property>
  <property name="meta.media.2.codec.name">pcm_s24le</property>
  <property name="meta.media.2.codec.long_name">PCM signed 24-bit little-endian</property>
  <property name="meta.media.2.codec.bit_rate">2304000</property>
  <property name="meta.attr.2.stream.creation_time.markup">2018-12-10T18:33:13.000000Z</property>
  <property name="meta.attr.2.stream.language.markup">eng</property>
  <property name="meta.attr.2.stream.handler_name.markup">Apple Alias Data Handler</property>
  <property name="meta.attr.2.stream.timecode.markup">18:33:13:41</property>
  <property name="meta.attr.com.apple.proapps.manufacturer.markup">Blackmagic Design</property>
  <property name="meta.attr.com.apple.proapps.cameraName.markup">CAM1</property>
  <property name="meta.attr.com.apple.proapps.isGood.markup">0</property>
  <property name="meta.attr.com.apple.proapps.customgamma.markup">com.blackmagic-design.cinemacamera.filmlog</property>
  <property name="meta.attr.com.blackmagic-design.cinemacamera.uuid.markup">18E5E00548F94923B646613A73C01B56</property>
  <property name="meta.attr.creation_time.markup">2018-12-10T18:33:13.000000Z</property>
  <property name="meta.attr.timecode.markup">18:33:13:41</property>
  <property name="meta.media.sample_aspect_num">1</property>
  <property name="meta.media.sample_aspect_den">1</property>
  <property name="meta.media.frame_rate_num">50</property>
  <property name="meta.media.frame_rate_den">1</property>
  <property name="meta.media.colorspace">709</property>
  <property name="meta.media.color_trc">1</property>
  <property name="meta.media.width">1920</property>
  <property name="meta.media.height">1080</property>
  <property name="meta.media.top_field_first">0</property>
  <property name="meta.media.progressive">1</property>
  <property name="meta.media.1.codec.color_trc">1</property>
  <filter id="filter179">
   <property name="version">0,1</property>
   <property name="mlt_service">frei0r.colgate</property>
   <property name="kdenlive_id">frei0r.colgate</property>
   <property name="tag">frei0r.colgate</property>
   <property name="kdenlive_ix">1</property>
   <property name="kdenlive_info"/>
   <property name="Neutral Color">0x7f7f7fff</property>
   <property name="Color Temperature">0=0,523333</property>
  </filter>
  <filter id="filter180">
   <property name="version">0,3</property>
   <property name="mlt_service">frei0r.levels</property>
   <property name="kdenlive_id">frei0r.levels</property>
   <property name="tag">frei0r.levels</property>
   <property name="kdenlive_ix">2</property>
   <property name="kdenlive_info"/>
   <property name="Channel">0,3</property>
   <property name="Input black level">0=0</property>
   <property name="Input white level">0=0,85</property>
   <property name="Gamma">0=0,25</property>
   <property name="Black output">0=0</property>
   <property name="White output">0=1</property>
   <property name="Show histogram">0</property>
   <property name="Histogram position">0,3</property>
  </filter>
 </producer>
 <producer title="Anonymous Submission" id="4_playlist10" in="0" out="24870">
  <property name="length">00:08:17:21</property>
  <property name="eof">pause</property>
  <property name="resource">/media/bordun/plagiat/2018-12-10_Plagiat_RespecteLaPuissancePapale/Carte_1/CAM1_2018-12-10_1615_C0003.mov</property>
  <property name="audio_index">2</property>
  <property name="video_index">1</property>
  <property name="mute_on_pause">1</property>
  <property name="mlt_service">avformat-novalidate</property>
  <property name="seekable">1</property>
  <property name="aspect_ratio">1</property>
  <property name="kdenlive:folderid">9</property>
  <property name="kdenlive:file_size">22962054105</property>
  <property name="kdenlive:file_hash">c46129788c0a47f07299f13c18fcc857</property>
  <property name="global_feed">1</property>
  <property name="xml">was here</property>
  <property name="meta.media.nb_streams">3</property>
  <property name="meta.media.1.stream.type">video</property>
  <property name="meta.media.1.stream.frame_rate">50</property>
  <property name="meta.media.1.stream.sample_aspect_ratio">1</property>
  <property name="meta.media.1.codec.width">1920</property>
  <property name="meta.media.1.codec.height">1080</property>
  <property name="meta.media.1.codec.rotate">0</property>
  <property name="meta.media.1.codec.frame_rate">5000</property>
  <property name="meta.media.1.codec.pix_fmt">yuv422p10le</property>
  <property name="meta.media.1.codec.sample_aspect_ratio">0</property>
  <property name="meta.media.1.codec.colorspace">709</property>
  <property name="meta.media.1.codec.color_trc">1</property>
  <property name="meta.media.1.codec.name">prores</property>
  <property name="meta.media.1.codec.long_name">ProRes</property>
  <property name="meta.media.1.codec.bit_rate">366958409</property>
  <property name="meta.attr.1.stream.creation_time.markup">2018-12-10T16:15:42.000000Z</property>
  <property name="meta.attr.1.stream.language.markup">eng</property>
  <property name="meta.attr.1.stream.handler_name.markup">Apple Alias Data Handler</property>
  <property name="meta.attr.1.stream.encoder.markup">Apple ProRes 422 HQ</property>
  <property name="meta.attr.1.stream.timecode.markup">16:15:42:33</property>
  <property name="meta.media.2.stream.type">audio</property>
  <property name="meta.media.2.codec.sample_fmt">s32</property>
  <property name="meta.media.2.codec.sample_rate">48000</property>
  <property name="meta.media.2.codec.channels">2</property>
  <property name="meta.media.2.codec.name">pcm_s24le</property>
  <property name="meta.media.2.codec.long_name">PCM signed 24-bit little-endian</property>
  <property name="meta.media.2.codec.bit_rate">2304000</property>
  <property name="meta.attr.2.stream.creation_time.markup">2018-12-10T16:15:42.000000Z</property>
  <property name="meta.attr.2.stream.language.markup">eng</property>
  <property name="meta.attr.2.stream.handler_name.markup">Apple Alias Data Handler</property>
  <property name="meta.attr.2.stream.timecode.markup">16:15:42:33</property>
  <property name="meta.attr.com.apple.proapps.manufacturer.markup">Blackmagic Design</property>
  <property name="meta.attr.com.apple.proapps.cameraName.markup">CAM1</property>
  <property name="meta.attr.com.apple.proapps.isGood.markup">0</property>
  <property name="meta.attr.com.apple.proapps.customgamma.markup">com.blackmagic-design.cinemacamera.filmlog</property>
  <property name="meta.attr.com.blackmagic-design.cinemacamera.uuid.markup">18E5E00548F94923B646613A73C01B56</property>
  <property name="meta.attr.creation_time.markup">2018-12-10T16:15:42.000000Z</property>
  <property name="meta.attr.timecode.markup">16:15:42:33</property>
  <property name="meta.media.sample_aspect_num">1</property>
  <property name="meta.media.sample_aspect_den">1</property>
  <property name="meta.media.frame_rate_num">50</property>
  <property name="meta.media.frame_rate_den">1</property>
  <property name="meta.media.colorspace">709</property>
  <property name="meta.media.color_trc">1</property>
  <property name="meta.media.width">1920</property>
  <property name="meta.media.height">1080</property>
  <property name="meta.media.top_field_first">0</property>
  <property name="meta.media.progressive">1</property>
  <filter id="filter178">
   <property name="version">0,1</property>
   <property name="mlt_service">frei0r.colgate</property>
   <property name="kdenlive_id">frei0r.colgate</property>
   <property name="tag">frei0r.colgate</property>
   <property name="kdenlive_ix">1</property>
   <property name="kdenlive_info"/>
   <property name="Neutral Color">0x7f7f7fff</property>
   <property name="Color Temperature">0=0,5</property>
  </filter>
  <filter id="filter181">
   <property name="version">0,3</property>
   <property name="mlt_service">frei0r.levels</property>
   <property name="kdenlive_id">frei0r.levels</property>
   <property name="tag">frei0r.levels</property>
   <property name="kdenlive_ix">2</property>
   <property name="kdenlive_info"/>
   <property name="Channel">0,3</property>
   <property name="Input black level">0=0</property>
   <property name="Input white level">0=0,65</property>
   <property name="Gamma">0=0,25</property>
   <property name="Black output">0=0</property>
   <property name="White output">0=1</property>
   <property name="Show histogram">0</property>
   <property name="Histogram position">0,3</property>
  </filter>
 </producer>
 <playlist id="playlist10">
  <property name="kdenlive:track_name">Vidéo 9</property>
  <blank length="3732"/>
  <entry producer="producer5" in="1409" out="1828"/>
  <blank length="314"/>
  <entry producer="producer11" in="7468" out="7539"/>
  <blank length="400"/>
  <entry producer="producer12" in="1811" out="1842"/>
  <blank length="923"/>
  <entry producer="7_playlist10" in="7586" out="7605"/>
  <entry producer="slowmotion:7:0,5:1:0" in="15212" out="15274"/>
  <entry producer="slowmotion:7:0,5:1:0" in="15275" out="15276"/>
  <entry producer="slowmotion:7:0,5:1:0" in="15277" out="15296"/>
  <blank length="91"/>
  <entry producer="15_playlist10" in="2350" out="2444"/>
  <blank length="133"/>
  <entry producer="15_playlist10" in="2578" out="2612"/>
  <blank length="137"/>
  <entry producer="15_playlist10" in="2871" out="2946">
   <filter id="filter182">
    <property name="mirror">flip</property>
    <property name="mlt_service">mirror</property>
    <property name="kdenlive_id">mirror</property>
    <property name="tag">mirror</property>
    <property name="kdenlive_ix">1</property>
    <property name="reverse">0</property>
    <property name="kdenlive_info"/>
   </filter>
  </entry>
  <entry producer="slowmotion:15:2:1:0" in="1474" out="1491">
   <filter id="filter183">
    <property name="mirror">flip</property>
    <property name="mlt_service">mirror</property>
    <property name="kdenlive_id">mirror</property>
    <property name="tag">mirror</property>
    <property name="kdenlive_ix">2</property>
    <property name="kdenlive_info"/>
    <property name="disable"/>
    <property name="reverse">0</property>
   </filter>
  </entry>
  <blank length="112"/>
  <entry producer="15_playlist10" in="3310" out="3357"/>
  <blank length="262"/>
  <entry producer="producer13" in="3085" out="3122"/>
  <blank length="59"/>
  <entry producer="14_playlist10" in="2797" out="2873">
   <filter id="filter184" in="2797" out="2873">
    <property name="background">colour:0x00000000</property>
    <property name="mlt_service">affine</property>
    <property name="kdenlive_id">pan_zoom</property>
    <property name="tag">affine</property>
    <property name="kdenlive_ix">1</property>
    <property name="transition.geometry">-96/-54:2112x1188:100</property>
    <property name="transition.distort">0</property>
    <property name="kdenlive:sync_in_out">1</property>
    <property name="kdenlive_info"/>
    <property name="disable"/>
   </filter>
  </entry>
  <entry producer="14_playlist10" in="2874" out="2952">
   <filter id="filter185" in="2874" out="2952">
    <property name="background">colour:0x00000000</property>
    <property name="mlt_service">affine</property>
    <property name="kdenlive_id">pan_zoom</property>
    <property name="tag">affine</property>
    <property name="kdenlive_ix">1</property>
    <property name="transition.geometry">-96/-54:2112x1188:100</property>
    <property name="transition.distort">0</property>
    <property name="kdenlive:sync_in_out">1</property>
    <property name="kdenlive_info"/>
    <property name="disable"/>
   </filter>
  </entry>
  <blank length="19090"/>
  <entry producer="4_playlist10" in="18595" out="18781"/>
  <entry producer="4_playlist10" in="18782" out="24870"/>
 </playlist>
 <producer title="Anonymous Submission" id="producer14" in="0" out="2194">
  <property name="length">00:00:43:45</property>
  <property name="eof">pause</property>
  <property name="resource">/media/bordun/plagiat/2018-12-10_Plagiat_RespecteLaPuissancePapale/Carte_4/CAM1_2018-12-10_1932_C0007.mov</property>
  <property name="audio_index">-1</property>
  <property name="video_index">-1</property>
  <property name="mute_on_pause">1</property>
  <property name="mlt_service">avformat-novalidate</property>
  <property name="seekable">1</property>
  <property name="aspect_ratio">1</property>
  <property name="kdenlive:folderid">13</property>
  <property name="kdenlive:file_size">2026532265</property>
  <property name="kdenlive:file_hash">817b2a44d7814a42acea89e05d1f8fde</property>
  <property name="global_feed">1</property>
  <property name="kdenlive:zone_in">1684</property>
  <property name="kdenlive:zone_out">1808</property>
  <property name="xml">was here</property>
  <property name="kdenlive:binid">24</property>
 </producer>
 <producer title="Anonymous Submission" id="24_playlist13" in="0" out="2194">
  <property name="length">00:00:43:45</property>
  <property name="eof">pause</property>
  <property name="resource">/media/bordun/plagiat/2018-12-10_Plagiat_RespecteLaPuissancePapale/Carte_4/CAM1_2018-12-10_1932_C0007.mov</property>
  <property name="audio_index">2</property>
  <property name="video_index">1</property>
  <property name="mute_on_pause">1</property>
  <property name="mlt_service">avformat-novalidate</property>
  <property name="seekable">1</property>
  <property name="aspect_ratio">1</property>
  <property name="kdenlive:folderid">13</property>
  <property name="kdenlive:file_size">2026532265</property>
  <property name="kdenlive:file_hash">817b2a44d7814a42acea89e05d1f8fde</property>
  <property name="global_feed">1</property>
  <property name="kdenlive:zone_in">1684</property>
  <property name="kdenlive:zone_out">1808</property>
  <property name="xml">was here</property>
  <property name="meta.media.nb_streams">3</property>
  <property name="meta.media.1.stream.type">video</property>
  <property name="meta.media.1.stream.frame_rate">50</property>
  <property name="meta.media.1.stream.sample_aspect_ratio">1</property>
  <property name="meta.media.1.codec.width">1920</property>
  <property name="meta.media.1.codec.height">1080</property>
  <property name="meta.media.1.codec.rotate">0</property>
  <property name="meta.media.1.codec.frame_rate">5000</property>
  <property name="meta.media.1.codec.pix_fmt">yuv422p10le</property>
  <property name="meta.media.1.codec.sample_aspect_ratio">0</property>
  <property name="meta.media.1.codec.colorspace">709</property>
  <property name="meta.media.1.codec.name">prores</property>
  <property name="meta.media.1.codec.long_name">ProRes</property>
  <property name="meta.media.1.codec.bit_rate">366958350</property>
  <property name="meta.attr.1.stream.creation_time.markup">2018-12-10T19:32:10.000000Z</property>
  <property name="meta.attr.1.stream.language.markup">eng</property>
  <property name="meta.attr.1.stream.handler_name.markup">Apple Alias Data Handler</property>
  <property name="meta.attr.1.stream.encoder.markup">Apple ProRes 422 HQ</property>
  <property name="meta.attr.1.stream.timecode.markup">19:32:10:35</property>
  <property name="meta.media.2.stream.type">audio</property>
  <property name="meta.media.2.codec.sample_fmt">s32</property>
  <property name="meta.media.2.codec.sample_rate">48000</property>
  <property name="meta.media.2.codec.channels">2</property>
  <property name="meta.media.2.codec.name">pcm_s24le</property>
  <property name="meta.media.2.codec.long_name">PCM signed 24-bit little-endian</property>
  <property name="meta.media.2.codec.bit_rate">2304000</property>
  <property name="meta.attr.2.stream.creation_time.markup">2018-12-10T19:32:10.000000Z</property>
  <property name="meta.attr.2.stream.language.markup">eng</property>
  <property name="meta.attr.2.stream.handler_name.markup">Apple Alias Data Handler</property>
  <property name="meta.attr.2.stream.timecode.markup">19:32:10:35</property>
  <property name="meta.attr.com.apple.proapps.manufacturer.markup">Blackmagic Design</property>
  <property name="meta.attr.com.apple.proapps.cameraName.markup">CAM1</property>
  <property name="meta.attr.com.apple.proapps.isGood.markup">0</property>
  <property name="meta.attr.com.apple.proapps.customgamma.markup">com.blackmagic-design.cinemacamera.filmlog</property>
  <property name="meta.attr.com.blackmagic-design.cinemacamera.uuid.markup">18E5E00548F94923B646613A73C01B56</property>
  <property name="meta.attr.creation_time.markup">2018-12-10T19:32:10.000000Z</property>
  <property name="meta.attr.timecode.markup">19:32:10:35</property>
  <property name="meta.media.sample_aspect_num">1</property>
  <property name="meta.media.sample_aspect_den">1</property>
  <property name="meta.media.frame_rate_num">50</property>
  <property name="meta.media.frame_rate_den">1</property>
  <property name="meta.media.colorspace">709</property>
  <property name="meta.media.color_trc">1</property>
  <property name="meta.media.width">1920</property>
  <property name="meta.media.height">1080</property>
  <property name="meta.media.top_field_first">0</property>
  <property name="meta.media.progressive">1</property>
  <property name="meta.media.1.codec.color_trc">1</property>
  <filter id="filter186">
   <property name="version">0,3</property>
   <property name="mlt_service">frei0r.sopsat</property>
   <property name="kdenlive_id">frei0r.sopsat</property>
   <property name="tag">frei0r.sopsat</property>
   <property name="kdenlive_ix">1</property>
   <property name="kdenlive_info">1/-1/</property>
   <property name="rSlope">0=0,1055</property>
   <property name="gSlope">0=0,05</property>
   <property name="bSlope">0=0,088</property>
   <property name="aSlope">0=0,05</property>
   <property name="rOffset">0=0,456543</property>
   <property name="gOffset">0=0,238281</property>
   <property name="bOffset">0=0,5</property>
   <property name="aOffset">0=0,5</property>
   <property name="rPower">0=0,025</property>
   <property name="gPower">0=0,0525</property>
   <property name="bPower">0=0,0655</property>
   <property name="aPower">0=0,05</property>
   <property name="saturation">0=0,1</property>
   <property name="disable">0</property>
  </filter>
  <filter id="filter187">
   <property name="gamma">0=1,3</property>
   <property name="mlt_service">gamma</property>
   <property name="kdenlive_id">gamma</property>
   <property name="tag">gamma</property>
   <property name="kdenlive_ix">2</property>
   <property name="kdenlive_info"/>
   <property name="disable">0</property>
  </filter>
  <filter id="filter188">
   <property name="version">0,3</property>
   <property name="mlt_service">frei0r.sopsat</property>
   <property name="kdenlive_id">RLPP - Violet Degueux</property>
   <property name="tag">frei0r.sopsat</property>
   <property name="kdenlive_ix">3</property>
   <property name="kdenlive_info"/>
   <property name="rSlope">0=0,066</property>
   <property name="gSlope">0=0,3215</property>
   <property name="bSlope">0=0,079</property>
   <property name="aSlope">0=0,05</property>
   <property name="rOffset">0=0,456055</property>
   <property name="gOffset">0=0,237793</property>
   <property name="bOffset">0=0,5</property>
   <property name="aOffset">0=0,5</property>
   <property name="rPower">0=0,025</property>
   <property name="gPower">0=0,0525</property>
   <property name="bPower">0=0,0655</property>
   <property name="aPower">0=0,05</property>
   <property name="saturation">0=0,1</property>
   <property name="disable">1</property>
  </filter>
 </producer>
 <producer title="Anonymous Submission" id="20_playlist13" in="0" out="995">
  <property name="length">00:00:19:46</property>
  <property name="eof">pause</property>
  <property name="resource">/media/bordun/plagiat/2018-12-10_Plagiat_RespecteLaPuissancePapale/Carte_3/CAM1_2018-12-10_1857_C0009.mov</property>
  <property name="audio_index">2</property>
  <property name="video_index">1</property>
  <property name="mute_on_pause">1</property>
  <property name="mlt_service">avformat-novalidate</property>
  <property name="seekable">1</property>
  <property name="aspect_ratio">1</property>
  <property name="kdenlive:folderid">13</property>
  <property name="kdenlive:file_size">919559913</property>
  <property name="kdenlive:file_hash">1729a26f0eb1c7c9bfd5136f79c4245a</property>
  <property name="global_feed">1</property>
  <property name="xml">was here</property>
  <property name="meta.media.nb_streams">3</property>
  <property name="meta.media.1.stream.type">video</property>
  <property name="meta.media.1.stream.frame_rate">50</property>
  <property name="meta.media.1.stream.sample_aspect_ratio">1</property>
  <property name="meta.media.1.codec.width">1920</property>
  <property name="meta.media.1.codec.height">1080</property>
  <property name="meta.media.1.codec.rotate">0</property>
  <property name="meta.media.1.codec.frame_rate">5000</property>
  <property name="meta.media.1.codec.pix_fmt">yuv422p10le</property>
  <property name="meta.media.1.codec.sample_aspect_ratio">0</property>
  <property name="meta.media.1.codec.colorspace">709</property>
  <property name="meta.media.1.codec.name">prores</property>
  <property name="meta.media.1.codec.long_name">ProRes</property>
  <property name="meta.media.1.codec.bit_rate">366959048</property>
  <property name="meta.attr.1.stream.creation_time.markup">2018-12-10T18:57:40.000000Z</property>
  <property name="meta.attr.1.stream.language.markup">eng</property>
  <property name="meta.attr.1.stream.handler_name.markup">Apple Alias Data Handler</property>
  <property name="meta.attr.1.stream.encoder.markup">Apple ProRes 422 HQ</property>
  <property name="meta.attr.1.stream.timecode.markup">18:57:40:47</property>
  <property name="meta.media.2.stream.type">audio</property>
  <property name="meta.media.2.codec.sample_fmt">s32</property>
  <property name="meta.media.2.codec.sample_rate">48000</property>
  <property name="meta.media.2.codec.channels">2</property>
  <property name="meta.media.2.codec.name">pcm_s24le</property>
  <property name="meta.media.2.codec.long_name">PCM signed 24-bit little-endian</property>
  <property name="meta.media.2.codec.bit_rate">2304000</property>
  <property name="meta.attr.2.stream.creation_time.markup">2018-12-10T18:57:40.000000Z</property>
  <property name="meta.attr.2.stream.language.markup">eng</property>
  <property name="meta.attr.2.stream.handler_name.markup">Apple Alias Data Handler</property>
  <property name="meta.attr.2.stream.timecode.markup">18:57:40:47</property>
  <property name="meta.attr.com.apple.proapps.manufacturer.markup">Blackmagic Design</property>
  <property name="meta.attr.com.apple.proapps.cameraName.markup">CAM1</property>
  <property name="meta.attr.com.apple.proapps.isGood.markup">0</property>
  <property name="meta.attr.com.apple.proapps.customgamma.markup">com.blackmagic-design.cinemacamera.filmlog</property>
  <property name="meta.attr.com.blackmagic-design.cinemacamera.uuid.markup">18E5E00548F94923B646613A73C01B56</property>
  <property name="meta.attr.creation_time.markup">2018-12-10T18:57:40.000000Z</property>
  <property name="meta.attr.timecode.markup">18:57:40:47</property>
  <property name="meta.media.sample_aspect_num">1</property>
  <property name="meta.media.sample_aspect_den">1</property>
  <property name="meta.media.frame_rate_num">50</property>
  <property name="meta.media.frame_rate_den">1</property>
  <property name="meta.media.colorspace">709</property>
  <property name="meta.media.color_trc">1</property>
  <property name="meta.media.width">1920</property>
  <property name="meta.media.height">1080</property>
  <property name="meta.media.top_field_first">0</property>
  <property name="meta.media.progressive">1</property>
  <property name="meta.media.1.codec.color_trc">1</property>
  <filter id="filter189">
   <property name="version">0,1</property>
   <property name="mlt_service">frei0r.colgate</property>
   <property name="kdenlive_id">frei0r.colgate</property>
   <property name="tag">frei0r.colgate</property>
   <property name="kdenlive_ix">1</property>
   <property name="kdenlive_info"/>
   <property name="Neutral Color">0x7f7f7fff</property>
   <property name="Color Temperature">0=0,523333</property>
  </filter>
  <filter id="filter190">
   <property name="version">0,3</property>
   <property name="mlt_service">frei0r.levels</property>
   <property name="kdenlive_id">frei0r.levels</property>
   <property name="tag">frei0r.levels</property>
   <property name="kdenlive_ix">2</property>
   <property name="kdenlive_info"/>
   <property name="Channel">0,3</property>
   <property name="Input black level">0=0</property>
   <property name="Input white level">0=0,85</property>
   <property name="Gamma">0=0,25</property>
   <property name="Black output">0=0</property>
   <property name="White output">0=1</property>
   <property name="Show histogram">0</property>
   <property name="Histogram position">0,3</property>
  </filter>
 </producer>
 <producer title="Anonymous Submission" id="14_playlist13" in="0" out="3805">
  <property name="length">00:01:16:06</property>
  <property name="eof">pause</property>
  <property name="resource">/media/bordun/plagiat/2018-12-10_Plagiat_RespecteLaPuissancePapale/Carte_3/CAM1_2018-12-10_1833_C0003.mov</property>
  <property name="audio_index">2</property>
  <property name="video_index">1</property>
  <property name="mute_on_pause">1</property>
  <property name="mlt_service">avformat-novalidate</property>
  <property name="seekable">1</property>
  <property name="aspect_ratio">1</property>
  <property name="kdenlive:folderid">14</property>
  <property name="kdenlive:file_size">3513882801</property>
  <property name="kdenlive:file_hash">911165815b4f50c12a788c8017dec34b</property>
  <property name="global_feed">1</property>
  <property name="xml">was here</property>
  <property name="meta.media.nb_streams">3</property>
  <property name="meta.media.1.stream.type">video</property>
  <property name="meta.media.1.stream.frame_rate">50</property>
  <property name="meta.media.1.stream.sample_aspect_ratio">1</property>
  <property name="meta.media.1.codec.width">1920</property>
  <property name="meta.media.1.codec.height">1080</property>
  <property name="meta.media.1.codec.rotate">0</property>
  <property name="meta.media.1.codec.frame_rate">5000</property>
  <property name="meta.media.1.codec.pix_fmt">yuv422p10le</property>
  <property name="meta.media.1.codec.sample_aspect_ratio">0</property>
  <property name="meta.media.1.codec.colorspace">709</property>
  <property name="meta.media.1.codec.color_trc">1</property>
  <property name="meta.media.1.codec.name">prores</property>
  <property name="meta.media.1.codec.long_name">ProRes</property>
  <property name="meta.media.1.codec.bit_rate">366958122</property>
  <property name="meta.attr.1.stream.creation_time.markup">2018-12-10T18:33:13.000000Z</property>
  <property name="meta.attr.1.stream.language.markup">eng</property>
  <property name="meta.attr.1.stream.handler_name.markup">Apple Alias Data Handler</property>
  <property name="meta.attr.1.stream.encoder.markup">Apple ProRes 422 HQ</property>
  <property name="meta.attr.1.stream.timecode.markup">18:33:13:41</property>
  <property name="meta.media.2.stream.type">audio</property>
  <property name="meta.media.2.codec.sample_fmt">s32</property>
  <property name="meta.media.2.codec.sample_rate">48000</property>
  <property name="meta.media.2.codec.channels">2</property>
  <property name="meta.media.2.codec.name">pcm_s24le</property>
  <property name="meta.media.2.codec.long_name">PCM signed 24-bit little-endian</property>
  <property name="meta.media.2.codec.bit_rate">2304000</property>
  <property name="meta.attr.2.stream.creation_time.markup">2018-12-10T18:33:13.000000Z</property>
  <property name="meta.attr.2.stream.language.markup">eng</property>
  <property name="meta.attr.2.stream.handler_name.markup">Apple Alias Data Handler</property>
  <property name="meta.attr.2.stream.timecode.markup">18:33:13:41</property>
  <property name="meta.attr.com.apple.proapps.manufacturer.markup">Blackmagic Design</property>
  <property name="meta.attr.com.apple.proapps.cameraName.markup">CAM1</property>
  <property name="meta.attr.com.apple.proapps.isGood.markup">0</property>
  <property name="meta.attr.com.apple.proapps.customgamma.markup">com.blackmagic-design.cinemacamera.filmlog</property>
  <property name="meta.attr.com.blackmagic-design.cinemacamera.uuid.markup">18E5E00548F94923B646613A73C01B56</property>
  <property name="meta.attr.creation_time.markup">2018-12-10T18:33:13.000000Z</property>
  <property name="meta.attr.timecode.markup">18:33:13:41</property>
  <property name="meta.media.sample_aspect_num">1</property>
  <property name="meta.media.sample_aspect_den">1</property>
  <property name="meta.media.frame_rate_num">50</property>
  <property name="meta.media.frame_rate_den">1</property>
  <property name="meta.media.colorspace">709</property>
  <property name="meta.media.color_trc">1</property>
  <property name="meta.media.width">1920</property>
  <property name="meta.media.height">1080</property>
  <property name="meta.media.top_field_first">0</property>
  <property name="meta.media.progressive">1</property>
  <filter id="filter191">
   <property name="version">0,1</property>
   <property name="mlt_service">frei0r.colgate</property>
   <property name="kdenlive_id">frei0r.colgate</property>
   <property name="tag">frei0r.colgate</property>
   <property name="kdenlive_ix">1</property>
   <property name="kdenlive_info"/>
   <property name="Neutral Color">0x7f7f7fff</property>
   <property name="Color Temperature">0=0,523333</property>
  </filter>
  <filter id="filter192">
   <property name="version">0,3</property>
   <property name="mlt_service">frei0r.levels</property>
   <property name="kdenlive_id">frei0r.levels</property>
   <property name="tag">frei0r.levels</property>
   <property name="kdenlive_ix">2</property>
   <property name="kdenlive_info"/>
   <property name="Channel">0,3</property>
   <property name="Input black level">0=0</property>
   <property name="Input white level">0=0,85</property>
   <property name="Gamma">0=0,25</property>
   <property name="Black output">0=0</property>
   <property name="White output">0=1</property>
   <property name="Show histogram">0</property>
   <property name="Histogram position">0,3</property>
  </filter>
 </producer>
 <producer title="Anonymous Submission" id="15_playlist13" in="0" out="3941">
  <property name="length">00:01:18:42</property>
  <property name="eof">pause</property>
  <property name="resource">/media/bordun/plagiat/2018-12-10_Plagiat_RespecteLaPuissancePapale/Carte_3/CAM1_2018-12-10_1834_C0004.mov</property>
  <property name="audio_index">2</property>
  <property name="video_index">1</property>
  <property name="mute_on_pause">1</property>
  <property name="mlt_service">avformat-novalidate</property>
  <property name="seekable">1</property>
  <property name="aspect_ratio">1</property>
  <property name="kdenlive:folderid">14</property>
  <property name="kdenlive:file_size">3639442625</property>
  <property name="kdenlive:file_hash">b37e37844340c239c0192cc4d49711fe</property>
  <property name="global_feed">1</property>
  <property name="xml">was here</property>
  <property name="meta.media.nb_streams">3</property>
  <property name="meta.media.1.stream.type">video</property>
  <property name="meta.media.1.stream.frame_rate">50</property>
  <property name="meta.media.1.stream.sample_aspect_ratio">1</property>
  <property name="meta.media.1.codec.width">1920</property>
  <property name="meta.media.1.codec.height">1080</property>
  <property name="meta.media.1.codec.rotate">0</property>
  <property name="meta.media.1.codec.frame_rate">5000</property>
  <property name="meta.media.1.codec.pix_fmt">yuv422p10le</property>
  <property name="meta.media.1.codec.sample_aspect_ratio">0</property>
  <property name="meta.media.1.codec.colorspace">709</property>
  <property name="meta.media.1.codec.name">prores</property>
  <property name="meta.media.1.codec.long_name">ProRes</property>
  <property name="meta.media.1.codec.bit_rate">366957579</property>
  <property name="meta.attr.1.stream.creation_time.markup">2018-12-10T18:34:58.000000Z</property>
  <property name="meta.attr.1.stream.language.markup">eng</property>
  <property name="meta.attr.1.stream.handler_name.markup">Apple Alias Data Handler</property>
  <property name="meta.attr.1.stream.encoder.markup">Apple ProRes 422 HQ</property>
  <property name="meta.attr.1.stream.timecode.markup">18:34:58:08</property>
  <property name="meta.media.2.stream.type">audio</property>
  <property name="meta.media.2.codec.sample_fmt">s32</property>
  <property name="meta.media.2.codec.sample_rate">48000</property>
  <property name="meta.media.2.codec.channels">2</property>
  <property name="meta.media.2.codec.name">pcm_s24le</property>
  <property name="meta.media.2.codec.long_name">PCM signed 24-bit little-endian</property>
  <property name="meta.media.2.codec.bit_rate">2304000</property>
  <property name="meta.attr.2.stream.creation_time.markup">2018-12-10T18:34:58.000000Z</property>
  <property name="meta.attr.2.stream.language.markup">eng</property>
  <property name="meta.attr.2.stream.handler_name.markup">Apple Alias Data Handler</property>
  <property name="meta.attr.2.stream.timecode.markup">18:34:58:08</property>
  <property name="meta.attr.com.apple.proapps.manufacturer.markup">Blackmagic Design</property>
  <property name="meta.attr.com.apple.proapps.cameraName.markup">CAM1</property>
  <property name="meta.attr.com.apple.proapps.isGood.markup">0</property>
  <property name="meta.attr.com.apple.proapps.customgamma.markup">com.blackmagic-design.cinemacamera.filmlog</property>
  <property name="meta.attr.com.blackmagic-design.cinemacamera.uuid.markup">18E5E00548F94923B646613A73C01B56</property>
  <property name="meta.attr.creation_time.markup">2018-12-10T18:34:58.000000Z</property>
  <property name="meta.attr.timecode.markup">18:34:58:08</property>
  <property name="meta.media.sample_aspect_num">1</property>
  <property name="meta.media.sample_aspect_den">1</property>
  <property name="meta.media.frame_rate_num">50</property>
  <property name="meta.media.frame_rate_den">1</property>
  <property name="meta.media.colorspace">709</property>
  <property name="meta.media.color_trc">1</property>
  <property name="meta.media.width">1920</property>
  <property name="meta.media.height">1080</property>
  <property name="meta.media.top_field_first">0</property>
  <property name="meta.media.progressive">1</property>
  <property name="meta.media.1.codec.color_trc">1</property>
  <filter id="filter193">
   <property name="version">0,1</property>
   <property name="mlt_service">frei0r.colgate</property>
   <property name="kdenlive_id">frei0r.colgate</property>
   <property name="tag">frei0r.colgate</property>
   <property name="kdenlive_ix">1</property>
   <property name="kdenlive_info"/>
   <property name="Neutral Color">0x7f7f7fff</property>
   <property name="Color Temperature">0=0,523333</property>
   <property name="disable">0</property>
  </filter>
  <filter id="filter194">
   <property name="version">0,3</property>
   <property name="mlt_service">frei0r.levels</property>
   <property name="kdenlive_id">frei0r.levels</property>
   <property name="tag">frei0r.levels</property>
   <property name="kdenlive_ix">2</property>
   <property name="kdenlive_info"/>
   <property name="Channel">0,3</property>
   <property name="Input black level">0=0</property>
   <property name="Input white level">0=0,85</property>
   <property name="Gamma">0=0,25</property>
   <property name="Black output">0=0</property>
   <property name="White output">0=1</property>
   <property name="Show histogram">0</property>
   <property name="Histogram position">0,3</property>
   <property name="disable">0</property>
  </filter>
 </producer>
 <producer title="Anonymous Submission" id="4_playlist13" in="0" out="24870">
  <property name="length">00:08:17:21</property>
  <property name="eof">pause</property>
  <property name="resource">/media/bordun/plagiat/2018-12-10_Plagiat_RespecteLaPuissancePapale/Carte_1/CAM1_2018-12-10_1615_C0003.mov</property>
  <property name="audio_index">2</property>
  <property name="video_index">1</property>
  <property name="mute_on_pause">1</property>
  <property name="mlt_service">avformat-novalidate</property>
  <property name="seekable">1</property>
  <property name="aspect_ratio">1</property>
  <property name="kdenlive:folderid">9</property>
  <property name="kdenlive:file_size">22962054105</property>
  <property name="kdenlive:file_hash">c46129788c0a47f07299f13c18fcc857</property>
  <property name="global_feed">1</property>
  <property name="xml">was here</property>
  <property name="meta.media.nb_streams">3</property>
  <property name="meta.media.1.stream.type">video</property>
  <property name="meta.media.1.stream.frame_rate">50</property>
  <property name="meta.media.1.stream.sample_aspect_ratio">1</property>
  <property name="meta.media.1.codec.width">1920</property>
  <property name="meta.media.1.codec.height">1080</property>
  <property name="meta.media.1.codec.rotate">0</property>
  <property name="meta.media.1.codec.frame_rate">5000</property>
  <property name="meta.media.1.codec.pix_fmt">yuv422p10le</property>
  <property name="meta.media.1.codec.sample_aspect_ratio">0</property>
  <property name="meta.media.1.codec.colorspace">709</property>
  <property name="meta.media.1.codec.color_trc">1</property>
  <property name="meta.media.1.codec.name">prores</property>
  <property name="meta.media.1.codec.long_name">ProRes</property>
  <property name="meta.media.1.codec.bit_rate">366958409</property>
  <property name="meta.attr.1.stream.creation_time.markup">2018-12-10T16:15:42.000000Z</property>
  <property name="meta.attr.1.stream.language.markup">eng</property>
  <property name="meta.attr.1.stream.handler_name.markup">Apple Alias Data Handler</property>
  <property name="meta.attr.1.stream.encoder.markup">Apple ProRes 422 HQ</property>
  <property name="meta.attr.1.stream.timecode.markup">16:15:42:33</property>
  <property name="meta.media.2.stream.type">audio</property>
  <property name="meta.media.2.codec.sample_fmt">s32</property>
  <property name="meta.media.2.codec.sample_rate">48000</property>
  <property name="meta.media.2.codec.channels">2</property>
  <property name="meta.media.2.codec.name">pcm_s24le</property>
  <property name="meta.media.2.codec.long_name">PCM signed 24-bit little-endian</property>
  <property name="meta.media.2.codec.bit_rate">2304000</property>
  <property name="meta.attr.2.stream.creation_time.markup">2018-12-10T16:15:42.000000Z</property>
  <property name="meta.attr.2.stream.language.markup">eng</property>
  <property name="meta.attr.2.stream.handler_name.markup">Apple Alias Data Handler</property>
  <property name="meta.attr.2.stream.timecode.markup">16:15:42:33</property>
  <property name="meta.attr.com.apple.proapps.manufacturer.markup">Blackmagic Design</property>
  <property name="meta.attr.com.apple.proapps.cameraName.markup">CAM1</property>
  <property name="meta.attr.com.apple.proapps.isGood.markup">0</property>
  <property name="meta.attr.com.apple.proapps.customgamma.markup">com.blackmagic-design.cinemacamera.filmlog</property>
  <property name="meta.attr.com.blackmagic-design.cinemacamera.uuid.markup">18E5E00548F94923B646613A73C01B56</property>
  <property name="meta.attr.creation_time.markup">2018-12-10T16:15:42.000000Z</property>
  <property name="meta.attr.timecode.markup">16:15:42:33</property>
  <property name="meta.media.sample_aspect_num">1</property>
  <property name="meta.media.sample_aspect_den">1</property>
  <property name="meta.media.frame_rate_num">50</property>
  <property name="meta.media.frame_rate_den">1</property>
  <property name="meta.media.colorspace">709</property>
  <property name="meta.media.color_trc">1</property>
  <property name="meta.media.width">1920</property>
  <property name="meta.media.height">1080</property>
  <property name="meta.media.top_field_first">0</property>
  <property name="meta.media.progressive">1</property>
  <filter id="filter195">
   <property name="version">0,1</property>
   <property name="mlt_service">frei0r.colgate</property>
   <property name="kdenlive_id">frei0r.colgate</property>
   <property name="tag">frei0r.colgate</property>
   <property name="kdenlive_ix">1</property>
   <property name="kdenlive_info"/>
   <property name="Neutral Color">0x7f7f7fff</property>
   <property name="Color Temperature">0=0,5</property>
  </filter>
  <filter id="filter196">
   <property name="version">0,3</property>
   <property name="mlt_service">frei0r.levels</property>
   <property name="kdenlive_id">frei0r.levels</property>
   <property name="tag">frei0r.levels</property>
   <property name="kdenlive_ix">2</property>
   <property name="kdenlive_info"/>
   <property name="Channel">0,3</property>
   <property name="Input black level">0=0</property>
   <property name="Input white level">0=0,65</property>
   <property name="Gamma">0=0,25</property>
   <property name="Black output">0=0</property>
   <property name="White output">0=1</property>
   <property name="Show histogram">0</property>
   <property name="Histogram position">0,3</property>
  </filter>
 </producer>
 <playlist id="playlist13">
  <property name="kdenlive:track_name">Vidéo 11</property>
  <blank length="4025"/>
  <entry producer="producer14" in="1667" out="1836">
   <filter id="filter197">
    <property name="mode">alpha</property>
    <property name="alpha_operation">clear</property>
    <property name="invert">0</property>
    <property name="feather">25</property>
    <property name="feather_passes">7</property>
    <property name="mlt_service">rotoscoping</property>
    <property name="kdenlive_id">rotoscoping</property>
    <property name="tag">rotoscoping</property>
    <property name="kdenlive_ix">1</property>
    <property name="kdenlive_info"/>
    <property name="disable"/>
    <property name="spline">[
    [
        [
            0.3404069767441861,
            -0.02713178294573643
        ],
        [
            0.43459302325581395,
            -0.03229974160206718
        ],
        [
            0.43546511627906975,
            0.16408268733850137
        ]
    ],
    [
        [
            0.4380813953488373,
            0.8410852713178294
        ],
        [
            0.438953488372093,
            1.0374677002583979
        ],
        [
            0.34680232558139534,
            1.0359173126614984
        ]
    ],
    [
        [
            0.06162790697674419,
            1.0260981912144702
        ],
        [
            -0.030523255813953487,
            1.024547803617571
        ],
        [
            -0.03343023255813953,
            0.8348837209302324
        ]
    ],
    [
        [
            -0.024709302325581398,
            0.14961240310077514
        ],
        [
            -0.027616279069767442,
            -0.040051679586563305
        ],
        [
            0.06656976744186045,
            -0.045219638242894065
        ]
    ]
]
</property>
   </filter>
  </entry>
  <blank length="22"/>
  <entry producer="24_playlist13" in="1584" out="1585">
   <filter id="filter198">
    <property name="mirror">flip</property>
    <property name="mlt_service">mirror</property>
    <property name="kdenlive_id">mirror</property>
    <property name="tag">mirror</property>
    <property name="kdenlive_ix">1</property>
    <property name="kdenlive_info"/>
    <property name="disable"/>
    <property name="reverse">0</property>
   </filter>
  </entry>
  <blank length="1"/>
  <entry producer="24_playlist13" in="1584" out="1585">
   <filter id="filter199">
    <property name="mirror">flip</property>
    <property name="mlt_service">mirror</property>
    <property name="kdenlive_id">mirror</property>
    <property name="tag">mirror</property>
    <property name="kdenlive_ix">1</property>
    <property name="kdenlive_info"/>
    <property name="disable"/>
    <property name="reverse">0</property>
   </filter>
  </entry>
  <blank length="39"/>
  <entry producer="20_playlist13" in="41" out="52">
   <filter id="filter200">
    <property name="version">0,1</property>
    <property name="mlt_service">frei0r.glitch0r</property>
    <property name="kdenlive_id">frei0r.glitch0r</property>
    <property name="tag">frei0r.glitch0r</property>
    <property name="kdenlive_ix">1</property>
    <property name="0">1</property>
    <property name="1">0,004</property>
    <property name="2">0,006</property>
    <property name="3">0</property>
    <property name="kdenlive_info">0/-1/</property>
    <property name="disable">0</property>
   </filter>
   <filter id="filter201">
    <property name="mode">alpha</property>
    <property name="alpha_operation">clear</property>
    <property name="invert">0</property>
    <property name="feather">10</property>
    <property name="feather_passes">1</property>
    <property name="mlt_service">rotoscoping</property>
    <property name="kdenlive_id">rotoscoping</property>
    <property name="tag">rotoscoping</property>
    <property name="kdenlive_ix">2</property>
    <property name="spline">[
    [
        [
            0.3089064261555806,
            0.3412626832018039
        ],
        [
            0.3089064261555806,
            0.34066140548665913
        ],
        [
            0.309695603156708,
            0.33464862833521236
        ]
    ],
    [
        [
            0.32108229988726045,
            0.32262307403231866
        ],
        [
            0.32187147688838785,
            0.31661029688087183
        ],
        [
            0.32649379932356254,
            0.31500688964048607
        ]
    ],
    [
        [
            0.3403607666290868,
            0.3101966679193286
        ],
        [
            0.34498308906426156,
            0.30859326067894277
        ],
        [
            0.34791431792559185,
            0.31280220468495556
        ]
    ],
    [
        [
            0.3567080045095829,
            0.3254290367029939
        ],
        [
            0.3596392333709132,
            0.32963798070900663
        ],
        [
            0.35512965050732803,
            0.34867844168858825
        ]
    ],
    [
        [
            0.3461104847801578,
            0.3544907929349868
        ],
        [
            0.342728297632469,
            0.3607039959914819
        ],
        [
            0.3406989853438557,
            0.36170612551672304
        ]
    ],
    [
        [
            0.32897406989853445,
            0.37072529124389325
        ],
        [
            0.3269447576099211,
            0.3717274207691344
        ],
        [
            0.3240135287485908,
            0.36852060628836275
        ]
    ],
    [
        [
            0.3180383314543404,
            0.3629086809470124
        ],
        [
            0.3151071025930101,
            0.35970186646624075
        ],
        [
            0.3151071025930101,
            0.359100588751096
        ]
    ]
]
</property>
    <property name="kdenlive_info"/>
    <property name="disable"/>
   </filter>
   <filter id="frei0r.brightness">
    <property name="version">0,2</property>
    <property name="mlt_service">frei0r.brightness</property>
    <property name="kdenlive_id">frei0r.brightness</property>
    <property name="tag">frei0r.brightness</property>
    <property name="kdenlive_ix">3</property>
    <property name="Brightness">0,436</property>
    <property name="kdenlive_info"/>
    <property name="disable">0</property>
   </filter>
  </entry>
  <entry producer="20_playlist13" in="53" out="100">
   <filter id="filter202">
    <property name="mode">alpha</property>
    <property name="alpha_operation">clear</property>
    <property name="invert">0</property>
    <property name="feather">10</property>
    <property name="feather_passes">1</property>
    <property name="mlt_service">rotoscoping</property>
    <property name="kdenlive_id">rotoscoping</property>
    <property name="tag">rotoscoping</property>
    <property name="kdenlive_ix">1</property>
    <property name="spline">[
    [
        [
            0.3179255918827508,
            0.3472754603532507
        ],
        [
            0.3179255918827508,
            0.34667418263810595
        ],
        [
            0.31871476888387823,
            0.34066140548665913
        ]
    ],
    [
        [
            0.32108229988726045,
            0.32262307403231866
        ],
        [
            0.32187147688838785,
            0.31661029688087183
        ],
        [
            0.32649379932356254,
            0.31500688964048607
        ]
    ],
    [
        [
            0.3403607666290868,
            0.3101966679193286
        ],
        [
            0.34498308906426156,
            0.30859326067894277
        ],
        [
            0.34791431792559185,
            0.31280220468495556
        ]
    ],
    [
        [
            0.3567080045095829,
            0.3254290367029939
        ],
        [
            0.3596392333709132,
            0.32963798070900663
        ],
        [
            0.35625704622322435,
            0.3358511837655017
        ]
    ],
    [
        [
            0.3461104847801578,
            0.3544907929349868
        ],
        [
            0.342728297632469,
            0.3607039959914819
        ],
        [
            0.3406989853438557,
            0.36170612551672304
        ]
    ],
    [
        [
            0.3346110484780158,
            0.3647125140924464
        ],
        [
            0.33258173618940245,
            0.3657146436176876
        ],
        [
            0.32965050732807216,
            0.3625078291369159
        ]
    ],
    [
        [
            0.3208568207440811,
            0.35288738569460104
        ],
        [
            0.3179255918827508,
            0.3496805712138294
        ],
        [
            0.3179255918827508,
            0.34907929349868466
        ]
    ]
]
</property>
    <property name="kdenlive_info"/>
    <property name="disable"/>
   </filter>
   <filter id="filter203">
    <property name="version">0,2</property>
    <property name="mlt_service">frei0r.brightness</property>
    <property name="kdenlive_id">frei0r.brightness</property>
    <property name="tag">frei0r.brightness</property>
    <property name="kdenlive_ix">2</property>
    <property name="disable">0</property>
    <property name="Brightness">0,436</property>
   </filter>
  </entry>
  <entry producer="20_playlist13" in="101" out="111">
   <filter id="filter204">
    <property name="version">0,1</property>
    <property name="mlt_service">frei0r.glitch0r</property>
    <property name="kdenlive_id">frei0r.glitch0r</property>
    <property name="tag">frei0r.glitch0r</property>
    <property name="kdenlive_info">0/-1/</property>
    <property name="kdenlive_ix">1</property>
    <property name="0">1</property>
    <property name="1">0,004</property>
    <property name="2">0,006</property>
    <property name="3">0</property>
   </filter>
   <filter id="filter205">
    <property name="mode">alpha</property>
    <property name="alpha_operation">clear</property>
    <property name="invert">0</property>
    <property name="feather">10</property>
    <property name="feather_passes">1</property>
    <property name="mlt_service">rotoscoping</property>
    <property name="kdenlive_id">rotoscoping</property>
    <property name="tag">rotoscoping</property>
    <property name="kdenlive_ix">2</property>
    <property name="spline">[
    [
        [
            0.3179255918827508,
            0.3472754603532507
        ],
        [
            0.3179255918827508,
            0.34667418263810595
        ],
        [
            0.31871476888387823,
            0.34066140548665913
        ]
    ],
    [
        [
            0.32108229988726045,
            0.32262307403231866
        ],
        [
            0.32187147688838785,
            0.31661029688087183
        ],
        [
            0.32649379932356254,
            0.31500688964048607
        ]
    ],
    [
        [
            0.3403607666290868,
            0.3101966679193286
        ],
        [
            0.34498308906426156,
            0.30859326067894277
        ],
        [
            0.34791431792559185,
            0.31280220468495556
        ]
    ],
    [
        [
            0.3567080045095829,
            0.3254290367029939
        ],
        [
            0.3596392333709132,
            0.32963798070900663
        ],
        [
            0.35625704622322435,
            0.3358511837655017
        ]
    ],
    [
        [
            0.3461104847801578,
            0.3544907929349868
        ],
        [
            0.342728297632469,
            0.3607039959914819
        ],
        [
            0.3406989853438557,
            0.36170612551672304
        ]
    ],
    [
        [
            0.3346110484780158,
            0.3647125140924464
        ],
        [
            0.33258173618940245,
            0.3657146436176876
        ],
        [
            0.32965050732807216,
            0.3625078291369159
        ]
    ],
    [
        [
            0.3208568207440811,
            0.35288738569460104
        ],
        [
            0.3179255918827508,
            0.3496805712138294
        ],
        [
            0.3179255918827508,
            0.34907929349868466
        ]
    ]
]
</property>
    <property name="kdenlive_info"/>
    <property name="disable"/>
   </filter>
   <filter id="filter206">
    <property name="version">0,2</property>
    <property name="mlt_service">frei0r.brightness</property>
    <property name="kdenlive_id">frei0r.brightness</property>
    <property name="tag">frei0r.brightness</property>
    <property name="kdenlive_ix">3</property>
    <property name="disable">0</property>
    <property name="Brightness">0,436</property>
   </filter>
  </entry>
  <blank length="74"/>
  <entry producer="24_playlist13" in="1490" out="1491"/>
  <blank length="1"/>
  <entry producer="24_playlist13" in="1490" out="1491"/>
  <blank length="7"/>
  <entry producer="24_playlist13" in="1940" out="1941"/>
  <blank length="1"/>
  <entry producer="24_playlist13" in="1940" out="1941"/>
  <blank length="9"/>
  <entry producer="24_playlist13" in="1229" out="1230"/>
  <blank length="1"/>
  <entry producer="24_playlist13" in="1229" out="1230"/>
  <blank length="1543"/>
  <entry producer="slowmotion:7:0,5:1:0" in="15275" out="15276"/>
  <blank length="2"/>
  <entry producer="slowmotion:7:0,5:1:0" in="15275" out="15276"/>
  <blank length="2"/>
  <entry producer="slowmotion:7:0,5:1:0" in="15275" out="15276"/>
  <blank length="2"/>
  <entry producer="slowmotion:7:0,5:1:0" in="15275" out="15276"/>
  <blank length="289"/>
  <entry producer="14_playlist13" in="2792" out="2825">
   <filter id="filter207" in="2792" out="2825">
    <property name="background">colour:0x00000000</property>
    <property name="mlt_service">affine</property>
    <property name="kdenlive_id">pan_zoom</property>
    <property name="tag">affine</property>
    <property name="kdenlive_ix">1</property>
    <property name="transition.geometry">0=-576/-162:2496x1404:100;5=0/-108:2304x1296:100</property>
    <property name="transition.distort">0</property>
    <property name="kdenlive:sync_in_out">1</property>
    <property name="kdenlive_info"/>
   </filter>
  </entry>
  <blank length="35"/>
  <entry producer="15_playlist13" in="2745" out="2829"/>
  <blank length="258"/>
  <entry producer="4_playlist13" in="18524" out="18571">
   <filter id="filter208" in="18524" out="18571">
    <property name="background">colour:0x00000000</property>
    <property name="mlt_service">affine</property>
    <property name="kdenlive_id">pan_zoom</property>
    <property name="tag">affine</property>
    <property name="kdenlive_ix">1</property>
    <property name="transition.geometry">-384/0:2688x1512:100</property>
    <property name="transition.distort">0</property>
    <property name="kdenlive:sync_in_out">1</property>
    <property name="kdenlive_info"/>
    <property name="disable">0</property>
   </filter>
   <filter id="filter209">
    <property name="version">0,3</property>
    <property name="mlt_service">frei0r.sopsat</property>
    <property name="kdenlive_id">RLPP - Violet Degueux</property>
    <property name="tag">frei0r.sopsat</property>
    <property name="kdenlive_ix">2</property>
    <property name="rSlope">18524=0,1055</property>
    <property name="gSlope">18524=0,3155</property>
    <property name="bSlope">18524=0,088</property>
    <property name="aSlope">18524=0,05</property>
    <property name="rOffset">18524=0,455566</property>
    <property name="gOffset">18524=0,237305</property>
    <property name="bOffset">18524=0,494141</property>
    <property name="aOffset">18524=0,696289</property>
    <property name="rPower">18524=0,025</property>
    <property name="gPower">18524=0,0525</property>
    <property name="bPower">18524=0,0655</property>
    <property name="aPower">18524=0,05</property>
    <property name="saturation">18524=0,1</property>
    <property name="kdenlive_info"/>
    <property name="disable">1</property>
   </filter>
  </entry>
  <blank length="475"/>
  <entry producer="slowmotion:4:2,5:1:0" in="4172" out="4212"/>
 </playlist>
 <producer title="Anonymous Submission" id="21_playlist14" in="0" out="8367">
  <property name="length">00:02:47:18</property>
  <property name="eof">pause</property>
  <property name="resource">/media/bordun/plagiat/2018-12-10_Plagiat_RespecteLaPuissancePapale/Carte_4/CAM1_2018-12-10_1918_C0004.mov</property>
  <property name="audio_index">2</property>
  <property name="video_index">1</property>
  <property name="mute_on_pause">1</property>
  <property name="mlt_service">avformat-novalidate</property>
  <property name="seekable">1</property>
  <property name="aspect_ratio">1</property>
  <property name="kdenlive:folderid">13</property>
  <property name="kdenlive:file_size">7725732233</property>
  <property name="kdenlive:file_hash">4738ec11929b714df4a2322c7cba3752</property>
  <property name="global_feed">1</property>
  <property name="xml">was here</property>
  <property name="meta.media.nb_streams">3</property>
  <property name="meta.media.1.stream.type">video</property>
  <property name="meta.media.1.stream.frame_rate">50</property>
  <property name="meta.media.1.stream.sample_aspect_ratio">1</property>
  <property name="meta.media.1.codec.width">1920</property>
  <property name="meta.media.1.codec.height">1080</property>
  <property name="meta.media.1.codec.rotate">0</property>
  <property name="meta.media.1.codec.frame_rate">5000</property>
  <property name="meta.media.1.codec.pix_fmt">yuv422p10le</property>
  <property name="meta.media.1.codec.sample_aspect_ratio">0</property>
  <property name="meta.media.1.codec.colorspace">709</property>
  <property name="meta.media.1.codec.color_trc">1</property>
  <property name="meta.media.1.codec.name">prores</property>
  <property name="meta.media.1.codec.long_name">ProRes</property>
  <property name="meta.media.1.codec.bit_rate">366957425</property>
  <property name="meta.attr.1.stream.creation_time.markup">2018-12-10T19:18:09.000000Z</property>
  <property name="meta.attr.1.stream.language.markup">eng</property>
  <property name="meta.attr.1.stream.handler_name.markup">Apple Alias Data Handler</property>
  <property name="meta.attr.1.stream.encoder.markup">Apple ProRes 422 HQ</property>
  <property name="meta.attr.1.stream.timecode.markup">19:18:09:37</property>
  <property name="meta.media.2.stream.type">audio</property>
  <property name="meta.media.2.codec.sample_fmt">s32</property>
  <property name="meta.media.2.codec.sample_rate">48000</property>
  <property name="meta.media.2.codec.channels">2</property>
  <property name="meta.media.2.codec.name">pcm_s24le</property>
  <property name="meta.media.2.codec.long_name">PCM signed 24-bit little-endian</property>
  <property name="meta.media.2.codec.bit_rate">2304000</property>
  <property name="meta.attr.2.stream.creation_time.markup">2018-12-10T19:18:09.000000Z</property>
  <property name="meta.attr.2.stream.language.markup">eng</property>
  <property name="meta.attr.2.stream.handler_name.markup">Apple Alias Data Handler</property>
  <property name="meta.attr.2.stream.timecode.markup">19:18:09:37</property>
  <property name="meta.attr.com.apple.proapps.manufacturer.markup">Blackmagic Design</property>
  <property name="meta.attr.com.apple.proapps.cameraName.markup">CAM1</property>
  <property name="meta.attr.com.apple.proapps.isGood.markup">0</property>
  <property name="meta.attr.com.apple.proapps.customgamma.markup">com.blackmagic-design.cinemacamera.filmlog</property>
  <property name="meta.attr.com.blackmagic-design.cinemacamera.uuid.markup">18E5E00548F94923B646613A73C01B56</property>
  <property name="meta.attr.creation_time.markup">2018-12-10T19:18:09.000000Z</property>
  <property name="meta.attr.timecode.markup">19:18:09:37</property>
  <property name="meta.media.sample_aspect_num">1</property>
  <property name="meta.media.sample_aspect_den">1</property>
  <property name="meta.media.frame_rate_num">50</property>
  <property name="meta.media.frame_rate_den">1</property>
  <property name="meta.media.colorspace">709</property>
  <property name="meta.media.color_trc">1</property>
  <property name="meta.media.width">1920</property>
  <property name="meta.media.height">1080</property>
  <property name="meta.media.top_field_first">0</property>
  <property name="meta.media.progressive">1</property>
  <filter id="filter210">
   <property name="version">0,1</property>
   <property name="mlt_service">frei0r.colgate</property>
   <property name="kdenlive_id">frei0r.colgate</property>
   <property name="tag">frei0r.colgate</property>
   <property name="kdenlive_ix">1</property>
   <property name="kdenlive_info"/>
   <property name="Neutral Color">0x7f7f7fff</property>
   <property name="Color Temperature">0=0,5</property>
   <property name="disable">0</property>
  </filter>
  <filter id="filter211">
   <property name="version">0,3</property>
   <property name="mlt_service">frei0r.levels</property>
   <property name="kdenlive_id">frei0r.levels</property>
   <property name="tag">frei0r.levels</property>
   <property name="kdenlive_ix">2</property>
   <property name="kdenlive_info"/>
   <property name="Channel">0,3</property>
   <property name="Input black level">0=0</property>
   <property name="Input white level">0=0,65</property>
   <property name="Gamma">0=0,25</property>
   <property name="Black output">0=0</property>
   <property name="White output">0=1</property>
   <property name="Show histogram">0</property>
   <property name="Histogram position">0,3</property>
  </filter>
 </producer>
 <playlist id="playlist14">
  <property name="kdenlive:track_name">Video 12</property>
  <blank length="4535"/>
  <entry producer="21_playlist14" in="4333" out="4355"/>
  <entry producer="21_playlist14" in="4356" out="4373">
   <filter id="filter212">
    <property name="background">colour:0x00000000</property>
    <property name="mlt_service">affine</property>
    <property name="kdenlive_id">pan_zoom</property>
    <property name="tag">affine</property>
    <property name="kdenlive_ix">1</property>
    <property name="kdenlive_info"/>
    <property name="disable"/>
    <property name="transition.geometry">-192/-108:2304x1296:100</property>
    <property name="transition.distort">0</property>
   </filter>
  </entry>
  <entry producer="21_playlist14" in="4374" out="4391">
   <filter id="filter213">
    <property name="background">colour:0x00000000</property>
    <property name="mlt_service">affine</property>
    <property name="kdenlive_id">pan_zoom</property>
    <property name="tag">affine</property>
    <property name="kdenlive_ix">1</property>
    <property name="kdenlive_info"/>
    <property name="disable"/>
    <property name="transition.geometry">-384/-216:2688x1512:100</property>
    <property name="transition.distort">0</property>
   </filter>
  </entry>
  <blank length="1384"/>
  <entry producer="slowmotion:7:0,5:1:0" in="15235" out="15236"/>
  <blank length="2"/>
  <entry producer="slowmotion:7:0,5:1:0" in="15235" out="15236"/>
  <blank length="2"/>
  <entry producer="slowmotion:7:0,5:1:0" in="15235" out="15236"/>
  <blank length="2"/>
  <entry producer="slowmotion:7:0,5:1:0" in="15235" out="15236"/>
  <blank length="2"/>
  <entry producer="slowmotion:7:0,5:1:0" in="15235" out="15236"/>
 </playlist>
 <producer title="Anonymous Submission" id="48_playlist15" in="0" out="42317">
  <property name="length">00:14:06:18</property>
  <property name="eof">pause</property>
  <property name="resource">/media/bordun/plagiat2/CAM1_2019-01-05_0345_C0000.mov</property>
  <property name="audio_index">2</property>
  <property name="video_index">1</property>
  <property name="mute_on_pause">1</property>
  <property name="mlt_service">avformat-novalidate</property>
  <property name="seekable">1</property>
  <property name="aspect_ratio">1</property>
  <property name="kdenlive:folderid">17</property>
  <property name="kdenlive:file_size">39069915329</property>
  <property name="kdenlive:file_hash">73f4a81374204093f22cbe930d68c42b</property>
  <property name="global_feed">1</property>
  <property name="xml">was here</property>
  <property name="meta.media.nb_streams">3</property>
  <property name="meta.media.1.stream.type">video</property>
  <property name="meta.media.1.stream.frame_rate">50</property>
  <property name="meta.media.1.stream.sample_aspect_ratio">1</property>
  <property name="meta.media.1.codec.width">1920</property>
  <property name="meta.media.1.codec.height">1080</property>
  <property name="meta.media.1.codec.rotate">0</property>
  <property name="meta.media.1.codec.frame_rate">5000</property>
  <property name="meta.media.1.codec.pix_fmt">yuv422p10le</property>
  <property name="meta.media.1.codec.sample_aspect_ratio">0</property>
  <property name="meta.media.1.codec.colorspace">709</property>
  <property name="meta.media.1.codec.color_trc">1</property>
  <property name="meta.media.1.codec.name">prores</property>
  <property name="meta.media.1.codec.long_name">ProRes</property>
  <property name="meta.media.1.codec.bit_rate">366957403</property>
  <property name="meta.attr.1.stream.creation_time.markup">2019-01-05T03:45:37.000000Z</property>
  <property name="meta.attr.1.stream.language.markup">eng</property>
  <property name="meta.attr.1.stream.handler_name.markup">Apple Alias Data Handler</property>
  <property name="meta.attr.1.stream.encoder.markup">Apple ProRes 422 HQ</property>
  <property name="meta.attr.1.stream.timecode.markup">03:45:37:07</property>
  <property name="meta.media.2.stream.type">audio</property>
  <property name="meta.media.2.codec.sample_fmt">s32</property>
  <property name="meta.media.2.codec.sample_rate">48000</property>
  <property name="meta.media.2.codec.channels">2</property>
  <property name="meta.media.2.codec.name">pcm_s24le</property>
  <property name="meta.media.2.codec.long_name">PCM signed 24-bit little-endian</property>
  <property name="meta.media.2.codec.bit_rate">2304000</property>
  <property name="meta.attr.2.stream.creation_time.markup">2019-01-05T03:45:37.000000Z</property>
  <property name="meta.attr.2.stream.language.markup">eng</property>
  <property name="meta.attr.2.stream.handler_name.markup">Apple Alias Data Handler</property>
  <property name="meta.attr.2.stream.timecode.markup">03:45:37:07</property>
  <property name="meta.attr.com.apple.proapps.manufacturer.markup">Blackmagic Design</property>
  <property name="meta.attr.com.apple.proapps.cameraName.markup">CAM1</property>
  <property name="meta.attr.com.apple.proapps.isGood.markup">0</property>
  <property name="meta.attr.com.apple.proapps.customgamma.markup">com.blackmagic-design.cinemacamera.filmlog</property>
  <property name="meta.attr.com.blackmagic-design.cinemacamera.uuid.markup">18E5E00548F94923B646613A73C01B56</property>
  <property name="meta.attr.creation_time.markup">2019-01-05T03:45:37.000000Z</property>
  <property name="meta.attr.timecode.markup">03:45:37:07</property>
  <property name="meta.media.sample_aspect_num">1</property>
  <property name="meta.media.sample_aspect_den">1</property>
  <property name="meta.media.frame_rate_num">50</property>
  <property name="meta.media.frame_rate_den">1</property>
  <property name="meta.media.colorspace">709</property>
  <property name="meta.media.color_trc">1</property>
  <property name="meta.media.width">1920</property>
  <property name="meta.media.height">1080</property>
  <property name="meta.media.top_field_first">0</property>
  <property name="meta.media.progressive">1</property>
  <filter id="filter214">
   <property name="version">0,3</property>
   <property name="mlt_service">frei0r.levels</property>
   <property name="kdenlive_id">frei0r.levels</property>
   <property name="tag">frei0r.levels</property>
   <property name="kdenlive_ix">1</property>
   <property name="kdenlive_info"/>
   <property name="Channel">0,3</property>
   <property name="Input black level">0=0</property>
   <property name="Input white level">0=1</property>
   <property name="Gamma">0=0,2</property>
   <property name="Black output">0=0,01</property>
   <property name="White output">0=0,9</property>
   <property name="Show histogram">0</property>
   <property name="Histogram position">0,3</property>
   <property name="disable">1</property>
  </filter>
 </producer>
 <producer title="Anonymous Submission" id="47_playlist15" in="0" out="11268">
  <property name="length">00:03:45:19</property>
  <property name="eof">pause</property>
  <property name="resource">/media/bordun/plagiat2/CAM1_2019-01-05_0525_C0002.mov</property>
  <property name="audio_index">2</property>
  <property name="video_index">1</property>
  <property name="mute_on_pause">1</property>
  <property name="mlt_service">avformat-novalidate</property>
  <property name="seekable">1</property>
  <property name="aspect_ratio">1</property>
  <property name="kdenlive:folderid">17</property>
  <property name="kdenlive:file_size">10404105561</property>
  <property name="kdenlive:file_hash">2bc47b71e880be9b41ab5c0f2f63d573</property>
  <property name="global_feed">1</property>
  <property name="kdenlive:zone_in">14436</property>
  <property name="kdenlive:zone_out">14476</property>
  <property name="xml">was here</property>
  <property name="meta.media.nb_streams">3</property>
  <property name="meta.media.1.stream.type">video</property>
  <property name="meta.media.1.stream.frame_rate">50</property>
  <property name="meta.media.1.stream.sample_aspect_ratio">1</property>
  <property name="meta.media.1.codec.width">1920</property>
  <property name="meta.media.1.codec.height">1080</property>
  <property name="meta.media.1.codec.rotate">0</property>
  <property name="meta.media.1.codec.frame_rate">5000</property>
  <property name="meta.media.1.codec.pix_fmt">yuv422p10le</property>
  <property name="meta.media.1.codec.sample_aspect_ratio">0</property>
  <property name="meta.media.1.codec.colorspace">709</property>
  <property name="meta.media.1.codec.color_trc">1</property>
  <property name="meta.media.1.codec.name">prores</property>
  <property name="meta.media.1.codec.long_name">ProRes</property>
  <property name="meta.media.1.codec.bit_rate">366958989</property>
  <property name="meta.attr.1.stream.creation_time.markup">2019-01-05T05:25:34.000000Z</property>
  <property name="meta.attr.1.stream.language.markup">eng</property>
  <property name="meta.attr.1.stream.handler_name.markup">Apple Alias Data Handler</property>
  <property name="meta.attr.1.stream.encoder.markup">Apple ProRes 422 HQ</property>
  <property name="meta.attr.1.stream.timecode.markup">05:25:34:21</property>
  <property name="meta.media.2.stream.type">audio</property>
  <property name="meta.media.2.codec.sample_fmt">s32</property>
  <property name="meta.media.2.codec.sample_rate">48000</property>
  <property name="meta.media.2.codec.channels">2</property>
  <property name="meta.media.2.codec.name">pcm_s24le</property>
  <property name="meta.media.2.codec.long_name">PCM signed 24-bit little-endian</property>
  <property name="meta.media.2.codec.bit_rate">2304000</property>
  <property name="meta.attr.2.stream.creation_time.markup">2019-01-05T05:25:34.000000Z</property>
  <property name="meta.attr.2.stream.language.markup">eng</property>
  <property name="meta.attr.2.stream.handler_name.markup">Apple Alias Data Handler</property>
  <property name="meta.attr.2.stream.timecode.markup">05:25:34:21</property>
  <property name="meta.attr.com.apple.proapps.manufacturer.markup">Blackmagic Design</property>
  <property name="meta.attr.com.apple.proapps.cameraName.markup">CAM1</property>
  <property name="meta.attr.com.apple.proapps.isGood.markup">0</property>
  <property name="meta.attr.com.apple.proapps.customgamma.markup">com.blackmagic-design.cinemacamera.filmlog</property>
  <property name="meta.attr.com.blackmagic-design.cinemacamera.uuid.markup">18E5E00548F94923B646613A73C01B56</property>
  <property name="meta.attr.creation_time.markup">2019-01-05T05:25:34.000000Z</property>
  <property name="meta.attr.timecode.markup">05:25:34:21</property>
  <property name="meta.media.sample_aspect_num">1</property>
  <property name="meta.media.sample_aspect_den">1</property>
  <property name="meta.media.frame_rate_num">50</property>
  <property name="meta.media.frame_rate_den">1</property>
  <property name="meta.media.colorspace">709</property>
  <property name="meta.media.color_trc">1</property>
  <property name="meta.media.width">1920</property>
  <property name="meta.media.height">1080</property>
  <property name="meta.media.top_field_first">0</property>
  <property name="meta.media.progressive">1</property>
  <filter id="filter215">
   <property name="version">0,3</property>
   <property name="mlt_service">frei0r.sopsat</property>
   <property name="kdenlive_id">frei0r.sopsat</property>
   <property name="tag">frei0r.sopsat</property>
   <property name="kdenlive_ix">1</property>
   <property name="kdenlive_info">1/-1/</property>
   <property name="rSlope">0=0,1055</property>
   <property name="gSlope">0=0,2945</property>
   <property name="bSlope">0=0,05</property>
   <property name="aSlope">0=0,05</property>
   <property name="rOffset">0=0,456543</property>
   <property name="gOffset">0=0,238281</property>
   <property name="bOffset">0=0,5</property>
   <property name="aOffset">0=0,5</property>
   <property name="rPower">0=0,025</property>
   <property name="gPower">0=0,0525</property>
   <property name="bPower">0=0,0655</property>
   <property name="aPower">0=0,05</property>
   <property name="saturation">0=0,1</property>
   <property name="disable">1</property>
  </filter>
  <filter id="filter216">
   <property name="gamma">0=1,12</property>
   <property name="mlt_service">gamma</property>
   <property name="kdenlive_id">gamma</property>
   <property name="tag">gamma</property>
   <property name="kdenlive_ix">2</property>
   <property name="kdenlive_info"/>
  </filter>
  <filter id="filter217">
   <property name="version">0,3</property>
   <property name="mlt_service">frei0r.sopsat</property>
   <property name="kdenlive_id">RLPP - Violet Degueux</property>
   <property name="tag">frei0r.sopsat</property>
   <property name="kdenlive_ix">3</property>
   <property name="kdenlive_info"/>
   <property name="rSlope">0=0,1055</property>
   <property name="gSlope">0=0,3295</property>
   <property name="bSlope">0=0,088</property>
   <property name="aSlope">0=0,05</property>
   <property name="rOffset">0=0,456055</property>
   <property name="gOffset">0=0,237793</property>
   <property name="bOffset">0=0,5</property>
   <property name="aOffset">0=0,5</property>
   <property name="rPower">0=0,025</property>
   <property name="gPower">0=0,0525</property>
   <property name="bPower">0=0,0655</property>
   <property name="aPower">0=0,05</property>
   <property name="saturation">0=0,1</property>
  </filter>
 </producer>
 <producer title="Anonymous Submission" id="35_playlist15" in="0" out="43907">
  <property name="length">00:14:38:08</property>
  <property name="eof">pause</property>
  <property name="resource">/media/bordun/plagiat2/CAM1_2019-01-05_0407_C0000.mov</property>
  <property name="audio_index">2</property>
  <property name="video_index">1</property>
  <property name="mute_on_pause">1</property>
  <property name="mlt_service">avformat-novalidate</property>
  <property name="seekable">1</property>
  <property name="aspect_ratio">1</property>
  <property name="kdenlive:folderid">17</property>
  <property name="kdenlive:file_size">40537867713</property>
  <property name="kdenlive:file_hash">eeb49a6f6e2626b129e2046ec649a60c</property>
  <property name="global_feed">1</property>
  <property name="xml">was here</property>
  <property name="meta.media.nb_streams">3</property>
  <property name="meta.media.1.stream.type">video</property>
  <property name="meta.media.1.stream.frame_rate">50</property>
  <property name="meta.media.1.stream.sample_aspect_ratio">1</property>
  <property name="meta.media.1.codec.width">1920</property>
  <property name="meta.media.1.codec.height">1080</property>
  <property name="meta.media.1.codec.rotate">0</property>
  <property name="meta.media.1.codec.frame_rate">5000</property>
  <property name="meta.media.1.codec.pix_fmt">yuv422p10le</property>
  <property name="meta.media.1.codec.sample_aspect_ratio">0</property>
  <property name="meta.media.1.codec.colorspace">709</property>
  <property name="meta.media.1.codec.color_trc">1</property>
  <property name="meta.media.1.codec.name">prores</property>
  <property name="meta.media.1.codec.long_name">ProRes</property>
  <property name="meta.media.1.codec.bit_rate">366957037</property>
  <property name="meta.attr.1.stream.creation_time.markup">2019-01-05T04:07:04.000000Z</property>
  <property name="meta.attr.1.stream.language.markup">eng</property>
  <property name="meta.attr.1.stream.handler_name.markup">Apple Alias Data Handler</property>
  <property name="meta.attr.1.stream.encoder.markup">Apple ProRes 422 HQ</property>
  <property name="meta.attr.1.stream.timecode.markup">04:07:04:29</property>
  <property name="meta.media.2.stream.type">audio</property>
  <property name="meta.media.2.codec.sample_fmt">s32</property>
  <property name="meta.media.2.codec.sample_rate">48000</property>
  <property name="meta.media.2.codec.channels">2</property>
  <property name="meta.media.2.codec.name">pcm_s24le</property>
  <property name="meta.media.2.codec.long_name">PCM signed 24-bit little-endian</property>
  <property name="meta.media.2.codec.bit_rate">2304000</property>
  <property name="meta.attr.2.stream.creation_time.markup">2019-01-05T04:07:04.000000Z</property>
  <property name="meta.attr.2.stream.language.markup">eng</property>
  <property name="meta.attr.2.stream.handler_name.markup">Apple Alias Data Handler</property>
  <property name="meta.attr.2.stream.timecode.markup">04:07:04:29</property>
  <property name="meta.attr.com.apple.proapps.manufacturer.markup">Blackmagic Design</property>
  <property name="meta.attr.com.apple.proapps.cameraName.markup">CAM1</property>
  <property name="meta.attr.com.apple.proapps.isGood.markup">0</property>
  <property name="meta.attr.com.apple.proapps.customgamma.markup">com.blackmagic-design.cinemacamera.filmlog</property>
  <property name="meta.attr.com.blackmagic-design.cinemacamera.uuid.markup">18E5E00548F94923B646613A73C01B56</property>
  <property name="meta.attr.creation_time.markup">2019-01-05T04:07:04.000000Z</property>
  <property name="meta.attr.timecode.markup">04:07:04:29</property>
  <property name="meta.media.sample_aspect_num">1</property>
  <property name="meta.media.sample_aspect_den">1</property>
  <property name="meta.media.frame_rate_num">50</property>
  <property name="meta.media.frame_rate_den">1</property>
  <property name="meta.media.colorspace">709</property>
  <property name="meta.media.color_trc">1</property>
  <property name="meta.media.width">1920</property>
  <property name="meta.media.height">1080</property>
  <property name="meta.media.top_field_first">0</property>
  <property name="meta.media.progressive">1</property>
  <filter id="filter218">
   <property name="version">0,3</property>
   <property name="mlt_service">frei0r.levels</property>
   <property name="kdenlive_id">frei0r.levels</property>
   <property name="tag">frei0r.levels</property>
   <property name="kdenlive_ix">1</property>
   <property name="kdenlive_info"/>
   <property name="Channel">0,3</property>
   <property name="Input black level">0=0</property>
   <property name="Input white level">0=1</property>
   <property name="Gamma">0=0,2</property>
   <property name="Black output">0=0,01</property>
   <property name="White output">0=0,9</property>
   <property name="Show histogram">0</property>
   <property name="Histogram position">0,3</property>
   <property name="disable">1</property>
  </filter>
 </producer>
 <producer title="Anonymous Submission" id="producer6" in="0" out="43907">
  <property name="length">00:14:38:08</property>
  <property name="eof">pause</property>
  <property name="resource">/media/bordun/plagiat2/CAM1_2019-01-05_0407_C0000.mov</property>
  <property name="audio_index">-1</property>
  <property name="video_index">-1</property>
  <property name="mute_on_pause">1</property>
  <property name="mlt_service">avformat-novalidate</property>
  <property name="seekable">1</property>
  <property name="aspect_ratio">1</property>
  <property name="kdenlive:folderid">17</property>
  <property name="kdenlive:file_size">40537867713</property>
  <property name="kdenlive:file_hash">eeb49a6f6e2626b129e2046ec649a60c</property>
  <property name="global_feed">1</property>
  <property name="xml">was here</property>
  <property name="kdenlive:binid">35</property>
  <property name="kdenlive:clipstate">0</property>
 </producer>
 <producer title="Anonymous Submission" id="producer16" in="0" out="43907">
  <property name="length">00:14:38:08</property>
  <property name="eof">pause</property>
  <property name="resource">/media/bordun/plagiat2/CAM1_2019-01-05_0407_C0000.mov</property>
  <property name="audio_index">-1</property>
  <property name="video_index">-1</property>
  <property name="mute_on_pause">1</property>
  <property name="mlt_service">avformat-novalidate</property>
  <property name="seekable">1</property>
  <property name="aspect_ratio">1</property>
  <property name="kdenlive:folderid">17</property>
  <property name="kdenlive:file_size">40537867713</property>
  <property name="kdenlive:file_hash">eeb49a6f6e2626b129e2046ec649a60c</property>
  <property name="global_feed">1</property>
  <property name="xml">was here</property>
  <property name="kdenlive:binid">35</property>
  <property name="kdenlive:clipstate">0</property>
 </producer>
 <producer title="Anonymous Submission" id="producer7" in="0" out="43907">
  <property name="length">00:14:38:08</property>
  <property name="eof">pause</property>
  <property name="resource">/media/bordun/plagiat2/CAM1_2019-01-05_0407_C0000.mov</property>
  <property name="audio_index">-1</property>
  <property name="video_index">-1</property>
  <property name="mute_on_pause">1</property>
  <property name="mlt_service">avformat-novalidate</property>
  <property name="seekable">1</property>
  <property name="aspect_ratio">1</property>
  <property name="kdenlive:folderid">17</property>
  <property name="kdenlive:file_size">40537867713</property>
  <property name="kdenlive:file_hash">eeb49a6f6e2626b129e2046ec649a60c</property>
  <property name="global_feed">1</property>
  <property name="xml">was here</property>
  <property name="kdenlive:binid">35</property>
  <property name="kdenlive:clipstate">0</property>
 </producer>
 <playlist id="playlist15">
  <property name="kdenlive:track_name">Video 13</property>
  <blank length="2381"/>
  <entry producer="48_playlist15" in="4917" out="5067">
   <filter id="filter219">
    <property name="rotate_center">1</property>
    <property name="mlt_service">qtblend</property>
    <property name="kdenlive_id">qtblend</property>
    <property name="tag">qtblend</property>
    <property name="kdenlive_ix">1</property>
    <property name="kdenlive_info"/>
    <property name="disable">0</property>
    <property name="rect">4917=3 -55 2112 1188 1;5067=-754 -478 3840 2160 1</property>
    <property name="rotation">4917=0;5067=0</property>
    <property name="compositing">0</property>
    <property name="distort">0</property>
   </filter>
  </entry>
  <blank length="2149"/>
  <entry producer="47_playlist15" in="7218" out="7257">
   <filter id="frei0r.hqdn3d">
    <property name="version">0,1</property>
    <property name="mlt_service">frei0r.hqdn3d</property>
    <property name="kdenlive_id">frei0r.hqdn3d</property>
    <property name="tag">frei0r.hqdn3d</property>
    <property name="kdenlive_ix">1</property>
    <property name="kdenlive_info"/>
    <property name="disable">1</property>
    <property name="Spatial">7256=0</property>
    <property name="Temporal">7256=0,705</property>
   </filter>
   <filter id="filter220" in="7218" out="7257">
    <property name="background">colour:0x00000000</property>
    <property name="mlt_service">affine</property>
    <property name="kdenlive_id">pan_zoom</property>
    <property name="tag">affine</property>
    <property name="kdenlive_ix">2</property>
    <property name="transition.geometry">0=-499/-195:3168x1782:100;39=-177/-642:3744x2106:100</property>
    <property name="transition.distort">0</property>
    <property name="kdenlive:sync_in_out">1</property>
    <property name="kdenlive_info"/>
   </filter>
  </entry>
  <blank length="387"/>
  <entry producer="48_playlist15" in="7660" out="7705">
   <filter id="filter221" in="7660" out="7705">
    <property name="background">colour:0x00000000</property>
    <property name="mlt_service">affine</property>
    <property name="kdenlive_id">pan_zoom</property>
    <property name="tag">affine</property>
    <property name="kdenlive_ix">1</property>
    <property name="kdenlive:sync_in_out">1</property>
    <property name="kdenlive_info"/>
    <property name="transition.geometry">-288/-324:2496x1404:100</property>
    <property name="transition.distort">0</property>
    <property name="disable">0</property>
   </filter>
  </entry>
  <blank length="1097"/>
  <entry producer="35_playlist15" in="8708" out="8739">
   <filter id="filter222" in="8708" out="8739">
    <property name="background">colour:0x00000000</property>
    <property name="mlt_service">affine</property>
    <property name="kdenlive_id">pan_zoom</property>
    <property name="tag">affine</property>
    <property name="kdenlive_ix">1</property>
    <property name="transition.geometry">-96/0:2112x1188:100</property>
    <property name="transition.distort">0</property>
    <property name="kdenlive:sync_in_out">1</property>
    <property name="kdenlive_info"/>
    <property name="disable"/>
   </filter>
  </entry>
  <blank length="150"/>
  <entry producer="producer6" in="6336" out="6367"/>
  <blank length="77"/>
  <entry producer="producer16" in="6818" out="6840"/>
  <blank length="202"/>
  <entry producer="producer7" in="6815" out="6853"/>
  <blank length="58"/>
  <entry producer="35_playlist15" in="6904" out="6955"/>
  <blank length="116"/>
  <entry producer="35_playlist15" in="7019" out="7058"/>
 </playlist>
 <producer title="Anonymous Submission" id="producer17" in="0" out="42317">
  <property name="length">00:14:06:18</property>
  <property name="eof">pause</property>
  <property name="resource">/media/bordun/plagiat2/CAM1_2019-01-05_0345_C0000.mov</property>
  <property name="audio_index">-1</property>
  <property name="video_index">-1</property>
  <property name="mute_on_pause">1</property>
  <property name="mlt_service">avformat-novalidate</property>
  <property name="seekable">1</property>
  <property name="aspect_ratio">1</property>
  <property name="kdenlive:folderid">17</property>
  <property name="kdenlive:file_size">39069915329</property>
  <property name="kdenlive:file_hash">73f4a81374204093f22cbe930d68c42b</property>
  <property name="global_feed">1</property>
  <property name="xml">was here</property>
  <property name="kdenlive:binid">48</property>
  <property name="kdenlive:clipstate">0</property>
 </producer>
 <producer title="Anonymous Submission" id="48_playlist16" in="0" out="42317">
  <property name="length">00:14:06:18</property>
  <property name="eof">pause</property>
  <property name="resource">/media/bordun/plagiat2/CAM1_2019-01-05_0345_C0000.mov</property>
  <property name="audio_index">2</property>
  <property name="video_index">1</property>
  <property name="mute_on_pause">1</property>
  <property name="mlt_service">avformat-novalidate</property>
  <property name="seekable">1</property>
  <property name="aspect_ratio">1</property>
  <property name="kdenlive:folderid">17</property>
  <property name="kdenlive:file_size">39069915329</property>
  <property name="kdenlive:file_hash">73f4a81374204093f22cbe930d68c42b</property>
  <property name="global_feed">1</property>
  <property name="xml">was here</property>
  <property name="meta.media.nb_streams">3</property>
  <property name="meta.media.1.stream.type">video</property>
  <property name="meta.media.1.stream.frame_rate">50</property>
  <property name="meta.media.1.stream.sample_aspect_ratio">1</property>
  <property name="meta.media.1.codec.width">1920</property>
  <property name="meta.media.1.codec.height">1080</property>
  <property name="meta.media.1.codec.rotate">0</property>
  <property name="meta.media.1.codec.frame_rate">5000</property>
  <property name="meta.media.1.codec.pix_fmt">yuv422p10le</property>
  <property name="meta.media.1.codec.sample_aspect_ratio">0</property>
  <property name="meta.media.1.codec.colorspace">709</property>
  <property name="meta.media.1.codec.color_trc">1</property>
  <property name="meta.media.1.codec.name">prores</property>
  <property name="meta.media.1.codec.long_name">ProRes</property>
  <property name="meta.media.1.codec.bit_rate">366957403</property>
  <property name="meta.attr.1.stream.creation_time.markup">2019-01-05T03:45:37.000000Z</property>
  <property name="meta.attr.1.stream.language.markup">eng</property>
  <property name="meta.attr.1.stream.handler_name.markup">Apple Alias Data Handler</property>
  <property name="meta.attr.1.stream.encoder.markup">Apple ProRes 422 HQ</property>
  <property name="meta.attr.1.stream.timecode.markup">03:45:37:07</property>
  <property name="meta.media.2.stream.type">audio</property>
  <property name="meta.media.2.codec.sample_fmt">s32</property>
  <property name="meta.media.2.codec.sample_rate">48000</property>
  <property name="meta.media.2.codec.channels">2</property>
  <property name="meta.media.2.codec.name">pcm_s24le</property>
  <property name="meta.media.2.codec.long_name">PCM signed 24-bit little-endian</property>
  <property name="meta.media.2.codec.bit_rate">2304000</property>
  <property name="meta.attr.2.stream.creation_time.markup">2019-01-05T03:45:37.000000Z</property>
  <property name="meta.attr.2.stream.language.markup">eng</property>
  <property name="meta.attr.2.stream.handler_name.markup">Apple Alias Data Handler</property>
  <property name="meta.attr.2.stream.timecode.markup">03:45:37:07</property>
  <property name="meta.attr.com.apple.proapps.manufacturer.markup">Blackmagic Design</property>
  <property name="meta.attr.com.apple.proapps.cameraName.markup">CAM1</property>
  <property name="meta.attr.com.apple.proapps.isGood.markup">0</property>
  <property name="meta.attr.com.apple.proapps.customgamma.markup">com.blackmagic-design.cinemacamera.filmlog</property>
  <property name="meta.attr.com.blackmagic-design.cinemacamera.uuid.markup">18E5E00548F94923B646613A73C01B56</property>
  <property name="meta.attr.creation_time.markup">2019-01-05T03:45:37.000000Z</property>
  <property name="meta.attr.timecode.markup">03:45:37:07</property>
  <property name="meta.media.sample_aspect_num">1</property>
  <property name="meta.media.sample_aspect_den">1</property>
  <property name="meta.media.frame_rate_num">50</property>
  <property name="meta.media.frame_rate_den">1</property>
  <property name="meta.media.colorspace">709</property>
  <property name="meta.media.color_trc">1</property>
  <property name="meta.media.width">1920</property>
  <property name="meta.media.height">1080</property>
  <property name="meta.media.top_field_first">0</property>
  <property name="meta.media.progressive">1</property>
  <filter id="filter223">
   <property name="version">0,3</property>
   <property name="mlt_service">frei0r.levels</property>
   <property name="kdenlive_id">frei0r.levels</property>
   <property name="tag">frei0r.levels</property>
   <property name="kdenlive_ix">1</property>
   <property name="kdenlive_info"/>
   <property name="Channel">0,3</property>
   <property name="Input black level">0=0</property>
   <property name="Input white level">0=1</property>
   <property name="Gamma">0=0,2</property>
   <property name="Black output">0=0,01</property>
   <property name="White output">0=0,9</property>
   <property name="Show histogram">0</property>
   <property name="Histogram position">0,3</property>
   <property name="disable">1</property>
  </filter>
 </producer>
 <producer title="Anonymous Submission" id="35_playlist16" in="0" out="43907">
  <property name="length">00:14:38:08</property>
  <property name="eof">pause</property>
  <property name="resource">/media/bordun/plagiat2/CAM1_2019-01-05_0407_C0000.mov</property>
  <property name="audio_index">2</property>
  <property name="video_index">1</property>
  <property name="mute_on_pause">1</property>
  <property name="mlt_service">avformat-novalidate</property>
  <property name="seekable">1</property>
  <property name="aspect_ratio">1</property>
  <property name="kdenlive:folderid">17</property>
  <property name="kdenlive:file_size">40537867713</property>
  <property name="kdenlive:file_hash">eeb49a6f6e2626b129e2046ec649a60c</property>
  <property name="global_feed">1</property>
  <property name="xml">was here</property>
  <property name="meta.media.nb_streams">3</property>
  <property name="meta.media.1.stream.type">video</property>
  <property name="meta.media.1.stream.frame_rate">50</property>
  <property name="meta.media.1.stream.sample_aspect_ratio">1</property>
  <property name="meta.media.1.codec.width">1920</property>
  <property name="meta.media.1.codec.height">1080</property>
  <property name="meta.media.1.codec.rotate">0</property>
  <property name="meta.media.1.codec.frame_rate">5000</property>
  <property name="meta.media.1.codec.pix_fmt">yuv422p10le</property>
  <property name="meta.media.1.codec.sample_aspect_ratio">0</property>
  <property name="meta.media.1.codec.colorspace">709</property>
  <property name="meta.media.1.codec.color_trc">1</property>
  <property name="meta.media.1.codec.name">prores</property>
  <property name="meta.media.1.codec.long_name">ProRes</property>
  <property name="meta.media.1.codec.bit_rate">366957037</property>
  <property name="meta.attr.1.stream.creation_time.markup">2019-01-05T04:07:04.000000Z</property>
  <property name="meta.attr.1.stream.language.markup">eng</property>
  <property name="meta.attr.1.stream.handler_name.markup">Apple Alias Data Handler</property>
  <property name="meta.attr.1.stream.encoder.markup">Apple ProRes 422 HQ</property>
  <property name="meta.attr.1.stream.timecode.markup">04:07:04:29</property>
  <property name="meta.media.2.stream.type">audio</property>
  <property name="meta.media.2.codec.sample_fmt">s32</property>
  <property name="meta.media.2.codec.sample_rate">48000</property>
  <property name="meta.media.2.codec.channels">2</property>
  <property name="meta.media.2.codec.name">pcm_s24le</property>
  <property name="meta.media.2.codec.long_name">PCM signed 24-bit little-endian</property>
  <property name="meta.media.2.codec.bit_rate">2304000</property>
  <property name="meta.attr.2.stream.creation_time.markup">2019-01-05T04:07:04.000000Z</property>
  <property name="meta.attr.2.stream.language.markup">eng</property>
  <property name="meta.attr.2.stream.handler_name.markup">Apple Alias Data Handler</property>
  <property name="meta.attr.2.stream.timecode.markup">04:07:04:29</property>
  <property name="meta.attr.com.apple.proapps.manufacturer.markup">Blackmagic Design</property>
  <property name="meta.attr.com.apple.proapps.cameraName.markup">CAM1</property>
  <property name="meta.attr.com.apple.proapps.isGood.markup">0</property>
  <property name="meta.attr.com.apple.proapps.customgamma.markup">com.blackmagic-design.cinemacamera.filmlog</property>
  <property name="meta.attr.com.blackmagic-design.cinemacamera.uuid.markup">18E5E00548F94923B646613A73C01B56</property>
  <property name="meta.attr.creation_time.markup">2019-01-05T04:07:04.000000Z</property>
  <property name="meta.attr.timecode.markup">04:07:04:29</property>
  <property name="meta.media.sample_aspect_num">1</property>
  <property name="meta.media.sample_aspect_den">1</property>
  <property name="meta.media.frame_rate_num">50</property>
  <property name="meta.media.frame_rate_den">1</property>
  <property name="meta.media.colorspace">709</property>
  <property name="meta.media.color_trc">1</property>
  <property name="meta.media.width">1920</property>
  <property name="meta.media.height">1080</property>
  <property name="meta.media.top_field_first">0</property>
  <property name="meta.media.progressive">1</property>
  <filter id="filter224">
   <property name="version">0,3</property>
   <property name="mlt_service">frei0r.levels</property>
   <property name="kdenlive_id">frei0r.levels</property>
   <property name="tag">frei0r.levels</property>
   <property name="kdenlive_ix">1</property>
   <property name="kdenlive_info"/>
   <property name="Channel">0,3</property>
   <property name="Input black level">0=0</property>
   <property name="Input white level">0=1</property>
   <property name="Gamma">0=0,2</property>
   <property name="Black output">0=0,01</property>
   <property name="White output">0=0,9</property>
   <property name="Show histogram">0</property>
   <property name="Histogram position">0,3</property>
   <property name="disable">1</property>
  </filter>
 </producer>
 <producer title="Anonymous Submission" id="producer18" in="0" out="43907">
  <property name="length">00:14:38:08</property>
  <property name="eof">pause</property>
  <property name="resource">/media/bordun/plagiat2/CAM1_2019-01-05_0407_C0000.mov</property>
  <property name="audio_index">-1</property>
  <property name="video_index">-1</property>
  <property name="mute_on_pause">1</property>
  <property name="mlt_service">avformat-novalidate</property>
  <property name="seekable">1</property>
  <property name="aspect_ratio">1</property>
  <property name="kdenlive:folderid">17</property>
  <property name="kdenlive:file_size">40537867713</property>
  <property name="kdenlive:file_hash">eeb49a6f6e2626b129e2046ec649a60c</property>
  <property name="global_feed">1</property>
  <property name="xml">was here</property>
  <property name="kdenlive:binid">35</property>
  <property name="kdenlive:clipstate">0</property>
 </producer>
 <producer title="Anonymous Submission" id="producer8" in="0" out="42317">
  <property name="length">00:14:06:18</property>
  <property name="eof">pause</property>
  <property name="resource">/media/bordun/plagiat2/CAM1_2019-01-05_0345_C0000.mov</property>
  <property name="audio_index">-1</property>
  <property name="video_index">-1</property>
  <property name="mute_on_pause">1</property>
  <property name="mlt_service">avformat-novalidate</property>
  <property name="seekable">1</property>
  <property name="aspect_ratio">1</property>
  <property name="kdenlive:folderid">17</property>
  <property name="kdenlive:file_size">39069915329</property>
  <property name="kdenlive:file_hash">73f4a81374204093f22cbe930d68c42b</property>
  <property name="global_feed">1</property>
  <property name="kdenlive:zone_in">4909</property>
  <property name="kdenlive:zone_out">4934</property>
  <property name="xml">was here</property>
  <property name="kdenlive:binid">48</property>
  <property name="kdenlive:clipstate">0</property>
  <filter id="filter225">
   <property name="version">0,3</property>
   <property name="mlt_service">frei0r.levels</property>
   <property name="kdenlive_id">frei0r.levels</property>
   <property name="tag">frei0r.levels</property>
   <property name="kdenlive_ix">1</property>
   <property name="kdenlive_info"/>
   <property name="Channel">0,3</property>
   <property name="Input black level">0=0</property>
   <property name="Input white level">0=1</property>
   <property name="Gamma">0=0,2</property>
   <property name="Black output">0=0,01</property>
   <property name="White output">0=0,9</property>
   <property name="Show histogram">0</property>
   <property name="Histogram position">0,3</property>
   <property name="disable">1</property>
  </filter>
 </producer>
 <producer title="Anonymous Submission" id="producer19" in="0" out="43907">
  <property name="length">00:14:38:08</property>
  <property name="eof">pause</property>
  <property name="resource">/media/bordun/plagiat2/CAM1_2019-01-05_0407_C0000.mov</property>
  <property name="audio_index">-1</property>
  <property name="video_index">-1</property>
  <property name="mute_on_pause">1</property>
  <property name="mlt_service">avformat-novalidate</property>
  <property name="seekable">1</property>
  <property name="aspect_ratio">1</property>
  <property name="kdenlive:folderid">17</property>
  <property name="kdenlive:file_size">40537867713</property>
  <property name="kdenlive:file_hash">eeb49a6f6e2626b129e2046ec649a60c</property>
  <property name="global_feed">1</property>
  <property name="xml">was here</property>
  <property name="kdenlive:binid">35</property>
  <property name="kdenlive:clipstate">0</property>
 </producer>
 <producer id="slowmotion:48:0,7:1:0" in="0" out="60453">
  <property name="length">60454</property>
  <property name="eof">pause</property>
  <property name="resource">0,7:/media/bordun/plagiat2/CAM1_2019-01-05_0345_C0000.mov</property>
  <property name="aspect_ratio">1</property>
  <property name="meta.media.nb_streams">3</property>
  <property name="meta.media.1.stream.type">video</property>
  <property name="meta.media.1.stream.frame_rate">50</property>
  <property name="meta.media.1.stream.sample_aspect_ratio">1</property>
  <property name="meta.media.1.codec.width">1920</property>
  <property name="meta.media.1.codec.height">1080</property>
  <property name="meta.media.1.codec.rotate">0</property>
  <property name="meta.media.1.codec.frame_rate">5000</property>
  <property name="meta.media.1.codec.pix_fmt">yuv422p10le</property>
  <property name="meta.media.1.codec.sample_aspect_ratio">0</property>
  <property name="meta.media.1.codec.colorspace">709</property>
  <property name="meta.media.1.codec.color_trc">1</property>
  <property name="meta.media.1.codec.name">prores</property>
  <property name="meta.media.1.codec.long_name">ProRes</property>
  <property name="meta.media.1.codec.bit_rate">366957403</property>
  <property name="meta.attr.1.stream.creation_time.markup">2019-01-05T03:45:37.000000Z</property>
  <property name="meta.attr.1.stream.language.markup">eng</property>
  <property name="meta.attr.1.stream.handler_name.markup">Apple Alias Data Handler</property>
  <property name="meta.attr.1.stream.encoder.markup">Apple ProRes 422 HQ</property>
  <property name="meta.attr.1.stream.timecode.markup">03:45:37:07</property>
  <property name="meta.media.2.stream.type">audio</property>
  <property name="meta.media.2.codec.sample_fmt">s32</property>
  <property name="meta.media.2.codec.sample_rate">48000</property>
  <property name="meta.media.2.codec.channels">2</property>
  <property name="meta.media.2.codec.name">pcm_s24le</property>
  <property name="meta.media.2.codec.long_name">PCM signed 24-bit little-endian</property>
  <property name="meta.media.2.codec.bit_rate">2304000</property>
  <property name="meta.attr.2.stream.creation_time.markup">2019-01-05T03:45:37.000000Z</property>
  <property name="meta.attr.2.stream.language.markup">eng</property>
  <property name="meta.attr.2.stream.handler_name.markup">Apple Alias Data Handler</property>
  <property name="meta.attr.2.stream.timecode.markup">03:45:37:07</property>
  <property name="meta.attr.com.apple.proapps.manufacturer.markup">Blackmagic Design</property>
  <property name="meta.attr.com.apple.proapps.cameraName.markup">CAM1</property>
  <property name="meta.attr.com.apple.proapps.isGood.markup">0</property>
  <property name="meta.attr.com.apple.proapps.customgamma.markup">com.blackmagic-design.cinemacamera.filmlog</property>
  <property name="meta.attr.com.blackmagic-design.cinemacamera.uuid.markup">18E5E00548F94923B646613A73C01B56</property>
  <property name="meta.attr.creation_time.markup">2019-01-05T03:45:37.000000Z</property>
  <property name="meta.attr.timecode.markup">03:45:37:07</property>
  <property name="seekable">1</property>
  <property name="meta.media.sample_aspect_num">1</property>
  <property name="meta.media.sample_aspect_den">1</property>
  <property name="audio_index">2</property>
  <property name="video_index">1</property>
  <property name="mute_on_pause">1</property>
  <property name="warp_speed">0,7</property>
  <property name="warp_resource">/media/bordun/plagiat2/CAM1_2019-01-05_0345_C0000.mov</property>
  <property name="mlt_service">timewarp</property>
  <property name="meta.media.frame_rate_num">50</property>
  <property name="meta.media.frame_rate_den">1</property>
  <property name="meta.media.colorspace">709</property>
  <property name="meta.media.color_trc">1</property>
  <property name="meta.media.width">1920</property>
  <property name="meta.media.height">1080</property>
  <property name="meta.media.top_field_first">0</property>
  <property name="meta.media.progressive">1</property>
  <filter id="filter226">
   <property name="version">0,3</property>
   <property name="mlt_service">frei0r.levels</property>
   <property name="kdenlive_id">frei0r.levels</property>
   <property name="tag">frei0r.levels</property>
   <property name="kdenlive_ix">1</property>
   <property name="kdenlive_info"/>
   <property name="Channel">0,3</property>
   <property name="Input black level">0=0</property>
   <property name="Input white level">0=1</property>
   <property name="Gamma">0=0,2</property>
   <property name="Black output">0=0,01</property>
   <property name="White output">0=0,9</property>
   <property name="Show histogram">0</property>
   <property name="Histogram position">0,3</property>
   <property name="disable">1</property>
  </filter>
 </producer>
 <producer title="Anonymous Submission" id="producer20" in="0" out="42317">
  <property name="length">00:14:06:18</property>
  <property name="eof">pause</property>
  <property name="resource">/media/bordun/plagiat2/CAM1_2019-01-05_0345_C0000.mov</property>
  <property name="audio_index">-1</property>
  <property name="video_index">-1</property>
  <property name="mute_on_pause">1</property>
  <property name="mlt_service">avformat-novalidate</property>
  <property name="seekable">1</property>
  <property name="aspect_ratio">1</property>
  <property name="kdenlive:folderid">17</property>
  <property name="kdenlive:file_size">39069915329</property>
  <property name="kdenlive:file_hash">73f4a81374204093f22cbe930d68c42b</property>
  <property name="global_feed">1</property>
  <property name="xml">was here</property>
  <property name="kdenlive:binid">48</property>
  <property name="kdenlive:clipstate">0</property>
 </producer>
 <producer id="slowmotion:48:1,5:1:0" in="0" out="28211">
  <property name="length">28212</property>
  <property name="eof">pause</property>
  <property name="resource">1,5:/media/bordun/plagiat2/CAM1_2019-01-05_0345_C0000.mov</property>
  <property name="aspect_ratio">1</property>
  <property name="meta.media.nb_streams">3</property>
  <property name="meta.media.1.stream.type">video</property>
  <property name="meta.media.1.stream.frame_rate">50</property>
  <property name="meta.media.1.stream.sample_aspect_ratio">1</property>
  <property name="meta.media.1.codec.width">1920</property>
  <property name="meta.media.1.codec.height">1080</property>
  <property name="meta.media.1.codec.rotate">0</property>
  <property name="meta.media.1.codec.frame_rate">5000</property>
  <property name="meta.media.1.codec.pix_fmt">yuv422p10le</property>
  <property name="meta.media.1.codec.sample_aspect_ratio">0</property>
  <property name="meta.media.1.codec.colorspace">709</property>
  <property name="meta.media.1.codec.color_trc">1</property>
  <property name="meta.media.1.codec.name">prores</property>
  <property name="meta.media.1.codec.long_name">ProRes</property>
  <property name="meta.media.1.codec.bit_rate">366957403</property>
  <property name="meta.attr.1.stream.creation_time.markup">2019-01-05T03:45:37.000000Z</property>
  <property name="meta.attr.1.stream.language.markup">eng</property>
  <property name="meta.attr.1.stream.handler_name.markup">Apple Alias Data Handler</property>
  <property name="meta.attr.1.stream.encoder.markup">Apple ProRes 422 HQ</property>
  <property name="meta.attr.1.stream.timecode.markup">03:45:37:07</property>
  <property name="meta.media.2.stream.type">audio</property>
  <property name="meta.media.2.codec.sample_fmt">s32</property>
  <property name="meta.media.2.codec.sample_rate">48000</property>
  <property name="meta.media.2.codec.channels">2</property>
  <property name="meta.media.2.codec.name">pcm_s24le</property>
  <property name="meta.media.2.codec.long_name">PCM signed 24-bit little-endian</property>
  <property name="meta.media.2.codec.bit_rate">2304000</property>
  <property name="meta.attr.2.stream.creation_time.markup">2019-01-05T03:45:37.000000Z</property>
  <property name="meta.attr.2.stream.language.markup">eng</property>
  <property name="meta.attr.2.stream.handler_name.markup">Apple Alias Data Handler</property>
  <property name="meta.attr.2.stream.timecode.markup">03:45:37:07</property>
  <property name="meta.attr.com.apple.proapps.manufacturer.markup">Blackmagic Design</property>
  <property name="meta.attr.com.apple.proapps.cameraName.markup">CAM1</property>
  <property name="meta.attr.com.apple.proapps.isGood.markup">0</property>
  <property name="meta.attr.com.apple.proapps.customgamma.markup">com.blackmagic-design.cinemacamera.filmlog</property>
  <property name="meta.attr.com.blackmagic-design.cinemacamera.uuid.markup">18E5E00548F94923B646613A73C01B56</property>
  <property name="meta.attr.creation_time.markup">2019-01-05T03:45:37.000000Z</property>
  <property name="meta.attr.timecode.markup">03:45:37:07</property>
  <property name="seekable">1</property>
  <property name="meta.media.sample_aspect_num">1</property>
  <property name="meta.media.sample_aspect_den">1</property>
  <property name="audio_index">2</property>
  <property name="video_index">1</property>
  <property name="mute_on_pause">1</property>
  <property name="warp_speed">1,5</property>
  <property name="warp_resource">/media/bordun/plagiat2/CAM1_2019-01-05_0345_C0000.mov</property>
  <property name="mlt_service">timewarp</property>
  <property name="meta.media.frame_rate_num">50</property>
  <property name="meta.media.frame_rate_den">1</property>
  <property name="meta.media.colorspace">709</property>
  <property name="meta.media.color_trc">1</property>
  <property name="meta.media.width">1920</property>
  <property name="meta.media.height">1080</property>
  <property name="meta.media.top_field_first">0</property>
  <property name="meta.media.progressive">1</property>
  <filter id="filter227">
   <property name="version">0,3</property>
   <property name="mlt_service">frei0r.levels</property>
   <property name="kdenlive_id">frei0r.levels</property>
   <property name="tag">frei0r.levels</property>
   <property name="kdenlive_ix">1</property>
   <property name="kdenlive_info"/>
   <property name="Channel">0,3</property>
   <property name="Input black level">0=0</property>
   <property name="Input white level">0=1</property>
   <property name="Gamma">0=0,2</property>
   <property name="Black output">0=0,01</property>
   <property name="White output">0=0,9</property>
   <property name="Show histogram">0</property>
   <property name="Histogram position">0,3</property>
   <property name="disable">1</property>
  </filter>
 </producer>
 <producer title="Anonymous Submission" id="producer10" in="0" out="22537">
  <property name="length">22538</property>
  <property name="eof">pause</property>
  <property name="resource">0,5:/media/bordun/plagiat2/CAM1_2019-01-05_0525_C0002.mov</property>
  <property name="aspect_ratio">1</property>
  <property name="meta.media.nb_streams">3</property>
  <property name="meta.media.1.stream.type">video</property>
  <property name="meta.media.1.stream.frame_rate">50</property>
  <property name="meta.media.1.stream.sample_aspect_ratio">1</property>
  <property name="meta.media.1.codec.width">1920</property>
  <property name="meta.media.1.codec.height">1080</property>
  <property name="meta.media.1.codec.rotate">0</property>
  <property name="meta.media.1.codec.frame_rate">5000</property>
  <property name="meta.media.1.codec.pix_fmt">yuv422p10le</property>
  <property name="meta.media.1.codec.sample_aspect_ratio">0</property>
  <property name="meta.media.1.codec.colorspace">709</property>
  <property name="meta.media.1.codec.color_trc">1</property>
  <property name="meta.media.1.codec.name">prores</property>
  <property name="meta.media.1.codec.long_name">ProRes</property>
  <property name="meta.media.1.codec.bit_rate">366958989</property>
  <property name="meta.attr.1.stream.creation_time.markup">2019-01-05T05:25:34.000000Z</property>
  <property name="meta.attr.1.stream.language.markup">eng</property>
  <property name="meta.attr.1.stream.handler_name.markup">Apple Alias Data Handler</property>
  <property name="meta.attr.1.stream.encoder.markup">Apple ProRes 422 HQ</property>
  <property name="meta.attr.1.stream.timecode.markup">05:25:34:21</property>
  <property name="meta.media.2.stream.type">audio</property>
  <property name="meta.media.2.codec.sample_fmt">s32</property>
  <property name="meta.media.2.codec.sample_rate">48000</property>
  <property name="meta.media.2.codec.channels">2</property>
  <property name="meta.media.2.codec.name">pcm_s24le</property>
  <property name="meta.media.2.codec.long_name">PCM signed 24-bit little-endian</property>
  <property name="meta.media.2.codec.bit_rate">2304000</property>
  <property name="meta.attr.2.stream.creation_time.markup">2019-01-05T05:25:34.000000Z</property>
  <property name="meta.attr.2.stream.language.markup">eng</property>
  <property name="meta.attr.2.stream.handler_name.markup">Apple Alias Data Handler</property>
  <property name="meta.attr.2.stream.timecode.markup">05:25:34:21</property>
  <property name="meta.attr.com.apple.proapps.manufacturer.markup">Blackmagic Design</property>
  <property name="meta.attr.com.apple.proapps.cameraName.markup">CAM1</property>
  <property name="meta.attr.com.apple.proapps.isGood.markup">0</property>
  <property name="meta.attr.com.apple.proapps.customgamma.markup">com.blackmagic-design.cinemacamera.filmlog</property>
  <property name="meta.attr.com.blackmagic-design.cinemacamera.uuid.markup">18E5E00548F94923B646613A73C01B56</property>
  <property name="meta.attr.creation_time.markup">2019-01-05T05:25:34.000000Z</property>
  <property name="meta.attr.timecode.markup">05:25:34:21</property>
  <property name="seekable">1</property>
  <property name="meta.media.sample_aspect_num">1</property>
  <property name="meta.media.sample_aspect_den">1</property>
  <property name="audio_index">-1</property>
  <property name="video_index">-1</property>
  <property name="mute_on_pause">1</property>
  <property name="warp_speed">0,5</property>
  <property name="warp_resource">/media/bordun/plagiat2/CAM1_2019-01-05_0525_C0002.mov</property>
  <property name="mlt_service">timewarp</property>
  <property name="global_feed">1</property>
  <property name="xml">was here</property>
  <property name="kdenlive:binid">slowmotion:47:0,5:1:3</property>
  <property name="kdenlive:clipstate">0</property>
 </producer>
 <producer title="Anonymous Submission" id="producer21" in="0" out="42317">
  <property name="length">00:14:06:18</property>
  <property name="eof">pause</property>
  <property name="resource">/media/bordun/plagiat2/CAM1_2019-01-05_0345_C0000.mov</property>
  <property name="audio_index">-1</property>
  <property name="video_index">-1</property>
  <property name="mute_on_pause">1</property>
  <property name="mlt_service">avformat-novalidate</property>
  <property name="seekable">1</property>
  <property name="aspect_ratio">1</property>
  <property name="kdenlive:folderid">17</property>
  <property name="kdenlive:file_size">39069915329</property>
  <property name="kdenlive:file_hash">73f4a81374204093f22cbe930d68c42b</property>
  <property name="global_feed">1</property>
  <property name="xml">was here</property>
  <property name="kdenlive:binid">48</property>
  <property name="kdenlive:clipstate">0</property>
 </producer>
 <producer id="slowmotion:48:0,6:1:0" in="0" out="70529">
  <property name="length">70530</property>
  <property name="eof">pause</property>
  <property name="resource">0,6:/media/bordun/plagiat2/CAM1_2019-01-05_0345_C0000.mov</property>
  <property name="aspect_ratio">1</property>
  <property name="meta.media.nb_streams">3</property>
  <property name="meta.media.1.stream.type">video</property>
  <property name="meta.media.1.stream.frame_rate">50</property>
  <property name="meta.media.1.stream.sample_aspect_ratio">1</property>
  <property name="meta.media.1.codec.width">1920</property>
  <property name="meta.media.1.codec.height">1080</property>
  <property name="meta.media.1.codec.rotate">0</property>
  <property name="meta.media.1.codec.frame_rate">5000</property>
  <property name="meta.media.1.codec.pix_fmt">yuv422p10le</property>
  <property name="meta.media.1.codec.sample_aspect_ratio">0</property>
  <property name="meta.media.1.codec.colorspace">709</property>
  <property name="meta.media.1.codec.color_trc">1</property>
  <property name="meta.media.1.codec.name">prores</property>
  <property name="meta.media.1.codec.long_name">ProRes</property>
  <property name="meta.media.1.codec.bit_rate">366957403</property>
  <property name="meta.attr.1.stream.creation_time.markup">2019-01-05T03:45:37.000000Z</property>
  <property name="meta.attr.1.stream.language.markup">eng</property>
  <property name="meta.attr.1.stream.handler_name.markup">Apple Alias Data Handler</property>
  <property name="meta.attr.1.stream.encoder.markup">Apple ProRes 422 HQ</property>
  <property name="meta.attr.1.stream.timecode.markup">03:45:37:07</property>
  <property name="meta.media.2.stream.type">audio</property>
  <property name="meta.media.2.codec.sample_fmt">s32</property>
  <property name="meta.media.2.codec.sample_rate">48000</property>
  <property name="meta.media.2.codec.channels">2</property>
  <property name="meta.media.2.codec.name">pcm_s24le</property>
  <property name="meta.media.2.codec.long_name">PCM signed 24-bit little-endian</property>
  <property name="meta.media.2.codec.bit_rate">2304000</property>
  <property name="meta.attr.2.stream.creation_time.markup">2019-01-05T03:45:37.000000Z</property>
  <property name="meta.attr.2.stream.language.markup">eng</property>
  <property name="meta.attr.2.stream.handler_name.markup">Apple Alias Data Handler</property>
  <property name="meta.attr.2.stream.timecode.markup">03:45:37:07</property>
  <property name="meta.attr.com.apple.proapps.manufacturer.markup">Blackmagic Design</property>
  <property name="meta.attr.com.apple.proapps.cameraName.markup">CAM1</property>
  <property name="meta.attr.com.apple.proapps.isGood.markup">0</property>
  <property name="meta.attr.com.apple.proapps.customgamma.markup">com.blackmagic-design.cinemacamera.filmlog</property>
  <property name="meta.attr.com.blackmagic-design.cinemacamera.uuid.markup">18E5E00548F94923B646613A73C01B56</property>
  <property name="meta.attr.creation_time.markup">2019-01-05T03:45:37.000000Z</property>
  <property name="meta.attr.timecode.markup">03:45:37:07</property>
  <property name="seekable">1</property>
  <property name="meta.media.sample_aspect_num">1</property>
  <property name="meta.media.sample_aspect_den">1</property>
  <property name="audio_index">2</property>
  <property name="video_index">1</property>
  <property name="mute_on_pause">1</property>
  <property name="warp_speed">0,6</property>
  <property name="warp_resource">/media/bordun/plagiat2/CAM1_2019-01-05_0345_C0000.mov</property>
  <property name="mlt_service">timewarp</property>
  <property name="meta.media.frame_rate_num">50</property>
  <property name="meta.media.frame_rate_den">1</property>
  <property name="meta.media.colorspace">709</property>
  <property name="meta.media.color_trc">1</property>
  <property name="meta.media.width">1920</property>
  <property name="meta.media.height">1080</property>
  <property name="meta.media.top_field_first">0</property>
  <property name="meta.media.progressive">1</property>
  <filter id="filter228">
   <property name="version">0,3</property>
   <property name="mlt_service">frei0r.levels</property>
   <property name="kdenlive_id">frei0r.levels</property>
   <property name="tag">frei0r.levels</property>
   <property name="kdenlive_ix">1</property>
   <property name="kdenlive_info"/>
   <property name="Channel">0,3</property>
   <property name="Input black level">0=0</property>
   <property name="Input white level">0=1</property>
   <property name="Gamma">0=0,2</property>
   <property name="Black output">0=0,01</property>
   <property name="White output">0=0,9</property>
   <property name="Show histogram">0</property>
   <property name="Histogram position">0,3</property>
   <property name="disable">1</property>
  </filter>
 </producer>
 <producer title="Anonymous Submission" id="producer15" in="0" out="43907">
  <property name="length">00:14:38:08</property>
  <property name="eof">pause</property>
  <property name="resource">/media/bordun/plagiat2/CAM1_2019-01-05_0407_C0000.mov</property>
  <property name="audio_index">-1</property>
  <property name="video_index">-1</property>
  <property name="mute_on_pause">1</property>
  <property name="mlt_service">avformat-novalidate</property>
  <property name="seekable">1</property>
  <property name="aspect_ratio">1</property>
  <property name="kdenlive:folderid">17</property>
  <property name="kdenlive:file_size">40537867713</property>
  <property name="kdenlive:file_hash">eeb49a6f6e2626b129e2046ec649a60c</property>
  <property name="global_feed">1</property>
  <property name="xml">was here</property>
  <property name="kdenlive:binid">35</property>
  <property name="kdenlive:clipstate">0</property>
 </producer>
 <producer title="Anonymous Submission" id="22_playlist16" in="0" out="2303">
  <property name="length">00:00:46:04</property>
  <property name="eof">pause</property>
  <property name="resource">/media/bordun/plagiat/2018-12-10_Plagiat_RespecteLaPuissancePapale/Carte_4/CAM1_2018-12-10_1921_C0005.mov</property>
  <property name="audio_index">2</property>
  <property name="video_index">1</property>
  <property name="mute_on_pause">1</property>
  <property name="mlt_service">avformat-novalidate</property>
  <property name="seekable">1</property>
  <property name="aspect_ratio">1</property>
  <property name="kdenlive:folderid">13</property>
  <property name="kdenlive:file_size">2127176129</property>
  <property name="kdenlive:file_hash">498399b1185fccb66f9150f51f3e9c22</property>
  <property name="global_feed">1</property>
  <property name="xml">was here</property>
  <property name="meta.media.nb_streams">3</property>
  <property name="meta.media.1.stream.type">video</property>
  <property name="meta.media.1.stream.frame_rate">50</property>
  <property name="meta.media.1.stream.sample_aspect_ratio">1</property>
  <property name="meta.media.1.codec.width">1920</property>
  <property name="meta.media.1.codec.height">1080</property>
  <property name="meta.media.1.codec.rotate">0</property>
  <property name="meta.media.1.codec.frame_rate">5000</property>
  <property name="meta.media.1.codec.pix_fmt">yuv422p10le</property>
  <property name="meta.media.1.codec.sample_aspect_ratio">0</property>
  <property name="meta.media.1.codec.colorspace">709</property>
  <property name="meta.media.1.codec.color_trc">1</property>
  <property name="meta.media.1.codec.name">prores</property>
  <property name="meta.media.1.codec.long_name">ProRes</property>
  <property name="meta.media.1.codec.bit_rate">366955247</property>
  <property name="meta.attr.1.stream.creation_time.markup">2018-12-10T19:21:23.000000Z</property>
  <property name="meta.attr.1.stream.language.markup">eng</property>
  <property name="meta.attr.1.stream.handler_name.markup">Apple Alias Data Handler</property>
  <property name="meta.attr.1.stream.encoder.markup">Apple ProRes 422 HQ</property>
  <property name="meta.attr.1.stream.timecode.markup">19:21:23:42</property>
  <property name="meta.media.2.stream.type">audio</property>
  <property name="meta.media.2.codec.sample_fmt">s32</property>
  <property name="meta.media.2.codec.sample_rate">48000</property>
  <property name="meta.media.2.codec.channels">2</property>
  <property name="meta.media.2.codec.name">pcm_s24le</property>
  <property name="meta.media.2.codec.long_name">PCM signed 24-bit little-endian</property>
  <property name="meta.media.2.codec.bit_rate">2304000</property>
  <property name="meta.attr.2.stream.creation_time.markup">2018-12-10T19:21:23.000000Z</property>
  <property name="meta.attr.2.stream.language.markup">eng</property>
  <property name="meta.attr.2.stream.handler_name.markup">Apple Alias Data Handler</property>
  <property name="meta.attr.2.stream.timecode.markup">19:21:23:42</property>
  <property name="meta.attr.com.apple.proapps.manufacturer.markup">Blackmagic Design</property>
  <property name="meta.attr.com.apple.proapps.cameraName.markup">CAM1</property>
  <property name="meta.attr.com.apple.proapps.isGood.markup">0</property>
  <property name="meta.attr.com.apple.proapps.customgamma.markup">com.blackmagic-design.cinemacamera.filmlog</property>
  <property name="meta.attr.com.blackmagic-design.cinemacamera.uuid.markup">18E5E00548F94923B646613A73C01B56</property>
  <property name="meta.attr.creation_time.markup">2018-12-10T19:21:23.000000Z</property>
  <property name="meta.attr.timecode.markup">19:21:23:42</property>
  <property name="meta.media.sample_aspect_num">1</property>
  <property name="meta.media.sample_aspect_den">1</property>
  <property name="meta.media.frame_rate_num">50</property>
  <property name="meta.media.frame_rate_den">1</property>
  <property name="meta.media.colorspace">709</property>
  <property name="meta.media.color_trc">1</property>
  <property name="meta.media.width">1920</property>
  <property name="meta.media.height">1080</property>
  <property name="meta.media.top_field_first">0</property>
  <property name="meta.media.progressive">1</property>
 </producer>
 <playlist id="playlist16">
  <property name="kdenlive:track_name">Video 14</property>
  <blank length="334"/>
  <entry producer="producer17" in="9397" out="9440"/>
  <blank length="586"/>
  <entry producer="48_playlist16" in="3501" out="3520"/>
  <entry producer="48_playlist16" in="3521" out="3570">
   <filter id="filter229" in="3521" out="3573">
    <property name="background">colour:0x00000000</property>
    <property name="mlt_service">affine</property>
    <property name="kdenlive_id">pan_zoom</property>
    <property name="tag">affine</property>
    <property name="kdenlive_ix">1</property>
    <property name="transition.geometry">0/-162:2496x1404:100</property>
    <property name="transition.distort">0</property>
    <property name="kdenlive:sync_in_out">1</property>
    <property name="kdenlive_info"/>
    <property name="disable"/>
   </filter>
  </entry>
  <blank length="318"/>
  <entry producer="35_playlist16" in="5047" out="5081"/>
  <entry producer="35_playlist16" in="5082" out="5091"/>
  <blank length="155"/>
  <entry producer="producer18" in="5249" out="5283">
   <filter id="filter230">
    <property name="rotate_center">1</property>
    <property name="mlt_service">qtblend</property>
    <property name="kdenlive_id">qtblend</property>
    <property name="tag">qtblend</property>
    <property name="kdenlive_ix">1</property>
    <property name="rect">5162=-1130 -277 3072 1728 1</property>
    <property name="rotation">5162=-2</property>
    <property name="compositing">0</property>
    <property name="distort">0</property>
    <property name="kdenlive_info"/>
    <property name="disable"/>
   </filter>
  </entry>
  <blank length="239"/>
  <entry producer="35_playlist16" in="5528" out="5578">
   <filter id="filter231" in="5522" out="5586">
    <property name="background">colour:0x00000000</property>
    <property name="mlt_service">affine</property>
    <property name="kdenlive_id">pan_zoom</property>
    <property name="tag">affine</property>
    <property name="kdenlive_ix">1</property>
    <property name="transition.geometry">0=-1152/-80:3072x1728:100;50=-1344/-327:3264x1836:100</property>
    <property name="transition.distort">0</property>
    <property name="kdenlive:sync_in_out">1</property>
    <property name="kdenlive_info"/>
    <property name="disable">0</property>
   </filter>
  </entry>
  <blank length="156"/>
  <entry producer="35_playlist16" in="5721" out="5777"/>
  <blank length="45"/>
  <entry producer="35_playlist16" in="8432" out="8454">
   <filter id="filter232" in="8432" out="8454">
    <property name="background">colour:0x00000000</property>
    <property name="mlt_service">affine</property>
    <property name="kdenlive_id">pan_zoom</property>
    <property name="tag">affine</property>
    <property name="kdenlive_ix">1</property>
    <property name="transition.geometry">2/-162:2496x1404:100</property>
    <property name="transition.distort">0</property>
    <property name="kdenlive:sync_in_out">1</property>
    <property name="kdenlive_info"/>
    <property name="disable">0</property>
   </filter>
  </entry>
  <blank length="223"/>
  <entry producer="producer8" in="4909" out="4933">
   <filter id="filter233" in="4909" out="4933">
    <property name="background">colour:0x00000000</property>
    <property name="mlt_service">affine</property>
    <property name="kdenlive_id">pan_zoom</property>
    <property name="tag">affine</property>
    <property name="kdenlive_ix">1</property>
    <property name="transition.geometry">0=0/0:1920x1080:100;24=-96/-54:2112x1188:100</property>
    <property name="transition.distort">0</property>
    <property name="kdenlive:sync_in_out">1</property>
    <property name="kdenlive_info"/>
    <property name="disable">1</property>
   </filter>
   <filter id="filter234">
    <property name="rotate_center">1</property>
    <property name="mlt_service">qtblend</property>
    <property name="kdenlive_id">qtblend</property>
    <property name="tag">qtblend</property>
    <property name="kdenlive_ix">2</property>
    <property name="rect">4909=-96 -54 2112 1188 1;4933=-288 -162 2496 1404 1</property>
    <property name="rotation">4909=-1;4933=-1</property>
    <property name="compositing">0</property>
    <property name="distort">0</property>
    <property name="kdenlive_info"/>
    <property name="disable">0</property>
   </filter>
  </entry>
  <blank length="97"/>
  <entry producer="producer19" in="6211" out="6236"/>
  <blank length="232"/>
  <entry producer="slowmotion:48:0,7:1:0" in="7564" out="7611">
   <filter id="filter235" in="7564" out="7611">
    <property name="background">colour:0x00000000</property>
    <property name="mlt_service">affine</property>
    <property name="kdenlive_id">pan_zoom</property>
    <property name="tag">affine</property>
    <property name="kdenlive_ix">2</property>
    <property name="transition.geometry">0=-384/-108:2304x1296:100;2=-384/-108:2304x1296:100;7=-430/-128:2400x1350:100</property>
    <property name="transition.distort">0</property>
    <property name="kdenlive:sync_in_out">1</property>
    <property name="kdenlive_info"/>
    <property name="disable">0</property>
   </filter>
  </entry>
  <blank length="284"/>
  <entry producer="slowmotion:48:0,7:1:0" in="8103" out="8147">
   <filter id="filter236" in="8103" out="8147">
    <property name="background">colour:0x00000000</property>
    <property name="mlt_service">affine</property>
    <property name="kdenlive_id">pan_zoom</property>
    <property name="tag">affine</property>
    <property name="kdenlive_ix">2</property>
    <property name="transition.geometry">-192/-108:2304x1296:100</property>
    <property name="transition.distort">0</property>
    <property name="kdenlive:sync_in_out">1</property>
    <property name="kdenlive_info"/>
   </filter>
  </entry>
  <blank length="113"/>
  <entry producer="slowmotion:48:0,7:1:0" in="8655" out="8680"/>
  <blank length="185"/>
  <entry producer="producer20" in="6388" out="6413"/>
  <entry producer="slowmotion:48:1,5:1:0" in="4280" out="4304">
   <filter id="filter237" in="4280" out="4304">
    <property name="background">colour:0x00000000</property>
    <property name="mlt_service">affine</property>
    <property name="kdenlive_id">pan_zoom</property>
    <property name="tag">affine</property>
    <property name="kdenlive_ix">2</property>
    <property name="transition.geometry">-192/-216:2304x1296:100</property>
    <property name="transition.distort">0</property>
    <property name="kdenlive:sync_in_out">1</property>
    <property name="kdenlive_info"/>
    <property name="disable"/>
   </filter>
  </entry>
  <blank length="1168"/>
  <entry producer="producer10" in="14436" out="14475">
   <filter id="filter238" in="14436" out="14475">
    <property name="background">colour:0x00000000</property>
    <property name="mlt_service">affine</property>
    <property name="kdenlive_id">pan_zoom</property>
    <property name="tag">affine</property>
    <property name="kdenlive_info"/>
    <property name="kdenlive_ix">2</property>
    <property name="disable">0</property>
    <property name="transition.geometry">0=-419/-325:3072x1728:100;38=-154/-441:3072x1728:100</property>
    <property name="transition.distort">0</property>
    <property name="kdenlive:sync_in_out">1</property>
   </filter>
   <filter id="filter239">
    <property name="version">0,1</property>
    <property name="mlt_service">frei0r.hqdn3d</property>
    <property name="kdenlive_id">frei0r.hqdn3d</property>
    <property name="tag">frei0r.hqdn3d</property>
    <property name="kdenlive_info"/>
    <property name="kdenlive_ix">3</property>
    <property name="disable">0</property>
    <property name="Spatial">14436=0</property>
    <property name="Temporal">14436=0,705</property>
   </filter>
  </entry>
  <blank length="387"/>
  <entry producer="producer21" in="7685" out="7705">
   <filter id="filter240" in="7685" out="7705">
    <property name="background">colour:0x00000000</property>
    <property name="mlt_service">affine</property>
    <property name="kdenlive_id">pan_zoom</property>
    <property name="tag">affine</property>
    <property name="kdenlive_ix">1</property>
    <property name="transition.geometry">-288/-324:2496x1404:100</property>
    <property name="transition.distort">0</property>
    <property name="kdenlive:sync_in_out">1</property>
    <property name="kdenlive_info"/>
   </filter>
  </entry>
  <blank length="189"/>
  <entry producer="slowmotion:48:0,6:1:0" in="12886" out="12961">
   <filter id="filter241" in="12886" out="12961">
    <property name="background">colour:0x00000000</property>
    <property name="mlt_service">affine</property>
    <property name="kdenlive_id">pan_zoom</property>
    <property name="tag">affine</property>
    <property name="kdenlive_info"/>
    <property name="kdenlive_ix">2</property>
    <property name="disable"/>
    <property name="transition.geometry">0=-469/-446:2880x1620:100;75=-160/-225:2304x1296:100</property>
    <property name="transition.distort">0</property>
    <property name="kdenlive:sync_in_out">1</property>
   </filter>
  </entry>
  <blank length="43"/>
  <entry producer="48_playlist16" in="7971" out="8015"/>
  <blank length="1054"/>
  <entry producer="producer15" in="6336" out="6364">
   <filter id="filter242" in="6336" out="6364">
    <property name="background">colour:0x00000000</property>
    <property name="mlt_service">affine</property>
    <property name="kdenlive_id">pan_zoom</property>
    <property name="tag">affine</property>
    <property name="kdenlive_ix">1</property>
    <property name="transition.geometry">0/-540:2880x1620:100</property>
    <property name="transition.distort">0</property>
    <property name="kdenlive:sync_in_out">1</property>
    <property name="kdenlive_info"/>
   </filter>
  </entry>
  <blank length="3117"/>
  <entry producer="22_playlist16" in="306" out="427"/>
  <blank length="37"/>
  <entry producer="22_playlist16" in="428" out="496"/>
  <blank length="23"/>
  <entry producer="22_playlist16" in="514" out="692"/>
  <blank length="37"/>
  <entry producer="22_playlist16" in="773" out="899"/>
  <blank length="16"/>
  <entry producer="22_playlist16" in="944" out="1010"/>
  <blank length="48"/>
  <entry producer="22_playlist16" in="1615" out="2028"/>
 </playlist>
 <producer title="Anonymous Submission" id="48_playlist17" in="0" out="42317">
  <property name="length">00:14:06:18</property>
  <property name="eof">pause</property>
  <property name="resource">/media/bordun/plagiat2/CAM1_2019-01-05_0345_C0000.mov</property>
  <property name="audio_index">2</property>
  <property name="video_index">1</property>
  <property name="mute_on_pause">1</property>
  <property name="mlt_service">avformat-novalidate</property>
  <property name="seekable">1</property>
  <property name="aspect_ratio">1</property>
  <property name="kdenlive:folderid">17</property>
  <property name="kdenlive:file_size">39069915329</property>
  <property name="kdenlive:file_hash">73f4a81374204093f22cbe930d68c42b</property>
  <property name="global_feed">1</property>
  <property name="xml">was here</property>
  <property name="meta.media.nb_streams">3</property>
  <property name="meta.media.1.stream.type">video</property>
  <property name="meta.media.1.stream.frame_rate">50</property>
  <property name="meta.media.1.stream.sample_aspect_ratio">1</property>
  <property name="meta.media.1.codec.width">1920</property>
  <property name="meta.media.1.codec.height">1080</property>
  <property name="meta.media.1.codec.rotate">0</property>
  <property name="meta.media.1.codec.frame_rate">5000</property>
  <property name="meta.media.1.codec.pix_fmt">yuv422p10le</property>
  <property name="meta.media.1.codec.sample_aspect_ratio">0</property>
  <property name="meta.media.1.codec.colorspace">709</property>
  <property name="meta.media.1.codec.color_trc">1</property>
  <property name="meta.media.1.codec.name">prores</property>
  <property name="meta.media.1.codec.long_name">ProRes</property>
  <property name="meta.media.1.codec.bit_rate">366957403</property>
  <property name="meta.attr.1.stream.creation_time.markup">2019-01-05T03:45:37.000000Z</property>
  <property name="meta.attr.1.stream.language.markup">eng</property>
  <property name="meta.attr.1.stream.handler_name.markup">Apple Alias Data Handler</property>
  <property name="meta.attr.1.stream.encoder.markup">Apple ProRes 422 HQ</property>
  <property name="meta.attr.1.stream.timecode.markup">03:45:37:07</property>
  <property name="meta.media.2.stream.type">audio</property>
  <property name="meta.media.2.codec.sample_fmt">s32</property>
  <property name="meta.media.2.codec.sample_rate">48000</property>
  <property name="meta.media.2.codec.channels">2</property>
  <property name="meta.media.2.codec.name">pcm_s24le</property>
  <property name="meta.media.2.codec.long_name">PCM signed 24-bit little-endian</property>
  <property name="meta.media.2.codec.bit_rate">2304000</property>
  <property name="meta.attr.2.stream.creation_time.markup">2019-01-05T03:45:37.000000Z</property>
  <property name="meta.attr.2.stream.language.markup">eng</property>
  <property name="meta.attr.2.stream.handler_name.markup">Apple Alias Data Handler</property>
  <property name="meta.attr.2.stream.timecode.markup">03:45:37:07</property>
  <property name="meta.attr.com.apple.proapps.manufacturer.markup">Blackmagic Design</property>
  <property name="meta.attr.com.apple.proapps.cameraName.markup">CAM1</property>
  <property name="meta.attr.com.apple.proapps.isGood.markup">0</property>
  <property name="meta.attr.com.apple.proapps.customgamma.markup">com.blackmagic-design.cinemacamera.filmlog</property>
  <property name="meta.attr.com.blackmagic-design.cinemacamera.uuid.markup">18E5E00548F94923B646613A73C01B56</property>
  <property name="meta.attr.creation_time.markup">2019-01-05T03:45:37.000000Z</property>
  <property name="meta.attr.timecode.markup">03:45:37:07</property>
  <property name="meta.media.sample_aspect_num">1</property>
  <property name="meta.media.sample_aspect_den">1</property>
  <property name="meta.media.frame_rate_num">50</property>
  <property name="meta.media.frame_rate_den">1</property>
  <property name="meta.media.colorspace">709</property>
  <property name="meta.media.color_trc">1</property>
  <property name="meta.media.width">1920</property>
  <property name="meta.media.height">1080</property>
  <property name="meta.media.top_field_first">0</property>
  <property name="meta.media.progressive">1</property>
  <filter id="filter243">
   <property name="version">0,3</property>
   <property name="mlt_service">frei0r.levels</property>
   <property name="kdenlive_id">frei0r.levels</property>
   <property name="tag">frei0r.levels</property>
   <property name="kdenlive_ix">1</property>
   <property name="kdenlive_info"/>
   <property name="Channel">0,3</property>
   <property name="Input black level">0=0</property>
   <property name="Input white level">0=1</property>
   <property name="Gamma">0=0,2</property>
   <property name="Black output">0=0,01</property>
   <property name="White output">0=0,9</property>
   <property name="Show histogram">0</property>
   <property name="Histogram position">0,3</property>
   <property name="disable">1</property>
  </filter>
 </producer>
 <playlist id="playlist17">
  <property name="kdenlive:track_name">Video 15</property>
  <entry producer="48_playlist17" in="2575" out="3558"/>
  <blank length="25"/>
  <entry producer="48_playlist17" in="3584" out="4884"/>
  <blank length="121"/>
  <entry producer="48_playlist17" in="5007" out="5294"/>
  <blank length="60"/>
  <entry producer="48_playlist17" in="5355" out="5668"/>
  <blank length="27"/>
  <entry producer="48_playlist17" in="5696" out="5793"/>
  <blank length="30"/>
  <entry producer="48_playlist17" in="5824" out="6065"/>
  <entry producer="48_playlist17" in="6066" out="6097"/>
  <entry producer="48_playlist17" in="6098" out="6406"/>
  <entry producer="48_playlist17" in="6407" out="6517"/>
  <entry producer="48_playlist17" in="6518" out="6557"/>
  <entry producer="48_playlist17" in="6558" out="7614"/>
  <blank length="161"/>
  <entry producer="48_playlist17" in="7776" out="7866"/>
  <blank length="35"/>
  <entry producer="48_playlist17" in="7902" out="7970"/>
  <blank length="13"/>
  <entry producer="48_playlist17" in="7971" out="9396"/>
  <blank length="46"/>
  <entry producer="48_playlist17" in="9442" out="10125"/>
  <entry producer="48_playlist17" in="10126" out="10235"/>
  <entry producer="48_playlist17" in="10236" out="11370"/>
  <entry producer="48_playlist17" in="11105" out="42317"/>
 </playlist>
 <producer title="Anonymous Submission" id="35_playlist18" in="0" out="43907">
  <property name="length">00:14:38:08</property>
  <property name="eof">pause</property>
  <property name="resource">/media/bordun/plagiat2/CAM1_2019-01-05_0407_C0000.mov</property>
  <property name="audio_index">2</property>
  <property name="video_index">1</property>
  <property name="mute_on_pause">1</property>
  <property name="mlt_service">avformat-novalidate</property>
  <property name="seekable">1</property>
  <property name="aspect_ratio">1</property>
  <property name="kdenlive:folderid">17</property>
  <property name="kdenlive:file_size">40537867713</property>
  <property name="kdenlive:file_hash">eeb49a6f6e2626b129e2046ec649a60c</property>
  <property name="global_feed">1</property>
  <property name="xml">was here</property>
  <property name="meta.media.nb_streams">3</property>
  <property name="meta.media.1.stream.type">video</property>
  <property name="meta.media.1.stream.frame_rate">50</property>
  <property name="meta.media.1.stream.sample_aspect_ratio">1</property>
  <property name="meta.media.1.codec.width">1920</property>
  <property name="meta.media.1.codec.height">1080</property>
  <property name="meta.media.1.codec.rotate">0</property>
  <property name="meta.media.1.codec.frame_rate">5000</property>
  <property name="meta.media.1.codec.pix_fmt">yuv422p10le</property>
  <property name="meta.media.1.codec.sample_aspect_ratio">0</property>
  <property name="meta.media.1.codec.colorspace">709</property>
  <property name="meta.media.1.codec.color_trc">1</property>
  <property name="meta.media.1.codec.name">prores</property>
  <property name="meta.media.1.codec.long_name">ProRes</property>
  <property name="meta.media.1.codec.bit_rate">366957037</property>
  <property name="meta.attr.1.stream.creation_time.markup">2019-01-05T04:07:04.000000Z</property>
  <property name="meta.attr.1.stream.language.markup">eng</property>
  <property name="meta.attr.1.stream.handler_name.markup">Apple Alias Data Handler</property>
  <property name="meta.attr.1.stream.encoder.markup">Apple ProRes 422 HQ</property>
  <property name="meta.attr.1.stream.timecode.markup">04:07:04:29</property>
  <property name="meta.media.2.stream.type">audio</property>
  <property name="meta.media.2.codec.sample_fmt">s32</property>
  <property name="meta.media.2.codec.sample_rate">48000</property>
  <property name="meta.media.2.codec.channels">2</property>
  <property name="meta.media.2.codec.name">pcm_s24le</property>
  <property name="meta.media.2.codec.long_name">PCM signed 24-bit little-endian</property>
  <property name="meta.media.2.codec.bit_rate">2304000</property>
  <property name="meta.attr.2.stream.creation_time.markup">2019-01-05T04:07:04.000000Z</property>
  <property name="meta.attr.2.stream.language.markup">eng</property>
  <property name="meta.attr.2.stream.handler_name.markup">Apple Alias Data Handler</property>
  <property name="meta.attr.2.stream.timecode.markup">04:07:04:29</property>
  <property name="meta.attr.com.apple.proapps.manufacturer.markup">Blackmagic Design</property>
  <property name="meta.attr.com.apple.proapps.cameraName.markup">CAM1</property>
  <property name="meta.attr.com.apple.proapps.isGood.markup">0</property>
  <property name="meta.attr.com.apple.proapps.customgamma.markup">com.blackmagic-design.cinemacamera.filmlog</property>
  <property name="meta.attr.com.blackmagic-design.cinemacamera.uuid.markup">18E5E00548F94923B646613A73C01B56</property>
  <property name="meta.attr.creation_time.markup">2019-01-05T04:07:04.000000Z</property>
  <property name="meta.attr.timecode.markup">04:07:04:29</property>
  <property name="meta.media.sample_aspect_num">1</property>
  <property name="meta.media.sample_aspect_den">1</property>
  <property name="meta.media.frame_rate_num">50</property>
  <property name="meta.media.frame_rate_den">1</property>
  <property name="meta.media.colorspace">709</property>
  <property name="meta.media.color_trc">1</property>
  <property name="meta.media.width">1920</property>
  <property name="meta.media.height">1080</property>
  <property name="meta.media.top_field_first">0</property>
  <property name="meta.media.progressive">1</property>
  <filter id="filter244">
   <property name="version">0,3</property>
   <property name="mlt_service">frei0r.levels</property>
   <property name="kdenlive_id">frei0r.levels</property>
   <property name="tag">frei0r.levels</property>
   <property name="kdenlive_ix">1</property>
   <property name="kdenlive_info"/>
   <property name="Channel">0,3</property>
   <property name="Input black level">0=0</property>
   <property name="Input white level">0=1</property>
   <property name="Gamma">0=0,2</property>
   <property name="Black output">0=0,01</property>
   <property name="White output">0=0,9</property>
   <property name="Show histogram">0</property>
   <property name="Histogram position">0,3</property>
   <property name="disable">1</property>
  </filter>
 </producer>
 <producer title="Anonymous Submission" id="47_playlist18" in="0" out="11268">
  <property name="length">00:03:45:19</property>
  <property name="eof">pause</property>
  <property name="resource">/media/bordun/plagiat2/CAM1_2019-01-05_0525_C0002.mov</property>
  <property name="audio_index">2</property>
  <property name="video_index">1</property>
  <property name="mute_on_pause">1</property>
  <property name="mlt_service">avformat-novalidate</property>
  <property name="seekable">1</property>
  <property name="aspect_ratio">1</property>
  <property name="kdenlive:folderid">17</property>
  <property name="kdenlive:file_size">10404105561</property>
  <property name="kdenlive:file_hash">2bc47b71e880be9b41ab5c0f2f63d573</property>
  <property name="global_feed">1</property>
  <property name="xml">was here</property>
  <property name="meta.media.nb_streams">3</property>
  <property name="meta.media.1.stream.type">video</property>
  <property name="meta.media.1.stream.frame_rate">50</property>
  <property name="meta.media.1.stream.sample_aspect_ratio">1</property>
  <property name="meta.media.1.codec.width">1920</property>
  <property name="meta.media.1.codec.height">1080</property>
  <property name="meta.media.1.codec.rotate">0</property>
  <property name="meta.media.1.codec.frame_rate">5000</property>
  <property name="meta.media.1.codec.pix_fmt">yuv422p10le</property>
  <property name="meta.media.1.codec.sample_aspect_ratio">0</property>
  <property name="meta.media.1.codec.colorspace">709</property>
  <property name="meta.media.1.codec.color_trc">1</property>
  <property name="meta.media.1.codec.name">prores</property>
  <property name="meta.media.1.codec.long_name">ProRes</property>
  <property name="meta.media.1.codec.bit_rate">366958989</property>
  <property name="meta.attr.1.stream.creation_time.markup">2019-01-05T05:25:34.000000Z</property>
  <property name="meta.attr.1.stream.language.markup">eng</property>
  <property name="meta.attr.1.stream.handler_name.markup">Apple Alias Data Handler</property>
  <property name="meta.attr.1.stream.encoder.markup">Apple ProRes 422 HQ</property>
  <property name="meta.attr.1.stream.timecode.markup">05:25:34:21</property>
  <property name="meta.media.2.stream.type">audio</property>
  <property name="meta.media.2.codec.sample_fmt">s32</property>
  <property name="meta.media.2.codec.sample_rate">48000</property>
  <property name="meta.media.2.codec.channels">2</property>
  <property name="meta.media.2.codec.name">pcm_s24le</property>
  <property name="meta.media.2.codec.long_name">PCM signed 24-bit little-endian</property>
  <property name="meta.media.2.codec.bit_rate">2304000</property>
  <property name="meta.attr.2.stream.creation_time.markup">2019-01-05T05:25:34.000000Z</property>
  <property name="meta.attr.2.stream.language.markup">eng</property>
  <property name="meta.attr.2.stream.handler_name.markup">Apple Alias Data Handler</property>
  <property name="meta.attr.2.stream.timecode.markup">05:25:34:21</property>
  <property name="meta.attr.com.apple.proapps.manufacturer.markup">Blackmagic Design</property>
  <property name="meta.attr.com.apple.proapps.cameraName.markup">CAM1</property>
  <property name="meta.attr.com.apple.proapps.isGood.markup">0</property>
  <property name="meta.attr.com.apple.proapps.customgamma.markup">com.blackmagic-design.cinemacamera.filmlog</property>
  <property name="meta.attr.com.blackmagic-design.cinemacamera.uuid.markup">18E5E00548F94923B646613A73C01B56</property>
  <property name="meta.attr.creation_time.markup">2019-01-05T05:25:34.000000Z</property>
  <property name="meta.attr.timecode.markup">05:25:34:21</property>
  <property name="meta.media.sample_aspect_num">1</property>
  <property name="meta.media.sample_aspect_den">1</property>
  <property name="meta.media.frame_rate_num">50</property>
  <property name="meta.media.frame_rate_den">1</property>
  <property name="meta.media.colorspace">709</property>
  <property name="meta.media.color_trc">1</property>
  <property name="meta.media.width">1920</property>
  <property name="meta.media.height">1080</property>
  <property name="meta.media.top_field_first">0</property>
  <property name="meta.media.progressive">1</property>
  <filter id="filter245">
   <property name="version">0,3</property>
   <property name="mlt_service">frei0r.sopsat</property>
   <property name="kdenlive_id">frei0r.sopsat</property>
   <property name="tag">frei0r.sopsat</property>
   <property name="kdenlive_ix">1</property>
   <property name="kdenlive_info">1/-1/</property>
   <property name="rSlope">0=0,1055</property>
   <property name="gSlope">0=0,2945</property>
   <property name="bSlope">0=0,05</property>
   <property name="aSlope">0=0,05</property>
   <property name="rOffset">0=0,456543</property>
   <property name="gOffset">0=0,238281</property>
   <property name="bOffset">0=0,5</property>
   <property name="aOffset">0=0,5</property>
   <property name="rPower">0=0,025</property>
   <property name="gPower">0=0,0525</property>
   <property name="bPower">0=0,0655</property>
   <property name="aPower">0=0,05</property>
   <property name="saturation">0=0,1</property>
   <property name="disable">1</property>
  </filter>
  <filter id="filter246">
   <property name="gamma">0=1,12</property>
   <property name="mlt_service">gamma</property>
   <property name="kdenlive_id">gamma</property>
   <property name="tag">gamma</property>
   <property name="kdenlive_ix">2</property>
   <property name="kdenlive_info"/>
  </filter>
  <filter id="filter247">
   <property name="version">0,3</property>
   <property name="mlt_service">frei0r.sopsat</property>
   <property name="kdenlive_id">RLPP - Violet Degueux</property>
   <property name="tag">frei0r.sopsat</property>
   <property name="kdenlive_ix">3</property>
   <property name="kdenlive_info"/>
   <property name="rSlope">0=0,1055</property>
   <property name="gSlope">0=0,3295</property>
   <property name="bSlope">0=0,088</property>
   <property name="aSlope">0=0,05</property>
   <property name="rOffset">0=0,456055</property>
   <property name="gOffset">0=0,237793</property>
   <property name="bOffset">0=0,5</property>
   <property name="aOffset">0=0,5</property>
   <property name="rPower">0=0,025</property>
   <property name="gPower">0=0,0525</property>
   <property name="bPower">0=0,0655</property>
   <property name="aPower">0=0,05</property>
   <property name="saturation">0=0,1</property>
  </filter>
 </producer>
 <playlist id="playlist18">
  <property name="kdenlive:track_name">Video 16</property>
  <blank length="231"/>
  <entry producer="35_playlist18" in="3939" out="5092"/>
  <blank length="34"/>
  <entry producer="35_playlist18" in="5127" out="5206"/>
  <blank length="31"/>
  <entry producer="35_playlist18" in="5238" out="5541"/>
  <blank length="45"/>
  <entry producer="35_playlist18" in="5587" out="5745"/>
  <blank length="42"/>
  <entry producer="35_playlist18" in="5788" out="6225"/>
  <blank length="23"/>
  <entry producer="35_playlist18" in="6249" out="6289"/>
  <entry producer="35_playlist18" in="6290" out="6351"/>
  <entry producer="35_playlist18" in="6352" out="6360"/>
  <entry producer="35_playlist18" in="6361" out="6827"/>
  <entry producer="35_playlist18" in="6828" out="6837"/>
  <entry producer="35_playlist18" in="6838" out="6925"/>
  <entry producer="35_playlist18" in="6926" out="6955"/>
  <entry producer="35_playlist18" in="6956" out="7030"/>
  <entry producer="35_playlist18" in="7031" out="7113"/>
  <entry producer="35_playlist18" in="7114" out="8423"/>
  <entry producer="35_playlist18" in="8424" out="8468"/>
  <entry producer="35_playlist18" in="8469" out="8726"/>
  <entry producer="35_playlist18" in="8727" out="8745"/>
  <entry producer="35_playlist18" in="8746" out="8982"/>
  <entry producer="35_playlist18" in="8983" out="43907"/>
  <blank length="16677"/>
  <entry producer="47_playlist18" in="0" out="7225"/>
  <entry producer="47_playlist18" in="7226" out="7251"/>
  <entry producer="47_playlist18" in="7252" out="11268"/>
 </playlist>
 <tractor title="Anonymous Submission" id="maintractor" global_feed="1" in="0" out="68146">
  <track producer="black_track"/>
  <track hide="video" producer="playlist1"/>
  <track hide="video" producer="playlist2"/>
  <track producer="playlist11"/>
  <track hide="audio" producer="playlist3"/>
  <track producer="playlist12"/>
  <track hide="audio" producer="playlist4"/>
  <track hide="audio" producer="playlist5"/>
  <track hide="audio" producer="playlist0"/>
  <track hide="audio" producer="playlist6"/>
  <track hide="audio" producer="playlist7"/>
  <track hide="audio" producer="playlist9"/>
  <track hide="audio" producer="playlist8"/>
  <track hide="audio" producer="playlist10"/>
  <track hide="audio" producer="playlist13"/>
  <track hide="audio" producer="playlist14"/>
  <track hide="audio" producer="playlist15"/>
  <track hide="audio" producer="playlist16"/>
  <track hide="both" producer="playlist17"/>
  <track hide="both" producer="playlist18"/>
  <transition id="transition0">
   <property name="a_track">0</property>
   <property name="b_track">1</property>
   <property name="mlt_service">mix</property>
   <property name="always_active">1</property>
   <property name="sum">1</property>
   <property name="internal_added">237</property>
  </transition>
  <transition id="transition1">
   <property name="a_track">0</property>
   <property name="b_track">2</property>
   <property name="mlt_service">mix</property>
   <property name="always_active">1</property>
   <property name="sum">1</property>
   <property name="internal_added">237</property>
  </transition>
  <transition id="transition2">
   <property name="a_track">0</property>
   <property name="b_track">3</property>
   <property name="mlt_service">mix</property>
   <property name="always_active">1</property>
   <property name="sum">1</property>
   <property name="internal_added">237</property>
  </transition>
  <transition id="transition3">
   <property name="a_track">0</property>
   <property name="b_track">4</property>
   <property name="mlt_service">mix</property>
   <property name="always_active">1</property>
   <property name="sum">1</property>
   <property name="internal_added">237</property>
  </transition>
  <transition id="transition4">
   <property name="a_track">0</property>
   <property name="b_track">5</property>
   <property name="mlt_service">mix</property>
   <property name="always_active">1</property>
   <property name="sum">1</property>
   <property name="internal_added">237</property>
  </transition>
  <transition id="transition5">
   <property name="a_track">0</property>
   <property name="b_track">6</property>
   <property name="mlt_service">mix</property>
   <property name="always_active">1</property>
   <property name="sum">1</property>
   <property name="internal_added">237</property>
  </transition>
  <transition id="transition6">
   <property name="a_track">0</property>
   <property name="b_track">7</property>
   <property name="mlt_service">mix</property>
   <property name="always_active">1</property>
   <property name="sum">1</property>
   <property name="internal_added">237</property>
  </transition>
  <transition id="transition7">
   <property name="a_track">0</property>
   <property name="b_track">8</property>
   <property name="mlt_service">mix</property>
   <property name="always_active">1</property>
   <property name="sum">1</property>
   <property name="internal_added">237</property>
  </transition>
  <transition id="transition8">
   <property name="a_track">0</property>
   <property name="b_track">9</property>
   <property name="mlt_service">mix</property>
   <property name="always_active">1</property>
   <property name="sum">1</property>
   <property name="internal_added">237</property>
  </transition>
  <transition id="transition9">
   <property name="a_track">0</property>
   <property name="b_track">10</property>
   <property name="mlt_service">mix</property>
   <property name="always_active">1</property>
   <property name="sum">1</property>
   <property name="internal_added">237</property>
  </transition>
  <transition id="transition10">
   <property name="a_track">0</property>
   <property name="b_track">11</property>
   <property name="mlt_service">mix</property>
   <property name="always_active">1</property>
   <property name="sum">1</property>
   <property name="internal_added">237</property>
  </transition>
  <transition id="transition11">
   <property name="a_track">0</property>
   <property name="b_track">12</property>
   <property name="mlt_service">mix</property>
   <property name="always_active">1</property>
   <property name="sum">1</property>
   <property name="internal_added">237</property>
  </transition>
  <transition id="transition12">
   <property name="a_track">0</property>
   <property name="b_track">13</property>
   <property name="mlt_service">mix</property>
   <property name="always_active">1</property>
   <property name="sum">1</property>
   <property name="internal_added">237</property>
  </transition>
  <transition id="transition13">
   <property name="a_track">0</property>
   <property name="b_track">14</property>
   <property name="mlt_service">mix</property>
   <property name="always_active">1</property>
   <property name="sum">1</property>
   <property name="internal_added">237</property>
  </transition>
  <transition id="transition14">
   <property name="a_track">0</property>
   <property name="b_track">15</property>
   <property name="mlt_service">mix</property>
   <property name="always_active">1</property>
   <property name="sum">1</property>
   <property name="internal_added">237</property>
  </transition>
  <transition id="transition15">
   <property name="a_track">0</property>
   <property name="b_track">16</property>
   <property name="mlt_service">mix</property>
   <property name="always_active">1</property>
   <property name="sum">1</property>
   <property name="internal_added">237</property>
  </transition>
  <transition id="transition16">
   <property name="a_track">0</property>
   <property name="b_track">17</property>
   <property name="mlt_service">mix</property>
   <property name="always_active">1</property>
   <property name="sum">1</property>
   <property name="internal_added">237</property>
  </transition>
  <transition id="transition17">
   <property name="a_track">0</property>
   <property name="b_track">18</property>
   <property name="mlt_service">mix</property>
   <property name="always_active">1</property>
   <property name="sum">1</property>
   <property name="internal_added">237</property>
  </transition>
  <transition id="transition18">
   <property name="a_track">0</property>
   <property name="b_track">19</property>
   <property name="mlt_service">mix</property>
   <property name="always_active">1</property>
   <property name="sum">1</property>
   <property name="internal_added">237</property>
  </transition>
  <transition id="transition21" in="4025" out="4194">
   <property name="a_track">13</property>
   <property name="b_track">14</property>
   <property name="start">0/0:100%x100%</property>
   <property name="factory">loader</property>
   <property name="aligned">1</property>
   <property name="progressive">1</property>
   <property name="mlt_service">composite</property>
   <property name="kdenlive_id">composite</property>
   <property name="force_track">0</property>
   <property name="deinterlace">0</property>
   <property name="distort">0</property>
   <property name="fill">1</property>
   <property name="geometry">0%/0%:100%x100%:100</property>
   <property name="halign">centre</property>
   <property name="luma_invert">0</property>
   <property name="operator">over</property>
   <property name="softness">0</property>
   <property name="valign">middle</property>
  </transition>
  <transition id="transition22" in="4406" out="4436">
   <property name="a_track">12</property>
   <property name="b_track">14</property>
   <property name="start">0/0:100%x100%</property>
   <property name="factory">loader</property>
   <property name="aligned">1</property>
   <property name="progressive">1</property>
   <property name="mlt_service">composite</property>
   <property name="kdenlive_id">composite</property>
   <property name="force_track">1</property>
   <property name="deinterlace">0</property>
   <property name="distort">0</property>
   <property name="fill">1</property>
   <property name="geometry">0/0:1920x1080:100</property>
   <property name="halign">centre</property>
   <property name="luma_invert">0</property>
   <property name="operator">over</property>
   <property name="softness">0</property>
   <property name="valign">middle</property>
   <property name="automatic">0</property>
   <property name="luma"/>
  </transition>
  <transition id="transition25" in="4708" out="4744">
   <property name="a_track">11</property>
   <property name="b_track">12</property>
   <property name="start">0/0:100%x100%</property>
   <property name="factory">loader</property>
   <property name="aligned">1</property>
   <property name="progressive">1</property>
   <property name="mlt_service">composite</property>
   <property name="kdenlive_id">composite</property>
   <property name="force_track">0</property>
   <property name="deinterlace">0</property>
   <property name="distort">0</property>
   <property name="fill">1</property>
   <property name="geometry">0/0:1920x1080:100</property>
   <property name="halign">centre</property>
   <property name="luma_invert">0</property>
   <property name="operator">over</property>
   <property name="softness">0</property>
   <property name="valign">middle</property>
   <property name="automatic">0</property>
   <property name="luma"/>
  </transition>
  <transition id="transition26" in="4780" out="4836">
   <property name="a_track">11</property>
   <property name="b_track">12</property>
   <property name="start">0/0:100%x100%</property>
   <property name="factory">loader</property>
   <property name="aligned">1</property>
   <property name="progressive">1</property>
   <property name="mlt_service">composite</property>
   <property name="kdenlive_id">composite</property>
   <property name="force_track">1</property>
   <property name="deinterlace">0</property>
   <property name="distort">0</property>
   <property name="fill">1</property>
   <property name="geometry">0%/0%:100%x100%:100</property>
   <property name="halign">centre</property>
   <property name="luma_invert">0</property>
   <property name="operator">over</property>
   <property name="softness">0</property>
   <property name="valign">middle</property>
  </transition>
  <transition id="transition27" in="4223" out="4535">
   <property name="a_track">11</property>
   <property name="b_track">12</property>
   <property name="start">0/0:100%x100%</property>
   <property name="factory">loader</property>
   <property name="aligned">1</property>
   <property name="progressive">1</property>
   <property name="mlt_service">composite</property>
   <property name="kdenlive_id">composite</property>
   <property name="force_track">0</property>
   <property name="deinterlace">0</property>
   <property name="distort">0</property>
   <property name="fill">1</property>
   <property name="geometry">0/0:1920x1080:100</property>
   <property name="halign">centre</property>
   <property name="luma_invert">0</property>
   <property name="operator">over</property>
   <property name="softness">0</property>
   <property name="valign">middle</property>
   <property name="automatic">0</property>
   <property name="luma"/>
  </transition>
  <transition id="transition28" in="4261" out="4331">
   <property name="a_track">11</property>
   <property name="b_track">14</property>
   <property name="rect">0=970 219 1536 864 0;1=960 247 1536 864 0;6=966 225 1536 864 1;10=956 267 1536 864 1;16=965 227 1536 864 1;22=966 231 1536 864 1;26=967 210 1536 864 1;32=948 263 1536 864 1;35=943 273 1536 864 1;42=946 280 1536 864 1;45=944 292 1536 864 1;47=943 292 1536 864 1;57=963 218 1536 864 1;65=981 189 1536 864 1;70=994 174 1536 864 1;71=</property>
   <property name="compositing">0</property>
   <property name="distort">0</property>
   <property name="rotate_center">1</property>
   <property name="mlt_service">qtblend</property>
   <property name="kdenlive_id">qtblend</property>
   <property name="force_track">1</property>
   <property name="rotation">0=-10;1=-13;6=-11;10=-15;16=-10;22=-10;26=-8;32=-13;35=-14;42=-14;45=-15;47=-15;57=-9;65=-6;70=-4</property>
   <property name="automatic">0</property>
  </transition>
  <transition id="transition19" in="2528" out="2529">
   <property name="a_track">10</property>
   <property name="b_track">16</property>
   <property name="start">0/0:100%x100%</property>
   <property name="factory">loader</property>
   <property name="aligned">0</property>
   <property name="progressive">1</property>
   <property name="mlt_service">composite</property>
   <property name="kdenlive_id">slide</property>
   <property name="force_track">1</property>
   <property name="deinterlace">0</property>
   <property name="geometry">0%/0%:100%x100%:100;-1=0%/0%:100%x100%:100</property>
   <property name="invert">1</property>
  </transition>
  <transition id="transition31" in="5565" out="5582">
   <property name="a_track">7</property>
   <property name="b_track">8</property>
   <property name="factory">loader</property>
   <property name="mlt_service">luma</property>
   <property name="kdenlive_id">dissolve</property>
   <property name="force_track">0</property>
   <property name="reverse">1</property>
  </transition>
  <transition id="transition32" in="2435" out="2528">
   <property name="a_track">6</property>
   <property name="b_track">8</property>
   <property name="start">0/0:100%x100%</property>
   <property name="factory">loader</property>
   <property name="aligned">1</property>
   <property name="progressive">1</property>
   <property name="mlt_service">composite</property>
   <property name="kdenlive_id">composite</property>
   <property name="force_track">1</property>
   <property name="deinterlace">0</property>
   <property name="distort">0</property>
   <property name="fill">1</property>
   <property name="geometry">0%/0%:100%x100%:100</property>
   <property name="halign">centre</property>
   <property name="luma_invert">0</property>
   <property name="operator">over</property>
   <property name="softness">0</property>
   <property name="valign">middle</property>
  </transition>
  <transition id="transition20" in="2406" out="2430">
   <property name="a_track">6</property>
   <property name="b_track">16</property>
   <property name="start">0/0:100%x100%</property>
   <property name="factory">loader</property>
   <property name="aligned">0</property>
   <property name="progressive">1</property>
   <property name="mlt_service">composite</property>
   <property name="kdenlive_id">slide</property>
   <property name="force_track">1</property>
   <property name="deinterlace">0</property>
   <property name="geometry">0%/0%:100%x100%:100;-1=0%/0%:100%x100%:100</property>
   <property name="invert">1</property>
   <property name="automatic">0</property>
  </transition>
  <transition id="transition23" in="2441" out="2450">
   <property name="a_track">6</property>
   <property name="b_track">16</property>
   <property name="start">0/0:100%x100%</property>
   <property name="factory">loader</property>
   <property name="aligned">0</property>
   <property name="progressive">1</property>
   <property name="mlt_service">composite</property>
   <property name="kdenlive_id">slide</property>
   <property name="force_track">1</property>
   <property name="deinterlace">0</property>
   <property name="geometry">0%/0%:100%x100%:100;-1=0%/0%:100%x100%:100</property>
   <property name="invert">1</property>
   <property name="automatic">0</property>
  </transition>
  <transition id="transition24" in="2460" out="2469">
   <property name="a_track">6</property>
   <property name="b_track">16</property>
   <property name="start">0/0:100%x100%</property>
   <property name="factory">loader</property>
   <property name="aligned">0</property>
   <property name="progressive">1</property>
   <property name="mlt_service">composite</property>
   <property name="kdenlive_id">slide</property>
   <property name="force_track">1</property>
   <property name="deinterlace">0</property>
   <property name="geometry">0%/0%:100%x100%:100;-1=0%/0%:100%x100%:100</property>
   <property name="invert">1</property>
   <property name="automatic">0</property>
  </transition>
  <transition id="transition29" in="2508" out="2509">
   <property name="a_track">6</property>
   <property name="b_track">16</property>
   <property name="start">0/0:100%x100%</property>
   <property name="factory">loader</property>
   <property name="aligned">0</property>
   <property name="progressive">1</property>
   <property name="mlt_service">composite</property>
   <property name="kdenlive_id">slide</property>
   <property name="force_track">1</property>
   <property name="deinterlace">0</property>
   <property name="geometry">0%/0%:100%x100%:100;-1=0%/0%:100%x100%:100</property>
   <property name="invert">1</property>
  </transition>
  <transition id="transition30" in="2512" out="2513">
   <property name="a_track">6</property>
   <property name="b_track">16</property>
   <property name="start">0/0:100%x100%</property>
   <property name="factory">loader</property>
   <property name="aligned">0</property>
   <property name="progressive">1</property>
   <property name="mlt_service">composite</property>
   <property name="kdenlive_id">slide</property>
   <property name="force_track">1</property>
   <property name="deinterlace">0</property>
   <property name="geometry">0%/0%:100%x100%:100;-1=0%/0%:100%x100%:100</property>
   <property name="invert">1</property>
  </transition>
  <transition id="transition33" in="2520" out="2521">
   <property name="a_track">6</property>
   <property name="b_track">16</property>
   <property name="start">0/0:100%x100%</property>
   <property name="factory">loader</property>
   <property name="aligned">0</property>
   <property name="progressive">1</property>
   <property name="mlt_service">composite</property>
   <property name="kdenlive_id">slide</property>
   <property name="force_track">1</property>
   <property name="deinterlace">0</property>
   <property name="geometry">0%/0%:100%x100%:100;-1=0%/0%:100%x100%:100</property>
   <property name="invert">1</property>
  </transition>
  <transition id="transition34" in="2524" out="2525">
   <property name="a_track">6</property>
   <property name="b_track">16</property>
   <property name="start">0/0:100%x100%</property>
   <property name="factory">loader</property>
   <property name="aligned">0</property>
   <property name="progressive">1</property>
   <property name="mlt_service">composite</property>
   <property name="kdenlive_id">slide</property>
   <property name="force_track">1</property>
   <property name="deinterlace">0</property>
   <property name="geometry">0%/0%:100%x100%:100;-1=0%/0%:100%x100%:100</property>
   <property name="invert">1</property>
  </transition>
  <transition id="transition35" in="2516" out="2517">
   <property name="a_track">6</property>
   <property name="b_track">16</property>
   <property name="start">0/0:100%x100%</property>
   <property name="factory">loader</property>
   <property name="aligned">0</property>
   <property name="progressive">1</property>
   <property name="mlt_service">composite</property>
   <property name="kdenlive_id">slide</property>
   <property name="force_track">1</property>
   <property name="deinterlace">0</property>
   <property name="geometry">0%/0%:100%x100%:100;-1=0%/0%:100%x100%:100</property>
   <property name="invert">1</property>
  </transition>
  <transition id="transition36" in="2476" out="2481">
   <property name="a_track">6</property>
   <property name="b_track">16</property>
   <property name="start">0/0:100%x100%</property>
   <property name="factory">loader</property>
   <property name="aligned">0</property>
   <property name="progressive">1</property>
   <property name="mlt_service">composite</property>
   <property name="kdenlive_id">slide</property>
   <property name="force_track">1</property>
   <property name="deinterlace">0</property>
   <property name="geometry">0%/0%:100%x100%:100;-1=0%/0%:100%x100%:100</property>
   <property name="invert">1</property>
  </transition>
  <transition id="transition37" in="2488" out="2493">
   <property name="a_track">6</property>
   <property name="b_track">16</property>
   <property name="start">0/0:100%x100%</property>
   <property name="factory">loader</property>
   <property name="aligned">0</property>
   <property name="progressive">1</property>
   <property name="mlt_service">composite</property>
   <property name="kdenlive_id">slide</property>
   <property name="force_track">1</property>
   <property name="deinterlace">0</property>
   <property name="geometry">0%/0%:100%x100%:100;-1=0%/0%:100%x100%:100</property>
   <property name="invert">1</property>
  </transition>
  <transition id="transition38" in="2499" out="2504">
   <property name="a_track">6</property>
   <property name="b_track">16</property>
   <property name="start">0/0:100%x100%</property>
   <property name="factory">loader</property>
   <property name="aligned">0</property>
   <property name="progressive">1</property>
   <property name="mlt_service">composite</property>
   <property name="kdenlive_id">slide</property>
   <property name="force_track">1</property>
   <property name="deinterlace">0</property>
   <property name="geometry">0%/0%:100%x100%:100;-1=0%/0%:100%x100%:100</property>
   <property name="invert">1</property>
  </transition>
 </tractor>
</mlt>
