<?xml version='1.0' encoding='utf-8'?>
<mlt title="Anonymous Submission" LC_NUMERIC="fr_FR.UTF-8" producer="main bin" version="6.13.0" root="/media/bordun/plagiat/Clip02_RespecteLaPuissancePapale/Video">
 <profile frame_rate_num="50" sample_aspect_num="1" display_aspect_den="9" colorspace="709" progressive="1" description="HD 1080p 50 fps" display_aspect_num="16" frame_rate_den="1" width="1920" height="1080" sample_aspect_den="1"/>
 <producer title="Anonymous Submission" id="1" in="0" out="14561">
  <property name="length">00:04:51:12</property>
  <property name="eof">pause</property>
  <property name="resource">/media/bordun/plagiat/2018-12-10_Plagiat_RespecteLaPuissancePapale/Carte_1/CAM1_2018-12-10_1541_C0000.mov</property>
  <property name="audio_index">2</property>
  <property name="video_index">1</property>
  <property name="mute_on_pause">1</property>
  <property name="mlt_service">avformat-novalidate</property>
  <property name="meta.media.nb_streams">3</property>
  <property name="meta.media.1.stream.type">video</property>
  <property name="meta.media.1.stream.frame_rate">50</property>
  <property name="meta.media.1.stream.sample_aspect_ratio">1</property>
  <property name="meta.media.1.codec.width">1920</property>
  <property name="meta.media.1.codec.height">1080</property>
  <property name="meta.media.1.codec.rotate">0</property>
  <property name="meta.media.1.codec.frame_rate">5000</property>
  <property name="meta.media.1.codec.pix_fmt">yuv422p10le</property>
  <property name="meta.media.1.codec.sample_aspect_ratio">0</property>
  <property name="meta.media.1.codec.colorspace">709</property>
  <property name="meta.media.1.codec.name">prores</property>
  <property name="meta.media.1.codec.long_name">ProRes (iCodec Pro)</property>
  <property name="meta.media.1.codec.bit_rate">366959179</property>
  <property name="meta.attr.1.stream.creation_time.markup">2018-12-10T15:41:17.000000Z</property>
  <property name="meta.attr.1.stream.language.markup">eng</property>
  <property name="meta.attr.1.stream.handler_name.markup">Apple Video Media Handler</property>
  <property name="meta.attr.1.stream.encoder.markup">Apple ProRes 422 HQ</property>
  <property name="meta.attr.1.stream.timecode.markup">15:41:17:21</property>
  <property name="meta.media.2.stream.type">audio</property>
  <property name="meta.media.2.codec.sample_fmt">s32</property>
  <property name="meta.media.2.codec.sample_rate">48000</property>
  <property name="meta.media.2.codec.channels">2</property>
  <property name="meta.media.2.codec.name">pcm_s24le</property>
  <property name="meta.media.2.codec.long_name">PCM signed 24-bit little-endian</property>
  <property name="meta.media.2.codec.bit_rate">2304000</property>
  <property name="meta.attr.2.stream.creation_time.markup">2018-12-10T15:41:17.000000Z</property>
  <property name="meta.attr.2.stream.language.markup">eng</property>
  <property name="meta.attr.2.stream.handler_name.markup">Apple Sound Media Handler</property>
  <property name="meta.attr.2.stream.timecode.markup">15:41:17:21</property>
  <property name="meta.attr.com.apple.proapps.manufacturer.markup">Blackmagic Design</property>
  <property name="meta.attr.com.apple.proapps.cameraName.markup">CAM1</property>
  <property name="meta.attr.com.apple.proapps.isGood.markup">0</property>
  <property name="meta.attr.com.apple.proapps.customgamma.markup">com.blackmagic-design.cinemacamera.filmlog</property>
  <property name="meta.attr.com.blackmagic-design.cinemacamera.uuid.markup">18E5E00548F94923B646613A73C01B56</property>
  <property name="meta.attr.creation_time.markup">2018-12-10T15:41:17.000000Z</property>
  <property name="meta.attr.timecode.markup">15:41:17:21</property>
  <property name="seekable">1</property>
  <property name="meta.media.sample_aspect_num">1</property>
  <property name="meta.media.sample_aspect_den">1</property>
  <property name="aspect_ratio">1</property>
  <property name="kdenlive:folderid">9</property>
  <property name="kdenlive:file_size">13444313961</property>
  <property name="kdenlive:file_hash">ef25fabf181f2da437febd9d2ce92b72</property>
  <property name="global_feed">1</property>
  <property name="meta.media.frame_rate_num">50</property>
  <property name="meta.media.frame_rate_den">1</property>
  <property name="meta.media.colorspace">709</property>
  <property name="meta.media.color_trc">2</property>
  <property name="meta.media.width">1920</property>
  <property name="meta.media.height">1080</property>
  <property name="meta.media.top_field_first">0</property>
  <property name="meta.media.progressive">1</property>
 </producer>
 <producer title="Anonymous Submission" id="5" in="0" out="19246">
  <property name="length">00:06:24:47</property>
  <property name="eof">pause</property>
  <property name="resource">/media/bordun/plagiat/2018-12-10_Plagiat_RespecteLaPuissancePapale/Carte_2/CAM1_2018-12-10_1629_C0000.mov</property>
  <property name="audio_index">2</property>
  <property name="video_index">1</property>
  <property name="mute_on_pause">1</property>
  <property name="mlt_service">avformat-novalidate</property>
  <property name="meta.media.nb_streams">3</property>
  <property name="meta.media.1.stream.type">video</property>
  <property name="meta.media.1.stream.frame_rate">50</property>
  <property name="meta.media.1.stream.sample_aspect_ratio">1</property>
  <property name="meta.media.1.codec.width">1920</property>
  <property name="meta.media.1.codec.height">1080</property>
  <property name="meta.media.1.codec.rotate">0</property>
  <property name="meta.media.1.codec.frame_rate">5000</property>
  <property name="meta.media.1.codec.pix_fmt">yuv422p10le</property>
  <property name="meta.media.1.codec.sample_aspect_ratio">0</property>
  <property name="meta.media.1.codec.colorspace">709</property>
  <property name="meta.media.1.codec.name">prores</property>
  <property name="meta.media.1.codec.long_name">ProRes (iCodec Pro)</property>
  <property name="meta.media.1.codec.bit_rate">366959020</property>
  <property name="meta.attr.1.stream.creation_time.markup">2018-12-10T16:29:10.000000Z</property>
  <property name="meta.attr.1.stream.language.markup">eng</property>
  <property name="meta.attr.1.stream.handler_name.markup">Apple Video Media Handler</property>
  <property name="meta.attr.1.stream.encoder.markup">Apple ProRes 422 HQ</property>
  <property name="meta.attr.1.stream.timecode.markup">16:29:10:24</property>
  <property name="meta.media.2.stream.type">audio</property>
  <property name="meta.media.2.codec.sample_fmt">s32</property>
  <property name="meta.media.2.codec.sample_rate">48000</property>
  <property name="meta.media.2.codec.channels">2</property>
  <property name="meta.media.2.codec.name">pcm_s24le</property>
  <property name="meta.media.2.codec.long_name">PCM signed 24-bit little-endian</property>
  <property name="meta.media.2.codec.bit_rate">2304000</property>
  <property name="meta.attr.2.stream.creation_time.markup">2018-12-10T16:29:10.000000Z</property>
  <property name="meta.attr.2.stream.language.markup">eng</property>
  <property name="meta.attr.2.stream.handler_name.markup">Apple Sound Media Handler</property>
  <property name="meta.attr.2.stream.timecode.markup">16:29:10:24</property>
  <property name="meta.attr.com.apple.proapps.manufacturer.markup">Blackmagic Design</property>
  <property name="meta.attr.com.apple.proapps.cameraName.markup">CAM1</property>
  <property name="meta.attr.com.apple.proapps.isGood.markup">0</property>
  <property name="meta.attr.com.apple.proapps.customgamma.markup">com.blackmagic-design.cinemacamera.filmlog</property>
  <property name="meta.attr.com.blackmagic-design.cinemacamera.uuid.markup">18E5E00548F94923B646613A73C01B56</property>
  <property name="meta.attr.creation_time.markup">2018-12-10T16:29:10.000000Z</property>
  <property name="meta.attr.timecode.markup">16:29:10:24</property>
  <property name="seekable">1</property>
  <property name="meta.media.sample_aspect_num">1</property>
  <property name="meta.media.sample_aspect_den">1</property>
  <property name="aspect_ratio">1</property>
  <property name="kdenlive:folderid">9</property>
  <property name="kdenlive:file_size">17769713233</property>
  <property name="kdenlive:file_hash">40fd95546ae131f6c5881d8660dbcccc</property>
  <property name="global_feed">1</property>
  <property name="meta.media.frame_rate_num">50</property>
  <property name="meta.media.frame_rate_den">1</property>
  <property name="meta.media.colorspace">709</property>
  <property name="meta.media.color_trc">2</property>
  <property name="meta.media.width">1920</property>
  <property name="meta.media.height">1080</property>
  <property name="meta.media.top_field_first">0</property>
  <property name="meta.media.progressive">1</property>
 </producer>
 <producer title="Anonymous Submission" id="4" in="0" out="24870">
  <property name="length">00:08:17:21</property>
  <property name="eof">pause</property>
  <property name="resource">/media/bordun/plagiat/2018-12-10_Plagiat_RespecteLaPuissancePapale/Carte_1/CAM1_2018-12-10_1615_C0003.mov</property>
  <property name="audio_index">2</property>
  <property name="video_index">1</property>
  <property name="mute_on_pause">1</property>
  <property name="mlt_service">avformat-novalidate</property>
  <property name="meta.media.nb_streams">3</property>
  <property name="meta.media.1.stream.type">video</property>
  <property name="meta.media.1.stream.frame_rate">50</property>
  <property name="meta.media.1.stream.sample_aspect_ratio">1</property>
  <property name="meta.media.1.codec.width">1920</property>
  <property name="meta.media.1.codec.height">1080</property>
  <property name="meta.media.1.codec.rotate">0</property>
  <property name="meta.media.1.codec.frame_rate">5000</property>
  <property name="meta.media.1.codec.pix_fmt">yuv422p10le</property>
  <property name="meta.media.1.codec.sample_aspect_ratio">0</property>
  <property name="meta.media.1.codec.colorspace">709</property>
  <property name="meta.media.1.codec.name">prores</property>
  <property name="meta.media.1.codec.long_name">ProRes (iCodec Pro)</property>
  <property name="meta.media.1.codec.bit_rate">366958409</property>
  <property name="meta.attr.1.stream.creation_time.markup">2018-12-10T16:15:42.000000Z</property>
  <property name="meta.attr.1.stream.language.markup">eng</property>
  <property name="meta.attr.1.stream.handler_name.markup">Apple Video Media Handler</property>
  <property name="meta.attr.1.stream.encoder.markup">Apple ProRes 422 HQ</property>
  <property name="meta.attr.1.stream.timecode.markup">16:15:42:33</property>
  <property name="meta.media.2.stream.type">audio</property>
  <property name="meta.media.2.codec.sample_fmt">s32</property>
  <property name="meta.media.2.codec.sample_rate">48000</property>
  <property name="meta.media.2.codec.channels">2</property>
  <property name="meta.media.2.codec.name">pcm_s24le</property>
  <property name="meta.media.2.codec.long_name">PCM signed 24-bit little-endian</property>
  <property name="meta.media.2.codec.bit_rate">2304000</property>
  <property name="meta.attr.2.stream.creation_time.markup">2018-12-10T16:15:42.000000Z</property>
  <property name="meta.attr.2.stream.language.markup">eng</property>
  <property name="meta.attr.2.stream.handler_name.markup">Apple Sound Media Handler</property>
  <property name="meta.attr.2.stream.timecode.markup">16:15:42:33</property>
  <property name="meta.attr.com.apple.proapps.manufacturer.markup">Blackmagic Design</property>
  <property name="meta.attr.com.apple.proapps.cameraName.markup">CAM1</property>
  <property name="meta.attr.com.apple.proapps.isGood.markup">0</property>
  <property name="meta.attr.com.apple.proapps.customgamma.markup">com.blackmagic-design.cinemacamera.filmlog</property>
  <property name="meta.attr.com.blackmagic-design.cinemacamera.uuid.markup">18E5E00548F94923B646613A73C01B56</property>
  <property name="meta.attr.creation_time.markup">2018-12-10T16:15:42.000000Z</property>
  <property name="meta.attr.timecode.markup">16:15:42:33</property>
  <property name="seekable">1</property>
  <property name="meta.media.sample_aspect_num">1</property>
  <property name="meta.media.sample_aspect_den">1</property>
  <property name="aspect_ratio">1</property>
  <property name="kdenlive:folderid">9</property>
  <property name="kdenlive:file_size">22962054105</property>
  <property name="kdenlive:file_hash">c46129788c0a47f07299f13c18fcc857</property>
  <property name="global_feed">1</property>
  <property name="meta.media.frame_rate_num">50</property>
  <property name="meta.media.frame_rate_den">1</property>
  <property name="meta.media.colorspace">709</property>
  <property name="meta.media.color_trc">2</property>
  <property name="meta.media.width">1920</property>
  <property name="meta.media.height">1080</property>
  <property name="meta.media.top_field_first">0</property>
  <property name="meta.media.progressive">1</property>
 </producer>
 <producer title="Anonymous Submission" id="3" in="0" out="11635">
  <property name="length">00:03:52:36</property>
  <property name="eof">pause</property>
  <property name="resource">/media/bordun/plagiat/2018-12-10_Plagiat_RespecteLaPuissancePapale/Carte_1/CAM1_2018-12-10_1601_C0002.mov</property>
  <property name="audio_index">2</property>
  <property name="video_index">1</property>
  <property name="mute_on_pause">1</property>
  <property name="mlt_service">avformat-novalidate</property>
  <property name="meta.media.nb_streams">3</property>
  <property name="meta.media.1.stream.type">video</property>
  <property name="meta.media.1.stream.frame_rate">50</property>
  <property name="meta.media.1.stream.sample_aspect_ratio">1</property>
  <property name="meta.media.1.codec.width">1920</property>
  <property name="meta.media.1.codec.height">1080</property>
  <property name="meta.media.1.codec.rotate">0</property>
  <property name="meta.media.1.codec.frame_rate">5000</property>
  <property name="meta.media.1.codec.pix_fmt">yuv422p10le</property>
  <property name="meta.media.1.codec.sample_aspect_ratio">0</property>
  <property name="meta.media.1.codec.colorspace">709</property>
  <property name="meta.media.1.codec.name">prores</property>
  <property name="meta.media.1.codec.long_name">ProRes (iCodec Pro)</property>
  <property name="meta.media.1.codec.bit_rate">366958785</property>
  <property name="meta.attr.1.stream.creation_time.markup">2018-12-10T16:01:37.000000Z</property>
  <property name="meta.attr.1.stream.language.markup">eng</property>
  <property name="meta.attr.1.stream.handler_name.markup">Apple Video Media Handler</property>
  <property name="meta.attr.1.stream.encoder.markup">Apple ProRes 422 HQ</property>
  <property name="meta.attr.1.stream.timecode.markup">16:01:37:09</property>
  <property name="meta.media.2.stream.type">audio</property>
  <property name="meta.media.2.codec.sample_fmt">s32</property>
  <property name="meta.media.2.codec.sample_rate">48000</property>
  <property name="meta.media.2.codec.channels">2</property>
  <property name="meta.media.2.codec.name">pcm_s24le</property>
  <property name="meta.media.2.codec.long_name">PCM signed 24-bit little-endian</property>
  <property name="meta.media.2.codec.bit_rate">2304000</property>
  <property name="meta.attr.2.stream.creation_time.markup">2018-12-10T16:01:37.000000Z</property>
  <property name="meta.attr.2.stream.language.markup">eng</property>
  <property name="meta.attr.2.stream.handler_name.markup">Apple Sound Media Handler</property>
  <property name="meta.attr.2.stream.timecode.markup">16:01:37:09</property>
  <property name="meta.attr.com.apple.proapps.manufacturer.markup">Blackmagic Design</property>
  <property name="meta.attr.com.apple.proapps.cameraName.markup">CAM1</property>
  <property name="meta.attr.com.apple.proapps.isGood.markup">0</property>
  <property name="meta.attr.com.apple.proapps.customgamma.markup">com.blackmagic-design.cinemacamera.filmlog</property>
  <property name="meta.attr.com.blackmagic-design.cinemacamera.uuid.markup">18E5E00548F94923B646613A73C01B56</property>
  <property name="meta.attr.creation_time.markup">2018-12-10T16:01:37.000000Z</property>
  <property name="meta.attr.timecode.markup">16:01:37:09</property>
  <property name="seekable">1</property>
  <property name="meta.media.sample_aspect_num">1</property>
  <property name="meta.media.sample_aspect_den">1</property>
  <property name="aspect_ratio">1</property>
  <property name="kdenlive:folderid">9</property>
  <property name="kdenlive:file_size">10795373957</property>
  <property name="kdenlive:file_hash">c46cb1ab94a25f5ab196e5d4e002dba1</property>
  <property name="global_feed">1</property>
  <property name="meta.media.frame_rate_num">50</property>
  <property name="meta.media.frame_rate_den">1</property>
  <property name="meta.media.colorspace">709</property>
  <property name="meta.media.color_trc">2</property>
  <property name="meta.media.width">1920</property>
  <property name="meta.media.height">1080</property>
  <property name="meta.media.top_field_first">0</property>
  <property name="meta.media.progressive">1</property>
 </producer>
 <producer title="Anonymous Submission" id="2" in="0" out="11667">
  <property name="length">00:03:53:18</property>
  <property name="eof">pause</property>
  <property name="resource">/media/bordun/plagiat/2018-12-10_Plagiat_RespecteLaPuissancePapale/Carte_1/CAM1_2018-12-10_1552_C0001.mov</property>
  <property name="audio_index">2</property>
  <property name="video_index">1</property>
  <property name="mute_on_pause">1</property>
  <property name="mlt_service">avformat-novalidate</property>
  <property name="meta.media.nb_streams">3</property>
  <property name="meta.media.1.stream.type">video</property>
  <property name="meta.media.1.stream.frame_rate">50</property>
  <property name="meta.media.1.stream.sample_aspect_ratio">1</property>
  <property name="meta.media.1.codec.width">1920</property>
  <property name="meta.media.1.codec.height">1080</property>
  <property name="meta.media.1.codec.rotate">0</property>
  <property name="meta.media.1.codec.frame_rate">5000</property>
  <property name="meta.media.1.codec.pix_fmt">yuv422p10le</property>
  <property name="meta.media.1.codec.sample_aspect_ratio">0</property>
  <property name="meta.media.1.codec.colorspace">709</property>
  <property name="meta.media.1.codec.name">prores</property>
  <property name="meta.media.1.codec.long_name">ProRes (iCodec Pro)</property>
  <property name="meta.media.1.codec.bit_rate">366959328</property>
  <property name="meta.attr.1.stream.creation_time.markup">2018-12-10T15:52:13.000000Z</property>
  <property name="meta.attr.1.stream.language.markup">eng</property>
  <property name="meta.attr.1.stream.handler_name.markup">Apple Video Media Handler</property>
  <property name="meta.attr.1.stream.encoder.markup">Apple ProRes 422 HQ</property>
  <property name="meta.attr.1.stream.timecode.markup">15:52:13:35</property>
  <property name="meta.media.2.stream.type">audio</property>
  <property name="meta.media.2.codec.sample_fmt">s32</property>
  <property name="meta.media.2.codec.sample_rate">48000</property>
  <property name="meta.media.2.codec.channels">2</property>
  <property name="meta.media.2.codec.name">pcm_s24le</property>
  <property name="meta.media.2.codec.long_name">PCM signed 24-bit little-endian</property>
  <property name="meta.media.2.codec.bit_rate">2304000</property>
  <property name="meta.attr.2.stream.creation_time.markup">2018-12-10T15:52:13.000000Z</property>
  <property name="meta.attr.2.stream.language.markup">eng</property>
  <property name="meta.attr.2.stream.handler_name.markup">Apple Sound Media Handler</property>
  <property name="meta.attr.2.stream.timecode.markup">15:52:13:35</property>
  <property name="meta.attr.com.apple.proapps.manufacturer.markup">Blackmagic Design</property>
  <property name="meta.attr.com.apple.proapps.cameraName.markup">CAM1</property>
  <property name="meta.attr.com.apple.proapps.isGood.markup">0</property>
  <property name="meta.attr.com.apple.proapps.customgamma.markup">com.blackmagic-design.cinemacamera.filmlog</property>
  <property name="meta.attr.com.blackmagic-design.cinemacamera.uuid.markup">18E5E00548F94923B646613A73C01B56</property>
  <property name="meta.attr.creation_time.markup">2018-12-10T15:52:13.000000Z</property>
  <property name="meta.attr.timecode.markup">15:52:13:35</property>
  <property name="seekable">1</property>
  <property name="meta.media.sample_aspect_num">1</property>
  <property name="meta.media.sample_aspect_den">1</property>
  <property name="aspect_ratio">1</property>
  <property name="kdenlive:folderid">9</property>
  <property name="kdenlive:file_size">10772440985</property>
  <property name="kdenlive:file_hash">3b4484753689f48a337c1729ea18ad59</property>
  <property name="global_feed">1</property>
  <property name="meta.media.frame_rate_num">50</property>
  <property name="meta.media.frame_rate_den">1</property>
  <property name="meta.media.colorspace">709</property>
  <property name="meta.media.color_trc">2</property>
  <property name="meta.media.width">1920</property>
  <property name="meta.media.height">1080</property>
  <property name="meta.media.top_field_first">0</property>
  <property name="meta.media.progressive">1</property>
 </producer>
 <producer title="Anonymous Submission" id="6" in="0" out="4178">
  <property name="length">00:01:23:29</property>
  <property name="eof">pause</property>
  <property name="resource">/media/bordun/plagiat/2018-12-10_Plagiat_RespecteLaPuissancePapale/Carte_2/CAM1_2018-12-10_1638_C0001.mov</property>
  <property name="audio_index">2</property>
  <property name="video_index">1</property>
  <property name="mute_on_pause">1</property>
  <property name="mlt_service">avformat-novalidate</property>
  <property name="meta.media.nb_streams">3</property>
  <property name="meta.media.1.stream.type">video</property>
  <property name="meta.media.1.stream.frame_rate">50</property>
  <property name="meta.media.1.stream.sample_aspect_ratio">1</property>
  <property name="meta.media.1.codec.width">1920</property>
  <property name="meta.media.1.codec.height">1080</property>
  <property name="meta.media.1.codec.rotate">0</property>
  <property name="meta.media.1.codec.frame_rate">5000</property>
  <property name="meta.media.1.codec.pix_fmt">yuv422p10le</property>
  <property name="meta.media.1.codec.sample_aspect_ratio">0</property>
  <property name="meta.media.1.codec.colorspace">709</property>
  <property name="meta.media.1.codec.name">prores</property>
  <property name="meta.media.1.codec.long_name">ProRes (iCodec Pro)</property>
  <property name="meta.media.1.codec.bit_rate">366955515</property>
  <property name="meta.attr.1.stream.creation_time.markup">2018-12-10T16:38:23.000000Z</property>
  <property name="meta.attr.1.stream.language.markup">eng</property>
  <property name="meta.attr.1.stream.handler_name.markup">Apple Video Media Handler</property>
  <property name="meta.attr.1.stream.encoder.markup">Apple ProRes 422 HQ</property>
  <property name="meta.attr.1.stream.timecode.markup">16:38:23:16</property>
  <property name="meta.media.2.stream.type">audio</property>
  <property name="meta.media.2.codec.sample_fmt">s32</property>
  <property name="meta.media.2.codec.sample_rate">48000</property>
  <property name="meta.media.2.codec.channels">2</property>
  <property name="meta.media.2.codec.name">pcm_s24le</property>
  <property name="meta.media.2.codec.long_name">PCM signed 24-bit little-endian</property>
  <property name="meta.media.2.codec.bit_rate">2304000</property>
  <property name="meta.attr.2.stream.creation_time.markup">2018-12-10T16:38:23.000000Z</property>
  <property name="meta.attr.2.stream.language.markup">eng</property>
  <property name="meta.attr.2.stream.handler_name.markup">Apple Sound Media Handler</property>
  <property name="meta.attr.2.stream.timecode.markup">16:38:23:16</property>
  <property name="meta.attr.com.apple.proapps.manufacturer.markup">Blackmagic Design</property>
  <property name="meta.attr.com.apple.proapps.cameraName.markup">CAM1</property>
  <property name="meta.attr.com.apple.proapps.isGood.markup">0</property>
  <property name="meta.attr.com.apple.proapps.customgamma.markup">com.blackmagic-design.cinemacamera.filmlog</property>
  <property name="meta.attr.com.blackmagic-design.cinemacamera.uuid.markup">18E5E00548F94923B646613A73C01B56</property>
  <property name="meta.attr.creation_time.markup">2018-12-10T16:38:23.000000Z</property>
  <property name="meta.attr.timecode.markup">16:38:23:16</property>
  <property name="seekable">1</property>
  <property name="meta.media.sample_aspect_num">1</property>
  <property name="meta.media.sample_aspect_den">1</property>
  <property name="aspect_ratio">1</property>
  <property name="kdenlive:folderid">10</property>
  <property name="kdenlive:file_size">3858252521</property>
  <property name="kdenlive:file_hash">5c73d3cae02de055fc4255e57a85a699</property>
  <property name="global_feed">1</property>
  <property name="meta.media.frame_rate_num">50</property>
  <property name="meta.media.frame_rate_den">1</property>
  <property name="meta.media.colorspace">709</property>
  <property name="meta.media.color_trc">2</property>
  <property name="meta.media.width">1920</property>
  <property name="meta.media.height">1080</property>
  <property name="meta.media.top_field_first">0</property>
  <property name="meta.media.progressive">1</property>
 </producer>
 <producer title="Anonymous Submission" id="7" in="0" out="8532">
  <property name="length">00:02:50:33</property>
  <property name="eof">pause</property>
  <property name="resource">/media/bordun/plagiat/2018-12-10_Plagiat_RespecteLaPuissancePapale/Carte_2/CAM1_2018-12-10_1642_C0002.mov</property>
  <property name="audio_index">2</property>
  <property name="video_index">1</property>
  <property name="mute_on_pause">1</property>
  <property name="mlt_service">avformat-novalidate</property>
  <property name="meta.media.nb_streams">3</property>
  <property name="meta.media.1.stream.type">video</property>
  <property name="meta.media.1.stream.frame_rate">50</property>
  <property name="meta.media.1.stream.sample_aspect_ratio">1</property>
  <property name="meta.media.1.codec.width">1920</property>
  <property name="meta.media.1.codec.height">1080</property>
  <property name="meta.media.1.codec.rotate">0</property>
  <property name="meta.media.1.codec.frame_rate">5000</property>
  <property name="meta.media.1.codec.pix_fmt">yuv422p10le</property>
  <property name="meta.media.1.codec.sample_aspect_ratio">0</property>
  <property name="meta.media.1.codec.colorspace">709</property>
  <property name="meta.media.1.codec.name">prores</property>
  <property name="meta.media.1.codec.long_name">ProRes (iCodec Pro)</property>
  <property name="meta.media.1.codec.bit_rate">366955794</property>
  <property name="meta.attr.1.stream.creation_time.markup">2018-12-10T16:42:49.000000Z</property>
  <property name="meta.attr.1.stream.language.markup">eng</property>
  <property name="meta.attr.1.stream.handler_name.markup">Apple Video Media Handler</property>
  <property name="meta.attr.1.stream.encoder.markup">Apple ProRes 422 HQ</property>
  <property name="meta.attr.1.stream.timecode.markup">16:42:49:18</property>
  <property name="meta.media.2.stream.type">audio</property>
  <property name="meta.media.2.codec.sample_fmt">s32</property>
  <property name="meta.media.2.codec.sample_rate">48000</property>
  <property name="meta.media.2.codec.channels">2</property>
  <property name="meta.media.2.codec.name">pcm_s24le</property>
  <property name="meta.media.2.codec.long_name">PCM signed 24-bit little-endian</property>
  <property name="meta.media.2.codec.bit_rate">2304000</property>
  <property name="meta.attr.2.stream.creation_time.markup">2018-12-10T16:42:49.000000Z</property>
  <property name="meta.attr.2.stream.language.markup">eng</property>
  <property name="meta.attr.2.stream.handler_name.markup">Apple Sound Media Handler</property>
  <property name="meta.attr.2.stream.timecode.markup">16:42:49:18</property>
  <property name="meta.attr.com.apple.proapps.manufacturer.markup">Blackmagic Design</property>
  <property name="meta.attr.com.apple.proapps.cameraName.markup">CAM1</property>
  <property name="meta.attr.com.apple.proapps.isGood.markup">0</property>
  <property name="meta.attr.com.apple.proapps.customgamma.markup">com.blackmagic-design.cinemacamera.filmlog</property>
  <property name="meta.attr.com.blackmagic-design.cinemacamera.uuid.markup">18E5E00548F94923B646613A73C01B56</property>
  <property name="meta.attr.creation_time.markup">2018-12-10T16:42:49.000000Z</property>
  <property name="meta.attr.timecode.markup">16:42:49:18</property>
  <property name="seekable">1</property>
  <property name="meta.media.sample_aspect_num">1</property>
  <property name="meta.media.sample_aspect_den">1</property>
  <property name="aspect_ratio">1</property>
  <property name="kdenlive:folderid">10</property>
  <property name="kdenlive:file_size">7878058913</property>
  <property name="kdenlive:file_hash">804eaf7e1fe7b8bd61bac5713c20d510</property>
  <property name="global_feed">1</property>
  <property name="meta.media.frame_rate_num">50</property>
  <property name="meta.media.frame_rate_den">1</property>
  <property name="meta.media.colorspace">709</property>
  <property name="meta.media.color_trc">2</property>
  <property name="meta.media.width">1920</property>
  <property name="meta.media.height">1080</property>
  <property name="meta.media.top_field_first">0</property>
  <property name="meta.media.progressive">1</property>
 </producer>
 <producer title="Anonymous Submission" id="16" in="0" out="2403">
  <property name="length">00:00:48:04</property>
  <property name="eof">pause</property>
  <property name="resource">/media/bordun/plagiat/2018-12-10_Plagiat_RespecteLaPuissancePapale/Carte_3/CAM1_2018-12-10_1851_C0005.mov</property>
  <property name="audio_index">2</property>
  <property name="video_index">1</property>
  <property name="mute_on_pause">1</property>
  <property name="mlt_service">avformat-novalidate</property>
  <property name="meta.media.nb_streams">3</property>
  <property name="meta.media.1.stream.type">video</property>
  <property name="meta.media.1.stream.frame_rate">50</property>
  <property name="meta.media.1.stream.sample_aspect_ratio">1</property>
  <property name="meta.media.1.codec.width">1920</property>
  <property name="meta.media.1.codec.height">1080</property>
  <property name="meta.media.1.codec.rotate">0</property>
  <property name="meta.media.1.codec.frame_rate">5000</property>
  <property name="meta.media.1.codec.pix_fmt">yuv422p10le</property>
  <property name="meta.media.1.codec.sample_aspect_ratio">0</property>
  <property name="meta.media.1.codec.colorspace">709</property>
  <property name="meta.media.1.codec.name">prores</property>
  <property name="meta.media.1.codec.long_name">ProRes (iCodec Pro)</property>
  <property name="meta.media.1.codec.bit_rate">366956708</property>
  <property name="meta.attr.1.stream.creation_time.markup">2018-12-10T18:51:16.000000Z</property>
  <property name="meta.attr.1.stream.language.markup">eng</property>
  <property name="meta.attr.1.stream.handler_name.markup">Apple Video Media Handler</property>
  <property name="meta.attr.1.stream.encoder.markup">Apple ProRes 422 HQ</property>
  <property name="meta.attr.1.stream.timecode.markup">18:51:16:13</property>
  <property name="meta.media.2.stream.type">audio</property>
  <property name="meta.media.2.codec.sample_fmt">s32</property>
  <property name="meta.media.2.codec.sample_rate">48000</property>
  <property name="meta.media.2.codec.channels">2</property>
  <property name="meta.media.2.codec.name">pcm_s24le</property>
  <property name="meta.media.2.codec.long_name">PCM signed 24-bit little-endian</property>
  <property name="meta.media.2.codec.bit_rate">2304000</property>
  <property name="meta.attr.2.stream.creation_time.markup">2018-12-10T18:51:16.000000Z</property>
  <property name="meta.attr.2.stream.language.markup">eng</property>
  <property name="meta.attr.2.stream.handler_name.markup">Apple Sound Media Handler</property>
  <property name="meta.attr.2.stream.timecode.markup">18:51:16:13</property>
  <property name="meta.attr.com.apple.proapps.manufacturer.markup">Blackmagic Design</property>
  <property name="meta.attr.com.apple.proapps.cameraName.markup">CAM1</property>
  <property name="meta.attr.com.apple.proapps.isGood.markup">0</property>
  <property name="meta.attr.com.apple.proapps.customgamma.markup">com.blackmagic-design.cinemacamera.filmlog</property>
  <property name="meta.attr.com.blackmagic-design.cinemacamera.uuid.markup">18E5E00548F94923B646613A73C01B56</property>
  <property name="meta.attr.creation_time.markup">2018-12-10T18:51:16.000000Z</property>
  <property name="meta.attr.timecode.markup">18:51:16:13</property>
  <property name="seekable">1</property>
  <property name="meta.media.sample_aspect_num">1</property>
  <property name="meta.media.sample_aspect_den">1</property>
  <property name="aspect_ratio">1</property>
  <property name="kdenlive:folderid">13</property>
  <property name="kdenlive:file_size">2219492305</property>
  <property name="kdenlive:file_hash">5decca499b71c19207e6eb5441ec1c74</property>
  <property name="global_feed">1</property>
  <property name="meta.media.frame_rate_num">50</property>
  <property name="meta.media.frame_rate_den">1</property>
  <property name="meta.media.colorspace">709</property>
  <property name="meta.media.color_trc">2</property>
  <property name="meta.media.width">1920</property>
  <property name="meta.media.height">1080</property>
  <property name="meta.media.top_field_first">0</property>
  <property name="meta.media.progressive">1</property>
 </producer>
 <producer title="Anonymous Submission" id="17" in="0" out="2706">
  <property name="length">00:00:54:07</property>
  <property name="eof">pause</property>
  <property name="resource">/media/bordun/plagiat/2018-12-10_Plagiat_RespecteLaPuissancePapale/Carte_3/CAM1_2018-12-10_1853_C0006.mov</property>
  <property name="audio_index">2</property>
  <property name="video_index">1</property>
  <property name="mute_on_pause">1</property>
  <property name="mlt_service">avformat-novalidate</property>
  <property name="meta.media.nb_streams">3</property>
  <property name="meta.media.1.stream.type">video</property>
  <property name="meta.media.1.stream.frame_rate">50</property>
  <property name="meta.media.1.stream.sample_aspect_ratio">1</property>
  <property name="meta.media.1.codec.width">1920</property>
  <property name="meta.media.1.codec.height">1080</property>
  <property name="meta.media.1.codec.rotate">0</property>
  <property name="meta.media.1.codec.frame_rate">5000</property>
  <property name="meta.media.1.codec.pix_fmt">yuv422p10le</property>
  <property name="meta.media.1.codec.sample_aspect_ratio">0</property>
  <property name="meta.media.1.codec.colorspace">709</property>
  <property name="meta.media.1.codec.name">prores</property>
  <property name="meta.media.1.codec.long_name">ProRes (iCodec Pro)</property>
  <property name="meta.media.1.codec.bit_rate">366954964</property>
  <property name="meta.attr.1.stream.creation_time.markup">2018-12-10T18:53:43.000000Z</property>
  <property name="meta.attr.1.stream.language.markup">eng</property>
  <property name="meta.attr.1.stream.handler_name.markup">Apple Video Media Handler</property>
  <property name="meta.attr.1.stream.encoder.markup">Apple ProRes 422 HQ</property>
  <property name="meta.attr.1.stream.timecode.markup">18:53:43:03</property>
  <property name="meta.media.2.stream.type">audio</property>
  <property name="meta.media.2.codec.sample_fmt">s32</property>
  <property name="meta.media.2.codec.sample_rate">48000</property>
  <property name="meta.media.2.codec.channels">2</property>
  <property name="meta.media.2.codec.name">pcm_s24le</property>
  <property name="meta.media.2.codec.long_name">PCM signed 24-bit little-endian</property>
  <property name="meta.media.2.codec.bit_rate">2304000</property>
  <property name="meta.attr.2.stream.creation_time.markup">2018-12-10T18:53:43.000000Z</property>
  <property name="meta.attr.2.stream.language.markup">eng</property>
  <property name="meta.attr.2.stream.handler_name.markup">Apple Sound Media Handler</property>
  <property name="meta.attr.2.stream.timecode.markup">18:53:43:03</property>
  <property name="meta.attr.com.apple.proapps.manufacturer.markup">Blackmagic Design</property>
  <property name="meta.attr.com.apple.proapps.cameraName.markup">CAM1</property>
  <property name="meta.attr.com.apple.proapps.isGood.markup">0</property>
  <property name="meta.attr.com.apple.proapps.customgamma.markup">com.blackmagic-design.cinemacamera.filmlog</property>
  <property name="meta.attr.com.blackmagic-design.cinemacamera.uuid.markup">18E5E00548F94923B646613A73C01B56</property>
  <property name="meta.attr.creation_time.markup">2018-12-10T18:53:43.000000Z</property>
  <property name="meta.attr.timecode.markup">18:53:43:03</property>
  <property name="seekable">1</property>
  <property name="meta.media.sample_aspect_num">1</property>
  <property name="meta.media.sample_aspect_den">1</property>
  <property name="aspect_ratio">1</property>
  <property name="kdenlive:folderid">13</property>
  <property name="kdenlive:file_size">2499243521</property>
  <property name="kdenlive:file_hash">c52a59c46a49b670f466d109daab353c</property>
  <property name="global_feed">1</property>
  <property name="meta.media.frame_rate_num">50</property>
  <property name="meta.media.frame_rate_den">1</property>
  <property name="meta.media.colorspace">709</property>
  <property name="meta.media.color_trc">2</property>
  <property name="meta.media.width">1920</property>
  <property name="meta.media.height">1080</property>
  <property name="meta.media.top_field_first">0</property>
  <property name="meta.media.progressive">1</property>
 </producer>
 <producer title="Anonymous Submission" id="18" in="0" out="1547">
  <property name="length">00:00:30:48</property>
  <property name="eof">pause</property>
  <property name="resource">/media/bordun/plagiat/2018-12-10_Plagiat_RespecteLaPuissancePapale/Carte_3/CAM1_2018-12-10_1855_C0007.mov</property>
  <property name="audio_index">2</property>
  <property name="video_index">1</property>
  <property name="mute_on_pause">1</property>
  <property name="mlt_service">avformat-novalidate</property>
  <property name="meta.media.nb_streams">3</property>
  <property name="meta.media.1.stream.type">video</property>
  <property name="meta.media.1.stream.frame_rate">50</property>
  <property name="meta.media.1.stream.sample_aspect_ratio">1</property>
  <property name="meta.media.1.codec.width">1920</property>
  <property name="meta.media.1.codec.height">1080</property>
  <property name="meta.media.1.codec.rotate">0</property>
  <property name="meta.media.1.codec.frame_rate">5000</property>
  <property name="meta.media.1.codec.pix_fmt">yuv422p10le</property>
  <property name="meta.media.1.codec.sample_aspect_ratio">0</property>
  <property name="meta.media.1.codec.colorspace">709</property>
  <property name="meta.media.1.codec.name">prores</property>
  <property name="meta.media.1.codec.long_name">ProRes (iCodec Pro)</property>
  <property name="meta.media.1.codec.bit_rate">366957395</property>
  <property name="meta.attr.1.stream.creation_time.markup">2018-12-10T18:55:29.000000Z</property>
  <property name="meta.attr.1.stream.language.markup">eng</property>
  <property name="meta.attr.1.stream.handler_name.markup">Apple Video Media Handler</property>
  <property name="meta.attr.1.stream.encoder.markup">Apple ProRes 422 HQ</property>
  <property name="meta.attr.1.stream.timecode.markup">18:55:29:30</property>
  <property name="meta.media.2.stream.type">audio</property>
  <property name="meta.media.2.codec.sample_fmt">s32</property>
  <property name="meta.media.2.codec.sample_rate">48000</property>
  <property name="meta.media.2.codec.channels">2</property>
  <property name="meta.media.2.codec.name">pcm_s24le</property>
  <property name="meta.media.2.codec.long_name">PCM signed 24-bit little-endian</property>
  <property name="meta.media.2.codec.bit_rate">2304000</property>
  <property name="meta.attr.2.stream.creation_time.markup">2018-12-10T18:55:29.000000Z</property>
  <property name="meta.attr.2.stream.language.markup">eng</property>
  <property name="meta.attr.2.stream.handler_name.markup">Apple Sound Media Handler</property>
  <property name="meta.attr.2.stream.timecode.markup">18:55:29:30</property>
  <property name="meta.attr.com.apple.proapps.manufacturer.markup">Blackmagic Design</property>
  <property name="meta.attr.com.apple.proapps.cameraName.markup">CAM1</property>
  <property name="meta.attr.com.apple.proapps.isGood.markup">0</property>
  <property name="meta.attr.com.apple.proapps.customgamma.markup">com.blackmagic-design.cinemacamera.filmlog</property>
  <property name="meta.attr.com.blackmagic-design.cinemacamera.uuid.markup">18E5E00548F94923B646613A73C01B56</property>
  <property name="meta.attr.creation_time.markup">2018-12-10T18:55:29.000000Z</property>
  <property name="meta.attr.timecode.markup">18:55:29:30</property>
  <property name="seekable">1</property>
  <property name="meta.media.sample_aspect_num">1</property>
  <property name="meta.media.sample_aspect_den">1</property>
  <property name="aspect_ratio">1</property>
  <property name="kdenlive:folderid">13</property>
  <property name="kdenlive:file_size">1429192513</property>
  <property name="kdenlive:file_hash">626434d53e10f12816265ac334d41379</property>
  <property name="global_feed">1</property>
  <property name="meta.media.frame_rate_num">50</property>
  <property name="meta.media.frame_rate_den">1</property>
  <property name="meta.media.colorspace">709</property>
  <property name="meta.media.color_trc">2</property>
  <property name="meta.media.width">1920</property>
  <property name="meta.media.height">1080</property>
  <property name="meta.media.top_field_first">0</property>
  <property name="meta.media.progressive">1</property>
 </producer>
 <producer title="Anonymous Submission" id="19" in="0" out="2823">
  <property name="length">00:00:56:24</property>
  <property name="eof">pause</property>
  <property name="resource">/media/bordun/plagiat/2018-12-10_Plagiat_RespecteLaPuissancePapale/Carte_3/CAM1_2018-12-10_1856_C0008.mov</property>
  <property name="audio_index">2</property>
  <property name="video_index">1</property>
  <property name="mute_on_pause">1</property>
  <property name="mlt_service">avformat-novalidate</property>
  <property name="meta.media.nb_streams">3</property>
  <property name="meta.media.1.stream.type">video</property>
  <property name="meta.media.1.stream.frame_rate">50</property>
  <property name="meta.media.1.stream.sample_aspect_ratio">1</property>
  <property name="meta.media.1.codec.width">1920</property>
  <property name="meta.media.1.codec.height">1080</property>
  <property name="meta.media.1.codec.rotate">0</property>
  <property name="meta.media.1.codec.frame_rate">5000</property>
  <property name="meta.media.1.codec.pix_fmt">yuv422p10le</property>
  <property name="meta.media.1.codec.sample_aspect_ratio">0</property>
  <property name="meta.media.1.codec.colorspace">709</property>
  <property name="meta.media.1.codec.name">prores</property>
  <property name="meta.media.1.codec.long_name">ProRes (iCodec Pro)</property>
  <property name="meta.media.1.codec.bit_rate">366955049</property>
  <property name="meta.attr.1.stream.creation_time.markup">2018-12-10T18:56:22.000000Z</property>
  <property name="meta.attr.1.stream.language.markup">eng</property>
  <property name="meta.attr.1.stream.handler_name.markup">Apple Video Media Handler</property>
  <property name="meta.attr.1.stream.encoder.markup">Apple ProRes 422 HQ</property>
  <property name="meta.attr.1.stream.timecode.markup">18:56:22:36</property>
  <property name="meta.media.2.stream.type">audio</property>
  <property name="meta.media.2.codec.sample_fmt">s32</property>
  <property name="meta.media.2.codec.sample_rate">48000</property>
  <property name="meta.media.2.codec.channels">2</property>
  <property name="meta.media.2.codec.name">pcm_s24le</property>
  <property name="meta.media.2.codec.long_name">PCM signed 24-bit little-endian</property>
  <property name="meta.media.2.codec.bit_rate">2304000</property>
  <property name="meta.attr.2.stream.creation_time.markup">2018-12-10T18:56:22.000000Z</property>
  <property name="meta.attr.2.stream.language.markup">eng</property>
  <property name="meta.attr.2.stream.handler_name.markup">Apple Sound Media Handler</property>
  <property name="meta.attr.2.stream.timecode.markup">18:56:22:36</property>
  <property name="meta.attr.com.apple.proapps.manufacturer.markup">Blackmagic Design</property>
  <property name="meta.attr.com.apple.proapps.cameraName.markup">CAM1</property>
  <property name="meta.attr.com.apple.proapps.isGood.markup">0</property>
  <property name="meta.attr.com.apple.proapps.customgamma.markup">com.blackmagic-design.cinemacamera.filmlog</property>
  <property name="meta.attr.com.blackmagic-design.cinemacamera.uuid.markup">18E5E00548F94923B646613A73C01B56</property>
  <property name="meta.attr.creation_time.markup">2018-12-10T18:56:22.000000Z</property>
  <property name="meta.attr.timecode.markup">18:56:22:36</property>
  <property name="seekable">1</property>
  <property name="meta.media.sample_aspect_num">1</property>
  <property name="meta.media.sample_aspect_den">1</property>
  <property name="aspect_ratio">1</property>
  <property name="kdenlive:folderid">13</property>
  <property name="kdenlive:file_size">2607255569</property>
  <property name="kdenlive:file_hash">4d6c52ada6c928dfc33b28648fd401f1</property>
  <property name="global_feed">1</property>
  <property name="meta.media.frame_rate_num">50</property>
  <property name="meta.media.frame_rate_den">1</property>
  <property name="meta.media.colorspace">709</property>
  <property name="meta.media.color_trc">2</property>
  <property name="meta.media.width">1920</property>
  <property name="meta.media.height">1080</property>
  <property name="meta.media.top_field_first">0</property>
  <property name="meta.media.progressive">1</property>
 </producer>
 <producer title="Anonymous Submission" id="20" in="0" out="995">
  <property name="length">00:00:19:46</property>
  <property name="eof">pause</property>
  <property name="resource">/media/bordun/plagiat/2018-12-10_Plagiat_RespecteLaPuissancePapale/Carte_3/CAM1_2018-12-10_1857_C0009.mov</property>
  <property name="audio_index">2</property>
  <property name="video_index">1</property>
  <property name="mute_on_pause">1</property>
  <property name="mlt_service">avformat-novalidate</property>
  <property name="meta.media.nb_streams">3</property>
  <property name="meta.media.1.stream.type">video</property>
  <property name="meta.media.1.stream.frame_rate">50</property>
  <property name="meta.media.1.stream.sample_aspect_ratio">1</property>
  <property name="meta.media.1.codec.width">1920</property>
  <property name="meta.media.1.codec.height">1080</property>
  <property name="meta.media.1.codec.rotate">0</property>
  <property name="meta.media.1.codec.frame_rate">5000</property>
  <property name="meta.media.1.codec.pix_fmt">yuv422p10le</property>
  <property name="meta.media.1.codec.sample_aspect_ratio">0</property>
  <property name="meta.media.1.codec.colorspace">709</property>
  <property name="meta.media.1.codec.name">prores</property>
  <property name="meta.media.1.codec.long_name">ProRes (iCodec Pro)</property>
  <property name="meta.media.1.codec.bit_rate">366959048</property>
  <property name="meta.attr.1.stream.creation_time.markup">2018-12-10T18:57:40.000000Z</property>
  <property name="meta.attr.1.stream.language.markup">eng</property>
  <property name="meta.attr.1.stream.handler_name.markup">Apple Video Media Handler</property>
  <property name="meta.attr.1.stream.encoder.markup">Apple ProRes 422 HQ</property>
  <property name="meta.attr.1.stream.timecode.markup">18:57:40:47</property>
  <property name="meta.media.2.stream.type">audio</property>
  <property name="meta.media.2.codec.sample_fmt">s32</property>
  <property name="meta.media.2.codec.sample_rate">48000</property>
  <property name="meta.media.2.codec.channels">2</property>
  <property name="meta.media.2.codec.name">pcm_s24le</property>
  <property name="meta.media.2.codec.long_name">PCM signed 24-bit little-endian</property>
  <property name="meta.media.2.codec.bit_rate">2304000</property>
  <property name="meta.attr.2.stream.creation_time.markup">2018-12-10T18:57:40.000000Z</property>
  <property name="meta.attr.2.stream.language.markup">eng</property>
  <property name="meta.attr.2.stream.handler_name.markup">Apple Sound Media Handler</property>
  <property name="meta.attr.2.stream.timecode.markup">18:57:40:47</property>
  <property name="meta.attr.com.apple.proapps.manufacturer.markup">Blackmagic Design</property>
  <property name="meta.attr.com.apple.proapps.cameraName.markup">CAM1</property>
  <property name="meta.attr.com.apple.proapps.isGood.markup">0</property>
  <property name="meta.attr.com.apple.proapps.customgamma.markup">com.blackmagic-design.cinemacamera.filmlog</property>
  <property name="meta.attr.com.blackmagic-design.cinemacamera.uuid.markup">18E5E00548F94923B646613A73C01B56</property>
  <property name="meta.attr.creation_time.markup">2018-12-10T18:57:40.000000Z</property>
  <property name="meta.attr.timecode.markup">18:57:40:47</property>
  <property name="seekable">1</property>
  <property name="meta.media.sample_aspect_num">1</property>
  <property name="meta.media.sample_aspect_den">1</property>
  <property name="aspect_ratio">1</property>
  <property name="kdenlive:folderid">13</property>
  <property name="kdenlive:file_size">919559913</property>
  <property name="kdenlive:file_hash">1729a26f0eb1c7c9bfd5136f79c4245a</property>
  <property name="global_feed">1</property>
  <property name="meta.media.frame_rate_num">50</property>
  <property name="meta.media.frame_rate_den">1</property>
  <property name="meta.media.colorspace">709</property>
  <property name="meta.media.color_trc">2</property>
  <property name="meta.media.width">1920</property>
  <property name="meta.media.height">1080</property>
  <property name="meta.media.top_field_first">0</property>
  <property name="meta.media.progressive">1</property>
 </producer>
 <producer title="Anonymous Submission" id="21" in="0" out="8367">
  <property name="length">00:02:47:18</property>
  <property name="eof">pause</property>
  <property name="resource">/media/bordun/plagiat/2018-12-10_Plagiat_RespecteLaPuissancePapale/Carte_4/CAM1_2018-12-10_1918_C0004.mov</property>
  <property name="audio_index">2</property>
  <property name="video_index">1</property>
  <property name="mute_on_pause">1</property>
  <property name="mlt_service">avformat-novalidate</property>
  <property name="meta.media.nb_streams">3</property>
  <property name="meta.media.1.stream.type">video</property>
  <property name="meta.media.1.stream.frame_rate">50</property>
  <property name="meta.media.1.stream.sample_aspect_ratio">1</property>
  <property name="meta.media.1.codec.width">1920</property>
  <property name="meta.media.1.codec.height">1080</property>
  <property name="meta.media.1.codec.rotate">0</property>
  <property name="meta.media.1.codec.frame_rate">5000</property>
  <property name="meta.media.1.codec.pix_fmt">yuv422p10le</property>
  <property name="meta.media.1.codec.sample_aspect_ratio">0</property>
  <property name="meta.media.1.codec.colorspace">709</property>
  <property name="meta.media.1.codec.name">prores</property>
  <property name="meta.media.1.codec.long_name">ProRes (iCodec Pro)</property>
  <property name="meta.media.1.codec.bit_rate">366957425</property>
  <property name="meta.attr.1.stream.creation_time.markup">2018-12-10T19:18:09.000000Z</property>
  <property name="meta.attr.1.stream.language.markup">eng</property>
  <property name="meta.attr.1.stream.handler_name.markup">Apple Video Media Handler</property>
  <property name="meta.attr.1.stream.encoder.markup">Apple ProRes 422 HQ</property>
  <property name="meta.attr.1.stream.timecode.markup">19:18:09:37</property>
  <property name="meta.media.2.stream.type">audio</property>
  <property name="meta.media.2.codec.sample_fmt">s32</property>
  <property name="meta.media.2.codec.sample_rate">48000</property>
  <property name="meta.media.2.codec.channels">2</property>
  <property name="meta.media.2.codec.name">pcm_s24le</property>
  <property name="meta.media.2.codec.long_name">PCM signed 24-bit little-endian</property>
  <property name="meta.media.2.codec.bit_rate">2304000</property>
  <property name="meta.attr.2.stream.creation_time.markup">2018-12-10T19:18:09.000000Z</property>
  <property name="meta.attr.2.stream.language.markup">eng</property>
  <property name="meta.attr.2.stream.handler_name.markup">Apple Sound Media Handler</property>
  <property name="meta.attr.2.stream.timecode.markup">19:18:09:37</property>
  <property name="meta.attr.com.apple.proapps.manufacturer.markup">Blackmagic Design</property>
  <property name="meta.attr.com.apple.proapps.cameraName.markup">CAM1</property>
  <property name="meta.attr.com.apple.proapps.isGood.markup">0</property>
  <property name="meta.attr.com.apple.proapps.customgamma.markup">com.blackmagic-design.cinemacamera.filmlog</property>
  <property name="meta.attr.com.blackmagic-design.cinemacamera.uuid.markup">18E5E00548F94923B646613A73C01B56</property>
  <property name="meta.attr.creation_time.markup">2018-12-10T19:18:09.000000Z</property>
  <property name="meta.attr.timecode.markup">19:18:09:37</property>
  <property name="seekable">1</property>
  <property name="meta.media.sample_aspect_num">1</property>
  <property name="meta.media.sample_aspect_den">1</property>
  <property name="aspect_ratio">1</property>
  <property name="kdenlive:folderid">13</property>
  <property name="kdenlive:file_size">7725732233</property>
  <property name="kdenlive:file_hash">4738ec11929b714df4a2322c7cba3752</property>
  <property name="global_feed">1</property>
  <property name="meta.media.frame_rate_num">50</property>
  <property name="meta.media.frame_rate_den">1</property>
  <property name="meta.media.colorspace">709</property>
  <property name="meta.media.color_trc">2</property>
  <property name="meta.media.width">1920</property>
  <property name="meta.media.height">1080</property>
  <property name="meta.media.top_field_first">0</property>
  <property name="meta.media.progressive">1</property>
 </producer>
 <producer title="Anonymous Submission" id="23" in="0" out="90">
  <property name="length">00:00:01:41</property>
  <property name="eof">pause</property>
  <property name="resource">/media/bordun/plagiat/2018-12-10_Plagiat_RespecteLaPuissancePapale/Carte_4/CAM1_2018-12-10_1930_C0006.mov</property>
  <property name="audio_index">2</property>
  <property name="video_index">1</property>
  <property name="mute_on_pause">1</property>
  <property name="mlt_service">avformat-novalidate</property>
  <property name="meta.media.nb_streams">3</property>
  <property name="meta.media.1.stream.type">video</property>
  <property name="meta.media.1.stream.frame_rate">50</property>
  <property name="meta.media.1.stream.sample_aspect_ratio">1</property>
  <property name="meta.media.1.codec.width">1920</property>
  <property name="meta.media.1.codec.height">1080</property>
  <property name="meta.media.1.codec.rotate">0</property>
  <property name="meta.media.1.codec.frame_rate">5000</property>
  <property name="meta.media.1.codec.pix_fmt">yuv422p10le</property>
  <property name="meta.media.1.codec.sample_aspect_ratio">0</property>
  <property name="meta.media.1.codec.colorspace">709</property>
  <property name="meta.media.1.codec.name">prores</property>
  <property name="meta.media.1.codec.long_name">ProRes (iCodec Pro)</property>
  <property name="meta.media.1.codec.bit_rate">366959648</property>
  <property name="meta.attr.1.stream.creation_time.markup">2018-12-10T19:30:36.000000Z</property>
  <property name="meta.attr.1.stream.language.markup">eng</property>
  <property name="meta.attr.1.stream.handler_name.markup">Apple Video Media Handler</property>
  <property name="meta.attr.1.stream.encoder.markup">Apple ProRes 422 HQ</property>
  <property name="meta.attr.1.stream.timecode.markup">19:30:36:33</property>
  <property name="meta.media.2.stream.type">audio</property>
  <property name="meta.media.2.codec.sample_fmt">s32</property>
  <property name="meta.media.2.codec.sample_rate">48000</property>
  <property name="meta.media.2.codec.channels">2</property>
  <property name="meta.media.2.codec.name">pcm_s24le</property>
  <property name="meta.media.2.codec.long_name">PCM signed 24-bit little-endian</property>
  <property name="meta.media.2.codec.bit_rate">2304000</property>
  <property name="meta.attr.2.stream.creation_time.markup">2018-12-10T19:30:36.000000Z</property>
  <property name="meta.attr.2.stream.language.markup">eng</property>
  <property name="meta.attr.2.stream.handler_name.markup">Apple Sound Media Handler</property>
  <property name="meta.attr.2.stream.timecode.markup">19:30:36:33</property>
  <property name="meta.attr.com.apple.proapps.manufacturer.markup">Blackmagic Design</property>
  <property name="meta.attr.com.apple.proapps.cameraName.markup">CAM1</property>
  <property name="meta.attr.com.apple.proapps.isGood.markup">0</property>
  <property name="meta.attr.com.apple.proapps.customgamma.markup">com.blackmagic-design.cinemacamera.filmlog</property>
  <property name="meta.attr.com.blackmagic-design.cinemacamera.uuid.markup">18E5E00548F94923B646613A73C01B56</property>
  <property name="meta.attr.creation_time.markup">2018-12-10T19:30:36.000000Z</property>
  <property name="meta.attr.timecode.markup">19:30:36:33</property>
  <property name="seekable">1</property>
  <property name="meta.media.sample_aspect_num">1</property>
  <property name="meta.media.sample_aspect_den">1</property>
  <property name="aspect_ratio">1</property>
  <property name="kdenlive:folderid">13</property>
  <property name="kdenlive:file_size">84022873</property>
  <property name="kdenlive:file_hash">1ba34791faa62b04135628a57849c83e</property>
  <property name="global_feed">1</property>
  <property name="meta.media.frame_rate_num">50</property>
  <property name="meta.media.frame_rate_den">1</property>
  <property name="meta.media.colorspace">709</property>
  <property name="meta.media.color_trc">2</property>
  <property name="meta.media.width">1920</property>
  <property name="meta.media.height">1080</property>
  <property name="meta.media.top_field_first">0</property>
  <property name="meta.media.progressive">1</property>
 </producer>
 <producer title="Anonymous Submission" id="24" in="0" out="2194">
  <property name="length">00:00:43:45</property>
  <property name="eof">pause</property>
  <property name="resource">/media/bordun/plagiat/2018-12-10_Plagiat_RespecteLaPuissancePapale/Carte_4/CAM1_2018-12-10_1932_C0007.mov</property>
  <property name="audio_index">2</property>
  <property name="video_index">1</property>
  <property name="mute_on_pause">1</property>
  <property name="mlt_service">avformat-novalidate</property>
  <property name="meta.media.nb_streams">3</property>
  <property name="meta.media.1.stream.type">video</property>
  <property name="meta.media.1.stream.frame_rate">50</property>
  <property name="meta.media.1.stream.sample_aspect_ratio">1</property>
  <property name="meta.media.1.codec.width">1920</property>
  <property name="meta.media.1.codec.height">1080</property>
  <property name="meta.media.1.codec.rotate">0</property>
  <property name="meta.media.1.codec.frame_rate">5000</property>
  <property name="meta.media.1.codec.pix_fmt">yuv422p10le</property>
  <property name="meta.media.1.codec.sample_aspect_ratio">0</property>
  <property name="meta.media.1.codec.colorspace">709</property>
  <property name="meta.media.1.codec.name">prores</property>
  <property name="meta.media.1.codec.long_name">ProRes (iCodec Pro)</property>
  <property name="meta.media.1.codec.bit_rate">366958350</property>
  <property name="meta.attr.1.stream.creation_time.markup">2018-12-10T19:32:10.000000Z</property>
  <property name="meta.attr.1.stream.language.markup">eng</property>
  <property name="meta.attr.1.stream.handler_name.markup">Apple Video Media Handler</property>
  <property name="meta.attr.1.stream.encoder.markup">Apple ProRes 422 HQ</property>
  <property name="meta.attr.1.stream.timecode.markup">19:32:10:35</property>
  <property name="meta.media.2.stream.type">audio</property>
  <property name="meta.media.2.codec.sample_fmt">s32</property>
  <property name="meta.media.2.codec.sample_rate">48000</property>
  <property name="meta.media.2.codec.channels">2</property>
  <property name="meta.media.2.codec.name">pcm_s24le</property>
  <property name="meta.media.2.codec.long_name">PCM signed 24-bit little-endian</property>
  <property name="meta.media.2.codec.bit_rate">2304000</property>
  <property name="meta.attr.2.stream.creation_time.markup">2018-12-10T19:32:10.000000Z</property>
  <property name="meta.attr.2.stream.language.markup">eng</property>
  <property name="meta.attr.2.stream.handler_name.markup">Apple Sound Media Handler</property>
  <property name="meta.attr.2.stream.timecode.markup">19:32:10:35</property>
  <property name="meta.attr.com.apple.proapps.manufacturer.markup">Blackmagic Design</property>
  <property name="meta.attr.com.apple.proapps.cameraName.markup">CAM1</property>
  <property name="meta.attr.com.apple.proapps.isGood.markup">0</property>
  <property name="meta.attr.com.apple.proapps.customgamma.markup">com.blackmagic-design.cinemacamera.filmlog</property>
  <property name="meta.attr.com.blackmagic-design.cinemacamera.uuid.markup">18E5E00548F94923B646613A73C01B56</property>
  <property name="meta.attr.creation_time.markup">2018-12-10T19:32:10.000000Z</property>
  <property name="meta.attr.timecode.markup">19:32:10:35</property>
  <property name="seekable">1</property>
  <property name="meta.media.sample_aspect_num">1</property>
  <property name="meta.media.sample_aspect_den">1</property>
  <property name="aspect_ratio">1</property>
  <property name="kdenlive:folderid">13</property>
  <property name="kdenlive:file_size">2026532265</property>
  <property name="kdenlive:file_hash">817b2a44d7814a42acea89e05d1f8fde</property>
  <property name="global_feed">1</property>
  <property name="meta.media.frame_rate_num">50</property>
  <property name="meta.media.frame_rate_den">1</property>
  <property name="meta.media.colorspace">709</property>
  <property name="meta.media.color_trc">2</property>
  <property name="meta.media.width">1920</property>
  <property name="meta.media.height">1080</property>
  <property name="meta.media.top_field_first">0</property>
  <property name="meta.media.progressive">1</property>
 </producer>
 <producer title="Anonymous Submission" id="22" in="0" out="2303">
  <property name="length">00:00:46:04</property>
  <property name="eof">pause</property>
  <property name="resource">/media/bordun/plagiat/2018-12-10_Plagiat_RespecteLaPuissancePapale/Carte_4/CAM1_2018-12-10_1921_C0005.mov</property>
  <property name="audio_index">2</property>
  <property name="video_index">1</property>
  <property name="mute_on_pause">1</property>
  <property name="mlt_service">avformat-novalidate</property>
  <property name="meta.media.nb_streams">3</property>
  <property name="meta.media.1.stream.type">video</property>
  <property name="meta.media.1.stream.frame_rate">50</property>
  <property name="meta.media.1.stream.sample_aspect_ratio">1</property>
  <property name="meta.media.1.codec.width">1920</property>
  <property name="meta.media.1.codec.height">1080</property>
  <property name="meta.media.1.codec.rotate">0</property>
  <property name="meta.media.1.codec.frame_rate">5000</property>
  <property name="meta.media.1.codec.pix_fmt">yuv422p10le</property>
  <property name="meta.media.1.codec.sample_aspect_ratio">0</property>
  <property name="meta.media.1.codec.colorspace">709</property>
  <property name="meta.media.1.codec.name">prores</property>
  <property name="meta.media.1.codec.long_name">ProRes (iCodec Pro)</property>
  <property name="meta.media.1.codec.bit_rate">366955247</property>
  <property name="meta.attr.1.stream.creation_time.markup">2018-12-10T19:21:23.000000Z</property>
  <property name="meta.attr.1.stream.language.markup">eng</property>
  <property name="meta.attr.1.stream.handler_name.markup">Apple Video Media Handler</property>
  <property name="meta.attr.1.stream.encoder.markup">Apple ProRes 422 HQ</property>
  <property name="meta.attr.1.stream.timecode.markup">19:21:23:42</property>
  <property name="meta.media.2.stream.type">audio</property>
  <property name="meta.media.2.codec.sample_fmt">s32</property>
  <property name="meta.media.2.codec.sample_rate">48000</property>
  <property name="meta.media.2.codec.channels">2</property>
  <property name="meta.media.2.codec.name">pcm_s24le</property>
  <property name="meta.media.2.codec.long_name">PCM signed 24-bit little-endian</property>
  <property name="meta.media.2.codec.bit_rate">2304000</property>
  <property name="meta.attr.2.stream.creation_time.markup">2018-12-10T19:21:23.000000Z</property>
  <property name="meta.attr.2.stream.language.markup">eng</property>
  <property name="meta.attr.2.stream.handler_name.markup">Apple Sound Media Handler</property>
  <property name="meta.attr.2.stream.timecode.markup">19:21:23:42</property>
  <property name="meta.attr.com.apple.proapps.manufacturer.markup">Blackmagic Design</property>
  <property name="meta.attr.com.apple.proapps.cameraName.markup">CAM1</property>
  <property name="meta.attr.com.apple.proapps.isGood.markup">0</property>
  <property name="meta.attr.com.apple.proapps.customgamma.markup">com.blackmagic-design.cinemacamera.filmlog</property>
  <property name="meta.attr.com.blackmagic-design.cinemacamera.uuid.markup">18E5E00548F94923B646613A73C01B56</property>
  <property name="meta.attr.creation_time.markup">2018-12-10T19:21:23.000000Z</property>
  <property name="meta.attr.timecode.markup">19:21:23:42</property>
  <property name="seekable">1</property>
  <property name="meta.media.sample_aspect_num">1</property>
  <property name="meta.media.sample_aspect_den">1</property>
  <property name="aspect_ratio">1</property>
  <property name="kdenlive:folderid">13</property>
  <property name="kdenlive:file_size">2127176129</property>
  <property name="kdenlive:file_hash">498399b1185fccb66f9150f51f3e9c22</property>
  <property name="global_feed">1</property>
  <property name="meta.media.frame_rate_num">50</property>
  <property name="meta.media.frame_rate_den">1</property>
  <property name="meta.media.colorspace">709</property>
  <property name="meta.media.color_trc">2</property>
  <property name="meta.media.width">1920</property>
  <property name="meta.media.height">1080</property>
  <property name="meta.media.top_field_first">0</property>
  <property name="meta.media.progressive">1</property>
 </producer>
 <producer title="Anonymous Submission" id="14" in="0" out="3805">
  <property name="length">00:01:16:06</property>
  <property name="eof">pause</property>
  <property name="resource">/media/bordun/plagiat/2018-12-10_Plagiat_RespecteLaPuissancePapale/Carte_3/CAM1_2018-12-10_1833_C0003.mov</property>
  <property name="audio_index">2</property>
  <property name="video_index">1</property>
  <property name="mute_on_pause">1</property>
  <property name="mlt_service">avformat-novalidate</property>
  <property name="meta.media.nb_streams">3</property>
  <property name="meta.media.1.stream.type">video</property>
  <property name="meta.media.1.stream.frame_rate">50</property>
  <property name="meta.media.1.stream.sample_aspect_ratio">1</property>
  <property name="meta.media.1.codec.width">1920</property>
  <property name="meta.media.1.codec.height">1080</property>
  <property name="meta.media.1.codec.rotate">0</property>
  <property name="meta.media.1.codec.frame_rate">5000</property>
  <property name="meta.media.1.codec.pix_fmt">yuv422p10le</property>
  <property name="meta.media.1.codec.sample_aspect_ratio">0</property>
  <property name="meta.media.1.codec.colorspace">709</property>
  <property name="meta.media.1.codec.name">prores</property>
  <property name="meta.media.1.codec.long_name">ProRes (iCodec Pro)</property>
  <property name="meta.media.1.codec.bit_rate">366958122</property>
  <property name="meta.attr.1.stream.creation_time.markup">2018-12-10T18:33:13.000000Z</property>
  <property name="meta.attr.1.stream.language.markup">eng</property>
  <property name="meta.attr.1.stream.handler_name.markup">Apple Video Media Handler</property>
  <property name="meta.attr.1.stream.encoder.markup">Apple ProRes 422 HQ</property>
  <property name="meta.attr.1.stream.timecode.markup">18:33:13:41</property>
  <property name="meta.media.2.stream.type">audio</property>
  <property name="meta.media.2.codec.sample_fmt">s32</property>
  <property name="meta.media.2.codec.sample_rate">48000</property>
  <property name="meta.media.2.codec.channels">2</property>
  <property name="meta.media.2.codec.name">pcm_s24le</property>
  <property name="meta.media.2.codec.long_name">PCM signed 24-bit little-endian</property>
  <property name="meta.media.2.codec.bit_rate">2304000</property>
  <property name="meta.attr.2.stream.creation_time.markup">2018-12-10T18:33:13.000000Z</property>
  <property name="meta.attr.2.stream.language.markup">eng</property>
  <property name="meta.attr.2.stream.handler_name.markup">Apple Sound Media Handler</property>
  <property name="meta.attr.2.stream.timecode.markup">18:33:13:41</property>
  <property name="meta.attr.com.apple.proapps.manufacturer.markup">Blackmagic Design</property>
  <property name="meta.attr.com.apple.proapps.cameraName.markup">CAM1</property>
  <property name="meta.attr.com.apple.proapps.isGood.markup">0</property>
  <property name="meta.attr.com.apple.proapps.customgamma.markup">com.blackmagic-design.cinemacamera.filmlog</property>
  <property name="meta.attr.com.blackmagic-design.cinemacamera.uuid.markup">18E5E00548F94923B646613A73C01B56</property>
  <property name="meta.attr.creation_time.markup">2018-12-10T18:33:13.000000Z</property>
  <property name="meta.attr.timecode.markup">18:33:13:41</property>
  <property name="seekable">1</property>
  <property name="meta.media.sample_aspect_num">1</property>
  <property name="meta.media.sample_aspect_den">1</property>
  <property name="aspect_ratio">1</property>
  <property name="kdenlive:folderid">14</property>
  <property name="kdenlive:file_size">3513882801</property>
  <property name="kdenlive:file_hash">911165815b4f50c12a788c8017dec34b</property>
  <property name="global_feed">1</property>
  <property name="meta.media.frame_rate_num">50</property>
  <property name="meta.media.frame_rate_den">1</property>
  <property name="meta.media.colorspace">709</property>
  <property name="meta.media.color_trc">2</property>
  <property name="meta.media.width">1920</property>
  <property name="meta.media.height">1080</property>
  <property name="meta.media.top_field_first">0</property>
  <property name="meta.media.progressive">1</property>
 </producer>
 <producer title="Anonymous Submission" id="15" in="0" out="3941">
  <property name="length">00:01:18:42</property>
  <property name="eof">pause</property>
  <property name="resource">/media/bordun/plagiat/2018-12-10_Plagiat_RespecteLaPuissancePapale/Carte_3/CAM1_2018-12-10_1834_C0004.mov</property>
  <property name="audio_index">2</property>
  <property name="video_index">1</property>
  <property name="mute_on_pause">1</property>
  <property name="mlt_service">avformat-novalidate</property>
  <property name="meta.media.nb_streams">3</property>
  <property name="meta.media.1.stream.type">video</property>
  <property name="meta.media.1.stream.frame_rate">50</property>
  <property name="meta.media.1.stream.sample_aspect_ratio">1</property>
  <property name="meta.media.1.codec.width">1920</property>
  <property name="meta.media.1.codec.height">1080</property>
  <property name="meta.media.1.codec.rotate">0</property>
  <property name="meta.media.1.codec.frame_rate">5000</property>
  <property name="meta.media.1.codec.pix_fmt">yuv422p10le</property>
  <property name="meta.media.1.codec.sample_aspect_ratio">0</property>
  <property name="meta.media.1.codec.colorspace">709</property>
  <property name="meta.media.1.codec.name">prores</property>
  <property name="meta.media.1.codec.long_name">ProRes (iCodec Pro)</property>
  <property name="meta.media.1.codec.bit_rate">366957579</property>
  <property name="meta.attr.1.stream.creation_time.markup">2018-12-10T18:34:58.000000Z</property>
  <property name="meta.attr.1.stream.language.markup">eng</property>
  <property name="meta.attr.1.stream.handler_name.markup">Apple Video Media Handler</property>
  <property name="meta.attr.1.stream.encoder.markup">Apple ProRes 422 HQ</property>
  <property name="meta.attr.1.stream.timecode.markup">18:34:58:08</property>
  <property name="meta.media.2.stream.type">audio</property>
  <property name="meta.media.2.codec.sample_fmt">s32</property>
  <property name="meta.media.2.codec.sample_rate">48000</property>
  <property name="meta.media.2.codec.channels">2</property>
  <property name="meta.media.2.codec.name">pcm_s24le</property>
  <property name="meta.media.2.codec.long_name">PCM signed 24-bit little-endian</property>
  <property name="meta.media.2.codec.bit_rate">2304000</property>
  <property name="meta.attr.2.stream.creation_time.markup">2018-12-10T18:34:58.000000Z</property>
  <property name="meta.attr.2.stream.language.markup">eng</property>
  <property name="meta.attr.2.stream.handler_name.markup">Apple Sound Media Handler</property>
  <property name="meta.attr.2.stream.timecode.markup">18:34:58:08</property>
  <property name="meta.attr.com.apple.proapps.manufacturer.markup">Blackmagic Design</property>
  <property name="meta.attr.com.apple.proapps.cameraName.markup">CAM1</property>
  <property name="meta.attr.com.apple.proapps.isGood.markup">0</property>
  <property name="meta.attr.com.apple.proapps.customgamma.markup">com.blackmagic-design.cinemacamera.filmlog</property>
  <property name="meta.attr.com.blackmagic-design.cinemacamera.uuid.markup">18E5E00548F94923B646613A73C01B56</property>
  <property name="meta.attr.creation_time.markup">2018-12-10T18:34:58.000000Z</property>
  <property name="meta.attr.timecode.markup">18:34:58:08</property>
  <property name="seekable">1</property>
  <property name="meta.media.sample_aspect_num">1</property>
  <property name="meta.media.sample_aspect_den">1</property>
  <property name="aspect_ratio">1</property>
  <property name="kdenlive:folderid">14</property>
  <property name="kdenlive:file_size">3639442625</property>
  <property name="kdenlive:file_hash">b37e37844340c239c0192cc4d49711fe</property>
  <property name="global_feed">1</property>
  <property name="meta.media.frame_rate_num">50</property>
  <property name="meta.media.frame_rate_den">1</property>
  <property name="meta.media.colorspace">709</property>
  <property name="meta.media.color_trc">2</property>
  <property name="meta.media.width">1920</property>
  <property name="meta.media.height">1080</property>
  <property name="meta.media.top_field_first">0</property>
  <property name="meta.media.progressive">1</property>
 </producer>
 <producer title="Anonymous Submission" id="10" in="0" out="3856">
  <property name="length">00:01:17:07</property>
  <property name="eof">pause</property>
  <property name="resource">/media/bordun/plagiat/2018-12-10_Plagiat_RespecteLaPuissancePapale/Carte_2/CAM1_2018-12-10_1727_C0005.mov</property>
  <property name="audio_index">2</property>
  <property name="video_index">1</property>
  <property name="mute_on_pause">1</property>
  <property name="mlt_service">avformat-novalidate</property>
  <property name="meta.media.nb_streams">3</property>
  <property name="meta.media.1.stream.type">video</property>
  <property name="meta.media.1.stream.frame_rate">50</property>
  <property name="meta.media.1.stream.sample_aspect_ratio">1</property>
  <property name="meta.media.1.codec.width">1920</property>
  <property name="meta.media.1.codec.height">1080</property>
  <property name="meta.media.1.codec.rotate">0</property>
  <property name="meta.media.1.codec.frame_rate">5000</property>
  <property name="meta.media.1.codec.pix_fmt">yuv422p10le</property>
  <property name="meta.media.1.codec.sample_aspect_ratio">0</property>
  <property name="meta.media.1.codec.colorspace">709</property>
  <property name="meta.media.1.codec.name">prores</property>
  <property name="meta.media.1.codec.long_name">ProRes</property>
  <property name="meta.media.1.codec.bit_rate">366957401</property>
  <property name="meta.attr.1.stream.creation_time.markup">2018-12-10T17:27:46.000000Z</property>
  <property name="meta.attr.1.stream.language.markup">eng</property>
  <property name="meta.attr.1.stream.handler_name.markup">Apple Alias Data Handler</property>
  <property name="meta.attr.1.stream.encoder.markup">Apple ProRes 422 HQ</property>
  <property name="meta.attr.1.stream.timecode.markup">17:27:46:06</property>
  <property name="meta.media.2.stream.type">audio</property>
  <property name="meta.media.2.codec.sample_fmt">s32</property>
  <property name="meta.media.2.codec.sample_rate">48000</property>
  <property name="meta.media.2.codec.channels">2</property>
  <property name="meta.media.2.codec.name">pcm_s24le</property>
  <property name="meta.media.2.codec.long_name">PCM signed 24-bit little-endian</property>
  <property name="meta.media.2.codec.bit_rate">2304000</property>
  <property name="meta.attr.2.stream.creation_time.markup">2018-12-10T17:27:46.000000Z</property>
  <property name="meta.attr.2.stream.language.markup">eng</property>
  <property name="meta.attr.2.stream.handler_name.markup">Apple Alias Data Handler</property>
  <property name="meta.attr.2.stream.timecode.markup">17:27:46:06</property>
  <property name="meta.attr.com.apple.proapps.manufacturer.markup">Blackmagic Design</property>
  <property name="meta.attr.com.apple.proapps.cameraName.markup">CAM1</property>
  <property name="meta.attr.com.apple.proapps.isGood.markup">0</property>
  <property name="meta.attr.com.apple.proapps.customgamma.markup">com.blackmagic-design.cinemacamera.filmlog</property>
  <property name="meta.attr.com.blackmagic-design.cinemacamera.uuid.markup">18E5E00548F94923B646613A73C01B56</property>
  <property name="meta.attr.creation_time.markup">2018-12-10T17:27:46.000000Z</property>
  <property name="meta.attr.timecode.markup">17:27:46:06</property>
  <property name="seekable">1</property>
  <property name="meta.media.sample_aspect_num">1</property>
  <property name="meta.media.sample_aspect_den">1</property>
  <property name="aspect_ratio">1</property>
  <property name="kdenlive:folderid">11</property>
  <property name="kdenlive:file_size">3560966841</property>
  <property name="kdenlive:file_hash">d4c6ef671e1439d8b3d95b2e51c4f714</property>
  <property name="global_feed">1</property>
  <property name="meta.media.frame_rate_num">50</property>
  <property name="meta.media.frame_rate_den">1</property>
  <property name="meta.media.colorspace">709</property>
  <property name="meta.media.color_trc">1</property>
  <property name="meta.media.width">1920</property>
  <property name="meta.media.height">1080</property>
  <property name="meta.media.top_field_first">0</property>
  <property name="meta.media.progressive">1</property>
  <property name="meta.media.1.codec.color_trc">1</property>
  <property name="kdenlive:zone_in">1152</property>
  <property name="kdenlive:zone_out">2331</property>
  <filter id="frei0r.colgate">
   <property name="version">0,1</property>
   <property name="mlt_service">frei0r.colgate</property>
   <property name="kdenlive_id">frei0r.colgate</property>
   <property name="tag">frei0r.colgate</property>
   <property name="kdenlive_ix">1</property>
   <property name="kdenlive_info"/>
   <property name="Neutral Color">0x7f7f7fff</property>
   <property name="Color Temperature">0=0,666667</property>
  </filter>
  <filter id="frei0r.levels">
   <property name="version">0,3</property>
   <property name="mlt_service">frei0r.levels</property>
   <property name="kdenlive_id">frei0r.levels</property>
   <property name="tag">frei0r.levels</property>
   <property name="kdenlive_ix">2</property>
   <property name="kdenlive_info"/>
   <property name="Channel">0,3</property>
   <property name="Input black level">0=0</property>
   <property name="Input white level">0=0,65</property>
   <property name="Gamma">0=0,25</property>
   <property name="Black output">0=0</property>
   <property name="White output">0=1</property>
   <property name="Show histogram">0</property>
   <property name="Histogram position">0,3</property>
  </filter>
 </producer>
 <producer title="Anonymous Submission" id="9" in="0" out="7720">
  <property name="length">00:02:34:21</property>
  <property name="eof">pause</property>
  <property name="resource">/media/bordun/plagiat/2018-12-10_Plagiat_RespecteLaPuissancePapale/Carte_2/CAM1_2018-12-10_1724_C0004.mov</property>
  <property name="audio_index">2</property>
  <property name="video_index">1</property>
  <property name="mute_on_pause">1</property>
  <property name="mlt_service">avformat-novalidate</property>
  <property name="meta.media.nb_streams">3</property>
  <property name="meta.media.1.stream.type">video</property>
  <property name="meta.media.1.stream.frame_rate">50</property>
  <property name="meta.media.1.stream.sample_aspect_ratio">1</property>
  <property name="meta.media.1.codec.width">1920</property>
  <property name="meta.media.1.codec.height">1080</property>
  <property name="meta.media.1.codec.rotate">0</property>
  <property name="meta.media.1.codec.frame_rate">5000</property>
  <property name="meta.media.1.codec.pix_fmt">yuv422p10le</property>
  <property name="meta.media.1.codec.sample_aspect_ratio">0</property>
  <property name="meta.media.1.codec.colorspace">709</property>
  <property name="meta.media.1.codec.name">prores</property>
  <property name="meta.media.1.codec.long_name">ProRes</property>
  <property name="meta.media.1.codec.bit_rate">366955249</property>
  <property name="meta.attr.1.stream.creation_time.markup">2018-12-10T17:24:30.000000Z</property>
  <property name="meta.attr.1.stream.language.markup">eng</property>
  <property name="meta.attr.1.stream.handler_name.markup">Apple Alias Data Handler</property>
  <property name="meta.attr.1.stream.encoder.markup">Apple ProRes 422 HQ</property>
  <property name="meta.attr.1.stream.timecode.markup">17:24:30:16</property>
  <property name="meta.media.2.stream.type">audio</property>
  <property name="meta.media.2.codec.sample_fmt">s32</property>
  <property name="meta.media.2.codec.sample_rate">48000</property>
  <property name="meta.media.2.codec.channels">2</property>
  <property name="meta.media.2.codec.name">pcm_s24le</property>
  <property name="meta.media.2.codec.long_name">PCM signed 24-bit little-endian</property>
  <property name="meta.media.2.codec.bit_rate">2304000</property>
  <property name="meta.attr.2.stream.creation_time.markup">2018-12-10T17:24:30.000000Z</property>
  <property name="meta.attr.2.stream.language.markup">eng</property>
  <property name="meta.attr.2.stream.handler_name.markup">Apple Alias Data Handler</property>
  <property name="meta.attr.2.stream.timecode.markup">17:24:30:16</property>
  <property name="meta.attr.com.apple.proapps.manufacturer.markup">Blackmagic Design</property>
  <property name="meta.attr.com.apple.proapps.cameraName.markup">CAM1</property>
  <property name="meta.attr.com.apple.proapps.isGood.markup">0</property>
  <property name="meta.attr.com.apple.proapps.customgamma.markup">com.blackmagic-design.cinemacamera.filmlog</property>
  <property name="meta.attr.com.blackmagic-design.cinemacamera.uuid.markup">18E5E00548F94923B646613A73C01B56</property>
  <property name="meta.attr.creation_time.markup">2018-12-10T17:24:30.000000Z</property>
  <property name="meta.attr.timecode.markup">17:24:30:16</property>
  <property name="seekable">1</property>
  <property name="meta.media.sample_aspect_num">1</property>
  <property name="meta.media.sample_aspect_den">1</property>
  <property name="aspect_ratio">1</property>
  <property name="kdenlive:folderid">11</property>
  <property name="kdenlive:file_size">7128395553</property>
  <property name="kdenlive:file_hash">26d06da8085fc8a55dca3b4629142f61</property>
  <property name="global_feed">1</property>
  <property name="meta.media.frame_rate_num">50</property>
  <property name="meta.media.frame_rate_den">1</property>
  <property name="meta.media.colorspace">709</property>
  <property name="meta.media.color_trc">1</property>
  <property name="meta.media.width">1920</property>
  <property name="meta.media.height">1080</property>
  <property name="meta.media.top_field_first">0</property>
  <property name="meta.media.progressive">1</property>
  <property name="meta.media.1.codec.color_trc">1</property>
  <property name="kdenlive:zone_in">10623</property>
  <property name="kdenlive:zone_out">11562</property>
  <filter id="filter0">
   <property name="version">0,1</property>
   <property name="mlt_service">frei0r.colgate</property>
   <property name="kdenlive_id">frei0r.colgate</property>
   <property name="tag">frei0r.colgate</property>
   <property name="kdenlive_ix">1</property>
   <property name="kdenlive_info"/>
   <property name="Neutral Color">0x7f7f7fff</property>
   <property name="Color Temperature">0=0,666667</property>
  </filter>
  <filter id="filter1">
   <property name="version">0,3</property>
   <property name="mlt_service">frei0r.levels</property>
   <property name="kdenlive_id">frei0r.levels</property>
   <property name="tag">frei0r.levels</property>
   <property name="kdenlive_ix">2</property>
   <property name="kdenlive_info"/>
   <property name="Channel">0,3</property>
   <property name="Input black level">0=0</property>
   <property name="Input white level">0=0,65</property>
   <property name="Gamma">0=0,25</property>
   <property name="Black output">0=0</property>
   <property name="White output">0=1</property>
   <property name="Show histogram">0</property>
   <property name="Histogram position">0,3</property>
  </filter>
 </producer>
 <producer title="Anonymous Submission" id="11" in="0" out="21338">
  <property name="length">00:07:06:39</property>
  <property name="eof">pause</property>
  <property name="resource">/media/bordun/plagiat/2018-12-10_Plagiat_RespecteLaPuissancePapale/Carte_3/CAM1_2018-12-10_1738_C0000.mov</property>
  <property name="audio_index">2</property>
  <property name="video_index">1</property>
  <property name="mute_on_pause">1</property>
  <property name="mlt_service">avformat-novalidate</property>
  <property name="meta.media.nb_streams">3</property>
  <property name="meta.media.1.stream.type">video</property>
  <property name="meta.media.1.stream.frame_rate">50</property>
  <property name="meta.media.1.stream.sample_aspect_ratio">1</property>
  <property name="meta.media.1.codec.width">1920</property>
  <property name="meta.media.1.codec.height">1080</property>
  <property name="meta.media.1.codec.rotate">0</property>
  <property name="meta.media.1.codec.frame_rate">5000</property>
  <property name="meta.media.1.codec.pix_fmt">yuv422p10le</property>
  <property name="meta.media.1.codec.sample_aspect_ratio">0</property>
  <property name="meta.media.1.codec.colorspace">709</property>
  <property name="meta.media.1.codec.name">prores</property>
  <property name="meta.media.1.codec.long_name">ProRes</property>
  <property name="meta.media.1.codec.bit_rate">366957439</property>
  <property name="meta.attr.1.stream.creation_time.markup">2018-12-10T17:38:54.000000Z</property>
  <property name="meta.attr.1.stream.language.markup">eng</property>
  <property name="meta.attr.1.stream.handler_name.markup">Apple Alias Data Handler</property>
  <property name="meta.attr.1.stream.encoder.markup">Apple ProRes 422 HQ</property>
  <property name="meta.attr.1.stream.timecode.markup">17:38:54:28</property>
  <property name="meta.media.2.stream.type">audio</property>
  <property name="meta.media.2.codec.sample_fmt">s32</property>
  <property name="meta.media.2.codec.sample_rate">48000</property>
  <property name="meta.media.2.codec.channels">2</property>
  <property name="meta.media.2.codec.name">pcm_s24le</property>
  <property name="meta.media.2.codec.long_name">PCM signed 24-bit little-endian</property>
  <property name="meta.media.2.codec.bit_rate">2304000</property>
  <property name="meta.attr.2.stream.creation_time.markup">2018-12-10T17:38:54.000000Z</property>
  <property name="meta.attr.2.stream.language.markup">eng</property>
  <property name="meta.attr.2.stream.handler_name.markup">Apple Alias Data Handler</property>
  <property name="meta.attr.2.stream.timecode.markup">17:38:54:28</property>
  <property name="meta.attr.com.apple.proapps.manufacturer.markup">Blackmagic Design</property>
  <property name="meta.attr.com.apple.proapps.cameraName.markup">CAM1</property>
  <property name="meta.attr.com.apple.proapps.isGood.markup">0</property>
  <property name="meta.attr.com.apple.proapps.customgamma.markup">com.blackmagic-design.cinemacamera.filmlog</property>
  <property name="meta.attr.com.blackmagic-design.cinemacamera.uuid.markup">18E5E00548F94923B646613A73C01B56</property>
  <property name="meta.attr.creation_time.markup">2018-12-10T17:38:54.000000Z</property>
  <property name="meta.attr.timecode.markup">17:38:54:28</property>
  <property name="seekable">1</property>
  <property name="meta.media.sample_aspect_num">1</property>
  <property name="meta.media.sample_aspect_den">1</property>
  <property name="aspect_ratio">1</property>
  <property name="kdenlive:folderid">12</property>
  <property name="kdenlive:file_size">19701162913</property>
  <property name="kdenlive:file_hash">7247768fd7b55d6de0224125e0ef06f4</property>
  <property name="global_feed">1</property>
  <property name="meta.media.frame_rate_num">50</property>
  <property name="meta.media.frame_rate_den">1</property>
  <property name="meta.media.colorspace">709</property>
  <property name="meta.media.color_trc">1</property>
  <property name="meta.media.width">1920</property>
  <property name="meta.media.height">1080</property>
  <property name="meta.media.top_field_first">0</property>
  <property name="meta.media.progressive">1</property>
  <property name="meta.media.1.codec.color_trc">1</property>
  <filter id="filter2">
   <property name="version">0,1</property>
   <property name="mlt_service">frei0r.colgate</property>
   <property name="kdenlive_id">frei0r.colgate</property>
   <property name="tag">frei0r.colgate</property>
   <property name="kdenlive_ix">1</property>
   <property name="kdenlive_info"/>
   <property name="Neutral Color">0x7f7f7fff</property>
   <property name="Color Temperature">0=0,5</property>
  </filter>
  <filter id="filter3">
   <property name="version">0,3</property>
   <property name="mlt_service">frei0r.levels</property>
   <property name="kdenlive_id">frei0r.levels</property>
   <property name="tag">frei0r.levels</property>
   <property name="kdenlive_ix">2</property>
   <property name="kdenlive_info"/>
   <property name="Channel">0,3</property>
   <property name="Input black level">0=0,04</property>
   <property name="Input white level">0=0,95</property>
   <property name="Gamma">0=0,25</property>
   <property name="Black output">0=0</property>
   <property name="White output">0=1</property>
   <property name="Show histogram">0</property>
   <property name="Histogram position">0,3</property>
  </filter>
 </producer>
 <producer title="Anonymous Submission" id="8" in="0" out="21621">
  <property name="length">00:07:12:22</property>
  <property name="eof">pause</property>
  <property name="resource">/media/bordun/plagiat/2018-12-10_Plagiat_RespecteLaPuissancePapale/Carte_2/CAM1_2018-12-10_1649_C0003.mov</property>
  <property name="audio_index">2</property>
  <property name="video_index">1</property>
  <property name="mute_on_pause">1</property>
  <property name="mlt_service">avformat-novalidate</property>
  <property name="meta.media.nb_streams">3</property>
  <property name="meta.media.1.stream.type">video</property>
  <property name="meta.media.1.stream.frame_rate">50</property>
  <property name="meta.media.1.stream.sample_aspect_ratio">1</property>
  <property name="meta.media.1.codec.width">1920</property>
  <property name="meta.media.1.codec.height">1080</property>
  <property name="meta.media.1.codec.rotate">0</property>
  <property name="meta.media.1.codec.frame_rate">5000</property>
  <property name="meta.media.1.codec.pix_fmt">yuv422p10le</property>
  <property name="meta.media.1.codec.sample_aspect_ratio">0</property>
  <property name="meta.media.1.codec.colorspace">709</property>
  <property name="meta.media.1.codec.name">prores</property>
  <property name="meta.media.1.codec.long_name">ProRes (iCodec Pro)</property>
  <property name="meta.media.1.codec.bit_rate">366956838</property>
  <property name="meta.attr.1.stream.creation_time.markup">2018-12-10T16:49:40.000000Z</property>
  <property name="meta.attr.1.stream.language.markup">eng</property>
  <property name="meta.attr.1.stream.handler_name.markup">Apple Video Media Handler</property>
  <property name="meta.attr.1.stream.encoder.markup">Apple ProRes 422 HQ</property>
  <property name="meta.attr.1.stream.timecode.markup">16:49:40:04</property>
  <property name="meta.media.2.stream.type">audio</property>
  <property name="meta.media.2.codec.sample_fmt">s32</property>
  <property name="meta.media.2.codec.sample_rate">48000</property>
  <property name="meta.media.2.codec.channels">2</property>
  <property name="meta.media.2.codec.name">pcm_s24le</property>
  <property name="meta.media.2.codec.long_name">PCM signed 24-bit little-endian</property>
  <property name="meta.media.2.codec.bit_rate">2304000</property>
  <property name="meta.attr.2.stream.creation_time.markup">2018-12-10T16:49:40.000000Z</property>
  <property name="meta.attr.2.stream.language.markup">eng</property>
  <property name="meta.attr.2.stream.handler_name.markup">Apple Sound Media Handler</property>
  <property name="meta.attr.2.stream.timecode.markup">16:49:40:04</property>
  <property name="meta.attr.com.apple.proapps.manufacturer.markup">Blackmagic Design</property>
  <property name="meta.attr.com.apple.proapps.cameraName.markup">CAM1</property>
  <property name="meta.attr.com.apple.proapps.isGood.markup">0</property>
  <property name="meta.attr.com.apple.proapps.customgamma.markup">com.blackmagic-design.cinemacamera.filmlog</property>
  <property name="meta.attr.com.blackmagic-design.cinemacamera.uuid.markup">18E5E00548F94923B646613A73C01B56</property>
  <property name="meta.attr.creation_time.markup">2018-12-10T16:49:40.000000Z</property>
  <property name="meta.attr.timecode.markup">16:49:40:04</property>
  <property name="seekable">1</property>
  <property name="meta.media.sample_aspect_num">1</property>
  <property name="meta.media.sample_aspect_den">1</property>
  <property name="aspect_ratio">1</property>
  <property name="kdenlive:folderid">7</property>
  <property name="kdenlive:file_size">19962436561</property>
  <property name="kdenlive:file_hash">5ccc04e85e02ddf58369dec9f30fa947</property>
  <property name="global_feed">1</property>
  <property name="meta.media.frame_rate_num">50</property>
  <property name="meta.media.frame_rate_den">1</property>
  <property name="meta.media.colorspace">709</property>
  <property name="meta.media.color_trc">2</property>
  <property name="meta.media.width">1920</property>
  <property name="meta.media.height">1080</property>
  <property name="meta.media.top_field_first">0</property>
  <property name="meta.media.progressive">1</property>
 </producer>
 <producer title="Anonymous Submission" id="25" in="0" out="4317">
  <property name="length">00:01:26:18</property>
  <property name="eof">pause</property>
  <property name="resource">/media/bordun/plagiat/2018-12-10_Plagiat_RespecteLaPuissancePapale/Carte_4/CAM1_2018-12-10_1941_C0008.mov</property>
  <property name="audio_index">2</property>
  <property name="video_index">1</property>
  <property name="mute_on_pause">1</property>
  <property name="mlt_service">avformat-novalidate</property>
  <property name="meta.media.nb_streams">3</property>
  <property name="meta.media.1.stream.type">video</property>
  <property name="meta.media.1.stream.frame_rate">50</property>
  <property name="meta.media.1.stream.sample_aspect_ratio">1</property>
  <property name="meta.media.1.codec.width">1920</property>
  <property name="meta.media.1.codec.height">1080</property>
  <property name="meta.media.1.codec.rotate">0</property>
  <property name="meta.media.1.codec.frame_rate">5000</property>
  <property name="meta.media.1.codec.pix_fmt">yuv422p10le</property>
  <property name="meta.media.1.codec.sample_aspect_ratio">0</property>
  <property name="meta.media.1.codec.colorspace">709</property>
  <property name="meta.media.1.codec.name">prores</property>
  <property name="meta.media.1.codec.long_name">ProRes (iCodec Pro)</property>
  <property name="meta.media.1.codec.bit_rate">366957366</property>
  <property name="meta.attr.1.stream.creation_time.markup">2018-12-10T19:41:35.000000Z</property>
  <property name="meta.attr.1.stream.language.markup">eng</property>
  <property name="meta.attr.1.stream.handler_name.markup">Apple Video Media Handler</property>
  <property name="meta.attr.1.stream.encoder.markup">Apple ProRes 422 HQ</property>
  <property name="meta.attr.1.stream.timecode.markup">19:41:35:01</property>
  <property name="meta.media.2.stream.type">audio</property>
  <property name="meta.media.2.codec.sample_fmt">s32</property>
  <property name="meta.media.2.codec.sample_rate">48000</property>
  <property name="meta.media.2.codec.channels">2</property>
  <property name="meta.media.2.codec.name">pcm_s24le</property>
  <property name="meta.media.2.codec.long_name">PCM signed 24-bit little-endian</property>
  <property name="meta.media.2.codec.bit_rate">2304000</property>
  <property name="meta.attr.2.stream.creation_time.markup">2018-12-10T19:41:35.000000Z</property>
  <property name="meta.attr.2.stream.language.markup">eng</property>
  <property name="meta.attr.2.stream.handler_name.markup">Apple Sound Media Handler</property>
  <property name="meta.attr.2.stream.timecode.markup">19:41:35:01</property>
  <property name="meta.attr.com.apple.proapps.manufacturer.markup">Blackmagic Design</property>
  <property name="meta.attr.com.apple.proapps.cameraName.markup">CAM1</property>
  <property name="meta.attr.com.apple.proapps.isGood.markup">0</property>
  <property name="meta.attr.com.apple.proapps.customgamma.markup">com.blackmagic-design.cinemacamera.filmlog</property>
  <property name="meta.attr.com.blackmagic-design.cinemacamera.uuid.markup">18E5E00548F94923B646613A73C01B56</property>
  <property name="meta.attr.creation_time.markup">2018-12-10T19:41:35.000000Z</property>
  <property name="meta.attr.timecode.markup">19:41:35:01</property>
  <property name="seekable">1</property>
  <property name="meta.media.sample_aspect_num">1</property>
  <property name="meta.media.sample_aspect_den">1</property>
  <property name="aspect_ratio">1</property>
  <property name="kdenlive:folderid">7</property>
  <property name="kdenlive:file_size">3986584833</property>
  <property name="kdenlive:file_hash">090baf1e7089bd64f9705012f4444883</property>
  <property name="global_feed">1</property>
  <property name="meta.media.frame_rate_num">50</property>
  <property name="meta.media.frame_rate_den">1</property>
  <property name="meta.media.colorspace">709</property>
  <property name="meta.media.color_trc">2</property>
  <property name="meta.media.width">1920</property>
  <property name="meta.media.height">1080</property>
  <property name="meta.media.top_field_first">0</property>
  <property name="meta.media.progressive">1</property>
 </producer>
 <producer title="Anonymous Submission" id="26" in="0" out="2406">
  <property name="length">00:00:48:07</property>
  <property name="eof">pause</property>
  <property name="resource">/media/bordun/plagiat/2018-12-10_Plagiat_RespecteLaPuissancePapale/Carte_4/CAM1_2018-12-10_1950_C0009.mov</property>
  <property name="audio_index">2</property>
  <property name="video_index">1</property>
  <property name="mute_on_pause">1</property>
  <property name="mlt_service">avformat-novalidate</property>
  <property name="meta.media.nb_streams">3</property>
  <property name="meta.media.1.stream.type">video</property>
  <property name="meta.media.1.stream.frame_rate">50</property>
  <property name="meta.media.1.stream.sample_aspect_ratio">1</property>
  <property name="meta.media.1.codec.width">1920</property>
  <property name="meta.media.1.codec.height">1080</property>
  <property name="meta.media.1.codec.rotate">0</property>
  <property name="meta.media.1.codec.frame_rate">5000</property>
  <property name="meta.media.1.codec.pix_fmt">yuv422p10le</property>
  <property name="meta.media.1.codec.sample_aspect_ratio">0</property>
  <property name="meta.media.1.codec.colorspace">709</property>
  <property name="meta.media.1.codec.name">prores</property>
  <property name="meta.media.1.codec.long_name">ProRes (iCodec Pro)</property>
  <property name="meta.media.1.codec.bit_rate">366957768</property>
  <property name="meta.attr.1.stream.creation_time.markup">2018-12-10T19:50:41.000000Z</property>
  <property name="meta.attr.1.stream.language.markup">eng</property>
  <property name="meta.attr.1.stream.handler_name.markup">Apple Video Media Handler</property>
  <property name="meta.attr.1.stream.encoder.markup">Apple ProRes 422 HQ</property>
  <property name="meta.attr.1.stream.timecode.markup">19:50:41:10</property>
  <property name="meta.media.2.stream.type">audio</property>
  <property name="meta.media.2.codec.sample_fmt">s32</property>
  <property name="meta.media.2.codec.sample_rate">48000</property>
  <property name="meta.media.2.codec.channels">2</property>
  <property name="meta.media.2.codec.name">pcm_s24le</property>
  <property name="meta.media.2.codec.long_name">PCM signed 24-bit little-endian</property>
  <property name="meta.media.2.codec.bit_rate">2304000</property>
  <property name="meta.attr.2.stream.creation_time.markup">2018-12-10T19:50:41.000000Z</property>
  <property name="meta.attr.2.stream.language.markup">eng</property>
  <property name="meta.attr.2.stream.handler_name.markup">Apple Sound Media Handler</property>
  <property name="meta.attr.2.stream.timecode.markup">19:50:41:10</property>
  <property name="meta.attr.com.apple.proapps.manufacturer.markup">Blackmagic Design</property>
  <property name="meta.attr.com.apple.proapps.cameraName.markup">CAM1</property>
  <property name="meta.attr.com.apple.proapps.isGood.markup">0</property>
  <property name="meta.attr.com.apple.proapps.customgamma.markup">com.blackmagic-design.cinemacamera.filmlog</property>
  <property name="meta.attr.com.blackmagic-design.cinemacamera.uuid.markup">18E5E00548F94923B646613A73C01B56</property>
  <property name="meta.attr.creation_time.markup">2018-12-10T19:50:41.000000Z</property>
  <property name="meta.attr.timecode.markup">19:50:41:10</property>
  <property name="seekable">1</property>
  <property name="meta.media.sample_aspect_num">1</property>
  <property name="meta.media.sample_aspect_den">1</property>
  <property name="aspect_ratio">1</property>
  <property name="kdenlive:folderid">15</property>
  <property name="kdenlive:file_size">2222269393</property>
  <property name="kdenlive:file_hash">31d97f0f897fd63981b85562c9492a1e</property>
  <property name="global_feed">1</property>
  <property name="meta.media.frame_rate_num">50</property>
  <property name="meta.media.frame_rate_den">1</property>
  <property name="meta.media.colorspace">709</property>
  <property name="meta.media.color_trc">2</property>
  <property name="meta.media.width">1920</property>
  <property name="meta.media.height">1080</property>
  <property name="meta.media.top_field_first">0</property>
  <property name="meta.media.progressive">1</property>
 </producer>
 <producer title="Anonymous Submission" id="13" in="0" out="4748">
  <property name="length">00:01:34:49</property>
  <property name="eof">pause</property>
  <property name="resource">/media/bordun/plagiat/2018-12-10_Plagiat_RespecteLaPuissancePapale/Carte_3/CAM1_2018-12-10_1827_C0002.mov</property>
  <property name="audio_index">2</property>
  <property name="video_index">1</property>
  <property name="mute_on_pause">1</property>
  <property name="mlt_service">avformat-novalidate</property>
  <property name="meta.media.nb_streams">3</property>
  <property name="meta.media.1.stream.type">video</property>
  <property name="meta.media.1.stream.frame_rate">50</property>
  <property name="meta.media.1.stream.sample_aspect_ratio">1</property>
  <property name="meta.media.1.codec.width">1920</property>
  <property name="meta.media.1.codec.height">1080</property>
  <property name="meta.media.1.codec.rotate">0</property>
  <property name="meta.media.1.codec.frame_rate">5000</property>
  <property name="meta.media.1.codec.pix_fmt">yuv422p10le</property>
  <property name="meta.media.1.codec.sample_aspect_ratio">0</property>
  <property name="meta.media.1.codec.colorspace">709</property>
  <property name="meta.media.1.codec.name">prores</property>
  <property name="meta.media.1.codec.long_name">ProRes (iCodec Pro)</property>
  <property name="meta.media.1.codec.bit_rate">366955583</property>
  <property name="meta.attr.1.stream.creation_time.markup">2018-12-10T18:27:53.000000Z</property>
  <property name="meta.attr.1.stream.language.markup">eng</property>
  <property name="meta.attr.1.stream.handler_name.markup">Apple Video Media Handler</property>
  <property name="meta.attr.1.stream.encoder.markup">Apple ProRes 422 HQ</property>
  <property name="meta.attr.1.stream.timecode.markup">18:27:53:15</property>
  <property name="meta.media.2.stream.type">audio</property>
  <property name="meta.media.2.codec.sample_fmt">s32</property>
  <property name="meta.media.2.codec.sample_rate">48000</property>
  <property name="meta.media.2.codec.channels">2</property>
  <property name="meta.media.2.codec.name">pcm_s24le</property>
  <property name="meta.media.2.codec.long_name">PCM signed 24-bit little-endian</property>
  <property name="meta.media.2.codec.bit_rate">2304000</property>
  <property name="meta.attr.2.stream.creation_time.markup">2018-12-10T18:27:53.000000Z</property>
  <property name="meta.attr.2.stream.language.markup">eng</property>
  <property name="meta.attr.2.stream.handler_name.markup">Apple Sound Media Handler</property>
  <property name="meta.attr.2.stream.timecode.markup">18:27:53:15</property>
  <property name="meta.attr.com.apple.proapps.manufacturer.markup">Blackmagic Design</property>
  <property name="meta.attr.com.apple.proapps.cameraName.markup">CAM1</property>
  <property name="meta.attr.com.apple.proapps.isGood.markup">0</property>
  <property name="meta.attr.com.apple.proapps.customgamma.markup">com.blackmagic-design.cinemacamera.filmlog</property>
  <property name="meta.attr.com.blackmagic-design.cinemacamera.uuid.markup">18E5E00548F94923B646613A73C01B56</property>
  <property name="meta.attr.creation_time.markup">2018-12-10T18:27:53.000000Z</property>
  <property name="meta.attr.timecode.markup">18:27:53:15</property>
  <property name="seekable">1</property>
  <property name="meta.media.sample_aspect_num">1</property>
  <property name="meta.media.sample_aspect_den">1</property>
  <property name="aspect_ratio">1</property>
  <property name="kdenlive:folderid">15</property>
  <property name="kdenlive:file_size">4384498497</property>
  <property name="kdenlive:file_hash">ae32c687eeaacc4b45c49f0baeccff11</property>
  <property name="global_feed">1</property>
  <property name="meta.media.frame_rate_num">50</property>
  <property name="meta.media.frame_rate_den">1</property>
  <property name="meta.media.colorspace">709</property>
  <property name="meta.media.color_trc">2</property>
  <property name="meta.media.width">1920</property>
  <property name="meta.media.height">1080</property>
  <property name="meta.media.top_field_first">0</property>
  <property name="meta.media.progressive">1</property>
 </producer>
 <producer title="Anonymous Submission" id="12" in="0" out="23600">
  <property name="length">00:07:52:01</property>
  <property name="eof">pause</property>
  <property name="resource">/media/bordun/plagiat/2018-12-10_Plagiat_RespecteLaPuissancePapale/Carte_3/CAM1_2018-12-10_1819_C0001.mov</property>
  <property name="audio_index">2</property>
  <property name="video_index">1</property>
  <property name="mute_on_pause">1</property>
  <property name="mlt_service">avformat-novalidate</property>
  <property name="meta.media.nb_streams">3</property>
  <property name="meta.media.1.stream.type">video</property>
  <property name="meta.media.1.stream.frame_rate">50</property>
  <property name="meta.media.1.stream.sample_aspect_ratio">1</property>
  <property name="meta.media.1.codec.width">1920</property>
  <property name="meta.media.1.codec.height">1080</property>
  <property name="meta.media.1.codec.rotate">0</property>
  <property name="meta.media.1.codec.frame_rate">5000</property>
  <property name="meta.media.1.codec.pix_fmt">yuv422p10le</property>
  <property name="meta.media.1.codec.sample_aspect_ratio">0</property>
  <property name="meta.media.1.codec.colorspace">709</property>
  <property name="meta.media.1.codec.name">prores</property>
  <property name="meta.media.1.codec.long_name">ProRes (iCodec Pro)</property>
  <property name="meta.media.1.codec.bit_rate">366956856</property>
  <property name="meta.attr.1.stream.creation_time.markup">2018-12-10T18:19:34.000000Z</property>
  <property name="meta.attr.1.stream.language.markup">eng</property>
  <property name="meta.attr.1.stream.handler_name.markup">Apple Video Media Handler</property>
  <property name="meta.attr.1.stream.encoder.markup">Apple ProRes 422 HQ</property>
  <property name="meta.attr.1.stream.timecode.markup">18:19:34:45</property>
  <property name="meta.media.2.stream.type">audio</property>
  <property name="meta.media.2.codec.sample_fmt">s32</property>
  <property name="meta.media.2.codec.sample_rate">48000</property>
  <property name="meta.media.2.codec.channels">2</property>
  <property name="meta.media.2.codec.name">pcm_s24le</property>
  <property name="meta.media.2.codec.long_name">PCM signed 24-bit little-endian</property>
  <property name="meta.media.2.codec.bit_rate">2304000</property>
  <property name="meta.attr.2.stream.creation_time.markup">2018-12-10T18:19:34.000000Z</property>
  <property name="meta.attr.2.stream.language.markup">eng</property>
  <property name="meta.attr.2.stream.handler_name.markup">Apple Sound Media Handler</property>
  <property name="meta.attr.2.stream.timecode.markup">18:19:34:45</property>
  <property name="meta.attr.com.apple.proapps.manufacturer.markup">Blackmagic Design</property>
  <property name="meta.attr.com.apple.proapps.cameraName.markup">CAM1</property>
  <property name="meta.attr.com.apple.proapps.isGood.markup">0</property>
  <property name="meta.attr.com.apple.proapps.customgamma.markup">com.blackmagic-design.cinemacamera.filmlog</property>
  <property name="meta.attr.com.blackmagic-design.cinemacamera.uuid.markup">18E5E00548F94923B646613A73C01B56</property>
  <property name="meta.attr.creation_time.markup">2018-12-10T18:19:34.000000Z</property>
  <property name="meta.attr.timecode.markup">18:19:34:45</property>
  <property name="seekable">1</property>
  <property name="meta.media.sample_aspect_num">1</property>
  <property name="meta.media.sample_aspect_den">1</property>
  <property name="aspect_ratio">1</property>
  <property name="kdenlive:folderid">15</property>
  <property name="kdenlive:file_size">21789523729</property>
  <property name="kdenlive:file_hash">3b63588261e8ab0454ca51230a000191</property>
  <property name="global_feed">1</property>
  <property name="meta.media.frame_rate_num">50</property>
  <property name="meta.media.frame_rate_den">1</property>
  <property name="meta.media.colorspace">709</property>
  <property name="meta.media.color_trc">2</property>
  <property name="meta.media.width">1920</property>
  <property name="meta.media.height">1080</property>
  <property name="meta.media.top_field_first">0</property>
  <property name="meta.media.progressive">1</property>
 </producer>
 <producer title="Anonymous Submission" id="28" in="0" out="12061">
  <property name="length">00:04:01:12</property>
  <property name="eof">pause</property>
  <property name="resource">/media/bordun/plagiat/2018-12-10_Plagiat_RespecteLaPuissancePapale/Carte_3/CAM1_2018-12-10_1738_C0000_recale.mp4</property>
  <property name="audio_index">1</property>
  <property name="video_index">0</property>
  <property name="mute_on_pause">1</property>
  <property name="mlt_service">avformat-novalidate</property>
  <property name="meta.media.nb_streams">2</property>
  <property name="meta.media.0.stream.type">video</property>
  <property name="meta.media.0.stream.frame_rate">50</property>
  <property name="meta.media.0.stream.sample_aspect_ratio">1</property>
  <property name="meta.media.0.codec.width">1920</property>
  <property name="meta.media.0.codec.height">1080</property>
  <property name="meta.media.0.codec.rotate">0</property>
  <property name="meta.media.0.codec.frame_rate">50</property>
  <property name="meta.media.0.codec.pix_fmt">yuv420p</property>
  <property name="meta.media.0.codec.sample_aspect_ratio">1</property>
  <property name="meta.media.0.codec.colorspace">709</property>
  <property name="meta.media.0.codec.color_trc">1</property>
  <property name="meta.media.0.codec.name">h264</property>
  <property name="meta.media.0.codec.long_name">H.264 / AVC / MPEG-4 AVC / MPEG-4 part 10</property>
  <property name="meta.media.0.codec.bit_rate">300778505</property>
  <property name="meta.attr.0.stream.handler_name.markup">VideoHandler</property>
  <property name="meta.media.1.stream.type">audio</property>
  <property name="meta.media.1.codec.sample_fmt">fltp</property>
  <property name="meta.media.1.codec.sample_rate">48000</property>
  <property name="meta.media.1.codec.channels">2</property>
  <property name="meta.media.1.codec.name">aac</property>
  <property name="meta.media.1.codec.long_name">AAC (Advanced Audio Coding)</property>
  <property name="meta.media.1.codec.bit_rate">385016</property>
  <property name="meta.attr.1.stream.handler_name.markup">SoundHandler</property>
  <property name="meta.attr.major_brand.markup">isom</property>
  <property name="meta.attr.minor_version.markup">512</property>
  <property name="meta.attr.compatible_brands.markup">isomiso2avc1mp41</property>
  <property name="meta.attr.encoder.markup">Lavf58.20.100</property>
  <property name="seekable">1</property>
  <property name="meta.media.sample_aspect_num">1</property>
  <property name="meta.media.sample_aspect_den">1</property>
  <property name="aspect_ratio">1</property>
  <property name="kdenlive:folderid">12</property>
  <property name="meta.media.frame_rate_num">50</property>
  <property name="meta.media.frame_rate_den">1</property>
  <property name="meta.media.colorspace">709</property>
  <property name="meta.media.color_trc">1</property>
  <property name="meta.media.width">1920</property>
  <property name="meta.media.height">1080</property>
  <property name="meta.media.top_field_first">0</property>
  <property name="meta.media.progressive">1</property>
  <property name="kdenlive:file_size">9081115714</property>
  <property name="kdenlive:file_hash">79a4b55abfdf4f84be33d4d8aeb49ece</property>
  <property name="global_feed">1</property>
  <property name="kdenlive:zone_in">7388</property>
  <property name="kdenlive:zone_out">7470</property>
  <filter id="filter4">
   <property name="version">0,1</property>
   <property name="mlt_service">frei0r.colgate</property>
   <property name="kdenlive_id">frei0r.colgate</property>
   <property name="tag">frei0r.colgate</property>
   <property name="kdenlive_ix">1</property>
   <property name="kdenlive_info"/>
   <property name="Neutral Color">0x7f7f7fff</property>
   <property name="Color Temperature">0=0,5</property>
  </filter>
  <filter id="filter5">
   <property name="version">0,3</property>
   <property name="mlt_service">frei0r.levels</property>
   <property name="kdenlive_id">frei0r.levels</property>
   <property name="tag">frei0r.levels</property>
   <property name="kdenlive_ix">2</property>
   <property name="kdenlive_info"/>
   <property name="Channel">0,3</property>
   <property name="Input black level">0=0,04</property>
   <property name="Input white level">0=0,95</property>
   <property name="Gamma">0=0,25</property>
   <property name="Black output">0=0</property>
   <property name="White output">0=1</property>
   <property name="Show histogram">0</property>
   <property name="Histogram position">0,3</property>
  </filter>
 </producer>
 <producer title="Anonymous Submission" id="29" in="0" out="10170">
  <property name="length">00:03:23:21</property>
  <property name="eof">pause</property>
  <property name="resource">/media/bordun/plagiat/2018-12-10_Plagiat_RespecteLaPuissancePapale/Carte_3/CAM1_2018-12-10_1738_C0000_recale_2.mp4</property>
  <property name="audio_index">1</property>
  <property name="video_index">0</property>
  <property name="mute_on_pause">1</property>
  <property name="mlt_service">avformat-novalidate</property>
  <property name="meta.media.nb_streams">2</property>
  <property name="meta.media.0.stream.type">video</property>
  <property name="meta.media.0.stream.frame_rate">50</property>
  <property name="meta.media.0.stream.sample_aspect_ratio">1</property>
  <property name="meta.media.0.codec.width">1920</property>
  <property name="meta.media.0.codec.height">1080</property>
  <property name="meta.media.0.codec.rotate">0</property>
  <property name="meta.media.0.codec.frame_rate">50</property>
  <property name="meta.media.0.codec.pix_fmt">yuv420p</property>
  <property name="meta.media.0.codec.sample_aspect_ratio">1</property>
  <property name="meta.media.0.codec.colorspace">709</property>
  <property name="meta.media.0.codec.color_trc">1</property>
  <property name="meta.media.0.codec.name">h264</property>
  <property name="meta.media.0.codec.long_name">H.264 / AVC / MPEG-4 AVC / MPEG-4 part 10</property>
  <property name="meta.media.0.codec.bit_rate">313494539</property>
  <property name="meta.attr.0.stream.handler_name.markup">VideoHandler</property>
  <property name="meta.media.1.stream.type">audio</property>
  <property name="meta.media.1.codec.sample_fmt">fltp</property>
  <property name="meta.media.1.codec.sample_rate">48000</property>
  <property name="meta.media.1.codec.channels">2</property>
  <property name="meta.media.1.codec.name">aac</property>
  <property name="meta.media.1.codec.long_name">AAC (Advanced Audio Coding)</property>
  <property name="meta.media.1.codec.bit_rate">384820</property>
  <property name="meta.attr.1.stream.handler_name.markup">SoundHandler</property>
  <property name="meta.attr.major_brand.markup">isom</property>
  <property name="meta.attr.minor_version.markup">512</property>
  <property name="meta.attr.compatible_brands.markup">isomiso2avc1mp41</property>
  <property name="meta.attr.encoder.markup">Lavf58.20.100</property>
  <property name="seekable">1</property>
  <property name="meta.media.sample_aspect_num">1</property>
  <property name="meta.media.sample_aspect_den">1</property>
  <property name="aspect_ratio">1</property>
  <property name="kdenlive:folderid">12</property>
  <property name="meta.media.frame_rate_num">50</property>
  <property name="meta.media.frame_rate_den">1</property>
  <property name="meta.media.colorspace">709</property>
  <property name="meta.media.color_trc">1</property>
  <property name="meta.media.width">1920</property>
  <property name="meta.media.height">1080</property>
  <property name="meta.media.top_field_first">0</property>
  <property name="meta.media.progressive">1</property>
  <property name="kdenlive:file_size">7979837430</property>
  <property name="kdenlive:file_hash">3f4177aefc0d609892c60f5fe6de98b8</property>
  <property name="global_feed">1</property>
  <property name="kdenlive:zone_in">8075</property>
  <property name="kdenlive:zone_out">8204</property>
  <filter id="filter6">
   <property name="version">0,1</property>
   <property name="mlt_service">frei0r.colgate</property>
   <property name="kdenlive_id">frei0r.colgate</property>
   <property name="tag">frei0r.colgate</property>
   <property name="kdenlive_ix">1</property>
   <property name="kdenlive_info"/>
   <property name="Neutral Color">0x7f7f7fff</property>
   <property name="Color Temperature">0=0,5</property>
  </filter>
  <filter id="filter7">
   <property name="version">0,3</property>
   <property name="mlt_service">frei0r.levels</property>
   <property name="kdenlive_id">frei0r.levels</property>
   <property name="tag">frei0r.levels</property>
   <property name="kdenlive_ix">2</property>
   <property name="kdenlive_info"/>
   <property name="Channel">0,3</property>
   <property name="Input black level">0=0,04</property>
   <property name="Input white level">0=0,95</property>
   <property name="Gamma">0=0,25</property>
   <property name="Black output">0=0</property>
   <property name="White output">0=1</property>
   <property name="Show histogram">0</property>
   <property name="Histogram position">0,3</property>
  </filter>
 </producer>
 <producer title="Anonymous Submission" id="30" in="0" out="43907">
  <property name="length">00:14:38:08</property>
  <property name="eof">pause</property>
  <property name="resource">/media/bordun/plagiat2/2019-05-01_Plagiat_RespecteLaPuissancePapale_Lavare/CAM1_2019-01-05_0407_C0000.mov</property>
  <property name="audio_index">2</property>
  <property name="video_index">1</property>
  <property name="mute_on_pause">1</property>
  <property name="mlt_service">avformat-novalidate</property>
  <property name="meta.media.nb_streams">3</property>
  <property name="meta.media.1.stream.type">video</property>
  <property name="meta.media.1.stream.frame_rate">50</property>
  <property name="meta.media.1.stream.sample_aspect_ratio">1</property>
  <property name="meta.media.1.codec.width">1920</property>
  <property name="meta.media.1.codec.height">1080</property>
  <property name="meta.media.1.codec.rotate">0</property>
  <property name="meta.media.1.codec.frame_rate">5000</property>
  <property name="meta.media.1.codec.pix_fmt">yuv422p10le</property>
  <property name="meta.media.1.codec.sample_aspect_ratio">0</property>
  <property name="meta.media.1.codec.colorspace">709</property>
  <property name="meta.media.1.codec.color_trc">1</property>
  <property name="meta.media.1.codec.name">prores</property>
  <property name="meta.media.1.codec.long_name">ProRes</property>
  <property name="meta.media.1.codec.bit_rate">366957037</property>
  <property name="meta.attr.1.stream.creation_time.markup">2019-01-05T04:07:04.000000Z</property>
  <property name="meta.attr.1.stream.language.markup">eng</property>
  <property name="meta.attr.1.stream.handler_name.markup">Apple Alias Data Handler</property>
  <property name="meta.attr.1.stream.encoder.markup">Apple ProRes 422 HQ</property>
  <property name="meta.attr.1.stream.timecode.markup">04:07:04:29</property>
  <property name="meta.media.2.stream.type">audio</property>
  <property name="meta.media.2.codec.sample_fmt">s32</property>
  <property name="meta.media.2.codec.sample_rate">48000</property>
  <property name="meta.media.2.codec.channels">2</property>
  <property name="meta.media.2.codec.name">pcm_s24le</property>
  <property name="meta.media.2.codec.long_name">PCM signed 24-bit little-endian</property>
  <property name="meta.media.2.codec.bit_rate">2304000</property>
  <property name="meta.attr.2.stream.creation_time.markup">2019-01-05T04:07:04.000000Z</property>
  <property name="meta.attr.2.stream.language.markup">eng</property>
  <property name="meta.attr.2.stream.handler_name.markup">Apple Alias Data Handler</property>
  <property name="meta.attr.2.stream.timecode.markup">04:07:04:29</property>
  <property name="meta.attr.com.apple.proapps.manufacturer.markup">Blackmagic Design</property>
  <property name="meta.attr.com.apple.proapps.cameraName.markup">CAM1</property>
  <property name="meta.attr.com.apple.proapps.isGood.markup">0</property>
  <property name="meta.attr.com.apple.proapps.customgamma.markup">com.blackmagic-design.cinemacamera.filmlog</property>
  <property name="meta.attr.com.blackmagic-design.cinemacamera.uuid.markup">18E5E00548F94923B646613A73C01B56</property>
  <property name="meta.attr.creation_time.markup">2019-01-05T04:07:04.000000Z</property>
  <property name="meta.attr.timecode.markup">04:07:04:29</property>
  <property name="seekable">1</property>
  <property name="meta.media.sample_aspect_num">1</property>
  <property name="meta.media.sample_aspect_den">1</property>
  <property name="aspect_ratio">1</property>
  <property name="kdenlive:folderid">16</property>
  <property name="meta.media.frame_rate_num">50</property>
  <property name="meta.media.frame_rate_den">1</property>
  <property name="meta.media.colorspace">709</property>
  <property name="meta.media.color_trc">1</property>
  <property name="meta.media.width">1920</property>
  <property name="meta.media.height">1080</property>
  <property name="meta.media.top_field_first">0</property>
  <property name="meta.media.progressive">1</property>
  <property name="kdenlive:file_size">40537867713</property>
  <property name="kdenlive:file_hash">eeb49a6f6e2626b129e2046ec649a60c</property>
  <property name="global_feed">1</property>
  <property name="kdenlive:zone_in">24133</property>
  <property name="kdenlive:zone_out">24214</property>
  <filter id="filter8">
   <property name="version">0,3</property>
   <property name="mlt_service">frei0r.levels</property>
   <property name="kdenlive_id">frei0r.levels</property>
   <property name="tag">frei0r.levels</property>
   <property name="kdenlive_ix">1</property>
   <property name="kdenlive_info"/>
   <property name="Channel">0,3</property>
   <property name="Input black level">0=0,04</property>
   <property name="Input white level">0=1</property>
   <property name="Gamma">0=0,25</property>
   <property name="Black output">0=0</property>
   <property name="White output">0=1</property>
   <property name="Show histogram">0</property>
   <property name="Histogram position">0,3</property>
  </filter>
  <filter id="filter9">
   <property name="version">0,3</property>
   <property name="mlt_service">frei0r.levels</property>
   <property name="kdenlive_id">frei0r.levels</property>
   <property name="tag">frei0r.levels</property>
   <property name="kdenlive_ix">2</property>
   <property name="kdenlive_info"/>
   <property name="Channel">0,3</property>
   <property name="Input black level">0=0</property>
   <property name="Input white level">0=1</property>
   <property name="Gamma">0=0,25</property>
   <property name="Black output">0=0</property>
   <property name="White output">0=1</property>
   <property name="Show histogram">0</property>
   <property name="Histogram position">0,3</property>
  </filter>
 </producer>
 <producer id="31" in="0" out="3983">
  <property name="length">00:01:19:34</property>
  <property name="eof">pause</property>
  <property name="resource">/media/bordun/plagiat2/2019-05-01_Plagiat_RespecteLaPuissancePapale_Lavare/CAM1_2019-01-05_0918_C0009.mov</property>
  <property name="audio_index">2</property>
  <property name="video_index">1</property>
  <property name="mute_on_pause">1</property>
  <property name="mlt_service">avformat-novalidate</property>
  <property name="meta.media.nb_streams">3</property>
  <property name="meta.media.1.stream.type">video</property>
  <property name="meta.media.1.stream.frame_rate">25</property>
  <property name="meta.media.1.stream.sample_aspect_ratio">1</property>
  <property name="meta.media.1.codec.width">1920</property>
  <property name="meta.media.1.codec.height">1080</property>
  <property name="meta.media.1.codec.rotate">0</property>
  <property name="meta.media.1.codec.frame_rate">2500</property>
  <property name="meta.media.1.codec.pix_fmt">yuv422p10le</property>
  <property name="meta.media.1.codec.sample_aspect_ratio">0</property>
  <property name="meta.media.1.codec.colorspace">709</property>
  <property name="meta.media.1.codec.color_trc">1</property>
  <property name="meta.media.1.codec.name">prores</property>
  <property name="meta.media.1.codec.long_name">ProRes</property>
  <property name="meta.media.1.codec.bit_rate">122316581</property>
  <property name="meta.attr.1.stream.creation_time.markup">2019-01-05T09:18:25.000000Z</property>
  <property name="meta.attr.1.stream.language.markup">eng</property>
  <property name="meta.attr.1.stream.handler_name.markup">Apple Alias Data Handler</property>
  <property name="meta.attr.1.stream.encoder.markup">Apple ProRes 422</property>
  <property name="meta.attr.1.stream.timecode.markup">09:18:25:03</property>
  <property name="meta.media.2.stream.type">audio</property>
  <property name="meta.media.2.codec.sample_fmt">s32</property>
  <property name="meta.media.2.codec.sample_rate">48000</property>
  <property name="meta.media.2.codec.channels">2</property>
  <property name="meta.media.2.codec.name">pcm_s24le</property>
  <property name="meta.media.2.codec.long_name">PCM signed 24-bit little-endian</property>
  <property name="meta.media.2.codec.bit_rate">2304000</property>
  <property name="meta.attr.2.stream.creation_time.markup">2019-01-05T09:18:25.000000Z</property>
  <property name="meta.attr.2.stream.language.markup">eng</property>
  <property name="meta.attr.2.stream.handler_name.markup">Apple Alias Data Handler</property>
  <property name="meta.attr.2.stream.timecode.markup">09:18:25:03</property>
  <property name="meta.attr.com.apple.proapps.manufacturer.markup">Blackmagic Design</property>
  <property name="meta.attr.com.apple.proapps.cameraName.markup">CAM1</property>
  <property name="meta.attr.com.apple.proapps.isGood.markup">0</property>
  <property name="meta.attr.com.apple.proapps.customgamma.markup">com.blackmagic-design.cinemacamera.filmlog</property>
  <property name="meta.attr.com.blackmagic-design.cinemacamera.uuid.markup">18E5E00548F94923B646613A73C01B56</property>
  <property name="meta.attr.creation_time.markup">2019-01-05T09:18:25.000000Z</property>
  <property name="meta.attr.timecode.markup">09:18:25:03</property>
  <property name="seekable">1</property>
  <property name="meta.media.sample_aspect_num">1</property>
  <property name="meta.media.sample_aspect_den">1</property>
  <property name="aspect_ratio">1</property>
  <property name="kdenlive:folderid">16</property>
  <property name="meta.media.frame_rate_num">25</property>
  <property name="meta.media.frame_rate_den">1</property>
  <property name="meta.media.colorspace">709</property>
  <property name="meta.media.color_trc">1</property>
  <property name="meta.media.width">1920</property>
  <property name="meta.media.height">1080</property>
  <property name="meta.media.top_field_first">0</property>
  <property name="meta.media.progressive">1</property>
  <property name="kdenlive:file_size">1241534665</property>
  <property name="kdenlive:file_hash">3298342aecc7a336c57ca6af427a29f7</property>
 </producer>
 <producer id="32" in="0" out="5323">
  <property name="length">00:01:46:24</property>
  <property name="eof">pause</property>
  <property name="resource">/media/bordun/plagiat2/2019-05-01_Plagiat_RespecteLaPuissancePapale_Lavare/CAM1_2019-01-05_0915_C0008.mov</property>
  <property name="audio_index">2</property>
  <property name="video_index">1</property>
  <property name="mute_on_pause">1</property>
  <property name="mlt_service">avformat-novalidate</property>
  <property name="meta.media.nb_streams">3</property>
  <property name="meta.media.1.stream.type">video</property>
  <property name="meta.media.1.stream.frame_rate">25</property>
  <property name="meta.media.1.stream.sample_aspect_ratio">1</property>
  <property name="meta.media.1.codec.width">1920</property>
  <property name="meta.media.1.codec.height">1080</property>
  <property name="meta.media.1.codec.rotate">0</property>
  <property name="meta.media.1.codec.frame_rate">2500</property>
  <property name="meta.media.1.codec.pix_fmt">yuv422p10le</property>
  <property name="meta.media.1.codec.sample_aspect_ratio">0</property>
  <property name="meta.media.1.codec.colorspace">709</property>
  <property name="meta.media.1.codec.color_trc">1</property>
  <property name="meta.media.1.codec.name">prores</property>
  <property name="meta.media.1.codec.long_name">ProRes</property>
  <property name="meta.media.1.codec.bit_rate">122315341</property>
  <property name="meta.attr.1.stream.creation_time.markup">2019-01-05T09:15:40.000000Z</property>
  <property name="meta.attr.1.stream.language.markup">eng</property>
  <property name="meta.attr.1.stream.handler_name.markup">Apple Alias Data Handler</property>
  <property name="meta.attr.1.stream.encoder.markup">Apple ProRes 422</property>
  <property name="meta.attr.1.stream.timecode.markup">09:15:40:03</property>
  <property name="meta.media.2.stream.type">audio</property>
  <property name="meta.media.2.codec.sample_fmt">s32</property>
  <property name="meta.media.2.codec.sample_rate">48000</property>
  <property name="meta.media.2.codec.channels">2</property>
  <property name="meta.media.2.codec.name">pcm_s24le</property>
  <property name="meta.media.2.codec.long_name">PCM signed 24-bit little-endian</property>
  <property name="meta.media.2.codec.bit_rate">2304000</property>
  <property name="meta.attr.2.stream.creation_time.markup">2019-01-05T09:15:40.000000Z</property>
  <property name="meta.attr.2.stream.language.markup">eng</property>
  <property name="meta.attr.2.stream.handler_name.markup">Apple Alias Data Handler</property>
  <property name="meta.attr.2.stream.timecode.markup">09:15:40:03</property>
  <property name="meta.attr.com.apple.proapps.manufacturer.markup">Blackmagic Design</property>
  <property name="meta.attr.com.apple.proapps.cameraName.markup">CAM1</property>
  <property name="meta.attr.com.apple.proapps.isGood.markup">0</property>
  <property name="meta.attr.com.apple.proapps.customgamma.markup">com.blackmagic-design.cinemacamera.filmlog</property>
  <property name="meta.attr.com.blackmagic-design.cinemacamera.uuid.markup">18E5E00548F94923B646613A73C01B56</property>
  <property name="meta.attr.creation_time.markup">2019-01-05T09:15:40.000000Z</property>
  <property name="meta.attr.timecode.markup">09:15:40:03</property>
  <property name="seekable">1</property>
  <property name="meta.media.sample_aspect_num">1</property>
  <property name="meta.media.sample_aspect_den">1</property>
  <property name="aspect_ratio">1</property>
  <property name="kdenlive:folderid">16</property>
  <property name="meta.media.frame_rate_num">25</property>
  <property name="meta.media.frame_rate_den">1</property>
  <property name="meta.media.colorspace">709</property>
  <property name="meta.media.color_trc">1</property>
  <property name="meta.media.width">1920</property>
  <property name="meta.media.height">1080</property>
  <property name="meta.media.top_field_first">0</property>
  <property name="meta.media.progressive">1</property>
  <property name="kdenlive:file_size">1659116449</property>
  <property name="kdenlive:file_hash">f8aa56141d75527d7246be55a57cf7dd</property>
 </producer>
 <producer id="33" in="0" out="9041">
  <property name="length">00:03:00:42</property>
  <property name="eof">pause</property>
  <property name="resource">/media/bordun/plagiat2/2019-05-01_Plagiat_RespecteLaPuissancePapale_Lavare/CAM1_2019-01-05_0910_C0007.mov</property>
  <property name="audio_index">2</property>
  <property name="video_index">1</property>
  <property name="mute_on_pause">1</property>
  <property name="mlt_service">avformat-novalidate</property>
  <property name="meta.media.nb_streams">3</property>
  <property name="meta.media.1.stream.type">video</property>
  <property name="meta.media.1.stream.frame_rate">25</property>
  <property name="meta.media.1.stream.sample_aspect_ratio">1</property>
  <property name="meta.media.1.codec.width">1920</property>
  <property name="meta.media.1.codec.height">1080</property>
  <property name="meta.media.1.codec.rotate">0</property>
  <property name="meta.media.1.codec.frame_rate">2500</property>
  <property name="meta.media.1.codec.pix_fmt">yuv422p10le</property>
  <property name="meta.media.1.codec.sample_aspect_ratio">0</property>
  <property name="meta.media.1.codec.colorspace">709</property>
  <property name="meta.media.1.codec.color_trc">1</property>
  <property name="meta.media.1.codec.name">prores</property>
  <property name="meta.media.1.codec.long_name">ProRes</property>
  <property name="meta.media.1.codec.bit_rate">122315670</property>
  <property name="meta.attr.1.stream.creation_time.markup">2019-01-05T09:10:10.000000Z</property>
  <property name="meta.attr.1.stream.language.markup">eng</property>
  <property name="meta.attr.1.stream.handler_name.markup">Apple Alias Data Handler</property>
  <property name="meta.attr.1.stream.encoder.markup">Apple ProRes 422</property>
  <property name="meta.attr.1.stream.timecode.markup">09:10:10:17</property>
  <property name="meta.media.2.stream.type">audio</property>
  <property name="meta.media.2.codec.sample_fmt">s32</property>
  <property name="meta.media.2.codec.sample_rate">48000</property>
  <property name="meta.media.2.codec.channels">2</property>
  <property name="meta.media.2.codec.name">pcm_s24le</property>
  <property name="meta.media.2.codec.long_name">PCM signed 24-bit little-endian</property>
  <property name="meta.media.2.codec.bit_rate">2304000</property>
  <property name="meta.attr.2.stream.creation_time.markup">2019-01-05T09:10:10.000000Z</property>
  <property name="meta.attr.2.stream.language.markup">eng</property>
  <property name="meta.attr.2.stream.handler_name.markup">Apple Alias Data Handler</property>
  <property name="meta.attr.2.stream.timecode.markup">09:10:10:17</property>
  <property name="meta.attr.com.apple.proapps.manufacturer.markup">Blackmagic Design</property>
  <property name="meta.attr.com.apple.proapps.cameraName.markup">CAM1</property>
  <property name="meta.attr.com.apple.proapps.isGood.markup">0</property>
  <property name="meta.attr.com.apple.proapps.customgamma.markup">com.blackmagic-design.cinemacamera.filmlog</property>
  <property name="meta.attr.com.blackmagic-design.cinemacamera.uuid.markup">18E5E00548F94923B646613A73C01B56</property>
  <property name="meta.attr.creation_time.markup">2019-01-05T09:10:10.000000Z</property>
  <property name="meta.attr.timecode.markup">09:10:10:17</property>
  <property name="seekable">1</property>
  <property name="meta.media.sample_aspect_num">1</property>
  <property name="meta.media.sample_aspect_den">1</property>
  <property name="aspect_ratio">1</property>
  <property name="kdenlive:folderid">16</property>
  <property name="meta.media.frame_rate_num">25</property>
  <property name="meta.media.frame_rate_den">1</property>
  <property name="meta.media.colorspace">709</property>
  <property name="meta.media.color_trc">1</property>
  <property name="meta.media.width">1920</property>
  <property name="meta.media.height">1080</property>
  <property name="meta.media.top_field_first">0</property>
  <property name="meta.media.progressive">1</property>
  <property name="kdenlive:file_size">2817746417</property>
  <property name="kdenlive:file_hash">b3e4bc9ce3280bb8753bd5e36ee0b214</property>
 </producer>
 <producer id="34" in="0" out="3953">
  <property name="length">00:01:19:04</property>
  <property name="eof">pause</property>
  <property name="resource">/media/bordun/plagiat2/2019-05-01_Plagiat_RespecteLaPuissancePapale_Lavare/CAM1_2019-01-05_0902_C0006.mov</property>
  <property name="audio_index">2</property>
  <property name="video_index">1</property>
  <property name="mute_on_pause">1</property>
  <property name="mlt_service">avformat-novalidate</property>
  <property name="meta.media.nb_streams">3</property>
  <property name="meta.media.1.stream.type">video</property>
  <property name="meta.media.1.stream.frame_rate">25</property>
  <property name="meta.media.1.stream.sample_aspect_ratio">1</property>
  <property name="meta.media.1.codec.width">1920</property>
  <property name="meta.media.1.codec.height">1080</property>
  <property name="meta.media.1.codec.rotate">0</property>
  <property name="meta.media.1.codec.frame_rate">2500</property>
  <property name="meta.media.1.codec.pix_fmt">yuv422p10le</property>
  <property name="meta.media.1.codec.sample_aspect_ratio">0</property>
  <property name="meta.media.1.codec.colorspace">709</property>
  <property name="meta.media.1.codec.color_trc">1</property>
  <property name="meta.media.1.codec.name">prores</property>
  <property name="meta.media.1.codec.long_name">ProRes</property>
  <property name="meta.media.1.codec.bit_rate">122315923</property>
  <property name="meta.attr.1.stream.creation_time.markup">2019-01-05T09:02:46.000000Z</property>
  <property name="meta.attr.1.stream.language.markup">eng</property>
  <property name="meta.attr.1.stream.handler_name.markup">Apple Alias Data Handler</property>
  <property name="meta.attr.1.stream.encoder.markup">Apple ProRes 422</property>
  <property name="meta.attr.1.stream.timecode.markup">09:02:46:24</property>
  <property name="meta.media.2.stream.type">audio</property>
  <property name="meta.media.2.codec.sample_fmt">s32</property>
  <property name="meta.media.2.codec.sample_rate">48000</property>
  <property name="meta.media.2.codec.channels">2</property>
  <property name="meta.media.2.codec.name">pcm_s24le</property>
  <property name="meta.media.2.codec.long_name">PCM signed 24-bit little-endian</property>
  <property name="meta.media.2.codec.bit_rate">2304000</property>
  <property name="meta.attr.2.stream.creation_time.markup">2019-01-05T09:02:46.000000Z</property>
  <property name="meta.attr.2.stream.language.markup">eng</property>
  <property name="meta.attr.2.stream.handler_name.markup">Apple Alias Data Handler</property>
  <property name="meta.attr.2.stream.timecode.markup">09:02:46:24</property>
  <property name="meta.attr.com.apple.proapps.manufacturer.markup">Blackmagic Design</property>
  <property name="meta.attr.com.apple.proapps.cameraName.markup">CAM1</property>
  <property name="meta.attr.com.apple.proapps.isGood.markup">0</property>
  <property name="meta.attr.com.apple.proapps.customgamma.markup">com.blackmagic-design.cinemacamera.filmlog</property>
  <property name="meta.attr.com.blackmagic-design.cinemacamera.uuid.markup">18E5E00548F94923B646613A73C01B56</property>
  <property name="meta.attr.creation_time.markup">2019-01-05T09:02:46.000000Z</property>
  <property name="meta.attr.timecode.markup">09:02:46:24</property>
  <property name="seekable">1</property>
  <property name="meta.media.sample_aspect_num">1</property>
  <property name="meta.media.sample_aspect_den">1</property>
  <property name="aspect_ratio">1</property>
  <property name="kdenlive:folderid">16</property>
  <property name="meta.media.frame_rate_num">25</property>
  <property name="meta.media.frame_rate_den">1</property>
  <property name="meta.media.colorspace">709</property>
  <property name="meta.media.color_trc">1</property>
  <property name="meta.media.width">1920</property>
  <property name="meta.media.height">1080</property>
  <property name="meta.media.top_field_first">0</property>
  <property name="meta.media.progressive">1</property>
  <property name="kdenlive:file_size">1232186057</property>
  <property name="kdenlive:file_hash">84e349f213f607e7c2eb327a44075451</property>
 </producer>
 <producer id="35" in="0" out="5863">
  <property name="length">00:01:57:14</property>
  <property name="eof">pause</property>
  <property name="resource">/media/bordun/plagiat2/2019-05-01_Plagiat_RespecteLaPuissancePapale_Lavare/CAM1_2019-01-05_0853_C0005.mov</property>
  <property name="audio_index">2</property>
  <property name="video_index">1</property>
  <property name="mute_on_pause">1</property>
  <property name="mlt_service">avformat-novalidate</property>
  <property name="meta.media.nb_streams">3</property>
  <property name="meta.media.1.stream.type">video</property>
  <property name="meta.media.1.stream.frame_rate">25</property>
  <property name="meta.media.1.stream.sample_aspect_ratio">1</property>
  <property name="meta.media.1.codec.width">1920</property>
  <property name="meta.media.1.codec.height">1080</property>
  <property name="meta.media.1.codec.rotate">0</property>
  <property name="meta.media.1.codec.frame_rate">2500</property>
  <property name="meta.media.1.codec.pix_fmt">yuv422p10le</property>
  <property name="meta.media.1.codec.sample_aspect_ratio">0</property>
  <property name="meta.media.1.codec.colorspace">709</property>
  <property name="meta.media.1.codec.color_trc">1</property>
  <property name="meta.media.1.codec.name">prores</property>
  <property name="meta.media.1.codec.long_name">ProRes</property>
  <property name="meta.media.1.codec.bit_rate">122316105</property>
  <property name="meta.attr.1.stream.creation_time.markup">2019-01-05T08:53:39.000000Z</property>
  <property name="meta.attr.1.stream.language.markup">eng</property>
  <property name="meta.attr.1.stream.handler_name.markup">Apple Alias Data Handler</property>
  <property name="meta.attr.1.stream.encoder.markup">Apple ProRes 422</property>
  <property name="meta.attr.1.stream.timecode.markup">08:53:39:10</property>
  <property name="meta.media.2.stream.type">audio</property>
  <property name="meta.media.2.codec.sample_fmt">s32</property>
  <property name="meta.media.2.codec.sample_rate">48000</property>
  <property name="meta.media.2.codec.channels">2</property>
  <property name="meta.media.2.codec.name">pcm_s24le</property>
  <property name="meta.media.2.codec.long_name">PCM signed 24-bit little-endian</property>
  <property name="meta.media.2.codec.bit_rate">2304000</property>
  <property name="meta.attr.2.stream.creation_time.markup">2019-01-05T08:53:39.000000Z</property>
  <property name="meta.attr.2.stream.language.markup">eng</property>
  <property name="meta.attr.2.stream.handler_name.markup">Apple Alias Data Handler</property>
  <property name="meta.attr.2.stream.timecode.markup">08:53:39:10</property>
  <property name="meta.attr.com.apple.proapps.manufacturer.markup">Blackmagic Design</property>
  <property name="meta.attr.com.apple.proapps.cameraName.markup">CAM1</property>
  <property name="meta.attr.com.apple.proapps.isGood.markup">0</property>
  <property name="meta.attr.com.apple.proapps.customgamma.markup">com.blackmagic-design.cinemacamera.filmlog</property>
  <property name="meta.attr.com.blackmagic-design.cinemacamera.uuid.markup">18E5E00548F94923B646613A73C01B56</property>
  <property name="meta.attr.creation_time.markup">2019-01-05T08:53:39.000000Z</property>
  <property name="meta.attr.timecode.markup">08:53:39:10</property>
  <property name="seekable">1</property>
  <property name="meta.media.sample_aspect_num">1</property>
  <property name="meta.media.sample_aspect_den">1</property>
  <property name="aspect_ratio">1</property>
  <property name="kdenlive:folderid">16</property>
  <property name="meta.media.frame_rate_num">25</property>
  <property name="meta.media.frame_rate_den">1</property>
  <property name="meta.media.colorspace">709</property>
  <property name="meta.media.color_trc">1</property>
  <property name="meta.media.width">1920</property>
  <property name="meta.media.height">1080</property>
  <property name="meta.media.top_field_first">0</property>
  <property name="meta.media.progressive">1</property>
  <property name="kdenlive:file_size">1827394553</property>
  <property name="kdenlive:file_hash">f1252aea4a9073267c53ed9979db2a79</property>
 </producer>
 <producer id="36" in="0" out="6601">
  <property name="length">00:02:12:02</property>
  <property name="eof">pause</property>
  <property name="resource">/media/bordun/plagiat2/2019-05-01_Plagiat_RespecteLaPuissancePapale_Lavare/CAM1_2019-01-05_0616_C0002.mov</property>
  <property name="audio_index">2</property>
  <property name="video_index">1</property>
  <property name="mute_on_pause">1</property>
  <property name="mlt_service">avformat-novalidate</property>
  <property name="meta.media.nb_streams">3</property>
  <property name="meta.media.1.stream.type">video</property>
  <property name="meta.media.1.stream.frame_rate">50</property>
  <property name="meta.media.1.stream.sample_aspect_ratio">1</property>
  <property name="meta.media.1.codec.width">1920</property>
  <property name="meta.media.1.codec.height">1080</property>
  <property name="meta.media.1.codec.rotate">0</property>
  <property name="meta.media.1.codec.frame_rate">5000</property>
  <property name="meta.media.1.codec.pix_fmt">yuv422p10le</property>
  <property name="meta.media.1.codec.sample_aspect_ratio">0</property>
  <property name="meta.media.1.codec.colorspace">709</property>
  <property name="meta.media.1.codec.color_trc">1</property>
  <property name="meta.media.1.codec.name">prores</property>
  <property name="meta.media.1.codec.long_name">ProRes</property>
  <property name="meta.media.1.codec.bit_rate">366956617</property>
  <property name="meta.attr.1.stream.creation_time.markup">2019-01-05T06:16:17.000000Z</property>
  <property name="meta.attr.1.stream.language.markup">eng</property>
  <property name="meta.attr.1.stream.handler_name.markup">Apple Alias Data Handler</property>
  <property name="meta.attr.1.stream.encoder.markup">Apple ProRes 422 HQ</property>
  <property name="meta.attr.1.stream.timecode.markup">06:16:17:16</property>
  <property name="meta.media.2.stream.type">audio</property>
  <property name="meta.media.2.codec.sample_fmt">s32</property>
  <property name="meta.media.2.codec.sample_rate">48000</property>
  <property name="meta.media.2.codec.channels">2</property>
  <property name="meta.media.2.codec.name">pcm_s24le</property>
  <property name="meta.media.2.codec.long_name">PCM signed 24-bit little-endian</property>
  <property name="meta.media.2.codec.bit_rate">2304000</property>
  <property name="meta.attr.2.stream.creation_time.markup">2019-01-05T06:16:17.000000Z</property>
  <property name="meta.attr.2.stream.language.markup">eng</property>
  <property name="meta.attr.2.stream.handler_name.markup">Apple Alias Data Handler</property>
  <property name="meta.attr.2.stream.timecode.markup">06:16:17:16</property>
  <property name="meta.attr.com.apple.proapps.manufacturer.markup">Blackmagic Design</property>
  <property name="meta.attr.com.apple.proapps.cameraName.markup">CAM1</property>
  <property name="meta.attr.com.apple.proapps.isGood.markup">0</property>
  <property name="meta.attr.com.apple.proapps.customgamma.markup">com.blackmagic-design.cinemacamera.filmlog</property>
  <property name="meta.attr.com.blackmagic-design.cinemacamera.uuid.markup">18E5E00548F94923B646613A73C01B56</property>
  <property name="meta.attr.creation_time.markup">2019-01-05T06:16:17.000000Z</property>
  <property name="meta.attr.timecode.markup">06:16:17:16</property>
  <property name="seekable">1</property>
  <property name="meta.media.sample_aspect_num">1</property>
  <property name="meta.media.sample_aspect_den">1</property>
  <property name="aspect_ratio">1</property>
  <property name="kdenlive:folderid">16</property>
  <property name="meta.media.frame_rate_num">50</property>
  <property name="meta.media.frame_rate_den">1</property>
  <property name="meta.media.colorspace">709</property>
  <property name="meta.media.color_trc">1</property>
  <property name="meta.media.width">1920</property>
  <property name="meta.media.height">1080</property>
  <property name="meta.media.top_field_first">0</property>
  <property name="meta.media.progressive">1</property>
  <property name="kdenlive:file_size">6095265905</property>
  <property name="kdenlive:file_hash">15392cd6b98f5c75a2b04073ca3e9ced</property>
 </producer>
 <producer id="37" in="0" out="10077">
  <property name="length">00:03:21:28</property>
  <property name="eof">pause</property>
  <property name="resource">/media/bordun/plagiat2/2019-05-01_Plagiat_RespecteLaPuissancePapale_Lavare/CAM1_2019-01-05_0612_C0001.mov</property>
  <property name="audio_index">2</property>
  <property name="video_index">1</property>
  <property name="mute_on_pause">1</property>
  <property name="mlt_service">avformat-novalidate</property>
  <property name="meta.media.nb_streams">3</property>
  <property name="meta.media.1.stream.type">video</property>
  <property name="meta.media.1.stream.frame_rate">50</property>
  <property name="meta.media.1.stream.sample_aspect_ratio">1</property>
  <property name="meta.media.1.codec.width">1920</property>
  <property name="meta.media.1.codec.height">1080</property>
  <property name="meta.media.1.codec.rotate">0</property>
  <property name="meta.media.1.codec.frame_rate">5000</property>
  <property name="meta.media.1.codec.pix_fmt">yuv422p10le</property>
  <property name="meta.media.1.codec.sample_aspect_ratio">0</property>
  <property name="meta.media.1.codec.colorspace">709</property>
  <property name="meta.media.1.codec.color_trc">1</property>
  <property name="meta.media.1.codec.name">prores</property>
  <property name="meta.media.1.codec.long_name">ProRes</property>
  <property name="meta.media.1.codec.bit_rate">366957469</property>
  <property name="meta.attr.1.stream.creation_time.markup">2019-01-05T06:12:21.000000Z</property>
  <property name="meta.attr.1.stream.language.markup">eng</property>
  <property name="meta.attr.1.stream.handler_name.markup">Apple Alias Data Handler</property>
  <property name="meta.attr.1.stream.encoder.markup">Apple ProRes 422 HQ</property>
  <property name="meta.attr.1.stream.timecode.markup">06:12:21:43</property>
  <property name="meta.media.2.stream.type">audio</property>
  <property name="meta.media.2.codec.sample_fmt">s32</property>
  <property name="meta.media.2.codec.sample_rate">48000</property>
  <property name="meta.media.2.codec.channels">2</property>
  <property name="meta.media.2.codec.name">pcm_s24le</property>
  <property name="meta.media.2.codec.long_name">PCM signed 24-bit little-endian</property>
  <property name="meta.media.2.codec.bit_rate">2304000</property>
  <property name="meta.attr.2.stream.creation_time.markup">2019-01-05T06:12:21.000000Z</property>
  <property name="meta.attr.2.stream.language.markup">eng</property>
  <property name="meta.attr.2.stream.handler_name.markup">Apple Alias Data Handler</property>
  <property name="meta.attr.2.stream.timecode.markup">06:12:21:43</property>
  <property name="meta.attr.com.apple.proapps.manufacturer.markup">Blackmagic Design</property>
  <property name="meta.attr.com.apple.proapps.cameraName.markup">CAM1</property>
  <property name="meta.attr.com.apple.proapps.isGood.markup">0</property>
  <property name="meta.attr.com.apple.proapps.customgamma.markup">com.blackmagic-design.cinemacamera.filmlog</property>
  <property name="meta.attr.com.blackmagic-design.cinemacamera.uuid.markup">18E5E00548F94923B646613A73C01B56</property>
  <property name="meta.attr.creation_time.markup">2019-01-05T06:12:21.000000Z</property>
  <property name="meta.attr.timecode.markup">06:12:21:43</property>
  <property name="seekable">1</property>
  <property name="meta.media.sample_aspect_num">1</property>
  <property name="meta.media.sample_aspect_den">1</property>
  <property name="aspect_ratio">1</property>
  <property name="kdenlive:folderid">16</property>
  <property name="meta.media.frame_rate_num">50</property>
  <property name="meta.media.frame_rate_den">1</property>
  <property name="meta.media.colorspace">709</property>
  <property name="meta.media.color_trc">1</property>
  <property name="meta.media.width">1920</property>
  <property name="meta.media.height">1080</property>
  <property name="meta.media.top_field_first">0</property>
  <property name="meta.media.progressive">1</property>
  <property name="kdenlive:file_size">9304493209</property>
  <property name="kdenlive:file_hash">5e9906388e5fb2616c7022bce204f437</property>
 </producer>
 <producer id="38" in="0" out="10454">
  <property name="length">00:03:29:05</property>
  <property name="eof">pause</property>
  <property name="resource">/media/bordun/plagiat2/2019-05-01_Plagiat_RespecteLaPuissancePapale_Lavare/CAM1_2019-01-05_0557_C0004.mov</property>
  <property name="audio_index">2</property>
  <property name="video_index">1</property>
  <property name="mute_on_pause">1</property>
  <property name="mlt_service">avformat-novalidate</property>
  <property name="meta.media.nb_streams">3</property>
  <property name="meta.media.1.stream.type">video</property>
  <property name="meta.media.1.stream.frame_rate">50</property>
  <property name="meta.media.1.stream.sample_aspect_ratio">1</property>
  <property name="meta.media.1.codec.width">1920</property>
  <property name="meta.media.1.codec.height">1080</property>
  <property name="meta.media.1.codec.rotate">0</property>
  <property name="meta.media.1.codec.frame_rate">5000</property>
  <property name="meta.media.1.codec.pix_fmt">yuv422p10le</property>
  <property name="meta.media.1.codec.sample_aspect_ratio">0</property>
  <property name="meta.media.1.codec.colorspace">709</property>
  <property name="meta.media.1.codec.color_trc">1</property>
  <property name="meta.media.1.codec.name">prores</property>
  <property name="meta.media.1.codec.long_name">ProRes</property>
  <property name="meta.media.1.codec.bit_rate">366958528</property>
  <property name="meta.attr.1.stream.creation_time.markup">2019-01-05T05:57:41.000000Z</property>
  <property name="meta.attr.1.stream.language.markup">eng</property>
  <property name="meta.attr.1.stream.handler_name.markup">Apple Alias Data Handler</property>
  <property name="meta.attr.1.stream.encoder.markup">Apple ProRes 422 HQ</property>
  <property name="meta.attr.1.stream.timecode.markup">05:57:41:19</property>
  <property name="meta.media.2.stream.type">audio</property>
  <property name="meta.media.2.codec.sample_fmt">s32</property>
  <property name="meta.media.2.codec.sample_rate">48000</property>
  <property name="meta.media.2.codec.channels">2</property>
  <property name="meta.media.2.codec.name">pcm_s24le</property>
  <property name="meta.media.2.codec.long_name">PCM signed 24-bit little-endian</property>
  <property name="meta.media.2.codec.bit_rate">2304000</property>
  <property name="meta.attr.2.stream.creation_time.markup">2019-01-05T05:57:41.000000Z</property>
  <property name="meta.attr.2.stream.language.markup">eng</property>
  <property name="meta.attr.2.stream.handler_name.markup">Apple Alias Data Handler</property>
  <property name="meta.attr.2.stream.timecode.markup">05:57:41:19</property>
  <property name="meta.attr.com.apple.proapps.manufacturer.markup">Blackmagic Design</property>
  <property name="meta.attr.com.apple.proapps.cameraName.markup">CAM1</property>
  <property name="meta.attr.com.apple.proapps.isGood.markup">0</property>
  <property name="meta.attr.com.apple.proapps.customgamma.markup">com.blackmagic-design.cinemacamera.filmlog</property>
  <property name="meta.attr.com.blackmagic-design.cinemacamera.uuid.markup">18E5E00548F94923B646613A73C01B56</property>
  <property name="meta.attr.creation_time.markup">2019-01-05T05:57:41.000000Z</property>
  <property name="meta.attr.timecode.markup">05:57:41:19</property>
  <property name="seekable">1</property>
  <property name="meta.media.sample_aspect_num">1</property>
  <property name="meta.media.sample_aspect_den">1</property>
  <property name="aspect_ratio">1</property>
  <property name="kdenlive:folderid">16</property>
  <property name="meta.media.frame_rate_num">50</property>
  <property name="meta.media.frame_rate_den">1</property>
  <property name="meta.media.colorspace">709</property>
  <property name="meta.media.color_trc">1</property>
  <property name="meta.media.width">1920</property>
  <property name="meta.media.height">1080</property>
  <property name="meta.media.top_field_first">0</property>
  <property name="meta.media.progressive">1</property>
  <property name="kdenlive:file_size">9652541145</property>
  <property name="kdenlive:file_hash">9d4eddc292544f83f9eb0cb1726027b3</property>
 </producer>
 <producer id="39" in="0" out="19885">
  <property name="length">00:06:37:36</property>
  <property name="eof">pause</property>
  <property name="resource">/media/bordun/plagiat2/2019-05-01_Plagiat_RespecteLaPuissancePapale_Lavare/CAM1_2019-01-05_0544_C0003.mov</property>
  <property name="audio_index">2</property>
  <property name="video_index">1</property>
  <property name="mute_on_pause">1</property>
  <property name="mlt_service">avformat-novalidate</property>
  <property name="meta.media.nb_streams">3</property>
  <property name="meta.media.1.stream.type">video</property>
  <property name="meta.media.1.stream.frame_rate">50</property>
  <property name="meta.media.1.stream.sample_aspect_ratio">1</property>
  <property name="meta.media.1.codec.width">1920</property>
  <property name="meta.media.1.codec.height">1080</property>
  <property name="meta.media.1.codec.rotate">0</property>
  <property name="meta.media.1.codec.frame_rate">5000</property>
  <property name="meta.media.1.codec.pix_fmt">yuv422p10le</property>
  <property name="meta.media.1.codec.sample_aspect_ratio">0</property>
  <property name="meta.media.1.codec.colorspace">709</property>
  <property name="meta.media.1.codec.color_trc">1</property>
  <property name="meta.media.1.codec.name">prores</property>
  <property name="meta.media.1.codec.long_name">ProRes</property>
  <property name="meta.media.1.codec.bit_rate">366956929</property>
  <property name="meta.attr.1.stream.creation_time.markup">2019-01-05T05:44:18.000000Z</property>
  <property name="meta.attr.1.stream.language.markup">eng</property>
  <property name="meta.attr.1.stream.handler_name.markup">Apple Alias Data Handler</property>
  <property name="meta.attr.1.stream.encoder.markup">Apple ProRes 422 HQ</property>
  <property name="meta.attr.1.stream.timecode.markup">05:44:18:23</property>
  <property name="meta.media.2.stream.type">audio</property>
  <property name="meta.media.2.codec.sample_fmt">s32</property>
  <property name="meta.media.2.codec.sample_rate">48000</property>
  <property name="meta.media.2.codec.channels">2</property>
  <property name="meta.media.2.codec.name">pcm_s24le</property>
  <property name="meta.media.2.codec.long_name">PCM signed 24-bit little-endian</property>
  <property name="meta.media.2.codec.bit_rate">2304000</property>
  <property name="meta.attr.2.stream.creation_time.markup">2019-01-05T05:44:18.000000Z</property>
  <property name="meta.attr.2.stream.language.markup">eng</property>
  <property name="meta.attr.2.stream.handler_name.markup">Apple Alias Data Handler</property>
  <property name="meta.attr.2.stream.timecode.markup">05:44:18:23</property>
  <property name="meta.attr.com.apple.proapps.manufacturer.markup">Blackmagic Design</property>
  <property name="meta.attr.com.apple.proapps.cameraName.markup">CAM1</property>
  <property name="meta.attr.com.apple.proapps.isGood.markup">0</property>
  <property name="meta.attr.com.apple.proapps.customgamma.markup">com.blackmagic-design.cinemacamera.filmlog</property>
  <property name="meta.attr.com.blackmagic-design.cinemacamera.uuid.markup">18E5E00548F94923B646613A73C01B56</property>
  <property name="meta.attr.creation_time.markup">2019-01-05T05:44:18.000000Z</property>
  <property name="meta.attr.timecode.markup">05:44:18:23</property>
  <property name="seekable">1</property>
  <property name="meta.media.sample_aspect_num">1</property>
  <property name="meta.media.sample_aspect_den">1</property>
  <property name="aspect_ratio">1</property>
  <property name="kdenlive:folderid">16</property>
  <property name="meta.media.frame_rate_num">50</property>
  <property name="meta.media.frame_rate_den">1</property>
  <property name="meta.media.colorspace">709</property>
  <property name="meta.media.color_trc">1</property>
  <property name="meta.media.width">1920</property>
  <property name="meta.media.height">1080</property>
  <property name="meta.media.top_field_first">0</property>
  <property name="meta.media.progressive">1</property>
  <property name="kdenlive:file_size">18359664313</property>
  <property name="kdenlive:file_hash">46f909828b8adaa191142911fc3d1240</property>
 </producer>
 <producer title="Anonymous Submission" id="40" in="0" out="9289">
  <property name="length">00:03:05:40</property>
  <property name="eof">pause</property>
  <property name="resource">/media/bordun/plagiat2/2019-05-01_Plagiat_RespecteLaPuissancePapale_Lavare/CAM1_2019-01-05_0517_C0001.mov</property>
  <property name="audio_index">2</property>
  <property name="video_index">1</property>
  <property name="mute_on_pause">1</property>
  <property name="mlt_service">avformat-novalidate</property>
  <property name="meta.media.nb_streams">3</property>
  <property name="meta.media.1.stream.type">video</property>
  <property name="meta.media.1.stream.frame_rate">50</property>
  <property name="meta.media.1.stream.sample_aspect_ratio">1</property>
  <property name="meta.media.1.codec.width">1920</property>
  <property name="meta.media.1.codec.height">1080</property>
  <property name="meta.media.1.codec.rotate">0</property>
  <property name="meta.media.1.codec.frame_rate">5000</property>
  <property name="meta.media.1.codec.pix_fmt">yuv422p10le</property>
  <property name="meta.media.1.codec.sample_aspect_ratio">0</property>
  <property name="meta.media.1.codec.colorspace">709</property>
  <property name="meta.media.1.codec.color_trc">1</property>
  <property name="meta.media.1.codec.name">prores</property>
  <property name="meta.media.1.codec.long_name">ProRes</property>
  <property name="meta.media.1.codec.bit_rate">366957016</property>
  <property name="meta.attr.1.stream.creation_time.markup">2019-01-05T05:17:29.000000Z</property>
  <property name="meta.attr.1.stream.language.markup">eng</property>
  <property name="meta.attr.1.stream.handler_name.markup">Apple Alias Data Handler</property>
  <property name="meta.attr.1.stream.encoder.markup">Apple ProRes 422 HQ</property>
  <property name="meta.attr.1.stream.timecode.markup">05:17:29:25</property>
  <property name="meta.media.2.stream.type">audio</property>
  <property name="meta.media.2.codec.sample_fmt">s32</property>
  <property name="meta.media.2.codec.sample_rate">48000</property>
  <property name="meta.media.2.codec.channels">2</property>
  <property name="meta.media.2.codec.name">pcm_s24le</property>
  <property name="meta.media.2.codec.long_name">PCM signed 24-bit little-endian</property>
  <property name="meta.media.2.codec.bit_rate">2304000</property>
  <property name="meta.attr.2.stream.creation_time.markup">2019-01-05T05:17:29.000000Z</property>
  <property name="meta.attr.2.stream.language.markup">eng</property>
  <property name="meta.attr.2.stream.handler_name.markup">Apple Alias Data Handler</property>
  <property name="meta.attr.2.stream.timecode.markup">05:17:29:25</property>
  <property name="meta.attr.com.apple.proapps.manufacturer.markup">Blackmagic Design</property>
  <property name="meta.attr.com.apple.proapps.cameraName.markup">CAM1</property>
  <property name="meta.attr.com.apple.proapps.isGood.markup">0</property>
  <property name="meta.attr.com.apple.proapps.customgamma.markup">com.blackmagic-design.cinemacamera.filmlog</property>
  <property name="meta.attr.com.blackmagic-design.cinemacamera.uuid.markup">18E5E00548F94923B646613A73C01B56</property>
  <property name="meta.attr.creation_time.markup">2019-01-05T05:17:29.000000Z</property>
  <property name="meta.attr.timecode.markup">05:17:29:25</property>
  <property name="seekable">1</property>
  <property name="meta.media.sample_aspect_num">1</property>
  <property name="meta.media.sample_aspect_den">1</property>
  <property name="aspect_ratio">1</property>
  <property name="kdenlive:folderid">16</property>
  <property name="meta.media.frame_rate_num">50</property>
  <property name="meta.media.frame_rate_den">1</property>
  <property name="meta.media.colorspace">709</property>
  <property name="meta.media.color_trc">1</property>
  <property name="meta.media.width">1920</property>
  <property name="meta.media.height">1080</property>
  <property name="meta.media.top_field_first">0</property>
  <property name="meta.media.progressive">1</property>
  <property name="kdenlive:file_size">8576956441</property>
  <property name="kdenlive:file_hash">c2f5e810e9e7275dd3088498b60f8e5f</property>
  <property name="global_feed">1</property>
  <property name="kdenlive:zone_in">3076</property>
  <property name="kdenlive:zone_out">3204</property>
  <filter id="filter10">
   <property name="version">0,2</property>
   <property name="mlt_service">frei0r.contrast0r</property>
   <property name="kdenlive_id">frei0r.contrast0r</property>
   <property name="tag">frei0r.contrast0r</property>
   <property name="kdenlive_ix">1</property>
   <property name="kdenlive_info"/>
   <property name="Contrast">0=0,55</property>
   <property name="disable">0</property>
  </filter>
 </producer>
 <producer title="Anonymous Submission" id="41" in="0" out="10702">
  <property name="length">00:03:34:03</property>
  <property name="eof">pause</property>
  <property name="resource">/media/bordun/plagiat2/2019-05-01_Plagiat_RespecteLaPuissancePapale_Lavare/CAM1_2019-01-05_0511_C0000.mov</property>
  <property name="audio_index">2</property>
  <property name="video_index">1</property>
  <property name="mute_on_pause">1</property>
  <property name="mlt_service">avformat-novalidate</property>
  <property name="meta.media.nb_streams">3</property>
  <property name="meta.media.1.stream.type">video</property>
  <property name="meta.media.1.stream.frame_rate">50</property>
  <property name="meta.media.1.stream.sample_aspect_ratio">1</property>
  <property name="meta.media.1.codec.width">1920</property>
  <property name="meta.media.1.codec.height">1080</property>
  <property name="meta.media.1.codec.rotate">0</property>
  <property name="meta.media.1.codec.frame_rate">5000</property>
  <property name="meta.media.1.codec.pix_fmt">yuv422p10le</property>
  <property name="meta.media.1.codec.sample_aspect_ratio">0</property>
  <property name="meta.media.1.codec.colorspace">709</property>
  <property name="meta.media.1.codec.color_trc">1</property>
  <property name="meta.media.1.codec.name">prores</property>
  <property name="meta.media.1.codec.long_name">ProRes</property>
  <property name="meta.media.1.codec.bit_rate">366958294</property>
  <property name="meta.attr.1.stream.creation_time.markup">2019-01-05T05:11:43.000000Z</property>
  <property name="meta.attr.1.stream.language.markup">eng</property>
  <property name="meta.attr.1.stream.handler_name.markup">Apple Alias Data Handler</property>
  <property name="meta.attr.1.stream.encoder.markup">Apple ProRes 422 HQ</property>
  <property name="meta.attr.1.stream.timecode.markup">05:11:43:16</property>
  <property name="meta.media.2.stream.type">audio</property>
  <property name="meta.media.2.codec.sample_fmt">s32</property>
  <property name="meta.media.2.codec.sample_rate">48000</property>
  <property name="meta.media.2.codec.channels">2</property>
  <property name="meta.media.2.codec.name">pcm_s24le</property>
  <property name="meta.media.2.codec.long_name">PCM signed 24-bit little-endian</property>
  <property name="meta.media.2.codec.bit_rate">2304000</property>
  <property name="meta.attr.2.stream.creation_time.markup">2019-01-05T05:11:43.000000Z</property>
  <property name="meta.attr.2.stream.language.markup">eng</property>
  <property name="meta.attr.2.stream.handler_name.markup">Apple Alias Data Handler</property>
  <property name="meta.attr.2.stream.timecode.markup">05:11:43:16</property>
  <property name="meta.attr.com.apple.proapps.manufacturer.markup">Blackmagic Design</property>
  <property name="meta.attr.com.apple.proapps.cameraName.markup">CAM1</property>
  <property name="meta.attr.com.apple.proapps.isGood.markup">0</property>
  <property name="meta.attr.com.apple.proapps.customgamma.markup">com.blackmagic-design.cinemacamera.filmlog</property>
  <property name="meta.attr.com.blackmagic-design.cinemacamera.uuid.markup">18E5E00548F94923B646613A73C01B56</property>
  <property name="meta.attr.creation_time.markup">2019-01-05T05:11:43.000000Z</property>
  <property name="meta.attr.timecode.markup">05:11:43:16</property>
  <property name="seekable">1</property>
  <property name="meta.media.sample_aspect_num">1</property>
  <property name="meta.media.sample_aspect_den">1</property>
  <property name="aspect_ratio">1</property>
  <property name="kdenlive:folderid">16</property>
  <property name="meta.media.frame_rate_num">50</property>
  <property name="meta.media.frame_rate_den">1</property>
  <property name="meta.media.colorspace">709</property>
  <property name="meta.media.color_trc">1</property>
  <property name="meta.media.width">1920</property>
  <property name="meta.media.height">1080</property>
  <property name="meta.media.top_field_first">0</property>
  <property name="meta.media.progressive">1</property>
  <property name="kdenlive:file_size">9881509121</property>
  <property name="kdenlive:file_hash">377aa92a5fbef78369143e30739b498c</property>
  <property name="global_feed">1</property>
  <property name="kdenlive:zone_in">4294</property>
  <property name="kdenlive:zone_out">4317</property>
  <filter id="filter11">
   <property name="version">0,2</property>
   <property name="mlt_service">frei0r.contrast0r</property>
   <property name="kdenlive_id">frei0r.contrast0r</property>
   <property name="tag">frei0r.contrast0r</property>
   <property name="kdenlive_ix">1</property>
   <property name="kdenlive_info"/>
   <property name="Contrast">0=0,55</property>
   <property name="disable">0</property>
  </filter>
  <filter id="filter12">
   <property name="version">0,3</property>
   <property name="mlt_service">frei0r.levels</property>
   <property name="kdenlive_id">frei0r.levels</property>
   <property name="tag">frei0r.levels</property>
   <property name="kdenlive_ix">2</property>
   <property name="kdenlive_info"/>
   <property name="Channel">0,3</property>
   <property name="Input black level">0=0</property>
   <property name="Input white level">0=1</property>
   <property name="Gamma">0=0,25</property>
   <property name="Black output">0=0</property>
   <property name="White output">0=1</property>
   <property name="Show histogram">0</property>
   <property name="Histogram position">0,3</property>
  </filter>
  <filter id="filter13">
   <property name="version">0,3</property>
   <property name="mlt_service">frei0r.levels</property>
   <property name="kdenlive_id">frei0r.levels</property>
   <property name="tag">frei0r.levels</property>
   <property name="kdenlive_ix">3</property>
   <property name="kdenlive_info"/>
   <property name="Channel">0,3</property>
   <property name="Input black level">0=0</property>
   <property name="Input white level">0=1</property>
   <property name="Gamma">0=0,25</property>
   <property name="Black output">0=0</property>
   <property name="White output">0=1</property>
   <property name="Show histogram">0</property>
   <property name="Histogram position">0,3</property>
  </filter>
 </producer>
 <producer title="Anonymous Submission" id="42" in="0" out="11268">
  <property name="length">00:03:45:19</property>
  <property name="eof">pause</property>
  <property name="resource">/media/bordun/plagiat2/2019-05-01_Plagiat_RespecteLaPuissancePapale_Lavare/CAM1_2019-01-05_0525_C0002.mov</property>
  <property name="audio_index">2</property>
  <property name="video_index">1</property>
  <property name="mute_on_pause">1</property>
  <property name="mlt_service">avformat-novalidate</property>
  <property name="meta.media.nb_streams">3</property>
  <property name="meta.media.1.stream.type">video</property>
  <property name="meta.media.1.stream.frame_rate">50</property>
  <property name="meta.media.1.stream.sample_aspect_ratio">1</property>
  <property name="meta.media.1.codec.width">1920</property>
  <property name="meta.media.1.codec.height">1080</property>
  <property name="meta.media.1.codec.rotate">0</property>
  <property name="meta.media.1.codec.frame_rate">5000</property>
  <property name="meta.media.1.codec.pix_fmt">yuv422p10le</property>
  <property name="meta.media.1.codec.sample_aspect_ratio">0</property>
  <property name="meta.media.1.codec.colorspace">709</property>
  <property name="meta.media.1.codec.color_trc">1</property>
  <property name="meta.media.1.codec.name">prores</property>
  <property name="meta.media.1.codec.long_name">ProRes</property>
  <property name="meta.media.1.codec.bit_rate">366958989</property>
  <property name="meta.attr.1.stream.creation_time.markup">2019-01-05T05:25:34.000000Z</property>
  <property name="meta.attr.1.stream.language.markup">eng</property>
  <property name="meta.attr.1.stream.handler_name.markup">Apple Alias Data Handler</property>
  <property name="meta.attr.1.stream.encoder.markup">Apple ProRes 422 HQ</property>
  <property name="meta.attr.1.stream.timecode.markup">05:25:34:21</property>
  <property name="meta.media.2.stream.type">audio</property>
  <property name="meta.media.2.codec.sample_fmt">s32</property>
  <property name="meta.media.2.codec.sample_rate">48000</property>
  <property name="meta.media.2.codec.channels">2</property>
  <property name="meta.media.2.codec.name">pcm_s24le</property>
  <property name="meta.media.2.codec.long_name">PCM signed 24-bit little-endian</property>
  <property name="meta.media.2.codec.bit_rate">2304000</property>
  <property name="meta.attr.2.stream.creation_time.markup">2019-01-05T05:25:34.000000Z</property>
  <property name="meta.attr.2.stream.language.markup">eng</property>
  <property name="meta.attr.2.stream.handler_name.markup">Apple Alias Data Handler</property>
  <property name="meta.attr.2.stream.timecode.markup">05:25:34:21</property>
  <property name="meta.attr.com.apple.proapps.manufacturer.markup">Blackmagic Design</property>
  <property name="meta.attr.com.apple.proapps.cameraName.markup">CAM1</property>
  <property name="meta.attr.com.apple.proapps.isGood.markup">0</property>
  <property name="meta.attr.com.apple.proapps.customgamma.markup">com.blackmagic-design.cinemacamera.filmlog</property>
  <property name="meta.attr.com.blackmagic-design.cinemacamera.uuid.markup">18E5E00548F94923B646613A73C01B56</property>
  <property name="meta.attr.creation_time.markup">2019-01-05T05:25:34.000000Z</property>
  <property name="meta.attr.timecode.markup">05:25:34:21</property>
  <property name="seekable">1</property>
  <property name="meta.media.sample_aspect_num">1</property>
  <property name="meta.media.sample_aspect_den">1</property>
  <property name="aspect_ratio">1</property>
  <property name="kdenlive:folderid">16</property>
  <property name="meta.media.frame_rate_num">50</property>
  <property name="meta.media.frame_rate_den">1</property>
  <property name="meta.media.colorspace">709</property>
  <property name="meta.media.color_trc">1</property>
  <property name="meta.media.width">1920</property>
  <property name="meta.media.height">1080</property>
  <property name="meta.media.top_field_first">0</property>
  <property name="meta.media.progressive">1</property>
  <property name="kdenlive:file_size">10404105561</property>
  <property name="kdenlive:file_hash">2bc47b71e880be9b41ab5c0f2f63d573</property>
  <property name="global_feed">1</property>
 </producer>
 <producer title="Anonymous Submission" id="43" in="0" out="42317">
  <property name="length">00:14:06:18</property>
  <property name="eof">pause</property>
  <property name="resource">/media/bordun/plagiat2/2019-05-01_Plagiat_RespecteLaPuissancePapale_Lavare/CAM1_2019-01-05_0345_C0000.mov</property>
  <property name="audio_index">2</property>
  <property name="video_index">1</property>
  <property name="mute_on_pause">1</property>
  <property name="mlt_service">avformat-novalidate</property>
  <property name="meta.media.nb_streams">3</property>
  <property name="meta.media.1.stream.type">video</property>
  <property name="meta.media.1.stream.frame_rate">50</property>
  <property name="meta.media.1.stream.sample_aspect_ratio">1</property>
  <property name="meta.media.1.codec.width">1920</property>
  <property name="meta.media.1.codec.height">1080</property>
  <property name="meta.media.1.codec.rotate">0</property>
  <property name="meta.media.1.codec.frame_rate">5000</property>
  <property name="meta.media.1.codec.pix_fmt">yuv422p10le</property>
  <property name="meta.media.1.codec.sample_aspect_ratio">0</property>
  <property name="meta.media.1.codec.colorspace">709</property>
  <property name="meta.media.1.codec.color_trc">1</property>
  <property name="meta.media.1.codec.name">prores</property>
  <property name="meta.media.1.codec.long_name">ProRes</property>
  <property name="meta.media.1.codec.bit_rate">366957403</property>
  <property name="meta.attr.1.stream.creation_time.markup">2019-01-05T03:45:37.000000Z</property>
  <property name="meta.attr.1.stream.language.markup">eng</property>
  <property name="meta.attr.1.stream.handler_name.markup">Apple Alias Data Handler</property>
  <property name="meta.attr.1.stream.encoder.markup">Apple ProRes 422 HQ</property>
  <property name="meta.attr.1.stream.timecode.markup">03:45:37:07</property>
  <property name="meta.media.2.stream.type">audio</property>
  <property name="meta.media.2.codec.sample_fmt">s32</property>
  <property name="meta.media.2.codec.sample_rate">48000</property>
  <property name="meta.media.2.codec.channels">2</property>
  <property name="meta.media.2.codec.name">pcm_s24le</property>
  <property name="meta.media.2.codec.long_name">PCM signed 24-bit little-endian</property>
  <property name="meta.media.2.codec.bit_rate">2304000</property>
  <property name="meta.attr.2.stream.creation_time.markup">2019-01-05T03:45:37.000000Z</property>
  <property name="meta.attr.2.stream.language.markup">eng</property>
  <property name="meta.attr.2.stream.handler_name.markup">Apple Alias Data Handler</property>
  <property name="meta.attr.2.stream.timecode.markup">03:45:37:07</property>
  <property name="meta.attr.com.apple.proapps.manufacturer.markup">Blackmagic Design</property>
  <property name="meta.attr.com.apple.proapps.cameraName.markup">CAM1</property>
  <property name="meta.attr.com.apple.proapps.isGood.markup">0</property>
  <property name="meta.attr.com.apple.proapps.customgamma.markup">com.blackmagic-design.cinemacamera.filmlog</property>
  <property name="meta.attr.com.blackmagic-design.cinemacamera.uuid.markup">18E5E00548F94923B646613A73C01B56</property>
  <property name="meta.attr.creation_time.markup">2019-01-05T03:45:37.000000Z</property>
  <property name="meta.attr.timecode.markup">03:45:37:07</property>
  <property name="seekable">1</property>
  <property name="meta.media.sample_aspect_num">1</property>
  <property name="meta.media.sample_aspect_den">1</property>
  <property name="aspect_ratio">1</property>
  <property name="kdenlive:folderid">16</property>
  <property name="meta.media.frame_rate_num">50</property>
  <property name="meta.media.frame_rate_den">1</property>
  <property name="meta.media.colorspace">709</property>
  <property name="meta.media.color_trc">1</property>
  <property name="meta.media.width">1920</property>
  <property name="meta.media.height">1080</property>
  <property name="meta.media.top_field_first">0</property>
  <property name="meta.media.progressive">1</property>
  <property name="kdenlive:file_size">39069915329</property>
  <property name="kdenlive:file_hash">73f4a81374204093f22cbe930d68c42b</property>
  <property name="global_feed">1</property>
  <filter id="filter14">
   <property name="version">0,2</property>
   <property name="mlt_service">frei0r.contrast0r</property>
   <property name="kdenlive_id">frei0r.contrast0r</property>
   <property name="tag">frei0r.contrast0r</property>
   <property name="kdenlive_ix">1</property>
   <property name="kdenlive_info"/>
   <property name="Contrast">0=0,55</property>
  </filter>
 </producer>
 <producer id="44" in="0" out="1689">
  <property name="length">00:00:33:40</property>
  <property name="eof">pause</property>
  <property name="resource">/media/bordun/plagiat2/2019-05-01_Plagiat_RespecteLaPuissancePapale_Lavare/CAM1_2019-01-05_0607_C0006.mov</property>
  <property name="audio_index">2</property>
  <property name="video_index">1</property>
  <property name="mute_on_pause">1</property>
  <property name="mlt_service">avformat-novalidate</property>
  <property name="meta.media.nb_streams">3</property>
  <property name="meta.media.1.stream.type">video</property>
  <property name="meta.media.1.stream.frame_rate">50</property>
  <property name="meta.media.1.stream.sample_aspect_ratio">1</property>
  <property name="meta.media.1.codec.width">1920</property>
  <property name="meta.media.1.codec.height">1080</property>
  <property name="meta.media.1.codec.rotate">0</property>
  <property name="meta.media.1.codec.frame_rate">5000</property>
  <property name="meta.media.1.codec.pix_fmt">yuv422p10le</property>
  <property name="meta.media.1.codec.sample_aspect_ratio">0</property>
  <property name="meta.media.1.codec.colorspace">709</property>
  <property name="meta.media.1.codec.color_trc">1</property>
  <property name="meta.media.1.codec.name">prores</property>
  <property name="meta.media.1.codec.long_name">ProRes</property>
  <property name="meta.media.1.codec.bit_rate">366960162</property>
  <property name="meta.attr.1.stream.creation_time.markup">2019-01-05T06:07:03.000000Z</property>
  <property name="meta.attr.1.stream.language.markup">eng</property>
  <property name="meta.attr.1.stream.handler_name.markup">Apple Alias Data Handler</property>
  <property name="meta.attr.1.stream.encoder.markup">Apple ProRes 422 HQ</property>
  <property name="meta.attr.1.stream.timecode.markup">06:07:03:08</property>
  <property name="meta.media.2.stream.type">audio</property>
  <property name="meta.media.2.codec.sample_fmt">s32</property>
  <property name="meta.media.2.codec.sample_rate">48000</property>
  <property name="meta.media.2.codec.channels">2</property>
  <property name="meta.media.2.codec.name">pcm_s24le</property>
  <property name="meta.media.2.codec.long_name">PCM signed 24-bit little-endian</property>
  <property name="meta.media.2.codec.bit_rate">2304000</property>
  <property name="meta.attr.2.stream.creation_time.markup">2019-01-05T06:07:03.000000Z</property>
  <property name="meta.attr.2.stream.language.markup">eng</property>
  <property name="meta.attr.2.stream.handler_name.markup">Apple Alias Data Handler</property>
  <property name="meta.attr.2.stream.timecode.markup">06:07:03:08</property>
  <property name="meta.attr.com.apple.proapps.manufacturer.markup">Blackmagic Design</property>
  <property name="meta.attr.com.apple.proapps.cameraName.markup">CAM1</property>
  <property name="meta.attr.com.apple.proapps.isGood.markup">0</property>
  <property name="meta.attr.com.apple.proapps.customgamma.markup">com.blackmagic-design.cinemacamera.filmlog</property>
  <property name="meta.attr.com.blackmagic-design.cinemacamera.uuid.markup">18E5E00548F94923B646613A73C01B56</property>
  <property name="meta.attr.creation_time.markup">2019-01-05T06:07:03.000000Z</property>
  <property name="meta.attr.timecode.markup">06:07:03:08</property>
  <property name="seekable">1</property>
  <property name="meta.media.sample_aspect_num">1</property>
  <property name="meta.media.sample_aspect_den">1</property>
  <property name="aspect_ratio">1</property>
  <property name="kdenlive:folderid">16</property>
  <property name="meta.media.frame_rate_num">50</property>
  <property name="meta.media.frame_rate_den">1</property>
  <property name="meta.media.colorspace">709</property>
  <property name="meta.media.color_trc">1</property>
  <property name="meta.media.width">1920</property>
  <property name="meta.media.height">1080</property>
  <property name="meta.media.top_field_first">0</property>
  <property name="meta.media.progressive">1</property>
  <property name="kdenlive:file_size">1560293721</property>
  <property name="kdenlive:file_hash">bd1e6f48bc5cce2ea867955bc59977ea</property>
 </producer>
 <producer id="45" in="0" out="3049">
  <property name="length">00:01:01:00</property>
  <property name="eof">pause</property>
  <property name="resource">/media/bordun/plagiat2/2019-05-01_Plagiat_RespecteLaPuissancePapale_Lavare/CAM1_2019-01-05_0605_C0005.mov</property>
  <property name="audio_index">2</property>
  <property name="video_index">1</property>
  <property name="mute_on_pause">1</property>
  <property name="mlt_service">avformat-novalidate</property>
  <property name="meta.media.nb_streams">3</property>
  <property name="meta.media.1.stream.type">video</property>
  <property name="meta.media.1.stream.frame_rate">50</property>
  <property name="meta.media.1.stream.sample_aspect_ratio">1</property>
  <property name="meta.media.1.codec.width">1920</property>
  <property name="meta.media.1.codec.height">1080</property>
  <property name="meta.media.1.codec.rotate">0</property>
  <property name="meta.media.1.codec.frame_rate">5000</property>
  <property name="meta.media.1.codec.pix_fmt">yuv422p10le</property>
  <property name="meta.media.1.codec.sample_aspect_ratio">0</property>
  <property name="meta.media.1.codec.colorspace">709</property>
  <property name="meta.media.1.codec.color_trc">1</property>
  <property name="meta.media.1.codec.name">prores</property>
  <property name="meta.media.1.codec.long_name">ProRes</property>
  <property name="meta.media.1.codec.bit_rate">366958797</property>
  <property name="meta.attr.1.stream.creation_time.markup">2019-01-05T06:05:50.000000Z</property>
  <property name="meta.attr.1.stream.language.markup">eng</property>
  <property name="meta.attr.1.stream.handler_name.markup">Apple Alias Data Handler</property>
  <property name="meta.attr.1.stream.encoder.markup">Apple ProRes 422 HQ</property>
  <property name="meta.attr.1.stream.timecode.markup">06:05:50:13</property>
  <property name="meta.media.2.stream.type">audio</property>
  <property name="meta.media.2.codec.sample_fmt">s32</property>
  <property name="meta.media.2.codec.sample_rate">48000</property>
  <property name="meta.media.2.codec.channels">2</property>
  <property name="meta.media.2.codec.name">pcm_s24le</property>
  <property name="meta.media.2.codec.long_name">PCM signed 24-bit little-endian</property>
  <property name="meta.media.2.codec.bit_rate">2304000</property>
  <property name="meta.attr.2.stream.creation_time.markup">2019-01-05T06:05:50.000000Z</property>
  <property name="meta.attr.2.stream.language.markup">eng</property>
  <property name="meta.attr.2.stream.handler_name.markup">Apple Alias Data Handler</property>
  <property name="meta.attr.2.stream.timecode.markup">06:05:50:13</property>
  <property name="meta.attr.com.apple.proapps.manufacturer.markup">Blackmagic Design</property>
  <property name="meta.attr.com.apple.proapps.cameraName.markup">CAM1</property>
  <property name="meta.attr.com.apple.proapps.isGood.markup">0</property>
  <property name="meta.attr.com.apple.proapps.customgamma.markup">com.blackmagic-design.cinemacamera.filmlog</property>
  <property name="meta.attr.com.blackmagic-design.cinemacamera.uuid.markup">18E5E00548F94923B646613A73C01B56</property>
  <property name="meta.attr.creation_time.markup">2019-01-05T06:05:50.000000Z</property>
  <property name="meta.attr.timecode.markup">06:05:50:13</property>
  <property name="seekable">1</property>
  <property name="meta.media.sample_aspect_num">1</property>
  <property name="meta.media.sample_aspect_den">1</property>
  <property name="aspect_ratio">1</property>
  <property name="kdenlive:folderid">16</property>
  <property name="meta.media.frame_rate_num">50</property>
  <property name="meta.media.frame_rate_den">1</property>
  <property name="meta.media.colorspace">709</property>
  <property name="meta.media.color_trc">1</property>
  <property name="meta.media.width">1920</property>
  <property name="meta.media.height">1080</property>
  <property name="meta.media.top_field_first">0</property>
  <property name="meta.media.progressive">1</property>
  <property name="kdenlive:file_size">2815906853</property>
  <property name="kdenlive:file_hash">23a7c272941f6ead8c4c67cee7e89762</property>
 </producer>
 <producer id="46" in="0" out="345">
  <property name="length">346</property>
  <property name="eof">pause</property>
  <property name="resource">0x000000ff</property>
  <property name="aspect_ratio">1</property>
  <property name="mlt_service">color</property>
  <property name="kdenlive:clipname">Clip couleur</property>
  <property name="kdenlive:folderid">12</property>
  <property name="kdenlive:duration">250</property>
  <property name="kdenlive:file_hash">9196813120dc5c505072516b15baf414</property>
 </producer>
 <producer id="48" in="0" out="249">
  <property name="length">250</property>
  <property name="eof">pause</property>
  <property name="resource">0x000000ff</property>
  <property name="aspect_ratio">1</property>
  <property name="mlt_service">color</property>
  <property name="kdenlive:clipname">Clip couleur</property>
  <property name="kdenlive:folderid">-1</property>
  <property name="kdenlive:duration">250</property>
  <property name="kdenlive:file_hash">9196813120dc5c505072516b15baf414</property>
 </producer>
 <producer id="50" in="0" out="249">
  <property name="length">250</property>
  <property name="eof">pause</property>
  <property name="resource">0xffffffff</property>
  <property name="aspect_ratio">1</property>
  <property name="mlt_service">color</property>
  <property name="kdenlive:clipname">Clip couleur</property>
  <property name="kdenlive:folderid">-1</property>
  <property name="kdenlive:duration">250</property>
  <property name="kdenlive:file_hash">039b56a692cd66eefeea44a17539e5a2</property>
 </producer>
 <producer title="Anonymous Submission" id="51" in="0" out="249">
  <property name="length">250</property>
  <property name="eof">pause</property>
  <property name="resource">/media/bordun/plagiat/Clip02_RespecteLaPuissancePapale/Assets/dickhead.png</property>
  <property name="ttl">25</property>
  <property name="aspect_ratio">1</property>
  <property name="progressive">1</property>
  <property name="seekable">1</property>
  <property name="meta.media.width">500</property>
  <property name="meta.media.height">500</property>
  <property name="mlt_service">qimage</property>
  <property name="kdenlive:duration">250</property>
  <property name="kdenlive:file_size">132023</property>
  <property name="kdenlive:file_hash">9dfa09ec3d434c7c3975934dbd08581f</property>
  <property name="global_feed">1</property>
 </producer>
 <producer title="Anonymous Submission" id="53" in="0" out="335">
  <property name="length">00:00:06:36</property>
  <property name="eof">pause</property>
  <property name="resource">/media/bordun/plagiat/Clip02_RespecteLaPuissancePapale/Assets/crowd.mp4</property>
  <property name="audio_index">-1</property>
  <property name="video_index">0</property>
  <property name="mute_on_pause">1</property>
  <property name="mlt_service">avformat-novalidate</property>
  <property name="meta.media.nb_streams">1</property>
  <property name="meta.media.0.stream.type">video</property>
  <property name="meta.media.0.stream.frame_rate">25</property>
  <property name="meta.media.0.stream.sample_aspect_ratio">1</property>
  <property name="meta.media.0.codec.width">1920</property>
  <property name="meta.media.0.codec.height">1080</property>
  <property name="meta.media.0.codec.rotate">0</property>
  <property name="meta.media.0.codec.frame_rate">25</property>
  <property name="meta.media.0.codec.pix_fmt">yuv420p</property>
  <property name="meta.media.0.codec.sample_aspect_ratio">1</property>
  <property name="meta.media.0.codec.colorspace">709</property>
  <property name="meta.media.0.codec.color_trc">1</property>
  <property name="meta.media.0.codec.name">h264</property>
  <property name="meta.media.0.codec.long_name">H.264 / AVC / MPEG-4 AVC / MPEG-4 part 10</property>
  <property name="meta.media.0.codec.bit_rate">7121453</property>
  <property name="meta.attr.0.stream.handler_name.markup">VideoHandler</property>
  <property name="meta.attr.major_brand.markup">isom</property>
  <property name="meta.attr.minor_version.markup">512</property>
  <property name="meta.attr.compatible_brands.markup">isomiso2avc1mp41</property>
  <property name="meta.attr.encoder.markup">Lavf57.71.100</property>
  <property name="seekable">1</property>
  <property name="meta.media.sample_aspect_num">1</property>
  <property name="meta.media.sample_aspect_den">1</property>
  <property name="aspect_ratio">1</property>
  <property name="meta.media.frame_rate_num">25</property>
  <property name="meta.media.frame_rate_den">1</property>
  <property name="meta.media.colorspace">709</property>
  <property name="meta.media.color_trc">1</property>
  <property name="meta.media.width">1920</property>
  <property name="meta.media.height">1080</property>
  <property name="meta.media.top_field_first">0</property>
  <property name="meta.media.progressive">1</property>
  <property name="kdenlive:file_size">5984916</property>
  <property name="kdenlive:file_hash">f085257f7fa0dde53518ef03973336c5</property>
  <property name="global_feed">1</property>
 </producer>
 <producer title="Anonymous Submission" id="56" in="0" out="249">
  <property name="length">250</property>
  <property name="eof">pause</property>
  <property name="resource"/>
  <property name="progressive">1</property>
  <property name="aspect_ratio">1</property>
  <property name="seekable">1</property>
  <property name="mlt_service">kdenlivetitle</property>
  <property name="kdenlive:clipname">vomit</property>
  <property name="kdenlive:folderid">-1</property>
  <property name="xmldata">&lt;kdenlivetitle duration="250" LC_NUMERIC="fr_FR.UTF-8" width="1920" height="1080" out="250">
 &lt;item type="QGraphicsTextItem" z-index="1">
  &lt;position x="156" y="948">
   &lt;transform>1,0,0,0,1,0,0,0,1&lt;/transform>
  &lt;/position>
  &lt;content line-spacing="0" shadow="0;#64000000;3;3;3" font-underline="0" box-height="13" font-outline-color="0,0,0,255" font="VCR OSD Mono" letter-spacing="0" font-pixel-size="13" font-italic="0" alignment="1" font-weight="87" font-outline="0" box-width="357.641" font-color="0,143,254,255">117607__mefrancis13__fake-vomit-into-toilet.wav&lt;/content>
 &lt;/item>
 &lt;item type="QGraphicsTextItem" z-index="0">
  &lt;position x="156" y="918">
   &lt;transform>1,0,0,0,1,0,0,0,1&lt;/transform>
  &lt;/position>
  &lt;content line-spacing="0" shadow="0;#64000000;3;3;3" font-underline="0" box-height="21" font="VCR OSD Mono" letter-spacing="0" font-pixel-size="22" font-italic="0" alignment="1" font-weight="87" box-width="141.797" font-color="0,143,254,255">Now Playing&lt;/content>
 &lt;/item>
 &lt;startviewport rect="0,0,1920,1080"/>
 &lt;endviewport rect="0,0,1920,1080"/>
 &lt;background color="0,0,0,0"/>
&lt;/kdenlivetitle>
</property>
  <property name="kdenlive:duration">250</property>
  <property name="force_reload">0</property>
  <property name="meta.media.width">1920</property>
  <property name="meta.media.height">1080</property>
  <property name="kdenlive:file_hash">138fd8f2d19d13c5b717224274cf7a7e</property>
  <property name="global_feed">1</property>
 </producer>
 <producer title="Anonymous Submission" id="57" in="0" out="354">
  <property name="length">355</property>
  <property name="eof">pause</property>
  <property name="resource"/>
  <property name="progressive">1</property>
  <property name="aspect_ratio">1</property>
  <property name="seekable">1</property>
  <property name="mlt_service">kdenlivetitle</property>
  <property name="kdenlive:clipname">flush</property>
  <property name="kdenlive:folderid">-1</property>
  <property name="xmldata">&lt;kdenlivetitle duration="250" LC_NUMERIC="fr_FR.UTF-8" width="1920" height="1080" out="250">
 &lt;item type="QGraphicsTextItem" z-index="1">
  &lt;position x="156" y="948">
   &lt;transform>1,0,0,0,1,0,0,0,1&lt;/transform>
  &lt;/position>
  &lt;content line-spacing="0" shadow="0;#64000000;3;3;3" font-underline="0" box-height="13" font="VCR OSD Mono" letter-spacing="0" font-pixel-size="13" font-italic="0" alignment="1" font-weight="87" box-width="327.203" font-color="0,143,254,255">98783__the-toilet-guy__rosencentrelobby.wav&lt;/content>
 &lt;/item>
 &lt;item type="QGraphicsTextItem" z-index="0">
  &lt;position x="156" y="918">
   &lt;transform>1,0,0,0,1,0,0,0,1&lt;/transform>
  &lt;/position>
  &lt;content line-spacing="0" shadow="0;#64000000;3;3;3" font-underline="0" box-height="21" font="VCR OSD Mono" letter-spacing="0" font-pixel-size="22" font-italic="0" alignment="1" font-weight="87" box-width="141.797" font-color="0,143,254,255">Now Plaginy&lt;/content>
 &lt;/item>
 &lt;startviewport rect="0,0,1920,1080"/>
 &lt;endviewport rect="0,0,1920,1080"/>
 &lt;background color="0,0,0,0"/>
&lt;/kdenlivetitle>
</property>
  <property name="kdenlive:duration">250</property>
  <property name="force_reload">0</property>
  <property name="kdenlive:file_hash">06d4d53d64a9244f1e83b783e7725c4b</property>
  <property name="global_feed">1</property>
  <property name="meta.media.width">1920</property>
  <property name="meta.media.height">1080</property>
 </producer>
 <producer title="Anonymous Submission" id="54" in="0" out="249">
  <property name="length">250</property>
  <property name="eof">pause</property>
  <property name="resource">/media/bordun/plagiat/Clip02_RespecteLaPuissancePapale/Assets/play.png</property>
  <property name="ttl">25</property>
  <property name="aspect_ratio">1</property>
  <property name="progressive">1</property>
  <property name="seekable">1</property>
  <property name="meta.media.width">4586</property>
  <property name="meta.media.height">763</property>
  <property name="mlt_service">qimage</property>
  <property name="kdenlive:duration">250</property>
  <property name="kdenlive:file_size">327887</property>
  <property name="kdenlive:file_hash">7f938e67529edbc97522ef1b2923f944</property>
  <property name="global_feed">1</property>
 </producer>
 <producer title="Anonymous Submission" id="59" in="0" out="42397">
  <property name="length">00:14:07:48</property>
  <property name="eof">pause</property>
  <property name="resource">/media/bordun/plagiat/2019-12-21_Plagiat_RespecteLaPuissancePapale_extra/2018-12-06_RespecteLaPuissancePapale_Clip_Master.wav</property>
  <property name="audio_index">0</property>
  <property name="video_index">-1</property>
  <property name="mute_on_pause">1</property>
  <property name="mlt_service">avformat-novalidate</property>
  <property name="meta.media.nb_streams">1</property>
  <property name="meta.media.0.stream.type">audio</property>
  <property name="meta.media.0.codec.sample_fmt">s32</property>
  <property name="meta.media.0.codec.sample_rate">48000</property>
  <property name="meta.media.0.codec.channels">2</property>
  <property name="meta.media.0.codec.name">pcm_s24le</property>
  <property name="meta.media.0.codec.long_name">PCM signed 24-bit little-endian</property>
  <property name="meta.media.0.codec.bit_rate">2304000</property>
  <property name="seekable">1</property>
  <property name="kdenlive:file_size">244215314</property>
  <property name="kdenlive:file_hash">704730193c02b4eae0f463072159504c</property>
  <property name="global_feed">1</property>
 </producer>
 <playlist id="main bin">
  <property name="kdenlive:docproperties.audiotargettrack">3</property>
  <property name="kdenlive:docproperties.decimalPoint">,</property>
  <property name="kdenlive:docproperties.dirtypreviewchunks"/>
  <property name="kdenlive:docproperties.disablepreview">0</property>
  <property name="kdenlive:docproperties.documentid">1547739419641</property>
  <property name="kdenlive:docproperties.enableproxy">0</property>
  <property name="kdenlive:docproperties.generateimageproxy">0</property>
  <property name="kdenlive:docproperties.generateproxy">1</property>
  <property name="kdenlive:docproperties.kdenliveversion">18.12.1</property>
  <property name="kdenlive:docproperties.position">0</property>
  <property name="kdenlive:docproperties.previewchunks"/>
  <property name="kdenlive:docproperties.previewextension"/>
  <property name="kdenlive:docproperties.previewparameters"/>
  <property name="kdenlive:docproperties.profile">atsc_1080p_50</property>
  <property name="kdenlive:docproperties.proxyextension">mkv</property>
  <property name="kdenlive:docproperties.proxyimageminsize">2000</property>
  <property name="kdenlive:docproperties.proxyminsize">1000</property>
  <property name="kdenlive:docproperties.proxyparams">-vf yadif,scale=960:-2 -qscale 3 -vcodec mjpeg -acodec pcm_s16le</property>
  <property name="kdenlive:docproperties.version">0.96</property>
  <property name="kdenlive:docproperties.verticalzoom">1</property>
  <property name="kdenlive:docproperties.videotargettrack">5</property>
  <property name="kdenlive:docproperties.zonein">2464</property>
  <property name="kdenlive:docproperties.zoneout">3953</property>
  <property name="kdenlive:docproperties.zoom">7</property>
  <property name="kdenlive:documentnotes"/>
  <property name="kdenlive:clipgroups"/>
  <property name="kdenlive:folder.-1.5">Part I - Le5</property>
  <property name="kdenlive:folder.-1.6">Part II - Ballade</property>
  <property name="kdenlive:folder.-1.7">Part III - AfroTrap</property>
  <property name="kdenlive:folder.5.9">Autel</property>
  <property name="kdenlive:folder.5.10">ContrePlongee</property>
  <property name="kdenlive:folder.6.11">NanoChiottes</property>
  <property name="kdenlive:folder.6.12">MissyPiano</property>
  <property name="kdenlive:folder.5.13">Trap</property>
  <property name="kdenlive:folder.5.14">InstruRefrain</property>
  <property name="kdenlive:folder.-1.15">Part IV - Meshuggah</property>
  <property name="kdenlive:guide.149,36">word</property>
  <property name="kdenlive:docproperties.renderaudioquality">256</property>
  <property name="kdenlive:docproperties.rendercategory">Personnalisé</property>
  <property name="kdenlive:docproperties.renderendguide">0</property>
  <property name="kdenlive:docproperties.renderexportaudio">0</property>
  <property name="kdenlive:docproperties.renderguide">0</property>
  <property name="kdenlive:docproperties.renderplay">0</property>
  <property name="kdenlive:docproperties.renderprofile">MP4HD</property>
  <property name="kdenlive:docproperties.renderquality">19</property>
  <property name="kdenlive:docproperties.renderratio">0</property>
  <property name="kdenlive:docproperties.renderrescale">1</property>
  <property name="kdenlive:docproperties.renderrescaleheight">720</property>
  <property name="kdenlive:docproperties.renderrescalewidth">1280</property>
  <property name="kdenlive:docproperties.renderscanning">0</property>
  <property name="kdenlive:docproperties.renderspeed">2</property>
  <property name="kdenlive:docproperties.renderstartguide">0</property>
  <property name="kdenlive:docproperties.rendertcoverlay">0</property>
  <property name="kdenlive:docproperties.rendertctype">0</property>
  <property name="kdenlive:docproperties.rendertwopass">0</property>
  <property name="kdenlive:docproperties.renderurl">/media/bordun/plagiat/Clip02_RespecteLaPuissancePapale/Rendus/2019-10-09-RLPP-Part2-test.mp4</property>
  <property name="kdenlive:docproperties.renderzone">1</property>
  <property name="kdenlive:guide.102,48">begin piano</property>
  <property name="kdenlive:guide.217,62">shake </property>
  <property name="kdenlive:folder.-1.16">Lavaré</property>
  <property name="kdenlive:customeffects">&lt;customeffects>
 &lt;effect type="custom" tag="frei0r.sopsat" id="RLPP - Violet Degueux" LC_NUMERIC="C" effectcolor="#9d72f5" version="0.2">
  &lt;name>RLPP - Violet Degueux&lt;/name>
  &lt;description>Changes Slope, Offset, and Power of the color components, and the overall Saturation, according to the ASC CDL (Color Decision List).&lt;/description>
  &lt;author>Simon A. Eugster (Granjow)&lt;/author>
  &lt;parameter type="simplekeyframe" name="rSlope" intimeline="1" factor="2000" keyframes="0=211" min="0" max="1000" default="100">
   &lt;name>Slope Red&lt;/name>
   &lt;comment>&lt;![CDATA[Changing the slope means multiplying the pixel value with a constant value. Black pixels will remain black, whileas brighter ones will be changed.&lt;br/>
                All effects can be observed well when applied on a greyscale gradient and looking at the RGB Parade monitor.]]&gt;&lt;/comment>
  &lt;/parameter>
  &lt;parameter type="simplekeyframe" name="gSlope" factor="2000" keyframes="0=100" min="0" max="1000" default="100">
   &lt;name>Slope Green&lt;/name>
  &lt;/parameter>
  &lt;parameter type="simplekeyframe" name="bSlope" factor="2000" keyframes="0=176" min="0" max="1000" default="100">
   &lt;name>Slope Blue&lt;/name>
  &lt;/parameter>
  &lt;parameter type="simplekeyframe" name="aSlope" factor="2000" keyframes="0=100" min="0" max="1000" default="100">
   &lt;name>Slope Alpha&lt;/name>
  &lt;/parameter>
  &lt;parameter type="simplekeyframe" offset="-1024" name="rOffset" factor="2048" keyframes="0=-91" min="-1024" max="1024" default="0">
   &lt;name>Offset Red&lt;/name>
   &lt;comment>Changing the offset lifts (or lowers) the brightness of each pixel by the given value.&lt;/comment>
  &lt;/parameter>
  &lt;parameter type="simplekeyframe" offset="-1024" name="gOffset" factor="2048" keyframes="0=-538" min="-1024" max="1024" default="0">
   &lt;name>Offset Green&lt;/name>
  &lt;/parameter>
  &lt;parameter type="simplekeyframe" offset="-1024" name="bOffset" factor="2048" keyframes="0=0" min="-1024" max="1024" default="0">
   &lt;name>Offset Blue&lt;/name>
  &lt;/parameter>
  &lt;parameter type="simplekeyframe" offset="-1024" name="aOffset" factor="2048" keyframes="0=0" min="-1024" max="1024" default="0">
   &lt;name>Offset Alpha&lt;/name>
  &lt;/parameter>
  &lt;parameter type="simplekeyframe" name="rPower" factor="2000" keyframes="0=50" min="1" max="1000" default="100">
   &lt;name>Power Red&lt;/name>
   &lt;comment>&lt;![CDATA[Changes the Gamma value for the selected channel. Black and white pixel values will not be affected, but everything between.&lt;br/>
                Mathematically, what happens is an exponentiation of the pixel brightness on &lt;code>[0,1]&lt;/code> by the gamma value.]]&gt;&lt;/comment>
  &lt;/parameter>
  &lt;parameter type="simplekeyframe" name="gPower" factor="2000" keyframes="0=105" min="1" max="1000" default="100">
   &lt;name>Power Green&lt;/name>
  &lt;/parameter>
  &lt;parameter type="simplekeyframe" name="bPower" factor="2000" keyframes="0=131" min="1" max="1000" default="100">
   &lt;name>Power Blue&lt;/name>
  &lt;/parameter>
  &lt;parameter type="simplekeyframe" name="aPower" factor="2000" keyframes="0=100" min="1" max="1000" default="100">
   &lt;name>Power Alpha&lt;/name>
  &lt;/parameter>
  &lt;parameter type="simplekeyframe" name="saturation" factor="1000" keyframes="0=100" min="0" max="500" default="100">
   &lt;name>Overall Saturation&lt;/name>
   &lt;comment>The overall saturation will be changed in the last step of this filter.&lt;/comment>
  &lt;/parameter>
  &lt;version>0,3&lt;/version>
  &lt;version>0,3&lt;/version>
 &lt;/effect>
&lt;/customeffects>
</property>
  <property name="xml_retain">1</property>
  <entry producer="1" in="0" out="14561"/>
  <entry producer="5" in="0" out="19246"/>
  <entry producer="4" in="0" out="24870"/>
  <entry producer="3" in="0" out="11635"/>
  <entry producer="2" in="0" out="11667"/>
  <entry producer="6" in="0" out="4178"/>
  <entry producer="7" in="0" out="8532"/>
  <entry producer="16" in="0" out="2403"/>
  <entry producer="17" in="0" out="2706"/>
  <entry producer="18" in="0" out="1547"/>
  <entry producer="19" in="0" out="2823"/>
  <entry producer="20" in="0" out="995"/>
  <entry producer="21" in="0" out="8367"/>
  <entry producer="23" in="0" out="90"/>
  <entry producer="24" in="0" out="2194"/>
  <entry producer="22" in="0" out="2303"/>
  <entry producer="14" in="0" out="3805"/>
  <entry producer="15" in="0" out="3941"/>
  <entry producer="10" in="0" out="3856"/>
  <entry producer="9" in="0" out="7720"/>
  <entry producer="11" in="0" out="21338"/>
  <entry producer="8" in="0" out="21621"/>
  <entry producer="25" in="0" out="4317"/>
  <entry producer="26" in="0" out="2406"/>
  <entry producer="13" in="0" out="4748"/>
  <entry producer="12" in="0" out="23600"/>
  <entry producer="28" in="0" out="12061"/>
  <entry producer="29" in="0" out="10170"/>
  <entry producer="30" in="0" out="43907"/>
  <entry producer="31" in="0" out="3983"/>
  <entry producer="32" in="0" out="5323"/>
  <entry producer="33" in="0" out="9041"/>
  <entry producer="34" in="0" out="3953"/>
  <entry producer="35" in="0" out="5863"/>
  <entry producer="36" in="0" out="6601"/>
  <entry producer="37" in="0" out="10077"/>
  <entry producer="38" in="0" out="10454"/>
  <entry producer="39" in="0" out="19885"/>
  <entry producer="40" in="0" out="9289"/>
  <entry producer="41" in="0" out="10702"/>
  <entry producer="42" in="0" out="11268"/>
  <entry producer="43" in="0" out="42317"/>
  <entry producer="44" in="0" out="1689"/>
  <entry producer="45" in="0" out="3049"/>
  <entry producer="46" in="0" out="249"/>
  <entry producer="48" in="0" out="249"/>
  <entry producer="50" in="0" out="249"/>
  <entry producer="51" in="0" out="249"/>
  <entry producer="53" in="0" out="335"/>
  <entry producer="56" in="0" out="249"/>
  <entry producer="57" in="0" out="249"/>
  <entry producer="54" in="0" out="249"/>
  <entry producer="59" in="0" out="42397"/>
 </playlist>
 <producer id="black" in="0" out="83527">
  <property name="length">83528</property>
  <property name="eof">pause</property>
  <property name="resource">black</property>
  <property name="aspect_ratio">0</property>
  <property name="mlt_service">colour</property>
  <property name="set.test_audio">0</property>
 </producer>
 <playlist id="black_track">
  <entry producer="black" in="0" out="33023"/>
 </playlist>
 <producer title="Anonymous Submission" id="59_playlist17" in="0" out="42397">
  <property name="length">00:14:07:48</property>
  <property name="eof">pause</property>
  <property name="resource">/media/bordun/plagiat/2019-12-21_Plagiat_RespecteLaPuissancePapale_extra/2018-12-06_RespecteLaPuissancePapale_Clip_Master.wav</property>
  <property name="audio_index">0</property>
  <property name="video_index">-1</property>
  <property name="mute_on_pause">1</property>
  <property name="mlt_service">avformat-novalidate</property>
  <property name="seekable">1</property>
  <property name="kdenlive:file_size">244215314</property>
  <property name="kdenlive:file_hash">704730193c02b4eae0f463072159504c</property>
  <property name="global_feed">1</property>
  <property name="xml">was here</property>
  <property name="meta.media.nb_streams">1</property>
  <property name="meta.media.0.stream.type">audio</property>
  <property name="meta.media.0.codec.sample_fmt">s32</property>
  <property name="meta.media.0.codec.sample_rate">48000</property>
  <property name="meta.media.0.codec.channels">2</property>
  <property name="meta.media.0.codec.name">pcm_s24le</property>
  <property name="meta.media.0.codec.long_name">PCM signed 24-bit little-endian</property>
  <property name="meta.media.0.codec.bit_rate">2304000</property>
 </producer>
 <playlist id="playlist17">
  <property name="kdenlive:track_name">Audio 3</property>
  <property name="kdenlive:audio_track">1</property>
  <blank length="1"/>
  <entry producer="59_playlist17" in="9376" out="42397"/>
 </playlist>
 <playlist id="playlist1">
  <property name="kdenlive:audio_track">1</property>
  <property name="kdenlive:track_name">Audio 2</property>
 </playlist>
 <playlist id="playlist2">
  <property name="kdenlive:audio_track">1</property>
  <property name="kdenlive:track_name">Audio 1</property>
 </playlist>
 <producer title="Anonymous Submission" id="11_playlist0" in="0" out="21338">
  <property name="length">00:07:06:39</property>
  <property name="eof">pause</property>
  <property name="resource">/media/bordun/plagiat/2018-12-10_Plagiat_RespecteLaPuissancePapale/Carte_3/CAM1_2018-12-10_1738_C0000.mov</property>
  <property name="audio_index">2</property>
  <property name="video_index">1</property>
  <property name="mute_on_pause">1</property>
  <property name="mlt_service">avformat-novalidate</property>
  <property name="seekable">1</property>
  <property name="aspect_ratio">1</property>
  <property name="kdenlive:folderid">12</property>
  <property name="kdenlive:file_size">19701162913</property>
  <property name="kdenlive:file_hash">7247768fd7b55d6de0224125e0ef06f4</property>
  <property name="global_feed">1</property>
  <property name="xml">was here</property>
  <property name="meta.media.nb_streams">3</property>
  <property name="meta.media.1.stream.type">video</property>
  <property name="meta.media.1.stream.frame_rate">50</property>
  <property name="meta.media.1.stream.sample_aspect_ratio">1</property>
  <property name="meta.media.1.codec.width">1920</property>
  <property name="meta.media.1.codec.height">1080</property>
  <property name="meta.media.1.codec.rotate">0</property>
  <property name="meta.media.1.codec.frame_rate">5000</property>
  <property name="meta.media.1.codec.pix_fmt">yuv422p10le</property>
  <property name="meta.media.1.codec.sample_aspect_ratio">0</property>
  <property name="meta.media.1.codec.colorspace">709</property>
  <property name="meta.media.1.codec.name">prores</property>
  <property name="meta.media.1.codec.long_name">ProRes</property>
  <property name="meta.media.1.codec.bit_rate">366957439</property>
  <property name="meta.attr.1.stream.creation_time.markup">2018-12-10T17:38:54.000000Z</property>
  <property name="meta.attr.1.stream.language.markup">eng</property>
  <property name="meta.attr.1.stream.handler_name.markup">Apple Alias Data Handler</property>
  <property name="meta.attr.1.stream.encoder.markup">Apple ProRes 422 HQ</property>
  <property name="meta.attr.1.stream.timecode.markup">17:38:54:28</property>
  <property name="meta.media.2.stream.type">audio</property>
  <property name="meta.media.2.codec.sample_fmt">s32</property>
  <property name="meta.media.2.codec.sample_rate">48000</property>
  <property name="meta.media.2.codec.channels">2</property>
  <property name="meta.media.2.codec.name">pcm_s24le</property>
  <property name="meta.media.2.codec.long_name">PCM signed 24-bit little-endian</property>
  <property name="meta.media.2.codec.bit_rate">2304000</property>
  <property name="meta.attr.2.stream.creation_time.markup">2018-12-10T17:38:54.000000Z</property>
  <property name="meta.attr.2.stream.language.markup">eng</property>
  <property name="meta.attr.2.stream.handler_name.markup">Apple Alias Data Handler</property>
  <property name="meta.attr.2.stream.timecode.markup">17:38:54:28</property>
  <property name="meta.attr.com.apple.proapps.manufacturer.markup">Blackmagic Design</property>
  <property name="meta.attr.com.apple.proapps.cameraName.markup">CAM1</property>
  <property name="meta.attr.com.apple.proapps.isGood.markup">0</property>
  <property name="meta.attr.com.apple.proapps.customgamma.markup">com.blackmagic-design.cinemacamera.filmlog</property>
  <property name="meta.attr.com.blackmagic-design.cinemacamera.uuid.markup">18E5E00548F94923B646613A73C01B56</property>
  <property name="meta.attr.creation_time.markup">2018-12-10T17:38:54.000000Z</property>
  <property name="meta.attr.timecode.markup">17:38:54:28</property>
  <property name="meta.media.sample_aspect_num">1</property>
  <property name="meta.media.sample_aspect_den">1</property>
  <property name="meta.media.frame_rate_num">50</property>
  <property name="meta.media.frame_rate_den">1</property>
  <property name="meta.media.colorspace">709</property>
  <property name="meta.media.color_trc">1</property>
  <property name="meta.media.width">1920</property>
  <property name="meta.media.height">1080</property>
  <property name="meta.media.top_field_first">0</property>
  <property name="meta.media.progressive">1</property>
  <property name="meta.media.1.codec.color_trc">1</property>
  <filter id="filter15">
   <property name="version">0,1</property>
   <property name="mlt_service">frei0r.colgate</property>
   <property name="kdenlive_id">frei0r.colgate</property>
   <property name="tag">frei0r.colgate</property>
   <property name="kdenlive_ix">1</property>
   <property name="kdenlive_info"/>
   <property name="Neutral Color">0x7f7f7fff</property>
   <property name="Color Temperature">0=0,5</property>
  </filter>
  <filter id="filter16">
   <property name="version">0,3</property>
   <property name="mlt_service">frei0r.levels</property>
   <property name="kdenlive_id">frei0r.levels</property>
   <property name="tag">frei0r.levels</property>
   <property name="kdenlive_ix">2</property>
   <property name="kdenlive_info"/>
   <property name="Channel">0,3</property>
   <property name="Input black level">0=0,04</property>
   <property name="Input white level">0=0,95</property>
   <property name="Gamma">0=0,25</property>
   <property name="Black output">0=0</property>
   <property name="White output">0=1</property>
   <property name="Show histogram">0</property>
   <property name="Histogram position">0,3</property>
  </filter>
 </producer>
 <producer id="slowmotion:11:0,2:1:0" in="0" out="106694">
  <property name="length">106695</property>
  <property name="eof">pause</property>
  <property name="resource">0,2:/media/bordun/plagiat/2018-12-10_Plagiat_RespecteLaPuissancePapale/Carte_3/CAM1_2018-12-10_1738_C0000.mov</property>
  <property name="aspect_ratio">1</property>
  <property name="meta.media.nb_streams">3</property>
  <property name="meta.media.1.stream.type">video</property>
  <property name="meta.media.1.stream.frame_rate">50</property>
  <property name="meta.media.1.stream.sample_aspect_ratio">1</property>
  <property name="meta.media.1.codec.width">1920</property>
  <property name="meta.media.1.codec.height">1080</property>
  <property name="meta.media.1.codec.rotate">0</property>
  <property name="meta.media.1.codec.frame_rate">5000</property>
  <property name="meta.media.1.codec.pix_fmt">yuv422p10le</property>
  <property name="meta.media.1.codec.sample_aspect_ratio">0</property>
  <property name="meta.media.1.codec.colorspace">709</property>
  <property name="meta.media.1.codec.color_trc">1</property>
  <property name="meta.media.1.codec.name">prores</property>
  <property name="meta.media.1.codec.long_name">ProRes</property>
  <property name="meta.media.1.codec.bit_rate">366957439</property>
  <property name="meta.attr.1.stream.creation_time.markup">2018-12-10T17:38:54.000000Z</property>
  <property name="meta.attr.1.stream.language.markup">eng</property>
  <property name="meta.attr.1.stream.handler_name.markup">Apple Alias Data Handler</property>
  <property name="meta.attr.1.stream.encoder.markup">Apple ProRes 422 HQ</property>
  <property name="meta.attr.1.stream.timecode.markup">17:38:54:28</property>
  <property name="meta.media.2.stream.type">audio</property>
  <property name="meta.media.2.codec.sample_fmt">s32</property>
  <property name="meta.media.2.codec.sample_rate">48000</property>
  <property name="meta.media.2.codec.channels">2</property>
  <property name="meta.media.2.codec.name">pcm_s24le</property>
  <property name="meta.media.2.codec.long_name">PCM signed 24-bit little-endian</property>
  <property name="meta.media.2.codec.bit_rate">2304000</property>
  <property name="meta.attr.2.stream.creation_time.markup">2018-12-10T17:38:54.000000Z</property>
  <property name="meta.attr.2.stream.language.markup">eng</property>
  <property name="meta.attr.2.stream.handler_name.markup">Apple Alias Data Handler</property>
  <property name="meta.attr.2.stream.timecode.markup">17:38:54:28</property>
  <property name="meta.attr.com.apple.proapps.manufacturer.markup">Blackmagic Design</property>
  <property name="meta.attr.com.apple.proapps.cameraName.markup">CAM1</property>
  <property name="meta.attr.com.apple.proapps.isGood.markup">0</property>
  <property name="meta.attr.com.apple.proapps.customgamma.markup">com.blackmagic-design.cinemacamera.filmlog</property>
  <property name="meta.attr.com.blackmagic-design.cinemacamera.uuid.markup">18E5E00548F94923B646613A73C01B56</property>
  <property name="meta.attr.creation_time.markup">2018-12-10T17:38:54.000000Z</property>
  <property name="meta.attr.timecode.markup">17:38:54:28</property>
  <property name="seekable">1</property>
  <property name="meta.media.sample_aspect_num">1</property>
  <property name="meta.media.sample_aspect_den">1</property>
  <property name="audio_index">2</property>
  <property name="video_index">1</property>
  <property name="mute_on_pause">1</property>
  <property name="warp_speed">0,2</property>
  <property name="warp_resource">/media/bordun/plagiat/2018-12-10_Plagiat_RespecteLaPuissancePapale/Carte_3/CAM1_2018-12-10_1738_C0000.mov</property>
  <property name="mlt_service">timewarp</property>
  <property name="meta.media.frame_rate_num">50</property>
  <property name="meta.media.frame_rate_den">1</property>
  <property name="meta.media.colorspace">709</property>
  <property name="meta.media.color_trc">1</property>
  <property name="meta.media.width">1920</property>
  <property name="meta.media.height">1080</property>
  <property name="meta.media.top_field_first">0</property>
  <property name="meta.media.progressive">1</property>
  <filter id="filter17">
   <property name="version">0,1</property>
   <property name="mlt_service">frei0r.colgate</property>
   <property name="kdenlive_id">frei0r.colgate</property>
   <property name="tag">frei0r.colgate</property>
   <property name="kdenlive_ix">1</property>
   <property name="kdenlive_info"/>
   <property name="Neutral Color">0x7f7f7fff</property>
   <property name="Color Temperature">0=0,5</property>
  </filter>
  <filter id="filter18">
   <property name="version">0,3</property>
   <property name="mlt_service">frei0r.levels</property>
   <property name="kdenlive_id">frei0r.levels</property>
   <property name="tag">frei0r.levels</property>
   <property name="kdenlive_ix">2</property>
   <property name="kdenlive_info"/>
   <property name="Channel">0,3</property>
   <property name="Input black level">0=0,04</property>
   <property name="Input white level">0=0,95</property>
   <property name="Gamma">0=0,25</property>
   <property name="Black output">0=0</property>
   <property name="White output">0=1</property>
   <property name="Show histogram">0</property>
   <property name="Histogram position">0,3</property>
  </filter>
 </producer>
 <producer id="slowmotion:11:2:1:0" in="0" out="10669">
  <property name="length">10670</property>
  <property name="eof">pause</property>
  <property name="resource">2:/media/bordun/plagiat/2018-12-10_Plagiat_RespecteLaPuissancePapale/Carte_3/CAM1_2018-12-10_1738_C0000.mov</property>
  <property name="aspect_ratio">1</property>
  <property name="meta.media.nb_streams">3</property>
  <property name="meta.media.1.stream.type">video</property>
  <property name="meta.media.1.stream.frame_rate">50</property>
  <property name="meta.media.1.stream.sample_aspect_ratio">1</property>
  <property name="meta.media.1.codec.width">1920</property>
  <property name="meta.media.1.codec.height">1080</property>
  <property name="meta.media.1.codec.rotate">0</property>
  <property name="meta.media.1.codec.frame_rate">5000</property>
  <property name="meta.media.1.codec.pix_fmt">yuv422p10le</property>
  <property name="meta.media.1.codec.sample_aspect_ratio">0</property>
  <property name="meta.media.1.codec.colorspace">709</property>
  <property name="meta.media.1.codec.color_trc">1</property>
  <property name="meta.media.1.codec.name">prores</property>
  <property name="meta.media.1.codec.long_name">ProRes</property>
  <property name="meta.media.1.codec.bit_rate">366957439</property>
  <property name="meta.attr.1.stream.creation_time.markup">2018-12-10T17:38:54.000000Z</property>
  <property name="meta.attr.1.stream.language.markup">eng</property>
  <property name="meta.attr.1.stream.handler_name.markup">Apple Alias Data Handler</property>
  <property name="meta.attr.1.stream.encoder.markup">Apple ProRes 422 HQ</property>
  <property name="meta.attr.1.stream.timecode.markup">17:38:54:28</property>
  <property name="meta.media.2.stream.type">audio</property>
  <property name="meta.media.2.codec.sample_fmt">s32</property>
  <property name="meta.media.2.codec.sample_rate">48000</property>
  <property name="meta.media.2.codec.channels">2</property>
  <property name="meta.media.2.codec.name">pcm_s24le</property>
  <property name="meta.media.2.codec.long_name">PCM signed 24-bit little-endian</property>
  <property name="meta.media.2.codec.bit_rate">2304000</property>
  <property name="meta.attr.2.stream.creation_time.markup">2018-12-10T17:38:54.000000Z</property>
  <property name="meta.attr.2.stream.language.markup">eng</property>
  <property name="meta.attr.2.stream.handler_name.markup">Apple Alias Data Handler</property>
  <property name="meta.attr.2.stream.timecode.markup">17:38:54:28</property>
  <property name="meta.attr.com.apple.proapps.manufacturer.markup">Blackmagic Design</property>
  <property name="meta.attr.com.apple.proapps.cameraName.markup">CAM1</property>
  <property name="meta.attr.com.apple.proapps.isGood.markup">0</property>
  <property name="meta.attr.com.apple.proapps.customgamma.markup">com.blackmagic-design.cinemacamera.filmlog</property>
  <property name="meta.attr.com.blackmagic-design.cinemacamera.uuid.markup">18E5E00548F94923B646613A73C01B56</property>
  <property name="meta.attr.creation_time.markup">2018-12-10T17:38:54.000000Z</property>
  <property name="meta.attr.timecode.markup">17:38:54:28</property>
  <property name="seekable">1</property>
  <property name="meta.media.sample_aspect_num">1</property>
  <property name="meta.media.sample_aspect_den">1</property>
  <property name="audio_index">2</property>
  <property name="video_index">1</property>
  <property name="mute_on_pause">1</property>
  <property name="warp_speed">2</property>
  <property name="warp_resource">/media/bordun/plagiat/2018-12-10_Plagiat_RespecteLaPuissancePapale/Carte_3/CAM1_2018-12-10_1738_C0000.mov</property>
  <property name="mlt_service">timewarp</property>
  <property name="meta.media.frame_rate_num">50</property>
  <property name="meta.media.frame_rate_den">1</property>
  <property name="meta.media.colorspace">709</property>
  <property name="meta.media.color_trc">1</property>
  <property name="meta.media.width">1920</property>
  <property name="meta.media.height">1080</property>
  <property name="meta.media.top_field_first">0</property>
  <property name="meta.media.progressive">1</property>
  <filter id="filter19">
   <property name="version">0,1</property>
   <property name="mlt_service">frei0r.colgate</property>
   <property name="kdenlive_id">frei0r.colgate</property>
   <property name="tag">frei0r.colgate</property>
   <property name="kdenlive_ix">1</property>
   <property name="kdenlive_info"/>
   <property name="Neutral Color">0x7f7f7fff</property>
   <property name="Color Temperature">0=0,5</property>
  </filter>
  <filter id="filter20">
   <property name="version">0,3</property>
   <property name="mlt_service">frei0r.levels</property>
   <property name="kdenlive_id">frei0r.levels</property>
   <property name="tag">frei0r.levels</property>
   <property name="kdenlive_ix">2</property>
   <property name="kdenlive_info"/>
   <property name="Channel">0,3</property>
   <property name="Input black level">0=0,04</property>
   <property name="Input white level">0=0,95</property>
   <property name="Gamma">0=0,25</property>
   <property name="Black output">0=0</property>
   <property name="White output">0=1</property>
   <property name="Show histogram">0</property>
   <property name="Histogram position">0,3</property>
  </filter>
 </producer>
 <producer id="slowmotion:11:0,7:1:0" in="0" out="30483">
  <property name="length">30484</property>
  <property name="eof">pause</property>
  <property name="resource">0,7:/media/bordun/plagiat/2018-12-10_Plagiat_RespecteLaPuissancePapale/Carte_3/CAM1_2018-12-10_1738_C0000.mov</property>
  <property name="aspect_ratio">1</property>
  <property name="meta.media.nb_streams">3</property>
  <property name="meta.media.1.stream.type">video</property>
  <property name="meta.media.1.stream.frame_rate">50</property>
  <property name="meta.media.1.stream.sample_aspect_ratio">1</property>
  <property name="meta.media.1.codec.width">1920</property>
  <property name="meta.media.1.codec.height">1080</property>
  <property name="meta.media.1.codec.rotate">0</property>
  <property name="meta.media.1.codec.frame_rate">5000</property>
  <property name="meta.media.1.codec.pix_fmt">yuv422p10le</property>
  <property name="meta.media.1.codec.sample_aspect_ratio">0</property>
  <property name="meta.media.1.codec.colorspace">709</property>
  <property name="meta.media.1.codec.color_trc">1</property>
  <property name="meta.media.1.codec.name">prores</property>
  <property name="meta.media.1.codec.long_name">ProRes</property>
  <property name="meta.media.1.codec.bit_rate">366957439</property>
  <property name="meta.attr.1.stream.creation_time.markup">2018-12-10T17:38:54.000000Z</property>
  <property name="meta.attr.1.stream.language.markup">eng</property>
  <property name="meta.attr.1.stream.handler_name.markup">Apple Alias Data Handler</property>
  <property name="meta.attr.1.stream.encoder.markup">Apple ProRes 422 HQ</property>
  <property name="meta.attr.1.stream.timecode.markup">17:38:54:28</property>
  <property name="meta.media.2.stream.type">audio</property>
  <property name="meta.media.2.codec.sample_fmt">s32</property>
  <property name="meta.media.2.codec.sample_rate">48000</property>
  <property name="meta.media.2.codec.channels">2</property>
  <property name="meta.media.2.codec.name">pcm_s24le</property>
  <property name="meta.media.2.codec.long_name">PCM signed 24-bit little-endian</property>
  <property name="meta.media.2.codec.bit_rate">2304000</property>
  <property name="meta.attr.2.stream.creation_time.markup">2018-12-10T17:38:54.000000Z</property>
  <property name="meta.attr.2.stream.language.markup">eng</property>
  <property name="meta.attr.2.stream.handler_name.markup">Apple Alias Data Handler</property>
  <property name="meta.attr.2.stream.timecode.markup">17:38:54:28</property>
  <property name="meta.attr.com.apple.proapps.manufacturer.markup">Blackmagic Design</property>
  <property name="meta.attr.com.apple.proapps.cameraName.markup">CAM1</property>
  <property name="meta.attr.com.apple.proapps.isGood.markup">0</property>
  <property name="meta.attr.com.apple.proapps.customgamma.markup">com.blackmagic-design.cinemacamera.filmlog</property>
  <property name="meta.attr.com.blackmagic-design.cinemacamera.uuid.markup">18E5E00548F94923B646613A73C01B56</property>
  <property name="meta.attr.creation_time.markup">2018-12-10T17:38:54.000000Z</property>
  <property name="meta.attr.timecode.markup">17:38:54:28</property>
  <property name="seekable">1</property>
  <property name="meta.media.sample_aspect_num">1</property>
  <property name="meta.media.sample_aspect_den">1</property>
  <property name="audio_index">2</property>
  <property name="video_index">1</property>
  <property name="mute_on_pause">1</property>
  <property name="warp_speed">0,7</property>
  <property name="warp_resource">/media/bordun/plagiat/2018-12-10_Plagiat_RespecteLaPuissancePapale/Carte_3/CAM1_2018-12-10_1738_C0000.mov</property>
  <property name="mlt_service">timewarp</property>
  <property name="meta.media.frame_rate_num">50</property>
  <property name="meta.media.frame_rate_den">1</property>
  <property name="meta.media.colorspace">709</property>
  <property name="meta.media.color_trc">1</property>
  <property name="meta.media.width">1920</property>
  <property name="meta.media.height">1080</property>
  <property name="meta.media.top_field_first">0</property>
  <property name="meta.media.progressive">1</property>
  <filter id="filter21">
   <property name="version">0,1</property>
   <property name="mlt_service">frei0r.colgate</property>
   <property name="kdenlive_id">frei0r.colgate</property>
   <property name="tag">frei0r.colgate</property>
   <property name="kdenlive_ix">1</property>
   <property name="kdenlive_info"/>
   <property name="Neutral Color">0x7f7f7fff</property>
   <property name="Color Temperature">0=0,5</property>
  </filter>
  <filter id="filter22">
   <property name="version">0,3</property>
   <property name="mlt_service">frei0r.levels</property>
   <property name="kdenlive_id">frei0r.levels</property>
   <property name="tag">frei0r.levels</property>
   <property name="kdenlive_ix">2</property>
   <property name="kdenlive_info"/>
   <property name="Channel">0,3</property>
   <property name="Input black level">0=0,04</property>
   <property name="Input white level">0=0,95</property>
   <property name="Gamma">0=0,25</property>
   <property name="Black output">0=0</property>
   <property name="White output">0=1</property>
   <property name="Show histogram">0</property>
   <property name="Histogram position">0,3</property>
  </filter>
 </producer>
 <producer id="slowmotion:11:0,46:1:0" in="0" out="46388">
  <property name="length">46389</property>
  <property name="eof">pause</property>
  <property name="resource">0,46:/media/bordun/plagiat/2018-12-10_Plagiat_RespecteLaPuissancePapale/Carte_3/CAM1_2018-12-10_1738_C0000.mov</property>
  <property name="aspect_ratio">1</property>
  <property name="meta.media.nb_streams">3</property>
  <property name="meta.media.1.stream.type">video</property>
  <property name="meta.media.1.stream.frame_rate">50</property>
  <property name="meta.media.1.stream.sample_aspect_ratio">1</property>
  <property name="meta.media.1.codec.width">1920</property>
  <property name="meta.media.1.codec.height">1080</property>
  <property name="meta.media.1.codec.rotate">0</property>
  <property name="meta.media.1.codec.frame_rate">5000</property>
  <property name="meta.media.1.codec.pix_fmt">yuv422p10le</property>
  <property name="meta.media.1.codec.sample_aspect_ratio">0</property>
  <property name="meta.media.1.codec.colorspace">709</property>
  <property name="meta.media.1.codec.color_trc">1</property>
  <property name="meta.media.1.codec.name">prores</property>
  <property name="meta.media.1.codec.long_name">ProRes</property>
  <property name="meta.media.1.codec.bit_rate">366957439</property>
  <property name="meta.attr.1.stream.creation_time.markup">2018-12-10T17:38:54.000000Z</property>
  <property name="meta.attr.1.stream.language.markup">eng</property>
  <property name="meta.attr.1.stream.handler_name.markup">Apple Alias Data Handler</property>
  <property name="meta.attr.1.stream.encoder.markup">Apple ProRes 422 HQ</property>
  <property name="meta.attr.1.stream.timecode.markup">17:38:54:28</property>
  <property name="meta.media.2.stream.type">audio</property>
  <property name="meta.media.2.codec.sample_fmt">s32</property>
  <property name="meta.media.2.codec.sample_rate">48000</property>
  <property name="meta.media.2.codec.channels">2</property>
  <property name="meta.media.2.codec.name">pcm_s24le</property>
  <property name="meta.media.2.codec.long_name">PCM signed 24-bit little-endian</property>
  <property name="meta.media.2.codec.bit_rate">2304000</property>
  <property name="meta.attr.2.stream.creation_time.markup">2018-12-10T17:38:54.000000Z</property>
  <property name="meta.attr.2.stream.language.markup">eng</property>
  <property name="meta.attr.2.stream.handler_name.markup">Apple Alias Data Handler</property>
  <property name="meta.attr.2.stream.timecode.markup">17:38:54:28</property>
  <property name="meta.attr.com.apple.proapps.manufacturer.markup">Blackmagic Design</property>
  <property name="meta.attr.com.apple.proapps.cameraName.markup">CAM1</property>
  <property name="meta.attr.com.apple.proapps.isGood.markup">0</property>
  <property name="meta.attr.com.apple.proapps.customgamma.markup">com.blackmagic-design.cinemacamera.filmlog</property>
  <property name="meta.attr.com.blackmagic-design.cinemacamera.uuid.markup">18E5E00548F94923B646613A73C01B56</property>
  <property name="meta.attr.creation_time.markup">2018-12-10T17:38:54.000000Z</property>
  <property name="meta.attr.timecode.markup">17:38:54:28</property>
  <property name="seekable">1</property>
  <property name="meta.media.sample_aspect_num">1</property>
  <property name="meta.media.sample_aspect_den">1</property>
  <property name="audio_index">2</property>
  <property name="video_index">1</property>
  <property name="mute_on_pause">1</property>
  <property name="warp_speed">0,46</property>
  <property name="warp_resource">/media/bordun/plagiat/2018-12-10_Plagiat_RespecteLaPuissancePapale/Carte_3/CAM1_2018-12-10_1738_C0000.mov</property>
  <property name="mlt_service">timewarp</property>
  <property name="meta.media.frame_rate_num">50</property>
  <property name="meta.media.frame_rate_den">1</property>
  <property name="meta.media.colorspace">709</property>
  <property name="meta.media.color_trc">1</property>
  <property name="meta.media.width">1920</property>
  <property name="meta.media.height">1080</property>
  <property name="meta.media.top_field_first">0</property>
  <property name="meta.media.progressive">1</property>
  <filter id="filter23">
   <property name="version">0,1</property>
   <property name="mlt_service">frei0r.colgate</property>
   <property name="kdenlive_id">frei0r.colgate</property>
   <property name="tag">frei0r.colgate</property>
   <property name="kdenlive_ix">1</property>
   <property name="kdenlive_info"/>
   <property name="Neutral Color">0x7f7f7fff</property>
   <property name="Color Temperature">0=0,5</property>
  </filter>
  <filter id="filter24">
   <property name="version">0,3</property>
   <property name="mlt_service">frei0r.levels</property>
   <property name="kdenlive_id">frei0r.levels</property>
   <property name="tag">frei0r.levels</property>
   <property name="kdenlive_ix">2</property>
   <property name="kdenlive_info"/>
   <property name="Channel">0,3</property>
   <property name="Input black level">0=0,04</property>
   <property name="Input white level">0=0,95</property>
   <property name="Gamma">0=0,25</property>
   <property name="Black output">0=0</property>
   <property name="White output">0=1</property>
   <property name="Show histogram">0</property>
   <property name="Histogram position">0,3</property>
  </filter>
 </producer>
 <producer id="slowmotion:11:0,82:1:0" in="0" out="26022">
  <property name="length">26023</property>
  <property name="eof">pause</property>
  <property name="resource">0,82:/media/bordun/plagiat/2018-12-10_Plagiat_RespecteLaPuissancePapale/Carte_3/CAM1_2018-12-10_1738_C0000.mov</property>
  <property name="aspect_ratio">1</property>
  <property name="meta.media.nb_streams">3</property>
  <property name="meta.media.1.stream.type">video</property>
  <property name="meta.media.1.stream.frame_rate">50</property>
  <property name="meta.media.1.stream.sample_aspect_ratio">1</property>
  <property name="meta.media.1.codec.width">1920</property>
  <property name="meta.media.1.codec.height">1080</property>
  <property name="meta.media.1.codec.rotate">0</property>
  <property name="meta.media.1.codec.frame_rate">5000</property>
  <property name="meta.media.1.codec.pix_fmt">yuv422p10le</property>
  <property name="meta.media.1.codec.sample_aspect_ratio">0</property>
  <property name="meta.media.1.codec.colorspace">709</property>
  <property name="meta.media.1.codec.color_trc">1</property>
  <property name="meta.media.1.codec.name">prores</property>
  <property name="meta.media.1.codec.long_name">ProRes</property>
  <property name="meta.media.1.codec.bit_rate">366957439</property>
  <property name="meta.attr.1.stream.creation_time.markup">2018-12-10T17:38:54.000000Z</property>
  <property name="meta.attr.1.stream.language.markup">eng</property>
  <property name="meta.attr.1.stream.handler_name.markup">Apple Alias Data Handler</property>
  <property name="meta.attr.1.stream.encoder.markup">Apple ProRes 422 HQ</property>
  <property name="meta.attr.1.stream.timecode.markup">17:38:54:28</property>
  <property name="meta.media.2.stream.type">audio</property>
  <property name="meta.media.2.codec.sample_fmt">s32</property>
  <property name="meta.media.2.codec.sample_rate">48000</property>
  <property name="meta.media.2.codec.channels">2</property>
  <property name="meta.media.2.codec.name">pcm_s24le</property>
  <property name="meta.media.2.codec.long_name">PCM signed 24-bit little-endian</property>
  <property name="meta.media.2.codec.bit_rate">2304000</property>
  <property name="meta.attr.2.stream.creation_time.markup">2018-12-10T17:38:54.000000Z</property>
  <property name="meta.attr.2.stream.language.markup">eng</property>
  <property name="meta.attr.2.stream.handler_name.markup">Apple Alias Data Handler</property>
  <property name="meta.attr.2.stream.timecode.markup">17:38:54:28</property>
  <property name="meta.attr.com.apple.proapps.manufacturer.markup">Blackmagic Design</property>
  <property name="meta.attr.com.apple.proapps.cameraName.markup">CAM1</property>
  <property name="meta.attr.com.apple.proapps.isGood.markup">0</property>
  <property name="meta.attr.com.apple.proapps.customgamma.markup">com.blackmagic-design.cinemacamera.filmlog</property>
  <property name="meta.attr.com.blackmagic-design.cinemacamera.uuid.markup">18E5E00548F94923B646613A73C01B56</property>
  <property name="meta.attr.creation_time.markup">2018-12-10T17:38:54.000000Z</property>
  <property name="meta.attr.timecode.markup">17:38:54:28</property>
  <property name="seekable">1</property>
  <property name="meta.media.sample_aspect_num">1</property>
  <property name="meta.media.sample_aspect_den">1</property>
  <property name="audio_index">2</property>
  <property name="video_index">1</property>
  <property name="mute_on_pause">1</property>
  <property name="warp_speed">0,82</property>
  <property name="warp_resource">/media/bordun/plagiat/2018-12-10_Plagiat_RespecteLaPuissancePapale/Carte_3/CAM1_2018-12-10_1738_C0000.mov</property>
  <property name="mlt_service">timewarp</property>
  <property name="meta.media.frame_rate_num">50</property>
  <property name="meta.media.frame_rate_den">1</property>
  <property name="meta.media.colorspace">709</property>
  <property name="meta.media.color_trc">1</property>
  <property name="meta.media.width">1920</property>
  <property name="meta.media.height">1080</property>
  <property name="meta.media.top_field_first">0</property>
  <property name="meta.media.progressive">1</property>
  <filter id="filter25">
   <property name="version">0,1</property>
   <property name="mlt_service">frei0r.colgate</property>
   <property name="kdenlive_id">frei0r.colgate</property>
   <property name="tag">frei0r.colgate</property>
   <property name="kdenlive_ix">1</property>
   <property name="kdenlive_info"/>
   <property name="Neutral Color">0x7f7f7fff</property>
   <property name="Color Temperature">0=0,5</property>
  </filter>
  <filter id="filter26">
   <property name="version">0,3</property>
   <property name="mlt_service">frei0r.levels</property>
   <property name="kdenlive_id">frei0r.levels</property>
   <property name="tag">frei0r.levels</property>
   <property name="kdenlive_ix">2</property>
   <property name="kdenlive_info"/>
   <property name="Channel">0,3</property>
   <property name="Input black level">0=0,04</property>
   <property name="Input white level">0=0,95</property>
   <property name="Gamma">0=0,25</property>
   <property name="Black output">0=0</property>
   <property name="White output">0=1</property>
   <property name="Show histogram">0</property>
   <property name="Histogram position">0,3</property>
  </filter>
 </producer>
 <producer id="slowmotion:11:1,05:1:0" in="0" out="20322">
  <property name="length">20323</property>
  <property name="eof">pause</property>
  <property name="resource">1,05:/media/bordun/plagiat/2018-12-10_Plagiat_RespecteLaPuissancePapale/Carte_3/CAM1_2018-12-10_1738_C0000.mov</property>
  <property name="aspect_ratio">1</property>
  <property name="meta.media.nb_streams">3</property>
  <property name="meta.media.1.stream.type">video</property>
  <property name="meta.media.1.stream.frame_rate">50</property>
  <property name="meta.media.1.stream.sample_aspect_ratio">1</property>
  <property name="meta.media.1.codec.width">1920</property>
  <property name="meta.media.1.codec.height">1080</property>
  <property name="meta.media.1.codec.rotate">0</property>
  <property name="meta.media.1.codec.frame_rate">5000</property>
  <property name="meta.media.1.codec.pix_fmt">yuv422p10le</property>
  <property name="meta.media.1.codec.sample_aspect_ratio">0</property>
  <property name="meta.media.1.codec.colorspace">709</property>
  <property name="meta.media.1.codec.color_trc">1</property>
  <property name="meta.media.1.codec.name">prores</property>
  <property name="meta.media.1.codec.long_name">ProRes</property>
  <property name="meta.media.1.codec.bit_rate">366957439</property>
  <property name="meta.attr.1.stream.creation_time.markup">2018-12-10T17:38:54.000000Z</property>
  <property name="meta.attr.1.stream.language.markup">eng</property>
  <property name="meta.attr.1.stream.handler_name.markup">Apple Alias Data Handler</property>
  <property name="meta.attr.1.stream.encoder.markup">Apple ProRes 422 HQ</property>
  <property name="meta.attr.1.stream.timecode.markup">17:38:54:28</property>
  <property name="meta.media.2.stream.type">audio</property>
  <property name="meta.media.2.codec.sample_fmt">s32</property>
  <property name="meta.media.2.codec.sample_rate">48000</property>
  <property name="meta.media.2.codec.channels">2</property>
  <property name="meta.media.2.codec.name">pcm_s24le</property>
  <property name="meta.media.2.codec.long_name">PCM signed 24-bit little-endian</property>
  <property name="meta.media.2.codec.bit_rate">2304000</property>
  <property name="meta.attr.2.stream.creation_time.markup">2018-12-10T17:38:54.000000Z</property>
  <property name="meta.attr.2.stream.language.markup">eng</property>
  <property name="meta.attr.2.stream.handler_name.markup">Apple Alias Data Handler</property>
  <property name="meta.attr.2.stream.timecode.markup">17:38:54:28</property>
  <property name="meta.attr.com.apple.proapps.manufacturer.markup">Blackmagic Design</property>
  <property name="meta.attr.com.apple.proapps.cameraName.markup">CAM1</property>
  <property name="meta.attr.com.apple.proapps.isGood.markup">0</property>
  <property name="meta.attr.com.apple.proapps.customgamma.markup">com.blackmagic-design.cinemacamera.filmlog</property>
  <property name="meta.attr.com.blackmagic-design.cinemacamera.uuid.markup">18E5E00548F94923B646613A73C01B56</property>
  <property name="meta.attr.creation_time.markup">2018-12-10T17:38:54.000000Z</property>
  <property name="meta.attr.timecode.markup">17:38:54:28</property>
  <property name="seekable">1</property>
  <property name="meta.media.sample_aspect_num">1</property>
  <property name="meta.media.sample_aspect_den">1</property>
  <property name="audio_index">2</property>
  <property name="video_index">1</property>
  <property name="mute_on_pause">1</property>
  <property name="warp_speed">1,05</property>
  <property name="warp_resource">/media/bordun/plagiat/2018-12-10_Plagiat_RespecteLaPuissancePapale/Carte_3/CAM1_2018-12-10_1738_C0000.mov</property>
  <property name="mlt_service">timewarp</property>
  <property name="meta.media.frame_rate_num">50</property>
  <property name="meta.media.frame_rate_den">1</property>
  <property name="meta.media.colorspace">709</property>
  <property name="meta.media.color_trc">1</property>
  <property name="meta.media.width">1920</property>
  <property name="meta.media.height">1080</property>
  <property name="meta.media.top_field_first">0</property>
  <property name="meta.media.progressive">1</property>
  <filter id="filter27">
   <property name="version">0,1</property>
   <property name="mlt_service">frei0r.colgate</property>
   <property name="kdenlive_id">frei0r.colgate</property>
   <property name="tag">frei0r.colgate</property>
   <property name="kdenlive_ix">1</property>
   <property name="kdenlive_info"/>
   <property name="Neutral Color">0x7f7f7fff</property>
   <property name="Color Temperature">0=0,5</property>
  </filter>
  <filter id="filter28">
   <property name="version">0,3</property>
   <property name="mlt_service">frei0r.levels</property>
   <property name="kdenlive_id">frei0r.levels</property>
   <property name="tag">frei0r.levels</property>
   <property name="kdenlive_ix">2</property>
   <property name="kdenlive_info"/>
   <property name="Channel">0,3</property>
   <property name="Input black level">0=0,04</property>
   <property name="Input white level">0=0,95</property>
   <property name="Gamma">0=0,25</property>
   <property name="Black output">0=0</property>
   <property name="White output">0=1</property>
   <property name="Show histogram">0</property>
   <property name="Histogram position">0,3</property>
  </filter>
 </producer>
 <producer id="slowmotion:11:0,75:1:0" in="0" out="28451">
  <property name="length">28452</property>
  <property name="eof">pause</property>
  <property name="resource">0,75:/media/bordun/plagiat/2018-12-10_Plagiat_RespecteLaPuissancePapale/Carte_3/CAM1_2018-12-10_1738_C0000.mov</property>
  <property name="aspect_ratio">1</property>
  <property name="meta.media.nb_streams">3</property>
  <property name="meta.media.1.stream.type">video</property>
  <property name="meta.media.1.stream.frame_rate">50</property>
  <property name="meta.media.1.stream.sample_aspect_ratio">1</property>
  <property name="meta.media.1.codec.width">1920</property>
  <property name="meta.media.1.codec.height">1080</property>
  <property name="meta.media.1.codec.rotate">0</property>
  <property name="meta.media.1.codec.frame_rate">5000</property>
  <property name="meta.media.1.codec.pix_fmt">yuv422p10le</property>
  <property name="meta.media.1.codec.sample_aspect_ratio">0</property>
  <property name="meta.media.1.codec.colorspace">709</property>
  <property name="meta.media.1.codec.color_trc">1</property>
  <property name="meta.media.1.codec.name">prores</property>
  <property name="meta.media.1.codec.long_name">ProRes</property>
  <property name="meta.media.1.codec.bit_rate">366957439</property>
  <property name="meta.attr.1.stream.creation_time.markup">2018-12-10T17:38:54.000000Z</property>
  <property name="meta.attr.1.stream.language.markup">eng</property>
  <property name="meta.attr.1.stream.handler_name.markup">Apple Alias Data Handler</property>
  <property name="meta.attr.1.stream.encoder.markup">Apple ProRes 422 HQ</property>
  <property name="meta.attr.1.stream.timecode.markup">17:38:54:28</property>
  <property name="meta.media.2.stream.type">audio</property>
  <property name="meta.media.2.codec.sample_fmt">s32</property>
  <property name="meta.media.2.codec.sample_rate">48000</property>
  <property name="meta.media.2.codec.channels">2</property>
  <property name="meta.media.2.codec.name">pcm_s24le</property>
  <property name="meta.media.2.codec.long_name">PCM signed 24-bit little-endian</property>
  <property name="meta.media.2.codec.bit_rate">2304000</property>
  <property name="meta.attr.2.stream.creation_time.markup">2018-12-10T17:38:54.000000Z</property>
  <property name="meta.attr.2.stream.language.markup">eng</property>
  <property name="meta.attr.2.stream.handler_name.markup">Apple Alias Data Handler</property>
  <property name="meta.attr.2.stream.timecode.markup">17:38:54:28</property>
  <property name="meta.attr.com.apple.proapps.manufacturer.markup">Blackmagic Design</property>
  <property name="meta.attr.com.apple.proapps.cameraName.markup">CAM1</property>
  <property name="meta.attr.com.apple.proapps.isGood.markup">0</property>
  <property name="meta.attr.com.apple.proapps.customgamma.markup">com.blackmagic-design.cinemacamera.filmlog</property>
  <property name="meta.attr.com.blackmagic-design.cinemacamera.uuid.markup">18E5E00548F94923B646613A73C01B56</property>
  <property name="meta.attr.creation_time.markup">2018-12-10T17:38:54.000000Z</property>
  <property name="meta.attr.timecode.markup">17:38:54:28</property>
  <property name="seekable">1</property>
  <property name="meta.media.sample_aspect_num">1</property>
  <property name="meta.media.sample_aspect_den">1</property>
  <property name="audio_index">2</property>
  <property name="video_index">1</property>
  <property name="mute_on_pause">1</property>
  <property name="warp_speed">0,75</property>
  <property name="warp_resource">/media/bordun/plagiat/2018-12-10_Plagiat_RespecteLaPuissancePapale/Carte_3/CAM1_2018-12-10_1738_C0000.mov</property>
  <property name="mlt_service">timewarp</property>
  <property name="meta.media.frame_rate_num">50</property>
  <property name="meta.media.frame_rate_den">1</property>
  <property name="meta.media.colorspace">709</property>
  <property name="meta.media.color_trc">1</property>
  <property name="meta.media.width">1920</property>
  <property name="meta.media.height">1080</property>
  <property name="meta.media.top_field_first">0</property>
  <property name="meta.media.progressive">1</property>
  <filter id="filter29">
   <property name="version">0,1</property>
   <property name="mlt_service">frei0r.colgate</property>
   <property name="kdenlive_id">frei0r.colgate</property>
   <property name="tag">frei0r.colgate</property>
   <property name="kdenlive_ix">1</property>
   <property name="kdenlive_info"/>
   <property name="Neutral Color">0x7f7f7fff</property>
   <property name="Color Temperature">0=0,5</property>
  </filter>
  <filter id="filter30">
   <property name="version">0,3</property>
   <property name="mlt_service">frei0r.levels</property>
   <property name="kdenlive_id">frei0r.levels</property>
   <property name="tag">frei0r.levels</property>
   <property name="kdenlive_ix">2</property>
   <property name="kdenlive_info"/>
   <property name="Channel">0,3</property>
   <property name="Input black level">0=0,04</property>
   <property name="Input white level">0=0,95</property>
   <property name="Gamma">0=0,25</property>
   <property name="Black output">0=0</property>
   <property name="White output">0=1</property>
   <property name="Show histogram">0</property>
   <property name="Histogram position">0,3</property>
  </filter>
 </producer>
 <producer id="slowmotion:11:0,57:1:0" in="0" out="37436">
  <property name="length">37437</property>
  <property name="eof">pause</property>
  <property name="resource">0,57:/media/bordun/plagiat/2018-12-10_Plagiat_RespecteLaPuissancePapale/Carte_3/CAM1_2018-12-10_1738_C0000.mov</property>
  <property name="aspect_ratio">1</property>
  <property name="meta.media.nb_streams">3</property>
  <property name="meta.media.1.stream.type">video</property>
  <property name="meta.media.1.stream.frame_rate">50</property>
  <property name="meta.media.1.stream.sample_aspect_ratio">1</property>
  <property name="meta.media.1.codec.width">1920</property>
  <property name="meta.media.1.codec.height">1080</property>
  <property name="meta.media.1.codec.rotate">0</property>
  <property name="meta.media.1.codec.frame_rate">5000</property>
  <property name="meta.media.1.codec.pix_fmt">yuv422p10le</property>
  <property name="meta.media.1.codec.sample_aspect_ratio">0</property>
  <property name="meta.media.1.codec.colorspace">709</property>
  <property name="meta.media.1.codec.color_trc">1</property>
  <property name="meta.media.1.codec.name">prores</property>
  <property name="meta.media.1.codec.long_name">ProRes</property>
  <property name="meta.media.1.codec.bit_rate">366957439</property>
  <property name="meta.attr.1.stream.creation_time.markup">2018-12-10T17:38:54.000000Z</property>
  <property name="meta.attr.1.stream.language.markup">eng</property>
  <property name="meta.attr.1.stream.handler_name.markup">Apple Alias Data Handler</property>
  <property name="meta.attr.1.stream.encoder.markup">Apple ProRes 422 HQ</property>
  <property name="meta.attr.1.stream.timecode.markup">17:38:54:28</property>
  <property name="meta.media.2.stream.type">audio</property>
  <property name="meta.media.2.codec.sample_fmt">s32</property>
  <property name="meta.media.2.codec.sample_rate">48000</property>
  <property name="meta.media.2.codec.channels">2</property>
  <property name="meta.media.2.codec.name">pcm_s24le</property>
  <property name="meta.media.2.codec.long_name">PCM signed 24-bit little-endian</property>
  <property name="meta.media.2.codec.bit_rate">2304000</property>
  <property name="meta.attr.2.stream.creation_time.markup">2018-12-10T17:38:54.000000Z</property>
  <property name="meta.attr.2.stream.language.markup">eng</property>
  <property name="meta.attr.2.stream.handler_name.markup">Apple Alias Data Handler</property>
  <property name="meta.attr.2.stream.timecode.markup">17:38:54:28</property>
  <property name="meta.attr.com.apple.proapps.manufacturer.markup">Blackmagic Design</property>
  <property name="meta.attr.com.apple.proapps.cameraName.markup">CAM1</property>
  <property name="meta.attr.com.apple.proapps.isGood.markup">0</property>
  <property name="meta.attr.com.apple.proapps.customgamma.markup">com.blackmagic-design.cinemacamera.filmlog</property>
  <property name="meta.attr.com.blackmagic-design.cinemacamera.uuid.markup">18E5E00548F94923B646613A73C01B56</property>
  <property name="meta.attr.creation_time.markup">2018-12-10T17:38:54.000000Z</property>
  <property name="meta.attr.timecode.markup">17:38:54:28</property>
  <property name="seekable">1</property>
  <property name="meta.media.sample_aspect_num">1</property>
  <property name="meta.media.sample_aspect_den">1</property>
  <property name="audio_index">2</property>
  <property name="video_index">1</property>
  <property name="mute_on_pause">1</property>
  <property name="warp_speed">0,57</property>
  <property name="warp_resource">/media/bordun/plagiat/2018-12-10_Plagiat_RespecteLaPuissancePapale/Carte_3/CAM1_2018-12-10_1738_C0000.mov</property>
  <property name="mlt_service">timewarp</property>
  <property name="meta.media.frame_rate_num">50</property>
  <property name="meta.media.frame_rate_den">1</property>
  <property name="meta.media.colorspace">709</property>
  <property name="meta.media.color_trc">1</property>
  <property name="meta.media.width">1920</property>
  <property name="meta.media.height">1080</property>
  <property name="meta.media.top_field_first">0</property>
  <property name="meta.media.progressive">1</property>
  <filter id="filter31">
   <property name="version">0,1</property>
   <property name="mlt_service">frei0r.colgate</property>
   <property name="kdenlive_id">frei0r.colgate</property>
   <property name="tag">frei0r.colgate</property>
   <property name="kdenlive_ix">1</property>
   <property name="kdenlive_info"/>
   <property name="Neutral Color">0x7f7f7fff</property>
   <property name="Color Temperature">0=0,5</property>
  </filter>
  <filter id="filter32">
   <property name="version">0,3</property>
   <property name="mlt_service">frei0r.levels</property>
   <property name="kdenlive_id">frei0r.levels</property>
   <property name="tag">frei0r.levels</property>
   <property name="kdenlive_ix">2</property>
   <property name="kdenlive_info"/>
   <property name="Channel">0,3</property>
   <property name="Input black level">0=0,04</property>
   <property name="Input white level">0=0,95</property>
   <property name="Gamma">0=0,25</property>
   <property name="Black output">0=0</property>
   <property name="White output">0=1</property>
   <property name="Show histogram">0</property>
   <property name="Histogram position">0,3</property>
  </filter>
 </producer>
 <producer id="slowmotion:11:0,72:1:0" in="0" out="29636">
  <property name="length">29637</property>
  <property name="eof">pause</property>
  <property name="resource">0,72:/media/bordun/plagiat/2018-12-10_Plagiat_RespecteLaPuissancePapale/Carte_3/CAM1_2018-12-10_1738_C0000.mov</property>
  <property name="aspect_ratio">1</property>
  <property name="meta.media.nb_streams">3</property>
  <property name="meta.media.1.stream.type">video</property>
  <property name="meta.media.1.stream.frame_rate">50</property>
  <property name="meta.media.1.stream.sample_aspect_ratio">1</property>
  <property name="meta.media.1.codec.width">1920</property>
  <property name="meta.media.1.codec.height">1080</property>
  <property name="meta.media.1.codec.rotate">0</property>
  <property name="meta.media.1.codec.frame_rate">5000</property>
  <property name="meta.media.1.codec.pix_fmt">yuv422p10le</property>
  <property name="meta.media.1.codec.sample_aspect_ratio">0</property>
  <property name="meta.media.1.codec.colorspace">709</property>
  <property name="meta.media.1.codec.color_trc">1</property>
  <property name="meta.media.1.codec.name">prores</property>
  <property name="meta.media.1.codec.long_name">ProRes</property>
  <property name="meta.media.1.codec.bit_rate">366957439</property>
  <property name="meta.attr.1.stream.creation_time.markup">2018-12-10T17:38:54.000000Z</property>
  <property name="meta.attr.1.stream.language.markup">eng</property>
  <property name="meta.attr.1.stream.handler_name.markup">Apple Alias Data Handler</property>
  <property name="meta.attr.1.stream.encoder.markup">Apple ProRes 422 HQ</property>
  <property name="meta.attr.1.stream.timecode.markup">17:38:54:28</property>
  <property name="meta.media.2.stream.type">audio</property>
  <property name="meta.media.2.codec.sample_fmt">s32</property>
  <property name="meta.media.2.codec.sample_rate">48000</property>
  <property name="meta.media.2.codec.channels">2</property>
  <property name="meta.media.2.codec.name">pcm_s24le</property>
  <property name="meta.media.2.codec.long_name">PCM signed 24-bit little-endian</property>
  <property name="meta.media.2.codec.bit_rate">2304000</property>
  <property name="meta.attr.2.stream.creation_time.markup">2018-12-10T17:38:54.000000Z</property>
  <property name="meta.attr.2.stream.language.markup">eng</property>
  <property name="meta.attr.2.stream.handler_name.markup">Apple Alias Data Handler</property>
  <property name="meta.attr.2.stream.timecode.markup">17:38:54:28</property>
  <property name="meta.attr.com.apple.proapps.manufacturer.markup">Blackmagic Design</property>
  <property name="meta.attr.com.apple.proapps.cameraName.markup">CAM1</property>
  <property name="meta.attr.com.apple.proapps.isGood.markup">0</property>
  <property name="meta.attr.com.apple.proapps.customgamma.markup">com.blackmagic-design.cinemacamera.filmlog</property>
  <property name="meta.attr.com.blackmagic-design.cinemacamera.uuid.markup">18E5E00548F94923B646613A73C01B56</property>
  <property name="meta.attr.creation_time.markup">2018-12-10T17:38:54.000000Z</property>
  <property name="meta.attr.timecode.markup">17:38:54:28</property>
  <property name="seekable">1</property>
  <property name="meta.media.sample_aspect_num">1</property>
  <property name="meta.media.sample_aspect_den">1</property>
  <property name="audio_index">2</property>
  <property name="video_index">1</property>
  <property name="mute_on_pause">1</property>
  <property name="warp_speed">0,72</property>
  <property name="warp_resource">/media/bordun/plagiat/2018-12-10_Plagiat_RespecteLaPuissancePapale/Carte_3/CAM1_2018-12-10_1738_C0000.mov</property>
  <property name="mlt_service">timewarp</property>
  <property name="meta.media.frame_rate_num">50</property>
  <property name="meta.media.frame_rate_den">1</property>
  <property name="meta.media.colorspace">709</property>
  <property name="meta.media.color_trc">1</property>
  <property name="meta.media.width">1920</property>
  <property name="meta.media.height">1080</property>
  <property name="meta.media.top_field_first">0</property>
  <property name="meta.media.progressive">1</property>
  <filter id="filter33">
   <property name="version">0,1</property>
   <property name="mlt_service">frei0r.colgate</property>
   <property name="kdenlive_id">frei0r.colgate</property>
   <property name="tag">frei0r.colgate</property>
   <property name="kdenlive_ix">1</property>
   <property name="kdenlive_info"/>
   <property name="Neutral Color">0x7f7f7fff</property>
   <property name="Color Temperature">0=0,5</property>
  </filter>
  <filter id="filter34">
   <property name="version">0,3</property>
   <property name="mlt_service">frei0r.levels</property>
   <property name="kdenlive_id">frei0r.levels</property>
   <property name="tag">frei0r.levels</property>
   <property name="kdenlive_ix">2</property>
   <property name="kdenlive_info"/>
   <property name="Channel">0,3</property>
   <property name="Input black level">0=0,04</property>
   <property name="Input white level">0=0,95</property>
   <property name="Gamma">0=0,25</property>
   <property name="Black output">0=0</property>
   <property name="White output">0=1</property>
   <property name="Show histogram">0</property>
   <property name="Histogram position">0,3</property>
  </filter>
 </producer>
 <playlist id="playlist0">
  <property name="kdenlive:track_name">Vidéo 0</property>
  <property name="kdenlive:locked_track">1</property>
  <blank length="5124"/>
  <entry producer="11_playlist0" in="11196" out="11753"/>
  <entry producer="11_playlist0" in="11754" out="13003"/>
  <entry producer="11_playlist0" in="13004" out="13231"/>
  <entry producer="11_playlist0" in="13232" out="14209"/>
  <entry producer="11_playlist0" in="14210" out="14319"/>
  <entry producer="slowmotion:11:0,2:1:0" in="71595" out="71630"/>
  <entry producer="11_playlist0" in="14327" out="14349"/>
  <entry producer="slowmotion:11:2:1:0" in="7175" out="7200"/>
  <entry producer="slowmotion:11:0,7:1:0" in="20576" out="20629"/>
  <entry producer="11_playlist0" in="14459" out="15168"/>
  <entry producer="11_playlist0" in="15185" out="15249"/>
  <entry producer="slowmotion:11:0,46:1:0" in="33152" out="33188"/>
  <entry producer="slowmotion:11:0,82:1:0" in="18617" out="18689"/>
  <entry producer="slowmotion:11:1,05:1:0" in="14598" out="14612"/>
  <entry producer="slowmotion:11:1,05:1:0" in="14611" out="14672"/>
  <entry producer="slowmotion:11:0,7:1:0" in="22011" out="22033"/>
  <entry producer="11_playlist0" in="15444" out="15858"/>
  <entry producer="11_playlist0" in="15886" out="16114"/>
  <entry producer="11_playlist0" in="16115" out="16227"/>
  <entry producer="slowmotion:11:0,75:1:0" in="21637" out="21694"/>
  <entry producer="11_playlist0" in="16273" out="16392"/>
  <entry producer="slowmotion:11:0,57:1:0" in="28760" out="28792"/>
  <entry producer="11_playlist0" in="16412" out="16567"/>
  <entry producer="11_playlist0" in="16568" out="18388"/>
  <entry producer="slowmotion:11:0,72:1:0" in="25540" out="25630"/>
  <entry producer="11_playlist0" in="18455" out="19110"/>
  <entry producer="11_playlist0" in="19111" out="19764"/>
  <entry producer="11_playlist0" in="19765" out="20284"/>
 </playlist>
 <producer title="Anonymous Submission" id="11_playlist3" in="0" out="21338">
  <property name="length">00:07:06:39</property>
  <property name="eof">pause</property>
  <property name="resource">/media/bordun/plagiat/2018-12-10_Plagiat_RespecteLaPuissancePapale/Carte_3/CAM1_2018-12-10_1738_C0000.mov</property>
  <property name="audio_index">2</property>
  <property name="video_index">1</property>
  <property name="mute_on_pause">1</property>
  <property name="mlt_service">avformat-novalidate</property>
  <property name="seekable">1</property>
  <property name="aspect_ratio">1</property>
  <property name="kdenlive:folderid">12</property>
  <property name="kdenlive:file_size">19701162913</property>
  <property name="kdenlive:file_hash">7247768fd7b55d6de0224125e0ef06f4</property>
  <property name="global_feed">1</property>
  <property name="xml">was here</property>
  <property name="meta.media.nb_streams">3</property>
  <property name="meta.media.1.stream.type">video</property>
  <property name="meta.media.1.stream.frame_rate">50</property>
  <property name="meta.media.1.stream.sample_aspect_ratio">1</property>
  <property name="meta.media.1.codec.width">1920</property>
  <property name="meta.media.1.codec.height">1080</property>
  <property name="meta.media.1.codec.rotate">0</property>
  <property name="meta.media.1.codec.frame_rate">5000</property>
  <property name="meta.media.1.codec.pix_fmt">yuv422p10le</property>
  <property name="meta.media.1.codec.sample_aspect_ratio">0</property>
  <property name="meta.media.1.codec.colorspace">709</property>
  <property name="meta.media.1.codec.name">prores</property>
  <property name="meta.media.1.codec.long_name">ProRes</property>
  <property name="meta.media.1.codec.bit_rate">366957439</property>
  <property name="meta.attr.1.stream.creation_time.markup">2018-12-10T17:38:54.000000Z</property>
  <property name="meta.attr.1.stream.language.markup">eng</property>
  <property name="meta.attr.1.stream.handler_name.markup">Apple Alias Data Handler</property>
  <property name="meta.attr.1.stream.encoder.markup">Apple ProRes 422 HQ</property>
  <property name="meta.attr.1.stream.timecode.markup">17:38:54:28</property>
  <property name="meta.media.2.stream.type">audio</property>
  <property name="meta.media.2.codec.sample_fmt">s32</property>
  <property name="meta.media.2.codec.sample_rate">48000</property>
  <property name="meta.media.2.codec.channels">2</property>
  <property name="meta.media.2.codec.name">pcm_s24le</property>
  <property name="meta.media.2.codec.long_name">PCM signed 24-bit little-endian</property>
  <property name="meta.media.2.codec.bit_rate">2304000</property>
  <property name="meta.attr.2.stream.creation_time.markup">2018-12-10T17:38:54.000000Z</property>
  <property name="meta.attr.2.stream.language.markup">eng</property>
  <property name="meta.attr.2.stream.handler_name.markup">Apple Alias Data Handler</property>
  <property name="meta.attr.2.stream.timecode.markup">17:38:54:28</property>
  <property name="meta.attr.com.apple.proapps.manufacturer.markup">Blackmagic Design</property>
  <property name="meta.attr.com.apple.proapps.cameraName.markup">CAM1</property>
  <property name="meta.attr.com.apple.proapps.isGood.markup">0</property>
  <property name="meta.attr.com.apple.proapps.customgamma.markup">com.blackmagic-design.cinemacamera.filmlog</property>
  <property name="meta.attr.com.blackmagic-design.cinemacamera.uuid.markup">18E5E00548F94923B646613A73C01B56</property>
  <property name="meta.attr.creation_time.markup">2018-12-10T17:38:54.000000Z</property>
  <property name="meta.attr.timecode.markup">17:38:54:28</property>
  <property name="meta.media.sample_aspect_num">1</property>
  <property name="meta.media.sample_aspect_den">1</property>
  <property name="meta.media.frame_rate_num">50</property>
  <property name="meta.media.frame_rate_den">1</property>
  <property name="meta.media.colorspace">709</property>
  <property name="meta.media.color_trc">1</property>
  <property name="meta.media.width">1920</property>
  <property name="meta.media.height">1080</property>
  <property name="meta.media.top_field_first">0</property>
  <property name="meta.media.progressive">1</property>
  <property name="meta.media.1.codec.color_trc">1</property>
  <filter id="filter35">
   <property name="version">0,1</property>
   <property name="mlt_service">frei0r.colgate</property>
   <property name="kdenlive_id">frei0r.colgate</property>
   <property name="tag">frei0r.colgate</property>
   <property name="kdenlive_ix">1</property>
   <property name="kdenlive_info"/>
   <property name="Neutral Color">0x7f7f7fff</property>
   <property name="Color Temperature">0=0,5</property>
  </filter>
  <filter id="filter36">
   <property name="version">0,3</property>
   <property name="mlt_service">frei0r.levels</property>
   <property name="kdenlive_id">frei0r.levels</property>
   <property name="tag">frei0r.levels</property>
   <property name="kdenlive_ix">2</property>
   <property name="kdenlive_info"/>
   <property name="Channel">0,3</property>
   <property name="Input black level">0=0,04</property>
   <property name="Input white level">0=0,95</property>
   <property name="Gamma">0=0,25</property>
   <property name="Black output">0=0</property>
   <property name="White output">0=1</property>
   <property name="Show histogram">0</property>
   <property name="Histogram position">0,3</property>
  </filter>
 </producer>
 <producer id="slowmotion:11:0,3:1:0" in="0" out="71129">
  <property name="length">71130</property>
  <property name="eof">pause</property>
  <property name="resource">0,3:/media/bordun/plagiat/2018-12-10_Plagiat_RespecteLaPuissancePapale/Carte_3/CAM1_2018-12-10_1738_C0000.mov</property>
  <property name="aspect_ratio">1</property>
  <property name="meta.media.nb_streams">3</property>
  <property name="meta.media.1.stream.type">video</property>
  <property name="meta.media.1.stream.frame_rate">50</property>
  <property name="meta.media.1.stream.sample_aspect_ratio">1</property>
  <property name="meta.media.1.codec.width">1920</property>
  <property name="meta.media.1.codec.height">1080</property>
  <property name="meta.media.1.codec.rotate">0</property>
  <property name="meta.media.1.codec.frame_rate">5000</property>
  <property name="meta.media.1.codec.pix_fmt">yuv422p10le</property>
  <property name="meta.media.1.codec.sample_aspect_ratio">0</property>
  <property name="meta.media.1.codec.colorspace">709</property>
  <property name="meta.media.1.codec.color_trc">1</property>
  <property name="meta.media.1.codec.name">prores</property>
  <property name="meta.media.1.codec.long_name">ProRes</property>
  <property name="meta.media.1.codec.bit_rate">366957439</property>
  <property name="meta.attr.1.stream.creation_time.markup">2018-12-10T17:38:54.000000Z</property>
  <property name="meta.attr.1.stream.language.markup">eng</property>
  <property name="meta.attr.1.stream.handler_name.markup">Apple Alias Data Handler</property>
  <property name="meta.attr.1.stream.encoder.markup">Apple ProRes 422 HQ</property>
  <property name="meta.attr.1.stream.timecode.markup">17:38:54:28</property>
  <property name="meta.media.2.stream.type">audio</property>
  <property name="meta.media.2.codec.sample_fmt">s32</property>
  <property name="meta.media.2.codec.sample_rate">48000</property>
  <property name="meta.media.2.codec.channels">2</property>
  <property name="meta.media.2.codec.name">pcm_s24le</property>
  <property name="meta.media.2.codec.long_name">PCM signed 24-bit little-endian</property>
  <property name="meta.media.2.codec.bit_rate">2304000</property>
  <property name="meta.attr.2.stream.creation_time.markup">2018-12-10T17:38:54.000000Z</property>
  <property name="meta.attr.2.stream.language.markup">eng</property>
  <property name="meta.attr.2.stream.handler_name.markup">Apple Alias Data Handler</property>
  <property name="meta.attr.2.stream.timecode.markup">17:38:54:28</property>
  <property name="meta.attr.com.apple.proapps.manufacturer.markup">Blackmagic Design</property>
  <property name="meta.attr.com.apple.proapps.cameraName.markup">CAM1</property>
  <property name="meta.attr.com.apple.proapps.isGood.markup">0</property>
  <property name="meta.attr.com.apple.proapps.customgamma.markup">com.blackmagic-design.cinemacamera.filmlog</property>
  <property name="meta.attr.com.blackmagic-design.cinemacamera.uuid.markup">18E5E00548F94923B646613A73C01B56</property>
  <property name="meta.attr.creation_time.markup">2018-12-10T17:38:54.000000Z</property>
  <property name="meta.attr.timecode.markup">17:38:54:28</property>
  <property name="seekable">1</property>
  <property name="meta.media.sample_aspect_num">1</property>
  <property name="meta.media.sample_aspect_den">1</property>
  <property name="audio_index">2</property>
  <property name="video_index">1</property>
  <property name="mute_on_pause">1</property>
  <property name="warp_speed">0,3</property>
  <property name="warp_resource">/media/bordun/plagiat/2018-12-10_Plagiat_RespecteLaPuissancePapale/Carte_3/CAM1_2018-12-10_1738_C0000.mov</property>
  <property name="mlt_service">timewarp</property>
  <property name="meta.media.frame_rate_num">50</property>
  <property name="meta.media.frame_rate_den">1</property>
  <property name="meta.media.colorspace">709</property>
  <property name="meta.media.color_trc">1</property>
  <property name="meta.media.width">1920</property>
  <property name="meta.media.height">1080</property>
  <property name="meta.media.top_field_first">0</property>
  <property name="meta.media.progressive">1</property>
  <filter id="filter37">
   <property name="version">0,1</property>
   <property name="mlt_service">frei0r.colgate</property>
   <property name="kdenlive_id">frei0r.colgate</property>
   <property name="tag">frei0r.colgate</property>
   <property name="kdenlive_ix">1</property>
   <property name="kdenlive_info"/>
   <property name="Neutral Color">0x7f7f7fff</property>
   <property name="Color Temperature">0=0,5</property>
  </filter>
  <filter id="filter38">
   <property name="version">0,3</property>
   <property name="mlt_service">frei0r.levels</property>
   <property name="kdenlive_id">frei0r.levels</property>
   <property name="tag">frei0r.levels</property>
   <property name="kdenlive_ix">2</property>
   <property name="kdenlive_info"/>
   <property name="Channel">0,3</property>
   <property name="Input black level">0=0,04</property>
   <property name="Input white level">0=0,95</property>
   <property name="Gamma">0=0,25</property>
   <property name="Black output">0=0</property>
   <property name="White output">0=1</property>
   <property name="Show histogram">0</property>
   <property name="Histogram position">0,3</property>
  </filter>
 </producer>
 <producer id="slowmotion:11:1,6:1:0" in="0" out="13336">
  <property name="length">13337</property>
  <property name="eof">pause</property>
  <property name="resource">1,6:/media/bordun/plagiat/2018-12-10_Plagiat_RespecteLaPuissancePapale/Carte_3/CAM1_2018-12-10_1738_C0000.mov</property>
  <property name="aspect_ratio">1</property>
  <property name="meta.media.nb_streams">3</property>
  <property name="meta.media.1.stream.type">video</property>
  <property name="meta.media.1.stream.frame_rate">50</property>
  <property name="meta.media.1.stream.sample_aspect_ratio">1</property>
  <property name="meta.media.1.codec.width">1920</property>
  <property name="meta.media.1.codec.height">1080</property>
  <property name="meta.media.1.codec.rotate">0</property>
  <property name="meta.media.1.codec.frame_rate">5000</property>
  <property name="meta.media.1.codec.pix_fmt">yuv422p10le</property>
  <property name="meta.media.1.codec.sample_aspect_ratio">0</property>
  <property name="meta.media.1.codec.colorspace">709</property>
  <property name="meta.media.1.codec.color_trc">1</property>
  <property name="meta.media.1.codec.name">prores</property>
  <property name="meta.media.1.codec.long_name">ProRes</property>
  <property name="meta.media.1.codec.bit_rate">366957439</property>
  <property name="meta.attr.1.stream.creation_time.markup">2018-12-10T17:38:54.000000Z</property>
  <property name="meta.attr.1.stream.language.markup">eng</property>
  <property name="meta.attr.1.stream.handler_name.markup">Apple Alias Data Handler</property>
  <property name="meta.attr.1.stream.encoder.markup">Apple ProRes 422 HQ</property>
  <property name="meta.attr.1.stream.timecode.markup">17:38:54:28</property>
  <property name="meta.media.2.stream.type">audio</property>
  <property name="meta.media.2.codec.sample_fmt">s32</property>
  <property name="meta.media.2.codec.sample_rate">48000</property>
  <property name="meta.media.2.codec.channels">2</property>
  <property name="meta.media.2.codec.name">pcm_s24le</property>
  <property name="meta.media.2.codec.long_name">PCM signed 24-bit little-endian</property>
  <property name="meta.media.2.codec.bit_rate">2304000</property>
  <property name="meta.attr.2.stream.creation_time.markup">2018-12-10T17:38:54.000000Z</property>
  <property name="meta.attr.2.stream.language.markup">eng</property>
  <property name="meta.attr.2.stream.handler_name.markup">Apple Alias Data Handler</property>
  <property name="meta.attr.2.stream.timecode.markup">17:38:54:28</property>
  <property name="meta.attr.com.apple.proapps.manufacturer.markup">Blackmagic Design</property>
  <property name="meta.attr.com.apple.proapps.cameraName.markup">CAM1</property>
  <property name="meta.attr.com.apple.proapps.isGood.markup">0</property>
  <property name="meta.attr.com.apple.proapps.customgamma.markup">com.blackmagic-design.cinemacamera.filmlog</property>
  <property name="meta.attr.com.blackmagic-design.cinemacamera.uuid.markup">18E5E00548F94923B646613A73C01B56</property>
  <property name="meta.attr.creation_time.markup">2018-12-10T17:38:54.000000Z</property>
  <property name="meta.attr.timecode.markup">17:38:54:28</property>
  <property name="seekable">1</property>
  <property name="meta.media.sample_aspect_num">1</property>
  <property name="meta.media.sample_aspect_den">1</property>
  <property name="audio_index">2</property>
  <property name="video_index">1</property>
  <property name="mute_on_pause">1</property>
  <property name="warp_speed">1,6</property>
  <property name="warp_resource">/media/bordun/plagiat/2018-12-10_Plagiat_RespecteLaPuissancePapale/Carte_3/CAM1_2018-12-10_1738_C0000.mov</property>
  <property name="mlt_service">timewarp</property>
  <property name="meta.media.frame_rate_num">50</property>
  <property name="meta.media.frame_rate_den">1</property>
  <property name="meta.media.colorspace">709</property>
  <property name="meta.media.color_trc">1</property>
  <property name="meta.media.width">1920</property>
  <property name="meta.media.height">1080</property>
  <property name="meta.media.top_field_first">0</property>
  <property name="meta.media.progressive">1</property>
  <filter id="filter39">
   <property name="version">0,1</property>
   <property name="mlt_service">frei0r.colgate</property>
   <property name="kdenlive_id">frei0r.colgate</property>
   <property name="tag">frei0r.colgate</property>
   <property name="kdenlive_ix">1</property>
   <property name="kdenlive_info"/>
   <property name="Neutral Color">0x7f7f7fff</property>
   <property name="Color Temperature">0=0,5</property>
  </filter>
  <filter id="filter40">
   <property name="version">0,3</property>
   <property name="mlt_service">frei0r.levels</property>
   <property name="kdenlive_id">frei0r.levels</property>
   <property name="tag">frei0r.levels</property>
   <property name="kdenlive_ix">2</property>
   <property name="kdenlive_info"/>
   <property name="Channel">0,3</property>
   <property name="Input black level">0=0,04</property>
   <property name="Input white level">0=0,95</property>
   <property name="Gamma">0=0,25</property>
   <property name="Black output">0=0</property>
   <property name="White output">0=1</property>
   <property name="Show histogram">0</property>
   <property name="Histogram position">0,3</property>
  </filter>
 </producer>
 <producer id="slowmotion:11:1,62:1:0" in="0" out="13171">
  <property name="length">13172</property>
  <property name="eof">pause</property>
  <property name="resource">1,62:/media/bordun/plagiat/2018-12-10_Plagiat_RespecteLaPuissancePapale/Carte_3/CAM1_2018-12-10_1738_C0000.mov</property>
  <property name="aspect_ratio">1</property>
  <property name="meta.media.nb_streams">3</property>
  <property name="meta.media.1.stream.type">video</property>
  <property name="meta.media.1.stream.frame_rate">50</property>
  <property name="meta.media.1.stream.sample_aspect_ratio">1</property>
  <property name="meta.media.1.codec.width">1920</property>
  <property name="meta.media.1.codec.height">1080</property>
  <property name="meta.media.1.codec.rotate">0</property>
  <property name="meta.media.1.codec.frame_rate">5000</property>
  <property name="meta.media.1.codec.pix_fmt">yuv422p10le</property>
  <property name="meta.media.1.codec.sample_aspect_ratio">0</property>
  <property name="meta.media.1.codec.colorspace">709</property>
  <property name="meta.media.1.codec.color_trc">1</property>
  <property name="meta.media.1.codec.name">prores</property>
  <property name="meta.media.1.codec.long_name">ProRes</property>
  <property name="meta.media.1.codec.bit_rate">366957439</property>
  <property name="meta.attr.1.stream.creation_time.markup">2018-12-10T17:38:54.000000Z</property>
  <property name="meta.attr.1.stream.language.markup">eng</property>
  <property name="meta.attr.1.stream.handler_name.markup">Apple Alias Data Handler</property>
  <property name="meta.attr.1.stream.encoder.markup">Apple ProRes 422 HQ</property>
  <property name="meta.attr.1.stream.timecode.markup">17:38:54:28</property>
  <property name="meta.media.2.stream.type">audio</property>
  <property name="meta.media.2.codec.sample_fmt">s32</property>
  <property name="meta.media.2.codec.sample_rate">48000</property>
  <property name="meta.media.2.codec.channels">2</property>
  <property name="meta.media.2.codec.name">pcm_s24le</property>
  <property name="meta.media.2.codec.long_name">PCM signed 24-bit little-endian</property>
  <property name="meta.media.2.codec.bit_rate">2304000</property>
  <property name="meta.attr.2.stream.creation_time.markup">2018-12-10T17:38:54.000000Z</property>
  <property name="meta.attr.2.stream.language.markup">eng</property>
  <property name="meta.attr.2.stream.handler_name.markup">Apple Alias Data Handler</property>
  <property name="meta.attr.2.stream.timecode.markup">17:38:54:28</property>
  <property name="meta.attr.com.apple.proapps.manufacturer.markup">Blackmagic Design</property>
  <property name="meta.attr.com.apple.proapps.cameraName.markup">CAM1</property>
  <property name="meta.attr.com.apple.proapps.isGood.markup">0</property>
  <property name="meta.attr.com.apple.proapps.customgamma.markup">com.blackmagic-design.cinemacamera.filmlog</property>
  <property name="meta.attr.com.blackmagic-design.cinemacamera.uuid.markup">18E5E00548F94923B646613A73C01B56</property>
  <property name="meta.attr.creation_time.markup">2018-12-10T17:38:54.000000Z</property>
  <property name="meta.attr.timecode.markup">17:38:54:28</property>
  <property name="seekable">1</property>
  <property name="meta.media.sample_aspect_num">1</property>
  <property name="meta.media.sample_aspect_den">1</property>
  <property name="audio_index">2</property>
  <property name="video_index">1</property>
  <property name="mute_on_pause">1</property>
  <property name="warp_speed">1,62</property>
  <property name="warp_resource">/media/bordun/plagiat/2018-12-10_Plagiat_RespecteLaPuissancePapale/Carte_3/CAM1_2018-12-10_1738_C0000.mov</property>
  <property name="mlt_service">timewarp</property>
  <property name="meta.media.frame_rate_num">50</property>
  <property name="meta.media.frame_rate_den">1</property>
  <property name="meta.media.colorspace">709</property>
  <property name="meta.media.color_trc">1</property>
  <property name="meta.media.width">1920</property>
  <property name="meta.media.height">1080</property>
  <property name="meta.media.top_field_first">0</property>
  <property name="meta.media.progressive">1</property>
  <filter id="filter41">
   <property name="version">0,1</property>
   <property name="mlt_service">frei0r.colgate</property>
   <property name="kdenlive_id">frei0r.colgate</property>
   <property name="tag">frei0r.colgate</property>
   <property name="kdenlive_ix">1</property>
   <property name="kdenlive_info"/>
   <property name="Neutral Color">0x7f7f7fff</property>
   <property name="Color Temperature">0=0,5</property>
  </filter>
  <filter id="filter42">
   <property name="version">0,3</property>
   <property name="mlt_service">frei0r.levels</property>
   <property name="kdenlive_id">frei0r.levels</property>
   <property name="tag">frei0r.levels</property>
   <property name="kdenlive_ix">2</property>
   <property name="kdenlive_info"/>
   <property name="Channel">0,3</property>
   <property name="Input black level">0=0,04</property>
   <property name="Input white level">0=0,95</property>
   <property name="Gamma">0=0,25</property>
   <property name="Black output">0=0</property>
   <property name="White output">0=1</property>
   <property name="Show histogram">0</property>
   <property name="Histogram position">0,3</property>
  </filter>
 </producer>
 <producer id="slowmotion:11:0,47:1:0" in="0" out="45401">
  <property name="length">45402</property>
  <property name="eof">pause</property>
  <property name="resource">0,47:/media/bordun/plagiat/2018-12-10_Plagiat_RespecteLaPuissancePapale/Carte_3/CAM1_2018-12-10_1738_C0000.mov</property>
  <property name="aspect_ratio">1</property>
  <property name="meta.media.nb_streams">3</property>
  <property name="meta.media.1.stream.type">video</property>
  <property name="meta.media.1.stream.frame_rate">50</property>
  <property name="meta.media.1.stream.sample_aspect_ratio">1</property>
  <property name="meta.media.1.codec.width">1920</property>
  <property name="meta.media.1.codec.height">1080</property>
  <property name="meta.media.1.codec.rotate">0</property>
  <property name="meta.media.1.codec.frame_rate">5000</property>
  <property name="meta.media.1.codec.pix_fmt">yuv422p10le</property>
  <property name="meta.media.1.codec.sample_aspect_ratio">0</property>
  <property name="meta.media.1.codec.colorspace">709</property>
  <property name="meta.media.1.codec.color_trc">1</property>
  <property name="meta.media.1.codec.name">prores</property>
  <property name="meta.media.1.codec.long_name">ProRes</property>
  <property name="meta.media.1.codec.bit_rate">366957439</property>
  <property name="meta.attr.1.stream.creation_time.markup">2018-12-10T17:38:54.000000Z</property>
  <property name="meta.attr.1.stream.language.markup">eng</property>
  <property name="meta.attr.1.stream.handler_name.markup">Apple Alias Data Handler</property>
  <property name="meta.attr.1.stream.encoder.markup">Apple ProRes 422 HQ</property>
  <property name="meta.attr.1.stream.timecode.markup">17:38:54:28</property>
  <property name="meta.media.2.stream.type">audio</property>
  <property name="meta.media.2.codec.sample_fmt">s32</property>
  <property name="meta.media.2.codec.sample_rate">48000</property>
  <property name="meta.media.2.codec.channels">2</property>
  <property name="meta.media.2.codec.name">pcm_s24le</property>
  <property name="meta.media.2.codec.long_name">PCM signed 24-bit little-endian</property>
  <property name="meta.media.2.codec.bit_rate">2304000</property>
  <property name="meta.attr.2.stream.creation_time.markup">2018-12-10T17:38:54.000000Z</property>
  <property name="meta.attr.2.stream.language.markup">eng</property>
  <property name="meta.attr.2.stream.handler_name.markup">Apple Alias Data Handler</property>
  <property name="meta.attr.2.stream.timecode.markup">17:38:54:28</property>
  <property name="meta.attr.com.apple.proapps.manufacturer.markup">Blackmagic Design</property>
  <property name="meta.attr.com.apple.proapps.cameraName.markup">CAM1</property>
  <property name="meta.attr.com.apple.proapps.isGood.markup">0</property>
  <property name="meta.attr.com.apple.proapps.customgamma.markup">com.blackmagic-design.cinemacamera.filmlog</property>
  <property name="meta.attr.com.blackmagic-design.cinemacamera.uuid.markup">18E5E00548F94923B646613A73C01B56</property>
  <property name="meta.attr.creation_time.markup">2018-12-10T17:38:54.000000Z</property>
  <property name="meta.attr.timecode.markup">17:38:54:28</property>
  <property name="seekable">1</property>
  <property name="meta.media.sample_aspect_num">1</property>
  <property name="meta.media.sample_aspect_den">1</property>
  <property name="audio_index">2</property>
  <property name="video_index">1</property>
  <property name="mute_on_pause">1</property>
  <property name="warp_speed">0,47</property>
  <property name="warp_resource">/media/bordun/plagiat/2018-12-10_Plagiat_RespecteLaPuissancePapale/Carte_3/CAM1_2018-12-10_1738_C0000.mov</property>
  <property name="mlt_service">timewarp</property>
  <property name="meta.media.frame_rate_num">50</property>
  <property name="meta.media.frame_rate_den">1</property>
  <property name="meta.media.colorspace">709</property>
  <property name="meta.media.color_trc">1</property>
  <property name="meta.media.width">1920</property>
  <property name="meta.media.height">1080</property>
  <property name="meta.media.top_field_first">0</property>
  <property name="meta.media.progressive">1</property>
  <filter id="filter43">
   <property name="version">0,1</property>
   <property name="mlt_service">frei0r.colgate</property>
   <property name="kdenlive_id">frei0r.colgate</property>
   <property name="tag">frei0r.colgate</property>
   <property name="kdenlive_ix">1</property>
   <property name="kdenlive_info"/>
   <property name="Neutral Color">0x7f7f7fff</property>
   <property name="Color Temperature">0=0,5</property>
  </filter>
  <filter id="filter44">
   <property name="version">0,3</property>
   <property name="mlt_service">frei0r.levels</property>
   <property name="kdenlive_id">frei0r.levels</property>
   <property name="tag">frei0r.levels</property>
   <property name="kdenlive_ix">2</property>
   <property name="kdenlive_info"/>
   <property name="Channel">0,3</property>
   <property name="Input black level">0=0,04</property>
   <property name="Input white level">0=0,95</property>
   <property name="Gamma">0=0,25</property>
   <property name="Black output">0=0</property>
   <property name="White output">0=1</property>
   <property name="Show histogram">0</property>
   <property name="Histogram position">0,3</property>
  </filter>
 </producer>
 <producer id="slowmotion:11:0,5:1:0" in="0" out="42677">
  <property name="length">42678</property>
  <property name="eof">pause</property>
  <property name="resource">0,5:/media/bordun/plagiat/2018-12-10_Plagiat_RespecteLaPuissancePapale/Carte_3/CAM1_2018-12-10_1738_C0000.mov</property>
  <property name="aspect_ratio">1</property>
  <property name="meta.media.nb_streams">3</property>
  <property name="meta.media.1.stream.type">video</property>
  <property name="meta.media.1.stream.frame_rate">50</property>
  <property name="meta.media.1.stream.sample_aspect_ratio">1</property>
  <property name="meta.media.1.codec.width">1920</property>
  <property name="meta.media.1.codec.height">1080</property>
  <property name="meta.media.1.codec.rotate">0</property>
  <property name="meta.media.1.codec.frame_rate">5000</property>
  <property name="meta.media.1.codec.pix_fmt">yuv422p10le</property>
  <property name="meta.media.1.codec.sample_aspect_ratio">0</property>
  <property name="meta.media.1.codec.colorspace">709</property>
  <property name="meta.media.1.codec.color_trc">1</property>
  <property name="meta.media.1.codec.name">prores</property>
  <property name="meta.media.1.codec.long_name">ProRes</property>
  <property name="meta.media.1.codec.bit_rate">366957439</property>
  <property name="meta.attr.1.stream.creation_time.markup">2018-12-10T17:38:54.000000Z</property>
  <property name="meta.attr.1.stream.language.markup">eng</property>
  <property name="meta.attr.1.stream.handler_name.markup">Apple Alias Data Handler</property>
  <property name="meta.attr.1.stream.encoder.markup">Apple ProRes 422 HQ</property>
  <property name="meta.attr.1.stream.timecode.markup">17:38:54:28</property>
  <property name="meta.media.2.stream.type">audio</property>
  <property name="meta.media.2.codec.sample_fmt">s32</property>
  <property name="meta.media.2.codec.sample_rate">48000</property>
  <property name="meta.media.2.codec.channels">2</property>
  <property name="meta.media.2.codec.name">pcm_s24le</property>
  <property name="meta.media.2.codec.long_name">PCM signed 24-bit little-endian</property>
  <property name="meta.media.2.codec.bit_rate">2304000</property>
  <property name="meta.attr.2.stream.creation_time.markup">2018-12-10T17:38:54.000000Z</property>
  <property name="meta.attr.2.stream.language.markup">eng</property>
  <property name="meta.attr.2.stream.handler_name.markup">Apple Alias Data Handler</property>
  <property name="meta.attr.2.stream.timecode.markup">17:38:54:28</property>
  <property name="meta.attr.com.apple.proapps.manufacturer.markup">Blackmagic Design</property>
  <property name="meta.attr.com.apple.proapps.cameraName.markup">CAM1</property>
  <property name="meta.attr.com.apple.proapps.isGood.markup">0</property>
  <property name="meta.attr.com.apple.proapps.customgamma.markup">com.blackmagic-design.cinemacamera.filmlog</property>
  <property name="meta.attr.com.blackmagic-design.cinemacamera.uuid.markup">18E5E00548F94923B646613A73C01B56</property>
  <property name="meta.attr.creation_time.markup">2018-12-10T17:38:54.000000Z</property>
  <property name="meta.attr.timecode.markup">17:38:54:28</property>
  <property name="seekable">1</property>
  <property name="meta.media.sample_aspect_num">1</property>
  <property name="meta.media.sample_aspect_den">1</property>
  <property name="audio_index">2</property>
  <property name="video_index">1</property>
  <property name="mute_on_pause">1</property>
  <property name="warp_speed">0,5</property>
  <property name="warp_resource">/media/bordun/plagiat/2018-12-10_Plagiat_RespecteLaPuissancePapale/Carte_3/CAM1_2018-12-10_1738_C0000.mov</property>
  <property name="mlt_service">timewarp</property>
  <property name="meta.media.frame_rate_num">50</property>
  <property name="meta.media.frame_rate_den">1</property>
  <property name="meta.media.colorspace">709</property>
  <property name="meta.media.color_trc">1</property>
  <property name="meta.media.width">1920</property>
  <property name="meta.media.height">1080</property>
  <property name="meta.media.top_field_first">0</property>
  <property name="meta.media.progressive">1</property>
  <filter id="filter45">
   <property name="version">0,1</property>
   <property name="mlt_service">frei0r.colgate</property>
   <property name="kdenlive_id">frei0r.colgate</property>
   <property name="tag">frei0r.colgate</property>
   <property name="kdenlive_ix">1</property>
   <property name="kdenlive_info"/>
   <property name="Neutral Color">0x7f7f7fff</property>
   <property name="Color Temperature">0=0,5</property>
  </filter>
  <filter id="filter46">
   <property name="version">0,3</property>
   <property name="mlt_service">frei0r.levels</property>
   <property name="kdenlive_id">frei0r.levels</property>
   <property name="tag">frei0r.levels</property>
   <property name="kdenlive_ix">2</property>
   <property name="kdenlive_info"/>
   <property name="Channel">0,3</property>
   <property name="Input black level">0=0,04</property>
   <property name="Input white level">0=0,95</property>
   <property name="Gamma">0=0,25</property>
   <property name="Black output">0=0</property>
   <property name="White output">0=1</property>
   <property name="Show histogram">0</property>
   <property name="Histogram position">0,3</property>
  </filter>
 </producer>
 <producer id="slowmotion:11:0,42:1:0" in="0" out="50806">
  <property name="length">50807</property>
  <property name="eof">pause</property>
  <property name="resource">0,42:/media/bordun/plagiat/2018-12-10_Plagiat_RespecteLaPuissancePapale/Carte_3/CAM1_2018-12-10_1738_C0000.mov</property>
  <property name="aspect_ratio">1</property>
  <property name="meta.media.nb_streams">3</property>
  <property name="meta.media.1.stream.type">video</property>
  <property name="meta.media.1.stream.frame_rate">50</property>
  <property name="meta.media.1.stream.sample_aspect_ratio">1</property>
  <property name="meta.media.1.codec.width">1920</property>
  <property name="meta.media.1.codec.height">1080</property>
  <property name="meta.media.1.codec.rotate">0</property>
  <property name="meta.media.1.codec.frame_rate">5000</property>
  <property name="meta.media.1.codec.pix_fmt">yuv422p10le</property>
  <property name="meta.media.1.codec.sample_aspect_ratio">0</property>
  <property name="meta.media.1.codec.colorspace">709</property>
  <property name="meta.media.1.codec.color_trc">1</property>
  <property name="meta.media.1.codec.name">prores</property>
  <property name="meta.media.1.codec.long_name">ProRes</property>
  <property name="meta.media.1.codec.bit_rate">366957439</property>
  <property name="meta.attr.1.stream.creation_time.markup">2018-12-10T17:38:54.000000Z</property>
  <property name="meta.attr.1.stream.language.markup">eng</property>
  <property name="meta.attr.1.stream.handler_name.markup">Apple Alias Data Handler</property>
  <property name="meta.attr.1.stream.encoder.markup">Apple ProRes 422 HQ</property>
  <property name="meta.attr.1.stream.timecode.markup">17:38:54:28</property>
  <property name="meta.media.2.stream.type">audio</property>
  <property name="meta.media.2.codec.sample_fmt">s32</property>
  <property name="meta.media.2.codec.sample_rate">48000</property>
  <property name="meta.media.2.codec.channels">2</property>
  <property name="meta.media.2.codec.name">pcm_s24le</property>
  <property name="meta.media.2.codec.long_name">PCM signed 24-bit little-endian</property>
  <property name="meta.media.2.codec.bit_rate">2304000</property>
  <property name="meta.attr.2.stream.creation_time.markup">2018-12-10T17:38:54.000000Z</property>
  <property name="meta.attr.2.stream.language.markup">eng</property>
  <property name="meta.attr.2.stream.handler_name.markup">Apple Alias Data Handler</property>
  <property name="meta.attr.2.stream.timecode.markup">17:38:54:28</property>
  <property name="meta.attr.com.apple.proapps.manufacturer.markup">Blackmagic Design</property>
  <property name="meta.attr.com.apple.proapps.cameraName.markup">CAM1</property>
  <property name="meta.attr.com.apple.proapps.isGood.markup">0</property>
  <property name="meta.attr.com.apple.proapps.customgamma.markup">com.blackmagic-design.cinemacamera.filmlog</property>
  <property name="meta.attr.com.blackmagic-design.cinemacamera.uuid.markup">18E5E00548F94923B646613A73C01B56</property>
  <property name="meta.attr.creation_time.markup">2018-12-10T17:38:54.000000Z</property>
  <property name="meta.attr.timecode.markup">17:38:54:28</property>
  <property name="seekable">1</property>
  <property name="meta.media.sample_aspect_num">1</property>
  <property name="meta.media.sample_aspect_den">1</property>
  <property name="audio_index">2</property>
  <property name="video_index">1</property>
  <property name="mute_on_pause">1</property>
  <property name="warp_speed">0,42</property>
  <property name="warp_resource">/media/bordun/plagiat/2018-12-10_Plagiat_RespecteLaPuissancePapale/Carte_3/CAM1_2018-12-10_1738_C0000.mov</property>
  <property name="mlt_service">timewarp</property>
  <property name="meta.media.frame_rate_num">50</property>
  <property name="meta.media.frame_rate_den">1</property>
  <property name="meta.media.colorspace">709</property>
  <property name="meta.media.color_trc">1</property>
  <property name="meta.media.width">1920</property>
  <property name="meta.media.height">1080</property>
  <property name="meta.media.top_field_first">0</property>
  <property name="meta.media.progressive">1</property>
  <filter id="filter47">
   <property name="version">0,1</property>
   <property name="mlt_service">frei0r.colgate</property>
   <property name="kdenlive_id">frei0r.colgate</property>
   <property name="tag">frei0r.colgate</property>
   <property name="kdenlive_ix">1</property>
   <property name="kdenlive_info"/>
   <property name="Neutral Color">0x7f7f7fff</property>
   <property name="Color Temperature">0=0,5</property>
  </filter>
  <filter id="filter48">
   <property name="version">0,3</property>
   <property name="mlt_service">frei0r.levels</property>
   <property name="kdenlive_id">frei0r.levels</property>
   <property name="tag">frei0r.levels</property>
   <property name="kdenlive_ix">2</property>
   <property name="kdenlive_info"/>
   <property name="Channel">0,3</property>
   <property name="Input black level">0=0,04</property>
   <property name="Input white level">0=0,95</property>
   <property name="Gamma">0=0,25</property>
   <property name="Black output">0=0</property>
   <property name="White output">0=1</property>
   <property name="Show histogram">0</property>
   <property name="Histogram position">0,3</property>
  </filter>
 </producer>
 <producer id="slowmotion:11:1,19:1:0" in="0" out="17931">
  <property name="length">17932</property>
  <property name="eof">pause</property>
  <property name="resource">1,19:/media/bordun/plagiat/2018-12-10_Plagiat_RespecteLaPuissancePapale/Carte_3/CAM1_2018-12-10_1738_C0000.mov</property>
  <property name="aspect_ratio">1</property>
  <property name="meta.media.nb_streams">3</property>
  <property name="meta.media.1.stream.type">video</property>
  <property name="meta.media.1.stream.frame_rate">50</property>
  <property name="meta.media.1.stream.sample_aspect_ratio">1</property>
  <property name="meta.media.1.codec.width">1920</property>
  <property name="meta.media.1.codec.height">1080</property>
  <property name="meta.media.1.codec.rotate">0</property>
  <property name="meta.media.1.codec.frame_rate">5000</property>
  <property name="meta.media.1.codec.pix_fmt">yuv422p10le</property>
  <property name="meta.media.1.codec.sample_aspect_ratio">0</property>
  <property name="meta.media.1.codec.colorspace">709</property>
  <property name="meta.media.1.codec.color_trc">1</property>
  <property name="meta.media.1.codec.name">prores</property>
  <property name="meta.media.1.codec.long_name">ProRes</property>
  <property name="meta.media.1.codec.bit_rate">366957439</property>
  <property name="meta.attr.1.stream.creation_time.markup">2018-12-10T17:38:54.000000Z</property>
  <property name="meta.attr.1.stream.language.markup">eng</property>
  <property name="meta.attr.1.stream.handler_name.markup">Apple Alias Data Handler</property>
  <property name="meta.attr.1.stream.encoder.markup">Apple ProRes 422 HQ</property>
  <property name="meta.attr.1.stream.timecode.markup">17:38:54:28</property>
  <property name="meta.media.2.stream.type">audio</property>
  <property name="meta.media.2.codec.sample_fmt">s32</property>
  <property name="meta.media.2.codec.sample_rate">48000</property>
  <property name="meta.media.2.codec.channels">2</property>
  <property name="meta.media.2.codec.name">pcm_s24le</property>
  <property name="meta.media.2.codec.long_name">PCM signed 24-bit little-endian</property>
  <property name="meta.media.2.codec.bit_rate">2304000</property>
  <property name="meta.attr.2.stream.creation_time.markup">2018-12-10T17:38:54.000000Z</property>
  <property name="meta.attr.2.stream.language.markup">eng</property>
  <property name="meta.attr.2.stream.handler_name.markup">Apple Alias Data Handler</property>
  <property name="meta.attr.2.stream.timecode.markup">17:38:54:28</property>
  <property name="meta.attr.com.apple.proapps.manufacturer.markup">Blackmagic Design</property>
  <property name="meta.attr.com.apple.proapps.cameraName.markup">CAM1</property>
  <property name="meta.attr.com.apple.proapps.isGood.markup">0</property>
  <property name="meta.attr.com.apple.proapps.customgamma.markup">com.blackmagic-design.cinemacamera.filmlog</property>
  <property name="meta.attr.com.blackmagic-design.cinemacamera.uuid.markup">18E5E00548F94923B646613A73C01B56</property>
  <property name="meta.attr.creation_time.markup">2018-12-10T17:38:54.000000Z</property>
  <property name="meta.attr.timecode.markup">17:38:54:28</property>
  <property name="seekable">1</property>
  <property name="meta.media.sample_aspect_num">1</property>
  <property name="meta.media.sample_aspect_den">1</property>
  <property name="audio_index">2</property>
  <property name="video_index">1</property>
  <property name="mute_on_pause">1</property>
  <property name="warp_speed">1,19</property>
  <property name="warp_resource">/media/bordun/plagiat/2018-12-10_Plagiat_RespecteLaPuissancePapale/Carte_3/CAM1_2018-12-10_1738_C0000.mov</property>
  <property name="mlt_service">timewarp</property>
  <property name="meta.media.frame_rate_num">50</property>
  <property name="meta.media.frame_rate_den">1</property>
  <property name="meta.media.colorspace">709</property>
  <property name="meta.media.color_trc">1</property>
  <property name="meta.media.width">1920</property>
  <property name="meta.media.height">1080</property>
  <property name="meta.media.top_field_first">0</property>
  <property name="meta.media.progressive">1</property>
  <filter id="filter49">
   <property name="version">0,1</property>
   <property name="mlt_service">frei0r.colgate</property>
   <property name="kdenlive_id">frei0r.colgate</property>
   <property name="tag">frei0r.colgate</property>
   <property name="kdenlive_ix">1</property>
   <property name="kdenlive_info"/>
   <property name="Neutral Color">0x7f7f7fff</property>
   <property name="Color Temperature">0=0,5</property>
  </filter>
  <filter id="filter50">
   <property name="version">0,3</property>
   <property name="mlt_service">frei0r.levels</property>
   <property name="kdenlive_id">frei0r.levels</property>
   <property name="tag">frei0r.levels</property>
   <property name="kdenlive_ix">2</property>
   <property name="kdenlive_info"/>
   <property name="Channel">0,3</property>
   <property name="Input black level">0=0,04</property>
   <property name="Input white level">0=0,95</property>
   <property name="Gamma">0=0,25</property>
   <property name="Black output">0=0</property>
   <property name="White output">0=1</property>
   <property name="Show histogram">0</property>
   <property name="Histogram position">0,3</property>
  </filter>
 </producer>
 <producer id="slowmotion:11:1,33:1:0" in="0" out="16043">
  <property name="length">16044</property>
  <property name="eof">pause</property>
  <property name="resource">1,33:/media/bordun/plagiat/2018-12-10_Plagiat_RespecteLaPuissancePapale/Carte_3/CAM1_2018-12-10_1738_C0000.mov</property>
  <property name="aspect_ratio">1</property>
  <property name="meta.media.nb_streams">3</property>
  <property name="meta.media.1.stream.type">video</property>
  <property name="meta.media.1.stream.frame_rate">50</property>
  <property name="meta.media.1.stream.sample_aspect_ratio">1</property>
  <property name="meta.media.1.codec.width">1920</property>
  <property name="meta.media.1.codec.height">1080</property>
  <property name="meta.media.1.codec.rotate">0</property>
  <property name="meta.media.1.codec.frame_rate">5000</property>
  <property name="meta.media.1.codec.pix_fmt">yuv422p10le</property>
  <property name="meta.media.1.codec.sample_aspect_ratio">0</property>
  <property name="meta.media.1.codec.colorspace">709</property>
  <property name="meta.media.1.codec.color_trc">1</property>
  <property name="meta.media.1.codec.name">prores</property>
  <property name="meta.media.1.codec.long_name">ProRes</property>
  <property name="meta.media.1.codec.bit_rate">366957439</property>
  <property name="meta.attr.1.stream.creation_time.markup">2018-12-10T17:38:54.000000Z</property>
  <property name="meta.attr.1.stream.language.markup">eng</property>
  <property name="meta.attr.1.stream.handler_name.markup">Apple Alias Data Handler</property>
  <property name="meta.attr.1.stream.encoder.markup">Apple ProRes 422 HQ</property>
  <property name="meta.attr.1.stream.timecode.markup">17:38:54:28</property>
  <property name="meta.media.2.stream.type">audio</property>
  <property name="meta.media.2.codec.sample_fmt">s32</property>
  <property name="meta.media.2.codec.sample_rate">48000</property>
  <property name="meta.media.2.codec.channels">2</property>
  <property name="meta.media.2.codec.name">pcm_s24le</property>
  <property name="meta.media.2.codec.long_name">PCM signed 24-bit little-endian</property>
  <property name="meta.media.2.codec.bit_rate">2304000</property>
  <property name="meta.attr.2.stream.creation_time.markup">2018-12-10T17:38:54.000000Z</property>
  <property name="meta.attr.2.stream.language.markup">eng</property>
  <property name="meta.attr.2.stream.handler_name.markup">Apple Alias Data Handler</property>
  <property name="meta.attr.2.stream.timecode.markup">17:38:54:28</property>
  <property name="meta.attr.com.apple.proapps.manufacturer.markup">Blackmagic Design</property>
  <property name="meta.attr.com.apple.proapps.cameraName.markup">CAM1</property>
  <property name="meta.attr.com.apple.proapps.isGood.markup">0</property>
  <property name="meta.attr.com.apple.proapps.customgamma.markup">com.blackmagic-design.cinemacamera.filmlog</property>
  <property name="meta.attr.com.blackmagic-design.cinemacamera.uuid.markup">18E5E00548F94923B646613A73C01B56</property>
  <property name="meta.attr.creation_time.markup">2018-12-10T17:38:54.000000Z</property>
  <property name="meta.attr.timecode.markup">17:38:54:28</property>
  <property name="seekable">1</property>
  <property name="meta.media.sample_aspect_num">1</property>
  <property name="meta.media.sample_aspect_den">1</property>
  <property name="audio_index">2</property>
  <property name="video_index">1</property>
  <property name="mute_on_pause">1</property>
  <property name="warp_speed">1,33</property>
  <property name="warp_resource">/media/bordun/plagiat/2018-12-10_Plagiat_RespecteLaPuissancePapale/Carte_3/CAM1_2018-12-10_1738_C0000.mov</property>
  <property name="mlt_service">timewarp</property>
  <property name="meta.media.frame_rate_num">50</property>
  <property name="meta.media.frame_rate_den">1</property>
  <property name="meta.media.colorspace">709</property>
  <property name="meta.media.color_trc">1</property>
  <property name="meta.media.width">1920</property>
  <property name="meta.media.height">1080</property>
  <property name="meta.media.top_field_first">0</property>
  <property name="meta.media.progressive">1</property>
  <filter id="filter51">
   <property name="version">0,1</property>
   <property name="mlt_service">frei0r.colgate</property>
   <property name="kdenlive_id">frei0r.colgate</property>
   <property name="tag">frei0r.colgate</property>
   <property name="kdenlive_ix">1</property>
   <property name="kdenlive_info"/>
   <property name="Neutral Color">0x7f7f7fff</property>
   <property name="Color Temperature">0=0,5</property>
  </filter>
  <filter id="filter52">
   <property name="version">0,3</property>
   <property name="mlt_service">frei0r.levels</property>
   <property name="kdenlive_id">frei0r.levels</property>
   <property name="tag">frei0r.levels</property>
   <property name="kdenlive_ix">2</property>
   <property name="kdenlive_info"/>
   <property name="Channel">0,3</property>
   <property name="Input black level">0=0,04</property>
   <property name="Input white level">0=0,95</property>
   <property name="Gamma">0=0,25</property>
   <property name="Black output">0=0</property>
   <property name="White output">0=1</property>
   <property name="Show histogram">0</property>
   <property name="Histogram position">0,3</property>
  </filter>
 </producer>
 <producer id="slowmotion:11:0,8:1:0" in="0" out="26673">
  <property name="length">26674</property>
  <property name="eof">pause</property>
  <property name="resource">0,8:/media/bordun/plagiat/2018-12-10_Plagiat_RespecteLaPuissancePapale/Carte_3/CAM1_2018-12-10_1738_C0000.mov</property>
  <property name="aspect_ratio">1</property>
  <property name="meta.media.nb_streams">3</property>
  <property name="meta.media.1.stream.type">video</property>
  <property name="meta.media.1.stream.frame_rate">50</property>
  <property name="meta.media.1.stream.sample_aspect_ratio">1</property>
  <property name="meta.media.1.codec.width">1920</property>
  <property name="meta.media.1.codec.height">1080</property>
  <property name="meta.media.1.codec.rotate">0</property>
  <property name="meta.media.1.codec.frame_rate">5000</property>
  <property name="meta.media.1.codec.pix_fmt">yuv422p10le</property>
  <property name="meta.media.1.codec.sample_aspect_ratio">0</property>
  <property name="meta.media.1.codec.colorspace">709</property>
  <property name="meta.media.1.codec.color_trc">1</property>
  <property name="meta.media.1.codec.name">prores</property>
  <property name="meta.media.1.codec.long_name">ProRes</property>
  <property name="meta.media.1.codec.bit_rate">366957439</property>
  <property name="meta.attr.1.stream.creation_time.markup">2018-12-10T17:38:54.000000Z</property>
  <property name="meta.attr.1.stream.language.markup">eng</property>
  <property name="meta.attr.1.stream.handler_name.markup">Apple Alias Data Handler</property>
  <property name="meta.attr.1.stream.encoder.markup">Apple ProRes 422 HQ</property>
  <property name="meta.attr.1.stream.timecode.markup">17:38:54:28</property>
  <property name="meta.media.2.stream.type">audio</property>
  <property name="meta.media.2.codec.sample_fmt">s32</property>
  <property name="meta.media.2.codec.sample_rate">48000</property>
  <property name="meta.media.2.codec.channels">2</property>
  <property name="meta.media.2.codec.name">pcm_s24le</property>
  <property name="meta.media.2.codec.long_name">PCM signed 24-bit little-endian</property>
  <property name="meta.media.2.codec.bit_rate">2304000</property>
  <property name="meta.attr.2.stream.creation_time.markup">2018-12-10T17:38:54.000000Z</property>
  <property name="meta.attr.2.stream.language.markup">eng</property>
  <property name="meta.attr.2.stream.handler_name.markup">Apple Alias Data Handler</property>
  <property name="meta.attr.2.stream.timecode.markup">17:38:54:28</property>
  <property name="meta.attr.com.apple.proapps.manufacturer.markup">Blackmagic Design</property>
  <property name="meta.attr.com.apple.proapps.cameraName.markup">CAM1</property>
  <property name="meta.attr.com.apple.proapps.isGood.markup">0</property>
  <property name="meta.attr.com.apple.proapps.customgamma.markup">com.blackmagic-design.cinemacamera.filmlog</property>
  <property name="meta.attr.com.blackmagic-design.cinemacamera.uuid.markup">18E5E00548F94923B646613A73C01B56</property>
  <property name="meta.attr.creation_time.markup">2018-12-10T17:38:54.000000Z</property>
  <property name="meta.attr.timecode.markup">17:38:54:28</property>
  <property name="seekable">1</property>
  <property name="meta.media.sample_aspect_num">1</property>
  <property name="meta.media.sample_aspect_den">1</property>
  <property name="audio_index">2</property>
  <property name="video_index">1</property>
  <property name="mute_on_pause">1</property>
  <property name="warp_speed">0,8</property>
  <property name="warp_resource">/media/bordun/plagiat/2018-12-10_Plagiat_RespecteLaPuissancePapale/Carte_3/CAM1_2018-12-10_1738_C0000.mov</property>
  <property name="mlt_service">timewarp</property>
  <property name="meta.media.frame_rate_num">50</property>
  <property name="meta.media.frame_rate_den">1</property>
  <property name="meta.media.colorspace">709</property>
  <property name="meta.media.color_trc">1</property>
  <property name="meta.media.width">1920</property>
  <property name="meta.media.height">1080</property>
  <property name="meta.media.top_field_first">0</property>
  <property name="meta.media.progressive">1</property>
  <filter id="filter53">
   <property name="version">0,1</property>
   <property name="mlt_service">frei0r.colgate</property>
   <property name="kdenlive_id">frei0r.colgate</property>
   <property name="tag">frei0r.colgate</property>
   <property name="kdenlive_ix">1</property>
   <property name="kdenlive_info"/>
   <property name="Neutral Color">0x7f7f7fff</property>
   <property name="Color Temperature">0=0,5</property>
  </filter>
  <filter id="filter54">
   <property name="version">0,3</property>
   <property name="mlt_service">frei0r.levels</property>
   <property name="kdenlive_id">frei0r.levels</property>
   <property name="tag">frei0r.levels</property>
   <property name="kdenlive_ix">2</property>
   <property name="kdenlive_info"/>
   <property name="Channel">0,3</property>
   <property name="Input black level">0=0,04</property>
   <property name="Input white level">0=0,95</property>
   <property name="Gamma">0=0,25</property>
   <property name="Black output">0=0</property>
   <property name="White output">0=1</property>
   <property name="Show histogram">0</property>
   <property name="Histogram position">0,3</property>
  </filter>
 </producer>
 <producer id="slowmotion:11:0,94:1:0" in="0" out="22700">
  <property name="length">22701</property>
  <property name="eof">pause</property>
  <property name="resource">0,94:/media/bordun/plagiat/2018-12-10_Plagiat_RespecteLaPuissancePapale/Carte_3/CAM1_2018-12-10_1738_C0000.mov</property>
  <property name="aspect_ratio">1</property>
  <property name="meta.media.nb_streams">3</property>
  <property name="meta.media.1.stream.type">video</property>
  <property name="meta.media.1.stream.frame_rate">50</property>
  <property name="meta.media.1.stream.sample_aspect_ratio">1</property>
  <property name="meta.media.1.codec.width">1920</property>
  <property name="meta.media.1.codec.height">1080</property>
  <property name="meta.media.1.codec.rotate">0</property>
  <property name="meta.media.1.codec.frame_rate">5000</property>
  <property name="meta.media.1.codec.pix_fmt">yuv422p10le</property>
  <property name="meta.media.1.codec.sample_aspect_ratio">0</property>
  <property name="meta.media.1.codec.colorspace">709</property>
  <property name="meta.media.1.codec.color_trc">1</property>
  <property name="meta.media.1.codec.name">prores</property>
  <property name="meta.media.1.codec.long_name">ProRes</property>
  <property name="meta.media.1.codec.bit_rate">366957439</property>
  <property name="meta.attr.1.stream.creation_time.markup">2018-12-10T17:38:54.000000Z</property>
  <property name="meta.attr.1.stream.language.markup">eng</property>
  <property name="meta.attr.1.stream.handler_name.markup">Apple Alias Data Handler</property>
  <property name="meta.attr.1.stream.encoder.markup">Apple ProRes 422 HQ</property>
  <property name="meta.attr.1.stream.timecode.markup">17:38:54:28</property>
  <property name="meta.media.2.stream.type">audio</property>
  <property name="meta.media.2.codec.sample_fmt">s32</property>
  <property name="meta.media.2.codec.sample_rate">48000</property>
  <property name="meta.media.2.codec.channels">2</property>
  <property name="meta.media.2.codec.name">pcm_s24le</property>
  <property name="meta.media.2.codec.long_name">PCM signed 24-bit little-endian</property>
  <property name="meta.media.2.codec.bit_rate">2304000</property>
  <property name="meta.attr.2.stream.creation_time.markup">2018-12-10T17:38:54.000000Z</property>
  <property name="meta.attr.2.stream.language.markup">eng</property>
  <property name="meta.attr.2.stream.handler_name.markup">Apple Alias Data Handler</property>
  <property name="meta.attr.2.stream.timecode.markup">17:38:54:28</property>
  <property name="meta.attr.com.apple.proapps.manufacturer.markup">Blackmagic Design</property>
  <property name="meta.attr.com.apple.proapps.cameraName.markup">CAM1</property>
  <property name="meta.attr.com.apple.proapps.isGood.markup">0</property>
  <property name="meta.attr.com.apple.proapps.customgamma.markup">com.blackmagic-design.cinemacamera.filmlog</property>
  <property name="meta.attr.com.blackmagic-design.cinemacamera.uuid.markup">18E5E00548F94923B646613A73C01B56</property>
  <property name="meta.attr.creation_time.markup">2018-12-10T17:38:54.000000Z</property>
  <property name="meta.attr.timecode.markup">17:38:54:28</property>
  <property name="seekable">1</property>
  <property name="meta.media.sample_aspect_num">1</property>
  <property name="meta.media.sample_aspect_den">1</property>
  <property name="audio_index">2</property>
  <property name="video_index">1</property>
  <property name="mute_on_pause">1</property>
  <property name="warp_speed">0,94</property>
  <property name="warp_resource">/media/bordun/plagiat/2018-12-10_Plagiat_RespecteLaPuissancePapale/Carte_3/CAM1_2018-12-10_1738_C0000.mov</property>
  <property name="mlt_service">timewarp</property>
  <property name="meta.media.frame_rate_num">50</property>
  <property name="meta.media.frame_rate_den">1</property>
  <property name="meta.media.colorspace">709</property>
  <property name="meta.media.color_trc">1</property>
  <property name="meta.media.width">1920</property>
  <property name="meta.media.height">1080</property>
  <property name="meta.media.top_field_first">0</property>
  <property name="meta.media.progressive">1</property>
  <filter id="filter55">
   <property name="version">0,1</property>
   <property name="mlt_service">frei0r.colgate</property>
   <property name="kdenlive_id">frei0r.colgate</property>
   <property name="tag">frei0r.colgate</property>
   <property name="kdenlive_ix">1</property>
   <property name="kdenlive_info"/>
   <property name="Neutral Color">0x7f7f7fff</property>
   <property name="Color Temperature">0=0,5</property>
  </filter>
  <filter id="filter56">
   <property name="version">0,3</property>
   <property name="mlt_service">frei0r.levels</property>
   <property name="kdenlive_id">frei0r.levels</property>
   <property name="tag">frei0r.levels</property>
   <property name="kdenlive_ix">2</property>
   <property name="kdenlive_info"/>
   <property name="Channel">0,3</property>
   <property name="Input black level">0=0,04</property>
   <property name="Input white level">0=0,95</property>
   <property name="Gamma">0=0,25</property>
   <property name="Black output">0=0</property>
   <property name="White output">0=1</property>
   <property name="Show histogram">0</property>
   <property name="Histogram position">0,3</property>
  </filter>
 </producer>
 <producer id="slowmotion:11:0,69:1:0" in="0" out="30925">
  <property name="length">30926</property>
  <property name="eof">pause</property>
  <property name="resource">0,69:/media/bordun/plagiat/2018-12-10_Plagiat_RespecteLaPuissancePapale/Carte_3/CAM1_2018-12-10_1738_C0000.mov</property>
  <property name="aspect_ratio">1</property>
  <property name="meta.media.nb_streams">3</property>
  <property name="meta.media.1.stream.type">video</property>
  <property name="meta.media.1.stream.frame_rate">50</property>
  <property name="meta.media.1.stream.sample_aspect_ratio">1</property>
  <property name="meta.media.1.codec.width">1920</property>
  <property name="meta.media.1.codec.height">1080</property>
  <property name="meta.media.1.codec.rotate">0</property>
  <property name="meta.media.1.codec.frame_rate">5000</property>
  <property name="meta.media.1.codec.pix_fmt">yuv422p10le</property>
  <property name="meta.media.1.codec.sample_aspect_ratio">0</property>
  <property name="meta.media.1.codec.colorspace">709</property>
  <property name="meta.media.1.codec.color_trc">1</property>
  <property name="meta.media.1.codec.name">prores</property>
  <property name="meta.media.1.codec.long_name">ProRes</property>
  <property name="meta.media.1.codec.bit_rate">366957439</property>
  <property name="meta.attr.1.stream.creation_time.markup">2018-12-10T17:38:54.000000Z</property>
  <property name="meta.attr.1.stream.language.markup">eng</property>
  <property name="meta.attr.1.stream.handler_name.markup">Apple Alias Data Handler</property>
  <property name="meta.attr.1.stream.encoder.markup">Apple ProRes 422 HQ</property>
  <property name="meta.attr.1.stream.timecode.markup">17:38:54:28</property>
  <property name="meta.media.2.stream.type">audio</property>
  <property name="meta.media.2.codec.sample_fmt">s32</property>
  <property name="meta.media.2.codec.sample_rate">48000</property>
  <property name="meta.media.2.codec.channels">2</property>
  <property name="meta.media.2.codec.name">pcm_s24le</property>
  <property name="meta.media.2.codec.long_name">PCM signed 24-bit little-endian</property>
  <property name="meta.media.2.codec.bit_rate">2304000</property>
  <property name="meta.attr.2.stream.creation_time.markup">2018-12-10T17:38:54.000000Z</property>
  <property name="meta.attr.2.stream.language.markup">eng</property>
  <property name="meta.attr.2.stream.handler_name.markup">Apple Alias Data Handler</property>
  <property name="meta.attr.2.stream.timecode.markup">17:38:54:28</property>
  <property name="meta.attr.com.apple.proapps.manufacturer.markup">Blackmagic Design</property>
  <property name="meta.attr.com.apple.proapps.cameraName.markup">CAM1</property>
  <property name="meta.attr.com.apple.proapps.isGood.markup">0</property>
  <property name="meta.attr.com.apple.proapps.customgamma.markup">com.blackmagic-design.cinemacamera.filmlog</property>
  <property name="meta.attr.com.blackmagic-design.cinemacamera.uuid.markup">18E5E00548F94923B646613A73C01B56</property>
  <property name="meta.attr.creation_time.markup">2018-12-10T17:38:54.000000Z</property>
  <property name="meta.attr.timecode.markup">17:38:54:28</property>
  <property name="seekable">1</property>
  <property name="meta.media.sample_aspect_num">1</property>
  <property name="meta.media.sample_aspect_den">1</property>
  <property name="audio_index">2</property>
  <property name="video_index">1</property>
  <property name="mute_on_pause">1</property>
  <property name="warp_speed">0,69</property>
  <property name="warp_resource">/media/bordun/plagiat/2018-12-10_Plagiat_RespecteLaPuissancePapale/Carte_3/CAM1_2018-12-10_1738_C0000.mov</property>
  <property name="mlt_service">timewarp</property>
  <property name="meta.media.frame_rate_num">50</property>
  <property name="meta.media.frame_rate_den">1</property>
  <property name="meta.media.colorspace">709</property>
  <property name="meta.media.color_trc">1</property>
  <property name="meta.media.width">1920</property>
  <property name="meta.media.height">1080</property>
  <property name="meta.media.top_field_first">0</property>
  <property name="meta.media.progressive">1</property>
  <filter id="filter57">
   <property name="version">0,1</property>
   <property name="mlt_service">frei0r.colgate</property>
   <property name="kdenlive_id">frei0r.colgate</property>
   <property name="tag">frei0r.colgate</property>
   <property name="kdenlive_ix">1</property>
   <property name="kdenlive_info"/>
   <property name="Neutral Color">0x7f7f7fff</property>
   <property name="Color Temperature">0=0,5</property>
  </filter>
  <filter id="filter58">
   <property name="version">0,3</property>
   <property name="mlt_service">frei0r.levels</property>
   <property name="kdenlive_id">frei0r.levels</property>
   <property name="tag">frei0r.levels</property>
   <property name="kdenlive_ix">2</property>
   <property name="kdenlive_info"/>
   <property name="Channel">0,3</property>
   <property name="Input black level">0=0,04</property>
   <property name="Input white level">0=0,95</property>
   <property name="Gamma">0=0,25</property>
   <property name="Black output">0=0</property>
   <property name="White output">0=1</property>
   <property name="Show histogram">0</property>
   <property name="Histogram position">0,3</property>
  </filter>
 </producer>
 <producer id="slowmotion:11:1,17:1:0" in="0" out="18237">
  <property name="length">18238</property>
  <property name="eof">pause</property>
  <property name="resource">1,17:/media/bordun/plagiat/2018-12-10_Plagiat_RespecteLaPuissancePapale/Carte_3/CAM1_2018-12-10_1738_C0000.mov</property>
  <property name="aspect_ratio">1</property>
  <property name="meta.media.nb_streams">3</property>
  <property name="meta.media.1.stream.type">video</property>
  <property name="meta.media.1.stream.frame_rate">50</property>
  <property name="meta.media.1.stream.sample_aspect_ratio">1</property>
  <property name="meta.media.1.codec.width">1920</property>
  <property name="meta.media.1.codec.height">1080</property>
  <property name="meta.media.1.codec.rotate">0</property>
  <property name="meta.media.1.codec.frame_rate">5000</property>
  <property name="meta.media.1.codec.pix_fmt">yuv422p10le</property>
  <property name="meta.media.1.codec.sample_aspect_ratio">0</property>
  <property name="meta.media.1.codec.colorspace">709</property>
  <property name="meta.media.1.codec.color_trc">1</property>
  <property name="meta.media.1.codec.name">prores</property>
  <property name="meta.media.1.codec.long_name">ProRes</property>
  <property name="meta.media.1.codec.bit_rate">366957439</property>
  <property name="meta.attr.1.stream.creation_time.markup">2018-12-10T17:38:54.000000Z</property>
  <property name="meta.attr.1.stream.language.markup">eng</property>
  <property name="meta.attr.1.stream.handler_name.markup">Apple Alias Data Handler</property>
  <property name="meta.attr.1.stream.encoder.markup">Apple ProRes 422 HQ</property>
  <property name="meta.attr.1.stream.timecode.markup">17:38:54:28</property>
  <property name="meta.media.2.stream.type">audio</property>
  <property name="meta.media.2.codec.sample_fmt">s32</property>
  <property name="meta.media.2.codec.sample_rate">48000</property>
  <property name="meta.media.2.codec.channels">2</property>
  <property name="meta.media.2.codec.name">pcm_s24le</property>
  <property name="meta.media.2.codec.long_name">PCM signed 24-bit little-endian</property>
  <property name="meta.media.2.codec.bit_rate">2304000</property>
  <property name="meta.attr.2.stream.creation_time.markup">2018-12-10T17:38:54.000000Z</property>
  <property name="meta.attr.2.stream.language.markup">eng</property>
  <property name="meta.attr.2.stream.handler_name.markup">Apple Alias Data Handler</property>
  <property name="meta.attr.2.stream.timecode.markup">17:38:54:28</property>
  <property name="meta.attr.com.apple.proapps.manufacturer.markup">Blackmagic Design</property>
  <property name="meta.attr.com.apple.proapps.cameraName.markup">CAM1</property>
  <property name="meta.attr.com.apple.proapps.isGood.markup">0</property>
  <property name="meta.attr.com.apple.proapps.customgamma.markup">com.blackmagic-design.cinemacamera.filmlog</property>
  <property name="meta.attr.com.blackmagic-design.cinemacamera.uuid.markup">18E5E00548F94923B646613A73C01B56</property>
  <property name="meta.attr.creation_time.markup">2018-12-10T17:38:54.000000Z</property>
  <property name="meta.attr.timecode.markup">17:38:54:28</property>
  <property name="seekable">1</property>
  <property name="meta.media.sample_aspect_num">1</property>
  <property name="meta.media.sample_aspect_den">1</property>
  <property name="audio_index">2</property>
  <property name="video_index">1</property>
  <property name="mute_on_pause">1</property>
  <property name="warp_speed">1,17</property>
  <property name="warp_resource">/media/bordun/plagiat/2018-12-10_Plagiat_RespecteLaPuissancePapale/Carte_3/CAM1_2018-12-10_1738_C0000.mov</property>
  <property name="mlt_service">timewarp</property>
  <property name="meta.media.frame_rate_num">50</property>
  <property name="meta.media.frame_rate_den">1</property>
  <property name="meta.media.colorspace">709</property>
  <property name="meta.media.color_trc">1</property>
  <property name="meta.media.width">1920</property>
  <property name="meta.media.height">1080</property>
  <property name="meta.media.top_field_first">0</property>
  <property name="meta.media.progressive">1</property>
  <filter id="filter59">
   <property name="version">0,1</property>
   <property name="mlt_service">frei0r.colgate</property>
   <property name="kdenlive_id">frei0r.colgate</property>
   <property name="tag">frei0r.colgate</property>
   <property name="kdenlive_ix">1</property>
   <property name="kdenlive_info"/>
   <property name="Neutral Color">0x7f7f7fff</property>
   <property name="Color Temperature">0=0,5</property>
  </filter>
  <filter id="filter60">
   <property name="version">0,3</property>
   <property name="mlt_service">frei0r.levels</property>
   <property name="kdenlive_id">frei0r.levels</property>
   <property name="tag">frei0r.levels</property>
   <property name="kdenlive_ix">2</property>
   <property name="kdenlive_info"/>
   <property name="Channel">0,3</property>
   <property name="Input black level">0=0,04</property>
   <property name="Input white level">0=0,95</property>
   <property name="Gamma">0=0,25</property>
   <property name="Black output">0=0</property>
   <property name="White output">0=1</property>
   <property name="Show histogram">0</property>
   <property name="Histogram position">0,3</property>
  </filter>
 </producer>
 <producer id="slowmotion:11:0,83:1:0" in="0" out="25708">
  <property name="length">25709</property>
  <property name="eof">pause</property>
  <property name="resource">0,83:/media/bordun/plagiat/2018-12-10_Plagiat_RespecteLaPuissancePapale/Carte_3/CAM1_2018-12-10_1738_C0000.mov</property>
  <property name="aspect_ratio">1</property>
  <property name="meta.media.nb_streams">3</property>
  <property name="meta.media.1.stream.type">video</property>
  <property name="meta.media.1.stream.frame_rate">50</property>
  <property name="meta.media.1.stream.sample_aspect_ratio">1</property>
  <property name="meta.media.1.codec.width">1920</property>
  <property name="meta.media.1.codec.height">1080</property>
  <property name="meta.media.1.codec.rotate">0</property>
  <property name="meta.media.1.codec.frame_rate">5000</property>
  <property name="meta.media.1.codec.pix_fmt">yuv422p10le</property>
  <property name="meta.media.1.codec.sample_aspect_ratio">0</property>
  <property name="meta.media.1.codec.colorspace">709</property>
  <property name="meta.media.1.codec.color_trc">1</property>
  <property name="meta.media.1.codec.name">prores</property>
  <property name="meta.media.1.codec.long_name">ProRes</property>
  <property name="meta.media.1.codec.bit_rate">366957439</property>
  <property name="meta.attr.1.stream.creation_time.markup">2018-12-10T17:38:54.000000Z</property>
  <property name="meta.attr.1.stream.language.markup">eng</property>
  <property name="meta.attr.1.stream.handler_name.markup">Apple Alias Data Handler</property>
  <property name="meta.attr.1.stream.encoder.markup">Apple ProRes 422 HQ</property>
  <property name="meta.attr.1.stream.timecode.markup">17:38:54:28</property>
  <property name="meta.media.2.stream.type">audio</property>
  <property name="meta.media.2.codec.sample_fmt">s32</property>
  <property name="meta.media.2.codec.sample_rate">48000</property>
  <property name="meta.media.2.codec.channels">2</property>
  <property name="meta.media.2.codec.name">pcm_s24le</property>
  <property name="meta.media.2.codec.long_name">PCM signed 24-bit little-endian</property>
  <property name="meta.media.2.codec.bit_rate">2304000</property>
  <property name="meta.attr.2.stream.creation_time.markup">2018-12-10T17:38:54.000000Z</property>
  <property name="meta.attr.2.stream.language.markup">eng</property>
  <property name="meta.attr.2.stream.handler_name.markup">Apple Alias Data Handler</property>
  <property name="meta.attr.2.stream.timecode.markup">17:38:54:28</property>
  <property name="meta.attr.com.apple.proapps.manufacturer.markup">Blackmagic Design</property>
  <property name="meta.attr.com.apple.proapps.cameraName.markup">CAM1</property>
  <property name="meta.attr.com.apple.proapps.isGood.markup">0</property>
  <property name="meta.attr.com.apple.proapps.customgamma.markup">com.blackmagic-design.cinemacamera.filmlog</property>
  <property name="meta.attr.com.blackmagic-design.cinemacamera.uuid.markup">18E5E00548F94923B646613A73C01B56</property>
  <property name="meta.attr.creation_time.markup">2018-12-10T17:38:54.000000Z</property>
  <property name="meta.attr.timecode.markup">17:38:54:28</property>
  <property name="seekable">1</property>
  <property name="meta.media.sample_aspect_num">1</property>
  <property name="meta.media.sample_aspect_den">1</property>
  <property name="audio_index">2</property>
  <property name="video_index">1</property>
  <property name="mute_on_pause">1</property>
  <property name="warp_speed">0,83</property>
  <property name="warp_resource">/media/bordun/plagiat/2018-12-10_Plagiat_RespecteLaPuissancePapale/Carte_3/CAM1_2018-12-10_1738_C0000.mov</property>
  <property name="mlt_service">timewarp</property>
  <property name="meta.media.frame_rate_num">50</property>
  <property name="meta.media.frame_rate_den">1</property>
  <property name="meta.media.colorspace">709</property>
  <property name="meta.media.color_trc">1</property>
  <property name="meta.media.width">1920</property>
  <property name="meta.media.height">1080</property>
  <property name="meta.media.top_field_first">0</property>
  <property name="meta.media.progressive">1</property>
  <filter id="filter61">
   <property name="version">0,1</property>
   <property name="mlt_service">frei0r.colgate</property>
   <property name="kdenlive_id">frei0r.colgate</property>
   <property name="tag">frei0r.colgate</property>
   <property name="kdenlive_ix">1</property>
   <property name="kdenlive_info"/>
   <property name="Neutral Color">0x7f7f7fff</property>
   <property name="Color Temperature">0=0,5</property>
  </filter>
  <filter id="filter62">
   <property name="version">0,3</property>
   <property name="mlt_service">frei0r.levels</property>
   <property name="kdenlive_id">frei0r.levels</property>
   <property name="tag">frei0r.levels</property>
   <property name="kdenlive_ix">2</property>
   <property name="kdenlive_info"/>
   <property name="Channel">0,3</property>
   <property name="Input black level">0=0,04</property>
   <property name="Input white level">0=0,95</property>
   <property name="Gamma">0=0,25</property>
   <property name="Black output">0=0</property>
   <property name="White output">0=1</property>
   <property name="Show histogram">0</property>
   <property name="Histogram position">0,3</property>
  </filter>
 </producer>
 <producer id="slowmotion:11:1,61:1:0" in="0" out="13253">
  <property name="length">13254</property>
  <property name="eof">pause</property>
  <property name="resource">1,61:/media/bordun/plagiat/2018-12-10_Plagiat_RespecteLaPuissancePapale/Carte_3/CAM1_2018-12-10_1738_C0000.mov</property>
  <property name="aspect_ratio">1</property>
  <property name="meta.media.nb_streams">3</property>
  <property name="meta.media.1.stream.type">video</property>
  <property name="meta.media.1.stream.frame_rate">50</property>
  <property name="meta.media.1.stream.sample_aspect_ratio">1</property>
  <property name="meta.media.1.codec.width">1920</property>
  <property name="meta.media.1.codec.height">1080</property>
  <property name="meta.media.1.codec.rotate">0</property>
  <property name="meta.media.1.codec.frame_rate">5000</property>
  <property name="meta.media.1.codec.pix_fmt">yuv422p10le</property>
  <property name="meta.media.1.codec.sample_aspect_ratio">0</property>
  <property name="meta.media.1.codec.colorspace">709</property>
  <property name="meta.media.1.codec.color_trc">1</property>
  <property name="meta.media.1.codec.name">prores</property>
  <property name="meta.media.1.codec.long_name">ProRes</property>
  <property name="meta.media.1.codec.bit_rate">366957439</property>
  <property name="meta.attr.1.stream.creation_time.markup">2018-12-10T17:38:54.000000Z</property>
  <property name="meta.attr.1.stream.language.markup">eng</property>
  <property name="meta.attr.1.stream.handler_name.markup">Apple Alias Data Handler</property>
  <property name="meta.attr.1.stream.encoder.markup">Apple ProRes 422 HQ</property>
  <property name="meta.attr.1.stream.timecode.markup">17:38:54:28</property>
  <property name="meta.media.2.stream.type">audio</property>
  <property name="meta.media.2.codec.sample_fmt">s32</property>
  <property name="meta.media.2.codec.sample_rate">48000</property>
  <property name="meta.media.2.codec.channels">2</property>
  <property name="meta.media.2.codec.name">pcm_s24le</property>
  <property name="meta.media.2.codec.long_name">PCM signed 24-bit little-endian</property>
  <property name="meta.media.2.codec.bit_rate">2304000</property>
  <property name="meta.attr.2.stream.creation_time.markup">2018-12-10T17:38:54.000000Z</property>
  <property name="meta.attr.2.stream.language.markup">eng</property>
  <property name="meta.attr.2.stream.handler_name.markup">Apple Alias Data Handler</property>
  <property name="meta.attr.2.stream.timecode.markup">17:38:54:28</property>
  <property name="meta.attr.com.apple.proapps.manufacturer.markup">Blackmagic Design</property>
  <property name="meta.attr.com.apple.proapps.cameraName.markup">CAM1</property>
  <property name="meta.attr.com.apple.proapps.isGood.markup">0</property>
  <property name="meta.attr.com.apple.proapps.customgamma.markup">com.blackmagic-design.cinemacamera.filmlog</property>
  <property name="meta.attr.com.blackmagic-design.cinemacamera.uuid.markup">18E5E00548F94923B646613A73C01B56</property>
  <property name="meta.attr.creation_time.markup">2018-12-10T17:38:54.000000Z</property>
  <property name="meta.attr.timecode.markup">17:38:54:28</property>
  <property name="seekable">1</property>
  <property name="meta.media.sample_aspect_num">1</property>
  <property name="meta.media.sample_aspect_den">1</property>
  <property name="audio_index">2</property>
  <property name="video_index">1</property>
  <property name="mute_on_pause">1</property>
  <property name="warp_speed">1,61</property>
  <property name="warp_resource">/media/bordun/plagiat/2018-12-10_Plagiat_RespecteLaPuissancePapale/Carte_3/CAM1_2018-12-10_1738_C0000.mov</property>
  <property name="mlt_service">timewarp</property>
  <property name="meta.media.frame_rate_num">50</property>
  <property name="meta.media.frame_rate_den">1</property>
  <property name="meta.media.colorspace">709</property>
  <property name="meta.media.color_trc">1</property>
  <property name="meta.media.width">1920</property>
  <property name="meta.media.height">1080</property>
  <property name="meta.media.top_field_first">0</property>
  <property name="meta.media.progressive">1</property>
  <filter id="filter63">
   <property name="version">0,1</property>
   <property name="mlt_service">frei0r.colgate</property>
   <property name="kdenlive_id">frei0r.colgate</property>
   <property name="tag">frei0r.colgate</property>
   <property name="kdenlive_ix">1</property>
   <property name="kdenlive_info"/>
   <property name="Neutral Color">0x7f7f7fff</property>
   <property name="Color Temperature">0=0,5</property>
  </filter>
  <filter id="filter64">
   <property name="version">0,3</property>
   <property name="mlt_service">frei0r.levels</property>
   <property name="kdenlive_id">frei0r.levels</property>
   <property name="tag">frei0r.levels</property>
   <property name="kdenlive_ix">2</property>
   <property name="kdenlive_info"/>
   <property name="Channel">0,3</property>
   <property name="Input black level">0=0,04</property>
   <property name="Input white level">0=0,95</property>
   <property name="Gamma">0=0,25</property>
   <property name="Black output">0=0</property>
   <property name="White output">0=1</property>
   <property name="Show histogram">0</property>
   <property name="Histogram position">0,3</property>
  </filter>
 </producer>
 <producer id="slowmotion:11:0,52:1:0" in="0" out="41035">
  <property name="length">41036</property>
  <property name="eof">pause</property>
  <property name="resource">0,52:/media/bordun/plagiat/2018-12-10_Plagiat_RespecteLaPuissancePapale/Carte_3/CAM1_2018-12-10_1738_C0000.mov</property>
  <property name="aspect_ratio">1</property>
  <property name="meta.media.nb_streams">3</property>
  <property name="meta.media.1.stream.type">video</property>
  <property name="meta.media.1.stream.frame_rate">50</property>
  <property name="meta.media.1.stream.sample_aspect_ratio">1</property>
  <property name="meta.media.1.codec.width">1920</property>
  <property name="meta.media.1.codec.height">1080</property>
  <property name="meta.media.1.codec.rotate">0</property>
  <property name="meta.media.1.codec.frame_rate">5000</property>
  <property name="meta.media.1.codec.pix_fmt">yuv422p10le</property>
  <property name="meta.media.1.codec.sample_aspect_ratio">0</property>
  <property name="meta.media.1.codec.colorspace">709</property>
  <property name="meta.media.1.codec.color_trc">1</property>
  <property name="meta.media.1.codec.name">prores</property>
  <property name="meta.media.1.codec.long_name">ProRes</property>
  <property name="meta.media.1.codec.bit_rate">366957439</property>
  <property name="meta.attr.1.stream.creation_time.markup">2018-12-10T17:38:54.000000Z</property>
  <property name="meta.attr.1.stream.language.markup">eng</property>
  <property name="meta.attr.1.stream.handler_name.markup">Apple Alias Data Handler</property>
  <property name="meta.attr.1.stream.encoder.markup">Apple ProRes 422 HQ</property>
  <property name="meta.attr.1.stream.timecode.markup">17:38:54:28</property>
  <property name="meta.media.2.stream.type">audio</property>
  <property name="meta.media.2.codec.sample_fmt">s32</property>
  <property name="meta.media.2.codec.sample_rate">48000</property>
  <property name="meta.media.2.codec.channels">2</property>
  <property name="meta.media.2.codec.name">pcm_s24le</property>
  <property name="meta.media.2.codec.long_name">PCM signed 24-bit little-endian</property>
  <property name="meta.media.2.codec.bit_rate">2304000</property>
  <property name="meta.attr.2.stream.creation_time.markup">2018-12-10T17:38:54.000000Z</property>
  <property name="meta.attr.2.stream.language.markup">eng</property>
  <property name="meta.attr.2.stream.handler_name.markup">Apple Alias Data Handler</property>
  <property name="meta.attr.2.stream.timecode.markup">17:38:54:28</property>
  <property name="meta.attr.com.apple.proapps.manufacturer.markup">Blackmagic Design</property>
  <property name="meta.attr.com.apple.proapps.cameraName.markup">CAM1</property>
  <property name="meta.attr.com.apple.proapps.isGood.markup">0</property>
  <property name="meta.attr.com.apple.proapps.customgamma.markup">com.blackmagic-design.cinemacamera.filmlog</property>
  <property name="meta.attr.com.blackmagic-design.cinemacamera.uuid.markup">18E5E00548F94923B646613A73C01B56</property>
  <property name="meta.attr.creation_time.markup">2018-12-10T17:38:54.000000Z</property>
  <property name="meta.attr.timecode.markup">17:38:54:28</property>
  <property name="seekable">1</property>
  <property name="meta.media.sample_aspect_num">1</property>
  <property name="meta.media.sample_aspect_den">1</property>
  <property name="audio_index">2</property>
  <property name="video_index">1</property>
  <property name="mute_on_pause">1</property>
  <property name="warp_speed">0,52</property>
  <property name="warp_resource">/media/bordun/plagiat/2018-12-10_Plagiat_RespecteLaPuissancePapale/Carte_3/CAM1_2018-12-10_1738_C0000.mov</property>
  <property name="mlt_service">timewarp</property>
  <property name="meta.media.frame_rate_num">50</property>
  <property name="meta.media.frame_rate_den">1</property>
  <property name="meta.media.colorspace">709</property>
  <property name="meta.media.color_trc">1</property>
  <property name="meta.media.width">1920</property>
  <property name="meta.media.height">1080</property>
  <property name="meta.media.top_field_first">0</property>
  <property name="meta.media.progressive">1</property>
  <filter id="filter65">
   <property name="version">0,1</property>
   <property name="mlt_service">frei0r.colgate</property>
   <property name="kdenlive_id">frei0r.colgate</property>
   <property name="tag">frei0r.colgate</property>
   <property name="kdenlive_ix">1</property>
   <property name="kdenlive_info"/>
   <property name="Neutral Color">0x7f7f7fff</property>
   <property name="Color Temperature">0=0,5</property>
  </filter>
  <filter id="filter66">
   <property name="version">0,3</property>
   <property name="mlt_service">frei0r.levels</property>
   <property name="kdenlive_id">frei0r.levels</property>
   <property name="tag">frei0r.levels</property>
   <property name="kdenlive_ix">2</property>
   <property name="kdenlive_info"/>
   <property name="Channel">0,3</property>
   <property name="Input black level">0=0,04</property>
   <property name="Input white level">0=0,95</property>
   <property name="Gamma">0=0,25</property>
   <property name="Black output">0=0</property>
   <property name="White output">0=1</property>
   <property name="Show histogram">0</property>
   <property name="Histogram position">0,3</property>
  </filter>
 </producer>
 <playlist id="playlist3">
  <property name="kdenlive:track_name">Vidéo 1</property>
  <property name="kdenlive:locked_track">1</property>
  <blank length="5124"/>
  <entry producer="11_playlist3" in="1503" out="2145"/>
  <entry producer="11_playlist3" in="2146" out="3873"/>
  <entry producer="slowmotion:11:0,3:1:0" in="12910" out="12975"/>
  <entry producer="slowmotion:11:1,6:1:0" in="2434" out="2496"/>
  <entry producer="11_playlist3" in="4000" out="4381"/>
  <entry producer="slowmotion:11:1,62:1:0" in="2704" out="2716"/>
  <entry producer="11_playlist3" in="4404" out="4467"/>
  <entry producer="slowmotion:11:0,47:1:0" in="9504" out="9537"/>
  <entry producer="11_playlist3" in="4485" out="4557"/>
  <entry producer="11_playlist3" in="4564" out="4611"/>
  <entry producer="slowmotion:11:0,5:1:0" in="9256" out="9286"/>
  <entry producer="11_playlist3" in="4649" out="4691"/>
  <entry producer="slowmotion:11:0,42:1:0" in="11171" out="11191"/>
  <entry producer="11_playlist3" in="4704" out="4869"/>
  <entry producer="11_playlist3" in="4874" out="5063"/>
  <entry producer="slowmotion:11:1,19:1:0" in="4255" out="4277"/>
  <entry producer="11_playlist3" in="5091" out="5190"/>
  <entry producer="slowmotion:11:1,33:1:0" in="3903" out="3920"/>
  <entry producer="slowmotion:11:0,8:1:0" in="6520" out="6547"/>
  <entry producer="slowmotion:11:0,94:1:0" in="5572" out="5666"/>
  <entry producer="11_playlist3" in="5327" out="5333"/>
  <entry producer="11_playlist3" in="5334" out="5456"/>
  <entry producer="11_playlist3" in="5466" out="5567"/>
  <entry producer="slowmotion:11:0,69:1:0" in="8070" out="8097"/>
  <entry producer="11_playlist3" in="5587" out="5898"/>
  <entry producer="slowmotion:11:1,17:1:0" in="5041" out="5134"/>
  <entry producer="11_playlist3" in="6008" out="6156"/>
  <entry producer="slowmotion:11:0,83:1:0" in="7416" out="7495"/>
  <entry producer="11_playlist3" in="6222" out="7979"/>
  <entry producer="11_playlist3" in="7987" out="8011"/>
  <entry producer="slowmotion:11:1,61:1:0" in="4976" out="4999"/>
  <entry producer="11_playlist3" in="8050" out="8079"/>
  <entry producer="slowmotion:11:0,52:1:0" in="15538" out="15582"/>
  <entry producer="11_playlist3" in="8104" out="8746"/>
  <blank length="30"/>
  <entry producer="11_playlist3" in="8747" out="9074"/>
  <entry producer="11_playlist3" in="9103" out="10609"/>
 </playlist>
 <playlist id="playlist9">
  <property name="kdenlive:track_name">Vidéo 7</property>
  <blank length="6360"/>
  <entry producer="46" in="0" out="59"/>
  <entry producer="46" in="0" out="296"/>
  <blank length="1352"/>
  <entry producer="46" in="2" out="119"/>
  <blank length="88"/>
  <entry producer="46" in="120" out="158"/>
  <blank length="212"/>
  <entry producer="46" in="120" out="207"/>
  <blank length="115"/>
  <entry producer="46" in="120" out="208"/>
  <blank length="370"/>
  <entry producer="46" in="0" out="97"/>
  <blank length="2020"/>
  <entry producer="46" in="120" out="225"/>
  <blank length="194"/>
  <entry producer="46" in="135" out="182"/>
  <blank length="625"/>
  <entry producer="46" in="135" out="153"/>
  <blank length="1142"/>
  <entry producer="46" in="53" out="194"/>
 </playlist>
 <producer id="slowmotion:29:0,5:1:0" in="0" out="20340">
  <property name="length">20341</property>
  <property name="eof">pause</property>
  <property name="resource">0,5:/media/bordun/plagiat/2018-12-10_Plagiat_RespecteLaPuissancePapale/Carte_3/CAM1_2018-12-10_1738_C0000_recale_2.mp4</property>
  <property name="aspect_ratio">1</property>
  <property name="meta.media.nb_streams">2</property>
  <property name="meta.media.0.stream.type">video</property>
  <property name="meta.media.0.stream.frame_rate">50</property>
  <property name="meta.media.0.stream.sample_aspect_ratio">1</property>
  <property name="meta.media.0.codec.width">1920</property>
  <property name="meta.media.0.codec.height">1080</property>
  <property name="meta.media.0.codec.rotate">0</property>
  <property name="meta.media.0.codec.frame_rate">50</property>
  <property name="meta.media.0.codec.pix_fmt">yuv420p</property>
  <property name="meta.media.0.codec.sample_aspect_ratio">1</property>
  <property name="meta.media.0.codec.colorspace">709</property>
  <property name="meta.media.0.codec.color_trc">1</property>
  <property name="meta.media.0.codec.name">h264</property>
  <property name="meta.media.0.codec.long_name">H.264 / AVC / MPEG-4 AVC / MPEG-4 part 10</property>
  <property name="meta.media.0.codec.bit_rate">313494539</property>
  <property name="meta.attr.0.stream.handler_name.markup">VideoHandler</property>
  <property name="meta.media.1.stream.type">audio</property>
  <property name="meta.media.1.codec.sample_fmt">fltp</property>
  <property name="meta.media.1.codec.sample_rate">48000</property>
  <property name="meta.media.1.codec.channels">2</property>
  <property name="meta.media.1.codec.name">aac</property>
  <property name="meta.media.1.codec.long_name">AAC (Advanced Audio Coding)</property>
  <property name="meta.media.1.codec.bit_rate">384820</property>
  <property name="meta.attr.1.stream.handler_name.markup">SoundHandler</property>
  <property name="meta.attr.major_brand.markup">isom</property>
  <property name="meta.attr.minor_version.markup">512</property>
  <property name="meta.attr.compatible_brands.markup">isomiso2avc1mp41</property>
  <property name="meta.attr.encoder.markup">Lavf58.20.100</property>
  <property name="seekable">1</property>
  <property name="meta.media.sample_aspect_num">1</property>
  <property name="meta.media.sample_aspect_den">1</property>
  <property name="audio_index">1</property>
  <property name="video_index">0</property>
  <property name="mute_on_pause">1</property>
  <property name="warp_speed">0,5</property>
  <property name="warp_resource">/media/bordun/plagiat/2018-12-10_Plagiat_RespecteLaPuissancePapale/Carte_3/CAM1_2018-12-10_1738_C0000_recale_2.mp4</property>
  <property name="mlt_service">timewarp</property>
  <property name="meta.media.frame_rate_num">50</property>
  <property name="meta.media.frame_rate_den">1</property>
  <property name="meta.media.colorspace">709</property>
  <property name="meta.media.color_trc">1</property>
  <property name="meta.media.width">1920</property>
  <property name="meta.media.height">1080</property>
  <property name="meta.media.top_field_first">0</property>
  <property name="meta.media.progressive">1</property>
  <filter id="filter69">
   <property name="version">0,1</property>
   <property name="mlt_service">frei0r.colgate</property>
   <property name="kdenlive_id">frei0r.colgate</property>
   <property name="tag">frei0r.colgate</property>
   <property name="kdenlive_ix">1</property>
   <property name="kdenlive_info"/>
   <property name="Neutral Color">0x7f7f7fff</property>
   <property name="Color Temperature">0=0,5</property>
  </filter>
  <filter id="filter70">
   <property name="version">0,3</property>
   <property name="mlt_service">frei0r.levels</property>
   <property name="kdenlive_id">frei0r.levels</property>
   <property name="tag">frei0r.levels</property>
   <property name="kdenlive_ix">2</property>
   <property name="kdenlive_info"/>
   <property name="Channel">0,3</property>
   <property name="Input black level">0=0,04</property>
   <property name="Input white level">0=0,95</property>
   <property name="Gamma">0=0,25</property>
   <property name="Black output">0=0</property>
   <property name="White output">0=1</property>
   <property name="Show histogram">0</property>
   <property name="Histogram position">0,3</property>
  </filter>
 </producer>
 <producer title="Anonymous Submission" id="11_playlist6" in="0" out="21338">
  <property name="length">00:07:06:39</property>
  <property name="eof">pause</property>
  <property name="resource">/media/bordun/plagiat/2018-12-10_Plagiat_RespecteLaPuissancePapale/Carte_3/CAM1_2018-12-10_1738_C0000.mov</property>
  <property name="audio_index">2</property>
  <property name="video_index">1</property>
  <property name="mute_on_pause">1</property>
  <property name="mlt_service">avformat-novalidate</property>
  <property name="seekable">1</property>
  <property name="aspect_ratio">1</property>
  <property name="kdenlive:folderid">12</property>
  <property name="kdenlive:file_size">19701162913</property>
  <property name="kdenlive:file_hash">7247768fd7b55d6de0224125e0ef06f4</property>
  <property name="global_feed">1</property>
  <property name="xml">was here</property>
  <property name="meta.media.nb_streams">3</property>
  <property name="meta.media.1.stream.type">video</property>
  <property name="meta.media.1.stream.frame_rate">50</property>
  <property name="meta.media.1.stream.sample_aspect_ratio">1</property>
  <property name="meta.media.1.codec.width">1920</property>
  <property name="meta.media.1.codec.height">1080</property>
  <property name="meta.media.1.codec.rotate">0</property>
  <property name="meta.media.1.codec.frame_rate">5000</property>
  <property name="meta.media.1.codec.pix_fmt">yuv422p10le</property>
  <property name="meta.media.1.codec.sample_aspect_ratio">0</property>
  <property name="meta.media.1.codec.colorspace">709</property>
  <property name="meta.media.1.codec.name">prores</property>
  <property name="meta.media.1.codec.long_name">ProRes</property>
  <property name="meta.media.1.codec.bit_rate">366957439</property>
  <property name="meta.attr.1.stream.creation_time.markup">2018-12-10T17:38:54.000000Z</property>
  <property name="meta.attr.1.stream.language.markup">eng</property>
  <property name="meta.attr.1.stream.handler_name.markup">Apple Alias Data Handler</property>
  <property name="meta.attr.1.stream.encoder.markup">Apple ProRes 422 HQ</property>
  <property name="meta.attr.1.stream.timecode.markup">17:38:54:28</property>
  <property name="meta.media.2.stream.type">audio</property>
  <property name="meta.media.2.codec.sample_fmt">s32</property>
  <property name="meta.media.2.codec.sample_rate">48000</property>
  <property name="meta.media.2.codec.channels">2</property>
  <property name="meta.media.2.codec.name">pcm_s24le</property>
  <property name="meta.media.2.codec.long_name">PCM signed 24-bit little-endian</property>
  <property name="meta.media.2.codec.bit_rate">2304000</property>
  <property name="meta.attr.2.stream.creation_time.markup">2018-12-10T17:38:54.000000Z</property>
  <property name="meta.attr.2.stream.language.markup">eng</property>
  <property name="meta.attr.2.stream.handler_name.markup">Apple Alias Data Handler</property>
  <property name="meta.attr.2.stream.timecode.markup">17:38:54:28</property>
  <property name="meta.attr.com.apple.proapps.manufacturer.markup">Blackmagic Design</property>
  <property name="meta.attr.com.apple.proapps.cameraName.markup">CAM1</property>
  <property name="meta.attr.com.apple.proapps.isGood.markup">0</property>
  <property name="meta.attr.com.apple.proapps.customgamma.markup">com.blackmagic-design.cinemacamera.filmlog</property>
  <property name="meta.attr.com.blackmagic-design.cinemacamera.uuid.markup">18E5E00548F94923B646613A73C01B56</property>
  <property name="meta.attr.creation_time.markup">2018-12-10T17:38:54.000000Z</property>
  <property name="meta.attr.timecode.markup">17:38:54:28</property>
  <property name="meta.media.sample_aspect_num">1</property>
  <property name="meta.media.sample_aspect_den">1</property>
  <property name="meta.media.frame_rate_num">50</property>
  <property name="meta.media.frame_rate_den">1</property>
  <property name="meta.media.colorspace">709</property>
  <property name="meta.media.color_trc">1</property>
  <property name="meta.media.width">1920</property>
  <property name="meta.media.height">1080</property>
  <property name="meta.media.top_field_first">0</property>
  <property name="meta.media.progressive">1</property>
  <property name="meta.media.1.codec.color_trc">1</property>
  <filter id="filter71">
   <property name="version">0,1</property>
   <property name="mlt_service">frei0r.colgate</property>
   <property name="kdenlive_id">frei0r.colgate</property>
   <property name="tag">frei0r.colgate</property>
   <property name="kdenlive_ix">1</property>
   <property name="kdenlive_info"/>
   <property name="Neutral Color">0x7f7f7fff</property>
   <property name="Color Temperature">0=0,5</property>
  </filter>
  <filter id="filter72">
   <property name="version">0,3</property>
   <property name="mlt_service">frei0r.levels</property>
   <property name="kdenlive_id">frei0r.levels</property>
   <property name="tag">frei0r.levels</property>
   <property name="kdenlive_ix">2</property>
   <property name="kdenlive_info"/>
   <property name="Channel">0,3</property>
   <property name="Input black level">0=0,04</property>
   <property name="Input white level">0=0,95</property>
   <property name="Gamma">0=0,25</property>
   <property name="Black output">0=0</property>
   <property name="White output">0=1</property>
   <property name="Show histogram">0</property>
   <property name="Histogram position">0,3</property>
  </filter>
 </producer>
 <producer title="Anonymous Submission" id="29_playlist6" in="0" out="10170">
  <property name="length">00:03:23:21</property>
  <property name="eof">pause</property>
  <property name="resource">/media/bordun/plagiat/2018-12-10_Plagiat_RespecteLaPuissancePapale/Carte_3/CAM1_2018-12-10_1738_C0000_recale_2.mp4</property>
  <property name="audio_index">1</property>
  <property name="video_index">0</property>
  <property name="mute_on_pause">1</property>
  <property name="mlt_service">avformat-novalidate</property>
  <property name="seekable">1</property>
  <property name="aspect_ratio">1</property>
  <property name="kdenlive:folderid">12</property>
  <property name="kdenlive:file_size">7979837430</property>
  <property name="kdenlive:file_hash">3f4177aefc0d609892c60f5fe6de98b8</property>
  <property name="global_feed">1</property>
  <property name="xml">was here</property>
  <property name="meta.media.nb_streams">2</property>
  <property name="meta.media.0.stream.type">video</property>
  <property name="meta.media.0.stream.frame_rate">50</property>
  <property name="meta.media.0.stream.sample_aspect_ratio">1</property>
  <property name="meta.media.0.codec.width">1920</property>
  <property name="meta.media.0.codec.height">1080</property>
  <property name="meta.media.0.codec.rotate">0</property>
  <property name="meta.media.0.codec.frame_rate">50</property>
  <property name="meta.media.0.codec.pix_fmt">yuv420p</property>
  <property name="meta.media.0.codec.sample_aspect_ratio">1</property>
  <property name="meta.media.0.codec.colorspace">709</property>
  <property name="meta.media.0.codec.color_trc">1</property>
  <property name="meta.media.0.codec.name">h264</property>
  <property name="meta.media.0.codec.long_name">H.264 / AVC / MPEG-4 AVC / MPEG-4 part 10</property>
  <property name="meta.media.0.codec.bit_rate">313494539</property>
  <property name="meta.attr.0.stream.handler_name.markup">VideoHandler</property>
  <property name="meta.media.1.stream.type">audio</property>
  <property name="meta.media.1.codec.sample_fmt">fltp</property>
  <property name="meta.media.1.codec.sample_rate">48000</property>
  <property name="meta.media.1.codec.channels">2</property>
  <property name="meta.media.1.codec.name">aac</property>
  <property name="meta.media.1.codec.long_name">AAC (Advanced Audio Coding)</property>
  <property name="meta.media.1.codec.bit_rate">384820</property>
  <property name="meta.attr.1.stream.handler_name.markup">SoundHandler</property>
  <property name="meta.attr.major_brand.markup">isom</property>
  <property name="meta.attr.minor_version.markup">512</property>
  <property name="meta.attr.compatible_brands.markup">isomiso2avc1mp41</property>
  <property name="meta.attr.encoder.markup">Lavf58.20.100</property>
  <property name="meta.media.sample_aspect_num">1</property>
  <property name="meta.media.sample_aspect_den">1</property>
  <property name="meta.media.frame_rate_num">50</property>
  <property name="meta.media.frame_rate_den">1</property>
  <property name="meta.media.colorspace">709</property>
  <property name="meta.media.color_trc">1</property>
  <property name="meta.media.width">1920</property>
  <property name="meta.media.height">1080</property>
  <property name="meta.media.top_field_first">0</property>
  <property name="meta.media.progressive">1</property>
  <filter id="filter73">
   <property name="version">0,1</property>
   <property name="mlt_service">frei0r.colgate</property>
   <property name="kdenlive_id">frei0r.colgate</property>
   <property name="tag">frei0r.colgate</property>
   <property name="kdenlive_ix">1</property>
   <property name="kdenlive_info"/>
   <property name="Neutral Color">0x7f7f7fff</property>
   <property name="Color Temperature">0=0,5</property>
  </filter>
  <filter id="filter74">
   <property name="version">0,3</property>
   <property name="mlt_service">frei0r.levels</property>
   <property name="kdenlive_id">frei0r.levels</property>
   <property name="tag">frei0r.levels</property>
   <property name="kdenlive_ix">2</property>
   <property name="kdenlive_info"/>
   <property name="Channel">0,3</property>
   <property name="Input black level">0=0,04</property>
   <property name="Input white level">0=0,95</property>
   <property name="Gamma">0=0,25</property>
   <property name="Black output">0=0</property>
   <property name="White output">0=1</property>
   <property name="Show histogram">0</property>
   <property name="Histogram position">0,3</property>
  </filter>
 </producer>
 <producer title="Anonymous Submission" id="producer1" in="0" out="10170">
  <property name="length">00:03:23:21</property>
  <property name="eof">pause</property>
  <property name="resource">/media/bordun/plagiat/2018-12-10_Plagiat_RespecteLaPuissancePapale/Carte_3/CAM1_2018-12-10_1738_C0000_recale_2.mp4</property>
  <property name="audio_index">-1</property>
  <property name="video_index">-1</property>
  <property name="mute_on_pause">1</property>
  <property name="mlt_service">avformat-novalidate</property>
  <property name="seekable">1</property>
  <property name="aspect_ratio">1</property>
  <property name="kdenlive:folderid">12</property>
  <property name="kdenlive:file_size">7979837430</property>
  <property name="kdenlive:file_hash">3f4177aefc0d609892c60f5fe6de98b8</property>
  <property name="global_feed">1</property>
  <property name="xml">was here</property>
  <property name="kdenlive:binid">29</property>
  <property name="kdenlive:clipstate">0</property>
  <filter id="filter75">
   <property name="version">0,1</property>
   <property name="mlt_service">frei0r.colgate</property>
   <property name="kdenlive_id">frei0r.colgate</property>
   <property name="tag">frei0r.colgate</property>
   <property name="kdenlive_ix">1</property>
   <property name="kdenlive_info"/>
   <property name="Neutral Color">0x7f7f7fff</property>
   <property name="Color Temperature">0=0,533333</property>
  </filter>
  <filter id="filter76">
   <property name="version">0,3</property>
   <property name="mlt_service">frei0r.levels</property>
   <property name="kdenlive_id">frei0r.levels</property>
   <property name="tag">frei0r.levels</property>
   <property name="kdenlive_ix">2</property>
   <property name="kdenlive_info"/>
   <property name="Channel">0,3</property>
   <property name="Input black level">0=0,06</property>
   <property name="Input white level">0=0,95</property>
   <property name="Gamma">0=0,3125</property>
   <property name="Black output">0=0</property>
   <property name="White output">0=1</property>
   <property name="Show histogram">0</property>
   <property name="Histogram position">0,3</property>
  </filter>
 </producer>
 <producer id="slowmotion:29:0,75:1:0" in="0" out="13560">
  <property name="length">13561</property>
  <property name="eof">pause</property>
  <property name="resource">0,75:/media/bordun/plagiat/2018-12-10_Plagiat_RespecteLaPuissancePapale/Carte_3/CAM1_2018-12-10_1738_C0000_recale_2.mp4</property>
  <property name="aspect_ratio">1</property>
  <property name="meta.media.nb_streams">2</property>
  <property name="meta.media.0.stream.type">video</property>
  <property name="meta.media.0.stream.frame_rate">50</property>
  <property name="meta.media.0.stream.sample_aspect_ratio">1</property>
  <property name="meta.media.0.codec.width">1920</property>
  <property name="meta.media.0.codec.height">1080</property>
  <property name="meta.media.0.codec.rotate">0</property>
  <property name="meta.media.0.codec.frame_rate">50</property>
  <property name="meta.media.0.codec.pix_fmt">yuv420p</property>
  <property name="meta.media.0.codec.sample_aspect_ratio">1</property>
  <property name="meta.media.0.codec.colorspace">709</property>
  <property name="meta.media.0.codec.color_trc">1</property>
  <property name="meta.media.0.codec.name">h264</property>
  <property name="meta.media.0.codec.long_name">H.264 / AVC / MPEG-4 AVC / MPEG-4 part 10</property>
  <property name="meta.media.0.codec.bit_rate">313494539</property>
  <property name="meta.attr.0.stream.handler_name.markup">VideoHandler</property>
  <property name="meta.media.1.stream.type">audio</property>
  <property name="meta.media.1.codec.sample_fmt">fltp</property>
  <property name="meta.media.1.codec.sample_rate">48000</property>
  <property name="meta.media.1.codec.channels">2</property>
  <property name="meta.media.1.codec.name">aac</property>
  <property name="meta.media.1.codec.long_name">AAC (Advanced Audio Coding)</property>
  <property name="meta.media.1.codec.bit_rate">384820</property>
  <property name="meta.attr.1.stream.handler_name.markup">SoundHandler</property>
  <property name="meta.attr.major_brand.markup">isom</property>
  <property name="meta.attr.minor_version.markup">512</property>
  <property name="meta.attr.compatible_brands.markup">isomiso2avc1mp41</property>
  <property name="meta.attr.encoder.markup">Lavf58.20.100</property>
  <property name="seekable">1</property>
  <property name="meta.media.sample_aspect_num">1</property>
  <property name="meta.media.sample_aspect_den">1</property>
  <property name="audio_index">1</property>
  <property name="video_index">0</property>
  <property name="mute_on_pause">1</property>
  <property name="warp_speed">0,75</property>
  <property name="warp_resource">/media/bordun/plagiat/2018-12-10_Plagiat_RespecteLaPuissancePapale/Carte_3/CAM1_2018-12-10_1738_C0000_recale_2.mp4</property>
  <property name="mlt_service">timewarp</property>
  <property name="meta.media.frame_rate_num">50</property>
  <property name="meta.media.frame_rate_den">1</property>
  <property name="meta.media.colorspace">709</property>
  <property name="meta.media.color_trc">1</property>
  <property name="meta.media.width">1920</property>
  <property name="meta.media.height">1080</property>
  <property name="meta.media.top_field_first">0</property>
  <property name="meta.media.progressive">1</property>
  <filter id="filter77">
   <property name="version">0,1</property>
   <property name="mlt_service">frei0r.colgate</property>
   <property name="kdenlive_id">frei0r.colgate</property>
   <property name="tag">frei0r.colgate</property>
   <property name="kdenlive_ix">1</property>
   <property name="kdenlive_info"/>
   <property name="Neutral Color">0x7f7f7fff</property>
   <property name="Color Temperature">0=0,5</property>
  </filter>
  <filter id="filter78">
   <property name="version">0,3</property>
   <property name="mlt_service">frei0r.levels</property>
   <property name="kdenlive_id">frei0r.levels</property>
   <property name="tag">frei0r.levels</property>
   <property name="kdenlive_ix">2</property>
   <property name="kdenlive_info"/>
   <property name="Channel">0,3</property>
   <property name="Input black level">0=0,04</property>
   <property name="Input white level">0=0,95</property>
   <property name="Gamma">0=0,25</property>
   <property name="Black output">0=0</property>
   <property name="White output">0=1</property>
   <property name="Show histogram">0</property>
   <property name="Histogram position">0,3</property>
  </filter>
 </producer>
 <producer id="slowmotion:29:0,87:1:0" in="0" out="11689">
  <property name="length">11690</property>
  <property name="eof">pause</property>
  <property name="resource">0,87:/media/bordun/plagiat/2018-12-10_Plagiat_RespecteLaPuissancePapale/Carte_3/CAM1_2018-12-10_1738_C0000_recale_2.mp4</property>
  <property name="aspect_ratio">1</property>
  <property name="meta.media.nb_streams">2</property>
  <property name="meta.media.0.stream.type">video</property>
  <property name="meta.media.0.stream.frame_rate">50</property>
  <property name="meta.media.0.stream.sample_aspect_ratio">1</property>
  <property name="meta.media.0.codec.width">1920</property>
  <property name="meta.media.0.codec.height">1080</property>
  <property name="meta.media.0.codec.rotate">0</property>
  <property name="meta.media.0.codec.frame_rate">50</property>
  <property name="meta.media.0.codec.pix_fmt">yuv420p</property>
  <property name="meta.media.0.codec.sample_aspect_ratio">1</property>
  <property name="meta.media.0.codec.colorspace">709</property>
  <property name="meta.media.0.codec.color_trc">1</property>
  <property name="meta.media.0.codec.name">h264</property>
  <property name="meta.media.0.codec.long_name">H.264 / AVC / MPEG-4 AVC / MPEG-4 part 10</property>
  <property name="meta.media.0.codec.bit_rate">313494539</property>
  <property name="meta.attr.0.stream.handler_name.markup">VideoHandler</property>
  <property name="meta.media.1.stream.type">audio</property>
  <property name="meta.media.1.codec.sample_fmt">fltp</property>
  <property name="meta.media.1.codec.sample_rate">48000</property>
  <property name="meta.media.1.codec.channels">2</property>
  <property name="meta.media.1.codec.name">aac</property>
  <property name="meta.media.1.codec.long_name">AAC (Advanced Audio Coding)</property>
  <property name="meta.media.1.codec.bit_rate">384820</property>
  <property name="meta.attr.1.stream.handler_name.markup">SoundHandler</property>
  <property name="meta.attr.major_brand.markup">isom</property>
  <property name="meta.attr.minor_version.markup">512</property>
  <property name="meta.attr.compatible_brands.markup">isomiso2avc1mp41</property>
  <property name="meta.attr.encoder.markup">Lavf58.20.100</property>
  <property name="seekable">1</property>
  <property name="meta.media.sample_aspect_num">1</property>
  <property name="meta.media.sample_aspect_den">1</property>
  <property name="audio_index">1</property>
  <property name="video_index">0</property>
  <property name="mute_on_pause">1</property>
  <property name="warp_speed">0,87</property>
  <property name="warp_resource">/media/bordun/plagiat/2018-12-10_Plagiat_RespecteLaPuissancePapale/Carte_3/CAM1_2018-12-10_1738_C0000_recale_2.mp4</property>
  <property name="mlt_service">timewarp</property>
  <property name="meta.media.frame_rate_num">50</property>
  <property name="meta.media.frame_rate_den">1</property>
  <property name="meta.media.colorspace">709</property>
  <property name="meta.media.color_trc">1</property>
  <property name="meta.media.width">1920</property>
  <property name="meta.media.height">1080</property>
  <property name="meta.media.top_field_first">0</property>
  <property name="meta.media.progressive">1</property>
  <filter id="filter79">
   <property name="version">0,1</property>
   <property name="mlt_service">frei0r.colgate</property>
   <property name="kdenlive_id">frei0r.colgate</property>
   <property name="tag">frei0r.colgate</property>
   <property name="kdenlive_ix">1</property>
   <property name="kdenlive_info"/>
   <property name="Neutral Color">0x7f7f7fff</property>
   <property name="Color Temperature">0=0,5</property>
  </filter>
  <filter id="filter80">
   <property name="version">0,3</property>
   <property name="mlt_service">frei0r.levels</property>
   <property name="kdenlive_id">frei0r.levels</property>
   <property name="tag">frei0r.levels</property>
   <property name="kdenlive_ix">2</property>
   <property name="kdenlive_info"/>
   <property name="Channel">0,3</property>
   <property name="Input black level">0=0,04</property>
   <property name="Input white level">0=0,95</property>
   <property name="Gamma">0=0,25</property>
   <property name="Black output">0=0</property>
   <property name="White output">0=1</property>
   <property name="Show histogram">0</property>
   <property name="Histogram position">0,3</property>
  </filter>
 </producer>
 <producer id="slowmotion:29:0,6:1:0" in="0" out="16950">
  <property name="length">16951</property>
  <property name="eof">pause</property>
  <property name="resource">0,6:/media/bordun/plagiat/2018-12-10_Plagiat_RespecteLaPuissancePapale/Carte_3/CAM1_2018-12-10_1738_C0000_recale_2.mp4</property>
  <property name="aspect_ratio">1</property>
  <property name="meta.media.nb_streams">2</property>
  <property name="meta.media.0.stream.type">video</property>
  <property name="meta.media.0.stream.frame_rate">50</property>
  <property name="meta.media.0.stream.sample_aspect_ratio">1</property>
  <property name="meta.media.0.codec.width">1920</property>
  <property name="meta.media.0.codec.height">1080</property>
  <property name="meta.media.0.codec.rotate">0</property>
  <property name="meta.media.0.codec.frame_rate">50</property>
  <property name="meta.media.0.codec.pix_fmt">yuv420p</property>
  <property name="meta.media.0.codec.sample_aspect_ratio">1</property>
  <property name="meta.media.0.codec.colorspace">709</property>
  <property name="meta.media.0.codec.color_trc">1</property>
  <property name="meta.media.0.codec.name">h264</property>
  <property name="meta.media.0.codec.long_name">H.264 / AVC / MPEG-4 AVC / MPEG-4 part 10</property>
  <property name="meta.media.0.codec.bit_rate">313494539</property>
  <property name="meta.attr.0.stream.handler_name.markup">VideoHandler</property>
  <property name="meta.media.1.stream.type">audio</property>
  <property name="meta.media.1.codec.sample_fmt">fltp</property>
  <property name="meta.media.1.codec.sample_rate">48000</property>
  <property name="meta.media.1.codec.channels">2</property>
  <property name="meta.media.1.codec.name">aac</property>
  <property name="meta.media.1.codec.long_name">AAC (Advanced Audio Coding)</property>
  <property name="meta.media.1.codec.bit_rate">384820</property>
  <property name="meta.attr.1.stream.handler_name.markup">SoundHandler</property>
  <property name="meta.attr.major_brand.markup">isom</property>
  <property name="meta.attr.minor_version.markup">512</property>
  <property name="meta.attr.compatible_brands.markup">isomiso2avc1mp41</property>
  <property name="meta.attr.encoder.markup">Lavf58.20.100</property>
  <property name="seekable">1</property>
  <property name="meta.media.sample_aspect_num">1</property>
  <property name="meta.media.sample_aspect_den">1</property>
  <property name="audio_index">1</property>
  <property name="video_index">0</property>
  <property name="mute_on_pause">1</property>
  <property name="warp_speed">0,6</property>
  <property name="warp_resource">/media/bordun/plagiat/2018-12-10_Plagiat_RespecteLaPuissancePapale/Carte_3/CAM1_2018-12-10_1738_C0000_recale_2.mp4</property>
  <property name="mlt_service">timewarp</property>
  <property name="meta.media.frame_rate_num">50</property>
  <property name="meta.media.frame_rate_den">1</property>
  <property name="meta.media.colorspace">709</property>
  <property name="meta.media.color_trc">1</property>
  <property name="meta.media.width">1920</property>
  <property name="meta.media.height">1080</property>
  <property name="meta.media.top_field_first">0</property>
  <property name="meta.media.progressive">1</property>
  <filter id="filter81">
   <property name="version">0,1</property>
   <property name="mlt_service">frei0r.colgate</property>
   <property name="kdenlive_id">frei0r.colgate</property>
   <property name="tag">frei0r.colgate</property>
   <property name="kdenlive_ix">1</property>
   <property name="kdenlive_info"/>
   <property name="Neutral Color">0x7f7f7fff</property>
   <property name="Color Temperature">0=0,5</property>
  </filter>
  <filter id="filter82">
   <property name="version">0,3</property>
   <property name="mlt_service">frei0r.levels</property>
   <property name="kdenlive_id">frei0r.levels</property>
   <property name="tag">frei0r.levels</property>
   <property name="kdenlive_ix">2</property>
   <property name="kdenlive_info"/>
   <property name="Channel">0,3</property>
   <property name="Input black level">0=0,04</property>
   <property name="Input white level">0=0,95</property>
   <property name="Gamma">0=0,25</property>
   <property name="Black output">0=0</property>
   <property name="White output">0=1</property>
   <property name="Show histogram">0</property>
   <property name="Histogram position">0,3</property>
  </filter>
 </producer>
 <playlist id="playlist6">
  <property name="kdenlive:track_name">Vidéo 4</property>
  <blank length="5604"/>
  <entry producer="slowmotion:29:0,5:1:0" in="17729" out="18069"/>
  <entry producer="slowmotion:29:0,5:1:0" in="18070" out="18073"/>
  <blank length="49"/>
  <entry producer="slowmotion:29:0,5:1:0" in="18070" out="18074"/>
  <blank length="118"/>
  <entry producer="11_playlist6" in="12933" out="13309">
   <filter id="rotoscoping">
    <property name="mode">alpha</property>
    <property name="alpha_operation">clear</property>
    <property name="invert">1</property>
    <property name="feather">0</property>
    <property name="feather_passes">1</property>
    <property name="mlt_service">rotoscoping</property>
    <property name="kdenlive_id">rotoscoping</property>
    <property name="tag">rotoscoping</property>
    <property name="kdenlive_ix">1</property>
    <property name="spline">[
    [
        [
            0.8360613810741688,
            0.34677465188974144
        ],
        [
            0.8069053708439898,
            0.3294970161977835
        ],
        [
            0.8092071611253198,
            0.40042625745950555
        ]
    ],
    [
        [
            0.8058823529411765,
            0.6973287865870985
        ],
        [
            0.8081841432225064,
            0.7682580278488207
        ],
        [
            0.8381074168797954,
            0.7809889173060528
        ]
    ],
    [
        [
            0.9496163682864451,
            0.7691673770957659
        ],
        [
            0.9795396419437341,
            0.781898266552998
        ],
        [
            0.9764705882352942,
            0.7155157715260017
        ]
    ],
    [
        [
            0.9557544757033247,
            0.4822676896845695
        ],
        [
            0.9526854219948848,
            0.4158851946575732
        ],
        [
            0.9235294117647058,
            0.3986075589656152
        ]
    ]
]
</property>
    <property name="kdenlive_info"/>
   </filter>
  </entry>
  <blank length="124"/>
  <entry producer="11_playlist6" in="13434" out="13648">
   <filter id="filter83">
    <property name="mode">alpha</property>
    <property name="alpha_operation">clear</property>
    <property name="invert">1</property>
    <property name="feather">0</property>
    <property name="feather_passes">1</property>
    <property name="mlt_service">rotoscoping</property>
    <property name="kdenlive_id">rotoscoping</property>
    <property name="tag">rotoscoping</property>
    <property name="kdenlive_ix">1</property>
    <property name="spline">[
    [
        [
            0.883375959079284,
            0.6655015629440182
        ],
        [
            0.8529411764705883,
            0.6682296106848536
        ],
        [
            0.8529411764705883,
            0.6932367149758454
        ]
    ],
    [
        [
            0.8375959079283888,
            0.7932651321398124
        ],
        [
            0.8375959079283888,
            0.8182722364308042
        ],
        [
            0.8672634271099745,
            0.8232736572890025
        ]
    ],
    [
        [
            0.9562659846547314,
            0.8382779198635976
        ],
        [
            0.9859335038363172,
            0.8432793407217959
        ],
        [
            0.9867007672634271,
            0.8105427678317704
        ]
    ],
    [
        [
            0.989002557544757,
            0.7123330491616937
        ],
        [
            0.989769820971867,
            0.6795964762716682
        ],
        [
            0.9593350383631714,
            0.6823245240125035
        ]
    ]
]
</property>
    <property name="kdenlive_info"/>
    <property name="disable"/>
   </filter>
  </entry>
  <blank length="385"/>
  <entry producer="29_playlist6" in="2223" out="2449"/>
  <blank length="122"/>
  <entry producer="29_playlist6" in="2450" out="2947"/>
  <entry producer="29_playlist6" in="2948" out="2980">
   <filter id="filter84">
    <property name="mode">alpha</property>
    <property name="alpha_operation">clear</property>
    <property name="invert">1</property>
    <property name="feather">0</property>
    <property name="feather_passes">1</property>
    <property name="mlt_service">rotoscoping</property>
    <property name="kdenlive_id">rotoscoping</property>
    <property name="tag">rotoscoping</property>
    <property name="kdenlive_ix">1</property>
    <property name="spline">[
    [
        [
            0.9166240409207161,
            0.3208581983518046
        ],
        [
            0.8925831202046036,
            0.31585677749360613
        ],
        [
            0.8877237851662405,
            0.37905655015629447
        ]
    ],
    [
        [
            0.8296675191815857,
            0.9619494174481386
        ],
        [
            0.8248081841432225,
            1.025149190110827
        ],
        [
            0.8562659846547315,
            1.0228758169934642
        ]
    ],
    [
        [
            0.9608695652173914,
            1.0342426825802784
        ],
        [
            0.9923273657289003,
            1.0319693094629154
        ],
        [
            0.989769820971867,
            0.9760443307757883
        ]
    ],
    [
        [
            1.0447570332480818,
            0.39678886047172485
        ],
        [
            1.0421994884910486,
            0.3408638817845979
        ],
        [
            1.018158567774936,
            0.33586246092639943
        ]
    ]
]
</property>
    <property name="kdenlive_info"/>
   </filter>
  </entry>
  <blank length="37"/>
  <entry producer="29_playlist6" in="3013" out="3046">
   <filter id="filter85">
    <property name="mode">alpha</property>
    <property name="alpha_operation">clear</property>
    <property name="invert">1</property>
    <property name="feather">0</property>
    <property name="feather_passes">1</property>
    <property name="mlt_service">rotoscoping</property>
    <property name="kdenlive_id">rotoscoping</property>
    <property name="tag">rotoscoping</property>
    <property name="kdenlive_ix">1</property>
    <property name="spline">[
    [
        [
            0.9166240409207161,
            0.3208581983518046
        ],
        [
            0.8925831202046036,
            0.31585677749360613
        ],
        [
            0.8877237851662405,
            0.37905655015629447
        ]
    ],
    [
        [
            0.8296675191815857,
            0.9619494174481386
        ],
        [
            0.8248081841432225,
            1.025149190110827
        ],
        [
            0.8562659846547315,
            1.0228758169934642
        ]
    ],
    [
        [
            0.9608695652173914,
            1.0342426825802784
        ],
        [
            0.9923273657289003,
            1.0319693094629154
        ],
        [
            0.989769820971867,
            0.9760443307757883
        ]
    ],
    [
        [
            1.0447570332480818,
            0.39678886047172485
        ],
        [
            1.0421994884910486,
            0.3408638817845979
        ],
        [
            1.018158567774936,
            0.33586246092639943
        ]
    ]
]
</property>
    <property name="kdenlive_info"/>
   </filter>
  </entry>
  <blank length="85"/>
  <entry producer="producer1" in="3137" out="3277"/>
  <blank length="8"/>
  <entry producer="29_playlist6" in="3278" out="3396"/>
  <blank length="88"/>
  <entry producer="29_playlist6" in="3493" out="3607"/>
  <entry producer="29_playlist6" in="3608" out="3696">
   <filter id="filter86">
    <property name="mode">alpha</property>
    <property name="alpha_operation">clear</property>
    <property name="invert">1</property>
    <property name="feather">0</property>
    <property name="feather_passes">1</property>
    <property name="mlt_service">rotoscoping</property>
    <property name="kdenlive_id">rotoscoping</property>
    <property name="tag">rotoscoping</property>
    <property name="kdenlive_ix">1</property>
    <property name="spline">{
    "3608": [
        [
            [
                1.0383631713554986,
                0.658226768968457
            ],
            [
                1.037084398976982,
                0.6023017902813299
            ],
            [
                1.0273657289002558,
                0.6586814435919296
            ]
        ],
        [
            [
                0.929156010230179,
                0.9824097755044046
            ],
            [
                0.9194373401534527,
                1.0387894288150041
            ],
            [
                0.9304347826086957,
                1.0383347541915318
            ]
        ],
        [
            [
                1.0286445012787724,
                1.0415174765558397
            ],
            [
                1.0396419437340154,
                1.041062801932367
            ],
            [
                1.0383631713554986,
                0.9851378232452401
            ]
        ]
    ],
    "3635": [
        [
            [
                1.0383631713554986,
                0.658226768968457
            ],
            [
                1.037084398976982,
                0.6023017902813299
            ],
            [
                1.0273657289002558,
                0.6586814435919296
            ]
        ],
        [
            [
                0.929156010230179,
                0.9824097755044046
            ],
            [
                0.9194373401534527,
                1.0387894288150041
            ],
            [
                0.9304347826086957,
                1.0383347541915318
            ]
        ],
        [
            [
                1.0286445012787724,
                1.0415174765558397
            ],
            [
                1.0396419437340154,
                1.041062801932367
            ],
            [
                1.0383631713554986,
                0.9851378232452401
            ]
        ]
    ],
    "3649": [
        [
            [
                1.0383631713554986,
                0.658226768968457
            ],
            [
                1.037084398976982,
                0.6023017902813299
            ],
            [
                1.0273657289002558,
                0.6586814435919296
            ]
        ],
        [
            [
                0.9675191815856777,
                0.952855924978687
            ],
            [
                0.9578005115089514,
                1.0092355782892866
            ],
            [
                0.9687979539641944,
                1.0087809036658142
            ]
        ],
        [
            [
                1.0286445012787724,
                1.0415174765558397
            ],
            [
                1.0396419437340154,
                1.041062801932367
            ],
            [
                1.0383631713554986,
                0.9851378232452401
            ]
        ]
    ]
}
</property>
    <property name="kdenlive_info"/>
   </filter>
  </entry>
  <entry producer="29_playlist6" in="3697" out="3801"/>
  <entry producer="29_playlist6" in="3807" out="3830"/>
  <entry producer="46" in="0" out="59"/>
  <entry producer="29_playlist6" in="3886" out="4066"/>
  <entry producer="29_playlist6" in="4067" out="4164">
   <filter id="filter87">
    <property name="mode">alpha</property>
    <property name="alpha_operation">clear</property>
    <property name="invert">1</property>
    <property name="feather">0</property>
    <property name="feather_passes">1</property>
    <property name="mlt_service">rotoscoping</property>
    <property name="kdenlive_id">rotoscoping</property>
    <property name="tag">rotoscoping</property>
    <property name="kdenlive_ix">1</property>
    <property name="spline">[
    [
        [
            0.94624145785877,
            0.8057453809162238
        ],
        [
            0.9225512528473805,
            0.7956213616805873
        ],
        [
            0.9189066059225512,
            0.8211338901543913
        ]
    ],
    [
        [
            0.8692482915717541,
            0.9766388256137688
        ],
        [
            0.8656036446469249,
            1.0021513540875728
        ],
        [
            0.8915717539863326,
            1.0151100987091877
        ]
    ],
    [
        [
            1.0195899772209567,
            1.0884079979751962
        ],
        [
            1.0455580865603644,
            1.101366742596811
        ],
        [
            1.0469248291571753,
            1.0730194887370286
        ]
    ],
    [
        [
            1.0328018223234625,
            0.8563654770944066
        ],
        [
            1.0341685649202734,
            0.8280182232346242
        ],
        [
            1.0104783599088838,
            0.8178942039989876
        ]
    ]
]
</property>
    <property name="kdenlive_info"/>
   </filter>
  </entry>
  <entry producer="29_playlist6" in="4165" out="4923"/>
  <blank length="2"/>
  <entry producer="29_playlist6" in="4924" out="5011"/>
  <blank length="25"/>
  <entry producer="29_playlist6" in="5039" out="5148"/>
  <entry producer="29_playlist6" in="5149" out="5299"/>
  <entry producer="slowmotion:29:0,75:1:0" in="7067" out="7123"/>
  <entry producer="29_playlist6" in="5344" out="5820"/>
  <blank length="457"/>
  <entry producer="29_playlist6" in="6291" out="6484"/>
  <blank length="48"/>
  <entry producer="slowmotion:29:0,87:1:0" in="7508" out="7573">
   <filter id="filter88">
    <property name="version">0,3</property>
    <property name="mlt_service">frei0r.levels</property>
    <property name="kdenlive_id">frei0r.levels</property>
    <property name="tag">frei0r.levels</property>
    <property name="kdenlive_ix">2</property>
    <property name="disable">0</property>
    <property name="Channel">0,3</property>
    <property name="Input black level">7508=0</property>
    <property name="Input white level">7508=0,9</property>
    <property name="Gamma">7508=0,275</property>
    <property name="Black output">7508=0</property>
    <property name="White output">7508=1</property>
    <property name="Show histogram">0</property>
    <property name="Histogram position">0,3</property>
   </filter>
  </entry>
  <entry producer="29_playlist6" in="6589" out="6686">
   <filter id="filter89">
    <property name="version">0,3</property>
    <property name="mlt_service">frei0r.levels</property>
    <property name="kdenlive_id">frei0r.levels</property>
    <property name="tag">frei0r.levels</property>
    <property name="kdenlive_ix">1</property>
    <property name="Channel">0,3</property>
    <property name="Input black level">6589=0</property>
    <property name="Input white level">6589=0,9</property>
    <property name="Gamma">6589=0,275</property>
    <property name="Black output">6589=0</property>
    <property name="White output">6589=1</property>
    <property name="Show histogram">0</property>
    <property name="Histogram position">0,3</property>
    <property name="kdenlive_info"/>
    <property name="disable">0</property>
   </filter>
  </entry>
  <entry producer="29_playlist6" in="6687" out="6827">
   <filter id="filter90">
    <property name="version">0,3</property>
    <property name="mlt_service">frei0r.levels</property>
    <property name="kdenlive_id">frei0r.levels</property>
    <property name="tag">frei0r.levels</property>
    <property name="kdenlive_ix">1</property>
    <property name="Channel">0,3</property>
    <property name="Input black level">6589=0</property>
    <property name="Input white level">6589=0,9</property>
    <property name="Gamma">6589=0,275</property>
    <property name="Black output">6589=0</property>
    <property name="White output">6589=1</property>
    <property name="Show histogram">0</property>
    <property name="Histogram position">0,3</property>
    <property name="kdenlive_info"/>
    <property name="disable">0</property>
   </filter>
   <filter id="pan_zoom" in="6687" out="6827">
    <property name="background">colour:0x00000000</property>
    <property name="mlt_service">affine</property>
    <property name="kdenlive_id">pan_zoom</property>
    <property name="tag">affine</property>
    <property name="kdenlive_ix">2</property>
    <property name="transition.geometry">-96/-54:2112x1188:100</property>
    <property name="transition.distort">0</property>
    <property name="kdenlive:sync_in_out">1</property>
    <property name="kdenlive_info"/>
   </filter>
  </entry>
  <blank length="11"/>
  <entry producer="29_playlist6" in="6849" out="6978">
   <filter id="filter91">
    <property name="version">0,3</property>
    <property name="mlt_service">frei0r.levels</property>
    <property name="kdenlive_id">frei0r.levels</property>
    <property name="tag">frei0r.levels</property>
    <property name="kdenlive_ix">1</property>
    <property name="disable">0</property>
    <property name="Channel">0,3</property>
    <property name="Input black level">6849=0</property>
    <property name="Input white level">6849=0,9</property>
    <property name="Gamma">6849=0,275</property>
    <property name="Black output">6849=0</property>
    <property name="White output">6849=1</property>
    <property name="Show histogram">0</property>
    <property name="Histogram position">0,3</property>
    <property name="kdenlive_info"/>
   </filter>
  </entry>
  <entry producer="29_playlist6" in="6980" out="7010">
   <filter id="filter92">
    <property name="version">0,3</property>
    <property name="mlt_service">frei0r.levels</property>
    <property name="kdenlive_id">frei0r.levels</property>
    <property name="tag">frei0r.levels</property>
    <property name="kdenlive_ix">1</property>
    <property name="disable">0</property>
    <property name="Channel">0,3</property>
    <property name="Input black level">6980=0</property>
    <property name="Input white level">6980=0,9</property>
    <property name="Gamma">6980=0,275</property>
    <property name="Black output">6980=0</property>
    <property name="White output">6980=1</property>
    <property name="Show histogram">0</property>
    <property name="Histogram position">0,3</property>
    <property name="kdenlive_info"/>
   </filter>
  </entry>
  <blank length="5"/>
  <entry producer="29_playlist6" in="7009" out="7142">
   <filter id="filter93">
    <property name="version">0,3</property>
    <property name="mlt_service">frei0r.levels</property>
    <property name="kdenlive_id">frei0r.levels</property>
    <property name="tag">frei0r.levels</property>
    <property name="kdenlive_ix">1</property>
    <property name="disable">0</property>
    <property name="Channel">0,3</property>
    <property name="Input black level">7009=0</property>
    <property name="Input white level">7009=0,9</property>
    <property name="Gamma">7009=0,275</property>
    <property name="Black output">7009=0</property>
    <property name="White output">7009=1</property>
    <property name="Show histogram">0</property>
    <property name="Histogram position">0,3</property>
    <property name="kdenlive_info"/>
   </filter>
  </entry>
  <blank length="28"/>
  <entry producer="29_playlist6" in="7177" out="7469">
   <filter id="filter94">
    <property name="version">0,3</property>
    <property name="mlt_service">frei0r.levels</property>
    <property name="kdenlive_id">frei0r.levels</property>
    <property name="tag">frei0r.levels</property>
    <property name="kdenlive_ix">1</property>
    <property name="disable">0</property>
    <property name="Channel">0,3</property>
    <property name="Input black level">7177=0</property>
    <property name="Input white level">7177=0,9</property>
    <property name="Gamma">7177=0,275</property>
    <property name="Black output">7177=0</property>
    <property name="White output">7177=1</property>
    <property name="Show histogram">0</property>
    <property name="Histogram position">0,3</property>
    <property name="kdenlive_info"/>
   </filter>
  </entry>
  <entry producer="29_playlist6" in="7470" out="7621"/>
  <blank length="79"/>
  <entry producer="29_playlist6" in="8075" out="8203"/>
  <blank length="82"/>
  <entry producer="29_playlist6" in="8204" out="8294"/>
  <blank length="84"/>
  <entry producer="29_playlist6" in="8317" out="8488">
   <filter id="filter95">
    <property name="version">0,3</property>
    <property name="mlt_service">frei0r.levels</property>
    <property name="kdenlive_id">frei0r.levels</property>
    <property name="tag">frei0r.levels</property>
    <property name="kdenlive_ix">1</property>
    <property name="disable">0</property>
    <property name="Channel">0,3</property>
    <property name="Input black level">8317=0</property>
    <property name="Input white level">8317=0,9</property>
    <property name="Gamma">8317=0,275</property>
    <property name="Black output">8317=0</property>
    <property name="White output">8317=1</property>
    <property name="Show histogram">0</property>
    <property name="Histogram position">0,3</property>
   </filter>
  </entry>
  <blank length="202"/>
  <entry producer="slowmotion:29:0,6:1:0" in="12535" out="12805">
   <filter id="mirror">
    <property name="mirror">flip</property>
    <property name="mlt_service">mirror</property>
    <property name="kdenlive_id">mirror</property>
    <property name="tag">mirror</property>
    <property name="kdenlive_ix">2</property>
    <property name="kdenlive_info"/>
    <property name="disable"/>
    <property name="reverse">0</property>
   </filter>
  </entry>
 </playlist>
 <producer title="Anonymous Submission" id="28_playlist7" in="0" out="12061">
  <property name="length">00:04:01:12</property>
  <property name="eof">pause</property>
  <property name="resource">/media/bordun/plagiat/2018-12-10_Plagiat_RespecteLaPuissancePapale/Carte_3/CAM1_2018-12-10_1738_C0000_recale.mp4</property>
  <property name="audio_index">1</property>
  <property name="video_index">0</property>
  <property name="mute_on_pause">1</property>
  <property name="mlt_service">avformat-novalidate</property>
  <property name="seekable">1</property>
  <property name="aspect_ratio">1</property>
  <property name="kdenlive:folderid">12</property>
  <property name="kdenlive:file_size">9081115714</property>
  <property name="kdenlive:file_hash">79a4b55abfdf4f84be33d4d8aeb49ece</property>
  <property name="global_feed">1</property>
  <property name="xml">was here</property>
  <property name="meta.media.nb_streams">2</property>
  <property name="meta.media.0.stream.type">video</property>
  <property name="meta.media.0.stream.frame_rate">50</property>
  <property name="meta.media.0.stream.sample_aspect_ratio">1</property>
  <property name="meta.media.0.codec.width">1920</property>
  <property name="meta.media.0.codec.height">1080</property>
  <property name="meta.media.0.codec.rotate">0</property>
  <property name="meta.media.0.codec.frame_rate">50</property>
  <property name="meta.media.0.codec.pix_fmt">yuv420p</property>
  <property name="meta.media.0.codec.sample_aspect_ratio">1</property>
  <property name="meta.media.0.codec.colorspace">709</property>
  <property name="meta.media.0.codec.color_trc">1</property>
  <property name="meta.media.0.codec.name">h264</property>
  <property name="meta.media.0.codec.long_name">H.264 / AVC / MPEG-4 AVC / MPEG-4 part 10</property>
  <property name="meta.media.0.codec.bit_rate">300778505</property>
  <property name="meta.attr.0.stream.handler_name.markup">VideoHandler</property>
  <property name="meta.media.1.stream.type">audio</property>
  <property name="meta.media.1.codec.sample_fmt">fltp</property>
  <property name="meta.media.1.codec.sample_rate">48000</property>
  <property name="meta.media.1.codec.channels">2</property>
  <property name="meta.media.1.codec.name">aac</property>
  <property name="meta.media.1.codec.long_name">AAC (Advanced Audio Coding)</property>
  <property name="meta.media.1.codec.bit_rate">385016</property>
  <property name="meta.attr.1.stream.handler_name.markup">SoundHandler</property>
  <property name="meta.attr.major_brand.markup">isom</property>
  <property name="meta.attr.minor_version.markup">512</property>
  <property name="meta.attr.compatible_brands.markup">isomiso2avc1mp41</property>
  <property name="meta.attr.encoder.markup">Lavf58.20.100</property>
  <property name="meta.media.sample_aspect_num">1</property>
  <property name="meta.media.sample_aspect_den">1</property>
  <property name="meta.media.frame_rate_num">50</property>
  <property name="meta.media.frame_rate_den">1</property>
  <property name="meta.media.colorspace">709</property>
  <property name="meta.media.color_trc">1</property>
  <property name="meta.media.width">1920</property>
  <property name="meta.media.height">1080</property>
  <property name="meta.media.top_field_first">0</property>
  <property name="meta.media.progressive">1</property>
  <filter id="filter96">
   <property name="version">0,1</property>
   <property name="mlt_service">frei0r.colgate</property>
   <property name="kdenlive_id">frei0r.colgate</property>
   <property name="tag">frei0r.colgate</property>
   <property name="kdenlive_ix">1</property>
   <property name="kdenlive_info"/>
   <property name="Neutral Color">0x7f7f7fff</property>
   <property name="Color Temperature">0=0,5</property>
  </filter>
  <filter id="filter97">
   <property name="version">0,3</property>
   <property name="mlt_service">frei0r.levels</property>
   <property name="kdenlive_id">frei0r.levels</property>
   <property name="tag">frei0r.levels</property>
   <property name="kdenlive_ix">2</property>
   <property name="kdenlive_info"/>
   <property name="Channel">0,3</property>
   <property name="Input black level">0=0,04</property>
   <property name="Input white level">0=0,95</property>
   <property name="Gamma">0=0,25</property>
   <property name="Black output">0=0</property>
   <property name="White output">0=1</property>
   <property name="Show histogram">0</property>
   <property name="Histogram position">0,3</property>
  </filter>
 </producer>
 <producer id="slowmotion:10:0,5:1:0" in="0" out="7713">
  <property name="length">7714</property>
  <property name="eof">pause</property>
  <property name="resource">0,5:/media/bordun/plagiat/2018-12-10_Plagiat_RespecteLaPuissancePapale/Carte_2/CAM1_2018-12-10_1727_C0005.mov</property>
  <property name="aspect_ratio">1</property>
  <property name="meta.media.nb_streams">3</property>
  <property name="meta.media.1.stream.type">video</property>
  <property name="meta.media.1.stream.frame_rate">50</property>
  <property name="meta.media.1.stream.sample_aspect_ratio">1</property>
  <property name="meta.media.1.codec.width">1920</property>
  <property name="meta.media.1.codec.height">1080</property>
  <property name="meta.media.1.codec.rotate">0</property>
  <property name="meta.media.1.codec.frame_rate">5000</property>
  <property name="meta.media.1.codec.pix_fmt">yuv422p10le</property>
  <property name="meta.media.1.codec.sample_aspect_ratio">0</property>
  <property name="meta.media.1.codec.colorspace">709</property>
  <property name="meta.media.1.codec.color_trc">1</property>
  <property name="meta.media.1.codec.name">prores</property>
  <property name="meta.media.1.codec.long_name">ProRes</property>
  <property name="meta.media.1.codec.bit_rate">366957401</property>
  <property name="meta.attr.1.stream.creation_time.markup">2018-12-10T17:27:46.000000Z</property>
  <property name="meta.attr.1.stream.language.markup">eng</property>
  <property name="meta.attr.1.stream.handler_name.markup">Apple Alias Data Handler</property>
  <property name="meta.attr.1.stream.encoder.markup">Apple ProRes 422 HQ</property>
  <property name="meta.attr.1.stream.timecode.markup">17:27:46:06</property>
  <property name="meta.media.2.stream.type">audio</property>
  <property name="meta.media.2.codec.sample_fmt">s32</property>
  <property name="meta.media.2.codec.sample_rate">48000</property>
  <property name="meta.media.2.codec.channels">2</property>
  <property name="meta.media.2.codec.name">pcm_s24le</property>
  <property name="meta.media.2.codec.long_name">PCM signed 24-bit little-endian</property>
  <property name="meta.media.2.codec.bit_rate">2304000</property>
  <property name="meta.attr.2.stream.creation_time.markup">2018-12-10T17:27:46.000000Z</property>
  <property name="meta.attr.2.stream.language.markup">eng</property>
  <property name="meta.attr.2.stream.handler_name.markup">Apple Alias Data Handler</property>
  <property name="meta.attr.2.stream.timecode.markup">17:27:46:06</property>
  <property name="meta.attr.com.apple.proapps.manufacturer.markup">Blackmagic Design</property>
  <property name="meta.attr.com.apple.proapps.cameraName.markup">CAM1</property>
  <property name="meta.attr.com.apple.proapps.isGood.markup">0</property>
  <property name="meta.attr.com.apple.proapps.customgamma.markup">com.blackmagic-design.cinemacamera.filmlog</property>
  <property name="meta.attr.com.blackmagic-design.cinemacamera.uuid.markup">18E5E00548F94923B646613A73C01B56</property>
  <property name="meta.attr.creation_time.markup">2018-12-10T17:27:46.000000Z</property>
  <property name="meta.attr.timecode.markup">17:27:46:06</property>
  <property name="seekable">1</property>
  <property name="meta.media.sample_aspect_num">1</property>
  <property name="meta.media.sample_aspect_den">1</property>
  <property name="audio_index">2</property>
  <property name="video_index">1</property>
  <property name="mute_on_pause">1</property>
  <property name="warp_speed">0,5</property>
  <property name="warp_resource">/media/bordun/plagiat/2018-12-10_Plagiat_RespecteLaPuissancePapale/Carte_2/CAM1_2018-12-10_1727_C0005.mov</property>
  <property name="mlt_service">timewarp</property>
  <property name="meta.media.frame_rate_num">50</property>
  <property name="meta.media.frame_rate_den">1</property>
  <property name="meta.media.colorspace">709</property>
  <property name="meta.media.color_trc">1</property>
  <property name="meta.media.width">1920</property>
  <property name="meta.media.height">1080</property>
  <property name="meta.media.top_field_first">0</property>
  <property name="meta.media.progressive">1</property>
  <filter id="filter98">
   <property name="version">0,1</property>
   <property name="mlt_service">frei0r.colgate</property>
   <property name="kdenlive_id">frei0r.colgate</property>
   <property name="tag">frei0r.colgate</property>
   <property name="kdenlive_ix">1</property>
   <property name="kdenlive_info"/>
   <property name="Neutral Color">0x7f7f7fff</property>
   <property name="Color Temperature">0=0,666667</property>
  </filter>
  <filter id="filter99">
   <property name="version">0,3</property>
   <property name="mlt_service">frei0r.levels</property>
   <property name="kdenlive_id">frei0r.levels</property>
   <property name="tag">frei0r.levels</property>
   <property name="kdenlive_ix">2</property>
   <property name="kdenlive_info"/>
   <property name="Channel">0,3</property>
   <property name="Input black level">0=0</property>
   <property name="Input white level">0=0,65</property>
   <property name="Gamma">0=0,25</property>
   <property name="Black output">0=0</property>
   <property name="White output">0=1</property>
   <property name="Show histogram">0</property>
   <property name="Histogram position">0,3</property>
  </filter>
 </producer>
 <producer title="Anonymous Submission" id="producer2" in="0" out="12061">
  <property name="length">00:04:01:12</property>
  <property name="eof">pause</property>
  <property name="resource">/media/bordun/plagiat/2018-12-10_Plagiat_RespecteLaPuissancePapale/Carte_3/CAM1_2018-12-10_1738_C0000_recale.mp4</property>
  <property name="audio_index">-1</property>
  <property name="video_index">-1</property>
  <property name="mute_on_pause">1</property>
  <property name="mlt_service">avformat-novalidate</property>
  <property name="seekable">1</property>
  <property name="aspect_ratio">1</property>
  <property name="kdenlive:folderid">12</property>
  <property name="kdenlive:file_size">9081115714</property>
  <property name="kdenlive:file_hash">79a4b55abfdf4f84be33d4d8aeb49ece</property>
  <property name="global_feed">1</property>
  <property name="xml">was here</property>
  <property name="kdenlive:binid">28</property>
  <property name="kdenlive:clipstate">0</property>
  <filter id="filter100">
   <property name="version">0,1</property>
   <property name="mlt_service">frei0r.colgate</property>
   <property name="kdenlive_id">frei0r.colgate</property>
   <property name="tag">frei0r.colgate</property>
   <property name="kdenlive_ix">1</property>
   <property name="kdenlive_info"/>
   <property name="Neutral Color">0x7f7f7fff</property>
   <property name="Color Temperature">0=0,533333</property>
  </filter>
  <filter id="filter101">
   <property name="version">0,3</property>
   <property name="mlt_service">frei0r.levels</property>
   <property name="kdenlive_id">frei0r.levels</property>
   <property name="tag">frei0r.levels</property>
   <property name="kdenlive_ix">2</property>
   <property name="kdenlive_info"/>
   <property name="Channel">0,3</property>
   <property name="Input black level">0=0,06</property>
   <property name="Input white level">0=0,95</property>
   <property name="Gamma">0=0,3125</property>
   <property name="Black output">0=0</property>
   <property name="White output">0=1</property>
   <property name="Show histogram">0</property>
   <property name="Histogram position">0,3</property>
  </filter>
 </producer>
 <producer title="Anonymous Submission" id="producer3" in="0" out="12061">
  <property name="length">00:04:01:12</property>
  <property name="eof">pause</property>
  <property name="resource">/media/bordun/plagiat/2018-12-10_Plagiat_RespecteLaPuissancePapale/Carte_3/CAM1_2018-12-10_1738_C0000_recale.mp4</property>
  <property name="audio_index">-1</property>
  <property name="video_index">-1</property>
  <property name="mute_on_pause">1</property>
  <property name="mlt_service">avformat-novalidate</property>
  <property name="seekable">1</property>
  <property name="aspect_ratio">1</property>
  <property name="kdenlive:folderid">12</property>
  <property name="kdenlive:file_size">9081115714</property>
  <property name="kdenlive:file_hash">79a4b55abfdf4f84be33d4d8aeb49ece</property>
  <property name="global_feed">1</property>
  <property name="xml">was here</property>
  <property name="kdenlive:binid">28</property>
 </producer>
 <producer id="slowmotion:28:0,5:1:0" in="0" out="24123">
  <property name="length">24124</property>
  <property name="eof">pause</property>
  <property name="resource">0,5:/media/bordun/plagiat/2018-12-10_Plagiat_RespecteLaPuissancePapale/Carte_3/CAM1_2018-12-10_1738_C0000_recale.mp4</property>
  <property name="aspect_ratio">1</property>
  <property name="meta.media.nb_streams">2</property>
  <property name="meta.media.0.stream.type">video</property>
  <property name="meta.media.0.stream.frame_rate">50</property>
  <property name="meta.media.0.stream.sample_aspect_ratio">1</property>
  <property name="meta.media.0.codec.width">1920</property>
  <property name="meta.media.0.codec.height">1080</property>
  <property name="meta.media.0.codec.rotate">0</property>
  <property name="meta.media.0.codec.frame_rate">50</property>
  <property name="meta.media.0.codec.pix_fmt">yuv420p</property>
  <property name="meta.media.0.codec.sample_aspect_ratio">1</property>
  <property name="meta.media.0.codec.colorspace">709</property>
  <property name="meta.media.0.codec.color_trc">1</property>
  <property name="meta.media.0.codec.name">h264</property>
  <property name="meta.media.0.codec.long_name">H.264 / AVC / MPEG-4 AVC / MPEG-4 part 10</property>
  <property name="meta.media.0.codec.bit_rate">300778505</property>
  <property name="meta.attr.0.stream.handler_name.markup">VideoHandler</property>
  <property name="meta.media.1.stream.type">audio</property>
  <property name="meta.media.1.codec.sample_fmt">fltp</property>
  <property name="meta.media.1.codec.sample_rate">48000</property>
  <property name="meta.media.1.codec.channels">2</property>
  <property name="meta.media.1.codec.name">aac</property>
  <property name="meta.media.1.codec.long_name">AAC (Advanced Audio Coding)</property>
  <property name="meta.media.1.codec.bit_rate">385016</property>
  <property name="meta.attr.1.stream.handler_name.markup">SoundHandler</property>
  <property name="meta.attr.major_brand.markup">isom</property>
  <property name="meta.attr.minor_version.markup">512</property>
  <property name="meta.attr.compatible_brands.markup">isomiso2avc1mp41</property>
  <property name="meta.attr.encoder.markup">Lavf58.20.100</property>
  <property name="seekable">1</property>
  <property name="meta.media.sample_aspect_num">1</property>
  <property name="meta.media.sample_aspect_den">1</property>
  <property name="audio_index">1</property>
  <property name="video_index">0</property>
  <property name="mute_on_pause">1</property>
  <property name="warp_speed">0,5</property>
  <property name="warp_resource">/media/bordun/plagiat/2018-12-10_Plagiat_RespecteLaPuissancePapale/Carte_3/CAM1_2018-12-10_1738_C0000_recale.mp4</property>
  <property name="mlt_service">timewarp</property>
  <property name="meta.media.frame_rate_num">50</property>
  <property name="meta.media.frame_rate_den">1</property>
  <property name="meta.media.colorspace">709</property>
  <property name="meta.media.color_trc">1</property>
  <property name="meta.media.width">1920</property>
  <property name="meta.media.height">1080</property>
  <property name="meta.media.top_field_first">0</property>
  <property name="meta.media.progressive">1</property>
  <filter id="filter102">
   <property name="version">0,1</property>
   <property name="mlt_service">frei0r.colgate</property>
   <property name="kdenlive_id">frei0r.colgate</property>
   <property name="tag">frei0r.colgate</property>
   <property name="kdenlive_ix">1</property>
   <property name="kdenlive_info"/>
   <property name="Neutral Color">0x7f7f7fff</property>
   <property name="Color Temperature">0=0,5</property>
  </filter>
  <filter id="filter103">
   <property name="version">0,3</property>
   <property name="mlt_service">frei0r.levels</property>
   <property name="kdenlive_id">frei0r.levels</property>
   <property name="tag">frei0r.levels</property>
   <property name="kdenlive_ix">2</property>
   <property name="kdenlive_info"/>
   <property name="Channel">0,3</property>
   <property name="Input black level">0=0,04</property>
   <property name="Input white level">0=0,95</property>
   <property name="Gamma">0=0,25</property>
   <property name="Black output">0=0</property>
   <property name="White output">0=1</property>
   <property name="Show histogram">0</property>
   <property name="Histogram position">0,3</property>
  </filter>
 </producer>
 <playlist id="playlist7">
  <property name="kdenlive:track_name">Vidéo 5</property>
  <blank length="5604"/>
  <entry producer="28_playlist7" in="326" out="338">
   <filter id="frei0r.rgbsplit0r">
    <property name="version">0,1</property>
    <property name="mlt_service">frei0r.rgbsplit0r</property>
    <property name="kdenlive_id">frei0r.rgbsplit0r</property>
    <property name="tag">frei0r.rgbsplit0r</property>
    <property name="kdenlive_ix">1</property>
    <property name="0">0,076</property>
    <property name="1">0,039</property>
    <property name="kdenlive_info"/>
    <property name="disable"/>
   </filter>
   <filter id="filter104">
    <property name="version">0,1</property>
    <property name="mlt_service">frei0r.glitch0r</property>
    <property name="kdenlive_id">frei0r.glitch0r</property>
    <property name="tag">frei0r.glitch0r</property>
    <property name="kdenlive_ix">2</property>
    <property name="0">0,473</property>
    <property name="1">0,324</property>
    <property name="2">0,076</property>
    <property name="3">0</property>
    <property name="kdenlive_info"/>
   </filter>
  </entry>
  <blank length="10"/>
  <entry producer="28_playlist7" in="338" out="342">
   <filter id="filter105">
    <property name="version">0,1</property>
    <property name="mlt_service">frei0r.rgbsplit0r</property>
    <property name="kdenlive_id">frei0r.rgbsplit0r</property>
    <property name="tag">frei0r.rgbsplit0r</property>
    <property name="kdenlive_ix">1</property>
    <property name="0">0</property>
    <property name="1">0,031</property>
    <property name="kdenlive_info"/>
    <property name="disable"/>
   </filter>
   <filter id="filter106">
    <property name="version">0,1</property>
    <property name="mlt_service">frei0r.glitch0r</property>
    <property name="kdenlive_id">frei0r.glitch0r</property>
    <property name="tag">frei0r.glitch0r</property>
    <property name="kdenlive_ix">2</property>
    <property name="0">0,473</property>
    <property name="1">0,324</property>
    <property name="2">0,076</property>
    <property name="3">0</property>
    <property name="kdenlive_info"/>
   </filter>
  </entry>
  <blank length="7"/>
  <entry producer="28_playlist7" in="334" out="346">
   <filter id="filter107">
    <property name="version">0,1</property>
    <property name="mlt_service">frei0r.rgbsplit0r</property>
    <property name="kdenlive_id">frei0r.rgbsplit0r</property>
    <property name="tag">frei0r.rgbsplit0r</property>
    <property name="kdenlive_ix">1</property>
    <property name="0">0</property>
    <property name="1">0,031</property>
    <property name="kdenlive_info"/>
    <property name="disable"/>
   </filter>
   <filter id="filter108">
    <property name="version">0,1</property>
    <property name="mlt_service">frei0r.glitch0r</property>
    <property name="kdenlive_id">frei0r.glitch0r</property>
    <property name="tag">frei0r.glitch0r</property>
    <property name="kdenlive_ix">2</property>
    <property name="0">0,473</property>
    <property name="1">0,324</property>
    <property name="2">0,076</property>
    <property name="3">0</property>
    <property name="kdenlive_info"/>
   </filter>
  </entry>
  <blank length="6"/>
  <entry producer="28_playlist7" in="335" out="337">
   <filter id="filter109">
    <property name="version">0,1</property>
    <property name="mlt_service">frei0r.rgbsplit0r</property>
    <property name="kdenlive_id">frei0r.rgbsplit0r</property>
    <property name="tag">frei0r.rgbsplit0r</property>
    <property name="kdenlive_ix">1</property>
    <property name="0">0</property>
    <property name="1">0,217</property>
    <property name="kdenlive_info"/>
    <property name="disable"/>
   </filter>
   <filter id="filter110">
    <property name="version">0,1</property>
    <property name="mlt_service">frei0r.glitch0r</property>
    <property name="kdenlive_id">frei0r.glitch0r</property>
    <property name="tag">frei0r.glitch0r</property>
    <property name="kdenlive_ix">2</property>
    <property name="0">0,473</property>
    <property name="1">0,324</property>
    <property name="2">0,076</property>
    <property name="3">0</property>
    <property name="kdenlive_info"/>
   </filter>
  </entry>
  <blank length="1"/>
  <entry producer="28_playlist7" in="335" out="337">
   <filter id="filter111">
    <property name="version">0,1</property>
    <property name="mlt_service">frei0r.rgbsplit0r</property>
    <property name="kdenlive_id">frei0r.rgbsplit0r</property>
    <property name="tag">frei0r.rgbsplit0r</property>
    <property name="kdenlive_ix">1</property>
    <property name="kdenlive_info"/>
    <property name="disable"/>
    <property name="0">0</property>
    <property name="1">0,217</property>
   </filter>
   <filter id="frei0r.glitch0r">
    <property name="version">0,1</property>
    <property name="mlt_service">frei0r.glitch0r</property>
    <property name="kdenlive_id">frei0r.glitch0r</property>
    <property name="tag">frei0r.glitch0r</property>
    <property name="kdenlive_ix">2</property>
    <property name="kdenlive_info"/>
    <property name="disable"/>
    <property name="0">0,473</property>
    <property name="1">0,324</property>
    <property name="2">0,076</property>
    <property name="3">0</property>
   </filter>
  </entry>
  <blank length="2"/>
  <entry producer="28_playlist7" in="335" out="337">
   <filter id="filter112">
    <property name="version">0,1</property>
    <property name="mlt_service">frei0r.rgbsplit0r</property>
    <property name="kdenlive_id">frei0r.rgbsplit0r</property>
    <property name="tag">frei0r.rgbsplit0r</property>
    <property name="kdenlive_ix">1</property>
    <property name="kdenlive_info"/>
    <property name="disable"/>
    <property name="0">0</property>
    <property name="1">0,217</property>
   </filter>
   <filter id="filter113">
    <property name="version">0,1</property>
    <property name="mlt_service">frei0r.glitch0r</property>
    <property name="kdenlive_id">frei0r.glitch0r</property>
    <property name="tag">frei0r.glitch0r</property>
    <property name="kdenlive_ix">2</property>
    <property name="kdenlive_info"/>
    <property name="disable"/>
    <property name="0">0,473</property>
    <property name="1">0,324</property>
    <property name="2">0,076</property>
    <property name="3">0</property>
   </filter>
  </entry>
  <blank length="11"/>
  <entry producer="28_playlist7" in="369" out="370">
   <filter id="filter114">
    <property name="version">0,1</property>
    <property name="mlt_service">frei0r.rgbsplit0r</property>
    <property name="kdenlive_id">frei0r.rgbsplit0r</property>
    <property name="tag">frei0r.rgbsplit0r</property>
    <property name="kdenlive_ix">1</property>
    <property name="0">0,102</property>
    <property name="1">0</property>
    <property name="kdenlive_info"/>
    <property name="disable"/>
   </filter>
   <filter id="filter115">
    <property name="version">0,1</property>
    <property name="mlt_service">frei0r.glitch0r</property>
    <property name="kdenlive_id">frei0r.glitch0r</property>
    <property name="tag">frei0r.glitch0r</property>
    <property name="kdenlive_ix">2</property>
    <property name="0">0,473</property>
    <property name="1">0,324</property>
    <property name="2">0,076</property>
    <property name="3">0</property>
    <property name="kdenlive_info"/>
   </filter>
  </entry>
  <blank length="5"/>
  <entry producer="28_playlist7" in="370" out="371">
   <filter id="filter116">
    <property name="version">0,1</property>
    <property name="mlt_service">frei0r.rgbsplit0r</property>
    <property name="kdenlive_id">frei0r.rgbsplit0r</property>
    <property name="tag">frei0r.rgbsplit0r</property>
    <property name="kdenlive_ix">1</property>
    <property name="kdenlive_info"/>
    <property name="disable"/>
    <property name="0">0,102</property>
    <property name="1">0</property>
   </filter>
   <filter id="filter117">
    <property name="version">0,1</property>
    <property name="mlt_service">frei0r.glitch0r</property>
    <property name="kdenlive_id">frei0r.glitch0r</property>
    <property name="tag">frei0r.glitch0r</property>
    <property name="kdenlive_ix">2</property>
    <property name="kdenlive_info"/>
    <property name="disable"/>
    <property name="0">0,473</property>
    <property name="1">0,324</property>
    <property name="2">0,076</property>
    <property name="3">0</property>
   </filter>
  </entry>
  <blank length="3"/>
  <entry producer="28_playlist7" in="368" out="368">
   <filter id="filter118">
    <property name="version">0,1</property>
    <property name="mlt_service">frei0r.rgbsplit0r</property>
    <property name="kdenlive_id">frei0r.rgbsplit0r</property>
    <property name="tag">frei0r.rgbsplit0r</property>
    <property name="kdenlive_ix">1</property>
    <property name="kdenlive_info"/>
    <property name="disable"/>
    <property name="0">0,102</property>
    <property name="1">0</property>
   </filter>
   <filter id="filter119">
    <property name="version">0,1</property>
    <property name="mlt_service">frei0r.glitch0r</property>
    <property name="kdenlive_id">frei0r.glitch0r</property>
    <property name="tag">frei0r.glitch0r</property>
    <property name="kdenlive_ix">2</property>
    <property name="kdenlive_info"/>
    <property name="disable"/>
    <property name="0">0,473</property>
    <property name="1">0,324</property>
    <property name="2">0,076</property>
    <property name="3">0</property>
   </filter>
  </entry>
  <blank length="3"/>
  <entry producer="28_playlist7" in="372" out="375">
   <filter id="filter120">
    <property name="version">0,1</property>
    <property name="mlt_service">frei0r.rgbsplit0r</property>
    <property name="kdenlive_id">frei0r.rgbsplit0r</property>
    <property name="tag">frei0r.rgbsplit0r</property>
    <property name="kdenlive_ix">1</property>
    <property name="kdenlive_info"/>
    <property name="disable"/>
    <property name="0">0,102</property>
    <property name="1">0</property>
   </filter>
   <filter id="filter121">
    <property name="version">0,1</property>
    <property name="mlt_service">frei0r.glitch0r</property>
    <property name="kdenlive_id">frei0r.glitch0r</property>
    <property name="tag">frei0r.glitch0r</property>
    <property name="kdenlive_ix">2</property>
    <property name="kdenlive_info"/>
    <property name="disable"/>
    <property name="0">0,473</property>
    <property name="1">0,324</property>
    <property name="2">0,076</property>
    <property name="3">0</property>
   </filter>
  </entry>
  <blank length="5"/>
  <entry producer="28_playlist7" in="376" out="379">
   <filter id="filter122">
    <property name="version">0,1</property>
    <property name="mlt_service">frei0r.rgbsplit0r</property>
    <property name="kdenlive_id">frei0r.rgbsplit0r</property>
    <property name="tag">frei0r.rgbsplit0r</property>
    <property name="kdenlive_ix">1</property>
    <property name="kdenlive_info"/>
    <property name="disable"/>
    <property name="0">0,413</property>
    <property name="1">0</property>
   </filter>
   <filter id="filter123">
    <property name="version">0,1</property>
    <property name="mlt_service">frei0r.glitch0r</property>
    <property name="kdenlive_id">frei0r.glitch0r</property>
    <property name="tag">frei0r.glitch0r</property>
    <property name="kdenlive_ix">2</property>
    <property name="kdenlive_info"/>
    <property name="disable"/>
    <property name="0">0,473</property>
    <property name="1">0,324</property>
    <property name="2">0,021</property>
    <property name="3">0</property>
   </filter>
  </entry>
  <blank length="10"/>
  <entry producer="28_playlist7" in="380" out="383">
   <filter id="filter124">
    <property name="version">0,1</property>
    <property name="mlt_service">frei0r.rgbsplit0r</property>
    <property name="kdenlive_id">frei0r.rgbsplit0r</property>
    <property name="tag">frei0r.rgbsplit0r</property>
    <property name="kdenlive_ix">1</property>
    <property name="0">0,413</property>
    <property name="1">0</property>
    <property name="kdenlive_info"/>
    <property name="disable"/>
   </filter>
   <filter id="filter125">
    <property name="version">0,1</property>
    <property name="mlt_service">frei0r.glitch0r</property>
    <property name="kdenlive_id">frei0r.glitch0r</property>
    <property name="tag">frei0r.glitch0r</property>
    <property name="kdenlive_ix">2</property>
    <property name="0">0,473</property>
    <property name="1">0,324</property>
    <property name="2">0,034</property>
    <property name="3">0</property>
    <property name="kdenlive_info"/>
    <property name="disable"/>
   </filter>
  </entry>
  <blank length="7"/>
  <entry producer="28_playlist7" in="384" out="386">
   <filter id="filter126">
    <property name="version">0,1</property>
    <property name="mlt_service">frei0r.rgbsplit0r</property>
    <property name="kdenlive_id">frei0r.rgbsplit0r</property>
    <property name="tag">frei0r.rgbsplit0r</property>
    <property name="kdenlive_ix">1</property>
    <property name="0">0,413</property>
    <property name="1">0</property>
    <property name="kdenlive_info"/>
    <property name="disable"/>
   </filter>
   <filter id="filter127">
    <property name="version">0,1</property>
    <property name="mlt_service">frei0r.glitch0r</property>
    <property name="kdenlive_id">frei0r.glitch0r</property>
    <property name="tag">frei0r.glitch0r</property>
    <property name="kdenlive_ix">2</property>
    <property name="0">0,473</property>
    <property name="1">0,324</property>
    <property name="2">0,076</property>
    <property name="3">0</property>
    <property name="kdenlive_info"/>
   </filter>
  </entry>
  <blank length="4"/>
  <entry producer="28_playlist7" in="413" out="418">
   <filter id="filter128">
    <property name="version">0,1</property>
    <property name="mlt_service">frei0r.rgbsplit0r</property>
    <property name="kdenlive_id">frei0r.rgbsplit0r</property>
    <property name="tag">frei0r.rgbsplit0r</property>
    <property name="kdenlive_ix">1</property>
    <property name="0">0</property>
    <property name="1">0,284</property>
    <property name="kdenlive_info"/>
    <property name="disable"/>
   </filter>
   <filter id="filter129">
    <property name="version">0,1</property>
    <property name="mlt_service">frei0r.glitch0r</property>
    <property name="kdenlive_id">frei0r.glitch0r</property>
    <property name="tag">frei0r.glitch0r</property>
    <property name="kdenlive_ix">2</property>
    <property name="0">0,877</property>
    <property name="1">0,562</property>
    <property name="2">0,102</property>
    <property name="3">0</property>
    <property name="kdenlive_info"/>
    <property name="disable"/>
   </filter>
  </entry>
  <blank length="9"/>
  <entry producer="28_playlist7" in="428" out="432">
   <filter id="filter130">
    <property name="version">0,1</property>
    <property name="mlt_service">frei0r.rgbsplit0r</property>
    <property name="kdenlive_id">frei0r.rgbsplit0r</property>
    <property name="tag">frei0r.rgbsplit0r</property>
    <property name="kdenlive_ix">1</property>
    <property name="0">0</property>
    <property name="1">0,284</property>
    <property name="kdenlive_info"/>
    <property name="disable"/>
   </filter>
   <filter id="filter131">
    <property name="version">0,1</property>
    <property name="mlt_service">frei0r.glitch0r</property>
    <property name="kdenlive_id">frei0r.glitch0r</property>
    <property name="tag">frei0r.glitch0r</property>
    <property name="kdenlive_ix">2</property>
    <property name="0">0,877</property>
    <property name="1">0,562</property>
    <property name="2">0,41</property>
    <property name="3">0</property>
    <property name="kdenlive_info"/>
    <property name="disable"/>
   </filter>
  </entry>
  <blank length="11"/>
  <entry producer="28_playlist7" in="444" out="452">
   <filter id="filter132">
    <property name="version">0,1</property>
    <property name="mlt_service">frei0r.rgbsplit0r</property>
    <property name="kdenlive_id">frei0r.rgbsplit0r</property>
    <property name="tag">frei0r.rgbsplit0r</property>
    <property name="kdenlive_ix">1</property>
    <property name="0">0</property>
    <property name="1">0,284</property>
    <property name="kdenlive_info"/>
    <property name="disable"/>
   </filter>
   <filter id="filter133">
    <property name="version">0,1</property>
    <property name="mlt_service">frei0r.glitch0r</property>
    <property name="kdenlive_id">frei0r.glitch0r</property>
    <property name="tag">frei0r.glitch0r</property>
    <property name="kdenlive_ix">2</property>
    <property name="0">0,877</property>
    <property name="1">0,562</property>
    <property name="2">0,024</property>
    <property name="3">0</property>
    <property name="kdenlive_info"/>
    <property name="disable"/>
   </filter>
  </entry>
  <blank length="13"/>
  <entry producer="28_playlist7" in="474" out="480">
   <filter id="filter134">
    <property name="version">0,1</property>
    <property name="mlt_service">frei0r.rgbsplit0r</property>
    <property name="kdenlive_id">frei0r.rgbsplit0r</property>
    <property name="tag">frei0r.rgbsplit0r</property>
    <property name="kdenlive_ix">1</property>
    <property name="0">0</property>
    <property name="1">0,284</property>
    <property name="kdenlive_info"/>
    <property name="disable"/>
   </filter>
   <filter id="filter135">
    <property name="version">0,1</property>
    <property name="mlt_service">frei0r.glitch0r</property>
    <property name="kdenlive_id">frei0r.glitch0r</property>
    <property name="tag">frei0r.glitch0r</property>
    <property name="kdenlive_ix">2</property>
    <property name="0">0,877</property>
    <property name="1">0,562</property>
    <property name="2">0,41</property>
    <property name="3">0</property>
    <property name="kdenlive_info"/>
    <property name="disable"/>
   </filter>
  </entry>
  <blank length="12"/>
  <entry producer="28_playlist7" in="481" out="489">
   <filter id="filter136">
    <property name="version">0,1</property>
    <property name="mlt_service">frei0r.rgbsplit0r</property>
    <property name="kdenlive_id">frei0r.rgbsplit0r</property>
    <property name="tag">frei0r.rgbsplit0r</property>
    <property name="kdenlive_ix">1</property>
    <property name="0">0</property>
    <property name="1">0,284</property>
    <property name="kdenlive_info"/>
    <property name="disable"/>
   </filter>
   <filter id="filter137">
    <property name="version">0,1</property>
    <property name="mlt_service">frei0r.glitch0r</property>
    <property name="kdenlive_id">frei0r.glitch0r</property>
    <property name="tag">frei0r.glitch0r</property>
    <property name="kdenlive_ix">2</property>
    <property name="0">0,877</property>
    <property name="1">0,562</property>
    <property name="2">0,24</property>
    <property name="3">0</property>
    <property name="kdenlive_info"/>
    <property name="disable"/>
   </filter>
  </entry>
  <blank length="21"/>
  <entry producer="28_playlist7" in="511" out="526">
   <filter id="filter138">
    <property name="version">1</property>
    <property name="mlt_service">frei0r.rgbsplit0r</property>
    <property name="kdenlive_id">frei0r.rgbsplit0r</property>
    <property name="tag">frei0r.rgbsplit0r</property>
    <property name="kdenlive_info"/>
    <property name="kdenlive_ix">1</property>
    <property name="disable">0</property>
    <property name="0">0,342</property>
    <property name="1">0,465</property>
   </filter>
   <filter id="filter139">
    <property name="version">0,1</property>
    <property name="mlt_service">frei0r.glitch0r</property>
    <property name="kdenlive_id">frei0r.glitch0r</property>
    <property name="tag">frei0r.glitch0r</property>
    <property name="kdenlive_info"/>
    <property name="kdenlive_ix">2</property>
    <property name="disable"/>
    <property name="0">0,473</property>
    <property name="1">0,455</property>
    <property name="2">0,025</property>
    <property name="3">0</property>
   </filter>
  </entry>
  <blank length="13"/>
  <entry producer="28_playlist7" in="507" out="528">
   <filter id="filter140">
    <property name="version">1</property>
    <property name="mlt_service">frei0r.rgbsplit0r</property>
    <property name="kdenlive_id">frei0r.rgbsplit0r</property>
    <property name="tag">frei0r.rgbsplit0r</property>
    <property name="kdenlive_info"/>
    <property name="kdenlive_ix">1</property>
    <property name="disable">0</property>
    <property name="0">0,342</property>
    <property name="1">0,465</property>
   </filter>
   <filter id="filter141">
    <property name="version">0,1</property>
    <property name="mlt_service">frei0r.glitch0r</property>
    <property name="kdenlive_id">frei0r.glitch0r</property>
    <property name="tag">frei0r.glitch0r</property>
    <property name="kdenlive_info"/>
    <property name="kdenlive_ix">2</property>
    <property name="disable"/>
    <property name="0">0,473</property>
    <property name="1">0,05</property>
    <property name="2">0,003</property>
    <property name="3">0</property>
   </filter>
  </entry>
  <blank length="14"/>
  <entry producer="28_playlist7" in="531" out="570">
   <filter id="filter142">
    <property name="version">0,1</property>
    <property name="mlt_service">frei0r.rgbsplit0r</property>
    <property name="kdenlive_id">frei0r.rgbsplit0r</property>
    <property name="tag">frei0r.rgbsplit0r</property>
    <property name="kdenlive_ix">1</property>
    <property name="0">0,342</property>
    <property name="1">0,465</property>
    <property name="kdenlive_info"/>
    <property name="disable">0</property>
   </filter>
   <filter id="filter143">
    <property name="version">0,1</property>
    <property name="mlt_service">frei0r.glitch0r</property>
    <property name="kdenlive_id">frei0r.glitch0r</property>
    <property name="tag">frei0r.glitch0r</property>
    <property name="kdenlive_ix">2</property>
    <property name="0">0,473</property>
    <property name="1">0,05</property>
    <property name="2">0,003</property>
    <property name="3">0</property>
    <property name="kdenlive_info"/>
    <property name="disable"/>
   </filter>
  </entry>
  <entry producer="28_playlist7" in="571" out="574">
   <filter id="filter144">
    <property name="version">0,1</property>
    <property name="mlt_service">frei0r.rgbsplit0r</property>
    <property name="kdenlive_id">frei0r.rgbsplit0r</property>
    <property name="tag">frei0r.rgbsplit0r</property>
    <property name="kdenlive_ix">1</property>
    <property name="0">0,432</property>
    <property name="1">0,472</property>
    <property name="kdenlive_info"/>
    <property name="disable">0</property>
   </filter>
   <filter id="filter145">
    <property name="version">0,1</property>
    <property name="mlt_service">frei0r.glitch0r</property>
    <property name="kdenlive_id">frei0r.glitch0r</property>
    <property name="tag">frei0r.glitch0r</property>
    <property name="kdenlive_ix">2</property>
    <property name="0">0,473</property>
    <property name="1">0,324</property>
    <property name="2">0,029</property>
    <property name="3">0</property>
    <property name="kdenlive_info"/>
    <property name="disable"/>
   </filter>
  </entry>
  <blank length="49"/>
  <entry producer="28_playlist7" in="571" out="575">
   <filter id="filter146">
    <property name="version">0,1</property>
    <property name="mlt_service">frei0r.rgbsplit0r</property>
    <property name="kdenlive_id">frei0r.rgbsplit0r</property>
    <property name="tag">frei0r.rgbsplit0r</property>
    <property name="kdenlive_ix">1</property>
    <property name="kdenlive_info"/>
    <property name="disable"/>
    <property name="0">0,327</property>
    <property name="1">0,475</property>
   </filter>
   <filter id="filter147">
    <property name="version">0,1</property>
    <property name="mlt_service">frei0r.glitch0r</property>
    <property name="kdenlive_id">frei0r.glitch0r</property>
    <property name="tag">frei0r.glitch0r</property>
    <property name="kdenlive_ix">2</property>
    <property name="kdenlive_info"/>
    <property name="disable"/>
    <property name="0">0,473</property>
    <property name="1">0,324</property>
    <property name="2">0,018</property>
    <property name="3">0</property>
   </filter>
  </entry>
  <blank length="490"/>
  <entry producer="28_playlist7" in="1441" out="1569">
   <filter id="filter148">
    <property name="mode">alpha</property>
    <property name="alpha_operation">clear</property>
    <property name="invert">1</property>
    <property name="feather">0</property>
    <property name="feather_passes">1</property>
    <property name="mlt_service">rotoscoping</property>
    <property name="kdenlive_id">rotoscoping</property>
    <property name="tag">rotoscoping</property>
    <property name="kdenlive_ix">1</property>
    <property name="spline">[
    [
        [
            0.8966751918158569,
            0.7923557828928673
        ],
        [
            0.8746803069053708,
            0.7864450127877238
        ],
        [
            0.8746803069053708,
            0.8200909349246945
        ]
    ],
    [
        [
            0.8746803069053708,
            0.9210287013356068
        ],
        [
            0.8746803069053708,
            0.9546746234725775
        ],
        [
            0.8979539641943735,
            0.954219948849105
        ]
    ],
    [
        [
            1.0099744245524296,
            0.9642227905655015
        ],
        [
            1.0332480818414322,
            0.9637681159420289
        ],
        [
            1.0319693094629157,
            0.9364876385336742
        ]
    ],
    [
        [
            1.0217391304347827,
            0.8546462063086104
        ],
        [
            1.0204603580562661,
            0.8273657289002558
        ],
        [
            0.99846547314578,
            0.8214549587951123
        ]
    ]
]
</property>
    <property name="kdenlive_info"/>
   </filter>
  </entry>
  <blank length="235"/>
  <entry producer="slowmotion:10:0,5:1:0" in="6332" out="6527">
   <filter id="filter149">
    <property name="version">0,3</property>
    <property name="mlt_service">frei0r.levels</property>
    <property name="kdenlive_id">frei0r.levels</property>
    <property name="tag">frei0r.levels</property>
    <property name="kdenlive_ix">2</property>
    <property name="Channel">0,3</property>
    <property name="Input black level">6332=0</property>
    <property name="Input white level">6332=1</property>
    <property name="Gamma">6332=0,25</property>
    <property name="Black output">6332=0</property>
    <property name="White output">6332=0,85</property>
    <property name="Show histogram">0</property>
    <property name="Histogram position">0,3</property>
    <property name="kdenlive_info"/>
   </filter>
  </entry>
  <blank length="53"/>
  <entry producer="producer2" in="1985" out="2385"/>
  <entry producer="28_playlist7" in="2386" out="2435"/>
  <entry producer="28_playlist7" in="2436" out="2909"/>
  <blank length="71"/>
  <entry producer="28_playlist7" in="2981" out="3017">
   <filter id="filter150">
    <property name="mode">alpha</property>
    <property name="alpha_operation">clear</property>
    <property name="invert">1</property>
    <property name="feather">0</property>
    <property name="feather_passes">1</property>
    <property name="mlt_service">rotoscoping</property>
    <property name="kdenlive_id">rotoscoping</property>
    <property name="tag">rotoscoping</property>
    <property name="kdenlive_ix">1</property>
    <property name="spline">[
    [
        [
            0.8644501278772379,
            0.714151747655584
        ],
        [
            0.8375959079283888,
            0.7046035805626598
        ],
        [
            0.8314578005115091,
            0.7555271383915885
        ]
    ],
    [
        [
            0.8028132992327366,
            0.9628587666950839
        ],
        [
            0.7966751918158568,
            1.0137823245240125
        ],
        [
            0.8299232736572891,
            1.0137823245240125
        ]
    ],
    [
        [
            1.0127877237851661,
            1.0319693094629154
        ],
        [
            1.0460358056265986,
            1.0319693094629154
        ],
        [
            1.0457800511508952,
            0.9905939187269108
        ]
    ],
    [
        [
            0.9721227621483376,
            0.793719806763285
        ],
        [
            0.9718670076726342,
            0.7523444160272805
        ],
        [
            0.9450127877237852,
            0.7427962489343564
        ]
    ]
]
</property>
    <property name="kdenlive_info"/>
   </filter>
  </entry>
  <blank length="34"/>
  <entry producer="28_playlist7" in="3052" out="3065">
   <filter id="filter151">
    <property name="mode">alpha</property>
    <property name="alpha_operation">clear</property>
    <property name="invert">1</property>
    <property name="feather">0</property>
    <property name="feather_passes">1</property>
    <property name="mlt_service">rotoscoping</property>
    <property name="kdenlive_id">rotoscoping</property>
    <property name="tag">rotoscoping</property>
    <property name="kdenlive_ix">1</property>
    <property name="spline">[
    [
        [
            0.8698209718670077,
            0.8300937766410913
        ],
        [
            0.8465473145780051,
            0.8319124751349816
        ],
        [
            0.8437340153452685,
            0.8555555555555555
        ]
    ],
    [
        [
            0.8404092071611253,
            1.0083262290423416
        ],
        [
            0.8375959079283888,
            1.0319693094629154
        ],
        [
            0.8687979539641943,
            1.0392441034384767
        ]
    ],
    [
        [
            1.0544757033248082,
            1.0087809036658142
        ],
        [
            1.0856777493606138,
            1.0160556976413753
        ],
        [
            1.0805626598465472,
            0.9833191247513499
        ]
    ],
    [
        [
            0.983375959079284,
            0.8396419437340154
        ],
        [
            0.9782608695652174,
            0.8069053708439897
        ],
        [
            0.9549872122762149,
            0.80872406933788
        ]
    ]
]
</property>
    <property name="kdenlive_info"/>
   </filter>
  </entry>
  <entry producer="28_playlist7" in="3066" out="3153"/>
  <entry producer="28_playlist7" in="3154" out="3192">
   <filter id="filter152">
    <property name="mode">alpha</property>
    <property name="alpha_operation">clear</property>
    <property name="invert">1</property>
    <property name="feather">0</property>
    <property name="feather_passes">1</property>
    <property name="mlt_service">rotoscoping</property>
    <property name="kdenlive_id">rotoscoping</property>
    <property name="tag">rotoscoping</property>
    <property name="kdenlive_ix">1</property>
    <property name="spline">[
    [
        [
            0.917391304347826,
            0.8473714123330492
        ],
        [
            0.9002557544757033,
            0.8500994600738847
        ],
        [
            0.8966751918158569,
            0.8755612389883489
        ]
    ],
    [
        [
            0.8833759590792839,
            0.9996874111963627
        ],
        [
            0.8797953964194374,
            1.025149190110827
        ],
        [
            0.9033248081841433,
            1.0256038647342995
        ]
    ],
    [
        [
            0.9790281329923274,
            1.0474282466609832
        ],
        [
            1.0025575447570332,
            1.0478829212844558
        ],
        [
            0.9997442455242967,
            1.0192384200056834
        ]
    ],
    [
        [
            1.015601023017903,
            0.8651037226484797
        ],
        [
            1.0127877237851661,
            0.8364592213697073
        ],
        [
            0.9956521739130435,
            0.8391872691105428
        ]
    ]
]
</property>
    <property name="kdenlive_info"/>
   </filter>
  </entry>
  <entry producer="28_playlist7" in="3193" out="3299"/>
  <blank length="105"/>
  <entry producer="28_playlist7" in="3405" out="3492">
   <filter id="filter153">
    <property name="mode">alpha</property>
    <property name="alpha_operation">clear</property>
    <property name="invert">1</property>
    <property name="feather">0</property>
    <property name="feather_passes">1</property>
    <property name="mlt_service">rotoscoping</property>
    <property name="kdenlive_id">rotoscoping</property>
    <property name="tag">rotoscoping</property>
    <property name="kdenlive_ix">1</property>
    <property name="spline">{
    "3405": [
        [
            [
                0.9644501278772378,
                0.7909917590224497
            ],
            [
                0.9578005115089514,
                0.7887183859050867
            ],
            [
                0.9557544757033248,
                0.826001705029838
            ]
        ],
        [
            [
                0.9445012787723784,
                0.9651321398124467
            ],
            [
                0.9424552429667519,
                1.002415458937198
            ],
            [
                0.9498721227621483,
                1.0060528559249786
            ]
        ],
        [
            [
                1.0092071611253197,
                0.9965046888320547
            ],
            [
                1.0166240409207161,
                1.0001420858198353
            ],
            [
                1.0179028132992327,
                0.9614947428246663
            ]
        ],
        [
            [
                1.0191815856777493,
                0.8069053708439897
            ],
            [
                1.0204603580562661,
                0.7682580278488207
            ],
            [
                1.0138107416879796,
                0.7659846547314577
            ]
        ]
    ],
    "3478": [
        [
            [
                0.9375959079283888,
                0.8569195794259733
            ],
            [
                0.9309462915601023,
                0.8546462063086103
            ],
            [
                0.9289002557544758,
                0.8919295254333618
            ]
        ],
        [
            [
                0.9125319693094629,
                0.976499005399261
            ],
            [
                0.9104859335038363,
                1.0137823245240125
            ],
            [
                0.9179028132992327,
                1.017419721511793
            ]
        ],
        [
            [
                1.0092071611253197,
                0.9965046888320547
            ],
            [
                1.0166240409207161,
                1.0001420858198353
            ],
            [
                1.0179028132992327,
                0.9614947428246663
            ]
        ],
        [
            [
                1.0191815856777493,
                0.8069053708439897
            ],
            [
                1.0204603580562661,
                0.7682580278488207
            ],
            [
                1.0138107416879796,
                0.7659846547314577
            ]
        ]
    ],
    "3486": [
        [
            [
                0.9273657289002558,
                0.8910201761864167
            ],
            [
                0.9207161125319694,
                0.8887468030690537
            ],
            [
                0.9186700767263428,
                0.9260301221938051
            ]
        ],
        [
            [
                0.9069939524722932,
                0.9719759401345078
            ],
            [
                0.9049479166666666,
                1.0092592592592593
            ],
            [
                0.912364796462063,
                1.0128966562470398
            ]
        ],
        [
            [
                1.0092071611253197,
                0.9965046888320547
            ],
            [
                1.0166240409207161,
                1.0001420858198353
            ],
            [
                1.0179028132992327,
                0.9614947428246663
            ]
        ],
        [
            [
                1.0191815856777493,
                0.8069053708439897
            ],
            [
                1.0204603580562661,
                0.7682580278488207
            ],
            [
                1.0138107416879796,
                0.7659846547314577
            ]
        ]
    ],
    "3487": [
        [
            [
                0.936054720801364,
                0.8658828265605759
            ],
            [
                0.9212239583333334,
                0.8923611111111112
            ],
            [
                0.9191779225277068,
                0.9296444302358625
            ]
        ],
        [
            [
                0.9069939524722932,
                0.9719759401345078
            ],
            [
                0.9049479166666666,
                1.0092592592592593
            ],
            [
                0.912364796462063,
                1.0128966562470398
            ]
        ],
        [
            [
                1.0092071611253197,
                0.9965046888320547
            ],
            [
                1.0166240409207161,
                1.0001420858198353
            ],
            [
                1.0179028132992327,
                0.9614947428246663
            ]
        ],
        [
            [
                1.0191815856777493,
                0.8069053708439897
            ],
            [
                1.0204603580562661,
                0.7682580278488207
            ],
            [
                1.0138107416879796,
                0.7659846547314577
            ]
        ]
    ],
    "3488": [
        [
            [
                0.9386588874680306,
                0.8786143080420573
            ],
            [
                0.923828125,
                0.9050925925925926
            ],
            [
                0.9166666666666666,
                0.9432870370370371
            ]
        ],
        [
            [
                0.9069939524722932,
                0.9650314956900634
            ],
            [
                0.9049479166666666,
                1.0023148148148149
            ],
            [
                0.912364796462063,
                1.0059522118025954
            ]
        ],
        [
            [
                1.0092071611253197,
                0.9965046888320547
            ],
            [
                1.0166240409207161,
                1.0001420858198353
            ],
            [
                1.0179028132992327,
                0.9614947428246663
            ]
        ],
        [
            [
                1.0191815856777493,
                0.8069053708439897
            ],
            [
                1.0204603580562661,
                0.7682580278488207
            ],
            [
                0.9108072916666666,
                0.8668981481481481
            ]
        ]
    ],
    "3489": [
        [
            [
                0.9412630541346974,
                0.8959754191531685
            ],
            [
                0.9264322916666666,
                0.9224537037037037
            ],
            [
                0.908203125,
                0.9421296296296297
            ]
        ],
        [
            [
                0.9069939524722932,
                0.9650314956900634
            ],
            [
                0.9049479166666666,
                1.0023148148148149
            ],
            [
                0.912364796462063,
                1.0059522118025954
            ]
        ],
        [
            [
                1.0092071611253197,
                0.9965046888320547
            ],
            [
                1.0166240409207161,
                1.0001420858198353
            ],
            [
                1.0179028132992327,
                0.9614947428246663
            ]
        ],
        [
            [
                1.0191815856777493,
                0.8069053708439897
            ],
            [
                1.0204603580562661,
                0.7682580278488207
            ],
            [
                0.9108072916666666,
                0.8668981481481481
            ]
        ]
    ],
    "3490": [
        [
            [
                0.939453125,
                0.8993055555555556
            ],
            [
                0.9290364583333334,
                0.9282407407407407
            ],
            [
                0.9108072916666666,
                0.9479166666666666
            ]
        ],
        [
            [
                0.9069939524722932,
                0.9650314956900634
            ],
            [
                0.9049479166666666,
                1.0023148148148149
            ],
            [
                0.912364796462063,
                1.0059522118025954
            ]
        ],
        [
            [
                1.0092071611253197,
                0.9965046888320547
            ],
            [
                1.0166240409207161,
                1.0001420858198353
            ],
            [
                1.0179028132992327,
                0.9614947428246663
            ]
        ],
        [
            [
                1.0191815856777493,
                0.8069053708439897
            ],
            [
                1.0204603580562661,
                0.7682580278488207
            ],
            [
                0.9524739583333334,
                0.8993055555555556
            ]
        ]
    ],
    "3491": [
        [
            [
                0.9446614583333334,
                0.9155092592592593
            ],
            [
                0.9309895833333334,
                0.9398148148148148
            ],
            [
                0.919921875,
                0.9733796296296297
            ]
        ],
        [
            [
                0.8736979166666666,
                0.8703703703703703
            ],
            [
                0.9049479166666666,
                1.0023148148148149
            ],
            [
                0.912364796462063,
                1.0059522118025954
            ]
        ],
        [
            [
                1.0092071611253197,
                0.9965046888320547
            ],
            [
                1.0166240409207161,
                1.0001420858198353
            ],
            [
                1.0179028132992327,
                0.9614947428246663
            ]
        ],
        [
            [
                1.0191815856777493,
                0.8069053708439897
            ],
            [
                1.0204603580562661,
                0.7682580278488207
            ],
            [
                0.9524739583333334,
                0.8993055555555556
            ]
        ]
    ],
    "3492": [
        [
            [
                0.951171875,
                0.9166666666666666
            ],
            [
                0.9375,
                0.9409722222222222
            ],
            [
                0.9264322916666666,
                0.9745370370370371
            ]
        ],
        [
            [
                0.873046875,
                0.8495370370370371
            ],
            [
                0.9049479166666666,
                1.0023148148148149
            ],
            [
                0.912364796462063,
                1.0059522118025954
            ]
        ],
        [
            [
                1.0092071611253197,
                0.9965046888320547
            ],
            [
                1.0166240409207161,
                1.0001420858198353
            ],
            [
                1.0179028132992327,
                0.9614947428246663
            ]
        ],
        [
            [
                1.0191815856777493,
                0.8069053708439897
            ],
            [
                1.0204603580562661,
                0.7682580278488207
            ],
            [
                0.9524739583333334,
                0.8993055555555556
            ]
        ]
    ]
}
</property>
    <property name="kdenlive_info"/>
    <property name="disable"/>
   </filter>
  </entry>
  <blank length="216"/>
  <entry producer="28_playlist7" in="3709" out="3792"/>
  <blank length="33"/>
  <entry producer="28_playlist7" in="3826" out="3958">
   <filter id="filter154">
    <property name="mode">alpha</property>
    <property name="alpha_operation">sub</property>
    <property name="invert">0</property>
    <property name="feather">0</property>
    <property name="feather_passes">1</property>
    <property name="mlt_service">rotoscoping</property>
    <property name="kdenlive_id">rotoscoping</property>
    <property name="tag">rotoscoping</property>
    <property name="kdenlive_ix">1</property>
    <property name="spline">[
    [
        [
            0.8777493606138107,
            -0.05515771526001704
        ],
        [
            0.8580562659846547,
            -0.05470304063654447
        ],
        [
            0.8572890025575447,
            0.09261153736857056
        ]
    ],
    [
        [
            0.8588235294117648,
            0.8914748508098891
        ],
        [
            0.8580562659846547,
            1.0387894288150041
        ],
        [
            0.8805626598465472,
            1.0392441034384767
        ]
    ],
    [
        [
            1.0529411764705883,
            1.0406081273088945
        ],
        [
            1.0754475703324808,
            1.041062801932367
        ],
        [
            1.0734015345268544,
            0.8928388746803069
        ]
    ],
    [
        [
            1.044245524296675,
            0.09579425973287861
        ],
        [
            1.0421994884910486,
            -0.052429667519181586
        ],
        [
            1.0225063938618926,
            -0.05197499289570902
        ]
    ]
]
</property>
    <property name="kdenlive_info"/>
   </filter>
  </entry>
  <blank length="288"/>
  <entry producer="28_playlist7" in="4247" out="4330"/>
  <blank length="209"/>
  <entry producer="28_playlist7" in="4540" out="4665"/>
  <blank length="183"/>
  <entry producer="28_playlist7" in="4849" out="4894"/>
  <blank length="153"/>
  <entry producer="28_playlist7" in="5048" out="5169"/>
  <blank length="576"/>
  <entry producer="28_playlist7" in="5746" out="5922"/>
  <entry producer="28_playlist7" in="5923" out="6184">
   <filter id="filter155">
    <property name="background">colour:0x00000000</property>
    <property name="mlt_service">affine</property>
    <property name="kdenlive_id">pan_zoom</property>
    <property name="tag">affine</property>
    <property name="kdenlive_ix">1</property>
    <property name="kdenlive_info"/>
    <property name="disable"/>
    <property name="transition.geometry">0=0 0 1920 1080</property>
    <property name="transition.distort">0</property>
   </filter>
  </entry>
  <entry producer="28_playlist7" in="6185" out="6290">
   <filter id="filter156">
    <property name="mode">alpha</property>
    <property name="alpha_operation">clear</property>
    <property name="invert">1</property>
    <property name="feather">0</property>
    <property name="feather_passes">1</property>
    <property name="mlt_service">rotoscoping</property>
    <property name="kdenlive_id">rotoscoping</property>
    <property name="tag">rotoscoping</property>
    <property name="kdenlive_ix">1</property>
    <property name="spline">[
    [
        [
            0.8959079283887468,
            0.6282182438192668
        ],
        [
            0.8772378516624041,
            0.620488775220233
        ],
        [
            0.8736572890025575,
            0.6900539926115373
        ]
    ],
    [
        [
            0.8693094629156011,
            0.9737709576584257
        ],
        [
            0.8657289002557546,
            1.04333617504973
        ],
        [
            0.8925831202046036,
            1.042426825802785
        ]
    ],
    [
        [
            0.9923273657289003,
            1.0328786587098606
        ],
        [
            1.0191815856777493,
            1.0319693094629154
        ],
        [
            1.0145780051150897,
            0.97104290991759
        ]
    ],
    [
        [
            1.1069053708439898,
            0.6745950554134698
        ],
        [
            1.10230179028133,
            0.6136686558681443
        ],
        [
            1.083631713554987,
            0.6059391872691106
        ]
    ]
]
</property>
    <property name="kdenlive_info"/>
   </filter>
  </entry>
  <blank length="194"/>
  <entry producer="28_playlist7" in="6485" out="6538">
   <filter id="filter157">
    <property name="mode">alpha</property>
    <property name="alpha_operation">clear</property>
    <property name="invert">1</property>
    <property name="feather">0</property>
    <property name="feather_passes">1</property>
    <property name="mlt_service">rotoscoping</property>
    <property name="kdenlive_id">rotoscoping</property>
    <property name="tag">rotoscoping</property>
    <property name="kdenlive_ix">1</property>
    <property name="spline">{
    "6485": [
        [
            [
                1.0012787723785166,
                0.7318840579710145
            ],
            [
                0.9948849104859334,
                0.7318840579710145
            ],
            [
                1.0063938618925832,
                0.8478260869565217
            ]
        ],
        [
            [
                0.9127877237851663,
                0.9874111963626031
            ],
            [
                0.9040920716112532,
                1.041062801932367
            ],
            [
                0.918925831202046,
                1.042426825802785
            ]
        ],
        [
            [
                0.9992327365728901,
                0.9987780619494174
            ],
            [
                1.014066496163683,
                1.0001420858198353
            ],
            [
                1.014322250639386,
                0.9451264563796533
            ]
        ],
        [
            [
                1.022762148337596,
                0.7641659562375674
            ],
            [
                1.0230179028132993,
                0.7091503267973857
            ],
            [
                1.0166240409207161,
                0.7091503267973857
            ]
        ]
    ],
    "6487": [
        [
            [
                1.0000000000000002,
                0.6932367149758454
            ],
            [
                0.9936061381074169,
                0.6932367149758454
            ],
            [
                1.0051150895140666,
                0.8091787439613526
            ]
        ],
        [
            [
                0.9127877237851663,
                0.9874111963626031
            ],
            [
                0.9040920716112532,
                1.041062801932367
            ],
            [
                0.918925831202046,
                1.042426825802785
            ]
        ],
        [
            [
                0.9992327365728901,
                0.9987780619494174
            ],
            [
                1.014066496163683,
                1.0001420858198353
            ],
            [
                1.014322250639386,
                0.9451264563796533
            ]
        ],
        [
            [
                1.022762148337596,
                0.7641659562375674
            ],
            [
                1.0230179028132993,
                0.7091503267973857
            ],
            [
                1.0166240409207161,
                0.7091503267973857
            ]
        ]
    ],
    "6494": [
        [
            [
                0.973145780051151,
                0.6750497300369424
            ],
            [
                0.9667519181585678,
                0.6750497300369424
            ],
            [
                0.9782608695652173,
                0.7909917590224496
            ]
        ],
        [
            [
                0.9127877237851663,
                0.9874111963626031
            ],
            [
                0.9040920716112532,
                1.041062801932367
            ],
            [
                0.918925831202046,
                1.042426825802785
            ]
        ],
        [
            [
                0.9992327365728901,
                0.9987780619494174
            ],
            [
                1.014066496163683,
                1.0001420858198353
            ],
            [
                1.014322250639386,
                0.9451264563796533
            ]
        ],
        [
            [
                1.022762148337596,
                0.7641659562375674
            ],
            [
                1.0230179028132993,
                0.7091503267973857
            ],
            [
                1.0166240409207161,
                0.7091503267973857
            ]
        ]
    ],
    "6499": [
        [
            [
                0.973145780051151,
                0.6750497300369424
            ],
            [
                0.9667519181585678,
                0.6750497300369424
            ],
            [
                0.9207161125319694,
                0.7887183859050867
            ]
        ],
        [
            [
                0.9038363171355499,
                0.9533105996021599
            ],
            [
                0.8951406649616369,
                1.006962205171924
            ],
            [
                0.9099744245524296,
                1.0083262290423418
            ]
        ],
        [
            [
                0.9992327365728901,
                0.9987780619494174
            ],
            [
                1.014066496163683,
                1.0001420858198353
            ],
            [
                1.014322250639386,
                0.9451264563796533
            ]
        ],
        [
            [
                1.022762148337596,
                0.7641659562375674
            ],
            [
                1.0230179028132993,
                0.7091503267973857
            ],
            [
                1.0166240409207161,
                0.7091503267973857
            ]
        ]
    ],
    "6501": [
        [
            [
                0.9437340153452688,
                0.6545893719806763
            ],
            [
                0.9373401534526855,
                0.6545893719806763
            ],
            [
                0.948849104859335,
                0.7705314009661836
            ]
        ],
        [
            [
                0.9127877237851663,
                0.9874111963626031
            ],
            [
                0.9040920716112532,
                1.041062801932367
            ],
            [
                0.918925831202046,
                1.042426825802785
            ]
        ],
        [
            [
                0.9992327365728901,
                0.9987780619494174
            ],
            [
                1.014066496163683,
                1.0001420858198353
            ],
            [
                1.014322250639386,
                0.9451264563796533
            ]
        ],
        [
            [
                1.022762148337596,
                0.7641659562375674
            ],
            [
                1.0230179028132993,
                0.7091503267973857
            ],
            [
                1.0166240409207161,
                0.7091503267973857
            ]
        ]
    ],
    "6503": [
        [
            [
                0.9437340153452688,
                0.6545893719806763
            ],
            [
                0.9373401534526855,
                0.6545893719806763
            ],
            [
                0.887468030690537,
                0.8546462063086103
            ]
        ],
        [
            [
                0.8987212276214833,
                0.951037226484797
            ],
            [
                0.8900255754475703,
                1.004688832054561
            ],
            [
                0.9048593350383631,
                1.0060528559249788
            ]
        ],
        [
            [
                0.9992327365728901,
                0.9987780619494174
            ],
            [
                1.014066496163683,
                1.0001420858198353
            ],
            [
                1.014322250639386,
                0.9451264563796533
            ]
        ],
        [
            [
                1.022762148337596,
                0.7641659562375674
            ],
            [
                1.0230179028132993,
                0.7091503267973857
            ],
            [
                1.0166240409207161,
                0.7091503267973857
            ]
        ]
    ]
}
</property>
    <property name="kdenlive_info"/>
   </filter>
  </entry>
  <entry producer="producer3" in="6539" out="6600"/>
  <blank length="193"/>
  <entry producer="28_playlist7" in="6794" out="6967"/>
  <entry producer="28_playlist7" in="6968" out="7018">
   <filter id="filter158" in="6968" out="7018">
    <property name="background">colour:0x00000000</property>
    <property name="mlt_service">affine</property>
    <property name="kdenlive_id">pan_zoom</property>
    <property name="tag">affine</property>
    <property name="kdenlive_ix">1</property>
    <property name="transition.geometry">0=-576/-162:2496x1404:100;38=-576/-162:2496x1404:100;50=-576/0:2496x1404:100</property>
    <property name="transition.distort">0</property>
    <property name="kdenlive:sync_in_out">1</property>
    <property name="kdenlive_info"/>
   </filter>
  </entry>
  <blank length="139"/>
  <entry producer="28_playlist7" in="7158" out="7176">
   <filter id="filter159">
    <property name="mode">alpha</property>
    <property name="alpha_operation">clear</property>
    <property name="invert">1</property>
    <property name="feather">0</property>
    <property name="feather_passes">1</property>
    <property name="mlt_service">rotoscoping</property>
    <property name="kdenlive_id">rotoscoping</property>
    <property name="tag">rotoscoping</property>
    <property name="kdenlive_ix">1</property>
    <property name="spline">{
    "7158": [
        [
            [
                0.9584590916761699,
                -0.007911766594333956
            ],
            [
                0.9518760195758564,
                -0.006797172376291462
            ],
            [
                0.9584013050570962,
                0.0860068878013413
            ]
        ],
        [
            [
                0.9763458401305057,
                0.28031538879825996
            ],
            [
                1.0002718868950518,
                0.49274968279862247
            ],
            [
                1.0049740812524184,
                0.4955361683437287
            ]
        ],
        [
            [
                1.0028213166144202,
                0.0614071752002787
            ],
            [
                1.0078369905956113,
                -0.01549982584465343
            ],
            [
                1.001253918495298,
                -0.014385231626610937
            ]
        ]
    ],
    "7163": [
        [
            [
                0.9674313592128746,
                -0.007911766594333956
            ],
            [
                0.9608482871125612,
                -0.006797172376291462
            ],
            [
                0.9673735725938009,
                0.08600688780134132
            ]
        ],
        [
            [
                0.9744426318651439,
                0.21288743882544858
            ],
            [
                0.99836867862969,
                0.4253217328258111
            ],
            [
                1.0030708729870565,
                0.42810821837091734
            ]
        ],
        [
            [
                1.0028213166144202,
                0.0614071752002787
            ],
            [
                1.0078369905956113,
                -0.01549982584465343
            ],
            [
                1.001253918495298,
                -0.014385231626610937
            ]
        ]
    ],
    "7168": [
        [
            [
                0.9739566446941145,
                -0.01661214723598703
            ],
            [
                0.967373572593801,
                -0.015497553017944534
            ],
            [
                0.9738988580750407,
                0.07730650715968827
            ]
        ],
        [
            [
                0.976073953235454,
                0.1418343302519485
            ],
            [
                1,
                0.35426862425231104
            ],
            [
                1.0047021943573666,
                0.3570551097974172
            ]
        ],
        [
            [
                1.0028213166144202,
                0.0614071752002787
            ],
            [
                1.0078369905956113,
                -0.01549982584465343
            ],
            [
                1.001253918495298,
                -0.014385231626610937
            ]
        ]
    ],
    "7174": [
        [
            [
                0.985375894286284,
                -0.026762591317915613
            ],
            [
                0.9787928221859706,
                -0.02564799709987312
            ],
            [
                0.9853181076672103,
                0.06715606307775969
            ]
        ],
        [
            [
                0.9850462207721586,
                0.014228747507703437
            ],
            [
                1.0089722675367048,
                0.226663041508066
            ],
            [
                1.0136744618940712,
                0.22944952705317218
            ]
        ],
        [
            [
                1.0028213166144202,
                0.0614071752002787
            ],
            [
                1.0078369905956113,
                -0.01549982584465343
            ],
            [
                1.001253918495298,
                -0.014385231626610937
            ]
        ]
    ],
    "7175": [
        [
            [
                1.058307210031348,
                -0.06398467432950193
            ],
            [
                1.0517241379310345,
                -0.06287008011145942
            ],
            [
                1.0582494234122743,
                0.029933980066173392
            ]
        ],
        [
            [
                0.9839109438310651,
                -0.018947703962048347
            ],
            [
                1.0078369905956113,
                0.1934865900383142
            ],
            [
                1.012539184952978,
                0.1962730755834204
            ]
        ],
        [
            [
                0.9721458268344697,
                0.029508052340926332
            ],
            [
                0.9771615008156608,
                -0.0473989487040058
            ],
            [
                0.9705784287153475,
                -0.046284354485963304
            ]
        ]
    ],
    "7176": [
        [
            [
                0.985375894286284,
                -0.026762591317915613
            ],
            [
                0.9787928221859706,
                -0.02564799709987312
            ],
            [
                0.9853181076672103,
                0.06715606307775969
            ]
        ],
        [
            [
                0.9850462207721586,
                0.014228747507703437
            ],
            [
                1.0089722675367048,
                0.226663041508066
            ],
            [
                1.0136744618940712,
                0.22944952705317218
            ]
        ],
        [
            [
                1.0028213166144202,
                0.0614071752002787
            ],
            [
                1.0078369905956113,
                -0.01549982584465343
            ],
            [
                1.001253918495298,
                -0.014385231626610937
            ]
        ]
    ]
}
</property>
    <property name="kdenlive_info"/>
   </filter>
  </entry>
  <entry producer="28_playlist7" in="7177" out="7245"/>
  <blank length="142"/>
  <entry producer="28_playlist7" in="7388" out="7469"/>
  <blank length="152"/>
  <entry producer="28_playlist7" in="7622" out="7700">
   <filter id="filter160">
    <property name="background">colour:0x00000000</property>
    <property name="mlt_service">affine</property>
    <property name="kdenlive_id">pan_zoom</property>
    <property name="tag">affine</property>
    <property name="kdenlive_ix">1</property>
    <property name="kdenlive_info"/>
    <property name="disable"/>
    <property name="transition.geometry">-192/-216:2304x1296:100</property>
    <property name="transition.distort">0</property>
   </filter>
  </entry>
  <blank length="129"/>
  <entry producer="28_playlist7" in="7937" out="8024">
   <filter id="filter161">
    <property name="background">colour:0x00000000</property>
    <property name="mlt_service">affine</property>
    <property name="kdenlive_id">pan_zoom</property>
    <property name="tag">affine</property>
    <property name="kdenlive_ix">1</property>
    <property name="kdenlive_info"/>
    <property name="disable"/>
    <property name="transition.geometry">-384/-216:2304x1296:100</property>
    <property name="transition.distort">0</property>
   </filter>
  </entry>
  <blank length="82"/>
  <entry producer="28_playlist7" in="8025" out="8122"/>
  <blank length="161"/>
  <entry producer="28_playlist7" in="8259" out="8318"/>
  <entry producer="28_playlist7" in="8319" out="8460">
   <filter id="filter162">
    <property name="version">0,3</property>
    <property name="mlt_service">frei0r.levels</property>
    <property name="kdenlive_id">frei0r.levels</property>
    <property name="tag">frei0r.levels</property>
    <property name="kdenlive_ix">1</property>
    <property name="Channel">0,3</property>
    <property name="Input black level">8319=0,017</property>
    <property name="Input white level">8319=1</property>
    <property name="Gamma">8319=0,25</property>
    <property name="Black output">8319=0</property>
    <property name="White output">8319=1</property>
    <property name="Show histogram">0</property>
    <property name="Histogram position">0,3</property>
    <property name="kdenlive_info">1/-1/</property>
    <property name="disable"/>
   </filter>
   <filter id="filter163" in="8319" out="8460">
    <property name="background">colour:0x00000000</property>
    <property name="mlt_service">affine</property>
    <property name="kdenlive_id">pan_zoom</property>
    <property name="tag">affine</property>
    <property name="kdenlive_ix">2</property>
    <property name="transition.geometry">52/-116:2112x1188:100</property>
    <property name="transition.distort">0</property>
    <property name="kdenlive:sync_in_out">1</property>
    <property name="kdenlive_info">0/-1/</property>
    <property name="disable">0</property>
   </filter>
   <filter id="filter164">
    <property name="mode">alpha</property>
    <property name="alpha_operation">clear</property>
    <property name="invert">1</property>
    <property name="feather">0</property>
    <property name="feather_passes">1</property>
    <property name="mlt_service">rotoscoping</property>
    <property name="kdenlive_id">rotoscoping</property>
    <property name="tag">rotoscoping</property>
    <property name="kdenlive_ix">3</property>
    <property name="spline">{
    "8319": [
        [
            [
                0.940153452685422,
                -0.0660699062233589
            ],
            [
                0.9373401534526855,
                -0.05470304063654447
            ],
            [
                0.9516624040920717,
                -0.044245524296675186
            ]
        ],
        [
            [
                1.0473145780051152,
                -0.0888036373969878
            ],
            [
                1.014066496163683,
                0.13626030122193805
            ],
            [
                1.023529411764706,
                0.1312588803637397
            ]
        ],
        [
            [
                1.044245524296675,
                0.004859335038363172
            ],
            [
                1.0537084398976981,
                -0.00014208581983518042
            ],
            [
                1.0327365728900255,
                -0.016965046888320547
            ]
        ],
        [
            [
                0.9058823529411765,
                -0.008326229042341576
            ],
            [
                0.8849104859335039,
                -0.02514919011082694
            ],
            [
                0.8820971867007672,
                -0.013782324524012504
            ]
        ]
    ],
    "8382": [
        [
            [
                1.0578005115089515,
                -0.15245808468314861
            ],
            [
                1.0549872122762147,
                -0.14109121909633418
            ],
            [
                1.069309462915601,
                -0.13063370275646488
            ]
        ],
        [
            [
                1.0031830647397775,
                0.11028906760888396
            ],
            [
                1.014066496163683,
                0.13626030122193805
            ],
            [
                1.023529411764706,
                0.1312588803637397
            ]
        ],
        [
            [
                1.044245524296675,
                0.004859335038363172
            ],
            [
                1.0537084398976981,
                -0.00014208581983518042
            ],
            [
                1.0327365728900255,
                -0.016965046888320547
            ]
        ],
        [
            [
                0.9058823529411765,
                -0.008326229042341576
            ],
            [
                0.8849104859335039,
                -0.02514919011082694
            ],
            [
                0.8820971867007672,
                -0.013782324524012504
            ]
        ]
    ],
    "8391": [
        [
            [
                0.8736572890025575,
                0.020318272236430807
            ],
            [
                0.8708439897698209,
                0.03168513782324524
            ],
            [
                0.8851662404092071,
                0.042142654163114524
            ]
        ],
        [
            [
                0.9997442455242967,
                0.12580278488206878
            ],
            [
                1.014066496163683,
                0.13626030122193805
            ],
            [
                1.023529411764706,
                0.1312588803637397
            ]
        ],
        [
            [
                1.044245524296675,
                0.004859335038363172
            ],
            [
                1.0537084398976981,
                -0.00014208581983518042
            ],
            [
                1.0327365728900255,
                -0.016965046888320547
            ]
        ],
        [
            [
                0.9058823529411765,
                -0.008326229042341576
            ],
            [
                0.8849104859335039,
                -0.02514919011082694
            ],
            [
                0.8820971867007672,
                -0.013782324524012504
            ]
        ]
    ],
    "8416": [
        [
            [
                0.6230179028132992,
                -0.0137823245240125
            ],
            [
                0.6202046035805626,
                -0.0024154589371980675
            ],
            [
                0.6345268542199488,
                0.008042057402671221
            ]
        ],
        [
            [
                0.9997442455242967,
                0.12580278488206878
            ],
            [
                1.014066496163683,
                0.13626030122193805
            ],
            [
                1.023529411764706,
                0.1312588803637397
            ]
        ],
        [
            [
                1.044245524296675,
                0.004859335038363172
            ],
            [
                1.0537084398976981,
                -0.00014208581983518042
            ],
            [
                1.0327365728900255,
                -0.016965046888320547
            ]
        ],
        [
            [
                0.7601023017902814,
                -0.06516055697641375
            ],
            [
                0.7391304347826088,
                -0.08198351804489912
            ],
            [
                0.7363171355498721,
                -0.07061665245808468
            ]
        ]
    ],
    "8423": [
        [
            [
                0.6230179028132992,
                -0.0137823245240125
            ],
            [
                0.6202046035805626,
                -0.0024154589371980675
            ],
            [
                0.6345268542199488,
                0.008042057402671221
            ]
        ],
        [
            [
                1.0735683743606137,
                0.1585239651416122
            ],
            [
                1.087890625,
                0.16898148148148148
            ],
            [
                1.097353540601023,
                0.16398006062328313
            ]
        ],
        [
            [
                1.044245524296675,
                0.004859335038363172
            ],
            [
                1.0537084398976981,
                -0.00014208581983518042
            ],
            [
                1.0327365728900255,
                -0.016965046888320547
            ]
        ],
        [
            [
                0.7601023017902814,
                -0.06516055697641375
            ],
            [
                0.7391304347826088,
                -0.08198351804489912
            ],
            [
                0.7363171355498721,
                -0.07061665245808468
            ]
        ]
    ],
    "8427": [
        [
            [
                0.6230179028132992,
                -0.0137823245240125
            ],
            [
                0.6202046035805626,
                -0.0024154589371980675
            ],
            [
                0.6345268542199488,
                0.008042057402671221
            ]
        ],
        [
            [
                1.0735683743606137,
                0.1585239651416122
            ],
            [
                1.087890625,
                0.16898148148148148
            ],
            [
                1.097353540601023,
                0.16398006062328313
            ]
        ],
        [
            [
                1.044245524296675,
                0.004859335038363172
            ],
            [
                1.0537084398976981,
                -0.00014208581983518042
            ],
            [
                1.0327365728900255,
                -0.016965046888320547
            ]
        ],
        [
            [
                0.7601023017902814,
                -0.06516055697641375
            ],
            [
                0.7391304347826088,
                -0.08198351804489912
            ],
            [
                0.7363171355498721,
                -0.07061665245808468
            ]
        ]
    ],
    "8428": [
        [
            [
                0.5946101742327365,
                -0.0055798285497773974
            ],
            [
                0.591796875,
                0.005787037037037037
            ],
            [
                0.6061191256393862,
                0.016244553376906327
            ]
        ],
        [
            [
                1.0852871243606137,
                0.1886165577342048
            ],
            [
                1.099609375,
                0.19907407407407407
            ],
            [
                1.109072290601023,
                0.19407265321587572
            ]
        ],
        [
            [
                1.044245524296675,
                0.004859335038363172
            ],
            [
                1.0537084398976981,
                -0.00014208581983518042
            ],
            [
                1.0327365728900255,
                -0.016965046888320547
            ]
        ],
        [
            [
                0.7601023017902814,
                -0.06516055697641375
            ],
            [
                0.7391304347826088,
                -0.08198351804489912
            ],
            [
                0.7363171355498721,
                -0.07061665245808468
            ]
        ]
    ],
    "8434": [
        [
            [
                0.5841935075660699,
                -0.015996495216444064
            ],
            [
                0.5813802083333334,
                -0.004629629629629629
            ],
            [
                0.5957024589727195,
                0.00582788671023966
            ]
        ],
        [
            [
                1.1113287910272802,
                0.22218137254901962
            ],
            [
                1.1256510416666667,
                0.2326388888888889
            ],
            [
                1.1351139572676898,
                0.22763746803069054
            ]
        ],
        [
            [
                1.044245524296675,
                0.004859335038363172
            ],
            [
                1.0537084398976981,
                -0.00014208581983518042
            ],
            [
                1.0327365728900255,
                -0.016965046888320547
            ]
        ],
        [
            [
                0.7601023017902814,
                -0.06516055697641375
            ],
            [
                0.7391304347826088,
                -0.08198351804489912
            ],
            [
                0.7363171355498721,
                -0.07061665245808468
            ]
        ]
    ],
    "8441": [
        [
            [
                0.5405737158994033,
                -0.019468717438666287
            ],
            [
                0.5377604166666666,
                -0.008101851851851851
            ],
            [
                0.5520826673060528,
                0.002355664488017438
            ]
        ],
        [
            [
                1.117839207693947,
                0.2962554466230937
            ],
            [
                1.1321614583333333,
                0.30671296296296297
            ],
            [
                1.1416243739343563,
                0.3017115421047646
            ]
        ],
        [
            [
                1.044245524296675,
                0.004859335038363172
            ],
            [
                1.0537084398976981,
                -0.00014208581983518042
            ],
            [
                1.0327365728900255,
                -0.016965046888320547
            ]
        ],
        [
            [
                0.7601023017902814,
                -0.06516055697641375
            ],
            [
                0.7391304347826088,
                -0.08198351804489912
            ],
            [
                0.7363171355498721,
                -0.07061665245808468
            ]
        ]
    ],
    "8446": [
        [
            [
                0.4943497575660699,
                -0.00905205077199962
            ],
            [
                0.4915364583333333,
                0.0023148148148148147
            ],
            [
                0.5058587089727195,
                0.012772331154684105
            ]
        ],
        [
            [
                1.117839207693947,
                0.2962554466230937
            ],
            [
                1.1321614583333333,
                0.30671296296296297
            ],
            [
                1.1416243739343563,
                0.3017115421047646
            ]
        ],
        [
            [
                1.044245524296675,
                0.004859335038363172
            ],
            [
                1.0537084398976981,
                -0.00014208581983518042
            ],
            [
                1.0327365728900255,
                -0.016965046888320547
            ]
        ],
        [
            [
                0.7601023017902814,
                -0.06516055697641375
            ],
            [
                0.7391304347826088,
                -0.08198351804489912
            ],
            [
                0.7363171355498721,
                -0.07061665245808468
            ]
        ]
    ],
    "8449": [
        [
            [
                0.4559382992327366,
                -0.015996495216444064
            ],
            [
                0.453125,
                -0.004629629629629629
            ],
            [
                0.46744725063938614,
                0.0058278867102396605
            ]
        ],
        [
            [
                0.963542332693947,
                0.26384803921568634
            ],
            [
                0.9778645833333334,
                0.2743055555555556
            ],
            [
                1.0078125,
                0.8923611111111112
            ]
        ],
        [
            [
                1.044245524296675,
                0.004859335038363172
            ],
            [
                1.0537084398976981,
                -0.00014208581983518042
            ],
            [
                1.0327365728900255,
                -0.016965046888320547
            ]
        ],
        [
            [
                0.7601023017902814,
                -0.06516055697641375
            ],
            [
                0.7391304347826088,
                -0.08198351804489912
            ],
            [
                0.7363171355498721,
                -0.07061665245808468
            ]
        ]
    ],
    "8458": [
        [
            [
                0.40385496589940323,
                -0.028727976697925546
            ],
            [
                0.4010416666666667,
                -0.017361111111111112
            ],
            [
                0.41536391730605277,
                -0.006903594771241821
            ]
        ],
        [
            [
                0.9531256660272802,
                0.26732026143790855
            ],
            [
                0.9674479166666666,
                0.2777777777777778
            ],
            [
                0.9856770833333334,
                1.0405092592592593
            ]
        ],
        [
            [
                1.044245524296675,
                0.004859335038363172
            ],
            [
                1.0537084398976981,
                -0.00014208581983518042
            ],
            [
                1.0327365728900255,
                -0.016965046888320547
            ]
        ],
        [
            [
                0.7601023017902814,
                -0.06516055697641375
            ],
            [
                0.7391304347826088,
                -0.08198351804489912
            ],
            [
                0.7363171355498721,
                -0.07061665245808468
            ]
        ]
    ],
    "8460": [
        [
            [
                0.4064591325660699,
                -0.021783532253481102
            ],
            [
                0.4036458333333333,
                -0.010416666666666666
            ],
            [
                0.41796808397271945,
                4.084967320262328e-05
            ]
        ],
        [
            [
                0.9531256660272802,
                0.26732026143790855
            ],
            [
                0.9674479166666666,
                0.2777777777777778
            ],
            [
                0.9856770833333334,
                1.0405092592592593
            ]
        ],
        [
            [
                1.044245524296675,
                0.004859335038363172
            ],
            [
                1.0537084398976981,
                -0.00014208581983518042
            ],
            [
                1.0327365728900255,
                -0.016965046888320547
            ]
        ],
        [
            [
                0.7601023017902814,
                -0.06516055697641375
            ],
            [
                0.7391304347826088,
                -0.08198351804489912
            ],
            [
                0.7363171355498721,
                -0.07061665245808468
            ]
        ]
    ]
}
</property>
    <property name="kdenlive_info"/>
    <property name="disable">0</property>
   </filter>
  </entry>
  <blank length="195"/>
  <entry producer="28_playlist7" in="8829" out="8925">
   <filter id="filter165">
    <property name="version">0,3</property>
    <property name="mlt_service">frei0r.levels</property>
    <property name="kdenlive_id">frei0r.levels</property>
    <property name="tag">frei0r.levels</property>
    <property name="kdenlive_ix">1</property>
    <property name="disable">0</property>
    <property name="Channel">0,3</property>
    <property name="Input black level">8829=0</property>
    <property name="Input white level">8829=0,9</property>
    <property name="Gamma">8829=0,275</property>
    <property name="Black output">8829=0</property>
    <property name="White output">8829=1</property>
    <property name="Show histogram">0</property>
    <property name="Histogram position">0,3</property>
   </filter>
  </entry>
  <entry producer="slowmotion:28:0,5:1:0" in="17852" out="18229">
   <filter id="fade_to_black" in="18180" out="18229">
    <property name="start">1</property>
    <property name="mlt_service">brightness</property>
    <property name="kdenlive_id">fade_to_black</property>
    <property name="tag">brightness</property>
    <property name="kdenlive_ix">2</property>
    <property name="kdenlive_info"/>
    <property name="disable"/>
    <property name="end">0</property>
   </filter>
   <filter id="filter67">
    <property name="version">0,3</property>
    <property name="mlt_service">frei0r.levels</property>
    <property name="kdenlive_id">frei0r.levels</property>
    <property name="tag">frei0r.levels</property>
    <property name="kdenlive_ix">3</property>
    <property name="disable">0</property>
    <property name="Channel">0,3</property>
    <property name="Input black level">17852=0</property>
    <property name="Input white level">17852=0,9</property>
    <property name="Gamma">17852=0,275</property>
    <property name="Black output">17852=0</property>
    <property name="White output">17852=1</property>
    <property name="Show histogram">0</property>
    <property name="Histogram position">0,3</property>
    <property name="kdenlive_info"/>
   </filter>
  </entry>
 </playlist>
 <producer id="slowmotion:10:0,7:1:0" in="0" out="5509">
  <property name="length">5510</property>
  <property name="eof">pause</property>
  <property name="resource">0,7:/media/bordun/plagiat/2018-12-10_Plagiat_RespecteLaPuissancePapale/Carte_2/CAM1_2018-12-10_1727_C0005.mov</property>
  <property name="aspect_ratio">1</property>
  <property name="meta.media.nb_streams">3</property>
  <property name="meta.media.1.stream.type">video</property>
  <property name="meta.media.1.stream.frame_rate">50</property>
  <property name="meta.media.1.stream.sample_aspect_ratio">1</property>
  <property name="meta.media.1.codec.width">1920</property>
  <property name="meta.media.1.codec.height">1080</property>
  <property name="meta.media.1.codec.rotate">0</property>
  <property name="meta.media.1.codec.frame_rate">5000</property>
  <property name="meta.media.1.codec.pix_fmt">yuv422p10le</property>
  <property name="meta.media.1.codec.sample_aspect_ratio">0</property>
  <property name="meta.media.1.codec.colorspace">709</property>
  <property name="meta.media.1.codec.color_trc">1</property>
  <property name="meta.media.1.codec.name">prores</property>
  <property name="meta.media.1.codec.long_name">ProRes</property>
  <property name="meta.media.1.codec.bit_rate">366957401</property>
  <property name="meta.attr.1.stream.creation_time.markup">2018-12-10T17:27:46.000000Z</property>
  <property name="meta.attr.1.stream.language.markup">eng</property>
  <property name="meta.attr.1.stream.handler_name.markup">Apple Alias Data Handler</property>
  <property name="meta.attr.1.stream.encoder.markup">Apple ProRes 422 HQ</property>
  <property name="meta.attr.1.stream.timecode.markup">17:27:46:06</property>
  <property name="meta.media.2.stream.type">audio</property>
  <property name="meta.media.2.codec.sample_fmt">s32</property>
  <property name="meta.media.2.codec.sample_rate">48000</property>
  <property name="meta.media.2.codec.channels">2</property>
  <property name="meta.media.2.codec.name">pcm_s24le</property>
  <property name="meta.media.2.codec.long_name">PCM signed 24-bit little-endian</property>
  <property name="meta.media.2.codec.bit_rate">2304000</property>
  <property name="meta.attr.2.stream.creation_time.markup">2018-12-10T17:27:46.000000Z</property>
  <property name="meta.attr.2.stream.language.markup">eng</property>
  <property name="meta.attr.2.stream.handler_name.markup">Apple Alias Data Handler</property>
  <property name="meta.attr.2.stream.timecode.markup">17:27:46:06</property>
  <property name="meta.attr.com.apple.proapps.manufacturer.markup">Blackmagic Design</property>
  <property name="meta.attr.com.apple.proapps.cameraName.markup">CAM1</property>
  <property name="meta.attr.com.apple.proapps.isGood.markup">0</property>
  <property name="meta.attr.com.apple.proapps.customgamma.markup">com.blackmagic-design.cinemacamera.filmlog</property>
  <property name="meta.attr.com.blackmagic-design.cinemacamera.uuid.markup">18E5E00548F94923B646613A73C01B56</property>
  <property name="meta.attr.creation_time.markup">2018-12-10T17:27:46.000000Z</property>
  <property name="meta.attr.timecode.markup">17:27:46:06</property>
  <property name="seekable">1</property>
  <property name="meta.media.sample_aspect_num">1</property>
  <property name="meta.media.sample_aspect_den">1</property>
  <property name="audio_index">2</property>
  <property name="video_index">1</property>
  <property name="mute_on_pause">1</property>
  <property name="warp_speed">0,7</property>
  <property name="warp_resource">/media/bordun/plagiat/2018-12-10_Plagiat_RespecteLaPuissancePapale/Carte_2/CAM1_2018-12-10_1727_C0005.mov</property>
  <property name="mlt_service">timewarp</property>
  <property name="meta.media.frame_rate_num">50</property>
  <property name="meta.media.frame_rate_den">1</property>
  <property name="meta.media.colorspace">709</property>
  <property name="meta.media.color_trc">1</property>
  <property name="meta.media.width">1920</property>
  <property name="meta.media.height">1080</property>
  <property name="meta.media.top_field_first">0</property>
  <property name="meta.media.progressive">1</property>
  <filter id="filter167">
   <property name="version">0,1</property>
   <property name="mlt_service">frei0r.colgate</property>
   <property name="kdenlive_id">frei0r.colgate</property>
   <property name="tag">frei0r.colgate</property>
   <property name="kdenlive_ix">1</property>
   <property name="kdenlive_info"/>
   <property name="Neutral Color">0x7f7f7fff</property>
   <property name="Color Temperature">0=0,666667</property>
  </filter>
  <filter id="filter168">
   <property name="version">0,3</property>
   <property name="mlt_service">frei0r.levels</property>
   <property name="kdenlive_id">frei0r.levels</property>
   <property name="tag">frei0r.levels</property>
   <property name="kdenlive_ix">2</property>
   <property name="kdenlive_info"/>
   <property name="Channel">0,3</property>
   <property name="Input black level">0=0</property>
   <property name="Input white level">0=0,65</property>
   <property name="Gamma">0=0,25</property>
   <property name="Black output">0=0</property>
   <property name="White output">0=1</property>
   <property name="Show histogram">0</property>
   <property name="Histogram position">0,3</property>
  </filter>
 </producer>
 <producer title="Anonymous Submission" id="28_playlist4" in="0" out="12061">
  <property name="length">00:04:01:12</property>
  <property name="eof">pause</property>
  <property name="resource">/media/bordun/plagiat/2018-12-10_Plagiat_RespecteLaPuissancePapale/Carte_3/CAM1_2018-12-10_1738_C0000_recale.mp4</property>
  <property name="audio_index">1</property>
  <property name="video_index">0</property>
  <property name="mute_on_pause">1</property>
  <property name="mlt_service">avformat-novalidate</property>
  <property name="seekable">1</property>
  <property name="aspect_ratio">1</property>
  <property name="kdenlive:folderid">12</property>
  <property name="kdenlive:file_size">9081115714</property>
  <property name="kdenlive:file_hash">79a4b55abfdf4f84be33d4d8aeb49ece</property>
  <property name="global_feed">1</property>
  <property name="xml">was here</property>
  <property name="meta.media.nb_streams">2</property>
  <property name="meta.media.0.stream.type">video</property>
  <property name="meta.media.0.stream.frame_rate">50</property>
  <property name="meta.media.0.stream.sample_aspect_ratio">1</property>
  <property name="meta.media.0.codec.width">1920</property>
  <property name="meta.media.0.codec.height">1080</property>
  <property name="meta.media.0.codec.rotate">0</property>
  <property name="meta.media.0.codec.frame_rate">50</property>
  <property name="meta.media.0.codec.pix_fmt">yuv420p</property>
  <property name="meta.media.0.codec.sample_aspect_ratio">1</property>
  <property name="meta.media.0.codec.colorspace">709</property>
  <property name="meta.media.0.codec.color_trc">1</property>
  <property name="meta.media.0.codec.name">h264</property>
  <property name="meta.media.0.codec.long_name">H.264 / AVC / MPEG-4 AVC / MPEG-4 part 10</property>
  <property name="meta.media.0.codec.bit_rate">300778505</property>
  <property name="meta.attr.0.stream.handler_name.markup">VideoHandler</property>
  <property name="meta.media.1.stream.type">audio</property>
  <property name="meta.media.1.codec.sample_fmt">fltp</property>
  <property name="meta.media.1.codec.sample_rate">48000</property>
  <property name="meta.media.1.codec.channels">2</property>
  <property name="meta.media.1.codec.name">aac</property>
  <property name="meta.media.1.codec.long_name">AAC (Advanced Audio Coding)</property>
  <property name="meta.media.1.codec.bit_rate">385016</property>
  <property name="meta.attr.1.stream.handler_name.markup">SoundHandler</property>
  <property name="meta.attr.major_brand.markup">isom</property>
  <property name="meta.attr.minor_version.markup">512</property>
  <property name="meta.attr.compatible_brands.markup">isomiso2avc1mp41</property>
  <property name="meta.attr.encoder.markup">Lavf58.20.100</property>
  <property name="meta.media.sample_aspect_num">1</property>
  <property name="meta.media.sample_aspect_den">1</property>
  <property name="meta.media.frame_rate_num">50</property>
  <property name="meta.media.frame_rate_den">1</property>
  <property name="meta.media.colorspace">709</property>
  <property name="meta.media.color_trc">1</property>
  <property name="meta.media.width">1920</property>
  <property name="meta.media.height">1080</property>
  <property name="meta.media.top_field_first">0</property>
  <property name="meta.media.progressive">1</property>
  <filter id="filter169">
   <property name="version">0,1</property>
   <property name="mlt_service">frei0r.colgate</property>
   <property name="kdenlive_id">frei0r.colgate</property>
   <property name="tag">frei0r.colgate</property>
   <property name="kdenlive_ix">1</property>
   <property name="kdenlive_info"/>
   <property name="Neutral Color">0x7f7f7fff</property>
   <property name="Color Temperature">0=0,5</property>
  </filter>
  <filter id="filter170">
   <property name="version">0,3</property>
   <property name="mlt_service">frei0r.levels</property>
   <property name="kdenlive_id">frei0r.levels</property>
   <property name="tag">frei0r.levels</property>
   <property name="kdenlive_ix">2</property>
   <property name="kdenlive_info"/>
   <property name="Channel">0,3</property>
   <property name="Input black level">0=0,04</property>
   <property name="Input white level">0=0,95</property>
   <property name="Gamma">0=0,25</property>
   <property name="Black output">0=0</property>
   <property name="White output">0=1</property>
   <property name="Show histogram">0</property>
   <property name="Histogram position">0,3</property>
  </filter>
 </producer>
 <playlist id="playlist4">
  <property name="kdenlive:track_name">Vidéo 2</property>
  <blank length="5840"/>
  <entry producer="46" in="0" out="15">
   <filter id="filter68">
    <property name="mode">alpha</property>
    <property name="alpha_operation">clear</property>
    <property name="invert">0</property>
    <property name="feather">117</property>
    <property name="feather_passes">1</property>
    <property name="mlt_service">rotoscoping</property>
    <property name="kdenlive_id">rotoscoping</property>
    <property name="tag">rotoscoping</property>
    <property name="kdenlive_ix">1</property>
    <property name="spline">[
    [
        [
            0.7982097186700767,
            -0.07334470019892016
        ],
        [
            0.7608695652173912,
            -0.07971014492753623
        ],
        [
            0.7398976982097186,
            0.01213412901392447
        ]
    ],
    [
        [
            0.4896367171439127,
            0.8126365011115217
        ],
        [
            0.4686648501362398,
            0.9044807750529822
        ],
        [
            0.4155313351498638,
            1.3041174689676054
        ]
    ],
    [
        [
            1.0275190422099416,
            1.2394310217867508
        ],
        [
            1.0858310626702996,
            1.27989706327581
        ],
        [
            1.0858310626702996,
            1.1539521925739062
        ]
    ],
    [
        [
            1.0716112531969308,
            -0.012872975277067267
        ],
        [
            1.0716112531969308,
            -0.1388178459789713
        ],
        [
            1.0342710997442455,
            -0.14518329070758737
        ]
    ]
]
</property>
    <property name="kdenlive_info"/>
    <property name="disable"/>
   </filter>
  </entry>
  <blank length="13"/>
  <entry producer="46" in="29" out="50">
   <filter id="filter166">
    <property name="mode">alpha</property>
    <property name="alpha_operation">clear</property>
    <property name="invert">0</property>
    <property name="feather">62</property>
    <property name="feather_passes">1</property>
    <property name="mlt_service">rotoscoping</property>
    <property name="kdenlive_id">rotoscoping</property>
    <property name="tag">rotoscoping</property>
    <property name="kdenlive_ix">1</property>
    <property name="spline">[
    [
        [
            0.7982097186700767,
            -0.07334470019892016
        ],
        [
            0.7608695652173912,
            -0.07971014492753623
        ],
        [
            0.7398976982097186,
            0.01213412901392447
        ]
    ],
    [
        [
            0.4972752043596731,
            0.8197093551316985
        ],
        [
            0.4673024523160763,
            0.8681501665152892
        ],
        [
            0.3719346049046322,
            1.2605207387223736
        ]
    ],
    [
        [
            1.0516624040920717,
            1.1460926399545326
        ],
        [
            1.1099744245524297,
            1.1865586814435918
        ],
        [
            1.1099744245524297,
            1.060613810741688
        ]
    ],
    [
        [
            1.0716112531969308,
            -0.012872975277067267
        ],
        [
            1.0716112531969308,
            -0.1388178459789713
        ],
        [
            1.0342710997442455,
            -0.14518329070758737
        ]
    ]
]
</property>
    <property name="kdenlive_info"/>
    <property name="disable"/>
   </filter>
  </entry>
  <blank length="14"/>
  <entry producer="46" in="65" out="108">
   <filter id="filter171">
    <property name="mode">alpha</property>
    <property name="alpha_operation">clear</property>
    <property name="invert">0</property>
    <property name="feather">140</property>
    <property name="feather_passes">1</property>
    <property name="mlt_service">rotoscoping</property>
    <property name="kdenlive_id">rotoscoping</property>
    <property name="tag">rotoscoping</property>
    <property name="kdenlive_ix">1</property>
    <property name="spline">{
    "065": [
        [
            [
                0.7982097186700767,
                -0.07334470019892016
            ],
            [
                0.7608695652173912,
                -0.07971014492753623
            ],
            [
                0.7398976982097186,
                0.01213412901392447
            ]
        ],
        [
            [
                0.4392279977978634,
                0.7811499737121878
            ],
            [
                0.41825613079019075,
                0.8729942476536482
            ],
            [
                0.37164888464567203,
                1.2962009271583688
            ]
        ],
        [
            [
                1.0516624040920717,
                1.1460926399545326
            ],
            [
                1.1099744245524297,
                1.1865586814435918
            ],
            [
                1.1099744245524297,
                1.060613810741688
            ]
        ],
        [
            [
                1.0716112531969308,
                -0.012872975277067267
            ],
            [
                1.0716112531969308,
                -0.1388178459789713
            ],
            [
                1.0342710997442455,
                -0.14518329070758737
            ]
        ]
    ],
    "079": [
        [
            [
                0.7982097186700767,
                -0.07334470019892016
            ],
            [
                0.7608695652173912,
                -0.07971014492753623
            ],
            [
                0.7398976982097186,
                0.01213412901392447
            ]
        ],
        [
            [
                0.4392279977978634,
                0.7811499737121878
            ],
            [
                0.41825613079019075,
                0.8729942476536482
            ],
            [
                0.37164888464567203,
                1.2962009271583688
            ]
        ],
        [
            [
                1.0516624040920717,
                1.1460926399545326
            ],
            [
                1.1099744245524297,
                1.1865586814435918
            ],
            [
                1.1099744245524297,
                1.060613810741688
            ]
        ],
        [
            [
                1.0716112531969308,
                -0.012872975277067267
            ],
            [
                1.0716112531969308,
                -0.1388178459789713
            ],
            [
                1.0342710997442455,
                -0.14518329070758737
            ]
        ]
    ]
}
</property>
    <property name="kdenlive_info"/>
    <property name="disable"/>
   </filter>
  </entry>
  <blank length="49"/>
  <entry producer="46" in="65" out="69">
   <filter id="filter174">
    <property name="mode">alpha</property>
    <property name="alpha_operation">clear</property>
    <property name="invert">0</property>
    <property name="feather">0</property>
    <property name="feather_passes">1</property>
    <property name="mlt_service">rotoscoping</property>
    <property name="kdenlive_id">rotoscoping</property>
    <property name="tag">rotoscoping</property>
    <property name="kdenlive_ix">1</property>
    <property name="kdenlive_info"/>
    <property name="disable"/>
    <property name="spline">[
    [
        [
            0.7982097186700767,
            -0.07334470019892016
        ],
        [
            0.7608695652173912,
            -0.07971014492753623
        ],
        [
            0.7398976982097186,
            0.01213412901392447
        ]
    ],
    [
        [
            0.4749360613810742,
            0.9537652742256324
        ],
        [
            0.4539641943734016,
            1.0456095481670928
        ],
        [
            0.5122762148337591,
            1.0860755896561523
        ]
    ],
    [
        [
            1.0516624040920717,
            1.1460926399545326
        ],
        [
            1.1099744245524297,
            1.1865586814435918
        ],
        [
            1.1099744245524297,
            1.060613810741688
        ]
    ],
    [
        [
            1.0716112531969308,
            -0.012872975277067267
        ],
        [
            1.0716112531969308,
            -0.1388178459789713
        ],
        [
            1.0342710997442455,
            -0.14518329070758737
        ]
    ]
]
</property>
   </filter>
  </entry>
  <blank length="619"/>
  <entry producer="slowmotion:10:0,7:1:0" in="4257" out="4470">
   <filter id="filter175">
    <property name="version">0,1</property>
    <property name="mlt_service">frei0r.colgate</property>
    <property name="kdenlive_id">frei0r.colgate</property>
    <property name="tag">frei0r.colgate</property>
    <property name="kdenlive_ix">2</property>
    <property name="Neutral Color">0x7f7f7fff</property>
    <property name="Color Temperature">4257=0,4</property>
    <property name="kdenlive_info"/>
   </filter>
  </entry>
  <blank length="270"/>
  <entry producer="28_playlist4" in="2074" out="2216"/>
  <blank length="258"/>
  <entry producer="28_playlist4" in="2386" out="2435"/>
 </playlist>
 <producer title="Anonymous Submission" id="9_playlist5" in="0" out="7720">
  <property name="length">00:02:34:21</property>
  <property name="eof">pause</property>
  <property name="resource">/media/bordun/plagiat/2018-12-10_Plagiat_RespecteLaPuissancePapale/Carte_2/CAM1_2018-12-10_1724_C0004.mov</property>
  <property name="audio_index">2</property>
  <property name="video_index">1</property>
  <property name="mute_on_pause">1</property>
  <property name="mlt_service">avformat-novalidate</property>
  <property name="seekable">1</property>
  <property name="aspect_ratio">1</property>
  <property name="kdenlive:folderid">11</property>
  <property name="kdenlive:file_size">7128395553</property>
  <property name="kdenlive:file_hash">26d06da8085fc8a55dca3b4629142f61</property>
  <property name="global_feed">1</property>
  <property name="xml">was here</property>
  <property name="meta.media.nb_streams">3</property>
  <property name="meta.media.1.stream.type">video</property>
  <property name="meta.media.1.stream.frame_rate">50</property>
  <property name="meta.media.1.stream.sample_aspect_ratio">1</property>
  <property name="meta.media.1.codec.width">1920</property>
  <property name="meta.media.1.codec.height">1080</property>
  <property name="meta.media.1.codec.rotate">0</property>
  <property name="meta.media.1.codec.frame_rate">5000</property>
  <property name="meta.media.1.codec.pix_fmt">yuv422p10le</property>
  <property name="meta.media.1.codec.sample_aspect_ratio">0</property>
  <property name="meta.media.1.codec.colorspace">709</property>
  <property name="meta.media.1.codec.name">prores</property>
  <property name="meta.media.1.codec.long_name">ProRes</property>
  <property name="meta.media.1.codec.bit_rate">366955249</property>
  <property name="meta.attr.1.stream.creation_time.markup">2018-12-10T17:24:30.000000Z</property>
  <property name="meta.attr.1.stream.language.markup">eng</property>
  <property name="meta.attr.1.stream.handler_name.markup">Apple Alias Data Handler</property>
  <property name="meta.attr.1.stream.encoder.markup">Apple ProRes 422 HQ</property>
  <property name="meta.attr.1.stream.timecode.markup">17:24:30:16</property>
  <property name="meta.media.2.stream.type">audio</property>
  <property name="meta.media.2.codec.sample_fmt">s32</property>
  <property name="meta.media.2.codec.sample_rate">48000</property>
  <property name="meta.media.2.codec.channels">2</property>
  <property name="meta.media.2.codec.name">pcm_s24le</property>
  <property name="meta.media.2.codec.long_name">PCM signed 24-bit little-endian</property>
  <property name="meta.media.2.codec.bit_rate">2304000</property>
  <property name="meta.attr.2.stream.creation_time.markup">2018-12-10T17:24:30.000000Z</property>
  <property name="meta.attr.2.stream.language.markup">eng</property>
  <property name="meta.attr.2.stream.handler_name.markup">Apple Alias Data Handler</property>
  <property name="meta.attr.2.stream.timecode.markup">17:24:30:16</property>
  <property name="meta.attr.com.apple.proapps.manufacturer.markup">Blackmagic Design</property>
  <property name="meta.attr.com.apple.proapps.cameraName.markup">CAM1</property>
  <property name="meta.attr.com.apple.proapps.isGood.markup">0</property>
  <property name="meta.attr.com.apple.proapps.customgamma.markup">com.blackmagic-design.cinemacamera.filmlog</property>
  <property name="meta.attr.com.blackmagic-design.cinemacamera.uuid.markup">18E5E00548F94923B646613A73C01B56</property>
  <property name="meta.attr.creation_time.markup">2018-12-10T17:24:30.000000Z</property>
  <property name="meta.attr.timecode.markup">17:24:30:16</property>
  <property name="meta.media.sample_aspect_num">1</property>
  <property name="meta.media.sample_aspect_den">1</property>
  <property name="meta.media.frame_rate_num">50</property>
  <property name="meta.media.frame_rate_den">1</property>
  <property name="meta.media.colorspace">709</property>
  <property name="meta.media.color_trc">1</property>
  <property name="meta.media.width">1920</property>
  <property name="meta.media.height">1080</property>
  <property name="meta.media.top_field_first">0</property>
  <property name="meta.media.progressive">1</property>
  <property name="meta.media.1.codec.color_trc">1</property>
  <filter id="filter176">
   <property name="version">0,1</property>
   <property name="mlt_service">frei0r.colgate</property>
   <property name="kdenlive_id">frei0r.colgate</property>
   <property name="tag">frei0r.colgate</property>
   <property name="kdenlive_ix">1</property>
   <property name="kdenlive_info"/>
   <property name="Neutral Color">0x7f7f7fff</property>
   <property name="Color Temperature">0=0,666667</property>
  </filter>
  <filter id="filter177">
   <property name="version">0,3</property>
   <property name="mlt_service">frei0r.levels</property>
   <property name="kdenlive_id">frei0r.levels</property>
   <property name="tag">frei0r.levels</property>
   <property name="kdenlive_ix">2</property>
   <property name="kdenlive_info"/>
   <property name="Channel">0,3</property>
   <property name="Input black level">0=0</property>
   <property name="Input white level">0=0,65</property>
   <property name="Gamma">0=0,25</property>
   <property name="Black output">0=0</property>
   <property name="White output">0=1</property>
   <property name="Show histogram">0</property>
   <property name="Histogram position">0,3</property>
  </filter>
 </producer>
 <producer id="slowmotion:9:0,91:1:0" in="0" out="8484">
  <property name="length">8485</property>
  <property name="eof">pause</property>
  <property name="resource">0,91:/media/bordun/plagiat/2018-12-10_Plagiat_RespecteLaPuissancePapale/Carte_2/CAM1_2018-12-10_1724_C0004.mov</property>
  <property name="aspect_ratio">1</property>
  <property name="meta.media.nb_streams">3</property>
  <property name="meta.media.1.stream.type">video</property>
  <property name="meta.media.1.stream.frame_rate">50</property>
  <property name="meta.media.1.stream.sample_aspect_ratio">1</property>
  <property name="meta.media.1.codec.width">1920</property>
  <property name="meta.media.1.codec.height">1080</property>
  <property name="meta.media.1.codec.rotate">0</property>
  <property name="meta.media.1.codec.frame_rate">5000</property>
  <property name="meta.media.1.codec.pix_fmt">yuv422p10le</property>
  <property name="meta.media.1.codec.sample_aspect_ratio">0</property>
  <property name="meta.media.1.codec.colorspace">709</property>
  <property name="meta.media.1.codec.color_trc">1</property>
  <property name="meta.media.1.codec.name">prores</property>
  <property name="meta.media.1.codec.long_name">ProRes</property>
  <property name="meta.media.1.codec.bit_rate">366955249</property>
  <property name="meta.attr.1.stream.creation_time.markup">2018-12-10T17:24:30.000000Z</property>
  <property name="meta.attr.1.stream.language.markup">eng</property>
  <property name="meta.attr.1.stream.handler_name.markup">Apple Alias Data Handler</property>
  <property name="meta.attr.1.stream.encoder.markup">Apple ProRes 422 HQ</property>
  <property name="meta.attr.1.stream.timecode.markup">17:24:30:16</property>
  <property name="meta.media.2.stream.type">audio</property>
  <property name="meta.media.2.codec.sample_fmt">s32</property>
  <property name="meta.media.2.codec.sample_rate">48000</property>
  <property name="meta.media.2.codec.channels">2</property>
  <property name="meta.media.2.codec.name">pcm_s24le</property>
  <property name="meta.media.2.codec.long_name">PCM signed 24-bit little-endian</property>
  <property name="meta.media.2.codec.bit_rate">2304000</property>
  <property name="meta.attr.2.stream.creation_time.markup">2018-12-10T17:24:30.000000Z</property>
  <property name="meta.attr.2.stream.language.markup">eng</property>
  <property name="meta.attr.2.stream.handler_name.markup">Apple Alias Data Handler</property>
  <property name="meta.attr.2.stream.timecode.markup">17:24:30:16</property>
  <property name="meta.attr.com.apple.proapps.manufacturer.markup">Blackmagic Design</property>
  <property name="meta.attr.com.apple.proapps.cameraName.markup">CAM1</property>
  <property name="meta.attr.com.apple.proapps.isGood.markup">0</property>
  <property name="meta.attr.com.apple.proapps.customgamma.markup">com.blackmagic-design.cinemacamera.filmlog</property>
  <property name="meta.attr.com.blackmagic-design.cinemacamera.uuid.markup">18E5E00548F94923B646613A73C01B56</property>
  <property name="meta.attr.creation_time.markup">2018-12-10T17:24:30.000000Z</property>
  <property name="meta.attr.timecode.markup">17:24:30:16</property>
  <property name="seekable">1</property>
  <property name="meta.media.sample_aspect_num">1</property>
  <property name="meta.media.sample_aspect_den">1</property>
  <property name="audio_index">2</property>
  <property name="video_index">1</property>
  <property name="mute_on_pause">1</property>
  <property name="warp_speed">0,91</property>
  <property name="warp_resource">/media/bordun/plagiat/2018-12-10_Plagiat_RespecteLaPuissancePapale/Carte_2/CAM1_2018-12-10_1724_C0004.mov</property>
  <property name="mlt_service">timewarp</property>
  <property name="meta.media.frame_rate_num">50</property>
  <property name="meta.media.frame_rate_den">1</property>
  <property name="meta.media.colorspace">709</property>
  <property name="meta.media.color_trc">1</property>
  <property name="meta.media.width">1920</property>
  <property name="meta.media.height">1080</property>
  <property name="meta.media.top_field_first">0</property>
  <property name="meta.media.progressive">1</property>
  <filter id="filter178">
   <property name="version">0,1</property>
   <property name="mlt_service">frei0r.colgate</property>
   <property name="kdenlive_id">frei0r.colgate</property>
   <property name="tag">frei0r.colgate</property>
   <property name="kdenlive_ix">1</property>
   <property name="kdenlive_info"/>
   <property name="Neutral Color">0x7f7f7fff</property>
   <property name="Color Temperature">0=0,666667</property>
  </filter>
  <filter id="filter179">
   <property name="version">0,3</property>
   <property name="mlt_service">frei0r.levels</property>
   <property name="kdenlive_id">frei0r.levels</property>
   <property name="tag">frei0r.levels</property>
   <property name="kdenlive_ix">2</property>
   <property name="kdenlive_info"/>
   <property name="Channel">0,3</property>
   <property name="Input black level">0=0</property>
   <property name="Input white level">0=0,65</property>
   <property name="Gamma">0=0,25</property>
   <property name="Black output">0=0</property>
   <property name="White output">0=1</property>
   <property name="Show histogram">0</property>
   <property name="Histogram position">0,3</property>
  </filter>
 </producer>
 <producer id="slowmotion:9:0,4:1:0" in="0" out="19301">
  <property name="length">19302</property>
  <property name="eof">pause</property>
  <property name="resource">0,4:/media/bordun/plagiat/2018-12-10_Plagiat_RespecteLaPuissancePapale/Carte_2/CAM1_2018-12-10_1724_C0004.mov</property>
  <property name="aspect_ratio">1</property>
  <property name="meta.media.nb_streams">3</property>
  <property name="meta.media.1.stream.type">video</property>
  <property name="meta.media.1.stream.frame_rate">50</property>
  <property name="meta.media.1.stream.sample_aspect_ratio">1</property>
  <property name="meta.media.1.codec.width">1920</property>
  <property name="meta.media.1.codec.height">1080</property>
  <property name="meta.media.1.codec.rotate">0</property>
  <property name="meta.media.1.codec.frame_rate">5000</property>
  <property name="meta.media.1.codec.pix_fmt">yuv422p10le</property>
  <property name="meta.media.1.codec.sample_aspect_ratio">0</property>
  <property name="meta.media.1.codec.colorspace">709</property>
  <property name="meta.media.1.codec.color_trc">1</property>
  <property name="meta.media.1.codec.name">prores</property>
  <property name="meta.media.1.codec.long_name">ProRes</property>
  <property name="meta.media.1.codec.bit_rate">366955249</property>
  <property name="meta.attr.1.stream.creation_time.markup">2018-12-10T17:24:30.000000Z</property>
  <property name="meta.attr.1.stream.language.markup">eng</property>
  <property name="meta.attr.1.stream.handler_name.markup">Apple Alias Data Handler</property>
  <property name="meta.attr.1.stream.encoder.markup">Apple ProRes 422 HQ</property>
  <property name="meta.attr.1.stream.timecode.markup">17:24:30:16</property>
  <property name="meta.media.2.stream.type">audio</property>
  <property name="meta.media.2.codec.sample_fmt">s32</property>
  <property name="meta.media.2.codec.sample_rate">48000</property>
  <property name="meta.media.2.codec.channels">2</property>
  <property name="meta.media.2.codec.name">pcm_s24le</property>
  <property name="meta.media.2.codec.long_name">PCM signed 24-bit little-endian</property>
  <property name="meta.media.2.codec.bit_rate">2304000</property>
  <property name="meta.attr.2.stream.creation_time.markup">2018-12-10T17:24:30.000000Z</property>
  <property name="meta.attr.2.stream.language.markup">eng</property>
  <property name="meta.attr.2.stream.handler_name.markup">Apple Alias Data Handler</property>
  <property name="meta.attr.2.stream.timecode.markup">17:24:30:16</property>
  <property name="meta.attr.com.apple.proapps.manufacturer.markup">Blackmagic Design</property>
  <property name="meta.attr.com.apple.proapps.cameraName.markup">CAM1</property>
  <property name="meta.attr.com.apple.proapps.isGood.markup">0</property>
  <property name="meta.attr.com.apple.proapps.customgamma.markup">com.blackmagic-design.cinemacamera.filmlog</property>
  <property name="meta.attr.com.blackmagic-design.cinemacamera.uuid.markup">18E5E00548F94923B646613A73C01B56</property>
  <property name="meta.attr.creation_time.markup">2018-12-10T17:24:30.000000Z</property>
  <property name="meta.attr.timecode.markup">17:24:30:16</property>
  <property name="seekable">1</property>
  <property name="meta.media.sample_aspect_num">1</property>
  <property name="meta.media.sample_aspect_den">1</property>
  <property name="audio_index">2</property>
  <property name="video_index">1</property>
  <property name="mute_on_pause">1</property>
  <property name="warp_speed">0,4</property>
  <property name="warp_resource">/media/bordun/plagiat/2018-12-10_Plagiat_RespecteLaPuissancePapale/Carte_2/CAM1_2018-12-10_1724_C0004.mov</property>
  <property name="mlt_service">timewarp</property>
  <property name="meta.media.frame_rate_num">50</property>
  <property name="meta.media.frame_rate_den">1</property>
  <property name="meta.media.colorspace">709</property>
  <property name="meta.media.color_trc">1</property>
  <property name="meta.media.width">1920</property>
  <property name="meta.media.height">1080</property>
  <property name="meta.media.top_field_first">0</property>
  <property name="meta.media.progressive">1</property>
  <filter id="filter180">
   <property name="version">0,1</property>
   <property name="mlt_service">frei0r.colgate</property>
   <property name="kdenlive_id">frei0r.colgate</property>
   <property name="tag">frei0r.colgate</property>
   <property name="kdenlive_ix">1</property>
   <property name="kdenlive_info"/>
   <property name="Neutral Color">0x7f7f7fff</property>
   <property name="Color Temperature">0=0,666667</property>
  </filter>
  <filter id="filter181">
   <property name="version">0,3</property>
   <property name="mlt_service">frei0r.levels</property>
   <property name="kdenlive_id">frei0r.levels</property>
   <property name="tag">frei0r.levels</property>
   <property name="kdenlive_ix">2</property>
   <property name="kdenlive_info"/>
   <property name="Channel">0,3</property>
   <property name="Input black level">0=0</property>
   <property name="Input white level">0=0,65</property>
   <property name="Gamma">0=0,25</property>
   <property name="Black output">0=0</property>
   <property name="White output">0=1</property>
   <property name="Show histogram">0</property>
   <property name="Histogram position">0,3</property>
  </filter>
 </producer>
 <playlist id="playlist5">
  <property name="kdenlive:track_name">Vidéo 3</property>
  <blank length="1586"/>
  <entry producer="slowmotion:10:0,5:1:0" in="2355" out="2560">
   <filter id="qtblend">
    <property name="rotate_center">1</property>
    <property name="mlt_service">qtblend</property>
    <property name="kdenlive_id">qtblend</property>
    <property name="tag">qtblend</property>
    <property name="kdenlive_ix">2</property>
    <property name="kdenlive_info">1/-1/</property>
    <property name="rect">2355=72 -416 1920 1080 1</property>
    <property name="rotation">2355=-2</property>
    <property name="compositing">0</property>
    <property name="distort">0</property>
   </filter>
   <filter id="frei0r.brightness">
    <property name="version">0,2</property>
    <property name="mlt_service">frei0r.brightness</property>
    <property name="kdenlive_id">frei0r.brightness</property>
    <property name="tag">frei0r.brightness</property>
    <property name="kdenlive_ix">3</property>
    <property name="kdenlive_info"/>
    <property name="Brightness">0,539</property>
   </filter>
  </entry>
  <blank length="4157"/>
  <entry producer="9_playlist5" in="5755" out="5756">
   <filter id="invert">
    <property name="mlt_service">invert</property>
    <property name="kdenlive_id">invert</property>
    <property name="tag">invert</property>
    <property name="kdenlive_ix">1</property>
    <property name="disable">1</property>
   </filter>
  </entry>
  <entry producer="9_playlist5" in="5757" out="5803">
   <filter id="frei0r.sharpness">
    <property name="version">0,2</property>
    <property name="mlt_service">frei0r.sharpness</property>
    <property name="kdenlive_id">frei0r.sharpness</property>
    <property name="tag">frei0r.sharpness</property>
    <property name="kdenlive_ix">1</property>
    <property name="disable">0</property>
    <property name="Amount">5757=0,3</property>
    <property name="Size">5757=0,495</property>
    <property name="kdenlive_info"/>
   </filter>
  </entry>
  <blank length="5"/>
  <entry producer="slowmotion:9:0,91:1:0" in="6383" out="6500">
   <filter id="filter172">
    <property name="version">0,2</property>
    <property name="mlt_service">frei0r.sharpness</property>
    <property name="kdenlive_id">frei0r.sharpness</property>
    <property name="tag">frei0r.sharpness</property>
    <property name="kdenlive_ix">2</property>
    <property name="disable">0</property>
    <property name="Amount">6383=0,3</property>
    <property name="Size">6383=0,495</property>
    <property name="kdenlive_info"/>
   </filter>
  </entry>
  <entry producer="slowmotion:9:0,4:1:0" in="14793" out="14935">
   <filter id="filter173">
    <property name="version">0,2</property>
    <property name="mlt_service">frei0r.sharpness</property>
    <property name="kdenlive_id">frei0r.sharpness</property>
    <property name="tag">frei0r.sharpness</property>
    <property name="kdenlive_ix">2</property>
    <property name="disable">0</property>
    <property name="Amount">14793=0,3</property>
    <property name="Size">14793=0,495</property>
    <property name="kdenlive_info"/>
   </filter>
  </entry>
 </playlist>
 <producer id="slowmotion:9:0,5:1:0" in="0" out="15441">
  <property name="length">15442</property>
  <property name="eof">pause</property>
  <property name="resource">0,5:/media/bordun/plagiat/2018-12-10_Plagiat_RespecteLaPuissancePapale/Carte_2/CAM1_2018-12-10_1724_C0004.mov</property>
  <property name="aspect_ratio">1</property>
  <property name="meta.media.nb_streams">3</property>
  <property name="meta.media.1.stream.type">video</property>
  <property name="meta.media.1.stream.frame_rate">50</property>
  <property name="meta.media.1.stream.sample_aspect_ratio">1</property>
  <property name="meta.media.1.codec.width">1920</property>
  <property name="meta.media.1.codec.height">1080</property>
  <property name="meta.media.1.codec.rotate">0</property>
  <property name="meta.media.1.codec.frame_rate">5000</property>
  <property name="meta.media.1.codec.pix_fmt">yuv422p10le</property>
  <property name="meta.media.1.codec.sample_aspect_ratio">0</property>
  <property name="meta.media.1.codec.colorspace">709</property>
  <property name="meta.media.1.codec.color_trc">1</property>
  <property name="meta.media.1.codec.name">prores</property>
  <property name="meta.media.1.codec.long_name">ProRes</property>
  <property name="meta.media.1.codec.bit_rate">366955249</property>
  <property name="meta.attr.1.stream.creation_time.markup">2018-12-10T17:24:30.000000Z</property>
  <property name="meta.attr.1.stream.language.markup">eng</property>
  <property name="meta.attr.1.stream.handler_name.markup">Apple Alias Data Handler</property>
  <property name="meta.attr.1.stream.encoder.markup">Apple ProRes 422 HQ</property>
  <property name="meta.attr.1.stream.timecode.markup">17:24:30:16</property>
  <property name="meta.media.2.stream.type">audio</property>
  <property name="meta.media.2.codec.sample_fmt">s32</property>
  <property name="meta.media.2.codec.sample_rate">48000</property>
  <property name="meta.media.2.codec.channels">2</property>
  <property name="meta.media.2.codec.name">pcm_s24le</property>
  <property name="meta.media.2.codec.long_name">PCM signed 24-bit little-endian</property>
  <property name="meta.media.2.codec.bit_rate">2304000</property>
  <property name="meta.attr.2.stream.creation_time.markup">2018-12-10T17:24:30.000000Z</property>
  <property name="meta.attr.2.stream.language.markup">eng</property>
  <property name="meta.attr.2.stream.handler_name.markup">Apple Alias Data Handler</property>
  <property name="meta.attr.2.stream.timecode.markup">17:24:30:16</property>
  <property name="meta.attr.com.apple.proapps.manufacturer.markup">Blackmagic Design</property>
  <property name="meta.attr.com.apple.proapps.cameraName.markup">CAM1</property>
  <property name="meta.attr.com.apple.proapps.isGood.markup">0</property>
  <property name="meta.attr.com.apple.proapps.customgamma.markup">com.blackmagic-design.cinemacamera.filmlog</property>
  <property name="meta.attr.com.blackmagic-design.cinemacamera.uuid.markup">18E5E00548F94923B646613A73C01B56</property>
  <property name="meta.attr.creation_time.markup">2018-12-10T17:24:30.000000Z</property>
  <property name="meta.attr.timecode.markup">17:24:30:16</property>
  <property name="seekable">1</property>
  <property name="meta.media.sample_aspect_num">1</property>
  <property name="meta.media.sample_aspect_den">1</property>
  <property name="audio_index">2</property>
  <property name="video_index">1</property>
  <property name="mute_on_pause">1</property>
  <property name="warp_speed">0,5</property>
  <property name="warp_resource">/media/bordun/plagiat/2018-12-10_Plagiat_RespecteLaPuissancePapale/Carte_2/CAM1_2018-12-10_1724_C0004.mov</property>
  <property name="mlt_service">timewarp</property>
  <property name="meta.media.frame_rate_num">50</property>
  <property name="meta.media.frame_rate_den">1</property>
  <property name="meta.media.colorspace">709</property>
  <property name="meta.media.color_trc">1</property>
  <property name="meta.media.width">1920</property>
  <property name="meta.media.height">1080</property>
  <property name="meta.media.top_field_first">0</property>
  <property name="meta.media.progressive">1</property>
  <filter id="filter182">
   <property name="version">0,1</property>
   <property name="mlt_service">frei0r.colgate</property>
   <property name="kdenlive_id">frei0r.colgate</property>
   <property name="tag">frei0r.colgate</property>
   <property name="kdenlive_ix">1</property>
   <property name="kdenlive_info"/>
   <property name="Neutral Color">0x7f7f7fff</property>
   <property name="Color Temperature">0=0,666667</property>
  </filter>
  <filter id="filter183">
   <property name="version">0,3</property>
   <property name="mlt_service">frei0r.levels</property>
   <property name="kdenlive_id">frei0r.levels</property>
   <property name="tag">frei0r.levels</property>
   <property name="kdenlive_ix">2</property>
   <property name="kdenlive_info"/>
   <property name="Channel">0,3</property>
   <property name="Input black level">0=0</property>
   <property name="Input white level">0=0,65</property>
   <property name="Gamma">0=0,25</property>
   <property name="Black output">0=0</property>
   <property name="White output">0=1</property>
   <property name="Show histogram">0</property>
   <property name="Histogram position">0,3</property>
  </filter>
 </producer>
 <playlist id="playlist8">
  <property name="kdenlive:track_name">Vidéo 6</property>
  <entry producer="slowmotion:10:0,5:1:0" in="1152" out="2267"/>
  <blank length="470"/>
  <entry producer="slowmotion:10:0,5:1:0" in="2355" out="2560">
   <filter id="filter184">
    <property name="mode">alpha</property>
    <property name="alpha_operation">clear</property>
    <property name="invert">1</property>
    <property name="feather">5</property>
    <property name="feather_passes">1</property>
    <property name="mlt_service">rotoscoping</property>
    <property name="kdenlive_id">rotoscoping</property>
    <property name="tag">rotoscoping</property>
    <property name="kdenlive_ix">2</property>
    <property name="spline">{
    "2355": [
        [
            [
                0.9942083882301271,
                -0.013785194944615109
            ],
            [
                0.995580808080808,
                -0.013468013468013403
            ],
            [
                0.9948397013614402,
                -0.013785194944615109
            ]
        ],
        [
            [
                0.990804787000439,
                0.3702483774947543
            ],
            [
                0.991161616161616,
                0.3692480359147026
            ],
            [
                0.990804787000439,
                0.36800370858341874
            ]
        ],
        [
            [
                1.081466842336407,
                0.35443810081491245
            ],
            [
                1.08270202020202,
                0.3580246913580247
            ],
            [
                1.0827294685990334,
                0.35556043527058023
            ]
        ],
        [
            [
                1.0703776899429074,
                -0.03403601229688174
            ],
            [
                1.0700757575757576,
                -0.03591470258136918
            ],
            [
                1.069115063680281,
                -0.03403601229688174
            ]
        ]
    ],
    "2370": [
        [
            [
                1.0055720245937636,
                -0.016029863855950684
            ],
            [
                1.0069444444444444,
                -0.015712682379348978
            ],
            [
                1.0062033377250765,
                -0.016029863855950684
            ]
        ],
        [
            [
                1.0040623627580147,
                0.3724930464060899
            ],
            [
                1.0044191919191918,
                0.3714927048260382
            ],
            [
                1.0040623627580147,
                0.3702483774947543
            ]
        ],
        [
            [
                1.081466842336407,
                0.35443810081491245
            ],
            [
                1.08270202020202,
                0.3580246913580247
            ],
            [
                1.0827294685990334,
                0.35556043527058023
            ]
        ],
        [
            [
                1.0703776899429074,
                -0.03403601229688174
            ],
            [
                1.0700757575757576,
                -0.03591470258136918
            ],
            [
                1.069115063680281,
                -0.03403601229688174
            ]
        ]
    ],
    "2371": [
        [
            [
                0.9841073781291171,
                -0.008173522666276162
            ],
            [
                0.9854797979797979,
                -0.007856341189674458
            ],
            [
                0.9847386912604302,
                -0.008173522666276162
            ]
        ],
        [
            [
                0.9844916556873077,
                0.3882057287854389
            ],
            [
                0.9848484848484848,
                0.3872053872053873
            ],
            [
                0.9844916556873077,
                0.3859610598741034
            ]
        ],
        [
            [
                1.0865173473869123,
                0.3723954521055971
            ],
            [
                1.0877525252525253,
                0.3759820426487094
            ],
            [
                1.0877799736495386,
                0.3735177865612649
            ]
        ],
        [
            [
                1.0703776899429074,
                -0.03403601229688174
            ],
            [
                1.0700757575757576,
                -0.03591470258136918
            ],
            [
                1.069115063680281,
                -0.03403601229688174
            ]
        ]
    ],
    "2377": [
        [
            [
                0.9534754888945662,
                -0.007288030652774075
            ],
            [
                0.954847908745247,
                -0.0069708491761723695
            ],
            [
                0.9541068020258793,
                -0.007288030652774075
            ]
        ],
        [
            [
                0.9579765041721562,
                0.40391841116478794
            ],
            [
                0.9583333333333333,
                0.4029180695847363
            ],
            [
                0.9579765041721562,
                0.4016737422534524
            ]
        ],
        [
            [
                1.101010101010101,
                0.3995510662177329
            ],
            [
                1.0940656565656566,
                0.38608305274971944
            ],
            [
                1.0940931049626699,
                0.38361879666227494
            ]
        ],
        [
            [
                1.0703776899429074,
                -0.03403601229688174
            ],
            [
                1.0700757575757576,
                -0.03591470258136918
            ],
            [
                1.069115063680281,
                -0.03403601229688174
            ]
        ]
    ],
    "2388": [
        [
            [
                0.9135515345219427,
                0.002851386330749371
            ],
            [
                0.9149239543726235,
                0.003168567807351077
            ],
            [
                0.9141828476532557,
                0.002851386330749371
            ]
        ],
        [
            [
                0.9169411506368026,
                0.4106524178987947
            ],
            [
                0.9172979797979797,
                0.409652076318743
            ],
            [
                0.9169411506368026,
                0.40840774898745913
            ]
        ],
        [
            [
                1.1016688625384274,
                0.40718782023129857
            ],
            [
                1.1029040404040404,
                0.4107744107744108
            ],
            [
                1.1029314888010537,
                0.4083101546869663
            ]
        ],
        [
            [
                1.0703776899429074,
                -0.03403601229688174
            ],
            [
                1.0700757575757576,
                -0.03591470258136918
            ],
            [
                1.069115063680281,
                -0.03403601229688174
            ]
        ]
    ],
    "2406": [
        [
            [
                0.8432093291987487,
                0.040029248603668674
            ],
            [
                0.8445817490494296,
                0.04034643008027038
            ],
            [
                0.8438406423300617,
                0.040029248603668674
            ]
        ],
        [
            [
                0.8485024864281764,
                0.41537859816363143
            ],
            [
                0.8488593155893535,
                0.41437825658357974
            ],
            [
                0.8485024864281764,
                0.41313392925229603
            ]
        ],
        [
            [
                1.1036444165577075,
                0.4085384622663512
            ],
            [
                1.1048795944233205,
                0.41212505280946343
            ],
            [
                1.1049070428203338,
                0.40966079672201894
            ]
        ],
        [
            [
                1.0627227181719658,
                -0.04452322493872048
            ],
            [
                1.062420785804816,
                -0.046401915223207926
            ],
            [
                1.0614600919093395,
                -0.04452322493872048
            ]
        ]
    ],
    "2429": [
        [
            [
                0.7662131314801176,
                0.04171915143425592
            ],
            [
                0.7675855513307984,
                0.04203633291085762
            ],
            [
                0.7668444446114306,
                0.04171915143425592
            ]
        ],
        [
            [
                0.7724568590517505,
                0.41199879250245697
            ],
            [
                0.7728136882129276,
                0.4109984509224053
            ],
            [
                0.7724568590517505,
                0.40975412359112146
            ]
        ],
        [
            [
                1.0529473316400904,
                0.4051586566051767
            ],
            [
                1.0541825095057034,
                0.40874524714828897
            ],
            [
                1.0542099579027167,
                0.4062809910608445
            ]
        ],
        [
            [
                1.0324989020641195,
                -0.048626360220563
            ],
            [
                1.0321969696969697,
                -0.05050505050505044
            ],
            [
                1.0312362758014932,
                -0.048626360220563
            ]
        ]
    ],
    "2437": [
        [
            [
                0.7454710144927534,
                0.06028887912945896
            ],
            [
                0.7468434343434343,
                0.06060606060606067
            ],
            [
                0.7461023276240665,
                0.06028887912945896
            ]
        ],
        [
            [
                0.7510690263521308,
                0.40636578306716614
            ],
            [
                0.7514258555133079,
                0.40536544148711445
            ],
            [
                0.7510690263521308,
                0.4041211141558307
            ]
        ],
        [
            [
                1.0077952403853374,
                0.3967091424522404
            ],
            [
                1.0090304182509504,
                0.4002957329953527
            ],
            [
                1.0090578666479637,
                0.39783147690790815
            ]
        ],
        [
            [
                0.9949153670946527,
                -0.0355104098422552
            ],
            [
                0.994613434727503,
                -0.03738910012674264
            ],
            [
                0.9936527408320264,
                -0.0355104098422552
            ]
        ]
    ],
    "2449": [
        [
            [
                0.701732776600523,
                0.0580548787965993
            ],
            [
                0.703105196451204,
                0.058372060273201014
            ],
            [
                0.7023640897318361,
                0.0580548787965993
            ]
        ],
        [
            [
                0.709085502904729,
                0.3996061717448172
            ],
            [
                0.7094423320659061,
                0.39860583016476553
            ],
            [
                0.709085502904729,
                0.39736150283348176
            ]
        ],
        [
            [
                0.9564644419062501,
                0.3916394339604787
            ],
            [
                0.9576996197718631,
                0.395226024503591
            ],
            [
                0.9577270681688764,
                0.39276176841614646
            ]
        ],
        [
            [
                0.945485709299976,
                -0.03325720606813888
            ],
            [
                0.9451837769328262,
                -0.035135896352626324
            ],
            [
                0.9442230830373497,
                -0.03325720606813888
            ]
        ]
    ],
    "2476": [
        [
            [
                0.6066757423799909,
                0.08171351842482066
            ],
            [
                0.6080481622306717,
                0.0820306999014224
            ],
            [
                0.6073070555113039,
                0.08171351842482066
            ]
        ],
        [
            [
                0.6127610415612563,
                0.40073277363187537
            ],
            [
                0.6131178707224334,
                0.3997324320518237
            ],
            [
                0.6127610415612563,
                0.3984881047205398
            ]
        ],
        [
            [
                0.8395442898149953,
                0.379810114146368
            ],
            [
                0.8407794676806083,
                0.38339670468948034
            ],
            [
                0.8408069160776216,
                0.38093244860203584
            ]
        ],
        [
            [
                0.838229689021142,
                -0.013541673044621129
            ],
            [
                0.8379277566539922,
                -0.015420363329108575
            ],
            [
                0.8369670627585157,
                -0.013541673044621129
            ]
        ]
    ],
    "2482": [
        [
            [
                0.5794260592367716,
                0.08734652786011146
            ],
            [
                0.5807984790874524,
                0.08766370933671319
            ],
            [
                0.5800573723680846,
                0.08734652786011146
            ]
        ],
        [
            [
                0.5847192164661993,
                0.39791626891423
            ],
            [
                0.5850760456273764,
                0.39691592733417824
            ],
            [
                0.5847192164661993,
                0.3956716000028945
            ]
        ],
        [
            [
                0.8100766092066303,
                0.3679807943322573
            ],
            [
                0.8113117870722433,
                0.3715673848753696
            ],
            [
                0.8113392354692566,
                0.36910312878792506
            ]
        ],
        [
            [
                0.805910297386161,
                0.005047258091838523
            ],
            [
                0.8056083650190113,
                0.003168567807351077
            ],
            [
                0.8046476711235347,
                0.005047258091838523
            ]
        ]
    ],
    "2493": [
        [
            [
                0.5433043862329694,
                0.0974859448436349
            ],
            [
                0.5446768060836502,
                0.09780312632023663
            ],
            [
                0.5439356993642824,
                0.0974859448436349
            ]
        ],
        [
            [
                0.5485975434623971,
                0.3979162689142299
            ],
            [
                0.5489543726235742,
                0.39691592733417824
            ],
            [
                0.5485975434623971,
                0.39567160000289436
            ]
        ],
        [
            [
                0.7644492327807748,
                0.36122118300990835
            ],
            [
                0.7656844106463878,
                0.36480777355302063
            ],
            [
                0.7657118590434011,
                0.3623435174655761
            ]
        ],
        [
            [
                0.7517277878804577,
                0.013496772244774725
            ],
            [
                0.7514258555133079,
                0.011618081960287283
            ],
            [
                0.7504651616178314,
                0.013496772244774725
            ]
        ]
    ],
    "2499": [
        [
            [
                0.5223918387044522,
                0.09973914861775121
            ],
            [
                0.5237642585551331,
                0.10005633009435295
            ],
            [
                0.5230231518357653,
                0.09973914861775121
            ]
        ],
        [
            [
                0.5297445650086582,
                0.39284656042246824
            ],
            [
                0.5301013941698353,
                0.3918462188424166
            ],
            [
                0.5297445650086582,
                0.39060189151113267
            ]
        ],
        [
            [
                0.7397344038834365,
                0.3646009886710828
            ],
            [
                0.7409695817490494,
                0.36818757921419515
            ],
            [
                0.7409970301460628,
                0.3657233231267506
            ]
        ],
        [
            [
                0.7279635293253245,
                0.025326092058885412
            ],
            [
                0.7276615969581748,
                0.02344740177439797
            ],
            [
                0.7267009030626982,
                0.025326092058885412
            ]
        ]
    ],
    "2510": [
        [
            [
                0.4831015978932989,
                0.10987856560127467
            ],
            [
                0.48447401774397975,
                0.11019574707787641
            ],
            [
                0.48373291102461197,
                0.10987856560127467
            ]
        ],
        [
            [
                0.4885531835130941,
                0.40298597740599157
            ],
            [
                0.4889100126742712,
                0.40198563582594005
            ],
            [
                0.4885531835130941,
                0.40074130849465606
            ]
        ],
        [
            [
                0.6985628259366684,
                0.368086413259169
            ],
            [
                0.6997980038022813,
                0.37167300380228135
            ],
            [
                0.6998254521992947,
                0.36920874771483675
            ]
        ],
        [
            [
                0.6944943098626125,
                0.030815976027580794
            ],
            [
                0.6941923774954628,
                0.028937285743093365
            ],
            [
                0.6932316835999862,
                0.030815976027580794
            ]
        ]
    ],
    "2514": [
        [
            [
                0.4714811155028546,
                0.11191626409017721
            ],
            [
                0.4728535353535354,
                0.11223344556677896
            ],
            [
                0.47211242863416764,
                0.11191626409017721
            ]
        ],
        [
            [
                0.47635419745479246,
                0.40467588023657886
            ],
            [
                0.47671102661596954,
                0.4036755386565272
            ],
            [
                0.47635419745479246,
                0.4024312113252433
            ]
        ],
        [
            [
                0.6798484723245011,
                0.3696706971628445
            ],
            [
                0.6810836501901141,
                0.37325728770595684
            ],
            [
                0.6811110985871274,
                0.3707930316185123
            ]
        ],
        [
            [
                0.667127027424184,
                0.040535217534170574
            ],
            [
                0.6668250950570341,
                0.03865652724968314
            ],
            [
                0.6658644011615577,
                0.040535217534170574
            ]
        ]
    ],
    "2523": [
        [
            [
                0.4487538427755819,
                0.12313960864685511
            ],
            [
                0.4501262626262627,
                0.12345679012345685
            ],
            [
                0.44938515590689493,
                0.12313960864685511
            ]
        ],
        [
            [
                0.4488264739241224,
                0.4074330901180633
            ],
            [
                0.44918330308529947,
                0.40643274853801165
            ],
            [
                0.4488264739241224,
                0.40518842120672777
            ]
        ],
        [
            [
                0.6475851488131529,
                0.37703450241917846
            ],
            [
                0.6488203266787659,
                0.3806210929622908
            ],
            [
                0.6488477750757792,
                0.37815683687484625
            ]
        ],
        [
            [
                0.6400478488825762,
                0.0534011746563366
            ],
            [
                0.6397459165154264,
                0.051522484371849156
            ],
            [
                0.6387852226199499,
                0.0534011746563366
            ]
        ]
    ],
    "2527": [
        [
            [
                0.44117808519982427,
                0.12201727419118732
            ],
            [
                0.4425505050505051,
                0.12233445566778905
            ],
            [
                0.4418093983311373,
                0.12201727419118732
            ]
        ],
        [
            [
                0.4478754940711462,
                0.3949397355194456
            ],
            [
                0.44823232323232326,
                0.393939393939394
            ],
            [
                0.4478754940711462,
                0.39269506660811004
            ]
        ],
        [
            [
                0.6363910847606497,
                0.37351778656126483
            ],
            [
                0.6376262626262627,
                0.37710437710437716
            ],
            [
                0.637653711023276,
                0.37464012101693256
            ]
        ],
        [
            [
                0.6278271848924023,
                0.0613624164348803
            ],
            [
                0.6275252525252526,
                0.05948372615039288
            ],
            [
                0.626564558629776,
                0.0613624164348803
            ]
        ]
    ],
    "2538": [
        [
            [
                0.44812252964426874,
                0.12538427755819068
            ],
            [
                0.44949494949494956,
                0.1257014590347924
            ],
            [
                0.4487538427755818,
                0.12538427755819068
            ]
        ],
        [
            [
                0.4535573122529644,
                0.39269506660811004
            ],
            [
                0.4539141414141415,
                0.3916947250280584
            ],
            [
                0.4535573122529644,
                0.3904503976967744
            ]
        ],
        [
            [
                0.6427762289784934,
                0.37474040565460626
            ],
            [
                0.6440114068441064,
                0.3783269961977186
            ],
            [
                0.6440388552411197,
                0.375862740110274
            ]
        ],
        [
            [
                0.6386099171580243,
                0.06926356565415366
            ],
            [
                0.6383079847908745,
                0.06738487536966624
            ],
            [
                0.637347290895398,
                0.06926356565415366
            ]
        ]
    ],
    "2554": [
        [
            [
                0.4648823330010302,
                0.12790419579420517
            ],
            [
                0.466254752851711,
                0.12822137727080693
            ],
            [
                0.4655136461323432,
                0.12790419579420517
            ]
        ],
        [
            [
                0.4792059084814084,
                0.3911566575918809
            ],
            [
                0.4795627376425855,
                0.3901563160118293
            ],
            [
                0.4792059084814084,
                0.38891198868054533
            ]
        ],
        [
            [
                0.6636887765070105,
                0.3612211830099083
            ],
            [
                0.6649239543726235,
                0.36480777355302063
            ],
            [
                0.6649514027696368,
                0.362343517465576
            ]
        ],
        [
            [
                0.6538190426333094,
                0.0709534684847409
            ],
            [
                0.6535171102661597,
                0.06907477820025348
            ],
            [
                0.6525564163706831,
                0.0709534684847409
            ]
        ]
    ],
    "2560": [
        [
            [
                0.4796881862099253,
                0.13660762211486857
            ],
            [
                0.48106060606060613,
                0.1369248035914703
            ],
            [
                0.48031949934123835,
                0.13660762211486857
            ]
        ],
        [
            [
                0.48681047121905097,
                0.384397046269532
            ],
            [
                0.48716730038022804,
                0.38339670468948034
            ],
            [
                0.48681047121905097,
                0.38215237735819635
            ]
        ],
        [
            [
                0.6684416282180371,
                0.359531280179321
            ],
            [
                0.6696768060836501,
                0.3631178707224334
            ],
            [
                0.6697042544806634,
                0.3606536146349888
            ]
        ],
        [
            [
                0.6604730350287465,
                0.07433327414591538
            ],
            [
                0.6601711026615968,
                0.07245458386142796
            ],
            [
                0.6592104087661202,
                0.07433327414591538
            ]
        ]
    ]
}
</property>
    <property name="kdenlive_info">0/-1/</property>
    <property name="disable"/>
   </filter>
  </entry>
  <blank length="192"/>
  <entry producer="slowmotion:9:0,5:1:0" in="9783" out="9970">
   <filter id="filter185" in="9783" out="9970">
    <property name="background">colour:0x00000000</property>
    <property name="mlt_service">affine</property>
    <property name="kdenlive_id">pan_zoom</property>
    <property name="tag">affine</property>
    <property name="kdenlive_ix">2</property>
    <property name="transition.geometry">0/-574:3456x1944:100</property>
    <property name="transition.distort">0</property>
    <property name="kdenlive:sync_in_out">1</property>
    <property name="kdenlive_info"/>
   </filter>
  </entry>
  <blank length="407"/>
  <entry producer="slowmotion:10:0,5:1:0" in="3235" out="3517">
   <filter id="filter186" in="3235" out="3577">
    <property name="background">colour:0x00000000</property>
    <property name="mlt_service">affine</property>
    <property name="kdenlive_id">pan_zoom</property>
    <property name="tag">affine</property>
    <property name="kdenlive_info">0/-1/</property>
    <property name="kdenlive_ix">2</property>
    <property name="disable">0</property>
    <property name="transition.geometry">-960/0:2880x1620:100</property>
    <property name="transition.distort">0</property>
    <property name="kdenlive:sync_in_out">1</property>
   </filter>
  </entry>
  <blank length="597"/>
  <entry producer="slowmotion:9:0,5:1:0" in="10360" out="10473"/>
  <blank length="370"/>
  <entry producer="slowmotion:9:0,5:1:0" in="10821" out="11086">
   <filter id="filter187">
    <property name="version">0,2</property>
    <property name="mlt_service">frei0r.sharpness</property>
    <property name="kdenlive_id">frei0r.sharpness</property>
    <property name="tag">frei0r.sharpness</property>
    <property name="kdenlive_ix">2</property>
    <property name="Amount">10821=0,5</property>
    <property name="Size">10821=0,5</property>
    <property name="kdenlive_info"/>
    <property name="disable">0</property>
   </filter>
  </entry>
  <blank length="306"/>
  <entry producer="slowmotion:9:0,5:1:0" in="11393" out="11561">
   <filter id="filter188">
    <property name="version">0,2</property>
    <property name="mlt_service">frei0r.sharpness</property>
    <property name="kdenlive_id">frei0r.sharpness</property>
    <property name="tag">frei0r.sharpness</property>
    <property name="kdenlive_ix">2</property>
    <property name="disable">0</property>
    <property name="Amount">11393=0,5</property>
    <property name="Size">11393=0,5</property>
    <property name="kdenlive_info"/>
   </filter>
  </entry>
 </playlist>
 <producer title="Anonymous Submission" id="30_playlist10" in="0" out="43907">
  <property name="length">00:14:38:08</property>
  <property name="eof">pause</property>
  <property name="resource">/media/bordun/plagiat2/2019-05-01_Plagiat_RespecteLaPuissancePapale_Lavare/CAM1_2019-01-05_0407_C0000.mov</property>
  <property name="audio_index">2</property>
  <property name="video_index">1</property>
  <property name="mute_on_pause">1</property>
  <property name="mlt_service">avformat-novalidate</property>
  <property name="seekable">1</property>
  <property name="aspect_ratio">1</property>
  <property name="kdenlive:folderid">16</property>
  <property name="kdenlive:file_size">40537867713</property>
  <property name="kdenlive:file_hash">eeb49a6f6e2626b129e2046ec649a60c</property>
  <property name="global_feed">1</property>
  <property name="xml">was here</property>
  <property name="meta.media.nb_streams">3</property>
  <property name="meta.media.1.stream.type">video</property>
  <property name="meta.media.1.stream.frame_rate">50</property>
  <property name="meta.media.1.stream.sample_aspect_ratio">1</property>
  <property name="meta.media.1.codec.width">1920</property>
  <property name="meta.media.1.codec.height">1080</property>
  <property name="meta.media.1.codec.rotate">0</property>
  <property name="meta.media.1.codec.frame_rate">5000</property>
  <property name="meta.media.1.codec.pix_fmt">yuv422p10le</property>
  <property name="meta.media.1.codec.sample_aspect_ratio">0</property>
  <property name="meta.media.1.codec.colorspace">709</property>
  <property name="meta.media.1.codec.color_trc">1</property>
  <property name="meta.media.1.codec.name">prores</property>
  <property name="meta.media.1.codec.long_name">ProRes</property>
  <property name="meta.media.1.codec.bit_rate">366957037</property>
  <property name="meta.attr.1.stream.creation_time.markup">2019-01-05T04:07:04.000000Z</property>
  <property name="meta.attr.1.stream.language.markup">eng</property>
  <property name="meta.attr.1.stream.handler_name.markup">Apple Alias Data Handler</property>
  <property name="meta.attr.1.stream.encoder.markup">Apple ProRes 422 HQ</property>
  <property name="meta.attr.1.stream.timecode.markup">04:07:04:29</property>
  <property name="meta.media.2.stream.type">audio</property>
  <property name="meta.media.2.codec.sample_fmt">s32</property>
  <property name="meta.media.2.codec.sample_rate">48000</property>
  <property name="meta.media.2.codec.channels">2</property>
  <property name="meta.media.2.codec.name">pcm_s24le</property>
  <property name="meta.media.2.codec.long_name">PCM signed 24-bit little-endian</property>
  <property name="meta.media.2.codec.bit_rate">2304000</property>
  <property name="meta.attr.2.stream.creation_time.markup">2019-01-05T04:07:04.000000Z</property>
  <property name="meta.attr.2.stream.language.markup">eng</property>
  <property name="meta.attr.2.stream.handler_name.markup">Apple Alias Data Handler</property>
  <property name="meta.attr.2.stream.timecode.markup">04:07:04:29</property>
  <property name="meta.attr.com.apple.proapps.manufacturer.markup">Blackmagic Design</property>
  <property name="meta.attr.com.apple.proapps.cameraName.markup">CAM1</property>
  <property name="meta.attr.com.apple.proapps.isGood.markup">0</property>
  <property name="meta.attr.com.apple.proapps.customgamma.markup">com.blackmagic-design.cinemacamera.filmlog</property>
  <property name="meta.attr.com.blackmagic-design.cinemacamera.uuid.markup">18E5E00548F94923B646613A73C01B56</property>
  <property name="meta.attr.creation_time.markup">2019-01-05T04:07:04.000000Z</property>
  <property name="meta.attr.timecode.markup">04:07:04:29</property>
  <property name="meta.media.sample_aspect_num">1</property>
  <property name="meta.media.sample_aspect_den">1</property>
  <property name="meta.media.frame_rate_num">50</property>
  <property name="meta.media.frame_rate_den">1</property>
  <property name="meta.media.colorspace">709</property>
  <property name="meta.media.color_trc">1</property>
  <property name="meta.media.width">1920</property>
  <property name="meta.media.height">1080</property>
  <property name="meta.media.top_field_first">0</property>
  <property name="meta.media.progressive">1</property>
  <filter id="filter189">
   <property name="version">0,3</property>
   <property name="mlt_service">frei0r.levels</property>
   <property name="kdenlive_id">frei0r.levels</property>
   <property name="tag">frei0r.levels</property>
   <property name="kdenlive_ix">1</property>
   <property name="kdenlive_info"/>
   <property name="Channel">0,3</property>
   <property name="Input black level">0=0,04</property>
   <property name="Input white level">0=1</property>
   <property name="Gamma">0=0,25</property>
   <property name="Black output">0=0</property>
   <property name="White output">0=1</property>
   <property name="Show histogram">0</property>
   <property name="Histogram position">0,3</property>
  </filter>
  <filter id="filter190">
   <property name="version">0,3</property>
   <property name="mlt_service">frei0r.levels</property>
   <property name="kdenlive_id">frei0r.levels</property>
   <property name="tag">frei0r.levels</property>
   <property name="kdenlive_ix">2</property>
   <property name="kdenlive_info"/>
   <property name="Channel">0,3</property>
   <property name="Input black level">0=0</property>
   <property name="Input white level">0=1</property>
   <property name="Gamma">0=0,25</property>
   <property name="Black output">0=0</property>
   <property name="White output">0=1</property>
   <property name="Show histogram">0</property>
   <property name="Histogram position">0,3</property>
  </filter>
 </producer>
 <playlist id="playlist10">
  <property name="kdenlive:track_name">Video 0</property>
  <blank length="1706"/>
  <entry producer="51" in="39" out="124">
   <filter id="filter191" in="39" out="124">
    <property name="background">colour:0x00000000</property>
    <property name="mlt_service">affine</property>
    <property name="kdenlive_id">pan_zoom</property>
    <property name="tag">affine</property>
    <property name="kdenlive_ix">1</property>
    <property name="transition.geometry">179/-11:1536x864:100</property>
    <property name="transition.distort">0</property>
    <property name="kdenlive:sync_in_out">1</property>
    <property name="kdenlive_info">0/-1/</property>
   </filter>
   <filter id="affinerotate">
    <property name="background">colour:0x00000000</property>
    <property name="mlt_service">affine</property>
    <property name="kdenlive_id">affinerotate</property>
    <property name="tag">affine</property>
    <property name="kdenlive_ix">2</property>
    <property name="transition.rotate_x">39=-10,6</property>
    <property name="transition.rotate_y">39=0</property>
    <property name="transition.rotate_z">39=32,4</property>
    <property name="transition.ox">39=0</property>
    <property name="transition.oy">39=0</property>
    <property name="transition.keyed">1</property>
    <property name="transition.always_active">1</property>
    <property name="kdenlive_info"/>
   </filter>
   <filter id="frei0r.saturat0r">
    <property name="version">0,3</property>
    <property name="mlt_service">frei0r.saturat0r</property>
    <property name="kdenlive_id">frei0r.saturat0r</property>
    <property name="tag">frei0r.saturat0r</property>
    <property name="kdenlive_ix">3</property>
    <property name="Saturation">39=0,035</property>
    <property name="kdenlive_info"/>
   </filter>
   <filter id="filter192">
    <property name="version">0,2</property>
    <property name="mlt_service">frei0r.brightness</property>
    <property name="kdenlive_id">frei0r.brightness</property>
    <property name="tag">frei0r.brightness</property>
    <property name="kdenlive_ix">4</property>
    <property name="Brightness">0,528</property>
    <property name="kdenlive_info"/>
   </filter>
  </entry>
  <blank length="8664"/>
  <entry producer="30_playlist10" in="21540" out="21611"/>
 </playlist>
 <producer title="Anonymous Submission" id="43_playlist11" in="0" out="42317">
  <property name="length">00:14:06:18</property>
  <property name="eof">pause</property>
  <property name="resource">/media/bordun/plagiat2/2019-05-01_Plagiat_RespecteLaPuissancePapale_Lavare/CAM1_2019-01-05_0345_C0000.mov</property>
  <property name="audio_index">2</property>
  <property name="video_index">1</property>
  <property name="mute_on_pause">1</property>
  <property name="mlt_service">avformat-novalidate</property>
  <property name="seekable">1</property>
  <property name="aspect_ratio">1</property>
  <property name="kdenlive:folderid">16</property>
  <property name="kdenlive:file_size">39069915329</property>
  <property name="kdenlive:file_hash">73f4a81374204093f22cbe930d68c42b</property>
  <property name="global_feed">1</property>
  <property name="xml">was here</property>
  <property name="meta.media.nb_streams">3</property>
  <property name="meta.media.1.stream.type">video</property>
  <property name="meta.media.1.stream.frame_rate">50</property>
  <property name="meta.media.1.stream.sample_aspect_ratio">1</property>
  <property name="meta.media.1.codec.width">1920</property>
  <property name="meta.media.1.codec.height">1080</property>
  <property name="meta.media.1.codec.rotate">0</property>
  <property name="meta.media.1.codec.frame_rate">5000</property>
  <property name="meta.media.1.codec.pix_fmt">yuv422p10le</property>
  <property name="meta.media.1.codec.sample_aspect_ratio">0</property>
  <property name="meta.media.1.codec.colorspace">709</property>
  <property name="meta.media.1.codec.color_trc">1</property>
  <property name="meta.media.1.codec.name">prores</property>
  <property name="meta.media.1.codec.long_name">ProRes</property>
  <property name="meta.media.1.codec.bit_rate">366957403</property>
  <property name="meta.attr.1.stream.creation_time.markup">2019-01-05T03:45:37.000000Z</property>
  <property name="meta.attr.1.stream.language.markup">eng</property>
  <property name="meta.attr.1.stream.handler_name.markup">Apple Alias Data Handler</property>
  <property name="meta.attr.1.stream.encoder.markup">Apple ProRes 422 HQ</property>
  <property name="meta.attr.1.stream.timecode.markup">03:45:37:07</property>
  <property name="meta.media.2.stream.type">audio</property>
  <property name="meta.media.2.codec.sample_fmt">s32</property>
  <property name="meta.media.2.codec.sample_rate">48000</property>
  <property name="meta.media.2.codec.channels">2</property>
  <property name="meta.media.2.codec.name">pcm_s24le</property>
  <property name="meta.media.2.codec.long_name">PCM signed 24-bit little-endian</property>
  <property name="meta.media.2.codec.bit_rate">2304000</property>
  <property name="meta.attr.2.stream.creation_time.markup">2019-01-05T03:45:37.000000Z</property>
  <property name="meta.attr.2.stream.language.markup">eng</property>
  <property name="meta.attr.2.stream.handler_name.markup">Apple Alias Data Handler</property>
  <property name="meta.attr.2.stream.timecode.markup">03:45:37:07</property>
  <property name="meta.attr.com.apple.proapps.manufacturer.markup">Blackmagic Design</property>
  <property name="meta.attr.com.apple.proapps.cameraName.markup">CAM1</property>
  <property name="meta.attr.com.apple.proapps.isGood.markup">0</property>
  <property name="meta.attr.com.apple.proapps.customgamma.markup">com.blackmagic-design.cinemacamera.filmlog</property>
  <property name="meta.attr.com.blackmagic-design.cinemacamera.uuid.markup">18E5E00548F94923B646613A73C01B56</property>
  <property name="meta.attr.creation_time.markup">2019-01-05T03:45:37.000000Z</property>
  <property name="meta.attr.timecode.markup">03:45:37:07</property>
  <property name="meta.media.sample_aspect_num">1</property>
  <property name="meta.media.sample_aspect_den">1</property>
  <property name="meta.media.frame_rate_num">50</property>
  <property name="meta.media.frame_rate_den">1</property>
  <property name="meta.media.colorspace">709</property>
  <property name="meta.media.color_trc">1</property>
  <property name="meta.media.width">1920</property>
  <property name="meta.media.height">1080</property>
  <property name="meta.media.top_field_first">0</property>
  <property name="meta.media.progressive">1</property>
  <filter id="filter199">
   <property name="version">0,2</property>
   <property name="mlt_service">frei0r.contrast0r</property>
   <property name="kdenlive_id">frei0r.contrast0r</property>
   <property name="tag">frei0r.contrast0r</property>
   <property name="kdenlive_ix">1</property>
   <property name="kdenlive_info"/>
   <property name="Contrast">0=0,55</property>
  </filter>
 </producer>
 <producer title="Anonymous Submission" id="producer4" in="0" out="42317">
  <property name="length">00:14:06:18</property>
  <property name="eof">pause</property>
  <property name="resource">/media/bordun/plagiat2/2019-05-01_Plagiat_RespecteLaPuissancePapale_Lavare/CAM1_2019-01-05_0345_C0000.mov</property>
  <property name="audio_index">-1</property>
  <property name="video_index">-1</property>
  <property name="mute_on_pause">1</property>
  <property name="mlt_service">avformat-novalidate</property>
  <property name="seekable">1</property>
  <property name="aspect_ratio">1</property>
  <property name="kdenlive:folderid">16</property>
  <property name="kdenlive:file_size">39069915329</property>
  <property name="kdenlive:file_hash">73f4a81374204093f22cbe930d68c42b</property>
  <property name="global_feed">1</property>
  <property name="xml">was here</property>
  <property name="kdenlive:binid">43</property>
  <property name="kdenlive:clipstate">0</property>
  <filter id="filter200">
   <property name="version">0,2</property>
   <property name="mlt_service">frei0r.contrast0r</property>
   <property name="kdenlive_id">frei0r.contrast0r</property>
   <property name="tag">frei0r.contrast0r</property>
   <property name="kdenlive_ix">1</property>
   <property name="kdenlive_info"/>
   <property name="Contrast">0=0,55</property>
  </filter>
 </producer>
 <producer title="Anonymous Submission" id="30_playlist11" in="0" out="43907">
  <property name="length">00:14:38:08</property>
  <property name="eof">pause</property>
  <property name="resource">/media/bordun/plagiat2/2019-05-01_Plagiat_RespecteLaPuissancePapale_Lavare/CAM1_2019-01-05_0407_C0000.mov</property>
  <property name="audio_index">2</property>
  <property name="video_index">1</property>
  <property name="mute_on_pause">1</property>
  <property name="mlt_service">avformat-novalidate</property>
  <property name="seekable">1</property>
  <property name="aspect_ratio">1</property>
  <property name="kdenlive:folderid">16</property>
  <property name="kdenlive:file_size">40537867713</property>
  <property name="kdenlive:file_hash">eeb49a6f6e2626b129e2046ec649a60c</property>
  <property name="global_feed">1</property>
  <property name="xml">was here</property>
  <property name="meta.media.nb_streams">3</property>
  <property name="meta.media.1.stream.type">video</property>
  <property name="meta.media.1.stream.frame_rate">50</property>
  <property name="meta.media.1.stream.sample_aspect_ratio">1</property>
  <property name="meta.media.1.codec.width">1920</property>
  <property name="meta.media.1.codec.height">1080</property>
  <property name="meta.media.1.codec.rotate">0</property>
  <property name="meta.media.1.codec.frame_rate">5000</property>
  <property name="meta.media.1.codec.pix_fmt">yuv422p10le</property>
  <property name="meta.media.1.codec.sample_aspect_ratio">0</property>
  <property name="meta.media.1.codec.colorspace">709</property>
  <property name="meta.media.1.codec.color_trc">1</property>
  <property name="meta.media.1.codec.name">prores</property>
  <property name="meta.media.1.codec.long_name">ProRes</property>
  <property name="meta.media.1.codec.bit_rate">366957037</property>
  <property name="meta.attr.1.stream.creation_time.markup">2019-01-05T04:07:04.000000Z</property>
  <property name="meta.attr.1.stream.language.markup">eng</property>
  <property name="meta.attr.1.stream.handler_name.markup">Apple Alias Data Handler</property>
  <property name="meta.attr.1.stream.encoder.markup">Apple ProRes 422 HQ</property>
  <property name="meta.attr.1.stream.timecode.markup">04:07:04:29</property>
  <property name="meta.media.2.stream.type">audio</property>
  <property name="meta.media.2.codec.sample_fmt">s32</property>
  <property name="meta.media.2.codec.sample_rate">48000</property>
  <property name="meta.media.2.codec.channels">2</property>
  <property name="meta.media.2.codec.name">pcm_s24le</property>
  <property name="meta.media.2.codec.long_name">PCM signed 24-bit little-endian</property>
  <property name="meta.media.2.codec.bit_rate">2304000</property>
  <property name="meta.attr.2.stream.creation_time.markup">2019-01-05T04:07:04.000000Z</property>
  <property name="meta.attr.2.stream.language.markup">eng</property>
  <property name="meta.attr.2.stream.handler_name.markup">Apple Alias Data Handler</property>
  <property name="meta.attr.2.stream.timecode.markup">04:07:04:29</property>
  <property name="meta.attr.com.apple.proapps.manufacturer.markup">Blackmagic Design</property>
  <property name="meta.attr.com.apple.proapps.cameraName.markup">CAM1</property>
  <property name="meta.attr.com.apple.proapps.isGood.markup">0</property>
  <property name="meta.attr.com.apple.proapps.customgamma.markup">com.blackmagic-design.cinemacamera.filmlog</property>
  <property name="meta.attr.com.blackmagic-design.cinemacamera.uuid.markup">18E5E00548F94923B646613A73C01B56</property>
  <property name="meta.attr.creation_time.markup">2019-01-05T04:07:04.000000Z</property>
  <property name="meta.attr.timecode.markup">04:07:04:29</property>
  <property name="meta.media.sample_aspect_num">1</property>
  <property name="meta.media.sample_aspect_den">1</property>
  <property name="meta.media.frame_rate_num">50</property>
  <property name="meta.media.frame_rate_den">1</property>
  <property name="meta.media.colorspace">709</property>
  <property name="meta.media.color_trc">1</property>
  <property name="meta.media.width">1920</property>
  <property name="meta.media.height">1080</property>
  <property name="meta.media.top_field_first">0</property>
  <property name="meta.media.progressive">1</property>
  <filter id="filter201">
   <property name="version">0,3</property>
   <property name="mlt_service">frei0r.levels</property>
   <property name="kdenlive_id">frei0r.levels</property>
   <property name="tag">frei0r.levels</property>
   <property name="kdenlive_ix">1</property>
   <property name="kdenlive_info"/>
   <property name="Channel">0,3</property>
   <property name="Input black level">0=0,04</property>
   <property name="Input white level">0=1</property>
   <property name="Gamma">0=0,25</property>
   <property name="Black output">0=0</property>
   <property name="White output">0=1</property>
   <property name="Show histogram">0</property>
   <property name="Histogram position">0,3</property>
  </filter>
  <filter id="filter202">
   <property name="version">0,3</property>
   <property name="mlt_service">frei0r.levels</property>
   <property name="kdenlive_id">frei0r.levels</property>
   <property name="tag">frei0r.levels</property>
   <property name="kdenlive_ix">2</property>
   <property name="kdenlive_info"/>
   <property name="Channel">0,3</property>
   <property name="Input black level">0=0</property>
   <property name="Input white level">0=1</property>
   <property name="Gamma">0=0,25</property>
   <property name="Black output">0=0</property>
   <property name="White output">0=1</property>
   <property name="Show histogram">0</property>
   <property name="Histogram position">0,3</property>
  </filter>
 </producer>
 <producer title="Anonymous Submission" id="41_playlist11" in="0" out="10702">
  <property name="length">00:03:34:03</property>
  <property name="eof">pause</property>
  <property name="resource">/media/bordun/plagiat2/2019-05-01_Plagiat_RespecteLaPuissancePapale_Lavare/CAM1_2019-01-05_0511_C0000.mov</property>
  <property name="audio_index">2</property>
  <property name="video_index">1</property>
  <property name="mute_on_pause">1</property>
  <property name="mlt_service">avformat-novalidate</property>
  <property name="seekable">1</property>
  <property name="aspect_ratio">1</property>
  <property name="kdenlive:folderid">16</property>
  <property name="kdenlive:file_size">9881509121</property>
  <property name="kdenlive:file_hash">377aa92a5fbef78369143e30739b498c</property>
  <property name="global_feed">1</property>
  <property name="xml">was here</property>
  <property name="meta.media.nb_streams">3</property>
  <property name="meta.media.1.stream.type">video</property>
  <property name="meta.media.1.stream.frame_rate">50</property>
  <property name="meta.media.1.stream.sample_aspect_ratio">1</property>
  <property name="meta.media.1.codec.width">1920</property>
  <property name="meta.media.1.codec.height">1080</property>
  <property name="meta.media.1.codec.rotate">0</property>
  <property name="meta.media.1.codec.frame_rate">5000</property>
  <property name="meta.media.1.codec.pix_fmt">yuv422p10le</property>
  <property name="meta.media.1.codec.sample_aspect_ratio">0</property>
  <property name="meta.media.1.codec.colorspace">709</property>
  <property name="meta.media.1.codec.color_trc">1</property>
  <property name="meta.media.1.codec.name">prores</property>
  <property name="meta.media.1.codec.long_name">ProRes</property>
  <property name="meta.media.1.codec.bit_rate">366958294</property>
  <property name="meta.attr.1.stream.creation_time.markup">2019-01-05T05:11:43.000000Z</property>
  <property name="meta.attr.1.stream.language.markup">eng</property>
  <property name="meta.attr.1.stream.handler_name.markup">Apple Alias Data Handler</property>
  <property name="meta.attr.1.stream.encoder.markup">Apple ProRes 422 HQ</property>
  <property name="meta.attr.1.stream.timecode.markup">05:11:43:16</property>
  <property name="meta.media.2.stream.type">audio</property>
  <property name="meta.media.2.codec.sample_fmt">s32</property>
  <property name="meta.media.2.codec.sample_rate">48000</property>
  <property name="meta.media.2.codec.channels">2</property>
  <property name="meta.media.2.codec.name">pcm_s24le</property>
  <property name="meta.media.2.codec.long_name">PCM signed 24-bit little-endian</property>
  <property name="meta.media.2.codec.bit_rate">2304000</property>
  <property name="meta.attr.2.stream.creation_time.markup">2019-01-05T05:11:43.000000Z</property>
  <property name="meta.attr.2.stream.language.markup">eng</property>
  <property name="meta.attr.2.stream.handler_name.markup">Apple Alias Data Handler</property>
  <property name="meta.attr.2.stream.timecode.markup">05:11:43:16</property>
  <property name="meta.attr.com.apple.proapps.manufacturer.markup">Blackmagic Design</property>
  <property name="meta.attr.com.apple.proapps.cameraName.markup">CAM1</property>
  <property name="meta.attr.com.apple.proapps.isGood.markup">0</property>
  <property name="meta.attr.com.apple.proapps.customgamma.markup">com.blackmagic-design.cinemacamera.filmlog</property>
  <property name="meta.attr.com.blackmagic-design.cinemacamera.uuid.markup">18E5E00548F94923B646613A73C01B56</property>
  <property name="meta.attr.creation_time.markup">2019-01-05T05:11:43.000000Z</property>
  <property name="meta.attr.timecode.markup">05:11:43:16</property>
  <property name="meta.media.sample_aspect_num">1</property>
  <property name="meta.media.sample_aspect_den">1</property>
  <property name="meta.media.frame_rate_num">50</property>
  <property name="meta.media.frame_rate_den">1</property>
  <property name="meta.media.colorspace">709</property>
  <property name="meta.media.color_trc">1</property>
  <property name="meta.media.width">1920</property>
  <property name="meta.media.height">1080</property>
  <property name="meta.media.top_field_first">0</property>
  <property name="meta.media.progressive">1</property>
  <filter id="filter193">
   <property name="version">0,2</property>
   <property name="mlt_service">frei0r.contrast0r</property>
   <property name="kdenlive_id">frei0r.contrast0r</property>
   <property name="tag">frei0r.contrast0r</property>
   <property name="kdenlive_ix">1</property>
   <property name="kdenlive_info"/>
   <property name="Contrast">0=0,55</property>
   <property name="disable">0</property>
  </filter>
  <filter id="filter194">
   <property name="version">0,3</property>
   <property name="mlt_service">frei0r.levels</property>
   <property name="kdenlive_id">frei0r.levels</property>
   <property name="tag">frei0r.levels</property>
   <property name="kdenlive_ix">2</property>
   <property name="kdenlive_info"/>
   <property name="Channel">0,3</property>
   <property name="Input black level">0=0</property>
   <property name="Input white level">0=1</property>
   <property name="Gamma">0=0,25</property>
   <property name="Black output">0=0</property>
   <property name="White output">0=1</property>
   <property name="Show histogram">0</property>
   <property name="Histogram position">0,3</property>
  </filter>
  <filter id="filter195">
   <property name="version">0,3</property>
   <property name="mlt_service">frei0r.levels</property>
   <property name="kdenlive_id">frei0r.levels</property>
   <property name="tag">frei0r.levels</property>
   <property name="kdenlive_ix">3</property>
   <property name="kdenlive_info"/>
   <property name="Channel">0,3</property>
   <property name="Input black level">0=0</property>
   <property name="Input white level">0=1</property>
   <property name="Gamma">0=0,25</property>
   <property name="Black output">0=0</property>
   <property name="White output">0=1</property>
   <property name="Show histogram">0</property>
   <property name="Histogram position">0,3</property>
  </filter>
 </producer>
 <playlist id="playlist11">
  <property name="kdenlive:track_name">Video -1</property>
  <blank length="6250"/>
  <entry producer="43_playlist11" in="16406" out="16525">
   <filter id="filter210" in="16406" out="16525">
    <property name="background">colour:0x00000000</property>
    <property name="mlt_service">affine</property>
    <property name="kdenlive_id">pan_zoom</property>
    <property name="tag">affine</property>
    <property name="kdenlive_ix">1</property>
    <property name="transition.geometry">0=-307/-14:2304x1296:100;47=-259/-4:2304x1296:100;119=-245/-4:2304x1296:100</property>
    <property name="transition.distort">0</property>
    <property name="kdenlive:sync_in_out">1</property>
    <property name="kdenlive_info"/>
    <property name="disable"/>
   </filter>
  </entry>
  <blank length="1004"/>
  <entry producer="43_playlist11" in="17600" out="17705"/>
  <blank length="212"/>
  <entry producer="43_playlist11" in="17834" out="17937"/>
  <blank length="864"/>
  <entry producer="producer4" in="18802" out="18870"/>
  <blank length="403"/>
  <entry producer="30_playlist11" in="19473" out="19528"/>
  <blank length="235"/>
  <entry producer="30_playlist11" in="19268" out="19333"/>
  <blank length="617"/>
  <entry producer="30_playlist11" in="20450" out="20556"/>
  <blank length="2708"/>
  <entry producer="41_playlist11" in="8148" out="8343">
   <filter id="filter211" in="8148" out="8343">
    <property name="background">colour:0x00000000</property>
    <property name="mlt_service">affine</property>
    <property name="kdenlive_id">pan_zoom</property>
    <property name="tag">affine</property>
    <property name="kdenlive_info"/>
    <property name="kdenlive_ix">1</property>
    <property name="disable"/>
    <property name="transition.geometry">0=-200/-43:4224x2376:100;74=-200/-43:4224x2376:100;75=-1365/-735:4608x2592:100;118=-1365/-735:4608x2592:100;119=-411/-155:4608x2592:100;154=-209/-65:4032x2268:100</property>
    <property name="transition.distort">0</property>
    <property name="kdenlive:sync_in_out">1</property>
   </filter>
  </entry>
 </playlist>
 <producer id="slowmotion:30:0,5:1:0" in="0" out="87815">
  <property name="length">87816</property>
  <property name="eof">pause</property>
  <property name="resource">0,5:/media/bordun/plagiat2/2019-05-01_Plagiat_RespecteLaPuissancePapale_Lavare/CAM1_2019-01-05_0407_C0000.mov</property>
  <property name="aspect_ratio">1</property>
  <property name="meta.media.nb_streams">3</property>
  <property name="meta.media.1.stream.type">video</property>
  <property name="meta.media.1.stream.frame_rate">50</property>
  <property name="meta.media.1.stream.sample_aspect_ratio">1</property>
  <property name="meta.media.1.codec.width">1920</property>
  <property name="meta.media.1.codec.height">1080</property>
  <property name="meta.media.1.codec.rotate">0</property>
  <property name="meta.media.1.codec.frame_rate">5000</property>
  <property name="meta.media.1.codec.pix_fmt">yuv422p10le</property>
  <property name="meta.media.1.codec.sample_aspect_ratio">0</property>
  <property name="meta.media.1.codec.colorspace">709</property>
  <property name="meta.media.1.codec.color_trc">1</property>
  <property name="meta.media.1.codec.name">prores</property>
  <property name="meta.media.1.codec.long_name">ProRes</property>
  <property name="meta.media.1.codec.bit_rate">366957037</property>
  <property name="meta.attr.1.stream.creation_time.markup">2019-01-05T04:07:04.000000Z</property>
  <property name="meta.attr.1.stream.language.markup">eng</property>
  <property name="meta.attr.1.stream.handler_name.markup">Apple Alias Data Handler</property>
  <property name="meta.attr.1.stream.encoder.markup">Apple ProRes 422 HQ</property>
  <property name="meta.attr.1.stream.timecode.markup">04:07:04:29</property>
  <property name="meta.media.2.stream.type">audio</property>
  <property name="meta.media.2.codec.sample_fmt">s32</property>
  <property name="meta.media.2.codec.sample_rate">48000</property>
  <property name="meta.media.2.codec.channels">2</property>
  <property name="meta.media.2.codec.name">pcm_s24le</property>
  <property name="meta.media.2.codec.long_name">PCM signed 24-bit little-endian</property>
  <property name="meta.media.2.codec.bit_rate">2304000</property>
  <property name="meta.attr.2.stream.creation_time.markup">2019-01-05T04:07:04.000000Z</property>
  <property name="meta.attr.2.stream.language.markup">eng</property>
  <property name="meta.attr.2.stream.handler_name.markup">Apple Alias Data Handler</property>
  <property name="meta.attr.2.stream.timecode.markup">04:07:04:29</property>
  <property name="meta.attr.com.apple.proapps.manufacturer.markup">Blackmagic Design</property>
  <property name="meta.attr.com.apple.proapps.cameraName.markup">CAM1</property>
  <property name="meta.attr.com.apple.proapps.isGood.markup">0</property>
  <property name="meta.attr.com.apple.proapps.customgamma.markup">com.blackmagic-design.cinemacamera.filmlog</property>
  <property name="meta.attr.com.blackmagic-design.cinemacamera.uuid.markup">18E5E00548F94923B646613A73C01B56</property>
  <property name="meta.attr.creation_time.markup">2019-01-05T04:07:04.000000Z</property>
  <property name="meta.attr.timecode.markup">04:07:04:29</property>
  <property name="seekable">1</property>
  <property name="meta.media.sample_aspect_num">1</property>
  <property name="meta.media.sample_aspect_den">1</property>
  <property name="audio_index">2</property>
  <property name="video_index">1</property>
  <property name="mute_on_pause">1</property>
  <property name="warp_speed">0,5</property>
  <property name="warp_resource">/media/bordun/plagiat2/2019-05-01_Plagiat_RespecteLaPuissancePapale_Lavare/CAM1_2019-01-05_0407_C0000.mov</property>
  <property name="mlt_service">timewarp</property>
  <property name="meta.media.frame_rate_num">50</property>
  <property name="meta.media.frame_rate_den">1</property>
  <property name="meta.media.colorspace">709</property>
  <property name="meta.media.color_trc">1</property>
  <property name="meta.media.width">1920</property>
  <property name="meta.media.height">1080</property>
  <property name="meta.media.top_field_first">0</property>
  <property name="meta.media.progressive">1</property>
  <filter id="filter212">
   <property name="version">0,3</property>
   <property name="mlt_service">frei0r.levels</property>
   <property name="kdenlive_id">frei0r.levels</property>
   <property name="tag">frei0r.levels</property>
   <property name="kdenlive_ix">1</property>
   <property name="kdenlive_info"/>
   <property name="Channel">0,3</property>
   <property name="Input black level">0=0,04</property>
   <property name="Input white level">0=1</property>
   <property name="Gamma">0=0,25</property>
   <property name="Black output">0=0</property>
   <property name="White output">0=1</property>
   <property name="Show histogram">0</property>
   <property name="Histogram position">0,3</property>
  </filter>
  <filter id="filter213">
   <property name="version">0,3</property>
   <property name="mlt_service">frei0r.levels</property>
   <property name="kdenlive_id">frei0r.levels</property>
   <property name="tag">frei0r.levels</property>
   <property name="kdenlive_ix">2</property>
   <property name="kdenlive_info"/>
   <property name="Channel">0,3</property>
   <property name="Input black level">0=0</property>
   <property name="Input white level">0=1</property>
   <property name="Gamma">0=0,25</property>
   <property name="Black output">0=0</property>
   <property name="White output">0=1</property>
   <property name="Show histogram">0</property>
   <property name="Histogram position">0,3</property>
  </filter>
 </producer>
 <producer id="slowmotion:43:0,5:1:0" in="0" out="84635">
  <property name="length">84636</property>
  <property name="eof">pause</property>
  <property name="resource">0,5:/media/bordun/plagiat2/2019-05-01_Plagiat_RespecteLaPuissancePapale_Lavare/CAM1_2019-01-05_0345_C0000.mov</property>
  <property name="aspect_ratio">1</property>
  <property name="meta.media.nb_streams">3</property>
  <property name="meta.media.1.stream.type">video</property>
  <property name="meta.media.1.stream.frame_rate">50</property>
  <property name="meta.media.1.stream.sample_aspect_ratio">1</property>
  <property name="meta.media.1.codec.width">1920</property>
  <property name="meta.media.1.codec.height">1080</property>
  <property name="meta.media.1.codec.rotate">0</property>
  <property name="meta.media.1.codec.frame_rate">5000</property>
  <property name="meta.media.1.codec.pix_fmt">yuv422p10le</property>
  <property name="meta.media.1.codec.sample_aspect_ratio">0</property>
  <property name="meta.media.1.codec.colorspace">709</property>
  <property name="meta.media.1.codec.color_trc">1</property>
  <property name="meta.media.1.codec.name">prores</property>
  <property name="meta.media.1.codec.long_name">ProRes</property>
  <property name="meta.media.1.codec.bit_rate">366957403</property>
  <property name="meta.attr.1.stream.creation_time.markup">2019-01-05T03:45:37.000000Z</property>
  <property name="meta.attr.1.stream.language.markup">eng</property>
  <property name="meta.attr.1.stream.handler_name.markup">Apple Alias Data Handler</property>
  <property name="meta.attr.1.stream.encoder.markup">Apple ProRes 422 HQ</property>
  <property name="meta.attr.1.stream.timecode.markup">03:45:37:07</property>
  <property name="meta.media.2.stream.type">audio</property>
  <property name="meta.media.2.codec.sample_fmt">s32</property>
  <property name="meta.media.2.codec.sample_rate">48000</property>
  <property name="meta.media.2.codec.channels">2</property>
  <property name="meta.media.2.codec.name">pcm_s24le</property>
  <property name="meta.media.2.codec.long_name">PCM signed 24-bit little-endian</property>
  <property name="meta.media.2.codec.bit_rate">2304000</property>
  <property name="meta.attr.2.stream.creation_time.markup">2019-01-05T03:45:37.000000Z</property>
  <property name="meta.attr.2.stream.language.markup">eng</property>
  <property name="meta.attr.2.stream.handler_name.markup">Apple Alias Data Handler</property>
  <property name="meta.attr.2.stream.timecode.markup">03:45:37:07</property>
  <property name="meta.attr.com.apple.proapps.manufacturer.markup">Blackmagic Design</property>
  <property name="meta.attr.com.apple.proapps.cameraName.markup">CAM1</property>
  <property name="meta.attr.com.apple.proapps.isGood.markup">0</property>
  <property name="meta.attr.com.apple.proapps.customgamma.markup">com.blackmagic-design.cinemacamera.filmlog</property>
  <property name="meta.attr.com.blackmagic-design.cinemacamera.uuid.markup">18E5E00548F94923B646613A73C01B56</property>
  <property name="meta.attr.creation_time.markup">2019-01-05T03:45:37.000000Z</property>
  <property name="meta.attr.timecode.markup">03:45:37:07</property>
  <property name="seekable">1</property>
  <property name="meta.media.sample_aspect_num">1</property>
  <property name="meta.media.sample_aspect_den">1</property>
  <property name="audio_index">2</property>
  <property name="video_index">1</property>
  <property name="mute_on_pause">1</property>
  <property name="warp_speed">0,5</property>
  <property name="warp_resource">/media/bordun/plagiat2/2019-05-01_Plagiat_RespecteLaPuissancePapale_Lavare/CAM1_2019-01-05_0345_C0000.mov</property>
  <property name="mlt_service">timewarp</property>
  <property name="meta.media.frame_rate_num">50</property>
  <property name="meta.media.frame_rate_den">1</property>
  <property name="meta.media.colorspace">709</property>
  <property name="meta.media.color_trc">1</property>
  <property name="meta.media.width">1920</property>
  <property name="meta.media.height">1080</property>
  <property name="meta.media.top_field_first">0</property>
  <property name="meta.media.progressive">1</property>
  <filter id="filter214">
   <property name="version">0,2</property>
   <property name="mlt_service">frei0r.contrast0r</property>
   <property name="kdenlive_id">frei0r.contrast0r</property>
   <property name="tag">frei0r.contrast0r</property>
   <property name="kdenlive_ix">1</property>
   <property name="kdenlive_info"/>
   <property name="Contrast">0=0,55</property>
  </filter>
 </producer>
 <producer title="Anonymous Submission" id="43_playlist12" in="0" out="42317">
  <property name="length">00:14:06:18</property>
  <property name="eof">pause</property>
  <property name="resource">/media/bordun/plagiat2/2019-05-01_Plagiat_RespecteLaPuissancePapale_Lavare/CAM1_2019-01-05_0345_C0000.mov</property>
  <property name="audio_index">2</property>
  <property name="video_index">1</property>
  <property name="mute_on_pause">1</property>
  <property name="mlt_service">avformat-novalidate</property>
  <property name="seekable">1</property>
  <property name="aspect_ratio">1</property>
  <property name="kdenlive:folderid">16</property>
  <property name="kdenlive:file_size">39069915329</property>
  <property name="kdenlive:file_hash">73f4a81374204093f22cbe930d68c42b</property>
  <property name="global_feed">1</property>
  <property name="xml">was here</property>
  <property name="meta.media.nb_streams">3</property>
  <property name="meta.media.1.stream.type">video</property>
  <property name="meta.media.1.stream.frame_rate">50</property>
  <property name="meta.media.1.stream.sample_aspect_ratio">1</property>
  <property name="meta.media.1.codec.width">1920</property>
  <property name="meta.media.1.codec.height">1080</property>
  <property name="meta.media.1.codec.rotate">0</property>
  <property name="meta.media.1.codec.frame_rate">5000</property>
  <property name="meta.media.1.codec.pix_fmt">yuv422p10le</property>
  <property name="meta.media.1.codec.sample_aspect_ratio">0</property>
  <property name="meta.media.1.codec.colorspace">709</property>
  <property name="meta.media.1.codec.color_trc">1</property>
  <property name="meta.media.1.codec.name">prores</property>
  <property name="meta.media.1.codec.long_name">ProRes</property>
  <property name="meta.media.1.codec.bit_rate">366957403</property>
  <property name="meta.attr.1.stream.creation_time.markup">2019-01-05T03:45:37.000000Z</property>
  <property name="meta.attr.1.stream.language.markup">eng</property>
  <property name="meta.attr.1.stream.handler_name.markup">Apple Alias Data Handler</property>
  <property name="meta.attr.1.stream.encoder.markup">Apple ProRes 422 HQ</property>
  <property name="meta.attr.1.stream.timecode.markup">03:45:37:07</property>
  <property name="meta.media.2.stream.type">audio</property>
  <property name="meta.media.2.codec.sample_fmt">s32</property>
  <property name="meta.media.2.codec.sample_rate">48000</property>
  <property name="meta.media.2.codec.channels">2</property>
  <property name="meta.media.2.codec.name">pcm_s24le</property>
  <property name="meta.media.2.codec.long_name">PCM signed 24-bit little-endian</property>
  <property name="meta.media.2.codec.bit_rate">2304000</property>
  <property name="meta.attr.2.stream.creation_time.markup">2019-01-05T03:45:37.000000Z</property>
  <property name="meta.attr.2.stream.language.markup">eng</property>
  <property name="meta.attr.2.stream.handler_name.markup">Apple Alias Data Handler</property>
  <property name="meta.attr.2.stream.timecode.markup">03:45:37:07</property>
  <property name="meta.attr.com.apple.proapps.manufacturer.markup">Blackmagic Design</property>
  <property name="meta.attr.com.apple.proapps.cameraName.markup">CAM1</property>
  <property name="meta.attr.com.apple.proapps.isGood.markup">0</property>
  <property name="meta.attr.com.apple.proapps.customgamma.markup">com.blackmagic-design.cinemacamera.filmlog</property>
  <property name="meta.attr.com.blackmagic-design.cinemacamera.uuid.markup">18E5E00548F94923B646613A73C01B56</property>
  <property name="meta.attr.creation_time.markup">2019-01-05T03:45:37.000000Z</property>
  <property name="meta.attr.timecode.markup">03:45:37:07</property>
  <property name="meta.media.sample_aspect_num">1</property>
  <property name="meta.media.sample_aspect_den">1</property>
  <property name="meta.media.frame_rate_num">50</property>
  <property name="meta.media.frame_rate_den">1</property>
  <property name="meta.media.colorspace">709</property>
  <property name="meta.media.color_trc">1</property>
  <property name="meta.media.width">1920</property>
  <property name="meta.media.height">1080</property>
  <property name="meta.media.top_field_first">0</property>
  <property name="meta.media.progressive">1</property>
  <filter id="filter215">
   <property name="version">0,2</property>
   <property name="mlt_service">frei0r.contrast0r</property>
   <property name="kdenlive_id">frei0r.contrast0r</property>
   <property name="tag">frei0r.contrast0r</property>
   <property name="kdenlive_ix">1</property>
   <property name="kdenlive_info"/>
   <property name="Contrast">0=0,55</property>
  </filter>
 </producer>
 <producer title="Anonymous Submission" id="30_playlist12" in="0" out="43907">
  <property name="length">00:14:38:08</property>
  <property name="eof">pause</property>
  <property name="resource">/media/bordun/plagiat2/2019-05-01_Plagiat_RespecteLaPuissancePapale_Lavare/CAM1_2019-01-05_0407_C0000.mov</property>
  <property name="audio_index">2</property>
  <property name="video_index">1</property>
  <property name="mute_on_pause">1</property>
  <property name="mlt_service">avformat-novalidate</property>
  <property name="seekable">1</property>
  <property name="aspect_ratio">1</property>
  <property name="kdenlive:folderid">16</property>
  <property name="kdenlive:file_size">40537867713</property>
  <property name="kdenlive:file_hash">eeb49a6f6e2626b129e2046ec649a60c</property>
  <property name="global_feed">1</property>
  <property name="kdenlive:zone_in">19094</property>
  <property name="kdenlive:zone_out">19165</property>
  <property name="xml">was here</property>
  <property name="meta.media.nb_streams">3</property>
  <property name="meta.media.1.stream.type">video</property>
  <property name="meta.media.1.stream.frame_rate">50</property>
  <property name="meta.media.1.stream.sample_aspect_ratio">1</property>
  <property name="meta.media.1.codec.width">1920</property>
  <property name="meta.media.1.codec.height">1080</property>
  <property name="meta.media.1.codec.rotate">0</property>
  <property name="meta.media.1.codec.frame_rate">5000</property>
  <property name="meta.media.1.codec.pix_fmt">yuv422p10le</property>
  <property name="meta.media.1.codec.sample_aspect_ratio">0</property>
  <property name="meta.media.1.codec.colorspace">709</property>
  <property name="meta.media.1.codec.color_trc">1</property>
  <property name="meta.media.1.codec.name">prores</property>
  <property name="meta.media.1.codec.long_name">ProRes</property>
  <property name="meta.media.1.codec.bit_rate">366957037</property>
  <property name="meta.attr.1.stream.creation_time.markup">2019-01-05T04:07:04.000000Z</property>
  <property name="meta.attr.1.stream.language.markup">eng</property>
  <property name="meta.attr.1.stream.handler_name.markup">Apple Alias Data Handler</property>
  <property name="meta.attr.1.stream.encoder.markup">Apple ProRes 422 HQ</property>
  <property name="meta.attr.1.stream.timecode.markup">04:07:04:29</property>
  <property name="meta.media.2.stream.type">audio</property>
  <property name="meta.media.2.codec.sample_fmt">s32</property>
  <property name="meta.media.2.codec.sample_rate">48000</property>
  <property name="meta.media.2.codec.channels">2</property>
  <property name="meta.media.2.codec.name">pcm_s24le</property>
  <property name="meta.media.2.codec.long_name">PCM signed 24-bit little-endian</property>
  <property name="meta.media.2.codec.bit_rate">2304000</property>
  <property name="meta.attr.2.stream.creation_time.markup">2019-01-05T04:07:04.000000Z</property>
  <property name="meta.attr.2.stream.language.markup">eng</property>
  <property name="meta.attr.2.stream.handler_name.markup">Apple Alias Data Handler</property>
  <property name="meta.attr.2.stream.timecode.markup">04:07:04:29</property>
  <property name="meta.attr.com.apple.proapps.manufacturer.markup">Blackmagic Design</property>
  <property name="meta.attr.com.apple.proapps.cameraName.markup">CAM1</property>
  <property name="meta.attr.com.apple.proapps.isGood.markup">0</property>
  <property name="meta.attr.com.apple.proapps.customgamma.markup">com.blackmagic-design.cinemacamera.filmlog</property>
  <property name="meta.attr.com.blackmagic-design.cinemacamera.uuid.markup">18E5E00548F94923B646613A73C01B56</property>
  <property name="meta.attr.creation_time.markup">2019-01-05T04:07:04.000000Z</property>
  <property name="meta.attr.timecode.markup">04:07:04:29</property>
  <property name="meta.media.sample_aspect_num">1</property>
  <property name="meta.media.sample_aspect_den">1</property>
  <property name="meta.media.frame_rate_num">50</property>
  <property name="meta.media.frame_rate_den">1</property>
  <property name="meta.media.colorspace">709</property>
  <property name="meta.media.color_trc">1</property>
  <property name="meta.media.width">1920</property>
  <property name="meta.media.height">1080</property>
  <property name="meta.media.top_field_first">0</property>
  <property name="meta.media.progressive">1</property>
  <filter id="filter216">
   <property name="version">0,3</property>
   <property name="mlt_service">frei0r.levels</property>
   <property name="kdenlive_id">frei0r.levels</property>
   <property name="tag">frei0r.levels</property>
   <property name="kdenlive_ix">1</property>
   <property name="kdenlive_info"/>
   <property name="Channel">0,3</property>
   <property name="Input black level">0=0,04</property>
   <property name="Input white level">0=1</property>
   <property name="Gamma">0=0,25</property>
   <property name="Black output">0=0</property>
   <property name="White output">0=1</property>
   <property name="Show histogram">0</property>
   <property name="Histogram position">0,3</property>
  </filter>
  <filter id="filter217">
   <property name="version">0,3</property>
   <property name="mlt_service">frei0r.levels</property>
   <property name="kdenlive_id">frei0r.levels</property>
   <property name="tag">frei0r.levels</property>
   <property name="kdenlive_ix">2</property>
   <property name="kdenlive_info"/>
   <property name="Channel">0,3</property>
   <property name="Input black level">0=0</property>
   <property name="Input white level">0=1</property>
   <property name="Gamma">0=0,25</property>
   <property name="Black output">0=0</property>
   <property name="White output">0=1</property>
   <property name="Show histogram">0</property>
   <property name="Histogram position">0,3</property>
  </filter>
 </producer>
 <playlist id="playlist12">
  <property name="kdenlive:track_name">Video -2</property>
  <blank length="5215"/>
  <entry producer="slowmotion:30:0,5:1:0" in="27898" out="28067"/>
  <blank length="124"/>
  <entry producer="slowmotion:30:0,5:1:0" in="28062" out="28392"/>
  <blank length="410"/>
  <entry producer="slowmotion:43:0,5:1:0" in="33546" out="33665"/>
  <blank length="1125"/>
  <entry producer="43_playlist12" in="17751" out="17824">
   <filter id="filter218" in="17751" out="17824">
    <property name="background">colour:0x00000000</property>
    <property name="mlt_service">affine</property>
    <property name="kdenlive_id">pan_zoom</property>
    <property name="tag">affine</property>
    <property name="kdenlive_ix">1</property>
    <property name="transition.geometry">0/0:2880x1620:100</property>
    <property name="transition.distort">0</property>
    <property name="kdenlive:sync_in_out">1</property>
    <property name="kdenlive_info"/>
   </filter>
  </entry>
  <blank length="186"/>
  <entry producer="43_playlist12" in="17904" out="17930"/>
  <blank length="405"/>
  <entry producer="30_playlist12" in="19484" out="19571"/>
  <blank length="61"/>
  <entry producer="30_playlist12" in="19633" out="19822"/>
  <blank length="374"/>
  <entry producer="30_playlist12" in="20221" out="20243"/>
 </playlist>
 <producer id="slowmotion:43:0,6:1:0" in="0" out="70529">
  <property name="length">70530</property>
  <property name="eof">pause</property>
  <property name="resource">0,6:/media/bordun/plagiat2/2019-05-01_Plagiat_RespecteLaPuissancePapale_Lavare/CAM1_2019-01-05_0345_C0000.mov</property>
  <property name="aspect_ratio">1</property>
  <property name="meta.media.nb_streams">3</property>
  <property name="meta.media.1.stream.type">video</property>
  <property name="meta.media.1.stream.frame_rate">50</property>
  <property name="meta.media.1.stream.sample_aspect_ratio">1</property>
  <property name="meta.media.1.codec.width">1920</property>
  <property name="meta.media.1.codec.height">1080</property>
  <property name="meta.media.1.codec.rotate">0</property>
  <property name="meta.media.1.codec.frame_rate">5000</property>
  <property name="meta.media.1.codec.pix_fmt">yuv422p10le</property>
  <property name="meta.media.1.codec.sample_aspect_ratio">0</property>
  <property name="meta.media.1.codec.colorspace">709</property>
  <property name="meta.media.1.codec.color_trc">1</property>
  <property name="meta.media.1.codec.name">prores</property>
  <property name="meta.media.1.codec.long_name">ProRes</property>
  <property name="meta.media.1.codec.bit_rate">366957403</property>
  <property name="meta.attr.1.stream.creation_time.markup">2019-01-05T03:45:37.000000Z</property>
  <property name="meta.attr.1.stream.language.markup">eng</property>
  <property name="meta.attr.1.stream.handler_name.markup">Apple Alias Data Handler</property>
  <property name="meta.attr.1.stream.encoder.markup">Apple ProRes 422 HQ</property>
  <property name="meta.attr.1.stream.timecode.markup">03:45:37:07</property>
  <property name="meta.media.2.stream.type">audio</property>
  <property name="meta.media.2.codec.sample_fmt">s32</property>
  <property name="meta.media.2.codec.sample_rate">48000</property>
  <property name="meta.media.2.codec.channels">2</property>
  <property name="meta.media.2.codec.name">pcm_s24le</property>
  <property name="meta.media.2.codec.long_name">PCM signed 24-bit little-endian</property>
  <property name="meta.media.2.codec.bit_rate">2304000</property>
  <property name="meta.attr.2.stream.creation_time.markup">2019-01-05T03:45:37.000000Z</property>
  <property name="meta.attr.2.stream.language.markup">eng</property>
  <property name="meta.attr.2.stream.handler_name.markup">Apple Alias Data Handler</property>
  <property name="meta.attr.2.stream.timecode.markup">03:45:37:07</property>
  <property name="meta.attr.com.apple.proapps.manufacturer.markup">Blackmagic Design</property>
  <property name="meta.attr.com.apple.proapps.cameraName.markup">CAM1</property>
  <property name="meta.attr.com.apple.proapps.isGood.markup">0</property>
  <property name="meta.attr.com.apple.proapps.customgamma.markup">com.blackmagic-design.cinemacamera.filmlog</property>
  <property name="meta.attr.com.blackmagic-design.cinemacamera.uuid.markup">18E5E00548F94923B646613A73C01B56</property>
  <property name="meta.attr.creation_time.markup">2019-01-05T03:45:37.000000Z</property>
  <property name="meta.attr.timecode.markup">03:45:37:07</property>
  <property name="seekable">1</property>
  <property name="meta.media.sample_aspect_num">1</property>
  <property name="meta.media.sample_aspect_den">1</property>
  <property name="audio_index">2</property>
  <property name="video_index">1</property>
  <property name="mute_on_pause">1</property>
  <property name="warp_speed">0,6</property>
  <property name="warp_resource">/media/bordun/plagiat2/2019-05-01_Plagiat_RespecteLaPuissancePapale_Lavare/CAM1_2019-01-05_0345_C0000.mov</property>
  <property name="mlt_service">timewarp</property>
  <property name="meta.media.frame_rate_num">50</property>
  <property name="meta.media.frame_rate_den">1</property>
  <property name="meta.media.colorspace">709</property>
  <property name="meta.media.color_trc">1</property>
  <property name="meta.media.width">1920</property>
  <property name="meta.media.height">1080</property>
  <property name="meta.media.top_field_first">0</property>
  <property name="meta.media.progressive">1</property>
  <filter id="filter219">
   <property name="version">0,2</property>
   <property name="mlt_service">frei0r.contrast0r</property>
   <property name="kdenlive_id">frei0r.contrast0r</property>
   <property name="tag">frei0r.contrast0r</property>
   <property name="kdenlive_ix">1</property>
   <property name="kdenlive_info"/>
   <property name="Contrast">0=0,55</property>
  </filter>
 </producer>
 <producer title="Anonymous Submission" id="43_playlist13" in="0" out="42317">
  <property name="length">00:14:06:18</property>
  <property name="eof">pause</property>
  <property name="resource">/media/bordun/plagiat2/2019-05-01_Plagiat_RespecteLaPuissancePapale_Lavare/CAM1_2019-01-05_0345_C0000.mov</property>
  <property name="audio_index">2</property>
  <property name="video_index">1</property>
  <property name="mute_on_pause">1</property>
  <property name="mlt_service">avformat-novalidate</property>
  <property name="seekable">1</property>
  <property name="aspect_ratio">1</property>
  <property name="kdenlive:folderid">16</property>
  <property name="kdenlive:file_size">39069915329</property>
  <property name="kdenlive:file_hash">73f4a81374204093f22cbe930d68c42b</property>
  <property name="global_feed">1</property>
  <property name="xml">was here</property>
  <property name="meta.media.nb_streams">3</property>
  <property name="meta.media.1.stream.type">video</property>
  <property name="meta.media.1.stream.frame_rate">50</property>
  <property name="meta.media.1.stream.sample_aspect_ratio">1</property>
  <property name="meta.media.1.codec.width">1920</property>
  <property name="meta.media.1.codec.height">1080</property>
  <property name="meta.media.1.codec.rotate">0</property>
  <property name="meta.media.1.codec.frame_rate">5000</property>
  <property name="meta.media.1.codec.pix_fmt">yuv422p10le</property>
  <property name="meta.media.1.codec.sample_aspect_ratio">0</property>
  <property name="meta.media.1.codec.colorspace">709</property>
  <property name="meta.media.1.codec.color_trc">1</property>
  <property name="meta.media.1.codec.name">prores</property>
  <property name="meta.media.1.codec.long_name">ProRes</property>
  <property name="meta.media.1.codec.bit_rate">366957403</property>
  <property name="meta.attr.1.stream.creation_time.markup">2019-01-05T03:45:37.000000Z</property>
  <property name="meta.attr.1.stream.language.markup">eng</property>
  <property name="meta.attr.1.stream.handler_name.markup">Apple Alias Data Handler</property>
  <property name="meta.attr.1.stream.encoder.markup">Apple ProRes 422 HQ</property>
  <property name="meta.attr.1.stream.timecode.markup">03:45:37:07</property>
  <property name="meta.media.2.stream.type">audio</property>
  <property name="meta.media.2.codec.sample_fmt">s32</property>
  <property name="meta.media.2.codec.sample_rate">48000</property>
  <property name="meta.media.2.codec.channels">2</property>
  <property name="meta.media.2.codec.name">pcm_s24le</property>
  <property name="meta.media.2.codec.long_name">PCM signed 24-bit little-endian</property>
  <property name="meta.media.2.codec.bit_rate">2304000</property>
  <property name="meta.attr.2.stream.creation_time.markup">2019-01-05T03:45:37.000000Z</property>
  <property name="meta.attr.2.stream.language.markup">eng</property>
  <property name="meta.attr.2.stream.handler_name.markup">Apple Alias Data Handler</property>
  <property name="meta.attr.2.stream.timecode.markup">03:45:37:07</property>
  <property name="meta.attr.com.apple.proapps.manufacturer.markup">Blackmagic Design</property>
  <property name="meta.attr.com.apple.proapps.cameraName.markup">CAM1</property>
  <property name="meta.attr.com.apple.proapps.isGood.markup">0</property>
  <property name="meta.attr.com.apple.proapps.customgamma.markup">com.blackmagic-design.cinemacamera.filmlog</property>
  <property name="meta.attr.com.blackmagic-design.cinemacamera.uuid.markup">18E5E00548F94923B646613A73C01B56</property>
  <property name="meta.attr.creation_time.markup">2019-01-05T03:45:37.000000Z</property>
  <property name="meta.attr.timecode.markup">03:45:37:07</property>
  <property name="meta.media.sample_aspect_num">1</property>
  <property name="meta.media.sample_aspect_den">1</property>
  <property name="meta.media.frame_rate_num">50</property>
  <property name="meta.media.frame_rate_den">1</property>
  <property name="meta.media.colorspace">709</property>
  <property name="meta.media.color_trc">1</property>
  <property name="meta.media.width">1920</property>
  <property name="meta.media.height">1080</property>
  <property name="meta.media.top_field_first">0</property>
  <property name="meta.media.progressive">1</property>
  <filter id="filter220">
   <property name="version">0,2</property>
   <property name="mlt_service">frei0r.contrast0r</property>
   <property name="kdenlive_id">frei0r.contrast0r</property>
   <property name="tag">frei0r.contrast0r</property>
   <property name="kdenlive_ix">1</property>
   <property name="kdenlive_info"/>
   <property name="Contrast">0=0,55</property>
  </filter>
 </producer>
 <producer title="Anonymous Submission" id="41_playlist13" in="0" out="10702">
  <property name="length">00:03:34:03</property>
  <property name="eof">pause</property>
  <property name="resource">/media/bordun/plagiat2/2019-05-01_Plagiat_RespecteLaPuissancePapale_Lavare/CAM1_2019-01-05_0511_C0000.mov</property>
  <property name="audio_index">2</property>
  <property name="video_index">1</property>
  <property name="mute_on_pause">1</property>
  <property name="mlt_service">avformat-novalidate</property>
  <property name="seekable">1</property>
  <property name="aspect_ratio">1</property>
  <property name="kdenlive:folderid">16</property>
  <property name="kdenlive:file_size">9881509121</property>
  <property name="kdenlive:file_hash">377aa92a5fbef78369143e30739b498c</property>
  <property name="global_feed">1</property>
  <property name="xml">was here</property>
  <property name="meta.media.nb_streams">3</property>
  <property name="meta.media.1.stream.type">video</property>
  <property name="meta.media.1.stream.frame_rate">50</property>
  <property name="meta.media.1.stream.sample_aspect_ratio">1</property>
  <property name="meta.media.1.codec.width">1920</property>
  <property name="meta.media.1.codec.height">1080</property>
  <property name="meta.media.1.codec.rotate">0</property>
  <property name="meta.media.1.codec.frame_rate">5000</property>
  <property name="meta.media.1.codec.pix_fmt">yuv422p10le</property>
  <property name="meta.media.1.codec.sample_aspect_ratio">0</property>
  <property name="meta.media.1.codec.colorspace">709</property>
  <property name="meta.media.1.codec.color_trc">1</property>
  <property name="meta.media.1.codec.name">prores</property>
  <property name="meta.media.1.codec.long_name">ProRes</property>
  <property name="meta.media.1.codec.bit_rate">366958294</property>
  <property name="meta.attr.1.stream.creation_time.markup">2019-01-05T05:11:43.000000Z</property>
  <property name="meta.attr.1.stream.language.markup">eng</property>
  <property name="meta.attr.1.stream.handler_name.markup">Apple Alias Data Handler</property>
  <property name="meta.attr.1.stream.encoder.markup">Apple ProRes 422 HQ</property>
  <property name="meta.attr.1.stream.timecode.markup">05:11:43:16</property>
  <property name="meta.media.2.stream.type">audio</property>
  <property name="meta.media.2.codec.sample_fmt">s32</property>
  <property name="meta.media.2.codec.sample_rate">48000</property>
  <property name="meta.media.2.codec.channels">2</property>
  <property name="meta.media.2.codec.name">pcm_s24le</property>
  <property name="meta.media.2.codec.long_name">PCM signed 24-bit little-endian</property>
  <property name="meta.media.2.codec.bit_rate">2304000</property>
  <property name="meta.attr.2.stream.creation_time.markup">2019-01-05T05:11:43.000000Z</property>
  <property name="meta.attr.2.stream.language.markup">eng</property>
  <property name="meta.attr.2.stream.handler_name.markup">Apple Alias Data Handler</property>
  <property name="meta.attr.2.stream.timecode.markup">05:11:43:16</property>
  <property name="meta.attr.com.apple.proapps.manufacturer.markup">Blackmagic Design</property>
  <property name="meta.attr.com.apple.proapps.cameraName.markup">CAM1</property>
  <property name="meta.attr.com.apple.proapps.isGood.markup">0</property>
  <property name="meta.attr.com.apple.proapps.customgamma.markup">com.blackmagic-design.cinemacamera.filmlog</property>
  <property name="meta.attr.com.blackmagic-design.cinemacamera.uuid.markup">18E5E00548F94923B646613A73C01B56</property>
  <property name="meta.attr.creation_time.markup">2019-01-05T05:11:43.000000Z</property>
  <property name="meta.attr.timecode.markup">05:11:43:16</property>
  <property name="meta.media.sample_aspect_num">1</property>
  <property name="meta.media.sample_aspect_den">1</property>
  <property name="meta.media.frame_rate_num">50</property>
  <property name="meta.media.frame_rate_den">1</property>
  <property name="meta.media.colorspace">709</property>
  <property name="meta.media.color_trc">1</property>
  <property name="meta.media.width">1920</property>
  <property name="meta.media.height">1080</property>
  <property name="meta.media.top_field_first">0</property>
  <property name="meta.media.progressive">1</property>
  <filter id="filter196">
   <property name="version">0,2</property>
   <property name="mlt_service">frei0r.contrast0r</property>
   <property name="kdenlive_id">frei0r.contrast0r</property>
   <property name="tag">frei0r.contrast0r</property>
   <property name="kdenlive_ix">1</property>
   <property name="kdenlive_info"/>
   <property name="Contrast">0=0,55</property>
   <property name="disable">0</property>
  </filter>
  <filter id="filter197">
   <property name="version">0,3</property>
   <property name="mlt_service">frei0r.levels</property>
   <property name="kdenlive_id">frei0r.levels</property>
   <property name="tag">frei0r.levels</property>
   <property name="kdenlive_ix">2</property>
   <property name="kdenlive_info"/>
   <property name="Channel">0,3</property>
   <property name="Input black level">0=0</property>
   <property name="Input white level">0=1</property>
   <property name="Gamma">0=0,25</property>
   <property name="Black output">0=0</property>
   <property name="White output">0=1</property>
   <property name="Show histogram">0</property>
   <property name="Histogram position">0,3</property>
  </filter>
  <filter id="filter198">
   <property name="version">0,3</property>
   <property name="mlt_service">frei0r.levels</property>
   <property name="kdenlive_id">frei0r.levels</property>
   <property name="tag">frei0r.levels</property>
   <property name="kdenlive_ix">3</property>
   <property name="kdenlive_info"/>
   <property name="Channel">0,3</property>
   <property name="Input black level">0=0</property>
   <property name="Input white level">0=1</property>
   <property name="Gamma">0=0,25</property>
   <property name="Black output">0=0</property>
   <property name="White output">0=1</property>
   <property name="Show histogram">0</property>
   <property name="Histogram position">0,3</property>
  </filter>
 </producer>
 <producer title="Anonymous Submission" id="30_playlist13" in="0" out="43907">
  <property name="length">00:14:38:08</property>
  <property name="eof">pause</property>
  <property name="resource">/media/bordun/plagiat2/2019-05-01_Plagiat_RespecteLaPuissancePapale_Lavare/CAM1_2019-01-05_0407_C0000.mov</property>
  <property name="audio_index">2</property>
  <property name="video_index">1</property>
  <property name="mute_on_pause">1</property>
  <property name="mlt_service">avformat-novalidate</property>
  <property name="seekable">1</property>
  <property name="aspect_ratio">1</property>
  <property name="kdenlive:folderid">16</property>
  <property name="kdenlive:file_size">40537867713</property>
  <property name="kdenlive:file_hash">eeb49a6f6e2626b129e2046ec649a60c</property>
  <property name="global_feed">1</property>
  <property name="xml">was here</property>
  <property name="meta.media.nb_streams">3</property>
  <property name="meta.media.1.stream.type">video</property>
  <property name="meta.media.1.stream.frame_rate">50</property>
  <property name="meta.media.1.stream.sample_aspect_ratio">1</property>
  <property name="meta.media.1.codec.width">1920</property>
  <property name="meta.media.1.codec.height">1080</property>
  <property name="meta.media.1.codec.rotate">0</property>
  <property name="meta.media.1.codec.frame_rate">5000</property>
  <property name="meta.media.1.codec.pix_fmt">yuv422p10le</property>
  <property name="meta.media.1.codec.sample_aspect_ratio">0</property>
  <property name="meta.media.1.codec.colorspace">709</property>
  <property name="meta.media.1.codec.color_trc">1</property>
  <property name="meta.media.1.codec.name">prores</property>
  <property name="meta.media.1.codec.long_name">ProRes</property>
  <property name="meta.media.1.codec.bit_rate">366957037</property>
  <property name="meta.attr.1.stream.creation_time.markup">2019-01-05T04:07:04.000000Z</property>
  <property name="meta.attr.1.stream.language.markup">eng</property>
  <property name="meta.attr.1.stream.handler_name.markup">Apple Alias Data Handler</property>
  <property name="meta.attr.1.stream.encoder.markup">Apple ProRes 422 HQ</property>
  <property name="meta.attr.1.stream.timecode.markup">04:07:04:29</property>
  <property name="meta.media.2.stream.type">audio</property>
  <property name="meta.media.2.codec.sample_fmt">s32</property>
  <property name="meta.media.2.codec.sample_rate">48000</property>
  <property name="meta.media.2.codec.channels">2</property>
  <property name="meta.media.2.codec.name">pcm_s24le</property>
  <property name="meta.media.2.codec.long_name">PCM signed 24-bit little-endian</property>
  <property name="meta.media.2.codec.bit_rate">2304000</property>
  <property name="meta.attr.2.stream.creation_time.markup">2019-01-05T04:07:04.000000Z</property>
  <property name="meta.attr.2.stream.language.markup">eng</property>
  <property name="meta.attr.2.stream.handler_name.markup">Apple Alias Data Handler</property>
  <property name="meta.attr.2.stream.timecode.markup">04:07:04:29</property>
  <property name="meta.attr.com.apple.proapps.manufacturer.markup">Blackmagic Design</property>
  <property name="meta.attr.com.apple.proapps.cameraName.markup">CAM1</property>
  <property name="meta.attr.com.apple.proapps.isGood.markup">0</property>
  <property name="meta.attr.com.apple.proapps.customgamma.markup">com.blackmagic-design.cinemacamera.filmlog</property>
  <property name="meta.attr.com.blackmagic-design.cinemacamera.uuid.markup">18E5E00548F94923B646613A73C01B56</property>
  <property name="meta.attr.creation_time.markup">2019-01-05T04:07:04.000000Z</property>
  <property name="meta.attr.timecode.markup">04:07:04:29</property>
  <property name="meta.media.sample_aspect_num">1</property>
  <property name="meta.media.sample_aspect_den">1</property>
  <property name="meta.media.frame_rate_num">50</property>
  <property name="meta.media.frame_rate_den">1</property>
  <property name="meta.media.colorspace">709</property>
  <property name="meta.media.color_trc">1</property>
  <property name="meta.media.width">1920</property>
  <property name="meta.media.height">1080</property>
  <property name="meta.media.top_field_first">0</property>
  <property name="meta.media.progressive">1</property>
  <filter id="filter224">
   <property name="version">0,3</property>
   <property name="mlt_service">frei0r.levels</property>
   <property name="kdenlive_id">frei0r.levels</property>
   <property name="tag">frei0r.levels</property>
   <property name="kdenlive_ix">1</property>
   <property name="kdenlive_info"/>
   <property name="Channel">0,3</property>
   <property name="Input black level">0=0,04</property>
   <property name="Input white level">0=1</property>
   <property name="Gamma">0=0,25</property>
   <property name="Black output">0=0</property>
   <property name="White output">0=1</property>
   <property name="Show histogram">0</property>
   <property name="Histogram position">0,3</property>
  </filter>
  <filter id="filter225">
   <property name="version">0,3</property>
   <property name="mlt_service">frei0r.levels</property>
   <property name="kdenlive_id">frei0r.levels</property>
   <property name="tag">frei0r.levels</property>
   <property name="kdenlive_ix">2</property>
   <property name="kdenlive_info"/>
   <property name="Channel">0,3</property>
   <property name="Input black level">0=0</property>
   <property name="Input white level">0=1</property>
   <property name="Gamma">0=0,25</property>
   <property name="Black output">0=0</property>
   <property name="White output">0=1</property>
   <property name="Show histogram">0</property>
   <property name="Histogram position">0,3</property>
  </filter>
 </producer>
 <producer id="slowmotion:41:1,1:1:0" in="0" out="9729">
  <property name="length">9730</property>
  <property name="eof">pause</property>
  <property name="resource">1,1:/media/bordun/plagiat2/2019-05-01_Plagiat_RespecteLaPuissancePapale_Lavare/CAM1_2019-01-05_0511_C0000.mov</property>
  <property name="aspect_ratio">1</property>
  <property name="meta.media.nb_streams">3</property>
  <property name="meta.media.1.stream.type">video</property>
  <property name="meta.media.1.stream.frame_rate">50</property>
  <property name="meta.media.1.stream.sample_aspect_ratio">1</property>
  <property name="meta.media.1.codec.width">1920</property>
  <property name="meta.media.1.codec.height">1080</property>
  <property name="meta.media.1.codec.rotate">0</property>
  <property name="meta.media.1.codec.frame_rate">5000</property>
  <property name="meta.media.1.codec.pix_fmt">yuv422p10le</property>
  <property name="meta.media.1.codec.sample_aspect_ratio">0</property>
  <property name="meta.media.1.codec.colorspace">709</property>
  <property name="meta.media.1.codec.color_trc">1</property>
  <property name="meta.media.1.codec.name">prores</property>
  <property name="meta.media.1.codec.long_name">ProRes</property>
  <property name="meta.media.1.codec.bit_rate">366958294</property>
  <property name="meta.attr.1.stream.creation_time.markup">2019-01-05T05:11:43.000000Z</property>
  <property name="meta.attr.1.stream.language.markup">eng</property>
  <property name="meta.attr.1.stream.handler_name.markup">Apple Alias Data Handler</property>
  <property name="meta.attr.1.stream.encoder.markup">Apple ProRes 422 HQ</property>
  <property name="meta.attr.1.stream.timecode.markup">05:11:43:16</property>
  <property name="meta.media.2.stream.type">audio</property>
  <property name="meta.media.2.codec.sample_fmt">s32</property>
  <property name="meta.media.2.codec.sample_rate">48000</property>
  <property name="meta.media.2.codec.channels">2</property>
  <property name="meta.media.2.codec.name">pcm_s24le</property>
  <property name="meta.media.2.codec.long_name">PCM signed 24-bit little-endian</property>
  <property name="meta.media.2.codec.bit_rate">2304000</property>
  <property name="meta.attr.2.stream.creation_time.markup">2019-01-05T05:11:43.000000Z</property>
  <property name="meta.attr.2.stream.language.markup">eng</property>
  <property name="meta.attr.2.stream.handler_name.markup">Apple Alias Data Handler</property>
  <property name="meta.attr.2.stream.timecode.markup">05:11:43:16</property>
  <property name="meta.attr.com.apple.proapps.manufacturer.markup">Blackmagic Design</property>
  <property name="meta.attr.com.apple.proapps.cameraName.markup">CAM1</property>
  <property name="meta.attr.com.apple.proapps.isGood.markup">0</property>
  <property name="meta.attr.com.apple.proapps.customgamma.markup">com.blackmagic-design.cinemacamera.filmlog</property>
  <property name="meta.attr.com.blackmagic-design.cinemacamera.uuid.markup">18E5E00548F94923B646613A73C01B56</property>
  <property name="meta.attr.creation_time.markup">2019-01-05T05:11:43.000000Z</property>
  <property name="meta.attr.timecode.markup">05:11:43:16</property>
  <property name="seekable">1</property>
  <property name="meta.media.sample_aspect_num">1</property>
  <property name="meta.media.sample_aspect_den">1</property>
  <property name="audio_index">2</property>
  <property name="video_index">1</property>
  <property name="mute_on_pause">1</property>
  <property name="warp_speed">1,1</property>
  <property name="warp_resource">/media/bordun/plagiat2/2019-05-01_Plagiat_RespecteLaPuissancePapale_Lavare/CAM1_2019-01-05_0511_C0000.mov</property>
  <property name="mlt_service">timewarp</property>
  <property name="meta.media.frame_rate_num">50</property>
  <property name="meta.media.frame_rate_den">1</property>
  <property name="meta.media.colorspace">709</property>
  <property name="meta.media.color_trc">1</property>
  <property name="meta.media.width">1920</property>
  <property name="meta.media.height">1080</property>
  <property name="meta.media.top_field_first">0</property>
  <property name="meta.media.progressive">1</property>
  <filter id="filter203">
   <property name="version">0,2</property>
   <property name="mlt_service">frei0r.contrast0r</property>
   <property name="kdenlive_id">frei0r.contrast0r</property>
   <property name="tag">frei0r.contrast0r</property>
   <property name="kdenlive_ix">1</property>
   <property name="kdenlive_info"/>
   <property name="Contrast">0=0,55</property>
   <property name="disable">0</property>
  </filter>
  <filter id="filter204">
   <property name="version">0,3</property>
   <property name="mlt_service">frei0r.levels</property>
   <property name="kdenlive_id">frei0r.levels</property>
   <property name="tag">frei0r.levels</property>
   <property name="kdenlive_ix">2</property>
   <property name="kdenlive_info"/>
   <property name="Channel">0,3</property>
   <property name="Input black level">0=0</property>
   <property name="Input white level">0=1</property>
   <property name="Gamma">0=0,25</property>
   <property name="Black output">0=0</property>
   <property name="White output">0=1</property>
   <property name="Show histogram">0</property>
   <property name="Histogram position">0,3</property>
  </filter>
  <filter id="filter205">
   <property name="version">0,3</property>
   <property name="mlt_service">frei0r.levels</property>
   <property name="kdenlive_id">frei0r.levels</property>
   <property name="tag">frei0r.levels</property>
   <property name="kdenlive_ix">3</property>
   <property name="kdenlive_info"/>
   <property name="Channel">0,3</property>
   <property name="Input black level">0=0</property>
   <property name="Input white level">0=1</property>
   <property name="Gamma">0=0,25</property>
   <property name="Black output">0=0</property>
   <property name="White output">0=1</property>
   <property name="Show histogram">0</property>
   <property name="Histogram position">0,3</property>
  </filter>
 </producer>
 <playlist id="playlist13">
  <property name="kdenlive:track_name">Video -3</property>
  <property name="kdenlive:locked_track">0</property>
  <blank length="1116"/>
  <entry producer="slowmotion:30:0,5:1:0" in="23980" out="24380"/>
  <blank length="275"/>
  <entry producer="slowmotion:30:0,5:1:0" in="24444" out="24555"/>
  <entry producer="slowmotion:43:0,5:1:0" in="46052" out="46131"/>
  <blank length="285"/>
  <entry producer="slowmotion:30:0,5:1:0" in="24611" out="24920"/>
  <blank length="283"/>
  <entry producer="slowmotion:30:0,5:1:0" in="25195" out="25442"/>
  <blank length="1099"/>
  <entry producer="slowmotion:30:0,5:1:0" in="26468" out="26773"/>
  <blank length="791"/>
  <entry producer="slowmotion:30:0,5:1:0" in="27789" out="28005"/>
  <blank length="970"/>
  <entry producer="slowmotion:43:0,6:1:0" in="28377" out="28450"/>
  <blank length="130"/>
  <entry producer="43_playlist13" in="17514" out="17592"/>
  <blank length="785"/>
  <entry producer="41_playlist13" in="2755" out="2844"/>
  <blank length="131"/>
  <entry producer="30_playlist13" in="19095" out="19166"/>
  <blank length="142"/>
  <entry producer="41_playlist13" in="3237" out="3275">
   <filter id="filter226" in="3237" out="3275">
    <property name="background">colour:0x00000000</property>
    <property name="mlt_service">affine</property>
    <property name="kdenlive_id">pan_zoom</property>
    <property name="tag">affine</property>
    <property name="kdenlive_ix">1</property>
    <property name="transition.geometry">-88/-149:2304x1296:100</property>
    <property name="transition.distort">0</property>
    <property name="kdenlive:sync_in_out">1</property>
    <property name="kdenlive_info"/>
    <property name="disable">1</property>
   </filter>
  </entry>
  <entry producer="41_playlist13" in="3276" out="3309"/>
  <blank length="137"/>
  <entry producer="41_playlist13" in="3449" out="3480"/>
  <blank length="422"/>
  <entry producer="41_playlist13" in="3901" out="3969"/>
  <blank length="89"/>
  <entry producer="41_playlist13" in="4059" out="4140"/>
  <blank length="72"/>
  <entry producer="41_playlist13" in="4213" out="4320"/>
  <blank length="147"/>
  <entry producer="41_playlist13" in="4468" out="4500"/>
  <blank length="20"/>
  <entry producer="41_playlist13" in="4521" out="4633"/>
  <blank length="59"/>
  <entry producer="41_playlist13" in="4693" out="4723"/>
  <entry producer="slowmotion:41:1,1:1:0" in="4294" out="4316"/>
  <entry producer="41_playlist13" in="4750" out="4782"/>
  <blank length="32"/>
  <entry producer="41_playlist13" in="4812" out="4846"/>
  <blank length="108"/>
  <entry producer="41_playlist13" in="4959" out="5308"/>
  <blank length="105"/>
  <entry producer="41_playlist13" in="5409" out="5540"/>
  <blank length="139"/>
  <entry producer="41_playlist13" in="5706" out="5816"/>
  <blank length="36"/>
  <entry producer="41_playlist13" in="5824" out="5975"/>
  <blank length="168"/>
  <entry producer="41_playlist13" in="6181" out="6579"/>
  <blank length="321"/>
  <entry producer="41_playlist13" in="6901" out="6931"/>
  <entry producer="41_playlist13" in="6932" out="6953">
   <filter id="filter227" in="6932" out="6953">
    <property name="background">colour:0x00000000</property>
    <property name="mlt_service">affine</property>
    <property name="kdenlive_id">pan_zoom</property>
    <property name="tag">affine</property>
    <property name="kdenlive_ix">1</property>
    <property name="transition.geometry">0/-162:2496x1404:100</property>
    <property name="transition.distort">0</property>
    <property name="kdenlive:sync_in_out">1</property>
    <property name="kdenlive_info"/>
   </filter>
  </entry>
  <blank length="313"/>
  <entry producer="41_playlist13" in="7267" out="7321">
   <filter id="filter228" in="7267" out="7321">
    <property name="background">colour:0x00000000</property>
    <property name="mlt_service">affine</property>
    <property name="kdenlive_id">pan_zoom</property>
    <property name="tag">affine</property>
    <property name="kdenlive_ix">1</property>
    <property name="transition.geometry">0=-94/-17:2112x1188:100;5=-199/-6:2304x1296:100;54=-297/-65:2496x1404:100</property>
    <property name="transition.distort">0</property>
    <property name="kdenlive:sync_in_out">1</property>
    <property name="kdenlive_info"/>
   </filter>
  </entry>
  <blank length="695"/>
  <entry producer="41_playlist13" in="7985" out="8092">
   <filter id="filter229" in="7985" out="8092">
    <property name="background">colour:0x00000000</property>
    <property name="mlt_service">affine</property>
    <property name="kdenlive_id">pan_zoom</property>
    <property name="tag">affine</property>
    <property name="kdenlive_ix">1</property>
    <property name="transition.geometry">0=-280/-8:3648x2052:100;80=-700/-77:4800x2700:100</property>
    <property name="transition.distort">0</property>
    <property name="kdenlive:sync_in_out">1</property>
    <property name="kdenlive_info"/>
    <property name="disable"/>
   </filter>
  </entry>
  <blank length="260"/>
  <entry producer="41_playlist13" in="8403" out="8523">
   <filter id="filter230" in="8403" out="8523">
    <property name="background">colour:0x00000000</property>
    <property name="mlt_service">affine</property>
    <property name="kdenlive_id">pan_zoom</property>
    <property name="tag">affine</property>
    <property name="kdenlive_ix">1</property>
    <property name="transition.geometry">-255/-2:2688x1512:100</property>
    <property name="transition.distort">0</property>
    <property name="kdenlive:sync_in_out">1</property>
    <property name="kdenlive_info"/>
   </filter>
  </entry>
  <entry producer="41_playlist13" in="8524" out="8571">
   <filter id="filter231" in="8524" out="8571">
    <property name="background">colour:0x00000000</property>
    <property name="mlt_service">affine</property>
    <property name="kdenlive_id">pan_zoom</property>
    <property name="tag">affine</property>
    <property name="kdenlive_ix">1</property>
    <property name="transition.geometry">0=-1141/-517:3456x1944:100;47=-1324/-622:3840x2160:100</property>
    <property name="transition.distort">0</property>
    <property name="kdenlive:sync_in_out">1</property>
    <property name="kdenlive_info"/>
   </filter>
  </entry>
  <blank length="306"/>
  <entry producer="41_playlist13" in="9131" out="9292"/>
  <entry producer="41_playlist13" in="9293" out="9341"/>
 </playlist>
 <producer title="Anonymous Submission" id="40_playlist14" in="0" out="9289">
  <property name="length">00:03:05:40</property>
  <property name="eof">pause</property>
  <property name="resource">/media/bordun/plagiat2/2019-05-01_Plagiat_RespecteLaPuissancePapale_Lavare/CAM1_2019-01-05_0517_C0001.mov</property>
  <property name="audio_index">2</property>
  <property name="video_index">1</property>
  <property name="mute_on_pause">1</property>
  <property name="mlt_service">avformat-novalidate</property>
  <property name="seekable">1</property>
  <property name="aspect_ratio">1</property>
  <property name="kdenlive:folderid">16</property>
  <property name="kdenlive:file_size">8576956441</property>
  <property name="kdenlive:file_hash">c2f5e810e9e7275dd3088498b60f8e5f</property>
  <property name="global_feed">1</property>
  <property name="kdenlive:zone_in">6088</property>
  <property name="kdenlive:zone_out">6158</property>
  <property name="xml">was here</property>
  <property name="meta.media.nb_streams">3</property>
  <property name="meta.media.1.stream.type">video</property>
  <property name="meta.media.1.stream.frame_rate">50</property>
  <property name="meta.media.1.stream.sample_aspect_ratio">1</property>
  <property name="meta.media.1.codec.width">1920</property>
  <property name="meta.media.1.codec.height">1080</property>
  <property name="meta.media.1.codec.rotate">0</property>
  <property name="meta.media.1.codec.frame_rate">5000</property>
  <property name="meta.media.1.codec.pix_fmt">yuv422p10le</property>
  <property name="meta.media.1.codec.sample_aspect_ratio">0</property>
  <property name="meta.media.1.codec.colorspace">709</property>
  <property name="meta.media.1.codec.color_trc">1</property>
  <property name="meta.media.1.codec.name">prores</property>
  <property name="meta.media.1.codec.long_name">ProRes</property>
  <property name="meta.media.1.codec.bit_rate">366957016</property>
  <property name="meta.attr.1.stream.creation_time.markup">2019-01-05T05:17:29.000000Z</property>
  <property name="meta.attr.1.stream.language.markup">eng</property>
  <property name="meta.attr.1.stream.handler_name.markup">Apple Alias Data Handler</property>
  <property name="meta.attr.1.stream.encoder.markup">Apple ProRes 422 HQ</property>
  <property name="meta.attr.1.stream.timecode.markup">05:17:29:25</property>
  <property name="meta.media.2.stream.type">audio</property>
  <property name="meta.media.2.codec.sample_fmt">s32</property>
  <property name="meta.media.2.codec.sample_rate">48000</property>
  <property name="meta.media.2.codec.channels">2</property>
  <property name="meta.media.2.codec.name">pcm_s24le</property>
  <property name="meta.media.2.codec.long_name">PCM signed 24-bit little-endian</property>
  <property name="meta.media.2.codec.bit_rate">2304000</property>
  <property name="meta.attr.2.stream.creation_time.markup">2019-01-05T05:17:29.000000Z</property>
  <property name="meta.attr.2.stream.language.markup">eng</property>
  <property name="meta.attr.2.stream.handler_name.markup">Apple Alias Data Handler</property>
  <property name="meta.attr.2.stream.timecode.markup">05:17:29:25</property>
  <property name="meta.attr.com.apple.proapps.manufacturer.markup">Blackmagic Design</property>
  <property name="meta.attr.com.apple.proapps.cameraName.markup">CAM1</property>
  <property name="meta.attr.com.apple.proapps.isGood.markup">0</property>
  <property name="meta.attr.com.apple.proapps.customgamma.markup">com.blackmagic-design.cinemacamera.filmlog</property>
  <property name="meta.attr.com.blackmagic-design.cinemacamera.uuid.markup">18E5E00548F94923B646613A73C01B56</property>
  <property name="meta.attr.creation_time.markup">2019-01-05T05:17:29.000000Z</property>
  <property name="meta.attr.timecode.markup">05:17:29:25</property>
  <property name="meta.media.sample_aspect_num">1</property>
  <property name="meta.media.sample_aspect_den">1</property>
  <property name="meta.media.frame_rate_num">50</property>
  <property name="meta.media.frame_rate_den">1</property>
  <property name="meta.media.colorspace">709</property>
  <property name="meta.media.color_trc">1</property>
  <property name="meta.media.width">1920</property>
  <property name="meta.media.height">1080</property>
  <property name="meta.media.top_field_first">0</property>
  <property name="meta.media.progressive">1</property>
  <filter id="filter232">
   <property name="version">0,2</property>
   <property name="mlt_service">frei0r.contrast0r</property>
   <property name="kdenlive_id">frei0r.contrast0r</property>
   <property name="tag">frei0r.contrast0r</property>
   <property name="kdenlive_ix">1</property>
   <property name="kdenlive_info"/>
   <property name="Contrast">0=0,55</property>
   <property name="disable">0</property>
  </filter>
 </producer>
 <producer id="slowmotion:40:0,82:1:0" in="0" out="11328">
  <property name="length">11329</property>
  <property name="eof">pause</property>
  <property name="resource">0,82:/media/bordun/plagiat2/2019-05-01_Plagiat_RespecteLaPuissancePapale_Lavare/CAM1_2019-01-05_0517_C0001.mov</property>
  <property name="aspect_ratio">1</property>
  <property name="meta.media.nb_streams">3</property>
  <property name="meta.media.1.stream.type">video</property>
  <property name="meta.media.1.stream.frame_rate">50</property>
  <property name="meta.media.1.stream.sample_aspect_ratio">1</property>
  <property name="meta.media.1.codec.width">1920</property>
  <property name="meta.media.1.codec.height">1080</property>
  <property name="meta.media.1.codec.rotate">0</property>
  <property name="meta.media.1.codec.frame_rate">5000</property>
  <property name="meta.media.1.codec.pix_fmt">yuv422p10le</property>
  <property name="meta.media.1.codec.sample_aspect_ratio">0</property>
  <property name="meta.media.1.codec.colorspace">709</property>
  <property name="meta.media.1.codec.color_trc">1</property>
  <property name="meta.media.1.codec.name">prores</property>
  <property name="meta.media.1.codec.long_name">ProRes</property>
  <property name="meta.media.1.codec.bit_rate">366957016</property>
  <property name="meta.attr.1.stream.creation_time.markup">2019-01-05T05:17:29.000000Z</property>
  <property name="meta.attr.1.stream.language.markup">eng</property>
  <property name="meta.attr.1.stream.handler_name.markup">Apple Alias Data Handler</property>
  <property name="meta.attr.1.stream.encoder.markup">Apple ProRes 422 HQ</property>
  <property name="meta.attr.1.stream.timecode.markup">05:17:29:25</property>
  <property name="meta.media.2.stream.type">audio</property>
  <property name="meta.media.2.codec.sample_fmt">s32</property>
  <property name="meta.media.2.codec.sample_rate">48000</property>
  <property name="meta.media.2.codec.channels">2</property>
  <property name="meta.media.2.codec.name">pcm_s24le</property>
  <property name="meta.media.2.codec.long_name">PCM signed 24-bit little-endian</property>
  <property name="meta.media.2.codec.bit_rate">2304000</property>
  <property name="meta.attr.2.stream.creation_time.markup">2019-01-05T05:17:29.000000Z</property>
  <property name="meta.attr.2.stream.language.markup">eng</property>
  <property name="meta.attr.2.stream.handler_name.markup">Apple Alias Data Handler</property>
  <property name="meta.attr.2.stream.timecode.markup">05:17:29:25</property>
  <property name="meta.attr.com.apple.proapps.manufacturer.markup">Blackmagic Design</property>
  <property name="meta.attr.com.apple.proapps.cameraName.markup">CAM1</property>
  <property name="meta.attr.com.apple.proapps.isGood.markup">0</property>
  <property name="meta.attr.com.apple.proapps.customgamma.markup">com.blackmagic-design.cinemacamera.filmlog</property>
  <property name="meta.attr.com.blackmagic-design.cinemacamera.uuid.markup">18E5E00548F94923B646613A73C01B56</property>
  <property name="meta.attr.creation_time.markup">2019-01-05T05:17:29.000000Z</property>
  <property name="meta.attr.timecode.markup">05:17:29:25</property>
  <property name="seekable">1</property>
  <property name="meta.media.sample_aspect_num">1</property>
  <property name="meta.media.sample_aspect_den">1</property>
  <property name="audio_index">2</property>
  <property name="video_index">1</property>
  <property name="mute_on_pause">1</property>
  <property name="warp_speed">0,82</property>
  <property name="warp_resource">/media/bordun/plagiat2/2019-05-01_Plagiat_RespecteLaPuissancePapale_Lavare/CAM1_2019-01-05_0517_C0001.mov</property>
  <property name="mlt_service">timewarp</property>
  <property name="meta.media.frame_rate_num">50</property>
  <property name="meta.media.frame_rate_den">1</property>
  <property name="meta.media.colorspace">709</property>
  <property name="meta.media.color_trc">1</property>
  <property name="meta.media.width">1920</property>
  <property name="meta.media.height">1080</property>
  <property name="meta.media.top_field_first">0</property>
  <property name="meta.media.progressive">1</property>
  <filter id="filter233">
   <property name="version">0,2</property>
   <property name="mlt_service">frei0r.contrast0r</property>
   <property name="kdenlive_id">frei0r.contrast0r</property>
   <property name="tag">frei0r.contrast0r</property>
   <property name="kdenlive_ix">1</property>
   <property name="kdenlive_info"/>
   <property name="Contrast">0=0,55</property>
   <property name="disable">0</property>
  </filter>
 </producer>
 <playlist id="playlist14">
  <property name="kdenlive:track_name">Video -4</property>
  <blank length="3573"/>
  <entry producer="slowmotion:43:0,5:1:0" in="48154" out="48333"/>
  <entry producer="slowmotion:43:0,5:1:0" in="48639" out="48828"/>
  <blank length="741"/>
  <entry producer="slowmotion:30:0,5:1:0" in="26774" out="27395"/>
  <blank length="2345"/>
  <entry producer="40_playlist14" in="1071" out="1174"/>
  <blank length="559"/>
  <entry producer="40_playlist14" in="1734" out="1895"/>
  <blank length="138"/>
  <entry producer="40_playlist14" in="2034" out="2121"/>
  <blank length="160"/>
  <entry producer="40_playlist14" in="2282" out="2319"/>
  <blank length="93"/>
  <entry producer="40_playlist14" in="2413" out="2511"/>
  <blank length="569"/>
  <entry producer="40_playlist14" in="3076" out="3203"/>
  <blank length="712"/>
  <entry producer="40_playlist14" in="3916" out="4015"/>
  <blank length="68"/>
  <entry producer="40_playlist14" in="4084" out="4153"/>
  <blank length="128"/>
  <entry producer="40_playlist14" in="4299" out="4652"/>
  <blank length="659"/>
  <entry producer="slowmotion:40:0,82:1:0" in="6467" out="6514"/>
  <blank length="269"/>
  <entry producer="40_playlist14" in="5612" out="5693"/>
  <blank length="88"/>
  <entry producer="40_playlist14" in="5755" out="5787"/>
  <entry producer="40_playlist14" in="5788" out="5902">
   <filter id="filter234" in="5788" out="5902">
    <property name="background">colour:0x00000000</property>
    <property name="mlt_service">affine</property>
    <property name="kdenlive_id">pan_zoom</property>
    <property name="tag">affine</property>
    <property name="kdenlive_ix">1</property>
    <property name="transition.geometry">0=-192/-108:2304x1296:100;156=0/0:1920x1080:100</property>
    <property name="transition.distort">0</property>
    <property name="kdenlive:sync_in_out">1</property>
    <property name="kdenlive_info"/>
   </filter>
  </entry>
  <blank length="42"/>
  <entry producer="40_playlist14" in="5945" out="5978">
   <filter id="filter235">
    <property name="background">colour:0x00000000</property>
    <property name="mlt_service">affine</property>
    <property name="kdenlive_id">pan_zoom</property>
    <property name="tag">affine</property>
    <property name="kdenlive_ix">1</property>
    <property name="kdenlive_info"/>
    <property name="disable"/>
    <property name="transition.geometry">0/0:2304x1296:100</property>
    <property name="transition.distort">0</property>
   </filter>
  </entry>
  <blank length="274"/>
  <entry producer="40_playlist14" in="6270" out="6346"/>
  <blank length="203"/>
  <entry producer="40_playlist14" in="6560" out="6646"/>
  <blank length="126"/>
  <entry producer="40_playlist14" in="6773" out="6888"/>
  <blank length="148"/>
  <entry producer="40_playlist14" in="7037" out="7095"/>
 </playlist>
 <producer title="Anonymous Submission" id="producer7" in="0" out="11268">
  <property name="length">00:03:45:19</property>
  <property name="eof">pause</property>
  <property name="resource">/media/bordun/plagiat2/2019-05-01_Plagiat_RespecteLaPuissancePapale_Lavare/CAM1_2019-01-05_0525_C0002.mov</property>
  <property name="audio_index">-1</property>
  <property name="video_index">-1</property>
  <property name="mute_on_pause">1</property>
  <property name="mlt_service">avformat-novalidate</property>
  <property name="seekable">1</property>
  <property name="aspect_ratio">1</property>
  <property name="kdenlive:folderid">16</property>
  <property name="kdenlive:file_size">10404105561</property>
  <property name="kdenlive:file_hash">2bc47b71e880be9b41ab5c0f2f63d573</property>
  <property name="global_feed">1</property>
  <property name="xml">was here</property>
  <property name="kdenlive:binid">42</property>
  <property name="kdenlive:clipstate">0</property>
 </producer>
 <producer id="slowmotion:40:0,8:1:0" in="0" out="11611">
  <property name="length">11612</property>
  <property name="eof">pause</property>
  <property name="resource">0,8:/media/bordun/plagiat2/2019-05-01_Plagiat_RespecteLaPuissancePapale_Lavare/CAM1_2019-01-05_0517_C0001.mov</property>
  <property name="aspect_ratio">1</property>
  <property name="meta.media.nb_streams">3</property>
  <property name="meta.media.1.stream.type">video</property>
  <property name="meta.media.1.stream.frame_rate">50</property>
  <property name="meta.media.1.stream.sample_aspect_ratio">1</property>
  <property name="meta.media.1.codec.width">1920</property>
  <property name="meta.media.1.codec.height">1080</property>
  <property name="meta.media.1.codec.rotate">0</property>
  <property name="meta.media.1.codec.frame_rate">5000</property>
  <property name="meta.media.1.codec.pix_fmt">yuv422p10le</property>
  <property name="meta.media.1.codec.sample_aspect_ratio">0</property>
  <property name="meta.media.1.codec.colorspace">709</property>
  <property name="meta.media.1.codec.color_trc">1</property>
  <property name="meta.media.1.codec.name">prores</property>
  <property name="meta.media.1.codec.long_name">ProRes</property>
  <property name="meta.media.1.codec.bit_rate">366957016</property>
  <property name="meta.attr.1.stream.creation_time.markup">2019-01-05T05:17:29.000000Z</property>
  <property name="meta.attr.1.stream.language.markup">eng</property>
  <property name="meta.attr.1.stream.handler_name.markup">Apple Alias Data Handler</property>
  <property name="meta.attr.1.stream.encoder.markup">Apple ProRes 422 HQ</property>
  <property name="meta.attr.1.stream.timecode.markup">05:17:29:25</property>
  <property name="meta.media.2.stream.type">audio</property>
  <property name="meta.media.2.codec.sample_fmt">s32</property>
  <property name="meta.media.2.codec.sample_rate">48000</property>
  <property name="meta.media.2.codec.channels">2</property>
  <property name="meta.media.2.codec.name">pcm_s24le</property>
  <property name="meta.media.2.codec.long_name">PCM signed 24-bit little-endian</property>
  <property name="meta.media.2.codec.bit_rate">2304000</property>
  <property name="meta.attr.2.stream.creation_time.markup">2019-01-05T05:17:29.000000Z</property>
  <property name="meta.attr.2.stream.language.markup">eng</property>
  <property name="meta.attr.2.stream.handler_name.markup">Apple Alias Data Handler</property>
  <property name="meta.attr.2.stream.timecode.markup">05:17:29:25</property>
  <property name="meta.attr.com.apple.proapps.manufacturer.markup">Blackmagic Design</property>
  <property name="meta.attr.com.apple.proapps.cameraName.markup">CAM1</property>
  <property name="meta.attr.com.apple.proapps.isGood.markup">0</property>
  <property name="meta.attr.com.apple.proapps.customgamma.markup">com.blackmagic-design.cinemacamera.filmlog</property>
  <property name="meta.attr.com.blackmagic-design.cinemacamera.uuid.markup">18E5E00548F94923B646613A73C01B56</property>
  <property name="meta.attr.creation_time.markup">2019-01-05T05:17:29.000000Z</property>
  <property name="meta.attr.timecode.markup">05:17:29:25</property>
  <property name="seekable">1</property>
  <property name="meta.media.sample_aspect_num">1</property>
  <property name="meta.media.sample_aspect_den">1</property>
  <property name="audio_index">2</property>
  <property name="video_index">1</property>
  <property name="mute_on_pause">1</property>
  <property name="warp_speed">0,8</property>
  <property name="warp_resource">/media/bordun/plagiat2/2019-05-01_Plagiat_RespecteLaPuissancePapale_Lavare/CAM1_2019-01-05_0517_C0001.mov</property>
  <property name="mlt_service">timewarp</property>
  <property name="meta.media.frame_rate_num">50</property>
  <property name="meta.media.frame_rate_den">1</property>
  <property name="meta.media.colorspace">709</property>
  <property name="meta.media.color_trc">1</property>
  <property name="meta.media.width">1920</property>
  <property name="meta.media.height">1080</property>
  <property name="meta.media.top_field_first">0</property>
  <property name="meta.media.progressive">1</property>
  <filter id="filter236">
   <property name="version">0,2</property>
   <property name="mlt_service">frei0r.contrast0r</property>
   <property name="kdenlive_id">frei0r.contrast0r</property>
   <property name="tag">frei0r.contrast0r</property>
   <property name="kdenlive_ix">1</property>
   <property name="kdenlive_info"/>
   <property name="Contrast">0=0,55</property>
   <property name="disable">0</property>
  </filter>
 </producer>
 <producer title="Anonymous Submission" id="producer8" in="0" out="9289">
  <property name="length">00:03:05:40</property>
  <property name="eof">pause</property>
  <property name="resource">/media/bordun/plagiat2/2019-05-01_Plagiat_RespecteLaPuissancePapale_Lavare/CAM1_2019-01-05_0517_C0001.mov</property>
  <property name="audio_index">-1</property>
  <property name="video_index">-1</property>
  <property name="mute_on_pause">1</property>
  <property name="mlt_service">avformat-novalidate</property>
  <property name="seekable">1</property>
  <property name="aspect_ratio">1</property>
  <property name="kdenlive:folderid">16</property>
  <property name="kdenlive:file_size">8576956441</property>
  <property name="kdenlive:file_hash">c2f5e810e9e7275dd3088498b60f8e5f</property>
  <property name="global_feed">1</property>
  <property name="kdenlive:zone_in">6088</property>
  <property name="kdenlive:zone_out">6158</property>
  <property name="xml">was here</property>
  <property name="kdenlive:binid">40</property>
  <property name="kdenlive:clipstate">0</property>
 </producer>
 <producer title="Anonymous Submission" id="30_playlist15" in="0" out="43907">
  <property name="length">00:14:38:08</property>
  <property name="eof">pause</property>
  <property name="resource">/media/bordun/plagiat2/2019-05-01_Plagiat_RespecteLaPuissancePapale_Lavare/CAM1_2019-01-05_0407_C0000.mov</property>
  <property name="audio_index">2</property>
  <property name="video_index">1</property>
  <property name="mute_on_pause">1</property>
  <property name="mlt_service">avformat-novalidate</property>
  <property name="seekable">1</property>
  <property name="aspect_ratio">1</property>
  <property name="kdenlive:folderid">16</property>
  <property name="kdenlive:file_size">40537867713</property>
  <property name="kdenlive:file_hash">eeb49a6f6e2626b129e2046ec649a60c</property>
  <property name="global_feed">1</property>
  <property name="xml">was here</property>
  <property name="meta.media.nb_streams">3</property>
  <property name="meta.media.1.stream.type">video</property>
  <property name="meta.media.1.stream.frame_rate">50</property>
  <property name="meta.media.1.stream.sample_aspect_ratio">1</property>
  <property name="meta.media.1.codec.width">1920</property>
  <property name="meta.media.1.codec.height">1080</property>
  <property name="meta.media.1.codec.rotate">0</property>
  <property name="meta.media.1.codec.frame_rate">5000</property>
  <property name="meta.media.1.codec.pix_fmt">yuv422p10le</property>
  <property name="meta.media.1.codec.sample_aspect_ratio">0</property>
  <property name="meta.media.1.codec.colorspace">709</property>
  <property name="meta.media.1.codec.color_trc">1</property>
  <property name="meta.media.1.codec.name">prores</property>
  <property name="meta.media.1.codec.long_name">ProRes</property>
  <property name="meta.media.1.codec.bit_rate">366957037</property>
  <property name="meta.attr.1.stream.creation_time.markup">2019-01-05T04:07:04.000000Z</property>
  <property name="meta.attr.1.stream.language.markup">eng</property>
  <property name="meta.attr.1.stream.handler_name.markup">Apple Alias Data Handler</property>
  <property name="meta.attr.1.stream.encoder.markup">Apple ProRes 422 HQ</property>
  <property name="meta.attr.1.stream.timecode.markup">04:07:04:29</property>
  <property name="meta.media.2.stream.type">audio</property>
  <property name="meta.media.2.codec.sample_fmt">s32</property>
  <property name="meta.media.2.codec.sample_rate">48000</property>
  <property name="meta.media.2.codec.channels">2</property>
  <property name="meta.media.2.codec.name">pcm_s24le</property>
  <property name="meta.media.2.codec.long_name">PCM signed 24-bit little-endian</property>
  <property name="meta.media.2.codec.bit_rate">2304000</property>
  <property name="meta.attr.2.stream.creation_time.markup">2019-01-05T04:07:04.000000Z</property>
  <property name="meta.attr.2.stream.language.markup">eng</property>
  <property name="meta.attr.2.stream.handler_name.markup">Apple Alias Data Handler</property>
  <property name="meta.attr.2.stream.timecode.markup">04:07:04:29</property>
  <property name="meta.attr.com.apple.proapps.manufacturer.markup">Blackmagic Design</property>
  <property name="meta.attr.com.apple.proapps.cameraName.markup">CAM1</property>
  <property name="meta.attr.com.apple.proapps.isGood.markup">0</property>
  <property name="meta.attr.com.apple.proapps.customgamma.markup">com.blackmagic-design.cinemacamera.filmlog</property>
  <property name="meta.attr.com.blackmagic-design.cinemacamera.uuid.markup">18E5E00548F94923B646613A73C01B56</property>
  <property name="meta.attr.creation_time.markup">2019-01-05T04:07:04.000000Z</property>
  <property name="meta.attr.timecode.markup">04:07:04:29</property>
  <property name="meta.media.sample_aspect_num">1</property>
  <property name="meta.media.sample_aspect_den">1</property>
  <property name="meta.media.frame_rate_num">50</property>
  <property name="meta.media.frame_rate_den">1</property>
  <property name="meta.media.colorspace">709</property>
  <property name="meta.media.color_trc">1</property>
  <property name="meta.media.width">1920</property>
  <property name="meta.media.height">1080</property>
  <property name="meta.media.top_field_first">0</property>
  <property name="meta.media.progressive">1</property>
  <filter id="filter237">
   <property name="version">0,3</property>
   <property name="mlt_service">frei0r.levels</property>
   <property name="kdenlive_id">frei0r.levels</property>
   <property name="tag">frei0r.levels</property>
   <property name="kdenlive_ix">1</property>
   <property name="kdenlive_info"/>
   <property name="Channel">0,3</property>
   <property name="Input black level">0=0,04</property>
   <property name="Input white level">0=1</property>
   <property name="Gamma">0=0,25</property>
   <property name="Black output">0=0</property>
   <property name="White output">0=1</property>
   <property name="Show histogram">0</property>
   <property name="Histogram position">0,3</property>
  </filter>
  <filter id="filter238">
   <property name="version">0,3</property>
   <property name="mlt_service">frei0r.levels</property>
   <property name="kdenlive_id">frei0r.levels</property>
   <property name="tag">frei0r.levels</property>
   <property name="kdenlive_ix">2</property>
   <property name="kdenlive_info"/>
   <property name="Channel">0,3</property>
   <property name="Input black level">0=0</property>
   <property name="Input white level">0=1</property>
   <property name="Gamma">0=0,25</property>
   <property name="Black output">0=0</property>
   <property name="White output">0=1</property>
   <property name="Show histogram">0</property>
   <property name="Histogram position">0,3</property>
  </filter>
 </producer>
 <producer title="Anonymous Submission" id="40_playlist15" in="0" out="9289">
  <property name="length">00:03:05:40</property>
  <property name="eof">pause</property>
  <property name="resource">/media/bordun/plagiat2/2019-05-01_Plagiat_RespecteLaPuissancePapale_Lavare/CAM1_2019-01-05_0517_C0001.mov</property>
  <property name="audio_index">2</property>
  <property name="video_index">1</property>
  <property name="mute_on_pause">1</property>
  <property name="mlt_service">avformat-novalidate</property>
  <property name="seekable">1</property>
  <property name="aspect_ratio">1</property>
  <property name="kdenlive:folderid">16</property>
  <property name="kdenlive:file_size">8576956441</property>
  <property name="kdenlive:file_hash">c2f5e810e9e7275dd3088498b60f8e5f</property>
  <property name="global_feed">1</property>
  <property name="kdenlive:zone_in">6088</property>
  <property name="kdenlive:zone_out">6158</property>
  <property name="xml">was here</property>
  <property name="meta.media.nb_streams">3</property>
  <property name="meta.media.1.stream.type">video</property>
  <property name="meta.media.1.stream.frame_rate">50</property>
  <property name="meta.media.1.stream.sample_aspect_ratio">1</property>
  <property name="meta.media.1.codec.width">1920</property>
  <property name="meta.media.1.codec.height">1080</property>
  <property name="meta.media.1.codec.rotate">0</property>
  <property name="meta.media.1.codec.frame_rate">5000</property>
  <property name="meta.media.1.codec.pix_fmt">yuv422p10le</property>
  <property name="meta.media.1.codec.sample_aspect_ratio">0</property>
  <property name="meta.media.1.codec.colorspace">709</property>
  <property name="meta.media.1.codec.color_trc">1</property>
  <property name="meta.media.1.codec.name">prores</property>
  <property name="meta.media.1.codec.long_name">ProRes</property>
  <property name="meta.media.1.codec.bit_rate">366957016</property>
  <property name="meta.attr.1.stream.creation_time.markup">2019-01-05T05:17:29.000000Z</property>
  <property name="meta.attr.1.stream.language.markup">eng</property>
  <property name="meta.attr.1.stream.handler_name.markup">Apple Alias Data Handler</property>
  <property name="meta.attr.1.stream.encoder.markup">Apple ProRes 422 HQ</property>
  <property name="meta.attr.1.stream.timecode.markup">05:17:29:25</property>
  <property name="meta.media.2.stream.type">audio</property>
  <property name="meta.media.2.codec.sample_fmt">s32</property>
  <property name="meta.media.2.codec.sample_rate">48000</property>
  <property name="meta.media.2.codec.channels">2</property>
  <property name="meta.media.2.codec.name">pcm_s24le</property>
  <property name="meta.media.2.codec.long_name">PCM signed 24-bit little-endian</property>
  <property name="meta.media.2.codec.bit_rate">2304000</property>
  <property name="meta.attr.2.stream.creation_time.markup">2019-01-05T05:17:29.000000Z</property>
  <property name="meta.attr.2.stream.language.markup">eng</property>
  <property name="meta.attr.2.stream.handler_name.markup">Apple Alias Data Handler</property>
  <property name="meta.attr.2.stream.timecode.markup">05:17:29:25</property>
  <property name="meta.attr.com.apple.proapps.manufacturer.markup">Blackmagic Design</property>
  <property name="meta.attr.com.apple.proapps.cameraName.markup">CAM1</property>
  <property name="meta.attr.com.apple.proapps.isGood.markup">0</property>
  <property name="meta.attr.com.apple.proapps.customgamma.markup">com.blackmagic-design.cinemacamera.filmlog</property>
  <property name="meta.attr.com.blackmagic-design.cinemacamera.uuid.markup">18E5E00548F94923B646613A73C01B56</property>
  <property name="meta.attr.creation_time.markup">2019-01-05T05:17:29.000000Z</property>
  <property name="meta.attr.timecode.markup">05:17:29:25</property>
  <property name="meta.media.sample_aspect_num">1</property>
  <property name="meta.media.sample_aspect_den">1</property>
  <property name="meta.media.frame_rate_num">50</property>
  <property name="meta.media.frame_rate_den">1</property>
  <property name="meta.media.colorspace">709</property>
  <property name="meta.media.color_trc">1</property>
  <property name="meta.media.width">1920</property>
  <property name="meta.media.height">1080</property>
  <property name="meta.media.top_field_first">0</property>
  <property name="meta.media.progressive">1</property>
  <filter id="filter206">
   <property name="version">0,2</property>
   <property name="mlt_service">frei0r.contrast0r</property>
   <property name="kdenlive_id">frei0r.contrast0r</property>
   <property name="tag">frei0r.contrast0r</property>
   <property name="kdenlive_ix">1</property>
   <property name="kdenlive_info"/>
   <property name="Contrast">0=0,55</property>
   <property name="disable">0</property>
  </filter>
 </producer>
 <producer id="slowmotion:30:0,9:1:0" in="0" out="48785">
  <property name="length">48786</property>
  <property name="eof">pause</property>
  <property name="resource">0,9:/media/bordun/plagiat2/2019-05-01_Plagiat_RespecteLaPuissancePapale_Lavare/CAM1_2019-01-05_0407_C0000.mov</property>
  <property name="aspect_ratio">1</property>
  <property name="meta.media.nb_streams">3</property>
  <property name="meta.media.1.stream.type">video</property>
  <property name="meta.media.1.stream.frame_rate">50</property>
  <property name="meta.media.1.stream.sample_aspect_ratio">1</property>
  <property name="meta.media.1.codec.width">1920</property>
  <property name="meta.media.1.codec.height">1080</property>
  <property name="meta.media.1.codec.rotate">0</property>
  <property name="meta.media.1.codec.frame_rate">5000</property>
  <property name="meta.media.1.codec.pix_fmt">yuv422p10le</property>
  <property name="meta.media.1.codec.sample_aspect_ratio">0</property>
  <property name="meta.media.1.codec.colorspace">709</property>
  <property name="meta.media.1.codec.color_trc">1</property>
  <property name="meta.media.1.codec.name">prores</property>
  <property name="meta.media.1.codec.long_name">ProRes</property>
  <property name="meta.media.1.codec.bit_rate">366957037</property>
  <property name="meta.attr.1.stream.creation_time.markup">2019-01-05T04:07:04.000000Z</property>
  <property name="meta.attr.1.stream.language.markup">eng</property>
  <property name="meta.attr.1.stream.handler_name.markup">Apple Alias Data Handler</property>
  <property name="meta.attr.1.stream.encoder.markup">Apple ProRes 422 HQ</property>
  <property name="meta.attr.1.stream.timecode.markup">04:07:04:29</property>
  <property name="meta.media.2.stream.type">audio</property>
  <property name="meta.media.2.codec.sample_fmt">s32</property>
  <property name="meta.media.2.codec.sample_rate">48000</property>
  <property name="meta.media.2.codec.channels">2</property>
  <property name="meta.media.2.codec.name">pcm_s24le</property>
  <property name="meta.media.2.codec.long_name">PCM signed 24-bit little-endian</property>
  <property name="meta.media.2.codec.bit_rate">2304000</property>
  <property name="meta.attr.2.stream.creation_time.markup">2019-01-05T04:07:04.000000Z</property>
  <property name="meta.attr.2.stream.language.markup">eng</property>
  <property name="meta.attr.2.stream.handler_name.markup">Apple Alias Data Handler</property>
  <property name="meta.attr.2.stream.timecode.markup">04:07:04:29</property>
  <property name="meta.attr.com.apple.proapps.manufacturer.markup">Blackmagic Design</property>
  <property name="meta.attr.com.apple.proapps.cameraName.markup">CAM1</property>
  <property name="meta.attr.com.apple.proapps.isGood.markup">0</property>
  <property name="meta.attr.com.apple.proapps.customgamma.markup">com.blackmagic-design.cinemacamera.filmlog</property>
  <property name="meta.attr.com.blackmagic-design.cinemacamera.uuid.markup">18E5E00548F94923B646613A73C01B56</property>
  <property name="meta.attr.creation_time.markup">2019-01-05T04:07:04.000000Z</property>
  <property name="meta.attr.timecode.markup">04:07:04:29</property>
  <property name="seekable">1</property>
  <property name="meta.media.sample_aspect_num">1</property>
  <property name="meta.media.sample_aspect_den">1</property>
  <property name="audio_index">2</property>
  <property name="video_index">1</property>
  <property name="mute_on_pause">1</property>
  <property name="warp_speed">0,9</property>
  <property name="warp_resource">/media/bordun/plagiat2/2019-05-01_Plagiat_RespecteLaPuissancePapale_Lavare/CAM1_2019-01-05_0407_C0000.mov</property>
  <property name="mlt_service">timewarp</property>
  <property name="meta.media.frame_rate_num">50</property>
  <property name="meta.media.frame_rate_den">1</property>
  <property name="meta.media.colorspace">709</property>
  <property name="meta.media.color_trc">1</property>
  <property name="meta.media.width">1920</property>
  <property name="meta.media.height">1080</property>
  <property name="meta.media.top_field_first">0</property>
  <property name="meta.media.progressive">1</property>
  <filter id="filter239">
   <property name="version">0,3</property>
   <property name="mlt_service">frei0r.levels</property>
   <property name="kdenlive_id">frei0r.levels</property>
   <property name="tag">frei0r.levels</property>
   <property name="kdenlive_ix">1</property>
   <property name="kdenlive_info"/>
   <property name="Channel">0,3</property>
   <property name="Input black level">0=0,04</property>
   <property name="Input white level">0=1</property>
   <property name="Gamma">0=0,25</property>
   <property name="Black output">0=0</property>
   <property name="White output">0=1</property>
   <property name="Show histogram">0</property>
   <property name="Histogram position">0,3</property>
  </filter>
  <filter id="filter240">
   <property name="version">0,3</property>
   <property name="mlt_service">frei0r.levels</property>
   <property name="kdenlive_id">frei0r.levels</property>
   <property name="tag">frei0r.levels</property>
   <property name="kdenlive_ix">2</property>
   <property name="kdenlive_info"/>
   <property name="Channel">0,3</property>
   <property name="Input black level">0=0</property>
   <property name="Input white level">0=1</property>
   <property name="Gamma">0=0,25</property>
   <property name="Black output">0=0</property>
   <property name="White output">0=1</property>
   <property name="Show histogram">0</property>
   <property name="Histogram position">0,3</property>
  </filter>
 </producer>
 <producer title="Anonymous Submission" id="41_playlist15" in="0" out="10702">
  <property name="length">00:03:34:03</property>
  <property name="eof">pause</property>
  <property name="resource">/media/bordun/plagiat2/2019-05-01_Plagiat_RespecteLaPuissancePapale_Lavare/CAM1_2019-01-05_0511_C0000.mov</property>
  <property name="audio_index">2</property>
  <property name="video_index">1</property>
  <property name="mute_on_pause">1</property>
  <property name="mlt_service">avformat-novalidate</property>
  <property name="seekable">1</property>
  <property name="aspect_ratio">1</property>
  <property name="kdenlive:folderid">16</property>
  <property name="kdenlive:file_size">9881509121</property>
  <property name="kdenlive:file_hash">377aa92a5fbef78369143e30739b498c</property>
  <property name="global_feed">1</property>
  <property name="xml">was here</property>
  <property name="meta.media.nb_streams">3</property>
  <property name="meta.media.1.stream.type">video</property>
  <property name="meta.media.1.stream.frame_rate">50</property>
  <property name="meta.media.1.stream.sample_aspect_ratio">1</property>
  <property name="meta.media.1.codec.width">1920</property>
  <property name="meta.media.1.codec.height">1080</property>
  <property name="meta.media.1.codec.rotate">0</property>
  <property name="meta.media.1.codec.frame_rate">5000</property>
  <property name="meta.media.1.codec.pix_fmt">yuv422p10le</property>
  <property name="meta.media.1.codec.sample_aspect_ratio">0</property>
  <property name="meta.media.1.codec.colorspace">709</property>
  <property name="meta.media.1.codec.color_trc">1</property>
  <property name="meta.media.1.codec.name">prores</property>
  <property name="meta.media.1.codec.long_name">ProRes</property>
  <property name="meta.media.1.codec.bit_rate">366958294</property>
  <property name="meta.attr.1.stream.creation_time.markup">2019-01-05T05:11:43.000000Z</property>
  <property name="meta.attr.1.stream.language.markup">eng</property>
  <property name="meta.attr.1.stream.handler_name.markup">Apple Alias Data Handler</property>
  <property name="meta.attr.1.stream.encoder.markup">Apple ProRes 422 HQ</property>
  <property name="meta.attr.1.stream.timecode.markup">05:11:43:16</property>
  <property name="meta.media.2.stream.type">audio</property>
  <property name="meta.media.2.codec.sample_fmt">s32</property>
  <property name="meta.media.2.codec.sample_rate">48000</property>
  <property name="meta.media.2.codec.channels">2</property>
  <property name="meta.media.2.codec.name">pcm_s24le</property>
  <property name="meta.media.2.codec.long_name">PCM signed 24-bit little-endian</property>
  <property name="meta.media.2.codec.bit_rate">2304000</property>
  <property name="meta.attr.2.stream.creation_time.markup">2019-01-05T05:11:43.000000Z</property>
  <property name="meta.attr.2.stream.language.markup">eng</property>
  <property name="meta.attr.2.stream.handler_name.markup">Apple Alias Data Handler</property>
  <property name="meta.attr.2.stream.timecode.markup">05:11:43:16</property>
  <property name="meta.attr.com.apple.proapps.manufacturer.markup">Blackmagic Design</property>
  <property name="meta.attr.com.apple.proapps.cameraName.markup">CAM1</property>
  <property name="meta.attr.com.apple.proapps.isGood.markup">0</property>
  <property name="meta.attr.com.apple.proapps.customgamma.markup">com.blackmagic-design.cinemacamera.filmlog</property>
  <property name="meta.attr.com.blackmagic-design.cinemacamera.uuid.markup">18E5E00548F94923B646613A73C01B56</property>
  <property name="meta.attr.creation_time.markup">2019-01-05T05:11:43.000000Z</property>
  <property name="meta.attr.timecode.markup">05:11:43:16</property>
  <property name="meta.media.sample_aspect_num">1</property>
  <property name="meta.media.sample_aspect_den">1</property>
  <property name="meta.media.frame_rate_num">50</property>
  <property name="meta.media.frame_rate_den">1</property>
  <property name="meta.media.colorspace">709</property>
  <property name="meta.media.color_trc">1</property>
  <property name="meta.media.width">1920</property>
  <property name="meta.media.height">1080</property>
  <property name="meta.media.top_field_first">0</property>
  <property name="meta.media.progressive">1</property>
  <filter id="filter209">
   <property name="version">0,2</property>
   <property name="mlt_service">frei0r.contrast0r</property>
   <property name="kdenlive_id">frei0r.contrast0r</property>
   <property name="tag">frei0r.contrast0r</property>
   <property name="kdenlive_ix">1</property>
   <property name="kdenlive_info"/>
   <property name="Contrast">0=0,55</property>
   <property name="disable">0</property>
  </filter>
  <filter id="filter221">
   <property name="version">0,3</property>
   <property name="mlt_service">frei0r.levels</property>
   <property name="kdenlive_id">frei0r.levels</property>
   <property name="tag">frei0r.levels</property>
   <property name="kdenlive_ix">2</property>
   <property name="kdenlive_info"/>
   <property name="Channel">0,3</property>
   <property name="Input black level">0=0</property>
   <property name="Input white level">0=1</property>
   <property name="Gamma">0=0,25</property>
   <property name="Black output">0=0</property>
   <property name="White output">0=1</property>
   <property name="Show histogram">0</property>
   <property name="Histogram position">0,3</property>
  </filter>
  <filter id="filter222">
   <property name="version">0,3</property>
   <property name="mlt_service">frei0r.levels</property>
   <property name="kdenlive_id">frei0r.levels</property>
   <property name="tag">frei0r.levels</property>
   <property name="kdenlive_ix">3</property>
   <property name="kdenlive_info"/>
   <property name="Channel">0,3</property>
   <property name="Input black level">0=0</property>
   <property name="Input white level">0=1</property>
   <property name="Gamma">0=0,25</property>
   <property name="Black output">0=0</property>
   <property name="White output">0=1</property>
   <property name="Show histogram">0</property>
   <property name="Histogram position">0,3</property>
  </filter>
 </producer>
 <playlist id="playlist15">
  <property name="kdenlive:track_name">Video -5</property>
  <blank length="1462"/>
  <entry producer="slowmotion:43:0,5:1:0" in="45492" out="45615"/>
  <blank length="586"/>
  <entry producer="slowmotion:43:0,5:1:0" in="46198" out="46316"/>
  <blank length="810"/>
  <entry producer="slowmotion:43:0,5:1:0" in="47306" out="47358"/>
  <entry producer="slowmotion:43:0,5:1:0" in="47359" out="47663">
   <filter id="filter241" in="47359" out="47663">
    <property name="background">colour:0x00000000</property>
    <property name="mlt_service">affine</property>
    <property name="kdenlive_id">pan_zoom</property>
    <property name="tag">affine</property>
    <property name="kdenlive_ix">2</property>
    <property name="transition.geometry">-192/-108:2304x1296:100</property>
    <property name="transition.distort">0</property>
    <property name="kdenlive:sync_in_out">1</property>
    <property name="kdenlive_info"/>
   </filter>
  </entry>
  <blank length="2408"/>
  <entry producer="producer7" in="5749" out="5805">
   <filter id="filter242">
    <property name="rotate_center">1</property>
    <property name="mlt_service">qtblend</property>
    <property name="kdenlive_id">qtblend</property>
    <property name="tag">qtblend</property>
    <property name="kdenlive_ix">1</property>
    <property name="kdenlive_info"/>
    <property name="disable"/>
    <property name="rect">374=-330 -226 2496 1404 1</property>
    <property name="rotation">374=-1;5144=-1;5176=-1;5328=-1;5343=-1;5749=-1;5805=-1</property>
    <property name="compositing">0</property>
    <property name="distort">0</property>
   </filter>
  </entry>
  <blank length="831"/>
  <entry producer="slowmotion:40:0,8:1:0" in="397" out="516">
   <filter id="filter243">
    <property name="rotate_center">1</property>
    <property name="mlt_service">qtblend</property>
    <property name="kdenlive_id">qtblend</property>
    <property name="tag">qtblend</property>
    <property name="kdenlive_ix">2</property>
    <property name="rect">397=-108 -67 2304 1296 1</property>
    <property name="rotation">397=4</property>
    <property name="compositing">0</property>
    <property name="distort">0</property>
    <property name="kdenlive_info"/>
   </filter>
   <filter id="filter244">
    <property name="version">0,1</property>
    <property name="mlt_service">frei0r.hqdn3d</property>
    <property name="kdenlive_id">frei0r.hqdn3d</property>
    <property name="tag">frei0r.hqdn3d</property>
    <property name="kdenlive_ix">3</property>
    <property name="Spatial">397=0,04</property>
    <property name="Temporal">397=0,117</property>
   </filter>
  </entry>
  <blank length="125"/>
  <entry producer="producer8" in="488" out="609">
   <filter id="filter245">
    <property name="rotate_center">1</property>
    <property name="mlt_service">qtblend</property>
    <property name="kdenlive_id">qtblend</property>
    <property name="tag">qtblend</property>
    <property name="kdenlive_ix">2</property>
    <property name="rect">397=-108 -67 2304 1296 1;609=</property>
    <property name="rotation">397=4;609=</property>
    <property name="compositing">0</property>
    <property name="distort">0</property>
    <property name="kdenlive_info"/>
    <property name="disable"/>
   </filter>
   <filter id="filter246">
    <property name="version">0,1</property>
    <property name="mlt_service">frei0r.hqdn3d</property>
    <property name="kdenlive_id">frei0r.hqdn3d</property>
    <property name="tag">frei0r.hqdn3d</property>
    <property name="kdenlive_ix">3</property>
    <property name="Spatial">488=0,04</property>
    <property name="Temporal">488=0,117</property>
   </filter>
  </entry>
  <blank length="293"/>
  <entry producer="slowmotion:40:0,8:1:0" in="1060" out="1145"/>
  <blank length="5334"/>
  <entry producer="30_playlist15" in="24133" out="24213"/>
  <blank length="666"/>
  <entry producer="40_playlist15" in="6997" out="7036"/>
  <entry producer="30_playlist15" in="24952" out="24966"/>
  <entry producer="slowmotion:30:0,9:1:0" in="27741" out="27774">
   <filter id="filter247" in="27741" out="27789">
    <property name="background">colour:0x00000000</property>
    <property name="mlt_service">affine</property>
    <property name="kdenlive_id">pan_zoom</property>
    <property name="tag">affine</property>
    <property name="kdenlive_ix">1</property>
    <property name="transition.geometry">-96/-54:2112x1188:100</property>
    <property name="transition.distort">0</property>
    <property name="kdenlive:sync_in_out">1</property>
    <property name="kdenlive_info"/>
   </filter>
   <filter id="filter207">
    <property name="background">colour:0x00000000</property>
    <property name="mlt_service">affine</property>
    <property name="kdenlive_id">pan_zoom</property>
    <property name="tag">affine</property>
    <property name="kdenlive_ix">2</property>
    <property name="kdenlive_info"/>
    <property name="disable"/>
    <property name="transition.geometry">-96/-54:2112x1188:100</property>
    <property name="transition.distort">0</property>
   </filter>
  </entry>
  <entry producer="41_playlist15" in="8654" out="8708">
   <filter id="filter257" in="8654" out="8708">
    <property name="background">colour:0x00000000</property>
    <property name="mlt_service">affine</property>
    <property name="kdenlive_id">pan_zoom</property>
    <property name="tag">affine</property>
    <property name="kdenlive_ix">1</property>
    <property name="transition.geometry">0=-140/-73:2688x1512:100;54=-44/-2:2496x1404:100</property>
    <property name="transition.distort">0</property>
    <property name="kdenlive:sync_in_out">1</property>
    <property name="kdenlive_info"/>
   </filter>
  </entry>
  <entry producer="30_playlist15" in="25024" out="25094">
   <filter id="filter248" in="25024" out="25144">
    <property name="background">colour:0x00000000</property>
    <property name="mlt_service">affine</property>
    <property name="kdenlive_id">pan_zoom</property>
    <property name="tag">affine</property>
    <property name="kdenlive_info"/>
    <property name="kdenlive_ix">1</property>
    <property name="disable"/>
    <property name="transition.geometry">0=0/0:1920x1080:100;19=-96/-54:2112x1188:100;186=0/0:1920x1080:100</property>
    <property name="transition.distort">0</property>
    <property name="kdenlive:sync_in_out">1</property>
   </filter>
   <filter id="filter249">
    <property name="background">colour:0x00000000</property>
    <property name="mlt_service">affine</property>
    <property name="kdenlive_id">pan_zoom</property>
    <property name="tag">affine</property>
    <property name="kdenlive_ix">2</property>
    <property name="kdenlive_info"/>
    <property name="disable"/>
    <property name="transition.geometry">0=0/0:1920x1080:100;19=-96/-54:2112x1188:100;186=0/0:1920x1080:100</property>
    <property name="transition.distort">0</property>
   </filter>
   <filter id="filter250">
    <property name="background">colour:0x00000000</property>
    <property name="mlt_service">affine</property>
    <property name="kdenlive_id">pan_zoom</property>
    <property name="tag">affine</property>
    <property name="kdenlive_ix">3</property>
    <property name="kdenlive_info"/>
    <property name="disable"/>
    <property name="transition.geometry">-288/-162:2496x1404:100</property>
    <property name="transition.distort">0</property>
   </filter>
  </entry>
 </playlist>
 <producer id="slowmotion:41:0,5:1:0" in="0" out="21405">
  <property name="length">21406</property>
  <property name="eof">pause</property>
  <property name="resource">0,5:/media/bordun/plagiat2/2019-05-01_Plagiat_RespecteLaPuissancePapale_Lavare/CAM1_2019-01-05_0511_C0000.mov</property>
  <property name="aspect_ratio">1</property>
  <property name="meta.media.nb_streams">3</property>
  <property name="meta.media.1.stream.type">video</property>
  <property name="meta.media.1.stream.frame_rate">50</property>
  <property name="meta.media.1.stream.sample_aspect_ratio">1</property>
  <property name="meta.media.1.codec.width">1920</property>
  <property name="meta.media.1.codec.height">1080</property>
  <property name="meta.media.1.codec.rotate">0</property>
  <property name="meta.media.1.codec.frame_rate">5000</property>
  <property name="meta.media.1.codec.pix_fmt">yuv422p10le</property>
  <property name="meta.media.1.codec.sample_aspect_ratio">0</property>
  <property name="meta.media.1.codec.colorspace">709</property>
  <property name="meta.media.1.codec.color_trc">1</property>
  <property name="meta.media.1.codec.name">prores</property>
  <property name="meta.media.1.codec.long_name">ProRes</property>
  <property name="meta.media.1.codec.bit_rate">366958294</property>
  <property name="meta.attr.1.stream.creation_time.markup">2019-01-05T05:11:43.000000Z</property>
  <property name="meta.attr.1.stream.language.markup">eng</property>
  <property name="meta.attr.1.stream.handler_name.markup">Apple Alias Data Handler</property>
  <property name="meta.attr.1.stream.encoder.markup">Apple ProRes 422 HQ</property>
  <property name="meta.attr.1.stream.timecode.markup">05:11:43:16</property>
  <property name="meta.media.2.stream.type">audio</property>
  <property name="meta.media.2.codec.sample_fmt">s32</property>
  <property name="meta.media.2.codec.sample_rate">48000</property>
  <property name="meta.media.2.codec.channels">2</property>
  <property name="meta.media.2.codec.name">pcm_s24le</property>
  <property name="meta.media.2.codec.long_name">PCM signed 24-bit little-endian</property>
  <property name="meta.media.2.codec.bit_rate">2304000</property>
  <property name="meta.attr.2.stream.creation_time.markup">2019-01-05T05:11:43.000000Z</property>
  <property name="meta.attr.2.stream.language.markup">eng</property>
  <property name="meta.attr.2.stream.handler_name.markup">Apple Alias Data Handler</property>
  <property name="meta.attr.2.stream.timecode.markup">05:11:43:16</property>
  <property name="meta.attr.com.apple.proapps.manufacturer.markup">Blackmagic Design</property>
  <property name="meta.attr.com.apple.proapps.cameraName.markup">CAM1</property>
  <property name="meta.attr.com.apple.proapps.isGood.markup">0</property>
  <property name="meta.attr.com.apple.proapps.customgamma.markup">com.blackmagic-design.cinemacamera.filmlog</property>
  <property name="meta.attr.com.blackmagic-design.cinemacamera.uuid.markup">18E5E00548F94923B646613A73C01B56</property>
  <property name="meta.attr.creation_time.markup">2019-01-05T05:11:43.000000Z</property>
  <property name="meta.attr.timecode.markup">05:11:43:16</property>
  <property name="seekable">1</property>
  <property name="meta.media.sample_aspect_num">1</property>
  <property name="meta.media.sample_aspect_den">1</property>
  <property name="audio_index">2</property>
  <property name="video_index">1</property>
  <property name="mute_on_pause">1</property>
  <property name="warp_speed">0,5</property>
  <property name="warp_resource">/media/bordun/plagiat2/2019-05-01_Plagiat_RespecteLaPuissancePapale_Lavare/CAM1_2019-01-05_0511_C0000.mov</property>
  <property name="mlt_service">timewarp</property>
  <property name="meta.media.frame_rate_num">50</property>
  <property name="meta.media.frame_rate_den">1</property>
  <property name="meta.media.colorspace">709</property>
  <property name="meta.media.color_trc">1</property>
  <property name="meta.media.width">1920</property>
  <property name="meta.media.height">1080</property>
  <property name="meta.media.top_field_first">0</property>
  <property name="meta.media.progressive">1</property>
  <filter id="filter208">
   <property name="version">0,2</property>
   <property name="mlt_service">frei0r.contrast0r</property>
   <property name="kdenlive_id">frei0r.contrast0r</property>
   <property name="tag">frei0r.contrast0r</property>
   <property name="kdenlive_ix">1</property>
   <property name="kdenlive_info"/>
   <property name="Contrast">0=0,55</property>
   <property name="disable">0</property>
  </filter>
  <filter id="filter223">
   <property name="version">0,3</property>
   <property name="mlt_service">frei0r.levels</property>
   <property name="kdenlive_id">frei0r.levels</property>
   <property name="tag">frei0r.levels</property>
   <property name="kdenlive_ix">2</property>
   <property name="kdenlive_info"/>
   <property name="Channel">0,3</property>
   <property name="Input black level">0=0</property>
   <property name="Input white level">0=1</property>
   <property name="Gamma">0=0,25</property>
   <property name="Black output">0=0</property>
   <property name="White output">0=1</property>
   <property name="Show histogram">0</property>
   <property name="Histogram position">0,3</property>
  </filter>
  <filter id="filter251">
   <property name="version">0,3</property>
   <property name="mlt_service">frei0r.levels</property>
   <property name="kdenlive_id">frei0r.levels</property>
   <property name="tag">frei0r.levels</property>
   <property name="kdenlive_ix">3</property>
   <property name="kdenlive_info"/>
   <property name="Channel">0,3</property>
   <property name="Input black level">0=0</property>
   <property name="Input white level">0=1</property>
   <property name="Gamma">0=0,25</property>
   <property name="Black output">0=0</property>
   <property name="White output">0=1</property>
   <property name="Show histogram">0</property>
   <property name="Histogram position">0,3</property>
  </filter>
 </producer>
 <playlist id="playlist16">
  <property name="kdenlive:track_name">Video -6</property>
  <blank length="7000"/>
  <entry producer="slowmotion:41:0,5:1:0" in="5190" out="5311"/>
 </playlist>
 <producer title="Anonymous Submission" id="53_playlist16" in="0" out="335">
  <property name="length">00:00:06:36</property>
  <property name="eof">pause</property>
  <property name="resource">/media/bordun/plagiat/Clip02_RespecteLaPuissancePapale/Assets/crowd.mp4</property>
  <property name="audio_index">-1</property>
  <property name="video_index">0</property>
  <property name="mute_on_pause">1</property>
  <property name="mlt_service">avformat-novalidate</property>
  <property name="seekable">1</property>
  <property name="aspect_ratio">1</property>
  <property name="kdenlive:file_size">5984916</property>
  <property name="kdenlive:file_hash">f085257f7fa0dde53518ef03973336c5</property>
  <property name="global_feed">1</property>
  <property name="xml">was here</property>
  <property name="meta.media.nb_streams">1</property>
  <property name="meta.media.0.stream.type">video</property>
  <property name="meta.media.0.stream.frame_rate">25</property>
  <property name="meta.media.0.stream.sample_aspect_ratio">1</property>
  <property name="meta.media.0.codec.width">1920</property>
  <property name="meta.media.0.codec.height">1080</property>
  <property name="meta.media.0.codec.rotate">0</property>
  <property name="meta.media.0.codec.frame_rate">25</property>
  <property name="meta.media.0.codec.pix_fmt">yuv420p</property>
  <property name="meta.media.0.codec.sample_aspect_ratio">1</property>
  <property name="meta.media.0.codec.colorspace">709</property>
  <property name="meta.media.0.codec.color_trc">1</property>
  <property name="meta.media.0.codec.name">h264</property>
  <property name="meta.media.0.codec.long_name">H.264 / AVC / MPEG-4 AVC / MPEG-4 part 10</property>
  <property name="meta.media.0.codec.bit_rate">7121453</property>
  <property name="meta.attr.0.stream.handler_name.markup">VideoHandler</property>
  <property name="meta.attr.major_brand.markup">isom</property>
  <property name="meta.attr.minor_version.markup">512</property>
  <property name="meta.attr.compatible_brands.markup">isomiso2avc1mp41</property>
  <property name="meta.attr.encoder.markup">Lavf57.71.100</property>
  <property name="meta.media.sample_aspect_num">1</property>
  <property name="meta.media.sample_aspect_den">1</property>
  <property name="meta.media.frame_rate_num">25</property>
  <property name="meta.media.frame_rate_den">1</property>
  <property name="meta.media.colorspace">709</property>
  <property name="meta.media.color_trc">1</property>
  <property name="meta.media.width">1920</property>
  <property name="meta.media.height">1080</property>
  <property name="meta.media.top_field_first">0</property>
  <property name="meta.media.progressive">1</property>
 </producer>
 <playlist id="playlist18">
  <property name="kdenlive:track_name">Video 1</property>
  <blank length="13582"/>
  <entry producer="53_playlist16" in="0" out="214">
   <filter id="chroma">
    <property name="key">0x02d802ff</property>
    <property name="variance">0,317</property>
    <property name="mlt_service">chroma</property>
    <property name="kdenlive_id">chroma</property>
    <property name="tag">chroma</property>
    <property name="kdenlive_ix">1</property>
    <property name="kdenlive_info"/>
    <property name="disable">0</property>
   </filter>
  </entry>
 </playlist>
 <playlist id="playlist19">
  <property name="kdenlive:track_name">Video 2</property>
 </playlist>
 <playlist id="playlist20">
  <property name="kdenlive:track_name">Video 3</property>
  <blank length="121"/>
  <entry producer="54" in="0" out="51"/>
  <entry producer="54" in="0" out="249"/>
  <entry producer="54" in="0" out="51"/>
  <blank length="161"/>
  <entry producer="54" in="0" out="51"/>
  <entry producer="54" in="0" out="168"/>
  <entry producer="54" in="0" out="51"/>
 </playlist>
 <playlist id="playlist21">
  <property name="kdenlive:track_name">Video 4</property>
  <blank length="121"/>
  <entry producer="56" in="0" out="51"/>
  <entry producer="56" in="0" out="249"/>
  <entry producer="56" in="0" out="51"/>
  <blank length="161"/>
  <entry producer="57" in="0" out="51"/>
  <entry producer="57" in="52" out="220"/>
  <entry producer="57" in="302" out="353"/>
 </playlist>
 <tractor title="Anonymous Submission" id="maintractor" global_feed="1" in="0" out="33023">
  <track producer="black_track"/>
  <track hide="video" producer="playlist17"/>
  <track hide="both" producer="playlist1"/>
  <track hide="both" producer="playlist2"/>
  <track hide="audio" producer="playlist0"/>
  <track hide="audio" producer="playlist3"/>
  <track hide="audio" producer="playlist9"/>
  <track hide="audio" producer="playlist6"/>
  <track hide="audio" producer="playlist7"/>
  <track hide="audio" producer="playlist4"/>
  <track hide="audio" producer="playlist5"/>
  <track hide="audio" producer="playlist8"/>
  <track hide="audio" producer="playlist10"/>
  <track hide="audio" producer="playlist11"/>
  <track hide="audio" producer="playlist12"/>
  <track hide="audio" producer="playlist13"/>
  <track hide="audio" producer="playlist14"/>
  <track hide="audio" producer="playlist15"/>
  <track hide="audio" producer="playlist16"/>
  <track producer="playlist18"/>
  <track producer="playlist19"/>
  <track producer="playlist20"/>
  <track producer="playlist21"/>
  <transition id="transition0">
   <property name="a_track">0</property>
   <property name="b_track">1</property>
   <property name="mlt_service">mix</property>
   <property name="always_active">1</property>
   <property name="sum">1</property>
   <property name="internal_added">237</property>
  </transition>
  <transition id="transition1">
   <property name="a_track">0</property>
   <property name="b_track">2</property>
   <property name="mlt_service">mix</property>
   <property name="always_active">1</property>
   <property name="sum">1</property>
   <property name="internal_added">237</property>
  </transition>
  <transition id="transition2">
   <property name="a_track">0</property>
   <property name="b_track">3</property>
   <property name="mlt_service">mix</property>
   <property name="always_active">1</property>
   <property name="sum">1</property>
   <property name="internal_added">237</property>
  </transition>
  <transition id="transition3">
   <property name="a_track">0</property>
   <property name="b_track">4</property>
   <property name="mlt_service">mix</property>
   <property name="always_active">1</property>
   <property name="sum">1</property>
   <property name="internal_added">237</property>
  </transition>
  <transition id="transition4">
   <property name="a_track">0</property>
   <property name="b_track">5</property>
   <property name="mlt_service">mix</property>
   <property name="always_active">1</property>
   <property name="sum">1</property>
   <property name="internal_added">237</property>
  </transition>
  <transition id="transition5">
   <property name="a_track">0</property>
   <property name="b_track">6</property>
   <property name="mlt_service">mix</property>
   <property name="always_active">1</property>
   <property name="sum">1</property>
   <property name="internal_added">237</property>
  </transition>
  <transition id="transition6">
   <property name="a_track">0</property>
   <property name="b_track">7</property>
   <property name="mlt_service">mix</property>
   <property name="always_active">1</property>
   <property name="sum">1</property>
   <property name="internal_added">237</property>
  </transition>
  <transition id="transition7">
   <property name="a_track">0</property>
   <property name="b_track">8</property>
   <property name="mlt_service">mix</property>
   <property name="always_active">1</property>
   <property name="sum">1</property>
   <property name="internal_added">237</property>
  </transition>
  <transition id="transition8">
   <property name="a_track">0</property>
   <property name="b_track">9</property>
   <property name="mlt_service">mix</property>
   <property name="always_active">1</property>
   <property name="sum">1</property>
   <property name="internal_added">237</property>
  </transition>
  <transition id="transition9">
   <property name="a_track">0</property>
   <property name="b_track">10</property>
   <property name="mlt_service">mix</property>
   <property name="always_active">1</property>
   <property name="sum">1</property>
   <property name="internal_added">237</property>
  </transition>
  <transition id="transition10">
   <property name="a_track">0</property>
   <property name="b_track">11</property>
   <property name="mlt_service">mix</property>
   <property name="always_active">1</property>
   <property name="sum">1</property>
   <property name="internal_added">237</property>
  </transition>
  <transition id="transition11">
   <property name="a_track">0</property>
   <property name="b_track">12</property>
   <property name="mlt_service">mix</property>
   <property name="always_active">1</property>
   <property name="sum">1</property>
   <property name="internal_added">237</property>
  </transition>
  <transition id="transition12">
   <property name="a_track">0</property>
   <property name="b_track">13</property>
   <property name="mlt_service">mix</property>
   <property name="always_active">1</property>
   <property name="sum">1</property>
   <property name="internal_added">237</property>
  </transition>
  <transition id="transition13">
   <property name="a_track">0</property>
   <property name="b_track">14</property>
   <property name="mlt_service">mix</property>
   <property name="always_active">1</property>
   <property name="sum">1</property>
   <property name="internal_added">237</property>
  </transition>
  <transition id="transition14">
   <property name="a_track">0</property>
   <property name="b_track">15</property>
   <property name="mlt_service">mix</property>
   <property name="always_active">1</property>
   <property name="sum">1</property>
   <property name="internal_added">237</property>
  </transition>
  <transition id="transition15">
   <property name="a_track">0</property>
   <property name="b_track">16</property>
   <property name="mlt_service">mix</property>
   <property name="always_active">1</property>
   <property name="sum">1</property>
   <property name="internal_added">237</property>
  </transition>
  <transition id="transition16">
   <property name="a_track">0</property>
   <property name="b_track">17</property>
   <property name="mlt_service">mix</property>
   <property name="always_active">1</property>
   <property name="sum">1</property>
   <property name="internal_added">237</property>
  </transition>
  <transition id="transition17">
   <property name="a_track">0</property>
   <property name="b_track">18</property>
   <property name="mlt_service">mix</property>
   <property name="always_active">1</property>
   <property name="sum">1</property>
   <property name="internal_added">237</property>
  </transition>
  <transition id="transition18">
   <property name="a_track">0</property>
   <property name="b_track">19</property>
   <property name="mlt_service">mix</property>
   <property name="always_active">1</property>
   <property name="sum">1</property>
   <property name="internal_added">237</property>
  </transition>
  <transition id="transition19">
   <property name="a_track">0</property>
   <property name="b_track">20</property>
   <property name="mlt_service">mix</property>
   <property name="always_active">1</property>
   <property name="sum">1</property>
   <property name="internal_added">237</property>
  </transition>
  <transition id="transition20">
   <property name="a_track">0</property>
   <property name="b_track">21</property>
   <property name="mlt_service">mix</property>
   <property name="always_active">1</property>
   <property name="sum">1</property>
   <property name="internal_added">237</property>
  </transition>
  <transition id="transition21">
   <property name="a_track">0</property>
   <property name="b_track">22</property>
   <property name="mlt_service">mix</property>
   <property name="always_active">1</property>
   <property name="sum">1</property>
   <property name="internal_added">237</property>
  </transition>
  <transition id="transition22" in="13582" out="13796">
   <property name="a_track">17</property>
   <property name="b_track">19</property>
   <property name="start">0/0:100%x100%</property>
   <property name="factory">loader</property>
   <property name="aligned">1</property>
   <property name="progressive">1</property>
   <property name="mlt_service">composite</property>
   <property name="automatic">1</property>
   <property name="kdenlive_id">composite</property>
   <property name="force_track">1</property>
   <property name="deinterlace">0</property>
   <property name="distort">0</property>
   <property name="fill">1</property>
   <property name="geometry">0=0/427:1920x1080:100;214=0/71:1920x1080:100</property>
   <property name="halign">centre</property>
   <property name="luma_invert">0</property>
   <property name="operator">over</property>
   <property name="softness">0</property>
   <property name="valign">middle</property>
  </transition>
  <transition id="transition23" in="6493" out="6542">
   <property name="a_track">14</property>
   <property name="b_track">15</property>
   <property name="factory">loader</property>
   <property name="mlt_service">luma</property>
   <property name="kdenlive_id">dissolve</property>
   <property name="force_track">0</property>
   <property name="reverse">0</property>
  </transition>
  <transition id="transition24" in="1706" out="1791">
   <property name="a_track">11</property>
   <property name="b_track">12</property>
   <property name="start">0/0:100%x100%</property>
   <property name="factory">loader</property>
   <property name="aligned">1</property>
   <property name="progressive">1</property>
   <property name="mlt_service">composite</property>
   <property name="automatic">1</property>
   <property name="kdenlive_id">composite</property>
   <property name="force_track">0</property>
   <property name="deinterlace">0</property>
   <property name="distort">0</property>
   <property name="fill">1</property>
   <property name="geometry">0=1796/426:384x216:100;9=1731/420:384x216:100;10=1711/416:384x216:100;16=1651/401:384x216:100;19=1642/400:384x216:100;24=1576/400:384x216:100;31=1534/396:384x216:100;35=1487/394:384x216:100;41=1427/385:384x216:100;46=1383/390:384x216:100;66=1370/391:346x194:100;76=1395/383:326x184:100;85=1414/379:307x173:100</property>
   <property name="halign">centre</property>
   <property name="luma_invert">0</property>
   <property name="operator">over</property>
   <property name="softness">0</property>
   <property name="valign">middle</property>
   <property name="luma"/>
  </transition>
  <transition id="transition25" in="423" out="474">
   <property name="a_track">11</property>
   <property name="b_track">21</property>
   <property name="start">0/0:100%x100%</property>
   <property name="factory">loader</property>
   <property name="aligned">1</property>
   <property name="progressive">1</property>
   <property name="mlt_service">composite</property>
   <property name="automatic">1</property>
   <property name="kdenlive_id">composite</property>
   <property name="force_track">1</property>
   <property name="deinterlace">0</property>
   <property name="distort">0</property>
   <property name="fill">1</property>
   <property name="geometry">0=65/804:480x270:100;51=65/804:480x270:0</property>
   <property name="halign">centre</property>
   <property name="luma">/home/bordun/.local/share/kdenlive/lumas/HD/159178-linear_x_-_16-9.pgm</property>
   <property name="luma_invert">0</property>
   <property name="operator">over</property>
   <property name="softness">0,3</property>
   <property name="valign">middle</property>
  </transition>
  <transition id="transition26" in="121" out="172">
   <property name="a_track">11</property>
   <property name="b_track">21</property>
   <property name="start">0/0:100%x100%</property>
   <property name="factory">loader</property>
   <property name="aligned">1</property>
   <property name="progressive">1</property>
   <property name="mlt_service">composite</property>
   <property name="automatic">1</property>
   <property name="kdenlive_id">composite</property>
   <property name="force_track">1</property>
   <property name="deinterlace">0</property>
   <property name="distort">0</property>
   <property name="fill">1</property>
   <property name="geometry">0=65/804:480x270:0;32=65/804:480x270:100</property>
   <property name="halign">centre</property>
   <property name="luma">/home/bordun/.local/share/kdenlive/lumas/HD/159178-linear_x_-_16-9.pgm</property>
   <property name="luma_invert">0</property>
   <property name="operator">over</property>
   <property name="softness">0,3</property>
   <property name="valign">middle</property>
  </transition>
  <transition id="transition27" in="173" out="422">
   <property name="a_track">11</property>
   <property name="b_track">21</property>
   <property name="start">0/0:100%x100%</property>
   <property name="factory">loader</property>
   <property name="aligned">1</property>
   <property name="progressive">1</property>
   <property name="mlt_service">composite</property>
   <property name="automatic">1</property>
   <property name="kdenlive_id">composite</property>
   <property name="force_track">1</property>
   <property name="deinterlace">0</property>
   <property name="distort">0</property>
   <property name="fill">1</property>
   <property name="geometry">65/804:480x270:100</property>
   <property name="halign">centre</property>
   <property name="luma">/home/bordun/.local/share/kdenlive/lumas/HD/159178-linear_x_-_16-9.pgm</property>
   <property name="luma_invert">0</property>
   <property name="operator">over</property>
   <property name="softness">0,3</property>
   <property name="valign">middle</property>
  </transition>
  <transition id="transition28" in="688" out="856">
   <property name="a_track">11</property>
   <property name="b_track">21</property>
   <property name="start">0/0:100%x100%</property>
   <property name="factory">loader</property>
   <property name="aligned">1</property>
   <property name="progressive">1</property>
   <property name="mlt_service">composite</property>
   <property name="automatic">1</property>
   <property name="kdenlive_id">composite</property>
   <property name="force_track">1</property>
   <property name="deinterlace">0</property>
   <property name="distort">0</property>
   <property name="fill">1</property>
   <property name="geometry">65/804:480x270:100</property>
   <property name="halign">centre</property>
   <property name="luma">/home/bordun/.local/share/kdenlive/lumas/HD/159178-linear_x_-_16-9.pgm</property>
   <property name="luma_invert">0</property>
   <property name="operator">over</property>
   <property name="softness">0,3</property>
   <property name="valign">middle</property>
  </transition>
  <transition id="transition29" in="636" out="687">
   <property name="a_track">11</property>
   <property name="b_track">21</property>
   <property name="start">0/0:100%x100%</property>
   <property name="factory">loader</property>
   <property name="aligned">1</property>
   <property name="progressive">1</property>
   <property name="mlt_service">composite</property>
   <property name="automatic">1</property>
   <property name="kdenlive_id">composite</property>
   <property name="force_track">1</property>
   <property name="deinterlace">0</property>
   <property name="distort">0</property>
   <property name="fill">1</property>
   <property name="geometry">0=65/804:480x270:0;32=65/804:480x270:100</property>
   <property name="halign">centre</property>
   <property name="luma">/home/bordun/.local/share/kdenlive/lumas/HD/159178-linear_x_-_16-9.pgm</property>
   <property name="luma_invert">0</property>
   <property name="operator">over</property>
   <property name="softness">0,3</property>
   <property name="valign">middle</property>
  </transition>
  <transition id="transition30" in="857" out="908">
   <property name="a_track">11</property>
   <property name="b_track">21</property>
   <property name="start">0/0:100%x100%</property>
   <property name="factory">loader</property>
   <property name="aligned">1</property>
   <property name="progressive">1</property>
   <property name="mlt_service">composite</property>
   <property name="automatic">1</property>
   <property name="kdenlive_id">composite</property>
   <property name="force_track">1</property>
   <property name="deinterlace">0</property>
   <property name="distort">0</property>
   <property name="fill">1</property>
   <property name="geometry">0=65/804:480x270:100;51=65/804:480x270:0</property>
   <property name="halign">centre</property>
   <property name="luma">/home/bordun/.local/share/kdenlive/lumas/HD/159178-linear_x_-_16-9.pgm</property>
   <property name="luma_invert">0</property>
   <property name="operator">over</property>
   <property name="softness">0,3</property>
   <property name="valign">middle</property>
  </transition>
  <transition id="transition31" in="121" out="172">
   <property name="a_track">11</property>
   <property name="b_track">22</property>
   <property name="start">0/0:100%x100%</property>
   <property name="factory">loader</property>
   <property name="aligned">1</property>
   <property name="progressive">1</property>
   <property name="mlt_service">composite</property>
   <property name="automatic">1</property>
   <property name="kdenlive_id">composite</property>
   <property name="force_track">1</property>
   <property name="deinterlace">0</property>
   <property name="distort">0</property>
   <property name="fill">1</property>
   <property name="geometry">0=0/0:1920x1080:0;22=0/10:1920x1080:0;43=0/0:1920x1080:100</property>
   <property name="halign">centre</property>
   <property name="luma_invert">0</property>
   <property name="operator">over</property>
   <property name="softness">0</property>
   <property name="valign">middle</property>
  </transition>
  <transition id="transition32" in="173" out="422">
   <property name="a_track">11</property>
   <property name="b_track">22</property>
   <property name="start">0/0:100%x100%</property>
   <property name="factory">loader</property>
   <property name="aligned">1</property>
   <property name="progressive">1</property>
   <property name="mlt_service">composite</property>
   <property name="automatic">1</property>
   <property name="kdenlive_id">composite</property>
   <property name="force_track">1</property>
   <property name="deinterlace">0</property>
   <property name="distort">0</property>
   <property name="fill">1</property>
   <property name="geometry">0/0:1920x1080:100</property>
   <property name="halign">centre</property>
   <property name="luma_invert">0</property>
   <property name="operator">over</property>
   <property name="softness">0</property>
   <property name="valign">middle</property>
  </transition>
  <transition id="transition33" in="423" out="474">
   <property name="a_track">11</property>
   <property name="b_track">22</property>
   <property name="start">0/0:100%x100%</property>
   <property name="factory">loader</property>
   <property name="aligned">1</property>
   <property name="progressive">1</property>
   <property name="mlt_service">composite</property>
   <property name="automatic">1</property>
   <property name="kdenlive_id">composite</property>
   <property name="force_track">1</property>
   <property name="deinterlace">0</property>
   <property name="distort">0</property>
   <property name="fill">1</property>
   <property name="geometry">0=0/0:1920x1080:100;22=0/10:1920x1080:0;51=0/0:1920x1080:0</property>
   <property name="halign">centre</property>
   <property name="luma_invert">0</property>
   <property name="operator">over</property>
   <property name="softness">0</property>
   <property name="valign">middle</property>
  </transition>
  <transition id="transition34" in="636" out="687">
   <property name="a_track">11</property>
   <property name="b_track">22</property>
   <property name="start">0/0:100%x100%</property>
   <property name="factory">loader</property>
   <property name="aligned">1</property>
   <property name="progressive">1</property>
   <property name="mlt_service">composite</property>
   <property name="automatic">1</property>
   <property name="kdenlive_id">composite</property>
   <property name="force_track">1</property>
   <property name="deinterlace">0</property>
   <property name="distort">0</property>
   <property name="fill">1</property>
   <property name="geometry">0=0/0:1920x1080:0;22=0/10:1920x1080:0;43=0/0:1920x1080:100</property>
   <property name="halign">centre</property>
   <property name="luma_invert">0</property>
   <property name="operator">over</property>
   <property name="softness">0</property>
   <property name="valign">middle</property>
  </transition>
  <transition id="transition35" in="857" out="908">
   <property name="a_track">11</property>
   <property name="b_track">22</property>
   <property name="start">0/0:100%x100%</property>
   <property name="factory">loader</property>
   <property name="aligned">1</property>
   <property name="progressive">1</property>
   <property name="mlt_service">composite</property>
   <property name="automatic">1</property>
   <property name="kdenlive_id">composite</property>
   <property name="force_track">1</property>
   <property name="deinterlace">0</property>
   <property name="distort">0</property>
   <property name="fill">1</property>
   <property name="geometry">0=0/0:1920x1080:100;22=0/10:1920x1080:0;51=0/0:1920x1080:0</property>
   <property name="halign">centre</property>
   <property name="luma_invert">0</property>
   <property name="operator">over</property>
   <property name="softness">0</property>
   <property name="valign">middle</property>
  </transition>
  <transition id="transition36" in="688" out="856">
   <property name="a_track">11</property>
   <property name="b_track">22</property>
   <property name="start">0/0:100%x100%</property>
   <property name="factory">loader</property>
   <property name="aligned">1</property>
   <property name="progressive">1</property>
   <property name="mlt_service">composite</property>
   <property name="automatic">1</property>
   <property name="kdenlive_id">composite</property>
   <property name="force_track">1</property>
   <property name="deinterlace">0</property>
   <property name="distort">0</property>
   <property name="fill">1</property>
   <property name="geometry">0/0:1920x1080:100</property>
   <property name="halign">centre</property>
   <property name="luma_invert">0</property>
   <property name="operator">over</property>
   <property name="softness">0</property>
   <property name="valign">middle</property>
  </transition>
  <transition id="transition37" in="1586" out="1791">
   <property name="a_track">10</property>
   <property name="b_track">11</property>
   <property name="start">0/0:100%x100%</property>
   <property name="factory">loader</property>
   <property name="aligned">1</property>
   <property name="progressive">1</property>
   <property name="mlt_service">composite</property>
   <property name="automatic">1</property>
   <property name="kdenlive_id">composite</property>
   <property name="force_track">1</property>
   <property name="deinterlace">0</property>
   <property name="distort">0</property>
   <property name="fill">1</property>
   <property name="geometry">0%/0%:100%x100%:100</property>
   <property name="halign">centre</property>
   <property name="luma_invert">0</property>
   <property name="operator">over</property>
   <property name="softness">0</property>
   <property name="valign">middle</property>
  </transition>
  <transition id="transition38" in="5840" out="5855">
   <property name="a_track">8</property>
   <property name="b_track">9</property>
   <property name="start">0/0:100%x100%</property>
   <property name="factory">loader</property>
   <property name="aligned">1</property>
   <property name="progressive">1</property>
   <property name="mlt_service">composite</property>
   <property name="kdenlive_id">composite</property>
   <property name="force_track">0</property>
   <property name="deinterlace">0</property>
   <property name="distort">0</property>
   <property name="fill">1</property>
   <property name="geometry">0%/0%:100%x100%:100</property>
   <property name="halign">centre</property>
   <property name="luma_invert">0</property>
   <property name="operator">over</property>
   <property name="softness">0</property>
   <property name="valign">middle</property>
  </transition>
  <transition id="transition39" in="5869" out="5890">
   <property name="a_track">8</property>
   <property name="b_track">9</property>
   <property name="start">0/0:100%x100%</property>
   <property name="factory">loader</property>
   <property name="aligned">1</property>
   <property name="progressive">1</property>
   <property name="mlt_service">composite</property>
   <property name="kdenlive_id">composite</property>
   <property name="force_track">0</property>
   <property name="deinterlace">0</property>
   <property name="distort">0</property>
   <property name="fill">1</property>
   <property name="geometry">0%/0%:100%x100%:100</property>
   <property name="halign">centre</property>
   <property name="luma_invert">0</property>
   <property name="operator">over</property>
   <property name="softness">0</property>
   <property name="valign">middle</property>
  </transition>
  <transition id="transition40" in="5905" out="5948">
   <property name="a_track">8</property>
   <property name="b_track">9</property>
   <property name="start">0/0:100%x100%</property>
   <property name="factory">loader</property>
   <property name="aligned">1</property>
   <property name="progressive">1</property>
   <property name="mlt_service">composite</property>
   <property name="kdenlive_id">composite</property>
   <property name="force_track">0</property>
   <property name="deinterlace">0</property>
   <property name="distort">0</property>
   <property name="fill">1</property>
   <property name="geometry">0%/0%:100%x100%:100</property>
   <property name="halign">centre</property>
   <property name="luma_invert">0</property>
   <property name="operator">over</property>
   <property name="softness">0</property>
   <property name="valign">middle</property>
  </transition>
  <transition id="transition41" in="5998" out="6002">
   <property name="a_track">8</property>
   <property name="b_track">9</property>
   <property name="start">0/0:100%x100%</property>
   <property name="factory">loader</property>
   <property name="aligned">1</property>
   <property name="progressive">1</property>
   <property name="mlt_service">composite</property>
   <property name="kdenlive_id">composite</property>
   <property name="force_track">0</property>
   <property name="deinterlace">0</property>
   <property name="distort">0</property>
   <property name="fill">1</property>
   <property name="geometry">0%/0%:100%x100%:100</property>
   <property name="halign">centre</property>
   <property name="luma_invert">0</property>
   <property name="operator">over</property>
   <property name="softness">0</property>
   <property name="valign">middle</property>
   <property name="automatic">0</property>
   <property name="luma"/>
  </transition>
  <transition id="transition42" in="8947" out="9004">
   <property name="a_track">7</property>
   <property name="b_track">8</property>
   <property name="start">0/0:100%x100%</property>
   <property name="factory">loader</property>
   <property name="aligned">1</property>
   <property name="progressive">1</property>
   <property name="mlt_service">composite</property>
   <property name="kdenlive_id">composite</property>
   <property name="force_track">0</property>
   <property name="deinterlace">0</property>
   <property name="distort">0</property>
   <property name="fill">1</property>
   <property name="geometry">0%/0%:100%x100%:100</property>
   <property name="halign">centre</property>
   <property name="luma_invert">0</property>
   <property name="operator">over</property>
   <property name="softness">0</property>
   <property name="valign">middle</property>
  </transition>
  <transition id="transition43" in="5604" out="6002">
   <property name="a_track">7</property>
   <property name="b_track">8</property>
   <property name="version">0,2</property>
   <property name="mlt_service">frei0r.value</property>
   <property name="force_track">1</property>
  </transition>
  <transition id="transition44" in="6359" out="6497">
   <property name="a_track">6</property>
   <property name="b_track">7</property>
   <property name="start">0/0:100%x100%</property>
   <property name="factory">loader</property>
   <property name="aligned">1</property>
   <property name="progressive">1</property>
   <property name="mlt_service">composite</property>
   <property name="kdenlive_id">composite</property>
   <property name="force_track">0</property>
   <property name="deinterlace">0</property>
   <property name="distort">0</property>
   <property name="fill">1</property>
   <property name="geometry">0%/0%:100%x100%:100</property>
   <property name="halign">centre</property>
   <property name="luma_invert">0</property>
   <property name="operator">over</property>
   <property name="softness">0</property>
   <property name="valign">middle</property>
   <property name="automatic">0</property>
   <property name="luma"/>
  </transition>
  <transition id="transition45" in="6622" out="6754">
   <property name="a_track">6</property>
   <property name="b_track">7</property>
   <property name="start">0/0:100%x100%</property>
   <property name="factory">loader</property>
   <property name="aligned">1</property>
   <property name="progressive">1</property>
   <property name="mlt_service">composite</property>
   <property name="kdenlive_id">composite</property>
   <property name="force_track">0</property>
   <property name="deinterlace">0</property>
   <property name="distort">0</property>
   <property name="fill">1</property>
   <property name="geometry">0%/0%:100%x100%:100</property>
   <property name="halign">centre</property>
   <property name="luma_invert">0</property>
   <property name="operator">over</property>
   <property name="softness">0</property>
   <property name="valign">middle</property>
   <property name="automatic">0</property>
   <property name="luma"/>
  </transition>
  <transition id="transition46" in="8069" out="8101">
   <property name="a_track">6</property>
   <property name="b_track">7</property>
   <property name="start">0/0:100%x100%</property>
   <property name="factory">loader</property>
   <property name="aligned">1</property>
   <property name="progressive">1</property>
   <property name="mlt_service">composite</property>
   <property name="kdenlive_id">composite</property>
   <property name="force_track">0</property>
   <property name="deinterlace">0</property>
   <property name="distort">0</property>
   <property name="fill">1</property>
   <property name="geometry">0%/0%:100%x100%:100</property>
   <property name="halign">centre</property>
   <property name="luma_invert">0</property>
   <property name="operator">over</property>
   <property name="softness">0</property>
   <property name="valign">middle</property>
   <property name="automatic">0</property>
   <property name="luma"/>
  </transition>
  <transition id="transition47" in="8139" out="8172">
   <property name="a_track">6</property>
   <property name="b_track">7</property>
   <property name="start">0/0:100%x100%</property>
   <property name="factory">loader</property>
   <property name="aligned">1</property>
   <property name="progressive">1</property>
   <property name="mlt_service">composite</property>
   <property name="kdenlive_id">composite</property>
   <property name="force_track">0</property>
   <property name="deinterlace">0</property>
   <property name="distort">0</property>
   <property name="fill">1</property>
   <property name="geometry">0%/0%:100%x100%:100</property>
   <property name="halign">centre</property>
   <property name="luma_invert">0</property>
   <property name="operator">over</property>
   <property name="softness">0</property>
   <property name="valign">middle</property>
  </transition>
  <transition id="transition48" in="8729" out="8817">
   <property name="a_track">6</property>
   <property name="b_track">7</property>
   <property name="start">0/0:100%x100%</property>
   <property name="factory">loader</property>
   <property name="aligned">1</property>
   <property name="progressive">1</property>
   <property name="mlt_service">composite</property>
   <property name="kdenlive_id">composite</property>
   <property name="force_track">1</property>
   <property name="deinterlace">0</property>
   <property name="distort">0</property>
   <property name="fill">1</property>
   <property name="geometry">0%/0%:100%x100%:100</property>
   <property name="halign">centre</property>
   <property name="luma_invert">0</property>
   <property name="operator">over</property>
   <property name="softness">0</property>
   <property name="valign">middle</property>
  </transition>
  <transition id="transition49" in="9188" out="9285">
   <property name="a_track">6</property>
   <property name="b_track">7</property>
   <property name="start">0/0:100%x100%</property>
   <property name="factory">loader</property>
   <property name="aligned">1</property>
   <property name="progressive">1</property>
   <property name="mlt_service">composite</property>
   <property name="kdenlive_id">composite</property>
   <property name="force_track">1</property>
   <property name="deinterlace">0</property>
   <property name="distort">0</property>
   <property name="fill">1</property>
   <property name="geometry">0%/0%:100%x100%:100</property>
   <property name="halign">centre</property>
   <property name="luma_invert">0</property>
   <property name="operator">over</property>
   <property name="softness">0</property>
   <property name="valign">middle</property>
   <property name="automatic">0</property>
   <property name="luma"/>
  </transition>
  <transition id="transition50" in="6498" out="6621">
   <property name="a_track">6</property>
   <property name="b_track">8</property>
   <property name="start">0/0:100%x100%</property>
   <property name="factory">loader</property>
   <property name="aligned">1</property>
   <property name="progressive">1</property>
   <property name="mlt_service">composite</property>
   <property name="kdenlive_id">composite</property>
   <property name="force_track">1</property>
   <property name="deinterlace">0</property>
   <property name="distort">0</property>
   <property name="fill">1</property>
   <property name="geometry">0%/0%:100%x100%:100</property>
   <property name="halign">centre</property>
   <property name="luma_invert">0</property>
   <property name="operator">over</property>
   <property name="softness">0</property>
   <property name="valign">middle</property>
  </transition>
  <transition id="transition51" in="8102" out="8138">
   <property name="a_track">6</property>
   <property name="b_track">8</property>
   <property name="start">0/0:100%x100%</property>
   <property name="factory">loader</property>
   <property name="aligned">1</property>
   <property name="progressive">1</property>
   <property name="mlt_service">composite</property>
   <property name="kdenlive_id">composite</property>
   <property name="force_track">1</property>
   <property name="deinterlace">0</property>
   <property name="distort">0</property>
   <property name="fill">1</property>
   <property name="geometry">0%/0%:100%x100%:100</property>
   <property name="halign">centre</property>
   <property name="luma_invert">0</property>
   <property name="operator">over</property>
   <property name="softness">0</property>
   <property name="valign">middle</property>
  </transition>
  <transition id="transition52" in="8173" out="8186">
   <property name="a_track">6</property>
   <property name="b_track">8</property>
   <property name="start">0/0:100%x100%</property>
   <property name="factory">loader</property>
   <property name="aligned">1</property>
   <property name="progressive">1</property>
   <property name="mlt_service">composite</property>
   <property name="kdenlive_id">composite</property>
   <property name="force_track">1</property>
   <property name="deinterlace">0</property>
   <property name="distort">0</property>
   <property name="fill">1</property>
   <property name="geometry">0%/0%:100%x100%:100</property>
   <property name="halign">centre</property>
   <property name="luma_invert">0</property>
   <property name="operator">over</property>
   <property name="softness">0</property>
   <property name="valign">middle</property>
   <property name="automatic">0</property>
   <property name="luma"/>
  </transition>
  <transition id="transition53" in="8275" out="8313">
   <property name="a_track">6</property>
   <property name="b_track">8</property>
   <property name="start">0/0:100%x100%</property>
   <property name="factory">loader</property>
   <property name="aligned">1</property>
   <property name="progressive">1</property>
   <property name="mlt_service">composite</property>
   <property name="kdenlive_id">composite</property>
   <property name="force_track">1</property>
   <property name="deinterlace">0</property>
   <property name="distort">0</property>
   <property name="fill">1</property>
   <property name="geometry">0%/0%:100%x100%:100</property>
   <property name="halign">centre</property>
   <property name="luma_invert">0</property>
   <property name="operator">over</property>
   <property name="softness">0</property>
   <property name="valign">middle</property>
  </transition>
  <transition id="transition54" in="8526" out="8613">
   <property name="a_track">6</property>
   <property name="b_track">8</property>
   <property name="start">0/0:100%x100%</property>
   <property name="factory">loader</property>
   <property name="aligned">1</property>
   <property name="progressive">1</property>
   <property name="mlt_service">composite</property>
   <property name="kdenlive_id">composite</property>
   <property name="force_track">1</property>
   <property name="deinterlace">0</property>
   <property name="distort">0</property>
   <property name="fill">1</property>
   <property name="geometry">0%/0%:100%x100%:100</property>
   <property name="halign">centre</property>
   <property name="luma_invert">0</property>
   <property name="operator">over</property>
   <property name="softness">0</property>
   <property name="valign">middle</property>
  </transition>
  <transition id="transition55" in="11306" out="11411">
   <property name="a_track">6</property>
   <property name="b_track">8</property>
   <property name="start">0/0:100%x100%</property>
   <property name="factory">loader</property>
   <property name="aligned">1</property>
   <property name="progressive">1</property>
   <property name="mlt_service">composite</property>
   <property name="kdenlive_id">composite</property>
   <property name="force_track">1</property>
   <property name="deinterlace">0</property>
   <property name="distort">0</property>
   <property name="fill">1</property>
   <property name="geometry">0%/0%:100%x100%:100</property>
   <property name="halign">centre</property>
   <property name="luma_invert">0</property>
   <property name="operator">over</property>
   <property name="softness">0</property>
   <property name="valign">middle</property>
  </transition>
  <transition id="transition56" in="11606" out="11653">
   <property name="a_track">6</property>
   <property name="b_track">8</property>
   <property name="start">0/0:100%x100%</property>
   <property name="factory">loader</property>
   <property name="aligned">1</property>
   <property name="progressive">1</property>
   <property name="mlt_service">composite</property>
   <property name="kdenlive_id">composite</property>
   <property name="force_track">1</property>
   <property name="deinterlace">0</property>
   <property name="distort">0</property>
   <property name="fill">1</property>
   <property name="geometry">0%/0%:100%x100%:100</property>
   <property name="halign">centre</property>
   <property name="luma_invert">0</property>
   <property name="operator">over</property>
   <property name="softness">0</property>
   <property name="valign">middle</property>
   <property name="automatic">0</property>
   <property name="luma"/>
  </transition>
  <transition id="transition57" in="13440" out="13581">
   <property name="a_track">6</property>
   <property name="b_track">8</property>
   <property name="start">0/0:100%x100%</property>
   <property name="factory">loader</property>
   <property name="aligned">1</property>
   <property name="progressive">1</property>
   <property name="mlt_service">composite</property>
   <property name="kdenlive_id">composite</property>
   <property name="force_track">1</property>
   <property name="deinterlace">0</property>
   <property name="distort">0</property>
   <property name="fill">1</property>
   <property name="geometry">0%/0%:100%x100%:100</property>
   <property name="halign">centre</property>
   <property name="luma_invert">0</property>
   <property name="operator">over</property>
   <property name="softness">0</property>
   <property name="valign">middle</property>
  </transition>
  <transition id="transition58" in="12279" out="12297">
   <property name="a_track">6</property>
   <property name="b_track">8</property>
   <property name="start">0/0:100%x100%</property>
   <property name="factory">loader</property>
   <property name="aligned">1</property>
   <property name="progressive">1</property>
   <property name="mlt_service">composite</property>
   <property name="kdenlive_id">composite</property>
   <property name="force_track">1</property>
   <property name="deinterlace">0</property>
   <property name="distort">0</property>
   <property name="fill">1</property>
   <property name="geometry">0%/0%:100%x100%:100</property>
   <property name="halign">centre</property>
   <property name="luma_invert">0</property>
   <property name="operator">over</property>
   <property name="softness">0</property>
   <property name="valign">middle</property>
   <property name="automatic">0</property>
   <property name="luma"/>
  </transition>
 </tractor>
</mlt>
