<?xml version='1.0' encoding='utf-8'?>
<mlt title="Anonymous Submission" LC_NUMERIC="fr_FR.UTF-8" producer="main bin" version="6.13.0" root="/media/bordun/plagiat/Clip02_RespecteLaPuissancePapale/Video">
 <profile frame_rate_num="50" sample_aspect_num="1" display_aspect_den="9" colorspace="709" progressive="1" description="HD 1080p 50 fps" display_aspect_num="16" frame_rate_den="1" width="1920" height="1080" sample_aspect_den="1"/>
 <producer title="Anonymous Submission" id="1" in="0" out="14561">
  <property name="length">00:04:51:12</property>
  <property name="eof">pause</property>
  <property name="resource">/media/bordun/plagiat/2018-12-10_Plagiat_RespecteLaPuissancePapale/Carte_1/CAM1_2018-12-10_1541_C0000.mov</property>
  <property name="audio_index">2</property>
  <property name="video_index">1</property>
  <property name="mute_on_pause">1</property>
  <property name="mlt_service">avformat-novalidate</property>
  <property name="meta.media.nb_streams">3</property>
  <property name="meta.media.1.stream.type">video</property>
  <property name="meta.media.1.stream.frame_rate">50</property>
  <property name="meta.media.1.stream.sample_aspect_ratio">1</property>
  <property name="meta.media.1.codec.width">1920</property>
  <property name="meta.media.1.codec.height">1080</property>
  <property name="meta.media.1.codec.rotate">0</property>
  <property name="meta.media.1.codec.frame_rate">5000</property>
  <property name="meta.media.1.codec.pix_fmt">yuv422p10le</property>
  <property name="meta.media.1.codec.sample_aspect_ratio">0</property>
  <property name="meta.media.1.codec.colorspace">709</property>
  <property name="meta.media.1.codec.name">prores</property>
  <property name="meta.media.1.codec.long_name">ProRes (iCodec Pro)</property>
  <property name="meta.media.1.codec.bit_rate">366959179</property>
  <property name="meta.attr.1.stream.creation_time.markup">2018-12-10T15:41:17.000000Z</property>
  <property name="meta.attr.1.stream.language.markup">eng</property>
  <property name="meta.attr.1.stream.handler_name.markup">Apple Video Media Handler</property>
  <property name="meta.attr.1.stream.encoder.markup">Apple ProRes 422 HQ</property>
  <property name="meta.attr.1.stream.timecode.markup">15:41:17:21</property>
  <property name="meta.media.2.stream.type">audio</property>
  <property name="meta.media.2.codec.sample_fmt">s32</property>
  <property name="meta.media.2.codec.sample_rate">48000</property>
  <property name="meta.media.2.codec.channels">2</property>
  <property name="meta.media.2.codec.name">pcm_s24le</property>
  <property name="meta.media.2.codec.long_name">PCM signed 24-bit little-endian</property>
  <property name="meta.media.2.codec.bit_rate">2304000</property>
  <property name="meta.attr.2.stream.creation_time.markup">2018-12-10T15:41:17.000000Z</property>
  <property name="meta.attr.2.stream.language.markup">eng</property>
  <property name="meta.attr.2.stream.handler_name.markup">Apple Sound Media Handler</property>
  <property name="meta.attr.2.stream.timecode.markup">15:41:17:21</property>
  <property name="meta.attr.com.apple.proapps.manufacturer.markup">Blackmagic Design</property>
  <property name="meta.attr.com.apple.proapps.cameraName.markup">CAM1</property>
  <property name="meta.attr.com.apple.proapps.isGood.markup">0</property>
  <property name="meta.attr.com.apple.proapps.customgamma.markup">com.blackmagic-design.cinemacamera.filmlog</property>
  <property name="meta.attr.com.blackmagic-design.cinemacamera.uuid.markup">18E5E00548F94923B646613A73C01B56</property>
  <property name="meta.attr.creation_time.markup">2018-12-10T15:41:17.000000Z</property>
  <property name="meta.attr.timecode.markup">15:41:17:21</property>
  <property name="seekable">1</property>
  <property name="meta.media.sample_aspect_num">1</property>
  <property name="meta.media.sample_aspect_den">1</property>
  <property name="aspect_ratio">1</property>
  <property name="kdenlive:folderid">9</property>
  <property name="kdenlive:file_size">13444313961</property>
  <property name="kdenlive:file_hash">ef25fabf181f2da437febd9d2ce92b72</property>
  <property name="global_feed">1</property>
  <property name="meta.media.frame_rate_num">50</property>
  <property name="meta.media.frame_rate_den">1</property>
  <property name="meta.media.colorspace">709</property>
  <property name="meta.media.color_trc">2</property>
  <property name="meta.media.width">1920</property>
  <property name="meta.media.height">1080</property>
  <property name="meta.media.top_field_first">0</property>
  <property name="meta.media.progressive">1</property>
 </producer>
 <producer title="Anonymous Submission" id="5" in="0" out="19246">
  <property name="length">00:06:24:47</property>
  <property name="eof">pause</property>
  <property name="resource">/media/bordun/plagiat/2018-12-10_Plagiat_RespecteLaPuissancePapale/Carte_2/CAM1_2018-12-10_1629_C0000.mov</property>
  <property name="audio_index">2</property>
  <property name="video_index">1</property>
  <property name="mute_on_pause">1</property>
  <property name="mlt_service">avformat-novalidate</property>
  <property name="meta.media.nb_streams">3</property>
  <property name="meta.media.1.stream.type">video</property>
  <property name="meta.media.1.stream.frame_rate">50</property>
  <property name="meta.media.1.stream.sample_aspect_ratio">1</property>
  <property name="meta.media.1.codec.width">1920</property>
  <property name="meta.media.1.codec.height">1080</property>
  <property name="meta.media.1.codec.rotate">0</property>
  <property name="meta.media.1.codec.frame_rate">5000</property>
  <property name="meta.media.1.codec.pix_fmt">yuv422p10le</property>
  <property name="meta.media.1.codec.sample_aspect_ratio">0</property>
  <property name="meta.media.1.codec.colorspace">709</property>
  <property name="meta.media.1.codec.name">prores</property>
  <property name="meta.media.1.codec.long_name">ProRes (iCodec Pro)</property>
  <property name="meta.media.1.codec.bit_rate">366959020</property>
  <property name="meta.attr.1.stream.creation_time.markup">2018-12-10T16:29:10.000000Z</property>
  <property name="meta.attr.1.stream.language.markup">eng</property>
  <property name="meta.attr.1.stream.handler_name.markup">Apple Video Media Handler</property>
  <property name="meta.attr.1.stream.encoder.markup">Apple ProRes 422 HQ</property>
  <property name="meta.attr.1.stream.timecode.markup">16:29:10:24</property>
  <property name="meta.media.2.stream.type">audio</property>
  <property name="meta.media.2.codec.sample_fmt">s32</property>
  <property name="meta.media.2.codec.sample_rate">48000</property>
  <property name="meta.media.2.codec.channels">2</property>
  <property name="meta.media.2.codec.name">pcm_s24le</property>
  <property name="meta.media.2.codec.long_name">PCM signed 24-bit little-endian</property>
  <property name="meta.media.2.codec.bit_rate">2304000</property>
  <property name="meta.attr.2.stream.creation_time.markup">2018-12-10T16:29:10.000000Z</property>
  <property name="meta.attr.2.stream.language.markup">eng</property>
  <property name="meta.attr.2.stream.handler_name.markup">Apple Sound Media Handler</property>
  <property name="meta.attr.2.stream.timecode.markup">16:29:10:24</property>
  <property name="meta.attr.com.apple.proapps.manufacturer.markup">Blackmagic Design</property>
  <property name="meta.attr.com.apple.proapps.cameraName.markup">CAM1</property>
  <property name="meta.attr.com.apple.proapps.isGood.markup">0</property>
  <property name="meta.attr.com.apple.proapps.customgamma.markup">com.blackmagic-design.cinemacamera.filmlog</property>
  <property name="meta.attr.com.blackmagic-design.cinemacamera.uuid.markup">18E5E00548F94923B646613A73C01B56</property>
  <property name="meta.attr.creation_time.markup">2018-12-10T16:29:10.000000Z</property>
  <property name="meta.attr.timecode.markup">16:29:10:24</property>
  <property name="seekable">1</property>
  <property name="meta.media.sample_aspect_num">1</property>
  <property name="meta.media.sample_aspect_den">1</property>
  <property name="aspect_ratio">1</property>
  <property name="kdenlive:folderid">9</property>
  <property name="kdenlive:file_size">17769713233</property>
  <property name="kdenlive:file_hash">40fd95546ae131f6c5881d8660dbcccc</property>
  <property name="global_feed">1</property>
  <property name="meta.media.frame_rate_num">50</property>
  <property name="meta.media.frame_rate_den">1</property>
  <property name="meta.media.colorspace">709</property>
  <property name="meta.media.color_trc">2</property>
  <property name="meta.media.width">1920</property>
  <property name="meta.media.height">1080</property>
  <property name="meta.media.top_field_first">0</property>
  <property name="meta.media.progressive">1</property>
 </producer>
 <producer title="Anonymous Submission" id="4" in="0" out="24870">
  <property name="length">00:08:17:21</property>
  <property name="eof">pause</property>
  <property name="resource">/media/bordun/plagiat/2018-12-10_Plagiat_RespecteLaPuissancePapale/Carte_1/CAM1_2018-12-10_1615_C0003.mov</property>
  <property name="audio_index">2</property>
  <property name="video_index">1</property>
  <property name="mute_on_pause">1</property>
  <property name="mlt_service">avformat-novalidate</property>
  <property name="meta.media.nb_streams">3</property>
  <property name="meta.media.1.stream.type">video</property>
  <property name="meta.media.1.stream.frame_rate">50</property>
  <property name="meta.media.1.stream.sample_aspect_ratio">1</property>
  <property name="meta.media.1.codec.width">1920</property>
  <property name="meta.media.1.codec.height">1080</property>
  <property name="meta.media.1.codec.rotate">0</property>
  <property name="meta.media.1.codec.frame_rate">5000</property>
  <property name="meta.media.1.codec.pix_fmt">yuv422p10le</property>
  <property name="meta.media.1.codec.sample_aspect_ratio">0</property>
  <property name="meta.media.1.codec.colorspace">709</property>
  <property name="meta.media.1.codec.name">prores</property>
  <property name="meta.media.1.codec.long_name">ProRes (iCodec Pro)</property>
  <property name="meta.media.1.codec.bit_rate">366958409</property>
  <property name="meta.attr.1.stream.creation_time.markup">2018-12-10T16:15:42.000000Z</property>
  <property name="meta.attr.1.stream.language.markup">eng</property>
  <property name="meta.attr.1.stream.handler_name.markup">Apple Video Media Handler</property>
  <property name="meta.attr.1.stream.encoder.markup">Apple ProRes 422 HQ</property>
  <property name="meta.attr.1.stream.timecode.markup">16:15:42:33</property>
  <property name="meta.media.2.stream.type">audio</property>
  <property name="meta.media.2.codec.sample_fmt">s32</property>
  <property name="meta.media.2.codec.sample_rate">48000</property>
  <property name="meta.media.2.codec.channels">2</property>
  <property name="meta.media.2.codec.name">pcm_s24le</property>
  <property name="meta.media.2.codec.long_name">PCM signed 24-bit little-endian</property>
  <property name="meta.media.2.codec.bit_rate">2304000</property>
  <property name="meta.attr.2.stream.creation_time.markup">2018-12-10T16:15:42.000000Z</property>
  <property name="meta.attr.2.stream.language.markup">eng</property>
  <property name="meta.attr.2.stream.handler_name.markup">Apple Sound Media Handler</property>
  <property name="meta.attr.2.stream.timecode.markup">16:15:42:33</property>
  <property name="meta.attr.com.apple.proapps.manufacturer.markup">Blackmagic Design</property>
  <property name="meta.attr.com.apple.proapps.cameraName.markup">CAM1</property>
  <property name="meta.attr.com.apple.proapps.isGood.markup">0</property>
  <property name="meta.attr.com.apple.proapps.customgamma.markup">com.blackmagic-design.cinemacamera.filmlog</property>
  <property name="meta.attr.com.blackmagic-design.cinemacamera.uuid.markup">18E5E00548F94923B646613A73C01B56</property>
  <property name="meta.attr.creation_time.markup">2018-12-10T16:15:42.000000Z</property>
  <property name="meta.attr.timecode.markup">16:15:42:33</property>
  <property name="seekable">1</property>
  <property name="meta.media.sample_aspect_num">1</property>
  <property name="meta.media.sample_aspect_den">1</property>
  <property name="aspect_ratio">1</property>
  <property name="kdenlive:folderid">9</property>
  <property name="kdenlive:file_size">22962054105</property>
  <property name="kdenlive:file_hash">c46129788c0a47f07299f13c18fcc857</property>
  <property name="global_feed">1</property>
  <property name="meta.media.frame_rate_num">50</property>
  <property name="meta.media.frame_rate_den">1</property>
  <property name="meta.media.colorspace">709</property>
  <property name="meta.media.color_trc">2</property>
  <property name="meta.media.width">1920</property>
  <property name="meta.media.height">1080</property>
  <property name="meta.media.top_field_first">0</property>
  <property name="meta.media.progressive">1</property>
 </producer>
 <producer title="Anonymous Submission" id="3" in="0" out="11635">
  <property name="length">00:03:52:36</property>
  <property name="eof">pause</property>
  <property name="resource">/media/bordun/plagiat/2018-12-10_Plagiat_RespecteLaPuissancePapale/Carte_1/CAM1_2018-12-10_1601_C0002.mov</property>
  <property name="audio_index">2</property>
  <property name="video_index">1</property>
  <property name="mute_on_pause">1</property>
  <property name="mlt_service">avformat-novalidate</property>
  <property name="meta.media.nb_streams">3</property>
  <property name="meta.media.1.stream.type">video</property>
  <property name="meta.media.1.stream.frame_rate">50</property>
  <property name="meta.media.1.stream.sample_aspect_ratio">1</property>
  <property name="meta.media.1.codec.width">1920</property>
  <property name="meta.media.1.codec.height">1080</property>
  <property name="meta.media.1.codec.rotate">0</property>
  <property name="meta.media.1.codec.frame_rate">5000</property>
  <property name="meta.media.1.codec.pix_fmt">yuv422p10le</property>
  <property name="meta.media.1.codec.sample_aspect_ratio">0</property>
  <property name="meta.media.1.codec.colorspace">709</property>
  <property name="meta.media.1.codec.name">prores</property>
  <property name="meta.media.1.codec.long_name">ProRes (iCodec Pro)</property>
  <property name="meta.media.1.codec.bit_rate">366958785</property>
  <property name="meta.attr.1.stream.creation_time.markup">2018-12-10T16:01:37.000000Z</property>
  <property name="meta.attr.1.stream.language.markup">eng</property>
  <property name="meta.attr.1.stream.handler_name.markup">Apple Video Media Handler</property>
  <property name="meta.attr.1.stream.encoder.markup">Apple ProRes 422 HQ</property>
  <property name="meta.attr.1.stream.timecode.markup">16:01:37:09</property>
  <property name="meta.media.2.stream.type">audio</property>
  <property name="meta.media.2.codec.sample_fmt">s32</property>
  <property name="meta.media.2.codec.sample_rate">48000</property>
  <property name="meta.media.2.codec.channels">2</property>
  <property name="meta.media.2.codec.name">pcm_s24le</property>
  <property name="meta.media.2.codec.long_name">PCM signed 24-bit little-endian</property>
  <property name="meta.media.2.codec.bit_rate">2304000</property>
  <property name="meta.attr.2.stream.creation_time.markup">2018-12-10T16:01:37.000000Z</property>
  <property name="meta.attr.2.stream.language.markup">eng</property>
  <property name="meta.attr.2.stream.handler_name.markup">Apple Sound Media Handler</property>
  <property name="meta.attr.2.stream.timecode.markup">16:01:37:09</property>
  <property name="meta.attr.com.apple.proapps.manufacturer.markup">Blackmagic Design</property>
  <property name="meta.attr.com.apple.proapps.cameraName.markup">CAM1</property>
  <property name="meta.attr.com.apple.proapps.isGood.markup">0</property>
  <property name="meta.attr.com.apple.proapps.customgamma.markup">com.blackmagic-design.cinemacamera.filmlog</property>
  <property name="meta.attr.com.blackmagic-design.cinemacamera.uuid.markup">18E5E00548F94923B646613A73C01B56</property>
  <property name="meta.attr.creation_time.markup">2018-12-10T16:01:37.000000Z</property>
  <property name="meta.attr.timecode.markup">16:01:37:09</property>
  <property name="seekable">1</property>
  <property name="meta.media.sample_aspect_num">1</property>
  <property name="meta.media.sample_aspect_den">1</property>
  <property name="aspect_ratio">1</property>
  <property name="kdenlive:folderid">9</property>
  <property name="kdenlive:file_size">10795373957</property>
  <property name="kdenlive:file_hash">c46cb1ab94a25f5ab196e5d4e002dba1</property>
  <property name="global_feed">1</property>
  <property name="meta.media.frame_rate_num">50</property>
  <property name="meta.media.frame_rate_den">1</property>
  <property name="meta.media.colorspace">709</property>
  <property name="meta.media.color_trc">2</property>
  <property name="meta.media.width">1920</property>
  <property name="meta.media.height">1080</property>
  <property name="meta.media.top_field_first">0</property>
  <property name="meta.media.progressive">1</property>
 </producer>
 <producer title="Anonymous Submission" id="2" in="0" out="11667">
  <property name="length">00:03:53:18</property>
  <property name="eof">pause</property>
  <property name="resource">/media/bordun/plagiat/2018-12-10_Plagiat_RespecteLaPuissancePapale/Carte_1/CAM1_2018-12-10_1552_C0001.mov</property>
  <property name="audio_index">2</property>
  <property name="video_index">1</property>
  <property name="mute_on_pause">1</property>
  <property name="mlt_service">avformat-novalidate</property>
  <property name="meta.media.nb_streams">3</property>
  <property name="meta.media.1.stream.type">video</property>
  <property name="meta.media.1.stream.frame_rate">50</property>
  <property name="meta.media.1.stream.sample_aspect_ratio">1</property>
  <property name="meta.media.1.codec.width">1920</property>
  <property name="meta.media.1.codec.height">1080</property>
  <property name="meta.media.1.codec.rotate">0</property>
  <property name="meta.media.1.codec.frame_rate">5000</property>
  <property name="meta.media.1.codec.pix_fmt">yuv422p10le</property>
  <property name="meta.media.1.codec.sample_aspect_ratio">0</property>
  <property name="meta.media.1.codec.colorspace">709</property>
  <property name="meta.media.1.codec.name">prores</property>
  <property name="meta.media.1.codec.long_name">ProRes (iCodec Pro)</property>
  <property name="meta.media.1.codec.bit_rate">366959328</property>
  <property name="meta.attr.1.stream.creation_time.markup">2018-12-10T15:52:13.000000Z</property>
  <property name="meta.attr.1.stream.language.markup">eng</property>
  <property name="meta.attr.1.stream.handler_name.markup">Apple Video Media Handler</property>
  <property name="meta.attr.1.stream.encoder.markup">Apple ProRes 422 HQ</property>
  <property name="meta.attr.1.stream.timecode.markup">15:52:13:35</property>
  <property name="meta.media.2.stream.type">audio</property>
  <property name="meta.media.2.codec.sample_fmt">s32</property>
  <property name="meta.media.2.codec.sample_rate">48000</property>
  <property name="meta.media.2.codec.channels">2</property>
  <property name="meta.media.2.codec.name">pcm_s24le</property>
  <property name="meta.media.2.codec.long_name">PCM signed 24-bit little-endian</property>
  <property name="meta.media.2.codec.bit_rate">2304000</property>
  <property name="meta.attr.2.stream.creation_time.markup">2018-12-10T15:52:13.000000Z</property>
  <property name="meta.attr.2.stream.language.markup">eng</property>
  <property name="meta.attr.2.stream.handler_name.markup">Apple Sound Media Handler</property>
  <property name="meta.attr.2.stream.timecode.markup">15:52:13:35</property>
  <property name="meta.attr.com.apple.proapps.manufacturer.markup">Blackmagic Design</property>
  <property name="meta.attr.com.apple.proapps.cameraName.markup">CAM1</property>
  <property name="meta.attr.com.apple.proapps.isGood.markup">0</property>
  <property name="meta.attr.com.apple.proapps.customgamma.markup">com.blackmagic-design.cinemacamera.filmlog</property>
  <property name="meta.attr.com.blackmagic-design.cinemacamera.uuid.markup">18E5E00548F94923B646613A73C01B56</property>
  <property name="meta.attr.creation_time.markup">2018-12-10T15:52:13.000000Z</property>
  <property name="meta.attr.timecode.markup">15:52:13:35</property>
  <property name="seekable">1</property>
  <property name="meta.media.sample_aspect_num">1</property>
  <property name="meta.media.sample_aspect_den">1</property>
  <property name="aspect_ratio">1</property>
  <property name="kdenlive:folderid">9</property>
  <property name="kdenlive:file_size">10772440985</property>
  <property name="kdenlive:file_hash">3b4484753689f48a337c1729ea18ad59</property>
  <property name="global_feed">1</property>
  <property name="meta.media.frame_rate_num">50</property>
  <property name="meta.media.frame_rate_den">1</property>
  <property name="meta.media.colorspace">709</property>
  <property name="meta.media.color_trc">2</property>
  <property name="meta.media.width">1920</property>
  <property name="meta.media.height">1080</property>
  <property name="meta.media.top_field_first">0</property>
  <property name="meta.media.progressive">1</property>
 </producer>
 <producer title="Anonymous Submission" id="6" in="0" out="4178">
  <property name="length">00:01:23:29</property>
  <property name="eof">pause</property>
  <property name="resource">/media/bordun/plagiat/2018-12-10_Plagiat_RespecteLaPuissancePapale/Carte_2/CAM1_2018-12-10_1638_C0001.mov</property>
  <property name="audio_index">2</property>
  <property name="video_index">1</property>
  <property name="mute_on_pause">1</property>
  <property name="mlt_service">avformat-novalidate</property>
  <property name="meta.media.nb_streams">3</property>
  <property name="meta.media.1.stream.type">video</property>
  <property name="meta.media.1.stream.frame_rate">50</property>
  <property name="meta.media.1.stream.sample_aspect_ratio">1</property>
  <property name="meta.media.1.codec.width">1920</property>
  <property name="meta.media.1.codec.height">1080</property>
  <property name="meta.media.1.codec.rotate">0</property>
  <property name="meta.media.1.codec.frame_rate">5000</property>
  <property name="meta.media.1.codec.pix_fmt">yuv422p10le</property>
  <property name="meta.media.1.codec.sample_aspect_ratio">0</property>
  <property name="meta.media.1.codec.colorspace">709</property>
  <property name="meta.media.1.codec.name">prores</property>
  <property name="meta.media.1.codec.long_name">ProRes (iCodec Pro)</property>
  <property name="meta.media.1.codec.bit_rate">366955515</property>
  <property name="meta.attr.1.stream.creation_time.markup">2018-12-10T16:38:23.000000Z</property>
  <property name="meta.attr.1.stream.language.markup">eng</property>
  <property name="meta.attr.1.stream.handler_name.markup">Apple Video Media Handler</property>
  <property name="meta.attr.1.stream.encoder.markup">Apple ProRes 422 HQ</property>
  <property name="meta.attr.1.stream.timecode.markup">16:38:23:16</property>
  <property name="meta.media.2.stream.type">audio</property>
  <property name="meta.media.2.codec.sample_fmt">s32</property>
  <property name="meta.media.2.codec.sample_rate">48000</property>
  <property name="meta.media.2.codec.channels">2</property>
  <property name="meta.media.2.codec.name">pcm_s24le</property>
  <property name="meta.media.2.codec.long_name">PCM signed 24-bit little-endian</property>
  <property name="meta.media.2.codec.bit_rate">2304000</property>
  <property name="meta.attr.2.stream.creation_time.markup">2018-12-10T16:38:23.000000Z</property>
  <property name="meta.attr.2.stream.language.markup">eng</property>
  <property name="meta.attr.2.stream.handler_name.markup">Apple Sound Media Handler</property>
  <property name="meta.attr.2.stream.timecode.markup">16:38:23:16</property>
  <property name="meta.attr.com.apple.proapps.manufacturer.markup">Blackmagic Design</property>
  <property name="meta.attr.com.apple.proapps.cameraName.markup">CAM1</property>
  <property name="meta.attr.com.apple.proapps.isGood.markup">0</property>
  <property name="meta.attr.com.apple.proapps.customgamma.markup">com.blackmagic-design.cinemacamera.filmlog</property>
  <property name="meta.attr.com.blackmagic-design.cinemacamera.uuid.markup">18E5E00548F94923B646613A73C01B56</property>
  <property name="meta.attr.creation_time.markup">2018-12-10T16:38:23.000000Z</property>
  <property name="meta.attr.timecode.markup">16:38:23:16</property>
  <property name="seekable">1</property>
  <property name="meta.media.sample_aspect_num">1</property>
  <property name="meta.media.sample_aspect_den">1</property>
  <property name="aspect_ratio">1</property>
  <property name="kdenlive:folderid">10</property>
  <property name="kdenlive:file_size">3858252521</property>
  <property name="kdenlive:file_hash">5c73d3cae02de055fc4255e57a85a699</property>
  <property name="global_feed">1</property>
  <property name="meta.media.frame_rate_num">50</property>
  <property name="meta.media.frame_rate_den">1</property>
  <property name="meta.media.colorspace">709</property>
  <property name="meta.media.color_trc">2</property>
  <property name="meta.media.width">1920</property>
  <property name="meta.media.height">1080</property>
  <property name="meta.media.top_field_first">0</property>
  <property name="meta.media.progressive">1</property>
 </producer>
 <producer title="Anonymous Submission" id="7" in="0" out="8532">
  <property name="length">00:02:50:33</property>
  <property name="eof">pause</property>
  <property name="resource">/media/bordun/plagiat/2018-12-10_Plagiat_RespecteLaPuissancePapale/Carte_2/CAM1_2018-12-10_1642_C0002.mov</property>
  <property name="audio_index">2</property>
  <property name="video_index">1</property>
  <property name="mute_on_pause">1</property>
  <property name="mlt_service">avformat-novalidate</property>
  <property name="meta.media.nb_streams">3</property>
  <property name="meta.media.1.stream.type">video</property>
  <property name="meta.media.1.stream.frame_rate">50</property>
  <property name="meta.media.1.stream.sample_aspect_ratio">1</property>
  <property name="meta.media.1.codec.width">1920</property>
  <property name="meta.media.1.codec.height">1080</property>
  <property name="meta.media.1.codec.rotate">0</property>
  <property name="meta.media.1.codec.frame_rate">5000</property>
  <property name="meta.media.1.codec.pix_fmt">yuv422p10le</property>
  <property name="meta.media.1.codec.sample_aspect_ratio">0</property>
  <property name="meta.media.1.codec.colorspace">709</property>
  <property name="meta.media.1.codec.name">prores</property>
  <property name="meta.media.1.codec.long_name">ProRes (iCodec Pro)</property>
  <property name="meta.media.1.codec.bit_rate">366955794</property>
  <property name="meta.attr.1.stream.creation_time.markup">2018-12-10T16:42:49.000000Z</property>
  <property name="meta.attr.1.stream.language.markup">eng</property>
  <property name="meta.attr.1.stream.handler_name.markup">Apple Video Media Handler</property>
  <property name="meta.attr.1.stream.encoder.markup">Apple ProRes 422 HQ</property>
  <property name="meta.attr.1.stream.timecode.markup">16:42:49:18</property>
  <property name="meta.media.2.stream.type">audio</property>
  <property name="meta.media.2.codec.sample_fmt">s32</property>
  <property name="meta.media.2.codec.sample_rate">48000</property>
  <property name="meta.media.2.codec.channels">2</property>
  <property name="meta.media.2.codec.name">pcm_s24le</property>
  <property name="meta.media.2.codec.long_name">PCM signed 24-bit little-endian</property>
  <property name="meta.media.2.codec.bit_rate">2304000</property>
  <property name="meta.attr.2.stream.creation_time.markup">2018-12-10T16:42:49.000000Z</property>
  <property name="meta.attr.2.stream.language.markup">eng</property>
  <property name="meta.attr.2.stream.handler_name.markup">Apple Sound Media Handler</property>
  <property name="meta.attr.2.stream.timecode.markup">16:42:49:18</property>
  <property name="meta.attr.com.apple.proapps.manufacturer.markup">Blackmagic Design</property>
  <property name="meta.attr.com.apple.proapps.cameraName.markup">CAM1</property>
  <property name="meta.attr.com.apple.proapps.isGood.markup">0</property>
  <property name="meta.attr.com.apple.proapps.customgamma.markup">com.blackmagic-design.cinemacamera.filmlog</property>
  <property name="meta.attr.com.blackmagic-design.cinemacamera.uuid.markup">18E5E00548F94923B646613A73C01B56</property>
  <property name="meta.attr.creation_time.markup">2018-12-10T16:42:49.000000Z</property>
  <property name="meta.attr.timecode.markup">16:42:49:18</property>
  <property name="seekable">1</property>
  <property name="meta.media.sample_aspect_num">1</property>
  <property name="meta.media.sample_aspect_den">1</property>
  <property name="aspect_ratio">1</property>
  <property name="kdenlive:folderid">10</property>
  <property name="kdenlive:file_size">7878058913</property>
  <property name="kdenlive:file_hash">804eaf7e1fe7b8bd61bac5713c20d510</property>
  <property name="global_feed">1</property>
  <property name="meta.media.frame_rate_num">50</property>
  <property name="meta.media.frame_rate_den">1</property>
  <property name="meta.media.colorspace">709</property>
  <property name="meta.media.color_trc">2</property>
  <property name="meta.media.width">1920</property>
  <property name="meta.media.height">1080</property>
  <property name="meta.media.top_field_first">0</property>
  <property name="meta.media.progressive">1</property>
 </producer>
 <producer title="Anonymous Submission" id="16" in="0" out="2403">
  <property name="length">00:00:48:04</property>
  <property name="eof">pause</property>
  <property name="resource">/media/bordun/plagiat/2018-12-10_Plagiat_RespecteLaPuissancePapale/Carte_3/CAM1_2018-12-10_1851_C0005.mov</property>
  <property name="audio_index">2</property>
  <property name="video_index">1</property>
  <property name="mute_on_pause">1</property>
  <property name="mlt_service">avformat-novalidate</property>
  <property name="meta.media.nb_streams">3</property>
  <property name="meta.media.1.stream.type">video</property>
  <property name="meta.media.1.stream.frame_rate">50</property>
  <property name="meta.media.1.stream.sample_aspect_ratio">1</property>
  <property name="meta.media.1.codec.width">1920</property>
  <property name="meta.media.1.codec.height">1080</property>
  <property name="meta.media.1.codec.rotate">0</property>
  <property name="meta.media.1.codec.frame_rate">5000</property>
  <property name="meta.media.1.codec.pix_fmt">yuv422p10le</property>
  <property name="meta.media.1.codec.sample_aspect_ratio">0</property>
  <property name="meta.media.1.codec.colorspace">709</property>
  <property name="meta.media.1.codec.name">prores</property>
  <property name="meta.media.1.codec.long_name">ProRes (iCodec Pro)</property>
  <property name="meta.media.1.codec.bit_rate">366956708</property>
  <property name="meta.attr.1.stream.creation_time.markup">2018-12-10T18:51:16.000000Z</property>
  <property name="meta.attr.1.stream.language.markup">eng</property>
  <property name="meta.attr.1.stream.handler_name.markup">Apple Video Media Handler</property>
  <property name="meta.attr.1.stream.encoder.markup">Apple ProRes 422 HQ</property>
  <property name="meta.attr.1.stream.timecode.markup">18:51:16:13</property>
  <property name="meta.media.2.stream.type">audio</property>
  <property name="meta.media.2.codec.sample_fmt">s32</property>
  <property name="meta.media.2.codec.sample_rate">48000</property>
  <property name="meta.media.2.codec.channels">2</property>
  <property name="meta.media.2.codec.name">pcm_s24le</property>
  <property name="meta.media.2.codec.long_name">PCM signed 24-bit little-endian</property>
  <property name="meta.media.2.codec.bit_rate">2304000</property>
  <property name="meta.attr.2.stream.creation_time.markup">2018-12-10T18:51:16.000000Z</property>
  <property name="meta.attr.2.stream.language.markup">eng</property>
  <property name="meta.attr.2.stream.handler_name.markup">Apple Sound Media Handler</property>
  <property name="meta.attr.2.stream.timecode.markup">18:51:16:13</property>
  <property name="meta.attr.com.apple.proapps.manufacturer.markup">Blackmagic Design</property>
  <property name="meta.attr.com.apple.proapps.cameraName.markup">CAM1</property>
  <property name="meta.attr.com.apple.proapps.isGood.markup">0</property>
  <property name="meta.attr.com.apple.proapps.customgamma.markup">com.blackmagic-design.cinemacamera.filmlog</property>
  <property name="meta.attr.com.blackmagic-design.cinemacamera.uuid.markup">18E5E00548F94923B646613A73C01B56</property>
  <property name="meta.attr.creation_time.markup">2018-12-10T18:51:16.000000Z</property>
  <property name="meta.attr.timecode.markup">18:51:16:13</property>
  <property name="seekable">1</property>
  <property name="meta.media.sample_aspect_num">1</property>
  <property name="meta.media.sample_aspect_den">1</property>
  <property name="aspect_ratio">1</property>
  <property name="kdenlive:folderid">13</property>
  <property name="kdenlive:file_size">2219492305</property>
  <property name="kdenlive:file_hash">5decca499b71c19207e6eb5441ec1c74</property>
  <property name="global_feed">1</property>
  <property name="meta.media.frame_rate_num">50</property>
  <property name="meta.media.frame_rate_den">1</property>
  <property name="meta.media.colorspace">709</property>
  <property name="meta.media.color_trc">2</property>
  <property name="meta.media.width">1920</property>
  <property name="meta.media.height">1080</property>
  <property name="meta.media.top_field_first">0</property>
  <property name="meta.media.progressive">1</property>
 </producer>
 <producer title="Anonymous Submission" id="17" in="0" out="2706">
  <property name="length">00:00:54:07</property>
  <property name="eof">pause</property>
  <property name="resource">/media/bordun/plagiat/2018-12-10_Plagiat_RespecteLaPuissancePapale/Carte_3/CAM1_2018-12-10_1853_C0006.mov</property>
  <property name="audio_index">2</property>
  <property name="video_index">1</property>
  <property name="mute_on_pause">1</property>
  <property name="mlt_service">avformat-novalidate</property>
  <property name="meta.media.nb_streams">3</property>
  <property name="meta.media.1.stream.type">video</property>
  <property name="meta.media.1.stream.frame_rate">50</property>
  <property name="meta.media.1.stream.sample_aspect_ratio">1</property>
  <property name="meta.media.1.codec.width">1920</property>
  <property name="meta.media.1.codec.height">1080</property>
  <property name="meta.media.1.codec.rotate">0</property>
  <property name="meta.media.1.codec.frame_rate">5000</property>
  <property name="meta.media.1.codec.pix_fmt">yuv422p10le</property>
  <property name="meta.media.1.codec.sample_aspect_ratio">0</property>
  <property name="meta.media.1.codec.colorspace">709</property>
  <property name="meta.media.1.codec.name">prores</property>
  <property name="meta.media.1.codec.long_name">ProRes</property>
  <property name="meta.media.1.codec.bit_rate">366954964</property>
  <property name="meta.attr.1.stream.creation_time.markup">2018-12-10T18:53:43.000000Z</property>
  <property name="meta.attr.1.stream.language.markup">eng</property>
  <property name="meta.attr.1.stream.handler_name.markup">Apple Alias Data Handler</property>
  <property name="meta.attr.1.stream.encoder.markup">Apple ProRes 422 HQ</property>
  <property name="meta.attr.1.stream.timecode.markup">18:53:43:03</property>
  <property name="meta.media.2.stream.type">audio</property>
  <property name="meta.media.2.codec.sample_fmt">s32</property>
  <property name="meta.media.2.codec.sample_rate">48000</property>
  <property name="meta.media.2.codec.channels">2</property>
  <property name="meta.media.2.codec.name">pcm_s24le</property>
  <property name="meta.media.2.codec.long_name">PCM signed 24-bit little-endian</property>
  <property name="meta.media.2.codec.bit_rate">2304000</property>
  <property name="meta.attr.2.stream.creation_time.markup">2018-12-10T18:53:43.000000Z</property>
  <property name="meta.attr.2.stream.language.markup">eng</property>
  <property name="meta.attr.2.stream.handler_name.markup">Apple Alias Data Handler</property>
  <property name="meta.attr.2.stream.timecode.markup">18:53:43:03</property>
  <property name="meta.attr.com.apple.proapps.manufacturer.markup">Blackmagic Design</property>
  <property name="meta.attr.com.apple.proapps.cameraName.markup">CAM1</property>
  <property name="meta.attr.com.apple.proapps.isGood.markup">0</property>
  <property name="meta.attr.com.apple.proapps.customgamma.markup">com.blackmagic-design.cinemacamera.filmlog</property>
  <property name="meta.attr.com.blackmagic-design.cinemacamera.uuid.markup">18E5E00548F94923B646613A73C01B56</property>
  <property name="meta.attr.creation_time.markup">2018-12-10T18:53:43.000000Z</property>
  <property name="meta.attr.timecode.markup">18:53:43:03</property>
  <property name="seekable">1</property>
  <property name="meta.media.sample_aspect_num">1</property>
  <property name="meta.media.sample_aspect_den">1</property>
  <property name="aspect_ratio">1</property>
  <property name="kdenlive:folderid">13</property>
  <property name="kdenlive:file_size">2499243521</property>
  <property name="kdenlive:file_hash">c52a59c46a49b670f466d109daab353c</property>
  <property name="global_feed">1</property>
  <property name="meta.media.frame_rate_num">50</property>
  <property name="meta.media.frame_rate_den">1</property>
  <property name="meta.media.colorspace">709</property>
  <property name="meta.media.color_trc">1</property>
  <property name="meta.media.width">1920</property>
  <property name="meta.media.height">1080</property>
  <property name="meta.media.top_field_first">0</property>
  <property name="meta.media.progressive">1</property>
  <property name="meta.media.1.codec.color_trc">1</property>
 </producer>
 <producer title="Anonymous Submission" id="18" in="0" out="1547">
  <property name="length">00:00:30:48</property>
  <property name="eof">pause</property>
  <property name="resource">/media/bordun/plagiat/2018-12-10_Plagiat_RespecteLaPuissancePapale/Carte_3/CAM1_2018-12-10_1855_C0007.mov</property>
  <property name="audio_index">2</property>
  <property name="video_index">1</property>
  <property name="mute_on_pause">1</property>
  <property name="mlt_service">avformat-novalidate</property>
  <property name="meta.media.nb_streams">3</property>
  <property name="meta.media.1.stream.type">video</property>
  <property name="meta.media.1.stream.frame_rate">50</property>
  <property name="meta.media.1.stream.sample_aspect_ratio">1</property>
  <property name="meta.media.1.codec.width">1920</property>
  <property name="meta.media.1.codec.height">1080</property>
  <property name="meta.media.1.codec.rotate">0</property>
  <property name="meta.media.1.codec.frame_rate">5000</property>
  <property name="meta.media.1.codec.pix_fmt">yuv422p10le</property>
  <property name="meta.media.1.codec.sample_aspect_ratio">0</property>
  <property name="meta.media.1.codec.colorspace">709</property>
  <property name="meta.media.1.codec.name">prores</property>
  <property name="meta.media.1.codec.long_name">ProRes (iCodec Pro)</property>
  <property name="meta.media.1.codec.bit_rate">366957395</property>
  <property name="meta.attr.1.stream.creation_time.markup">2018-12-10T18:55:29.000000Z</property>
  <property name="meta.attr.1.stream.language.markup">eng</property>
  <property name="meta.attr.1.stream.handler_name.markup">Apple Video Media Handler</property>
  <property name="meta.attr.1.stream.encoder.markup">Apple ProRes 422 HQ</property>
  <property name="meta.attr.1.stream.timecode.markup">18:55:29:30</property>
  <property name="meta.media.2.stream.type">audio</property>
  <property name="meta.media.2.codec.sample_fmt">s32</property>
  <property name="meta.media.2.codec.sample_rate">48000</property>
  <property name="meta.media.2.codec.channels">2</property>
  <property name="meta.media.2.codec.name">pcm_s24le</property>
  <property name="meta.media.2.codec.long_name">PCM signed 24-bit little-endian</property>
  <property name="meta.media.2.codec.bit_rate">2304000</property>
  <property name="meta.attr.2.stream.creation_time.markup">2018-12-10T18:55:29.000000Z</property>
  <property name="meta.attr.2.stream.language.markup">eng</property>
  <property name="meta.attr.2.stream.handler_name.markup">Apple Sound Media Handler</property>
  <property name="meta.attr.2.stream.timecode.markup">18:55:29:30</property>
  <property name="meta.attr.com.apple.proapps.manufacturer.markup">Blackmagic Design</property>
  <property name="meta.attr.com.apple.proapps.cameraName.markup">CAM1</property>
  <property name="meta.attr.com.apple.proapps.isGood.markup">0</property>
  <property name="meta.attr.com.apple.proapps.customgamma.markup">com.blackmagic-design.cinemacamera.filmlog</property>
  <property name="meta.attr.com.blackmagic-design.cinemacamera.uuid.markup">18E5E00548F94923B646613A73C01B56</property>
  <property name="meta.attr.creation_time.markup">2018-12-10T18:55:29.000000Z</property>
  <property name="meta.attr.timecode.markup">18:55:29:30</property>
  <property name="seekable">1</property>
  <property name="meta.media.sample_aspect_num">1</property>
  <property name="meta.media.sample_aspect_den">1</property>
  <property name="aspect_ratio">1</property>
  <property name="kdenlive:folderid">13</property>
  <property name="kdenlive:file_size">1429192513</property>
  <property name="kdenlive:file_hash">626434d53e10f12816265ac334d41379</property>
  <property name="global_feed">1</property>
  <property name="meta.media.frame_rate_num">50</property>
  <property name="meta.media.frame_rate_den">1</property>
  <property name="meta.media.colorspace">709</property>
  <property name="meta.media.color_trc">2</property>
  <property name="meta.media.width">1920</property>
  <property name="meta.media.height">1080</property>
  <property name="meta.media.top_field_first">0</property>
  <property name="meta.media.progressive">1</property>
 </producer>
 <producer title="Anonymous Submission" id="19" in="0" out="2823">
  <property name="length">00:00:56:24</property>
  <property name="eof">pause</property>
  <property name="resource">/media/bordun/plagiat/2018-12-10_Plagiat_RespecteLaPuissancePapale/Carte_3/CAM1_2018-12-10_1856_C0008.mov</property>
  <property name="audio_index">2</property>
  <property name="video_index">1</property>
  <property name="mute_on_pause">1</property>
  <property name="mlt_service">avformat-novalidate</property>
  <property name="meta.media.nb_streams">3</property>
  <property name="meta.media.1.stream.type">video</property>
  <property name="meta.media.1.stream.frame_rate">50</property>
  <property name="meta.media.1.stream.sample_aspect_ratio">1</property>
  <property name="meta.media.1.codec.width">1920</property>
  <property name="meta.media.1.codec.height">1080</property>
  <property name="meta.media.1.codec.rotate">0</property>
  <property name="meta.media.1.codec.frame_rate">5000</property>
  <property name="meta.media.1.codec.pix_fmt">yuv422p10le</property>
  <property name="meta.media.1.codec.sample_aspect_ratio">0</property>
  <property name="meta.media.1.codec.colorspace">709</property>
  <property name="meta.media.1.codec.name">prores</property>
  <property name="meta.media.1.codec.long_name">ProRes (iCodec Pro)</property>
  <property name="meta.media.1.codec.bit_rate">366955049</property>
  <property name="meta.attr.1.stream.creation_time.markup">2018-12-10T18:56:22.000000Z</property>
  <property name="meta.attr.1.stream.language.markup">eng</property>
  <property name="meta.attr.1.stream.handler_name.markup">Apple Video Media Handler</property>
  <property name="meta.attr.1.stream.encoder.markup">Apple ProRes 422 HQ</property>
  <property name="meta.attr.1.stream.timecode.markup">18:56:22:36</property>
  <property name="meta.media.2.stream.type">audio</property>
  <property name="meta.media.2.codec.sample_fmt">s32</property>
  <property name="meta.media.2.codec.sample_rate">48000</property>
  <property name="meta.media.2.codec.channels">2</property>
  <property name="meta.media.2.codec.name">pcm_s24le</property>
  <property name="meta.media.2.codec.long_name">PCM signed 24-bit little-endian</property>
  <property name="meta.media.2.codec.bit_rate">2304000</property>
  <property name="meta.attr.2.stream.creation_time.markup">2018-12-10T18:56:22.000000Z</property>
  <property name="meta.attr.2.stream.language.markup">eng</property>
  <property name="meta.attr.2.stream.handler_name.markup">Apple Sound Media Handler</property>
  <property name="meta.attr.2.stream.timecode.markup">18:56:22:36</property>
  <property name="meta.attr.com.apple.proapps.manufacturer.markup">Blackmagic Design</property>
  <property name="meta.attr.com.apple.proapps.cameraName.markup">CAM1</property>
  <property name="meta.attr.com.apple.proapps.isGood.markup">0</property>
  <property name="meta.attr.com.apple.proapps.customgamma.markup">com.blackmagic-design.cinemacamera.filmlog</property>
  <property name="meta.attr.com.blackmagic-design.cinemacamera.uuid.markup">18E5E00548F94923B646613A73C01B56</property>
  <property name="meta.attr.creation_time.markup">2018-12-10T18:56:22.000000Z</property>
  <property name="meta.attr.timecode.markup">18:56:22:36</property>
  <property name="seekable">1</property>
  <property name="meta.media.sample_aspect_num">1</property>
  <property name="meta.media.sample_aspect_den">1</property>
  <property name="aspect_ratio">1</property>
  <property name="kdenlive:folderid">13</property>
  <property name="kdenlive:file_size">2607255569</property>
  <property name="kdenlive:file_hash">4d6c52ada6c928dfc33b28648fd401f1</property>
  <property name="global_feed">1</property>
  <property name="meta.media.frame_rate_num">50</property>
  <property name="meta.media.frame_rate_den">1</property>
  <property name="meta.media.colorspace">709</property>
  <property name="meta.media.color_trc">2</property>
  <property name="meta.media.width">1920</property>
  <property name="meta.media.height">1080</property>
  <property name="meta.media.top_field_first">0</property>
  <property name="meta.media.progressive">1</property>
 </producer>
 <producer title="Anonymous Submission" id="20" in="0" out="995">
  <property name="length">00:00:19:46</property>
  <property name="eof">pause</property>
  <property name="resource">/media/bordun/plagiat/2018-12-10_Plagiat_RespecteLaPuissancePapale/Carte_3/CAM1_2018-12-10_1857_C0009.mov</property>
  <property name="audio_index">2</property>
  <property name="video_index">1</property>
  <property name="mute_on_pause">1</property>
  <property name="mlt_service">avformat-novalidate</property>
  <property name="meta.media.nb_streams">3</property>
  <property name="meta.media.1.stream.type">video</property>
  <property name="meta.media.1.stream.frame_rate">50</property>
  <property name="meta.media.1.stream.sample_aspect_ratio">1</property>
  <property name="meta.media.1.codec.width">1920</property>
  <property name="meta.media.1.codec.height">1080</property>
  <property name="meta.media.1.codec.rotate">0</property>
  <property name="meta.media.1.codec.frame_rate">5000</property>
  <property name="meta.media.1.codec.pix_fmt">yuv422p10le</property>
  <property name="meta.media.1.codec.sample_aspect_ratio">0</property>
  <property name="meta.media.1.codec.colorspace">709</property>
  <property name="meta.media.1.codec.name">prores</property>
  <property name="meta.media.1.codec.long_name">ProRes (iCodec Pro)</property>
  <property name="meta.media.1.codec.bit_rate">366959048</property>
  <property name="meta.attr.1.stream.creation_time.markup">2018-12-10T18:57:40.000000Z</property>
  <property name="meta.attr.1.stream.language.markup">eng</property>
  <property name="meta.attr.1.stream.handler_name.markup">Apple Video Media Handler</property>
  <property name="meta.attr.1.stream.encoder.markup">Apple ProRes 422 HQ</property>
  <property name="meta.attr.1.stream.timecode.markup">18:57:40:47</property>
  <property name="meta.media.2.stream.type">audio</property>
  <property name="meta.media.2.codec.sample_fmt">s32</property>
  <property name="meta.media.2.codec.sample_rate">48000</property>
  <property name="meta.media.2.codec.channels">2</property>
  <property name="meta.media.2.codec.name">pcm_s24le</property>
  <property name="meta.media.2.codec.long_name">PCM signed 24-bit little-endian</property>
  <property name="meta.media.2.codec.bit_rate">2304000</property>
  <property name="meta.attr.2.stream.creation_time.markup">2018-12-10T18:57:40.000000Z</property>
  <property name="meta.attr.2.stream.language.markup">eng</property>
  <property name="meta.attr.2.stream.handler_name.markup">Apple Sound Media Handler</property>
  <property name="meta.attr.2.stream.timecode.markup">18:57:40:47</property>
  <property name="meta.attr.com.apple.proapps.manufacturer.markup">Blackmagic Design</property>
  <property name="meta.attr.com.apple.proapps.cameraName.markup">CAM1</property>
  <property name="meta.attr.com.apple.proapps.isGood.markup">0</property>
  <property name="meta.attr.com.apple.proapps.customgamma.markup">com.blackmagic-design.cinemacamera.filmlog</property>
  <property name="meta.attr.com.blackmagic-design.cinemacamera.uuid.markup">18E5E00548F94923B646613A73C01B56</property>
  <property name="meta.attr.creation_time.markup">2018-12-10T18:57:40.000000Z</property>
  <property name="meta.attr.timecode.markup">18:57:40:47</property>
  <property name="seekable">1</property>
  <property name="meta.media.sample_aspect_num">1</property>
  <property name="meta.media.sample_aspect_den">1</property>
  <property name="aspect_ratio">1</property>
  <property name="kdenlive:folderid">13</property>
  <property name="kdenlive:file_size">919559913</property>
  <property name="kdenlive:file_hash">1729a26f0eb1c7c9bfd5136f79c4245a</property>
  <property name="global_feed">1</property>
  <property name="meta.media.frame_rate_num">50</property>
  <property name="meta.media.frame_rate_den">1</property>
  <property name="meta.media.colorspace">709</property>
  <property name="meta.media.color_trc">2</property>
  <property name="meta.media.width">1920</property>
  <property name="meta.media.height">1080</property>
  <property name="meta.media.top_field_first">0</property>
  <property name="meta.media.progressive">1</property>
 </producer>
 <producer title="Anonymous Submission" id="21" in="0" out="8367">
  <property name="length">00:02:47:18</property>
  <property name="eof">pause</property>
  <property name="resource">/media/bordun/plagiat/2018-12-10_Plagiat_RespecteLaPuissancePapale/Carte_4/CAM1_2018-12-10_1918_C0004.mov</property>
  <property name="audio_index">2</property>
  <property name="video_index">1</property>
  <property name="mute_on_pause">1</property>
  <property name="mlt_service">avformat-novalidate</property>
  <property name="meta.media.nb_streams">3</property>
  <property name="meta.media.1.stream.type">video</property>
  <property name="meta.media.1.stream.frame_rate">50</property>
  <property name="meta.media.1.stream.sample_aspect_ratio">1</property>
  <property name="meta.media.1.codec.width">1920</property>
  <property name="meta.media.1.codec.height">1080</property>
  <property name="meta.media.1.codec.rotate">0</property>
  <property name="meta.media.1.codec.frame_rate">5000</property>
  <property name="meta.media.1.codec.pix_fmt">yuv422p10le</property>
  <property name="meta.media.1.codec.sample_aspect_ratio">0</property>
  <property name="meta.media.1.codec.colorspace">709</property>
  <property name="meta.media.1.codec.name">prores</property>
  <property name="meta.media.1.codec.long_name">ProRes</property>
  <property name="meta.media.1.codec.bit_rate">366957425</property>
  <property name="meta.attr.1.stream.creation_time.markup">2018-12-10T19:18:09.000000Z</property>
  <property name="meta.attr.1.stream.language.markup">eng</property>
  <property name="meta.attr.1.stream.handler_name.markup">Apple Alias Data Handler</property>
  <property name="meta.attr.1.stream.encoder.markup">Apple ProRes 422 HQ</property>
  <property name="meta.attr.1.stream.timecode.markup">19:18:09:37</property>
  <property name="meta.media.2.stream.type">audio</property>
  <property name="meta.media.2.codec.sample_fmt">s32</property>
  <property name="meta.media.2.codec.sample_rate">48000</property>
  <property name="meta.media.2.codec.channels">2</property>
  <property name="meta.media.2.codec.name">pcm_s24le</property>
  <property name="meta.media.2.codec.long_name">PCM signed 24-bit little-endian</property>
  <property name="meta.media.2.codec.bit_rate">2304000</property>
  <property name="meta.attr.2.stream.creation_time.markup">2018-12-10T19:18:09.000000Z</property>
  <property name="meta.attr.2.stream.language.markup">eng</property>
  <property name="meta.attr.2.stream.handler_name.markup">Apple Alias Data Handler</property>
  <property name="meta.attr.2.stream.timecode.markup">19:18:09:37</property>
  <property name="meta.attr.com.apple.proapps.manufacturer.markup">Blackmagic Design</property>
  <property name="meta.attr.com.apple.proapps.cameraName.markup">CAM1</property>
  <property name="meta.attr.com.apple.proapps.isGood.markup">0</property>
  <property name="meta.attr.com.apple.proapps.customgamma.markup">com.blackmagic-design.cinemacamera.filmlog</property>
  <property name="meta.attr.com.blackmagic-design.cinemacamera.uuid.markup">18E5E00548F94923B646613A73C01B56</property>
  <property name="meta.attr.creation_time.markup">2018-12-10T19:18:09.000000Z</property>
  <property name="meta.attr.timecode.markup">19:18:09:37</property>
  <property name="seekable">1</property>
  <property name="meta.media.sample_aspect_num">1</property>
  <property name="meta.media.sample_aspect_den">1</property>
  <property name="aspect_ratio">1</property>
  <property name="kdenlive:folderid">13</property>
  <property name="kdenlive:file_size">7725732233</property>
  <property name="kdenlive:file_hash">4738ec11929b714df4a2322c7cba3752</property>
  <property name="global_feed">1</property>
  <property name="meta.media.frame_rate_num">50</property>
  <property name="meta.media.frame_rate_den">1</property>
  <property name="meta.media.colorspace">709</property>
  <property name="meta.media.color_trc">1</property>
  <property name="meta.media.width">1920</property>
  <property name="meta.media.height">1080</property>
  <property name="meta.media.top_field_first">0</property>
  <property name="meta.media.progressive">1</property>
  <property name="meta.media.1.codec.color_trc">1</property>
 </producer>
 <producer title="Anonymous Submission" id="23" in="0" out="90">
  <property name="length">00:00:01:41</property>
  <property name="eof">pause</property>
  <property name="resource">/media/bordun/plagiat/2018-12-10_Plagiat_RespecteLaPuissancePapale/Carte_4/CAM1_2018-12-10_1930_C0006.mov</property>
  <property name="audio_index">2</property>
  <property name="video_index">1</property>
  <property name="mute_on_pause">1</property>
  <property name="mlt_service">avformat-novalidate</property>
  <property name="meta.media.nb_streams">3</property>
  <property name="meta.media.1.stream.type">video</property>
  <property name="meta.media.1.stream.frame_rate">50</property>
  <property name="meta.media.1.stream.sample_aspect_ratio">1</property>
  <property name="meta.media.1.codec.width">1920</property>
  <property name="meta.media.1.codec.height">1080</property>
  <property name="meta.media.1.codec.rotate">0</property>
  <property name="meta.media.1.codec.frame_rate">5000</property>
  <property name="meta.media.1.codec.pix_fmt">yuv422p10le</property>
  <property name="meta.media.1.codec.sample_aspect_ratio">0</property>
  <property name="meta.media.1.codec.colorspace">709</property>
  <property name="meta.media.1.codec.name">prores</property>
  <property name="meta.media.1.codec.long_name">ProRes</property>
  <property name="meta.media.1.codec.bit_rate">366959648</property>
  <property name="meta.attr.1.stream.creation_time.markup">2018-12-10T19:30:36.000000Z</property>
  <property name="meta.attr.1.stream.language.markup">eng</property>
  <property name="meta.attr.1.stream.handler_name.markup">Apple Alias Data Handler</property>
  <property name="meta.attr.1.stream.encoder.markup">Apple ProRes 422 HQ</property>
  <property name="meta.attr.1.stream.timecode.markup">19:30:36:33</property>
  <property name="meta.media.2.stream.type">audio</property>
  <property name="meta.media.2.codec.sample_fmt">s32</property>
  <property name="meta.media.2.codec.sample_rate">48000</property>
  <property name="meta.media.2.codec.channels">2</property>
  <property name="meta.media.2.codec.name">pcm_s24le</property>
  <property name="meta.media.2.codec.long_name">PCM signed 24-bit little-endian</property>
  <property name="meta.media.2.codec.bit_rate">2304000</property>
  <property name="meta.attr.2.stream.creation_time.markup">2018-12-10T19:30:36.000000Z</property>
  <property name="meta.attr.2.stream.language.markup">eng</property>
  <property name="meta.attr.2.stream.handler_name.markup">Apple Alias Data Handler</property>
  <property name="meta.attr.2.stream.timecode.markup">19:30:36:33</property>
  <property name="meta.attr.com.apple.proapps.manufacturer.markup">Blackmagic Design</property>
  <property name="meta.attr.com.apple.proapps.cameraName.markup">CAM1</property>
  <property name="meta.attr.com.apple.proapps.isGood.markup">0</property>
  <property name="meta.attr.com.apple.proapps.customgamma.markup">com.blackmagic-design.cinemacamera.filmlog</property>
  <property name="meta.attr.com.blackmagic-design.cinemacamera.uuid.markup">18E5E00548F94923B646613A73C01B56</property>
  <property name="meta.attr.creation_time.markup">2018-12-10T19:30:36.000000Z</property>
  <property name="meta.attr.timecode.markup">19:30:36:33</property>
  <property name="seekable">1</property>
  <property name="meta.media.sample_aspect_num">1</property>
  <property name="meta.media.sample_aspect_den">1</property>
  <property name="aspect_ratio">1</property>
  <property name="kdenlive:folderid">13</property>
  <property name="kdenlive:file_size">84022873</property>
  <property name="kdenlive:file_hash">1ba34791faa62b04135628a57849c83e</property>
  <property name="global_feed">1</property>
  <property name="meta.media.frame_rate_num">50</property>
  <property name="meta.media.frame_rate_den">1</property>
  <property name="meta.media.colorspace">709</property>
  <property name="meta.media.color_trc">1</property>
  <property name="meta.media.width">1920</property>
  <property name="meta.media.height">1080</property>
  <property name="meta.media.top_field_first">0</property>
  <property name="meta.media.progressive">1</property>
  <property name="meta.media.1.codec.color_trc">1</property>
 </producer>
 <producer title="Anonymous Submission" id="24" in="0" out="2194">
  <property name="length">00:00:43:45</property>
  <property name="eof">pause</property>
  <property name="resource">/media/bordun/plagiat/2018-12-10_Plagiat_RespecteLaPuissancePapale/Carte_4/CAM1_2018-12-10_1932_C0007.mov</property>
  <property name="audio_index">2</property>
  <property name="video_index">1</property>
  <property name="mute_on_pause">1</property>
  <property name="mlt_service">avformat-novalidate</property>
  <property name="meta.media.nb_streams">3</property>
  <property name="meta.media.1.stream.type">video</property>
  <property name="meta.media.1.stream.frame_rate">50</property>
  <property name="meta.media.1.stream.sample_aspect_ratio">1</property>
  <property name="meta.media.1.codec.width">1920</property>
  <property name="meta.media.1.codec.height">1080</property>
  <property name="meta.media.1.codec.rotate">0</property>
  <property name="meta.media.1.codec.frame_rate">5000</property>
  <property name="meta.media.1.codec.pix_fmt">yuv422p10le</property>
  <property name="meta.media.1.codec.sample_aspect_ratio">0</property>
  <property name="meta.media.1.codec.colorspace">709</property>
  <property name="meta.media.1.codec.name">prores</property>
  <property name="meta.media.1.codec.long_name">ProRes (iCodec Pro)</property>
  <property name="meta.media.1.codec.bit_rate">366958350</property>
  <property name="meta.attr.1.stream.creation_time.markup">2018-12-10T19:32:10.000000Z</property>
  <property name="meta.attr.1.stream.language.markup">eng</property>
  <property name="meta.attr.1.stream.handler_name.markup">Apple Video Media Handler</property>
  <property name="meta.attr.1.stream.encoder.markup">Apple ProRes 422 HQ</property>
  <property name="meta.attr.1.stream.timecode.markup">19:32:10:35</property>
  <property name="meta.media.2.stream.type">audio</property>
  <property name="meta.media.2.codec.sample_fmt">s32</property>
  <property name="meta.media.2.codec.sample_rate">48000</property>
  <property name="meta.media.2.codec.channels">2</property>
  <property name="meta.media.2.codec.name">pcm_s24le</property>
  <property name="meta.media.2.codec.long_name">PCM signed 24-bit little-endian</property>
  <property name="meta.media.2.codec.bit_rate">2304000</property>
  <property name="meta.attr.2.stream.creation_time.markup">2018-12-10T19:32:10.000000Z</property>
  <property name="meta.attr.2.stream.language.markup">eng</property>
  <property name="meta.attr.2.stream.handler_name.markup">Apple Sound Media Handler</property>
  <property name="meta.attr.2.stream.timecode.markup">19:32:10:35</property>
  <property name="meta.attr.com.apple.proapps.manufacturer.markup">Blackmagic Design</property>
  <property name="meta.attr.com.apple.proapps.cameraName.markup">CAM1</property>
  <property name="meta.attr.com.apple.proapps.isGood.markup">0</property>
  <property name="meta.attr.com.apple.proapps.customgamma.markup">com.blackmagic-design.cinemacamera.filmlog</property>
  <property name="meta.attr.com.blackmagic-design.cinemacamera.uuid.markup">18E5E00548F94923B646613A73C01B56</property>
  <property name="meta.attr.creation_time.markup">2018-12-10T19:32:10.000000Z</property>
  <property name="meta.attr.timecode.markup">19:32:10:35</property>
  <property name="seekable">1</property>
  <property name="meta.media.sample_aspect_num">1</property>
  <property name="meta.media.sample_aspect_den">1</property>
  <property name="aspect_ratio">1</property>
  <property name="kdenlive:folderid">13</property>
  <property name="kdenlive:file_size">2026532265</property>
  <property name="kdenlive:file_hash">817b2a44d7814a42acea89e05d1f8fde</property>
  <property name="global_feed">1</property>
  <property name="meta.media.frame_rate_num">50</property>
  <property name="meta.media.frame_rate_den">1</property>
  <property name="meta.media.colorspace">709</property>
  <property name="meta.media.color_trc">2</property>
  <property name="meta.media.width">1920</property>
  <property name="meta.media.height">1080</property>
  <property name="meta.media.top_field_first">0</property>
  <property name="meta.media.progressive">1</property>
 </producer>
 <producer title="Anonymous Submission" id="22" in="0" out="2303">
  <property name="length">00:00:46:04</property>
  <property name="eof">pause</property>
  <property name="resource">/media/bordun/plagiat/2018-12-10_Plagiat_RespecteLaPuissancePapale/Carte_4/CAM1_2018-12-10_1921_C0005.mov</property>
  <property name="audio_index">2</property>
  <property name="video_index">1</property>
  <property name="mute_on_pause">1</property>
  <property name="mlt_service">avformat-novalidate</property>
  <property name="meta.media.nb_streams">3</property>
  <property name="meta.media.1.stream.type">video</property>
  <property name="meta.media.1.stream.frame_rate">50</property>
  <property name="meta.media.1.stream.sample_aspect_ratio">1</property>
  <property name="meta.media.1.codec.width">1920</property>
  <property name="meta.media.1.codec.height">1080</property>
  <property name="meta.media.1.codec.rotate">0</property>
  <property name="meta.media.1.codec.frame_rate">5000</property>
  <property name="meta.media.1.codec.pix_fmt">yuv422p10le</property>
  <property name="meta.media.1.codec.sample_aspect_ratio">0</property>
  <property name="meta.media.1.codec.colorspace">709</property>
  <property name="meta.media.1.codec.name">prores</property>
  <property name="meta.media.1.codec.long_name">ProRes</property>
  <property name="meta.media.1.codec.bit_rate">366955247</property>
  <property name="meta.attr.1.stream.creation_time.markup">2018-12-10T19:21:23.000000Z</property>
  <property name="meta.attr.1.stream.language.markup">eng</property>
  <property name="meta.attr.1.stream.handler_name.markup">Apple Alias Data Handler</property>
  <property name="meta.attr.1.stream.encoder.markup">Apple ProRes 422 HQ</property>
  <property name="meta.attr.1.stream.timecode.markup">19:21:23:42</property>
  <property name="meta.media.2.stream.type">audio</property>
  <property name="meta.media.2.codec.sample_fmt">s32</property>
  <property name="meta.media.2.codec.sample_rate">48000</property>
  <property name="meta.media.2.codec.channels">2</property>
  <property name="meta.media.2.codec.name">pcm_s24le</property>
  <property name="meta.media.2.codec.long_name">PCM signed 24-bit little-endian</property>
  <property name="meta.media.2.codec.bit_rate">2304000</property>
  <property name="meta.attr.2.stream.creation_time.markup">2018-12-10T19:21:23.000000Z</property>
  <property name="meta.attr.2.stream.language.markup">eng</property>
  <property name="meta.attr.2.stream.handler_name.markup">Apple Alias Data Handler</property>
  <property name="meta.attr.2.stream.timecode.markup">19:21:23:42</property>
  <property name="meta.attr.com.apple.proapps.manufacturer.markup">Blackmagic Design</property>
  <property name="meta.attr.com.apple.proapps.cameraName.markup">CAM1</property>
  <property name="meta.attr.com.apple.proapps.isGood.markup">0</property>
  <property name="meta.attr.com.apple.proapps.customgamma.markup">com.blackmagic-design.cinemacamera.filmlog</property>
  <property name="meta.attr.com.blackmagic-design.cinemacamera.uuid.markup">18E5E00548F94923B646613A73C01B56</property>
  <property name="meta.attr.creation_time.markup">2018-12-10T19:21:23.000000Z</property>
  <property name="meta.attr.timecode.markup">19:21:23:42</property>
  <property name="seekable">1</property>
  <property name="meta.media.sample_aspect_num">1</property>
  <property name="meta.media.sample_aspect_den">1</property>
  <property name="aspect_ratio">1</property>
  <property name="kdenlive:folderid">13</property>
  <property name="kdenlive:file_size">2127176129</property>
  <property name="kdenlive:file_hash">498399b1185fccb66f9150f51f3e9c22</property>
  <property name="global_feed">1</property>
  <property name="meta.media.frame_rate_num">50</property>
  <property name="meta.media.frame_rate_den">1</property>
  <property name="meta.media.colorspace">709</property>
  <property name="meta.media.color_trc">1</property>
  <property name="meta.media.width">1920</property>
  <property name="meta.media.height">1080</property>
  <property name="meta.media.top_field_first">0</property>
  <property name="meta.media.progressive">1</property>
  <property name="meta.media.1.codec.color_trc">1</property>
  <property name="kdenlive:zone_in">102</property>
  <property name="kdenlive:zone_out">174</property>
  <filter id="frei0r.levels">
   <property name="version">0,3</property>
   <property name="mlt_service">frei0r.levels</property>
   <property name="kdenlive_id">frei0r.levels</property>
   <property name="tag">frei0r.levels</property>
   <property name="kdenlive_ix">1</property>
   <property name="kdenlive_info"/>
   <property name="Channel">0,3</property>
   <property name="Input black level">0=0</property>
   <property name="Input white level">0=0,65</property>
   <property name="Gamma">0=0,29175</property>
   <property name="Black output">0=0</property>
   <property name="White output">0=1</property>
   <property name="Show histogram">0</property>
   <property name="Histogram position">0,3</property>
  </filter>
  <filter id="frei0r.colgate">
   <property name="version">0,1</property>
   <property name="mlt_service">frei0r.colgate</property>
   <property name="kdenlive_id">frei0r.colgate</property>
   <property name="tag">frei0r.colgate</property>
   <property name="kdenlive_ix">2</property>
   <property name="kdenlive_info"/>
   <property name="Neutral Color">0x7f7f7fff</property>
   <property name="Color Temperature">0=0,6</property>
  </filter>
 </producer>
 <producer title="Anonymous Submission" id="14" in="0" out="3805">
  <property name="length">00:01:16:06</property>
  <property name="eof">pause</property>
  <property name="resource">/media/bordun/plagiat/2018-12-10_Plagiat_RespecteLaPuissancePapale/Carte_3/CAM1_2018-12-10_1833_C0003.mov</property>
  <property name="audio_index">2</property>
  <property name="video_index">1</property>
  <property name="mute_on_pause">1</property>
  <property name="mlt_service">avformat-novalidate</property>
  <property name="meta.media.nb_streams">3</property>
  <property name="meta.media.1.stream.type">video</property>
  <property name="meta.media.1.stream.frame_rate">50</property>
  <property name="meta.media.1.stream.sample_aspect_ratio">1</property>
  <property name="meta.media.1.codec.width">1920</property>
  <property name="meta.media.1.codec.height">1080</property>
  <property name="meta.media.1.codec.rotate">0</property>
  <property name="meta.media.1.codec.frame_rate">5000</property>
  <property name="meta.media.1.codec.pix_fmt">yuv422p10le</property>
  <property name="meta.media.1.codec.sample_aspect_ratio">0</property>
  <property name="meta.media.1.codec.colorspace">709</property>
  <property name="meta.media.1.codec.name">prores</property>
  <property name="meta.media.1.codec.long_name">ProRes (iCodec Pro)</property>
  <property name="meta.media.1.codec.bit_rate">366958122</property>
  <property name="meta.attr.1.stream.creation_time.markup">2018-12-10T18:33:13.000000Z</property>
  <property name="meta.attr.1.stream.language.markup">eng</property>
  <property name="meta.attr.1.stream.handler_name.markup">Apple Video Media Handler</property>
  <property name="meta.attr.1.stream.encoder.markup">Apple ProRes 422 HQ</property>
  <property name="meta.attr.1.stream.timecode.markup">18:33:13:41</property>
  <property name="meta.media.2.stream.type">audio</property>
  <property name="meta.media.2.codec.sample_fmt">s32</property>
  <property name="meta.media.2.codec.sample_rate">48000</property>
  <property name="meta.media.2.codec.channels">2</property>
  <property name="meta.media.2.codec.name">pcm_s24le</property>
  <property name="meta.media.2.codec.long_name">PCM signed 24-bit little-endian</property>
  <property name="meta.media.2.codec.bit_rate">2304000</property>
  <property name="meta.attr.2.stream.creation_time.markup">2018-12-10T18:33:13.000000Z</property>
  <property name="meta.attr.2.stream.language.markup">eng</property>
  <property name="meta.attr.2.stream.handler_name.markup">Apple Sound Media Handler</property>
  <property name="meta.attr.2.stream.timecode.markup">18:33:13:41</property>
  <property name="meta.attr.com.apple.proapps.manufacturer.markup">Blackmagic Design</property>
  <property name="meta.attr.com.apple.proapps.cameraName.markup">CAM1</property>
  <property name="meta.attr.com.apple.proapps.isGood.markup">0</property>
  <property name="meta.attr.com.apple.proapps.customgamma.markup">com.blackmagic-design.cinemacamera.filmlog</property>
  <property name="meta.attr.com.blackmagic-design.cinemacamera.uuid.markup">18E5E00548F94923B646613A73C01B56</property>
  <property name="meta.attr.creation_time.markup">2018-12-10T18:33:13.000000Z</property>
  <property name="meta.attr.timecode.markup">18:33:13:41</property>
  <property name="seekable">1</property>
  <property name="meta.media.sample_aspect_num">1</property>
  <property name="meta.media.sample_aspect_den">1</property>
  <property name="aspect_ratio">1</property>
  <property name="kdenlive:folderid">14</property>
  <property name="kdenlive:file_size">3513882801</property>
  <property name="kdenlive:file_hash">911165815b4f50c12a788c8017dec34b</property>
  <property name="global_feed">1</property>
  <property name="meta.media.frame_rate_num">50</property>
  <property name="meta.media.frame_rate_den">1</property>
  <property name="meta.media.colorspace">709</property>
  <property name="meta.media.color_trc">2</property>
  <property name="meta.media.width">1920</property>
  <property name="meta.media.height">1080</property>
  <property name="meta.media.top_field_first">0</property>
  <property name="meta.media.progressive">1</property>
 </producer>
 <producer title="Anonymous Submission" id="15" in="0" out="3941">
  <property name="length">00:01:18:42</property>
  <property name="eof">pause</property>
  <property name="resource">/media/bordun/plagiat/2018-12-10_Plagiat_RespecteLaPuissancePapale/Carte_3/CAM1_2018-12-10_1834_C0004.mov</property>
  <property name="audio_index">2</property>
  <property name="video_index">1</property>
  <property name="mute_on_pause">1</property>
  <property name="mlt_service">avformat-novalidate</property>
  <property name="meta.media.nb_streams">3</property>
  <property name="meta.media.1.stream.type">video</property>
  <property name="meta.media.1.stream.frame_rate">50</property>
  <property name="meta.media.1.stream.sample_aspect_ratio">1</property>
  <property name="meta.media.1.codec.width">1920</property>
  <property name="meta.media.1.codec.height">1080</property>
  <property name="meta.media.1.codec.rotate">0</property>
  <property name="meta.media.1.codec.frame_rate">5000</property>
  <property name="meta.media.1.codec.pix_fmt">yuv422p10le</property>
  <property name="meta.media.1.codec.sample_aspect_ratio">0</property>
  <property name="meta.media.1.codec.colorspace">709</property>
  <property name="meta.media.1.codec.name">prores</property>
  <property name="meta.media.1.codec.long_name">ProRes (iCodec Pro)</property>
  <property name="meta.media.1.codec.bit_rate">366957579</property>
  <property name="meta.attr.1.stream.creation_time.markup">2018-12-10T18:34:58.000000Z</property>
  <property name="meta.attr.1.stream.language.markup">eng</property>
  <property name="meta.attr.1.stream.handler_name.markup">Apple Video Media Handler</property>
  <property name="meta.attr.1.stream.encoder.markup">Apple ProRes 422 HQ</property>
  <property name="meta.attr.1.stream.timecode.markup">18:34:58:08</property>
  <property name="meta.media.2.stream.type">audio</property>
  <property name="meta.media.2.codec.sample_fmt">s32</property>
  <property name="meta.media.2.codec.sample_rate">48000</property>
  <property name="meta.media.2.codec.channels">2</property>
  <property name="meta.media.2.codec.name">pcm_s24le</property>
  <property name="meta.media.2.codec.long_name">PCM signed 24-bit little-endian</property>
  <property name="meta.media.2.codec.bit_rate">2304000</property>
  <property name="meta.attr.2.stream.creation_time.markup">2018-12-10T18:34:58.000000Z</property>
  <property name="meta.attr.2.stream.language.markup">eng</property>
  <property name="meta.attr.2.stream.handler_name.markup">Apple Sound Media Handler</property>
  <property name="meta.attr.2.stream.timecode.markup">18:34:58:08</property>
  <property name="meta.attr.com.apple.proapps.manufacturer.markup">Blackmagic Design</property>
  <property name="meta.attr.com.apple.proapps.cameraName.markup">CAM1</property>
  <property name="meta.attr.com.apple.proapps.isGood.markup">0</property>
  <property name="meta.attr.com.apple.proapps.customgamma.markup">com.blackmagic-design.cinemacamera.filmlog</property>
  <property name="meta.attr.com.blackmagic-design.cinemacamera.uuid.markup">18E5E00548F94923B646613A73C01B56</property>
  <property name="meta.attr.creation_time.markup">2018-12-10T18:34:58.000000Z</property>
  <property name="meta.attr.timecode.markup">18:34:58:08</property>
  <property name="seekable">1</property>
  <property name="meta.media.sample_aspect_num">1</property>
  <property name="meta.media.sample_aspect_den">1</property>
  <property name="aspect_ratio">1</property>
  <property name="kdenlive:folderid">14</property>
  <property name="kdenlive:file_size">3639442625</property>
  <property name="kdenlive:file_hash">b37e37844340c239c0192cc4d49711fe</property>
  <property name="global_feed">1</property>
  <property name="meta.media.frame_rate_num">50</property>
  <property name="meta.media.frame_rate_den">1</property>
  <property name="meta.media.colorspace">709</property>
  <property name="meta.media.color_trc">2</property>
  <property name="meta.media.width">1920</property>
  <property name="meta.media.height">1080</property>
  <property name="meta.media.top_field_first">0</property>
  <property name="meta.media.progressive">1</property>
 </producer>
 <producer title="Anonymous Submission" id="10" in="0" out="3856">
  <property name="length">00:01:17:07</property>
  <property name="eof">pause</property>
  <property name="resource">/media/bordun/plagiat/2018-12-10_Plagiat_RespecteLaPuissancePapale/Carte_2/CAM1_2018-12-10_1727_C0005.mov</property>
  <property name="audio_index">2</property>
  <property name="video_index">1</property>
  <property name="mute_on_pause">1</property>
  <property name="mlt_service">avformat-novalidate</property>
  <property name="meta.media.nb_streams">3</property>
  <property name="meta.media.1.stream.type">video</property>
  <property name="meta.media.1.stream.frame_rate">50</property>
  <property name="meta.media.1.stream.sample_aspect_ratio">1</property>
  <property name="meta.media.1.codec.width">1920</property>
  <property name="meta.media.1.codec.height">1080</property>
  <property name="meta.media.1.codec.rotate">0</property>
  <property name="meta.media.1.codec.frame_rate">5000</property>
  <property name="meta.media.1.codec.pix_fmt">yuv422p10le</property>
  <property name="meta.media.1.codec.sample_aspect_ratio">0</property>
  <property name="meta.media.1.codec.colorspace">709</property>
  <property name="meta.media.1.codec.name">prores</property>
  <property name="meta.media.1.codec.long_name">ProRes (iCodec Pro)</property>
  <property name="meta.media.1.codec.bit_rate">366957401</property>
  <property name="meta.attr.1.stream.creation_time.markup">2018-12-10T17:27:46.000000Z</property>
  <property name="meta.attr.1.stream.language.markup">eng</property>
  <property name="meta.attr.1.stream.handler_name.markup">Apple Video Media Handler</property>
  <property name="meta.attr.1.stream.encoder.markup">Apple ProRes 422 HQ</property>
  <property name="meta.attr.1.stream.timecode.markup">17:27:46:06</property>
  <property name="meta.media.2.stream.type">audio</property>
  <property name="meta.media.2.codec.sample_fmt">s32</property>
  <property name="meta.media.2.codec.sample_rate">48000</property>
  <property name="meta.media.2.codec.channels">2</property>
  <property name="meta.media.2.codec.name">pcm_s24le</property>
  <property name="meta.media.2.codec.long_name">PCM signed 24-bit little-endian</property>
  <property name="meta.media.2.codec.bit_rate">2304000</property>
  <property name="meta.attr.2.stream.creation_time.markup">2018-12-10T17:27:46.000000Z</property>
  <property name="meta.attr.2.stream.language.markup">eng</property>
  <property name="meta.attr.2.stream.handler_name.markup">Apple Sound Media Handler</property>
  <property name="meta.attr.2.stream.timecode.markup">17:27:46:06</property>
  <property name="meta.attr.com.apple.proapps.manufacturer.markup">Blackmagic Design</property>
  <property name="meta.attr.com.apple.proapps.cameraName.markup">CAM1</property>
  <property name="meta.attr.com.apple.proapps.isGood.markup">0</property>
  <property name="meta.attr.com.apple.proapps.customgamma.markup">com.blackmagic-design.cinemacamera.filmlog</property>
  <property name="meta.attr.com.blackmagic-design.cinemacamera.uuid.markup">18E5E00548F94923B646613A73C01B56</property>
  <property name="meta.attr.creation_time.markup">2018-12-10T17:27:46.000000Z</property>
  <property name="meta.attr.timecode.markup">17:27:46:06</property>
  <property name="seekable">1</property>
  <property name="meta.media.sample_aspect_num">1</property>
  <property name="meta.media.sample_aspect_den">1</property>
  <property name="aspect_ratio">1</property>
  <property name="kdenlive:folderid">11</property>
  <property name="kdenlive:file_size">3560966841</property>
  <property name="kdenlive:file_hash">d4c6ef671e1439d8b3d95b2e51c4f714</property>
  <property name="global_feed">1</property>
  <property name="meta.media.frame_rate_num">50</property>
  <property name="meta.media.frame_rate_den">1</property>
  <property name="meta.media.colorspace">709</property>
  <property name="meta.media.color_trc">2</property>
  <property name="meta.media.width">1920</property>
  <property name="meta.media.height">1080</property>
  <property name="meta.media.top_field_first">0</property>
  <property name="meta.media.progressive">1</property>
 </producer>
 <producer title="Anonymous Submission" id="9" in="0" out="7720">
  <property name="length">00:02:34:21</property>
  <property name="eof">pause</property>
  <property name="resource">/media/bordun/plagiat/2018-12-10_Plagiat_RespecteLaPuissancePapale/Carte_2/CAM1_2018-12-10_1724_C0004.mov</property>
  <property name="audio_index">2</property>
  <property name="video_index">1</property>
  <property name="mute_on_pause">1</property>
  <property name="mlt_service">avformat-novalidate</property>
  <property name="meta.media.nb_streams">3</property>
  <property name="meta.media.1.stream.type">video</property>
  <property name="meta.media.1.stream.frame_rate">50</property>
  <property name="meta.media.1.stream.sample_aspect_ratio">1</property>
  <property name="meta.media.1.codec.width">1920</property>
  <property name="meta.media.1.codec.height">1080</property>
  <property name="meta.media.1.codec.rotate">0</property>
  <property name="meta.media.1.codec.frame_rate">5000</property>
  <property name="meta.media.1.codec.pix_fmt">yuv422p10le</property>
  <property name="meta.media.1.codec.sample_aspect_ratio">0</property>
  <property name="meta.media.1.codec.colorspace">709</property>
  <property name="meta.media.1.codec.name">prores</property>
  <property name="meta.media.1.codec.long_name">ProRes (iCodec Pro)</property>
  <property name="meta.media.1.codec.bit_rate">366955249</property>
  <property name="meta.attr.1.stream.creation_time.markup">2018-12-10T17:24:30.000000Z</property>
  <property name="meta.attr.1.stream.language.markup">eng</property>
  <property name="meta.attr.1.stream.handler_name.markup">Apple Video Media Handler</property>
  <property name="meta.attr.1.stream.encoder.markup">Apple ProRes 422 HQ</property>
  <property name="meta.attr.1.stream.timecode.markup">17:24:30:16</property>
  <property name="meta.media.2.stream.type">audio</property>
  <property name="meta.media.2.codec.sample_fmt">s32</property>
  <property name="meta.media.2.codec.sample_rate">48000</property>
  <property name="meta.media.2.codec.channels">2</property>
  <property name="meta.media.2.codec.name">pcm_s24le</property>
  <property name="meta.media.2.codec.long_name">PCM signed 24-bit little-endian</property>
  <property name="meta.media.2.codec.bit_rate">2304000</property>
  <property name="meta.attr.2.stream.creation_time.markup">2018-12-10T17:24:30.000000Z</property>
  <property name="meta.attr.2.stream.language.markup">eng</property>
  <property name="meta.attr.2.stream.handler_name.markup">Apple Sound Media Handler</property>
  <property name="meta.attr.2.stream.timecode.markup">17:24:30:16</property>
  <property name="meta.attr.com.apple.proapps.manufacturer.markup">Blackmagic Design</property>
  <property name="meta.attr.com.apple.proapps.cameraName.markup">CAM1</property>
  <property name="meta.attr.com.apple.proapps.isGood.markup">0</property>
  <property name="meta.attr.com.apple.proapps.customgamma.markup">com.blackmagic-design.cinemacamera.filmlog</property>
  <property name="meta.attr.com.blackmagic-design.cinemacamera.uuid.markup">18E5E00548F94923B646613A73C01B56</property>
  <property name="meta.attr.creation_time.markup">2018-12-10T17:24:30.000000Z</property>
  <property name="meta.attr.timecode.markup">17:24:30:16</property>
  <property name="seekable">1</property>
  <property name="meta.media.sample_aspect_num">1</property>
  <property name="meta.media.sample_aspect_den">1</property>
  <property name="aspect_ratio">1</property>
  <property name="kdenlive:folderid">11</property>
  <property name="kdenlive:file_size">7128395553</property>
  <property name="kdenlive:file_hash">26d06da8085fc8a55dca3b4629142f61</property>
  <property name="global_feed">1</property>
  <property name="meta.media.frame_rate_num">50</property>
  <property name="meta.media.frame_rate_den">1</property>
  <property name="meta.media.colorspace">709</property>
  <property name="meta.media.color_trc">2</property>
  <property name="meta.media.width">1920</property>
  <property name="meta.media.height">1080</property>
  <property name="meta.media.top_field_first">0</property>
  <property name="meta.media.progressive">1</property>
 </producer>
 <producer title="Anonymous Submission" id="11" in="0" out="21338">
  <property name="length">00:07:06:39</property>
  <property name="eof">pause</property>
  <property name="resource">/media/bordun/plagiat/2018-12-10_Plagiat_RespecteLaPuissancePapale/Carte_3/CAM1_2018-12-10_1738_C0000.mov</property>
  <property name="audio_index">2</property>
  <property name="video_index">1</property>
  <property name="mute_on_pause">1</property>
  <property name="mlt_service">avformat-novalidate</property>
  <property name="meta.media.nb_streams">3</property>
  <property name="meta.media.1.stream.type">video</property>
  <property name="meta.media.1.stream.frame_rate">50</property>
  <property name="meta.media.1.stream.sample_aspect_ratio">1</property>
  <property name="meta.media.1.codec.width">1920</property>
  <property name="meta.media.1.codec.height">1080</property>
  <property name="meta.media.1.codec.rotate">0</property>
  <property name="meta.media.1.codec.frame_rate">5000</property>
  <property name="meta.media.1.codec.pix_fmt">yuv422p10le</property>
  <property name="meta.media.1.codec.sample_aspect_ratio">0</property>
  <property name="meta.media.1.codec.colorspace">709</property>
  <property name="meta.media.1.codec.name">prores</property>
  <property name="meta.media.1.codec.long_name">ProRes (iCodec Pro)</property>
  <property name="meta.media.1.codec.bit_rate">366957439</property>
  <property name="meta.attr.1.stream.creation_time.markup">2018-12-10T17:38:54.000000Z</property>
  <property name="meta.attr.1.stream.language.markup">eng</property>
  <property name="meta.attr.1.stream.handler_name.markup">Apple Video Media Handler</property>
  <property name="meta.attr.1.stream.encoder.markup">Apple ProRes 422 HQ</property>
  <property name="meta.attr.1.stream.timecode.markup">17:38:54:28</property>
  <property name="meta.media.2.stream.type">audio</property>
  <property name="meta.media.2.codec.sample_fmt">s32</property>
  <property name="meta.media.2.codec.sample_rate">48000</property>
  <property name="meta.media.2.codec.channels">2</property>
  <property name="meta.media.2.codec.name">pcm_s24le</property>
  <property name="meta.media.2.codec.long_name">PCM signed 24-bit little-endian</property>
  <property name="meta.media.2.codec.bit_rate">2304000</property>
  <property name="meta.attr.2.stream.creation_time.markup">2018-12-10T17:38:54.000000Z</property>
  <property name="meta.attr.2.stream.language.markup">eng</property>
  <property name="meta.attr.2.stream.handler_name.markup">Apple Sound Media Handler</property>
  <property name="meta.attr.2.stream.timecode.markup">17:38:54:28</property>
  <property name="meta.attr.com.apple.proapps.manufacturer.markup">Blackmagic Design</property>
  <property name="meta.attr.com.apple.proapps.cameraName.markup">CAM1</property>
  <property name="meta.attr.com.apple.proapps.isGood.markup">0</property>
  <property name="meta.attr.com.apple.proapps.customgamma.markup">com.blackmagic-design.cinemacamera.filmlog</property>
  <property name="meta.attr.com.blackmagic-design.cinemacamera.uuid.markup">18E5E00548F94923B646613A73C01B56</property>
  <property name="meta.attr.creation_time.markup">2018-12-10T17:38:54.000000Z</property>
  <property name="meta.attr.timecode.markup">17:38:54:28</property>
  <property name="seekable">1</property>
  <property name="meta.media.sample_aspect_num">1</property>
  <property name="meta.media.sample_aspect_den">1</property>
  <property name="aspect_ratio">1</property>
  <property name="kdenlive:folderid">12</property>
  <property name="kdenlive:file_size">19701162913</property>
  <property name="kdenlive:file_hash">7247768fd7b55d6de0224125e0ef06f4</property>
  <property name="global_feed">1</property>
  <property name="meta.media.frame_rate_num">50</property>
  <property name="meta.media.frame_rate_den">1</property>
  <property name="meta.media.colorspace">709</property>
  <property name="meta.media.color_trc">2</property>
  <property name="meta.media.width">1920</property>
  <property name="meta.media.height">1080</property>
  <property name="meta.media.top_field_first">0</property>
  <property name="meta.media.progressive">1</property>
 </producer>
 <producer title="Anonymous Submission" id="8" in="0" out="21621">
  <property name="length">00:07:12:22</property>
  <property name="eof">pause</property>
  <property name="resource">/media/bordun/plagiat/2018-12-10_Plagiat_RespecteLaPuissancePapale/Carte_2/CAM1_2018-12-10_1649_C0003.mov</property>
  <property name="audio_index">2</property>
  <property name="video_index">1</property>
  <property name="mute_on_pause">1</property>
  <property name="mlt_service">avformat-novalidate</property>
  <property name="meta.media.nb_streams">3</property>
  <property name="meta.media.1.stream.type">video</property>
  <property name="meta.media.1.stream.frame_rate">50</property>
  <property name="meta.media.1.stream.sample_aspect_ratio">1</property>
  <property name="meta.media.1.codec.width">1920</property>
  <property name="meta.media.1.codec.height">1080</property>
  <property name="meta.media.1.codec.rotate">0</property>
  <property name="meta.media.1.codec.frame_rate">5000</property>
  <property name="meta.media.1.codec.pix_fmt">yuv422p10le</property>
  <property name="meta.media.1.codec.sample_aspect_ratio">0</property>
  <property name="meta.media.1.codec.colorspace">709</property>
  <property name="meta.media.1.codec.name">prores</property>
  <property name="meta.media.1.codec.long_name">ProRes</property>
  <property name="meta.media.1.codec.bit_rate">366956838</property>
  <property name="meta.attr.1.stream.creation_time.markup">2018-12-10T16:49:40.000000Z</property>
  <property name="meta.attr.1.stream.language.markup">eng</property>
  <property name="meta.attr.1.stream.handler_name.markup">Apple Alias Data Handler</property>
  <property name="meta.attr.1.stream.encoder.markup">Apple ProRes 422 HQ</property>
  <property name="meta.attr.1.stream.timecode.markup">16:49:40:04</property>
  <property name="meta.media.2.stream.type">audio</property>
  <property name="meta.media.2.codec.sample_fmt">s32</property>
  <property name="meta.media.2.codec.sample_rate">48000</property>
  <property name="meta.media.2.codec.channels">2</property>
  <property name="meta.media.2.codec.name">pcm_s24le</property>
  <property name="meta.media.2.codec.long_name">PCM signed 24-bit little-endian</property>
  <property name="meta.media.2.codec.bit_rate">2304000</property>
  <property name="meta.attr.2.stream.creation_time.markup">2018-12-10T16:49:40.000000Z</property>
  <property name="meta.attr.2.stream.language.markup">eng</property>
  <property name="meta.attr.2.stream.handler_name.markup">Apple Alias Data Handler</property>
  <property name="meta.attr.2.stream.timecode.markup">16:49:40:04</property>
  <property name="meta.attr.com.apple.proapps.manufacturer.markup">Blackmagic Design</property>
  <property name="meta.attr.com.apple.proapps.cameraName.markup">CAM1</property>
  <property name="meta.attr.com.apple.proapps.isGood.markup">0</property>
  <property name="meta.attr.com.apple.proapps.customgamma.markup">com.blackmagic-design.cinemacamera.filmlog</property>
  <property name="meta.attr.com.blackmagic-design.cinemacamera.uuid.markup">18E5E00548F94923B646613A73C01B56</property>
  <property name="meta.attr.creation_time.markup">2018-12-10T16:49:40.000000Z</property>
  <property name="meta.attr.timecode.markup">16:49:40:04</property>
  <property name="seekable">1</property>
  <property name="meta.media.sample_aspect_num">1</property>
  <property name="meta.media.sample_aspect_den">1</property>
  <property name="aspect_ratio">1</property>
  <property name="kdenlive:folderid">7</property>
  <property name="kdenlive:file_size">19962436561</property>
  <property name="kdenlive:file_hash">5ccc04e85e02ddf58369dec9f30fa947</property>
  <property name="global_feed">1</property>
  <property name="meta.media.frame_rate_num">50</property>
  <property name="meta.media.frame_rate_den">1</property>
  <property name="meta.media.colorspace">709</property>
  <property name="meta.media.color_trc">1</property>
  <property name="meta.media.width">1920</property>
  <property name="meta.media.height">1080</property>
  <property name="meta.media.top_field_first">0</property>
  <property name="meta.media.progressive">1</property>
  <property name="meta.media.1.codec.color_trc">1</property>
  <filter id="filter0">
   <property name="version">0,1</property>
   <property name="mlt_service">frei0r.colgate</property>
   <property name="kdenlive_id">frei0r.colgate</property>
   <property name="tag">frei0r.colgate</property>
   <property name="kdenlive_ix">1</property>
   <property name="kdenlive_info"/>
   <property name="Neutral Color">0x7f7f7fff</property>
   <property name="Color Temperature">0=0,533333</property>
  </filter>
  <filter id="filter1">
   <property name="version">0,3</property>
   <property name="mlt_service">frei0r.levels</property>
   <property name="kdenlive_id">frei0r.levels</property>
   <property name="tag">frei0r.levels</property>
   <property name="kdenlive_ix">2</property>
   <property name="kdenlive_info"/>
   <property name="Channel">0,3</property>
   <property name="Input black level">0=0,01</property>
   <property name="Input white level">0=0,9</property>
   <property name="Gamma">0=0,2875</property>
   <property name="Black output">0=0</property>
   <property name="White output">0=1</property>
   <property name="Show histogram">0</property>
   <property name="Histogram position">0,3</property>
  </filter>
 </producer>
 <producer title="Anonymous Submission" id="25" in="0" out="4317">
  <property name="length">00:01:26:18</property>
  <property name="eof">pause</property>
  <property name="resource">/media/bordun/plagiat/2018-12-10_Plagiat_RespecteLaPuissancePapale/Carte_4/CAM1_2018-12-10_1941_C0008.mov</property>
  <property name="audio_index">2</property>
  <property name="video_index">1</property>
  <property name="mute_on_pause">1</property>
  <property name="mlt_service">avformat-novalidate</property>
  <property name="meta.media.nb_streams">3</property>
  <property name="meta.media.1.stream.type">video</property>
  <property name="meta.media.1.stream.frame_rate">50</property>
  <property name="meta.media.1.stream.sample_aspect_ratio">1</property>
  <property name="meta.media.1.codec.width">1920</property>
  <property name="meta.media.1.codec.height">1080</property>
  <property name="meta.media.1.codec.rotate">0</property>
  <property name="meta.media.1.codec.frame_rate">5000</property>
  <property name="meta.media.1.codec.pix_fmt">yuv422p10le</property>
  <property name="meta.media.1.codec.sample_aspect_ratio">0</property>
  <property name="meta.media.1.codec.colorspace">709</property>
  <property name="meta.media.1.codec.name">prores</property>
  <property name="meta.media.1.codec.long_name">ProRes</property>
  <property name="meta.media.1.codec.bit_rate">366957366</property>
  <property name="meta.attr.1.stream.creation_time.markup">2018-12-10T19:41:35.000000Z</property>
  <property name="meta.attr.1.stream.language.markup">eng</property>
  <property name="meta.attr.1.stream.handler_name.markup">Apple Alias Data Handler</property>
  <property name="meta.attr.1.stream.encoder.markup">Apple ProRes 422 HQ</property>
  <property name="meta.attr.1.stream.timecode.markup">19:41:35:01</property>
  <property name="meta.media.2.stream.type">audio</property>
  <property name="meta.media.2.codec.sample_fmt">s32</property>
  <property name="meta.media.2.codec.sample_rate">48000</property>
  <property name="meta.media.2.codec.channels">2</property>
  <property name="meta.media.2.codec.name">pcm_s24le</property>
  <property name="meta.media.2.codec.long_name">PCM signed 24-bit little-endian</property>
  <property name="meta.media.2.codec.bit_rate">2304000</property>
  <property name="meta.attr.2.stream.creation_time.markup">2018-12-10T19:41:35.000000Z</property>
  <property name="meta.attr.2.stream.language.markup">eng</property>
  <property name="meta.attr.2.stream.handler_name.markup">Apple Alias Data Handler</property>
  <property name="meta.attr.2.stream.timecode.markup">19:41:35:01</property>
  <property name="meta.attr.com.apple.proapps.manufacturer.markup">Blackmagic Design</property>
  <property name="meta.attr.com.apple.proapps.cameraName.markup">CAM1</property>
  <property name="meta.attr.com.apple.proapps.isGood.markup">0</property>
  <property name="meta.attr.com.apple.proapps.customgamma.markup">com.blackmagic-design.cinemacamera.filmlog</property>
  <property name="meta.attr.com.blackmagic-design.cinemacamera.uuid.markup">18E5E00548F94923B646613A73C01B56</property>
  <property name="meta.attr.creation_time.markup">2018-12-10T19:41:35.000000Z</property>
  <property name="meta.attr.timecode.markup">19:41:35:01</property>
  <property name="seekable">1</property>
  <property name="meta.media.sample_aspect_num">1</property>
  <property name="meta.media.sample_aspect_den">1</property>
  <property name="aspect_ratio">1</property>
  <property name="kdenlive:folderid">7</property>
  <property name="kdenlive:file_size">3986584833</property>
  <property name="kdenlive:file_hash">090baf1e7089bd64f9705012f4444883</property>
  <property name="global_feed">1</property>
  <property name="meta.media.frame_rate_num">50</property>
  <property name="meta.media.frame_rate_den">1</property>
  <property name="meta.media.colorspace">709</property>
  <property name="meta.media.color_trc">1</property>
  <property name="meta.media.width">1920</property>
  <property name="meta.media.height">1080</property>
  <property name="meta.media.top_field_first">0</property>
  <property name="meta.media.progressive">1</property>
  <property name="kdenlive:zone_in">2564</property>
  <property name="kdenlive:zone_out">2595</property>
  <property name="meta.media.1.codec.color_trc">1</property>
  <filter id="filter2">
   <property name="version">0,1</property>
   <property name="mlt_service">frei0r.colgate</property>
   <property name="kdenlive_id">frei0r.colgate</property>
   <property name="tag">frei0r.colgate</property>
   <property name="kdenlive_ix">1</property>
   <property name="kdenlive_info"/>
   <property name="Neutral Color">0x7f7f7fff</property>
   <property name="Color Temperature">0=0,533333</property>
  </filter>
  <filter id="filter3">
   <property name="version">0,3</property>
   <property name="mlt_service">frei0r.levels</property>
   <property name="kdenlive_id">frei0r.levels</property>
   <property name="tag">frei0r.levels</property>
   <property name="kdenlive_ix">2</property>
   <property name="kdenlive_info"/>
   <property name="Channel">0,3</property>
   <property name="Input black level">0=0,01</property>
   <property name="Input white level">0=0,9</property>
   <property name="Gamma">0=0,25</property>
   <property name="Black output">0=0</property>
   <property name="White output">0=1</property>
   <property name="Show histogram">0</property>
   <property name="Histogram position">0,3</property>
  </filter>
 </producer>
 <producer title="Anonymous Submission" id="26" in="0" out="2406">
  <property name="length">00:00:48:07</property>
  <property name="eof">pause</property>
  <property name="resource">/media/bordun/plagiat/2018-12-10_Plagiat_RespecteLaPuissancePapale/Carte_4/CAM1_2018-12-10_1950_C0009.mov</property>
  <property name="audio_index">2</property>
  <property name="video_index">1</property>
  <property name="mute_on_pause">1</property>
  <property name="mlt_service">avformat-novalidate</property>
  <property name="meta.media.nb_streams">3</property>
  <property name="meta.media.1.stream.type">video</property>
  <property name="meta.media.1.stream.frame_rate">50</property>
  <property name="meta.media.1.stream.sample_aspect_ratio">1</property>
  <property name="meta.media.1.codec.width">1920</property>
  <property name="meta.media.1.codec.height">1080</property>
  <property name="meta.media.1.codec.rotate">0</property>
  <property name="meta.media.1.codec.frame_rate">5000</property>
  <property name="meta.media.1.codec.pix_fmt">yuv422p10le</property>
  <property name="meta.media.1.codec.sample_aspect_ratio">0</property>
  <property name="meta.media.1.codec.colorspace">709</property>
  <property name="meta.media.1.codec.name">prores</property>
  <property name="meta.media.1.codec.long_name">ProRes (iCodec Pro)</property>
  <property name="meta.media.1.codec.bit_rate">366957768</property>
  <property name="meta.attr.1.stream.creation_time.markup">2018-12-10T19:50:41.000000Z</property>
  <property name="meta.attr.1.stream.language.markup">eng</property>
  <property name="meta.attr.1.stream.handler_name.markup">Apple Video Media Handler</property>
  <property name="meta.attr.1.stream.encoder.markup">Apple ProRes 422 HQ</property>
  <property name="meta.attr.1.stream.timecode.markup">19:50:41:10</property>
  <property name="meta.media.2.stream.type">audio</property>
  <property name="meta.media.2.codec.sample_fmt">s32</property>
  <property name="meta.media.2.codec.sample_rate">48000</property>
  <property name="meta.media.2.codec.channels">2</property>
  <property name="meta.media.2.codec.name">pcm_s24le</property>
  <property name="meta.media.2.codec.long_name">PCM signed 24-bit little-endian</property>
  <property name="meta.media.2.codec.bit_rate">2304000</property>
  <property name="meta.attr.2.stream.creation_time.markup">2018-12-10T19:50:41.000000Z</property>
  <property name="meta.attr.2.stream.language.markup">eng</property>
  <property name="meta.attr.2.stream.handler_name.markup">Apple Sound Media Handler</property>
  <property name="meta.attr.2.stream.timecode.markup">19:50:41:10</property>
  <property name="meta.attr.com.apple.proapps.manufacturer.markup">Blackmagic Design</property>
  <property name="meta.attr.com.apple.proapps.cameraName.markup">CAM1</property>
  <property name="meta.attr.com.apple.proapps.isGood.markup">0</property>
  <property name="meta.attr.com.apple.proapps.customgamma.markup">com.blackmagic-design.cinemacamera.filmlog</property>
  <property name="meta.attr.com.blackmagic-design.cinemacamera.uuid.markup">18E5E00548F94923B646613A73C01B56</property>
  <property name="meta.attr.creation_time.markup">2018-12-10T19:50:41.000000Z</property>
  <property name="meta.attr.timecode.markup">19:50:41:10</property>
  <property name="seekable">1</property>
  <property name="meta.media.sample_aspect_num">1</property>
  <property name="meta.media.sample_aspect_den">1</property>
  <property name="aspect_ratio">1</property>
  <property name="kdenlive:folderid">15</property>
  <property name="kdenlive:file_size">2222269393</property>
  <property name="kdenlive:file_hash">31d97f0f897fd63981b85562c9492a1e</property>
  <property name="global_feed">1</property>
  <property name="meta.media.frame_rate_num">50</property>
  <property name="meta.media.frame_rate_den">1</property>
  <property name="meta.media.colorspace">709</property>
  <property name="meta.media.color_trc">2</property>
  <property name="meta.media.width">1920</property>
  <property name="meta.media.height">1080</property>
  <property name="meta.media.top_field_first">0</property>
  <property name="meta.media.progressive">1</property>
 </producer>
 <producer title="Anonymous Submission" id="13" in="0" out="4748">
  <property name="length">00:01:34:49</property>
  <property name="eof">pause</property>
  <property name="resource">/media/bordun/plagiat/2018-12-10_Plagiat_RespecteLaPuissancePapale/Carte_3/CAM1_2018-12-10_1827_C0002.mov</property>
  <property name="audio_index">2</property>
  <property name="video_index">1</property>
  <property name="mute_on_pause">1</property>
  <property name="mlt_service">avformat-novalidate</property>
  <property name="meta.media.nb_streams">3</property>
  <property name="meta.media.1.stream.type">video</property>
  <property name="meta.media.1.stream.frame_rate">50</property>
  <property name="meta.media.1.stream.sample_aspect_ratio">1</property>
  <property name="meta.media.1.codec.width">1920</property>
  <property name="meta.media.1.codec.height">1080</property>
  <property name="meta.media.1.codec.rotate">0</property>
  <property name="meta.media.1.codec.frame_rate">5000</property>
  <property name="meta.media.1.codec.pix_fmt">yuv422p10le</property>
  <property name="meta.media.1.codec.sample_aspect_ratio">0</property>
  <property name="meta.media.1.codec.colorspace">709</property>
  <property name="meta.media.1.codec.name">prores</property>
  <property name="meta.media.1.codec.long_name">ProRes (iCodec Pro)</property>
  <property name="meta.media.1.codec.bit_rate">366955583</property>
  <property name="meta.attr.1.stream.creation_time.markup">2018-12-10T18:27:53.000000Z</property>
  <property name="meta.attr.1.stream.language.markup">eng</property>
  <property name="meta.attr.1.stream.handler_name.markup">Apple Video Media Handler</property>
  <property name="meta.attr.1.stream.encoder.markup">Apple ProRes 422 HQ</property>
  <property name="meta.attr.1.stream.timecode.markup">18:27:53:15</property>
  <property name="meta.media.2.stream.type">audio</property>
  <property name="meta.media.2.codec.sample_fmt">s32</property>
  <property name="meta.media.2.codec.sample_rate">48000</property>
  <property name="meta.media.2.codec.channels">2</property>
  <property name="meta.media.2.codec.name">pcm_s24le</property>
  <property name="meta.media.2.codec.long_name">PCM signed 24-bit little-endian</property>
  <property name="meta.media.2.codec.bit_rate">2304000</property>
  <property name="meta.attr.2.stream.creation_time.markup">2018-12-10T18:27:53.000000Z</property>
  <property name="meta.attr.2.stream.language.markup">eng</property>
  <property name="meta.attr.2.stream.handler_name.markup">Apple Sound Media Handler</property>
  <property name="meta.attr.2.stream.timecode.markup">18:27:53:15</property>
  <property name="meta.attr.com.apple.proapps.manufacturer.markup">Blackmagic Design</property>
  <property name="meta.attr.com.apple.proapps.cameraName.markup">CAM1</property>
  <property name="meta.attr.com.apple.proapps.isGood.markup">0</property>
  <property name="meta.attr.com.apple.proapps.customgamma.markup">com.blackmagic-design.cinemacamera.filmlog</property>
  <property name="meta.attr.com.blackmagic-design.cinemacamera.uuid.markup">18E5E00548F94923B646613A73C01B56</property>
  <property name="meta.attr.creation_time.markup">2018-12-10T18:27:53.000000Z</property>
  <property name="meta.attr.timecode.markup">18:27:53:15</property>
  <property name="seekable">1</property>
  <property name="meta.media.sample_aspect_num">1</property>
  <property name="meta.media.sample_aspect_den">1</property>
  <property name="aspect_ratio">1</property>
  <property name="kdenlive:folderid">15</property>
  <property name="kdenlive:file_size">4384498497</property>
  <property name="kdenlive:file_hash">ae32c687eeaacc4b45c49f0baeccff11</property>
  <property name="global_feed">1</property>
  <property name="meta.media.frame_rate_num">50</property>
  <property name="meta.media.frame_rate_den">1</property>
  <property name="meta.media.colorspace">709</property>
  <property name="meta.media.color_trc">2</property>
  <property name="meta.media.width">1920</property>
  <property name="meta.media.height">1080</property>
  <property name="meta.media.top_field_first">0</property>
  <property name="meta.media.progressive">1</property>
 </producer>
 <producer title="Anonymous Submission" id="12" in="0" out="23600">
  <property name="length">00:07:52:01</property>
  <property name="eof">pause</property>
  <property name="resource">/media/bordun/plagiat/2018-12-10_Plagiat_RespecteLaPuissancePapale/Carte_3/CAM1_2018-12-10_1819_C0001.mov</property>
  <property name="audio_index">2</property>
  <property name="video_index">1</property>
  <property name="mute_on_pause">1</property>
  <property name="mlt_service">avformat-novalidate</property>
  <property name="meta.media.nb_streams">3</property>
  <property name="meta.media.1.stream.type">video</property>
  <property name="meta.media.1.stream.frame_rate">50</property>
  <property name="meta.media.1.stream.sample_aspect_ratio">1</property>
  <property name="meta.media.1.codec.width">1920</property>
  <property name="meta.media.1.codec.height">1080</property>
  <property name="meta.media.1.codec.rotate">0</property>
  <property name="meta.media.1.codec.frame_rate">5000</property>
  <property name="meta.media.1.codec.pix_fmt">yuv422p10le</property>
  <property name="meta.media.1.codec.sample_aspect_ratio">0</property>
  <property name="meta.media.1.codec.colorspace">709</property>
  <property name="meta.media.1.codec.name">prores</property>
  <property name="meta.media.1.codec.long_name">ProRes (iCodec Pro)</property>
  <property name="meta.media.1.codec.bit_rate">366956856</property>
  <property name="meta.attr.1.stream.creation_time.markup">2018-12-10T18:19:34.000000Z</property>
  <property name="meta.attr.1.stream.language.markup">eng</property>
  <property name="meta.attr.1.stream.handler_name.markup">Apple Video Media Handler</property>
  <property name="meta.attr.1.stream.encoder.markup">Apple ProRes 422 HQ</property>
  <property name="meta.attr.1.stream.timecode.markup">18:19:34:45</property>
  <property name="meta.media.2.stream.type">audio</property>
  <property name="meta.media.2.codec.sample_fmt">s32</property>
  <property name="meta.media.2.codec.sample_rate">48000</property>
  <property name="meta.media.2.codec.channels">2</property>
  <property name="meta.media.2.codec.name">pcm_s24le</property>
  <property name="meta.media.2.codec.long_name">PCM signed 24-bit little-endian</property>
  <property name="meta.media.2.codec.bit_rate">2304000</property>
  <property name="meta.attr.2.stream.creation_time.markup">2018-12-10T18:19:34.000000Z</property>
  <property name="meta.attr.2.stream.language.markup">eng</property>
  <property name="meta.attr.2.stream.handler_name.markup">Apple Sound Media Handler</property>
  <property name="meta.attr.2.stream.timecode.markup">18:19:34:45</property>
  <property name="meta.attr.com.apple.proapps.manufacturer.markup">Blackmagic Design</property>
  <property name="meta.attr.com.apple.proapps.cameraName.markup">CAM1</property>
  <property name="meta.attr.com.apple.proapps.isGood.markup">0</property>
  <property name="meta.attr.com.apple.proapps.customgamma.markup">com.blackmagic-design.cinemacamera.filmlog</property>
  <property name="meta.attr.com.blackmagic-design.cinemacamera.uuid.markup">18E5E00548F94923B646613A73C01B56</property>
  <property name="meta.attr.creation_time.markup">2018-12-10T18:19:34.000000Z</property>
  <property name="meta.attr.timecode.markup">18:19:34:45</property>
  <property name="seekable">1</property>
  <property name="meta.media.sample_aspect_num">1</property>
  <property name="meta.media.sample_aspect_den">1</property>
  <property name="aspect_ratio">1</property>
  <property name="kdenlive:folderid">15</property>
  <property name="kdenlive:file_size">21789523729</property>
  <property name="kdenlive:file_hash">3b63588261e8ab0454ca51230a000191</property>
  <property name="global_feed">1</property>
  <property name="meta.media.frame_rate_num">50</property>
  <property name="meta.media.frame_rate_den">1</property>
  <property name="meta.media.colorspace">709</property>
  <property name="meta.media.color_trc">2</property>
  <property name="meta.media.width">1920</property>
  <property name="meta.media.height">1080</property>
  <property name="meta.media.top_field_first">0</property>
  <property name="meta.media.progressive">1</property>
 </producer>
 <producer title="Anonymous Submission" id="28" in="0" out="43907">
  <property name="length">00:14:38:08</property>
  <property name="eof">pause</property>
  <property name="resource">/media/bordun/plagiat2/2019-05-01_Plagiat_RespecteLaPuissancePapale_Lavare/CAM1_2019-01-05_0407_C0000.mov</property>
  <property name="audio_index">2</property>
  <property name="video_index">1</property>
  <property name="mute_on_pause">1</property>
  <property name="mlt_service">avformat-novalidate</property>
  <property name="meta.media.nb_streams">3</property>
  <property name="meta.media.1.stream.type">video</property>
  <property name="meta.media.1.stream.frame_rate">50</property>
  <property name="meta.media.1.stream.sample_aspect_ratio">1</property>
  <property name="meta.media.1.codec.width">1920</property>
  <property name="meta.media.1.codec.height">1080</property>
  <property name="meta.media.1.codec.rotate">0</property>
  <property name="meta.media.1.codec.frame_rate">5000</property>
  <property name="meta.media.1.codec.pix_fmt">yuv422p10le</property>
  <property name="meta.media.1.codec.sample_aspect_ratio">0</property>
  <property name="meta.media.1.codec.colorspace">709</property>
  <property name="meta.media.1.codec.color_trc">1</property>
  <property name="meta.media.1.codec.name">prores</property>
  <property name="meta.media.1.codec.long_name">ProRes</property>
  <property name="meta.media.1.codec.bit_rate">366957037</property>
  <property name="meta.attr.1.stream.creation_time.markup">2019-01-05T04:07:04.000000Z</property>
  <property name="meta.attr.1.stream.language.markup">eng</property>
  <property name="meta.attr.1.stream.handler_name.markup">Apple Alias Data Handler</property>
  <property name="meta.attr.1.stream.encoder.markup">Apple ProRes 422 HQ</property>
  <property name="meta.attr.1.stream.timecode.markup">04:07:04:29</property>
  <property name="meta.media.2.stream.type">audio</property>
  <property name="meta.media.2.codec.sample_fmt">s32</property>
  <property name="meta.media.2.codec.sample_rate">48000</property>
  <property name="meta.media.2.codec.channels">2</property>
  <property name="meta.media.2.codec.name">pcm_s24le</property>
  <property name="meta.media.2.codec.long_name">PCM signed 24-bit little-endian</property>
  <property name="meta.media.2.codec.bit_rate">2304000</property>
  <property name="meta.attr.2.stream.creation_time.markup">2019-01-05T04:07:04.000000Z</property>
  <property name="meta.attr.2.stream.language.markup">eng</property>
  <property name="meta.attr.2.stream.handler_name.markup">Apple Alias Data Handler</property>
  <property name="meta.attr.2.stream.timecode.markup">04:07:04:29</property>
  <property name="meta.attr.com.apple.proapps.manufacturer.markup">Blackmagic Design</property>
  <property name="meta.attr.com.apple.proapps.cameraName.markup">CAM1</property>
  <property name="meta.attr.com.apple.proapps.isGood.markup">0</property>
  <property name="meta.attr.com.apple.proapps.customgamma.markup">com.blackmagic-design.cinemacamera.filmlog</property>
  <property name="meta.attr.com.blackmagic-design.cinemacamera.uuid.markup">18E5E00548F94923B646613A73C01B56</property>
  <property name="meta.attr.creation_time.markup">2019-01-05T04:07:04.000000Z</property>
  <property name="meta.attr.timecode.markup">04:07:04:29</property>
  <property name="seekable">1</property>
  <property name="meta.media.sample_aspect_num">1</property>
  <property name="meta.media.sample_aspect_den">1</property>
  <property name="aspect_ratio">1</property>
  <property name="kdenlive:folderid">17</property>
  <property name="meta.media.frame_rate_num">50</property>
  <property name="meta.media.frame_rate_den">1</property>
  <property name="meta.media.colorspace">709</property>
  <property name="meta.media.color_trc">1</property>
  <property name="meta.media.width">1920</property>
  <property name="meta.media.height">1080</property>
  <property name="meta.media.top_field_first">0</property>
  <property name="meta.media.progressive">1</property>
  <property name="kdenlive:file_size">40537867713</property>
  <property name="kdenlive:file_hash">eeb49a6f6e2626b129e2046ec649a60c</property>
  <property name="global_feed">1</property>
  <property name="kdenlive:zone_in">28606</property>
  <property name="kdenlive:zone_out">28640</property>
  <filter id="filter4">
   <property name="version">0,3</property>
   <property name="mlt_service">frei0r.levels</property>
   <property name="kdenlive_id">frei0r.levels</property>
   <property name="tag">frei0r.levels</property>
   <property name="kdenlive_ix">1</property>
   <property name="kdenlive_info">1/-1/</property>
   <property name="disable">0</property>
   <property name="Channel">0,3</property>
   <property name="Input black level">26882=0,03</property>
   <property name="Input white level">26882=1</property>
   <property name="Gamma">26882=0,25</property>
   <property name="Black output">26882=0</property>
   <property name="White output">26882=1</property>
   <property name="Show histogram">0</property>
   <property name="Histogram position">0,3</property>
  </filter>
 </producer>
 <producer id="29" in="0" out="3983">
  <property name="length">00:01:19:34</property>
  <property name="eof">pause</property>
  <property name="resource">/media/bordun/plagiat2/2019-05-01_Plagiat_RespecteLaPuissancePapale_Lavare/CAM1_2019-01-05_0918_C0009.mov</property>
  <property name="audio_index">2</property>
  <property name="video_index">1</property>
  <property name="mute_on_pause">1</property>
  <property name="mlt_service">avformat-novalidate</property>
  <property name="meta.media.nb_streams">3</property>
  <property name="meta.media.1.stream.type">video</property>
  <property name="meta.media.1.stream.frame_rate">25</property>
  <property name="meta.media.1.stream.sample_aspect_ratio">1</property>
  <property name="meta.media.1.codec.width">1920</property>
  <property name="meta.media.1.codec.height">1080</property>
  <property name="meta.media.1.codec.rotate">0</property>
  <property name="meta.media.1.codec.frame_rate">2500</property>
  <property name="meta.media.1.codec.pix_fmt">yuv422p10le</property>
  <property name="meta.media.1.codec.sample_aspect_ratio">0</property>
  <property name="meta.media.1.codec.colorspace">709</property>
  <property name="meta.media.1.codec.color_trc">1</property>
  <property name="meta.media.1.codec.name">prores</property>
  <property name="meta.media.1.codec.long_name">ProRes</property>
  <property name="meta.media.1.codec.bit_rate">122316581</property>
  <property name="meta.attr.1.stream.creation_time.markup">2019-01-05T09:18:25.000000Z</property>
  <property name="meta.attr.1.stream.language.markup">eng</property>
  <property name="meta.attr.1.stream.handler_name.markup">Apple Alias Data Handler</property>
  <property name="meta.attr.1.stream.encoder.markup">Apple ProRes 422</property>
  <property name="meta.attr.1.stream.timecode.markup">09:18:25:03</property>
  <property name="meta.media.2.stream.type">audio</property>
  <property name="meta.media.2.codec.sample_fmt">s32</property>
  <property name="meta.media.2.codec.sample_rate">48000</property>
  <property name="meta.media.2.codec.channels">2</property>
  <property name="meta.media.2.codec.name">pcm_s24le</property>
  <property name="meta.media.2.codec.long_name">PCM signed 24-bit little-endian</property>
  <property name="meta.media.2.codec.bit_rate">2304000</property>
  <property name="meta.attr.2.stream.creation_time.markup">2019-01-05T09:18:25.000000Z</property>
  <property name="meta.attr.2.stream.language.markup">eng</property>
  <property name="meta.attr.2.stream.handler_name.markup">Apple Alias Data Handler</property>
  <property name="meta.attr.2.stream.timecode.markup">09:18:25:03</property>
  <property name="meta.attr.com.apple.proapps.manufacturer.markup">Blackmagic Design</property>
  <property name="meta.attr.com.apple.proapps.cameraName.markup">CAM1</property>
  <property name="meta.attr.com.apple.proapps.isGood.markup">0</property>
  <property name="meta.attr.com.apple.proapps.customgamma.markup">com.blackmagic-design.cinemacamera.filmlog</property>
  <property name="meta.attr.com.blackmagic-design.cinemacamera.uuid.markup">18E5E00548F94923B646613A73C01B56</property>
  <property name="meta.attr.creation_time.markup">2019-01-05T09:18:25.000000Z</property>
  <property name="meta.attr.timecode.markup">09:18:25:03</property>
  <property name="seekable">1</property>
  <property name="meta.media.sample_aspect_num">1</property>
  <property name="meta.media.sample_aspect_den">1</property>
  <property name="aspect_ratio">1</property>
  <property name="kdenlive:folderid">17</property>
  <property name="meta.media.frame_rate_num">25</property>
  <property name="meta.media.frame_rate_den">1</property>
  <property name="meta.media.colorspace">709</property>
  <property name="meta.media.color_trc">1</property>
  <property name="meta.media.width">1920</property>
  <property name="meta.media.height">1080</property>
  <property name="meta.media.top_field_first">0</property>
  <property name="meta.media.progressive">1</property>
  <property name="kdenlive:file_size">1241534665</property>
  <property name="kdenlive:file_hash">3298342aecc7a336c57ca6af427a29f7</property>
 </producer>
 <producer id="30" in="0" out="5323">
  <property name="length">00:01:46:24</property>
  <property name="eof">pause</property>
  <property name="resource">/media/bordun/plagiat2/2019-05-01_Plagiat_RespecteLaPuissancePapale_Lavare/CAM1_2019-01-05_0915_C0008.mov</property>
  <property name="audio_index">2</property>
  <property name="video_index">1</property>
  <property name="mute_on_pause">1</property>
  <property name="mlt_service">avformat-novalidate</property>
  <property name="meta.media.nb_streams">3</property>
  <property name="meta.media.1.stream.type">video</property>
  <property name="meta.media.1.stream.frame_rate">25</property>
  <property name="meta.media.1.stream.sample_aspect_ratio">1</property>
  <property name="meta.media.1.codec.width">1920</property>
  <property name="meta.media.1.codec.height">1080</property>
  <property name="meta.media.1.codec.rotate">0</property>
  <property name="meta.media.1.codec.frame_rate">2500</property>
  <property name="meta.media.1.codec.pix_fmt">yuv422p10le</property>
  <property name="meta.media.1.codec.sample_aspect_ratio">0</property>
  <property name="meta.media.1.codec.colorspace">709</property>
  <property name="meta.media.1.codec.color_trc">1</property>
  <property name="meta.media.1.codec.name">prores</property>
  <property name="meta.media.1.codec.long_name">ProRes</property>
  <property name="meta.media.1.codec.bit_rate">122315341</property>
  <property name="meta.attr.1.stream.creation_time.markup">2019-01-05T09:15:40.000000Z</property>
  <property name="meta.attr.1.stream.language.markup">eng</property>
  <property name="meta.attr.1.stream.handler_name.markup">Apple Alias Data Handler</property>
  <property name="meta.attr.1.stream.encoder.markup">Apple ProRes 422</property>
  <property name="meta.attr.1.stream.timecode.markup">09:15:40:03</property>
  <property name="meta.media.2.stream.type">audio</property>
  <property name="meta.media.2.codec.sample_fmt">s32</property>
  <property name="meta.media.2.codec.sample_rate">48000</property>
  <property name="meta.media.2.codec.channels">2</property>
  <property name="meta.media.2.codec.name">pcm_s24le</property>
  <property name="meta.media.2.codec.long_name">PCM signed 24-bit little-endian</property>
  <property name="meta.media.2.codec.bit_rate">2304000</property>
  <property name="meta.attr.2.stream.creation_time.markup">2019-01-05T09:15:40.000000Z</property>
  <property name="meta.attr.2.stream.language.markup">eng</property>
  <property name="meta.attr.2.stream.handler_name.markup">Apple Alias Data Handler</property>
  <property name="meta.attr.2.stream.timecode.markup">09:15:40:03</property>
  <property name="meta.attr.com.apple.proapps.manufacturer.markup">Blackmagic Design</property>
  <property name="meta.attr.com.apple.proapps.cameraName.markup">CAM1</property>
  <property name="meta.attr.com.apple.proapps.isGood.markup">0</property>
  <property name="meta.attr.com.apple.proapps.customgamma.markup">com.blackmagic-design.cinemacamera.filmlog</property>
  <property name="meta.attr.com.blackmagic-design.cinemacamera.uuid.markup">18E5E00548F94923B646613A73C01B56</property>
  <property name="meta.attr.creation_time.markup">2019-01-05T09:15:40.000000Z</property>
  <property name="meta.attr.timecode.markup">09:15:40:03</property>
  <property name="seekable">1</property>
  <property name="meta.media.sample_aspect_num">1</property>
  <property name="meta.media.sample_aspect_den">1</property>
  <property name="aspect_ratio">1</property>
  <property name="kdenlive:folderid">17</property>
  <property name="meta.media.frame_rate_num">25</property>
  <property name="meta.media.frame_rate_den">1</property>
  <property name="meta.media.colorspace">709</property>
  <property name="meta.media.color_trc">1</property>
  <property name="meta.media.width">1920</property>
  <property name="meta.media.height">1080</property>
  <property name="meta.media.top_field_first">0</property>
  <property name="meta.media.progressive">1</property>
  <property name="kdenlive:file_size">1659116449</property>
  <property name="kdenlive:file_hash">f8aa56141d75527d7246be55a57cf7dd</property>
 </producer>
 <producer id="31" in="0" out="9041">
  <property name="length">00:03:00:42</property>
  <property name="eof">pause</property>
  <property name="resource">/media/bordun/plagiat2/2019-05-01_Plagiat_RespecteLaPuissancePapale_Lavare/CAM1_2019-01-05_0910_C0007.mov</property>
  <property name="audio_index">2</property>
  <property name="video_index">1</property>
  <property name="mute_on_pause">1</property>
  <property name="mlt_service">avformat-novalidate</property>
  <property name="meta.media.nb_streams">3</property>
  <property name="meta.media.1.stream.type">video</property>
  <property name="meta.media.1.stream.frame_rate">25</property>
  <property name="meta.media.1.stream.sample_aspect_ratio">1</property>
  <property name="meta.media.1.codec.width">1920</property>
  <property name="meta.media.1.codec.height">1080</property>
  <property name="meta.media.1.codec.rotate">0</property>
  <property name="meta.media.1.codec.frame_rate">2500</property>
  <property name="meta.media.1.codec.pix_fmt">yuv422p10le</property>
  <property name="meta.media.1.codec.sample_aspect_ratio">0</property>
  <property name="meta.media.1.codec.colorspace">709</property>
  <property name="meta.media.1.codec.color_trc">1</property>
  <property name="meta.media.1.codec.name">prores</property>
  <property name="meta.media.1.codec.long_name">ProRes</property>
  <property name="meta.media.1.codec.bit_rate">122315670</property>
  <property name="meta.attr.1.stream.creation_time.markup">2019-01-05T09:10:10.000000Z</property>
  <property name="meta.attr.1.stream.language.markup">eng</property>
  <property name="meta.attr.1.stream.handler_name.markup">Apple Alias Data Handler</property>
  <property name="meta.attr.1.stream.encoder.markup">Apple ProRes 422</property>
  <property name="meta.attr.1.stream.timecode.markup">09:10:10:17</property>
  <property name="meta.media.2.stream.type">audio</property>
  <property name="meta.media.2.codec.sample_fmt">s32</property>
  <property name="meta.media.2.codec.sample_rate">48000</property>
  <property name="meta.media.2.codec.channels">2</property>
  <property name="meta.media.2.codec.name">pcm_s24le</property>
  <property name="meta.media.2.codec.long_name">PCM signed 24-bit little-endian</property>
  <property name="meta.media.2.codec.bit_rate">2304000</property>
  <property name="meta.attr.2.stream.creation_time.markup">2019-01-05T09:10:10.000000Z</property>
  <property name="meta.attr.2.stream.language.markup">eng</property>
  <property name="meta.attr.2.stream.handler_name.markup">Apple Alias Data Handler</property>
  <property name="meta.attr.2.stream.timecode.markup">09:10:10:17</property>
  <property name="meta.attr.com.apple.proapps.manufacturer.markup">Blackmagic Design</property>
  <property name="meta.attr.com.apple.proapps.cameraName.markup">CAM1</property>
  <property name="meta.attr.com.apple.proapps.isGood.markup">0</property>
  <property name="meta.attr.com.apple.proapps.customgamma.markup">com.blackmagic-design.cinemacamera.filmlog</property>
  <property name="meta.attr.com.blackmagic-design.cinemacamera.uuid.markup">18E5E00548F94923B646613A73C01B56</property>
  <property name="meta.attr.creation_time.markup">2019-01-05T09:10:10.000000Z</property>
  <property name="meta.attr.timecode.markup">09:10:10:17</property>
  <property name="seekable">1</property>
  <property name="meta.media.sample_aspect_num">1</property>
  <property name="meta.media.sample_aspect_den">1</property>
  <property name="aspect_ratio">1</property>
  <property name="kdenlive:folderid">17</property>
  <property name="meta.media.frame_rate_num">25</property>
  <property name="meta.media.frame_rate_den">1</property>
  <property name="meta.media.colorspace">709</property>
  <property name="meta.media.color_trc">1</property>
  <property name="meta.media.width">1920</property>
  <property name="meta.media.height">1080</property>
  <property name="meta.media.top_field_first">0</property>
  <property name="meta.media.progressive">1</property>
  <property name="kdenlive:file_size">2817746417</property>
  <property name="kdenlive:file_hash">b3e4bc9ce3280bb8753bd5e36ee0b214</property>
 </producer>
 <producer id="32" in="0" out="3953">
  <property name="length">00:01:19:04</property>
  <property name="eof">pause</property>
  <property name="resource">/media/bordun/plagiat2/2019-05-01_Plagiat_RespecteLaPuissancePapale_Lavare/CAM1_2019-01-05_0902_C0006.mov</property>
  <property name="audio_index">2</property>
  <property name="video_index">1</property>
  <property name="mute_on_pause">1</property>
  <property name="mlt_service">avformat-novalidate</property>
  <property name="meta.media.nb_streams">3</property>
  <property name="meta.media.1.stream.type">video</property>
  <property name="meta.media.1.stream.frame_rate">25</property>
  <property name="meta.media.1.stream.sample_aspect_ratio">1</property>
  <property name="meta.media.1.codec.width">1920</property>
  <property name="meta.media.1.codec.height">1080</property>
  <property name="meta.media.1.codec.rotate">0</property>
  <property name="meta.media.1.codec.frame_rate">2500</property>
  <property name="meta.media.1.codec.pix_fmt">yuv422p10le</property>
  <property name="meta.media.1.codec.sample_aspect_ratio">0</property>
  <property name="meta.media.1.codec.colorspace">709</property>
  <property name="meta.media.1.codec.color_trc">1</property>
  <property name="meta.media.1.codec.name">prores</property>
  <property name="meta.media.1.codec.long_name">ProRes</property>
  <property name="meta.media.1.codec.bit_rate">122315923</property>
  <property name="meta.attr.1.stream.creation_time.markup">2019-01-05T09:02:46.000000Z</property>
  <property name="meta.attr.1.stream.language.markup">eng</property>
  <property name="meta.attr.1.stream.handler_name.markup">Apple Alias Data Handler</property>
  <property name="meta.attr.1.stream.encoder.markup">Apple ProRes 422</property>
  <property name="meta.attr.1.stream.timecode.markup">09:02:46:24</property>
  <property name="meta.media.2.stream.type">audio</property>
  <property name="meta.media.2.codec.sample_fmt">s32</property>
  <property name="meta.media.2.codec.sample_rate">48000</property>
  <property name="meta.media.2.codec.channels">2</property>
  <property name="meta.media.2.codec.name">pcm_s24le</property>
  <property name="meta.media.2.codec.long_name">PCM signed 24-bit little-endian</property>
  <property name="meta.media.2.codec.bit_rate">2304000</property>
  <property name="meta.attr.2.stream.creation_time.markup">2019-01-05T09:02:46.000000Z</property>
  <property name="meta.attr.2.stream.language.markup">eng</property>
  <property name="meta.attr.2.stream.handler_name.markup">Apple Alias Data Handler</property>
  <property name="meta.attr.2.stream.timecode.markup">09:02:46:24</property>
  <property name="meta.attr.com.apple.proapps.manufacturer.markup">Blackmagic Design</property>
  <property name="meta.attr.com.apple.proapps.cameraName.markup">CAM1</property>
  <property name="meta.attr.com.apple.proapps.isGood.markup">0</property>
  <property name="meta.attr.com.apple.proapps.customgamma.markup">com.blackmagic-design.cinemacamera.filmlog</property>
  <property name="meta.attr.com.blackmagic-design.cinemacamera.uuid.markup">18E5E00548F94923B646613A73C01B56</property>
  <property name="meta.attr.creation_time.markup">2019-01-05T09:02:46.000000Z</property>
  <property name="meta.attr.timecode.markup">09:02:46:24</property>
  <property name="seekable">1</property>
  <property name="meta.media.sample_aspect_num">1</property>
  <property name="meta.media.sample_aspect_den">1</property>
  <property name="aspect_ratio">1</property>
  <property name="kdenlive:folderid">17</property>
  <property name="meta.media.frame_rate_num">25</property>
  <property name="meta.media.frame_rate_den">1</property>
  <property name="meta.media.colorspace">709</property>
  <property name="meta.media.color_trc">1</property>
  <property name="meta.media.width">1920</property>
  <property name="meta.media.height">1080</property>
  <property name="meta.media.top_field_first">0</property>
  <property name="meta.media.progressive">1</property>
  <property name="kdenlive:file_size">1232186057</property>
  <property name="kdenlive:file_hash">84e349f213f607e7c2eb327a44075451</property>
 </producer>
 <producer id="33" in="0" out="5863">
  <property name="length">00:01:57:14</property>
  <property name="eof">pause</property>
  <property name="resource">/media/bordun/plagiat2/2019-05-01_Plagiat_RespecteLaPuissancePapale_Lavare/CAM1_2019-01-05_0853_C0005.mov</property>
  <property name="audio_index">2</property>
  <property name="video_index">1</property>
  <property name="mute_on_pause">1</property>
  <property name="mlt_service">avformat-novalidate</property>
  <property name="meta.media.nb_streams">3</property>
  <property name="meta.media.1.stream.type">video</property>
  <property name="meta.media.1.stream.frame_rate">25</property>
  <property name="meta.media.1.stream.sample_aspect_ratio">1</property>
  <property name="meta.media.1.codec.width">1920</property>
  <property name="meta.media.1.codec.height">1080</property>
  <property name="meta.media.1.codec.rotate">0</property>
  <property name="meta.media.1.codec.frame_rate">2500</property>
  <property name="meta.media.1.codec.pix_fmt">yuv422p10le</property>
  <property name="meta.media.1.codec.sample_aspect_ratio">0</property>
  <property name="meta.media.1.codec.colorspace">709</property>
  <property name="meta.media.1.codec.color_trc">1</property>
  <property name="meta.media.1.codec.name">prores</property>
  <property name="meta.media.1.codec.long_name">ProRes</property>
  <property name="meta.media.1.codec.bit_rate">122316105</property>
  <property name="meta.attr.1.stream.creation_time.markup">2019-01-05T08:53:39.000000Z</property>
  <property name="meta.attr.1.stream.language.markup">eng</property>
  <property name="meta.attr.1.stream.handler_name.markup">Apple Alias Data Handler</property>
  <property name="meta.attr.1.stream.encoder.markup">Apple ProRes 422</property>
  <property name="meta.attr.1.stream.timecode.markup">08:53:39:10</property>
  <property name="meta.media.2.stream.type">audio</property>
  <property name="meta.media.2.codec.sample_fmt">s32</property>
  <property name="meta.media.2.codec.sample_rate">48000</property>
  <property name="meta.media.2.codec.channels">2</property>
  <property name="meta.media.2.codec.name">pcm_s24le</property>
  <property name="meta.media.2.codec.long_name">PCM signed 24-bit little-endian</property>
  <property name="meta.media.2.codec.bit_rate">2304000</property>
  <property name="meta.attr.2.stream.creation_time.markup">2019-01-05T08:53:39.000000Z</property>
  <property name="meta.attr.2.stream.language.markup">eng</property>
  <property name="meta.attr.2.stream.handler_name.markup">Apple Alias Data Handler</property>
  <property name="meta.attr.2.stream.timecode.markup">08:53:39:10</property>
  <property name="meta.attr.com.apple.proapps.manufacturer.markup">Blackmagic Design</property>
  <property name="meta.attr.com.apple.proapps.cameraName.markup">CAM1</property>
  <property name="meta.attr.com.apple.proapps.isGood.markup">0</property>
  <property name="meta.attr.com.apple.proapps.customgamma.markup">com.blackmagic-design.cinemacamera.filmlog</property>
  <property name="meta.attr.com.blackmagic-design.cinemacamera.uuid.markup">18E5E00548F94923B646613A73C01B56</property>
  <property name="meta.attr.creation_time.markup">2019-01-05T08:53:39.000000Z</property>
  <property name="meta.attr.timecode.markup">08:53:39:10</property>
  <property name="seekable">1</property>
  <property name="meta.media.sample_aspect_num">1</property>
  <property name="meta.media.sample_aspect_den">1</property>
  <property name="aspect_ratio">1</property>
  <property name="kdenlive:folderid">17</property>
  <property name="meta.media.frame_rate_num">25</property>
  <property name="meta.media.frame_rate_den">1</property>
  <property name="meta.media.colorspace">709</property>
  <property name="meta.media.color_trc">1</property>
  <property name="meta.media.width">1920</property>
  <property name="meta.media.height">1080</property>
  <property name="meta.media.top_field_first">0</property>
  <property name="meta.media.progressive">1</property>
  <property name="kdenlive:file_size">1827394553</property>
  <property name="kdenlive:file_hash">f1252aea4a9073267c53ed9979db2a79</property>
 </producer>
 <producer id="34" in="0" out="6601">
  <property name="length">00:02:12:02</property>
  <property name="eof">pause</property>
  <property name="resource">/media/bordun/plagiat2/2019-05-01_Plagiat_RespecteLaPuissancePapale_Lavare/CAM1_2019-01-05_0616_C0002.mov</property>
  <property name="audio_index">2</property>
  <property name="video_index">1</property>
  <property name="mute_on_pause">1</property>
  <property name="mlt_service">avformat-novalidate</property>
  <property name="meta.media.nb_streams">3</property>
  <property name="meta.media.1.stream.type">video</property>
  <property name="meta.media.1.stream.frame_rate">50</property>
  <property name="meta.media.1.stream.sample_aspect_ratio">1</property>
  <property name="meta.media.1.codec.width">1920</property>
  <property name="meta.media.1.codec.height">1080</property>
  <property name="meta.media.1.codec.rotate">0</property>
  <property name="meta.media.1.codec.frame_rate">5000</property>
  <property name="meta.media.1.codec.pix_fmt">yuv422p10le</property>
  <property name="meta.media.1.codec.sample_aspect_ratio">0</property>
  <property name="meta.media.1.codec.colorspace">709</property>
  <property name="meta.media.1.codec.color_trc">1</property>
  <property name="meta.media.1.codec.name">prores</property>
  <property name="meta.media.1.codec.long_name">ProRes</property>
  <property name="meta.media.1.codec.bit_rate">366956617</property>
  <property name="meta.attr.1.stream.creation_time.markup">2019-01-05T06:16:17.000000Z</property>
  <property name="meta.attr.1.stream.language.markup">eng</property>
  <property name="meta.attr.1.stream.handler_name.markup">Apple Alias Data Handler</property>
  <property name="meta.attr.1.stream.encoder.markup">Apple ProRes 422 HQ</property>
  <property name="meta.attr.1.stream.timecode.markup">06:16:17:16</property>
  <property name="meta.media.2.stream.type">audio</property>
  <property name="meta.media.2.codec.sample_fmt">s32</property>
  <property name="meta.media.2.codec.sample_rate">48000</property>
  <property name="meta.media.2.codec.channels">2</property>
  <property name="meta.media.2.codec.name">pcm_s24le</property>
  <property name="meta.media.2.codec.long_name">PCM signed 24-bit little-endian</property>
  <property name="meta.media.2.codec.bit_rate">2304000</property>
  <property name="meta.attr.2.stream.creation_time.markup">2019-01-05T06:16:17.000000Z</property>
  <property name="meta.attr.2.stream.language.markup">eng</property>
  <property name="meta.attr.2.stream.handler_name.markup">Apple Alias Data Handler</property>
  <property name="meta.attr.2.stream.timecode.markup">06:16:17:16</property>
  <property name="meta.attr.com.apple.proapps.manufacturer.markup">Blackmagic Design</property>
  <property name="meta.attr.com.apple.proapps.cameraName.markup">CAM1</property>
  <property name="meta.attr.com.apple.proapps.isGood.markup">0</property>
  <property name="meta.attr.com.apple.proapps.customgamma.markup">com.blackmagic-design.cinemacamera.filmlog</property>
  <property name="meta.attr.com.blackmagic-design.cinemacamera.uuid.markup">18E5E00548F94923B646613A73C01B56</property>
  <property name="meta.attr.creation_time.markup">2019-01-05T06:16:17.000000Z</property>
  <property name="meta.attr.timecode.markup">06:16:17:16</property>
  <property name="seekable">1</property>
  <property name="meta.media.sample_aspect_num">1</property>
  <property name="meta.media.sample_aspect_den">1</property>
  <property name="aspect_ratio">1</property>
  <property name="kdenlive:folderid">17</property>
  <property name="meta.media.frame_rate_num">50</property>
  <property name="meta.media.frame_rate_den">1</property>
  <property name="meta.media.colorspace">709</property>
  <property name="meta.media.color_trc">1</property>
  <property name="meta.media.width">1920</property>
  <property name="meta.media.height">1080</property>
  <property name="meta.media.top_field_first">0</property>
  <property name="meta.media.progressive">1</property>
  <property name="kdenlive:file_size">6095265905</property>
  <property name="kdenlive:file_hash">15392cd6b98f5c75a2b04073ca3e9ced</property>
 </producer>
 <producer id="35" in="0" out="10077">
  <property name="length">00:03:21:28</property>
  <property name="eof">pause</property>
  <property name="resource">/media/bordun/plagiat2/2019-05-01_Plagiat_RespecteLaPuissancePapale_Lavare/CAM1_2019-01-05_0612_C0001.mov</property>
  <property name="audio_index">2</property>
  <property name="video_index">1</property>
  <property name="mute_on_pause">1</property>
  <property name="mlt_service">avformat-novalidate</property>
  <property name="meta.media.nb_streams">3</property>
  <property name="meta.media.1.stream.type">video</property>
  <property name="meta.media.1.stream.frame_rate">50</property>
  <property name="meta.media.1.stream.sample_aspect_ratio">1</property>
  <property name="meta.media.1.codec.width">1920</property>
  <property name="meta.media.1.codec.height">1080</property>
  <property name="meta.media.1.codec.rotate">0</property>
  <property name="meta.media.1.codec.frame_rate">5000</property>
  <property name="meta.media.1.codec.pix_fmt">yuv422p10le</property>
  <property name="meta.media.1.codec.sample_aspect_ratio">0</property>
  <property name="meta.media.1.codec.colorspace">709</property>
  <property name="meta.media.1.codec.color_trc">1</property>
  <property name="meta.media.1.codec.name">prores</property>
  <property name="meta.media.1.codec.long_name">ProRes</property>
  <property name="meta.media.1.codec.bit_rate">366957469</property>
  <property name="meta.attr.1.stream.creation_time.markup">2019-01-05T06:12:21.000000Z</property>
  <property name="meta.attr.1.stream.language.markup">eng</property>
  <property name="meta.attr.1.stream.handler_name.markup">Apple Alias Data Handler</property>
  <property name="meta.attr.1.stream.encoder.markup">Apple ProRes 422 HQ</property>
  <property name="meta.attr.1.stream.timecode.markup">06:12:21:43</property>
  <property name="meta.media.2.stream.type">audio</property>
  <property name="meta.media.2.codec.sample_fmt">s32</property>
  <property name="meta.media.2.codec.sample_rate">48000</property>
  <property name="meta.media.2.codec.channels">2</property>
  <property name="meta.media.2.codec.name">pcm_s24le</property>
  <property name="meta.media.2.codec.long_name">PCM signed 24-bit little-endian</property>
  <property name="meta.media.2.codec.bit_rate">2304000</property>
  <property name="meta.attr.2.stream.creation_time.markup">2019-01-05T06:12:21.000000Z</property>
  <property name="meta.attr.2.stream.language.markup">eng</property>
  <property name="meta.attr.2.stream.handler_name.markup">Apple Alias Data Handler</property>
  <property name="meta.attr.2.stream.timecode.markup">06:12:21:43</property>
  <property name="meta.attr.com.apple.proapps.manufacturer.markup">Blackmagic Design</property>
  <property name="meta.attr.com.apple.proapps.cameraName.markup">CAM1</property>
  <property name="meta.attr.com.apple.proapps.isGood.markup">0</property>
  <property name="meta.attr.com.apple.proapps.customgamma.markup">com.blackmagic-design.cinemacamera.filmlog</property>
  <property name="meta.attr.com.blackmagic-design.cinemacamera.uuid.markup">18E5E00548F94923B646613A73C01B56</property>
  <property name="meta.attr.creation_time.markup">2019-01-05T06:12:21.000000Z</property>
  <property name="meta.attr.timecode.markup">06:12:21:43</property>
  <property name="seekable">1</property>
  <property name="meta.media.sample_aspect_num">1</property>
  <property name="meta.media.sample_aspect_den">1</property>
  <property name="aspect_ratio">1</property>
  <property name="kdenlive:folderid">17</property>
  <property name="meta.media.frame_rate_num">50</property>
  <property name="meta.media.frame_rate_den">1</property>
  <property name="meta.media.colorspace">709</property>
  <property name="meta.media.color_trc">1</property>
  <property name="meta.media.width">1920</property>
  <property name="meta.media.height">1080</property>
  <property name="meta.media.top_field_first">0</property>
  <property name="meta.media.progressive">1</property>
  <property name="kdenlive:file_size">9304493209</property>
  <property name="kdenlive:file_hash">5e9906388e5fb2616c7022bce204f437</property>
 </producer>
 <producer id="36" in="0" out="10454">
  <property name="length">00:03:29:05</property>
  <property name="eof">pause</property>
  <property name="resource">/media/bordun/plagiat2/2019-05-01_Plagiat_RespecteLaPuissancePapale_Lavare/CAM1_2019-01-05_0557_C0004.mov</property>
  <property name="audio_index">2</property>
  <property name="video_index">1</property>
  <property name="mute_on_pause">1</property>
  <property name="mlt_service">avformat-novalidate</property>
  <property name="meta.media.nb_streams">3</property>
  <property name="meta.media.1.stream.type">video</property>
  <property name="meta.media.1.stream.frame_rate">50</property>
  <property name="meta.media.1.stream.sample_aspect_ratio">1</property>
  <property name="meta.media.1.codec.width">1920</property>
  <property name="meta.media.1.codec.height">1080</property>
  <property name="meta.media.1.codec.rotate">0</property>
  <property name="meta.media.1.codec.frame_rate">5000</property>
  <property name="meta.media.1.codec.pix_fmt">yuv422p10le</property>
  <property name="meta.media.1.codec.sample_aspect_ratio">0</property>
  <property name="meta.media.1.codec.colorspace">709</property>
  <property name="meta.media.1.codec.color_trc">1</property>
  <property name="meta.media.1.codec.name">prores</property>
  <property name="meta.media.1.codec.long_name">ProRes</property>
  <property name="meta.media.1.codec.bit_rate">366958528</property>
  <property name="meta.attr.1.stream.creation_time.markup">2019-01-05T05:57:41.000000Z</property>
  <property name="meta.attr.1.stream.language.markup">eng</property>
  <property name="meta.attr.1.stream.handler_name.markup">Apple Alias Data Handler</property>
  <property name="meta.attr.1.stream.encoder.markup">Apple ProRes 422 HQ</property>
  <property name="meta.attr.1.stream.timecode.markup">05:57:41:19</property>
  <property name="meta.media.2.stream.type">audio</property>
  <property name="meta.media.2.codec.sample_fmt">s32</property>
  <property name="meta.media.2.codec.sample_rate">48000</property>
  <property name="meta.media.2.codec.channels">2</property>
  <property name="meta.media.2.codec.name">pcm_s24le</property>
  <property name="meta.media.2.codec.long_name">PCM signed 24-bit little-endian</property>
  <property name="meta.media.2.codec.bit_rate">2304000</property>
  <property name="meta.attr.2.stream.creation_time.markup">2019-01-05T05:57:41.000000Z</property>
  <property name="meta.attr.2.stream.language.markup">eng</property>
  <property name="meta.attr.2.stream.handler_name.markup">Apple Alias Data Handler</property>
  <property name="meta.attr.2.stream.timecode.markup">05:57:41:19</property>
  <property name="meta.attr.com.apple.proapps.manufacturer.markup">Blackmagic Design</property>
  <property name="meta.attr.com.apple.proapps.cameraName.markup">CAM1</property>
  <property name="meta.attr.com.apple.proapps.isGood.markup">0</property>
  <property name="meta.attr.com.apple.proapps.customgamma.markup">com.blackmagic-design.cinemacamera.filmlog</property>
  <property name="meta.attr.com.blackmagic-design.cinemacamera.uuid.markup">18E5E00548F94923B646613A73C01B56</property>
  <property name="meta.attr.creation_time.markup">2019-01-05T05:57:41.000000Z</property>
  <property name="meta.attr.timecode.markup">05:57:41:19</property>
  <property name="seekable">1</property>
  <property name="meta.media.sample_aspect_num">1</property>
  <property name="meta.media.sample_aspect_den">1</property>
  <property name="aspect_ratio">1</property>
  <property name="kdenlive:folderid">17</property>
  <property name="meta.media.frame_rate_num">50</property>
  <property name="meta.media.frame_rate_den">1</property>
  <property name="meta.media.colorspace">709</property>
  <property name="meta.media.color_trc">1</property>
  <property name="meta.media.width">1920</property>
  <property name="meta.media.height">1080</property>
  <property name="meta.media.top_field_first">0</property>
  <property name="meta.media.progressive">1</property>
  <property name="kdenlive:file_size">9652541145</property>
  <property name="kdenlive:file_hash">9d4eddc292544f83f9eb0cb1726027b3</property>
 </producer>
 <producer title="Anonymous Submission" id="37" in="0" out="19885">
  <property name="length">00:06:37:36</property>
  <property name="eof">continue</property>
  <property name="resource">/media/bordun/plagiat2/2019-05-01_Plagiat_RespecteLaPuissancePapale_Lavare/CAM1_2019-01-05_0544_C0003.mov</property>
  <property name="audio_index">2</property>
  <property name="video_index">1</property>
  <property name="mute_on_pause">1</property>
  <property name="mlt_service">avformat-novalidate</property>
  <property name="meta.media.nb_streams">3</property>
  <property name="meta.media.1.stream.type">video</property>
  <property name="meta.media.1.stream.frame_rate">50</property>
  <property name="meta.media.1.stream.sample_aspect_ratio">1</property>
  <property name="meta.media.1.codec.width">1920</property>
  <property name="meta.media.1.codec.height">1080</property>
  <property name="meta.media.1.codec.rotate">0</property>
  <property name="meta.media.1.codec.frame_rate">5000</property>
  <property name="meta.media.1.codec.pix_fmt">yuv422p10le</property>
  <property name="meta.media.1.codec.sample_aspect_ratio">0</property>
  <property name="meta.media.1.codec.colorspace">709</property>
  <property name="meta.media.1.codec.color_trc">1</property>
  <property name="meta.media.1.codec.name">prores</property>
  <property name="meta.media.1.codec.long_name">ProRes</property>
  <property name="meta.media.1.codec.bit_rate">366956929</property>
  <property name="meta.attr.1.stream.creation_time.markup">2019-01-05T05:44:18.000000Z</property>
  <property name="meta.attr.1.stream.language.markup">eng</property>
  <property name="meta.attr.1.stream.handler_name.markup">Apple Alias Data Handler</property>
  <property name="meta.attr.1.stream.encoder.markup">Apple ProRes 422 HQ</property>
  <property name="meta.attr.1.stream.timecode.markup">05:44:18:23</property>
  <property name="meta.media.2.stream.type">audio</property>
  <property name="meta.media.2.codec.sample_fmt">s32</property>
  <property name="meta.media.2.codec.sample_rate">48000</property>
  <property name="meta.media.2.codec.channels">2</property>
  <property name="meta.media.2.codec.name">pcm_s24le</property>
  <property name="meta.media.2.codec.long_name">PCM signed 24-bit little-endian</property>
  <property name="meta.media.2.codec.bit_rate">2304000</property>
  <property name="meta.attr.2.stream.creation_time.markup">2019-01-05T05:44:18.000000Z</property>
  <property name="meta.attr.2.stream.language.markup">eng</property>
  <property name="meta.attr.2.stream.handler_name.markup">Apple Alias Data Handler</property>
  <property name="meta.attr.2.stream.timecode.markup">05:44:18:23</property>
  <property name="meta.attr.com.apple.proapps.manufacturer.markup">Blackmagic Design</property>
  <property name="meta.attr.com.apple.proapps.cameraName.markup">CAM1</property>
  <property name="meta.attr.com.apple.proapps.isGood.markup">0</property>
  <property name="meta.attr.com.apple.proapps.customgamma.markup">com.blackmagic-design.cinemacamera.filmlog</property>
  <property name="meta.attr.com.blackmagic-design.cinemacamera.uuid.markup">18E5E00548F94923B646613A73C01B56</property>
  <property name="meta.attr.creation_time.markup">2019-01-05T05:44:18.000000Z</property>
  <property name="meta.attr.timecode.markup">05:44:18:23</property>
  <property name="seekable">1</property>
  <property name="meta.media.sample_aspect_num">1</property>
  <property name="meta.media.sample_aspect_den">1</property>
  <property name="aspect_ratio">1</property>
  <property name="kdenlive:folderid">17</property>
  <property name="meta.media.frame_rate_num">50</property>
  <property name="meta.media.frame_rate_den">1</property>
  <property name="meta.media.colorspace">709</property>
  <property name="meta.media.color_trc">1</property>
  <property name="meta.media.width">1920</property>
  <property name="meta.media.height">1080</property>
  <property name="meta.media.top_field_first">0</property>
  <property name="meta.media.progressive">1</property>
  <property name="kdenlive:file_size">18359664313</property>
  <property name="kdenlive:file_hash">46f909828b8adaa191142911fc3d1240</property>
  <property name="global_feed">1</property>
  <property name="kdenlive:zone_in">4323</property>
  <property name="kdenlive:zone_out">4332</property>
  <filter id="filter5">
   <property name="version">0,3</property>
   <property name="mlt_service">frei0r.levels</property>
   <property name="kdenlive_id">frei0r.levels</property>
   <property name="tag">frei0r.levels</property>
   <property name="kdenlive_ix">1</property>
   <property name="kdenlive_info">1/-1/</property>
   <property name="Channel">0,3</property>
   <property name="Input black level">0=0,052</property>
   <property name="Input white level">0=1</property>
   <property name="Gamma">0=0,25</property>
   <property name="Black output">0=0</property>
   <property name="White output">0=0,95</property>
   <property name="Show histogram">0</property>
   <property name="Histogram position">0,3</property>
   <property name="disable">0</property>
  </filter>
 </producer>
 <producer id="38" in="0" out="9289">
  <property name="length">00:03:05:40</property>
  <property name="eof">pause</property>
  <property name="resource">/media/bordun/plagiat2/2019-05-01_Plagiat_RespecteLaPuissancePapale_Lavare/CAM1_2019-01-05_0517_C0001.mov</property>
  <property name="audio_index">2</property>
  <property name="video_index">1</property>
  <property name="mute_on_pause">1</property>
  <property name="mlt_service">avformat-novalidate</property>
  <property name="meta.media.nb_streams">3</property>
  <property name="meta.media.1.stream.type">video</property>
  <property name="meta.media.1.stream.frame_rate">50</property>
  <property name="meta.media.1.stream.sample_aspect_ratio">1</property>
  <property name="meta.media.1.codec.width">1920</property>
  <property name="meta.media.1.codec.height">1080</property>
  <property name="meta.media.1.codec.rotate">0</property>
  <property name="meta.media.1.codec.frame_rate">5000</property>
  <property name="meta.media.1.codec.pix_fmt">yuv422p10le</property>
  <property name="meta.media.1.codec.sample_aspect_ratio">0</property>
  <property name="meta.media.1.codec.colorspace">709</property>
  <property name="meta.media.1.codec.color_trc">1</property>
  <property name="meta.media.1.codec.name">prores</property>
  <property name="meta.media.1.codec.long_name">ProRes</property>
  <property name="meta.media.1.codec.bit_rate">366957016</property>
  <property name="meta.attr.1.stream.creation_time.markup">2019-01-05T05:17:29.000000Z</property>
  <property name="meta.attr.1.stream.language.markup">eng</property>
  <property name="meta.attr.1.stream.handler_name.markup">Apple Alias Data Handler</property>
  <property name="meta.attr.1.stream.encoder.markup">Apple ProRes 422 HQ</property>
  <property name="meta.attr.1.stream.timecode.markup">05:17:29:25</property>
  <property name="meta.media.2.stream.type">audio</property>
  <property name="meta.media.2.codec.sample_fmt">s32</property>
  <property name="meta.media.2.codec.sample_rate">48000</property>
  <property name="meta.media.2.codec.channels">2</property>
  <property name="meta.media.2.codec.name">pcm_s24le</property>
  <property name="meta.media.2.codec.long_name">PCM signed 24-bit little-endian</property>
  <property name="meta.media.2.codec.bit_rate">2304000</property>
  <property name="meta.attr.2.stream.creation_time.markup">2019-01-05T05:17:29.000000Z</property>
  <property name="meta.attr.2.stream.language.markup">eng</property>
  <property name="meta.attr.2.stream.handler_name.markup">Apple Alias Data Handler</property>
  <property name="meta.attr.2.stream.timecode.markup">05:17:29:25</property>
  <property name="meta.attr.com.apple.proapps.manufacturer.markup">Blackmagic Design</property>
  <property name="meta.attr.com.apple.proapps.cameraName.markup">CAM1</property>
  <property name="meta.attr.com.apple.proapps.isGood.markup">0</property>
  <property name="meta.attr.com.apple.proapps.customgamma.markup">com.blackmagic-design.cinemacamera.filmlog</property>
  <property name="meta.attr.com.blackmagic-design.cinemacamera.uuid.markup">18E5E00548F94923B646613A73C01B56</property>
  <property name="meta.attr.creation_time.markup">2019-01-05T05:17:29.000000Z</property>
  <property name="meta.attr.timecode.markup">05:17:29:25</property>
  <property name="seekable">1</property>
  <property name="meta.media.sample_aspect_num">1</property>
  <property name="meta.media.sample_aspect_den">1</property>
  <property name="aspect_ratio">1</property>
  <property name="kdenlive:folderid">17</property>
  <property name="meta.media.frame_rate_num">50</property>
  <property name="meta.media.frame_rate_den">1</property>
  <property name="meta.media.colorspace">709</property>
  <property name="meta.media.color_trc">1</property>
  <property name="meta.media.width">1920</property>
  <property name="meta.media.height">1080</property>
  <property name="meta.media.top_field_first">0</property>
  <property name="meta.media.progressive">1</property>
  <property name="kdenlive:file_size">8576956441</property>
  <property name="kdenlive:file_hash">c2f5e810e9e7275dd3088498b60f8e5f</property>
 </producer>
 <producer id="39" in="0" out="10702">
  <property name="length">00:03:34:03</property>
  <property name="eof">pause</property>
  <property name="resource">/media/bordun/plagiat2/2019-05-01_Plagiat_RespecteLaPuissancePapale_Lavare/CAM1_2019-01-05_0511_C0000.mov</property>
  <property name="audio_index">2</property>
  <property name="video_index">1</property>
  <property name="mute_on_pause">1</property>
  <property name="mlt_service">avformat-novalidate</property>
  <property name="meta.media.nb_streams">3</property>
  <property name="meta.media.1.stream.type">video</property>
  <property name="meta.media.1.stream.frame_rate">50</property>
  <property name="meta.media.1.stream.sample_aspect_ratio">1</property>
  <property name="meta.media.1.codec.width">1920</property>
  <property name="meta.media.1.codec.height">1080</property>
  <property name="meta.media.1.codec.rotate">0</property>
  <property name="meta.media.1.codec.frame_rate">5000</property>
  <property name="meta.media.1.codec.pix_fmt">yuv422p10le</property>
  <property name="meta.media.1.codec.sample_aspect_ratio">0</property>
  <property name="meta.media.1.codec.colorspace">709</property>
  <property name="meta.media.1.codec.color_trc">1</property>
  <property name="meta.media.1.codec.name">prores</property>
  <property name="meta.media.1.codec.long_name">ProRes</property>
  <property name="meta.media.1.codec.bit_rate">366958294</property>
  <property name="meta.attr.1.stream.creation_time.markup">2019-01-05T05:11:43.000000Z</property>
  <property name="meta.attr.1.stream.language.markup">eng</property>
  <property name="meta.attr.1.stream.handler_name.markup">Apple Alias Data Handler</property>
  <property name="meta.attr.1.stream.encoder.markup">Apple ProRes 422 HQ</property>
  <property name="meta.attr.1.stream.timecode.markup">05:11:43:16</property>
  <property name="meta.media.2.stream.type">audio</property>
  <property name="meta.media.2.codec.sample_fmt">s32</property>
  <property name="meta.media.2.codec.sample_rate">48000</property>
  <property name="meta.media.2.codec.channels">2</property>
  <property name="meta.media.2.codec.name">pcm_s24le</property>
  <property name="meta.media.2.codec.long_name">PCM signed 24-bit little-endian</property>
  <property name="meta.media.2.codec.bit_rate">2304000</property>
  <property name="meta.attr.2.stream.creation_time.markup">2019-01-05T05:11:43.000000Z</property>
  <property name="meta.attr.2.stream.language.markup">eng</property>
  <property name="meta.attr.2.stream.handler_name.markup">Apple Alias Data Handler</property>
  <property name="meta.attr.2.stream.timecode.markup">05:11:43:16</property>
  <property name="meta.attr.com.apple.proapps.manufacturer.markup">Blackmagic Design</property>
  <property name="meta.attr.com.apple.proapps.cameraName.markup">CAM1</property>
  <property name="meta.attr.com.apple.proapps.isGood.markup">0</property>
  <property name="meta.attr.com.apple.proapps.customgamma.markup">com.blackmagic-design.cinemacamera.filmlog</property>
  <property name="meta.attr.com.blackmagic-design.cinemacamera.uuid.markup">18E5E00548F94923B646613A73C01B56</property>
  <property name="meta.attr.creation_time.markup">2019-01-05T05:11:43.000000Z</property>
  <property name="meta.attr.timecode.markup">05:11:43:16</property>
  <property name="seekable">1</property>
  <property name="meta.media.sample_aspect_num">1</property>
  <property name="meta.media.sample_aspect_den">1</property>
  <property name="aspect_ratio">1</property>
  <property name="kdenlive:folderid">17</property>
  <property name="meta.media.frame_rate_num">50</property>
  <property name="meta.media.frame_rate_den">1</property>
  <property name="meta.media.colorspace">709</property>
  <property name="meta.media.color_trc">1</property>
  <property name="meta.media.width">1920</property>
  <property name="meta.media.height">1080</property>
  <property name="meta.media.top_field_first">0</property>
  <property name="meta.media.progressive">1</property>
  <property name="kdenlive:file_size">9881509121</property>
  <property name="kdenlive:file_hash">377aa92a5fbef78369143e30739b498c</property>
 </producer>
 <producer id="40" in="0" out="11268">
  <property name="length">00:03:45:19</property>
  <property name="eof">pause</property>
  <property name="resource">/media/bordun/plagiat2/2019-05-01_Plagiat_RespecteLaPuissancePapale_Lavare/CAM1_2019-01-05_0525_C0002.mov</property>
  <property name="audio_index">2</property>
  <property name="video_index">1</property>
  <property name="mute_on_pause">1</property>
  <property name="mlt_service">avformat-novalidate</property>
  <property name="meta.media.nb_streams">3</property>
  <property name="meta.media.1.stream.type">video</property>
  <property name="meta.media.1.stream.frame_rate">50</property>
  <property name="meta.media.1.stream.sample_aspect_ratio">1</property>
  <property name="meta.media.1.codec.width">1920</property>
  <property name="meta.media.1.codec.height">1080</property>
  <property name="meta.media.1.codec.rotate">0</property>
  <property name="meta.media.1.codec.frame_rate">5000</property>
  <property name="meta.media.1.codec.pix_fmt">yuv422p10le</property>
  <property name="meta.media.1.codec.sample_aspect_ratio">0</property>
  <property name="meta.media.1.codec.colorspace">709</property>
  <property name="meta.media.1.codec.color_trc">1</property>
  <property name="meta.media.1.codec.name">prores</property>
  <property name="meta.media.1.codec.long_name">ProRes</property>
  <property name="meta.media.1.codec.bit_rate">366958989</property>
  <property name="meta.attr.1.stream.creation_time.markup">2019-01-05T05:25:34.000000Z</property>
  <property name="meta.attr.1.stream.language.markup">eng</property>
  <property name="meta.attr.1.stream.handler_name.markup">Apple Alias Data Handler</property>
  <property name="meta.attr.1.stream.encoder.markup">Apple ProRes 422 HQ</property>
  <property name="meta.attr.1.stream.timecode.markup">05:25:34:21</property>
  <property name="meta.media.2.stream.type">audio</property>
  <property name="meta.media.2.codec.sample_fmt">s32</property>
  <property name="meta.media.2.codec.sample_rate">48000</property>
  <property name="meta.media.2.codec.channels">2</property>
  <property name="meta.media.2.codec.name">pcm_s24le</property>
  <property name="meta.media.2.codec.long_name">PCM signed 24-bit little-endian</property>
  <property name="meta.media.2.codec.bit_rate">2304000</property>
  <property name="meta.attr.2.stream.creation_time.markup">2019-01-05T05:25:34.000000Z</property>
  <property name="meta.attr.2.stream.language.markup">eng</property>
  <property name="meta.attr.2.stream.handler_name.markup">Apple Alias Data Handler</property>
  <property name="meta.attr.2.stream.timecode.markup">05:25:34:21</property>
  <property name="meta.attr.com.apple.proapps.manufacturer.markup">Blackmagic Design</property>
  <property name="meta.attr.com.apple.proapps.cameraName.markup">CAM1</property>
  <property name="meta.attr.com.apple.proapps.isGood.markup">0</property>
  <property name="meta.attr.com.apple.proapps.customgamma.markup">com.blackmagic-design.cinemacamera.filmlog</property>
  <property name="meta.attr.com.blackmagic-design.cinemacamera.uuid.markup">18E5E00548F94923B646613A73C01B56</property>
  <property name="meta.attr.creation_time.markup">2019-01-05T05:25:34.000000Z</property>
  <property name="meta.attr.timecode.markup">05:25:34:21</property>
  <property name="seekable">1</property>
  <property name="meta.media.sample_aspect_num">1</property>
  <property name="meta.media.sample_aspect_den">1</property>
  <property name="aspect_ratio">1</property>
  <property name="kdenlive:folderid">17</property>
  <property name="meta.media.frame_rate_num">50</property>
  <property name="meta.media.frame_rate_den">1</property>
  <property name="meta.media.colorspace">709</property>
  <property name="meta.media.color_trc">1</property>
  <property name="meta.media.width">1920</property>
  <property name="meta.media.height">1080</property>
  <property name="meta.media.top_field_first">0</property>
  <property name="meta.media.progressive">1</property>
  <property name="kdenlive:file_size">10404105561</property>
  <property name="kdenlive:file_hash">2bc47b71e880be9b41ab5c0f2f63d573</property>
 </producer>
 <producer title="Anonymous Submission" id="41" in="0" out="42317">
  <property name="length">00:14:06:18</property>
  <property name="eof">pause</property>
  <property name="resource">/media/bordun/plagiat2/2019-05-01_Plagiat_RespecteLaPuissancePapale_Lavare/CAM1_2019-01-05_0345_C0000.mov</property>
  <property name="audio_index">2</property>
  <property name="video_index">1</property>
  <property name="mute_on_pause">1</property>
  <property name="mlt_service">avformat-novalidate</property>
  <property name="meta.media.nb_streams">3</property>
  <property name="meta.media.1.stream.type">video</property>
  <property name="meta.media.1.stream.frame_rate">50</property>
  <property name="meta.media.1.stream.sample_aspect_ratio">1</property>
  <property name="meta.media.1.codec.width">1920</property>
  <property name="meta.media.1.codec.height">1080</property>
  <property name="meta.media.1.codec.rotate">0</property>
  <property name="meta.media.1.codec.frame_rate">5000</property>
  <property name="meta.media.1.codec.pix_fmt">yuv422p10le</property>
  <property name="meta.media.1.codec.sample_aspect_ratio">0</property>
  <property name="meta.media.1.codec.colorspace">709</property>
  <property name="meta.media.1.codec.color_trc">1</property>
  <property name="meta.media.1.codec.name">prores</property>
  <property name="meta.media.1.codec.long_name">ProRes</property>
  <property name="meta.media.1.codec.bit_rate">366957403</property>
  <property name="meta.attr.1.stream.creation_time.markup">2019-01-05T03:45:37.000000Z</property>
  <property name="meta.attr.1.stream.language.markup">eng</property>
  <property name="meta.attr.1.stream.handler_name.markup">Apple Alias Data Handler</property>
  <property name="meta.attr.1.stream.encoder.markup">Apple ProRes 422 HQ</property>
  <property name="meta.attr.1.stream.timecode.markup">03:45:37:07</property>
  <property name="meta.media.2.stream.type">audio</property>
  <property name="meta.media.2.codec.sample_fmt">s32</property>
  <property name="meta.media.2.codec.sample_rate">48000</property>
  <property name="meta.media.2.codec.channels">2</property>
  <property name="meta.media.2.codec.name">pcm_s24le</property>
  <property name="meta.media.2.codec.long_name">PCM signed 24-bit little-endian</property>
  <property name="meta.media.2.codec.bit_rate">2304000</property>
  <property name="meta.attr.2.stream.creation_time.markup">2019-01-05T03:45:37.000000Z</property>
  <property name="meta.attr.2.stream.language.markup">eng</property>
  <property name="meta.attr.2.stream.handler_name.markup">Apple Alias Data Handler</property>
  <property name="meta.attr.2.stream.timecode.markup">03:45:37:07</property>
  <property name="meta.attr.com.apple.proapps.manufacturer.markup">Blackmagic Design</property>
  <property name="meta.attr.com.apple.proapps.cameraName.markup">CAM1</property>
  <property name="meta.attr.com.apple.proapps.isGood.markup">0</property>
  <property name="meta.attr.com.apple.proapps.customgamma.markup">com.blackmagic-design.cinemacamera.filmlog</property>
  <property name="meta.attr.com.blackmagic-design.cinemacamera.uuid.markup">18E5E00548F94923B646613A73C01B56</property>
  <property name="meta.attr.creation_time.markup">2019-01-05T03:45:37.000000Z</property>
  <property name="meta.attr.timecode.markup">03:45:37:07</property>
  <property name="seekable">1</property>
  <property name="meta.media.sample_aspect_num">1</property>
  <property name="meta.media.sample_aspect_den">1</property>
  <property name="aspect_ratio">1</property>
  <property name="kdenlive:folderid">17</property>
  <property name="meta.media.frame_rate_num">50</property>
  <property name="meta.media.frame_rate_den">1</property>
  <property name="meta.media.colorspace">709</property>
  <property name="meta.media.color_trc">1</property>
  <property name="meta.media.width">1920</property>
  <property name="meta.media.height">1080</property>
  <property name="meta.media.top_field_first">0</property>
  <property name="meta.media.progressive">1</property>
  <property name="kdenlive:file_size">39069915329</property>
  <property name="kdenlive:file_hash">73f4a81374204093f22cbe930d68c42b</property>
  <property name="global_feed">1</property>
  <property name="kdenlive:zone_in">41468</property>
  <property name="kdenlive:zone_out">41716</property>
  <filter id="filter6">
   <property name="version">0,3</property>
   <property name="mlt_service">frei0r.levels</property>
   <property name="kdenlive_id">frei0r.levels</property>
   <property name="tag">frei0r.levels</property>
   <property name="kdenlive_ix">1</property>
   <property name="kdenlive_info">1/-1/</property>
   <property name="Channel">0,3</property>
   <property name="Input black level">26882=0,03</property>
   <property name="Input white level">26882=1</property>
   <property name="Gamma">26882=0,25</property>
   <property name="Black output">26882=0</property>
   <property name="White output">26882=1</property>
   <property name="Show histogram">0</property>
   <property name="Histogram position">0,3</property>
   <property name="disable">0</property>
  </filter>
 </producer>
 <producer title="Anonymous Submission" id="42" in="0" out="1689">
  <property name="length">00:00:33:40</property>
  <property name="eof">pause</property>
  <property name="resource">/media/bordun/plagiat2/2019-05-01_Plagiat_RespecteLaPuissancePapale_Lavare/CAM1_2019-01-05_0607_C0006.mov</property>
  <property name="audio_index">2</property>
  <property name="video_index">1</property>
  <property name="mute_on_pause">1</property>
  <property name="mlt_service">avformat-novalidate</property>
  <property name="meta.media.nb_streams">3</property>
  <property name="meta.media.1.stream.type">video</property>
  <property name="meta.media.1.stream.frame_rate">50</property>
  <property name="meta.media.1.stream.sample_aspect_ratio">1</property>
  <property name="meta.media.1.codec.width">1920</property>
  <property name="meta.media.1.codec.height">1080</property>
  <property name="meta.media.1.codec.rotate">0</property>
  <property name="meta.media.1.codec.frame_rate">5000</property>
  <property name="meta.media.1.codec.pix_fmt">yuv422p10le</property>
  <property name="meta.media.1.codec.sample_aspect_ratio">0</property>
  <property name="meta.media.1.codec.colorspace">709</property>
  <property name="meta.media.1.codec.color_trc">1</property>
  <property name="meta.media.1.codec.name">prores</property>
  <property name="meta.media.1.codec.long_name">ProRes</property>
  <property name="meta.media.1.codec.bit_rate">366960162</property>
  <property name="meta.attr.1.stream.creation_time.markup">2019-01-05T06:07:03.000000Z</property>
  <property name="meta.attr.1.stream.language.markup">eng</property>
  <property name="meta.attr.1.stream.handler_name.markup">Apple Alias Data Handler</property>
  <property name="meta.attr.1.stream.encoder.markup">Apple ProRes 422 HQ</property>
  <property name="meta.attr.1.stream.timecode.markup">06:07:03:08</property>
  <property name="meta.media.2.stream.type">audio</property>
  <property name="meta.media.2.codec.sample_fmt">s32</property>
  <property name="meta.media.2.codec.sample_rate">48000</property>
  <property name="meta.media.2.codec.channels">2</property>
  <property name="meta.media.2.codec.name">pcm_s24le</property>
  <property name="meta.media.2.codec.long_name">PCM signed 24-bit little-endian</property>
  <property name="meta.media.2.codec.bit_rate">2304000</property>
  <property name="meta.attr.2.stream.creation_time.markup">2019-01-05T06:07:03.000000Z</property>
  <property name="meta.attr.2.stream.language.markup">eng</property>
  <property name="meta.attr.2.stream.handler_name.markup">Apple Alias Data Handler</property>
  <property name="meta.attr.2.stream.timecode.markup">06:07:03:08</property>
  <property name="meta.attr.com.apple.proapps.manufacturer.markup">Blackmagic Design</property>
  <property name="meta.attr.com.apple.proapps.cameraName.markup">CAM1</property>
  <property name="meta.attr.com.apple.proapps.isGood.markup">0</property>
  <property name="meta.attr.com.apple.proapps.customgamma.markup">com.blackmagic-design.cinemacamera.filmlog</property>
  <property name="meta.attr.com.blackmagic-design.cinemacamera.uuid.markup">18E5E00548F94923B646613A73C01B56</property>
  <property name="meta.attr.creation_time.markup">2019-01-05T06:07:03.000000Z</property>
  <property name="meta.attr.timecode.markup">06:07:03:08</property>
  <property name="seekable">1</property>
  <property name="meta.media.sample_aspect_num">1</property>
  <property name="meta.media.sample_aspect_den">1</property>
  <property name="aspect_ratio">1</property>
  <property name="kdenlive:folderid">17</property>
  <property name="meta.media.frame_rate_num">50</property>
  <property name="meta.media.frame_rate_den">1</property>
  <property name="meta.media.colorspace">709</property>
  <property name="meta.media.color_trc">1</property>
  <property name="meta.media.width">1920</property>
  <property name="meta.media.height">1080</property>
  <property name="meta.media.top_field_first">0</property>
  <property name="meta.media.progressive">1</property>
  <property name="kdenlive:file_size">1560293721</property>
  <property name="kdenlive:file_hash">bd1e6f48bc5cce2ea867955bc59977ea</property>
  <property name="global_feed">1</property>
  <property name="kdenlive:zone_in">427</property>
  <property name="kdenlive:zone_out">572</property>
  <filter id="filter9">
   <property name="version">0,3</property>
   <property name="mlt_service">frei0r.levels</property>
   <property name="kdenlive_id">frei0r.levels</property>
   <property name="tag">frei0r.levels</property>
   <property name="kdenlive_ix">1</property>
   <property name="kdenlive_info"/>
   <property name="Channel">0,3</property>
   <property name="Input black level">0=0,052</property>
   <property name="Input white level">0=1</property>
   <property name="Gamma">0=0,25</property>
   <property name="Black output">0=0</property>
   <property name="White output">0=0,95</property>
   <property name="Show histogram">0</property>
   <property name="Histogram position">0,3</property>
   <property name="disable">0</property>
  </filter>
  <filter id="filter10">
   <property name="version">0,1</property>
   <property name="mlt_service">frei0r.colgate</property>
   <property name="kdenlive_id">frei0r.colgate</property>
   <property name="tag">frei0r.colgate</property>
   <property name="kdenlive_ix">2</property>
   <property name="kdenlive_info"/>
   <property name="Neutral Color">0x7f7f7fff</property>
   <property name="Color Temperature">0=0,413333</property>
   <property name="disable">0</property>
  </filter>
 </producer>
 <producer title="Anonymous Submission" id="43" in="0" out="3049">
  <property name="length">00:01:01:00</property>
  <property name="eof">pause</property>
  <property name="resource">/media/bordun/plagiat2/2019-05-01_Plagiat_RespecteLaPuissancePapale_Lavare/CAM1_2019-01-05_0605_C0005.mov</property>
  <property name="audio_index">2</property>
  <property name="video_index">1</property>
  <property name="mute_on_pause">1</property>
  <property name="mlt_service">avformat-novalidate</property>
  <property name="meta.media.nb_streams">3</property>
  <property name="meta.media.1.stream.type">video</property>
  <property name="meta.media.1.stream.frame_rate">50</property>
  <property name="meta.media.1.stream.sample_aspect_ratio">1</property>
  <property name="meta.media.1.codec.width">1920</property>
  <property name="meta.media.1.codec.height">1080</property>
  <property name="meta.media.1.codec.rotate">0</property>
  <property name="meta.media.1.codec.frame_rate">5000</property>
  <property name="meta.media.1.codec.pix_fmt">yuv422p10le</property>
  <property name="meta.media.1.codec.sample_aspect_ratio">0</property>
  <property name="meta.media.1.codec.colorspace">709</property>
  <property name="meta.media.1.codec.color_trc">1</property>
  <property name="meta.media.1.codec.name">prores</property>
  <property name="meta.media.1.codec.long_name">ProRes</property>
  <property name="meta.media.1.codec.bit_rate">366958797</property>
  <property name="meta.attr.1.stream.creation_time.markup">2019-01-05T06:05:50.000000Z</property>
  <property name="meta.attr.1.stream.language.markup">eng</property>
  <property name="meta.attr.1.stream.handler_name.markup">Apple Alias Data Handler</property>
  <property name="meta.attr.1.stream.encoder.markup">Apple ProRes 422 HQ</property>
  <property name="meta.attr.1.stream.timecode.markup">06:05:50:13</property>
  <property name="meta.media.2.stream.type">audio</property>
  <property name="meta.media.2.codec.sample_fmt">s32</property>
  <property name="meta.media.2.codec.sample_rate">48000</property>
  <property name="meta.media.2.codec.channels">2</property>
  <property name="meta.media.2.codec.name">pcm_s24le</property>
  <property name="meta.media.2.codec.long_name">PCM signed 24-bit little-endian</property>
  <property name="meta.media.2.codec.bit_rate">2304000</property>
  <property name="meta.attr.2.stream.creation_time.markup">2019-01-05T06:05:50.000000Z</property>
  <property name="meta.attr.2.stream.language.markup">eng</property>
  <property name="meta.attr.2.stream.handler_name.markup">Apple Alias Data Handler</property>
  <property name="meta.attr.2.stream.timecode.markup">06:05:50:13</property>
  <property name="meta.attr.com.apple.proapps.manufacturer.markup">Blackmagic Design</property>
  <property name="meta.attr.com.apple.proapps.cameraName.markup">CAM1</property>
  <property name="meta.attr.com.apple.proapps.isGood.markup">0</property>
  <property name="meta.attr.com.apple.proapps.customgamma.markup">com.blackmagic-design.cinemacamera.filmlog</property>
  <property name="meta.attr.com.blackmagic-design.cinemacamera.uuid.markup">18E5E00548F94923B646613A73C01B56</property>
  <property name="meta.attr.creation_time.markup">2019-01-05T06:05:50.000000Z</property>
  <property name="meta.attr.timecode.markup">06:05:50:13</property>
  <property name="seekable">1</property>
  <property name="meta.media.sample_aspect_num">1</property>
  <property name="meta.media.sample_aspect_den">1</property>
  <property name="aspect_ratio">1</property>
  <property name="kdenlive:folderid">17</property>
  <property name="meta.media.frame_rate_num">50</property>
  <property name="meta.media.frame_rate_den">1</property>
  <property name="meta.media.colorspace">709</property>
  <property name="meta.media.color_trc">1</property>
  <property name="meta.media.width">1920</property>
  <property name="meta.media.height">1080</property>
  <property name="meta.media.top_field_first">0</property>
  <property name="meta.media.progressive">1</property>
  <property name="kdenlive:file_size">2815906853</property>
  <property name="kdenlive:file_hash">23a7c272941f6ead8c4c67cee7e89762</property>
  <property name="global_feed">1</property>
  <property name="kdenlive:zone_in">1516</property>
  <property name="kdenlive:zone_out">1758</property>
  <filter id="filter12">
   <property name="version">0,3</property>
   <property name="mlt_service">frei0r.levels</property>
   <property name="kdenlive_id">frei0r.levels</property>
   <property name="tag">frei0r.levels</property>
   <property name="kdenlive_ix">1</property>
   <property name="kdenlive_info"/>
   <property name="Channel">0,3</property>
   <property name="Input black level">0=0,052</property>
   <property name="Input white level">0=1</property>
   <property name="Gamma">0=0,25</property>
   <property name="Black output">0=0</property>
   <property name="White output">0=0,95</property>
   <property name="Show histogram">0</property>
   <property name="Histogram position">0,3</property>
   <property name="disable">0</property>
  </filter>
 </producer>
 <producer title="Anonymous Submission" id="45" in="0" out="280">
  <property name="length">281</property>
  <property name="eof">pause</property>
  <property name="resource">/media/bordun/plagiat/Clip02_RespecteLaPuissancePapale/Assets/sunglasses.png</property>
  <property name="ttl">25</property>
  <property name="aspect_ratio">1</property>
  <property name="progressive">1</property>
  <property name="seekable">1</property>
  <property name="meta.media.width">1920</property>
  <property name="meta.media.height">750</property>
  <property name="mlt_service">qimage</property>
  <property name="kdenlive:duration">250</property>
  <property name="kdenlive:file_size">10366</property>
  <property name="kdenlive:file_hash">fcb10f200b14e219466b94dfc32e0529</property>
  <property name="global_feed">1</property>
  <filter id="frei0r.glitch0r">
   <property name="version">0,1</property>
   <property name="mlt_service">frei0r.glitch0r</property>
   <property name="kdenlive_id">frei0r.glitch0r</property>
   <property name="tag">frei0r.glitch0r</property>
   <property name="kdenlive_ix">1</property>
   <property name="kdenlive_info"/>
   <property name="0">0,898</property>
   <property name="1">0,355</property>
   <property name="2">0,046</property>
   <property name="3">0</property>
  </filter>
 </producer>
 <producer id="48" in="0" out="252">
  <property name="length">253</property>
  <property name="eof">pause</property>
  <property name="resource">0x000000ff</property>
  <property name="aspect_ratio">1</property>
  <property name="mlt_service">color</property>
  <property name="kdenlive:clipname">Clip couleur</property>
  <property name="kdenlive:folderid">-1</property>
  <property name="kdenlive:duration">250</property>
  <property name="kdenlive:file_hash">9196813120dc5c505072516b15baf414</property>
 </producer>
 <producer title="Anonymous Submission" id="49" in="0" out="9961">
  <property name="length">00:03:19:12</property>
  <property name="eof">pause</property>
  <property name="resource">/media/bordun/plagiat/Clip02_RespecteLaPuissancePapale/Assets/vhs_on_greenscreen_stock_footage_royalty_free_Suv1x2CK3xA_360p.mp4</property>
  <property name="audio_index">1</property>
  <property name="video_index">0</property>
  <property name="mute_on_pause">1</property>
  <property name="mlt_service">avformat-novalidate</property>
  <property name="meta.media.nb_streams">2</property>
  <property name="meta.media.0.stream.type">video</property>
  <property name="meta.media.0.stream.frame_rate">29,9701</property>
  <property name="meta.media.0.stream.sample_aspect_ratio">0</property>
  <property name="meta.media.0.codec.width">480</property>
  <property name="meta.media.0.codec.height">360</property>
  <property name="meta.media.0.codec.rotate">0</property>
  <property name="meta.media.0.codec.frame_rate">29,97</property>
  <property name="meta.media.0.codec.pix_fmt">yuv420p</property>
  <property name="meta.media.0.codec.sample_aspect_ratio">1</property>
  <property name="meta.media.0.codec.colorspace">601</property>
  <property name="meta.media.0.codec.name">h264</property>
  <property name="meta.media.0.codec.long_name">H.264 / AVC / MPEG-4 AVC / MPEG-4 part 10</property>
  <property name="meta.media.0.codec.bit_rate">298518</property>
  <property name="meta.attr.0.stream.creation_time.markup">2018-11-05T07:01:08.000000Z</property>
  <property name="meta.attr.0.stream.handler_name.markup">ISO Media file produced by Google Inc. Created on: 11/04/2018.</property>
  <property name="meta.media.1.stream.type">audio</property>
  <property name="meta.media.1.codec.sample_fmt">fltp</property>
  <property name="meta.media.1.codec.sample_rate">44100</property>
  <property name="meta.media.1.codec.channels">2</property>
  <property name="meta.media.1.codec.name">aac</property>
  <property name="meta.media.1.codec.long_name">AAC (Advanced Audio Coding)</property>
  <property name="meta.media.1.codec.bit_rate">95999</property>
  <property name="meta.attr.1.stream.creation_time.markup">2018-11-05T07:01:08.000000Z</property>
  <property name="meta.attr.1.stream.handler_name.markup">ISO Media file produced by Google Inc. Created on: 11/04/2018.</property>
  <property name="meta.attr.major_brand.markup">mp42</property>
  <property name="meta.attr.minor_version.markup">0</property>
  <property name="meta.attr.compatible_brands.markup">isommp42</property>
  <property name="meta.attr.creation_time.markup">2018-11-05T07:01:08.000000Z</property>
  <property name="seekable">1</property>
  <property name="meta.media.sample_aspect_num">1</property>
  <property name="meta.media.sample_aspect_den">1</property>
  <property name="aspect_ratio">1</property>
  <property name="meta.media.frame_rate_num">3731250</property>
  <property name="meta.media.frame_rate_den">124499</property>
  <property name="meta.media.colorspace">601</property>
  <property name="meta.media.color_trc">2</property>
  <property name="meta.media.width">480</property>
  <property name="meta.media.height">360</property>
  <property name="meta.media.top_field_first">0</property>
  <property name="meta.media.progressive">1</property>
  <property name="kdenlive:file_size">9887889</property>
  <property name="kdenlive:file_hash">30a067bbfc9642db96df21e0922c6f06</property>
  <property name="global_feed">1</property>
 </producer>
 <producer title="Anonymous Submission" id="50" in="0" out="249">
  <property name="length">250</property>
  <property name="eof">pause</property>
  <property name="resource"/>
  <property name="progressive">1</property>
  <property name="aspect_ratio">1</property>
  <property name="seekable">1</property>
  <property name="mlt_service">kdenlivetitle</property>
  <property name="kdenlive:clipname">CAM01</property>
  <property name="kdenlive:folderid">-1</property>
  <property name="xmldata">&lt;kdenlivetitle duration="250" LC_NUMERIC="fr_FR.UTF-8" width="1920" height="1080" out="250">
 &lt;item type="QGraphicsTextItem" z-index="0">
  &lt;position x="335" y="72">
   &lt;transform>1,0,0,0,1,0,0,0,1&lt;/transform>
  &lt;/position>
  &lt;content line-spacing="0" shadow="0;#64000000;3;3;3" font-underline="0" box-height="59" font-outline-color="0,0,0,255" font="VCR OSD Mono" letter-spacing="0" font-pixel-size="60" font-italic="0" alignment="1" font-weight="87" font-outline="2.7" box-width="140.625" font-color="255,255,255,255">CAM1&lt;/content>
 &lt;/item>
 &lt;startviewport rect="0,0,1920,1080"/>
 &lt;endviewport rect="0,0,1920,1080"/>
 &lt;background color="0,0,0,0"/>
&lt;/kdenlivetitle>
</property>
  <property name="kdenlive:duration">250</property>
  <property name="force_reload">0</property>
  <property name="meta.media.width">1920</property>
  <property name="meta.media.height">1080</property>
  <property name="kdenlive:file_hash">3ed74b4d7c04774fd7400008b406c225</property>
  <property name="global_feed">1</property>
 </producer>
 <producer title="Anonymous Submission" id="51" in="0" out="647">
  <property name="length">648</property>
  <property name="eof">pause</property>
  <property name="resource"/>
  <property name="progressive">1</property>
  <property name="aspect_ratio">1</property>
  <property name="seekable">1</property>
  <property name="mlt_service">kdenlivetitle</property>
  <property name="kdenlive:clipname">CAM00</property>
  <property name="kdenlive:folderid">-1</property>
  <property name="xmldata">&lt;kdenlivetitle duration="250" LC_NUMERIC="fr_FR.UTF-8" width="1920" height="1080" out="250">
 &lt;item type="QGraphicsTextItem" z-index="0">
  &lt;position x="335" y="72">
   &lt;transform>1,0,0,0,1,0,0,0,1&lt;/transform>
  &lt;/position>
  &lt;content line-spacing="0" shadow="0;#64000000;3;3;3" font-underline="0" box-height="59" font-outline-color="0,0,0,255" font="VCR OSD Mono" letter-spacing="0" font-pixel-size="60" font-italic="0" alignment="1" font-weight="50" font-outline="2.7" box-width="140.625" font-color="255,255,255,255">CAM0&lt;/content>
 &lt;/item>
 &lt;startviewport rect="0,0,1920,1080"/>
 &lt;endviewport rect="0,0,1920,1080"/>
 &lt;background color="0,0,0,0"/>
&lt;/kdenlivetitle>
</property>
  <property name="kdenlive:duration">250</property>
  <property name="force_reload">0</property>
  <property name="kdenlive:file_hash">3ed74b4d7c04774fd7400008b406c225</property>
  <property name="global_feed">1</property>
  <property name="meta.media.width">1920</property>
  <property name="meta.media.height">1080</property>
 </producer>
 <producer title="Anonymous Submission" id="52" in="0" out="249">
  <property name="length">250</property>
  <property name="eof">pause</property>
  <property name="resource"/>
  <property name="progressive">1</property>
  <property name="aspect_ratio">1</property>
  <property name="seekable">1</property>
  <property name="mlt_service">kdenlivetitle</property>
  <property name="kdenlive:clipname">CAM07</property>
  <property name="kdenlive:folderid">-1</property>
  <property name="xmldata">&lt;kdenlivetitle duration="250" LC_NUMERIC="fr_FR.UTF-8" width="1920" height="1080" out="250">
 &lt;item type="QGraphicsTextItem" z-index="0">
  &lt;position x="335" y="72">
   &lt;transform>1,0,0,0,1,0,0,0,1&lt;/transform>
  &lt;/position>
  &lt;content line-spacing="0" shadow="0;#64000000;3;3;3" font-underline="0" box-height="59" font-outline-color="0,0,0,255" font="VCR OSD Mono" letter-spacing="0" font-pixel-size="60" font-italic="0" alignment="1" font-weight="87" font-outline="2.7" box-width="140.625" font-color="255,255,255,255">CAM7&lt;/content>
 &lt;/item>
 &lt;startviewport rect="0,0,1920,1080"/>
 &lt;endviewport rect="0,0,1920,1080"/>
 &lt;background color="0,0,0,0"/>
&lt;/kdenlivetitle>
</property>
  <property name="kdenlive:duration">250</property>
  <property name="force_reload">0</property>
  <property name="kdenlive:file_hash">3ed74b4d7c04774fd7400008b406c225</property>
  <property name="global_feed">1</property>
  <property name="meta.media.width">1920</property>
  <property name="meta.media.height">1080</property>
 </producer>
 <producer title="Anonymous Submission" id="54" in="0" out="249">
  <property name="length">250</property>
  <property name="eof">pause</property>
  <property name="resource"/>
  <property name="progressive">1</property>
  <property name="aspect_ratio">1</property>
  <property name="seekable">1</property>
  <property name="mlt_service">kdenlivetitle</property>
  <property name="kdenlive:clipname">CAM18</property>
  <property name="kdenlive:folderid">-1</property>
  <property name="xmldata">&lt;kdenlivetitle duration="250" LC_NUMERIC="fr_FR.UTF-8" width="1920" height="1080" out="250">
 &lt;item type="QGraphicsTextItem" z-index="0">
  &lt;position x="335" y="72">
   &lt;transform>1,0,0,0,1,0,0,0,1&lt;/transform>
  &lt;/position>
  &lt;content line-spacing="0" shadow="0;#64000000;3;3;3" font-underline="0" box-height="59" font-outline-color="0,0,0,255" font="VCR OSD Mono" letter-spacing="0" font-pixel-size="60" font-italic="0" alignment="1" font-weight="87" font-outline="2.7" box-width="210.938" font-color="255,255,255,255">CAM+18&lt;/content>
 &lt;/item>
 &lt;startviewport rect="0,0,1920,1080"/>
 &lt;endviewport rect="0,0,1920,1080"/>
 &lt;background color="0,0,0,0"/>
&lt;/kdenlivetitle>
</property>
  <property name="kdenlive:duration">250</property>
  <property name="force_reload">0</property>
  <property name="kdenlive:file_hash">3ed74b4d7c04774fd7400008b406c225</property>
  <property name="global_feed">1</property>
  <property name="meta.media.width">1920</property>
  <property name="meta.media.height">1080</property>
 </producer>
 <producer title="Anonymous Submission" id="56" in="0" out="42397">
  <property name="length">00:14:07:48</property>
  <property name="eof">pause</property>
  <property name="resource">/media/bordun/plagiat/2019-12-21_Plagiat_RespecteLaPuissancePapale_extra/2018-12-06_RespecteLaPuissancePapale_Clip_Master.wav</property>
  <property name="audio_index">0</property>
  <property name="video_index">-1</property>
  <property name="mute_on_pause">1</property>
  <property name="mlt_service">avformat-novalidate</property>
  <property name="meta.media.nb_streams">1</property>
  <property name="meta.media.0.stream.type">audio</property>
  <property name="meta.media.0.codec.sample_fmt">s32</property>
  <property name="meta.media.0.codec.sample_rate">48000</property>
  <property name="meta.media.0.codec.channels">2</property>
  <property name="meta.media.0.codec.name">pcm_s24le</property>
  <property name="meta.media.0.codec.long_name">PCM signed 24-bit little-endian</property>
  <property name="meta.media.0.codec.bit_rate">2304000</property>
  <property name="seekable">1</property>
  <property name="kdenlive:file_size">244215314</property>
  <property name="kdenlive:file_hash">704730193c02b4eae0f463072159504c</property>
  <property name="global_feed">1</property>
 </producer>
 <producer id="57" in="0" out="249">
  <property name="length">250</property>
  <property name="eof">pause</property>
  <property name="resource"/>
  <property name="progressive">1</property>
  <property name="aspect_ratio">1</property>
  <property name="seekable">1</property>
  <property name="mlt_service">kdenlivetitle</property>
  <property name="kdenlive:clipname">Clip titre</property>
  <property name="kdenlive:folderid">15</property>
  <property name="xmldata">&lt;kdenlivetitle duration="250" LC_NUMERIC="fr_FR.UTF-8" width="1920" height="1080" out="250">
 &lt;item type="QGraphicsTextItem" z-index="1001">
  &lt;position x="274" y="947">
   &lt;transform>1,0,0,0,1,0,0,0,1&lt;/transform>
  &lt;/position>
  &lt;content line-spacing="0" shadow="0;#64000000;3;3;3" font-underline="0" box-height="29" font="VCR OSD Mono" letter-spacing="0" font-pixel-size="30" font-italic="0" alignment="1" font-weight="50" box-width="333.984" font-color="255,255,255,255">Oops All Goes Wrong&lt;/content>
 &lt;/item>
 &lt;item type="QGraphicsTextItem" z-index="2">
  &lt;position x="274" y="998">
   &lt;transform>1,0,0,0,1,0,0,0,1&lt;/transform>
  &lt;/position>
  &lt;content line-spacing="6" shadow="0;#64000000;3;3;3" font-underline="0" box-height="48" font="VCR OSD Mono" letter-spacing="0" font-pixel-size="22" font-italic="0" alignment="1" font-weight="50" box-width="670.313" font-color="255,255,255,180">Britney Speats &amp;amp; Miley Cistite - Oops I eat it again
Humphrey Weinstein GrandPa Entertainment&lt;/content>
 &lt;/item>
 &lt;item type="QGraphicsRectItem" z-index="1">
  &lt;position x="224" y="917">
   &lt;transform zoom="100">1,0,0,0,1,0,0,0,1&lt;/transform>
  &lt;/position>
  &lt;content brushcolor="0,0,0,150" pencolor="0,0,0,255" penwidth="0" rect="0,0,1487,170"/>
 &lt;/item>
 &lt;startviewport rect="0,0,1920,1080"/>
 &lt;endviewport rect="0,0,1920,1080"/>
 &lt;background color="0,0,0,0"/>
&lt;/kdenlivetitle>
</property>
  <property name="kdenlive:duration">250</property>
  <property name="force_reload">0</property>
  <property name="meta.media.width">1920</property>
  <property name="meta.media.height">1080</property>
  <property name="kdenlive:file_hash">1989a58203b95532df775c174eb95c86</property>
 </producer>
 <producer title="Anonymous Submission" id="58" in="0" out="249">
  <property name="length">250</property>
  <property name="eof">pause</property>
  <property name="resource"/>
  <property name="progressive">1</property>
  <property name="aspect_ratio">1</property>
  <property name="seekable">1</property>
  <property name="mlt_service">kdenlivetitle</property>
  <property name="kdenlive:clipname">yula titre</property>
  <property name="kdenlive:folderid">-1</property>
  <property name="xmldata">&lt;kdenlivetitle duration="250" LC_NUMERIC="fr_FR.UTF-8" width="1920" height="1080" out="250">
 &lt;item type="QGraphicsTextItem" z-index="1001">
  &lt;position x="274" y="947">
   &lt;transform>1,0,0,0,1,0,0,0,1&lt;/transform>
  &lt;/position>
  &lt;content line-spacing="0" shadow="0;#64000000;3;3;3" font-underline="0" box-height="29" font="VCR OSD Mono" letter-spacing="0" font-pixel-size="30" font-italic="0" alignment="1" font-weight="50" box-width="70.3125" font-color="255,255,255,255">Yüla&lt;/content>
 &lt;/item>
 &lt;item type="QGraphicsTextItem" z-index="2">
  &lt;position x="274" y="998">
   &lt;transform>1,0,0,0,1,0,0,0,1&lt;/transform>
  &lt;/position>
  &lt;content line-spacing="6" shadow="0;#64000000;3;3;3" font-underline="0" box-height="42" font="VCR OSD Mono" letter-spacing="0" font-pixel-size="22" font-italic="0" alignment="1" font-weight="50" box-width="618.75" font-color="255,255,255,180">Céline &amp;amp; Cyril Dion - Did you make my bed today?
Le Blanc / La Redoute / Sofitel &lt;/content>
 &lt;/item>
 &lt;item type="QGraphicsRectItem" z-index="1">
  &lt;position x="224" y="917">
   &lt;transform zoom="100">1,0,0,0,1,0,0,0,1&lt;/transform>
  &lt;/position>
  &lt;content brushcolor="0,0,0,150" pencolor="0,0,0,255" penwidth="0" rect="0,0,1487,170"/>
 &lt;/item>
 &lt;startviewport rect="0,0,1920,1080"/>
 &lt;endviewport rect="0,0,1920,1080"/>
 &lt;background color="0,0,0,0"/>
&lt;/kdenlivetitle>
</property>
  <property name="kdenlive:duration">250</property>
  <property name="force_reload">0</property>
  <property name="meta.media.width">1920</property>
  <property name="meta.media.height">1080</property>
  <property name="kdenlive:file_hash">c95b756437c9c849a979a234833caf77</property>
  <property name="global_feed">1</property>
 </producer>
 <producer title="Anonymous Submission" id="59" in="0" out="249">
  <property name="length">250</property>
  <property name="eof">pause</property>
  <property name="resource"/>
  <property name="progressive">1</property>
  <property name="aspect_ratio">1</property>
  <property name="seekable">1</property>
  <property name="mlt_service">kdenlivetitle</property>
  <property name="kdenlive:clipname">fartin art titre</property>
  <property name="kdenlive:folderid">-1</property>
  <property name="xmldata">&lt;kdenlivetitle duration="250" LC_NUMERIC="fr_FR.UTF-8" width="1920" height="1080" out="250">
 &lt;item type="QGraphicsTextItem" z-index="1001">
  &lt;position x="274" y="947">
   &lt;transform>1,0,0,0,1,0,0,0,1&lt;/transform>
  &lt;/position>
  &lt;content line-spacing="0" shadow="0;#64000000;3;3;3" font-underline="0" box-height="29" font="VCR OSD Mono" letter-spacing="0" font-pixel-size="30" font-italic="0" alignment="1" font-weight="50" box-width="193.359" font-color="255,255,255,255">Farting Art&lt;/content>
 &lt;/item>
 &lt;item type="QGraphicsTextItem" z-index="2">
  &lt;position x="274" y="998">
   &lt;transform>1,0,0,0,1,0,0,0,1&lt;/transform>
  &lt;/position>
  &lt;content line-spacing="6" shadow="0;#64000000;3;3;3" font-underline="0" box-height="48" font="VCR OSD Mono" letter-spacing="0" font-pixel-size="22" font-italic="0" alignment="1" font-weight="50" box-width="515.625" font-color="255,255,255,180">Jean-Marie Bigup - All inclusive, bitch!
Diocèse de Lyon / La Pléïade &lt;/content>
 &lt;/item>
 &lt;item type="QGraphicsRectItem" z-index="1">
  &lt;position x="224" y="917">
   &lt;transform zoom="100">1,0,0,0,1,0,0,0,1&lt;/transform>
  &lt;/position>
  &lt;content brushcolor="0,0,0,150" pencolor="0,0,0,255" penwidth="0" rect="0,0,1487,170"/>
 &lt;/item>
 &lt;startviewport rect="0,0,1920,1080"/>
 &lt;endviewport rect="0,0,1920,1080"/>
 &lt;background color="0,0,0,0"/>
&lt;/kdenlivetitle>
</property>
  <property name="kdenlive:duration">250</property>
  <property name="force_reload">0</property>
  <property name="kdenlive:file_hash">c95b756437c9c849a979a234833caf77</property>
  <property name="global_feed">1</property>
  <property name="meta.media.width">1920</property>
  <property name="meta.media.height">1080</property>
 </producer>
 <producer title="Anonymous Submission" id="60" in="0" out="249">
  <property name="length">250</property>
  <property name="eof">pause</property>
  <property name="resource">/media/bordun/plagiat/Clip02_RespecteLaPuissancePapale/Assets/A7.png</property>
  <property name="ttl">25</property>
  <property name="aspect_ratio">1</property>
  <property name="progressive">1</property>
  <property name="seekable">1</property>
  <property name="meta.media.width">1138</property>
  <property name="meta.media.height">668</property>
  <property name="mlt_service">qimage</property>
  <property name="kdenlive:duration">250</property>
  <property name="kdenlive:file_size">32380</property>
  <property name="kdenlive:file_hash">1e48b8c2673781877754261c5bc93652</property>
  <property name="global_feed">1</property>
 </producer>
 <producer title="Anonymous Submission" id="61" in="0" out="249">
  <property name="length">250</property>
  <property name="eof">pause</property>
  <property name="resource"/>
  <property name="progressive">1</property>
  <property name="aspect_ratio">1</property>
  <property name="seekable">1</property>
  <property name="mlt_service">kdenlivetitle</property>
  <property name="kdenlive:clipname">ha - titre</property>
  <property name="kdenlive:folderid">-1</property>
  <property name="xmldata">&lt;kdenlivetitle duration="250" LC_NUMERIC="fr_FR.UTF-8" width="1920" height="1080" out="250">
 &lt;item type="QGraphicsTextItem" z-index="1001">
  &lt;position x="274" y="947">
   &lt;transform>1,0,0,0,1,0,0,0,1&lt;/transform>
  &lt;/position>
  &lt;content line-spacing="0" shadow="0;#64000000;3;3;3" font-underline="0" box-height="29" font="VCR OSD Mono" letter-spacing="0" font-pixel-size="30" font-italic="0" alignment="1" font-weight="50" box-width="70.3125" font-color="255,255,255,255">haaa&lt;/content>
 &lt;/item>
 &lt;item type="QGraphicsTextItem" z-index="2">
  &lt;position x="274" y="998">
   &lt;transform>1,0,0,0,1,0,0,0,1&lt;/transform>
  &lt;/position>
  &lt;content line-spacing="6" shadow="0;#64000000;3;3;3" font-underline="0" box-height="48" font="VCR OSD Mono" letter-spacing="0" font-pixel-size="22" font-italic="0" alignment="1" font-weight="50" box-width="618.75" font-color="255,255,255,180">MC Prine Minister - Don't mess with the reverend
Sodomildixsept Records&lt;/content>
 &lt;/item>
 &lt;item type="QGraphicsRectItem" z-index="1">
  &lt;position x="224" y="917">
   &lt;transform zoom="100">1,0,0,0,1,0,0,0,1&lt;/transform>
  &lt;/position>
  &lt;content brushcolor="0,0,0,150" pencolor="0,0,0,255" penwidth="0" rect="0,0,1487,170"/>
 &lt;/item>
 &lt;startviewport rect="0,0,1920,1080"/>
 &lt;endviewport rect="0,0,1920,1080"/>
 &lt;background color="0,0,0,0"/>
&lt;/kdenlivetitle>
</property>
  <property name="kdenlive:duration">250</property>
  <property name="force_reload">0</property>
  <property name="kdenlive:file_hash">7e07fae7898868efb35d0374299c61e2</property>
  <property name="global_feed">1</property>
  <property name="meta.media.width">1920</property>
  <property name="meta.media.height">1080</property>
 </producer>
 <producer id="62" in="0" out="249">
  <property name="length">250</property>
  <property name="eof">pause</property>
  <property name="resource">0xffffffff</property>
  <property name="aspect_ratio">1</property>
  <property name="mlt_service">color</property>
  <property name="kdenlive:clipname">Clip couleur</property>
  <property name="kdenlive:folderid">-1</property>
  <property name="kdenlive:duration">250</property>
  <property name="kdenlive:file_hash">039b56a692cd66eefeea44a17539e5a2</property>
 </producer>
 <producer title="Anonymous Submission" id="63" in="0" out="249">
  <property name="length">250</property>
  <property name="eof">pause</property>
  <property name="resource"/>
  <property name="progressive">1</property>
  <property name="aspect_ratio">1</property>
  <property name="seekable">1</property>
  <property name="mlt_service">kdenlivetitle</property>
  <property name="kdenlive:clipname">CAM04</property>
  <property name="kdenlive:folderid">-1</property>
  <property name="xmldata">&lt;kdenlivetitle duration="250" LC_NUMERIC="fr_FR.UTF-8" width="1920" height="1080" out="250">
 &lt;item type="QGraphicsTextItem" z-index="0">
  &lt;position x="335" y="72">
   &lt;transform>1,0,0,0,1,0,0,0,1&lt;/transform>
  &lt;/position>
  &lt;content line-spacing="0" shadow="0;#64000000;3;3;3" font-underline="0" box-height="59" font-outline-color="0,0,0,255" font="VCR OSD Mono" letter-spacing="0" font-pixel-size="60" font-italic="0" alignment="1" font-weight="87" font-outline="2.7" box-width="140.625" font-color="255,255,255,255">CAM4&lt;/content>
 &lt;/item>
 &lt;startviewport rect="0,0,1920,1080"/>
 &lt;endviewport rect="0,0,1920,1080"/>
 &lt;background color="0,0,0,0"/>
&lt;/kdenlivetitle>
</property>
  <property name="kdenlive:duration">250</property>
  <property name="force_reload">0</property>
  <property name="kdenlive:file_hash">3ed74b4d7c04774fd7400008b406c225</property>
  <property name="global_feed">1</property>
  <property name="meta.media.width">1920</property>
  <property name="meta.media.height">1080</property>
 </producer>
 <producer title="Anonymous Submission" id="64" in="0" out="249">
  <property name="length">250</property>
  <property name="eof">pause</property>
  <property name="resource"/>
  <property name="progressive">1</property>
  <property name="aspect_ratio">1</property>
  <property name="seekable">1</property>
  <property name="mlt_service">kdenlivetitle</property>
  <property name="kdenlive:clipname">laughing titre</property>
  <property name="kdenlive:folderid">-1</property>
  <property name="xmldata">&lt;kdenlivetitle duration="250" LC_NUMERIC="fr_FR.UTF-8" width="1920" height="1080" out="250">
 &lt;item type="QGraphicsTextItem" z-index="1001">
  &lt;position x="274" y="947">
   &lt;transform>1,0,0,0,1,0,0,0,1&lt;/transform>
  &lt;/position>
  &lt;content line-spacing="0" shadow="0;#64000000;3;3;3" font-underline="0" box-height="29" font="VCR OSD Mono" letter-spacing="0" font-pixel-size="30" font-italic="0" alignment="1" font-weight="50" box-width="369.141" font-color="255,255,255,255">I is the one laughing&lt;/content>
 &lt;/item>
 &lt;item type="QGraphicsTextItem" z-index="2">
  &lt;position x="274" y="998">
   &lt;transform>1,0,0,0,1,0,0,0,1&lt;/transform>
  &lt;/position>
  &lt;content line-spacing="6" shadow="0;#64000000;3;3;3" font-underline="0" box-height="48" font="VCR OSD Mono" letter-spacing="0" font-pixel-size="22" font-italic="0" alignment="1" font-weight="50" box-width="618.75" font-color="255,255,255,180">Viktor U-Go feat. Mike Diamonds - Don't run away
No Rerecord Records / Nestlé&lt;/content>
 &lt;/item>
 &lt;item type="QGraphicsRectItem" z-index="1">
  &lt;position x="224" y="917">
   &lt;transform zoom="100">1,0,0,0,1,0,0,0,1&lt;/transform>
  &lt;/position>
  &lt;content brushcolor="0,0,0,150" pencolor="0,0,0,255" penwidth="0" rect="0,0,1487,170"/>
 &lt;/item>
 &lt;startviewport rect="0,0,1920,1080"/>
 &lt;endviewport rect="0,0,1920,1080"/>
 &lt;background color="0,0,0,0"/>
&lt;/kdenlivetitle>
</property>
  <property name="kdenlive:duration">250</property>
  <property name="force_reload">0</property>
  <property name="kdenlive:file_hash">c95b756437c9c849a979a234833caf77</property>
  <property name="global_feed">1</property>
  <property name="meta.media.width">1920</property>
  <property name="meta.media.height">1080</property>
 </producer>
 <producer title="Anonymous Submission" id="65" in="0" out="249">
  <property name="length">250</property>
  <property name="eof">pause</property>
  <property name="resource"/>
  <property name="progressive">1</property>
  <property name="aspect_ratio">1</property>
  <property name="seekable">1</property>
  <property name="mlt_service">kdenlivetitle</property>
  <property name="kdenlive:clipname">CAM06</property>
  <property name="kdenlive:folderid">-1</property>
  <property name="xmldata">&lt;kdenlivetitle duration="250" LC_NUMERIC="fr_FR.UTF-8" width="1920" height="1080" out="250">
 &lt;item type="QGraphicsTextItem" z-index="0">
  &lt;position x="335" y="72">
   &lt;transform>1,0,0,0,1,0,0,0,1&lt;/transform>
  &lt;/position>
  &lt;content line-spacing="0" shadow="0;#64000000;3;3;3" font-underline="0" box-height="59" font-outline-color="0,0,0,255" font="VCR OSD Mono" letter-spacing="0" font-pixel-size="60" font-italic="0" alignment="1" font-weight="87" font-outline="2.7" box-width="140.625" font-color="255,255,255,255">CAM6&lt;/content>
 &lt;/item>
 &lt;startviewport rect="0,0,1920,1080"/>
 &lt;endviewport rect="0,0,1920,1080"/>
 &lt;background color="0,0,0,0"/>
&lt;/kdenlivetitle>
</property>
  <property name="kdenlive:duration">250</property>
  <property name="force_reload">0</property>
  <property name="kdenlive:file_hash">3ed74b4d7c04774fd7400008b406c225</property>
  <property name="global_feed">1</property>
  <property name="meta.media.width">1920</property>
  <property name="meta.media.height">1080</property>
 </producer>
 <playlist id="main bin">
  <property name="kdenlive:docproperties.audiotargettrack">2</property>
  <property name="kdenlive:docproperties.decimalPoint">,</property>
  <property name="kdenlive:docproperties.dirtypreviewchunks"/>
  <property name="kdenlive:docproperties.disablepreview">0</property>
  <property name="kdenlive:docproperties.documentid">1547739419641</property>
  <property name="kdenlive:docproperties.enableproxy">0</property>
  <property name="kdenlive:docproperties.generateimageproxy">0</property>
  <property name="kdenlive:docproperties.generateproxy">1</property>
  <property name="kdenlive:docproperties.kdenliveversion">18.12.1</property>
  <property name="kdenlive:docproperties.position">0</property>
  <property name="kdenlive:docproperties.previewchunks"/>
  <property name="kdenlive:docproperties.previewextension"/>
  <property name="kdenlive:docproperties.previewparameters"/>
  <property name="kdenlive:docproperties.profile">atsc_1080p_50</property>
  <property name="kdenlive:docproperties.proxyextension">mkv</property>
  <property name="kdenlive:docproperties.proxyimageminsize">2000</property>
  <property name="kdenlive:docproperties.proxyminsize">1000</property>
  <property name="kdenlive:docproperties.proxyparams">-vf yadif,scale=960:-2 -qscale 3 -vcodec mjpeg -acodec pcm_s16le</property>
  <property name="kdenlive:docproperties.version">0.96</property>
  <property name="kdenlive:docproperties.verticalzoom">1</property>
  <property name="kdenlive:docproperties.videotargettrack">3</property>
  <property name="kdenlive:docproperties.zonein">21238</property>
  <property name="kdenlive:docproperties.zoneout">21603</property>
  <property name="kdenlive:docproperties.zoom">5</property>
  <property name="kdenlive:documentnotes"/>
  <property name="kdenlive:clipgroups"/>
  <property name="kdenlive:folder.-1.5">Part I - Le5</property>
  <property name="kdenlive:folder.-1.6">Part II - Ballade</property>
  <property name="kdenlive:folder.-1.7">Part III - AfroTrap</property>
  <property name="kdenlive:folder.5.9">Autel</property>
  <property name="kdenlive:folder.5.10">ContrePlongee</property>
  <property name="kdenlive:folder.6.11">NanoChiottes</property>
  <property name="kdenlive:folder.6.12">MissyPiano</property>
  <property name="kdenlive:folder.5.13">Trap</property>
  <property name="kdenlive:folder.5.14">InstruRefrain</property>
  <property name="kdenlive:folder.-1.15">Part IV - Meshuggah</property>
  <property name="kdenlive:guide.295">synth start</property>
  <property name="kdenlive:guide.299,92">go</property>
  <property name="kdenlive:guide.319,94">i is the one</property>
  <property name="kdenlive:guide.394,98">i is the one</property>
  <property name="kdenlive:folder.15.16">Dossier</property>
  <property name="kdenlive:folder.-1.17">Lavaré</property>
  <property name="kdenlive:docproperties.renderaudioquality">256</property>
  <property name="kdenlive:docproperties.rendercategory">Personnalisé</property>
  <property name="kdenlive:docproperties.renderendguide">0</property>
  <property name="kdenlive:docproperties.renderexportaudio">0</property>
  <property name="kdenlive:docproperties.renderguide">0</property>
  <property name="kdenlive:docproperties.renderplay">0</property>
  <property name="kdenlive:docproperties.renderprofile">MP4HD</property>
  <property name="kdenlive:docproperties.renderquality">19</property>
  <property name="kdenlive:docproperties.renderratio">1</property>
  <property name="kdenlive:docproperties.renderrescale">1</property>
  <property name="kdenlive:docproperties.renderrescaleheight">720</property>
  <property name="kdenlive:docproperties.renderrescalewidth">1280</property>
  <property name="kdenlive:docproperties.renderscanning">0</property>
  <property name="kdenlive:docproperties.renderspeed">2</property>
  <property name="kdenlive:docproperties.renderstartguide">0</property>
  <property name="kdenlive:docproperties.rendertcoverlay">0</property>
  <property name="kdenlive:docproperties.rendertctype">0</property>
  <property name="kdenlive:docproperties.rendertwopass">0</property>
  <property name="kdenlive:docproperties.renderurl">/media/bordun/plagiat/Clip02_RespecteLaPuissancePapale/Rendus/2019-09-25-RLPP-Part3.mp4</property>
  <property name="kdenlive:docproperties.renderzone">1</property>
  <property name="xml_retain">1</property>
  <entry producer="1" in="0" out="14561"/>
  <entry producer="5" in="0" out="19246"/>
  <entry producer="4" in="0" out="24870"/>
  <entry producer="3" in="0" out="11635"/>
  <entry producer="2" in="0" out="11667"/>
  <entry producer="6" in="0" out="4178"/>
  <entry producer="7" in="0" out="8532"/>
  <entry producer="16" in="0" out="2403"/>
  <entry producer="17" in="0" out="2706"/>
  <entry producer="18" in="0" out="1547"/>
  <entry producer="19" in="0" out="2823"/>
  <entry producer="20" in="0" out="995"/>
  <entry producer="21" in="0" out="8367"/>
  <entry producer="23" in="0" out="90"/>
  <entry producer="24" in="0" out="2194"/>
  <entry producer="22" in="0" out="2303"/>
  <entry producer="14" in="0" out="3805"/>
  <entry producer="15" in="0" out="3941"/>
  <entry producer="10" in="0" out="3856"/>
  <entry producer="9" in="0" out="7720"/>
  <entry producer="11" in="0" out="21338"/>
  <entry producer="8" in="0" out="21621"/>
  <entry producer="25" in="0" out="4317"/>
  <entry producer="26" in="0" out="2406"/>
  <entry producer="13" in="0" out="4748"/>
  <entry producer="12" in="0" out="23600"/>
  <entry producer="28" in="0" out="43907"/>
  <entry producer="29" in="0" out="3983"/>
  <entry producer="30" in="0" out="5323"/>
  <entry producer="31" in="0" out="9041"/>
  <entry producer="32" in="0" out="3953"/>
  <entry producer="33" in="0" out="5863"/>
  <entry producer="34" in="0" out="6601"/>
  <entry producer="35" in="0" out="10077"/>
  <entry producer="36" in="0" out="10454"/>
  <entry producer="37" in="0" out="19885"/>
  <entry producer="38" in="0" out="9289"/>
  <entry producer="39" in="0" out="10702"/>
  <entry producer="40" in="0" out="11268"/>
  <entry producer="41" in="0" out="42317"/>
  <entry producer="42" in="0" out="1689"/>
  <entry producer="43" in="0" out="3049"/>
  <entry producer="45" in="0" out="249"/>
  <blank length="260"/>
  <entry producer="48" in="0" out="249"/>
  <entry producer="49" in="0" out="9961"/>
  <entry producer="50" in="0" out="249"/>
  <entry producer="51" in="0" out="249"/>
  <entry producer="52" in="0" out="249"/>
  <entry producer="54" in="0" out="249"/>
  <entry producer="56" in="0" out="42397"/>
  <entry producer="57" in="0" out="249"/>
  <entry producer="58" in="0" out="249"/>
  <entry producer="59" in="0" out="249"/>
  <entry producer="60" in="0" out="249"/>
  <entry producer="61" in="0" out="249"/>
  <entry producer="62" in="0" out="249"/>
  <entry producer="63" in="0" out="249"/>
  <entry producer="64" in="0" out="249"/>
  <entry producer="65" in="0" out="249"/>
 </playlist>
 <producer id="black" in="0" out="70320">
  <property name="length">70321</property>
  <property name="eof">pause</property>
  <property name="resource">black</property>
  <property name="aspect_ratio">0</property>
  <property name="mlt_service">colour</property>
  <property name="set.test_audio">0</property>
 </producer>
 <playlist id="black_track">
  <entry producer="black" in="0" out="33023"/>
 </playlist>
 <producer title="Anonymous Submission" id="56_playlist1" in="0" out="42397">
  <property name="length">00:14:07:48</property>
  <property name="eof">pause</property>
  <property name="resource">/media/bordun/plagiat/2019-12-21_Plagiat_RespecteLaPuissancePapale_extra/2018-12-06_RespecteLaPuissancePapale_Clip_Master.wav</property>
  <property name="audio_index">0</property>
  <property name="video_index">-1</property>
  <property name="mute_on_pause">1</property>
  <property name="mlt_service">avformat-novalidate</property>
  <property name="seekable">1</property>
  <property name="kdenlive:file_size">244215314</property>
  <property name="kdenlive:file_hash">704730193c02b4eae0f463072159504c</property>
  <property name="global_feed">1</property>
  <property name="xml">was here</property>
  <property name="meta.media.nb_streams">1</property>
  <property name="meta.media.0.stream.type">audio</property>
  <property name="meta.media.0.codec.sample_fmt">s32</property>
  <property name="meta.media.0.codec.sample_rate">48000</property>
  <property name="meta.media.0.codec.channels">2</property>
  <property name="meta.media.0.codec.name">pcm_s24le</property>
  <property name="meta.media.0.codec.long_name">PCM signed 24-bit little-endian</property>
  <property name="meta.media.0.codec.bit_rate">2304000</property>
 </producer>
 <playlist id="playlist1">
  <property name="kdenlive:audio_track">1</property>
  <property name="kdenlive:track_name">Audio 2</property>
  <entry producer="56_playlist1" in="9375" out="42397"/>
 </playlist>
 <playlist id="playlist2">
  <property name="kdenlive:audio_track">1</property>
  <property name="kdenlive:track_name">Audio 1</property>
 </playlist>
 <producer title="Anonymous Submission" id="8_playlist3" in="0" out="21621">
  <property name="length">00:07:12:22</property>
  <property name="eof">pause</property>
  <property name="resource">/media/bordun/plagiat/2018-12-10_Plagiat_RespecteLaPuissancePapale/Carte_2/CAM1_2018-12-10_1649_C0003.mov</property>
  <property name="audio_index">2</property>
  <property name="video_index">1</property>
  <property name="mute_on_pause">1</property>
  <property name="mlt_service">avformat-novalidate</property>
  <property name="seekable">1</property>
  <property name="aspect_ratio">1</property>
  <property name="kdenlive:folderid">7</property>
  <property name="kdenlive:file_size">19962436561</property>
  <property name="kdenlive:file_hash">5ccc04e85e02ddf58369dec9f30fa947</property>
  <property name="global_feed">1</property>
  <property name="xml">was here</property>
  <property name="meta.media.nb_streams">3</property>
  <property name="meta.media.1.stream.type">video</property>
  <property name="meta.media.1.stream.frame_rate">50</property>
  <property name="meta.media.1.stream.sample_aspect_ratio">1</property>
  <property name="meta.media.1.codec.width">1920</property>
  <property name="meta.media.1.codec.height">1080</property>
  <property name="meta.media.1.codec.rotate">0</property>
  <property name="meta.media.1.codec.frame_rate">5000</property>
  <property name="meta.media.1.codec.pix_fmt">yuv422p10le</property>
  <property name="meta.media.1.codec.sample_aspect_ratio">0</property>
  <property name="meta.media.1.codec.colorspace">709</property>
  <property name="meta.media.1.codec.name">prores</property>
  <property name="meta.media.1.codec.long_name">ProRes</property>
  <property name="meta.media.1.codec.bit_rate">366956838</property>
  <property name="meta.attr.1.stream.creation_time.markup">2018-12-10T16:49:40.000000Z</property>
  <property name="meta.attr.1.stream.language.markup">eng</property>
  <property name="meta.attr.1.stream.handler_name.markup">Apple Alias Data Handler</property>
  <property name="meta.attr.1.stream.encoder.markup">Apple ProRes 422 HQ</property>
  <property name="meta.attr.1.stream.timecode.markup">16:49:40:04</property>
  <property name="meta.media.2.stream.type">audio</property>
  <property name="meta.media.2.codec.sample_fmt">s32</property>
  <property name="meta.media.2.codec.sample_rate">48000</property>
  <property name="meta.media.2.codec.channels">2</property>
  <property name="meta.media.2.codec.name">pcm_s24le</property>
  <property name="meta.media.2.codec.long_name">PCM signed 24-bit little-endian</property>
  <property name="meta.media.2.codec.bit_rate">2304000</property>
  <property name="meta.attr.2.stream.creation_time.markup">2018-12-10T16:49:40.000000Z</property>
  <property name="meta.attr.2.stream.language.markup">eng</property>
  <property name="meta.attr.2.stream.handler_name.markup">Apple Alias Data Handler</property>
  <property name="meta.attr.2.stream.timecode.markup">16:49:40:04</property>
  <property name="meta.attr.com.apple.proapps.manufacturer.markup">Blackmagic Design</property>
  <property name="meta.attr.com.apple.proapps.cameraName.markup">CAM1</property>
  <property name="meta.attr.com.apple.proapps.isGood.markup">0</property>
  <property name="meta.attr.com.apple.proapps.customgamma.markup">com.blackmagic-design.cinemacamera.filmlog</property>
  <property name="meta.attr.com.blackmagic-design.cinemacamera.uuid.markup">18E5E00548F94923B646613A73C01B56</property>
  <property name="meta.attr.creation_time.markup">2018-12-10T16:49:40.000000Z</property>
  <property name="meta.attr.timecode.markup">16:49:40:04</property>
  <property name="meta.media.sample_aspect_num">1</property>
  <property name="meta.media.sample_aspect_den">1</property>
  <property name="meta.media.frame_rate_num">50</property>
  <property name="meta.media.frame_rate_den">1</property>
  <property name="meta.media.colorspace">709</property>
  <property name="meta.media.color_trc">1</property>
  <property name="meta.media.width">1920</property>
  <property name="meta.media.height">1080</property>
  <property name="meta.media.top_field_first">0</property>
  <property name="meta.media.progressive">1</property>
  <property name="meta.media.1.codec.color_trc">1</property>
  <filter id="filter14">
   <property name="version">0,1</property>
   <property name="mlt_service">frei0r.colgate</property>
   <property name="kdenlive_id">frei0r.colgate</property>
   <property name="tag">frei0r.colgate</property>
   <property name="kdenlive_ix">1</property>
   <property name="kdenlive_info"/>
   <property name="Neutral Color">0x7f7f7fff</property>
   <property name="Color Temperature">0=0,533333</property>
  </filter>
  <filter id="filter15">
   <property name="version">0,3</property>
   <property name="mlt_service">frei0r.levels</property>
   <property name="kdenlive_id">frei0r.levels</property>
   <property name="tag">frei0r.levels</property>
   <property name="kdenlive_ix">2</property>
   <property name="kdenlive_info"/>
   <property name="Channel">0,3</property>
   <property name="Input black level">0=0,01</property>
   <property name="Input white level">0=0,9</property>
   <property name="Gamma">0=0,2875</property>
   <property name="Black output">0=0</property>
   <property name="White output">0=1</property>
   <property name="Show histogram">0</property>
   <property name="Histogram position">0,3</property>
  </filter>
 </producer>
 <playlist id="playlist3">
  <property name="kdenlive:track_name">Vidéo 1</property>
  <blank length="15997"/>
  <entry producer="8_playlist3" in="507" out="601"/>
  <entry producer="8_playlist3" in="602" out="633">
   <filter id="pan_zoom" in="602" out="633">
    <property name="background">colour:0x00000000</property>
    <property name="mlt_service">affine</property>
    <property name="kdenlive_id">pan_zoom</property>
    <property name="tag">affine</property>
    <property name="kdenlive_ix">1</property>
    <property name="transition.geometry">0/-162:2496x1404:100</property>
    <property name="transition.distort">0</property>
    <property name="kdenlive:sync_in_out">1</property>
    <property name="kdenlive_info"/>
   </filter>
  </entry>
  <blank length="46"/>
  <entry producer="8_playlist3" in="680" out="1031"/>
  <entry producer="8_playlist3" in="1032" out="1089">
   <filter id="filter16" in="1032" out="1089">
    <property name="background">colour:0x00000000</property>
    <property name="mlt_service">affine</property>
    <property name="kdenlive_id">pan_zoom</property>
    <property name="tag">affine</property>
    <property name="kdenlive_ix">1</property>
    <property name="transition.geometry">-153/-11:2496x1404:100</property>
    <property name="transition.distort">0</property>
    <property name="kdenlive:sync_in_out">1</property>
    <property name="kdenlive_info"/>
   </filter>
  </entry>
  <entry producer="8_playlist3" in="1090" out="1428"/>
  <blank length="30"/>
  <entry producer="8_playlist3" in="1459" out="1483"/>
  <entry producer="8_playlist3" in="1484" out="1982"/>
  <entry producer="8_playlist3" in="1968" out="2061"/>
  <entry producer="8_playlist3" in="2077" out="2080"/>
  <entry producer="8_playlist3" in="2081" out="2102"/>
  <entry producer="8_playlist3" in="2103" out="2151"/>
  <blank length="14"/>
  <entry producer="8_playlist3" in="2160" out="2182">
   <filter id="filter17" in="2160" out="2182">
    <property name="background">colour:0x00000000</property>
    <property name="mlt_service">affine</property>
    <property name="kdenlive_id">pan_zoom</property>
    <property name="tag">affine</property>
    <property name="kdenlive_ix">1</property>
    <property name="transition.geometry">0/-162:2496x1404:100</property>
    <property name="transition.distort">0</property>
    <property name="kdenlive:sync_in_out">1</property>
    <property name="kdenlive_info"/>
   </filter>
  </entry>
  <blank length="3"/>
  <entry producer="8_playlist3" in="2192" out="2258"/>
  <blank length="1998"/>
  <entry producer="8_playlist3" in="17575" out="17639"/>
  <entry producer="8_playlist3" in="17640" out="17668"/>
  <entry producer="8_playlist3" in="17669" out="17685"/>
  <blank length="7"/>
  <entry producer="8_playlist3" in="625" out="630"/>
  <entry producer="8_playlist3" in="631" out="705"/>
  <entry producer="8_playlist3" in="706" out="714"/>
  <blank length="10"/>
  <entry producer="8_playlist3" in="17793" out="18497"/>
  <blank length="29"/>
  <entry producer="8_playlist3" in="1459" out="1483"/>
  <entry producer="8_playlist3" in="1484" out="1512">
   <filter id="filter7">
    <property name="background">colour:0x00000000</property>
    <property name="mlt_service">affine</property>
    <property name="kdenlive_id">pan_zoom</property>
    <property name="tag">affine</property>
    <property name="kdenlive_ix">1</property>
    <property name="kdenlive_info"/>
    <property name="disable"/>
    <property name="transition.geometry">0/-216:2304x1296:100</property>
    <property name="transition.distort">0</property>
   </filter>
  </entry>
  <blank length="14"/>
  <entry producer="8_playlist3" in="18595" out="19315"/>
 </playlist>
 <producer title="Anonymous Submission" id="8_playlist4" in="0" out="21621">
  <property name="length">00:07:12:22</property>
  <property name="eof">pause</property>
  <property name="resource">/media/bordun/plagiat/2018-12-10_Plagiat_RespecteLaPuissancePapale/Carte_2/CAM1_2018-12-10_1649_C0003.mov</property>
  <property name="audio_index">2</property>
  <property name="video_index">1</property>
  <property name="mute_on_pause">1</property>
  <property name="mlt_service">avformat-novalidate</property>
  <property name="seekable">1</property>
  <property name="aspect_ratio">1</property>
  <property name="kdenlive:folderid">7</property>
  <property name="kdenlive:file_size">19962436561</property>
  <property name="kdenlive:file_hash">5ccc04e85e02ddf58369dec9f30fa947</property>
  <property name="global_feed">1</property>
  <property name="xml">was here</property>
  <property name="meta.media.nb_streams">3</property>
  <property name="meta.media.1.stream.type">video</property>
  <property name="meta.media.1.stream.frame_rate">50</property>
  <property name="meta.media.1.stream.sample_aspect_ratio">1</property>
  <property name="meta.media.1.codec.width">1920</property>
  <property name="meta.media.1.codec.height">1080</property>
  <property name="meta.media.1.codec.rotate">0</property>
  <property name="meta.media.1.codec.frame_rate">5000</property>
  <property name="meta.media.1.codec.pix_fmt">yuv422p10le</property>
  <property name="meta.media.1.codec.sample_aspect_ratio">0</property>
  <property name="meta.media.1.codec.colorspace">709</property>
  <property name="meta.media.1.codec.name">prores</property>
  <property name="meta.media.1.codec.long_name">ProRes</property>
  <property name="meta.media.1.codec.bit_rate">366956838</property>
  <property name="meta.attr.1.stream.creation_time.markup">2018-12-10T16:49:40.000000Z</property>
  <property name="meta.attr.1.stream.language.markup">eng</property>
  <property name="meta.attr.1.stream.handler_name.markup">Apple Alias Data Handler</property>
  <property name="meta.attr.1.stream.encoder.markup">Apple ProRes 422 HQ</property>
  <property name="meta.attr.1.stream.timecode.markup">16:49:40:04</property>
  <property name="meta.media.2.stream.type">audio</property>
  <property name="meta.media.2.codec.sample_fmt">s32</property>
  <property name="meta.media.2.codec.sample_rate">48000</property>
  <property name="meta.media.2.codec.channels">2</property>
  <property name="meta.media.2.codec.name">pcm_s24le</property>
  <property name="meta.media.2.codec.long_name">PCM signed 24-bit little-endian</property>
  <property name="meta.media.2.codec.bit_rate">2304000</property>
  <property name="meta.attr.2.stream.creation_time.markup">2018-12-10T16:49:40.000000Z</property>
  <property name="meta.attr.2.stream.language.markup">eng</property>
  <property name="meta.attr.2.stream.handler_name.markup">Apple Alias Data Handler</property>
  <property name="meta.attr.2.stream.timecode.markup">16:49:40:04</property>
  <property name="meta.attr.com.apple.proapps.manufacturer.markup">Blackmagic Design</property>
  <property name="meta.attr.com.apple.proapps.cameraName.markup">CAM1</property>
  <property name="meta.attr.com.apple.proapps.isGood.markup">0</property>
  <property name="meta.attr.com.apple.proapps.customgamma.markup">com.blackmagic-design.cinemacamera.filmlog</property>
  <property name="meta.attr.com.blackmagic-design.cinemacamera.uuid.markup">18E5E00548F94923B646613A73C01B56</property>
  <property name="meta.attr.creation_time.markup">2018-12-10T16:49:40.000000Z</property>
  <property name="meta.attr.timecode.markup">16:49:40:04</property>
  <property name="meta.media.sample_aspect_num">1</property>
  <property name="meta.media.sample_aspect_den">1</property>
  <property name="meta.media.frame_rate_num">50</property>
  <property name="meta.media.frame_rate_den">1</property>
  <property name="meta.media.colorspace">709</property>
  <property name="meta.media.color_trc">1</property>
  <property name="meta.media.width">1920</property>
  <property name="meta.media.height">1080</property>
  <property name="meta.media.top_field_first">0</property>
  <property name="meta.media.progressive">1</property>
  <property name="meta.media.1.codec.color_trc">1</property>
  <filter id="filter19">
   <property name="version">0,1</property>
   <property name="mlt_service">frei0r.colgate</property>
   <property name="kdenlive_id">frei0r.colgate</property>
   <property name="tag">frei0r.colgate</property>
   <property name="kdenlive_ix">1</property>
   <property name="kdenlive_info"/>
   <property name="Neutral Color">0x7f7f7fff</property>
   <property name="Color Temperature">0=0,533333</property>
  </filter>
  <filter id="filter20">
   <property name="version">0,3</property>
   <property name="mlt_service">frei0r.levels</property>
   <property name="kdenlive_id">frei0r.levels</property>
   <property name="tag">frei0r.levels</property>
   <property name="kdenlive_ix">2</property>
   <property name="kdenlive_info"/>
   <property name="Channel">0,3</property>
   <property name="Input black level">0=0,01</property>
   <property name="Input white level">0=0,9</property>
   <property name="Gamma">0=0,2875</property>
   <property name="Black output">0=0</property>
   <property name="White output">0=1</property>
   <property name="Show histogram">0</property>
   <property name="Histogram position">0,3</property>
  </filter>
 </producer>
 <producer title="Anonymous Submission" id="producer0" in="0" out="21621">
  <property name="length">00:07:12:22</property>
  <property name="eof">pause</property>
  <property name="resource">/media/bordun/plagiat/2018-12-10_Plagiat_RespecteLaPuissancePapale/Carte_2/CAM1_2018-12-10_1649_C0003.mov</property>
  <property name="audio_index">-1</property>
  <property name="video_index">-1</property>
  <property name="mute_on_pause">1</property>
  <property name="mlt_service">avformat-novalidate</property>
  <property name="seekable">1</property>
  <property name="aspect_ratio">1</property>
  <property name="kdenlive:folderid">7</property>
  <property name="kdenlive:file_size">19962436561</property>
  <property name="kdenlive:file_hash">5ccc04e85e02ddf58369dec9f30fa947</property>
  <property name="global_feed">1</property>
  <property name="xml">was here</property>
  <property name="kdenlive:binid">8</property>
  <filter id="filter8">
   <property name="version">0,1</property>
   <property name="mlt_service">frei0r.colgate</property>
   <property name="kdenlive_id">frei0r.colgate</property>
   <property name="tag">frei0r.colgate</property>
   <property name="kdenlive_ix">1</property>
   <property name="kdenlive_info"/>
   <property name="Neutral Color">0x7f7f7fff</property>
   <property name="Color Temperature">0=0,533333</property>
  </filter>
  <filter id="filter11">
   <property name="version">0,3</property>
   <property name="mlt_service">frei0r.levels</property>
   <property name="kdenlive_id">frei0r.levels</property>
   <property name="tag">frei0r.levels</property>
   <property name="kdenlive_ix">2</property>
   <property name="kdenlive_info"/>
   <property name="Channel">0,3</property>
   <property name="Input black level">0=0,01</property>
   <property name="Input white level">0=0,9</property>
   <property name="Gamma">0=0,2875</property>
   <property name="Black output">0=0</property>
   <property name="White output">0=1</property>
   <property name="Show histogram">0</property>
   <property name="Histogram position">0,3</property>
  </filter>
 </producer>
 <producer title="Anonymous Submission" id="producer1" in="0" out="21621">
  <property name="length">00:07:12:22</property>
  <property name="eof">pause</property>
  <property name="resource">/media/bordun/plagiat/2018-12-10_Plagiat_RespecteLaPuissancePapale/Carte_2/CAM1_2018-12-10_1649_C0003.mov</property>
  <property name="audio_index">-1</property>
  <property name="video_index">-1</property>
  <property name="mute_on_pause">1</property>
  <property name="mlt_service">avformat-novalidate</property>
  <property name="seekable">1</property>
  <property name="aspect_ratio">1</property>
  <property name="kdenlive:folderid">7</property>
  <property name="kdenlive:file_size">19962436561</property>
  <property name="kdenlive:file_hash">5ccc04e85e02ddf58369dec9f30fa947</property>
  <property name="global_feed">1</property>
  <property name="xml">was here</property>
  <property name="kdenlive:binid">8</property>
  <filter id="filter13">
   <property name="version">0,1</property>
   <property name="mlt_service">frei0r.colgate</property>
   <property name="kdenlive_id">frei0r.colgate</property>
   <property name="tag">frei0r.colgate</property>
   <property name="kdenlive_ix">1</property>
   <property name="kdenlive_info"/>
   <property name="Neutral Color">0x7f7f7fff</property>
   <property name="Color Temperature">0=0,533333</property>
  </filter>
  <filter id="filter18">
   <property name="version">0,3</property>
   <property name="mlt_service">frei0r.levels</property>
   <property name="kdenlive_id">frei0r.levels</property>
   <property name="tag">frei0r.levels</property>
   <property name="kdenlive_ix">2</property>
   <property name="kdenlive_info"/>
   <property name="Channel">0,3</property>
   <property name="Input black level">0=0,01</property>
   <property name="Input white level">0=0,9</property>
   <property name="Gamma">0=0,2875</property>
   <property name="Black output">0=0</property>
   <property name="White output">0=1</property>
   <property name="Show histogram">0</property>
   <property name="Histogram position">0,3</property>
  </filter>
 </producer>
 <playlist id="playlist4">
  <property name="kdenlive:track_name">Vidéo 2</property>
  <blank length="15997"/>
  <entry producer="8_playlist4" in="2253" out="2324"/>
  <blank length="114"/>
  <entry producer="8_playlist4" in="2439" out="2494"/>
  <blank length="115"/>
  <entry producer="8_playlist4" in="2610" out="2667"/>
  <blank length="168"/>
  <entry producer="8_playlist4" in="2838" out="2987"/>
  <blank length="2"/>
  <entry producer="8_playlist4" in="2988" out="3068">
   <filter id="filter21" in="2988" out="3068">
    <property name="background">colour:0x00000000</property>
    <property name="mlt_service">affine</property>
    <property name="kdenlive_id">pan_zoom</property>
    <property name="tag">affine</property>
    <property name="kdenlive_ix">1</property>
    <property name="transition.geometry">-96/-54:2016x1134:100</property>
    <property name="transition.distort">0</property>
    <property name="kdenlive:sync_in_out">1</property>
    <property name="kdenlive_info"/>
    <property name="disable">0</property>
   </filter>
  </entry>
  <blank length="69"/>
  <entry producer="8_playlist4" in="3138" out="3302"/>
  <blank length="187"/>
  <entry producer="8_playlist4" in="3490" out="3627"/>
  <blank length="53"/>
  <entry producer="8_playlist4" in="3681" out="3732"/>
  <blank length="202"/>
  <entry producer="8_playlist4" in="3935" out="3954"/>
  <blank length="2171"/>
  <entry producer="producer0" in="19439" out="19541">
   <filter id="filter22">
    <property name="background">colour:0x00000000</property>
    <property name="mlt_service">affine</property>
    <property name="kdenlive_id">pan_zoom</property>
    <property name="tag">affine</property>
    <property name="kdenlive_ix">1</property>
    <property name="kdenlive_info"/>
    <property name="disable"/>
    <property name="transition.geometry">0/-432:2688x1512:100</property>
    <property name="transition.distort">0</property>
   </filter>
  </entry>
  <blank length="35"/>
  <entry producer="8_playlist4" in="19582" out="19728"/>
  <blank length="124"/>
  <entry producer="8_playlist4" in="19848" out="19939"/>
  <blank length="71"/>
  <entry producer="8_playlist4" in="20011" out="20028"/>
  <blank length="47"/>
  <entry producer="8_playlist4" in="20076" out="20202">
   <filter id="filter23">
    <property name="background">colour:0x00000000</property>
    <property name="mlt_service">affine</property>
    <property name="kdenlive_id">pan_zoom</property>
    <property name="tag">affine</property>
    <property name="kdenlive_ix">1</property>
    <property name="kdenlive_info"/>
    <property name="disable"/>
    <property name="transition.geometry">0/0:2496x1404:100</property>
    <property name="transition.distort">0</property>
   </filter>
  </entry>
  <blank length="191"/>
  <entry producer="producer1" in="20432" out="20496"/>
  <blank length="75"/>
  <entry producer="8_playlist4" in="3260" out="3475">
   <filter id="filter24">
    <property name="background">colour:0x00000000</property>
    <property name="mlt_service">affine</property>
    <property name="kdenlive_id">pan_zoom</property>
    <property name="tag">affine</property>
    <property name="kdenlive_ix">1</property>
    <property name="kdenlive_info"/>
    <property name="disable"/>
    <property name="transition.geometry">-288/0:2496x1404:100</property>
    <property name="transition.distort">0</property>
   </filter>
  </entry>
  <blank length="57"/>
  <entry producer="8_playlist4" in="3478" out="3552"/>
  <blank length="27"/>
  <entry producer="8_playlist4" in="3580" out="3623"/>
 </playlist>
 <producer title="Anonymous Submission" id="25_playlist5" in="0" out="4317">
  <property name="length">00:01:26:18</property>
  <property name="eof">pause</property>
  <property name="resource">/media/bordun/plagiat/2018-12-10_Plagiat_RespecteLaPuissancePapale/Carte_4/CAM1_2018-12-10_1941_C0008.mov</property>
  <property name="audio_index">2</property>
  <property name="video_index">1</property>
  <property name="mute_on_pause">1</property>
  <property name="mlt_service">avformat-novalidate</property>
  <property name="seekable">1</property>
  <property name="aspect_ratio">1</property>
  <property name="kdenlive:folderid">7</property>
  <property name="kdenlive:file_size">3986584833</property>
  <property name="kdenlive:file_hash">090baf1e7089bd64f9705012f4444883</property>
  <property name="global_feed">1</property>
  <property name="xml">was here</property>
  <property name="meta.media.nb_streams">3</property>
  <property name="meta.media.1.stream.type">video</property>
  <property name="meta.media.1.stream.frame_rate">50</property>
  <property name="meta.media.1.stream.sample_aspect_ratio">1</property>
  <property name="meta.media.1.codec.width">1920</property>
  <property name="meta.media.1.codec.height">1080</property>
  <property name="meta.media.1.codec.rotate">0</property>
  <property name="meta.media.1.codec.frame_rate">5000</property>
  <property name="meta.media.1.codec.pix_fmt">yuv422p10le</property>
  <property name="meta.media.1.codec.sample_aspect_ratio">0</property>
  <property name="meta.media.1.codec.colorspace">709</property>
  <property name="meta.media.1.codec.name">prores</property>
  <property name="meta.media.1.codec.long_name">ProRes</property>
  <property name="meta.media.1.codec.bit_rate">366957366</property>
  <property name="meta.attr.1.stream.creation_time.markup">2018-12-10T19:41:35.000000Z</property>
  <property name="meta.attr.1.stream.language.markup">eng</property>
  <property name="meta.attr.1.stream.handler_name.markup">Apple Alias Data Handler</property>
  <property name="meta.attr.1.stream.encoder.markup">Apple ProRes 422 HQ</property>
  <property name="meta.attr.1.stream.timecode.markup">19:41:35:01</property>
  <property name="meta.media.2.stream.type">audio</property>
  <property name="meta.media.2.codec.sample_fmt">s32</property>
  <property name="meta.media.2.codec.sample_rate">48000</property>
  <property name="meta.media.2.codec.channels">2</property>
  <property name="meta.media.2.codec.name">pcm_s24le</property>
  <property name="meta.media.2.codec.long_name">PCM signed 24-bit little-endian</property>
  <property name="meta.media.2.codec.bit_rate">2304000</property>
  <property name="meta.attr.2.stream.creation_time.markup">2018-12-10T19:41:35.000000Z</property>
  <property name="meta.attr.2.stream.language.markup">eng</property>
  <property name="meta.attr.2.stream.handler_name.markup">Apple Alias Data Handler</property>
  <property name="meta.attr.2.stream.timecode.markup">19:41:35:01</property>
  <property name="meta.attr.com.apple.proapps.manufacturer.markup">Blackmagic Design</property>
  <property name="meta.attr.com.apple.proapps.cameraName.markup">CAM1</property>
  <property name="meta.attr.com.apple.proapps.isGood.markup">0</property>
  <property name="meta.attr.com.apple.proapps.customgamma.markup">com.blackmagic-design.cinemacamera.filmlog</property>
  <property name="meta.attr.com.blackmagic-design.cinemacamera.uuid.markup">18E5E00548F94923B646613A73C01B56</property>
  <property name="meta.attr.creation_time.markup">2018-12-10T19:41:35.000000Z</property>
  <property name="meta.attr.timecode.markup">19:41:35:01</property>
  <property name="meta.media.sample_aspect_num">1</property>
  <property name="meta.media.sample_aspect_den">1</property>
  <property name="meta.media.frame_rate_num">50</property>
  <property name="meta.media.frame_rate_den">1</property>
  <property name="meta.media.colorspace">709</property>
  <property name="meta.media.color_trc">1</property>
  <property name="meta.media.width">1920</property>
  <property name="meta.media.height">1080</property>
  <property name="meta.media.top_field_first">0</property>
  <property name="meta.media.progressive">1</property>
  <property name="meta.media.1.codec.color_trc">1</property>
  <filter id="filter25">
   <property name="version">0,1</property>
   <property name="mlt_service">frei0r.colgate</property>
   <property name="kdenlive_id">frei0r.colgate</property>
   <property name="tag">frei0r.colgate</property>
   <property name="kdenlive_ix">1</property>
   <property name="kdenlive_info"/>
   <property name="Neutral Color">0x7f7f7fff</property>
   <property name="Color Temperature">0=0,533333</property>
  </filter>
  <filter id="filter26">
   <property name="version">0,3</property>
   <property name="mlt_service">frei0r.levels</property>
   <property name="kdenlive_id">frei0r.levels</property>
   <property name="tag">frei0r.levels</property>
   <property name="kdenlive_ix">2</property>
   <property name="kdenlive_info"/>
   <property name="Channel">0,3</property>
   <property name="Input black level">0=0,01</property>
   <property name="Input white level">0=0,9</property>
   <property name="Gamma">0=0,25</property>
   <property name="Black output">0=0</property>
   <property name="White output">0=1</property>
   <property name="Show histogram">0</property>
   <property name="Histogram position">0,3</property>
  </filter>
 </producer>
 <playlist id="playlist5">
  <property name="kdenlive:track_name">Vidéo 3</property>
  <blank length="15984"/>
  <entry producer="25_playlist5" in="64" out="148"/>
  <blank length="50"/>
  <entry producer="25_playlist5" in="199" out="294"/>
  <entry producer="25_playlist5" in="298" out="321"/>
  <blank length="37"/>
  <entry producer="25_playlist5" in="356" out="383"/>
  <blank length="50"/>
  <entry producer="25_playlist5" in="437" out="494"/>
  <blank length="37"/>
  <entry producer="25_playlist5" in="539" out="572"/>
  <blank length="139"/>
  <entry producer="25_playlist5" in="702" out="812">
   <filter id="filter27" in="702" out="812">
    <property name="background">colour:0x00000000</property>
    <property name="mlt_service">affine</property>
    <property name="kdenlive_id">pan_zoom</property>
    <property name="tag">affine</property>
    <property name="kdenlive_ix">1</property>
    <property name="transition.geometry">0=0/0:2304x1296:100;91=0/0:2304x1296:100;110=-812/-19:3264x1836:100</property>
    <property name="transition.distort">0</property>
    <property name="kdenlive:sync_in_out">1</property>
    <property name="kdenlive_info"/>
    <property name="disable">0</property>
   </filter>
  </entry>
  <blank length="80"/>
  <entry producer="25_playlist5" in="893" out="943"/>
  <entry producer="25_playlist5" in="944" out="970"/>
  <blank length="93"/>
  <entry producer="25_playlist5" in="1064" out="1364"/>
  <blank length="87"/>
  <entry producer="25_playlist5" in="1505" out="1557"/>
  <blank length="123"/>
  <entry producer="25_playlist5" in="1628" out="1650"/>
  <blank length="22"/>
  <entry producer="25_playlist5" in="1673" out="1735"/>
  <blank length="23"/>
  <entry producer="25_playlist5" in="1759" out="1801"/>
  <blank length="2012"/>
  <entry producer="25_playlist5" in="1817" out="1894">
   <filter id="filter28">
    <property name="background">colour:0x00000000</property>
    <property name="mlt_service">affine</property>
    <property name="kdenlive_id">pan_zoom</property>
    <property name="tag">affine</property>
    <property name="kdenlive_ix">1</property>
    <property name="kdenlive_info"/>
    <property name="disable">1</property>
    <property name="transition.geometry">0=-576/0:3072x1728:100;15=-576/0:3072x1728:100;39=0/0:3072x1728:100</property>
    <property name="transition.distort">0</property>
   </filter>
  </entry>
  <blank length="29"/>
  <entry producer="25_playlist5" in="1919" out="1948"/>
  <blank length="75"/>
  <entry producer="25_playlist5" in="2029" out="2100"/>
  <entry producer="25_playlist5" in="2101" out="2176">
   <filter id="filter29" in="2101" out="2176">
    <property name="background">colour:0x00000000</property>
    <property name="mlt_service">affine</property>
    <property name="kdenlive_id">pan_zoom</property>
    <property name="tag">affine</property>
    <property name="kdenlive_info"/>
    <property name="kdenlive_ix">1</property>
    <property name="disable">0</property>
    <property name="transition.geometry">0=-531/0:2688x1512:100;11=-531/0:2688x1512:100;17=-853/0:3072x1728:100</property>
    <property name="transition.distort">0</property>
    <property name="kdenlive:sync_in_out">1</property>
   </filter>
  </entry>
  <blank length="154"/>
  <entry producer="25_playlist5" in="2331" out="2395">
   <filter id="filter30" in="2331" out="2395">
    <property name="background">colour:0x00000000</property>
    <property name="mlt_service">affine</property>
    <property name="kdenlive_id">pan_zoom</property>
    <property name="tag">affine</property>
    <property name="kdenlive_info"/>
    <property name="kdenlive_ix">1</property>
    <property name="disable">0</property>
    <property name="transition.geometry">0=0/0:1920x1080:100;5=-96/-54:2112x1188:100</property>
    <property name="transition.distort">0</property>
    <property name="kdenlive:sync_in_out">1</property>
   </filter>
  </entry>
  <blank length="99"/>
  <entry producer="25_playlist5" in="2487" out="2516"/>
  <blank length="39"/>
  <entry producer="25_playlist5" in="2564" out="2594">
   <filter id="filter31">
    <property name="background">colour:0x00000000</property>
    <property name="mlt_service">affine</property>
    <property name="kdenlive_id">pan_zoom</property>
    <property name="tag">affine</property>
    <property name="kdenlive_ix">1</property>
    <property name="kdenlive_info"/>
    <property name="disable"/>
    <property name="transition.geometry">0=0/0:1920x1080:100;217=-288/-162:2496x1404:100</property>
    <property name="transition.distort">0</property>
   </filter>
  </entry>
  <blank length="42"/>
  <entry producer="25_playlist5" in="2637" out="2781">
   <filter id="filter32" in="2637" out="2781">
    <property name="background">colour:0x00000000</property>
    <property name="mlt_service">affine</property>
    <property name="kdenlive_id">pan_zoom</property>
    <property name="tag">affine</property>
    <property name="kdenlive_info"/>
    <property name="kdenlive_ix">1</property>
    <property name="disable">0</property>
    <property name="transition.geometry">0=-38/-21:1997x1123:100;144=-230/-129:2381x1339:100</property>
    <property name="transition.distort">0</property>
    <property name="kdenlive:sync_in_out">1</property>
   </filter>
  </entry>
  <blank length="48"/>
  <entry producer="25_playlist5" in="2830" out="2982"/>
  <blank length="56"/>
  <entry producer="25_playlist5" in="3039" out="3163"/>
  <blank length="40"/>
  <entry producer="25_playlist5" in="3204" out="3332"/>
  <blank length="84"/>
  <entry producer="25_playlist5" in="3420" out="3436"/>
  <entry producer="25_playlist5" in="3437" out="3449"/>
  <blank length="20"/>
  <entry producer="25_playlist5" in="3470" out="3573"/>
  <entry producer="25_playlist5" in="3867" out="4317">
   <filter id="filter33">
    <property name="background">colour:0x00000000</property>
    <property name="mlt_service">affine</property>
    <property name="kdenlive_id">pan_zoom</property>
    <property name="tag">affine</property>
    <property name="kdenlive_ix">1</property>
    <property name="kdenlive_info"/>
    <property name="disable"/>
    <property name="transition.geometry">0=0/0:1920x1080:100;11=-46/-8:2304x1296:100</property>
    <property name="transition.distort">0</property>
   </filter>
   <filter id="fade_to_black" in="4061" out="4317">
    <property name="start">1</property>
    <property name="mlt_service">brightness</property>
    <property name="kdenlive_id">fade_to_black</property>
    <property name="tag">brightness</property>
    <property name="kdenlive_ix">2</property>
    <property name="kdenlive_info"/>
    <property name="disable"/>
    <property name="end">0</property>
   </filter>
  </entry>
 </playlist>
 <playlist id="playlist11">
  <property name="kdenlive:track_name">Video 1</property>
  <blank length="15984"/>
  <entry producer="45" in="0" out="84">
   <filter id="qtblend">
    <property name="rotate_center">1</property>
    <property name="mlt_service">qtblend</property>
    <property name="kdenlive_id">qtblend</property>
    <property name="tag">qtblend</property>
    <property name="kdenlive_ix">1</property>
    <property name="rect">0=1163 294 76 43 1;13=1163 294 76 43 1;14=1151 303 76 43 1;15=1142 309 76 43 1;16=1142 309 76 43 1;17=1143 296 76 43 1;18=1138 273 76 43 1;19=1137 246 76 43 1;20=1140 224 76 43 1;21=1124 203 76 43 1;22=1116 194 76 43 1;23=1105 189 76 43 1;24=1100 188 76 43 1;25=1101 184 76 43 1;26=1114 171 76 43 1;27=1124 156 76 43 1;28=1140 142 76 43 1;29=1153 130 76 43 1;30=1171 122 76 43 1;31=1176 120 76 43 1;32=1187 122 76 43 1;33=1199 131 76 43 1;34=1213 143 76 43 1;35=1227 152 76 43 1;36=1237 162 76 43 1;37=1236 176 76 43 1;38=1234 182 76 43 1;39=1224 192 76 43 1;40=1202 203 76 43 1;41=1181 202 76 43 1;42=1155 203 76 43 1;43=1127 203 76 43 1;44=1100 202 76 43 1;45=1082 197 76 43 1;46=1061 190 76 43 1;47=1040 184 76 43 1;48=1025 177 76 43 1;49=1011 169 76 43 1;50=998 161 76 43 1;51=990 153 76 43 1;52=978 148 76 43 1;53=969 148 76 43 1;54=959 148 76 43 1;55=946 150 76 43 1;56=947 156 76 43 1;57=948,712 173,677 76 43 1;58=943 182 76 43 1;59=938 198 76 43 1;60=931 216 76 43 1;61=923 223 76 43 1;62=910 237 76 43 1;63=897 253 76 43 1;64=889 262 76 43 1;65=878 266 76 43 1;66=863 279 76 43 1;67=857 283 76 43 1;68=852 289 76 43 1;69=849 291 76 43 1;70=857 294 76 43 1;71=862 297 76 43 1;72=871 302 76 43 1;73=891 302 76 43 1;74=904 304 76 43 1;75=920 305 76 43 1;76=928 302 76 43 1;77=944 304 76 43 1;78=949 312 76 43 1;79=949 312 76 43 1;80=959 323 76 43 1;81=965 338 76 43 1;82=973 347 76 43 1;83=980 363 76 43 1;84=990 385 76 43 1;85=1004 402 76 43 1;86=1004 419 76 43 1;87=1017 448 76 43 1;88=1025 470 76 43 1;89=1025 490 76 43 1;90=1024 511 76 43 1;91=1022 530 76 43 1;92=1019 551 76 43 1;93=1020 561 76 43 1;94=1014 571 76 43 1;95=1011 579 76 43 1;96=1007 582 76 43 1;97=999 584 76 43 1;98=996 577 76 43 1;99=993 569 76 43 1;100=991 556 76 43 1;101=998 545 76 43 1;102=1009 529 76 43 1;103=1020 506 76 43 1;104=1037 490 76 43 1;105=1059 472 76 43 1;106=1077 453 76 43 1;107=1100 436 76 43 1;108=1106 420 76 43 1;109=1119 402 76 43 1;110=1126 393 76 43 1;111=1126 380 76 43 1;112=1130 370 76 43 1;113=1134 363 76 43 1;114=1143 355 76 43 1;115=1148 346 76 43 1;116=1153 336 76 43 1;117=1156 320 76 43 1;118=1158 307 76 43 1;119=1166 286 76 43 1;120=1168 265 76 43 1;121=1173 240 76 43 1;122=1185 215 76 43 1;123=1189 195 76 43 1;124=1192 177 76 43 1;125=1195 150 76 43 1;126=1194 134 76 43 1;127=1190 117 76 43 1;128=1190 106 76 43 1;129=1185 96 76 43 1;130=1182 90 76 43 1;132=1179 90 76 43 1;133=1174 92 76 43 1;134=1166 98 76 43 1;135=1156 114 76 43 1;136=1143 124 76 43 1;137=1130 140 76 43 1;138=1119 153 76 43 1;139=1105 161 76 43 1;140=1093 166 76 43 1;141=1087 169 76 43 1;142=1075 164 76 43 1;143=1066 160 76 43 1;144=1054 155 76 43 1;145=1043 145 76 43 1;146=1032 134 76 43 1;147=1019 124 76 43 1;148=1015 111 76 43 1;149=1004 104 76 43 1;150=998 98 76 43 1;151=996 95 76 43 1;152=990 87 76 43 1;153=985 88 76 43 1;154=985 93 76 43 1;155=985 96 76 43 1;156=980 100 76 43 1;157=973 104 76 43 1;158=964 116 76 43 1;159=947 130 76 43 1;160=938 150 76 43 1;161=905 171 76 43 1;162=880 195 76 43 1;163=836 236 76 43 1;164=800 265 76 43 1;165=771 307 76 43 1;166=752 334 76 43 1;167=745 359 76 43 1;168=739 376 76 43 1;169=739 386 76 43 1;170=744 388 76 43 1;171=750 385 76 43 1;172=760 376 76 43 1;173=771 365 76 43 1;174=786 355 76 43 1;175=800 346 76 43 1;176=805 336 76 43 1;177=808 325 76 43 1;178=799 317 76 43 1;204=960 197 76 43 1;205=972 200 76 43 1;206=981 210 76 43 1;207=986 219 76 43 1;208=983 231 76 43 1;209=967 247 76 43 1;210=946 266 76 43 1;211=925 278 76 43 1;212=917 291 76 43 1;213=915 297 76 43 1;214=920 302 76 43 1;215=930 307 76 43 1;216=947 307 76 43 1;217=964 302 76 43 1;218=983 292 76 43 1;219=1001 284 76 43 1;220=1019 274 76 43 1;221=1037 262 76 43 1;222=1049 258 76 43 1;223=1061 249 76 43 1;224=1069 242 76 43 1;225=1077 229 76 43 1</property>
    <property name="rotation">0=4;13=4;14=4;15=4;16=4;17=4;18=4;19=4;20=4;21=4;22=4;23=4;24=4;25=4;26=-1;27=-10;28=-10;29=-10;30=-10;31=-10;32=-10;33=-10;34=-11;35=-11;36=-11;37=-11;38=-11;39=-11;40=-11;41=-11;42=-11;43=-6;44=1;45=1;46=1;47=1;48=1;49=1;50=1;51=1;52=1;53=1;54=-9;55=-14;56=-20;57=-11;58=-11;59=-11;60=-11;61=-11;62=-11;63=-11;64=-11;65=-11;66=-11;67=-11;68=-11;69=-11;70=-11;71=-11;72=-11;73=-11;74=-11;75=-11;76=-11;77=-11;78=-11;79=-7;80=-7;81=-7;82=-3;83=-1;84=1;85=4;86=4;87=4;88=16;89=16;90=16;91=16;92=16;93=16;94=16;95=16;96=16;97=16;98=16;99=16;100=16;101=16;102=16;103=13;104=13;105=13;106=13;107=13;108=13;109=13;110=13;111=13;112=13;113=13;114=13;115=13;116=13;117=13;118=13;119=13;120=13;121=13;122=13;123=11;124=11;125=11;126=11;127=11;128=11;129=11;130=11;132=11;133=11;134=11;135=6;136=6;137=4;138=4;139=-1;140=-1;141=-1;142=-1;143=-1;144=-1;145=-1;146=-1;147=-1;148=-1;149=-1;150=-1;151=-1;152=-1;153=-1;154=-1;155=-1;156=-1;157=-1;158=-1;159=-1;160=-1;161=-1;162=-1;163=-9;164=-11;165=-14;166=-14;167=-14;168=-14;169=-14;170=-14;171=-14;172=-14;173=-14;174=-14;175=-14;176=-14;177=-14;178=-14;204=-2;205=-2;206=-2;207=-2;208=-2;209=-2;210=-2;211=-2;212=-2;213=-2;214=-2;215=-2;216=2;217=2;218=2;219=2;220=2;221=2;222=2;223=2;224=2;225=2</property>
    <property name="compositing">0</property>
    <property name="distort">0</property>
    <property name="kdenlive_info"/>
    <property name="disable"/>
   </filter>
  </entry>
  <blank length="50"/>
  <entry producer="45" in="135" out="254">
   <filter id="filter34">
    <property name="rotate_center">1</property>
    <property name="mlt_service">qtblend</property>
    <property name="kdenlive_id">qtblend</property>
    <property name="tag">qtblend</property>
    <property name="kdenlive_ix">1</property>
    <property name="kdenlive_info"/>
    <property name="disable"/>
    <property name="rect">13=1163 294 76 43 1;14=1151 303 76 43 1;15=1142 309 76 43 1;16=1142 309 76 43 1;17=1143 296 76 43 1;18=1138 273 76 43 1;19=1137 246 76 43 1;20=1140 224 76 43 1;21=1124 203 76 43 1;22=1116 194 76 43 1;23=1105 189 76 43 1;24=1100 188 76 43 1;25=1101 184 76 43 1;26=1114 171 76 43 1;27=1124 156 76 43 1;28=1140 142 76 43 1;29=1153 130 76 43 1;30=1171 122 76 43 1;31=1176 120 76 43 1;32=1187 122 76 43 1;33=1199 131 76 43 1;34=1213 143 76 43 1;35=1227 152 76 43 1;36=1237 162 76 43 1;37=1236 176 76 43 1;38=1234 182 76 43 1;39=1224 192 76 43 1;40=1202 203 76 43 1;41=1181 202 76 43 1;42=1155 203 76 43 1;43=1127 203 76 43 1;44=1100 202 76 43 1;45=1082 197 76 43 1;46=1061 190 76 43 1;47=1040 184 76 43 1;48=1025 177 76 43 1;49=1011 169 76 43 1;50=998 161 76 43 1;51=990 153 76 43 1;52=978 148 76 43 1;53=969 148 76 43 1;54=959 148 76 43 1;55=946 150 76 43 1;56=947 156 76 43 1;57=948,712 173,677 76 43 1;58=943 182 76 43 1;59=938 198 76 43 1;60=931 216 76 43 1;61=923 223 76 43 1;62=910 237 76 43 1;63=897 253 76 43 1;64=889 262 76 43 1;65=878 266 76 43 1;66=863 279 76 43 1;67=857 283 76 43 1;68=852 289 76 43 1;69=849 291 76 43 1;70=857 294 76 43 1;71=862 297 76 43 1;72=871 302 76 43 1;73=891 302 76 43 1;74=904 304 76 43 1;75=920 305 76 43 1;76=928 302 76 43 1;77=944 304 76 43 1;78=949 312 76 43 1;79=949 312 76 43 1;80=959 323 76 43 1;81=965 338 76 43 1;82=973 347 76 43 1;83=980 363 76 43 1;84=990 385 76 43 1;85=1004 402 76 43 1;86=1004 419 76 43 1;87=1017 448 76 43 1;88=1025 470 76 43 1;89=1025 490 76 43 1;90=1024 511 76 43 1;91=1022 530 76 43 1;92=1019 551 76 43 1;93=1020 561 76 43 1;94=1014 571 76 43 1;95=1011 579 76 43 1;96=1007 582 76 43 1;97=999 584 76 43 1;98=996 577 76 43 1;99=993 569 76 43 1;100=991 556 76 43 1;101=998 545 76 43 1;102=1009 529 76 43 1;103=1020 506 76 43 1;104=1037 490 76 43 1;105=1059 472 76 43 1;106=1077 453 76 43 1;107=1100 436 76 43 1;108=1106 420 76 43 1;109=1119 402 76 43 1;110=1126 393 76 43 1;111=1126 380 76 43 1;112=1130 370 76 43 1;113=1134 363 76 43 1;114=1143 355 76 43 1;115=1148 346 76 43 1;116=1153 336 76 43 1;117=1156 320 76 43 1;118=1158 307 76 43 1;119=1166 286 76 43 1;120=1168 265 76 43 1;121=1173 240 76 43 1;122=1185 215 76 43 1;123=1189 195 76 43 1;124=1192 177 76 43 1;125=1195 150 76 43 1;126=1194 134 76 43 1;127=1190 117 76 43 1;128=1190 106 76 43 1;129=1185 96 76 43 1;130=1182 90 76 43 1;132=1179 90 76 43 1;133=1174 92 76 43 1;134=1166 98 76 43 1;135=1163 294 76 43 1;136=1143 124 76 43 1;137=1130 140 76 43 1;138=1119 153 76 43 1;139=1105 161 76 43 1;140=1093 166 76 43 1;141=1087 169 76 43 1;142=1075 164 76 43 1;143=1066 160 76 43 1;144=1054 155 76 43 1;145=1043 145 76 43 1;146=1032 134 76 43 1;147=1019 124 76 43 1;148=1015 111 76 43 1;149=1004 104 76 43 1;150=998 98 76 43 1;151=996 95 76 43 1;152=990 87 76 43 1;153=985 88 76 43 1;154=985 93 76 43 1;155=985 96 76 43 1;156=980 100 76 43 1;157=973 104 76 43 1;158=964 116 76 43 1;159=947 130 76 43 1;160=938 150 76 43 1;161=905 171 76 43 1;162=880 195 76 43 1;163=836 236 76 43 1;164=800 265 76 43 1;165=771 307 76 43 1;166=752 334 76 43 1;167=745 359 76 43 1;168=739 376 76 43 1;169=739 386 76 43 1;170=744 388 76 43 1;171=750 385 76 43 1;172=760 376 76 43 1;173=771 365 76 43 1;174=786 355 76 43 1;175=800 346 76 43 1;176=805 336 76 43 1;177=808 325 76 43 1;178=799 317 76 43 1;204=960 197 76 43 1;205=972 200 76 43 1;206=981 210 76 43 1;207=986 219 76 43 1;208=983 231 76 43 1;209=967 247 76 43 1;210=946 266 76 43 1;211=925 278 76 43 1;212=917 291 76 43 1;213=915 297 76 43 1;214=920 302 76 43 1;215=930 307 76 43 1;216=947 307 76 43 1;217=964 302 76 43 1;218=983 292 76 43 1;219=1001 284 76 43 1;220=1019 274 76 43 1;221=1037 262 76 43 1;222=1049 258 76 43 1;223=1061 249 76 43 1;224=1069 242 76 43 1;225=1077 229 76 43 1;226=1082 218 76 43 1;227=1088 205 76 43 1;228=1098 195 76 43 1;229=1105 181 76 43 1;230=1116 164 76 43 1;231=1147 124 76 43 1;232=1158 119 76 43 1;233=1164 119 76 43 1;234=1168 119 76 43 1;235=1170 119 76 43 1;236=1175 119 76 43 1;237=1177 119 76 43 1;238=1179 119 76 43 1;239=1177 119 76 43 1;240=1179 117 76 43 1;241=1179 117 76 43 1;242=1181 117 76 43 1;243=1185 115 76 43 1;244=1197 115 76 43 1;245=1210 114 76 43 1;246=1228 107 76 43 1;247=1242 105 80 45 1;248=1251 99 86 48 1;249=1262 100 87 48 1;250=1264 101 88 48 1;251=1262 104 89 48 1;252=1254 106 90 49 1;253=1246 112 91 50 1;254=1231 113 92 51 1</property>
    <property name="rotation">13=4;14=4;15=4;16=4;17=4;18=4;19=4;20=4;21=4;22=4;23=4;24=4;25=4;26=-1;27=-10;28=-10;29=-10;30=-10;31=-10;32=-10;33=-10;34=-11;35=-11;36=-11;37=-11;38=-11;39=-11;40=-11;41=-11;42=-11;43=-6;44=1;45=1;46=1;47=1;48=1;49=1;50=1;51=1;52=1;53=1;54=-9;55=-14;56=-20;57=-11;58=-11;59=-11;60=-11;61=-11;62=-11;63=-11;64=-11;65=-11;66=-11;67=-11;68=-11;69=-11;70=-11;71=-11;72=-11;73=-11;74=-11;75=-11;76=-11;77=-11;78=-11;79=-7;80=-7;81=-7;82=-3;83=-1;84=1;85=4;86=4;87=4;88=16;89=16;90=16;91=16;92=16;93=16;94=16;95=16;96=16;97=16;98=16;99=16;100=16;101=16;102=16;103=13;104=13;105=13;106=13;107=13;108=13;109=13;110=13;111=13;112=13;113=13;114=13;115=13;116=13;117=13;118=13;119=13;120=13;121=13;122=13;123=11;124=11;125=11;126=11;127=11;128=11;129=11;130=11;132=11;133=11;134=11;135=4;136=6;137=4;138=4;139=-1;140=-1;141=-1;142=-1;143=-1;144=-1;145=-1;146=-1;147=-1;148=-1;149=-1;150=-1;151=-1;152=-1;153=-1;154=-1;155=-1;156=-1;157=-1;158=-1;159=-1;160=-1;161=-1;162=-1;163=-9;164=-11;165=-14;166=-14;167=-14;168=-14;169=-14;170=-14;171=-14;172=-14;173=-14;174=-14;175=-14;176=-14;177=-14;178=-14;204=-2;205=-2;206=-2;207=-2;208=-2;209=-2;210=-2;211=-2;212=-2;213=-2;214=-2;215=-2;216=2;217=2;218=2;219=2;220=2;221=2;222=2;223=2;224=2;225=2;226=2;227=2;228=2;229=2;230=2;231=2;232=2;233=2;234=2;235=2;236=2;237=2;238=2;239=2;240=2;241=2;242=2;243=2;244=5;245=5;246=5;247=5;248=9;249=9;250=9;251=9;252=9;253=9;254=9</property>
    <property name="compositing">0</property>
    <property name="distort">0</property>
   </filter>
  </entry>
  <blank length="115"/>
  <entry producer="45" in="135" out="192">
   <filter id="filter35">
    <property name="rotate_center">1</property>
    <property name="mlt_service">qtblend</property>
    <property name="kdenlive_id">qtblend</property>
    <property name="tag">qtblend</property>
    <property name="kdenlive_ix">1</property>
    <property name="kdenlive_info"/>
    <property name="disable"/>
    <property name="rect">135=957 336 92 51 1;136=903 330 92 51 1;137=846 318 92 51 1;138=794 305 92 51 1;139=742 290 92 51 1;140=702 274 92 51 1;141=661 260 92 51 1;142=627 250 92 51 1;143=597 243 92 51 1;144=565 245 92 51 1;145=535 249 92 51 1;146=508 260 92 51 1;147=481 276 92 51 1;148=462 287 92 51 1;149=442 303 92 51 1;150=426 321 92 51 1;151=416 333 92 51 1;152=408 335 92 51 1;153=402 336 92 51 1;154=401 334 92 51 1;155=402 326 92 51 1;156=410 316 92 51 1;157=425 309 92 51 1;158=433 304 92 51 1;159=436 301 92 51 1;160=434 297 92 51 1;161=431 293 92 51 1;162=424 295 92 51 1;163=417 303 92 51 1;164=413 305 92 51 1;165=416 312 92 51 1;166=419 320 92 51 1;167=420 320 92 51 1;168=424 319 92 51 1;169=428 318 92 51 1;170=429 312 92 51 1;171=430 307 92 51 1;172=431 302 92 51 1;173=428 298 92 51 1;174=420 295 92 51 1;175=413 294 92 51 1;176=404 291 92 51 1;177=395 287 92 51 1;178=387 284 92 51 1;179=383 284 92 51 1;180=385 284 92 51 1;181=388 281 92 51 1;182=393 277 92 51 1;183=399 272 92 51 1;184=409 267 92 51 1;185=421 262 92 51 1;186=436 260 92 51 1;187=458 259 92 51 1;188=483 258 92 51 1;189=508 258 92 51 1;190=533 258 92 51 1;191=557 256 91 51 1;192=578 250 91 51 1</property>
    <property name="rotation">135=13;136=18;137=16;138=16;139=18;140=18;141=18;142=18;143=13;144=11;145=8;146=8;147=4;148=4;149=2;150=2;151=2;152=2;153=2;154=2;155=2;156=2;157=2;158=2;159=2;160=2;161=2;162=2;163=0;164=0;165=0;166=0;167=0;168=0;169=0;170=0;171=0;172=0;173=-2;174=-2;175=-2;176=-2;177=-2;178=-2;179=-2;180=-2;181=-2;182=-2;183=-2;184=-2;185=-2;186=-2;187=-2;188=-2;189=-2;190=-2;191=-3;192=-3</property>
    <property name="compositing">0</property>
    <property name="distort">0</property>
   </filter>
  </entry>
  <blank length="37"/>
  <entry producer="45" in="135" out="168">
   <filter id="filter36">
    <property name="rotate_center">1</property>
    <property name="mlt_service">qtblend</property>
    <property name="kdenlive_id">qtblend</property>
    <property name="tag">qtblend</property>
    <property name="kdenlive_ix">1</property>
    <property name="kdenlive_info"/>
    <property name="rect">135=1061 249 105 59 1;139=1084 252 105 59 1;144=1085 265 105 59 1;147=1076 292 113 63 1;151=1110 284 124 70 1;153=1107 253 137 77 0,98;158=1066 196 172 97 0,96;160=1071 185 172 97 0,96;161=1082 175 172 97 0,96;162=1092 159 172 97 0,96;163=1076 148 172 97 0,96;166=980 116 172 97 0,96;168=911 128 153 86 0,96</property>
    <property name="rotation">135=32;139=32;144=32;147=30;151=32;153=29,7143;158=24;160=24;161=24;162=13;163=13;166=13;168=13</property>
    <property name="compositing">0</property>
    <property name="distort">0</property>
    <property name="disable"/>
   </filter>
  </entry>
  <blank length="330"/>
  <entry producer="45" in="135" out="185">
   <filter id="filter37">
    <property name="rotate_center">1</property>
    <property name="mlt_service">qtblend</property>
    <property name="kdenlive_id">qtblend</property>
    <property name="tag">qtblend</property>
    <property name="kdenlive_ix">1</property>
    <property name="kdenlive_info"/>
    <property name="rect">135=-28 493 211 118 1;136=19 459 211 118 1;137=68 430 211 118 1;138=128 394 211 118 1;139=206 368 230 129 1;140=264 341 230 129 1;141=339 316 230 129 1;142=414 291 230 129 1;143=489 272 230 129 1;144=545 238 230 129 1;145=589 219 230 129 1;146=626 197 230 129 1;147=660 166 230 129 1;148=691 147 230 129 1;149=735 138 230 129 1;150=769 132 230 129 1;151=807 135 230 129 1;152=832 144 230 129 1;153=841 144 230 129 1;154=847 151 230 129 1;155=847 151 230 129 1;156=857 160 230 129 1;158=910 157 230 129 1;160=1003 179 230 129 1;162=1097 235 230 129 1;165=1190 369 230 129 1;167=1287 456 230 129 1;168=1309 478 230 129 1;169=1343 490 230 129 1;171=1368 518 230 129 1;173=1343 515 230 129 1;174=1312 512 230 129 1;176=1262 453 230 129 1;178=1221 350 230 129 1;180=1125 241 230 129 1;181=1079 188 230 129 1;183=978 88 230 129 1;184=935 51 230 129 1;185=888 13 230 129 1</property>
    <property name="rotation">135=0;136=0;137=-4;138=-5;139=-4,66667;140=-4,66667;141=-3;142=-4;143=-4;144=-4;145=-4;146=-4;147=-1;148=-1;149=-1;150=-1;151=1;152=1;153=2;154=2;155=2;156=5;158=10;160=21;162=31;165=38;167=48;168=48;169=48;171=48;173=48;174=48;176=48;178=40;180=32;181=22;183=13;184=11;185=6</property>
    <property name="compositing">0</property>
    <property name="distort">0</property>
    <property name="disable"/>
   </filter>
  </entry>
  <blank length="120"/>
  <entry producer="45" in="135" out="190">
   <filter id="filter38">
    <property name="rotate_center">1</property>
    <property name="mlt_service">qtblend</property>
    <property name="kdenlive_id">qtblend</property>
    <property name="tag">qtblend</property>
    <property name="kdenlive_ix">1</property>
    <property name="kdenlive_info"/>
    <property name="disable"/>
    <property name="rect">135=701 -51 153 86 1;137=660 -4 134 75 1;139=618 67 115 64 1;141=592 136 105 59 1;143=576 209 96 54 1;144=566 265 96 54 1;146=555 349 86 48 1;148=544 437 86 48 1;149=531 482 86 48 1;150=531 482 86 48 0;160=630 554 86 48 0;161=653 545 67 37 1;164=684 490 68 38 1;167=708 457 67 37 1;169=721 450 67 37 1;171=746 482 67 37 1;173=774 520 67 37 1;174=777 549 67 37 1;175=782 577 67 37 1;176=790 609 67 37 1;177=790 609 67 37 0;187=790 609 67 37 0;188=972 544 67 37 1;189=989 526 67 37 1</property>
    <property name="rotation">135=-5;137=-8;139=-11;141=-11;143=-11;144=-11;146=-11;148=-11;149=-11;150=-11;160=-11;161=-16;164=-16;167=-16;169=-16;171=-15;173=-14;174=-7;175=-7;176=-7;177=-7;187=-7;188=20;189=20</property>
    <property name="compositing">0</property>
    <property name="distort">0</property>
   </filter>
  </entry>
  <blank length="45"/>
  <entry producer="45" in="135" out="239">
   <filter id="filter39">
    <property name="rotate_center">1</property>
    <property name="mlt_service">qtblend</property>
    <property name="kdenlive_id">qtblend</property>
    <property name="tag">qtblend</property>
    <property name="kdenlive_ix">1</property>
    <property name="kdenlive_info"/>
    <property name="rect">135=778 443 67 37 0;140=778 443 67 37 0;141=752 356 67 37 1;144=736 345 67 37 1;146=719 363 67 37 1;148=699 412 67 37 1;151=675 506 67 37 1;153=669 596 67 37 1;154=664 630 67 37 1;155=664 630 67 37 0;167=664 630 67 37 0;168=670 454 67 37 1;170=675 420 67 37 1;172=687 410 67 37 1;175=717 431 67 37 1;177=739 454 67 37 1;179=758 490 67 37 1;181=793 534 67 38 1;182=812 548 67 38 1;184=853 586 67 38 1;185=853 586 67 38 0;192=853 586 67 38 0;193=1034,61 525,324 67 38 1;195=1074 481 67 38 1;197=1109 454 67 38 1;200=1134 454 67 38 1;203=1146 488 67 38 1;205=1168 521 67 38 1;207=1195 574 62 35 1;210=1208 611 62 35 1;212=1205 609 62 35 1;215=1204 583 62 35 1;218=1210 538 62 35 1;221=1221 500 62 35 1;224=1216 474 62 35 1;227=1201 479 57 32 1;230=1183 518 48 27 1</property>
    <property name="rotation">135=0;140=0;141=-13;144=-13;146=-9;148=-9;151=-9;153=-9;154=-14;155=-14;167=-14;168=-3;170=-3;172=4;175=4;177=4;179=4;181=4;182=1;184=1;185=1;192=1;193=17;195=16,3043;197=15,6087;200=7;203=6,53846;205=6,23077;207=35;210=35,4375;212=33,0625;215=33,0625;218=33,0625;221=45;224=45;227=45;230=45</property>
    <property name="compositing">0</property>
    <property name="distort">0</property>
    <property name="disable">0</property>
   </filter>
  </entry>
  <blank length="44"/>
  <entry producer="45" in="135" out="185">
   <filter id="filter40">
    <property name="rotate_center">1</property>
    <property name="mlt_service">qtblend</property>
    <property name="kdenlive_id">qtblend</property>
    <property name="tag">qtblend</property>
    <property name="kdenlive_ix">1</property>
    <property name="kdenlive_info"/>
    <property name="rect">135=723 480 67 37 0;151=723 480 67 37 0;152=718 375 67 37 1;155=753 351 67 37 1;159=778 377 76 43 1;162=794 418 76 43 1;163=797 445 76 43 1;165=811 464 76 43 1;166=811 464 76 43 0;173=811 464 76 43 0;174=818 441 76 43 1;176=813 434 76 43 1;177=811 437 76 43 1;180=810 467 76 43 1;182=803 501 76 43 1;184=783 520 76 43 1;185=772 525 67 37 1</property>
    <property name="rotation">135=0;151=0;152=-10;155=-2;159=3;162=3;163=3;165=3;166=3;173=3;174=14;176=14;177=14;180=14;182=14;184=19;185=19</property>
    <property name="compositing">0</property>
    <property name="distort">0</property>
   </filter>
  </entry>
  <blank length="87"/>
  <entry producer="45" in="135" out="187">
   <filter id="filter41">
    <property name="rotate_center">1</property>
    <property name="mlt_service">qtblend</property>
    <property name="kdenlive_id">qtblend</property>
    <property name="tag">qtblend</property>
    <property name="kdenlive_ix">1</property>
    <property name="kdenlive_info"/>
    <property name="rect">135=1042 608 57 32 1;137=1067 626 57 32 1;139=1100 626 57 32 1;140=1116 620 57 32 1;141=1116 620 57 32 0;148=1116 620 57 32 0;149=1200 476 57 32 1;151=1216 453 57 32 1;153=1241 449 57 32 1;156=1268 481 57 32 1;157=1266 497 57 32 1;158=1257 509 57 32 1;160=1237 542 57 32 1;162=1219 563 57 32 1;163=1219 563 57 32 0;178=1219 563 57 32 0;179=1014 420 57 32 1;181=974 415 57 32 1;182=948 411 57 32 1;184=889 413 57 32 1;186=833 420 57 32 1;187=801 424 57 32 1</property>
    <property name="rotation">135=-8;137=-6;139=-2;140=-2;141=-2;148=-2;149=16;151=16;153=16;156=16;157=16;158=16;160=16;162=27;163=27;178=27;179=27;181=19;182=17;184=9;186=8;187=6</property>
    <property name="compositing">0</property>
    <property name="distort">0</property>
   </filter>
  </entry>
  <blank length="254"/>
  <entry producer="45" in="135" out="152">
   <filter id="affinerotate">
    <property name="background">colour:0x00000000</property>
    <property name="mlt_service">affine</property>
    <property name="kdenlive_id">affinerotate</property>
    <property name="tag">affine</property>
    <property name="kdenlive_ix">1</property>
    <property name="transition.rotate_x">135=0</property>
    <property name="transition.rotate_y">135=8,4</property>
    <property name="transition.rotate_z">135=51,8</property>
    <property name="transition.ox">135=0</property>
    <property name="transition.oy">135=0</property>
    <property name="transition.keyed">1</property>
    <property name="transition.always_active">1</property>
    <property name="kdenlive_info"/>
    <property name="disable">0</property>
   </filter>
   <filter id="filter42">
    <property name="rotate_center">1</property>
    <property name="mlt_service">qtblend</property>
    <property name="kdenlive_id">qtblend</property>
    <property name="tag">qtblend</property>
    <property name="kdenlive_ix">2</property>
    <property name="kdenlive_info"/>
    <property name="disable">0</property>
    <property name="rect">135=0 0 1920 1080 0;144=0 0 1920 1080 0;145=973 292 172 97 1;147=973 235 172 98 1;149=955 211 172 98 1;151=935 217 172 98 1;152=932 228 172 98 1</property>
    <property name="rotation">135=0;144=0;145=14;147=13;149=26;151=26;152=26</property>
    <property name="compositing">0</property>
    <property name="distort">0</property>
   </filter>
  </entry>
  <blank length="2037"/>
  <entry producer="45" in="135" out="170">
   <filter id="filter43">
    <property name="rotate_center">1</property>
    <property name="mlt_service">qtblend</property>
    <property name="kdenlive_id">qtblend</property>
    <property name="tag">qtblend</property>
    <property name="kdenlive_ix">1</property>
    <property name="kdenlive_info"/>
    <property name="disable"/>
    <property name="rect">135=773 540 172 98 1;139=786 425 172 98 1;142=823 369 172 98 1;145=901 375 172 98 1;147=936 419 172 98 1;150=957 481 172 98 1;153=976 540 172 98 1;156=1038 565 172 98 1;160=1098 559 172 98 1;162=1113 565 172 98 1;166=1116 590 172 98 1;168=1104 624 172 98 1;170=1060 643 172 98 1</property>
    <property name="rotation">135=-9;139=-13;142=-13;145=-11,2;147=-10;150=-3;153=-1;156=-1;160=-1;162=-0,333333;166=4;168=1;170=1</property>
    <property name="compositing">0</property>
    <property name="distort">0</property>
   </filter>
  </entry>
  <blank length="71"/>
  <entry producer="45" in="135" out="164">
   <filter id="filter44">
    <property name="rotate_center">1</property>
    <property name="mlt_service">qtblend</property>
    <property name="kdenlive_id">qtblend</property>
    <property name="tag">qtblend</property>
    <property name="kdenlive_ix">1</property>
    <property name="kdenlive_info"/>
    <property name="disable"/>
    <property name="rect">135=749 328 172 98 1;136=761 338 172 97 1;137=777 347 172 97 1;140=833 410 172 97 1;143=945 497 172 97 1;144=998 519 172 97 1;146=1107 525 172 97 1;149=1232 519 172 97 1;150=1269 509 172 97 1;151=1300 509 172 97 1;152=1322 500 172 97 1;153=1338 488 172 97 1;155=1381 469 172 97 1;157=1391 460 172 97 1;160=1325 460 172 97 1;162=1222 475 172 97 1;163=1166 491 172 97 1;164=1113 514 172 97 1</property>
    <property name="rotation">135=0;136=0,666667;137=1,33333;140=3,33333;143=10;144=6;146=6;149=17;150=17;151=17;152=15;153=15;155=15;157=15;160=7;162=2;163=2;164=-1</property>
    <property name="compositing">0</property>
    <property name="distort">0</property>
   </filter>
  </entry>
  <blank length="99"/>
  <entry producer="45" in="135" out="234">
   <filter id="frei0r.c0rners">
    <property name="version">0,2</property>
    <property name="mlt_service">frei0r.c0rners</property>
    <property name="kdenlive_id">frei0r.c0rners</property>
    <property name="tag">frei0r.c0rners</property>
    <property name="kdenlive_ix">1</property>
    <property name="kdenlive_info">0/-1/</property>
    <property name="disable">0</property>
    <property name="Corner 1 X">135=0,333333;230=0,333333;234=0,464833</property>
    <property name="Corner 1 Y">135=0,333333;230=0,333333;234=0,4285</property>
    <property name="Corner 2 X">135=0,666667;230=0,666667;234=0,624667</property>
    <property name="Corner 2 Y">135=0,333333;230=0,333333;234=0,333333</property>
    <property name="Corner 3 X">135=0,666667;230=0,666667;234=0,614</property>
    <property name="Corner 3 Y">135=0,666667;230=0,666667;234=0,6375</property>
    <property name="Corner 4 X">135=0,333333;230=0,333333;234=0,441333</property>
    <property name="Corner 4 Y">135=0,666667;230=0,666667;234=0,666667</property>
    <property name="Stretch X">135=0,5;230=0,5;234=0,3605</property>
    <property name="Stretch Y">135=0,5;230=0,5;234=0,388</property>
    <property name="Feather Alpha">135=0,05;230=0,05;234=0</property>
    <property name="Enable Stretch">0</property>
    <property name="Interpolator">0,166</property>
    <property name="Transparent Background">1</property>
    <property name="Alpha operation">0,5</property>
   </filter>
   <filter id="filter45">
    <property name="rotate_center">1</property>
    <property name="mlt_service">qtblend</property>
    <property name="kdenlive_id">qtblend</property>
    <property name="tag">qtblend</property>
    <property name="kdenlive_ix">2</property>
    <property name="kdenlive_info"/>
    <property name="disable">0</property>
    <property name="rect">135=703 355 67 37 1;137=746 335 67 37 1;139=787 315 67 37 1;140=794 300 67 37 1;141=783 283 67 37 1;142=761 273 67 37 1;143=742 264 67 37 1;144=730 254 67 37 1;145=721 242 67 37 1;147=735 237 67 37 1;149=766 237 57 32 1;150=772 232 57 32 1;152=768 219 57 32 1;154=741 214 57 32 1;156=727 216 57 32 1;158=749 220 57 32 1;161=807 206 57 32 1;164=852 185 57 32 1;166=877 164 57 32 1;169=918 125 57 32 1;171=936 99 57 32 1;174=972 73 57 32 1;177=1016 77 57 32 1;180=1053 95 57 32 1;182=1059 109 57 32 1;183=953 225 82 46 1;184=956 225 82 46 1;185=961 226 82 46 1;188=974 210 82 46 1;190=978 204 82 46 1;193=966 200 82 46 1;194=966 200 82 46 1;197=900 227 82 46 1;199=853 251 82 46 1;201=831 269 82 46 1;203=801 281 82 46 1;206=745 305 82 46 1;208=686 322 82 46 1;210=628 320 82 46 1;212=584 304 82 46 1;214=551 289 82 46 1;217=542 266 82 46 1;219=537 245 82 46 1;222=516 235 82 46 1;224=483 236 82 46 1;227=435 269 82 46 1;229=404 308 82 46 1;231=388 356 82 46 1;234=378 360 82 46 1</property>
    <property name="rotation">135=0;137=-13;139=-17;140=-13;141=-13;142=-13;143=-13;144=-13;145=-13;147=-13;149=-13;150=-13;152=-13;154=-2;156=-2;158=-7;161=-7;164=1;166=-3;169=-3;171=-3;174=9;177=9;180=9;182=9;183=15;184=15;185=15;188=15;190=15;193=11;194=11;197=11;199=11;201=4;203=4;206=-1;208=5;210=14;212=14,3333;214=8;217=-9;219=-10;222=-4,4;224=-15;227=-23;229=-11,2857;231=-23;234=-3</property>
    <property name="compositing">0</property>
    <property name="distort">0</property>
   </filter>
  </entry>
  <blank length="178"/>
  <entry producer="45" in="135" out="199">
   <filter id="filter46">
    <property name="rotate_center">1</property>
    <property name="mlt_service">qtblend</property>
    <property name="kdenlive_id">qtblend</property>
    <property name="tag">qtblend</property>
    <property name="kdenlive_ix">1</property>
    <property name="kdenlive_info"/>
    <property name="disable"/>
    <property name="rect">135=969 140 76 43 1;136=958 145 76 43 1;138=939 154 76 43 1;141=925 179 76 43 1;145=936 231 76 43 1;148=929 260 76 43 1;153=887 272 76 43 1;156=851 247 76 43 1;161=820 183 76 43 1;166=805 171 76 43 1;171=797 145 76 43 1;174=811 153 76 43 1;178=836 186 76 43 1;180=841 179 76 43 1;183=861 148 76 43 1;187=891 103 76 43 1;191=921 96 76 43 1;195=940 108 76 43 1;197=939 110 76 43 1;199=950 112 76 43 1</property>
    <property name="rotation">135=0;136=0;138=0;141=0;145=0;148=0;153=0;156=0;161=0;166=0;171=0;174=0;178=0;180=0;183=0;187=3;191=5;195=8;197=9,5;199=11</property>
    <property name="compositing">0</property>
    <property name="distort">0</property>
   </filter>
   <filter id="rotoscoping">
    <property name="mode">alpha</property>
    <property name="alpha_operation">min</property>
    <property name="invert">0</property>
    <property name="feather">0</property>
    <property name="feather_passes">1</property>
    <property name="mlt_service">rotoscoping</property>
    <property name="kdenlive_id">rotoscoping</property>
    <property name="tag">rotoscoping</property>
    <property name="kdenlive_ix">2</property>
    <property name="kdenlive_info"/>
    <property name="disable"/>
    <property name="spline">{
    "135": [
        [
            [
                0.48226351351351293,
                0.14434434434434432
            ],
            [
                0.46875,
                0.14114114114114112
            ],
            [
                0.4703265765765766,
                0.1583583583583584
            ]
        ],
        [
            [
                0.37933558558558556,
                0.3041041041041041
            ],
            [
                0.38091216216216217,
                0.32132132132132135
            ],
            [
                0.3921734234234234,
                0.3217217217217217
            ]
        ],
        [
            [
                0.4884572072072072,
                0.36896896896896897
            ],
            [
                0.4997184684684684,
                0.36936936936936937
            ],
            [
                0.5003941441441441,
                0.3549549549549549
            ]
        ],
        [
            [
                0.572240990990991,
                0.1975975975975976
            ],
            [
                0.5729166666666666,
                0.1831831831831832
            ],
            [
                0.5594031531531533,
                0.17997997997997997
            ]
        ]
    ],
    "138": [
        [
            [
                0.48226351351351293,
                0.14434434434434432
            ],
            [
                0.46875,
                0.14114114114114112
            ],
            [
                0.4703265765765766,
                0.1583583583583584
            ]
        ],
        [
            [
                0.37933558558558556,
                0.3041041041041041
            ],
            [
                0.38091216216216217,
                0.32132132132132135
            ],
            [
                0.3921734234234234,
                0.3217217217217217
            ]
        ],
        [
            [
                0.4884572072072072,
                0.36896896896896897
            ],
            [
                0.4997184684684684,
                0.36936936936936937
            ],
            [
                0.5003941441441441,
                0.3549549549549549
            ]
        ],
        [
            [
                0.572240990990991,
                0.1975975975975976
            ],
            [
                0.5729166666666666,
                0.1831831831831832
            ],
            [
                0.5594031531531533,
                0.17997997997997997
            ]
        ]
    ],
    "139": [
        [
            [
                0.48226351351351293,
                0.14434434434434432
            ],
            [
                0.46875,
                0.14114114114114112
            ],
            [
                0.4703265765765766,
                0.1583583583583584
            ]
        ],
        [
            [
                0.37933558558558556,
                0.3041041041041041
            ],
            [
                0.38091216216216217,
                0.32132132132132135
            ],
            [
                0.3921734234234234,
                0.3217217217217217
            ]
        ],
        [
            [
                0.46818693693693697,
                0.37197197197197196
            ],
            [
                0.47944819819819817,
                0.37237237237237236
            ],
            [
                0.48012387387387384,
                0.3579579579579579
            ]
        ],
        [
            [
                0.5390202702702703,
                0.15955955955955956
            ],
            [
                0.5396959459459459,
                0.14514514514514512
            ],
            [
                0.5261824324324326,
                0.1419419419419419
            ]
        ]
    ],
    "140": [
        [
            [
                0.48226351351351293,
                0.14434434434434432
            ],
            [
                0.46875,
                0.14114114114114112
            ],
            [
                0.4703265765765766,
                0.1583583583583584
            ]
        ],
        [
            [
                0.37933558558558556,
                0.3041041041041041
            ],
            [
                0.38091216216216217,
                0.32132132132132135
            ],
            [
                0.3921734234234234,
                0.3217217217217217
            ]
        ],
        [
            [
                0.4203265765765766,
                0.33593593593593596
            ],
            [
                0.43158783783783783,
                0.3363363363363363
            ],
            [
                0.4322635135135135,
                0.32192192192192187
            ]
        ],
        [
            [
                0.5390202702702703,
                0.15955955955955956
            ],
            [
                0.5396959459459459,
                0.14514514514514512
            ],
            [
                0.5261824324324326,
                0.1419419419419419
            ]
        ]
    ],
    "141": [
        [
            [
                0.5121058558558553,
                0.16336336336336335
            ],
            [
                0.49859234234234234,
                0.16016016016016016
            ],
            [
                0.5001689189189189,
                0.17737737737737744
            ]
        ],
        [
            [
                0.43057432432432424,
                0.35115115115115114
            ],
            [
                0.43215090090090086,
                0.36836836836836834
            ],
            [
                0.4434121621621621,
                0.3687687687687687
            ]
        ],
        [
            [
                0.5239301801801802,
                0.42202202202202205
            ],
            [
                0.5351914414414414,
                0.4224224224224224
            ],
            [
                0.5358671171171171,
                0.40800800800800796
            ]
        ],
        [
            [
                0.6184121621621621,
                0.24464464464464467
            ],
            [
                0.6190878378378378,
                0.23023023023023023
            ],
            [
                0.6055743243243245,
                0.227027027027027
            ]
        ]
    ],
    "142": [
        [
            [
                0.4389076576576571,
                0.04124124124124123
            ],
            [
                0.42539414414414417,
                0.038038038038038034
            ],
            [
                0.4269707207207207,
                0.05525525525525532
            ]
        ],
        [
            [
                0.23913288288288284,
                0.5783783783783784
            ],
            [
                0.24070945945945946,
                0.5955955955955956
            ],
            [
                0.2519707207207207,
                0.595995995995996
            ]
        ],
        [
            [
                0.6140202702702703,
                0.5801801801801801
            ],
            [
                0.6252815315315314,
                0.5805805805805805
            ],
            [
                0.6259572072072072,
                0.5661661661661661
            ]
        ],
        [
            [
                0.6871058558558558,
                0.11451451451451453
            ],
            [
                0.6877815315315314,
                0.10010010010010009
            ],
            [
                0.6742680180180182,
                0.09689689689689687
            ]
        ]
    ]
}
</property>
   </filter>
  </entry>
  <blank length="99"/>
  <entry producer="45" in="135" out="164">
   <filter id="filter47">
    <property name="rotate_center">1</property>
    <property name="mlt_service">qtblend</property>
    <property name="kdenlive_id">qtblend</property>
    <property name="tag">qtblend</property>
    <property name="kdenlive_ix">1</property>
    <property name="kdenlive_info"/>
    <property name="disable">0</property>
    <property name="rect">135=1179 189 57 32 1;137=1157 214 57 32 1;138=1146 228 57 32 1;141=1120 265 57 32 1;145=1100 303 57 32 1;149=1105 290 57 32 1;153=1127 254 57 32 1;154=1128 242 57 32 1;157=1124 198 57 32 1;160=1119 136 57 32 1;164=1100 52 57 32 1</property>
    <property name="rotation">135=19;137=19;138=19;141=19;145=19;149=23;153=25;154=23;157=23;160=18;164=18</property>
    <property name="compositing">0</property>
    <property name="distort">0</property>
   </filter>
  </entry>
  <blank length="112"/>
  <entry producer="45" in="135" out="279">
   <filter id="filter48">
    <property name="rotate_center">1</property>
    <property name="mlt_service">qtblend</property>
    <property name="kdenlive_id">qtblend</property>
    <property name="tag">qtblend</property>
    <property name="kdenlive_ix">1</property>
    <property name="kdenlive_info"/>
    <property name="disable">0</property>
    <property name="rect">135=949 209 57 32 1;137=928 213 57 32 1;140=888 224 57 32 1;144=876 237 57 32 1;147=852 258 57 32 1;149=837 272 57 32 1;152=849 292 57 32 1;155=876 304 57 32 1;156=887 312 57 32 1;158=892 328 57 32 1;160=885 338 57 32 1;162=879 340 57 32 1;165=873 331 57 32 1;171=863 302 57 32 1;176=822 269 57 32 1;178=805 267 57 32 1;181=791 259 57 32 1;184=744 248 57 32 1;187=706 239 57 32 1;190=697 224 57 32 1;193=677 207 57 32 1;194=660 205 57 32 1;196=629 210 57 32 1;200=586 252 57 32 1;202=577 266 57 32 1;203=578 269 57 32 1;205=592 267 57 32 1;207=622 268 57 32 1;209=657 276 57 32 1;211=678 281 57 32 1;214=694 294 57 32 1;216=684 298 57 32 1;220=664 304 57 32 1;224=618 306 67 37 1;228=592 297 67 37 1;233=618 269 67 37 1;237=671 251 67 37 1;240=700 219 67 38 1;242=707 193 67 38 1;245=751 167 67 38 1;247=784 156 67 38 1;248=808 157 67 38 1;250=837 158 67 38 1;252=874 165 67 38 1;253=894 168 67 38 1;255=944 169 76 43 1;257=991 172 76 43 1;258=998 177 76 43 1;262=978 232 76 43 1;265=971 276 76 43 1;266=978 296 76 43 1;270=1017 331 76 43 1;273=1034 367 76 43 1;275=1041 380 76 43 1;278=1033 385 76 43 1;279=1024 381 76 43 1</property>
    <property name="rotation">135=0;137=-1;140=-1;144=-1;147=-1;149=-1;152=-1;155=12;156=17,3333;158=28;160=30;162=32;165=32;171=32;176=18;178=9;181=9;184=4;187=4;190=4;193=4;194=-5;196=-5;200=-5;202=-5;203=-5;205=-5;207=-5;209=-3;211=-1;214=-1;216=-1;220=-1;224=-4;228=-4;233=0;237=4;240=11;242=11;245=11;247=16;248=16;250=16;252=16;253=16;255=23;257=30,3333;258=34;262=34;265=34;266=34;270=23;273=28;275=26;278=23;279=22</property>
    <property name="compositing">0</property>
    <property name="distort">0</property>
   </filter>
  </entry>
  <blank length="48"/>
  <entry producer="45" in="135" out="161">
   <filter id="filter49">
    <property name="rotate_center">1</property>
    <property name="mlt_service">qtblend</property>
    <property name="kdenlive_id">qtblend</property>
    <property name="tag">qtblend</property>
    <property name="kdenlive_ix">1</property>
    <property name="kdenlive_info"/>
    <property name="disable"/>
    <property name="rect">135=454 564 96 54 1;137=482 587 96 54 1;141=540 508 96 54 1;146=585 338 96 54 1;148=614 274 102 57 1;149=648 255 105 59 1;150=684 240 105 59 1;152=755 217 115 64 1;155=847 231 124 70 1;157=907 256 124 70 1;160=987 332 134 75 1;161=1013 379 134 75 1</property>
    <property name="rotation">135=-33;137=-29,5455;141=-31;146=-14;148=-23;149=-18;150=-18;152=-12;155=-3;157=-3;160=6;161=14</property>
    <property name="compositing">0</property>
    <property name="distort">0</property>
   </filter>
  </entry>
  <blank length="268"/>
  <entry producer="45" in="135" out="173">
   <filter id="filter50">
    <property name="rotate_center">1</property>
    <property name="mlt_service">qtblend</property>
    <property name="kdenlive_id">qtblend</property>
    <property name="tag">qtblend</property>
    <property name="kdenlive_ix">1</property>
    <property name="kdenlive_info"/>
    <property name="disable">0</property>
    <property name="rect">135=560 156 192 108 1;137=539 158 192 108 1;140=536 145 192 108 1;143=560 106 192 108 1;146=665 56 192 108 1;149=824 38 192 108 1;153=963 75 192 108 1;155=1018 114 192 108 1;158=1091 171 192 108 1;160=1148 195 192 108 1;162=1203 221 192 108 1;164=1203 221 192 108 1;167=1154 211 192 108 1;170=1109 164 192 108 1;172=1086 122 192 108 1;173=1078 101 192 108 1</property>
    <property name="rotation">135=21;137=21;140=21;143=17;146=13;149=9;153=4;155=4;158=4;160=10;162=10;164=10;167=10;170=10;172=10;173=9</property>
    <property name="compositing">0</property>
    <property name="distort">0</property>
   </filter>
  </entry>
  <blank length="40"/>
  <entry producer="45" in="214" out="279">
   <filter id="filter51">
    <property name="rotate_center">1</property>
    <property name="mlt_service">qtblend</property>
    <property name="kdenlive_id">qtblend</property>
    <property name="tag">qtblend</property>
    <property name="kdenlive_ix">1</property>
    <property name="kdenlive_info"/>
    <property name="disable">0</property>
    <property name="rect">214=685 156 192 108 1;219=651 187 192 108 1;222=631 148 192 108 1;225=628 109 192 108 1;229=636 124 192 108 1;233=604 205 192 108 1;238=607 321 192 108 1;240=654 355 192 108 1;243=759 357 192 108 1;245=824 323 192 108 1;246=858 307 192 108 1;247=910 279 192 108 1;249=999 247 192 108 1;252=1135 200 192 108 1;255=1287 195 192 108 1;258=1413 203 192 108 1;261=1499 242 192 108 1;263=1559 270 153 86 1;264=1559 270 153 86 0</property>
    <property name="rotation">214=10;219=10;222=10;225=8;229=8;233=8;238=8;240=8;243=8;245=8;246=8;247=8;249=11;252=16;255=16;258=16;261=28;263=28;264=28</property>
    <property name="compositing">0</property>
    <property name="distort">0</property>
   </filter>
  </entry>
  <blank length="147"/>
  <entry producer="45" in="214" out="243">
   <filter id="filter52">
    <property name="rotate_center">1</property>
    <property name="mlt_service">qtblend</property>
    <property name="kdenlive_id">qtblend</property>
    <property name="tag">qtblend</property>
    <property name="kdenlive_ix">1</property>
    <property name="kdenlive_info"/>
    <property name="disable"/>
    <property name="rect">214=852 140 172 97 1;216=913 138 172 97 1;220=983 132 172 97 1;224=1077 98 172 97 1;227=1156 59 172 97 1;230=1156 28 172 97 1;231=1156 28 172 97 1;234=1088 25 172 97 1;238=986 49 172 97 1;241=868 119 172 97 1;243=777 164 172 97 1</property>
    <property name="rotation">214=-2;216=2;220=5;224=5;227=5;230=5;231=5;234=13;238=11;241=8;243=4</property>
    <property name="compositing">0</property>
    <property name="distort">0</property>
   </filter>
  </entry>
  <blank length="20"/>
  <entry producer="45" in="214" out="250">
   <filter id="filter53">
    <property name="rotate_center">1</property>
    <property name="mlt_service">qtblend</property>
    <property name="kdenlive_id">qtblend</property>
    <property name="tag">qtblend</property>
    <property name="kdenlive_ix">1</property>
    <property name="kdenlive_info"/>
    <property name="disable">0</property>
    <property name="rect">214=688 91 172 97 1;215=688 91 172 97 1;217=677 117 172 97 1;221=664 211 172 97 1;223=651 245 172 97 1;226=690 300 172 97 1;229=753 337 172 97 1;232=860 386 172 97 1;234=952 412 172 97 1;237=1051 457 172 97 1;240=1169 483 172 97 1;243=1323 501 172 97 1;246=1417 522 172 97 1;250=1504 512 172 97 1</property>
    <property name="rotation">214=0;215=0;217=0;221=0;223=0;226=0;229=9;232=4;234=4;237=9;240=12;243=12;246=8;250=8</property>
    <property name="compositing">0</property>
    <property name="distort">0</property>
   </filter>
  </entry>
  <filter id="lines">
   <property name="line_width">9</property>
   <property name="num">100</property>
   <property name="darker">0</property>
   <property name="lighter">100</property>
   <property name="mlt_service">lines</property>
   <property name="kdenlive_id">lines</property>
   <property name="tag">lines</property>
   <property name="kdenlive_ix">1</property>
   <property name="kdenlive_info">0/-1/</property>
   <property name="line4">787</property>
   <property name="typeline4">1</property>
   <property name="line3">1290</property>
   <property name="typeline3">1</property>
   <property name="line2">1881</property>
   <property name="typeline2">3</property>
   <property name="line1">650</property>
   <property name="typeline1">2</property>
   <property name="line0">645</property>
   <property name="typeline0">1</property>
   <property name="last_oldfilm_line_pos">76,375</property>
   <property name="line99">538</property>
   <property name="typeline99">1</property>
   <property name="line98">169</property>
   <property name="typeline98">2</property>
   <property name="line97">1277</property>
   <property name="typeline97">2</property>
   <property name="line96">795</property>
   <property name="typeline96">3</property>
   <property name="line95">1716</property>
   <property name="typeline95">3</property>
   <property name="line94">1684</property>
   <property name="typeline94">1</property>
   <property name="line93">-639</property>
   <property name="typeline93">2</property>
   <property name="line92">2617</property>
   <property name="typeline92">2</property>
   <property name="line91">1147</property>
   <property name="typeline91">1</property>
   <property name="line90">579</property>
   <property name="typeline90">3</property>
   <property name="line89">2626</property>
   <property name="typeline89">1</property>
   <property name="line88">1521</property>
   <property name="typeline88">1</property>
   <property name="line87">763</property>
   <property name="typeline87">3</property>
   <property name="line86">287</property>
   <property name="typeline86">1</property>
   <property name="line85">970</property>
   <property name="typeline85">2</property>
   <property name="line84">1950</property>
   <property name="typeline84">2</property>
   <property name="line83">1198</property>
   <property name="typeline83">1</property>
   <property name="line82">324</property>
   <property name="typeline82">3</property>
   <property name="line81">1800</property>
   <property name="typeline81">3</property>
   <property name="line80">426</property>
   <property name="typeline80">3</property>
   <property name="line79">1314</property>
   <property name="typeline79">2</property>
   <property name="line78">1408</property>
   <property name="typeline78">1</property>
   <property name="line77">707</property>
   <property name="typeline77">1</property>
   <property name="line76">251</property>
   <property name="typeline76">1</property>
   <property name="line75">1498</property>
   <property name="typeline75">2</property>
   <property name="line74">813</property>
   <property name="typeline74">1</property>
   <property name="line73">2013</property>
   <property name="typeline73">2</property>
   <property name="line72">1428</property>
   <property name="typeline72">1</property>
   <property name="line71">2280</property>
   <property name="typeline71">1</property>
   <property name="line70">948</property>
   <property name="typeline70">1</property>
   <property name="line69">1332</property>
   <property name="typeline69">1</property>
   <property name="line68">128</property>
   <property name="typeline68">1</property>
   <property name="line67">343</property>
   <property name="typeline67">3</property>
   <property name="line66">1838</property>
   <property name="typeline66">3</property>
   <property name="line65">1387</property>
   <property name="typeline65">1</property>
   <property name="line64">336</property>
   <property name="typeline64">1</property>
   <property name="line63">1804</property>
   <property name="typeline63">3</property>
   <property name="line62">96</property>
   <property name="typeline62">1</property>
   <property name="line61">806</property>
   <property name="typeline61">2</property>
   <property name="line60">1815</property>
   <property name="typeline60">3</property>
   <property name="line59">870</property>
   <property name="typeline59">3</property>
   <property name="line58">1650</property>
   <property name="typeline58">3</property>
   <property name="line57">2340</property>
   <property name="typeline57">3</property>
   <property name="line56">1416</property>
   <property name="typeline56">1</property>
   <property name="line55">293</property>
   <property name="typeline55">2</property>
   <property name="line54">2748</property>
   <property name="typeline54">3</property>
   <property name="line53">1898</property>
   <property name="typeline53">1</property>
   <property name="line52">222</property>
   <property name="typeline52">3</property>
   <property name="line51">2141</property>
   <property name="typeline51">2</property>
   <property name="line50">1381</property>
   <property name="typeline50">3</property>
   <property name="line49">1534</property>
   <property name="typeline49">1</property>
   <property name="line48">975</property>
   <property name="typeline48">2</property>
   <property name="line47">2213</property>
   <property name="typeline47">2</property>
   <property name="line46">1056</property>
   <property name="typeline46">2</property>
   <property name="line45">333</property>
   <property name="typeline45">1</property>
   <property name="line44">1887</property>
   <property name="typeline44">1</property>
   <property name="line43">1919</property>
   <property name="typeline43">1</property>
   <property name="line42">1661</property>
   <property name="typeline42">1</property>
   <property name="line41">615</property>
   <property name="typeline41">1</property>
   <property name="line40">1195</property>
   <property name="typeline40">3</property>
   <property name="line39">1457</property>
   <property name="typeline39">2</property>
   <property name="line38">-440</property>
   <property name="typeline38">3</property>
   <property name="line37">1342</property>
   <property name="typeline37">2</property>
   <property name="line36">1670</property>
   <property name="typeline36">1</property>
   <property name="line35">1317</property>
   <property name="typeline35">2</property>
   <property name="line34">1233</property>
   <property name="typeline34">2</property>
   <property name="line33">513</property>
   <property name="typeline33">3</property>
   <property name="line32">1343</property>
   <property name="typeline32">2</property>
   <property name="line31">1098</property>
   <property name="typeline31">2</property>
   <property name="line30">210</property>
   <property name="typeline30">2</property>
   <property name="line29">1632</property>
   <property name="typeline29">2</property>
   <property name="line28">2252</property>
   <property name="typeline28">1</property>
   <property name="line27">3994</property>
   <property name="typeline27">2</property>
   <property name="line26">417</property>
   <property name="typeline26">1</property>
   <property name="line25">1539</property>
   <property name="typeline25">2</property>
   <property name="line24">2710</property>
   <property name="typeline24">3</property>
   <property name="line23">279</property>
   <property name="typeline23">3</property>
   <property name="line22">1609</property>
   <property name="typeline22">2</property>
   <property name="line21">604</property>
   <property name="typeline21">2</property>
   <property name="line20">794</property>
   <property name="typeline20">1</property>
   <property name="line19">1544</property>
   <property name="typeline19">2</property>
   <property name="line18">999</property>
   <property name="typeline18">2</property>
   <property name="line17">1236</property>
   <property name="typeline17">2</property>
   <property name="line16">2116</property>
   <property name="typeline16">1</property>
   <property name="line15">66</property>
   <property name="typeline15">3</property>
   <property name="line14">1079</property>
   <property name="typeline14">2</property>
   <property name="line13">1797</property>
   <property name="typeline13">2</property>
   <property name="line12">443</property>
   <property name="typeline12">3</property>
   <property name="line11">1262</property>
   <property name="typeline11">1</property>
   <property name="line10">572</property>
   <property name="typeline10">1</property>
   <property name="line9">1670</property>
   <property name="typeline9">1</property>
   <property name="line8">1016</property>
   <property name="typeline8">1</property>
   <property name="line7">2260</property>
   <property name="typeline7">1</property>
   <property name="line6">995</property>
   <property name="typeline6">1</property>
   <property name="line5">926</property>
   <property name="typeline5">1</property>
   <property name="disable">0</property>
  </filter>
 </playlist>
 <producer title="Anonymous Submission" id="43_playlist0" in="0" out="3049">
  <property name="length">00:01:01:00</property>
  <property name="eof">pause</property>
  <property name="resource">/media/bordun/plagiat2/2019-05-01_Plagiat_RespecteLaPuissancePapale_Lavare/CAM1_2019-01-05_0605_C0005.mov</property>
  <property name="audio_index">2</property>
  <property name="video_index">1</property>
  <property name="mute_on_pause">1</property>
  <property name="mlt_service">avformat-novalidate</property>
  <property name="seekable">1</property>
  <property name="aspect_ratio">1</property>
  <property name="kdenlive:folderid">17</property>
  <property name="kdenlive:file_size">2815906853</property>
  <property name="kdenlive:file_hash">23a7c272941f6ead8c4c67cee7e89762</property>
  <property name="global_feed">1</property>
  <property name="xml">was here</property>
  <property name="meta.media.nb_streams">3</property>
  <property name="meta.media.1.stream.type">video</property>
  <property name="meta.media.1.stream.frame_rate">50</property>
  <property name="meta.media.1.stream.sample_aspect_ratio">1</property>
  <property name="meta.media.1.codec.width">1920</property>
  <property name="meta.media.1.codec.height">1080</property>
  <property name="meta.media.1.codec.rotate">0</property>
  <property name="meta.media.1.codec.frame_rate">5000</property>
  <property name="meta.media.1.codec.pix_fmt">yuv422p10le</property>
  <property name="meta.media.1.codec.sample_aspect_ratio">0</property>
  <property name="meta.media.1.codec.colorspace">709</property>
  <property name="meta.media.1.codec.color_trc">1</property>
  <property name="meta.media.1.codec.name">prores</property>
  <property name="meta.media.1.codec.long_name">ProRes</property>
  <property name="meta.media.1.codec.bit_rate">366958797</property>
  <property name="meta.attr.1.stream.creation_time.markup">2019-01-05T06:05:50.000000Z</property>
  <property name="meta.attr.1.stream.language.markup">eng</property>
  <property name="meta.attr.1.stream.handler_name.markup">Apple Alias Data Handler</property>
  <property name="meta.attr.1.stream.encoder.markup">Apple ProRes 422 HQ</property>
  <property name="meta.attr.1.stream.timecode.markup">06:05:50:13</property>
  <property name="meta.media.2.stream.type">audio</property>
  <property name="meta.media.2.codec.sample_fmt">s32</property>
  <property name="meta.media.2.codec.sample_rate">48000</property>
  <property name="meta.media.2.codec.channels">2</property>
  <property name="meta.media.2.codec.name">pcm_s24le</property>
  <property name="meta.media.2.codec.long_name">PCM signed 24-bit little-endian</property>
  <property name="meta.media.2.codec.bit_rate">2304000</property>
  <property name="meta.attr.2.stream.creation_time.markup">2019-01-05T06:05:50.000000Z</property>
  <property name="meta.attr.2.stream.language.markup">eng</property>
  <property name="meta.attr.2.stream.handler_name.markup">Apple Alias Data Handler</property>
  <property name="meta.attr.2.stream.timecode.markup">06:05:50:13</property>
  <property name="meta.attr.com.apple.proapps.manufacturer.markup">Blackmagic Design</property>
  <property name="meta.attr.com.apple.proapps.cameraName.markup">CAM1</property>
  <property name="meta.attr.com.apple.proapps.isGood.markup">0</property>
  <property name="meta.attr.com.apple.proapps.customgamma.markup">com.blackmagic-design.cinemacamera.filmlog</property>
  <property name="meta.attr.com.blackmagic-design.cinemacamera.uuid.markup">18E5E00548F94923B646613A73C01B56</property>
  <property name="meta.attr.creation_time.markup">2019-01-05T06:05:50.000000Z</property>
  <property name="meta.attr.timecode.markup">06:05:50:13</property>
  <property name="meta.media.sample_aspect_num">1</property>
  <property name="meta.media.sample_aspect_den">1</property>
  <property name="meta.media.frame_rate_num">50</property>
  <property name="meta.media.frame_rate_den">1</property>
  <property name="meta.media.colorspace">709</property>
  <property name="meta.media.color_trc">1</property>
  <property name="meta.media.width">1920</property>
  <property name="meta.media.height">1080</property>
  <property name="meta.media.top_field_first">0</property>
  <property name="meta.media.progressive">1</property>
  <filter id="filter54">
   <property name="version">0,3</property>
   <property name="mlt_service">frei0r.levels</property>
   <property name="kdenlive_id">frei0r.levels</property>
   <property name="tag">frei0r.levels</property>
   <property name="kdenlive_ix">1</property>
   <property name="kdenlive_info"/>
   <property name="Channel">0,3</property>
   <property name="Input black level">0=0,052</property>
   <property name="Input white level">0=1</property>
   <property name="Gamma">0=0,25</property>
   <property name="Black output">0=0</property>
   <property name="White output">0=0,95</property>
   <property name="Show histogram">0</property>
   <property name="Histogram position">0,3</property>
   <property name="disable">0</property>
  </filter>
 </producer>
 <producer title="Anonymous Submission" id="25_playlist0" in="0" out="4317">
  <property name="length">00:01:26:18</property>
  <property name="eof">pause</property>
  <property name="resource">/media/bordun/plagiat/2018-12-10_Plagiat_RespecteLaPuissancePapale/Carte_4/CAM1_2018-12-10_1941_C0008.mov</property>
  <property name="audio_index">2</property>
  <property name="video_index">1</property>
  <property name="mute_on_pause">1</property>
  <property name="mlt_service">avformat-novalidate</property>
  <property name="seekable">1</property>
  <property name="aspect_ratio">1</property>
  <property name="kdenlive:folderid">7</property>
  <property name="kdenlive:file_size">3986584833</property>
  <property name="kdenlive:file_hash">090baf1e7089bd64f9705012f4444883</property>
  <property name="global_feed">1</property>
  <property name="kdenlive:zone_in">2564</property>
  <property name="kdenlive:zone_out">2595</property>
  <property name="xml">was here</property>
  <property name="meta.media.nb_streams">3</property>
  <property name="meta.media.1.stream.type">video</property>
  <property name="meta.media.1.stream.frame_rate">50</property>
  <property name="meta.media.1.stream.sample_aspect_ratio">1</property>
  <property name="meta.media.1.codec.width">1920</property>
  <property name="meta.media.1.codec.height">1080</property>
  <property name="meta.media.1.codec.rotate">0</property>
  <property name="meta.media.1.codec.frame_rate">5000</property>
  <property name="meta.media.1.codec.pix_fmt">yuv422p10le</property>
  <property name="meta.media.1.codec.sample_aspect_ratio">0</property>
  <property name="meta.media.1.codec.colorspace">709</property>
  <property name="meta.media.1.codec.color_trc">1</property>
  <property name="meta.media.1.codec.name">prores</property>
  <property name="meta.media.1.codec.long_name">ProRes</property>
  <property name="meta.media.1.codec.bit_rate">366957366</property>
  <property name="meta.attr.1.stream.creation_time.markup">2018-12-10T19:41:35.000000Z</property>
  <property name="meta.attr.1.stream.language.markup">eng</property>
  <property name="meta.attr.1.stream.handler_name.markup">Apple Alias Data Handler</property>
  <property name="meta.attr.1.stream.encoder.markup">Apple ProRes 422 HQ</property>
  <property name="meta.attr.1.stream.timecode.markup">19:41:35:01</property>
  <property name="meta.media.2.stream.type">audio</property>
  <property name="meta.media.2.codec.sample_fmt">s32</property>
  <property name="meta.media.2.codec.sample_rate">48000</property>
  <property name="meta.media.2.codec.channels">2</property>
  <property name="meta.media.2.codec.name">pcm_s24le</property>
  <property name="meta.media.2.codec.long_name">PCM signed 24-bit little-endian</property>
  <property name="meta.media.2.codec.bit_rate">2304000</property>
  <property name="meta.attr.2.stream.creation_time.markup">2018-12-10T19:41:35.000000Z</property>
  <property name="meta.attr.2.stream.language.markup">eng</property>
  <property name="meta.attr.2.stream.handler_name.markup">Apple Alias Data Handler</property>
  <property name="meta.attr.2.stream.timecode.markup">19:41:35:01</property>
  <property name="meta.attr.com.apple.proapps.manufacturer.markup">Blackmagic Design</property>
  <property name="meta.attr.com.apple.proapps.cameraName.markup">CAM1</property>
  <property name="meta.attr.com.apple.proapps.isGood.markup">0</property>
  <property name="meta.attr.com.apple.proapps.customgamma.markup">com.blackmagic-design.cinemacamera.filmlog</property>
  <property name="meta.attr.com.blackmagic-design.cinemacamera.uuid.markup">18E5E00548F94923B646613A73C01B56</property>
  <property name="meta.attr.creation_time.markup">2018-12-10T19:41:35.000000Z</property>
  <property name="meta.attr.timecode.markup">19:41:35:01</property>
  <property name="meta.media.sample_aspect_num">1</property>
  <property name="meta.media.sample_aspect_den">1</property>
  <property name="meta.media.frame_rate_num">50</property>
  <property name="meta.media.frame_rate_den">1</property>
  <property name="meta.media.colorspace">709</property>
  <property name="meta.media.color_trc">1</property>
  <property name="meta.media.width">1920</property>
  <property name="meta.media.height">1080</property>
  <property name="meta.media.top_field_first">0</property>
  <property name="meta.media.progressive">1</property>
  <filter id="filter55">
   <property name="version">0,1</property>
   <property name="mlt_service">frei0r.colgate</property>
   <property name="kdenlive_id">frei0r.colgate</property>
   <property name="tag">frei0r.colgate</property>
   <property name="kdenlive_ix">1</property>
   <property name="kdenlive_info"/>
   <property name="Neutral Color">0x7f7f7fff</property>
   <property name="Color Temperature">0=0,533333</property>
  </filter>
  <filter id="filter56">
   <property name="version">0,3</property>
   <property name="mlt_service">frei0r.levels</property>
   <property name="kdenlive_id">frei0r.levels</property>
   <property name="tag">frei0r.levels</property>
   <property name="kdenlive_ix">2</property>
   <property name="kdenlive_info"/>
   <property name="Channel">0,3</property>
   <property name="Input black level">0=0,01</property>
   <property name="Input white level">0=0,9</property>
   <property name="Gamma">0=0,25</property>
   <property name="Black output">0=0</property>
   <property name="White output">0=1</property>
   <property name="Show histogram">0</property>
   <property name="Histogram position">0,3</property>
  </filter>
 </producer>
 <producer title="Anonymous Submission" id="22_playlist0" in="0" out="2303">
  <property name="length">00:00:46:04</property>
  <property name="eof">pause</property>
  <property name="resource">/media/bordun/plagiat/2018-12-10_Plagiat_RespecteLaPuissancePapale/Carte_4/CAM1_2018-12-10_1921_C0005.mov</property>
  <property name="audio_index">2</property>
  <property name="video_index">1</property>
  <property name="mute_on_pause">1</property>
  <property name="mlt_service">avformat-novalidate</property>
  <property name="seekable">1</property>
  <property name="aspect_ratio">1</property>
  <property name="kdenlive:folderid">13</property>
  <property name="kdenlive:file_size">2127176129</property>
  <property name="kdenlive:file_hash">498399b1185fccb66f9150f51f3e9c22</property>
  <property name="global_feed">1</property>
  <property name="kdenlive:zone_in">102</property>
  <property name="kdenlive:zone_out">174</property>
  <property name="xml">was here</property>
  <property name="meta.media.nb_streams">3</property>
  <property name="meta.media.1.stream.type">video</property>
  <property name="meta.media.1.stream.frame_rate">50</property>
  <property name="meta.media.1.stream.sample_aspect_ratio">1</property>
  <property name="meta.media.1.codec.width">1920</property>
  <property name="meta.media.1.codec.height">1080</property>
  <property name="meta.media.1.codec.rotate">0</property>
  <property name="meta.media.1.codec.frame_rate">5000</property>
  <property name="meta.media.1.codec.pix_fmt">yuv422p10le</property>
  <property name="meta.media.1.codec.sample_aspect_ratio">0</property>
  <property name="meta.media.1.codec.colorspace">709</property>
  <property name="meta.media.1.codec.color_trc">1</property>
  <property name="meta.media.1.codec.name">prores</property>
  <property name="meta.media.1.codec.long_name">ProRes</property>
  <property name="meta.media.1.codec.bit_rate">366955247</property>
  <property name="meta.attr.1.stream.creation_time.markup">2018-12-10T19:21:23.000000Z</property>
  <property name="meta.attr.1.stream.language.markup">eng</property>
  <property name="meta.attr.1.stream.handler_name.markup">Apple Alias Data Handler</property>
  <property name="meta.attr.1.stream.encoder.markup">Apple ProRes 422 HQ</property>
  <property name="meta.attr.1.stream.timecode.markup">19:21:23:42</property>
  <property name="meta.media.2.stream.type">audio</property>
  <property name="meta.media.2.codec.sample_fmt">s32</property>
  <property name="meta.media.2.codec.sample_rate">48000</property>
  <property name="meta.media.2.codec.channels">2</property>
  <property name="meta.media.2.codec.name">pcm_s24le</property>
  <property name="meta.media.2.codec.long_name">PCM signed 24-bit little-endian</property>
  <property name="meta.media.2.codec.bit_rate">2304000</property>
  <property name="meta.attr.2.stream.creation_time.markup">2018-12-10T19:21:23.000000Z</property>
  <property name="meta.attr.2.stream.language.markup">eng</property>
  <property name="meta.attr.2.stream.handler_name.markup">Apple Alias Data Handler</property>
  <property name="meta.attr.2.stream.timecode.markup">19:21:23:42</property>
  <property name="meta.attr.com.apple.proapps.manufacturer.markup">Blackmagic Design</property>
  <property name="meta.attr.com.apple.proapps.cameraName.markup">CAM1</property>
  <property name="meta.attr.com.apple.proapps.isGood.markup">0</property>
  <property name="meta.attr.com.apple.proapps.customgamma.markup">com.blackmagic-design.cinemacamera.filmlog</property>
  <property name="meta.attr.com.blackmagic-design.cinemacamera.uuid.markup">18E5E00548F94923B646613A73C01B56</property>
  <property name="meta.attr.creation_time.markup">2018-12-10T19:21:23.000000Z</property>
  <property name="meta.attr.timecode.markup">19:21:23:42</property>
  <property name="meta.media.sample_aspect_num">1</property>
  <property name="meta.media.sample_aspect_den">1</property>
  <property name="meta.media.frame_rate_num">50</property>
  <property name="meta.media.frame_rate_den">1</property>
  <property name="meta.media.colorspace">709</property>
  <property name="meta.media.color_trc">1</property>
  <property name="meta.media.width">1920</property>
  <property name="meta.media.height">1080</property>
  <property name="meta.media.top_field_first">0</property>
  <property name="meta.media.progressive">1</property>
  <filter id="filter57">
   <property name="version">0,3</property>
   <property name="mlt_service">frei0r.levels</property>
   <property name="kdenlive_id">frei0r.levels</property>
   <property name="tag">frei0r.levels</property>
   <property name="kdenlive_ix">1</property>
   <property name="kdenlive_info"/>
   <property name="Channel">0,3</property>
   <property name="Input black level">0=0</property>
   <property name="Input white level">0=0,65</property>
   <property name="Gamma">0=0,29175</property>
   <property name="Black output">0=0</property>
   <property name="White output">0=1</property>
   <property name="Show histogram">0</property>
   <property name="Histogram position">0,3</property>
  </filter>
  <filter id="filter58">
   <property name="version">0,1</property>
   <property name="mlt_service">frei0r.colgate</property>
   <property name="kdenlive_id">frei0r.colgate</property>
   <property name="tag">frei0r.colgate</property>
   <property name="kdenlive_ix">2</property>
   <property name="kdenlive_info"/>
   <property name="Neutral Color">0x7f7f7fff</property>
   <property name="Color Temperature">0=0,6</property>
  </filter>
 </producer>
 <playlist id="playlist0">
  <property name="kdenlive:track_name">Video </property>
  <blank length="17867"/>
  <entry producer="43_playlist0" in="525" out="546">
   <filter id="filter59" in="525" out="546">
    <property name="background">colour:0x00000000</property>
    <property name="mlt_service">affine</property>
    <property name="kdenlive_id">pan_zoom</property>
    <property name="tag">affine</property>
    <property name="kdenlive_ix">1</property>
    <property name="transition.geometry">-768/0:3456x1944:100</property>
    <property name="transition.distort">0</property>
    <property name="kdenlive:sync_in_out">1</property>
    <property name="kdenlive_info"/>
   </filter>
  </entry>
  <entry producer="43_playlist0" in="547" out="556"/>
  <entry producer="43_playlist0" in="557" out="579">
   <filter id="filter60" in="557" out="579">
    <property name="background">colour:0x00000000</property>
    <property name="mlt_service">affine</property>
    <property name="kdenlive_id">pan_zoom</property>
    <property name="tag">affine</property>
    <property name="kdenlive_info"/>
    <property name="kdenlive_ix">1</property>
    <property name="disable"/>
    <property name="transition.geometry">-768/0:3456x1944:100</property>
    <property name="transition.distort">0</property>
    <property name="kdenlive:sync_in_out">1</property>
   </filter>
  </entry>
  <entry producer="43_playlist0" in="580" out="965"/>
  <entry producer="43_playlist0" in="966" out="1048">
   <filter id="filter61" in="966" out="1048">
    <property name="background">colour:0x00000000</property>
    <property name="mlt_service">affine</property>
    <property name="kdenlive_id">pan_zoom</property>
    <property name="tag">affine</property>
    <property name="kdenlive_ix">1</property>
    <property name="transition.geometry">0/0:2496x1404:100</property>
    <property name="transition.distort">0</property>
    <property name="kdenlive:sync_in_out">1</property>
    <property name="kdenlive_info"/>
   </filter>
  </entry>
  <entry producer="43_playlist0" in="1049" out="1330"/>
  <entry producer="43_playlist0" in="1331" out="1341">
   <filter id="filter62" in="1331" out="1341">
    <property name="background">colour:0x00000000</property>
    <property name="mlt_service">affine</property>
    <property name="kdenlive_id">pan_zoom</property>
    <property name="tag">affine</property>
    <property name="kdenlive_ix">1</property>
    <property name="transition.geometry">0=-192/-108:2304x1296:100;7=0/0:1920x1080:100</property>
    <property name="transition.distort">0</property>
    <property name="kdenlive:sync_in_out">1</property>
    <property name="kdenlive_info"/>
   </filter>
  </entry>
  <entry producer="43_playlist0" in="1342" out="1379"/>
  <entry producer="43_playlist0" in="1380" out="1419">
   <filter id="filter63" in="1380" out="1419">
    <property name="background">colour:0x00000000</property>
    <property name="mlt_service">affine</property>
    <property name="kdenlive_id">pan_zoom</property>
    <property name="tag">affine</property>
    <property name="kdenlive_ix">1</property>
    <property name="transition.geometry">-576/-129:3072x1728:100</property>
    <property name="transition.distort">0</property>
    <property name="kdenlive:sync_in_out">1</property>
    <property name="kdenlive_info"/>
   </filter>
  </entry>
  <entry producer="43_playlist0" in="1420" out="1515"/>
  <entry producer="43_playlist0" in="1516" out="1757">
   <filter id="filter64" in="1516" out="1557">
    <property name="background">colour:0x00000000</property>
    <property name="mlt_service">affine</property>
    <property name="kdenlive_id">pan_zoom</property>
    <property name="tag">affine</property>
    <property name="kdenlive_ix">1</property>
    <property name="transition.geometry">0=-91/-52:3072x1728:100;125=-91/-52:3072x1728:100;126=0/0:2496x1404:100</property>
    <property name="transition.distort">0</property>
    <property name="kdenlive:sync_in_out">1</property>
    <property name="kdenlive_info"/>
    <property name="disable"/>
   </filter>
  </entry>
  <blank length="17"/>
  <entry producer="43_playlist0" in="1778" out="1956">
   <filter id="filter65">
    <property name="background">colour:0x00000000</property>
    <property name="mlt_service">affine</property>
    <property name="kdenlive_id">pan_zoom</property>
    <property name="tag">affine</property>
    <property name="kdenlive_ix">1</property>
    <property name="kdenlive_info"/>
    <property name="disable">0</property>
    <property name="transition.geometry">0/0:2688x1512:100</property>
    <property name="transition.distort">0</property>
   </filter>
  </entry>
  <blank length="28"/>
  <entry producer="43_playlist0" in="1979" out="2123"/>
  <blank length="8"/>
  <entry producer="43_playlist0" in="2135" out="2265"/>
  <entry producer="43_playlist0" in="2266" out="2391">
   <filter id="filter66">
    <property name="background">colour:0x00000000</property>
    <property name="mlt_service">affine</property>
    <property name="kdenlive_id">pan_zoom</property>
    <property name="tag">affine</property>
    <property name="kdenlive_ix">1</property>
    <property name="kdenlive_info"/>
    <property name="disable">0</property>
    <property name="transition.geometry">0=0/0:2688x1512:100;7=0/-432:2688x1512:100;69=0/-330:2688x1512:100</property>
    <property name="transition.distort">0</property>
   </filter>
  </entry>
  <blank length="236"/>
  <entry producer="25_playlist0" in="2053" out="2064"/>
  <blank length="817"/>
  <entry producer="22_playlist0" in="0" out="29">
   <filter id="filter67">
    <property name="background">colour:0x00000000</property>
    <property name="mlt_service">affine</property>
    <property name="kdenlive_id">pan_zoom</property>
    <property name="tag">affine</property>
    <property name="kdenlive_ix">1</property>
    <property name="kdenlive_info"/>
    <property name="disable"/>
    <property name="transition.geometry">0=-384/-164:2304x1296:100;8=-667/-226:2688x1512:100</property>
    <property name="transition.distort">0</property>
   </filter>
  </entry>
  <blank length="127"/>
  <entry producer="22_playlist0" in="824" out="872"/>
 </playlist>
 <producer title="Anonymous Submission" id="producer2" in="0" out="1689">
  <property name="length">00:00:33:40</property>
  <property name="eof">pause</property>
  <property name="resource">/media/bordun/plagiat2/2019-05-01_Plagiat_RespecteLaPuissancePapale_Lavare/CAM1_2019-01-05_0607_C0006.mov</property>
  <property name="audio_index">-1</property>
  <property name="video_index">-1</property>
  <property name="mute_on_pause">1</property>
  <property name="mlt_service">avformat-novalidate</property>
  <property name="seekable">1</property>
  <property name="aspect_ratio">1</property>
  <property name="kdenlive:folderid">17</property>
  <property name="kdenlive:file_size">1560293721</property>
  <property name="kdenlive:file_hash">bd1e6f48bc5cce2ea867955bc59977ea</property>
  <property name="global_feed">1</property>
  <property name="kdenlive:zone_in">427</property>
  <property name="kdenlive:zone_out">572</property>
  <property name="xml">was here</property>
  <property name="kdenlive:binid">42</property>
  <property name="kdenlive:clipstate">0</property>
  <filter id="filter68">
   <property name="version">0,3</property>
   <property name="mlt_service">frei0r.levels</property>
   <property name="kdenlive_id">frei0r.levels</property>
   <property name="tag">frei0r.levels</property>
   <property name="kdenlive_ix">1</property>
   <property name="kdenlive_info"/>
   <property name="Channel">0,3</property>
   <property name="Input black level">0=0,052</property>
   <property name="Input white level">0=1</property>
   <property name="Gamma">0=0,25</property>
   <property name="Black output">0=0</property>
   <property name="White output">0=0,95</property>
   <property name="Show histogram">0</property>
   <property name="Histogram position">0,3</property>
   <property name="disable">0</property>
  </filter>
  <filter id="filter69">
   <property name="version">0,1</property>
   <property name="mlt_service">frei0r.colgate</property>
   <property name="kdenlive_id">frei0r.colgate</property>
   <property name="tag">frei0r.colgate</property>
   <property name="kdenlive_ix">2</property>
   <property name="kdenlive_info"/>
   <property name="Neutral Color">0x7f7f7fff</property>
   <property name="Color Temperature">0=0,413333</property>
   <property name="disable">0</property>
  </filter>
 </producer>
 <producer title="Anonymous Submission" id="42_playlist6" in="0" out="1689">
  <property name="length">00:00:33:40</property>
  <property name="eof">pause</property>
  <property name="resource">/media/bordun/plagiat2/2019-05-01_Plagiat_RespecteLaPuissancePapale_Lavare/CAM1_2019-01-05_0607_C0006.mov</property>
  <property name="audio_index">2</property>
  <property name="video_index">1</property>
  <property name="mute_on_pause">1</property>
  <property name="mlt_service">avformat-novalidate</property>
  <property name="seekable">1</property>
  <property name="aspect_ratio">1</property>
  <property name="kdenlive:folderid">17</property>
  <property name="kdenlive:file_size">1560293721</property>
  <property name="kdenlive:file_hash">bd1e6f48bc5cce2ea867955bc59977ea</property>
  <property name="global_feed">1</property>
  <property name="xml">was here</property>
  <property name="meta.media.nb_streams">3</property>
  <property name="meta.media.1.stream.type">video</property>
  <property name="meta.media.1.stream.frame_rate">50</property>
  <property name="meta.media.1.stream.sample_aspect_ratio">1</property>
  <property name="meta.media.1.codec.width">1920</property>
  <property name="meta.media.1.codec.height">1080</property>
  <property name="meta.media.1.codec.rotate">0</property>
  <property name="meta.media.1.codec.frame_rate">5000</property>
  <property name="meta.media.1.codec.pix_fmt">yuv422p10le</property>
  <property name="meta.media.1.codec.sample_aspect_ratio">0</property>
  <property name="meta.media.1.codec.colorspace">709</property>
  <property name="meta.media.1.codec.color_trc">1</property>
  <property name="meta.media.1.codec.name">prores</property>
  <property name="meta.media.1.codec.long_name">ProRes</property>
  <property name="meta.media.1.codec.bit_rate">366960162</property>
  <property name="meta.attr.1.stream.creation_time.markup">2019-01-05T06:07:03.000000Z</property>
  <property name="meta.attr.1.stream.language.markup">eng</property>
  <property name="meta.attr.1.stream.handler_name.markup">Apple Alias Data Handler</property>
  <property name="meta.attr.1.stream.encoder.markup">Apple ProRes 422 HQ</property>
  <property name="meta.attr.1.stream.timecode.markup">06:07:03:08</property>
  <property name="meta.media.2.stream.type">audio</property>
  <property name="meta.media.2.codec.sample_fmt">s32</property>
  <property name="meta.media.2.codec.sample_rate">48000</property>
  <property name="meta.media.2.codec.channels">2</property>
  <property name="meta.media.2.codec.name">pcm_s24le</property>
  <property name="meta.media.2.codec.long_name">PCM signed 24-bit little-endian</property>
  <property name="meta.media.2.codec.bit_rate">2304000</property>
  <property name="meta.attr.2.stream.creation_time.markup">2019-01-05T06:07:03.000000Z</property>
  <property name="meta.attr.2.stream.language.markup">eng</property>
  <property name="meta.attr.2.stream.handler_name.markup">Apple Alias Data Handler</property>
  <property name="meta.attr.2.stream.timecode.markup">06:07:03:08</property>
  <property name="meta.attr.com.apple.proapps.manufacturer.markup">Blackmagic Design</property>
  <property name="meta.attr.com.apple.proapps.cameraName.markup">CAM1</property>
  <property name="meta.attr.com.apple.proapps.isGood.markup">0</property>
  <property name="meta.attr.com.apple.proapps.customgamma.markup">com.blackmagic-design.cinemacamera.filmlog</property>
  <property name="meta.attr.com.blackmagic-design.cinemacamera.uuid.markup">18E5E00548F94923B646613A73C01B56</property>
  <property name="meta.attr.creation_time.markup">2019-01-05T06:07:03.000000Z</property>
  <property name="meta.attr.timecode.markup">06:07:03:08</property>
  <property name="meta.media.sample_aspect_num">1</property>
  <property name="meta.media.sample_aspect_den">1</property>
  <property name="meta.media.frame_rate_num">50</property>
  <property name="meta.media.frame_rate_den">1</property>
  <property name="meta.media.colorspace">709</property>
  <property name="meta.media.color_trc">1</property>
  <property name="meta.media.width">1920</property>
  <property name="meta.media.height">1080</property>
  <property name="meta.media.top_field_first">0</property>
  <property name="meta.media.progressive">1</property>
  <filter id="filter70">
   <property name="version">0,3</property>
   <property name="mlt_service">frei0r.levels</property>
   <property name="kdenlive_id">frei0r.levels</property>
   <property name="tag">frei0r.levels</property>
   <property name="kdenlive_ix">1</property>
   <property name="kdenlive_info"/>
   <property name="Channel">0,3</property>
   <property name="Input black level">0=0,052</property>
   <property name="Input white level">0=1</property>
   <property name="Gamma">0=0,25</property>
   <property name="Black output">0=0</property>
   <property name="White output">0=0,95</property>
   <property name="Show histogram">0</property>
   <property name="Histogram position">0,3</property>
   <property name="disable">0</property>
  </filter>
  <filter id="filter71">
   <property name="version">0,1</property>
   <property name="mlt_service">frei0r.colgate</property>
   <property name="kdenlive_id">frei0r.colgate</property>
   <property name="tag">frei0r.colgate</property>
   <property name="kdenlive_ix">2</property>
   <property name="kdenlive_info"/>
   <property name="Neutral Color">0x7f7f7fff</property>
   <property name="Color Temperature">0=0,413333</property>
   <property name="disable">0</property>
  </filter>
 </producer>
 <producer title="Anonymous Submission" id="producer3" in="0" out="3049">
  <property name="length">00:01:01:00</property>
  <property name="eof">pause</property>
  <property name="resource">/media/bordun/plagiat2/2019-05-01_Plagiat_RespecteLaPuissancePapale_Lavare/CAM1_2019-01-05_0605_C0005.mov</property>
  <property name="audio_index">-1</property>
  <property name="video_index">-1</property>
  <property name="mute_on_pause">1</property>
  <property name="mlt_service">avformat-novalidate</property>
  <property name="seekable">1</property>
  <property name="aspect_ratio">1</property>
  <property name="kdenlive:folderid">17</property>
  <property name="kdenlive:file_size">2815906853</property>
  <property name="kdenlive:file_hash">23a7c272941f6ead8c4c67cee7e89762</property>
  <property name="global_feed">1</property>
  <property name="kdenlive:zone_in">1516</property>
  <property name="kdenlive:zone_out">1758</property>
  <property name="xml">was here</property>
  <property name="kdenlive:binid">43</property>
  <filter id="filter72">
   <property name="version">0,3</property>
   <property name="mlt_service">frei0r.levels</property>
   <property name="kdenlive_id">frei0r.levels</property>
   <property name="tag">frei0r.levels</property>
   <property name="kdenlive_ix">1</property>
   <property name="kdenlive_info"/>
   <property name="Channel">0,3</property>
   <property name="Input black level">0=0,052</property>
   <property name="Input white level">0=1</property>
   <property name="Gamma">0=0,25</property>
   <property name="Black output">0=0</property>
   <property name="White output">0=0,95</property>
   <property name="Show histogram">0</property>
   <property name="Histogram position">0,3</property>
   <property name="disable">0</property>
  </filter>
 </producer>
 <playlist id="playlist6">
  <property name="kdenlive:track_name">Video -1</property>
  <blank length="17944"/>
  <entry producer="producer2" in="0" out="79"/>
  <blank length="127"/>
  <entry producer="42_playlist6" in="207" out="364"/>
  <blank length="62"/>
  <entry producer="42_playlist6" in="427" out="571"/>
  <blank length="89"/>
  <entry producer="42_playlist6" in="661" out="728"/>
  <blank length="81"/>
  <entry producer="42_playlist6" in="810" out="914"/>
  <blank length="256"/>
  <entry producer="42_playlist6" in="1149" out="1237"/>
  <blank length="94"/>
  <entry producer="42_playlist6" in="1355" out="1467"/>
  <blank length="24"/>
  <entry producer="42_playlist6" in="1499" out="1581"/>
  <blank length="90"/>
  <entry producer="producer3" in="2266" out="2391">
   <filter id="filter73">
    <property name="background">colour:0x00000000</property>
    <property name="mlt_service">affine</property>
    <property name="kdenlive_id">pan_zoom</property>
    <property name="tag">affine</property>
    <property name="kdenlive_ix">1</property>
    <property name="kdenlive_info"/>
    <property name="disable"/>
    <property name="transition.geometry">-43/-283:2496x1404:100</property>
    <property name="transition.distort">0</property>
   </filter>
  </entry>
 </playlist>
 <producer title="Anonymous Submission" id="28_playlist7" in="0" out="43907">
  <property name="length">00:14:38:08</property>
  <property name="eof">pause</property>
  <property name="resource">/media/bordun/plagiat2/2019-05-01_Plagiat_RespecteLaPuissancePapale_Lavare/CAM1_2019-01-05_0407_C0000.mov</property>
  <property name="audio_index">2</property>
  <property name="video_index">1</property>
  <property name="mute_on_pause">1</property>
  <property name="mlt_service">avformat-novalidate</property>
  <property name="seekable">1</property>
  <property name="aspect_ratio">1</property>
  <property name="kdenlive:folderid">17</property>
  <property name="kdenlive:file_size">40537867713</property>
  <property name="kdenlive:file_hash">eeb49a6f6e2626b129e2046ec649a60c</property>
  <property name="global_feed">1</property>
  <property name="xml">was here</property>
  <property name="meta.media.nb_streams">3</property>
  <property name="meta.media.1.stream.type">video</property>
  <property name="meta.media.1.stream.frame_rate">50</property>
  <property name="meta.media.1.stream.sample_aspect_ratio">1</property>
  <property name="meta.media.1.codec.width">1920</property>
  <property name="meta.media.1.codec.height">1080</property>
  <property name="meta.media.1.codec.rotate">0</property>
  <property name="meta.media.1.codec.frame_rate">5000</property>
  <property name="meta.media.1.codec.pix_fmt">yuv422p10le</property>
  <property name="meta.media.1.codec.sample_aspect_ratio">0</property>
  <property name="meta.media.1.codec.colorspace">709</property>
  <property name="meta.media.1.codec.color_trc">1</property>
  <property name="meta.media.1.codec.name">prores</property>
  <property name="meta.media.1.codec.long_name">ProRes</property>
  <property name="meta.media.1.codec.bit_rate">366957037</property>
  <property name="meta.attr.1.stream.creation_time.markup">2019-01-05T04:07:04.000000Z</property>
  <property name="meta.attr.1.stream.language.markup">eng</property>
  <property name="meta.attr.1.stream.handler_name.markup">Apple Alias Data Handler</property>
  <property name="meta.attr.1.stream.encoder.markup">Apple ProRes 422 HQ</property>
  <property name="meta.attr.1.stream.timecode.markup">04:07:04:29</property>
  <property name="meta.media.2.stream.type">audio</property>
  <property name="meta.media.2.codec.sample_fmt">s32</property>
  <property name="meta.media.2.codec.sample_rate">48000</property>
  <property name="meta.media.2.codec.channels">2</property>
  <property name="meta.media.2.codec.name">pcm_s24le</property>
  <property name="meta.media.2.codec.long_name">PCM signed 24-bit little-endian</property>
  <property name="meta.media.2.codec.bit_rate">2304000</property>
  <property name="meta.attr.2.stream.creation_time.markup">2019-01-05T04:07:04.000000Z</property>
  <property name="meta.attr.2.stream.language.markup">eng</property>
  <property name="meta.attr.2.stream.handler_name.markup">Apple Alias Data Handler</property>
  <property name="meta.attr.2.stream.timecode.markup">04:07:04:29</property>
  <property name="meta.attr.com.apple.proapps.manufacturer.markup">Blackmagic Design</property>
  <property name="meta.attr.com.apple.proapps.cameraName.markup">CAM1</property>
  <property name="meta.attr.com.apple.proapps.isGood.markup">0</property>
  <property name="meta.attr.com.apple.proapps.customgamma.markup">com.blackmagic-design.cinemacamera.filmlog</property>
  <property name="meta.attr.com.blackmagic-design.cinemacamera.uuid.markup">18E5E00548F94923B646613A73C01B56</property>
  <property name="meta.attr.creation_time.markup">2019-01-05T04:07:04.000000Z</property>
  <property name="meta.attr.timecode.markup">04:07:04:29</property>
  <property name="meta.media.sample_aspect_num">1</property>
  <property name="meta.media.sample_aspect_den">1</property>
  <property name="meta.media.frame_rate_num">50</property>
  <property name="meta.media.frame_rate_den">1</property>
  <property name="meta.media.colorspace">709</property>
  <property name="meta.media.color_trc">1</property>
  <property name="meta.media.width">1920</property>
  <property name="meta.media.height">1080</property>
  <property name="meta.media.top_field_first">0</property>
  <property name="meta.media.progressive">1</property>
  <filter id="filter74">
   <property name="version">0,3</property>
   <property name="mlt_service">frei0r.levels</property>
   <property name="kdenlive_id">frei0r.levels</property>
   <property name="tag">frei0r.levels</property>
   <property name="kdenlive_ix">1</property>
   <property name="kdenlive_info"/>
   <property name="disable">0</property>
   <property name="Channel">0,3</property>
   <property name="Input black level">26882=0,03</property>
   <property name="Input white level">26882=1</property>
   <property name="Gamma">26882=0,25</property>
   <property name="Black output">26882=0</property>
   <property name="White output">26882=1</property>
   <property name="Show histogram">0</property>
   <property name="Histogram position">0,3</property>
  </filter>
 </producer>
 <producer title="Anonymous Submission" id="producer4" in="0" out="43907">
  <property name="length">00:14:38:08</property>
  <property name="eof">pause</property>
  <property name="resource">/media/bordun/plagiat2/2019-05-01_Plagiat_RespecteLaPuissancePapale_Lavare/CAM1_2019-01-05_0407_C0000.mov</property>
  <property name="audio_index">-1</property>
  <property name="video_index">-1</property>
  <property name="mute_on_pause">1</property>
  <property name="mlt_service">avformat-novalidate</property>
  <property name="seekable">1</property>
  <property name="aspect_ratio">1</property>
  <property name="kdenlive:folderid">17</property>
  <property name="kdenlive:file_size">40537867713</property>
  <property name="kdenlive:file_hash">eeb49a6f6e2626b129e2046ec649a60c</property>
  <property name="global_feed">1</property>
  <property name="kdenlive:zone_in">31033</property>
  <property name="kdenlive:zone_out">43908</property>
  <property name="xml">was here</property>
  <property name="kdenlive:binid">28</property>
  <property name="kdenlive:clipstate">0</property>
 </producer>
 <producer title="Anonymous Submission" id="producer6" in="0" out="43907">
  <property name="length">00:14:38:08</property>
  <property name="eof">pause</property>
  <property name="resource">/media/bordun/plagiat2/CAM1_2019-01-05_0407_C0000.mov</property>
  <property name="audio_index">-1</property>
  <property name="video_index">-1</property>
  <property name="mute_on_pause">1</property>
  <property name="mlt_service">avformat-novalidate</property>
  <property name="seekable">1</property>
  <property name="aspect_ratio">1</property>
  <property name="kdenlive:folderid">17</property>
  <property name="kdenlive:file_size">40537867713</property>
  <property name="kdenlive:file_hash">eeb49a6f6e2626b129e2046ec649a60c</property>
  <property name="global_feed">1</property>
  <property name="kdenlive:zone_in">31033</property>
  <property name="kdenlive:zone_out">43908</property>
  <property name="xml">was here</property>
  <property name="kdenlive:binid">28</property>
  <property name="kdenlive:clipstate">0</property>
 </producer>
 <producer title="Anonymous Submission" id="producer5" in="0" out="43907">
  <property name="length">00:14:38:08</property>
  <property name="eof">pause</property>
  <property name="resource">/media/bordun/plagiat2/CAM1_2019-01-05_0407_C0000.mov</property>
  <property name="audio_index">-1</property>
  <property name="video_index">-1</property>
  <property name="mute_on_pause">1</property>
  <property name="mlt_service">avformat-novalidate</property>
  <property name="seekable">1</property>
  <property name="aspect_ratio">1</property>
  <property name="kdenlive:folderid">17</property>
  <property name="kdenlive:file_size">40537867713</property>
  <property name="kdenlive:file_hash">eeb49a6f6e2626b129e2046ec649a60c</property>
  <property name="global_feed">1</property>
  <property name="kdenlive:zone_in">28606</property>
  <property name="kdenlive:zone_out">28640</property>
  <property name="xml">was here</property>
  <property name="kdenlive:binid">28</property>
  <filter id="filter75">
   <property name="version">0,3</property>
   <property name="mlt_service">frei0r.levels</property>
   <property name="kdenlive_id">frei0r.levels</property>
   <property name="tag">frei0r.levels</property>
   <property name="kdenlive_ix">1</property>
   <property name="kdenlive_info">1/-1/</property>
   <property name="disable">0</property>
   <property name="Channel">0,3</property>
   <property name="Input black level">26882=0,03</property>
   <property name="Input white level">26882=1</property>
   <property name="Gamma">26882=0,25</property>
   <property name="Black output">26882=0</property>
   <property name="White output">26882=1</property>
   <property name="Show histogram">0</property>
   <property name="Histogram position">0,3</property>
  </filter>
 </producer>
 <producer title="Anonymous Submission" id="producer7" in="0" out="43907">
  <property name="length">00:14:38:08</property>
  <property name="eof">pause</property>
  <property name="resource">/media/bordun/plagiat2/CAM1_2019-01-05_0407_C0000.mov</property>
  <property name="audio_index">-1</property>
  <property name="video_index">-1</property>
  <property name="mute_on_pause">1</property>
  <property name="mlt_service">avformat-novalidate</property>
  <property name="seekable">1</property>
  <property name="aspect_ratio">1</property>
  <property name="kdenlive:folderid">17</property>
  <property name="kdenlive:file_size">40537867713</property>
  <property name="kdenlive:file_hash">eeb49a6f6e2626b129e2046ec649a60c</property>
  <property name="global_feed">1</property>
  <property name="kdenlive:zone_in">28606</property>
  <property name="kdenlive:zone_out">28640</property>
  <property name="xml">was here</property>
  <property name="kdenlive:binid">28</property>
  <filter id="filter76">
   <property name="version">0,3</property>
   <property name="mlt_service">frei0r.levels</property>
   <property name="kdenlive_id">frei0r.levels</property>
   <property name="tag">frei0r.levels</property>
   <property name="kdenlive_ix">1</property>
   <property name="kdenlive_info">1/-1/</property>
   <property name="disable">0</property>
   <property name="Channel">0,3</property>
   <property name="Input black level">26882=0,03</property>
   <property name="Input white level">26882=1</property>
   <property name="Gamma">26882=0,25</property>
   <property name="Black output">26882=0</property>
   <property name="White output">26882=1</property>
   <property name="Show histogram">0</property>
   <property name="Histogram position">0,3</property>
  </filter>
 </producer>
 <producer title="Anonymous Submission" id="41_playlist7" in="0" out="42317">
  <property name="length">00:14:06:18</property>
  <property name="eof">pause</property>
  <property name="resource">/media/bordun/plagiat2/2019-05-01_Plagiat_RespecteLaPuissancePapale_Lavare/CAM1_2019-01-05_0345_C0000.mov</property>
  <property name="audio_index">2</property>
  <property name="video_index">1</property>
  <property name="mute_on_pause">1</property>
  <property name="mlt_service">avformat-novalidate</property>
  <property name="seekable">1</property>
  <property name="aspect_ratio">1</property>
  <property name="kdenlive:folderid">17</property>
  <property name="kdenlive:file_size">39069915329</property>
  <property name="kdenlive:file_hash">73f4a81374204093f22cbe930d68c42b</property>
  <property name="global_feed">1</property>
  <property name="kdenlive:zone_in">41468</property>
  <property name="kdenlive:zone_out">41716</property>
  <property name="xml">was here</property>
  <property name="meta.media.nb_streams">3</property>
  <property name="meta.media.1.stream.type">video</property>
  <property name="meta.media.1.stream.frame_rate">50</property>
  <property name="meta.media.1.stream.sample_aspect_ratio">1</property>
  <property name="meta.media.1.codec.width">1920</property>
  <property name="meta.media.1.codec.height">1080</property>
  <property name="meta.media.1.codec.rotate">0</property>
  <property name="meta.media.1.codec.frame_rate">5000</property>
  <property name="meta.media.1.codec.pix_fmt">yuv422p10le</property>
  <property name="meta.media.1.codec.sample_aspect_ratio">0</property>
  <property name="meta.media.1.codec.colorspace">709</property>
  <property name="meta.media.1.codec.color_trc">1</property>
  <property name="meta.media.1.codec.name">prores</property>
  <property name="meta.media.1.codec.long_name">ProRes</property>
  <property name="meta.media.1.codec.bit_rate">366957403</property>
  <property name="meta.attr.1.stream.creation_time.markup">2019-01-05T03:45:37.000000Z</property>
  <property name="meta.attr.1.stream.language.markup">eng</property>
  <property name="meta.attr.1.stream.handler_name.markup">Apple Alias Data Handler</property>
  <property name="meta.attr.1.stream.encoder.markup">Apple ProRes 422 HQ</property>
  <property name="meta.attr.1.stream.timecode.markup">03:45:37:07</property>
  <property name="meta.media.2.stream.type">audio</property>
  <property name="meta.media.2.codec.sample_fmt">s32</property>
  <property name="meta.media.2.codec.sample_rate">48000</property>
  <property name="meta.media.2.codec.channels">2</property>
  <property name="meta.media.2.codec.name">pcm_s24le</property>
  <property name="meta.media.2.codec.long_name">PCM signed 24-bit little-endian</property>
  <property name="meta.media.2.codec.bit_rate">2304000</property>
  <property name="meta.attr.2.stream.creation_time.markup">2019-01-05T03:45:37.000000Z</property>
  <property name="meta.attr.2.stream.language.markup">eng</property>
  <property name="meta.attr.2.stream.handler_name.markup">Apple Alias Data Handler</property>
  <property name="meta.attr.2.stream.timecode.markup">03:45:37:07</property>
  <property name="meta.attr.com.apple.proapps.manufacturer.markup">Blackmagic Design</property>
  <property name="meta.attr.com.apple.proapps.cameraName.markup">CAM1</property>
  <property name="meta.attr.com.apple.proapps.isGood.markup">0</property>
  <property name="meta.attr.com.apple.proapps.customgamma.markup">com.blackmagic-design.cinemacamera.filmlog</property>
  <property name="meta.attr.com.blackmagic-design.cinemacamera.uuid.markup">18E5E00548F94923B646613A73C01B56</property>
  <property name="meta.attr.creation_time.markup">2019-01-05T03:45:37.000000Z</property>
  <property name="meta.attr.timecode.markup">03:45:37:07</property>
  <property name="meta.media.sample_aspect_num">1</property>
  <property name="meta.media.sample_aspect_den">1</property>
  <property name="meta.media.frame_rate_num">50</property>
  <property name="meta.media.frame_rate_den">1</property>
  <property name="meta.media.colorspace">709</property>
  <property name="meta.media.color_trc">1</property>
  <property name="meta.media.width">1920</property>
  <property name="meta.media.height">1080</property>
  <property name="meta.media.top_field_first">0</property>
  <property name="meta.media.progressive">1</property>
  <filter id="filter77">
   <property name="version">0,3</property>
   <property name="mlt_service">frei0r.levels</property>
   <property name="kdenlive_id">frei0r.levels</property>
   <property name="tag">frei0r.levels</property>
   <property name="kdenlive_ix">1</property>
   <property name="kdenlive_info">1/-1/</property>
   <property name="Channel">0,3</property>
   <property name="Input black level">26882=0,03</property>
   <property name="Input white level">26882=1</property>
   <property name="Gamma">26882=0,25</property>
   <property name="Black output">26882=0</property>
   <property name="White output">26882=1</property>
   <property name="Show histogram">0</property>
   <property name="Histogram position">0,3</property>
   <property name="disable">0</property>
  </filter>
 </producer>
 <playlist id="playlist7">
  <property name="kdenlive:track_name">Video -2</property>
  <blank length="14839"/>
  <entry producer="28_playlist7" in="26295" out="26640"/>
  <blank length="2"/>
  <entry producer="28_playlist7" in="26651" out="26692"/>
  <blank length="8"/>
  <entry producer="28_playlist7" in="26693" out="26910"/>
  <entry producer="28_playlist7" in="26882" out="26936"/>
  <blank length="700"/>
  <entry producer="producer4" in="27509" out="27538"/>
  <blank length="1457"/>
  <entry producer="28_playlist7" in="28996" out="29020">
   <filter id="filter78" in="28996" out="29020">
    <property name="background">colour:0x00000000</property>
    <property name="mlt_service">affine</property>
    <property name="kdenlive_id">pan_zoom</property>
    <property name="tag">affine</property>
    <property name="kdenlive_info"/>
    <property name="kdenlive_ix">1</property>
    <property name="disable"/>
    <property name="transition.geometry">0=0/0:2496x1404:100;24=-488/-114:3456x1944:100</property>
    <property name="transition.distort">0</property>
    <property name="kdenlive:sync_in_out">1</property>
   </filter>
  </entry>
  <blank length="145"/>
  <entry producer="producer6" in="29166" out="29180">
   <filter id="filter79" in="29166" out="29180">
    <property name="background">colour:0x00000000</property>
    <property name="mlt_service">affine</property>
    <property name="kdenlive_id">pan_zoom</property>
    <property name="tag">affine</property>
    <property name="kdenlive_ix">1</property>
    <property name="transition.geometry">-17/-330:3264x1836:100</property>
    <property name="transition.distort">0</property>
    <property name="kdenlive:sync_in_out">1</property>
    <property name="kdenlive_info"/>
   </filter>
  </entry>
  <blank length="40"/>
  <entry producer="28_playlist7" in="29221" out="29259">
   <filter id="filter80" in="29197" out="29242">
    <property name="background">colour:0x00000000</property>
    <property name="mlt_service">affine</property>
    <property name="kdenlive_id">pan_zoom</property>
    <property name="tag">affine</property>
    <property name="kdenlive_ix">1</property>
    <property name="transition.geometry">0=-192/-108:2304x1296:100;4=0/0:1920x1080:100</property>
    <property name="transition.distort">0</property>
    <property name="kdenlive:sync_in_out">1</property>
    <property name="kdenlive_info"/>
    <property name="disable">1</property>
   </filter>
  </entry>
  <blank length="270"/>
  <entry producer="28_playlist7" in="29530" out="29558">
   <filter id="filter81" in="29530" out="29561">
    <property name="background">colour:0x00000000</property>
    <property name="mlt_service">affine</property>
    <property name="kdenlive_id">pan_zoom</property>
    <property name="tag">affine</property>
    <property name="kdenlive_ix">1</property>
    <property name="transition.geometry">0=0/0:2880x1620:100;16=0/0:2880x1620:100;28=0/0:2688x1512:100</property>
    <property name="transition.distort">0</property>
    <property name="kdenlive:sync_in_out">1</property>
    <property name="kdenlive_info"/>
    <property name="disable"/>
   </filter>
  </entry>
  <blank length="85"/>
  <entry producer="28_playlist7" in="29644" out="29670"/>
  <blank length="53"/>
  <entry producer="28_playlist7" in="29724" out="29770"/>
  <blank length="352"/>
  <entry producer="28_playlist7" in="30123" out="30194">
   <filter id="filter82" in="30123" out="30194">
    <property name="background">colour:0x00000000</property>
    <property name="mlt_service">affine</property>
    <property name="kdenlive_id">pan_zoom</property>
    <property name="tag">affine</property>
    <property name="kdenlive_ix">1</property>
    <property name="transition.geometry">0=-518/-213:2688x1512:100;30=-385/-210:2688x1512:100;32=0/0:1920x1080:100</property>
    <property name="transition.distort">0</property>
    <property name="kdenlive:sync_in_out">1</property>
    <property name="kdenlive_info"/>
    <property name="disable"/>
   </filter>
  </entry>
  <blank length="113"/>
  <entry producer="producer5" in="30308" out="30358">
   <filter id="filter83">
    <property name="background">colour:0x00000000</property>
    <property name="mlt_service">affine</property>
    <property name="kdenlive_id">pan_zoom</property>
    <property name="tag">affine</property>
    <property name="kdenlive_ix">1</property>
    <property name="kdenlive_info"/>
    <property name="disable"/>
    <property name="transition.geometry">-95/-603:3456x1944:100</property>
    <property name="transition.distort">0</property>
   </filter>
  </entry>
  <blank length="23"/>
  <entry producer="28_playlist7" in="30382" out="30446">
   <filter id="filter84" in="30382" out="30446">
    <property name="background">colour:0x00000000</property>
    <property name="mlt_service">affine</property>
    <property name="kdenlive_id">pan_zoom</property>
    <property name="tag">affine</property>
    <property name="kdenlive_ix">1</property>
    <property name="kdenlive:sync_in_out">1</property>
    <property name="kdenlive_info"/>
    <property name="disable"/>
    <property name="transition.geometry">0=0/0:1920x1080:100;8=-288/-324:2496x1404:100;36=-288/-324:2496x1404:100;40=0/0:1920x1080:100</property>
    <property name="transition.distort">0</property>
   </filter>
  </entry>
  <blank length="133"/>
  <entry producer="28_playlist7" in="30534" out="30568">
   <filter id="filter85">
    <property name="background">colour:0x00000000</property>
    <property name="mlt_service">affine</property>
    <property name="kdenlive_id">pan_zoom</property>
    <property name="tag">affine</property>
    <property name="kdenlive_ix">1</property>
    <property name="kdenlive_info"/>
    <property name="disable"/>
    <property name="transition.geometry">-480/-540:2880x1620:100</property>
    <property name="transition.distort">0</property>
   </filter>
  </entry>
  <blank length="17"/>
  <entry producer="producer7" in="30632" out="30665"/>
  <blank length="133"/>
  <entry producer="28_playlist7" in="30799" out="30906"/>
  <blank length="41"/>
  <entry producer="28_playlist7" in="30948" out="31018"/>
  <entry producer="28_playlist7" in="31019" out="31032">
   <filter id="filter86">
    <property name="background">colour:0x00000000</property>
    <property name="mlt_service">affine</property>
    <property name="kdenlive_id">pan_zoom</property>
    <property name="tag">affine</property>
    <property name="kdenlive_ix">1</property>
    <property name="kdenlive_info"/>
    <property name="disable">0</property>
    <property name="transition.geometry">-576/0:2496x1404:100</property>
    <property name="transition.distort">0</property>
   </filter>
  </entry>
  <blank length="459"/>
  <entry producer="41_playlist7" in="30351" out="30352"/>
 </playlist>
 <producer id="slowmotion:41:0,6:1:0" in="0" out="70529">
  <property name="length">70530</property>
  <property name="eof">pause</property>
  <property name="resource">0,6:/media/bordun/plagiat2/2019-05-01_Plagiat_RespecteLaPuissancePapale_Lavare/CAM1_2019-01-05_0345_C0000.mov</property>
  <property name="aspect_ratio">1</property>
  <property name="meta.media.nb_streams">3</property>
  <property name="meta.media.1.stream.type">video</property>
  <property name="meta.media.1.stream.frame_rate">50</property>
  <property name="meta.media.1.stream.sample_aspect_ratio">1</property>
  <property name="meta.media.1.codec.width">1920</property>
  <property name="meta.media.1.codec.height">1080</property>
  <property name="meta.media.1.codec.rotate">0</property>
  <property name="meta.media.1.codec.frame_rate">5000</property>
  <property name="meta.media.1.codec.pix_fmt">yuv422p10le</property>
  <property name="meta.media.1.codec.sample_aspect_ratio">0</property>
  <property name="meta.media.1.codec.colorspace">709</property>
  <property name="meta.media.1.codec.color_trc">1</property>
  <property name="meta.media.1.codec.name">prores</property>
  <property name="meta.media.1.codec.long_name">ProRes</property>
  <property name="meta.media.1.codec.bit_rate">366957403</property>
  <property name="meta.attr.1.stream.creation_time.markup">2019-01-05T03:45:37.000000Z</property>
  <property name="meta.attr.1.stream.language.markup">eng</property>
  <property name="meta.attr.1.stream.handler_name.markup">Apple Alias Data Handler</property>
  <property name="meta.attr.1.stream.encoder.markup">Apple ProRes 422 HQ</property>
  <property name="meta.attr.1.stream.timecode.markup">03:45:37:07</property>
  <property name="meta.media.2.stream.type">audio</property>
  <property name="meta.media.2.codec.sample_fmt">s32</property>
  <property name="meta.media.2.codec.sample_rate">48000</property>
  <property name="meta.media.2.codec.channels">2</property>
  <property name="meta.media.2.codec.name">pcm_s24le</property>
  <property name="meta.media.2.codec.long_name">PCM signed 24-bit little-endian</property>
  <property name="meta.media.2.codec.bit_rate">2304000</property>
  <property name="meta.attr.2.stream.creation_time.markup">2019-01-05T03:45:37.000000Z</property>
  <property name="meta.attr.2.stream.language.markup">eng</property>
  <property name="meta.attr.2.stream.handler_name.markup">Apple Alias Data Handler</property>
  <property name="meta.attr.2.stream.timecode.markup">03:45:37:07</property>
  <property name="meta.attr.com.apple.proapps.manufacturer.markup">Blackmagic Design</property>
  <property name="meta.attr.com.apple.proapps.cameraName.markup">CAM1</property>
  <property name="meta.attr.com.apple.proapps.isGood.markup">0</property>
  <property name="meta.attr.com.apple.proapps.customgamma.markup">com.blackmagic-design.cinemacamera.filmlog</property>
  <property name="meta.attr.com.blackmagic-design.cinemacamera.uuid.markup">18E5E00548F94923B646613A73C01B56</property>
  <property name="meta.attr.creation_time.markup">2019-01-05T03:45:37.000000Z</property>
  <property name="meta.attr.timecode.markup">03:45:37:07</property>
  <property name="seekable">1</property>
  <property name="meta.media.sample_aspect_num">1</property>
  <property name="meta.media.sample_aspect_den">1</property>
  <property name="audio_index">2</property>
  <property name="video_index">1</property>
  <property name="mute_on_pause">1</property>
  <property name="warp_speed">0,6</property>
  <property name="warp_resource">/media/bordun/plagiat2/2019-05-01_Plagiat_RespecteLaPuissancePapale_Lavare/CAM1_2019-01-05_0345_C0000.mov</property>
  <property name="mlt_service">timewarp</property>
  <property name="meta.media.frame_rate_num">50</property>
  <property name="meta.media.frame_rate_den">1</property>
  <property name="meta.media.colorspace">709</property>
  <property name="meta.media.color_trc">1</property>
  <property name="meta.media.width">1920</property>
  <property name="meta.media.height">1080</property>
  <property name="meta.media.top_field_first">0</property>
  <property name="meta.media.progressive">1</property>
  <filter id="filter87">
   <property name="version">0,3</property>
   <property name="mlt_service">frei0r.levels</property>
   <property name="kdenlive_id">frei0r.levels</property>
   <property name="tag">frei0r.levels</property>
   <property name="kdenlive_ix">1</property>
   <property name="kdenlive_info"/>
   <property name="Channel">0,3</property>
   <property name="Input black level">26882=0,03</property>
   <property name="Input white level">26882=1</property>
   <property name="Gamma">26882=0,25</property>
   <property name="Black output">26882=0</property>
   <property name="White output">26882=1</property>
   <property name="Show histogram">0</property>
   <property name="Histogram position">0,3</property>
   <property name="disable">0</property>
  </filter>
 </producer>
 <producer title="Anonymous Submission" id="37_playlist8" in="0" out="19885">
  <property name="length">00:06:37:36</property>
  <property name="eof">pause</property>
  <property name="resource">/media/bordun/plagiat2/2019-05-01_Plagiat_RespecteLaPuissancePapale_Lavare/CAM1_2019-01-05_0544_C0003.mov</property>
  <property name="audio_index">2</property>
  <property name="video_index">1</property>
  <property name="mute_on_pause">1</property>
  <property name="mlt_service">avformat-novalidate</property>
  <property name="seekable">1</property>
  <property name="aspect_ratio">1</property>
  <property name="kdenlive:folderid">17</property>
  <property name="kdenlive:file_size">18359664313</property>
  <property name="kdenlive:file_hash">46f909828b8adaa191142911fc3d1240</property>
  <property name="global_feed">1</property>
  <property name="xml">was here</property>
  <property name="meta.media.nb_streams">3</property>
  <property name="meta.media.1.stream.type">video</property>
  <property name="meta.media.1.stream.frame_rate">50</property>
  <property name="meta.media.1.stream.sample_aspect_ratio">1</property>
  <property name="meta.media.1.codec.width">1920</property>
  <property name="meta.media.1.codec.height">1080</property>
  <property name="meta.media.1.codec.rotate">0</property>
  <property name="meta.media.1.codec.frame_rate">5000</property>
  <property name="meta.media.1.codec.pix_fmt">yuv422p10le</property>
  <property name="meta.media.1.codec.sample_aspect_ratio">0</property>
  <property name="meta.media.1.codec.colorspace">709</property>
  <property name="meta.media.1.codec.color_trc">1</property>
  <property name="meta.media.1.codec.name">prores</property>
  <property name="meta.media.1.codec.long_name">ProRes</property>
  <property name="meta.media.1.codec.bit_rate">366956929</property>
  <property name="meta.attr.1.stream.creation_time.markup">2019-01-05T05:44:18.000000Z</property>
  <property name="meta.attr.1.stream.language.markup">eng</property>
  <property name="meta.attr.1.stream.handler_name.markup">Apple Alias Data Handler</property>
  <property name="meta.attr.1.stream.encoder.markup">Apple ProRes 422 HQ</property>
  <property name="meta.attr.1.stream.timecode.markup">05:44:18:23</property>
  <property name="meta.media.2.stream.type">audio</property>
  <property name="meta.media.2.codec.sample_fmt">s32</property>
  <property name="meta.media.2.codec.sample_rate">48000</property>
  <property name="meta.media.2.codec.channels">2</property>
  <property name="meta.media.2.codec.name">pcm_s24le</property>
  <property name="meta.media.2.codec.long_name">PCM signed 24-bit little-endian</property>
  <property name="meta.media.2.codec.bit_rate">2304000</property>
  <property name="meta.attr.2.stream.creation_time.markup">2019-01-05T05:44:18.000000Z</property>
  <property name="meta.attr.2.stream.language.markup">eng</property>
  <property name="meta.attr.2.stream.handler_name.markup">Apple Alias Data Handler</property>
  <property name="meta.attr.2.stream.timecode.markup">05:44:18:23</property>
  <property name="meta.attr.com.apple.proapps.manufacturer.markup">Blackmagic Design</property>
  <property name="meta.attr.com.apple.proapps.cameraName.markup">CAM1</property>
  <property name="meta.attr.com.apple.proapps.isGood.markup">0</property>
  <property name="meta.attr.com.apple.proapps.customgamma.markup">com.blackmagic-design.cinemacamera.filmlog</property>
  <property name="meta.attr.com.blackmagic-design.cinemacamera.uuid.markup">18E5E00548F94923B646613A73C01B56</property>
  <property name="meta.attr.creation_time.markup">2019-01-05T05:44:18.000000Z</property>
  <property name="meta.attr.timecode.markup">05:44:18:23</property>
  <property name="meta.media.sample_aspect_num">1</property>
  <property name="meta.media.sample_aspect_den">1</property>
  <property name="meta.media.frame_rate_num">50</property>
  <property name="meta.media.frame_rate_den">1</property>
  <property name="meta.media.colorspace">709</property>
  <property name="meta.media.color_trc">1</property>
  <property name="meta.media.width">1920</property>
  <property name="meta.media.height">1080</property>
  <property name="meta.media.top_field_first">0</property>
  <property name="meta.media.progressive">1</property>
  <filter id="filter88">
   <property name="version">0,3</property>
   <property name="mlt_service">frei0r.levels</property>
   <property name="kdenlive_id">frei0r.levels</property>
   <property name="tag">frei0r.levels</property>
   <property name="kdenlive_ix">1</property>
   <property name="kdenlive_info">1/-1/</property>
   <property name="Channel">0,3</property>
   <property name="Input black level">0=0,052</property>
   <property name="Input white level">0=1</property>
   <property name="Gamma">0=0,25</property>
   <property name="Black output">0=0</property>
   <property name="White output">0=0,95</property>
   <property name="Show histogram">0</property>
   <property name="Histogram position">0,3</property>
   <property name="disable">0</property>
  </filter>
 </producer>
 <producer title="Anonymous Submission" id="41_playlist8" in="0" out="42317">
  <property name="length">00:14:06:18</property>
  <property name="eof">pause</property>
  <property name="resource">/media/bordun/plagiat2/2019-05-01_Plagiat_RespecteLaPuissancePapale_Lavare/CAM1_2019-01-05_0345_C0000.mov</property>
  <property name="audio_index">2</property>
  <property name="video_index">1</property>
  <property name="mute_on_pause">1</property>
  <property name="mlt_service">avformat-novalidate</property>
  <property name="seekable">1</property>
  <property name="aspect_ratio">1</property>
  <property name="kdenlive:folderid">17</property>
  <property name="kdenlive:file_size">39069915329</property>
  <property name="kdenlive:file_hash">73f4a81374204093f22cbe930d68c42b</property>
  <property name="global_feed">1</property>
  <property name="xml">was here</property>
  <property name="meta.media.nb_streams">3</property>
  <property name="meta.media.1.stream.type">video</property>
  <property name="meta.media.1.stream.frame_rate">50</property>
  <property name="meta.media.1.stream.sample_aspect_ratio">1</property>
  <property name="meta.media.1.codec.width">1920</property>
  <property name="meta.media.1.codec.height">1080</property>
  <property name="meta.media.1.codec.rotate">0</property>
  <property name="meta.media.1.codec.frame_rate">5000</property>
  <property name="meta.media.1.codec.pix_fmt">yuv422p10le</property>
  <property name="meta.media.1.codec.sample_aspect_ratio">0</property>
  <property name="meta.media.1.codec.colorspace">709</property>
  <property name="meta.media.1.codec.color_trc">1</property>
  <property name="meta.media.1.codec.name">prores</property>
  <property name="meta.media.1.codec.long_name">ProRes</property>
  <property name="meta.media.1.codec.bit_rate">366957403</property>
  <property name="meta.attr.1.stream.creation_time.markup">2019-01-05T03:45:37.000000Z</property>
  <property name="meta.attr.1.stream.language.markup">eng</property>
  <property name="meta.attr.1.stream.handler_name.markup">Apple Alias Data Handler</property>
  <property name="meta.attr.1.stream.encoder.markup">Apple ProRes 422 HQ</property>
  <property name="meta.attr.1.stream.timecode.markup">03:45:37:07</property>
  <property name="meta.media.2.stream.type">audio</property>
  <property name="meta.media.2.codec.sample_fmt">s32</property>
  <property name="meta.media.2.codec.sample_rate">48000</property>
  <property name="meta.media.2.codec.channels">2</property>
  <property name="meta.media.2.codec.name">pcm_s24le</property>
  <property name="meta.media.2.codec.long_name">PCM signed 24-bit little-endian</property>
  <property name="meta.media.2.codec.bit_rate">2304000</property>
  <property name="meta.attr.2.stream.creation_time.markup">2019-01-05T03:45:37.000000Z</property>
  <property name="meta.attr.2.stream.language.markup">eng</property>
  <property name="meta.attr.2.stream.handler_name.markup">Apple Alias Data Handler</property>
  <property name="meta.attr.2.stream.timecode.markup">03:45:37:07</property>
  <property name="meta.attr.com.apple.proapps.manufacturer.markup">Blackmagic Design</property>
  <property name="meta.attr.com.apple.proapps.cameraName.markup">CAM1</property>
  <property name="meta.attr.com.apple.proapps.isGood.markup">0</property>
  <property name="meta.attr.com.apple.proapps.customgamma.markup">com.blackmagic-design.cinemacamera.filmlog</property>
  <property name="meta.attr.com.blackmagic-design.cinemacamera.uuid.markup">18E5E00548F94923B646613A73C01B56</property>
  <property name="meta.attr.creation_time.markup">2019-01-05T03:45:37.000000Z</property>
  <property name="meta.attr.timecode.markup">03:45:37:07</property>
  <property name="meta.media.sample_aspect_num">1</property>
  <property name="meta.media.sample_aspect_den">1</property>
  <property name="meta.media.frame_rate_num">50</property>
  <property name="meta.media.frame_rate_den">1</property>
  <property name="meta.media.colorspace">709</property>
  <property name="meta.media.color_trc">1</property>
  <property name="meta.media.width">1920</property>
  <property name="meta.media.height">1080</property>
  <property name="meta.media.top_field_first">0</property>
  <property name="meta.media.progressive">1</property>
  <filter id="filter89">
   <property name="version">0,3</property>
   <property name="mlt_service">frei0r.levels</property>
   <property name="kdenlive_id">frei0r.levels</property>
   <property name="tag">frei0r.levels</property>
   <property name="kdenlive_ix">1</property>
   <property name="kdenlive_info"/>
   <property name="Channel">0,3</property>
   <property name="Input black level">26882=0,03</property>
   <property name="Input white level">26882=1</property>
   <property name="Gamma">26882=0,25</property>
   <property name="Black output">26882=0</property>
   <property name="White output">26882=1</property>
   <property name="Show histogram">0</property>
   <property name="Histogram position">0,3</property>
   <property name="disable">0</property>
  </filter>
 </producer>
 <producer title="Anonymous Submission" id="producer12" in="0" out="42317">
  <property name="length">00:14:06:18</property>
  <property name="eof">pause</property>
  <property name="resource">/media/bordun/plagiat2/2019-05-01_Plagiat_RespecteLaPuissancePapale_Lavare/CAM1_2019-01-05_0345_C0000.mov</property>
  <property name="audio_index">-1</property>
  <property name="video_index">-1</property>
  <property name="mute_on_pause">1</property>
  <property name="mlt_service">avformat-novalidate</property>
  <property name="seekable">1</property>
  <property name="aspect_ratio">1</property>
  <property name="kdenlive:folderid">17</property>
  <property name="kdenlive:file_size">39069915329</property>
  <property name="kdenlive:file_hash">73f4a81374204093f22cbe930d68c42b</property>
  <property name="global_feed">1</property>
  <property name="kdenlive:zone_in">26339</property>
  <property name="kdenlive:zone_out">26410</property>
  <property name="xml">was here</property>
  <property name="kdenlive:binid">41</property>
  <property name="kdenlive:clipstate">0</property>
 </producer>
 <producer title="Anonymous Submission" id="28_playlist8" in="0" out="43907">
  <property name="length">00:14:38:08</property>
  <property name="eof">pause</property>
  <property name="resource">/media/bordun/plagiat2/2019-05-01_Plagiat_RespecteLaPuissancePapale_Lavare/CAM1_2019-01-05_0407_C0000.mov</property>
  <property name="audio_index">2</property>
  <property name="video_index">1</property>
  <property name="mute_on_pause">1</property>
  <property name="mlt_service">avformat-novalidate</property>
  <property name="seekable">1</property>
  <property name="aspect_ratio">1</property>
  <property name="kdenlive:folderid">17</property>
  <property name="kdenlive:file_size">40537867713</property>
  <property name="kdenlive:file_hash">eeb49a6f6e2626b129e2046ec649a60c</property>
  <property name="global_feed">1</property>
  <property name="kdenlive:zone_in">28606</property>
  <property name="kdenlive:zone_out">28640</property>
  <property name="xml">was here</property>
  <property name="meta.media.nb_streams">3</property>
  <property name="meta.media.1.stream.type">video</property>
  <property name="meta.media.1.stream.frame_rate">50</property>
  <property name="meta.media.1.stream.sample_aspect_ratio">1</property>
  <property name="meta.media.1.codec.width">1920</property>
  <property name="meta.media.1.codec.height">1080</property>
  <property name="meta.media.1.codec.rotate">0</property>
  <property name="meta.media.1.codec.frame_rate">5000</property>
  <property name="meta.media.1.codec.pix_fmt">yuv422p10le</property>
  <property name="meta.media.1.codec.sample_aspect_ratio">0</property>
  <property name="meta.media.1.codec.colorspace">709</property>
  <property name="meta.media.1.codec.color_trc">1</property>
  <property name="meta.media.1.codec.name">prores</property>
  <property name="meta.media.1.codec.long_name">ProRes</property>
  <property name="meta.media.1.codec.bit_rate">366957037</property>
  <property name="meta.attr.1.stream.creation_time.markup">2019-01-05T04:07:04.000000Z</property>
  <property name="meta.attr.1.stream.language.markup">eng</property>
  <property name="meta.attr.1.stream.handler_name.markup">Apple Alias Data Handler</property>
  <property name="meta.attr.1.stream.encoder.markup">Apple ProRes 422 HQ</property>
  <property name="meta.attr.1.stream.timecode.markup">04:07:04:29</property>
  <property name="meta.media.2.stream.type">audio</property>
  <property name="meta.media.2.codec.sample_fmt">s32</property>
  <property name="meta.media.2.codec.sample_rate">48000</property>
  <property name="meta.media.2.codec.channels">2</property>
  <property name="meta.media.2.codec.name">pcm_s24le</property>
  <property name="meta.media.2.codec.long_name">PCM signed 24-bit little-endian</property>
  <property name="meta.media.2.codec.bit_rate">2304000</property>
  <property name="meta.attr.2.stream.creation_time.markup">2019-01-05T04:07:04.000000Z</property>
  <property name="meta.attr.2.stream.language.markup">eng</property>
  <property name="meta.attr.2.stream.handler_name.markup">Apple Alias Data Handler</property>
  <property name="meta.attr.2.stream.timecode.markup">04:07:04:29</property>
  <property name="meta.attr.com.apple.proapps.manufacturer.markup">Blackmagic Design</property>
  <property name="meta.attr.com.apple.proapps.cameraName.markup">CAM1</property>
  <property name="meta.attr.com.apple.proapps.isGood.markup">0</property>
  <property name="meta.attr.com.apple.proapps.customgamma.markup">com.blackmagic-design.cinemacamera.filmlog</property>
  <property name="meta.attr.com.blackmagic-design.cinemacamera.uuid.markup">18E5E00548F94923B646613A73C01B56</property>
  <property name="meta.attr.creation_time.markup">2019-01-05T04:07:04.000000Z</property>
  <property name="meta.attr.timecode.markup">04:07:04:29</property>
  <property name="meta.media.sample_aspect_num">1</property>
  <property name="meta.media.sample_aspect_den">1</property>
  <property name="meta.media.frame_rate_num">50</property>
  <property name="meta.media.frame_rate_den">1</property>
  <property name="meta.media.colorspace">709</property>
  <property name="meta.media.color_trc">1</property>
  <property name="meta.media.width">1920</property>
  <property name="meta.media.height">1080</property>
  <property name="meta.media.top_field_first">0</property>
  <property name="meta.media.progressive">1</property>
  <filter id="filter90">
   <property name="version">0,3</property>
   <property name="mlt_service">frei0r.levels</property>
   <property name="kdenlive_id">frei0r.levels</property>
   <property name="tag">frei0r.levels</property>
   <property name="kdenlive_ix">1</property>
   <property name="kdenlive_info">1/-1/</property>
   <property name="disable">0</property>
   <property name="Channel">0,3</property>
   <property name="Input black level">26882=0,03</property>
   <property name="Input white level">26882=1</property>
   <property name="Gamma">26882=0,25</property>
   <property name="Black output">26882=0</property>
   <property name="White output">26882=1</property>
   <property name="Show histogram">0</property>
   <property name="Histogram position">0,3</property>
  </filter>
 </producer>
 <producer id="slowmotion:41:0,89:1:0" in="0" out="47547">
  <property name="length">47548</property>
  <property name="eof">pause</property>
  <property name="resource">0,89:/media/bordun/plagiat2/2019-05-01_Plagiat_RespecteLaPuissancePapale_Lavare/CAM1_2019-01-05_0345_C0000.mov</property>
  <property name="aspect_ratio">1</property>
  <property name="meta.media.nb_streams">3</property>
  <property name="meta.media.1.stream.type">video</property>
  <property name="meta.media.1.stream.frame_rate">50</property>
  <property name="meta.media.1.stream.sample_aspect_ratio">1</property>
  <property name="meta.media.1.codec.width">1920</property>
  <property name="meta.media.1.codec.height">1080</property>
  <property name="meta.media.1.codec.rotate">0</property>
  <property name="meta.media.1.codec.frame_rate">5000</property>
  <property name="meta.media.1.codec.pix_fmt">yuv422p10le</property>
  <property name="meta.media.1.codec.sample_aspect_ratio">0</property>
  <property name="meta.media.1.codec.colorspace">709</property>
  <property name="meta.media.1.codec.color_trc">1</property>
  <property name="meta.media.1.codec.name">prores</property>
  <property name="meta.media.1.codec.long_name">ProRes</property>
  <property name="meta.media.1.codec.bit_rate">366957403</property>
  <property name="meta.attr.1.stream.creation_time.markup">2019-01-05T03:45:37.000000Z</property>
  <property name="meta.attr.1.stream.language.markup">eng</property>
  <property name="meta.attr.1.stream.handler_name.markup">Apple Alias Data Handler</property>
  <property name="meta.attr.1.stream.encoder.markup">Apple ProRes 422 HQ</property>
  <property name="meta.attr.1.stream.timecode.markup">03:45:37:07</property>
  <property name="meta.media.2.stream.type">audio</property>
  <property name="meta.media.2.codec.sample_fmt">s32</property>
  <property name="meta.media.2.codec.sample_rate">48000</property>
  <property name="meta.media.2.codec.channels">2</property>
  <property name="meta.media.2.codec.name">pcm_s24le</property>
  <property name="meta.media.2.codec.long_name">PCM signed 24-bit little-endian</property>
  <property name="meta.media.2.codec.bit_rate">2304000</property>
  <property name="meta.attr.2.stream.creation_time.markup">2019-01-05T03:45:37.000000Z</property>
  <property name="meta.attr.2.stream.language.markup">eng</property>
  <property name="meta.attr.2.stream.handler_name.markup">Apple Alias Data Handler</property>
  <property name="meta.attr.2.stream.timecode.markup">03:45:37:07</property>
  <property name="meta.attr.com.apple.proapps.manufacturer.markup">Blackmagic Design</property>
  <property name="meta.attr.com.apple.proapps.cameraName.markup">CAM1</property>
  <property name="meta.attr.com.apple.proapps.isGood.markup">0</property>
  <property name="meta.attr.com.apple.proapps.customgamma.markup">com.blackmagic-design.cinemacamera.filmlog</property>
  <property name="meta.attr.com.blackmagic-design.cinemacamera.uuid.markup">18E5E00548F94923B646613A73C01B56</property>
  <property name="meta.attr.creation_time.markup">2019-01-05T03:45:37.000000Z</property>
  <property name="meta.attr.timecode.markup">03:45:37:07</property>
  <property name="seekable">1</property>
  <property name="meta.media.sample_aspect_num">1</property>
  <property name="meta.media.sample_aspect_den">1</property>
  <property name="audio_index">2</property>
  <property name="video_index">1</property>
  <property name="mute_on_pause">1</property>
  <property name="warp_speed">0,89</property>
  <property name="warp_resource">/media/bordun/plagiat2/2019-05-01_Plagiat_RespecteLaPuissancePapale_Lavare/CAM1_2019-01-05_0345_C0000.mov</property>
  <property name="mlt_service">timewarp</property>
  <property name="meta.media.frame_rate_num">50</property>
  <property name="meta.media.frame_rate_den">1</property>
  <property name="meta.media.colorspace">709</property>
  <property name="meta.media.color_trc">1</property>
  <property name="meta.media.width">1920</property>
  <property name="meta.media.height">1080</property>
  <property name="meta.media.top_field_first">0</property>
  <property name="meta.media.progressive">1</property>
  <filter id="filter91">
   <property name="version">0,3</property>
   <property name="mlt_service">frei0r.levels</property>
   <property name="kdenlive_id">frei0r.levels</property>
   <property name="tag">frei0r.levels</property>
   <property name="kdenlive_ix">1</property>
   <property name="kdenlive_info"/>
   <property name="Channel">0,3</property>
   <property name="Input black level">26882=0,03</property>
   <property name="Input white level">26882=1</property>
   <property name="Gamma">26882=0,25</property>
   <property name="Black output">26882=0</property>
   <property name="White output">26882=1</property>
   <property name="Show histogram">0</property>
   <property name="Histogram position">0,3</property>
   <property name="disable">0</property>
  </filter>
 </producer>
 <producer id="slowmotion:41:1,5:1:0" in="0" out="28211">
  <property name="length">28212</property>
  <property name="eof">pause</property>
  <property name="resource">1,5:/media/bordun/plagiat2/2019-05-01_Plagiat_RespecteLaPuissancePapale_Lavare/CAM1_2019-01-05_0345_C0000.mov</property>
  <property name="aspect_ratio">1</property>
  <property name="meta.media.nb_streams">3</property>
  <property name="meta.media.1.stream.type">video</property>
  <property name="meta.media.1.stream.frame_rate">50</property>
  <property name="meta.media.1.stream.sample_aspect_ratio">1</property>
  <property name="meta.media.1.codec.width">1920</property>
  <property name="meta.media.1.codec.height">1080</property>
  <property name="meta.media.1.codec.rotate">0</property>
  <property name="meta.media.1.codec.frame_rate">5000</property>
  <property name="meta.media.1.codec.pix_fmt">yuv422p10le</property>
  <property name="meta.media.1.codec.sample_aspect_ratio">0</property>
  <property name="meta.media.1.codec.colorspace">709</property>
  <property name="meta.media.1.codec.color_trc">1</property>
  <property name="meta.media.1.codec.name">prores</property>
  <property name="meta.media.1.codec.long_name">ProRes</property>
  <property name="meta.media.1.codec.bit_rate">366957403</property>
  <property name="meta.attr.1.stream.creation_time.markup">2019-01-05T03:45:37.000000Z</property>
  <property name="meta.attr.1.stream.language.markup">eng</property>
  <property name="meta.attr.1.stream.handler_name.markup">Apple Alias Data Handler</property>
  <property name="meta.attr.1.stream.encoder.markup">Apple ProRes 422 HQ</property>
  <property name="meta.attr.1.stream.timecode.markup">03:45:37:07</property>
  <property name="meta.media.2.stream.type">audio</property>
  <property name="meta.media.2.codec.sample_fmt">s32</property>
  <property name="meta.media.2.codec.sample_rate">48000</property>
  <property name="meta.media.2.codec.channels">2</property>
  <property name="meta.media.2.codec.name">pcm_s24le</property>
  <property name="meta.media.2.codec.long_name">PCM signed 24-bit little-endian</property>
  <property name="meta.media.2.codec.bit_rate">2304000</property>
  <property name="meta.attr.2.stream.creation_time.markup">2019-01-05T03:45:37.000000Z</property>
  <property name="meta.attr.2.stream.language.markup">eng</property>
  <property name="meta.attr.2.stream.handler_name.markup">Apple Alias Data Handler</property>
  <property name="meta.attr.2.stream.timecode.markup">03:45:37:07</property>
  <property name="meta.attr.com.apple.proapps.manufacturer.markup">Blackmagic Design</property>
  <property name="meta.attr.com.apple.proapps.cameraName.markup">CAM1</property>
  <property name="meta.attr.com.apple.proapps.isGood.markup">0</property>
  <property name="meta.attr.com.apple.proapps.customgamma.markup">com.blackmagic-design.cinemacamera.filmlog</property>
  <property name="meta.attr.com.blackmagic-design.cinemacamera.uuid.markup">18E5E00548F94923B646613A73C01B56</property>
  <property name="meta.attr.creation_time.markup">2019-01-05T03:45:37.000000Z</property>
  <property name="meta.attr.timecode.markup">03:45:37:07</property>
  <property name="seekable">1</property>
  <property name="meta.media.sample_aspect_num">1</property>
  <property name="meta.media.sample_aspect_den">1</property>
  <property name="audio_index">2</property>
  <property name="video_index">1</property>
  <property name="mute_on_pause">1</property>
  <property name="warp_speed">1,5</property>
  <property name="warp_resource">/media/bordun/plagiat2/2019-05-01_Plagiat_RespecteLaPuissancePapale_Lavare/CAM1_2019-01-05_0345_C0000.mov</property>
  <property name="mlt_service">timewarp</property>
  <property name="meta.media.frame_rate_num">50</property>
  <property name="meta.media.frame_rate_den">1</property>
  <property name="meta.media.colorspace">709</property>
  <property name="meta.media.color_trc">1</property>
  <property name="meta.media.width">1920</property>
  <property name="meta.media.height">1080</property>
  <property name="meta.media.top_field_first">0</property>
  <property name="meta.media.progressive">1</property>
  <filter id="filter92">
   <property name="version">0,3</property>
   <property name="mlt_service">frei0r.levels</property>
   <property name="kdenlive_id">frei0r.levels</property>
   <property name="tag">frei0r.levels</property>
   <property name="kdenlive_ix">1</property>
   <property name="kdenlive_info"/>
   <property name="Channel">0,3</property>
   <property name="Input black level">26882=0,03</property>
   <property name="Input white level">26882=1</property>
   <property name="Gamma">26882=0,25</property>
   <property name="Black output">26882=0</property>
   <property name="White output">26882=1</property>
   <property name="Show histogram">0</property>
   <property name="Histogram position">0,3</property>
   <property name="disable">0</property>
  </filter>
 </producer>
 <playlist id="playlist8">
  <property name="kdenlive:track_name">Video -3</property>
  <blank length="14750"/>
  <entry producer="slowmotion:41:0,6:1:0" in="41468" out="41715">
   <filter id="frei0r.vignette">
    <property name="version">0,2</property>
    <property name="mlt_service">frei0r.vignette</property>
    <property name="kdenlive_id">frei0r.vignette</property>
    <property name="tag">frei0r.vignette</property>
    <property name="kdenlive_ix">2</property>
    <property name="aspect">41468=0,588</property>
    <property name="clearCenter">41468=0,495</property>
    <property name="soft">41468=0,575</property>
    <property name="kdenlive_info"/>
   </filter>
  </entry>
  <entry producer="slowmotion:41:0,6:1:0" in="41716" out="41732">
   <filter id="filter93" in="41716" out="41732">
    <property name="background">colour:0x00000000</property>
    <property name="mlt_service">affine</property>
    <property name="kdenlive_id">pan_zoom</property>
    <property name="tag">affine</property>
    <property name="kdenlive_ix">2</property>
    <property name="transition.geometry">-664/-169:2688x1512:100</property>
    <property name="transition.distort">0</property>
    <property name="kdenlive:sync_in_out">1</property>
    <property name="kdenlive_info"/>
   </filter>
  </entry>
  <entry producer="slowmotion:41:0,6:1:0" in="41733" out="41737">
   <filter id="filter94" in="41733" out="41737">
    <property name="background">colour:0x00000000</property>
    <property name="mlt_service">affine</property>
    <property name="kdenlive_id">pan_zoom</property>
    <property name="tag">affine</property>
    <property name="kdenlive_ix">2</property>
    <property name="transition.geometry">-881/-300:3072x1728:100</property>
    <property name="transition.distort">0</property>
    <property name="kdenlive:sync_in_out">1</property>
    <property name="kdenlive_info"/>
    <property name="disable"/>
   </filter>
  </entry>
  <entry producer="slowmotion:41:0,6:1:0" in="41738" out="41763">
   <filter id="filter95" in="41738" out="41763">
    <property name="background">colour:0x00000000</property>
    <property name="mlt_service">affine</property>
    <property name="kdenlive_id">pan_zoom</property>
    <property name="tag">affine</property>
    <property name="kdenlive_ix">2</property>
    <property name="transition.geometry">-1559/-616:4224x2376:100</property>
    <property name="transition.distort">0</property>
    <property name="kdenlive:sync_in_out">1</property>
    <property name="kdenlive_info"/>
    <property name="disable"/>
   </filter>
  </entry>
  <entry producer="37_playlist8" in="13264" out="13348"/>
  <blank length="36"/>
  <entry producer="37_playlist8" in="13394" out="13423"/>
  <blank length="35"/>
  <entry producer="37_playlist8" in="13450" out="13581"/>
  <blank length="45"/>
  <entry producer="37" in="13645" out="13690"/>
  <blank length="180"/>
  <entry producer="37_playlist8" in="13853" out="13957"/>
  <blank length="101"/>
  <entry producer="37_playlist8" in="14059" out="14201"/>
  <blank length="179"/>
  <entry producer="41_playlist8" in="26042" out="26066"/>
  <blank length="322"/>
  <entry producer="41_playlist8" in="26293" out="26323"/>
  <blank length="81"/>
  <entry producer="producer12" in="26440" out="26516"/>
  <blank length="751"/>
  <entry producer="41_playlist8" in="27485" out="27524"/>
  <blank length="259"/>
  <entry producer="41_playlist8" in="27784" out="27901"/>
  <blank length="190"/>
  <entry producer="41_playlist8" in="28178" out="28209"/>
  <blank length="109"/>
  <entry producer="41_playlist8" in="28562" out="28601"/>
  <blank length="652"/>
  <entry producer="28_playlist8" in="30189" out="30190">
   <filter id="filter96">
    <property name="background">colour:0x00000000</property>
    <property name="mlt_service">affine</property>
    <property name="kdenlive_id">pan_zoom</property>
    <property name="tag">affine</property>
    <property name="kdenlive_ix">1</property>
    <property name="kdenlive_info"/>
    <property name="disable"/>
    <property name="transition.geometry">0=-518/-213:2688x1512:100;30=-385/-210:2688x1512:100;32=0/0:1920x1080:100</property>
    <property name="transition.distort">0</property>
   </filter>
   <filter id="mirror">
    <property name="mirror">flip</property>
    <property name="mlt_service">mirror</property>
    <property name="kdenlive_id">mirror</property>
    <property name="tag">mirror</property>
    <property name="kdenlive_ix">2</property>
    <property name="reverse">0</property>
    <property name="kdenlive_info">0/-1/</property>
   </filter>
   <filter id="filter97">
    <property name="version">0,1</property>
    <property name="mlt_service">frei0r.glitch0r</property>
    <property name="kdenlive_id">frei0r.glitch0r</property>
    <property name="tag">frei0r.glitch0r</property>
    <property name="kdenlive_ix">3</property>
    <property name="0">1</property>
    <property name="1">0,065</property>
    <property name="2">0,005</property>
    <property name="3">0</property>
    <property name="kdenlive_info"/>
   </filter>
   <filter id="frei0r.rgbnoise">
    <property name="version">0,9</property>
    <property name="mlt_service">frei0r.rgbnoise</property>
    <property name="kdenlive_id">frei0r.rgbnoise</property>
    <property name="tag">frei0r.rgbnoise</property>
    <property name="kdenlive_ix">4</property>
    <property name="0">0,101</property>
    <property name="kdenlive_info">0/-1/</property>
   </filter>
   <filter id="frei0r.saturat0r">
    <property name="version">0,3</property>
    <property name="mlt_service">frei0r.saturat0r</property>
    <property name="kdenlive_id">frei0r.saturat0r</property>
    <property name="tag">frei0r.saturat0r</property>
    <property name="kdenlive_ix">5</property>
    <property name="Saturation">30189=0,052</property>
    <property name="kdenlive_info"/>
    <property name="disable"/>
   </filter>
   <filter id="filter98">
    <property name="version">0,3</property>
    <property name="mlt_service">frei0r.levels</property>
    <property name="kdenlive_id">frei0r.levels</property>
    <property name="tag">frei0r.levels</property>
    <property name="kdenlive_ix">6</property>
    <property name="Channel">0,3</property>
    <property name="Input black level">30189=0,065</property>
    <property name="Input white level">30189=0,827</property>
    <property name="Gamma">30189=0,25</property>
    <property name="Black output">30189=0</property>
    <property name="White output">30189=1</property>
    <property name="Show histogram">0</property>
    <property name="Histogram position">0,3</property>
    <property name="kdenlive_info"/>
    <property name="disable"/>
   </filter>
   <filter id="filter99">
    <property name="mirror">flip</property>
    <property name="mlt_service">mirror</property>
    <property name="kdenlive_id">mirror</property>
    <property name="tag">mirror</property>
    <property name="kdenlive_ix">7</property>
    <property name="reverse">0</property>
    <property name="kdenlive_info"/>
   </filter>
   <filter id="frei0r.nosync0r">
    <property name="version">0,2</property>
    <property name="mlt_service">frei0r.nosync0r</property>
    <property name="kdenlive_id">frei0r.nosync0r</property>
    <property name="tag">frei0r.nosync0r</property>
    <property name="kdenlive_ix">8</property>
    <property name="HSync">0,049</property>
    <property name="kdenlive_info"/>
    <property name="disable"/>
   </filter>
  </entry>
  <entry producer="28_playlist8" in="30191" out="30192">
   <filter id="filter100">
    <property name="background">colour:0x00000000</property>
    <property name="mlt_service">affine</property>
    <property name="kdenlive_id">pan_zoom</property>
    <property name="tag">affine</property>
    <property name="kdenlive_ix">1</property>
    <property name="kdenlive_info"/>
    <property name="disable"/>
    <property name="transition.geometry">0=-518/-213:2688x1512:100;30=-385/-210:2688x1512:100;32=0/0:1920x1080:100</property>
    <property name="transition.distort">0</property>
   </filter>
   <filter id="filter101">
    <property name="mirror">flip</property>
    <property name="mlt_service">mirror</property>
    <property name="kdenlive_id">mirror</property>
    <property name="tag">mirror</property>
    <property name="kdenlive_ix">2</property>
    <property name="reverse">0</property>
    <property name="kdenlive_info">0/-1/</property>
   </filter>
   <filter id="filter102">
    <property name="version">0,1</property>
    <property name="mlt_service">frei0r.glitch0r</property>
    <property name="kdenlive_id">frei0r.glitch0r</property>
    <property name="tag">frei0r.glitch0r</property>
    <property name="kdenlive_ix">3</property>
    <property name="0">1</property>
    <property name="1">0,065</property>
    <property name="2">0,005</property>
    <property name="3">0</property>
    <property name="kdenlive_info"/>
   </filter>
   <filter id="filter103">
    <property name="version">0,9</property>
    <property name="mlt_service">frei0r.rgbnoise</property>
    <property name="kdenlive_id">frei0r.rgbnoise</property>
    <property name="tag">frei0r.rgbnoise</property>
    <property name="kdenlive_ix">4</property>
    <property name="0">0,101</property>
    <property name="kdenlive_info">0/-1/</property>
   </filter>
   <filter id="filter104">
    <property name="version">0,3</property>
    <property name="mlt_service">frei0r.saturat0r</property>
    <property name="kdenlive_id">frei0r.saturat0r</property>
    <property name="tag">frei0r.saturat0r</property>
    <property name="kdenlive_ix">5</property>
    <property name="Saturation">30189=0,052</property>
    <property name="kdenlive_info"/>
    <property name="disable"/>
   </filter>
   <filter id="filter105">
    <property name="version">0,3</property>
    <property name="mlt_service">frei0r.levels</property>
    <property name="kdenlive_id">frei0r.levels</property>
    <property name="tag">frei0r.levels</property>
    <property name="kdenlive_ix">6</property>
    <property name="Channel">0,3</property>
    <property name="Input black level">30189=0,065</property>
    <property name="Input white level">30189=0,827</property>
    <property name="Gamma">30189=0,25</property>
    <property name="Black output">30189=0</property>
    <property name="White output">30189=1</property>
    <property name="Show histogram">0</property>
    <property name="Histogram position">0,3</property>
    <property name="kdenlive_info"/>
    <property name="disable"/>
   </filter>
   <filter id="filter106">
    <property name="mirror">flip</property>
    <property name="mlt_service">mirror</property>
    <property name="kdenlive_id">mirror</property>
    <property name="tag">mirror</property>
    <property name="kdenlive_ix">7</property>
    <property name="reverse">0</property>
    <property name="kdenlive_info"/>
   </filter>
   <filter id="filter107">
    <property name="version">0,2</property>
    <property name="mlt_service">frei0r.nosync0r</property>
    <property name="kdenlive_id">frei0r.nosync0r</property>
    <property name="tag">frei0r.nosync0r</property>
    <property name="kdenlive_ix">8</property>
    <property name="HSync">0,934</property>
    <property name="kdenlive_info"/>
    <property name="disable"/>
   </filter>
  </entry>
  <entry producer="28_playlist8" in="30193" out="30194">
   <filter id="filter108">
    <property name="background">colour:0x00000000</property>
    <property name="mlt_service">affine</property>
    <property name="kdenlive_id">pan_zoom</property>
    <property name="tag">affine</property>
    <property name="kdenlive_ix">1</property>
    <property name="kdenlive_info"/>
    <property name="disable"/>
    <property name="transition.geometry">0=-518/-213:2688x1512:100;30=-385/-210:2688x1512:100;32=0/0:1920x1080:100</property>
    <property name="transition.distort">0</property>
   </filter>
   <filter id="filter109">
    <property name="mirror">flip</property>
    <property name="mlt_service">mirror</property>
    <property name="kdenlive_id">mirror</property>
    <property name="tag">mirror</property>
    <property name="kdenlive_ix">2</property>
    <property name="reverse">0</property>
    <property name="kdenlive_info">0/-1/</property>
   </filter>
   <filter id="filter110">
    <property name="version">0,1</property>
    <property name="mlt_service">frei0r.glitch0r</property>
    <property name="kdenlive_id">frei0r.glitch0r</property>
    <property name="tag">frei0r.glitch0r</property>
    <property name="kdenlive_ix">3</property>
    <property name="0">1</property>
    <property name="1">0,065</property>
    <property name="2">0,005</property>
    <property name="3">0</property>
    <property name="kdenlive_info"/>
   </filter>
   <filter id="filter111">
    <property name="version">0,9</property>
    <property name="mlt_service">frei0r.rgbnoise</property>
    <property name="kdenlive_id">frei0r.rgbnoise</property>
    <property name="tag">frei0r.rgbnoise</property>
    <property name="kdenlive_ix">4</property>
    <property name="0">0,101</property>
    <property name="kdenlive_info">0/-1/</property>
   </filter>
   <filter id="filter112">
    <property name="version">0,3</property>
    <property name="mlt_service">frei0r.saturat0r</property>
    <property name="kdenlive_id">frei0r.saturat0r</property>
    <property name="tag">frei0r.saturat0r</property>
    <property name="kdenlive_ix">5</property>
    <property name="Saturation">30191=0,052</property>
    <property name="kdenlive_info"/>
   </filter>
   <filter id="filter113">
    <property name="version">0,3</property>
    <property name="mlt_service">frei0r.levels</property>
    <property name="kdenlive_id">frei0r.levels</property>
    <property name="tag">frei0r.levels</property>
    <property name="kdenlive_ix">6</property>
    <property name="Channel">0,3</property>
    <property name="Input black level">30191=0,065</property>
    <property name="Input white level">30191=0,827</property>
    <property name="Gamma">30191=0,25</property>
    <property name="Black output">30191=0</property>
    <property name="White output">30191=1</property>
    <property name="Show histogram">0</property>
    <property name="Histogram position">0,3</property>
    <property name="kdenlive_info"/>
   </filter>
   <filter id="filter114">
    <property name="mirror">flip</property>
    <property name="mlt_service">mirror</property>
    <property name="kdenlive_id">mirror</property>
    <property name="tag">mirror</property>
    <property name="kdenlive_ix">7</property>
    <property name="reverse">0</property>
    <property name="kdenlive_info"/>
   </filter>
   <filter id="filter115">
    <property name="version">0,2</property>
    <property name="mlt_service">frei0r.nosync0r</property>
    <property name="kdenlive_id">frei0r.nosync0r</property>
    <property name="tag">frei0r.nosync0r</property>
    <property name="kdenlive_ix">8</property>
    <property name="HSync">0,162</property>
    <property name="kdenlive_info"/>
   </filter>
  </entry>
  <blank length="147"/>
  <entry producer="slowmotion:41:0,89:1:0" in="35501" out="35540">
   <filter id="filter116">
    <property name="background">colour:0x00000000</property>
    <property name="mlt_service">affine</property>
    <property name="kdenlive_id">pan_zoom</property>
    <property name="tag">affine</property>
    <property name="kdenlive_ix">2</property>
    <property name="kdenlive_info"/>
    <property name="disable"/>
    <property name="transition.geometry">0/-59:2688x1512:100</property>
    <property name="transition.distort">0</property>
   </filter>
   <filter id="filter117">
    <property name="background">colour:0x00000000</property>
    <property name="mlt_service">affine</property>
    <property name="kdenlive_id">pan_zoom</property>
    <property name="tag">affine</property>
    <property name="kdenlive_ix">3</property>
    <property name="kdenlive_info"/>
    <property name="disable">1</property>
    <property name="transition.geometry">0/-59:2688x1512:100</property>
    <property name="transition.distort">0</property>
   </filter>
  </entry>
  <entry producer="28_playlist8" in="30382" out="30410">
   <filter id="filter118" in="30382" out="30420">
    <property name="background">colour:0x00000000</property>
    <property name="mlt_service">affine</property>
    <property name="kdenlive_id">pan_zoom</property>
    <property name="tag">affine</property>
    <property name="kdenlive_info"/>
    <property name="kdenlive_ix">1</property>
    <property name="disable"/>
    <property name="transition.geometry">0=0/0:1920x1080:100;8=-288/-324:2496x1404:100;36=-288/-324:2496x1404:100;40=0/0:1920x1080:100</property>
    <property name="transition.distort">0</property>
    <property name="kdenlive:sync_in_out">1</property>
   </filter>
   <filter id="invert">
    <property name="mlt_service">invert</property>
    <property name="kdenlive_id">invert</property>
    <property name="tag">invert</property>
    <property name="kdenlive_ix">2</property>
   </filter>
  </entry>
  <blank length="496"/>
  <entry producer="41_playlist8" in="31259" out="31324">
   <filter id="filter119">
    <property name="background">colour:0x00000000</property>
    <property name="mlt_service">affine</property>
    <property name="kdenlive_id">pan_zoom</property>
    <property name="tag">affine</property>
    <property name="kdenlive_ix">1</property>
    <property name="kdenlive_info"/>
    <property name="disable"/>
    <property name="transition.geometry">0=-192/-108:2304x1296:100;49=-192/-108:2304x1296:100;55=0/0:1920x1080:100</property>
    <property name="transition.distort">0</property>
   </filter>
  </entry>
  <blank length="497"/>
  <entry producer="41_playlist8" in="30313" out="30334"/>
  <blank length="2"/>
  <entry producer="slowmotion:41:1,5:1:0" in="20240" out="20257"/>
  <blank length="299"/>
  <entry producer="41_playlist8" in="30660" out="30701"/>
 </playlist>
 <producer title="Anonymous Submission" id="37_playlist9" in="0" out="19885">
  <property name="length">00:06:37:36</property>
  <property name="eof">pause</property>
  <property name="resource">/media/bordun/plagiat2/2019-05-01_Plagiat_RespecteLaPuissancePapale_Lavare/CAM1_2019-01-05_0544_C0003.mov</property>
  <property name="audio_index">2</property>
  <property name="video_index">1</property>
  <property name="mute_on_pause">1</property>
  <property name="mlt_service">avformat-novalidate</property>
  <property name="seekable">1</property>
  <property name="aspect_ratio">1</property>
  <property name="kdenlive:folderid">17</property>
  <property name="kdenlive:file_size">18359664313</property>
  <property name="kdenlive:file_hash">46f909828b8adaa191142911fc3d1240</property>
  <property name="global_feed">1</property>
  <property name="xml">was here</property>
  <property name="meta.media.nb_streams">3</property>
  <property name="meta.media.1.stream.type">video</property>
  <property name="meta.media.1.stream.frame_rate">50</property>
  <property name="meta.media.1.stream.sample_aspect_ratio">1</property>
  <property name="meta.media.1.codec.width">1920</property>
  <property name="meta.media.1.codec.height">1080</property>
  <property name="meta.media.1.codec.rotate">0</property>
  <property name="meta.media.1.codec.frame_rate">5000</property>
  <property name="meta.media.1.codec.pix_fmt">yuv422p10le</property>
  <property name="meta.media.1.codec.sample_aspect_ratio">0</property>
  <property name="meta.media.1.codec.colorspace">709</property>
  <property name="meta.media.1.codec.color_trc">1</property>
  <property name="meta.media.1.codec.name">prores</property>
  <property name="meta.media.1.codec.long_name">ProRes</property>
  <property name="meta.media.1.codec.bit_rate">366956929</property>
  <property name="meta.attr.1.stream.creation_time.markup">2019-01-05T05:44:18.000000Z</property>
  <property name="meta.attr.1.stream.language.markup">eng</property>
  <property name="meta.attr.1.stream.handler_name.markup">Apple Alias Data Handler</property>
  <property name="meta.attr.1.stream.encoder.markup">Apple ProRes 422 HQ</property>
  <property name="meta.attr.1.stream.timecode.markup">05:44:18:23</property>
  <property name="meta.media.2.stream.type">audio</property>
  <property name="meta.media.2.codec.sample_fmt">s32</property>
  <property name="meta.media.2.codec.sample_rate">48000</property>
  <property name="meta.media.2.codec.channels">2</property>
  <property name="meta.media.2.codec.name">pcm_s24le</property>
  <property name="meta.media.2.codec.long_name">PCM signed 24-bit little-endian</property>
  <property name="meta.media.2.codec.bit_rate">2304000</property>
  <property name="meta.attr.2.stream.creation_time.markup">2019-01-05T05:44:18.000000Z</property>
  <property name="meta.attr.2.stream.language.markup">eng</property>
  <property name="meta.attr.2.stream.handler_name.markup">Apple Alias Data Handler</property>
  <property name="meta.attr.2.stream.timecode.markup">05:44:18:23</property>
  <property name="meta.attr.com.apple.proapps.manufacturer.markup">Blackmagic Design</property>
  <property name="meta.attr.com.apple.proapps.cameraName.markup">CAM1</property>
  <property name="meta.attr.com.apple.proapps.isGood.markup">0</property>
  <property name="meta.attr.com.apple.proapps.customgamma.markup">com.blackmagic-design.cinemacamera.filmlog</property>
  <property name="meta.attr.com.blackmagic-design.cinemacamera.uuid.markup">18E5E00548F94923B646613A73C01B56</property>
  <property name="meta.attr.creation_time.markup">2019-01-05T05:44:18.000000Z</property>
  <property name="meta.attr.timecode.markup">05:44:18:23</property>
  <property name="meta.media.sample_aspect_num">1</property>
  <property name="meta.media.sample_aspect_den">1</property>
  <property name="meta.media.frame_rate_num">50</property>
  <property name="meta.media.frame_rate_den">1</property>
  <property name="meta.media.colorspace">709</property>
  <property name="meta.media.color_trc">1</property>
  <property name="meta.media.width">1920</property>
  <property name="meta.media.height">1080</property>
  <property name="meta.media.top_field_first">0</property>
  <property name="meta.media.progressive">1</property>
  <filter id="filter120">
   <property name="version">0,3</property>
   <property name="mlt_service">frei0r.levels</property>
   <property name="kdenlive_id">frei0r.levels</property>
   <property name="tag">frei0r.levels</property>
   <property name="kdenlive_ix">1</property>
   <property name="kdenlive_info">1/-1/</property>
   <property name="Channel">0,3</property>
   <property name="Input black level">0=0,052</property>
   <property name="Input white level">0=1</property>
   <property name="Gamma">0=0,25</property>
   <property name="Black output">0=0</property>
   <property name="White output">0=0,95</property>
   <property name="Show histogram">0</property>
   <property name="Histogram position">0,3</property>
   <property name="disable">0</property>
  </filter>
 </producer>
 <producer title="Anonymous Submission" id="producer8" in="0" out="19885">
  <property name="length">00:06:37:36</property>
  <property name="eof">continue</property>
  <property name="resource">/media/bordun/plagiat2/2019-05-01_Plagiat_RespecteLaPuissancePapale_Lavare/CAM1_2019-01-05_0544_C0003.mov</property>
  <property name="audio_index">-1</property>
  <property name="video_index">-1</property>
  <property name="mute_on_pause">1</property>
  <property name="mlt_service">avformat-novalidate</property>
  <property name="seekable">1</property>
  <property name="aspect_ratio">1</property>
  <property name="kdenlive:folderid">17</property>
  <property name="kdenlive:file_size">18359664313</property>
  <property name="kdenlive:file_hash">46f909828b8adaa191142911fc3d1240</property>
  <property name="global_feed">1</property>
  <property name="kdenlive:zone_in">4323</property>
  <property name="kdenlive:zone_out">4332</property>
  <property name="xml">was here</property>
  <property name="kdenlive:binid">37</property>
  <filter id="filter121">
   <property name="version">0,3</property>
   <property name="mlt_service">frei0r.levels</property>
   <property name="kdenlive_id">frei0r.levels</property>
   <property name="tag">frei0r.levels</property>
   <property name="kdenlive_ix">1</property>
   <property name="kdenlive_info">1/-1/</property>
   <property name="Channel">0,3</property>
   <property name="Input black level">0=0,052</property>
   <property name="Input white level">0=1</property>
   <property name="Gamma">0=0,25</property>
   <property name="Black output">0=0</property>
   <property name="White output">0=0,95</property>
   <property name="Show histogram">0</property>
   <property name="Histogram position">0,3</property>
   <property name="disable">0</property>
  </filter>
 </producer>
 <producer title="Anonymous Submission" id="22_playlist9" in="0" out="2303">
  <property name="length">00:00:46:04</property>
  <property name="eof">pause</property>
  <property name="resource">/media/bordun/plagiat/2018-12-10_Plagiat_RespecteLaPuissancePapale/Carte_4/CAM1_2018-12-10_1921_C0005.mov</property>
  <property name="audio_index">2</property>
  <property name="video_index">1</property>
  <property name="mute_on_pause">1</property>
  <property name="mlt_service">avformat-novalidate</property>
  <property name="seekable">1</property>
  <property name="aspect_ratio">1</property>
  <property name="kdenlive:folderid">13</property>
  <property name="kdenlive:file_size">2127176129</property>
  <property name="kdenlive:file_hash">498399b1185fccb66f9150f51f3e9c22</property>
  <property name="global_feed">1</property>
  <property name="kdenlive:zone_in">102</property>
  <property name="kdenlive:zone_out">174</property>
  <property name="xml">was here</property>
  <property name="meta.media.nb_streams">3</property>
  <property name="meta.media.1.stream.type">video</property>
  <property name="meta.media.1.stream.frame_rate">50</property>
  <property name="meta.media.1.stream.sample_aspect_ratio">1</property>
  <property name="meta.media.1.codec.width">1920</property>
  <property name="meta.media.1.codec.height">1080</property>
  <property name="meta.media.1.codec.rotate">0</property>
  <property name="meta.media.1.codec.frame_rate">5000</property>
  <property name="meta.media.1.codec.pix_fmt">yuv422p10le</property>
  <property name="meta.media.1.codec.sample_aspect_ratio">0</property>
  <property name="meta.media.1.codec.colorspace">709</property>
  <property name="meta.media.1.codec.color_trc">1</property>
  <property name="meta.media.1.codec.name">prores</property>
  <property name="meta.media.1.codec.long_name">ProRes</property>
  <property name="meta.media.1.codec.bit_rate">366955247</property>
  <property name="meta.attr.1.stream.creation_time.markup">2018-12-10T19:21:23.000000Z</property>
  <property name="meta.attr.1.stream.language.markup">eng</property>
  <property name="meta.attr.1.stream.handler_name.markup">Apple Alias Data Handler</property>
  <property name="meta.attr.1.stream.encoder.markup">Apple ProRes 422 HQ</property>
  <property name="meta.attr.1.stream.timecode.markup">19:21:23:42</property>
  <property name="meta.media.2.stream.type">audio</property>
  <property name="meta.media.2.codec.sample_fmt">s32</property>
  <property name="meta.media.2.codec.sample_rate">48000</property>
  <property name="meta.media.2.codec.channels">2</property>
  <property name="meta.media.2.codec.name">pcm_s24le</property>
  <property name="meta.media.2.codec.long_name">PCM signed 24-bit little-endian</property>
  <property name="meta.media.2.codec.bit_rate">2304000</property>
  <property name="meta.attr.2.stream.creation_time.markup">2018-12-10T19:21:23.000000Z</property>
  <property name="meta.attr.2.stream.language.markup">eng</property>
  <property name="meta.attr.2.stream.handler_name.markup">Apple Alias Data Handler</property>
  <property name="meta.attr.2.stream.timecode.markup">19:21:23:42</property>
  <property name="meta.attr.com.apple.proapps.manufacturer.markup">Blackmagic Design</property>
  <property name="meta.attr.com.apple.proapps.cameraName.markup">CAM1</property>
  <property name="meta.attr.com.apple.proapps.isGood.markup">0</property>
  <property name="meta.attr.com.apple.proapps.customgamma.markup">com.blackmagic-design.cinemacamera.filmlog</property>
  <property name="meta.attr.com.blackmagic-design.cinemacamera.uuid.markup">18E5E00548F94923B646613A73C01B56</property>
  <property name="meta.attr.creation_time.markup">2018-12-10T19:21:23.000000Z</property>
  <property name="meta.attr.timecode.markup">19:21:23:42</property>
  <property name="meta.media.sample_aspect_num">1</property>
  <property name="meta.media.sample_aspect_den">1</property>
  <property name="meta.media.frame_rate_num">50</property>
  <property name="meta.media.frame_rate_den">1</property>
  <property name="meta.media.colorspace">709</property>
  <property name="meta.media.color_trc">1</property>
  <property name="meta.media.width">1920</property>
  <property name="meta.media.height">1080</property>
  <property name="meta.media.top_field_first">0</property>
  <property name="meta.media.progressive">1</property>
  <filter id="filter122">
   <property name="version">0,3</property>
   <property name="mlt_service">frei0r.levels</property>
   <property name="kdenlive_id">frei0r.levels</property>
   <property name="tag">frei0r.levels</property>
   <property name="kdenlive_ix">1</property>
   <property name="kdenlive_info"/>
   <property name="Channel">0,3</property>
   <property name="Input black level">0=0</property>
   <property name="Input white level">0=0,65</property>
   <property name="Gamma">0=0,29175</property>
   <property name="Black output">0=0</property>
   <property name="White output">0=1</property>
   <property name="Show histogram">0</property>
   <property name="Histogram position">0,3</property>
  </filter>
  <filter id="filter123">
   <property name="version">0,1</property>
   <property name="mlt_service">frei0r.colgate</property>
   <property name="kdenlive_id">frei0r.colgate</property>
   <property name="tag">frei0r.colgate</property>
   <property name="kdenlive_ix">2</property>
   <property name="kdenlive_info"/>
   <property name="Neutral Color">0x7f7f7fff</property>
   <property name="Color Temperature">0=0,6</property>
  </filter>
 </producer>
 <producer id="slowmotion:37:2:1:0" in="0" out="9942">
  <property name="length">9943</property>
  <property name="eof">pause</property>
  <property name="resource">2:/media/bordun/plagiat2/2019-05-01_Plagiat_RespecteLaPuissancePapale_Lavare/CAM1_2019-01-05_0544_C0003.mov</property>
  <property name="aspect_ratio">1</property>
  <property name="meta.media.nb_streams">3</property>
  <property name="meta.media.1.stream.type">video</property>
  <property name="meta.media.1.stream.frame_rate">50</property>
  <property name="meta.media.1.stream.sample_aspect_ratio">1</property>
  <property name="meta.media.1.codec.width">1920</property>
  <property name="meta.media.1.codec.height">1080</property>
  <property name="meta.media.1.codec.rotate">0</property>
  <property name="meta.media.1.codec.frame_rate">5000</property>
  <property name="meta.media.1.codec.pix_fmt">yuv422p10le</property>
  <property name="meta.media.1.codec.sample_aspect_ratio">0</property>
  <property name="meta.media.1.codec.colorspace">709</property>
  <property name="meta.media.1.codec.color_trc">1</property>
  <property name="meta.media.1.codec.name">prores</property>
  <property name="meta.media.1.codec.long_name">ProRes</property>
  <property name="meta.media.1.codec.bit_rate">366956929</property>
  <property name="meta.attr.1.stream.creation_time.markup">2019-01-05T05:44:18.000000Z</property>
  <property name="meta.attr.1.stream.language.markup">eng</property>
  <property name="meta.attr.1.stream.handler_name.markup">Apple Alias Data Handler</property>
  <property name="meta.attr.1.stream.encoder.markup">Apple ProRes 422 HQ</property>
  <property name="meta.attr.1.stream.timecode.markup">05:44:18:23</property>
  <property name="meta.media.2.stream.type">audio</property>
  <property name="meta.media.2.codec.sample_fmt">s32</property>
  <property name="meta.media.2.codec.sample_rate">48000</property>
  <property name="meta.media.2.codec.channels">2</property>
  <property name="meta.media.2.codec.name">pcm_s24le</property>
  <property name="meta.media.2.codec.long_name">PCM signed 24-bit little-endian</property>
  <property name="meta.media.2.codec.bit_rate">2304000</property>
  <property name="meta.attr.2.stream.creation_time.markup">2019-01-05T05:44:18.000000Z</property>
  <property name="meta.attr.2.stream.language.markup">eng</property>
  <property name="meta.attr.2.stream.handler_name.markup">Apple Alias Data Handler</property>
  <property name="meta.attr.2.stream.timecode.markup">05:44:18:23</property>
  <property name="meta.attr.com.apple.proapps.manufacturer.markup">Blackmagic Design</property>
  <property name="meta.attr.com.apple.proapps.cameraName.markup">CAM1</property>
  <property name="meta.attr.com.apple.proapps.isGood.markup">0</property>
  <property name="meta.attr.com.apple.proapps.customgamma.markup">com.blackmagic-design.cinemacamera.filmlog</property>
  <property name="meta.attr.com.blackmagic-design.cinemacamera.uuid.markup">18E5E00548F94923B646613A73C01B56</property>
  <property name="meta.attr.creation_time.markup">2019-01-05T05:44:18.000000Z</property>
  <property name="meta.attr.timecode.markup">05:44:18:23</property>
  <property name="seekable">1</property>
  <property name="meta.media.sample_aspect_num">1</property>
  <property name="meta.media.sample_aspect_den">1</property>
  <property name="audio_index">2</property>
  <property name="video_index">1</property>
  <property name="mute_on_pause">1</property>
  <property name="warp_speed">2</property>
  <property name="warp_resource">/media/bordun/plagiat2/2019-05-01_Plagiat_RespecteLaPuissancePapale_Lavare/CAM1_2019-01-05_0544_C0003.mov</property>
  <property name="mlt_service">timewarp</property>
  <property name="meta.media.frame_rate_num">50</property>
  <property name="meta.media.frame_rate_den">1</property>
  <property name="meta.media.colorspace">709</property>
  <property name="meta.media.color_trc">1</property>
  <property name="meta.media.width">1920</property>
  <property name="meta.media.height">1080</property>
  <property name="meta.media.top_field_first">0</property>
  <property name="meta.media.progressive">1</property>
  <filter id="filter124">
   <property name="version">0,3</property>
   <property name="mlt_service">frei0r.levels</property>
   <property name="kdenlive_id">frei0r.levels</property>
   <property name="tag">frei0r.levels</property>
   <property name="kdenlive_ix">1</property>
   <property name="kdenlive_info">1/-1/</property>
   <property name="Channel">0,3</property>
   <property name="Input black level">0=0,052</property>
   <property name="Input white level">0=1</property>
   <property name="Gamma">0=0,25</property>
   <property name="Black output">0=0</property>
   <property name="White output">0=0,95</property>
   <property name="Show histogram">0</property>
   <property name="Histogram position">0,3</property>
   <property name="disable">0</property>
  </filter>
 </producer>
 <producer id="slowmotion:37:0,5:1:0" in="0" out="39771">
  <property name="length">39772</property>
  <property name="eof">pause</property>
  <property name="resource">0,5:/media/bordun/plagiat2/2019-05-01_Plagiat_RespecteLaPuissancePapale_Lavare/CAM1_2019-01-05_0544_C0003.mov</property>
  <property name="aspect_ratio">1</property>
  <property name="meta.media.nb_streams">3</property>
  <property name="meta.media.1.stream.type">video</property>
  <property name="meta.media.1.stream.frame_rate">50</property>
  <property name="meta.media.1.stream.sample_aspect_ratio">1</property>
  <property name="meta.media.1.codec.width">1920</property>
  <property name="meta.media.1.codec.height">1080</property>
  <property name="meta.media.1.codec.rotate">0</property>
  <property name="meta.media.1.codec.frame_rate">5000</property>
  <property name="meta.media.1.codec.pix_fmt">yuv422p10le</property>
  <property name="meta.media.1.codec.sample_aspect_ratio">0</property>
  <property name="meta.media.1.codec.colorspace">709</property>
  <property name="meta.media.1.codec.color_trc">1</property>
  <property name="meta.media.1.codec.name">prores</property>
  <property name="meta.media.1.codec.long_name">ProRes</property>
  <property name="meta.media.1.codec.bit_rate">366956929</property>
  <property name="meta.attr.1.stream.creation_time.markup">2019-01-05T05:44:18.000000Z</property>
  <property name="meta.attr.1.stream.language.markup">eng</property>
  <property name="meta.attr.1.stream.handler_name.markup">Apple Alias Data Handler</property>
  <property name="meta.attr.1.stream.encoder.markup">Apple ProRes 422 HQ</property>
  <property name="meta.attr.1.stream.timecode.markup">05:44:18:23</property>
  <property name="meta.media.2.stream.type">audio</property>
  <property name="meta.media.2.codec.sample_fmt">s32</property>
  <property name="meta.media.2.codec.sample_rate">48000</property>
  <property name="meta.media.2.codec.channels">2</property>
  <property name="meta.media.2.codec.name">pcm_s24le</property>
  <property name="meta.media.2.codec.long_name">PCM signed 24-bit little-endian</property>
  <property name="meta.media.2.codec.bit_rate">2304000</property>
  <property name="meta.attr.2.stream.creation_time.markup">2019-01-05T05:44:18.000000Z</property>
  <property name="meta.attr.2.stream.language.markup">eng</property>
  <property name="meta.attr.2.stream.handler_name.markup">Apple Alias Data Handler</property>
  <property name="meta.attr.2.stream.timecode.markup">05:44:18:23</property>
  <property name="meta.attr.com.apple.proapps.manufacturer.markup">Blackmagic Design</property>
  <property name="meta.attr.com.apple.proapps.cameraName.markup">CAM1</property>
  <property name="meta.attr.com.apple.proapps.isGood.markup">0</property>
  <property name="meta.attr.com.apple.proapps.customgamma.markup">com.blackmagic-design.cinemacamera.filmlog</property>
  <property name="meta.attr.com.blackmagic-design.cinemacamera.uuid.markup">18E5E00548F94923B646613A73C01B56</property>
  <property name="meta.attr.creation_time.markup">2019-01-05T05:44:18.000000Z</property>
  <property name="meta.attr.timecode.markup">05:44:18:23</property>
  <property name="seekable">1</property>
  <property name="meta.media.sample_aspect_num">1</property>
  <property name="meta.media.sample_aspect_den">1</property>
  <property name="audio_index">2</property>
  <property name="video_index">1</property>
  <property name="mute_on_pause">1</property>
  <property name="warp_speed">0,5</property>
  <property name="warp_resource">/media/bordun/plagiat2/2019-05-01_Plagiat_RespecteLaPuissancePapale_Lavare/CAM1_2019-01-05_0544_C0003.mov</property>
  <property name="mlt_service">timewarp</property>
  <property name="meta.media.frame_rate_num">50</property>
  <property name="meta.media.frame_rate_den">1</property>
  <property name="meta.media.colorspace">709</property>
  <property name="meta.media.color_trc">1</property>
  <property name="meta.media.width">1920</property>
  <property name="meta.media.height">1080</property>
  <property name="meta.media.top_field_first">0</property>
  <property name="meta.media.progressive">1</property>
  <filter id="filter125">
   <property name="version">0,3</property>
   <property name="mlt_service">frei0r.levels</property>
   <property name="kdenlive_id">frei0r.levels</property>
   <property name="tag">frei0r.levels</property>
   <property name="kdenlive_ix">1</property>
   <property name="kdenlive_info">1/-1/</property>
   <property name="Channel">0,3</property>
   <property name="Input black level">0=0,052</property>
   <property name="Input white level">0=1</property>
   <property name="Gamma">0=0,25</property>
   <property name="Black output">0=0</property>
   <property name="White output">0=0,95</property>
   <property name="Show histogram">0</property>
   <property name="Histogram position">0,3</property>
   <property name="disable">0</property>
  </filter>
 </producer>
 <playlist id="playlist9">
  <property name="kdenlive:track_name">Video -4</property>
  <blank length="14998"/>
  <entry producer="slowmotion:41:0,6:1:0" in="41716" out="41717">
   <filter id="filter126">
    <property name="background">colour:0x00000000</property>
    <property name="mlt_service">affine</property>
    <property name="kdenlive_id">pan_zoom</property>
    <property name="tag">affine</property>
    <property name="kdenlive_ix">2</property>
    <property name="kdenlive_info"/>
    <property name="disable"/>
    <property name="transition.geometry">-664/-169:2688x1512:100</property>
    <property name="transition.distort">0</property>
   </filter>
   <filter id="filter127">
    <property name="mlt_service">invert</property>
    <property name="kdenlive_id">invert</property>
    <property name="tag">invert</property>
    <property name="kdenlive_ix">3</property>
   </filter>
   <filter id="filter128">
    <property name="version">0,3</property>
    <property name="mlt_service">frei0r.saturat0r</property>
    <property name="kdenlive_id">frei0r.saturat0r</property>
    <property name="tag">frei0r.saturat0r</property>
    <property name="kdenlive_ix">4</property>
    <property name="Saturation">41716=0,047</property>
    <property name="kdenlive_info"/>
   </filter>
   <filter id="filter129">
    <property name="version">0,3</property>
    <property name="mlt_service">frei0r.levels</property>
    <property name="kdenlive_id">frei0r.levels</property>
    <property name="tag">frei0r.levels</property>
    <property name="kdenlive_ix">5</property>
    <property name="Channel">0,3</property>
    <property name="Input black level">41716=0,386</property>
    <property name="Input white level">41716=0,901</property>
    <property name="Gamma">41716=0,2145</property>
    <property name="Black output">41716=0</property>
    <property name="White output">41716=1</property>
    <property name="Show histogram">0</property>
    <property name="Histogram position">0,3</property>
    <property name="kdenlive_info"/>
   </filter>
  </entry>
  <blank length="65"/>
  <entry producer="37_playlist9" in="12423" out="12463"/>
  <entry producer="37_playlist9" in="12472" out="12505">
   <filter id="filter130" in="12472" out="12505">
    <property name="background">colour:0x00000000</property>
    <property name="mlt_service">affine</property>
    <property name="kdenlive_id">pan_zoom</property>
    <property name="tag">affine</property>
    <property name="kdenlive_ix">1</property>
    <property name="transition.geometry">0/0:2304x1296:100</property>
    <property name="transition.distort">0</property>
    <property name="kdenlive:sync_in_out">1</property>
    <property name="kdenlive_info"/>
   </filter>
  </entry>
  <blank length="83"/>
  <entry producer="37_playlist9" in="12511" out="12540"/>
  <blank length="101"/>
  <entry producer="37_playlist9" in="12642" out="12701"/>
  <blank length="84"/>
  <entry producer="37_playlist9" in="13007" out="13150"/>
  <blank length="95"/>
  <entry producer="37_playlist9" in="13119" out="13237"/>
  <entry producer="37_playlist9" in="14566" out="14687"/>
  <blank length="1552"/>
  <entry producer="37_playlist9" in="14884" out="14924"/>
  <blank length="224"/>
  <entry producer="37_playlist9" in="15149" out="15198"/>
  <blank length="1638"/>
  <entry producer="producer8" in="16837" out="16880"/>
  <blank length="243"/>
  <entry producer="37_playlist9" in="16877" out="16918"/>
  <blank length="121"/>
  <entry producer="37_playlist9" in="5023" out="5059">
   <filter id="gamma">
    <property name="gamma">5023=0,9</property>
    <property name="mlt_service">gamma</property>
    <property name="kdenlive_id">gamma</property>
    <property name="tag">gamma</property>
    <property name="kdenlive_ix">1</property>
    <property name="kdenlive_info"/>
    <property name="disable"/>
   </filter>
  </entry>
  <blank length="100"/>
  <entry producer="37_playlist9" in="17065" out="17088"/>
  <blank length="366"/>
  <entry producer="37_playlist9" in="17814" out="17869"/>
  <blank length="258"/>
  <entry producer="37_playlist9" in="18128" out="18152"/>
  <blank length="101"/>
  <entry producer="37_playlist9" in="18254" out="18313"/>
  <blank length="36"/>
  <entry producer="37_playlist9" in="18350" out="18395"/>
  <blank length="151"/>
  <entry producer="22_playlist9" in="102" out="173">
   <filter id="filter131">
    <property name="background">colour:0x00000000</property>
    <property name="mlt_service">affine</property>
    <property name="kdenlive_id">pan_zoom</property>
    <property name="tag">affine</property>
    <property name="kdenlive_ix">1</property>
    <property name="kdenlive_info"/>
    <property name="disable">0</property>
    <property name="transition.geometry">0=0/0:1920x1080:100;12=-192/-108:2304x1296:100;38=-192/-108:2304x1296:100;43=-384/-216:2688x1512:100</property>
    <property name="transition.distort">0</property>
   </filter>
  </entry>
  <blank length="156"/>
  <entry producer="slowmotion:37:2:1:0" in="7714" out="7736"/>
  <entry producer="slowmotion:37:0,5:1:0" in="30948" out="30997">
   <filter id="filter132">
    <property name="background">colour:0x00000000</property>
    <property name="mlt_service">affine</property>
    <property name="kdenlive_id">pan_zoom</property>
    <property name="tag">affine</property>
    <property name="kdenlive_ix">2</property>
    <property name="kdenlive_info"/>
    <property name="disable"/>
    <property name="transition.geometry">0/0:2880x1620:100</property>
    <property name="transition.distort">0</property>
   </filter>
  </entry>
 </playlist>
 <producer title="Anonymous Submission" id="37_playlist10" in="0" out="19885">
  <property name="length">00:06:37:36</property>
  <property name="eof">pause</property>
  <property name="resource">/media/bordun/plagiat2/2019-05-01_Plagiat_RespecteLaPuissancePapale_Lavare/CAM1_2019-01-05_0544_C0003.mov</property>
  <property name="audio_index">2</property>
  <property name="video_index">1</property>
  <property name="mute_on_pause">1</property>
  <property name="mlt_service">avformat-novalidate</property>
  <property name="seekable">1</property>
  <property name="aspect_ratio">1</property>
  <property name="kdenlive:folderid">17</property>
  <property name="kdenlive:file_size">18359664313</property>
  <property name="kdenlive:file_hash">46f909828b8adaa191142911fc3d1240</property>
  <property name="global_feed">1</property>
  <property name="xml">was here</property>
  <property name="meta.media.nb_streams">3</property>
  <property name="meta.media.1.stream.type">video</property>
  <property name="meta.media.1.stream.frame_rate">50</property>
  <property name="meta.media.1.stream.sample_aspect_ratio">1</property>
  <property name="meta.media.1.codec.width">1920</property>
  <property name="meta.media.1.codec.height">1080</property>
  <property name="meta.media.1.codec.rotate">0</property>
  <property name="meta.media.1.codec.frame_rate">5000</property>
  <property name="meta.media.1.codec.pix_fmt">yuv422p10le</property>
  <property name="meta.media.1.codec.sample_aspect_ratio">0</property>
  <property name="meta.media.1.codec.colorspace">709</property>
  <property name="meta.media.1.codec.color_trc">1</property>
  <property name="meta.media.1.codec.name">prores</property>
  <property name="meta.media.1.codec.long_name">ProRes</property>
  <property name="meta.media.1.codec.bit_rate">366956929</property>
  <property name="meta.attr.1.stream.creation_time.markup">2019-01-05T05:44:18.000000Z</property>
  <property name="meta.attr.1.stream.language.markup">eng</property>
  <property name="meta.attr.1.stream.handler_name.markup">Apple Alias Data Handler</property>
  <property name="meta.attr.1.stream.encoder.markup">Apple ProRes 422 HQ</property>
  <property name="meta.attr.1.stream.timecode.markup">05:44:18:23</property>
  <property name="meta.media.2.stream.type">audio</property>
  <property name="meta.media.2.codec.sample_fmt">s32</property>
  <property name="meta.media.2.codec.sample_rate">48000</property>
  <property name="meta.media.2.codec.channels">2</property>
  <property name="meta.media.2.codec.name">pcm_s24le</property>
  <property name="meta.media.2.codec.long_name">PCM signed 24-bit little-endian</property>
  <property name="meta.media.2.codec.bit_rate">2304000</property>
  <property name="meta.attr.2.stream.creation_time.markup">2019-01-05T05:44:18.000000Z</property>
  <property name="meta.attr.2.stream.language.markup">eng</property>
  <property name="meta.attr.2.stream.handler_name.markup">Apple Alias Data Handler</property>
  <property name="meta.attr.2.stream.timecode.markup">05:44:18:23</property>
  <property name="meta.attr.com.apple.proapps.manufacturer.markup">Blackmagic Design</property>
  <property name="meta.attr.com.apple.proapps.cameraName.markup">CAM1</property>
  <property name="meta.attr.com.apple.proapps.isGood.markup">0</property>
  <property name="meta.attr.com.apple.proapps.customgamma.markup">com.blackmagic-design.cinemacamera.filmlog</property>
  <property name="meta.attr.com.blackmagic-design.cinemacamera.uuid.markup">18E5E00548F94923B646613A73C01B56</property>
  <property name="meta.attr.creation_time.markup">2019-01-05T05:44:18.000000Z</property>
  <property name="meta.attr.timecode.markup">05:44:18:23</property>
  <property name="meta.media.sample_aspect_num">1</property>
  <property name="meta.media.sample_aspect_den">1</property>
  <property name="meta.media.frame_rate_num">50</property>
  <property name="meta.media.frame_rate_den">1</property>
  <property name="meta.media.colorspace">709</property>
  <property name="meta.media.color_trc">1</property>
  <property name="meta.media.width">1920</property>
  <property name="meta.media.height">1080</property>
  <property name="meta.media.top_field_first">0</property>
  <property name="meta.media.progressive">1</property>
  <filter id="filter133">
   <property name="version">0,3</property>
   <property name="mlt_service">frei0r.levels</property>
   <property name="kdenlive_id">frei0r.levels</property>
   <property name="tag">frei0r.levels</property>
   <property name="kdenlive_ix">1</property>
   <property name="kdenlive_info">1/-1/</property>
   <property name="Channel">0,3</property>
   <property name="Input black level">0=0,052</property>
   <property name="Input white level">0=1</property>
   <property name="Gamma">0=0,25</property>
   <property name="Black output">0=0</property>
   <property name="White output">0=0,95</property>
   <property name="Show histogram">0</property>
   <property name="Histogram position">0,3</property>
   <property name="disable">0</property>
  </filter>
 </producer>
 <producer title="Anonymous Submission" id="28_playlist10" in="0" out="43907">
  <property name="length">00:14:38:08</property>
  <property name="eof">pause</property>
  <property name="resource">/media/bordun/plagiat2/2019-05-01_Plagiat_RespecteLaPuissancePapale_Lavare/CAM1_2019-01-05_0407_C0000.mov</property>
  <property name="audio_index">2</property>
  <property name="video_index">1</property>
  <property name="mute_on_pause">1</property>
  <property name="mlt_service">avformat-novalidate</property>
  <property name="seekable">1</property>
  <property name="aspect_ratio">1</property>
  <property name="kdenlive:folderid">17</property>
  <property name="kdenlive:file_size">40537867713</property>
  <property name="kdenlive:file_hash">eeb49a6f6e2626b129e2046ec649a60c</property>
  <property name="global_feed">1</property>
  <property name="xml">was here</property>
  <property name="meta.media.nb_streams">3</property>
  <property name="meta.media.1.stream.type">video</property>
  <property name="meta.media.1.stream.frame_rate">50</property>
  <property name="meta.media.1.stream.sample_aspect_ratio">1</property>
  <property name="meta.media.1.codec.width">1920</property>
  <property name="meta.media.1.codec.height">1080</property>
  <property name="meta.media.1.codec.rotate">0</property>
  <property name="meta.media.1.codec.frame_rate">5000</property>
  <property name="meta.media.1.codec.pix_fmt">yuv422p10le</property>
  <property name="meta.media.1.codec.sample_aspect_ratio">0</property>
  <property name="meta.media.1.codec.colorspace">709</property>
  <property name="meta.media.1.codec.color_trc">1</property>
  <property name="meta.media.1.codec.name">prores</property>
  <property name="meta.media.1.codec.long_name">ProRes</property>
  <property name="meta.media.1.codec.bit_rate">366957037</property>
  <property name="meta.attr.1.stream.creation_time.markup">2019-01-05T04:07:04.000000Z</property>
  <property name="meta.attr.1.stream.language.markup">eng</property>
  <property name="meta.attr.1.stream.handler_name.markup">Apple Alias Data Handler</property>
  <property name="meta.attr.1.stream.encoder.markup">Apple ProRes 422 HQ</property>
  <property name="meta.attr.1.stream.timecode.markup">04:07:04:29</property>
  <property name="meta.media.2.stream.type">audio</property>
  <property name="meta.media.2.codec.sample_fmt">s32</property>
  <property name="meta.media.2.codec.sample_rate">48000</property>
  <property name="meta.media.2.codec.channels">2</property>
  <property name="meta.media.2.codec.name">pcm_s24le</property>
  <property name="meta.media.2.codec.long_name">PCM signed 24-bit little-endian</property>
  <property name="meta.media.2.codec.bit_rate">2304000</property>
  <property name="meta.attr.2.stream.creation_time.markup">2019-01-05T04:07:04.000000Z</property>
  <property name="meta.attr.2.stream.language.markup">eng</property>
  <property name="meta.attr.2.stream.handler_name.markup">Apple Alias Data Handler</property>
  <property name="meta.attr.2.stream.timecode.markup">04:07:04:29</property>
  <property name="meta.attr.com.apple.proapps.manufacturer.markup">Blackmagic Design</property>
  <property name="meta.attr.com.apple.proapps.cameraName.markup">CAM1</property>
  <property name="meta.attr.com.apple.proapps.isGood.markup">0</property>
  <property name="meta.attr.com.apple.proapps.customgamma.markup">com.blackmagic-design.cinemacamera.filmlog</property>
  <property name="meta.attr.com.blackmagic-design.cinemacamera.uuid.markup">18E5E00548F94923B646613A73C01B56</property>
  <property name="meta.attr.creation_time.markup">2019-01-05T04:07:04.000000Z</property>
  <property name="meta.attr.timecode.markup">04:07:04:29</property>
  <property name="meta.media.sample_aspect_num">1</property>
  <property name="meta.media.sample_aspect_den">1</property>
  <property name="meta.media.frame_rate_num">50</property>
  <property name="meta.media.frame_rate_den">1</property>
  <property name="meta.media.colorspace">709</property>
  <property name="meta.media.color_trc">1</property>
  <property name="meta.media.width">1920</property>
  <property name="meta.media.height">1080</property>
  <property name="meta.media.top_field_first">0</property>
  <property name="meta.media.progressive">1</property>
  <filter id="filter134">
   <property name="version">0,3</property>
   <property name="mlt_service">frei0r.levels</property>
   <property name="kdenlive_id">frei0r.levels</property>
   <property name="tag">frei0r.levels</property>
   <property name="kdenlive_ix">1</property>
   <property name="kdenlive_info"/>
   <property name="disable">0</property>
   <property name="Channel">0,3</property>
   <property name="Input black level">26882=0,03</property>
   <property name="Input white level">26882=1</property>
   <property name="Gamma">26882=0,25</property>
   <property name="Black output">26882=0</property>
   <property name="White output">26882=1</property>
   <property name="Show histogram">0</property>
   <property name="Histogram position">0,3</property>
  </filter>
 </producer>
 <producer title="Anonymous Submission" id="22_playlist10" in="0" out="2303">
  <property name="length">00:00:46:04</property>
  <property name="eof">pause</property>
  <property name="resource">/media/bordun/plagiat/2018-12-10_Plagiat_RespecteLaPuissancePapale/Carte_4/CAM1_2018-12-10_1921_C0005.mov</property>
  <property name="audio_index">2</property>
  <property name="video_index">1</property>
  <property name="mute_on_pause">1</property>
  <property name="mlt_service">avformat-novalidate</property>
  <property name="seekable">1</property>
  <property name="aspect_ratio">1</property>
  <property name="kdenlive:folderid">13</property>
  <property name="kdenlive:file_size">2127176129</property>
  <property name="kdenlive:file_hash">498399b1185fccb66f9150f51f3e9c22</property>
  <property name="global_feed">1</property>
  <property name="kdenlive:zone_in">102</property>
  <property name="kdenlive:zone_out">174</property>
  <property name="xml">was here</property>
  <property name="meta.media.nb_streams">3</property>
  <property name="meta.media.1.stream.type">video</property>
  <property name="meta.media.1.stream.frame_rate">50</property>
  <property name="meta.media.1.stream.sample_aspect_ratio">1</property>
  <property name="meta.media.1.codec.width">1920</property>
  <property name="meta.media.1.codec.height">1080</property>
  <property name="meta.media.1.codec.rotate">0</property>
  <property name="meta.media.1.codec.frame_rate">5000</property>
  <property name="meta.media.1.codec.pix_fmt">yuv422p10le</property>
  <property name="meta.media.1.codec.sample_aspect_ratio">0</property>
  <property name="meta.media.1.codec.colorspace">709</property>
  <property name="meta.media.1.codec.color_trc">1</property>
  <property name="meta.media.1.codec.name">prores</property>
  <property name="meta.media.1.codec.long_name">ProRes</property>
  <property name="meta.media.1.codec.bit_rate">366955247</property>
  <property name="meta.attr.1.stream.creation_time.markup">2018-12-10T19:21:23.000000Z</property>
  <property name="meta.attr.1.stream.language.markup">eng</property>
  <property name="meta.attr.1.stream.handler_name.markup">Apple Alias Data Handler</property>
  <property name="meta.attr.1.stream.encoder.markup">Apple ProRes 422 HQ</property>
  <property name="meta.attr.1.stream.timecode.markup">19:21:23:42</property>
  <property name="meta.media.2.stream.type">audio</property>
  <property name="meta.media.2.codec.sample_fmt">s32</property>
  <property name="meta.media.2.codec.sample_rate">48000</property>
  <property name="meta.media.2.codec.channels">2</property>
  <property name="meta.media.2.codec.name">pcm_s24le</property>
  <property name="meta.media.2.codec.long_name">PCM signed 24-bit little-endian</property>
  <property name="meta.media.2.codec.bit_rate">2304000</property>
  <property name="meta.attr.2.stream.creation_time.markup">2018-12-10T19:21:23.000000Z</property>
  <property name="meta.attr.2.stream.language.markup">eng</property>
  <property name="meta.attr.2.stream.handler_name.markup">Apple Alias Data Handler</property>
  <property name="meta.attr.2.stream.timecode.markup">19:21:23:42</property>
  <property name="meta.attr.com.apple.proapps.manufacturer.markup">Blackmagic Design</property>
  <property name="meta.attr.com.apple.proapps.cameraName.markup">CAM1</property>
  <property name="meta.attr.com.apple.proapps.isGood.markup">0</property>
  <property name="meta.attr.com.apple.proapps.customgamma.markup">com.blackmagic-design.cinemacamera.filmlog</property>
  <property name="meta.attr.com.blackmagic-design.cinemacamera.uuid.markup">18E5E00548F94923B646613A73C01B56</property>
  <property name="meta.attr.creation_time.markup">2018-12-10T19:21:23.000000Z</property>
  <property name="meta.attr.timecode.markup">19:21:23:42</property>
  <property name="meta.media.sample_aspect_num">1</property>
  <property name="meta.media.sample_aspect_den">1</property>
  <property name="meta.media.frame_rate_num">50</property>
  <property name="meta.media.frame_rate_den">1</property>
  <property name="meta.media.colorspace">709</property>
  <property name="meta.media.color_trc">1</property>
  <property name="meta.media.width">1920</property>
  <property name="meta.media.height">1080</property>
  <property name="meta.media.top_field_first">0</property>
  <property name="meta.media.progressive">1</property>
  <filter id="filter135">
   <property name="version">0,3</property>
   <property name="mlt_service">frei0r.levels</property>
   <property name="kdenlive_id">frei0r.levels</property>
   <property name="tag">frei0r.levels</property>
   <property name="kdenlive_ix">1</property>
   <property name="kdenlive_info"/>
   <property name="Channel">0,3</property>
   <property name="Input black level">0=0</property>
   <property name="Input white level">0=0,65</property>
   <property name="Gamma">0=0,29175</property>
   <property name="Black output">0=0</property>
   <property name="White output">0=1</property>
   <property name="Show histogram">0</property>
   <property name="Histogram position">0,3</property>
  </filter>
  <filter id="filter136">
   <property name="version">0,1</property>
   <property name="mlt_service">frei0r.colgate</property>
   <property name="kdenlive_id">frei0r.colgate</property>
   <property name="tag">frei0r.colgate</property>
   <property name="kdenlive_ix">2</property>
   <property name="kdenlive_info"/>
   <property name="Neutral Color">0x7f7f7fff</property>
   <property name="Color Temperature">0=0,6</property>
  </filter>
 </producer>
 <playlist id="playlist10">
  <property name="kdenlive:track_name">Video -5</property>
  <blank length="15046"/>
  <entry producer="37_playlist10" in="4059" out="4091"/>
  <blank length="401"/>
  <entry producer="37" in="16748" out="16783"/>
  <blank length="451"/>
  <entry producer="37_playlist10" in="5543" out="5572"/>
  <blank length="273"/>
  <entry producer="28_playlist10" in="27570" out="27614"/>
  <blank length="307"/>
  <entry producer="28_playlist10" in="27922" out="27998"/>
  <blank length="165"/>
  <entry producer="28_playlist10" in="28164" out="28190"/>
  <blank length="44"/>
  <entry producer="28_playlist10" in="28235" out="28258"/>
  <blank length="80"/>
  <entry producer="28_playlist10" in="28339" out="28384"/>
  <blank length="96"/>
  <entry producer="28_playlist10" in="28481" out="28533"/>
  <blank length="104"/>
  <entry producer="28_playlist10" in="28606" out="28639"/>
  <blank length="3528"/>
  <entry producer="37_playlist10" in="4232" out="4260"/>
  <blank length="264"/>
  <entry producer="22_playlist10" in="102" out="173">
   <filter id="filter137" in="102" out="173">
    <property name="background">colour:0x00000000</property>
    <property name="mlt_service">affine</property>
    <property name="kdenlive_id">pan_zoom</property>
    <property name="tag">affine</property>
    <property name="kdenlive_info"/>
    <property name="kdenlive_ix">1</property>
    <property name="disable">0</property>
    <property name="transition.geometry">0=0/0:1920x1080:100;12=-192/-108:2304x1296:100;38=-192/-108:2304x1296:100;43=-384/-216:2688x1512:100</property>
    <property name="transition.distort">0</property>
    <property name="kdenlive:sync_in_out">1</property>
   </filter>
  </entry>
 </playlist>
 <playlist id="playlist12">
  <property name="kdenlive:track_name">Video 2</property>
  <blank length="14750"/>
  <blank length="159"/>
  <blank length="86"/>
 </playlist>
 <producer title="Anonymous Submission" id="43_playlist13" in="0" out="3049">
  <property name="length">00:01:01:00</property>
  <property name="eof">pause</property>
  <property name="resource">/media/bordun/plagiat2/2019-05-01_Plagiat_RespecteLaPuissancePapale_Lavare/CAM1_2019-01-05_0605_C0005.mov</property>
  <property name="audio_index">2</property>
  <property name="video_index">1</property>
  <property name="mute_on_pause">1</property>
  <property name="mlt_service">avformat-novalidate</property>
  <property name="seekable">1</property>
  <property name="aspect_ratio">1</property>
  <property name="kdenlive:folderid">17</property>
  <property name="kdenlive:file_size">2815906853</property>
  <property name="kdenlive:file_hash">23a7c272941f6ead8c4c67cee7e89762</property>
  <property name="global_feed">1</property>
  <property name="kdenlive:zone_in">1516</property>
  <property name="kdenlive:zone_out">1758</property>
  <property name="xml">was here</property>
  <property name="meta.media.nb_streams">3</property>
  <property name="meta.media.1.stream.type">video</property>
  <property name="meta.media.1.stream.frame_rate">50</property>
  <property name="meta.media.1.stream.sample_aspect_ratio">1</property>
  <property name="meta.media.1.codec.width">1920</property>
  <property name="meta.media.1.codec.height">1080</property>
  <property name="meta.media.1.codec.rotate">0</property>
  <property name="meta.media.1.codec.frame_rate">5000</property>
  <property name="meta.media.1.codec.pix_fmt">yuv422p10le</property>
  <property name="meta.media.1.codec.sample_aspect_ratio">0</property>
  <property name="meta.media.1.codec.colorspace">709</property>
  <property name="meta.media.1.codec.color_trc">1</property>
  <property name="meta.media.1.codec.name">prores</property>
  <property name="meta.media.1.codec.long_name">ProRes</property>
  <property name="meta.media.1.codec.bit_rate">366958797</property>
  <property name="meta.attr.1.stream.creation_time.markup">2019-01-05T06:05:50.000000Z</property>
  <property name="meta.attr.1.stream.language.markup">eng</property>
  <property name="meta.attr.1.stream.handler_name.markup">Apple Alias Data Handler</property>
  <property name="meta.attr.1.stream.encoder.markup">Apple ProRes 422 HQ</property>
  <property name="meta.attr.1.stream.timecode.markup">06:05:50:13</property>
  <property name="meta.media.2.stream.type">audio</property>
  <property name="meta.media.2.codec.sample_fmt">s32</property>
  <property name="meta.media.2.codec.sample_rate">48000</property>
  <property name="meta.media.2.codec.channels">2</property>
  <property name="meta.media.2.codec.name">pcm_s24le</property>
  <property name="meta.media.2.codec.long_name">PCM signed 24-bit little-endian</property>
  <property name="meta.media.2.codec.bit_rate">2304000</property>
  <property name="meta.attr.2.stream.creation_time.markup">2019-01-05T06:05:50.000000Z</property>
  <property name="meta.attr.2.stream.language.markup">eng</property>
  <property name="meta.attr.2.stream.handler_name.markup">Apple Alias Data Handler</property>
  <property name="meta.attr.2.stream.timecode.markup">06:05:50:13</property>
  <property name="meta.attr.com.apple.proapps.manufacturer.markup">Blackmagic Design</property>
  <property name="meta.attr.com.apple.proapps.cameraName.markup">CAM1</property>
  <property name="meta.attr.com.apple.proapps.isGood.markup">0</property>
  <property name="meta.attr.com.apple.proapps.customgamma.markup">com.blackmagic-design.cinemacamera.filmlog</property>
  <property name="meta.attr.com.blackmagic-design.cinemacamera.uuid.markup">18E5E00548F94923B646613A73C01B56</property>
  <property name="meta.attr.creation_time.markup">2019-01-05T06:05:50.000000Z</property>
  <property name="meta.attr.timecode.markup">06:05:50:13</property>
  <property name="meta.media.sample_aspect_num">1</property>
  <property name="meta.media.sample_aspect_den">1</property>
  <property name="meta.media.frame_rate_num">50</property>
  <property name="meta.media.frame_rate_den">1</property>
  <property name="meta.media.colorspace">709</property>
  <property name="meta.media.color_trc">1</property>
  <property name="meta.media.width">1920</property>
  <property name="meta.media.height">1080</property>
  <property name="meta.media.top_field_first">0</property>
  <property name="meta.media.progressive">1</property>
  <filter id="filter138">
   <property name="version">0,3</property>
   <property name="mlt_service">frei0r.levels</property>
   <property name="kdenlive_id">frei0r.levels</property>
   <property name="tag">frei0r.levels</property>
   <property name="kdenlive_ix">1</property>
   <property name="kdenlive_info"/>
   <property name="Channel">0,3</property>
   <property name="Input black level">0=0,052</property>
   <property name="Input white level">0=1</property>
   <property name="Gamma">0=0,25</property>
   <property name="Black output">0=0</property>
   <property name="White output">0=0,95</property>
   <property name="Show histogram">0</property>
   <property name="Histogram position">0,3</property>
   <property name="disable">0</property>
  </filter>
 </producer>
 <producer title="Anonymous Submission" id="28_playlist13" in="0" out="43907">
  <property name="length">00:14:38:08</property>
  <property name="eof">pause</property>
  <property name="resource">/media/bordun/plagiat2/2019-05-01_Plagiat_RespecteLaPuissancePapale_Lavare/CAM1_2019-01-05_0407_C0000.mov</property>
  <property name="audio_index">2</property>
  <property name="video_index">1</property>
  <property name="mute_on_pause">1</property>
  <property name="mlt_service">avformat-novalidate</property>
  <property name="seekable">1</property>
  <property name="aspect_ratio">1</property>
  <property name="kdenlive:folderid">17</property>
  <property name="kdenlive:file_size">40537867713</property>
  <property name="kdenlive:file_hash">eeb49a6f6e2626b129e2046ec649a60c</property>
  <property name="global_feed">1</property>
  <property name="kdenlive:zone_in">28606</property>
  <property name="kdenlive:zone_out">28640</property>
  <property name="xml">was here</property>
  <property name="meta.media.nb_streams">3</property>
  <property name="meta.media.1.stream.type">video</property>
  <property name="meta.media.1.stream.frame_rate">50</property>
  <property name="meta.media.1.stream.sample_aspect_ratio">1</property>
  <property name="meta.media.1.codec.width">1920</property>
  <property name="meta.media.1.codec.height">1080</property>
  <property name="meta.media.1.codec.rotate">0</property>
  <property name="meta.media.1.codec.frame_rate">5000</property>
  <property name="meta.media.1.codec.pix_fmt">yuv422p10le</property>
  <property name="meta.media.1.codec.sample_aspect_ratio">0</property>
  <property name="meta.media.1.codec.colorspace">709</property>
  <property name="meta.media.1.codec.color_trc">1</property>
  <property name="meta.media.1.codec.name">prores</property>
  <property name="meta.media.1.codec.long_name">ProRes</property>
  <property name="meta.media.1.codec.bit_rate">366957037</property>
  <property name="meta.attr.1.stream.creation_time.markup">2019-01-05T04:07:04.000000Z</property>
  <property name="meta.attr.1.stream.language.markup">eng</property>
  <property name="meta.attr.1.stream.handler_name.markup">Apple Alias Data Handler</property>
  <property name="meta.attr.1.stream.encoder.markup">Apple ProRes 422 HQ</property>
  <property name="meta.attr.1.stream.timecode.markup">04:07:04:29</property>
  <property name="meta.media.2.stream.type">audio</property>
  <property name="meta.media.2.codec.sample_fmt">s32</property>
  <property name="meta.media.2.codec.sample_rate">48000</property>
  <property name="meta.media.2.codec.channels">2</property>
  <property name="meta.media.2.codec.name">pcm_s24le</property>
  <property name="meta.media.2.codec.long_name">PCM signed 24-bit little-endian</property>
  <property name="meta.media.2.codec.bit_rate">2304000</property>
  <property name="meta.attr.2.stream.creation_time.markup">2019-01-05T04:07:04.000000Z</property>
  <property name="meta.attr.2.stream.language.markup">eng</property>
  <property name="meta.attr.2.stream.handler_name.markup">Apple Alias Data Handler</property>
  <property name="meta.attr.2.stream.timecode.markup">04:07:04:29</property>
  <property name="meta.attr.com.apple.proapps.manufacturer.markup">Blackmagic Design</property>
  <property name="meta.attr.com.apple.proapps.cameraName.markup">CAM1</property>
  <property name="meta.attr.com.apple.proapps.isGood.markup">0</property>
  <property name="meta.attr.com.apple.proapps.customgamma.markup">com.blackmagic-design.cinemacamera.filmlog</property>
  <property name="meta.attr.com.blackmagic-design.cinemacamera.uuid.markup">18E5E00548F94923B646613A73C01B56</property>
  <property name="meta.attr.creation_time.markup">2019-01-05T04:07:04.000000Z</property>
  <property name="meta.attr.timecode.markup">04:07:04:29</property>
  <property name="meta.media.sample_aspect_num">1</property>
  <property name="meta.media.sample_aspect_den">1</property>
  <property name="meta.media.frame_rate_num">50</property>
  <property name="meta.media.frame_rate_den">1</property>
  <property name="meta.media.colorspace">709</property>
  <property name="meta.media.color_trc">1</property>
  <property name="meta.media.width">1920</property>
  <property name="meta.media.height">1080</property>
  <property name="meta.media.top_field_first">0</property>
  <property name="meta.media.progressive">1</property>
  <filter id="filter139">
   <property name="version">0,3</property>
   <property name="mlt_service">frei0r.levels</property>
   <property name="kdenlive_id">frei0r.levels</property>
   <property name="tag">frei0r.levels</property>
   <property name="kdenlive_ix">1</property>
   <property name="kdenlive_info">1/-1/</property>
   <property name="disable">0</property>
   <property name="Channel">0,3</property>
   <property name="Input black level">26882=0,03</property>
   <property name="Input white level">26882=1</property>
   <property name="Gamma">26882=0,25</property>
   <property name="Black output">26882=0</property>
   <property name="White output">26882=1</property>
   <property name="Show histogram">0</property>
   <property name="Histogram position">0,3</property>
  </filter>
 </producer>
 <producer title="Anonymous Submission" id="37_playlist13" in="0" out="19885">
  <property name="length">00:06:37:36</property>
  <property name="eof">pause</property>
  <property name="resource">/media/bordun/plagiat2/2019-05-01_Plagiat_RespecteLaPuissancePapale_Lavare/CAM1_2019-01-05_0544_C0003.mov</property>
  <property name="audio_index">2</property>
  <property name="video_index">1</property>
  <property name="mute_on_pause">1</property>
  <property name="mlt_service">avformat-novalidate</property>
  <property name="seekable">1</property>
  <property name="aspect_ratio">1</property>
  <property name="kdenlive:folderid">17</property>
  <property name="kdenlive:file_size">18359664313</property>
  <property name="kdenlive:file_hash">46f909828b8adaa191142911fc3d1240</property>
  <property name="global_feed">1</property>
  <property name="xml">was here</property>
  <property name="meta.media.nb_streams">3</property>
  <property name="meta.media.1.stream.type">video</property>
  <property name="meta.media.1.stream.frame_rate">50</property>
  <property name="meta.media.1.stream.sample_aspect_ratio">1</property>
  <property name="meta.media.1.codec.width">1920</property>
  <property name="meta.media.1.codec.height">1080</property>
  <property name="meta.media.1.codec.rotate">0</property>
  <property name="meta.media.1.codec.frame_rate">5000</property>
  <property name="meta.media.1.codec.pix_fmt">yuv422p10le</property>
  <property name="meta.media.1.codec.sample_aspect_ratio">0</property>
  <property name="meta.media.1.codec.colorspace">709</property>
  <property name="meta.media.1.codec.color_trc">1</property>
  <property name="meta.media.1.codec.name">prores</property>
  <property name="meta.media.1.codec.long_name">ProRes</property>
  <property name="meta.media.1.codec.bit_rate">366956929</property>
  <property name="meta.attr.1.stream.creation_time.markup">2019-01-05T05:44:18.000000Z</property>
  <property name="meta.attr.1.stream.language.markup">eng</property>
  <property name="meta.attr.1.stream.handler_name.markup">Apple Alias Data Handler</property>
  <property name="meta.attr.1.stream.encoder.markup">Apple ProRes 422 HQ</property>
  <property name="meta.attr.1.stream.timecode.markup">05:44:18:23</property>
  <property name="meta.media.2.stream.type">audio</property>
  <property name="meta.media.2.codec.sample_fmt">s32</property>
  <property name="meta.media.2.codec.sample_rate">48000</property>
  <property name="meta.media.2.codec.channels">2</property>
  <property name="meta.media.2.codec.name">pcm_s24le</property>
  <property name="meta.media.2.codec.long_name">PCM signed 24-bit little-endian</property>
  <property name="meta.media.2.codec.bit_rate">2304000</property>
  <property name="meta.attr.2.stream.creation_time.markup">2019-01-05T05:44:18.000000Z</property>
  <property name="meta.attr.2.stream.language.markup">eng</property>
  <property name="meta.attr.2.stream.handler_name.markup">Apple Alias Data Handler</property>
  <property name="meta.attr.2.stream.timecode.markup">05:44:18:23</property>
  <property name="meta.attr.com.apple.proapps.manufacturer.markup">Blackmagic Design</property>
  <property name="meta.attr.com.apple.proapps.cameraName.markup">CAM1</property>
  <property name="meta.attr.com.apple.proapps.isGood.markup">0</property>
  <property name="meta.attr.com.apple.proapps.customgamma.markup">com.blackmagic-design.cinemacamera.filmlog</property>
  <property name="meta.attr.com.blackmagic-design.cinemacamera.uuid.markup">18E5E00548F94923B646613A73C01B56</property>
  <property name="meta.attr.creation_time.markup">2019-01-05T05:44:18.000000Z</property>
  <property name="meta.attr.timecode.markup">05:44:18:23</property>
  <property name="meta.media.sample_aspect_num">1</property>
  <property name="meta.media.sample_aspect_den">1</property>
  <property name="meta.media.frame_rate_num">50</property>
  <property name="meta.media.frame_rate_den">1</property>
  <property name="meta.media.colorspace">709</property>
  <property name="meta.media.color_trc">1</property>
  <property name="meta.media.width">1920</property>
  <property name="meta.media.height">1080</property>
  <property name="meta.media.top_field_first">0</property>
  <property name="meta.media.progressive">1</property>
  <filter id="filter140">
   <property name="version">0,3</property>
   <property name="mlt_service">frei0r.levels</property>
   <property name="kdenlive_id">frei0r.levels</property>
   <property name="tag">frei0r.levels</property>
   <property name="kdenlive_ix">1</property>
   <property name="kdenlive_info">1/-1/</property>
   <property name="Channel">0,3</property>
   <property name="Input black level">0=0,052</property>
   <property name="Input white level">0=1</property>
   <property name="Gamma">0=0,25</property>
   <property name="Black output">0=0</property>
   <property name="White output">0=0,95</property>
   <property name="Show histogram">0</property>
   <property name="Histogram position">0,3</property>
   <property name="disable">0</property>
  </filter>
 </producer>
 <producer title="Anonymous Submission" id="8_playlist13" in="0" out="21621">
  <property name="length">00:07:12:22</property>
  <property name="eof">pause</property>
  <property name="resource">/media/bordun/plagiat/2018-12-10_Plagiat_RespecteLaPuissancePapale/Carte_2/CAM1_2018-12-10_1649_C0003.mov</property>
  <property name="audio_index">2</property>
  <property name="video_index">1</property>
  <property name="mute_on_pause">1</property>
  <property name="mlt_service">avformat-novalidate</property>
  <property name="seekable">1</property>
  <property name="aspect_ratio">1</property>
  <property name="kdenlive:folderid">7</property>
  <property name="kdenlive:file_size">19962436561</property>
  <property name="kdenlive:file_hash">5ccc04e85e02ddf58369dec9f30fa947</property>
  <property name="global_feed">1</property>
  <property name="xml">was here</property>
  <property name="meta.media.nb_streams">3</property>
  <property name="meta.media.1.stream.type">video</property>
  <property name="meta.media.1.stream.frame_rate">50</property>
  <property name="meta.media.1.stream.sample_aspect_ratio">1</property>
  <property name="meta.media.1.codec.width">1920</property>
  <property name="meta.media.1.codec.height">1080</property>
  <property name="meta.media.1.codec.rotate">0</property>
  <property name="meta.media.1.codec.frame_rate">5000</property>
  <property name="meta.media.1.codec.pix_fmt">yuv422p10le</property>
  <property name="meta.media.1.codec.sample_aspect_ratio">0</property>
  <property name="meta.media.1.codec.colorspace">709</property>
  <property name="meta.media.1.codec.color_trc">1</property>
  <property name="meta.media.1.codec.name">prores</property>
  <property name="meta.media.1.codec.long_name">ProRes</property>
  <property name="meta.media.1.codec.bit_rate">366956838</property>
  <property name="meta.attr.1.stream.creation_time.markup">2018-12-10T16:49:40.000000Z</property>
  <property name="meta.attr.1.stream.language.markup">eng</property>
  <property name="meta.attr.1.stream.handler_name.markup">Apple Alias Data Handler</property>
  <property name="meta.attr.1.stream.encoder.markup">Apple ProRes 422 HQ</property>
  <property name="meta.attr.1.stream.timecode.markup">16:49:40:04</property>
  <property name="meta.media.2.stream.type">audio</property>
  <property name="meta.media.2.codec.sample_fmt">s32</property>
  <property name="meta.media.2.codec.sample_rate">48000</property>
  <property name="meta.media.2.codec.channels">2</property>
  <property name="meta.media.2.codec.name">pcm_s24le</property>
  <property name="meta.media.2.codec.long_name">PCM signed 24-bit little-endian</property>
  <property name="meta.media.2.codec.bit_rate">2304000</property>
  <property name="meta.attr.2.stream.creation_time.markup">2018-12-10T16:49:40.000000Z</property>
  <property name="meta.attr.2.stream.language.markup">eng</property>
  <property name="meta.attr.2.stream.handler_name.markup">Apple Alias Data Handler</property>
  <property name="meta.attr.2.stream.timecode.markup">16:49:40:04</property>
  <property name="meta.attr.com.apple.proapps.manufacturer.markup">Blackmagic Design</property>
  <property name="meta.attr.com.apple.proapps.cameraName.markup">CAM1</property>
  <property name="meta.attr.com.apple.proapps.isGood.markup">0</property>
  <property name="meta.attr.com.apple.proapps.customgamma.markup">com.blackmagic-design.cinemacamera.filmlog</property>
  <property name="meta.attr.com.blackmagic-design.cinemacamera.uuid.markup">18E5E00548F94923B646613A73C01B56</property>
  <property name="meta.attr.creation_time.markup">2018-12-10T16:49:40.000000Z</property>
  <property name="meta.attr.timecode.markup">16:49:40:04</property>
  <property name="meta.media.sample_aspect_num">1</property>
  <property name="meta.media.sample_aspect_den">1</property>
  <property name="meta.media.frame_rate_num">50</property>
  <property name="meta.media.frame_rate_den">1</property>
  <property name="meta.media.colorspace">709</property>
  <property name="meta.media.color_trc">1</property>
  <property name="meta.media.width">1920</property>
  <property name="meta.media.height">1080</property>
  <property name="meta.media.top_field_first">0</property>
  <property name="meta.media.progressive">1</property>
  <filter id="filter141">
   <property name="version">0,1</property>
   <property name="mlt_service">frei0r.colgate</property>
   <property name="kdenlive_id">frei0r.colgate</property>
   <property name="tag">frei0r.colgate</property>
   <property name="kdenlive_ix">1</property>
   <property name="kdenlive_info"/>
   <property name="Neutral Color">0x7f7f7fff</property>
   <property name="Color Temperature">0=0,533333</property>
  </filter>
  <filter id="filter142">
   <property name="version">0,3</property>
   <property name="mlt_service">frei0r.levels</property>
   <property name="kdenlive_id">frei0r.levels</property>
   <property name="tag">frei0r.levels</property>
   <property name="kdenlive_ix">2</property>
   <property name="kdenlive_info"/>
   <property name="Channel">0,3</property>
   <property name="Input black level">0=0,01</property>
   <property name="Input white level">0=0,9</property>
   <property name="Gamma">0=0,2875</property>
   <property name="Black output">0=0</property>
   <property name="White output">0=1</property>
   <property name="Show histogram">0</property>
   <property name="Histogram position">0,3</property>
  </filter>
 </producer>
 <producer title="Anonymous Submission" id="25_playlist13" in="0" out="4317">
  <property name="length">00:01:26:18</property>
  <property name="eof">pause</property>
  <property name="resource">/media/bordun/plagiat/2018-12-10_Plagiat_RespecteLaPuissancePapale/Carte_4/CAM1_2018-12-10_1941_C0008.mov</property>
  <property name="audio_index">2</property>
  <property name="video_index">1</property>
  <property name="mute_on_pause">1</property>
  <property name="mlt_service">avformat-novalidate</property>
  <property name="seekable">1</property>
  <property name="aspect_ratio">1</property>
  <property name="kdenlive:folderid">7</property>
  <property name="kdenlive:file_size">3986584833</property>
  <property name="kdenlive:file_hash">090baf1e7089bd64f9705012f4444883</property>
  <property name="global_feed">1</property>
  <property name="kdenlive:zone_in">2564</property>
  <property name="kdenlive:zone_out">2595</property>
  <property name="xml">was here</property>
  <property name="meta.media.nb_streams">3</property>
  <property name="meta.media.1.stream.type">video</property>
  <property name="meta.media.1.stream.frame_rate">50</property>
  <property name="meta.media.1.stream.sample_aspect_ratio">1</property>
  <property name="meta.media.1.codec.width">1920</property>
  <property name="meta.media.1.codec.height">1080</property>
  <property name="meta.media.1.codec.rotate">0</property>
  <property name="meta.media.1.codec.frame_rate">5000</property>
  <property name="meta.media.1.codec.pix_fmt">yuv422p10le</property>
  <property name="meta.media.1.codec.sample_aspect_ratio">0</property>
  <property name="meta.media.1.codec.colorspace">709</property>
  <property name="meta.media.1.codec.color_trc">1</property>
  <property name="meta.media.1.codec.name">prores</property>
  <property name="meta.media.1.codec.long_name">ProRes</property>
  <property name="meta.media.1.codec.bit_rate">366957366</property>
  <property name="meta.attr.1.stream.creation_time.markup">2018-12-10T19:41:35.000000Z</property>
  <property name="meta.attr.1.stream.language.markup">eng</property>
  <property name="meta.attr.1.stream.handler_name.markup">Apple Alias Data Handler</property>
  <property name="meta.attr.1.stream.encoder.markup">Apple ProRes 422 HQ</property>
  <property name="meta.attr.1.stream.timecode.markup">19:41:35:01</property>
  <property name="meta.media.2.stream.type">audio</property>
  <property name="meta.media.2.codec.sample_fmt">s32</property>
  <property name="meta.media.2.codec.sample_rate">48000</property>
  <property name="meta.media.2.codec.channels">2</property>
  <property name="meta.media.2.codec.name">pcm_s24le</property>
  <property name="meta.media.2.codec.long_name">PCM signed 24-bit little-endian</property>
  <property name="meta.media.2.codec.bit_rate">2304000</property>
  <property name="meta.attr.2.stream.creation_time.markup">2018-12-10T19:41:35.000000Z</property>
  <property name="meta.attr.2.stream.language.markup">eng</property>
  <property name="meta.attr.2.stream.handler_name.markup">Apple Alias Data Handler</property>
  <property name="meta.attr.2.stream.timecode.markup">19:41:35:01</property>
  <property name="meta.attr.com.apple.proapps.manufacturer.markup">Blackmagic Design</property>
  <property name="meta.attr.com.apple.proapps.cameraName.markup">CAM1</property>
  <property name="meta.attr.com.apple.proapps.isGood.markup">0</property>
  <property name="meta.attr.com.apple.proapps.customgamma.markup">com.blackmagic-design.cinemacamera.filmlog</property>
  <property name="meta.attr.com.blackmagic-design.cinemacamera.uuid.markup">18E5E00548F94923B646613A73C01B56</property>
  <property name="meta.attr.creation_time.markup">2018-12-10T19:41:35.000000Z</property>
  <property name="meta.attr.timecode.markup">19:41:35:01</property>
  <property name="meta.media.sample_aspect_num">1</property>
  <property name="meta.media.sample_aspect_den">1</property>
  <property name="meta.media.frame_rate_num">50</property>
  <property name="meta.media.frame_rate_den">1</property>
  <property name="meta.media.colorspace">709</property>
  <property name="meta.media.color_trc">1</property>
  <property name="meta.media.width">1920</property>
  <property name="meta.media.height">1080</property>
  <property name="meta.media.top_field_first">0</property>
  <property name="meta.media.progressive">1</property>
  <filter id="filter143">
   <property name="version">0,1</property>
   <property name="mlt_service">frei0r.colgate</property>
   <property name="kdenlive_id">frei0r.colgate</property>
   <property name="tag">frei0r.colgate</property>
   <property name="kdenlive_ix">1</property>
   <property name="kdenlive_info"/>
   <property name="Neutral Color">0x7f7f7fff</property>
   <property name="Color Temperature">0=0,533333</property>
  </filter>
  <filter id="filter144">
   <property name="version">0,3</property>
   <property name="mlt_service">frei0r.levels</property>
   <property name="kdenlive_id">frei0r.levels</property>
   <property name="tag">frei0r.levels</property>
   <property name="kdenlive_ix">2</property>
   <property name="kdenlive_info"/>
   <property name="Channel">0,3</property>
   <property name="Input black level">0=0,01</property>
   <property name="Input white level">0=0,9</property>
   <property name="Gamma">0=0,25</property>
   <property name="Black output">0=0</property>
   <property name="White output">0=1</property>
   <property name="Show histogram">0</property>
   <property name="Histogram position">0,3</property>
  </filter>
 </producer>
 <producer id="slowmotion:25:0,8:1:0" in="0" out="5397">
  <property name="length">5398</property>
  <property name="eof">pause</property>
  <property name="resource">0,8:/media/bordun/plagiat/2018-12-10_Plagiat_RespecteLaPuissancePapale/Carte_4/CAM1_2018-12-10_1941_C0008.mov</property>
  <property name="aspect_ratio">1</property>
  <property name="meta.media.nb_streams">3</property>
  <property name="meta.media.1.stream.type">video</property>
  <property name="meta.media.1.stream.frame_rate">50</property>
  <property name="meta.media.1.stream.sample_aspect_ratio">1</property>
  <property name="meta.media.1.codec.width">1920</property>
  <property name="meta.media.1.codec.height">1080</property>
  <property name="meta.media.1.codec.rotate">0</property>
  <property name="meta.media.1.codec.frame_rate">5000</property>
  <property name="meta.media.1.codec.pix_fmt">yuv422p10le</property>
  <property name="meta.media.1.codec.sample_aspect_ratio">0</property>
  <property name="meta.media.1.codec.colorspace">709</property>
  <property name="meta.media.1.codec.color_trc">1</property>
  <property name="meta.media.1.codec.name">prores</property>
  <property name="meta.media.1.codec.long_name">ProRes</property>
  <property name="meta.media.1.codec.bit_rate">366957366</property>
  <property name="meta.attr.1.stream.creation_time.markup">2018-12-10T19:41:35.000000Z</property>
  <property name="meta.attr.1.stream.language.markup">eng</property>
  <property name="meta.attr.1.stream.handler_name.markup">Apple Alias Data Handler</property>
  <property name="meta.attr.1.stream.encoder.markup">Apple ProRes 422 HQ</property>
  <property name="meta.attr.1.stream.timecode.markup">19:41:35:01</property>
  <property name="meta.media.2.stream.type">audio</property>
  <property name="meta.media.2.codec.sample_fmt">s32</property>
  <property name="meta.media.2.codec.sample_rate">48000</property>
  <property name="meta.media.2.codec.channels">2</property>
  <property name="meta.media.2.codec.name">pcm_s24le</property>
  <property name="meta.media.2.codec.long_name">PCM signed 24-bit little-endian</property>
  <property name="meta.media.2.codec.bit_rate">2304000</property>
  <property name="meta.attr.2.stream.creation_time.markup">2018-12-10T19:41:35.000000Z</property>
  <property name="meta.attr.2.stream.language.markup">eng</property>
  <property name="meta.attr.2.stream.handler_name.markup">Apple Alias Data Handler</property>
  <property name="meta.attr.2.stream.timecode.markup">19:41:35:01</property>
  <property name="meta.attr.com.apple.proapps.manufacturer.markup">Blackmagic Design</property>
  <property name="meta.attr.com.apple.proapps.cameraName.markup">CAM1</property>
  <property name="meta.attr.com.apple.proapps.isGood.markup">0</property>
  <property name="meta.attr.com.apple.proapps.customgamma.markup">com.blackmagic-design.cinemacamera.filmlog</property>
  <property name="meta.attr.com.blackmagic-design.cinemacamera.uuid.markup">18E5E00548F94923B646613A73C01B56</property>
  <property name="meta.attr.creation_time.markup">2018-12-10T19:41:35.000000Z</property>
  <property name="meta.attr.timecode.markup">19:41:35:01</property>
  <property name="seekable">1</property>
  <property name="meta.media.sample_aspect_num">1</property>
  <property name="meta.media.sample_aspect_den">1</property>
  <property name="audio_index">2</property>
  <property name="video_index">1</property>
  <property name="mute_on_pause">1</property>
  <property name="warp_speed">0,8</property>
  <property name="warp_resource">/media/bordun/plagiat/2018-12-10_Plagiat_RespecteLaPuissancePapale/Carte_4/CAM1_2018-12-10_1941_C0008.mov</property>
  <property name="mlt_service">timewarp</property>
  <property name="meta.media.frame_rate_num">50</property>
  <property name="meta.media.frame_rate_den">1</property>
  <property name="meta.media.colorspace">709</property>
  <property name="meta.media.color_trc">1</property>
  <property name="meta.media.width">1920</property>
  <property name="meta.media.height">1080</property>
  <property name="meta.media.top_field_first">0</property>
  <property name="meta.media.progressive">1</property>
 </producer>
 <playlist id="playlist13">
  <property name="kdenlive:track_name">Video 3</property>
  <blank length="14750"/>
  <entry producer="slowmotion:41:0,6:1:0" in="41468" out="41708">
   <filter id="filter145">
    <property name="version">0,2</property>
    <property name="mlt_service">frei0r.vignette</property>
    <property name="kdenlive_id">frei0r.vignette</property>
    <property name="tag">frei0r.vignette</property>
    <property name="kdenlive_ix">2</property>
    <property name="kdenlive_info"/>
    <property name="disable"/>
    <property name="aspect">41468=0,588</property>
    <property name="clearCenter">41468=0,495</property>
    <property name="soft">41468=0,575</property>
   </filter>
   <filter id="filter146">
    <property name="version">0,3</property>
    <property name="mlt_service">frei0r.levels</property>
    <property name="kdenlive_id">frei0r.levels</property>
    <property name="tag">frei0r.levels</property>
    <property name="kdenlive_ix">3</property>
    <property name="Channel">0,3</property>
    <property name="Input black level">41468=0,058</property>
    <property name="Input white level">41468=0,823</property>
    <property name="Gamma">41468=0,3265</property>
    <property name="Black output">41468=0,082</property>
    <property name="White output">41468=0,811</property>
    <property name="Show histogram">0</property>
    <property name="Histogram position">0,3</property>
    <property name="kdenlive_info"/>
   </filter>
  </entry>
  <entry producer="slowmotion:41:0,6:1:0" in="41709" out="41710">
   <filter id="filter147">
    <property name="version">0,2</property>
    <property name="mlt_service">frei0r.vignette</property>
    <property name="kdenlive_id">frei0r.vignette</property>
    <property name="tag">frei0r.vignette</property>
    <property name="kdenlive_ix">2</property>
    <property name="kdenlive_info"/>
    <property name="disable"/>
    <property name="aspect">41468=0,588</property>
    <property name="clearCenter">41468=0,495</property>
    <property name="soft">41468=0,575</property>
   </filter>
   <filter id="filter148">
    <property name="version">0,3</property>
    <property name="mlt_service">frei0r.levels</property>
    <property name="kdenlive_id">frei0r.levels</property>
    <property name="tag">frei0r.levels</property>
    <property name="kdenlive_ix">3</property>
    <property name="Channel">0,3</property>
    <property name="Input black level">41468=0,058</property>
    <property name="Input white level">41468=0,823</property>
    <property name="Gamma">41468=0,3265</property>
    <property name="Black output">41468=0,082</property>
    <property name="White output">41468=0,811</property>
    <property name="Show histogram">0</property>
    <property name="Histogram position">0,3</property>
    <property name="kdenlive_info"/>
   </filter>
   <filter id="filter149">
    <property name="version">0,2</property>
    <property name="mlt_service">frei0r.nosync0r</property>
    <property name="kdenlive_id">frei0r.nosync0r</property>
    <property name="tag">frei0r.nosync0r</property>
    <property name="kdenlive_ix">4</property>
    <property name="HSync">0,932</property>
    <property name="kdenlive_info"/>
   </filter>
  </entry>
  <entry producer="slowmotion:41:0,6:1:0" in="41711" out="41712">
   <filter id="filter150">
    <property name="version">0,2</property>
    <property name="mlt_service">frei0r.vignette</property>
    <property name="kdenlive_id">frei0r.vignette</property>
    <property name="tag">frei0r.vignette</property>
    <property name="kdenlive_ix">2</property>
    <property name="kdenlive_info"/>
    <property name="disable"/>
    <property name="aspect">41468=0,588</property>
    <property name="clearCenter">41468=0,495</property>
    <property name="soft">41468=0,575</property>
   </filter>
   <filter id="filter151">
    <property name="version">0,3</property>
    <property name="mlt_service">frei0r.levels</property>
    <property name="kdenlive_id">frei0r.levels</property>
    <property name="tag">frei0r.levels</property>
    <property name="kdenlive_ix">3</property>
    <property name="Channel">0,3</property>
    <property name="Input black level">41468=0,058</property>
    <property name="Input white level">41468=0,823</property>
    <property name="Gamma">41468=0,3265</property>
    <property name="Black output">41468=0,082</property>
    <property name="White output">41468=0,811</property>
    <property name="Show histogram">0</property>
    <property name="Histogram position">0,3</property>
    <property name="kdenlive_info"/>
   </filter>
   <filter id="filter152">
    <property name="version">0,2</property>
    <property name="mlt_service">frei0r.nosync0r</property>
    <property name="kdenlive_id">frei0r.nosync0r</property>
    <property name="tag">frei0r.nosync0r</property>
    <property name="kdenlive_ix">4</property>
    <property name="HSync">0,83</property>
    <property name="kdenlive_info"/>
   </filter>
  </entry>
  <entry producer="slowmotion:41:0,6:1:0" in="41713" out="41714">
   <filter id="filter153">
    <property name="version">0,2</property>
    <property name="mlt_service">frei0r.vignette</property>
    <property name="kdenlive_id">frei0r.vignette</property>
    <property name="tag">frei0r.vignette</property>
    <property name="kdenlive_ix">2</property>
    <property name="kdenlive_info"/>
    <property name="disable"/>
    <property name="aspect">41468=0,588</property>
    <property name="clearCenter">41468=0,495</property>
    <property name="soft">41468=0,575</property>
   </filter>
   <filter id="filter154">
    <property name="version">0,3</property>
    <property name="mlt_service">frei0r.levels</property>
    <property name="kdenlive_id">frei0r.levels</property>
    <property name="tag">frei0r.levels</property>
    <property name="kdenlive_ix">3</property>
    <property name="Channel">0,3</property>
    <property name="Input black level">41468=0,058</property>
    <property name="Input white level">41468=0,823</property>
    <property name="Gamma">41468=0,3265</property>
    <property name="Black output">41468=0,082</property>
    <property name="White output">41468=0,811</property>
    <property name="Show histogram">0</property>
    <property name="Histogram position">0,3</property>
    <property name="kdenlive_info"/>
   </filter>
   <filter id="filter155">
    <property name="version">0,2</property>
    <property name="mlt_service">frei0r.nosync0r</property>
    <property name="kdenlive_id">frei0r.nosync0r</property>
    <property name="tag">frei0r.nosync0r</property>
    <property name="kdenlive_ix">4</property>
    <property name="HSync">0,934</property>
    <property name="kdenlive_info"/>
   </filter>
  </entry>
  <entry producer="slowmotion:41:0,6:1:0" in="41715" out="41715">
   <filter id="filter156">
    <property name="version">0,2</property>
    <property name="mlt_service">frei0r.vignette</property>
    <property name="kdenlive_id">frei0r.vignette</property>
    <property name="tag">frei0r.vignette</property>
    <property name="kdenlive_ix">2</property>
    <property name="kdenlive_info"/>
    <property name="disable"/>
    <property name="aspect">41468=0,588</property>
    <property name="clearCenter">41468=0,495</property>
    <property name="soft">41468=0,575</property>
   </filter>
   <filter id="filter157">
    <property name="version">0,3</property>
    <property name="mlt_service">frei0r.levels</property>
    <property name="kdenlive_id">frei0r.levels</property>
    <property name="tag">frei0r.levels</property>
    <property name="kdenlive_ix">3</property>
    <property name="Channel">0,3</property>
    <property name="Input black level">41468=0,058</property>
    <property name="Input white level">41468=0,823</property>
    <property name="Gamma">41468=0,3265</property>
    <property name="Black output">41468=0,082</property>
    <property name="White output">41468=0,811</property>
    <property name="Show histogram">0</property>
    <property name="Histogram position">0,3</property>
    <property name="kdenlive_info"/>
   </filter>
   <filter id="filter158">
    <property name="version">0,2</property>
    <property name="mlt_service">frei0r.nosync0r</property>
    <property name="kdenlive_id">frei0r.nosync0r</property>
    <property name="tag">frei0r.nosync0r</property>
    <property name="kdenlive_ix">4</property>
    <property name="HSync">0,151</property>
    <property name="kdenlive_info"/>
   </filter>
  </entry>
  <blank length="3898"/>
  <entry producer="43_playlist13" in="1554" out="1555">
   <filter id="filter159">
    <property name="background">colour:0x00000000</property>
    <property name="mlt_service">affine</property>
    <property name="kdenlive_id">pan_zoom</property>
    <property name="tag">affine</property>
    <property name="kdenlive_ix">1</property>
    <property name="kdenlive_info"/>
    <property name="disable"/>
    <property name="transition.geometry">0=-91/-52:3072x1728:100;125=-91/-52:3072x1728:100;126=0/0:2496x1404:100</property>
    <property name="transition.distort">0</property>
   </filter>
   <filter id="filter160">
    <property name="version">0,3</property>
    <property name="mlt_service">frei0r.levels</property>
    <property name="kdenlive_id">frei0r.levels</property>
    <property name="tag">frei0r.levels</property>
    <property name="kdenlive_ix">2</property>
    <property name="Channel">0,3</property>
    <property name="Input black level">1554=0</property>
    <property name="Input white level">1554=1</property>
    <property name="Gamma">1554=0,1975</property>
    <property name="Black output">1554=0</property>
    <property name="White output">1554=0,949</property>
    <property name="Show histogram">0</property>
    <property name="Histogram position">0,3</property>
    <property name="kdenlive_info"/>
    <property name="disable"/>
   </filter>
   <filter id="filter161">
    <property name="version">0,2</property>
    <property name="mlt_service">frei0r.nosync0r</property>
    <property name="kdenlive_id">frei0r.nosync0r</property>
    <property name="tag">frei0r.nosync0r</property>
    <property name="kdenlive_info"/>
    <property name="kdenlive_ix">3</property>
    <property name="disable"/>
    <property name="HSync">0,162</property>
   </filter>
  </entry>
  <entry producer="43_playlist13" in="1556" out="1557">
   <filter id="filter162">
    <property name="background">colour:0x00000000</property>
    <property name="mlt_service">affine</property>
    <property name="kdenlive_id">pan_zoom</property>
    <property name="tag">affine</property>
    <property name="kdenlive_ix">1</property>
    <property name="kdenlive_info"/>
    <property name="disable"/>
    <property name="transition.geometry">0=-91/-52:3072x1728:100;125=-91/-52:3072x1728:100;126=0/0:2496x1404:100</property>
    <property name="transition.distort">0</property>
   </filter>
   <filter id="filter163">
    <property name="version">0,3</property>
    <property name="mlt_service">frei0r.levels</property>
    <property name="kdenlive_id">frei0r.levels</property>
    <property name="tag">frei0r.levels</property>
    <property name="kdenlive_ix">2</property>
    <property name="Channel">0,3</property>
    <property name="Input black level">1554=0</property>
    <property name="Input white level">1554=1</property>
    <property name="Gamma">1554=0,1975</property>
    <property name="Black output">1554=0</property>
    <property name="White output">1554=0,949</property>
    <property name="Show histogram">0</property>
    <property name="Histogram position">0,3</property>
    <property name="kdenlive_info"/>
    <property name="disable"/>
   </filter>
   <filter id="filter164">
    <property name="version">0,2</property>
    <property name="mlt_service">frei0r.nosync0r</property>
    <property name="kdenlive_id">frei0r.nosync0r</property>
    <property name="tag">frei0r.nosync0r</property>
    <property name="kdenlive_info"/>
    <property name="kdenlive_ix">3</property>
    <property name="disable"/>
    <property name="HSync">0,041</property>
   </filter>
  </entry>
  <entry producer="43_playlist13" in="1558" out="1623">
   <filter id="filter165">
    <property name="background">colour:0x00000000</property>
    <property name="mlt_service">affine</property>
    <property name="kdenlive_id">pan_zoom</property>
    <property name="tag">affine</property>
    <property name="kdenlive_ix">1</property>
    <property name="kdenlive_info"/>
    <property name="disable"/>
    <property name="transition.geometry">0=-91/-52:3072x1728:100;125=-91/-52:3072x1728:100;126=0/0:2496x1404:100</property>
    <property name="transition.distort">0</property>
   </filter>
   <filter id="filter166">
    <property name="version">0,3</property>
    <property name="mlt_service">frei0r.levels</property>
    <property name="kdenlive_id">frei0r.levels</property>
    <property name="tag">frei0r.levels</property>
    <property name="kdenlive_ix">2</property>
    <property name="Channel">0,3</property>
    <property name="Input black level">1554=0</property>
    <property name="Input white level">1554=1</property>
    <property name="Gamma">1554=0,1975</property>
    <property name="Black output">1554=0</property>
    <property name="White output">1554=0,949</property>
    <property name="Show histogram">0</property>
    <property name="Histogram position">0,3</property>
    <property name="kdenlive_info"/>
    <property name="disable"/>
   </filter>
  </entry>
  <entry producer="43_playlist13" in="1624" out="1625">
   <filter id="filter167">
    <property name="background">colour:0x00000000</property>
    <property name="mlt_service">affine</property>
    <property name="kdenlive_id">pan_zoom</property>
    <property name="tag">affine</property>
    <property name="kdenlive_ix">1</property>
    <property name="kdenlive_info"/>
    <property name="disable"/>
    <property name="transition.geometry">0=-91/-52:3072x1728:100;125=-91/-52:3072x1728:100;126=0/0:2496x1404:100</property>
    <property name="transition.distort">0</property>
   </filter>
   <filter id="filter168">
    <property name="version">0,3</property>
    <property name="mlt_service">frei0r.levels</property>
    <property name="kdenlive_id">frei0r.levels</property>
    <property name="tag">frei0r.levels</property>
    <property name="kdenlive_ix">2</property>
    <property name="Channel">0,3</property>
    <property name="Input black level">1554=0</property>
    <property name="Input white level">1554=1</property>
    <property name="Gamma">1554=0,1975</property>
    <property name="Black output">1554=0</property>
    <property name="White output">1554=0,949</property>
    <property name="Show histogram">0</property>
    <property name="Histogram position">0,3</property>
    <property name="kdenlive_info"/>
    <property name="disable"/>
   </filter>
   <filter id="filter169">
    <property name="version">0,2</property>
    <property name="mlt_service">frei0r.nosync0r</property>
    <property name="kdenlive_id">frei0r.nosync0r</property>
    <property name="tag">frei0r.nosync0r</property>
    <property name="kdenlive_ix">3</property>
    <property name="HSync">0,963</property>
    <property name="kdenlive_info"/>
   </filter>
  </entry>
  <entry producer="43_playlist13" in="1626" out="1627">
   <filter id="filter170">
    <property name="background">colour:0x00000000</property>
    <property name="mlt_service">affine</property>
    <property name="kdenlive_id">pan_zoom</property>
    <property name="tag">affine</property>
    <property name="kdenlive_ix">1</property>
    <property name="kdenlive_info"/>
    <property name="disable"/>
    <property name="transition.geometry">0=-91/-52:3072x1728:100;125=-91/-52:3072x1728:100;126=0/0:2496x1404:100</property>
    <property name="transition.distort">0</property>
   </filter>
   <filter id="filter171">
    <property name="version">0,3</property>
    <property name="mlt_service">frei0r.levels</property>
    <property name="kdenlive_id">frei0r.levels</property>
    <property name="tag">frei0r.levels</property>
    <property name="kdenlive_ix">2</property>
    <property name="Channel">0,3</property>
    <property name="Input black level">1554=0</property>
    <property name="Input white level">1554=1</property>
    <property name="Gamma">1554=0,1975</property>
    <property name="Black output">1554=0</property>
    <property name="White output">1554=0,949</property>
    <property name="Show histogram">0</property>
    <property name="Histogram position">0,3</property>
    <property name="kdenlive_info"/>
    <property name="disable"/>
   </filter>
   <filter id="filter172">
    <property name="version">0,2</property>
    <property name="mlt_service">frei0r.nosync0r</property>
    <property name="kdenlive_id">frei0r.nosync0r</property>
    <property name="tag">frei0r.nosync0r</property>
    <property name="kdenlive_ix">3</property>
    <property name="HSync">0,815</property>
    <property name="kdenlive_info"/>
   </filter>
  </entry>
  <entry producer="43_playlist13" in="1628" out="1633">
   <filter id="filter173">
    <property name="background">colour:0x00000000</property>
    <property name="mlt_service">affine</property>
    <property name="kdenlive_id">pan_zoom</property>
    <property name="tag">affine</property>
    <property name="kdenlive_ix">1</property>
    <property name="kdenlive_info"/>
    <property name="disable"/>
    <property name="transition.geometry">0=-91/-52:3072x1728:100;125=-91/-52:3072x1728:100;126=0/0:2496x1404:100</property>
    <property name="transition.distort">0</property>
   </filter>
   <filter id="filter174">
    <property name="version">0,3</property>
    <property name="mlt_service">frei0r.levels</property>
    <property name="kdenlive_id">frei0r.levels</property>
    <property name="tag">frei0r.levels</property>
    <property name="kdenlive_ix">2</property>
    <property name="Channel">0,3</property>
    <property name="Input black level">1554=0</property>
    <property name="Input white level">1554=1</property>
    <property name="Gamma">1554=0,1975</property>
    <property name="Black output">1554=0</property>
    <property name="White output">1554=0,949</property>
    <property name="Show histogram">0</property>
    <property name="Histogram position">0,3</property>
    <property name="kdenlive_info"/>
    <property name="disable"/>
   </filter>
  </entry>
  <entry producer="43_playlist13" in="1634" out="1635">
   <filter id="filter175">
    <property name="background">colour:0x00000000</property>
    <property name="mlt_service">affine</property>
    <property name="kdenlive_id">pan_zoom</property>
    <property name="tag">affine</property>
    <property name="kdenlive_ix">1</property>
    <property name="kdenlive_info"/>
    <property name="disable"/>
    <property name="transition.geometry">0=-91/-52:3072x1728:100;125=-91/-52:3072x1728:100;126=0/0:2496x1404:100</property>
    <property name="transition.distort">0</property>
   </filter>
   <filter id="filter176">
    <property name="version">0,3</property>
    <property name="mlt_service">frei0r.levels</property>
    <property name="kdenlive_id">frei0r.levels</property>
    <property name="tag">frei0r.levels</property>
    <property name="kdenlive_ix">2</property>
    <property name="Channel">0,3</property>
    <property name="Input black level">1554=0</property>
    <property name="Input white level">1554=1</property>
    <property name="Gamma">1554=0,1975</property>
    <property name="Black output">1554=0</property>
    <property name="White output">1554=0,949</property>
    <property name="Show histogram">0</property>
    <property name="Histogram position">0,3</property>
    <property name="kdenlive_info"/>
    <property name="disable"/>
   </filter>
   <filter id="filter177">
    <property name="version">0,2</property>
    <property name="mlt_service">frei0r.nosync0r</property>
    <property name="kdenlive_id">frei0r.nosync0r</property>
    <property name="tag">frei0r.nosync0r</property>
    <property name="kdenlive_ix">3</property>
    <property name="HSync">0,126</property>
    <property name="kdenlive_info"/>
   </filter>
  </entry>
  <entry producer="43_playlist13" in="1636" out="1700">
   <filter id="filter178">
    <property name="background">colour:0x00000000</property>
    <property name="mlt_service">affine</property>
    <property name="kdenlive_id">pan_zoom</property>
    <property name="tag">affine</property>
    <property name="kdenlive_ix">1</property>
    <property name="kdenlive_info"/>
    <property name="disable"/>
    <property name="transition.geometry">0=-91/-52:3072x1728:100;125=-91/-52:3072x1728:100;126=0/0:2496x1404:100</property>
    <property name="transition.distort">0</property>
   </filter>
   <filter id="filter179">
    <property name="version">0,3</property>
    <property name="mlt_service">frei0r.levels</property>
    <property name="kdenlive_id">frei0r.levels</property>
    <property name="tag">frei0r.levels</property>
    <property name="kdenlive_ix">2</property>
    <property name="Channel">0,3</property>
    <property name="Input black level">1554=0</property>
    <property name="Input white level">1554=1</property>
    <property name="Gamma">1554=0,1975</property>
    <property name="Black output">1554=0</property>
    <property name="White output">1554=0,949</property>
    <property name="Show histogram">0</property>
    <property name="Histogram position">0,3</property>
    <property name="kdenlive_info"/>
    <property name="disable"/>
   </filter>
  </entry>
  <entry producer="slowmotion:41:0,89:1:0" in="35501" out="35517">
   <filter id="filter180">
    <property name="background">colour:0x00000000</property>
    <property name="mlt_service">affine</property>
    <property name="kdenlive_id">pan_zoom</property>
    <property name="tag">affine</property>
    <property name="kdenlive_ix">2</property>
    <property name="kdenlive_info"/>
    <property name="disable"/>
    <property name="transition.geometry">0/-59:2688x1512:100</property>
    <property name="transition.distort">0</property>
   </filter>
   <filter id="filter181">
    <property name="background">colour:0x00000000</property>
    <property name="mlt_service">affine</property>
    <property name="kdenlive_id">pan_zoom</property>
    <property name="tag">affine</property>
    <property name="kdenlive_ix">3</property>
    <property name="kdenlive_info"/>
    <property name="disable">1</property>
    <property name="transition.geometry">0/-59:2688x1512:100</property>
    <property name="transition.distort">0</property>
   </filter>
  </entry>
  <entry producer="slowmotion:41:0,89:1:0" in="35518" out="35519">
   <filter id="filter182">
    <property name="background">colour:0x00000000</property>
    <property name="mlt_service">affine</property>
    <property name="kdenlive_id">pan_zoom</property>
    <property name="tag">affine</property>
    <property name="kdenlive_ix">2</property>
    <property name="kdenlive_info"/>
    <property name="disable"/>
    <property name="transition.geometry">0/-59:2688x1512:100</property>
    <property name="transition.distort">0</property>
   </filter>
   <filter id="filter183">
    <property name="background">colour:0x00000000</property>
    <property name="mlt_service">affine</property>
    <property name="kdenlive_id">pan_zoom</property>
    <property name="tag">affine</property>
    <property name="kdenlive_ix">3</property>
    <property name="kdenlive_info"/>
    <property name="disable">1</property>
    <property name="transition.geometry">0/-59:2688x1512:100</property>
    <property name="transition.distort">0</property>
   </filter>
   <filter id="filter184">
    <property name="version">0,2</property>
    <property name="mlt_service">frei0r.nosync0r</property>
    <property name="kdenlive_id">frei0r.nosync0r</property>
    <property name="tag">frei0r.nosync0r</property>
    <property name="kdenlive_ix">4</property>
    <property name="HSync">0,942</property>
    <property name="kdenlive_info"/>
   </filter>
  </entry>
  <entry producer="slowmotion:41:0,89:1:0" in="35520" out="35521">
   <filter id="filter185">
    <property name="background">colour:0x00000000</property>
    <property name="mlt_service">affine</property>
    <property name="kdenlive_id">pan_zoom</property>
    <property name="tag">affine</property>
    <property name="kdenlive_ix">2</property>
    <property name="kdenlive_info"/>
    <property name="disable"/>
    <property name="transition.geometry">0/-59:2688x1512:100</property>
    <property name="transition.distort">0</property>
   </filter>
   <filter id="filter186">
    <property name="background">colour:0x00000000</property>
    <property name="mlt_service">affine</property>
    <property name="kdenlive_id">pan_zoom</property>
    <property name="tag">affine</property>
    <property name="kdenlive_ix">3</property>
    <property name="kdenlive_info"/>
    <property name="disable">1</property>
    <property name="transition.geometry">0/-59:2688x1512:100</property>
    <property name="transition.distort">0</property>
   </filter>
   <filter id="filter187">
    <property name="version">0,2</property>
    <property name="mlt_service">frei0r.nosync0r</property>
    <property name="kdenlive_id">frei0r.nosync0r</property>
    <property name="tag">frei0r.nosync0r</property>
    <property name="kdenlive_ix">4</property>
    <property name="HSync">0,915</property>
    <property name="kdenlive_info"/>
   </filter>
  </entry>
  <entry producer="slowmotion:41:0,89:1:0" in="35522" out="35523">
   <filter id="filter188">
    <property name="background">colour:0x00000000</property>
    <property name="mlt_service">affine</property>
    <property name="kdenlive_id">pan_zoom</property>
    <property name="tag">affine</property>
    <property name="kdenlive_ix">2</property>
    <property name="kdenlive_info"/>
    <property name="disable"/>
    <property name="transition.geometry">0/-59:2688x1512:100</property>
    <property name="transition.distort">0</property>
   </filter>
   <filter id="filter189">
    <property name="background">colour:0x00000000</property>
    <property name="mlt_service">affine</property>
    <property name="kdenlive_id">pan_zoom</property>
    <property name="tag">affine</property>
    <property name="kdenlive_ix">3</property>
    <property name="kdenlive_info"/>
    <property name="disable">1</property>
    <property name="transition.geometry">0/-59:2688x1512:100</property>
    <property name="transition.distort">0</property>
   </filter>
   <filter id="filter190">
    <property name="version">0,2</property>
    <property name="mlt_service">frei0r.nosync0r</property>
    <property name="kdenlive_id">frei0r.nosync0r</property>
    <property name="tag">frei0r.nosync0r</property>
    <property name="kdenlive_ix">4</property>
    <property name="HSync">0,969</property>
    <property name="kdenlive_info"/>
   </filter>
  </entry>
  <entry producer="slowmotion:41:0,89:1:0" in="35524" out="35540">
   <filter id="filter191">
    <property name="background">colour:0x00000000</property>
    <property name="mlt_service">affine</property>
    <property name="kdenlive_id">pan_zoom</property>
    <property name="tag">affine</property>
    <property name="kdenlive_ix">2</property>
    <property name="kdenlive_info"/>
    <property name="disable"/>
    <property name="transition.geometry">0/-59:2688x1512:100</property>
    <property name="transition.distort">0</property>
   </filter>
   <filter id="filter192">
    <property name="background">colour:0x00000000</property>
    <property name="mlt_service">affine</property>
    <property name="kdenlive_id">pan_zoom</property>
    <property name="tag">affine</property>
    <property name="kdenlive_ix">3</property>
    <property name="kdenlive_info"/>
    <property name="disable">1</property>
    <property name="transition.geometry">0/-59:2688x1512:100</property>
    <property name="transition.distort">0</property>
   </filter>
  </entry>
  <entry producer="28_playlist13" in="30382" out="30408">
   <filter id="filter193" in="30382" out="30408">
    <property name="background">colour:0x00000000</property>
    <property name="mlt_service">affine</property>
    <property name="kdenlive_id">pan_zoom</property>
    <property name="tag">affine</property>
    <property name="kdenlive_info"/>
    <property name="kdenlive_ix">1</property>
    <property name="disable"/>
    <property name="transition.geometry">0=0/0:1920x1080:100;8=-288/-324:2496x1404:100;36=-288/-324:2496x1404:100;37=0/0:1920x1080:100</property>
    <property name="transition.distort">0</property>
    <property name="kdenlive:sync_in_out">1</property>
   </filter>
  </entry>
  <blank length="624"/>
  <entry producer="37_playlist13" in="16841" out="16842">
   <filter id="filter194">
    <property name="version">0,2</property>
    <property name="mlt_service">frei0r.nosync0r</property>
    <property name="kdenlive_id">frei0r.nosync0r</property>
    <property name="tag">frei0r.nosync0r</property>
    <property name="kdenlive_ix">1</property>
    <property name="HSync">0,046</property>
    <property name="kdenlive_info"/>
   </filter>
  </entry>
  <entry producer="37_playlist13" in="16843" out="16844">
   <filter id="filter195">
    <property name="version">0,2</property>
    <property name="mlt_service">frei0r.nosync0r</property>
    <property name="kdenlive_id">frei0r.nosync0r</property>
    <property name="tag">frei0r.nosync0r</property>
    <property name="kdenlive_ix">1</property>
    <property name="HSync">0,071</property>
    <property name="kdenlive_info"/>
   </filter>
  </entry>
  <entry producer="37_playlist13" in="16845" out="16846">
   <filter id="filter196">
    <property name="version">0,2</property>
    <property name="mlt_service">frei0r.nosync0r</property>
    <property name="kdenlive_id">frei0r.nosync0r</property>
    <property name="tag">frei0r.nosync0r</property>
    <property name="kdenlive_ix">1</property>
    <property name="HSync">0,176</property>
    <property name="kdenlive_info"/>
   </filter>
  </entry>
  <entry producer="37_playlist13" in="16847" out="16848">
   <filter id="filter197">
    <property name="version">0,2</property>
    <property name="mlt_service">frei0r.nosync0r</property>
    <property name="kdenlive_id">frei0r.nosync0r</property>
    <property name="tag">frei0r.nosync0r</property>
    <property name="kdenlive_ix">1</property>
    <property name="HSync">0,059</property>
    <property name="kdenlive_info"/>
   </filter>
  </entry>
  <entry producer="37_playlist13" in="16849" out="16850">
   <filter id="filter198">
    <property name="version">0,2</property>
    <property name="mlt_service">frei0r.nosync0r</property>
    <property name="kdenlive_id">frei0r.nosync0r</property>
    <property name="tag">frei0r.nosync0r</property>
    <property name="kdenlive_ix">1</property>
    <property name="HSync">0,973</property>
    <property name="kdenlive_info"/>
   </filter>
  </entry>
  <entry producer="37_playlist13" in="16851" out="16852">
   <filter id="filter199">
    <property name="version">0,2</property>
    <property name="mlt_service">frei0r.nosync0r</property>
    <property name="kdenlive_id">frei0r.nosync0r</property>
    <property name="tag">frei0r.nosync0r</property>
    <property name="kdenlive_ix">1</property>
    <property name="HSync">0,973</property>
   </filter>
  </entry>
  <entry producer="37_playlist13" in="16853" out="16855">
   <filter id="filter200">
    <property name="version">0,2</property>
    <property name="mlt_service">frei0r.nosync0r</property>
    <property name="kdenlive_id">frei0r.nosync0r</property>
    <property name="tag">frei0r.nosync0r</property>
    <property name="kdenlive_ix">1</property>
    <property name="HSync">0,922</property>
    <property name="kdenlive_info"/>
   </filter>
  </entry>
  <entry producer="37_playlist13" in="16856" out="16918"/>
  <entry producer="8_playlist13" in="17640" out="17668">
   <filter id="filter201">
    <property name="version">0,3</property>
    <property name="mlt_service">frei0r.levels</property>
    <property name="kdenlive_id">frei0r.levels</property>
    <property name="tag">frei0r.levels</property>
    <property name="kdenlive_ix">1</property>
    <property name="Channel">0,3</property>
    <property name="Input black level">17640=0</property>
    <property name="Input white level">17640=0,472</property>
    <property name="Gamma">17640=0,25</property>
    <property name="Black output">17640=0</property>
    <property name="White output">17640=1</property>
    <property name="Show histogram">0</property>
    <property name="Histogram position">0,3</property>
    <property name="kdenlive_info"/>
   </filter>
  </entry>
  <entry producer="25_playlist13" in="1919" out="1948"/>
  <entry producer="8_playlist13" in="631" out="692">
   <filter id="filter202">
    <property name="version">0,3</property>
    <property name="mlt_service">frei0r.levels</property>
    <property name="kdenlive_id">frei0r.levels</property>
    <property name="tag">frei0r.levels</property>
    <property name="kdenlive_ix">1</property>
    <property name="Channel">0,3</property>
    <property name="Input black level">631=0</property>
    <property name="Input white level">631=0,845</property>
    <property name="Gamma">631=0,34675</property>
    <property name="Black output">631=0</property>
    <property name="White output">631=1</property>
    <property name="Show histogram">0</property>
    <property name="Histogram position">0,3</property>
    <property name="kdenlive_info"/>
    <property name="disable"/>
   </filter>
  </entry>
  <entry producer="37_playlist13" in="5023" out="5059">
   <filter id="filter203">
    <property name="gamma">5023=0,9</property>
    <property name="mlt_service">gamma</property>
    <property name="kdenlive_id">gamma</property>
    <property name="tag">gamma</property>
    <property name="kdenlive_ix">1</property>
    <property name="kdenlive_info"/>
    <property name="disable"/>
   </filter>
  </entry>
  <entry producer="25_playlist13" in="2053" out="2064">
   <filter id="filter204">
    <property name="version">0,3</property>
    <property name="mlt_service">frei0r.levels</property>
    <property name="kdenlive_id">frei0r.levels</property>
    <property name="tag">frei0r.levels</property>
    <property name="kdenlive_info"/>
    <property name="kdenlive_ix">1</property>
    <property name="disable"/>
    <property name="Channel">0,3</property>
    <property name="Input black level">2053=0</property>
    <property name="Input white level">2053=1</property>
    <property name="Gamma">2053=0,4</property>
    <property name="Black output">2053=0,043</property>
    <property name="White output">2053=0,826</property>
    <property name="Show histogram">0</property>
    <property name="Histogram position">0,3</property>
   </filter>
  </entry>
  <entry producer="25_playlist13" in="2065" out="2066">
   <filter id="filter205">
    <property name="version">0,3</property>
    <property name="mlt_service">frei0r.levels</property>
    <property name="kdenlive_id">frei0r.levels</property>
    <property name="tag">frei0r.levels</property>
    <property name="kdenlive_info"/>
    <property name="kdenlive_ix">1</property>
    <property name="disable"/>
    <property name="Channel">0,3</property>
    <property name="Input black level">2053=0</property>
    <property name="Input white level">2053=1</property>
    <property name="Gamma">2053=0,4</property>
    <property name="Black output">2053=0,043</property>
    <property name="White output">2053=0,826</property>
    <property name="Show histogram">0</property>
    <property name="Histogram position">0,3</property>
   </filter>
   <filter id="filter206">
    <property name="mlt_service">invert</property>
    <property name="kdenlive_id">invert</property>
    <property name="tag">invert</property>
    <property name="kdenlive_ix">2</property>
   </filter>
  </entry>
  <blank length="1510"/>
  <entry producer="slowmotion:25:0,8:1:0" in="4839" out="5030">
   <filter id="filter207" in="4839" out="5030">
    <property name="background">colour:0x00000000</property>
    <property name="mlt_service">affine</property>
    <property name="kdenlive_id">pan_zoom</property>
    <property name="tag">affine</property>
    <property name="kdenlive_info"/>
    <property name="kdenlive_ix">2</property>
    <property name="disable">0</property>
    <property name="transition.geometry">0=0/0:1920x1080:100;5=-16/0:2304x1296:100</property>
    <property name="transition.distort">0</property>
    <property name="kdenlive:sync_in_out">1</property>
   </filter>
  </entry>
  <filter id="filter215">
   <property name="version">0,9</property>
   <property name="mlt_service">frei0r.rgbnoise</property>
   <property name="kdenlive_id">frei0r.rgbnoise</property>
   <property name="tag">frei0r.rgbnoise</property>
   <property name="kdenlive_ix">1</property>
   <property name="kdenlive_info">0/-1/</property>
   <property name="0">0,08</property>
   <property name="disable">0</property>
  </filter>
  <filter id="filter216">
   <property name="version">0,3</property>
   <property name="mlt_service">frei0r.saturat0r</property>
   <property name="kdenlive_id">frei0r.saturat0r</property>
   <property name="tag">frei0r.saturat0r</property>
   <property name="kdenlive_ix">2</property>
   <property name="kdenlive_info"/>
   <property name="Saturation">0=0,001</property>
   <property name="disable">0</property>
  </filter>
  <filter id="frei0r.rgbsplit0r">
   <property name="version">1</property>
   <property name="mlt_service">frei0r.rgbsplit0r</property>
   <property name="kdenlive_id">frei0r.rgbsplit0r</property>
   <property name="tag">frei0r.rgbsplit0r</property>
   <property name="kdenlive_ix">3</property>
   <property name="kdenlive_info"/>
   <property name="0">0,5</property>
   <property name="1">0,48</property>
   <property name="disable">0</property>
  </filter>
  <filter id="filter217">
   <property name="version">0,3</property>
   <property name="mlt_service">frei0r.levels</property>
   <property name="kdenlive_id">frei0r.levels</property>
   <property name="tag">frei0r.levels</property>
   <property name="kdenlive_ix">4</property>
   <property name="kdenlive_info"/>
   <property name="Channel">0,3</property>
   <property name="Input black level">0=0,213</property>
   <property name="Input white level">0=0,65</property>
   <property name="Gamma">0=0,14</property>
   <property name="Black output">0=0</property>
   <property name="White output">0=1</property>
   <property name="Show histogram">0</property>
   <property name="Histogram position">0,3</property>
   <property name="disable">0</property>
  </filter>
  <filter id="grain">
   <property name="noise">11</property>
   <property name="contrast">96</property>
   <property name="brightness">97</property>
   <property name="mlt_service">grain</property>
   <property name="kdenlive_id">grain</property>
   <property name="tag">grain</property>
   <property name="kdenlive_ix">5</property>
   <property name="kdenlive_info"/>
   <property name="disable">0</property>
  </filter>
 </playlist>
 <producer title="Anonymous Submission" id="49_playlist15" in="0" out="9961">
  <property name="length">00:03:19:12</property>
  <property name="eof">pause</property>
  <property name="resource">/media/bordun/plagiat/Clip02_RespecteLaPuissancePapale/Assets/vhs_on_greenscreen_stock_footage_royalty_free_Suv1x2CK3xA_360p.mp4</property>
  <property name="audio_index">1</property>
  <property name="video_index">0</property>
  <property name="mute_on_pause">1</property>
  <property name="mlt_service">avformat-novalidate</property>
  <property name="seekable">1</property>
  <property name="aspect_ratio">1</property>
  <property name="kdenlive:file_size">9887889</property>
  <property name="kdenlive:file_hash">30a067bbfc9642db96df21e0922c6f06</property>
  <property name="global_feed">1</property>
  <property name="xml">was here</property>
  <property name="meta.media.nb_streams">2</property>
  <property name="meta.media.0.stream.type">video</property>
  <property name="meta.media.0.stream.frame_rate">29,9701</property>
  <property name="meta.media.0.stream.sample_aspect_ratio">0</property>
  <property name="meta.media.0.codec.width">480</property>
  <property name="meta.media.0.codec.height">360</property>
  <property name="meta.media.0.codec.rotate">0</property>
  <property name="meta.media.0.codec.frame_rate">29,97</property>
  <property name="meta.media.0.codec.pix_fmt">yuv420p</property>
  <property name="meta.media.0.codec.sample_aspect_ratio">1</property>
  <property name="meta.media.0.codec.colorspace">601</property>
  <property name="meta.media.0.codec.name">h264</property>
  <property name="meta.media.0.codec.long_name">H.264 / AVC / MPEG-4 AVC / MPEG-4 part 10</property>
  <property name="meta.media.0.codec.bit_rate">298518</property>
  <property name="meta.attr.0.stream.creation_time.markup">2018-11-05T07:01:08.000000Z</property>
  <property name="meta.attr.0.stream.handler_name.markup">ISO Media file produced by Google Inc. Created on: 11/04/2018.</property>
  <property name="meta.media.1.stream.type">audio</property>
  <property name="meta.media.1.codec.sample_fmt">fltp</property>
  <property name="meta.media.1.codec.sample_rate">44100</property>
  <property name="meta.media.1.codec.channels">2</property>
  <property name="meta.media.1.codec.name">aac</property>
  <property name="meta.media.1.codec.long_name">AAC (Advanced Audio Coding)</property>
  <property name="meta.media.1.codec.bit_rate">95999</property>
  <property name="meta.attr.1.stream.creation_time.markup">2018-11-05T07:01:08.000000Z</property>
  <property name="meta.attr.1.stream.handler_name.markup">ISO Media file produced by Google Inc. Created on: 11/04/2018.</property>
  <property name="meta.attr.major_brand.markup">mp42</property>
  <property name="meta.attr.minor_version.markup">0</property>
  <property name="meta.attr.compatible_brands.markup">isommp42</property>
  <property name="meta.attr.creation_time.markup">2018-11-05T07:01:08.000000Z</property>
  <property name="meta.media.sample_aspect_num">1</property>
  <property name="meta.media.sample_aspect_den">1</property>
  <property name="meta.media.frame_rate_num">3731250</property>
  <property name="meta.media.frame_rate_den">124499</property>
  <property name="meta.media.colorspace">601</property>
  <property name="meta.media.color_trc">2</property>
  <property name="meta.media.width">480</property>
  <property name="meta.media.height">360</property>
  <property name="meta.media.top_field_first">0</property>
  <property name="meta.media.progressive">1</property>
 </producer>
 <playlist id="playlist15">
  <property name="kdenlive:track_name">Video 5</property>
  <blank length="14750"/>
  <entry producer="49_playlist15" in="609" out="856">
   <filter id="filter218">
    <property name="version">0,3</property>
    <property name="mlt_service">frei0r.saturat0r</property>
    <property name="kdenlive_id">frei0r.saturat0r</property>
    <property name="tag">frei0r.saturat0r</property>
    <property name="kdenlive_ix">1</property>
    <property name="kdenlive_info"/>
    <property name="disable"/>
    <property name="Saturation">609=0,001</property>
   </filter>
   <filter id="filter219">
    <property name="background">colour:0x00000000</property>
    <property name="mlt_service">affine</property>
    <property name="kdenlive_id">pan_zoom</property>
    <property name="tag">affine</property>
    <property name="kdenlive_ix">2</property>
    <property name="kdenlive_info"/>
    <property name="disable">0</property>
    <property name="transition.geometry">-480/-270:2880x1620:100</property>
    <property name="transition.distort">0</property>
   </filter>
  </entry>
  <blank length="3898"/>
  <entry producer="49_playlist15" in="369" out="582">
   <filter id="filter220">
    <property name="version">0,3</property>
    <property name="mlt_service">frei0r.saturat0r</property>
    <property name="kdenlive_id">frei0r.saturat0r</property>
    <property name="tag">frei0r.saturat0r</property>
    <property name="kdenlive_ix">1</property>
    <property name="Saturation">369=0,001</property>
    <property name="kdenlive_info"/>
    <property name="disable"/>
   </filter>
   <filter id="filter221" in="369" out="582">
    <property name="background">colour:0x00000000</property>
    <property name="mlt_service">affine</property>
    <property name="kdenlive_id">pan_zoom</property>
    <property name="tag">affine</property>
    <property name="kdenlive_info"/>
    <property name="kdenlive_ix">2</property>
    <property name="disable">0</property>
    <property name="transition.geometry">-480/-270:2880x1620:100</property>
    <property name="transition.distort">0</property>
    <property name="kdenlive:sync_in_out">1</property>
   </filter>
  </entry>
  <blank length="731"/>
  <entry producer="45" in="135" out="164">
   <filter id="filter222">
    <property name="rotate_center">1</property>
    <property name="mlt_service">qtblend</property>
    <property name="kdenlive_id">qtblend</property>
    <property name="tag">qtblend</property>
    <property name="kdenlive_ix">1</property>
    <property name="kdenlive_info"/>
    <property name="disable"/>
    <property name="rect">135=749 328 172 98 1;136=761 338 172 97 1;137=777 347 172 97 1;140=833 410 172 97 1;143=945 497 172 97 1;144=998 519 172 97 1;146=1107 525 172 97 1;149=1232 519 172 97 1;150=1269 509 172 97 1;151=1300 509 172 97 1;152=1322 500 172 97 1;153=1338 488 172 97 1;155=1381 469 172 97 1;157=1391 460 172 97 1;160=1325 460 172 97 1;162=1222 475 172 97 1;163=1166 491 172 97 1;164=1113 514 172 97 1</property>
    <property name="rotation">135=0;136=0,666667;137=1,33333;140=3,33333;143=10;144=6;146=6;149=17;150=17;151=17;152=15;153=15;155=15;157=15;160=7;162=2;163=2;164=-1</property>
    <property name="compositing">0</property>
    <property name="distort">0</property>
   </filter>
   <filter id="filter223">
    <property name="version">0,3</property>
    <property name="mlt_service">frei0r.levels</property>
    <property name="kdenlive_id">frei0r.levels</property>
    <property name="tag">frei0r.levels</property>
    <property name="kdenlive_ix">2</property>
    <property name="Channel">0,3</property>
    <property name="Input black level">135=0,206</property>
    <property name="Input white level">135=1</property>
    <property name="Gamma">135=0,48125</property>
    <property name="Black output">135=0</property>
    <property name="White output">135=1</property>
    <property name="Show histogram">0</property>
    <property name="Histogram position">0,3</property>
    <property name="kdenlive_info"/>
   </filter>
  </entry>
  <blank length="99"/>
  <entry producer="45" in="135" out="146">
   <filter id="filter224">
    <property name="version">0,2</property>
    <property name="mlt_service">frei0r.c0rners</property>
    <property name="kdenlive_id">frei0r.c0rners</property>
    <property name="tag">frei0r.c0rners</property>
    <property name="kdenlive_ix">1</property>
    <property name="kdenlive_info">0/-1/</property>
    <property name="disable">0</property>
    <property name="Corner 1 X">135=0,333333;146=0,333333</property>
    <property name="Corner 1 Y">135=0,333333;146=0,333333</property>
    <property name="Corner 2 X">135=0,666667;146=0,666667</property>
    <property name="Corner 2 Y">135=0,333333;146=0,333333</property>
    <property name="Corner 3 X">135=0,666667;146=0,666667</property>
    <property name="Corner 3 Y">135=0,666667;146=0,666667</property>
    <property name="Corner 4 X">135=0,333333;146=0,333333</property>
    <property name="Corner 4 Y">135=0,666667;146=0,666667</property>
    <property name="Stretch X">135=0,5;146=0,5</property>
    <property name="Stretch Y">135=0,5;146=0,5</property>
    <property name="Feather Alpha">135=0,05;146=0,05</property>
    <property name="Enable Stretch">0</property>
    <property name="Interpolator">0,166</property>
    <property name="Transparent Background">1</property>
    <property name="Alpha operation">0,5</property>
   </filter>
   <filter id="filter225">
    <property name="rotate_center">1</property>
    <property name="mlt_service">qtblend</property>
    <property name="kdenlive_id">qtblend</property>
    <property name="tag">qtblend</property>
    <property name="kdenlive_ix">2</property>
    <property name="kdenlive_info"/>
    <property name="disable">0</property>
    <property name="rect">135=703 355 67 37 1;137=746 335 67 37 1;139=787 315 67 37 1;140=794 300 67 37 1;141=783 283 67 37 1;142=761 273 67 37 1;143=742 264 67 37 1;144=730 254 67 37 1;145=721 242 67 37 1;147=735 237 67 37 1;148=</property>
    <property name="rotation">135=0;137=-13;139=-17;140=-13;141=-13;142=-13;143=-13;144=-13;145=-13;146=-13</property>
    <property name="compositing">0</property>
    <property name="distort">0</property>
   </filter>
  </entry>
 </playlist>
 <producer title="Anonymous Submission" id="49_playlist14" in="0" out="9961">
  <property name="length">00:03:19:12</property>
  <property name="eof">pause</property>
  <property name="resource">/media/bordun/plagiat/Clip02_RespecteLaPuissancePapale/Assets/vhs_on_greenscreen_stock_footage_royalty_free_Suv1x2CK3xA_360p.mp4</property>
  <property name="audio_index">1</property>
  <property name="video_index">0</property>
  <property name="mute_on_pause">1</property>
  <property name="mlt_service">avformat-novalidate</property>
  <property name="seekable">1</property>
  <property name="aspect_ratio">1</property>
  <property name="kdenlive:file_size">9887889</property>
  <property name="kdenlive:file_hash">30a067bbfc9642db96df21e0922c6f06</property>
  <property name="global_feed">1</property>
  <property name="xml">was here</property>
  <property name="meta.media.nb_streams">2</property>
  <property name="meta.media.0.stream.type">video</property>
  <property name="meta.media.0.stream.frame_rate">29,9701</property>
  <property name="meta.media.0.stream.sample_aspect_ratio">0</property>
  <property name="meta.media.0.codec.width">480</property>
  <property name="meta.media.0.codec.height">360</property>
  <property name="meta.media.0.codec.rotate">0</property>
  <property name="meta.media.0.codec.frame_rate">29,97</property>
  <property name="meta.media.0.codec.pix_fmt">yuv420p</property>
  <property name="meta.media.0.codec.sample_aspect_ratio">1</property>
  <property name="meta.media.0.codec.colorspace">601</property>
  <property name="meta.media.0.codec.name">h264</property>
  <property name="meta.media.0.codec.long_name">H.264 / AVC / MPEG-4 AVC / MPEG-4 part 10</property>
  <property name="meta.media.0.codec.bit_rate">298518</property>
  <property name="meta.attr.0.stream.creation_time.markup">2018-11-05T07:01:08.000000Z</property>
  <property name="meta.attr.0.stream.handler_name.markup">ISO Media file produced by Google Inc. Created on: 11/04/2018.</property>
  <property name="meta.media.1.stream.type">audio</property>
  <property name="meta.media.1.codec.sample_fmt">fltp</property>
  <property name="meta.media.1.codec.sample_rate">44100</property>
  <property name="meta.media.1.codec.channels">2</property>
  <property name="meta.media.1.codec.name">aac</property>
  <property name="meta.media.1.codec.long_name">AAC (Advanced Audio Coding)</property>
  <property name="meta.media.1.codec.bit_rate">95999</property>
  <property name="meta.attr.1.stream.creation_time.markup">2018-11-05T07:01:08.000000Z</property>
  <property name="meta.attr.1.stream.handler_name.markup">ISO Media file produced by Google Inc. Created on: 11/04/2018.</property>
  <property name="meta.attr.major_brand.markup">mp42</property>
  <property name="meta.attr.minor_version.markup">0</property>
  <property name="meta.attr.compatible_brands.markup">isommp42</property>
  <property name="meta.attr.creation_time.markup">2018-11-05T07:01:08.000000Z</property>
  <property name="meta.media.sample_aspect_num">1</property>
  <property name="meta.media.sample_aspect_den">1</property>
  <property name="meta.media.frame_rate_num">3731250</property>
  <property name="meta.media.frame_rate_den">124499</property>
  <property name="meta.media.colorspace">601</property>
  <property name="meta.media.color_trc">2</property>
  <property name="meta.media.width">480</property>
  <property name="meta.media.height">360</property>
  <property name="meta.media.top_field_first">0</property>
  <property name="meta.media.progressive">1</property>
 </producer>
 <playlist id="playlist14">
  <property name="kdenlive:track_name">Video 4</property>
  <blank length="14750"/>
  <entry producer="48" in="0" out="247">
   <filter id="frei0r.alphaspot">
    <property name="version">0,1</property>
    <property name="mlt_service">frei0r.alphaspot</property>
    <property name="kdenlive_id">frei0r.alphaspot</property>
    <property name="tag">frei0r.alphaspot</property>
    <property name="kdenlive_ix">1</property>
    <property name="kdenlive_info"/>
    <property name="disable"/>
    <property name="Shape">0,0</property>
    <property name="Position X">0=0,5</property>
    <property name="Position Y">0=0,5</property>
    <property name="Size X">0=0,38</property>
    <property name="Size Y">0=1</property>
    <property name="Tilt">0=0,5</property>
    <property name="Transition width">0=0</property>
    <property name="Min">0=0</property>
    <property name="Max">0=1</property>
    <property name="Operation">1,0</property>
   </filter>
   <filter id="filter226">
    <property name="version">0,1</property>
    <property name="mlt_service">frei0r.glitch0r</property>
    <property name="kdenlive_id">frei0r.glitch0r</property>
    <property name="tag">frei0r.glitch0r</property>
    <property name="kdenlive_ix">2</property>
    <property name="0">0,025</property>
    <property name="1">0,025</property>
    <property name="2">0,002</property>
    <property name="3">0</property>
    <property name="kdenlive_info"/>
   </filter>
  </entry>
  <blank length="3898"/>
  <entry producer="48" in="0" out="213">
   <filter id="filter227">
    <property name="version">0,1</property>
    <property name="mlt_service">frei0r.alphaspot</property>
    <property name="kdenlive_id">frei0r.alphaspot</property>
    <property name="tag">frei0r.alphaspot</property>
    <property name="kdenlive_ix">1</property>
    <property name="Shape">0,0</property>
    <property name="Position X">0=0,5</property>
    <property name="Position Y">0=0,5</property>
    <property name="Size X">0=0,38</property>
    <property name="Size Y">0=1</property>
    <property name="Tilt">0=0,5</property>
    <property name="Transition width">0=0</property>
    <property name="Min">0=0</property>
    <property name="Max">0=1</property>
    <property name="Operation">1,0</property>
    <property name="kdenlive_info"/>
    <property name="disable"/>
   </filter>
   <filter id="filter228">
    <property name="version">0,1</property>
    <property name="mlt_service">frei0r.glitch0r</property>
    <property name="kdenlive_id">frei0r.glitch0r</property>
    <property name="tag">frei0r.glitch0r</property>
    <property name="kdenlive_ix">2</property>
    <property name="0">0,025</property>
    <property name="1">0,025</property>
    <property name="2">0,002</property>
    <property name="3">0</property>
    <property name="kdenlive_info"/>
   </filter>
  </entry>
  <blank length="624"/>
  <entry producer="49_playlist14" in="2334" out="2581">
   <filter id="filter229">
    <property name="version">0,3</property>
    <property name="mlt_service">frei0r.saturat0r</property>
    <property name="kdenlive_id">frei0r.saturat0r</property>
    <property name="tag">frei0r.saturat0r</property>
    <property name="kdenlive_ix">1</property>
    <property name="kdenlive_info"/>
    <property name="disable"/>
    <property name="Saturation">2334=0,001</property>
   </filter>
   <filter id="filter230">
    <property name="background">colour:0x00000000</property>
    <property name="mlt_service">affine</property>
    <property name="kdenlive_id">pan_zoom</property>
    <property name="tag">affine</property>
    <property name="kdenlive_ix">2</property>
    <property name="kdenlive_info"/>
    <property name="disable">0</property>
    <property name="transition.geometry">-480/-270:2880x1620:100</property>
    <property name="transition.distort">0</property>
   </filter>
  </entry>
  <blank length="1512"/>
  <entry producer="49_playlist14" in="1373" out="1625">
   <filter id="filter231">
    <property name="version">0,3</property>
    <property name="mlt_service">frei0r.saturat0r</property>
    <property name="kdenlive_id">frei0r.saturat0r</property>
    <property name="tag">frei0r.saturat0r</property>
    <property name="kdenlive_ix">1</property>
    <property name="kdenlive_info"/>
    <property name="disable"/>
    <property name="Saturation">1373=0,001</property>
   </filter>
   <filter id="filter232">
    <property name="background">colour:0x00000000</property>
    <property name="mlt_service">affine</property>
    <property name="kdenlive_id">pan_zoom</property>
    <property name="tag">affine</property>
    <property name="kdenlive_ix">2</property>
    <property name="kdenlive_info"/>
    <property name="disable">0</property>
    <property name="transition.geometry">-480/-270:2880x1620:100</property>
    <property name="transition.distort">0</property>
   </filter>
  </entry>
 </playlist>
 <playlist id="playlist18">
  <property name="kdenlive:track_name">Video 8</property>
  <blank length="19734"/>
  <entry producer="48" in="0" out="247">
   <filter id="filter233">
    <property name="version">0,1</property>
    <property name="mlt_service">frei0r.alphaspot</property>
    <property name="kdenlive_id">frei0r.alphaspot</property>
    <property name="tag">frei0r.alphaspot</property>
    <property name="kdenlive_ix">1</property>
    <property name="kdenlive_info"/>
    <property name="disable"/>
    <property name="Shape">0,0</property>
    <property name="Position X">0=0,5</property>
    <property name="Position Y">0=0,5</property>
    <property name="Size X">0=0,38</property>
    <property name="Size Y">0=1</property>
    <property name="Tilt">0=0,5</property>
    <property name="Transition width">0=0</property>
    <property name="Min">0=0</property>
    <property name="Max">0=1</property>
    <property name="Operation">1,0</property>
   </filter>
   <filter id="filter234">
    <property name="version">0,1</property>
    <property name="mlt_service">frei0r.glitch0r</property>
    <property name="kdenlive_id">frei0r.glitch0r</property>
    <property name="tag">frei0r.glitch0r</property>
    <property name="kdenlive_ix">2</property>
    <property name="kdenlive_info"/>
    <property name="disable"/>
    <property name="0">0,025</property>
    <property name="1">0,025</property>
    <property name="2">0,002</property>
    <property name="3">0</property>
   </filter>
  </entry>
  <blank length="1512"/>
  <entry producer="48" in="0" out="247">
   <filter id="filter235">
    <property name="version">0,1</property>
    <property name="mlt_service">frei0r.alphaspot</property>
    <property name="kdenlive_id">frei0r.alphaspot</property>
    <property name="tag">frei0r.alphaspot</property>
    <property name="kdenlive_ix">1</property>
    <property name="kdenlive_info"/>
    <property name="disable"/>
    <property name="Shape">0,0</property>
    <property name="Position X">0=0,5</property>
    <property name="Position Y">0=0,5</property>
    <property name="Size X">0=0,38</property>
    <property name="Size Y">0=1</property>
    <property name="Tilt">0=0,5</property>
    <property name="Transition width">0=0</property>
    <property name="Min">0=0</property>
    <property name="Max">0=1</property>
    <property name="Operation">1,0</property>
   </filter>
   <filter id="filter236">
    <property name="version">0,1</property>
    <property name="mlt_service">frei0r.glitch0r</property>
    <property name="kdenlive_id">frei0r.glitch0r</property>
    <property name="tag">frei0r.glitch0r</property>
    <property name="kdenlive_ix">2</property>
    <property name="kdenlive_info"/>
    <property name="disable"/>
    <property name="0">0,025</property>
    <property name="1">0,025</property>
    <property name="2">0,002</property>
    <property name="3">0</property>
   </filter>
  </entry>
 </playlist>
 <playlist id="playlist16">
  <property name="kdenlive:track_name">Video 6</property>
  <blank length="14750"/>
  <entry producer="51" in="399" out="646">
   <filter id="dynamictext">
    <property name="argument">#timecode#</property>
    <property name="geometry">-320/71:1920x1080:100</property>
    <property name="family">VCR OSD Mono</property>
    <property name="size">55</property>
    <property name="weight">385</property>
    <property name="style">normal</property>
    <property name="fgcolour">0xffffffff</property>
    <property name="bgcolour">0x00000000</property>
    <property name="olcolour">0x000000ff</property>
    <property name="pad">0</property>
    <property name="halign">right</property>
    <property name="valign">top</property>
    <property name="outline">3</property>
    <property name="mlt_service">dynamictext</property>
    <property name="kdenlive_id">dynamictext</property>
    <property name="tag">dynamictext</property>
    <property name="kdenlive_ix">1</property>
    <property name="kdenlive_info">1/-1/</property>
    <property name="disable">1</property>
   </filter>
  </entry>
  <blank length="3898"/>
  <entry producer="50" in="0" out="145"/>
  <entry producer="50" in="146" out="146">
   <filter id="filter237">
    <property name="version">0,1</property>
    <property name="mlt_service">frei0r.glitch0r</property>
    <property name="kdenlive_id">frei0r.glitch0r</property>
    <property name="tag">frei0r.glitch0r</property>
    <property name="kdenlive_ix">1</property>
    <property name="0">0,962</property>
    <property name="1">0,007</property>
    <property name="2">0,022</property>
    <property name="3">0</property>
    <property name="kdenlive_info"/>
   </filter>
  </entry>
  <entry producer="52" in="0" out="0">
   <filter id="filter238">
    <property name="version">0,1</property>
    <property name="mlt_service">frei0r.glitch0r</property>
    <property name="kdenlive_id">frei0r.glitch0r</property>
    <property name="tag">frei0r.glitch0r</property>
    <property name="kdenlive_ix">1</property>
    <property name="0">0,962</property>
    <property name="1">0,007</property>
    <property name="2">0,022</property>
    <property name="3">0</property>
   </filter>
  </entry>
  <entry producer="52" in="1" out="38"/>
  <entry producer="52" in="39" out="39">
   <filter id="filter239">
    <property name="version">0,1</property>
    <property name="mlt_service">frei0r.glitch0r</property>
    <property name="kdenlive_id">frei0r.glitch0r</property>
    <property name="tag">frei0r.glitch0r</property>
    <property name="kdenlive_ix">1</property>
    <property name="0">0,962</property>
    <property name="1">0,007</property>
    <property name="2">0,022</property>
    <property name="3">0</property>
   </filter>
  </entry>
  <entry producer="50" in="0" out="0">
   <filter id="filter240">
    <property name="version">0,1</property>
    <property name="mlt_service">frei0r.glitch0r</property>
    <property name="kdenlive_id">frei0r.glitch0r</property>
    <property name="tag">frei0r.glitch0r</property>
    <property name="kdenlive_ix">1</property>
    <property name="0">0,962</property>
    <property name="1">0,007</property>
    <property name="2">0,022</property>
    <property name="3">0</property>
   </filter>
  </entry>
  <entry producer="50" in="1" out="26"/>
  <blank length="624"/>
  <entry producer="50" in="0" out="76"/>
  <entry producer="50" in="77" out="77">
   <filter id="filter208">
    <property name="version">0,1</property>
    <property name="mlt_service">frei0r.glitch0r</property>
    <property name="kdenlive_id">frei0r.glitch0r</property>
    <property name="tag">frei0r.glitch0r</property>
    <property name="kdenlive_info"/>
    <property name="kdenlive_ix">1</property>
    <property name="disable"/>
    <property name="0">0,962</property>
    <property name="1">0,007</property>
    <property name="2">0,022</property>
    <property name="3">0</property>
   </filter>
  </entry>
  <entry producer="63" in="0" out="0">
   <filter id="filter209">
    <property name="version">0,1</property>
    <property name="mlt_service">frei0r.glitch0r</property>
    <property name="kdenlive_id">frei0r.glitch0r</property>
    <property name="tag">frei0r.glitch0r</property>
    <property name="kdenlive_info"/>
    <property name="kdenlive_ix">1</property>
    <property name="disable"/>
    <property name="0">0,962</property>
    <property name="1">0,007</property>
    <property name="2">0,022</property>
    <property name="3">0</property>
   </filter>
  </entry>
  <entry producer="63" in="1" out="27"/>
  <entry producer="63" in="28" out="28">
   <filter id="filter210">
    <property name="version">0,1</property>
    <property name="mlt_service">frei0r.glitch0r</property>
    <property name="kdenlive_id">frei0r.glitch0r</property>
    <property name="tag">frei0r.glitch0r</property>
    <property name="kdenlive_info"/>
    <property name="kdenlive_ix">1</property>
    <property name="disable"/>
    <property name="0">0,962</property>
    <property name="1">0,007</property>
    <property name="2">0,022</property>
    <property name="3">0</property>
   </filter>
  </entry>
  <entry producer="65" in="0" out="0">
   <filter id="filter211">
    <property name="version">0,1</property>
    <property name="mlt_service">frei0r.glitch0r</property>
    <property name="kdenlive_id">frei0r.glitch0r</property>
    <property name="tag">frei0r.glitch0r</property>
    <property name="kdenlive_info"/>
    <property name="kdenlive_ix">1</property>
    <property name="disable"/>
    <property name="0">0,962</property>
    <property name="1">0,007</property>
    <property name="2">0,022</property>
    <property name="3">0</property>
   </filter>
  </entry>
  <entry producer="65" in="1" out="28"/>
  <entry producer="65" in="29" out="29">
   <filter id="filter212">
    <property name="version">0,1</property>
    <property name="mlt_service">frei0r.glitch0r</property>
    <property name="kdenlive_id">frei0r.glitch0r</property>
    <property name="tag">frei0r.glitch0r</property>
    <property name="kdenlive_info"/>
    <property name="kdenlive_ix">1</property>
    <property name="disable"/>
    <property name="0">0,962</property>
    <property name="1">0,007</property>
    <property name="2">0,022</property>
    <property name="3">0</property>
   </filter>
  </entry>
  <entry producer="63" in="0" out="0">
   <filter id="filter213">
    <property name="version">0,1</property>
    <property name="mlt_service">frei0r.glitch0r</property>
    <property name="kdenlive_id">frei0r.glitch0r</property>
    <property name="tag">frei0r.glitch0r</property>
    <property name="kdenlive_info"/>
    <property name="kdenlive_ix">1</property>
    <property name="disable"/>
    <property name="0">0,962</property>
    <property name="1">0,007</property>
    <property name="2">0,022</property>
    <property name="3">0</property>
   </filter>
  </entry>
  <entry producer="63" in="1" out="60"/>
  <entry producer="63" in="61" out="61">
   <filter id="filter214">
    <property name="version">0,1</property>
    <property name="mlt_service">frei0r.glitch0r</property>
    <property name="kdenlive_id">frei0r.glitch0r</property>
    <property name="tag">frei0r.glitch0r</property>
    <property name="kdenlive_info"/>
    <property name="kdenlive_ix">1</property>
    <property name="disable"/>
    <property name="0">0,962</property>
    <property name="1">0,007</property>
    <property name="2">0,022</property>
    <property name="3">0</property>
   </filter>
  </entry>
  <entry producer="52" in="0" out="0">
   <filter id="filter241">
    <property name="version">0,1</property>
    <property name="mlt_service">frei0r.glitch0r</property>
    <property name="kdenlive_id">frei0r.glitch0r</property>
    <property name="tag">frei0r.glitch0r</property>
    <property name="kdenlive_info"/>
    <property name="kdenlive_ix">1</property>
    <property name="disable"/>
    <property name="0">0,962</property>
    <property name="1">0,007</property>
    <property name="2">0,022</property>
    <property name="3">0</property>
   </filter>
  </entry>
  <entry producer="52" in="1" out="35"/>
  <entry producer="52" in="36" out="36">
   <filter id="filter242">
    <property name="version">0,1</property>
    <property name="mlt_service">frei0r.glitch0r</property>
    <property name="kdenlive_id">frei0r.glitch0r</property>
    <property name="tag">frei0r.glitch0r</property>
    <property name="kdenlive_info"/>
    <property name="kdenlive_ix">1</property>
    <property name="disable"/>
    <property name="0">0,962</property>
    <property name="1">0,007</property>
    <property name="2">0,022</property>
    <property name="3">0</property>
   </filter>
  </entry>
  <entry producer="65" in="0" out="0">
   <filter id="filter243">
    <property name="version">0,1</property>
    <property name="mlt_service">frei0r.glitch0r</property>
    <property name="kdenlive_id">frei0r.glitch0r</property>
    <property name="tag">frei0r.glitch0r</property>
    <property name="kdenlive_info"/>
    <property name="kdenlive_ix">1</property>
    <property name="disable"/>
    <property name="0">0,962</property>
    <property name="1">0,007</property>
    <property name="2">0,022</property>
    <property name="3">0</property>
   </filter>
  </entry>
  <entry producer="65" in="1" out="11"/>
  <blank length="1512"/>
  <entry producer="54" in="0" out="249"/>
  <filter id="filter244">
   <property name="argument">#timecode#</property>
   <property name="geometry">-320/71:1920x1080:100</property>
   <property name="family">VCR OSD Mono</property>
   <property name="size">55</property>
   <property name="weight">385</property>
   <property name="style">normal</property>
   <property name="fgcolour">0xffffffff</property>
   <property name="bgcolour">0x00000000</property>
   <property name="olcolour">0x000000ff</property>
   <property name="pad">0</property>
   <property name="halign">right</property>
   <property name="valign">top</property>
   <property name="outline">3</property>
   <property name="mlt_service">dynamictext</property>
   <property name="kdenlive_id">dynamictext</property>
   <property name="tag">dynamictext</property>
   <property name="kdenlive_ix">1</property>
   <property name="kdenlive_info">1/0/Effect Group</property>
   <property name="disable">0</property>
  </filter>
  <filter id="filter245">
   <property name="version">0,1</property>
   <property name="mlt_service">frei0r.glitch0r</property>
   <property name="kdenlive_id">frei0r.glitch0r</property>
   <property name="tag">frei0r.glitch0r</property>
   <property name="kdenlive_ix">2</property>
   <property name="kdenlive_info">0/-1/</property>
   <property name="0">0,04</property>
   <property name="1">0,065</property>
   <property name="2">0,002</property>
   <property name="3">0</property>
   <property name="disable"/>
  </filter>
 </playlist>
 <playlist id="playlist17">
  <property name="kdenlive:track_name">Video 7</property>
  <blank length="14750"/>
  <entry producer="58" in="0" out="218"/>
  <blank length="3927"/>
  <entry producer="59" in="0" out="187"/>
  <blank length="650"/>
  <entry producer="64" in="0" out="247"/>
  <blank length="1512"/>
  <entry producer="61" in="0" out="187"/>
  <filter id="filter246">
   <property name="version">0,1</property>
   <property name="mlt_service">frei0r.glitch0r</property>
   <property name="kdenlive_id">frei0r.glitch0r</property>
   <property name="tag">frei0r.glitch0r</property>
   <property name="kdenlive_ix">1</property>
   <property name="kdenlive_info">0/-1/</property>
   <property name="disable"/>
   <property name="0">0,04</property>
   <property name="1">0,065</property>
   <property name="2">0,002</property>
   <property name="3">0</property>
  </filter>
 </playlist>
 <playlist id="playlist19">
  <property name="kdenlive:track_name">Video 9</property>
  <blank length="14750"/>
  <entry producer="60" in="0" out="247"/>
  <blank length="3898"/>
  <entry producer="60" in="0" out="213"/>
  <blank length="624"/>
  <entry producer="60" in="0" out="247"/>
  <blank length="1512"/>
  <entry producer="60" in="0" out="213"/>
 </playlist>
 <playlist id="playlist20">
  <property name="kdenlive:track_name">Video 10</property>
  <blank length="19982"/>
  <entry producer="48" in="0" out="1">
   <filter id="frei0r.brightness">
    <property name="version">0,2</property>
    <property name="mlt_service">frei0r.brightness</property>
    <property name="kdenlive_id">frei0r.brightness</property>
    <property name="tag">frei0r.brightness</property>
    <property name="kdenlive_ix">1</property>
    <property name="Brightness">1</property>
    <property name="kdenlive_info"/>
    <property name="disable"/>
   </filter>
  </entry>
 </playlist>
 <tractor title="Anonymous Submission" id="maintractor" global_feed="1" in="0" out="33023">
  <track producer="black_track"/>
  <track hide="video" producer="playlist1"/>
  <track hide="both" producer="playlist2"/>
  <track hide="audio" producer="playlist3"/>
  <track hide="audio" producer="playlist4"/>
  <track hide="audio" producer="playlist5"/>
  <track hide="audio" producer="playlist11"/>
  <track hide="audio" producer="playlist0"/>
  <track hide="audio" producer="playlist6"/>
  <track hide="audio" producer="playlist7"/>
  <track hide="audio" producer="playlist8"/>
  <track hide="audio" producer="playlist9"/>
  <track hide="audio" producer="playlist10"/>
  <track hide="audio" producer="playlist12"/>
  <track hide="audio" producer="playlist13"/>
  <track hide="audio" producer="playlist15"/>
  <track hide="audio" producer="playlist14"/>
  <track hide="audio" producer="playlist18"/>
  <track hide="audio" producer="playlist16"/>
  <track hide="audio" producer="playlist17"/>
  <track producer="playlist19"/>
  <track producer="playlist20"/>
  <transition id="transition0">
   <property name="a_track">0</property>
   <property name="b_track">1</property>
   <property name="mlt_service">mix</property>
   <property name="always_active">1</property>
   <property name="sum">1</property>
   <property name="internal_added">237</property>
  </transition>
  <transition id="transition1">
   <property name="a_track">0</property>
   <property name="b_track">2</property>
   <property name="mlt_service">mix</property>
   <property name="always_active">1</property>
   <property name="sum">1</property>
   <property name="internal_added">237</property>
  </transition>
  <transition id="transition2">
   <property name="a_track">0</property>
   <property name="b_track">3</property>
   <property name="mlt_service">mix</property>
   <property name="always_active">1</property>
   <property name="sum">1</property>
   <property name="internal_added">237</property>
  </transition>
  <transition id="transition3">
   <property name="a_track">0</property>
   <property name="b_track">4</property>
   <property name="mlt_service">mix</property>
   <property name="always_active">1</property>
   <property name="sum">1</property>
   <property name="internal_added">237</property>
  </transition>
  <transition id="transition4">
   <property name="a_track">0</property>
   <property name="b_track">5</property>
   <property name="mlt_service">mix</property>
   <property name="always_active">1</property>
   <property name="sum">1</property>
   <property name="internal_added">237</property>
  </transition>
  <transition id="transition5">
   <property name="a_track">0</property>
   <property name="b_track">6</property>
   <property name="mlt_service">mix</property>
   <property name="always_active">1</property>
   <property name="sum">1</property>
   <property name="internal_added">237</property>
  </transition>
  <transition id="transition6">
   <property name="a_track">0</property>
   <property name="b_track">7</property>
   <property name="mlt_service">mix</property>
   <property name="always_active">1</property>
   <property name="sum">1</property>
   <property name="internal_added">237</property>
  </transition>
  <transition id="transition7">
   <property name="a_track">0</property>
   <property name="b_track">8</property>
   <property name="mlt_service">mix</property>
   <property name="always_active">1</property>
   <property name="sum">1</property>
   <property name="internal_added">237</property>
  </transition>
  <transition id="transition8">
   <property name="a_track">0</property>
   <property name="b_track">9</property>
   <property name="mlt_service">mix</property>
   <property name="always_active">1</property>
   <property name="sum">1</property>
   <property name="internal_added">237</property>
  </transition>
  <transition id="transition9">
   <property name="a_track">0</property>
   <property name="b_track">10</property>
   <property name="mlt_service">mix</property>
   <property name="always_active">1</property>
   <property name="sum">1</property>
   <property name="internal_added">237</property>
  </transition>
  <transition id="transition10">
   <property name="a_track">0</property>
   <property name="b_track">11</property>
   <property name="mlt_service">mix</property>
   <property name="always_active">1</property>
   <property name="sum">1</property>
   <property name="internal_added">237</property>
  </transition>
  <transition id="transition11">
   <property name="a_track">0</property>
   <property name="b_track">12</property>
   <property name="mlt_service">mix</property>
   <property name="always_active">1</property>
   <property name="sum">1</property>
   <property name="internal_added">237</property>
  </transition>
  <transition id="transition12">
   <property name="a_track">0</property>
   <property name="b_track">13</property>
   <property name="mlt_service">mix</property>
   <property name="always_active">1</property>
   <property name="sum">1</property>
   <property name="internal_added">237</property>
  </transition>
  <transition id="transition13">
   <property name="a_track">0</property>
   <property name="b_track">14</property>
   <property name="mlt_service">mix</property>
   <property name="always_active">1</property>
   <property name="sum">1</property>
   <property name="internal_added">237</property>
  </transition>
  <transition id="transition14">
   <property name="a_track">0</property>
   <property name="b_track">15</property>
   <property name="mlt_service">mix</property>
   <property name="always_active">1</property>
   <property name="sum">1</property>
   <property name="internal_added">237</property>
  </transition>
  <transition id="transition15">
   <property name="a_track">0</property>
   <property name="b_track">16</property>
   <property name="mlt_service">mix</property>
   <property name="always_active">1</property>
   <property name="sum">1</property>
   <property name="internal_added">237</property>
  </transition>
  <transition id="transition16">
   <property name="a_track">0</property>
   <property name="b_track">17</property>
   <property name="mlt_service">mix</property>
   <property name="always_active">1</property>
   <property name="sum">1</property>
   <property name="internal_added">237</property>
  </transition>
  <transition id="transition17">
   <property name="a_track">0</property>
   <property name="b_track">18</property>
   <property name="mlt_service">mix</property>
   <property name="always_active">1</property>
   <property name="sum">1</property>
   <property name="internal_added">237</property>
  </transition>
  <transition id="transition18">
   <property name="a_track">0</property>
   <property name="b_track">19</property>
   <property name="mlt_service">mix</property>
   <property name="always_active">1</property>
   <property name="sum">1</property>
   <property name="internal_added">237</property>
  </transition>
  <transition id="transition19">
   <property name="a_track">0</property>
   <property name="b_track">20</property>
   <property name="mlt_service">mix</property>
   <property name="always_active">1</property>
   <property name="sum">1</property>
   <property name="internal_added">237</property>
  </transition>
  <transition id="transition20">
   <property name="a_track">0</property>
   <property name="b_track">21</property>
   <property name="mlt_service">mix</property>
   <property name="always_active">1</property>
   <property name="sum">1</property>
   <property name="internal_added">237</property>
  </transition>
  <transition id="transition21" in="18896" out="19109">
   <property name="a_track">14</property>
   <property name="b_track">15</property>
   <property name="version">0,2</property>
   <property name="mlt_service">frei0r.grain_merge</property>
   <property name="automatic">1</property>
   <property name="force_track">0</property>
  </transition>
  <transition id="transition22" in="14750" out="14997">
   <property name="a_track">14</property>
   <property name="b_track">15</property>
   <property name="version">0,2</property>
   <property name="mlt_service">frei0r.grain_merge</property>
   <property name="automatic">1</property>
   <property name="force_track">0</property>
  </transition>
  <transition id="transition23" in="19841" out="19983">
   <property name="a_track">14</property>
   <property name="b_track">15</property>
   <property name="start">0/0:100%x100%</property>
   <property name="factory">loader</property>
   <property name="aligned">1</property>
   <property name="progressive">1</property>
   <property name="mlt_service">composite</property>
   <property name="kdenlive_id">composite</property>
   <property name="force_track">1</property>
   <property name="deinterlace">0</property>
   <property name="distort">0</property>
   <property name="fill">1</property>
   <property name="geometry">0%/0%:100%x100%:100</property>
   <property name="halign">centre</property>
   <property name="luma_invert">0</property>
   <property name="operator">over</property>
   <property name="softness">0</property>
   <property name="valign">middle</property>
   <property name="automatic">0</property>
   <property name="luma"/>
  </transition>
  <transition id="transition24" in="18896" out="19109">
   <property name="a_track">14</property>
   <property name="b_track">16</property>
   <property name="start">0/0:100%x100%</property>
   <property name="factory">loader</property>
   <property name="aligned">1</property>
   <property name="progressive">1</property>
   <property name="mlt_service">composite</property>
   <property name="automatic">1</property>
   <property name="kdenlive_id">composite</property>
   <property name="force_track">1</property>
   <property name="deinterlace">0</property>
   <property name="distort">0</property>
   <property name="fill">1</property>
   <property name="geometry">0%/0%:100%x100%:100</property>
   <property name="halign">centre</property>
   <property name="luma_invert">0</property>
   <property name="operator">over</property>
   <property name="softness">0</property>
   <property name="valign">middle</property>
   <property name="luma"/>
  </transition>
  <transition id="transition25" in="14750" out="14997">
   <property name="a_track">14</property>
   <property name="b_track">16</property>
   <property name="start">0/0:100%x100%</property>
   <property name="factory">loader</property>
   <property name="aligned">1</property>
   <property name="progressive">1</property>
   <property name="mlt_service">composite</property>
   <property name="automatic">1</property>
   <property name="kdenlive_id">composite</property>
   <property name="force_track">1</property>
   <property name="deinterlace">0</property>
   <property name="distort">0</property>
   <property name="fill">1</property>
   <property name="geometry">0%/0%:100%x100%:100</property>
   <property name="halign">centre</property>
   <property name="luma_invert">0</property>
   <property name="operator">over</property>
   <property name="softness">0</property>
   <property name="valign">middle</property>
   <property name="luma"/>
  </transition>
  <transition id="transition26" in="18896" out="19109">
   <property name="a_track">14</property>
   <property name="b_track">18</property>
   <property name="start">0/0:100%x100%</property>
   <property name="factory">loader</property>
   <property name="aligned">1</property>
   <property name="progressive">1</property>
   <property name="mlt_service">composite</property>
   <property name="automatic">1</property>
   <property name="kdenlive_id">composite</property>
   <property name="force_track">1</property>
   <property name="deinterlace">0</property>
   <property name="distort">0</property>
   <property name="fill">1</property>
   <property name="geometry">0/0:1920x1080:55</property>
   <property name="halign">centre</property>
   <property name="luma_invert">0</property>
   <property name="operator">over</property>
   <property name="softness">0</property>
   <property name="valign">middle</property>
   <property name="luma"/>
  </transition>
  <transition id="transition27" in="14750" out="14997">
   <property name="a_track">14</property>
   <property name="b_track">18</property>
   <property name="start">0/0:100%x100%</property>
   <property name="factory">loader</property>
   <property name="aligned">1</property>
   <property name="progressive">1</property>
   <property name="mlt_service">composite</property>
   <property name="automatic">1</property>
   <property name="kdenlive_id">composite</property>
   <property name="force_track">1</property>
   <property name="deinterlace">0</property>
   <property name="distort">0</property>
   <property name="fill">1</property>
   <property name="geometry">0/0:1920x1080:55</property>
   <property name="halign">centre</property>
   <property name="luma_invert">0</property>
   <property name="operator">over</property>
   <property name="softness">0</property>
   <property name="valign">middle</property>
   <property name="luma"/>
  </transition>
  <transition id="transition28" in="14772" out="14968">
   <property name="a_track">14</property>
   <property name="b_track">19</property>
   <property name="start">0/0:100%x100%</property>
   <property name="factory">loader</property>
   <property name="aligned">1</property>
   <property name="progressive">1</property>
   <property name="mlt_service">composite</property>
   <property name="automatic">1</property>
   <property name="kdenlive_id">composite</property>
   <property name="force_track">1</property>
   <property name="deinterlace">0</property>
   <property name="distort">0</property>
   <property name="fill">1</property>
   <property name="geometry">0=0/0:1920x1080:100;159=0/0:1920x1080:100;196=0/0:1920x1080:0</property>
   <property name="halign">centre</property>
   <property name="luma_invert">1</property>
   <property name="operator">over</property>
   <property name="softness">0,27</property>
   <property name="valign">middle</property>
   <property name="luma">/home/bordun/.local/share/kdenlive/lumas/HD/159178-linear_x_-_16-9.pgm</property>
  </transition>
  <transition id="transition29" in="14750" out="14771">
   <property name="a_track">14</property>
   <property name="b_track">19</property>
   <property name="start">0/0:100%x100%</property>
   <property name="factory">loader</property>
   <property name="aligned">1</property>
   <property name="progressive">1</property>
   <property name="mlt_service">composite</property>
   <property name="automatic">1</property>
   <property name="kdenlive_id">composite</property>
   <property name="force_track">1</property>
   <property name="deinterlace">0</property>
   <property name="distort">0</property>
   <property name="fill">1</property>
   <property name="geometry">0=0/0:1920x1080:0;21=0/0:1920x1080:100</property>
   <property name="halign">centre</property>
   <property name="luma">/home/bordun/.local/share/kdenlive/lumas/HD/159178-linear_x_-_16-9.pgm</property>
   <property name="luma_invert">0</property>
   <property name="operator">over</property>
   <property name="softness">0,27</property>
   <property name="valign">middle</property>
  </transition>
  <transition id="transition30" in="18918" out="19083">
   <property name="a_track">14</property>
   <property name="b_track">19</property>
   <property name="start">0/0:100%x100%</property>
   <property name="factory">loader</property>
   <property name="aligned">1</property>
   <property name="progressive">1</property>
   <property name="mlt_service">composite</property>
   <property name="automatic">1</property>
   <property name="kdenlive_id">composite</property>
   <property name="force_track">1</property>
   <property name="deinterlace">0</property>
   <property name="distort">0</property>
   <property name="fill">1</property>
   <property name="geometry">0=0/0:1920x1080:100;131=0/0:1920x1080:100;165=0/0:1920x1080:0</property>
   <property name="halign">centre</property>
   <property name="luma">/home/bordun/.local/share/kdenlive/lumas/HD/159178-linear_x_-_16-9.pgm</property>
   <property name="luma_invert">1</property>
   <property name="operator">over</property>
   <property name="softness">0,27</property>
   <property name="valign">middle</property>
  </transition>
  <transition id="transition31" in="18896" out="18917">
   <property name="a_track">14</property>
   <property name="b_track">19</property>
   <property name="start">0/0:100%x100%</property>
   <property name="factory">loader</property>
   <property name="aligned">1</property>
   <property name="progressive">1</property>
   <property name="mlt_service">composite</property>
   <property name="automatic">1</property>
   <property name="kdenlive_id">composite</property>
   <property name="force_track">1</property>
   <property name="deinterlace">0</property>
   <property name="distort">0</property>
   <property name="fill">1</property>
   <property name="geometry">0=0/0:1920x1080:0;21=0/0:1920x1080:100</property>
   <property name="halign">centre</property>
   <property name="luma">/home/bordun/.local/share/kdenlive/lumas/HD/159178-linear_x_-_16-9.pgm</property>
   <property name="luma_invert">0</property>
   <property name="operator">over</property>
   <property name="softness">0,27</property>
   <property name="valign">middle</property>
  </transition>
  <transition id="transition32" in="21494" out="21515">
   <property name="a_track">14</property>
   <property name="b_track">19</property>
   <property name="start">0/0:100%x100%</property>
   <property name="factory">loader</property>
   <property name="aligned">1</property>
   <property name="progressive">1</property>
   <property name="mlt_service">composite</property>
   <property name="automatic">1</property>
   <property name="kdenlive_id">composite</property>
   <property name="force_track">1</property>
   <property name="deinterlace">0</property>
   <property name="distort">0</property>
   <property name="fill">1</property>
   <property name="geometry">0=0/0:1920x1080:0;21=0/0:1920x1080:100</property>
   <property name="halign">centre</property>
   <property name="luma">/home/bordun/.local/share/kdenlive/lumas/HD/159178-linear_x_-_16-9.pgm</property>
   <property name="luma_invert">0</property>
   <property name="operator">over</property>
   <property name="softness">0,27</property>
   <property name="valign">middle</property>
  </transition>
  <transition id="transition33" in="21516" out="21681">
   <property name="a_track">14</property>
   <property name="b_track">19</property>
   <property name="start">0/0:100%x100%</property>
   <property name="factory">loader</property>
   <property name="aligned">1</property>
   <property name="progressive">1</property>
   <property name="mlt_service">composite</property>
   <property name="automatic">1</property>
   <property name="kdenlive_id">composite</property>
   <property name="force_track">1</property>
   <property name="deinterlace">0</property>
   <property name="distort">0</property>
   <property name="fill">1</property>
   <property name="geometry">0=0/0:1920x1080:100;82=0/0:1920x1080:100;104=0/0:1920x1080:0</property>
   <property name="halign">centre</property>
   <property name="luma">/home/bordun/.local/share/kdenlive/lumas/HD/159178-linear_x_-_16-9.pgm</property>
   <property name="luma_invert">1</property>
   <property name="operator">over</property>
   <property name="softness">0,27</property>
   <property name="valign">middle</property>
  </transition>
  <transition id="transition34" in="19734" out="19755">
   <property name="a_track">14</property>
   <property name="b_track">19</property>
   <property name="start">0/0:100%x100%</property>
   <property name="factory">loader</property>
   <property name="aligned">1</property>
   <property name="progressive">1</property>
   <property name="mlt_service">composite</property>
   <property name="automatic">1</property>
   <property name="kdenlive_id">composite</property>
   <property name="force_track">1</property>
   <property name="deinterlace">0</property>
   <property name="distort">0</property>
   <property name="fill">1</property>
   <property name="geometry">0=0/0:1920x1080:0;21=0/0:1920x1080:100</property>
   <property name="halign">centre</property>
   <property name="luma">/home/bordun/.local/share/kdenlive/lumas/HD/159178-linear_x_-_16-9.pgm</property>
   <property name="luma_invert">0</property>
   <property name="operator">over</property>
   <property name="softness">0,27</property>
   <property name="valign">middle</property>
  </transition>
  <transition id="transition35" in="19756" out="19981">
   <property name="a_track">14</property>
   <property name="b_track">19</property>
   <property name="start">0/0:100%x100%</property>
   <property name="factory">loader</property>
   <property name="aligned">1</property>
   <property name="progressive">1</property>
   <property name="mlt_service">composite</property>
   <property name="automatic">1</property>
   <property name="kdenlive_id">composite</property>
   <property name="force_track">1</property>
   <property name="deinterlace">0</property>
   <property name="distort">0</property>
   <property name="fill">1</property>
   <property name="geometry">0=0/0:1920x1080:100;82=0/0:1920x1080:100;104=0/0:1920x1080:0</property>
   <property name="halign">centre</property>
   <property name="luma">/home/bordun/.local/share/kdenlive/lumas/HD/159178-linear_x_-_16-9.pgm</property>
   <property name="luma_invert">1</property>
   <property name="operator">over</property>
   <property name="softness">0,27</property>
   <property name="valign">middle</property>
  </transition>
  <transition id="transition36" in="18896" out="19109">
   <property name="a_track">14</property>
   <property name="b_track">20</property>
   <property name="start">0/0:100%x100%</property>
   <property name="factory">loader</property>
   <property name="aligned">1</property>
   <property name="progressive">1</property>
   <property name="mlt_service">composite</property>
   <property name="automatic">1</property>
   <property name="kdenlive_id">composite</property>
   <property name="force_track">1</property>
   <property name="deinterlace">0</property>
   <property name="distort">0</property>
   <property name="fill">1</property>
   <property name="geometry">1361/66:288x162:34</property>
   <property name="halign">centre</property>
   <property name="luma_invert">0</property>
   <property name="operator">over</property>
   <property name="softness">0</property>
   <property name="valign">middle</property>
   <property name="luma"/>
  </transition>
  <transition id="transition37" in="14750" out="14997">
   <property name="a_track">14</property>
   <property name="b_track">20</property>
   <property name="start">0/0:100%x100%</property>
   <property name="factory">loader</property>
   <property name="aligned">1</property>
   <property name="progressive">1</property>
   <property name="mlt_service">composite</property>
   <property name="automatic">1</property>
   <property name="kdenlive_id">composite</property>
   <property name="force_track">1</property>
   <property name="deinterlace">0</property>
   <property name="distort">0</property>
   <property name="fill">1</property>
   <property name="geometry">1361/66:288x162:34</property>
   <property name="halign">centre</property>
   <property name="luma_invert">0</property>
   <property name="operator">over</property>
   <property name="softness">0</property>
   <property name="valign">middle</property>
   <property name="luma"/>
  </transition>
  <transition id="transition38" in="21494" out="21707">
   <property name="a_track">14</property>
   <property name="b_track">20</property>
   <property name="start">0/0:100%x100%</property>
   <property name="factory">loader</property>
   <property name="aligned">1</property>
   <property name="progressive">1</property>
   <property name="mlt_service">composite</property>
   <property name="automatic">1</property>
   <property name="kdenlive_id">composite</property>
   <property name="force_track">1</property>
   <property name="deinterlace">0</property>
   <property name="distort">0</property>
   <property name="fill">1</property>
   <property name="geometry">1361/66:288x162:34</property>
   <property name="halign">centre</property>
   <property name="luma_invert">0</property>
   <property name="operator">over</property>
   <property name="softness">0</property>
   <property name="valign">middle</property>
   <property name="luma"/>
  </transition>
  <transition id="transition39" in="19734" out="19981">
   <property name="a_track">14</property>
   <property name="b_track">20</property>
   <property name="start">0/0:100%x100%</property>
   <property name="factory">loader</property>
   <property name="aligned">1</property>
   <property name="progressive">1</property>
   <property name="mlt_service">composite</property>
   <property name="automatic">1</property>
   <property name="kdenlive_id">composite</property>
   <property name="force_track">1</property>
   <property name="deinterlace">0</property>
   <property name="distort">0</property>
   <property name="fill">1</property>
   <property name="geometry">1361/66:288x162:34</property>
   <property name="halign">centre</property>
   <property name="luma_invert">0</property>
   <property name="operator">over</property>
   <property name="softness">0</property>
   <property name="valign">middle</property>
   <property name="luma"/>
  </transition>
  <transition id="transition40" in="19982" out="19983">
   <property name="a_track">14</property>
   <property name="b_track">21</property>
   <property name="version">0,2</property>
   <property name="mlt_service">frei0r.divide</property>
   <property name="force_track">1</property>
  </transition>
  <transition id="transition41" in="19734" out="19981">
   <property name="a_track">13</property>
   <property name="b_track">16</property>
   <property name="version">0,2</property>
   <property name="mlt_service">frei0r.grain_merge</property>
   <property name="automatic">1</property>
   <property name="force_track">1</property>
  </transition>
  <transition id="transition42" in="19734" out="19981">
   <property name="a_track">13</property>
   <property name="b_track">17</property>
   <property name="start">0/0:100%x100%</property>
   <property name="factory">loader</property>
   <property name="aligned">1</property>
   <property name="progressive">1</property>
   <property name="mlt_service">composite</property>
   <property name="automatic">1</property>
   <property name="kdenlive_id">composite</property>
   <property name="force_track">1</property>
   <property name="deinterlace">0</property>
   <property name="distort">0</property>
   <property name="fill">1</property>
   <property name="geometry">0%/0%:100%x100%:100</property>
   <property name="halign">centre</property>
   <property name="luma_invert">0</property>
   <property name="operator">over</property>
   <property name="softness">0</property>
   <property name="valign">middle</property>
   <property name="luma"/>
  </transition>
  <transition id="transition43" in="19734" out="19981">
   <property name="a_track">13</property>
   <property name="b_track">18</property>
   <property name="start">0/0:100%x100%</property>
   <property name="factory">loader</property>
   <property name="aligned">1</property>
   <property name="progressive">1</property>
   <property name="mlt_service">composite</property>
   <property name="automatic">1</property>
   <property name="kdenlive_id">composite</property>
   <property name="force_track">1</property>
   <property name="deinterlace">0</property>
   <property name="distort">0</property>
   <property name="fill">1</property>
   <property name="geometry">0/0:1920x1080:55</property>
   <property name="halign">centre</property>
   <property name="luma_invert">0</property>
   <property name="operator">over</property>
   <property name="softness">0</property>
   <property name="valign">middle</property>
   <property name="luma"/>
  </transition>
  <transition id="transition44" in="21494" out="21747">
   <property name="a_track">7</property>
   <property name="b_track">16</property>
   <property name="version">0,2</property>
   <property name="mlt_service">frei0r.grain_merge</property>
   <property name="automatic">1</property>
   <property name="force_track">1</property>
  </transition>
  <transition id="transition45" in="21494" out="21741">
   <property name="a_track">7</property>
   <property name="b_track">17</property>
   <property name="start">0/0:100%x100%</property>
   <property name="factory">loader</property>
   <property name="aligned">1</property>
   <property name="progressive">1</property>
   <property name="mlt_service">composite</property>
   <property name="automatic">1</property>
   <property name="kdenlive_id">composite</property>
   <property name="force_track">1</property>
   <property name="deinterlace">0</property>
   <property name="distort">0</property>
   <property name="fill">1</property>
   <property name="geometry">0%/0%:100%x100%:100</property>
   <property name="halign">centre</property>
   <property name="luma_invert">0</property>
   <property name="operator">over</property>
   <property name="softness">0</property>
   <property name="valign">middle</property>
  </transition>
  <transition id="transition46" in="21494" out="21741">
   <property name="a_track">7</property>
   <property name="b_track">18</property>
   <property name="start">0/0:100%x100%</property>
   <property name="factory">loader</property>
   <property name="aligned">1</property>
   <property name="progressive">1</property>
   <property name="mlt_service">composite</property>
   <property name="automatic">1</property>
   <property name="kdenlive_id">composite</property>
   <property name="force_track">1</property>
   <property name="deinterlace">0</property>
   <property name="distort">0</property>
   <property name="fill">1</property>
   <property name="geometry">0/0:1920x1080:55</property>
   <property name="halign">centre</property>
   <property name="luma_invert">0</property>
   <property name="operator">over</property>
   <property name="softness">0</property>
   <property name="valign">middle</property>
   <property name="luma"/>
  </transition>
  <transition id="transition47" in="15898" out="16972">
   <property name="a_track">5</property>
   <property name="b_track">6</property>
   <property name="start"/>
   <property name="factory">loader</property>
   <property name="aligned">1</property>
   <property name="progressive">1</property>
   <property name="mlt_service">composite</property>
   <property name="kdenlive_id">composite</property>
   <property name="force_track">0</property>
   <property name="deinterlace">0</property>
   <property name="geometry">0%/0%:100%x100%:100</property>
   <property name="invert"/>
   <property name="automatic">0</property>
   <property name="distort">0</property>
   <property name="fill">1</property>
   <property name="halign">centre</property>
   <property name="luma"/>
   <property name="luma_invert">0</property>
   <property name="operator">over</property>
   <property name="softness">0</property>
   <property name="valign">middle</property>
  </transition>
  <transition id="transition48" in="21384" out="21420">
   <property name="a_track">5</property>
   <property name="b_track">6</property>
   <property name="start">0/0:100%x100%</property>
   <property name="factory">loader</property>
   <property name="aligned">0</property>
   <property name="progressive">1</property>
   <property name="mlt_service">composite</property>
   <property name="automatic">1</property>
   <property name="kdenlive_id">slide</property>
   <property name="force_track">0</property>
   <property name="deinterlace">0</property>
   <property name="geometry">0%/0%:100%x100%:100;-1=0%/0%:100%x100%:100</property>
   <property name="invert">0</property>
  </transition>
  <transition id="transition49" in="19671" out="21363">
   <property name="a_track">5</property>
   <property name="b_track">6</property>
   <property name="start">0/0:100%x100%</property>
   <property name="factory">loader</property>
   <property name="aligned">1</property>
   <property name="progressive">1</property>
   <property name="mlt_service">composite</property>
   <property name="kdenlive_id">composite</property>
   <property name="force_track">0</property>
   <property name="deinterlace">0</property>
   <property name="distort">0</property>
   <property name="fill">1</property>
   <property name="geometry">0%/0%:100%x100%:100</property>
   <property name="halign">centre</property>
   <property name="luma_invert">0</property>
   <property name="operator">over</property>
   <property name="softness">0</property>
   <property name="valign">middle</property>
   <property name="automatic">0</property>
   <property name="luma"/>
  </transition>
  <transition id="transition50" in="16973" out="17721">
   <property name="a_track">5</property>
   <property name="b_track">6</property>
   <property name="start">0/0:100%x100%</property>
   <property name="factory">loader</property>
   <property name="aligned">0</property>
   <property name="progressive">1</property>
   <property name="mlt_service">composite</property>
   <property name="kdenlive_id">slide</property>
   <property name="force_track">0</property>
   <property name="deinterlace">0</property>
   <property name="geometry">0%/0%:100%x100%:100;-1=0%/0%:100%x100%:100</property>
   <property name="invert">0</property>
   <property name="automatic">0</property>
  </transition>
 </tractor>
</mlt>
