<?xml version='1.0' encoding='utf-8'?>
<mlt title="Anonymous Submission" LC_NUMERIC="fr_FR.UTF-8" producer="main bin" version="6.13.0" root="/media/bordun/plagiat/Clip02_RespecteLaPuissancePapale/Video">
 <profile frame_rate_num="50" sample_aspect_num="1" display_aspect_den="9" colorspace="709" progressive="1" description="HD 1080p 50 fps" display_aspect_num="16" frame_rate_den="1" width="1920" height="1080" sample_aspect_den="1"/>
 <producer title="Anonymous Submission" id="28" in="0" out="114270">
  <property name="length">00:38:05:21</property>
  <property name="eof">pause</property>
  <property name="resource">00_Intro.kdenlive</property>
  <property name="mlt_service">xml</property>
  <property name="global_feed">1</property>
  <property name="xml">was here</property>
  <property name="seekable">1</property>
  <property name="kdenlive:file_size">286174</property>
  <property name="kdenlive:file_hash">0c76646757af9f65571b8e091e4fb017</property>
 </producer>
 <producer title="Anonymous Submission" id="31" in="0" out="58">
  <property name="length">00:00:01:09</property>
  <property name="eof">pause</property>
  <property name="resource">/home/woii/Plagiat/Stage/Sounds/Samples/DrumKlit/Fire.wav</property>
  <property name="audio_index">0</property>
  <property name="video_index">-1</property>
  <property name="mute_on_pause">1</property>
  <property name="mlt_service">avformat-novalidate</property>
  <property name="meta.media.nb_streams">1</property>
  <property name="meta.media.0.stream.type">audio</property>
  <property name="meta.media.0.codec.sample_fmt">s32</property>
  <property name="meta.media.0.codec.sample_rate">48000</property>
  <property name="meta.media.0.codec.channels">2</property>
  <property name="meta.media.0.codec.name">pcm_s24le</property>
  <property name="meta.media.0.codec.long_name">PCM signed 24-bit little-endian</property>
  <property name="meta.media.0.codec.bit_rate">2304000</property>
  <property name="seekable">1</property>
  <property name="kdenlive:file_size">339056</property>
  <property name="kdenlive:file_hash">7e52a914b1c95458dbb926546b2ae1c7</property>
  <property name="global_feed">1</property>
 </producer>
 <producer title="Anonymous Submission" id="32" in="0" out="38">
  <property name="length">00:00:00:39</property>
  <property name="eof">pause</property>
  <property name="resource">/home/woii/Plagiat/Stage/Sounds/Samples/DrumKlit/Reload.wav</property>
  <property name="audio_index">0</property>
  <property name="video_index">-1</property>
  <property name="mute_on_pause">1</property>
  <property name="mlt_service">avformat-novalidate</property>
  <property name="meta.media.nb_streams">1</property>
  <property name="meta.media.0.stream.type">audio</property>
  <property name="meta.media.0.codec.sample_fmt">s32</property>
  <property name="meta.media.0.codec.sample_rate">48000</property>
  <property name="meta.media.0.codec.channels">2</property>
  <property name="meta.media.0.codec.name">pcm_s24le</property>
  <property name="meta.media.0.codec.long_name">PCM signed 24-bit little-endian</property>
  <property name="meta.media.0.codec.bit_rate">2304000</property>
  <property name="seekable">1</property>
  <property name="kdenlive:file_size">227408</property>
  <property name="kdenlive:file_hash">ae2c3eaa425eb6a2f382f42b68c08f60</property>
  <property name="global_feed">1</property>
 </producer>
 <producer title="Anonymous Submission" id="33" in="0" out="20554">
  <property name="length">00:06:51:05</property>
  <property name="eof">pause</property>
  <property name="resource">02_Ballade.kdenlive</property>
  <property name="mlt_service">xml</property>
  <property name="global_feed">1</property>
  <property name="xml">was here</property>
  <property name="seekable">1</property>
  <property name="kdenlive:file_size">333207</property>
  <property name="kdenlive:file_hash">1fe2f0aff98e69bdcf93e9761e5ace30</property>
 </producer>
 <producer id="34" in="0" out="53161">
  <property name="length">53162</property>
  <property name="eof">pause</property>
  <property name="resource">0x000000ff</property>
  <property name="aspect_ratio">1</property>
  <property name="mlt_service">color</property>
  <property name="kdenlive:clipname">Clip couleur</property>
  <property name="kdenlive:folderid">-1</property>
  <property name="kdenlive:duration">250</property>
  <property name="kdenlive:file_hash">9196813120dc5c505072516b15baf414</property>
 </producer>
 <producer title="Anonymous Submission" id="35" in="0" out="51107">
  <property name="length">00:17:02:08</property>
  <property name="eof">pause</property>
  <property name="resource">03_AfroTrap.kdenlive</property>
  <property name="mlt_service">xml</property>
  <property name="global_feed">1</property>
  <property name="xml">was here</property>
  <property name="seekable">1</property>
  <property name="kdenlive:folderid">-1</property>
  <property name="kdenlive:file_size">146685</property>
  <property name="kdenlive:file_hash">f12896e6673afc7d2470c5f105e0d080</property>
 </producer>
 <producer title="Anonymous Submission" id="36" in="0" out="30875">
  <property name="length">00:10:17:26</property>
  <property name="eof">pause</property>
  <property name="resource">04_Mesh.kdenlive</property>
  <property name="mlt_service">xml</property>
  <property name="global_feed">1</property>
  <property name="xml">was here</property>
  <property name="seekable">1</property>
  <property name="kdenlive:folderid">-1</property>
  <property name="kdenlive:file_size">245910</property>
  <property name="kdenlive:file_hash">6f6a40bc17c7a5f44a56b29560c6fb0e</property>
 </producer>
 <producer id="38" in="0" out="249">
  <property name="length">250</property>
  <property name="eof">pause</property>
  <property name="resource">0xffffffff</property>
  <property name="aspect_ratio">1</property>
  <property name="mlt_service">color</property>
  <property name="kdenlive:clipname">White</property>
  <property name="kdenlive:folderid">-1</property>
  <property name="kdenlive:duration">250</property>
  <property name="kdenlive:file_hash">039b56a692cd66eefeea44a17539e5a2</property>
 </producer>
 <producer title="Anonymous Submission" id="39" in="0" out="47607">
  <property name="length">00:15:52:08</property>
  <property name="eof">pause</property>
  <property name="resource">BB_Beatch.kdenlive</property>
  <property name="mlt_service">xml</property>
  <property name="global_feed">1</property>
  <property name="xml">was here</property>
  <property name="seekable">1</property>
  <property name="kdenlive:file_size">448505</property>
  <property name="kdenlive:file_hash">30bb5145314733cbdd28b15f7ff13cd6</property>
 </producer>
 <producer title="Anonymous Submission" id="40" in="0" out="9961">
  <property name="length">00:03:19:12</property>
  <property name="eof">pause</property>
  <property name="resource">/media/bordun/plagiat/Clip02_RespecteLaPuissancePapale/Assets/vhs_on_greenscreen_stock_footage_royalty_free_Suv1x2CK3xA_360p.mp4</property>
  <property name="audio_index">1</property>
  <property name="video_index">0</property>
  <property name="mute_on_pause">1</property>
  <property name="mlt_service">avformat-novalidate</property>
  <property name="meta.media.nb_streams">2</property>
  <property name="meta.media.0.stream.type">video</property>
  <property name="meta.media.0.stream.frame_rate">29,9701</property>
  <property name="meta.media.0.stream.sample_aspect_ratio">0</property>
  <property name="meta.media.0.codec.width">480</property>
  <property name="meta.media.0.codec.height">360</property>
  <property name="meta.media.0.codec.rotate">0</property>
  <property name="meta.media.0.codec.frame_rate">29,97</property>
  <property name="meta.media.0.codec.pix_fmt">yuv420p</property>
  <property name="meta.media.0.codec.sample_aspect_ratio">1</property>
  <property name="meta.media.0.codec.colorspace">601</property>
  <property name="meta.media.0.codec.name">h264</property>
  <property name="meta.media.0.codec.long_name">H.264 / AVC / MPEG-4 AVC / MPEG-4 part 10</property>
  <property name="meta.media.0.codec.bit_rate">298518</property>
  <property name="meta.attr.0.stream.creation_time.markup">2018-11-05T07:01:08.000000Z</property>
  <property name="meta.attr.0.stream.handler_name.markup">ISO Media file produced by Google Inc. Created on: 11/04/2018.</property>
  <property name="meta.media.1.stream.type">audio</property>
  <property name="meta.media.1.codec.sample_fmt">fltp</property>
  <property name="meta.media.1.codec.sample_rate">44100</property>
  <property name="meta.media.1.codec.channels">2</property>
  <property name="meta.media.1.codec.name">aac</property>
  <property name="meta.media.1.codec.long_name">AAC (Advanced Audio Coding)</property>
  <property name="meta.media.1.codec.bit_rate">95999</property>
  <property name="meta.attr.1.stream.creation_time.markup">2018-11-05T07:01:08.000000Z</property>
  <property name="meta.attr.1.stream.handler_name.markup">ISO Media file produced by Google Inc. Created on: 11/04/2018.</property>
  <property name="meta.attr.major_brand.markup">mp42</property>
  <property name="meta.attr.minor_version.markup">0</property>
  <property name="meta.attr.compatible_brands.markup">isommp42</property>
  <property name="meta.attr.creation_time.markup">2018-11-05T07:01:08.000000Z</property>
  <property name="seekable">1</property>
  <property name="meta.media.sample_aspect_num">1</property>
  <property name="meta.media.sample_aspect_den">1</property>
  <property name="aspect_ratio">1</property>
  <property name="meta.media.frame_rate_num">3731250</property>
  <property name="meta.media.frame_rate_den">124499</property>
  <property name="meta.media.colorspace">601</property>
  <property name="meta.media.color_trc">2</property>
  <property name="meta.media.width">480</property>
  <property name="meta.media.height">360</property>
  <property name="meta.media.top_field_first">0</property>
  <property name="meta.media.progressive">1</property>
  <property name="kdenlive:file_size">9887889</property>
  <property name="kdenlive:file_hash">30a067bbfc9642db96df21e0922c6f06</property>
  <property name="global_feed">1</property>
 </producer>
 <producer title="Anonymous Submission" id="42" in="0" out="23437">
  <property name="length">00:07:48:38</property>
  <property name="eof">pause</property>
  <property name="resource">/media/bordun/plagiat/Clip02_RespecteLaPuissancePapale/Audio/2018-12-06_RespecteLaPuissancePapale_Clip_Part1-2_r1.ogg</property>
  <property name="audio_index">0</property>
  <property name="video_index">-1</property>
  <property name="mute_on_pause">1</property>
  <property name="mlt_service">avformat-novalidate</property>
  <property name="meta.media.nb_streams">1</property>
  <property name="meta.media.0.stream.type">audio</property>
  <property name="meta.media.0.codec.sample_fmt">fltp</property>
  <property name="meta.media.0.codec.sample_rate">48000</property>
  <property name="meta.media.0.codec.channels">2</property>
  <property name="meta.media.0.codec.name">vorbis</property>
  <property name="meta.media.0.codec.long_name">Vorbis</property>
  <property name="meta.media.0.codec.bit_rate">128000</property>
  <property name="meta.attr.0.stream.disc.markup">0</property>
  <property name="meta.attr.0.stream.ENCODER.markup">libsndfile</property>
  <property name="seekable">1</property>
  <property name="kdenlive:file_size">6122194</property>
  <property name="kdenlive:file_hash">df9aa9dd771d7abbcc4a5132bde79bec</property>
  <property name="global_feed">1</property>
 </producer>
 <producer title="Anonymous Submission" id="43" in="0" out="17395">
  <property name="length">00:05:47:46</property>
  <property name="eof">pause</property>
  <property name="resource">01_Le5.kdenlive</property>
  <property name="mlt_service">xml</property>
  <property name="global_feed">1</property>
  <property name="xml">was here</property>
  <property name="seekable">1</property>
  <property name="kdenlive:file_size">760110</property>
  <property name="kdenlive:file_hash">61bd9a5fbbb7c2a2331cd6beb66b7fc8</property>
 </producer>
 <producer title="Anonymous Submission" id="44" in="0" out="10290">
  <property name="length">00:03:25:41</property>
  <property name="eof">pause</property>
  <property name="resource">/media/bordun/plagiat/2018-12-10_Plagiat_RespecteLaPuissancePapale/extra_youtube/Random Channel Change TV (1999).mp4</property>
  <property name="audio_index">1</property>
  <property name="video_index">0</property>
  <property name="mute_on_pause">1</property>
  <property name="mlt_service">avformat-novalidate</property>
  <property name="meta.media.nb_streams">2</property>
  <property name="meta.media.0.stream.type">video</property>
  <property name="meta.media.0.stream.frame_rate">29,97</property>
  <property name="meta.media.0.stream.sample_aspect_ratio">0</property>
  <property name="meta.media.0.codec.width">1280</property>
  <property name="meta.media.0.codec.height">720</property>
  <property name="meta.media.0.codec.rotate">0</property>
  <property name="meta.media.0.codec.frame_rate">29,97</property>
  <property name="meta.media.0.codec.pix_fmt">yuv420p</property>
  <property name="meta.media.0.codec.sample_aspect_ratio">1</property>
  <property name="meta.media.0.codec.colorspace">709</property>
  <property name="meta.media.0.codec.color_trc">1</property>
  <property name="meta.media.0.codec.name">h264</property>
  <property name="meta.media.0.codec.long_name">H.264 / AVC / MPEG-4 AVC / MPEG-4 part 10</property>
  <property name="meta.media.0.codec.bit_rate">2316549</property>
  <property name="meta.attr.0.stream.creation_time.markup">2018-03-13T09:39:17.000000Z</property>
  <property name="meta.attr.0.stream.handler_name.markup">ISO Media file produced by Google Inc. Created on: 03/13/2018.</property>
  <property name="meta.media.1.stream.type">audio</property>
  <property name="meta.media.1.codec.sample_fmt">fltp</property>
  <property name="meta.media.1.codec.sample_rate">44100</property>
  <property name="meta.media.1.codec.channels">2</property>
  <property name="meta.media.1.codec.name">aac</property>
  <property name="meta.media.1.codec.long_name">AAC (Advanced Audio Coding)</property>
  <property name="meta.media.1.codec.bit_rate">125598</property>
  <property name="meta.attr.1.stream.creation_time.markup">2018-03-13T09:39:17.000000Z</property>
  <property name="meta.attr.1.stream.handler_name.markup">ISO Media file produced by Google Inc. Created on: 03/13/2018.</property>
  <property name="meta.attr.major_brand.markup">mp42</property>
  <property name="meta.attr.minor_version.markup">0</property>
  <property name="meta.attr.compatible_brands.markup">isommp42</property>
  <property name="meta.attr.creation_time.markup">2018-03-13T09:39:17.000000Z</property>
  <property name="seekable">1</property>
  <property name="meta.media.sample_aspect_num">1</property>
  <property name="meta.media.sample_aspect_den">1</property>
  <property name="aspect_ratio">1</property>
  <property name="meta.media.frame_rate_num">30000</property>
  <property name="meta.media.frame_rate_den">1001</property>
  <property name="meta.media.colorspace">709</property>
  <property name="meta.media.color_trc">1</property>
  <property name="meta.media.width">1280</property>
  <property name="meta.media.height">720</property>
  <property name="meta.media.top_field_first">0</property>
  <property name="meta.media.progressive">1</property>
  <property name="kdenlive:file_size">62927318</property>
  <property name="kdenlive:file_hash">390906dad956f91b5038cd48f8eb7438</property>
  <property name="global_feed">1</property>
 </producer>
 <producer title="Anonymous Submission" id="45" in="0" out="249">
  <property name="length">00:00:05:00</property>
  <property name="eof">pause</property>
  <property name="resource">/media/bordun/plagiat/Clip02_RespecteLaPuissancePapale/Assets/noise.mlt</property>
  <property name="mlt_service">xml</property>
  <property name="global_feed">1</property>
  <property name="xml">was here</property>
  <property name="seekable">1</property>
  <property name="kdenlive:file_size">810</property>
  <property name="kdenlive:file_hash">f6a7c4b8bf450787b4bdf5698ae21e0b</property>
 </producer>
 <playlist id="main bin">
  <property name="kdenlive:docproperties.audiotargettrack">3</property>
  <property name="kdenlive:docproperties.decimalPoint">,</property>
  <property name="kdenlive:docproperties.dirtypreviewchunks"/>
  <property name="kdenlive:docproperties.disablepreview">0</property>
  <property name="kdenlive:docproperties.documentid">1547739419641</property>
  <property name="kdenlive:docproperties.enableproxy">0</property>
  <property name="kdenlive:docproperties.generateimageproxy">0</property>
  <property name="kdenlive:docproperties.generateproxy">1</property>
  <property name="kdenlive:docproperties.kdenliveversion">18.12.1</property>
  <property name="kdenlive:docproperties.position">13593</property>
  <property name="kdenlive:docproperties.previewchunks"/>
  <property name="kdenlive:docproperties.previewextension"/>
  <property name="kdenlive:docproperties.previewparameters"/>
  <property name="kdenlive:docproperties.profile">atsc_1080p_50</property>
  <property name="kdenlive:docproperties.proxyextension">mkv</property>
  <property name="kdenlive:docproperties.proxyimageminsize">2000</property>
  <property name="kdenlive:docproperties.proxyminsize">1000</property>
  <property name="kdenlive:docproperties.proxyparams">-vf yadif,scale=960:-2 -qscale 3 -vcodec mjpeg -acodec pcm_s16le</property>
  <property name="kdenlive:docproperties.version">0.96</property>
  <property name="kdenlive:docproperties.verticalzoom">1</property>
  <property name="kdenlive:docproperties.videotargettrack">4</property>
  <property name="kdenlive:docproperties.zonein">0</property>
  <property name="kdenlive:docproperties.zoneout">49249</property>
  <property name="kdenlive:docproperties.zoom">10</property>
  <property name="kdenlive:documentnotes"/>
  <property name="kdenlive:clipgroups">&lt;groups>
 &lt;group>
  &lt;clipitem position="0" track="3"/>
  &lt;clipitem position="0" track="7"/>
 &lt;/group>
 &lt;group>
  &lt;clipitem position="2368" track="7"/>
  &lt;clipitem position="2368" track="3"/>
 &lt;/group>
 &lt;group>
  &lt;clipitem position="32720" track="9"/>
  &lt;clipitem position="32720" track="2"/>
 &lt;/group>
 &lt;group>
  &lt;clipitem position="39806" track="7"/>
  &lt;clipitem position="39806" track="3"/>
 &lt;/group>
 &lt;group>
  &lt;clipitem position="32936" track="3"/>
  &lt;clipitem position="32936" track="7"/>
 &lt;/group>
 &lt;group>
  &lt;clipitem position="32595" track="9"/>
  &lt;clipitem position="32595" track="2"/>
 &lt;/group>
 &lt;group>
  &lt;clipitem position="32030" track="9"/>
  &lt;clipitem position="32030" track="2"/>
 &lt;/group>
 &lt;group>
  &lt;clipitem position="32161" track="9"/>
  &lt;clipitem position="32161" track="2"/>
 &lt;/group>
&lt;/groups>
</property>
  <property name="kdenlive:docproperties.renderaudioquality">320</property>
  <property name="kdenlive:docproperties.rendercategory">Personnalisé</property>
  <property name="kdenlive:docproperties.renderendguide">0</property>
  <property name="kdenlive:docproperties.renderexportaudio">0</property>
  <property name="kdenlive:docproperties.renderguide">0</property>
  <property name="kdenlive:docproperties.renderplay">0</property>
  <property name="kdenlive:docproperties.renderprofile">MP4HD</property>
  <property name="kdenlive:docproperties.renderquality">15</property>
  <property name="kdenlive:docproperties.renderratio">0</property>
  <property name="kdenlive:docproperties.renderrescale">0</property>
  <property name="kdenlive:docproperties.renderrescaleheight">720</property>
  <property name="kdenlive:docproperties.renderrescalewidth">1280</property>
  <property name="kdenlive:docproperties.renderscanning">0</property>
  <property name="kdenlive:docproperties.renderspeed">2</property>
  <property name="kdenlive:docproperties.renderstartguide">0</property>
  <property name="kdenlive:docproperties.rendertcoverlay">0</property>
  <property name="kdenlive:docproperties.rendertctype">0</property>
  <property name="kdenlive:docproperties.rendertwopass">0</property>
  <property name="kdenlive:docproperties.renderurl">/media/bordun/plagiat/Clip02_RespecteLaPuissancePapale/Rendus/2019-12-18-RLPP-Master.mp4</property>
  <property name="kdenlive:docproperties.renderzone">1</property>
  <property name="kdenlive:guide.312,2">00:05:12:10</property>
  <property name="kdenlive:guide.119,02">oups</property>
  <property name="xml_retain">1</property>
  <entry producer="28" in="0" out="114270"/>
  <entry producer="31" in="0" out="58"/>
  <entry producer="32" in="0" out="38"/>
  <entry producer="33" in="0" out="20554"/>
  <entry producer="34" in="0" out="249"/>
  <entry producer="35" in="0" out="51107"/>
  <entry producer="36" in="0" out="30875"/>
  <entry producer="38" in="0" out="249"/>
  <entry producer="39" in="0" out="47607"/>
  <entry producer="40" in="0" out="9961"/>
  <entry producer="42" in="0" out="23437"/>
  <entry producer="43" in="0" out="17395"/>
  <entry producer="44" in="0" out="10290"/>
  <entry producer="45" in="0" out="249"/>
 </playlist>
 <producer id="black" in="0" out="162176">
  <property name="length">162177</property>
  <property name="eof">pause</property>
  <property name="resource">black</property>
  <property name="aspect_ratio">0</property>
  <property name="mlt_service">colour</property>
  <property name="set.test_audio">0</property>
 </producer>
 <playlist id="black_track">
  <entry producer="black" in="0" out="49261"/>
 </playlist>
 <producer title="Anonymous Submission" id="32_playlist9" in="0" out="38">
  <property name="length">00:00:00:39</property>
  <property name="eof">pause</property>
  <property name="resource">/home/woii/Plagiat/Stage/Sounds/Samples/DrumKlit/Reload.wav</property>
  <property name="audio_index">0</property>
  <property name="video_index">-1</property>
  <property name="mute_on_pause">1</property>
  <property name="mlt_service">avformat-novalidate</property>
  <property name="seekable">1</property>
  <property name="kdenlive:file_size">227408</property>
  <property name="kdenlive:file_hash">ae2c3eaa425eb6a2f382f42b68c08f60</property>
  <property name="global_feed">1</property>
  <property name="xml">was here</property>
  <property name="meta.media.nb_streams">1</property>
  <property name="meta.media.0.stream.type">audio</property>
  <property name="meta.media.0.codec.sample_fmt">s32</property>
  <property name="meta.media.0.codec.sample_rate">48000</property>
  <property name="meta.media.0.codec.channels">2</property>
  <property name="meta.media.0.codec.name">pcm_s24le</property>
  <property name="meta.media.0.codec.long_name">PCM signed 24-bit little-endian</property>
  <property name="meta.media.0.codec.bit_rate">2304000</property>
 </producer>
 <producer title="Anonymous Submission" id="31_playlist9" in="0" out="58">
  <property name="length">00:00:01:09</property>
  <property name="eof">pause</property>
  <property name="resource">/home/woii/Plagiat/Stage/Sounds/Samples/DrumKlit/Fire.wav</property>
  <property name="audio_index">0</property>
  <property name="video_index">-1</property>
  <property name="mute_on_pause">1</property>
  <property name="mlt_service">avformat-novalidate</property>
  <property name="seekable">1</property>
  <property name="kdenlive:file_size">339056</property>
  <property name="kdenlive:file_hash">7e52a914b1c95458dbb926546b2ae1c7</property>
  <property name="global_feed">1</property>
  <property name="xml">was here</property>
  <property name="meta.media.nb_streams">1</property>
  <property name="meta.media.0.stream.type">audio</property>
  <property name="meta.media.0.codec.sample_fmt">s32</property>
  <property name="meta.media.0.codec.sample_rate">48000</property>
  <property name="meta.media.0.codec.channels">2</property>
  <property name="meta.media.0.codec.name">pcm_s24le</property>
  <property name="meta.media.0.codec.long_name">PCM signed 24-bit little-endian</property>
  <property name="meta.media.0.codec.bit_rate">2304000</property>
 </producer>
 <playlist id="playlist9">
  <property name="kdenlive:track_name">Audio 3 (click)</property>
  <property name="kdenlive:audio_track">1</property>
  <blank length="2655"/>
  <entry producer="32_playlist9" in="0" out="38">
   <filter id="volume">
    <property name="window">75</property>
    <property name="max_gain">20dB</property>
    <property name="level">0=-18</property>
    <property name="mlt_service">volume</property>
    <property name="kdenlive_id">volume</property>
    <property name="tag">volume</property>
    <property name="kdenlive_ix">1</property>
    <property name="kdenlive_info"/>
    <property name="disable"/>
   </filter>
  </entry>
  <blank length="29"/>
  <entry producer="31_playlist9" in="0" out="58">
   <filter id="filter0">
    <property name="window">75</property>
    <property name="max_gain">20dB</property>
    <property name="level">0=-18</property>
    <property name="mlt_service">volume</property>
    <property name="kdenlive_id">volume</property>
    <property name="tag">volume</property>
    <property name="kdenlive_ix">1</property>
    <property name="kdenlive_info"/>
    <property name="disable"/>
   </filter>
  </entry>
 </playlist>
 <producer title="Anonymous Submission" id="44_playlist1_audio" in="0" out="10290">
  <property name="length">00:03:25:41</property>
  <property name="eof">pause</property>
  <property name="resource">/media/bordun/plagiat/2018-12-10_Plagiat_RespecteLaPuissancePapale/extra_youtube/Random Channel Change TV (1999).mp4</property>
  <property name="audio_index">1</property>
  <property name="video_index">-1</property>
  <property name="mute_on_pause">1</property>
  <property name="mlt_service">avformat-novalidate</property>
  <property name="seekable">1</property>
  <property name="aspect_ratio">1</property>
  <property name="kdenlive:file_size">62927318</property>
  <property name="kdenlive:file_hash">390906dad956f91b5038cd48f8eb7438</property>
  <property name="global_feed">1</property>
  <property name="xml">was here</property>
  <property name="meta.media.nb_streams">2</property>
  <property name="meta.media.0.stream.type">video</property>
  <property name="meta.media.0.stream.frame_rate">29,97</property>
  <property name="meta.media.0.stream.sample_aspect_ratio">0</property>
  <property name="meta.media.0.codec.width">1280</property>
  <property name="meta.media.0.codec.height">720</property>
  <property name="meta.media.0.codec.rotate">0</property>
  <property name="meta.media.0.codec.frame_rate">29,97</property>
  <property name="meta.media.0.codec.pix_fmt">yuv420p</property>
  <property name="meta.media.0.codec.sample_aspect_ratio">1</property>
  <property name="meta.media.0.codec.colorspace">709</property>
  <property name="meta.media.0.codec.color_trc">1</property>
  <property name="meta.media.0.codec.name">h264</property>
  <property name="meta.media.0.codec.long_name">H.264 / AVC / MPEG-4 AVC / MPEG-4 part 10</property>
  <property name="meta.media.0.codec.bit_rate">2316549</property>
  <property name="meta.attr.0.stream.creation_time.markup">2018-03-13T09:39:17.000000Z</property>
  <property name="meta.attr.0.stream.handler_name.markup">ISO Media file produced by Google Inc. Created on: 03/13/2018.</property>
  <property name="meta.media.1.stream.type">audio</property>
  <property name="meta.media.1.codec.sample_fmt">fltp</property>
  <property name="meta.media.1.codec.sample_rate">44100</property>
  <property name="meta.media.1.codec.channels">2</property>
  <property name="meta.media.1.codec.name">aac</property>
  <property name="meta.media.1.codec.long_name">AAC (Advanced Audio Coding)</property>
  <property name="meta.media.1.codec.bit_rate">125598</property>
  <property name="meta.attr.1.stream.creation_time.markup">2018-03-13T09:39:17.000000Z</property>
  <property name="meta.attr.1.stream.handler_name.markup">ISO Media file produced by Google Inc. Created on: 03/13/2018.</property>
  <property name="meta.attr.major_brand.markup">mp42</property>
  <property name="meta.attr.minor_version.markup">0</property>
  <property name="meta.attr.compatible_brands.markup">isommp42</property>
  <property name="meta.attr.creation_time.markup">2018-03-13T09:39:17.000000Z</property>
  <property name="meta.media.sample_aspect_num">1</property>
  <property name="meta.media.sample_aspect_den">1</property>
 </producer>
 <playlist id="playlist1">
  <property name="kdenlive:audio_track">1</property>
  <property name="kdenlive:track_name">Audio 2 (tv pub)</property>
  <blank length="31871"/>
  <entry producer="44_playlist1_audio" in="2906" out="2915"/>
  <entry producer="44_playlist1_audio" in="2913" out="3061"/>
  <entry producer="44_playlist1_audio" in="2412" out="2529"/>
  <entry producer="44_playlist1_audio" in="4673" out="4685"/>
  <entry producer="44_playlist1_audio" in="6499" out="6932"/>
  <entry producer="44_playlist1_audio" in="7159" out="7283"/>
  <entry producer="44_playlist1_audio" in="5363" out="5565"/>
  <entry producer="44_playlist1_audio" in="4677" out="4689"/>
  <entry producer="44_playlist1_audio" in="4722" out="4969">
   <filter id="filter1">
    <property name="window">75</property>
    <property name="max_gain">20dB</property>
    <property name="level">4722=-12</property>
    <property name="mlt_service">volume</property>
    <property name="kdenlive_id">volume</property>
    <property name="tag">volume</property>
    <property name="kdenlive_ix">1</property>
    <property name="kdenlive_info"/>
    <property name="disable">0</property>
   </filter>
  </entry>
  <filter id="audiopan">
   <property name="channel">0</property>
   <property name="mlt_service">panner</property>
   <property name="kdenlive_id">audiopan</property>
   <property name="tag">panner</property>
   <property name="kdenlive_ix">1</property>
   <property name="kdenlive_info"/>
   <property name="disable">0</property>
   <property name="start">0,368</property>
  </filter>
  <filter id="filter2">
   <property name="window">75</property>
   <property name="max_gain">20dB</property>
   <property name="level">0=-6</property>
   <property name="mlt_service">volume</property>
   <property name="kdenlive_id">volume</property>
   <property name="tag">volume</property>
   <property name="kdenlive_ix">2</property>
   <property name="kdenlive_info"/>
   <property name="disable">0</property>
  </filter>
 </playlist>
 <producer title="Anonymous Submission" id="28_playlist2_audio" in="0" out="114270">
  <property name="length">00:38:05:21</property>
  <property name="eof">pause</property>
  <property name="resource">00_Intro.kdenlive</property>
  <property name="mlt_service">xml</property>
  <property name="global_feed">1</property>
  <property name="xml">was here</property>
  <property name="seekable">1</property>
  <property name="kdenlive:file_size">286174</property>
  <property name="kdenlive:file_hash">0c76646757af9f65571b8e091e4fb017</property>
  <property name="video_index">-1</property>
 </producer>
 <producer title="Anonymous Submission" id="43_playlist2_audio" in="0" out="17395">
  <property name="length">00:05:47:46</property>
  <property name="eof">pause</property>
  <property name="resource">01_Le5.kdenlive</property>
  <property name="mlt_service">xml</property>
  <property name="global_feed">1</property>
  <property name="xml">was here</property>
  <property name="seekable">1</property>
  <property name="kdenlive:file_size">760110</property>
  <property name="kdenlive:file_hash">61bd9a5fbbb7c2a2331cd6beb66b7fc8</property>
  <property name="video_index">-1</property>
 </producer>
 <producer title="Anonymous Submission" id="33_playlist2_audio" in="0" out="20554">
  <property name="length">00:06:51:05</property>
  <property name="eof">pause</property>
  <property name="resource">02_Ballade.kdenlive</property>
  <property name="mlt_service">xml</property>
  <property name="global_feed">1</property>
  <property name="xml">was here</property>
  <property name="seekable">1</property>
  <property name="kdenlive:file_size">333207</property>
  <property name="kdenlive:file_hash">1fe2f0aff98e69bdcf93e9761e5ace30</property>
  <property name="video_index">-1</property>
 </producer>
 <producer title="Anonymous Submission" id="35_playlist2_audio" in="0" out="51107">
  <property name="length">00:17:02:08</property>
  <property name="eof">pause</property>
  <property name="resource">03_AfroTrap.kdenlive</property>
  <property name="mlt_service">xml</property>
  <property name="global_feed">1</property>
  <property name="xml">was here</property>
  <property name="seekable">1</property>
  <property name="kdenlive:folderid">-1</property>
  <property name="kdenlive:file_size">146685</property>
  <property name="kdenlive:file_hash">f12896e6673afc7d2470c5f105e0d080</property>
  <property name="video_index">-1</property>
 </producer>
 <producer title="Anonymous Submission" id="36_playlist2_audio" in="0" out="30875">
  <property name="length">00:10:17:26</property>
  <property name="eof">pause</property>
  <property name="resource">04_Mesh.kdenlive</property>
  <property name="mlt_service">xml</property>
  <property name="global_feed">1</property>
  <property name="xml">was here</property>
  <property name="seekable">1</property>
  <property name="kdenlive:folderid">-1</property>
  <property name="kdenlive:file_size">245910</property>
  <property name="kdenlive:file_hash">6f6a40bc17c7a5f44a56b29560c6fb0e</property>
  <property name="video_index">-1</property>
 </producer>
 <playlist id="playlist2">
  <property name="kdenlive:audio_track">1</property>
  <property name="kdenlive:track_name">Audio 1</property>
  <entry producer="28_playlist2_audio" in="0" out="2367"/>
  <entry producer="28_playlist2_audio" in="2368" out="2728"/>
  <blank length="1767"/>
  <entry producer="43_playlist2_audio" in="0" out="8038">
   <filter id="fadein" out="1">
    <property name="window">75</property>
    <property name="max_gain">20dB</property>
    <property name="mlt_service">volume</property>
    <property name="kdenlive_id">fadein</property>
    <property name="tag">volume</property>
    <property name="kdenlive_ix">1</property>
    <property name="gain">0</property>
    <property name="end">1</property>
   </filter>
   <filter id="fadeout" in="7675" out="8038">
    <property name="window">75</property>
    <property name="max_gain">20dB</property>
    <property name="mlt_service">volume</property>
    <property name="kdenlive_id">fadeout</property>
    <property name="tag">volume</property>
    <property name="kdenlive_ix">2</property>
    <property name="gain">1</property>
    <property name="end">0</property>
    <property name="kdenlive_info"/>
   </filter>
  </entry>
  <blank length="2926"/>
  <entry producer="33_playlist2_audio" in="6" out="14337">
   <filter id="filter3" in="14286" out="14337">
    <property name="window">75</property>
    <property name="max_gain">20dB</property>
    <property name="mlt_service">volume</property>
    <property name="kdenlive_id">fadeout</property>
    <property name="tag">volume</property>
    <property name="kdenlive_ix">1</property>
    <property name="gain">1</property>
    <property name="end">0</property>
   </filter>
  </entry>
  <blank length="3143"/>
  <entry producer="35_playlist2_audio" in="14750" out="21619"/>
  <entry producer="36_playlist2_audio" in="21621" out="30875"/>
 </playlist>
 <producer title="Anonymous Submission" id="39_playlist3" in="0" out="47607">
  <property name="length">00:15:52:08</property>
  <property name="eof">pause</property>
  <property name="resource">BB_Beatch.kdenlive</property>
  <property name="mlt_service">xml</property>
  <property name="global_feed">1</property>
  <property name="xml">was here</property>
  <property name="seekable">1</property>
  <property name="kdenlive:file_size">448505</property>
  <property name="kdenlive:file_hash">30bb5145314733cbdd28b15f7ff13cd6</property>
 </producer>
 <playlist id="playlist3">
  <property name="kdenlive:track_name">Vidéo 1</property>
  <blank length="2729"/>
  <entry producer="39_playlist3" in="0" out="2004">
   <filter id="filter4">
    <property name="window">75</property>
    <property name="max_gain">20dB</property>
    <property name="level">0=-3;1767=-3;2004=-60</property>
    <property name="mlt_service">volume</property>
    <property name="kdenlive_id">volume</property>
    <property name="tag">volume</property>
    <property name="kdenlive_ix">1</property>
    <property name="kdenlive_info"/>
    <property name="disable"/>
   </filter>
  </entry>
  <blank length="6617"/>
  <entry producer="39_playlist3" in="1963" out="6607">
   <filter id="filter5">
    <property name="window">75</property>
    <property name="max_gain">20dB</property>
    <property name="level">2702=-60;2767=-3;6071=-3;6260=-60</property>
    <property name="mlt_service">volume</property>
    <property name="kdenlive_id">volume</property>
    <property name="tag">volume</property>
    <property name="kdenlive_ix">1</property>
    <property name="kdenlive_info"/>
    <property name="disable">0</property>
   </filter>
  </entry>
  <blank length="13684"/>
  <entry producer="39_playlist3" in="8817" out="11007">
   <filter id="filter6">
    <property name="window">75</property>
    <property name="max_gain">20dB</property>
    <property name="level">8846=-60;8883=-3</property>
    <property name="mlt_service">volume</property>
    <property name="kdenlive_id">volume</property>
    <property name="tag">volume</property>
    <property name="kdenlive_ix">1</property>
    <property name="kdenlive_info"/>
   </filter>
  </entry>
  <blank length="7935"/>
  <entry producer="39_playlist3" in="14685" out="15186"/>
  <blank length="105"/>
  <entry producer="39_playlist3" in="15187" out="15435"/>
  <blank length="146"/>
  <entry producer="39_playlist3" in="15436" out="15667"/>
  <blank length="268"/>
  <entry producer="39_playlist3" in="15686" out="15917"/>
  <blank length="122"/>
  <entry producer="39_playlist3" in="15936" out="16062"/>
  <blank length="122"/>
  <entry producer="39_playlist3" in="16085" out="16335"/>
  <blank length="147"/>
  <entry producer="39_playlist3" in="16336" out="16688"/>
 </playlist>
 <producer title="Anonymous Submission" id="39_playlist4" in="0" out="47607">
  <property name="length">00:15:52:08</property>
  <property name="eof">pause</property>
  <property name="resource">BB_Beatch.kdenlive</property>
  <property name="mlt_service">xml</property>
  <property name="global_feed">1</property>
  <property name="xml">was here</property>
  <property name="seekable">1</property>
  <property name="kdenlive:file_size">448505</property>
  <property name="kdenlive:file_hash">30bb5145314733cbdd28b15f7ff13cd6</property>
 </producer>
 <playlist id="playlist4">
  <property name="kdenlive:track_name">Vidéo 2</property>
  <blank length="2729"/>
  <entry producer="39_playlist4" in="0" out="2004"/>
  <blank length="6617"/>
  <entry producer="39_playlist4" in="1963" out="6607"/>
  <blank length="13684"/>
  <entry producer="39_playlist4" in="8817" out="11007"/>
  <filter id="frei0r.saturat0r">
   <property name="version">0,3</property>
   <property name="mlt_service">frei0r.saturat0r</property>
   <property name="kdenlive_id">frei0r.saturat0r</property>
   <property name="tag">frei0r.saturat0r</property>
   <property name="kdenlive_ix">1</property>
   <property name="kdenlive_info">0/-1/</property>
   <property name="Saturation">0=0,1</property>
   <property name="disable">0</property>
  </filter>
  <filter id="avfilter.lut3d">
   <property name="mlt_service">avfilter.lut3d</property>
   <property name="kdenlive_id">avfilter.lut3d</property>
   <property name="tag">avfilter.lut3d</property>
   <property name="kdenlive_ix">2</property>
   <property name="kdenlive_info"/>
   <property name="disable">1</property>
   <property name="av.file">/media/bordun/plagiat/Clip02_RespecteLaPuissancePapale/LUT/test.CUBE</property>
   <property name="av.interp">tetrahedral </property>
  </filter>
 </playlist>
 <playlist id="playlist6">
  <property name="kdenlive:track_name">Video 1</property>
  <blank length="4500"/>
  <entry producer="34" in="1" out="234">
   <filter id="frei0r.c0rners">
    <property name="version">0,2</property>
    <property name="mlt_service">frei0r.c0rners</property>
    <property name="kdenlive_id">frei0r.c0rners</property>
    <property name="tag">frei0r.c0rners</property>
    <property name="kdenlive_ix">1</property>
    <property name="kdenlive_info">0/-1/</property>
    <property name="disable">0</property>
    <property name="Corner 1 X">1=0,359;220=0,359;234=0,340667</property>
    <property name="Corner 1 Y">1=0,3925;220=0,3925;234=0,350167</property>
    <property name="Corner 2 X">1=0,426;220=0,426;234=0,597833</property>
    <property name="Corner 2 Y">1=0,4015;220=0,4015;234=0,352833</property>
    <property name="Corner 3 X">1=0,425667;220=0,425667;234=0,597833</property>
    <property name="Corner 3 Y">1=0,4725;220=0,4725;234=0,611167</property>
    <property name="Corner 4 X">1=0,359;220=0,359;234=0,340667</property>
    <property name="Corner 4 Y">1=0,476833;220=0,476833;234=0,6125</property>
    <property name="Stretch X">1=0,5;220=0,5;234=0,5</property>
    <property name="Stretch Y">1=0,5;220=0,5;234=0,5</property>
    <property name="Feather Alpha">1=0,04;220=0,04;234=0,04</property>
    <property name="Enable Stretch">0</property>
    <property name="Interpolator">0,166</property>
    <property name="Transparent Background">1</property>
    <property name="Alpha operation">0,0</property>
   </filter>
  </entry>
 </playlist>
 <producer title="Anonymous Submission" id="28_video" in="0" out="114270">
  <property name="length">00:38:05:21</property>
  <property name="eof">pause</property>
  <property name="resource">00_Intro.kdenlive</property>
  <property name="mlt_service">xml</property>
  <property name="global_feed">1</property>
  <property name="xml">was here</property>
  <property name="seekable">1</property>
  <property name="kdenlive:file_size">286174</property>
  <property name="kdenlive:file_hash">0c76646757af9f65571b8e091e4fb017</property>
  <property name="audio_index">-1</property>
 </producer>
 <producer title="Anonymous Submission" id="43_video" in="0" out="17395">
  <property name="length">00:05:47:46</property>
  <property name="eof">pause</property>
  <property name="resource">01_Le5.kdenlive</property>
  <property name="mlt_service">xml</property>
  <property name="global_feed">1</property>
  <property name="xml">was here</property>
  <property name="seekable">1</property>
  <property name="kdenlive:file_size">760110</property>
  <property name="kdenlive:file_hash">61bd9a5fbbb7c2a2331cd6beb66b7fc8</property>
  <property name="audio_index">-1</property>
 </producer>
 <producer title="Anonymous Submission" id="33_video" in="0" out="20554">
  <property name="length">00:06:51:05</property>
  <property name="eof">pause</property>
  <property name="resource">02_Ballade.kdenlive</property>
  <property name="mlt_service">xml</property>
  <property name="global_feed">1</property>
  <property name="xml">was here</property>
  <property name="seekable">1</property>
  <property name="kdenlive:file_size">333207</property>
  <property name="kdenlive:file_hash">1fe2f0aff98e69bdcf93e9761e5ace30</property>
  <property name="audio_index">-1</property>
 </producer>
 <producer title="Anonymous Submission" id="35_video" in="0" out="51107">
  <property name="length">00:17:02:08</property>
  <property name="eof">pause</property>
  <property name="resource">03_AfroTrap.kdenlive</property>
  <property name="mlt_service">xml</property>
  <property name="global_feed">1</property>
  <property name="xml">was here</property>
  <property name="seekable">1</property>
  <property name="kdenlive:folderid">-1</property>
  <property name="kdenlive:file_size">146685</property>
  <property name="kdenlive:file_hash">f12896e6673afc7d2470c5f105e0d080</property>
  <property name="audio_index">-1</property>
 </producer>
 <producer title="Anonymous Submission" id="36_video" in="0" out="30875">
  <property name="length">00:10:17:26</property>
  <property name="eof">pause</property>
  <property name="resource">04_Mesh.kdenlive</property>
  <property name="mlt_service">xml</property>
  <property name="global_feed">1</property>
  <property name="xml">was here</property>
  <property name="seekable">1</property>
  <property name="kdenlive:folderid">-1</property>
  <property name="kdenlive:file_size">245910</property>
  <property name="kdenlive:file_hash">6f6a40bc17c7a5f44a56b29560c6fb0e</property>
  <property name="audio_index">-1</property>
 </producer>
 <playlist id="playlist5">
  <property name="kdenlive:track_name">Vidéo 3</property>
  <entry producer="28_video" in="0" out="2367">
   <filter id="frei0r.vignette">
    <property name="version">0,2</property>
    <property name="mlt_service">frei0r.vignette</property>
    <property name="kdenlive_id">frei0r.vignette</property>
    <property name="tag">frei0r.vignette</property>
    <property name="kdenlive_ix">1</property>
    <property name="aspect">0=0,329</property>
    <property name="clearCenter">0=0,329</property>
    <property name="soft">0=0,625</property>
    <property name="kdenlive_info"/>
    <property name="disable">1</property>
   </filter>
  </entry>
  <entry producer="28_video" in="2368" out="2728">
   <filter id="filter7">
    <property name="mlt_service">avfilter.lut3d</property>
    <property name="kdenlive_id">avfilter.lut3d</property>
    <property name="tag">avfilter.lut3d</property>
    <property name="kdenlive_info"/>
    <property name="kdenlive_ix">1</property>
    <property name="disable">0</property>
    <property name="av.file">/media/bordun/plagiat/Clip02_RespecteLaPuissancePapale/LUT/test.CUBE</property>
    <property name="av.interp">tetrahedral </property>
   </filter>
   <filter id="frei0r.softglow">
    <property name="version">0,9</property>
    <property name="mlt_service">frei0r.softglow</property>
    <property name="kdenlive_id">frei0r.softglow</property>
    <property name="tag">frei0r.softglow</property>
    <property name="kdenlive_ix">2</property>
    <property name="0">0,505</property>
    <property name="1">0,271</property>
    <property name="2">0,1</property>
    <property name="3">0</property>
    <property name="kdenlive_info"/>
    <property name="disable">0</property>
   </filter>
   <filter id="filter8">
    <property name="version">0,2</property>
    <property name="mlt_service">frei0r.vignette</property>
    <property name="kdenlive_id">frei0r.vignette</property>
    <property name="tag">frei0r.vignette</property>
    <property name="kdenlive_ix">3</property>
    <property name="aspect">2368=0,5</property>
    <property name="clearCenter">2368=0</property>
    <property name="soft">2368=0,704</property>
    <property name="kdenlive_info"/>
    <property name="disable">0</property>
   </filter>
   <filter id="frei0r.levels">
    <property name="version">0,3</property>
    <property name="mlt_service">frei0r.levels</property>
    <property name="kdenlive_id">frei0r.levels</property>
    <property name="tag">frei0r.levels</property>
    <property name="kdenlive_ix">4</property>
    <property name="Channel">0,3</property>
    <property name="Input black level">2368=0</property>
    <property name="Input white level">2368=0,9</property>
    <property name="Gamma">2368=0,25</property>
    <property name="Black output">2368=0</property>
    <property name="White output">2368=1</property>
    <property name="Show histogram">0</property>
    <property name="Histogram position">0,3</property>
    <property name="kdenlive_info"/>
   </filter>
  </entry>
  <blank length="1771"/>
  <entry producer="43_video" in="4" out="237">
   <filter id="filter9">
    <property name="version">0,2</property>
    <property name="mlt_service">frei0r.c0rners</property>
    <property name="kdenlive_id">frei0r.c0rners</property>
    <property name="tag">frei0r.c0rners</property>
    <property name="kdenlive_ix">1</property>
    <property name="kdenlive_info">1/-1/</property>
    <property name="disable">0</property>
    <property name="Corner 1 X">4=0,359;219=0,359;237=0,333333</property>
    <property name="Corner 1 Y">4=0,3925;219=0,3925;237=0,333333</property>
    <property name="Corner 2 X">4=0,426;219=0,426;237=0,666667</property>
    <property name="Corner 2 Y">4=0,4015;219=0,4015;237=0,333333</property>
    <property name="Corner 3 X">4=0,425667;219=0,425667;237=0,666667</property>
    <property name="Corner 3 Y">4=0,4725;219=0,4725;237=0,666667</property>
    <property name="Corner 4 X">4=0,359;219=0,359;237=0,333333</property>
    <property name="Corner 4 Y">4=0,476833;219=0,476833;237=0,666667</property>
    <property name="Stretch X">4=0,5;219=0,5;237=0,5</property>
    <property name="Stretch Y">4=0,5;219=0,5;237=0,5</property>
    <property name="Feather Alpha">4=0,02;219=0,02;237=0,02</property>
    <property name="Enable Stretch">0</property>
    <property name="Interpolator">0,166</property>
    <property name="Transparent Background">1</property>
    <property name="Alpha operation">0,0</property>
   </filter>
  </entry>
  <entry producer="43_video" in="238" out="7653"/>
  <blank length="3311"/>
  <entry producer="33_video" in="6" out="14282"/>
  <blank length="3198"/>
  <entry producer="35_video" in="14750" out="21619"/>
  <entry producer="36_video" in="21621" out="30875"/>
 </playlist>
 <producer title="Anonymous Submission" id="28_playlist0" in="0" out="114270">
  <property name="length">00:38:05:21</property>
  <property name="eof">pause</property>
  <property name="resource">00_Intro.kdenlive</property>
  <property name="mlt_service">xml</property>
  <property name="global_feed">1</property>
  <property name="xml">was here</property>
  <property name="seekable">1</property>
  <property name="kdenlive:file_size">286174</property>
  <property name="kdenlive:file_hash">0c76646757af9f65571b8e091e4fb017</property>
 </producer>
 <producer title="Anonymous Submission" id="33_playlist0" in="0" out="20554">
  <property name="length">00:06:51:05</property>
  <property name="eof">pause</property>
  <property name="resource">02_Ballade.kdenlive</property>
  <property name="mlt_service">xml</property>
  <property name="global_feed">1</property>
  <property name="xml">was here</property>
  <property name="seekable">1</property>
  <property name="kdenlive:file_size">333207</property>
  <property name="kdenlive:file_hash">1fe2f0aff98e69bdcf93e9761e5ace30</property>
 </producer>
 <producer title="Anonymous Submission" id="35_playlist0" in="0" out="51107">
  <property name="length">00:17:02:08</property>
  <property name="eof">pause</property>
  <property name="resource">03_AfroTrap.kdenlive</property>
  <property name="mlt_service">xml</property>
  <property name="global_feed">1</property>
  <property name="xml">was here</property>
  <property name="seekable">1</property>
  <property name="kdenlive:folderid">-1</property>
  <property name="kdenlive:file_size">146685</property>
  <property name="kdenlive:file_hash">f12896e6673afc7d2470c5f105e0d080</property>
 </producer>
 <producer title="Anonymous Submission" id="36_playlist0" in="0" out="30875">
  <property name="length">00:10:17:26</property>
  <property name="eof">pause</property>
  <property name="resource">04_Mesh.kdenlive</property>
  <property name="mlt_service">xml</property>
  <property name="global_feed">1</property>
  <property name="xml">was here</property>
  <property name="seekable">1</property>
  <property name="kdenlive:folderid">-1</property>
  <property name="kdenlive:file_size">245910</property>
  <property name="kdenlive:file_hash">6f6a40bc17c7a5f44a56b29560c6fb0e</property>
 </producer>
 <playlist id="playlist0">
  <property name="kdenlive:track_name">Video 4</property>
  <entry producer="28_playlist0" in="0" out="475"/>
  <entry producer="28_playlist0" in="476" out="2367">
   <filter id="frei0r.colgate">
    <property name="version">0,1</property>
    <property name="mlt_service">frei0r.colgate</property>
    <property name="kdenlive_id">frei0r.colgate</property>
    <property name="tag">frei0r.colgate</property>
    <property name="kdenlive_ix">1</property>
    <property name="Neutral Color">0x7f7f7fff</property>
    <property name="Color Temperature">0=0,3286</property>
    <property name="kdenlive_info"/>
    <property name="disable">0</property>
   </filter>
  </entry>
  <blank length="2132"/>
  <entry producer="43_video" in="4" out="237">
   <filter id="filter10">
    <property name="version">0,2</property>
    <property name="mlt_service">frei0r.c0rners</property>
    <property name="kdenlive_id">frei0r.c0rners</property>
    <property name="tag">frei0r.c0rners</property>
    <property name="kdenlive_info">1/-1/</property>
    <property name="kdenlive_ix">1</property>
    <property name="disable">0</property>
    <property name="Corner 1 X">4=0,359;219=0,359;237=0,333333</property>
    <property name="Corner 1 Y">4=0,3925;219=0,3925;237=0,333333</property>
    <property name="Corner 2 X">4=0,426;219=0,426;237=0,666667</property>
    <property name="Corner 2 Y">4=0,4015;219=0,4015;237=0,333333</property>
    <property name="Corner 3 X">4=0,425667;219=0,425667;237=0,666667</property>
    <property name="Corner 3 Y">4=0,4725;219=0,4725;237=0,666667</property>
    <property name="Corner 4 X">4=0,359;219=0,359;237=0,333333</property>
    <property name="Corner 4 Y">4=0,476833;219=0,476833;237=0,666667</property>
    <property name="Stretch X">4=0,5;219=0,5;237=0,5</property>
    <property name="Stretch Y">4=0,5;219=0,5;237=0,5</property>
    <property name="Feather Alpha">4=0,02;219=0,02;237=0,02</property>
    <property name="Enable Stretch">0</property>
    <property name="Interpolator">0,166</property>
    <property name="Transparent Background">1</property>
    <property name="Alpha operation">0,0</property>
   </filter>
  </entry>
  <entry producer="43_video" in="238" out="7653"/>
  <blank length="3311"/>
  <entry producer="33_playlist0" in="6" out="14282"/>
  <blank length="3198"/>
  <entry producer="35_playlist0" in="14750" out="21619"/>
  <entry producer="36_playlist0" in="21621" out="30875">
   <filter id="filter11">
    <property name="version">0,3</property>
    <property name="mlt_service">frei0r.levels</property>
    <property name="kdenlive_id">frei0r.levels</property>
    <property name="tag">frei0r.levels</property>
    <property name="kdenlive_ix">1</property>
    <property name="kdenlive_info"/>
    <property name="disable">1</property>
    <property name="Channel">0,3</property>
    <property name="Input black level">21621=0,023</property>
    <property name="Input white level">21621=0,895</property>
    <property name="Gamma">21621=0,25</property>
    <property name="Black output">21621=0</property>
    <property name="White output">21621=1</property>
    <property name="Show histogram">0</property>
    <property name="Histogram position">0,3</property>
   </filter>
  </entry>
  <filter id="filter17">
   <property name="mlt_service">avfilter.lut3d</property>
   <property name="kdenlive_id">avfilter.lut3d</property>
   <property name="tag">avfilter.lut3d</property>
   <property name="kdenlive_ix">1</property>
   <property name="kdenlive_info"/>
   <property name="disable">0</property>
   <property name="av.file">/media/bordun/plagiat/Clip02_RespecteLaPuissancePapale/LUT/test.CUBE</property>
   <property name="av.interp">tetrahedral </property>
  </filter>
  <filter id="filter12">
   <property name="version">0,3</property>
   <property name="mlt_service">frei0r.levels</property>
   <property name="kdenlive_id">frei0r.levels</property>
   <property name="tag">frei0r.levels</property>
   <property name="kdenlive_ix">2</property>
   <property name="kdenlive_info">0/-1/</property>
   <property name="Channel">0,3</property>
   <property name="Input black level">0=0,015</property>
   <property name="Input white level">0=0,9</property>
   <property name="Gamma">0=0,3</property>
   <property name="Black output">0=0</property>
   <property name="White output">0=1</property>
   <property name="Show histogram">0</property>
   <property name="Histogram position">0,3</property>
   <property name="disable">0</property>
  </filter>
  <filter id="filter13">
   <property name="version">0,3</property>
   <property name="mlt_service">frei0r.saturat0r</property>
   <property name="kdenlive_id">frei0r.saturat0r</property>
   <property name="tag">frei0r.saturat0r</property>
   <property name="kdenlive_ix">3</property>
   <property name="kdenlive_info"/>
   <property name="Saturation">0=0,09</property>
   <property name="disable">0</property>
  </filter>
 </playlist>
 <producer title="Anonymous Submission" id="28_playlist7" in="0" out="114270">
  <property name="length">00:38:05:21</property>
  <property name="eof">pause</property>
  <property name="resource">00_Intro.kdenlive</property>
  <property name="mlt_service">xml</property>
  <property name="global_feed">1</property>
  <property name="xml">was here</property>
  <property name="seekable">1</property>
  <property name="kdenlive:file_size">286174</property>
  <property name="kdenlive:file_hash">0c76646757af9f65571b8e091e4fb017</property>
 </producer>
 <producer title="Anonymous Submission" id="44_video" in="0" out="10290">
  <property name="length">00:03:25:41</property>
  <property name="eof">pause</property>
  <property name="resource">/media/bordun/plagiat/2018-12-10_Plagiat_RespecteLaPuissancePapale/extra_youtube/Random Channel Change TV (1999).mp4</property>
  <property name="audio_index">-1</property>
  <property name="video_index">0</property>
  <property name="mute_on_pause">1</property>
  <property name="mlt_service">avformat-novalidate</property>
  <property name="seekable">1</property>
  <property name="aspect_ratio">1</property>
  <property name="kdenlive:file_size">62927318</property>
  <property name="kdenlive:file_hash">390906dad956f91b5038cd48f8eb7438</property>
  <property name="global_feed">1</property>
  <property name="xml">was here</property>
  <property name="meta.media.nb_streams">2</property>
  <property name="meta.media.0.stream.type">video</property>
  <property name="meta.media.0.stream.frame_rate">29,97</property>
  <property name="meta.media.0.stream.sample_aspect_ratio">0</property>
  <property name="meta.media.0.codec.width">1280</property>
  <property name="meta.media.0.codec.height">720</property>
  <property name="meta.media.0.codec.rotate">0</property>
  <property name="meta.media.0.codec.frame_rate">29,97</property>
  <property name="meta.media.0.codec.pix_fmt">yuv420p</property>
  <property name="meta.media.0.codec.sample_aspect_ratio">1</property>
  <property name="meta.media.0.codec.colorspace">709</property>
  <property name="meta.media.0.codec.color_trc">1</property>
  <property name="meta.media.0.codec.name">h264</property>
  <property name="meta.media.0.codec.long_name">H.264 / AVC / MPEG-4 AVC / MPEG-4 part 10</property>
  <property name="meta.media.0.codec.bit_rate">2316549</property>
  <property name="meta.attr.0.stream.creation_time.markup">2018-03-13T09:39:17.000000Z</property>
  <property name="meta.attr.0.stream.handler_name.markup">ISO Media file produced by Google Inc. Created on: 03/13/2018.</property>
  <property name="meta.media.1.stream.type">audio</property>
  <property name="meta.media.1.codec.sample_fmt">fltp</property>
  <property name="meta.media.1.codec.sample_rate">44100</property>
  <property name="meta.media.1.codec.channels">2</property>
  <property name="meta.media.1.codec.name">aac</property>
  <property name="meta.media.1.codec.long_name">AAC (Advanced Audio Coding)</property>
  <property name="meta.media.1.codec.bit_rate">125598</property>
  <property name="meta.attr.1.stream.creation_time.markup">2018-03-13T09:39:17.000000Z</property>
  <property name="meta.attr.1.stream.handler_name.markup">ISO Media file produced by Google Inc. Created on: 03/13/2018.</property>
  <property name="meta.attr.major_brand.markup">mp42</property>
  <property name="meta.attr.minor_version.markup">0</property>
  <property name="meta.attr.compatible_brands.markup">isommp42</property>
  <property name="meta.attr.creation_time.markup">2018-03-13T09:39:17.000000Z</property>
  <property name="meta.media.sample_aspect_num">1</property>
  <property name="meta.media.sample_aspect_den">1</property>
  <property name="meta.media.frame_rate_num">30000</property>
  <property name="meta.media.frame_rate_den">1001</property>
  <property name="meta.media.colorspace">709</property>
  <property name="meta.media.color_trc">1</property>
  <property name="meta.media.width">1280</property>
  <property name="meta.media.height">720</property>
  <property name="meta.media.top_field_first">0</property>
  <property name="meta.media.progressive">1</property>
 </producer>
 <playlist id="playlist7">
  <property name="kdenlive:track_name">Video 2</property>
  <blank length="2725"/>
  <entry producer="28_playlist7" in="2722" out="2723">
   <filter id="invert">
    <property name="mlt_service">invert</property>
    <property name="kdenlive_id">invert</property>
    <property name="tag">invert</property>
    <property name="kdenlive_ix">1</property>
   </filter>
   <filter id="filter14">
    <property name="version">0,3</property>
    <property name="mlt_service">frei0r.saturat0r</property>
    <property name="kdenlive_id">frei0r.saturat0r</property>
    <property name="tag">frei0r.saturat0r</property>
    <property name="kdenlive_ix">2</property>
    <property name="Saturation">2722=0,001</property>
    <property name="kdenlive_info"/>
   </filter>
   <filter id="filter15">
    <property name="version">0,3</property>
    <property name="mlt_service">frei0r.levels</property>
    <property name="kdenlive_id">frei0r.levels</property>
    <property name="tag">frei0r.levels</property>
    <property name="kdenlive_ix">3</property>
    <property name="Channel">0,3</property>
    <property name="Input black level">2722=0,148</property>
    <property name="Input white level">2722=0,913</property>
    <property name="Gamma">2722=0,36825</property>
    <property name="Black output">2722=0</property>
    <property name="White output">2722=1</property>
    <property name="Show histogram">0</property>
    <property name="Histogram position">0,3</property>
    <property name="kdenlive_info">0/-1/</property>
    <property name="disable"/>
   </filter>
  </entry>
  <entry producer="28_playlist7" in="2724" out="2725">
   <filter id="filter16">
    <property name="mlt_service">invert</property>
    <property name="kdenlive_id">invert</property>
    <property name="tag">invert</property>
    <property name="kdenlive_ix">1</property>
   </filter>
   <filter id="filter18">
    <property name="version">0,3</property>
    <property name="mlt_service">frei0r.saturat0r</property>
    <property name="kdenlive_id">frei0r.saturat0r</property>
    <property name="tag">frei0r.saturat0r</property>
    <property name="kdenlive_ix">2</property>
    <property name="Saturation">2722=0,001</property>
    <property name="kdenlive_info"/>
   </filter>
   <filter id="filter19">
    <property name="version">0,3</property>
    <property name="mlt_service">frei0r.levels</property>
    <property name="kdenlive_id">frei0r.levels</property>
    <property name="tag">frei0r.levels</property>
    <property name="kdenlive_ix">3</property>
    <property name="Channel">0,3</property>
    <property name="Input black level">2722=0,148</property>
    <property name="Input white level">2722=0,913</property>
    <property name="Gamma">2722=0,36825</property>
    <property name="Black output">2722=0</property>
    <property name="White output">2722=1</property>
    <property name="Show histogram">0</property>
    <property name="Histogram position">0,3</property>
    <property name="kdenlive_info">0/-1/</property>
    <property name="disable"/>
   </filter>
   <filter id="frei0r.nosync0r">
    <property name="version">0,2</property>
    <property name="mlt_service">frei0r.nosync0r</property>
    <property name="kdenlive_id">frei0r.nosync0r</property>
    <property name="tag">frei0r.nosync0r</property>
    <property name="kdenlive_ix">4</property>
    <property name="HSync">0,04</property>
    <property name="kdenlive_info"/>
    <property name="disable"/>
   </filter>
  </entry>
  <blank length="29142"/>
  <entry producer="44_video" in="2903" out="3061"/>
  <entry producer="44_video" in="2412" out="2529"/>
  <entry producer="44_video" in="4673" out="4685"/>
  <entry producer="44_video" in="6499" out="6932"/>
  <entry producer="44_video" in="7159" out="7283"/>
  <entry producer="44_video" in="5363" out="5565"/>
  <entry producer="44_video" in="8876" out="8888"/>
 </playlist>
 <playlist id="playlist8">
  <property name="kdenlive:track_name">Video 3</property>
  <blank length="12"/>
  <entry producer="34" in="0" out="49248"/>
 </playlist>
 <tractor title="Anonymous Submission" id="maintractor" global_feed="1" in="0" out="49261">
  <track producer="black_track"/>
  <track hide="video" producer="playlist9"/>
  <track hide="video" producer="playlist1"/>
  <track hide="video" producer="playlist2"/>
  <track producer="playlist3"/>
  <track hide="audio" producer="playlist4"/>
  <track hide="audio" producer="playlist6"/>
  <track hide="audio" producer="playlist5"/>
  <track hide="audio" producer="playlist0"/>
  <track hide="audio" producer="playlist7"/>
  <track hide="audio" producer="playlist8"/>
  <transition id="transition10" out="49060">
   <property name="a_track">7</property>
   <property name="b_track">8</property>
   <property name="start">0/0:100%x100%</property>
   <property name="factory">loader</property>
   <property name="aligned">1</property>
   <property name="progressive">1</property>
   <property name="mlt_service">composite</property>
   <property name="kdenlive_id">composite</property>
   <property name="force_track">1</property>
   <property name="deinterlace">0</property>
   <property name="distort">0</property>
   <property name="fill">1</property>
   <property name="geometry">0/0:1920x1080:40</property>
   <property name="halign">centre</property>
   <property name="luma_invert">0</property>
   <property name="operator">over</property>
   <property name="softness">0</property>
   <property name="valign">middle</property>
   <property name="automatic">0</property>
   <property name="luma"/>
  </transition>
  <transition id="transition12" in="4500" out="4733">
   <property name="a_track">6</property>
   <property name="b_track">7</property>
   <property name="start">0/0:100%x100%</property>
   <property name="factory">loader</property>
   <property name="aligned">1</property>
   <property name="progressive">1</property>
   <property name="mlt_service">composite</property>
   <property name="kdenlive_id">composite</property>
   <property name="force_track">0</property>
   <property name="deinterlace">0</property>
   <property name="distort">0</property>
   <property name="fill">1</property>
   <property name="geometry">0%/0%:100%x100%:100</property>
   <property name="halign">centre</property>
   <property name="luma_invert">0</property>
   <property name="operator">over</property>
   <property name="softness">0</property>
   <property name="valign">middle</property>
   <property name="automatic">0</property>
   <property name="luma"/>
  </transition>
  <transition id="transition14" out="49060">
   <property name="a_track">4</property>
   <property name="b_track">5</property>
   <property name="start">0/0:100%x100%</property>
   <property name="factory">loader</property>
   <property name="aligned">1</property>
   <property name="progressive">1</property>
   <property name="mlt_service">composite</property>
   <property name="kdenlive_id">composite</property>
   <property name="force_track">1</property>
   <property name="deinterlace">0</property>
   <property name="distort">0</property>
   <property name="fill">1</property>
   <property name="geometry">0/0:1920x1080:30</property>
   <property name="halign">centre</property>
   <property name="luma_invert">0</property>
   <property name="operator">over</property>
   <property name="softness">0</property>
   <property name="valign">middle</property>
   <property name="automatic">0</property>
   <property name="luma"/>
  </transition>
  <transition id="transition15" in="4500" out="4733">
   <property name="a_track">4</property>
   <property name="b_track">6</property>
   <property name="start">0/0:100%x100%</property>
   <property name="factory">loader</property>
   <property name="aligned">1</property>
   <property name="progressive">1</property>
   <property name="mlt_service">composite</property>
   <property name="kdenlive_id">composite</property>
   <property name="force_track">1</property>
   <property name="deinterlace">0</property>
   <property name="distort">0</property>
   <property name="fill">1</property>
   <property name="geometry">0%/0%:100%x100%:100</property>
   <property name="halign">centre</property>
   <property name="luma_invert">0</property>
   <property name="operator">over</property>
   <property name="softness">0</property>
   <property name="valign">middle</property>
   <property name="automatic">0</property>
   <property name="luma"/>
  </transition>
  <transition id="transition16" in="15461" out="15574">
   <property name="a_track">4</property>
   <property name="b_track">7</property>
   <property name="start">0/0:100%x100%</property>
   <property name="factory">loader</property>
   <property name="aligned">1</property>
   <property name="progressive">1</property>
   <property name="mlt_service">composite</property>
   <property name="kdenlive_id">composite</property>
   <property name="force_track">1</property>
   <property name="deinterlace">0</property>
   <property name="distort">0</property>
   <property name="fill">1</property>
   <property name="geometry">0=0/0:1920x1080:0;35=0/0:1920x1080:30;113=0/0:1920x1080:100</property>
   <property name="halign">centre</property>
   <property name="luma">/tmp/.mount_kdenliKgVGd0/usr/share/kdenlive/lumas/HD/linear_x.pgm</property>
   <property name="luma_invert">0</property>
   <property name="operator">over</property>
   <property name="softness">0,04</property>
   <property name="valign">middle</property>
  </transition>
  <transition id="transition0">
   <property name="a_track">0</property>
   <property name="b_track">1</property>
   <property name="mlt_service">mix</property>
   <property name="always_active">1</property>
   <property name="sum">1</property>
   <property name="internal_added">237</property>
  </transition>
  <transition id="transition1">
   <property name="a_track">0</property>
   <property name="b_track">2</property>
   <property name="mlt_service">mix</property>
   <property name="always_active">1</property>
   <property name="sum">1</property>
   <property name="internal_added">237</property>
  </transition>
  <transition id="transition2">
   <property name="a_track">0</property>
   <property name="b_track">3</property>
   <property name="mlt_service">mix</property>
   <property name="always_active">1</property>
   <property name="sum">1</property>
   <property name="internal_added">237</property>
  </transition>
  <transition id="transition3">
   <property name="a_track">0</property>
   <property name="b_track">4</property>
   <property name="mlt_service">mix</property>
   <property name="always_active">1</property>
   <property name="sum">1</property>
   <property name="internal_added">237</property>
  </transition>
  <transition id="transition4">
   <property name="a_track">0</property>
   <property name="b_track">5</property>
   <property name="mlt_service">mix</property>
   <property name="always_active">1</property>
   <property name="sum">1</property>
   <property name="internal_added">237</property>
  </transition>
  <transition id="transition5">
   <property name="a_track">0</property>
   <property name="b_track">6</property>
   <property name="mlt_service">mix</property>
   <property name="always_active">1</property>
   <property name="sum">1</property>
   <property name="internal_added">237</property>
  </transition>
  <transition id="transition6">
   <property name="a_track">0</property>
   <property name="b_track">7</property>
   <property name="mlt_service">mix</property>
   <property name="always_active">1</property>
   <property name="sum">1</property>
   <property name="internal_added">237</property>
  </transition>
  <transition id="transition7">
   <property name="a_track">0</property>
   <property name="b_track">8</property>
   <property name="mlt_service">mix</property>
   <property name="always_active">1</property>
   <property name="sum">1</property>
   <property name="internal_added">237</property>
  </transition>
  <transition id="transition8">
   <property name="a_track">0</property>
   <property name="b_track">9</property>
   <property name="mlt_service">mix</property>
   <property name="always_active">1</property>
   <property name="sum">1</property>
   <property name="internal_added">237</property>
  </transition>
  <transition id="transition22">
   <property name="a_track">0</property>
   <property name="b_track">10</property>
   <property name="mlt_service">mix</property>
   <property name="always_active">1</property>
   <property name="sum">1</property>
   <property name="internal_added">237</property>
  </transition>
  <transition id="transition9" in="42309" out="42661">
   <property name="a_track">4</property>
   <property name="b_track">7</property>
   <property name="distort">0</property>
   <property name="rect">0%/0%:100%x100%:100%</property>
   <property name="fill">1</property>
   <property name="mlt_service">affine</property>
   <property name="force_track">1</property>
   <property name="geometry">0/0:1920x1080:0</property>
   <property name="keyed">1</property>
   <property name="rotate_x">0</property>
   <property name="rotate_y">0</property>
   <property name="rotate_z">0</property>
   <property name="shear_x">0</property>
   <property name="shear_y">0</property>
   <property name="shear_z">0</property>
  </transition>
  <transition id="transition13" in="39806" out="40307">
   <property name="a_track">4</property>
   <property name="b_track">7</property>
   <property name="distort">0</property>
   <property name="rect">0%/0%:100%x100%:100%</property>
   <property name="fill">1</property>
   <property name="mlt_service">affine</property>
   <property name="force_track">1</property>
   <property name="geometry">0/0:1920x1080:0</property>
   <property name="keyed">1</property>
   <property name="rotate_x">0</property>
   <property name="rotate_y">0</property>
   <property name="rotate_z">0</property>
   <property name="shear_x">0</property>
   <property name="shear_y">0</property>
   <property name="shear_z">0</property>
  </transition>
  <transition id="transition17" in="40413" out="40661">
   <property name="a_track">4</property>
   <property name="b_track">7</property>
   <property name="distort">0</property>
   <property name="rect">0%/0%:100%x100%:100%</property>
   <property name="fill">1</property>
   <property name="mlt_service">affine</property>
   <property name="force_track">1</property>
   <property name="geometry">0/0:1920x1080:0</property>
   <property name="keyed">1</property>
   <property name="rotate_x">0</property>
   <property name="rotate_y">0</property>
   <property name="rotate_z">0</property>
   <property name="shear_x">0</property>
   <property name="shear_y">0</property>
   <property name="shear_z">0</property>
  </transition>
  <transition id="transition18" in="41308" out="41539">
   <property name="a_track">4</property>
   <property name="b_track">7</property>
   <property name="distort">0</property>
   <property name="rect">0%/0%:100%x100%:100%</property>
   <property name="fill">1</property>
   <property name="mlt_service">affine</property>
   <property name="force_track">1</property>
   <property name="geometry">0/0:1920x1080:0</property>
   <property name="keyed">1</property>
   <property name="rotate_x">0</property>
   <property name="rotate_y">0</property>
   <property name="rotate_z">0</property>
   <property name="shear_x">0</property>
   <property name="shear_y">0</property>
   <property name="shear_z">0</property>
  </transition>
  <transition id="transition19" in="40808" out="41039">
   <property name="a_track">4</property>
   <property name="b_track">7</property>
   <property name="distort">0</property>
   <property name="rect">0%/0%:100%x100%:100%</property>
   <property name="fill">1</property>
   <property name="mlt_service">affine</property>
   <property name="force_track">1</property>
   <property name="geometry">0/0:1920x1080:0</property>
   <property name="keyed">1</property>
   <property name="rotate_x">0</property>
   <property name="rotate_y">0</property>
   <property name="rotate_z">0</property>
   <property name="shear_x">0</property>
   <property name="shear_y">0</property>
   <property name="shear_z">0</property>
  </transition>
  <transition id="transition20" in="41912" out="42161">
   <property name="a_track">4</property>
   <property name="b_track">7</property>
   <property name="distort">0</property>
   <property name="rect">0%/0%:100%x100%:100%</property>
   <property name="fill">1</property>
   <property name="mlt_service">affine</property>
   <property name="force_track">1</property>
   <property name="geometry">0/0:1920x1080:0</property>
   <property name="keyed">1</property>
   <property name="rotate_x">0</property>
   <property name="rotate_y">0</property>
   <property name="rotate_z">0</property>
   <property name="shear_x">0</property>
   <property name="shear_y">0</property>
   <property name="shear_z">0</property>
  </transition>
  <transition id="transition21" in="41662" out="41788">
   <property name="a_track">4</property>
   <property name="b_track">7</property>
   <property name="distort">0</property>
   <property name="rect">0%/0%:100%x100%:100%</property>
   <property name="fill">1</property>
   <property name="mlt_service">affine</property>
   <property name="force_track">1</property>
   <property name="geometry">0/0:1920x1080:0</property>
   <property name="keyed">1</property>
   <property name="rotate_x">0</property>
   <property name="rotate_y">0</property>
   <property name="rotate_z">0</property>
   <property name="shear_x">0</property>
   <property name="shear_y">0</property>
   <property name="shear_z">0</property>
  </transition>
 </tractor>
</mlt>
