<?xml version='1.0' encoding='utf-8'?>
<mlt title="Anonymous Submission" LC_NUMERIC="fr_FR.UTF-8" producer="main bin" version="6.13.0" root="/media/bordun/plagiat/Clip02_RespecteLaPuissancePapale/Video">
 <profile frame_rate_num="50" sample_aspect_num="1" display_aspect_den="9" colorspace="709" progressive="1" description="HD 1080p 50 fps" display_aspect_num="16" frame_rate_den="1" width="1920" height="1080" sample_aspect_den="1"/>
 <producer title="Anonymous Submission" id="1" in="0" out="14561">
  <property name="length">00:04:51:12</property>
  <property name="eof">pause</property>
  <property name="resource">/media/bordun/plagiat/2018-12-10_Plagiat_RespecteLaPuissancePapale/Carte_1/CAM1_2018-12-10_1541_C0000.mov</property>
  <property name="audio_index">2</property>
  <property name="video_index">1</property>
  <property name="mute_on_pause">1</property>
  <property name="mlt_service">avformat-novalidate</property>
  <property name="meta.media.nb_streams">3</property>
  <property name="meta.media.1.stream.type">video</property>
  <property name="meta.media.1.stream.frame_rate">50</property>
  <property name="meta.media.1.stream.sample_aspect_ratio">1</property>
  <property name="meta.media.1.codec.width">1920</property>
  <property name="meta.media.1.codec.height">1080</property>
  <property name="meta.media.1.codec.rotate">0</property>
  <property name="meta.media.1.codec.frame_rate">5000</property>
  <property name="meta.media.1.codec.pix_fmt">yuv422p10le</property>
  <property name="meta.media.1.codec.sample_aspect_ratio">0</property>
  <property name="meta.media.1.codec.colorspace">709</property>
  <property name="meta.media.1.codec.name">prores</property>
  <property name="meta.media.1.codec.long_name">ProRes (iCodec Pro)</property>
  <property name="meta.media.1.codec.bit_rate">366959179</property>
  <property name="meta.attr.1.stream.creation_time.markup">2018-12-10T15:41:17.000000Z</property>
  <property name="meta.attr.1.stream.language.markup">eng</property>
  <property name="meta.attr.1.stream.handler_name.markup">Apple Video Media Handler</property>
  <property name="meta.attr.1.stream.encoder.markup">Apple ProRes 422 HQ</property>
  <property name="meta.attr.1.stream.timecode.markup">15:41:17:21</property>
  <property name="meta.media.2.stream.type">audio</property>
  <property name="meta.media.2.codec.sample_fmt">s32</property>
  <property name="meta.media.2.codec.sample_rate">48000</property>
  <property name="meta.media.2.codec.channels">2</property>
  <property name="meta.media.2.codec.name">pcm_s24le</property>
  <property name="meta.media.2.codec.long_name">PCM signed 24-bit little-endian</property>
  <property name="meta.media.2.codec.bit_rate">2304000</property>
  <property name="meta.attr.2.stream.creation_time.markup">2018-12-10T15:41:17.000000Z</property>
  <property name="meta.attr.2.stream.language.markup">eng</property>
  <property name="meta.attr.2.stream.handler_name.markup">Apple Sound Media Handler</property>
  <property name="meta.attr.2.stream.timecode.markup">15:41:17:21</property>
  <property name="meta.attr.com.apple.proapps.manufacturer.markup">Blackmagic Design</property>
  <property name="meta.attr.com.apple.proapps.cameraName.markup">CAM1</property>
  <property name="meta.attr.com.apple.proapps.isGood.markup">0</property>
  <property name="meta.attr.com.apple.proapps.customgamma.markup">com.blackmagic-design.cinemacamera.filmlog</property>
  <property name="meta.attr.com.blackmagic-design.cinemacamera.uuid.markup">18E5E00548F94923B646613A73C01B56</property>
  <property name="meta.attr.creation_time.markup">2018-12-10T15:41:17.000000Z</property>
  <property name="meta.attr.timecode.markup">15:41:17:21</property>
  <property name="seekable">1</property>
  <property name="meta.media.sample_aspect_num">1</property>
  <property name="meta.media.sample_aspect_den">1</property>
  <property name="aspect_ratio">1</property>
  <property name="kdenlive:folderid">9</property>
  <property name="kdenlive:file_size">13444313961</property>
  <property name="kdenlive:file_hash">ef25fabf181f2da437febd9d2ce92b72</property>
  <property name="global_feed">1</property>
  <property name="meta.media.frame_rate_num">50</property>
  <property name="meta.media.frame_rate_den">1</property>
  <property name="meta.media.colorspace">709</property>
  <property name="meta.media.color_trc">2</property>
  <property name="meta.media.width">1920</property>
  <property name="meta.media.height">1080</property>
  <property name="meta.media.top_field_first">0</property>
  <property name="meta.media.progressive">1</property>
 </producer>
 <producer title="Anonymous Submission" id="5" in="0" out="19246">
  <property name="length">00:06:24:47</property>
  <property name="eof">pause</property>
  <property name="resource">/media/bordun/plagiat/2018-12-10_Plagiat_RespecteLaPuissancePapale/Carte_2/CAM1_2018-12-10_1629_C0000.mov</property>
  <property name="audio_index">2</property>
  <property name="video_index">1</property>
  <property name="mute_on_pause">1</property>
  <property name="mlt_service">avformat-novalidate</property>
  <property name="meta.media.nb_streams">3</property>
  <property name="meta.media.1.stream.type">video</property>
  <property name="meta.media.1.stream.frame_rate">50</property>
  <property name="meta.media.1.stream.sample_aspect_ratio">1</property>
  <property name="meta.media.1.codec.width">1920</property>
  <property name="meta.media.1.codec.height">1080</property>
  <property name="meta.media.1.codec.rotate">0</property>
  <property name="meta.media.1.codec.frame_rate">5000</property>
  <property name="meta.media.1.codec.pix_fmt">yuv422p10le</property>
  <property name="meta.media.1.codec.sample_aspect_ratio">0</property>
  <property name="meta.media.1.codec.colorspace">709</property>
  <property name="meta.media.1.codec.name">prores</property>
  <property name="meta.media.1.codec.long_name">ProRes (iCodec Pro)</property>
  <property name="meta.media.1.codec.bit_rate">366959020</property>
  <property name="meta.attr.1.stream.creation_time.markup">2018-12-10T16:29:10.000000Z</property>
  <property name="meta.attr.1.stream.language.markup">eng</property>
  <property name="meta.attr.1.stream.handler_name.markup">Apple Video Media Handler</property>
  <property name="meta.attr.1.stream.encoder.markup">Apple ProRes 422 HQ</property>
  <property name="meta.attr.1.stream.timecode.markup">16:29:10:24</property>
  <property name="meta.media.2.stream.type">audio</property>
  <property name="meta.media.2.codec.sample_fmt">s32</property>
  <property name="meta.media.2.codec.sample_rate">48000</property>
  <property name="meta.media.2.codec.channels">2</property>
  <property name="meta.media.2.codec.name">pcm_s24le</property>
  <property name="meta.media.2.codec.long_name">PCM signed 24-bit little-endian</property>
  <property name="meta.media.2.codec.bit_rate">2304000</property>
  <property name="meta.attr.2.stream.creation_time.markup">2018-12-10T16:29:10.000000Z</property>
  <property name="meta.attr.2.stream.language.markup">eng</property>
  <property name="meta.attr.2.stream.handler_name.markup">Apple Sound Media Handler</property>
  <property name="meta.attr.2.stream.timecode.markup">16:29:10:24</property>
  <property name="meta.attr.com.apple.proapps.manufacturer.markup">Blackmagic Design</property>
  <property name="meta.attr.com.apple.proapps.cameraName.markup">CAM1</property>
  <property name="meta.attr.com.apple.proapps.isGood.markup">0</property>
  <property name="meta.attr.com.apple.proapps.customgamma.markup">com.blackmagic-design.cinemacamera.filmlog</property>
  <property name="meta.attr.com.blackmagic-design.cinemacamera.uuid.markup">18E5E00548F94923B646613A73C01B56</property>
  <property name="meta.attr.creation_time.markup">2018-12-10T16:29:10.000000Z</property>
  <property name="meta.attr.timecode.markup">16:29:10:24</property>
  <property name="seekable">1</property>
  <property name="meta.media.sample_aspect_num">1</property>
  <property name="meta.media.sample_aspect_den">1</property>
  <property name="aspect_ratio">1</property>
  <property name="kdenlive:folderid">9</property>
  <property name="kdenlive:file_size">17769713233</property>
  <property name="kdenlive:file_hash">40fd95546ae131f6c5881d8660dbcccc</property>
  <property name="global_feed">1</property>
  <property name="meta.media.frame_rate_num">50</property>
  <property name="meta.media.frame_rate_den">1</property>
  <property name="meta.media.colorspace">709</property>
  <property name="meta.media.color_trc">2</property>
  <property name="meta.media.width">1920</property>
  <property name="meta.media.height">1080</property>
  <property name="meta.media.top_field_first">0</property>
  <property name="meta.media.progressive">1</property>
 </producer>
 <producer title="Anonymous Submission" id="4" in="0" out="24870">
  <property name="length">00:08:17:21</property>
  <property name="eof">pause</property>
  <property name="resource">/media/bordun/plagiat/2018-12-10_Plagiat_RespecteLaPuissancePapale/Carte_1/CAM1_2018-12-10_1615_C0003.mov</property>
  <property name="audio_index">2</property>
  <property name="video_index">1</property>
  <property name="mute_on_pause">1</property>
  <property name="mlt_service">avformat-novalidate</property>
  <property name="meta.media.nb_streams">3</property>
  <property name="meta.media.1.stream.type">video</property>
  <property name="meta.media.1.stream.frame_rate">50</property>
  <property name="meta.media.1.stream.sample_aspect_ratio">1</property>
  <property name="meta.media.1.codec.width">1920</property>
  <property name="meta.media.1.codec.height">1080</property>
  <property name="meta.media.1.codec.rotate">0</property>
  <property name="meta.media.1.codec.frame_rate">5000</property>
  <property name="meta.media.1.codec.pix_fmt">yuv422p10le</property>
  <property name="meta.media.1.codec.sample_aspect_ratio">0</property>
  <property name="meta.media.1.codec.colorspace">709</property>
  <property name="meta.media.1.codec.name">prores</property>
  <property name="meta.media.1.codec.long_name">ProRes (iCodec Pro)</property>
  <property name="meta.media.1.codec.bit_rate">366958409</property>
  <property name="meta.attr.1.stream.creation_time.markup">2018-12-10T16:15:42.000000Z</property>
  <property name="meta.attr.1.stream.language.markup">eng</property>
  <property name="meta.attr.1.stream.handler_name.markup">Apple Video Media Handler</property>
  <property name="meta.attr.1.stream.encoder.markup">Apple ProRes 422 HQ</property>
  <property name="meta.attr.1.stream.timecode.markup">16:15:42:33</property>
  <property name="meta.media.2.stream.type">audio</property>
  <property name="meta.media.2.codec.sample_fmt">s32</property>
  <property name="meta.media.2.codec.sample_rate">48000</property>
  <property name="meta.media.2.codec.channels">2</property>
  <property name="meta.media.2.codec.name">pcm_s24le</property>
  <property name="meta.media.2.codec.long_name">PCM signed 24-bit little-endian</property>
  <property name="meta.media.2.codec.bit_rate">2304000</property>
  <property name="meta.attr.2.stream.creation_time.markup">2018-12-10T16:15:42.000000Z</property>
  <property name="meta.attr.2.stream.language.markup">eng</property>
  <property name="meta.attr.2.stream.handler_name.markup">Apple Sound Media Handler</property>
  <property name="meta.attr.2.stream.timecode.markup">16:15:42:33</property>
  <property name="meta.attr.com.apple.proapps.manufacturer.markup">Blackmagic Design</property>
  <property name="meta.attr.com.apple.proapps.cameraName.markup">CAM1</property>
  <property name="meta.attr.com.apple.proapps.isGood.markup">0</property>
  <property name="meta.attr.com.apple.proapps.customgamma.markup">com.blackmagic-design.cinemacamera.filmlog</property>
  <property name="meta.attr.com.blackmagic-design.cinemacamera.uuid.markup">18E5E00548F94923B646613A73C01B56</property>
  <property name="meta.attr.creation_time.markup">2018-12-10T16:15:42.000000Z</property>
  <property name="meta.attr.timecode.markup">16:15:42:33</property>
  <property name="seekable">1</property>
  <property name="meta.media.sample_aspect_num">1</property>
  <property name="meta.media.sample_aspect_den">1</property>
  <property name="aspect_ratio">1</property>
  <property name="kdenlive:folderid">9</property>
  <property name="kdenlive:file_size">22962054105</property>
  <property name="kdenlive:file_hash">c46129788c0a47f07299f13c18fcc857</property>
  <property name="global_feed">1</property>
  <property name="meta.media.frame_rate_num">50</property>
  <property name="meta.media.frame_rate_den">1</property>
  <property name="meta.media.colorspace">709</property>
  <property name="meta.media.color_trc">2</property>
  <property name="meta.media.width">1920</property>
  <property name="meta.media.height">1080</property>
  <property name="meta.media.top_field_first">0</property>
  <property name="meta.media.progressive">1</property>
 </producer>
 <producer title="Anonymous Submission" id="3" in="0" out="11635">
  <property name="length">00:03:52:36</property>
  <property name="eof">pause</property>
  <property name="resource">/media/bordun/plagiat/2018-12-10_Plagiat_RespecteLaPuissancePapale/Carte_1/CAM1_2018-12-10_1601_C0002.mov</property>
  <property name="audio_index">2</property>
  <property name="video_index">1</property>
  <property name="mute_on_pause">1</property>
  <property name="mlt_service">avformat-novalidate</property>
  <property name="meta.media.nb_streams">3</property>
  <property name="meta.media.1.stream.type">video</property>
  <property name="meta.media.1.stream.frame_rate">50</property>
  <property name="meta.media.1.stream.sample_aspect_ratio">1</property>
  <property name="meta.media.1.codec.width">1920</property>
  <property name="meta.media.1.codec.height">1080</property>
  <property name="meta.media.1.codec.rotate">0</property>
  <property name="meta.media.1.codec.frame_rate">5000</property>
  <property name="meta.media.1.codec.pix_fmt">yuv422p10le</property>
  <property name="meta.media.1.codec.sample_aspect_ratio">0</property>
  <property name="meta.media.1.codec.colorspace">709</property>
  <property name="meta.media.1.codec.name">prores</property>
  <property name="meta.media.1.codec.long_name">ProRes (iCodec Pro)</property>
  <property name="meta.media.1.codec.bit_rate">366958785</property>
  <property name="meta.attr.1.stream.creation_time.markup">2018-12-10T16:01:37.000000Z</property>
  <property name="meta.attr.1.stream.language.markup">eng</property>
  <property name="meta.attr.1.stream.handler_name.markup">Apple Video Media Handler</property>
  <property name="meta.attr.1.stream.encoder.markup">Apple ProRes 422 HQ</property>
  <property name="meta.attr.1.stream.timecode.markup">16:01:37:09</property>
  <property name="meta.media.2.stream.type">audio</property>
  <property name="meta.media.2.codec.sample_fmt">s32</property>
  <property name="meta.media.2.codec.sample_rate">48000</property>
  <property name="meta.media.2.codec.channels">2</property>
  <property name="meta.media.2.codec.name">pcm_s24le</property>
  <property name="meta.media.2.codec.long_name">PCM signed 24-bit little-endian</property>
  <property name="meta.media.2.codec.bit_rate">2304000</property>
  <property name="meta.attr.2.stream.creation_time.markup">2018-12-10T16:01:37.000000Z</property>
  <property name="meta.attr.2.stream.language.markup">eng</property>
  <property name="meta.attr.2.stream.handler_name.markup">Apple Sound Media Handler</property>
  <property name="meta.attr.2.stream.timecode.markup">16:01:37:09</property>
  <property name="meta.attr.com.apple.proapps.manufacturer.markup">Blackmagic Design</property>
  <property name="meta.attr.com.apple.proapps.cameraName.markup">CAM1</property>
  <property name="meta.attr.com.apple.proapps.isGood.markup">0</property>
  <property name="meta.attr.com.apple.proapps.customgamma.markup">com.blackmagic-design.cinemacamera.filmlog</property>
  <property name="meta.attr.com.blackmagic-design.cinemacamera.uuid.markup">18E5E00548F94923B646613A73C01B56</property>
  <property name="meta.attr.creation_time.markup">2018-12-10T16:01:37.000000Z</property>
  <property name="meta.attr.timecode.markup">16:01:37:09</property>
  <property name="seekable">1</property>
  <property name="meta.media.sample_aspect_num">1</property>
  <property name="meta.media.sample_aspect_den">1</property>
  <property name="aspect_ratio">1</property>
  <property name="kdenlive:folderid">9</property>
  <property name="kdenlive:file_size">10795373957</property>
  <property name="kdenlive:file_hash">c46cb1ab94a25f5ab196e5d4e002dba1</property>
  <property name="global_feed">1</property>
  <property name="meta.media.frame_rate_num">50</property>
  <property name="meta.media.frame_rate_den">1</property>
  <property name="meta.media.colorspace">709</property>
  <property name="meta.media.color_trc">2</property>
  <property name="meta.media.width">1920</property>
  <property name="meta.media.height">1080</property>
  <property name="meta.media.top_field_first">0</property>
  <property name="meta.media.progressive">1</property>
 </producer>
 <producer title="Anonymous Submission" id="2" in="0" out="11667">
  <property name="length">00:03:53:18</property>
  <property name="eof">pause</property>
  <property name="resource">/media/bordun/plagiat/2018-12-10_Plagiat_RespecteLaPuissancePapale/Carte_1/CAM1_2018-12-10_1552_C0001.mov</property>
  <property name="audio_index">2</property>
  <property name="video_index">1</property>
  <property name="mute_on_pause">1</property>
  <property name="mlt_service">avformat-novalidate</property>
  <property name="meta.media.nb_streams">3</property>
  <property name="meta.media.1.stream.type">video</property>
  <property name="meta.media.1.stream.frame_rate">50</property>
  <property name="meta.media.1.stream.sample_aspect_ratio">1</property>
  <property name="meta.media.1.codec.width">1920</property>
  <property name="meta.media.1.codec.height">1080</property>
  <property name="meta.media.1.codec.rotate">0</property>
  <property name="meta.media.1.codec.frame_rate">5000</property>
  <property name="meta.media.1.codec.pix_fmt">yuv422p10le</property>
  <property name="meta.media.1.codec.sample_aspect_ratio">0</property>
  <property name="meta.media.1.codec.colorspace">709</property>
  <property name="meta.media.1.codec.name">prores</property>
  <property name="meta.media.1.codec.long_name">ProRes (iCodec Pro)</property>
  <property name="meta.media.1.codec.bit_rate">366959328</property>
  <property name="meta.attr.1.stream.creation_time.markup">2018-12-10T15:52:13.000000Z</property>
  <property name="meta.attr.1.stream.language.markup">eng</property>
  <property name="meta.attr.1.stream.handler_name.markup">Apple Video Media Handler</property>
  <property name="meta.attr.1.stream.encoder.markup">Apple ProRes 422 HQ</property>
  <property name="meta.attr.1.stream.timecode.markup">15:52:13:35</property>
  <property name="meta.media.2.stream.type">audio</property>
  <property name="meta.media.2.codec.sample_fmt">s32</property>
  <property name="meta.media.2.codec.sample_rate">48000</property>
  <property name="meta.media.2.codec.channels">2</property>
  <property name="meta.media.2.codec.name">pcm_s24le</property>
  <property name="meta.media.2.codec.long_name">PCM signed 24-bit little-endian</property>
  <property name="meta.media.2.codec.bit_rate">2304000</property>
  <property name="meta.attr.2.stream.creation_time.markup">2018-12-10T15:52:13.000000Z</property>
  <property name="meta.attr.2.stream.language.markup">eng</property>
  <property name="meta.attr.2.stream.handler_name.markup">Apple Sound Media Handler</property>
  <property name="meta.attr.2.stream.timecode.markup">15:52:13:35</property>
  <property name="meta.attr.com.apple.proapps.manufacturer.markup">Blackmagic Design</property>
  <property name="meta.attr.com.apple.proapps.cameraName.markup">CAM1</property>
  <property name="meta.attr.com.apple.proapps.isGood.markup">0</property>
  <property name="meta.attr.com.apple.proapps.customgamma.markup">com.blackmagic-design.cinemacamera.filmlog</property>
  <property name="meta.attr.com.blackmagic-design.cinemacamera.uuid.markup">18E5E00548F94923B646613A73C01B56</property>
  <property name="meta.attr.creation_time.markup">2018-12-10T15:52:13.000000Z</property>
  <property name="meta.attr.timecode.markup">15:52:13:35</property>
  <property name="seekable">1</property>
  <property name="meta.media.sample_aspect_num">1</property>
  <property name="meta.media.sample_aspect_den">1</property>
  <property name="aspect_ratio">1</property>
  <property name="kdenlive:folderid">9</property>
  <property name="kdenlive:file_size">10772440985</property>
  <property name="kdenlive:file_hash">3b4484753689f48a337c1729ea18ad59</property>
  <property name="global_feed">1</property>
  <property name="meta.media.frame_rate_num">50</property>
  <property name="meta.media.frame_rate_den">1</property>
  <property name="meta.media.colorspace">709</property>
  <property name="meta.media.color_trc">2</property>
  <property name="meta.media.width">1920</property>
  <property name="meta.media.height">1080</property>
  <property name="meta.media.top_field_first">0</property>
  <property name="meta.media.progressive">1</property>
 </producer>
 <producer title="Anonymous Submission" id="6" in="0" out="4178">
  <property name="length">00:01:23:29</property>
  <property name="eof">pause</property>
  <property name="resource">/media/bordun/plagiat/2018-12-10_Plagiat_RespecteLaPuissancePapale/Carte_2/CAM1_2018-12-10_1638_C0001.mov</property>
  <property name="audio_index">2</property>
  <property name="video_index">1</property>
  <property name="mute_on_pause">1</property>
  <property name="mlt_service">avformat-novalidate</property>
  <property name="meta.media.nb_streams">3</property>
  <property name="meta.media.1.stream.type">video</property>
  <property name="meta.media.1.stream.frame_rate">50</property>
  <property name="meta.media.1.stream.sample_aspect_ratio">1</property>
  <property name="meta.media.1.codec.width">1920</property>
  <property name="meta.media.1.codec.height">1080</property>
  <property name="meta.media.1.codec.rotate">0</property>
  <property name="meta.media.1.codec.frame_rate">5000</property>
  <property name="meta.media.1.codec.pix_fmt">yuv422p10le</property>
  <property name="meta.media.1.codec.sample_aspect_ratio">0</property>
  <property name="meta.media.1.codec.colorspace">709</property>
  <property name="meta.media.1.codec.name">prores</property>
  <property name="meta.media.1.codec.long_name">ProRes (iCodec Pro)</property>
  <property name="meta.media.1.codec.bit_rate">366955515</property>
  <property name="meta.attr.1.stream.creation_time.markup">2018-12-10T16:38:23.000000Z</property>
  <property name="meta.attr.1.stream.language.markup">eng</property>
  <property name="meta.attr.1.stream.handler_name.markup">Apple Video Media Handler</property>
  <property name="meta.attr.1.stream.encoder.markup">Apple ProRes 422 HQ</property>
  <property name="meta.attr.1.stream.timecode.markup">16:38:23:16</property>
  <property name="meta.media.2.stream.type">audio</property>
  <property name="meta.media.2.codec.sample_fmt">s32</property>
  <property name="meta.media.2.codec.sample_rate">48000</property>
  <property name="meta.media.2.codec.channels">2</property>
  <property name="meta.media.2.codec.name">pcm_s24le</property>
  <property name="meta.media.2.codec.long_name">PCM signed 24-bit little-endian</property>
  <property name="meta.media.2.codec.bit_rate">2304000</property>
  <property name="meta.attr.2.stream.creation_time.markup">2018-12-10T16:38:23.000000Z</property>
  <property name="meta.attr.2.stream.language.markup">eng</property>
  <property name="meta.attr.2.stream.handler_name.markup">Apple Sound Media Handler</property>
  <property name="meta.attr.2.stream.timecode.markup">16:38:23:16</property>
  <property name="meta.attr.com.apple.proapps.manufacturer.markup">Blackmagic Design</property>
  <property name="meta.attr.com.apple.proapps.cameraName.markup">CAM1</property>
  <property name="meta.attr.com.apple.proapps.isGood.markup">0</property>
  <property name="meta.attr.com.apple.proapps.customgamma.markup">com.blackmagic-design.cinemacamera.filmlog</property>
  <property name="meta.attr.com.blackmagic-design.cinemacamera.uuid.markup">18E5E00548F94923B646613A73C01B56</property>
  <property name="meta.attr.creation_time.markup">2018-12-10T16:38:23.000000Z</property>
  <property name="meta.attr.timecode.markup">16:38:23:16</property>
  <property name="seekable">1</property>
  <property name="meta.media.sample_aspect_num">1</property>
  <property name="meta.media.sample_aspect_den">1</property>
  <property name="aspect_ratio">1</property>
  <property name="kdenlive:folderid">10</property>
  <property name="kdenlive:file_size">3858252521</property>
  <property name="kdenlive:file_hash">5c73d3cae02de055fc4255e57a85a699</property>
  <property name="global_feed">1</property>
  <property name="meta.media.frame_rate_num">50</property>
  <property name="meta.media.frame_rate_den">1</property>
  <property name="meta.media.colorspace">709</property>
  <property name="meta.media.color_trc">2</property>
  <property name="meta.media.width">1920</property>
  <property name="meta.media.height">1080</property>
  <property name="meta.media.top_field_first">0</property>
  <property name="meta.media.progressive">1</property>
 </producer>
 <producer title="Anonymous Submission" id="7" in="0" out="8532">
  <property name="length">00:02:50:33</property>
  <property name="eof">pause</property>
  <property name="resource">/media/bordun/plagiat/2018-12-10_Plagiat_RespecteLaPuissancePapale/Carte_2/CAM1_2018-12-10_1642_C0002.mov</property>
  <property name="audio_index">2</property>
  <property name="video_index">1</property>
  <property name="mute_on_pause">1</property>
  <property name="mlt_service">avformat-novalidate</property>
  <property name="meta.media.nb_streams">3</property>
  <property name="meta.media.1.stream.type">video</property>
  <property name="meta.media.1.stream.frame_rate">50</property>
  <property name="meta.media.1.stream.sample_aspect_ratio">1</property>
  <property name="meta.media.1.codec.width">1920</property>
  <property name="meta.media.1.codec.height">1080</property>
  <property name="meta.media.1.codec.rotate">0</property>
  <property name="meta.media.1.codec.frame_rate">5000</property>
  <property name="meta.media.1.codec.pix_fmt">yuv422p10le</property>
  <property name="meta.media.1.codec.sample_aspect_ratio">0</property>
  <property name="meta.media.1.codec.colorspace">709</property>
  <property name="meta.media.1.codec.name">prores</property>
  <property name="meta.media.1.codec.long_name">ProRes (iCodec Pro)</property>
  <property name="meta.media.1.codec.bit_rate">366955794</property>
  <property name="meta.attr.1.stream.creation_time.markup">2018-12-10T16:42:49.000000Z</property>
  <property name="meta.attr.1.stream.language.markup">eng</property>
  <property name="meta.attr.1.stream.handler_name.markup">Apple Video Media Handler</property>
  <property name="meta.attr.1.stream.encoder.markup">Apple ProRes 422 HQ</property>
  <property name="meta.attr.1.stream.timecode.markup">16:42:49:18</property>
  <property name="meta.media.2.stream.type">audio</property>
  <property name="meta.media.2.codec.sample_fmt">s32</property>
  <property name="meta.media.2.codec.sample_rate">48000</property>
  <property name="meta.media.2.codec.channels">2</property>
  <property name="meta.media.2.codec.name">pcm_s24le</property>
  <property name="meta.media.2.codec.long_name">PCM signed 24-bit little-endian</property>
  <property name="meta.media.2.codec.bit_rate">2304000</property>
  <property name="meta.attr.2.stream.creation_time.markup">2018-12-10T16:42:49.000000Z</property>
  <property name="meta.attr.2.stream.language.markup">eng</property>
  <property name="meta.attr.2.stream.handler_name.markup">Apple Sound Media Handler</property>
  <property name="meta.attr.2.stream.timecode.markup">16:42:49:18</property>
  <property name="meta.attr.com.apple.proapps.manufacturer.markup">Blackmagic Design</property>
  <property name="meta.attr.com.apple.proapps.cameraName.markup">CAM1</property>
  <property name="meta.attr.com.apple.proapps.isGood.markup">0</property>
  <property name="meta.attr.com.apple.proapps.customgamma.markup">com.blackmagic-design.cinemacamera.filmlog</property>
  <property name="meta.attr.com.blackmagic-design.cinemacamera.uuid.markup">18E5E00548F94923B646613A73C01B56</property>
  <property name="meta.attr.creation_time.markup">2018-12-10T16:42:49.000000Z</property>
  <property name="meta.attr.timecode.markup">16:42:49:18</property>
  <property name="seekable">1</property>
  <property name="meta.media.sample_aspect_num">1</property>
  <property name="meta.media.sample_aspect_den">1</property>
  <property name="aspect_ratio">1</property>
  <property name="kdenlive:folderid">10</property>
  <property name="kdenlive:file_size">7878058913</property>
  <property name="kdenlive:file_hash">804eaf7e1fe7b8bd61bac5713c20d510</property>
  <property name="global_feed">1</property>
  <property name="meta.media.frame_rate_num">50</property>
  <property name="meta.media.frame_rate_den">1</property>
  <property name="meta.media.colorspace">709</property>
  <property name="meta.media.color_trc">2</property>
  <property name="meta.media.width">1920</property>
  <property name="meta.media.height">1080</property>
  <property name="meta.media.top_field_first">0</property>
  <property name="meta.media.progressive">1</property>
 </producer>
 <producer title="Anonymous Submission" id="16" in="0" out="2403">
  <property name="length">00:00:48:04</property>
  <property name="eof">pause</property>
  <property name="resource">/media/bordun/plagiat/2018-12-10_Plagiat_RespecteLaPuissancePapale/Carte_3/CAM1_2018-12-10_1851_C0005.mov</property>
  <property name="audio_index">2</property>
  <property name="video_index">1</property>
  <property name="mute_on_pause">1</property>
  <property name="mlt_service">avformat-novalidate</property>
  <property name="meta.media.nb_streams">3</property>
  <property name="meta.media.1.stream.type">video</property>
  <property name="meta.media.1.stream.frame_rate">50</property>
  <property name="meta.media.1.stream.sample_aspect_ratio">1</property>
  <property name="meta.media.1.codec.width">1920</property>
  <property name="meta.media.1.codec.height">1080</property>
  <property name="meta.media.1.codec.rotate">0</property>
  <property name="meta.media.1.codec.frame_rate">5000</property>
  <property name="meta.media.1.codec.pix_fmt">yuv422p10le</property>
  <property name="meta.media.1.codec.sample_aspect_ratio">0</property>
  <property name="meta.media.1.codec.colorspace">709</property>
  <property name="meta.media.1.codec.name">prores</property>
  <property name="meta.media.1.codec.long_name">ProRes (iCodec Pro)</property>
  <property name="meta.media.1.codec.bit_rate">366956708</property>
  <property name="meta.attr.1.stream.creation_time.markup">2018-12-10T18:51:16.000000Z</property>
  <property name="meta.attr.1.stream.language.markup">eng</property>
  <property name="meta.attr.1.stream.handler_name.markup">Apple Video Media Handler</property>
  <property name="meta.attr.1.stream.encoder.markup">Apple ProRes 422 HQ</property>
  <property name="meta.attr.1.stream.timecode.markup">18:51:16:13</property>
  <property name="meta.media.2.stream.type">audio</property>
  <property name="meta.media.2.codec.sample_fmt">s32</property>
  <property name="meta.media.2.codec.sample_rate">48000</property>
  <property name="meta.media.2.codec.channels">2</property>
  <property name="meta.media.2.codec.name">pcm_s24le</property>
  <property name="meta.media.2.codec.long_name">PCM signed 24-bit little-endian</property>
  <property name="meta.media.2.codec.bit_rate">2304000</property>
  <property name="meta.attr.2.stream.creation_time.markup">2018-12-10T18:51:16.000000Z</property>
  <property name="meta.attr.2.stream.language.markup">eng</property>
  <property name="meta.attr.2.stream.handler_name.markup">Apple Sound Media Handler</property>
  <property name="meta.attr.2.stream.timecode.markup">18:51:16:13</property>
  <property name="meta.attr.com.apple.proapps.manufacturer.markup">Blackmagic Design</property>
  <property name="meta.attr.com.apple.proapps.cameraName.markup">CAM1</property>
  <property name="meta.attr.com.apple.proapps.isGood.markup">0</property>
  <property name="meta.attr.com.apple.proapps.customgamma.markup">com.blackmagic-design.cinemacamera.filmlog</property>
  <property name="meta.attr.com.blackmagic-design.cinemacamera.uuid.markup">18E5E00548F94923B646613A73C01B56</property>
  <property name="meta.attr.creation_time.markup">2018-12-10T18:51:16.000000Z</property>
  <property name="meta.attr.timecode.markup">18:51:16:13</property>
  <property name="seekable">1</property>
  <property name="meta.media.sample_aspect_num">1</property>
  <property name="meta.media.sample_aspect_den">1</property>
  <property name="aspect_ratio">1</property>
  <property name="kdenlive:folderid">13</property>
  <property name="kdenlive:file_size">2219492305</property>
  <property name="kdenlive:file_hash">5decca499b71c19207e6eb5441ec1c74</property>
  <property name="global_feed">1</property>
  <property name="meta.media.frame_rate_num">50</property>
  <property name="meta.media.frame_rate_den">1</property>
  <property name="meta.media.colorspace">709</property>
  <property name="meta.media.color_trc">2</property>
  <property name="meta.media.width">1920</property>
  <property name="meta.media.height">1080</property>
  <property name="meta.media.top_field_first">0</property>
  <property name="meta.media.progressive">1</property>
 </producer>
 <producer title="Anonymous Submission" id="17" in="0" out="2706">
  <property name="length">00:00:54:07</property>
  <property name="eof">pause</property>
  <property name="resource">/media/bordun/plagiat/2018-12-10_Plagiat_RespecteLaPuissancePapale/Carte_3/CAM1_2018-12-10_1853_C0006.mov</property>
  <property name="audio_index">2</property>
  <property name="video_index">1</property>
  <property name="mute_on_pause">1</property>
  <property name="mlt_service">avformat-novalidate</property>
  <property name="meta.media.nb_streams">3</property>
  <property name="meta.media.1.stream.type">video</property>
  <property name="meta.media.1.stream.frame_rate">50</property>
  <property name="meta.media.1.stream.sample_aspect_ratio">1</property>
  <property name="meta.media.1.codec.width">1920</property>
  <property name="meta.media.1.codec.height">1080</property>
  <property name="meta.media.1.codec.rotate">0</property>
  <property name="meta.media.1.codec.frame_rate">5000</property>
  <property name="meta.media.1.codec.pix_fmt">yuv422p10le</property>
  <property name="meta.media.1.codec.sample_aspect_ratio">0</property>
  <property name="meta.media.1.codec.colorspace">709</property>
  <property name="meta.media.1.codec.name">prores</property>
  <property name="meta.media.1.codec.long_name">ProRes (iCodec Pro)</property>
  <property name="meta.media.1.codec.bit_rate">366954964</property>
  <property name="meta.attr.1.stream.creation_time.markup">2018-12-10T18:53:43.000000Z</property>
  <property name="meta.attr.1.stream.language.markup">eng</property>
  <property name="meta.attr.1.stream.handler_name.markup">Apple Video Media Handler</property>
  <property name="meta.attr.1.stream.encoder.markup">Apple ProRes 422 HQ</property>
  <property name="meta.attr.1.stream.timecode.markup">18:53:43:03</property>
  <property name="meta.media.2.stream.type">audio</property>
  <property name="meta.media.2.codec.sample_fmt">s32</property>
  <property name="meta.media.2.codec.sample_rate">48000</property>
  <property name="meta.media.2.codec.channels">2</property>
  <property name="meta.media.2.codec.name">pcm_s24le</property>
  <property name="meta.media.2.codec.long_name">PCM signed 24-bit little-endian</property>
  <property name="meta.media.2.codec.bit_rate">2304000</property>
  <property name="meta.attr.2.stream.creation_time.markup">2018-12-10T18:53:43.000000Z</property>
  <property name="meta.attr.2.stream.language.markup">eng</property>
  <property name="meta.attr.2.stream.handler_name.markup">Apple Sound Media Handler</property>
  <property name="meta.attr.2.stream.timecode.markup">18:53:43:03</property>
  <property name="meta.attr.com.apple.proapps.manufacturer.markup">Blackmagic Design</property>
  <property name="meta.attr.com.apple.proapps.cameraName.markup">CAM1</property>
  <property name="meta.attr.com.apple.proapps.isGood.markup">0</property>
  <property name="meta.attr.com.apple.proapps.customgamma.markup">com.blackmagic-design.cinemacamera.filmlog</property>
  <property name="meta.attr.com.blackmagic-design.cinemacamera.uuid.markup">18E5E00548F94923B646613A73C01B56</property>
  <property name="meta.attr.creation_time.markup">2018-12-10T18:53:43.000000Z</property>
  <property name="meta.attr.timecode.markup">18:53:43:03</property>
  <property name="seekable">1</property>
  <property name="meta.media.sample_aspect_num">1</property>
  <property name="meta.media.sample_aspect_den">1</property>
  <property name="aspect_ratio">1</property>
  <property name="kdenlive:folderid">13</property>
  <property name="kdenlive:file_size">2499243521</property>
  <property name="kdenlive:file_hash">c52a59c46a49b670f466d109daab353c</property>
  <property name="global_feed">1</property>
  <property name="meta.media.frame_rate_num">50</property>
  <property name="meta.media.frame_rate_den">1</property>
  <property name="meta.media.colorspace">709</property>
  <property name="meta.media.color_trc">2</property>
  <property name="meta.media.width">1920</property>
  <property name="meta.media.height">1080</property>
  <property name="meta.media.top_field_first">0</property>
  <property name="meta.media.progressive">1</property>
 </producer>
 <producer title="Anonymous Submission" id="18" in="0" out="1547">
  <property name="length">00:00:30:48</property>
  <property name="eof">pause</property>
  <property name="resource">/media/bordun/plagiat/2018-12-10_Plagiat_RespecteLaPuissancePapale/Carte_3/CAM1_2018-12-10_1855_C0007.mov</property>
  <property name="audio_index">2</property>
  <property name="video_index">1</property>
  <property name="mute_on_pause">1</property>
  <property name="mlt_service">avformat-novalidate</property>
  <property name="meta.media.nb_streams">3</property>
  <property name="meta.media.1.stream.type">video</property>
  <property name="meta.media.1.stream.frame_rate">50</property>
  <property name="meta.media.1.stream.sample_aspect_ratio">1</property>
  <property name="meta.media.1.codec.width">1920</property>
  <property name="meta.media.1.codec.height">1080</property>
  <property name="meta.media.1.codec.rotate">0</property>
  <property name="meta.media.1.codec.frame_rate">5000</property>
  <property name="meta.media.1.codec.pix_fmt">yuv422p10le</property>
  <property name="meta.media.1.codec.sample_aspect_ratio">0</property>
  <property name="meta.media.1.codec.colorspace">709</property>
  <property name="meta.media.1.codec.name">prores</property>
  <property name="meta.media.1.codec.long_name">ProRes (iCodec Pro)</property>
  <property name="meta.media.1.codec.bit_rate">366957395</property>
  <property name="meta.attr.1.stream.creation_time.markup">2018-12-10T18:55:29.000000Z</property>
  <property name="meta.attr.1.stream.language.markup">eng</property>
  <property name="meta.attr.1.stream.handler_name.markup">Apple Video Media Handler</property>
  <property name="meta.attr.1.stream.encoder.markup">Apple ProRes 422 HQ</property>
  <property name="meta.attr.1.stream.timecode.markup">18:55:29:30</property>
  <property name="meta.media.2.stream.type">audio</property>
  <property name="meta.media.2.codec.sample_fmt">s32</property>
  <property name="meta.media.2.codec.sample_rate">48000</property>
  <property name="meta.media.2.codec.channels">2</property>
  <property name="meta.media.2.codec.name">pcm_s24le</property>
  <property name="meta.media.2.codec.long_name">PCM signed 24-bit little-endian</property>
  <property name="meta.media.2.codec.bit_rate">2304000</property>
  <property name="meta.attr.2.stream.creation_time.markup">2018-12-10T18:55:29.000000Z</property>
  <property name="meta.attr.2.stream.language.markup">eng</property>
  <property name="meta.attr.2.stream.handler_name.markup">Apple Sound Media Handler</property>
  <property name="meta.attr.2.stream.timecode.markup">18:55:29:30</property>
  <property name="meta.attr.com.apple.proapps.manufacturer.markup">Blackmagic Design</property>
  <property name="meta.attr.com.apple.proapps.cameraName.markup">CAM1</property>
  <property name="meta.attr.com.apple.proapps.isGood.markup">0</property>
  <property name="meta.attr.com.apple.proapps.customgamma.markup">com.blackmagic-design.cinemacamera.filmlog</property>
  <property name="meta.attr.com.blackmagic-design.cinemacamera.uuid.markup">18E5E00548F94923B646613A73C01B56</property>
  <property name="meta.attr.creation_time.markup">2018-12-10T18:55:29.000000Z</property>
  <property name="meta.attr.timecode.markup">18:55:29:30</property>
  <property name="seekable">1</property>
  <property name="meta.media.sample_aspect_num">1</property>
  <property name="meta.media.sample_aspect_den">1</property>
  <property name="aspect_ratio">1</property>
  <property name="kdenlive:folderid">13</property>
  <property name="kdenlive:file_size">1429192513</property>
  <property name="kdenlive:file_hash">626434d53e10f12816265ac334d41379</property>
  <property name="global_feed">1</property>
  <property name="meta.media.frame_rate_num">50</property>
  <property name="meta.media.frame_rate_den">1</property>
  <property name="meta.media.colorspace">709</property>
  <property name="meta.media.color_trc">2</property>
  <property name="meta.media.width">1920</property>
  <property name="meta.media.height">1080</property>
  <property name="meta.media.top_field_first">0</property>
  <property name="meta.media.progressive">1</property>
 </producer>
 <producer title="Anonymous Submission" id="19" in="0" out="2823">
  <property name="length">00:00:56:24</property>
  <property name="eof">pause</property>
  <property name="resource">/media/bordun/plagiat/2018-12-10_Plagiat_RespecteLaPuissancePapale/Carte_3/CAM1_2018-12-10_1856_C0008.mov</property>
  <property name="audio_index">2</property>
  <property name="video_index">1</property>
  <property name="mute_on_pause">1</property>
  <property name="mlt_service">avformat-novalidate</property>
  <property name="meta.media.nb_streams">3</property>
  <property name="meta.media.1.stream.type">video</property>
  <property name="meta.media.1.stream.frame_rate">50</property>
  <property name="meta.media.1.stream.sample_aspect_ratio">1</property>
  <property name="meta.media.1.codec.width">1920</property>
  <property name="meta.media.1.codec.height">1080</property>
  <property name="meta.media.1.codec.rotate">0</property>
  <property name="meta.media.1.codec.frame_rate">5000</property>
  <property name="meta.media.1.codec.pix_fmt">yuv422p10le</property>
  <property name="meta.media.1.codec.sample_aspect_ratio">0</property>
  <property name="meta.media.1.codec.colorspace">709</property>
  <property name="meta.media.1.codec.name">prores</property>
  <property name="meta.media.1.codec.long_name">ProRes (iCodec Pro)</property>
  <property name="meta.media.1.codec.bit_rate">366955049</property>
  <property name="meta.attr.1.stream.creation_time.markup">2018-12-10T18:56:22.000000Z</property>
  <property name="meta.attr.1.stream.language.markup">eng</property>
  <property name="meta.attr.1.stream.handler_name.markup">Apple Video Media Handler</property>
  <property name="meta.attr.1.stream.encoder.markup">Apple ProRes 422 HQ</property>
  <property name="meta.attr.1.stream.timecode.markup">18:56:22:36</property>
  <property name="meta.media.2.stream.type">audio</property>
  <property name="meta.media.2.codec.sample_fmt">s32</property>
  <property name="meta.media.2.codec.sample_rate">48000</property>
  <property name="meta.media.2.codec.channels">2</property>
  <property name="meta.media.2.codec.name">pcm_s24le</property>
  <property name="meta.media.2.codec.long_name">PCM signed 24-bit little-endian</property>
  <property name="meta.media.2.codec.bit_rate">2304000</property>
  <property name="meta.attr.2.stream.creation_time.markup">2018-12-10T18:56:22.000000Z</property>
  <property name="meta.attr.2.stream.language.markup">eng</property>
  <property name="meta.attr.2.stream.handler_name.markup">Apple Sound Media Handler</property>
  <property name="meta.attr.2.stream.timecode.markup">18:56:22:36</property>
  <property name="meta.attr.com.apple.proapps.manufacturer.markup">Blackmagic Design</property>
  <property name="meta.attr.com.apple.proapps.cameraName.markup">CAM1</property>
  <property name="meta.attr.com.apple.proapps.isGood.markup">0</property>
  <property name="meta.attr.com.apple.proapps.customgamma.markup">com.blackmagic-design.cinemacamera.filmlog</property>
  <property name="meta.attr.com.blackmagic-design.cinemacamera.uuid.markup">18E5E00548F94923B646613A73C01B56</property>
  <property name="meta.attr.creation_time.markup">2018-12-10T18:56:22.000000Z</property>
  <property name="meta.attr.timecode.markup">18:56:22:36</property>
  <property name="seekable">1</property>
  <property name="meta.media.sample_aspect_num">1</property>
  <property name="meta.media.sample_aspect_den">1</property>
  <property name="aspect_ratio">1</property>
  <property name="kdenlive:folderid">13</property>
  <property name="kdenlive:file_size">2607255569</property>
  <property name="kdenlive:file_hash">4d6c52ada6c928dfc33b28648fd401f1</property>
  <property name="global_feed">1</property>
  <property name="meta.media.frame_rate_num">50</property>
  <property name="meta.media.frame_rate_den">1</property>
  <property name="meta.media.colorspace">709</property>
  <property name="meta.media.color_trc">2</property>
  <property name="meta.media.width">1920</property>
  <property name="meta.media.height">1080</property>
  <property name="meta.media.top_field_first">0</property>
  <property name="meta.media.progressive">1</property>
  <property name="kdenlive:zone_in">261</property>
  <property name="kdenlive:zone_out">1043</property>
  <filter id="pan_zoom" out="2823">
   <property name="background">colour:0x00000000</property>
   <property name="mlt_service">affine</property>
   <property name="kdenlive_id">pan_zoom</property>
   <property name="tag">affine</property>
   <property name="kdenlive_ix">1</property>
   <property name="kdenlive:sync_in_out">1</property>
   <property name="kdenlive_info"/>
   <property name="transition.geometry">-768/-333:2688x1512:100</property>
   <property name="transition.distort">0</property>
   <property name="disable">1</property>
  </filter>
 </producer>
 <producer title="Anonymous Submission" id="20" in="0" out="995">
  <property name="length">00:00:19:46</property>
  <property name="eof">pause</property>
  <property name="resource">/media/bordun/plagiat/2018-12-10_Plagiat_RespecteLaPuissancePapale/Carte_3/CAM1_2018-12-10_1857_C0009.mov</property>
  <property name="audio_index">2</property>
  <property name="video_index">1</property>
  <property name="mute_on_pause">1</property>
  <property name="mlt_service">avformat-novalidate</property>
  <property name="meta.media.nb_streams">3</property>
  <property name="meta.media.1.stream.type">video</property>
  <property name="meta.media.1.stream.frame_rate">50</property>
  <property name="meta.media.1.stream.sample_aspect_ratio">1</property>
  <property name="meta.media.1.codec.width">1920</property>
  <property name="meta.media.1.codec.height">1080</property>
  <property name="meta.media.1.codec.rotate">0</property>
  <property name="meta.media.1.codec.frame_rate">5000</property>
  <property name="meta.media.1.codec.pix_fmt">yuv422p10le</property>
  <property name="meta.media.1.codec.sample_aspect_ratio">0</property>
  <property name="meta.media.1.codec.colorspace">709</property>
  <property name="meta.media.1.codec.name">prores</property>
  <property name="meta.media.1.codec.long_name">ProRes (iCodec Pro)</property>
  <property name="meta.media.1.codec.bit_rate">366959048</property>
  <property name="meta.attr.1.stream.creation_time.markup">2018-12-10T18:57:40.000000Z</property>
  <property name="meta.attr.1.stream.language.markup">eng</property>
  <property name="meta.attr.1.stream.handler_name.markup">Apple Video Media Handler</property>
  <property name="meta.attr.1.stream.encoder.markup">Apple ProRes 422 HQ</property>
  <property name="meta.attr.1.stream.timecode.markup">18:57:40:47</property>
  <property name="meta.media.2.stream.type">audio</property>
  <property name="meta.media.2.codec.sample_fmt">s32</property>
  <property name="meta.media.2.codec.sample_rate">48000</property>
  <property name="meta.media.2.codec.channels">2</property>
  <property name="meta.media.2.codec.name">pcm_s24le</property>
  <property name="meta.media.2.codec.long_name">PCM signed 24-bit little-endian</property>
  <property name="meta.media.2.codec.bit_rate">2304000</property>
  <property name="meta.attr.2.stream.creation_time.markup">2018-12-10T18:57:40.000000Z</property>
  <property name="meta.attr.2.stream.language.markup">eng</property>
  <property name="meta.attr.2.stream.handler_name.markup">Apple Sound Media Handler</property>
  <property name="meta.attr.2.stream.timecode.markup">18:57:40:47</property>
  <property name="meta.attr.com.apple.proapps.manufacturer.markup">Blackmagic Design</property>
  <property name="meta.attr.com.apple.proapps.cameraName.markup">CAM1</property>
  <property name="meta.attr.com.apple.proapps.isGood.markup">0</property>
  <property name="meta.attr.com.apple.proapps.customgamma.markup">com.blackmagic-design.cinemacamera.filmlog</property>
  <property name="meta.attr.com.blackmagic-design.cinemacamera.uuid.markup">18E5E00548F94923B646613A73C01B56</property>
  <property name="meta.attr.creation_time.markup">2018-12-10T18:57:40.000000Z</property>
  <property name="meta.attr.timecode.markup">18:57:40:47</property>
  <property name="seekable">1</property>
  <property name="meta.media.sample_aspect_num">1</property>
  <property name="meta.media.sample_aspect_den">1</property>
  <property name="aspect_ratio">1</property>
  <property name="kdenlive:folderid">13</property>
  <property name="kdenlive:file_size">919559913</property>
  <property name="kdenlive:file_hash">1729a26f0eb1c7c9bfd5136f79c4245a</property>
  <property name="global_feed">1</property>
  <property name="meta.media.frame_rate_num">50</property>
  <property name="meta.media.frame_rate_den">1</property>
  <property name="meta.media.colorspace">709</property>
  <property name="meta.media.color_trc">2</property>
  <property name="meta.media.width">1920</property>
  <property name="meta.media.height">1080</property>
  <property name="meta.media.top_field_first">0</property>
  <property name="meta.media.progressive">1</property>
 </producer>
 <producer title="Anonymous Submission" id="21" in="0" out="8367">
  <property name="length">00:02:47:18</property>
  <property name="eof">pause</property>
  <property name="resource">/media/bordun/plagiat/2018-12-10_Plagiat_RespecteLaPuissancePapale/Carte_4/CAM1_2018-12-10_1918_C0004.mov</property>
  <property name="audio_index">2</property>
  <property name="video_index">1</property>
  <property name="mute_on_pause">1</property>
  <property name="mlt_service">avformat-novalidate</property>
  <property name="meta.media.nb_streams">3</property>
  <property name="meta.media.1.stream.type">video</property>
  <property name="meta.media.1.stream.frame_rate">50</property>
  <property name="meta.media.1.stream.sample_aspect_ratio">1</property>
  <property name="meta.media.1.codec.width">1920</property>
  <property name="meta.media.1.codec.height">1080</property>
  <property name="meta.media.1.codec.rotate">0</property>
  <property name="meta.media.1.codec.frame_rate">5000</property>
  <property name="meta.media.1.codec.pix_fmt">yuv422p10le</property>
  <property name="meta.media.1.codec.sample_aspect_ratio">0</property>
  <property name="meta.media.1.codec.colorspace">709</property>
  <property name="meta.media.1.codec.name">prores</property>
  <property name="meta.media.1.codec.long_name">ProRes (iCodec Pro)</property>
  <property name="meta.media.1.codec.bit_rate">366957425</property>
  <property name="meta.attr.1.stream.creation_time.markup">2018-12-10T19:18:09.000000Z</property>
  <property name="meta.attr.1.stream.language.markup">eng</property>
  <property name="meta.attr.1.stream.handler_name.markup">Apple Video Media Handler</property>
  <property name="meta.attr.1.stream.encoder.markup">Apple ProRes 422 HQ</property>
  <property name="meta.attr.1.stream.timecode.markup">19:18:09:37</property>
  <property name="meta.media.2.stream.type">audio</property>
  <property name="meta.media.2.codec.sample_fmt">s32</property>
  <property name="meta.media.2.codec.sample_rate">48000</property>
  <property name="meta.media.2.codec.channels">2</property>
  <property name="meta.media.2.codec.name">pcm_s24le</property>
  <property name="meta.media.2.codec.long_name">PCM signed 24-bit little-endian</property>
  <property name="meta.media.2.codec.bit_rate">2304000</property>
  <property name="meta.attr.2.stream.creation_time.markup">2018-12-10T19:18:09.000000Z</property>
  <property name="meta.attr.2.stream.language.markup">eng</property>
  <property name="meta.attr.2.stream.handler_name.markup">Apple Sound Media Handler</property>
  <property name="meta.attr.2.stream.timecode.markup">19:18:09:37</property>
  <property name="meta.attr.com.apple.proapps.manufacturer.markup">Blackmagic Design</property>
  <property name="meta.attr.com.apple.proapps.cameraName.markup">CAM1</property>
  <property name="meta.attr.com.apple.proapps.isGood.markup">0</property>
  <property name="meta.attr.com.apple.proapps.customgamma.markup">com.blackmagic-design.cinemacamera.filmlog</property>
  <property name="meta.attr.com.blackmagic-design.cinemacamera.uuid.markup">18E5E00548F94923B646613A73C01B56</property>
  <property name="meta.attr.creation_time.markup">2018-12-10T19:18:09.000000Z</property>
  <property name="meta.attr.timecode.markup">19:18:09:37</property>
  <property name="seekable">1</property>
  <property name="meta.media.sample_aspect_num">1</property>
  <property name="meta.media.sample_aspect_den">1</property>
  <property name="aspect_ratio">1</property>
  <property name="kdenlive:folderid">13</property>
  <property name="kdenlive:file_size">7725732233</property>
  <property name="kdenlive:file_hash">4738ec11929b714df4a2322c7cba3752</property>
  <property name="global_feed">1</property>
  <property name="meta.media.frame_rate_num">50</property>
  <property name="meta.media.frame_rate_den">1</property>
  <property name="meta.media.colorspace">709</property>
  <property name="meta.media.color_trc">2</property>
  <property name="meta.media.width">1920</property>
  <property name="meta.media.height">1080</property>
  <property name="meta.media.top_field_first">0</property>
  <property name="meta.media.progressive">1</property>
 </producer>
 <producer title="Anonymous Submission" id="23" in="0" out="90">
  <property name="length">00:00:01:41</property>
  <property name="eof">pause</property>
  <property name="resource">/media/bordun/plagiat/2018-12-10_Plagiat_RespecteLaPuissancePapale/Carte_4/CAM1_2018-12-10_1930_C0006.mov</property>
  <property name="audio_index">2</property>
  <property name="video_index">1</property>
  <property name="mute_on_pause">1</property>
  <property name="mlt_service">avformat-novalidate</property>
  <property name="meta.media.nb_streams">3</property>
  <property name="meta.media.1.stream.type">video</property>
  <property name="meta.media.1.stream.frame_rate">50</property>
  <property name="meta.media.1.stream.sample_aspect_ratio">1</property>
  <property name="meta.media.1.codec.width">1920</property>
  <property name="meta.media.1.codec.height">1080</property>
  <property name="meta.media.1.codec.rotate">0</property>
  <property name="meta.media.1.codec.frame_rate">5000</property>
  <property name="meta.media.1.codec.pix_fmt">yuv422p10le</property>
  <property name="meta.media.1.codec.sample_aspect_ratio">0</property>
  <property name="meta.media.1.codec.colorspace">709</property>
  <property name="meta.media.1.codec.name">prores</property>
  <property name="meta.media.1.codec.long_name">ProRes (iCodec Pro)</property>
  <property name="meta.media.1.codec.bit_rate">366959648</property>
  <property name="meta.attr.1.stream.creation_time.markup">2018-12-10T19:30:36.000000Z</property>
  <property name="meta.attr.1.stream.language.markup">eng</property>
  <property name="meta.attr.1.stream.handler_name.markup">Apple Video Media Handler</property>
  <property name="meta.attr.1.stream.encoder.markup">Apple ProRes 422 HQ</property>
  <property name="meta.attr.1.stream.timecode.markup">19:30:36:33</property>
  <property name="meta.media.2.stream.type">audio</property>
  <property name="meta.media.2.codec.sample_fmt">s32</property>
  <property name="meta.media.2.codec.sample_rate">48000</property>
  <property name="meta.media.2.codec.channels">2</property>
  <property name="meta.media.2.codec.name">pcm_s24le</property>
  <property name="meta.media.2.codec.long_name">PCM signed 24-bit little-endian</property>
  <property name="meta.media.2.codec.bit_rate">2304000</property>
  <property name="meta.attr.2.stream.creation_time.markup">2018-12-10T19:30:36.000000Z</property>
  <property name="meta.attr.2.stream.language.markup">eng</property>
  <property name="meta.attr.2.stream.handler_name.markup">Apple Sound Media Handler</property>
  <property name="meta.attr.2.stream.timecode.markup">19:30:36:33</property>
  <property name="meta.attr.com.apple.proapps.manufacturer.markup">Blackmagic Design</property>
  <property name="meta.attr.com.apple.proapps.cameraName.markup">CAM1</property>
  <property name="meta.attr.com.apple.proapps.isGood.markup">0</property>
  <property name="meta.attr.com.apple.proapps.customgamma.markup">com.blackmagic-design.cinemacamera.filmlog</property>
  <property name="meta.attr.com.blackmagic-design.cinemacamera.uuid.markup">18E5E00548F94923B646613A73C01B56</property>
  <property name="meta.attr.creation_time.markup">2018-12-10T19:30:36.000000Z</property>
  <property name="meta.attr.timecode.markup">19:30:36:33</property>
  <property name="seekable">1</property>
  <property name="meta.media.sample_aspect_num">1</property>
  <property name="meta.media.sample_aspect_den">1</property>
  <property name="aspect_ratio">1</property>
  <property name="kdenlive:folderid">13</property>
  <property name="kdenlive:file_size">84022873</property>
  <property name="kdenlive:file_hash">1ba34791faa62b04135628a57849c83e</property>
  <property name="global_feed">1</property>
  <property name="meta.media.frame_rate_num">50</property>
  <property name="meta.media.frame_rate_den">1</property>
  <property name="meta.media.colorspace">709</property>
  <property name="meta.media.color_trc">2</property>
  <property name="meta.media.width">1920</property>
  <property name="meta.media.height">1080</property>
  <property name="meta.media.top_field_first">0</property>
  <property name="meta.media.progressive">1</property>
 </producer>
 <producer title="Anonymous Submission" id="24" in="0" out="2194">
  <property name="length">00:00:43:45</property>
  <property name="eof">pause</property>
  <property name="resource">/media/bordun/plagiat/2018-12-10_Plagiat_RespecteLaPuissancePapale/Carte_4/CAM1_2018-12-10_1932_C0007.mov</property>
  <property name="audio_index">2</property>
  <property name="video_index">1</property>
  <property name="mute_on_pause">1</property>
  <property name="mlt_service">avformat-novalidate</property>
  <property name="meta.media.nb_streams">3</property>
  <property name="meta.media.1.stream.type">video</property>
  <property name="meta.media.1.stream.frame_rate">50</property>
  <property name="meta.media.1.stream.sample_aspect_ratio">1</property>
  <property name="meta.media.1.codec.width">1920</property>
  <property name="meta.media.1.codec.height">1080</property>
  <property name="meta.media.1.codec.rotate">0</property>
  <property name="meta.media.1.codec.frame_rate">5000</property>
  <property name="meta.media.1.codec.pix_fmt">yuv422p10le</property>
  <property name="meta.media.1.codec.sample_aspect_ratio">0</property>
  <property name="meta.media.1.codec.colorspace">709</property>
  <property name="meta.media.1.codec.name">prores</property>
  <property name="meta.media.1.codec.long_name">ProRes (iCodec Pro)</property>
  <property name="meta.media.1.codec.bit_rate">366958350</property>
  <property name="meta.attr.1.stream.creation_time.markup">2018-12-10T19:32:10.000000Z</property>
  <property name="meta.attr.1.stream.language.markup">eng</property>
  <property name="meta.attr.1.stream.handler_name.markup">Apple Video Media Handler</property>
  <property name="meta.attr.1.stream.encoder.markup">Apple ProRes 422 HQ</property>
  <property name="meta.attr.1.stream.timecode.markup">19:32:10:35</property>
  <property name="meta.media.2.stream.type">audio</property>
  <property name="meta.media.2.codec.sample_fmt">s32</property>
  <property name="meta.media.2.codec.sample_rate">48000</property>
  <property name="meta.media.2.codec.channels">2</property>
  <property name="meta.media.2.codec.name">pcm_s24le</property>
  <property name="meta.media.2.codec.long_name">PCM signed 24-bit little-endian</property>
  <property name="meta.media.2.codec.bit_rate">2304000</property>
  <property name="meta.attr.2.stream.creation_time.markup">2018-12-10T19:32:10.000000Z</property>
  <property name="meta.attr.2.stream.language.markup">eng</property>
  <property name="meta.attr.2.stream.handler_name.markup">Apple Sound Media Handler</property>
  <property name="meta.attr.2.stream.timecode.markup">19:32:10:35</property>
  <property name="meta.attr.com.apple.proapps.manufacturer.markup">Blackmagic Design</property>
  <property name="meta.attr.com.apple.proapps.cameraName.markup">CAM1</property>
  <property name="meta.attr.com.apple.proapps.isGood.markup">0</property>
  <property name="meta.attr.com.apple.proapps.customgamma.markup">com.blackmagic-design.cinemacamera.filmlog</property>
  <property name="meta.attr.com.blackmagic-design.cinemacamera.uuid.markup">18E5E00548F94923B646613A73C01B56</property>
  <property name="meta.attr.creation_time.markup">2018-12-10T19:32:10.000000Z</property>
  <property name="meta.attr.timecode.markup">19:32:10:35</property>
  <property name="seekable">1</property>
  <property name="meta.media.sample_aspect_num">1</property>
  <property name="meta.media.sample_aspect_den">1</property>
  <property name="aspect_ratio">1</property>
  <property name="kdenlive:folderid">13</property>
  <property name="kdenlive:file_size">2026532265</property>
  <property name="kdenlive:file_hash">817b2a44d7814a42acea89e05d1f8fde</property>
  <property name="global_feed">1</property>
  <property name="meta.media.frame_rate_num">50</property>
  <property name="meta.media.frame_rate_den">1</property>
  <property name="meta.media.colorspace">709</property>
  <property name="meta.media.color_trc">2</property>
  <property name="meta.media.width">1920</property>
  <property name="meta.media.height">1080</property>
  <property name="meta.media.top_field_first">0</property>
  <property name="meta.media.progressive">1</property>
  <property name="kdenlive:zone_in">1490</property>
  <property name="kdenlive:zone_out">1492</property>
  <filter id="frei0r.levels">
   <property name="version">0,3</property>
   <property name="mlt_service">frei0r.levels</property>
   <property name="kdenlive_id">frei0r.levels</property>
   <property name="tag">frei0r.levels</property>
   <property name="kdenlive_ix">1</property>
   <property name="kdenlive_info"/>
   <property name="Channel">0,3</property>
   <property name="Input black level">0=0</property>
   <property name="Input white level">0=0,112</property>
   <property name="Gamma">0=0,31825</property>
   <property name="Black output">0=0,734</property>
   <property name="White output">0=0,54</property>
   <property name="Show histogram">0</property>
   <property name="Histogram position">0,3</property>
  </filter>
 </producer>
 <producer title="Anonymous Submission" id="22" in="0" out="2303">
  <property name="length">00:00:46:04</property>
  <property name="eof">pause</property>
  <property name="resource">/media/bordun/plagiat/2018-12-10_Plagiat_RespecteLaPuissancePapale/Carte_4/CAM1_2018-12-10_1921_C0005.mov</property>
  <property name="audio_index">2</property>
  <property name="video_index">1</property>
  <property name="mute_on_pause">1</property>
  <property name="mlt_service">avformat-novalidate</property>
  <property name="meta.media.nb_streams">3</property>
  <property name="meta.media.1.stream.type">video</property>
  <property name="meta.media.1.stream.frame_rate">50</property>
  <property name="meta.media.1.stream.sample_aspect_ratio">1</property>
  <property name="meta.media.1.codec.width">1920</property>
  <property name="meta.media.1.codec.height">1080</property>
  <property name="meta.media.1.codec.rotate">0</property>
  <property name="meta.media.1.codec.frame_rate">5000</property>
  <property name="meta.media.1.codec.pix_fmt">yuv422p10le</property>
  <property name="meta.media.1.codec.sample_aspect_ratio">0</property>
  <property name="meta.media.1.codec.colorspace">709</property>
  <property name="meta.media.1.codec.name">prores</property>
  <property name="meta.media.1.codec.long_name">ProRes (iCodec Pro)</property>
  <property name="meta.media.1.codec.bit_rate">366955247</property>
  <property name="meta.attr.1.stream.creation_time.markup">2018-12-10T19:21:23.000000Z</property>
  <property name="meta.attr.1.stream.language.markup">eng</property>
  <property name="meta.attr.1.stream.handler_name.markup">Apple Video Media Handler</property>
  <property name="meta.attr.1.stream.encoder.markup">Apple ProRes 422 HQ</property>
  <property name="meta.attr.1.stream.timecode.markup">19:21:23:42</property>
  <property name="meta.media.2.stream.type">audio</property>
  <property name="meta.media.2.codec.sample_fmt">s32</property>
  <property name="meta.media.2.codec.sample_rate">48000</property>
  <property name="meta.media.2.codec.channels">2</property>
  <property name="meta.media.2.codec.name">pcm_s24le</property>
  <property name="meta.media.2.codec.long_name">PCM signed 24-bit little-endian</property>
  <property name="meta.media.2.codec.bit_rate">2304000</property>
  <property name="meta.attr.2.stream.creation_time.markup">2018-12-10T19:21:23.000000Z</property>
  <property name="meta.attr.2.stream.language.markup">eng</property>
  <property name="meta.attr.2.stream.handler_name.markup">Apple Sound Media Handler</property>
  <property name="meta.attr.2.stream.timecode.markup">19:21:23:42</property>
  <property name="meta.attr.com.apple.proapps.manufacturer.markup">Blackmagic Design</property>
  <property name="meta.attr.com.apple.proapps.cameraName.markup">CAM1</property>
  <property name="meta.attr.com.apple.proapps.isGood.markup">0</property>
  <property name="meta.attr.com.apple.proapps.customgamma.markup">com.blackmagic-design.cinemacamera.filmlog</property>
  <property name="meta.attr.com.blackmagic-design.cinemacamera.uuid.markup">18E5E00548F94923B646613A73C01B56</property>
  <property name="meta.attr.creation_time.markup">2018-12-10T19:21:23.000000Z</property>
  <property name="meta.attr.timecode.markup">19:21:23:42</property>
  <property name="seekable">1</property>
  <property name="meta.media.sample_aspect_num">1</property>
  <property name="meta.media.sample_aspect_den">1</property>
  <property name="aspect_ratio">1</property>
  <property name="kdenlive:folderid">13</property>
  <property name="kdenlive:file_size">2127176129</property>
  <property name="kdenlive:file_hash">498399b1185fccb66f9150f51f3e9c22</property>
  <property name="global_feed">1</property>
  <property name="meta.media.frame_rate_num">50</property>
  <property name="meta.media.frame_rate_den">1</property>
  <property name="meta.media.colorspace">709</property>
  <property name="meta.media.color_trc">2</property>
  <property name="meta.media.width">1920</property>
  <property name="meta.media.height">1080</property>
  <property name="meta.media.top_field_first">0</property>
  <property name="meta.media.progressive">1</property>
 </producer>
 <producer title="Anonymous Submission" id="14" in="0" out="3805">
  <property name="length">00:01:16:06</property>
  <property name="eof">pause</property>
  <property name="resource">/media/bordun/plagiat/2018-12-10_Plagiat_RespecteLaPuissancePapale/Carte_3/CAM1_2018-12-10_1833_C0003.mov</property>
  <property name="audio_index">2</property>
  <property name="video_index">1</property>
  <property name="mute_on_pause">1</property>
  <property name="mlt_service">avformat-novalidate</property>
  <property name="meta.media.nb_streams">3</property>
  <property name="meta.media.1.stream.type">video</property>
  <property name="meta.media.1.stream.frame_rate">50</property>
  <property name="meta.media.1.stream.sample_aspect_ratio">1</property>
  <property name="meta.media.1.codec.width">1920</property>
  <property name="meta.media.1.codec.height">1080</property>
  <property name="meta.media.1.codec.rotate">0</property>
  <property name="meta.media.1.codec.frame_rate">5000</property>
  <property name="meta.media.1.codec.pix_fmt">yuv422p10le</property>
  <property name="meta.media.1.codec.sample_aspect_ratio">0</property>
  <property name="meta.media.1.codec.colorspace">709</property>
  <property name="meta.media.1.codec.name">prores</property>
  <property name="meta.media.1.codec.long_name">ProRes (iCodec Pro)</property>
  <property name="meta.media.1.codec.bit_rate">366958122</property>
  <property name="meta.attr.1.stream.creation_time.markup">2018-12-10T18:33:13.000000Z</property>
  <property name="meta.attr.1.stream.language.markup">eng</property>
  <property name="meta.attr.1.stream.handler_name.markup">Apple Video Media Handler</property>
  <property name="meta.attr.1.stream.encoder.markup">Apple ProRes 422 HQ</property>
  <property name="meta.attr.1.stream.timecode.markup">18:33:13:41</property>
  <property name="meta.media.2.stream.type">audio</property>
  <property name="meta.media.2.codec.sample_fmt">s32</property>
  <property name="meta.media.2.codec.sample_rate">48000</property>
  <property name="meta.media.2.codec.channels">2</property>
  <property name="meta.media.2.codec.name">pcm_s24le</property>
  <property name="meta.media.2.codec.long_name">PCM signed 24-bit little-endian</property>
  <property name="meta.media.2.codec.bit_rate">2304000</property>
  <property name="meta.attr.2.stream.creation_time.markup">2018-12-10T18:33:13.000000Z</property>
  <property name="meta.attr.2.stream.language.markup">eng</property>
  <property name="meta.attr.2.stream.handler_name.markup">Apple Sound Media Handler</property>
  <property name="meta.attr.2.stream.timecode.markup">18:33:13:41</property>
  <property name="meta.attr.com.apple.proapps.manufacturer.markup">Blackmagic Design</property>
  <property name="meta.attr.com.apple.proapps.cameraName.markup">CAM1</property>
  <property name="meta.attr.com.apple.proapps.isGood.markup">0</property>
  <property name="meta.attr.com.apple.proapps.customgamma.markup">com.blackmagic-design.cinemacamera.filmlog</property>
  <property name="meta.attr.com.blackmagic-design.cinemacamera.uuid.markup">18E5E00548F94923B646613A73C01B56</property>
  <property name="meta.attr.creation_time.markup">2018-12-10T18:33:13.000000Z</property>
  <property name="meta.attr.timecode.markup">18:33:13:41</property>
  <property name="seekable">1</property>
  <property name="meta.media.sample_aspect_num">1</property>
  <property name="meta.media.sample_aspect_den">1</property>
  <property name="aspect_ratio">1</property>
  <property name="kdenlive:folderid">14</property>
  <property name="kdenlive:file_size">3513882801</property>
  <property name="kdenlive:file_hash">911165815b4f50c12a788c8017dec34b</property>
  <property name="global_feed">1</property>
  <property name="meta.media.frame_rate_num">50</property>
  <property name="meta.media.frame_rate_den">1</property>
  <property name="meta.media.colorspace">709</property>
  <property name="meta.media.color_trc">2</property>
  <property name="meta.media.width">1920</property>
  <property name="meta.media.height">1080</property>
  <property name="meta.media.top_field_first">0</property>
  <property name="meta.media.progressive">1</property>
 </producer>
 <producer title="Anonymous Submission" id="15" in="0" out="3941">
  <property name="length">00:01:18:42</property>
  <property name="eof">pause</property>
  <property name="resource">/media/bordun/plagiat/2018-12-10_Plagiat_RespecteLaPuissancePapale/Carte_3/CAM1_2018-12-10_1834_C0004.mov</property>
  <property name="audio_index">2</property>
  <property name="video_index">1</property>
  <property name="mute_on_pause">1</property>
  <property name="mlt_service">avformat-novalidate</property>
  <property name="meta.media.nb_streams">3</property>
  <property name="meta.media.1.stream.type">video</property>
  <property name="meta.media.1.stream.frame_rate">50</property>
  <property name="meta.media.1.stream.sample_aspect_ratio">1</property>
  <property name="meta.media.1.codec.width">1920</property>
  <property name="meta.media.1.codec.height">1080</property>
  <property name="meta.media.1.codec.rotate">0</property>
  <property name="meta.media.1.codec.frame_rate">5000</property>
  <property name="meta.media.1.codec.pix_fmt">yuv422p10le</property>
  <property name="meta.media.1.codec.sample_aspect_ratio">0</property>
  <property name="meta.media.1.codec.colorspace">709</property>
  <property name="meta.media.1.codec.name">prores</property>
  <property name="meta.media.1.codec.long_name">ProRes (iCodec Pro)</property>
  <property name="meta.media.1.codec.bit_rate">366957579</property>
  <property name="meta.attr.1.stream.creation_time.markup">2018-12-10T18:34:58.000000Z</property>
  <property name="meta.attr.1.stream.language.markup">eng</property>
  <property name="meta.attr.1.stream.handler_name.markup">Apple Video Media Handler</property>
  <property name="meta.attr.1.stream.encoder.markup">Apple ProRes 422 HQ</property>
  <property name="meta.attr.1.stream.timecode.markup">18:34:58:08</property>
  <property name="meta.media.2.stream.type">audio</property>
  <property name="meta.media.2.codec.sample_fmt">s32</property>
  <property name="meta.media.2.codec.sample_rate">48000</property>
  <property name="meta.media.2.codec.channels">2</property>
  <property name="meta.media.2.codec.name">pcm_s24le</property>
  <property name="meta.media.2.codec.long_name">PCM signed 24-bit little-endian</property>
  <property name="meta.media.2.codec.bit_rate">2304000</property>
  <property name="meta.attr.2.stream.creation_time.markup">2018-12-10T18:34:58.000000Z</property>
  <property name="meta.attr.2.stream.language.markup">eng</property>
  <property name="meta.attr.2.stream.handler_name.markup">Apple Sound Media Handler</property>
  <property name="meta.attr.2.stream.timecode.markup">18:34:58:08</property>
  <property name="meta.attr.com.apple.proapps.manufacturer.markup">Blackmagic Design</property>
  <property name="meta.attr.com.apple.proapps.cameraName.markup">CAM1</property>
  <property name="meta.attr.com.apple.proapps.isGood.markup">0</property>
  <property name="meta.attr.com.apple.proapps.customgamma.markup">com.blackmagic-design.cinemacamera.filmlog</property>
  <property name="meta.attr.com.blackmagic-design.cinemacamera.uuid.markup">18E5E00548F94923B646613A73C01B56</property>
  <property name="meta.attr.creation_time.markup">2018-12-10T18:34:58.000000Z</property>
  <property name="meta.attr.timecode.markup">18:34:58:08</property>
  <property name="seekable">1</property>
  <property name="meta.media.sample_aspect_num">1</property>
  <property name="meta.media.sample_aspect_den">1</property>
  <property name="aspect_ratio">1</property>
  <property name="kdenlive:folderid">14</property>
  <property name="kdenlive:file_size">3639442625</property>
  <property name="kdenlive:file_hash">b37e37844340c239c0192cc4d49711fe</property>
  <property name="global_feed">1</property>
  <property name="meta.media.frame_rate_num">50</property>
  <property name="meta.media.frame_rate_den">1</property>
  <property name="meta.media.colorspace">709</property>
  <property name="meta.media.color_trc">2</property>
  <property name="meta.media.width">1920</property>
  <property name="meta.media.height">1080</property>
  <property name="meta.media.top_field_first">0</property>
  <property name="meta.media.progressive">1</property>
 </producer>
 <producer title="Anonymous Submission" id="10" in="0" out="3856">
  <property name="length">00:01:17:07</property>
  <property name="eof">pause</property>
  <property name="resource">/media/bordun/plagiat/2018-12-10_Plagiat_RespecteLaPuissancePapale/Carte_2/CAM1_2018-12-10_1727_C0005.mov</property>
  <property name="audio_index">2</property>
  <property name="video_index">1</property>
  <property name="mute_on_pause">1</property>
  <property name="mlt_service">avformat-novalidate</property>
  <property name="meta.media.nb_streams">3</property>
  <property name="meta.media.1.stream.type">video</property>
  <property name="meta.media.1.stream.frame_rate">50</property>
  <property name="meta.media.1.stream.sample_aspect_ratio">1</property>
  <property name="meta.media.1.codec.width">1920</property>
  <property name="meta.media.1.codec.height">1080</property>
  <property name="meta.media.1.codec.rotate">0</property>
  <property name="meta.media.1.codec.frame_rate">5000</property>
  <property name="meta.media.1.codec.pix_fmt">yuv422p10le</property>
  <property name="meta.media.1.codec.sample_aspect_ratio">0</property>
  <property name="meta.media.1.codec.colorspace">709</property>
  <property name="meta.media.1.codec.name">prores</property>
  <property name="meta.media.1.codec.long_name">ProRes (iCodec Pro)</property>
  <property name="meta.media.1.codec.bit_rate">366957401</property>
  <property name="meta.attr.1.stream.creation_time.markup">2018-12-10T17:27:46.000000Z</property>
  <property name="meta.attr.1.stream.language.markup">eng</property>
  <property name="meta.attr.1.stream.handler_name.markup">Apple Video Media Handler</property>
  <property name="meta.attr.1.stream.encoder.markup">Apple ProRes 422 HQ</property>
  <property name="meta.attr.1.stream.timecode.markup">17:27:46:06</property>
  <property name="meta.media.2.stream.type">audio</property>
  <property name="meta.media.2.codec.sample_fmt">s32</property>
  <property name="meta.media.2.codec.sample_rate">48000</property>
  <property name="meta.media.2.codec.channels">2</property>
  <property name="meta.media.2.codec.name">pcm_s24le</property>
  <property name="meta.media.2.codec.long_name">PCM signed 24-bit little-endian</property>
  <property name="meta.media.2.codec.bit_rate">2304000</property>
  <property name="meta.attr.2.stream.creation_time.markup">2018-12-10T17:27:46.000000Z</property>
  <property name="meta.attr.2.stream.language.markup">eng</property>
  <property name="meta.attr.2.stream.handler_name.markup">Apple Sound Media Handler</property>
  <property name="meta.attr.2.stream.timecode.markup">17:27:46:06</property>
  <property name="meta.attr.com.apple.proapps.manufacturer.markup">Blackmagic Design</property>
  <property name="meta.attr.com.apple.proapps.cameraName.markup">CAM1</property>
  <property name="meta.attr.com.apple.proapps.isGood.markup">0</property>
  <property name="meta.attr.com.apple.proapps.customgamma.markup">com.blackmagic-design.cinemacamera.filmlog</property>
  <property name="meta.attr.com.blackmagic-design.cinemacamera.uuid.markup">18E5E00548F94923B646613A73C01B56</property>
  <property name="meta.attr.creation_time.markup">2018-12-10T17:27:46.000000Z</property>
  <property name="meta.attr.timecode.markup">17:27:46:06</property>
  <property name="seekable">1</property>
  <property name="meta.media.sample_aspect_num">1</property>
  <property name="meta.media.sample_aspect_den">1</property>
  <property name="aspect_ratio">1</property>
  <property name="kdenlive:folderid">11</property>
  <property name="kdenlive:file_size">3560966841</property>
  <property name="kdenlive:file_hash">d4c6ef671e1439d8b3d95b2e51c4f714</property>
  <property name="global_feed">1</property>
  <property name="meta.media.frame_rate_num">50</property>
  <property name="meta.media.frame_rate_den">1</property>
  <property name="meta.media.colorspace">709</property>
  <property name="meta.media.color_trc">2</property>
  <property name="meta.media.width">1920</property>
  <property name="meta.media.height">1080</property>
  <property name="meta.media.top_field_first">0</property>
  <property name="meta.media.progressive">1</property>
 </producer>
 <producer title="Anonymous Submission" id="9" in="0" out="7720">
  <property name="length">00:02:34:21</property>
  <property name="eof">pause</property>
  <property name="resource">/media/bordun/plagiat/2018-12-10_Plagiat_RespecteLaPuissancePapale/Carte_2/CAM1_2018-12-10_1724_C0004.mov</property>
  <property name="audio_index">2</property>
  <property name="video_index">1</property>
  <property name="mute_on_pause">1</property>
  <property name="mlt_service">avformat-novalidate</property>
  <property name="meta.media.nb_streams">3</property>
  <property name="meta.media.1.stream.type">video</property>
  <property name="meta.media.1.stream.frame_rate">50</property>
  <property name="meta.media.1.stream.sample_aspect_ratio">1</property>
  <property name="meta.media.1.codec.width">1920</property>
  <property name="meta.media.1.codec.height">1080</property>
  <property name="meta.media.1.codec.rotate">0</property>
  <property name="meta.media.1.codec.frame_rate">5000</property>
  <property name="meta.media.1.codec.pix_fmt">yuv422p10le</property>
  <property name="meta.media.1.codec.sample_aspect_ratio">0</property>
  <property name="meta.media.1.codec.colorspace">709</property>
  <property name="meta.media.1.codec.name">prores</property>
  <property name="meta.media.1.codec.long_name">ProRes (iCodec Pro)</property>
  <property name="meta.media.1.codec.bit_rate">366955249</property>
  <property name="meta.attr.1.stream.creation_time.markup">2018-12-10T17:24:30.000000Z</property>
  <property name="meta.attr.1.stream.language.markup">eng</property>
  <property name="meta.attr.1.stream.handler_name.markup">Apple Video Media Handler</property>
  <property name="meta.attr.1.stream.encoder.markup">Apple ProRes 422 HQ</property>
  <property name="meta.attr.1.stream.timecode.markup">17:24:30:16</property>
  <property name="meta.media.2.stream.type">audio</property>
  <property name="meta.media.2.codec.sample_fmt">s32</property>
  <property name="meta.media.2.codec.sample_rate">48000</property>
  <property name="meta.media.2.codec.channels">2</property>
  <property name="meta.media.2.codec.name">pcm_s24le</property>
  <property name="meta.media.2.codec.long_name">PCM signed 24-bit little-endian</property>
  <property name="meta.media.2.codec.bit_rate">2304000</property>
  <property name="meta.attr.2.stream.creation_time.markup">2018-12-10T17:24:30.000000Z</property>
  <property name="meta.attr.2.stream.language.markup">eng</property>
  <property name="meta.attr.2.stream.handler_name.markup">Apple Sound Media Handler</property>
  <property name="meta.attr.2.stream.timecode.markup">17:24:30:16</property>
  <property name="meta.attr.com.apple.proapps.manufacturer.markup">Blackmagic Design</property>
  <property name="meta.attr.com.apple.proapps.cameraName.markup">CAM1</property>
  <property name="meta.attr.com.apple.proapps.isGood.markup">0</property>
  <property name="meta.attr.com.apple.proapps.customgamma.markup">com.blackmagic-design.cinemacamera.filmlog</property>
  <property name="meta.attr.com.blackmagic-design.cinemacamera.uuid.markup">18E5E00548F94923B646613A73C01B56</property>
  <property name="meta.attr.creation_time.markup">2018-12-10T17:24:30.000000Z</property>
  <property name="meta.attr.timecode.markup">17:24:30:16</property>
  <property name="seekable">1</property>
  <property name="meta.media.sample_aspect_num">1</property>
  <property name="meta.media.sample_aspect_den">1</property>
  <property name="aspect_ratio">1</property>
  <property name="kdenlive:folderid">11</property>
  <property name="kdenlive:file_size">7128395553</property>
  <property name="kdenlive:file_hash">26d06da8085fc8a55dca3b4629142f61</property>
  <property name="global_feed">1</property>
  <property name="meta.media.frame_rate_num">50</property>
  <property name="meta.media.frame_rate_den">1</property>
  <property name="meta.media.colorspace">709</property>
  <property name="meta.media.color_trc">2</property>
  <property name="meta.media.width">1920</property>
  <property name="meta.media.height">1080</property>
  <property name="meta.media.top_field_first">0</property>
  <property name="meta.media.progressive">1</property>
 </producer>
 <producer title="Anonymous Submission" id="11" in="0" out="21338">
  <property name="length">00:07:06:39</property>
  <property name="eof">pause</property>
  <property name="resource">/media/bordun/plagiat/2018-12-10_Plagiat_RespecteLaPuissancePapale/Carte_3/CAM1_2018-12-10_1738_C0000.mov</property>
  <property name="audio_index">2</property>
  <property name="video_index">1</property>
  <property name="mute_on_pause">1</property>
  <property name="mlt_service">avformat-novalidate</property>
  <property name="meta.media.nb_streams">3</property>
  <property name="meta.media.1.stream.type">video</property>
  <property name="meta.media.1.stream.frame_rate">50</property>
  <property name="meta.media.1.stream.sample_aspect_ratio">1</property>
  <property name="meta.media.1.codec.width">1920</property>
  <property name="meta.media.1.codec.height">1080</property>
  <property name="meta.media.1.codec.rotate">0</property>
  <property name="meta.media.1.codec.frame_rate">5000</property>
  <property name="meta.media.1.codec.pix_fmt">yuv422p10le</property>
  <property name="meta.media.1.codec.sample_aspect_ratio">0</property>
  <property name="meta.media.1.codec.colorspace">709</property>
  <property name="meta.media.1.codec.name">prores</property>
  <property name="meta.media.1.codec.long_name">ProRes (iCodec Pro)</property>
  <property name="meta.media.1.codec.bit_rate">366957439</property>
  <property name="meta.attr.1.stream.creation_time.markup">2018-12-10T17:38:54.000000Z</property>
  <property name="meta.attr.1.stream.language.markup">eng</property>
  <property name="meta.attr.1.stream.handler_name.markup">Apple Video Media Handler</property>
  <property name="meta.attr.1.stream.encoder.markup">Apple ProRes 422 HQ</property>
  <property name="meta.attr.1.stream.timecode.markup">17:38:54:28</property>
  <property name="meta.media.2.stream.type">audio</property>
  <property name="meta.media.2.codec.sample_fmt">s32</property>
  <property name="meta.media.2.codec.sample_rate">48000</property>
  <property name="meta.media.2.codec.channels">2</property>
  <property name="meta.media.2.codec.name">pcm_s24le</property>
  <property name="meta.media.2.codec.long_name">PCM signed 24-bit little-endian</property>
  <property name="meta.media.2.codec.bit_rate">2304000</property>
  <property name="meta.attr.2.stream.creation_time.markup">2018-12-10T17:38:54.000000Z</property>
  <property name="meta.attr.2.stream.language.markup">eng</property>
  <property name="meta.attr.2.stream.handler_name.markup">Apple Sound Media Handler</property>
  <property name="meta.attr.2.stream.timecode.markup">17:38:54:28</property>
  <property name="meta.attr.com.apple.proapps.manufacturer.markup">Blackmagic Design</property>
  <property name="meta.attr.com.apple.proapps.cameraName.markup">CAM1</property>
  <property name="meta.attr.com.apple.proapps.isGood.markup">0</property>
  <property name="meta.attr.com.apple.proapps.customgamma.markup">com.blackmagic-design.cinemacamera.filmlog</property>
  <property name="meta.attr.com.blackmagic-design.cinemacamera.uuid.markup">18E5E00548F94923B646613A73C01B56</property>
  <property name="meta.attr.creation_time.markup">2018-12-10T17:38:54.000000Z</property>
  <property name="meta.attr.timecode.markup">17:38:54:28</property>
  <property name="seekable">1</property>
  <property name="meta.media.sample_aspect_num">1</property>
  <property name="meta.media.sample_aspect_den">1</property>
  <property name="aspect_ratio">1</property>
  <property name="kdenlive:folderid">12</property>
  <property name="kdenlive:file_size">19701162913</property>
  <property name="kdenlive:file_hash">7247768fd7b55d6de0224125e0ef06f4</property>
  <property name="global_feed">1</property>
  <property name="meta.media.frame_rate_num">50</property>
  <property name="meta.media.frame_rate_den">1</property>
  <property name="meta.media.colorspace">709</property>
  <property name="meta.media.color_trc">2</property>
  <property name="meta.media.width">1920</property>
  <property name="meta.media.height">1080</property>
  <property name="meta.media.top_field_first">0</property>
  <property name="meta.media.progressive">1</property>
 </producer>
 <producer title="Anonymous Submission" id="8" in="0" out="21621">
  <property name="length">00:07:12:22</property>
  <property name="eof">pause</property>
  <property name="resource">/media/bordun/plagiat/2018-12-10_Plagiat_RespecteLaPuissancePapale/Carte_2/CAM1_2018-12-10_1649_C0003.mov</property>
  <property name="audio_index">2</property>
  <property name="video_index">1</property>
  <property name="mute_on_pause">1</property>
  <property name="mlt_service">avformat-novalidate</property>
  <property name="meta.media.nb_streams">3</property>
  <property name="meta.media.1.stream.type">video</property>
  <property name="meta.media.1.stream.frame_rate">50</property>
  <property name="meta.media.1.stream.sample_aspect_ratio">1</property>
  <property name="meta.media.1.codec.width">1920</property>
  <property name="meta.media.1.codec.height">1080</property>
  <property name="meta.media.1.codec.rotate">0</property>
  <property name="meta.media.1.codec.frame_rate">5000</property>
  <property name="meta.media.1.codec.pix_fmt">yuv422p10le</property>
  <property name="meta.media.1.codec.sample_aspect_ratio">0</property>
  <property name="meta.media.1.codec.colorspace">709</property>
  <property name="meta.media.1.codec.name">prores</property>
  <property name="meta.media.1.codec.long_name">ProRes (iCodec Pro)</property>
  <property name="meta.media.1.codec.bit_rate">366956838</property>
  <property name="meta.attr.1.stream.creation_time.markup">2018-12-10T16:49:40.000000Z</property>
  <property name="meta.attr.1.stream.language.markup">eng</property>
  <property name="meta.attr.1.stream.handler_name.markup">Apple Video Media Handler</property>
  <property name="meta.attr.1.stream.encoder.markup">Apple ProRes 422 HQ</property>
  <property name="meta.attr.1.stream.timecode.markup">16:49:40:04</property>
  <property name="meta.media.2.stream.type">audio</property>
  <property name="meta.media.2.codec.sample_fmt">s32</property>
  <property name="meta.media.2.codec.sample_rate">48000</property>
  <property name="meta.media.2.codec.channels">2</property>
  <property name="meta.media.2.codec.name">pcm_s24le</property>
  <property name="meta.media.2.codec.long_name">PCM signed 24-bit little-endian</property>
  <property name="meta.media.2.codec.bit_rate">2304000</property>
  <property name="meta.attr.2.stream.creation_time.markup">2018-12-10T16:49:40.000000Z</property>
  <property name="meta.attr.2.stream.language.markup">eng</property>
  <property name="meta.attr.2.stream.handler_name.markup">Apple Sound Media Handler</property>
  <property name="meta.attr.2.stream.timecode.markup">16:49:40:04</property>
  <property name="meta.attr.com.apple.proapps.manufacturer.markup">Blackmagic Design</property>
  <property name="meta.attr.com.apple.proapps.cameraName.markup">CAM1</property>
  <property name="meta.attr.com.apple.proapps.isGood.markup">0</property>
  <property name="meta.attr.com.apple.proapps.customgamma.markup">com.blackmagic-design.cinemacamera.filmlog</property>
  <property name="meta.attr.com.blackmagic-design.cinemacamera.uuid.markup">18E5E00548F94923B646613A73C01B56</property>
  <property name="meta.attr.creation_time.markup">2018-12-10T16:49:40.000000Z</property>
  <property name="meta.attr.timecode.markup">16:49:40:04</property>
  <property name="seekable">1</property>
  <property name="meta.media.sample_aspect_num">1</property>
  <property name="meta.media.sample_aspect_den">1</property>
  <property name="aspect_ratio">1</property>
  <property name="kdenlive:folderid">7</property>
  <property name="kdenlive:file_size">19962436561</property>
  <property name="kdenlive:file_hash">5ccc04e85e02ddf58369dec9f30fa947</property>
  <property name="global_feed">1</property>
  <property name="meta.media.frame_rate_num">50</property>
  <property name="meta.media.frame_rate_den">1</property>
  <property name="meta.media.colorspace">709</property>
  <property name="meta.media.color_trc">2</property>
  <property name="meta.media.width">1920</property>
  <property name="meta.media.height">1080</property>
  <property name="meta.media.top_field_first">0</property>
  <property name="meta.media.progressive">1</property>
 </producer>
 <producer title="Anonymous Submission" id="25" in="0" out="4317">
  <property name="length">00:01:26:18</property>
  <property name="eof">pause</property>
  <property name="resource">/media/bordun/plagiat/2018-12-10_Plagiat_RespecteLaPuissancePapale/Carte_4/CAM1_2018-12-10_1941_C0008.mov</property>
  <property name="audio_index">2</property>
  <property name="video_index">1</property>
  <property name="mute_on_pause">1</property>
  <property name="mlt_service">avformat-novalidate</property>
  <property name="meta.media.nb_streams">3</property>
  <property name="meta.media.1.stream.type">video</property>
  <property name="meta.media.1.stream.frame_rate">50</property>
  <property name="meta.media.1.stream.sample_aspect_ratio">1</property>
  <property name="meta.media.1.codec.width">1920</property>
  <property name="meta.media.1.codec.height">1080</property>
  <property name="meta.media.1.codec.rotate">0</property>
  <property name="meta.media.1.codec.frame_rate">5000</property>
  <property name="meta.media.1.codec.pix_fmt">yuv422p10le</property>
  <property name="meta.media.1.codec.sample_aspect_ratio">0</property>
  <property name="meta.media.1.codec.colorspace">709</property>
  <property name="meta.media.1.codec.name">prores</property>
  <property name="meta.media.1.codec.long_name">ProRes (iCodec Pro)</property>
  <property name="meta.media.1.codec.bit_rate">366957366</property>
  <property name="meta.attr.1.stream.creation_time.markup">2018-12-10T19:41:35.000000Z</property>
  <property name="meta.attr.1.stream.language.markup">eng</property>
  <property name="meta.attr.1.stream.handler_name.markup">Apple Video Media Handler</property>
  <property name="meta.attr.1.stream.encoder.markup">Apple ProRes 422 HQ</property>
  <property name="meta.attr.1.stream.timecode.markup">19:41:35:01</property>
  <property name="meta.media.2.stream.type">audio</property>
  <property name="meta.media.2.codec.sample_fmt">s32</property>
  <property name="meta.media.2.codec.sample_rate">48000</property>
  <property name="meta.media.2.codec.channels">2</property>
  <property name="meta.media.2.codec.name">pcm_s24le</property>
  <property name="meta.media.2.codec.long_name">PCM signed 24-bit little-endian</property>
  <property name="meta.media.2.codec.bit_rate">2304000</property>
  <property name="meta.attr.2.stream.creation_time.markup">2018-12-10T19:41:35.000000Z</property>
  <property name="meta.attr.2.stream.language.markup">eng</property>
  <property name="meta.attr.2.stream.handler_name.markup">Apple Sound Media Handler</property>
  <property name="meta.attr.2.stream.timecode.markup">19:41:35:01</property>
  <property name="meta.attr.com.apple.proapps.manufacturer.markup">Blackmagic Design</property>
  <property name="meta.attr.com.apple.proapps.cameraName.markup">CAM1</property>
  <property name="meta.attr.com.apple.proapps.isGood.markup">0</property>
  <property name="meta.attr.com.apple.proapps.customgamma.markup">com.blackmagic-design.cinemacamera.filmlog</property>
  <property name="meta.attr.com.blackmagic-design.cinemacamera.uuid.markup">18E5E00548F94923B646613A73C01B56</property>
  <property name="meta.attr.creation_time.markup">2018-12-10T19:41:35.000000Z</property>
  <property name="meta.attr.timecode.markup">19:41:35:01</property>
  <property name="seekable">1</property>
  <property name="meta.media.sample_aspect_num">1</property>
  <property name="meta.media.sample_aspect_den">1</property>
  <property name="aspect_ratio">1</property>
  <property name="kdenlive:folderid">7</property>
  <property name="kdenlive:file_size">3986584833</property>
  <property name="kdenlive:file_hash">090baf1e7089bd64f9705012f4444883</property>
  <property name="global_feed">1</property>
  <property name="meta.media.frame_rate_num">50</property>
  <property name="meta.media.frame_rate_den">1</property>
  <property name="meta.media.colorspace">709</property>
  <property name="meta.media.color_trc">2</property>
  <property name="meta.media.width">1920</property>
  <property name="meta.media.height">1080</property>
  <property name="meta.media.top_field_first">0</property>
  <property name="meta.media.progressive">1</property>
 </producer>
 <producer title="Anonymous Submission" id="26" in="0" out="2406">
  <property name="length">00:00:48:07</property>
  <property name="eof">pause</property>
  <property name="resource">/media/bordun/plagiat/2018-12-10_Plagiat_RespecteLaPuissancePapale/Carte_4/CAM1_2018-12-10_1950_C0009.mov</property>
  <property name="audio_index">2</property>
  <property name="video_index">1</property>
  <property name="mute_on_pause">1</property>
  <property name="mlt_service">avformat-novalidate</property>
  <property name="meta.media.nb_streams">3</property>
  <property name="meta.media.1.stream.type">video</property>
  <property name="meta.media.1.stream.frame_rate">50</property>
  <property name="meta.media.1.stream.sample_aspect_ratio">1</property>
  <property name="meta.media.1.codec.width">1920</property>
  <property name="meta.media.1.codec.height">1080</property>
  <property name="meta.media.1.codec.rotate">0</property>
  <property name="meta.media.1.codec.frame_rate">5000</property>
  <property name="meta.media.1.codec.pix_fmt">yuv422p10le</property>
  <property name="meta.media.1.codec.sample_aspect_ratio">0</property>
  <property name="meta.media.1.codec.colorspace">709</property>
  <property name="meta.media.1.codec.name">prores</property>
  <property name="meta.media.1.codec.long_name">ProRes (iCodec Pro)</property>
  <property name="meta.media.1.codec.bit_rate">366957768</property>
  <property name="meta.attr.1.stream.creation_time.markup">2018-12-10T19:50:41.000000Z</property>
  <property name="meta.attr.1.stream.language.markup">eng</property>
  <property name="meta.attr.1.stream.handler_name.markup">Apple Video Media Handler</property>
  <property name="meta.attr.1.stream.encoder.markup">Apple ProRes 422 HQ</property>
  <property name="meta.attr.1.stream.timecode.markup">19:50:41:10</property>
  <property name="meta.media.2.stream.type">audio</property>
  <property name="meta.media.2.codec.sample_fmt">s32</property>
  <property name="meta.media.2.codec.sample_rate">48000</property>
  <property name="meta.media.2.codec.channels">2</property>
  <property name="meta.media.2.codec.name">pcm_s24le</property>
  <property name="meta.media.2.codec.long_name">PCM signed 24-bit little-endian</property>
  <property name="meta.media.2.codec.bit_rate">2304000</property>
  <property name="meta.attr.2.stream.creation_time.markup">2018-12-10T19:50:41.000000Z</property>
  <property name="meta.attr.2.stream.language.markup">eng</property>
  <property name="meta.attr.2.stream.handler_name.markup">Apple Sound Media Handler</property>
  <property name="meta.attr.2.stream.timecode.markup">19:50:41:10</property>
  <property name="meta.attr.com.apple.proapps.manufacturer.markup">Blackmagic Design</property>
  <property name="meta.attr.com.apple.proapps.cameraName.markup">CAM1</property>
  <property name="meta.attr.com.apple.proapps.isGood.markup">0</property>
  <property name="meta.attr.com.apple.proapps.customgamma.markup">com.blackmagic-design.cinemacamera.filmlog</property>
  <property name="meta.attr.com.blackmagic-design.cinemacamera.uuid.markup">18E5E00548F94923B646613A73C01B56</property>
  <property name="meta.attr.creation_time.markup">2018-12-10T19:50:41.000000Z</property>
  <property name="meta.attr.timecode.markup">19:50:41:10</property>
  <property name="seekable">1</property>
  <property name="meta.media.sample_aspect_num">1</property>
  <property name="meta.media.sample_aspect_den">1</property>
  <property name="aspect_ratio">1</property>
  <property name="kdenlive:folderid">15</property>
  <property name="kdenlive:file_size">2222269393</property>
  <property name="kdenlive:file_hash">31d97f0f897fd63981b85562c9492a1e</property>
  <property name="global_feed">1</property>
  <property name="meta.media.frame_rate_num">50</property>
  <property name="meta.media.frame_rate_den">1</property>
  <property name="meta.media.colorspace">709</property>
  <property name="meta.media.color_trc">2</property>
  <property name="meta.media.width">1920</property>
  <property name="meta.media.height">1080</property>
  <property name="meta.media.top_field_first">0</property>
  <property name="meta.media.progressive">1</property>
 </producer>
 <producer title="Anonymous Submission" id="13" in="0" out="4748">
  <property name="length">00:01:34:49</property>
  <property name="eof">pause</property>
  <property name="resource">/media/bordun/plagiat/2018-12-10_Plagiat_RespecteLaPuissancePapale/Carte_3/CAM1_2018-12-10_1827_C0002.mov</property>
  <property name="audio_index">2</property>
  <property name="video_index">1</property>
  <property name="mute_on_pause">1</property>
  <property name="mlt_service">avformat-novalidate</property>
  <property name="meta.media.nb_streams">3</property>
  <property name="meta.media.1.stream.type">video</property>
  <property name="meta.media.1.stream.frame_rate">50</property>
  <property name="meta.media.1.stream.sample_aspect_ratio">1</property>
  <property name="meta.media.1.codec.width">1920</property>
  <property name="meta.media.1.codec.height">1080</property>
  <property name="meta.media.1.codec.rotate">0</property>
  <property name="meta.media.1.codec.frame_rate">5000</property>
  <property name="meta.media.1.codec.pix_fmt">yuv422p10le</property>
  <property name="meta.media.1.codec.sample_aspect_ratio">0</property>
  <property name="meta.media.1.codec.colorspace">709</property>
  <property name="meta.media.1.codec.name">prores</property>
  <property name="meta.media.1.codec.long_name">ProRes (iCodec Pro)</property>
  <property name="meta.media.1.codec.bit_rate">366955583</property>
  <property name="meta.attr.1.stream.creation_time.markup">2018-12-10T18:27:53.000000Z</property>
  <property name="meta.attr.1.stream.language.markup">eng</property>
  <property name="meta.attr.1.stream.handler_name.markup">Apple Video Media Handler</property>
  <property name="meta.attr.1.stream.encoder.markup">Apple ProRes 422 HQ</property>
  <property name="meta.attr.1.stream.timecode.markup">18:27:53:15</property>
  <property name="meta.media.2.stream.type">audio</property>
  <property name="meta.media.2.codec.sample_fmt">s32</property>
  <property name="meta.media.2.codec.sample_rate">48000</property>
  <property name="meta.media.2.codec.channels">2</property>
  <property name="meta.media.2.codec.name">pcm_s24le</property>
  <property name="meta.media.2.codec.long_name">PCM signed 24-bit little-endian</property>
  <property name="meta.media.2.codec.bit_rate">2304000</property>
  <property name="meta.attr.2.stream.creation_time.markup">2018-12-10T18:27:53.000000Z</property>
  <property name="meta.attr.2.stream.language.markup">eng</property>
  <property name="meta.attr.2.stream.handler_name.markup">Apple Sound Media Handler</property>
  <property name="meta.attr.2.stream.timecode.markup">18:27:53:15</property>
  <property name="meta.attr.com.apple.proapps.manufacturer.markup">Blackmagic Design</property>
  <property name="meta.attr.com.apple.proapps.cameraName.markup">CAM1</property>
  <property name="meta.attr.com.apple.proapps.isGood.markup">0</property>
  <property name="meta.attr.com.apple.proapps.customgamma.markup">com.blackmagic-design.cinemacamera.filmlog</property>
  <property name="meta.attr.com.blackmagic-design.cinemacamera.uuid.markup">18E5E00548F94923B646613A73C01B56</property>
  <property name="meta.attr.creation_time.markup">2018-12-10T18:27:53.000000Z</property>
  <property name="meta.attr.timecode.markup">18:27:53:15</property>
  <property name="seekable">1</property>
  <property name="meta.media.sample_aspect_num">1</property>
  <property name="meta.media.sample_aspect_den">1</property>
  <property name="aspect_ratio">1</property>
  <property name="kdenlive:folderid">15</property>
  <property name="kdenlive:file_size">4384498497</property>
  <property name="kdenlive:file_hash">ae32c687eeaacc4b45c49f0baeccff11</property>
  <property name="global_feed">1</property>
  <property name="meta.media.frame_rate_num">50</property>
  <property name="meta.media.frame_rate_den">1</property>
  <property name="meta.media.colorspace">709</property>
  <property name="meta.media.color_trc">2</property>
  <property name="meta.media.width">1920</property>
  <property name="meta.media.height">1080</property>
  <property name="meta.media.top_field_first">0</property>
  <property name="meta.media.progressive">1</property>
 </producer>
 <producer title="Anonymous Submission" id="12" in="0" out="23600">
  <property name="length">00:07:52:01</property>
  <property name="eof">pause</property>
  <property name="resource">/media/bordun/plagiat/2018-12-10_Plagiat_RespecteLaPuissancePapale/Carte_3/CAM1_2018-12-10_1819_C0001.mov</property>
  <property name="audio_index">2</property>
  <property name="video_index">1</property>
  <property name="mute_on_pause">1</property>
  <property name="mlt_service">avformat-novalidate</property>
  <property name="meta.media.nb_streams">3</property>
  <property name="meta.media.1.stream.type">video</property>
  <property name="meta.media.1.stream.frame_rate">50</property>
  <property name="meta.media.1.stream.sample_aspect_ratio">1</property>
  <property name="meta.media.1.codec.width">1920</property>
  <property name="meta.media.1.codec.height">1080</property>
  <property name="meta.media.1.codec.rotate">0</property>
  <property name="meta.media.1.codec.frame_rate">5000</property>
  <property name="meta.media.1.codec.pix_fmt">yuv422p10le</property>
  <property name="meta.media.1.codec.sample_aspect_ratio">0</property>
  <property name="meta.media.1.codec.colorspace">709</property>
  <property name="meta.media.1.codec.name">prores</property>
  <property name="meta.media.1.codec.long_name">ProRes (iCodec Pro)</property>
  <property name="meta.media.1.codec.bit_rate">366956856</property>
  <property name="meta.attr.1.stream.creation_time.markup">2018-12-10T18:19:34.000000Z</property>
  <property name="meta.attr.1.stream.language.markup">eng</property>
  <property name="meta.attr.1.stream.handler_name.markup">Apple Video Media Handler</property>
  <property name="meta.attr.1.stream.encoder.markup">Apple ProRes 422 HQ</property>
  <property name="meta.attr.1.stream.timecode.markup">18:19:34:45</property>
  <property name="meta.media.2.stream.type">audio</property>
  <property name="meta.media.2.codec.sample_fmt">s32</property>
  <property name="meta.media.2.codec.sample_rate">48000</property>
  <property name="meta.media.2.codec.channels">2</property>
  <property name="meta.media.2.codec.name">pcm_s24le</property>
  <property name="meta.media.2.codec.long_name">PCM signed 24-bit little-endian</property>
  <property name="meta.media.2.codec.bit_rate">2304000</property>
  <property name="meta.attr.2.stream.creation_time.markup">2018-12-10T18:19:34.000000Z</property>
  <property name="meta.attr.2.stream.language.markup">eng</property>
  <property name="meta.attr.2.stream.handler_name.markup">Apple Sound Media Handler</property>
  <property name="meta.attr.2.stream.timecode.markup">18:19:34:45</property>
  <property name="meta.attr.com.apple.proapps.manufacturer.markup">Blackmagic Design</property>
  <property name="meta.attr.com.apple.proapps.cameraName.markup">CAM1</property>
  <property name="meta.attr.com.apple.proapps.isGood.markup">0</property>
  <property name="meta.attr.com.apple.proapps.customgamma.markup">com.blackmagic-design.cinemacamera.filmlog</property>
  <property name="meta.attr.com.blackmagic-design.cinemacamera.uuid.markup">18E5E00548F94923B646613A73C01B56</property>
  <property name="meta.attr.creation_time.markup">2018-12-10T18:19:34.000000Z</property>
  <property name="meta.attr.timecode.markup">18:19:34:45</property>
  <property name="seekable">1</property>
  <property name="meta.media.sample_aspect_num">1</property>
  <property name="meta.media.sample_aspect_den">1</property>
  <property name="aspect_ratio">1</property>
  <property name="kdenlive:folderid">15</property>
  <property name="kdenlive:file_size">21789523729</property>
  <property name="kdenlive:file_hash">3b63588261e8ab0454ca51230a000191</property>
  <property name="global_feed">1</property>
  <property name="meta.media.frame_rate_num">50</property>
  <property name="meta.media.frame_rate_den">1</property>
  <property name="meta.media.colorspace">709</property>
  <property name="meta.media.color_trc">2</property>
  <property name="meta.media.width">1920</property>
  <property name="meta.media.height">1080</property>
  <property name="meta.media.top_field_first">0</property>
  <property name="meta.media.progressive">1</property>
 </producer>
 <producer title="Anonymous Submission" id="27" in="0" out="7640">
  <property name="length">00:02:32:41</property>
  <property name="eof">pause</property>
  <property name="resource">/home/bordun/scp/2018-12-06_RespecteLaPuissancePapale_Clip_part1.wav</property>
  <property name="audio_index">0</property>
  <property name="video_index">-1</property>
  <property name="mute_on_pause">1</property>
  <property name="mlt_service">avformat-novalidate</property>
  <property name="meta.media.nb_streams">1</property>
  <property name="meta.media.0.stream.type">audio</property>
  <property name="meta.media.0.codec.sample_fmt">s16</property>
  <property name="meta.media.0.codec.sample_rate">48000</property>
  <property name="meta.media.0.codec.channels">2</property>
  <property name="meta.media.0.codec.name">pcm_s16le</property>
  <property name="meta.media.0.codec.long_name">PCM signed 16-bit little-endian</property>
  <property name="meta.media.0.codec.bit_rate">1536000</property>
  <property name="seekable">1</property>
  <property name="kdenlive:file_size">29340044</property>
  <property name="kdenlive:file_hash">7d93ed9df433504c583e8f008ae3ee69</property>
  <property name="global_feed">1</property>
 </producer>
 <producer title="Anonymous Submission" id="28" in="0" out="7733">
  <property name="length">00:02:34:34</property>
  <property name="eof">pause</property>
  <property name="resource">/media/bordun/plagiat/Clip02_RespecteLaPuissancePapale/Audio/2018-12-06_RespecteLaPuissancePapale_Clip_part1_OLD.ogg</property>
  <property name="audio_index">0</property>
  <property name="video_index">-1</property>
  <property name="mute_on_pause">1</property>
  <property name="mlt_service">avformat-novalidate</property>
  <property name="meta.media.nb_streams">1</property>
  <property name="meta.media.0.stream.type">audio</property>
  <property name="meta.media.0.codec.sample_fmt">fltp</property>
  <property name="meta.media.0.codec.sample_rate">48000</property>
  <property name="meta.media.0.codec.channels">2</property>
  <property name="meta.media.0.codec.name">vorbis</property>
  <property name="meta.media.0.codec.long_name">Vorbis</property>
  <property name="meta.media.0.codec.bit_rate">128000</property>
  <property name="meta.attr.0.stream.disc.markup">0</property>
  <property name="meta.attr.0.stream.ENCODER.markup">libsndfile</property>
  <property name="seekable">1</property>
  <property name="kdenlive:file_size">2263496</property>
  <property name="kdenlive:file_hash">1137434253767f92924bc94a8dcad7c3</property>
  <property name="global_feed">1</property>
 </producer>
 <producer title="Anonymous Submission" id="29" in="0" out="3550">
  <property name="length">3551</property>
  <property name="eof">pause</property>
  <property name="resource">0xffffffff</property>
  <property name="aspect_ratio">1</property>
  <property name="mlt_service">color</property>
  <property name="kdenlive:clipname">Clip couleur</property>
  <property name="kdenlive:folderid">16</property>
  <property name="kdenlive:duration">250</property>
  <property name="kdenlive:file_hash">039b56a692cd66eefeea44a17539e5a2</property>
  <property name="global_feed">1</property>
 </producer>
 <producer id="30" in="0" out="15100">
  <property name="length">15101</property>
  <property name="eof">pause</property>
  <property name="resource">0x000000ff</property>
  <property name="aspect_ratio">1</property>
  <property name="mlt_service">color</property>
  <property name="kdenlive:clipname">Clip couleur</property>
  <property name="kdenlive:folderid">16</property>
  <property name="kdenlive:duration">250</property>
  <property name="kdenlive:file_hash">9196813120dc5c505072516b15baf414</property>
 </producer>
 <producer title="Anonymous Submission" id="32" in="0" out="252">
  <property name="length">00:00:05:03</property>
  <property name="eof">pause</property>
  <property name="resource">/media/bordun/plagiat/Clip02_RespecteLaPuissancePapale/Logos/logo_smp.mp4</property>
  <property name="audio_index">1</property>
  <property name="video_index">0</property>
  <property name="mute_on_pause">1</property>
  <property name="mlt_service">avformat-novalidate</property>
  <property name="meta.media.nb_streams">2</property>
  <property name="meta.media.0.stream.type">video</property>
  <property name="meta.media.0.stream.frame_rate">50</property>
  <property name="meta.media.0.stream.sample_aspect_ratio">1</property>
  <property name="meta.media.0.codec.width">1920</property>
  <property name="meta.media.0.codec.height">1080</property>
  <property name="meta.media.0.codec.rotate">0</property>
  <property name="meta.media.0.codec.frame_rate">50</property>
  <property name="meta.media.0.codec.pix_fmt">yuv420p</property>
  <property name="meta.media.0.codec.sample_aspect_ratio">1</property>
  <property name="meta.media.0.codec.colorspace">709</property>
  <property name="meta.media.0.codec.color_trc">1</property>
  <property name="meta.media.0.codec.name">h264</property>
  <property name="meta.media.0.codec.long_name">H.264 / AVC / MPEG-4 AVC / MPEG-4 part 10</property>
  <property name="meta.media.0.codec.bit_rate">405751</property>
  <property name="meta.attr.0.stream.handler_name.markup">VideoHandler</property>
  <property name="meta.media.1.stream.type">audio</property>
  <property name="meta.media.1.codec.sample_fmt">fltp</property>
  <property name="meta.media.1.codec.sample_rate">48000</property>
  <property name="meta.media.1.codec.channels">2</property>
  <property name="meta.media.1.codec.name">aac</property>
  <property name="meta.media.1.codec.long_name">AAC (Advanced Audio Coding)</property>
  <property name="meta.media.1.codec.bit_rate">2276</property>
  <property name="meta.attr.1.stream.handler_name.markup">SoundHandler</property>
  <property name="meta.attr.major_brand.markup">isom</property>
  <property name="meta.attr.minor_version.markup">512</property>
  <property name="meta.attr.compatible_brands.markup">isomiso2avc1mp41</property>
  <property name="meta.attr.encoder.markup">Lavf58.20.100</property>
  <property name="seekable">1</property>
  <property name="meta.media.sample_aspect_num">1</property>
  <property name="meta.media.sample_aspect_den">1</property>
  <property name="aspect_ratio">1</property>
  <property name="kdenlive:folderid">17</property>
  <property name="meta.media.frame_rate_num">50</property>
  <property name="meta.media.frame_rate_den">1</property>
  <property name="meta.media.colorspace">709</property>
  <property name="meta.media.color_trc">1</property>
  <property name="meta.media.width">1920</property>
  <property name="meta.media.height">1080</property>
  <property name="meta.media.top_field_first">0</property>
  <property name="meta.media.progressive">1</property>
  <property name="kdenlive:file_size">263656</property>
  <property name="kdenlive:file_hash">257a971594b4c9b39d9abda2cbdcb5e3</property>
  <property name="global_feed">1</property>
 </producer>
 <producer title="Anonymous Submission" id="33" in="0" out="252">
  <property name="length">00:00:05:03</property>
  <property name="eof">pause</property>
  <property name="resource">/media/bordun/plagiat/Clip02_RespecteLaPuissancePapale/Logos/logo_ammd.mp4</property>
  <property name="audio_index">1</property>
  <property name="video_index">0</property>
  <property name="mute_on_pause">1</property>
  <property name="mlt_service">avformat-novalidate</property>
  <property name="meta.media.nb_streams">2</property>
  <property name="meta.media.0.stream.type">video</property>
  <property name="meta.media.0.stream.frame_rate">50</property>
  <property name="meta.media.0.stream.sample_aspect_ratio">1</property>
  <property name="meta.media.0.codec.width">1920</property>
  <property name="meta.media.0.codec.height">1080</property>
  <property name="meta.media.0.codec.rotate">0</property>
  <property name="meta.media.0.codec.frame_rate">50</property>
  <property name="meta.media.0.codec.pix_fmt">yuv420p</property>
  <property name="meta.media.0.codec.sample_aspect_ratio">1</property>
  <property name="meta.media.0.codec.colorspace">709</property>
  <property name="meta.media.0.codec.color_trc">1</property>
  <property name="meta.media.0.codec.name">h264</property>
  <property name="meta.media.0.codec.long_name">H.264 / AVC / MPEG-4 AVC / MPEG-4 part 10</property>
  <property name="meta.media.0.codec.bit_rate">818328</property>
  <property name="meta.attr.0.stream.handler_name.markup">VideoHandler</property>
  <property name="meta.media.1.stream.type">audio</property>
  <property name="meta.media.1.codec.sample_fmt">fltp</property>
  <property name="meta.media.1.codec.sample_rate">48000</property>
  <property name="meta.media.1.codec.channels">2</property>
  <property name="meta.media.1.codec.name">aac</property>
  <property name="meta.media.1.codec.long_name">AAC (Advanced Audio Coding)</property>
  <property name="meta.media.1.codec.bit_rate">2276</property>
  <property name="meta.attr.1.stream.handler_name.markup">SoundHandler</property>
  <property name="meta.attr.major_brand.markup">isom</property>
  <property name="meta.attr.minor_version.markup">512</property>
  <property name="meta.attr.compatible_brands.markup">isomiso2avc1mp41</property>
  <property name="meta.attr.encoder.markup">Lavf58.20.100</property>
  <property name="seekable">1</property>
  <property name="meta.media.sample_aspect_num">1</property>
  <property name="meta.media.sample_aspect_den">1</property>
  <property name="aspect_ratio">1</property>
  <property name="kdenlive:folderid">17</property>
  <property name="meta.media.frame_rate_num">50</property>
  <property name="meta.media.frame_rate_den">1</property>
  <property name="meta.media.colorspace">709</property>
  <property name="meta.media.color_trc">1</property>
  <property name="meta.media.width">1920</property>
  <property name="meta.media.height">1080</property>
  <property name="meta.media.top_field_first">0</property>
  <property name="meta.media.progressive">1</property>
  <property name="kdenlive:file_size">522548</property>
  <property name="kdenlive:file_hash">7e248ce4ffc891ed5e9c0ac7814b383e</property>
  <property name="global_feed">1</property>
 </producer>
 <producer title="Anonymous Submission" id="34" in="0" out="252">
  <property name="length">00:00:05:03</property>
  <property name="eof">pause</property>
  <property name="resource">/media/bordun/plagiat/Clip02_RespecteLaPuissancePapale/Logos/logo_2d.mp4</property>
  <property name="audio_index">1</property>
  <property name="video_index">0</property>
  <property name="mute_on_pause">1</property>
  <property name="mlt_service">avformat-novalidate</property>
  <property name="meta.media.nb_streams">1</property>
  <property name="meta.media.0.stream.type">video</property>
  <property name="meta.media.0.stream.frame_rate">50</property>
  <property name="meta.media.0.stream.sample_aspect_ratio">1</property>
  <property name="meta.media.0.codec.width">1920</property>
  <property name="meta.media.0.codec.height">1080</property>
  <property name="meta.media.0.codec.rotate">0</property>
  <property name="meta.media.0.codec.frame_rate">50</property>
  <property name="meta.media.0.codec.pix_fmt">yuv420p</property>
  <property name="meta.media.0.codec.sample_aspect_ratio">1</property>
  <property name="meta.media.0.codec.colorspace">709</property>
  <property name="meta.media.0.codec.color_trc">1</property>
  <property name="meta.media.0.codec.name">h264</property>
  <property name="meta.media.0.codec.long_name">H.264 / AVC / MPEG-4 AVC / MPEG-4 part 10</property>
  <property name="meta.media.0.codec.bit_rate">121858</property>
  <property name="meta.attr.0.stream.handler_name.markup">VideoHandler</property>
  <property name="meta.media.1.stream.type">audio</property>
  <property name="meta.media.1.codec.sample_fmt">fltp</property>
  <property name="meta.media.1.codec.sample_rate">48000</property>
  <property name="meta.media.1.codec.channels">2</property>
  <property name="meta.media.1.codec.name">aac</property>
  <property name="meta.media.1.codec.long_name">AAC (Advanced Audio Coding)</property>
  <property name="meta.media.1.codec.bit_rate">2276</property>
  <property name="meta.attr.1.stream.handler_name.markup">SoundHandler</property>
  <property name="meta.attr.major_brand.markup">isom</property>
  <property name="meta.attr.minor_version.markup">512</property>
  <property name="meta.attr.compatible_brands.markup">isomiso2avc1mp41</property>
  <property name="meta.attr.encoder.markup">Lavf58.20.100</property>
  <property name="seekable">1</property>
  <property name="meta.media.sample_aspect_num">1</property>
  <property name="meta.media.sample_aspect_den">1</property>
  <property name="aspect_ratio">1</property>
  <property name="kdenlive:folderid">17</property>
  <property name="meta.media.frame_rate_num">50</property>
  <property name="meta.media.frame_rate_den">1</property>
  <property name="meta.media.colorspace">709</property>
  <property name="meta.media.color_trc">1</property>
  <property name="meta.media.width">1920</property>
  <property name="meta.media.height">1080</property>
  <property name="meta.media.top_field_first">0</property>
  <property name="meta.media.progressive">1</property>
  <property name="kdenlive:file_size">279633</property>
  <property name="kdenlive:file_hash">091cdaa080da0e61c5520ca7b8771eb2</property>
  <property name="global_feed">1</property>
 </producer>
 <producer title="Anonymous Submission" id="36" in="0" out="250">
  <property name="length">00:00:05:01</property>
  <property name="eof">pause</property>
  <property name="resource">/media/bordun/plagiat/Clip02_RespecteLaPuissancePapale/Logos/logo_plagiat.mp4</property>
  <property name="audio_index">-1</property>
  <property name="video_index">0</property>
  <property name="mute_on_pause">1</property>
  <property name="mlt_service">avformat-novalidate</property>
  <property name="meta.media.nb_streams">1</property>
  <property name="meta.media.0.stream.type">video</property>
  <property name="meta.media.0.stream.frame_rate">50</property>
  <property name="meta.media.0.stream.sample_aspect_ratio">1</property>
  <property name="meta.media.0.codec.width">1920</property>
  <property name="meta.media.0.codec.height">1080</property>
  <property name="meta.media.0.codec.rotate">0</property>
  <property name="meta.media.0.codec.frame_rate">50</property>
  <property name="meta.media.0.codec.pix_fmt">yuv420p</property>
  <property name="meta.media.0.codec.sample_aspect_ratio">1</property>
  <property name="meta.media.0.codec.colorspace">709</property>
  <property name="meta.media.0.codec.color_trc">1</property>
  <property name="meta.media.0.codec.name">h264</property>
  <property name="meta.media.0.codec.long_name">H.264 / AVC / MPEG-4 AVC / MPEG-4 part 10</property>
  <property name="meta.media.0.codec.bit_rate">450393</property>
  <property name="meta.attr.0.stream.handler_name.markup">VideoHandler</property>
  <property name="meta.attr.major_brand.markup">isom</property>
  <property name="meta.attr.minor_version.markup">512</property>
  <property name="meta.attr.compatible_brands.markup">isomiso2avc1mp41</property>
  <property name="meta.attr.encoder.markup">Lavf58.20.100</property>
  <property name="seekable">1</property>
  <property name="meta.media.sample_aspect_num">1</property>
  <property name="meta.media.sample_aspect_den">1</property>
  <property name="aspect_ratio">1</property>
  <property name="kdenlive:folderid">17</property>
  <property name="kdenlive:file_size">286465</property>
  <property name="kdenlive:file_hash">ccf8a4849ff202c6f5aecee3ce42f74d</property>
  <property name="global_feed">1</property>
  <property name="meta.media.frame_rate_num">50</property>
  <property name="meta.media.frame_rate_den">1</property>
  <property name="meta.media.colorspace">709</property>
  <property name="meta.media.color_trc">1</property>
  <property name="meta.media.width">1920</property>
  <property name="meta.media.height">1080</property>
  <property name="meta.media.top_field_first">0</property>
  <property name="meta.media.progressive">1</property>
 </producer>
 <producer title="Anonymous Submission" id="37" in="0" out="44957">
  <property name="length">00:14:59:08</property>
  <property name="eof">pause</property>
  <property name="resource">/media/bordun/plagiat/Clip02_RespecteLaPuissancePapale/Audio/Best Epic Classical Music - Choir.mp3</property>
  <property name="audio_index">0</property>
  <property name="video_index">-1</property>
  <property name="mute_on_pause">1</property>
  <property name="mlt_service">avformat-novalidate</property>
  <property name="meta.media.nb_streams">1</property>
  <property name="meta.media.0.stream.type">audio</property>
  <property name="meta.media.0.codec.sample_fmt">s16p</property>
  <property name="meta.media.0.codec.sample_rate">44100</property>
  <property name="meta.media.0.codec.channels">2</property>
  <property name="meta.media.0.codec.name">mp3</property>
  <property name="meta.media.0.codec.long_name">MP3 (MPEG audio layer 3)</property>
  <property name="meta.media.0.codec.bit_rate">128000</property>
  <property name="meta.attr.0.stream.encoder.markup">Lavc57.64</property>
  <property name="meta.attr.major_brand.markup">mp42</property>
  <property name="meta.attr.minor_version.markup">0</property>
  <property name="meta.attr.compatible_brands.markup">isommp42</property>
  <property name="meta.attr.encoder.markup">Lavf57.56.100</property>
  <property name="seekable">1</property>
  <property name="kdenlive:file_size">14387128</property>
  <property name="kdenlive:file_hash">ca245b7d49dd4565addcb92a32f61a20</property>
  <property name="global_feed">1</property>
 </producer>
 <producer title="Anonymous Submission" id="38" in="0" out="250">
  <property name="length">00:00:05:01</property>
  <property name="eof">pause</property>
  <property name="resource">/media/bordun/plagiat/Clip02_RespecteLaPuissancePapale/Logos/logo_vod.mp4</property>
  <property name="audio_index">-1</property>
  <property name="video_index">0</property>
  <property name="mute_on_pause">1</property>
  <property name="mlt_service">avformat-novalidate</property>
  <property name="meta.media.nb_streams">1</property>
  <property name="meta.media.0.stream.type">video</property>
  <property name="meta.media.0.stream.frame_rate">50</property>
  <property name="meta.media.0.stream.sample_aspect_ratio">1</property>
  <property name="meta.media.0.codec.width">1920</property>
  <property name="meta.media.0.codec.height">1080</property>
  <property name="meta.media.0.codec.rotate">0</property>
  <property name="meta.media.0.codec.frame_rate">50</property>
  <property name="meta.media.0.codec.pix_fmt">yuv420p</property>
  <property name="meta.media.0.codec.sample_aspect_ratio">1</property>
  <property name="meta.media.0.codec.colorspace">709</property>
  <property name="meta.media.0.codec.color_trc">1</property>
  <property name="meta.media.0.codec.name">h264</property>
  <property name="meta.media.0.codec.long_name">H.264 / AVC / MPEG-4 AVC / MPEG-4 part 10</property>
  <property name="meta.media.0.codec.bit_rate">312937</property>
  <property name="meta.attr.0.stream.handler_name.markup">VideoHandler</property>
  <property name="meta.attr.major_brand.markup">isom</property>
  <property name="meta.attr.minor_version.markup">512</property>
  <property name="meta.attr.compatible_brands.markup">isomiso2avc1mp41</property>
  <property name="meta.attr.encoder.markup">Lavf58.20.100</property>
  <property name="seekable">1</property>
  <property name="meta.media.sample_aspect_num">1</property>
  <property name="meta.media.sample_aspect_den">1</property>
  <property name="aspect_ratio">1</property>
  <property name="kdenlive:folderid">17</property>
  <property name="meta.media.frame_rate_num">50</property>
  <property name="meta.media.frame_rate_den">1</property>
  <property name="meta.media.colorspace">709</property>
  <property name="meta.media.color_trc">1</property>
  <property name="meta.media.width">1920</property>
  <property name="meta.media.height">1080</property>
  <property name="meta.media.top_field_first">0</property>
  <property name="meta.media.progressive">1</property>
  <property name="kdenlive:file_size">200219</property>
  <property name="kdenlive:file_hash">332846a165451d3a9b809d12eaca15fc</property>
  <property name="global_feed">1</property>
 </producer>
 <producer title="Anonymous Submission" id="39" in="0" out="250">
  <property name="length">00:00:05:01</property>
  <property name="eof">pause</property>
  <property name="resource">/media/bordun/plagiat/Clip02_RespecteLaPuissancePapale/Logos/logo_present.mp4</property>
  <property name="audio_index">-1</property>
  <property name="video_index">0</property>
  <property name="mute_on_pause">1</property>
  <property name="mlt_service">avformat-novalidate</property>
  <property name="meta.media.nb_streams">1</property>
  <property name="meta.media.0.stream.type">video</property>
  <property name="meta.media.0.stream.frame_rate">50</property>
  <property name="meta.media.0.stream.sample_aspect_ratio">1</property>
  <property name="meta.media.0.codec.width">1920</property>
  <property name="meta.media.0.codec.height">1080</property>
  <property name="meta.media.0.codec.rotate">0</property>
  <property name="meta.media.0.codec.frame_rate">50</property>
  <property name="meta.media.0.codec.pix_fmt">yuv420p</property>
  <property name="meta.media.0.codec.sample_aspect_ratio">1</property>
  <property name="meta.media.0.codec.colorspace">709</property>
  <property name="meta.media.0.codec.color_trc">1</property>
  <property name="meta.media.0.codec.name">h264</property>
  <property name="meta.media.0.codec.long_name">H.264 / AVC / MPEG-4 AVC / MPEG-4 part 10</property>
  <property name="meta.media.0.codec.bit_rate">147459</property>
  <property name="meta.attr.0.stream.handler_name.markup">VideoHandler</property>
  <property name="meta.attr.major_brand.markup">isom</property>
  <property name="meta.attr.minor_version.markup">512</property>
  <property name="meta.attr.compatible_brands.markup">isomiso2avc1mp41</property>
  <property name="meta.attr.encoder.markup">Lavf58.20.100</property>
  <property name="seekable">1</property>
  <property name="meta.media.sample_aspect_num">1</property>
  <property name="meta.media.sample_aspect_den">1</property>
  <property name="aspect_ratio">1</property>
  <property name="kdenlive:folderid">17</property>
  <property name="meta.media.frame_rate_num">50</property>
  <property name="meta.media.frame_rate_den">1</property>
  <property name="meta.media.colorspace">709</property>
  <property name="meta.media.color_trc">1</property>
  <property name="meta.media.width">1920</property>
  <property name="meta.media.height">1080</property>
  <property name="meta.media.top_field_first">0</property>
  <property name="meta.media.progressive">1</property>
  <property name="kdenlive:file_size">96390</property>
  <property name="kdenlive:file_hash">f293befcf5bbbbda8a6815054cfc4104</property>
  <property name="global_feed">1</property>
 </producer>
 <producer title="Anonymous Submission" id="40" in="0" out="18113">
  <property name="length">00:06:02:14</property>
  <property name="eof">pause</property>
  <property name="resource">/media/bordun/plagiat/Clip02_RespecteLaPuissancePapale/Audio/Handel_-_Zadok_the_Priest.ogg</property>
  <property name="audio_index">0</property>
  <property name="video_index">-1</property>
  <property name="mute_on_pause">1</property>
  <property name="mlt_service">avformat-novalidate</property>
  <property name="meta.media.nb_streams">1</property>
  <property name="meta.media.0.stream.type">audio</property>
  <property name="meta.media.0.codec.sample_fmt">fltp</property>
  <property name="meta.media.0.codec.sample_rate">44100</property>
  <property name="meta.media.0.codec.channels">2</property>
  <property name="meta.media.0.codec.name">vorbis</property>
  <property name="meta.media.0.codec.long_name">Vorbis</property>
  <property name="meta.media.0.codec.bit_rate">128000</property>
  <property name="meta.attr.0.stream.TITLE.markup">Queen Elizabeth II Diamond Jubilee Coronation Concert</property>
  <property name="meta.attr.0.stream.LICENSE.markup">http://creativecommons.org/licenses/by/3.0/</property>
  <property name="meta.attr.0.stream.DATE.markup">2013-06-02</property>
  <property name="meta.attr.0.stream.LOCATION.markup">http://archive.org/details/QueenElizabethIIDiamondJubileeCoronationConcert</property>
  <property name="meta.attr.0.stream.ENCODER.markup">Lavf54.49.102</property>
  <property name="seekable">1</property>
  <property name="kdenlive:file_size">5219803</property>
  <property name="kdenlive:file_hash">0de5c110393fd39b4439bd3db0e90d63</property>
  <property name="global_feed">1</property>
 </producer>
 <producer title="Anonymous Submission" id="41" in="0" out="497">
  <property name="length">00:00:09:48</property>
  <property name="eof">pause</property>
  <property name="resource">/media/bordun/plagiat/Clip02_RespecteLaPuissancePapale/Audio/Slow_HeartBeat-Mike_Koenig-1853475164.wav</property>
  <property name="audio_index">0</property>
  <property name="video_index">-1</property>
  <property name="mute_on_pause">1</property>
  <property name="mlt_service">avformat-novalidate</property>
  <property name="meta.media.nb_streams">1</property>
  <property name="meta.media.0.stream.type">audio</property>
  <property name="meta.media.0.codec.sample_fmt">s16</property>
  <property name="meta.media.0.codec.sample_rate">44100</property>
  <property name="meta.media.0.codec.channels">2</property>
  <property name="meta.media.0.codec.name">pcm_s16le</property>
  <property name="meta.media.0.codec.long_name">PCM signed 16-bit little-endian</property>
  <property name="meta.media.0.codec.bit_rate">1411200</property>
  <property name="meta.attr.artist.markup">Mike Koenig</property>
  <property name="meta.attr.title.markup">Slow HeartBeat</property>
  <property name="seekable">1</property>
  <property name="kdenlive:file_size">1758560</property>
  <property name="kdenlive:file_hash">3dd7131bb30ff6012c9716429df176ee</property>
  <property name="global_feed">1</property>
 </producer>
 <producer title="Anonymous Submission" id="42" in="0" out="860">
  <property name="length">861</property>
  <property name="eof">pause</property>
  <property name="resource">/media/bordun/plagiat/Clip02_RespecteLaPuissancePapale/Assets/tarantino.png</property>
  <property name="ttl">25</property>
  <property name="aspect_ratio">1</property>
  <property name="progressive">1</property>
  <property name="seekable">1</property>
  <property name="meta.media.width">3757</property>
  <property name="meta.media.height">2453</property>
  <property name="mlt_service">qimage</property>
  <property name="kdenlive:folderid">17</property>
  <property name="kdenlive:duration">250</property>
  <property name="kdenlive:file_size">1094851</property>
  <property name="kdenlive:file_hash">f63cdf9c890883e3511f9fafa05df490</property>
  <property name="global_feed">1</property>
 </producer>
 <producer title="Anonymous Submission" id="43" in="0" out="449">
  <property name="length">450</property>
  <property name="eof">pause</property>
  <property name="resource"/>
  <property name="progressive">1</property>
  <property name="aspect_ratio">1</property>
  <property name="seekable">1</property>
  <property name="mlt_service">kdenlivetitle</property>
  <property name="kdenlive:clipname">RLPP</property>
  <property name="kdenlive:folderid">17</property>
  <property name="xmldata">&lt;kdenlivetitle duration="250" LC_NUMERIC="fr_FR.UTF-8" width="1920" height="1080" out="250">
 &lt;item type="QGraphicsTextItem" z-index="0">
  &lt;position x="555" y="517">
   &lt;transform>1,0,0,0,1,0,0,0,1&lt;/transform>
  &lt;/position>
  &lt;content line-spacing="0" shadow="0;#64000000;3;3;3" font-underline="0" box-height="46" font-outline-color="211,215,207,255" font="Geometos" letter-spacing="0" font-pixel-size="45" font-italic="0" alignment="1" font-weight="25" font-outline="0" box-width="810.625" font-color="255,255,255,255">RESPECTE LA PUISSANCE PAPALE&lt;/content>
 &lt;/item>
 &lt;startviewport rect="0,0,1920,1080"/>
 &lt;endviewport rect="0,0,1920,1080"/>
 &lt;background color="0,0,0,0"/>
&lt;/kdenlivetitle>
</property>
  <property name="kdenlive:duration">250</property>
  <property name="force_reload">0</property>
  <property name="meta.media.width">1920</property>
  <property name="meta.media.height">1080</property>
  <property name="kdenlive:file_hash">58b42ac9a069defb79247a9b65466095</property>
  <property name="global_feed">1</property>
 </producer>
 <producer title="Anonymous Submission" id="44" in="0" out="449">
  <property name="length">450</property>
  <property name="eof">pause</property>
  <property name="resource"/>
  <property name="progressive">1</property>
  <property name="aspect_ratio">1</property>
  <property name="seekable">1</property>
  <property name="mlt_service">kdenlivetitle</property>
  <property name="kdenlive:clipname">Missy</property>
  <property name="kdenlive:folderid">17</property>
  <property name="xmldata">&lt;kdenlivetitle duration="250" LC_NUMERIC="fr_FR.UTF-8" width="1920" height="1080" out="250">
 &lt;item type="QGraphicsTextItem" z-index="1">
  &lt;position x="886" y="517">
   &lt;transform>1,0,0,0,1,0,0,0,1&lt;/transform>
  &lt;/position>
  &lt;content line-spacing="0" shadow="0;#64000000;3;3;3" font-underline="0" box-height="46" font-outline-color="211,215,207,255" font="Geometos" letter-spacing="0" font-pixel-size="45" font-italic="0" alignment="1" font-weight="25" font-outline="0" box-width="148.781" font-color="255,255,255,255">MI$$Y&lt;/content>
 &lt;/item>
 &lt;startviewport rect="0,0,1920,1080"/>
 &lt;endviewport rect="0,0,1920,1080"/>
 &lt;background color="0,0,0,0"/>
&lt;/kdenlivetitle>
</property>
  <property name="kdenlive:duration">250</property>
  <property name="force_reload">0</property>
  <property name="meta.media.width">1920</property>
  <property name="meta.media.height">1080</property>
  <property name="kdenlive:file_hash">828132427efe0643677dc7fa55e49b1c</property>
  <property name="global_feed">1</property>
 </producer>
 <producer title="Anonymous Submission" id="45" in="0" out="449">
  <property name="length">450</property>
  <property name="eof">pause</property>
  <property name="resource"/>
  <property name="progressive">1</property>
  <property name="aspect_ratio">1</property>
  <property name="seekable">1</property>
  <property name="mlt_service">kdenlivetitle</property>
  <property name="kdenlive:clipname">LordO</property>
  <property name="kdenlive:folderid">17</property>
  <property name="xmldata">&lt;kdenlivetitle duration="250" LC_NUMERIC="fr_FR.UTF-8" width="1920" height="1080" out="250">
 &lt;item type="QGraphicsTextItem" z-index="1">
  &lt;position x="870" y="517">
   &lt;transform>1,0,0,0,1,0,0,0,1&lt;/transform>
  &lt;/position>
  &lt;content line-spacing="0" shadow="0;#ff14c6ff;5;0;0" font-underline="0" box-height="46" font-outline-color="0,0,0,255" font="Geometos" letter-spacing="0" font-pixel-size="45" font-italic="0" alignment="1" font-weight="25" font-outline="0" box-width="180.047" font-color="255,255,255,255">LORD'O&lt;/content>
 &lt;/item>
 &lt;startviewport rect="0,0,1920,1080"/>
 &lt;endviewport rect="0,0,1920,1080"/>
 &lt;background color="0,0,0,0"/>
&lt;/kdenlivetitle>
</property>
  <property name="kdenlive:duration">250</property>
  <property name="force_reload">0</property>
  <property name="kdenlive:file_hash">36bacc445d102761ed611c4d94c0564e</property>
  <property name="global_feed">1</property>
  <property name="meta.media.width">1920</property>
  <property name="meta.media.height">1080</property>
 </producer>
 <producer id="46" in="0" out="449">
  <property name="length">450</property>
  <property name="eof">pause</property>
  <property name="resource">0x000000ff</property>
  <property name="aspect_ratio">1</property>
  <property name="mlt_service">color</property>
  <property name="kdenlive:clipname">Clip couleur</property>
  <property name="kdenlive:folderid">17</property>
  <property name="kdenlive:duration">250</property>
  <property name="kdenlive:file_hash">9196813120dc5c505072516b15baf414</property>
 </producer>
 <producer title="Anonymous Submission" id="48" in="0" out="43907">
  <property name="length">00:14:38:08</property>
  <property name="eof">pause</property>
  <property name="resource">/media/bordun/plagiat2/CAM1_2019-01-05_0407_C0000.mov</property>
  <property name="audio_index">2</property>
  <property name="video_index">1</property>
  <property name="mute_on_pause">1</property>
  <property name="mlt_service">avformat-novalidate</property>
  <property name="meta.media.nb_streams">3</property>
  <property name="meta.media.1.stream.type">video</property>
  <property name="meta.media.1.stream.frame_rate">50</property>
  <property name="meta.media.1.stream.sample_aspect_ratio">1</property>
  <property name="meta.media.1.codec.width">1920</property>
  <property name="meta.media.1.codec.height">1080</property>
  <property name="meta.media.1.codec.rotate">0</property>
  <property name="meta.media.1.codec.frame_rate">5000</property>
  <property name="meta.media.1.codec.pix_fmt">yuv422p10le</property>
  <property name="meta.media.1.codec.sample_aspect_ratio">0</property>
  <property name="meta.media.1.codec.colorspace">709</property>
  <property name="meta.media.1.codec.color_trc">1</property>
  <property name="meta.media.1.codec.name">prores</property>
  <property name="meta.media.1.codec.long_name">ProRes</property>
  <property name="meta.media.1.codec.bit_rate">366957037</property>
  <property name="meta.attr.1.stream.creation_time.markup">2019-01-05T04:07:04.000000Z</property>
  <property name="meta.attr.1.stream.language.markup">eng</property>
  <property name="meta.attr.1.stream.handler_name.markup">Apple Alias Data Handler</property>
  <property name="meta.attr.1.stream.encoder.markup">Apple ProRes 422 HQ</property>
  <property name="meta.attr.1.stream.timecode.markup">04:07:04:29</property>
  <property name="meta.media.2.stream.type">audio</property>
  <property name="meta.media.2.codec.sample_fmt">s32</property>
  <property name="meta.media.2.codec.sample_rate">48000</property>
  <property name="meta.media.2.codec.channels">2</property>
  <property name="meta.media.2.codec.name">pcm_s24le</property>
  <property name="meta.media.2.codec.long_name">PCM signed 24-bit little-endian</property>
  <property name="meta.media.2.codec.bit_rate">2304000</property>
  <property name="meta.attr.2.stream.creation_time.markup">2019-01-05T04:07:04.000000Z</property>
  <property name="meta.attr.2.stream.language.markup">eng</property>
  <property name="meta.attr.2.stream.handler_name.markup">Apple Alias Data Handler</property>
  <property name="meta.attr.2.stream.timecode.markup">04:07:04:29</property>
  <property name="meta.attr.com.apple.proapps.manufacturer.markup">Blackmagic Design</property>
  <property name="meta.attr.com.apple.proapps.cameraName.markup">CAM1</property>
  <property name="meta.attr.com.apple.proapps.isGood.markup">0</property>
  <property name="meta.attr.com.apple.proapps.customgamma.markup">com.blackmagic-design.cinemacamera.filmlog</property>
  <property name="meta.attr.com.blackmagic-design.cinemacamera.uuid.markup">18E5E00548F94923B646613A73C01B56</property>
  <property name="meta.attr.creation_time.markup">2019-01-05T04:07:04.000000Z</property>
  <property name="meta.attr.timecode.markup">04:07:04:29</property>
  <property name="seekable">1</property>
  <property name="meta.media.sample_aspect_num">1</property>
  <property name="meta.media.sample_aspect_den">1</property>
  <property name="aspect_ratio">1</property>
  <property name="kdenlive:folderid">18</property>
  <property name="meta.media.frame_rate_num">50</property>
  <property name="meta.media.frame_rate_den">1</property>
  <property name="meta.media.colorspace">709</property>
  <property name="meta.media.color_trc">1</property>
  <property name="meta.media.width">1920</property>
  <property name="meta.media.height">1080</property>
  <property name="meta.media.top_field_first">0</property>
  <property name="meta.media.progressive">1</property>
  <property name="kdenlive:file_size">40537867713</property>
  <property name="kdenlive:file_hash">eeb49a6f6e2626b129e2046ec649a60c</property>
  <property name="global_feed">1</property>
 </producer>
 <producer title="Anonymous Submission" id="49" in="0" out="3983">
  <property name="length">00:01:19:34</property>
  <property name="eof">pause</property>
  <property name="resource">/media/bordun/plagiat2/CAM1_2019-01-05_0918_C0009.mov</property>
  <property name="audio_index">2</property>
  <property name="video_index">1</property>
  <property name="mute_on_pause">1</property>
  <property name="mlt_service">avformat-novalidate</property>
  <property name="meta.media.nb_streams">3</property>
  <property name="meta.media.1.stream.type">video</property>
  <property name="meta.media.1.stream.frame_rate">25</property>
  <property name="meta.media.1.stream.sample_aspect_ratio">1</property>
  <property name="meta.media.1.codec.width">1920</property>
  <property name="meta.media.1.codec.height">1080</property>
  <property name="meta.media.1.codec.rotate">0</property>
  <property name="meta.media.1.codec.frame_rate">2500</property>
  <property name="meta.media.1.codec.pix_fmt">yuv422p10le</property>
  <property name="meta.media.1.codec.sample_aspect_ratio">0</property>
  <property name="meta.media.1.codec.colorspace">709</property>
  <property name="meta.media.1.codec.color_trc">1</property>
  <property name="meta.media.1.codec.name">prores</property>
  <property name="meta.media.1.codec.long_name">ProRes</property>
  <property name="meta.media.1.codec.bit_rate">122316581</property>
  <property name="meta.attr.1.stream.creation_time.markup">2019-01-05T09:18:25.000000Z</property>
  <property name="meta.attr.1.stream.language.markup">eng</property>
  <property name="meta.attr.1.stream.handler_name.markup">Apple Alias Data Handler</property>
  <property name="meta.attr.1.stream.encoder.markup">Apple ProRes 422</property>
  <property name="meta.attr.1.stream.timecode.markup">09:18:25:03</property>
  <property name="meta.media.2.stream.type">audio</property>
  <property name="meta.media.2.codec.sample_fmt">s32</property>
  <property name="meta.media.2.codec.sample_rate">48000</property>
  <property name="meta.media.2.codec.channels">2</property>
  <property name="meta.media.2.codec.name">pcm_s24le</property>
  <property name="meta.media.2.codec.long_name">PCM signed 24-bit little-endian</property>
  <property name="meta.media.2.codec.bit_rate">2304000</property>
  <property name="meta.attr.2.stream.creation_time.markup">2019-01-05T09:18:25.000000Z</property>
  <property name="meta.attr.2.stream.language.markup">eng</property>
  <property name="meta.attr.2.stream.handler_name.markup">Apple Alias Data Handler</property>
  <property name="meta.attr.2.stream.timecode.markup">09:18:25:03</property>
  <property name="meta.attr.com.apple.proapps.manufacturer.markup">Blackmagic Design</property>
  <property name="meta.attr.com.apple.proapps.cameraName.markup">CAM1</property>
  <property name="meta.attr.com.apple.proapps.isGood.markup">0</property>
  <property name="meta.attr.com.apple.proapps.customgamma.markup">com.blackmagic-design.cinemacamera.filmlog</property>
  <property name="meta.attr.com.blackmagic-design.cinemacamera.uuid.markup">18E5E00548F94923B646613A73C01B56</property>
  <property name="meta.attr.creation_time.markup">2019-01-05T09:18:25.000000Z</property>
  <property name="meta.attr.timecode.markup">09:18:25:03</property>
  <property name="seekable">1</property>
  <property name="meta.media.sample_aspect_num">1</property>
  <property name="meta.media.sample_aspect_den">1</property>
  <property name="aspect_ratio">1</property>
  <property name="kdenlive:folderid">18</property>
  <property name="meta.media.frame_rate_num">25</property>
  <property name="meta.media.frame_rate_den">1</property>
  <property name="meta.media.colorspace">709</property>
  <property name="meta.media.color_trc">1</property>
  <property name="meta.media.width">1920</property>
  <property name="meta.media.height">1080</property>
  <property name="meta.media.top_field_first">0</property>
  <property name="meta.media.progressive">1</property>
  <property name="kdenlive:file_size">1241534665</property>
  <property name="kdenlive:file_hash">3298342aecc7a336c57ca6af427a29f7</property>
  <property name="global_feed">1</property>
 </producer>
 <producer title="Anonymous Submission" id="50" in="0" out="5323">
  <property name="length">00:01:46:24</property>
  <property name="eof">pause</property>
  <property name="resource">/media/bordun/plagiat2/CAM1_2019-01-05_0915_C0008.mov</property>
  <property name="audio_index">2</property>
  <property name="video_index">1</property>
  <property name="mute_on_pause">1</property>
  <property name="mlt_service">avformat-novalidate</property>
  <property name="meta.media.nb_streams">3</property>
  <property name="meta.media.1.stream.type">video</property>
  <property name="meta.media.1.stream.frame_rate">25</property>
  <property name="meta.media.1.stream.sample_aspect_ratio">1</property>
  <property name="meta.media.1.codec.width">1920</property>
  <property name="meta.media.1.codec.height">1080</property>
  <property name="meta.media.1.codec.rotate">0</property>
  <property name="meta.media.1.codec.frame_rate">2500</property>
  <property name="meta.media.1.codec.pix_fmt">yuv422p10le</property>
  <property name="meta.media.1.codec.sample_aspect_ratio">0</property>
  <property name="meta.media.1.codec.colorspace">709</property>
  <property name="meta.media.1.codec.color_trc">1</property>
  <property name="meta.media.1.codec.name">prores</property>
  <property name="meta.media.1.codec.long_name">ProRes</property>
  <property name="meta.media.1.codec.bit_rate">122315341</property>
  <property name="meta.attr.1.stream.creation_time.markup">2019-01-05T09:15:40.000000Z</property>
  <property name="meta.attr.1.stream.language.markup">eng</property>
  <property name="meta.attr.1.stream.handler_name.markup">Apple Alias Data Handler</property>
  <property name="meta.attr.1.stream.encoder.markup">Apple ProRes 422</property>
  <property name="meta.attr.1.stream.timecode.markup">09:15:40:03</property>
  <property name="meta.media.2.stream.type">audio</property>
  <property name="meta.media.2.codec.sample_fmt">s32</property>
  <property name="meta.media.2.codec.sample_rate">48000</property>
  <property name="meta.media.2.codec.channels">2</property>
  <property name="meta.media.2.codec.name">pcm_s24le</property>
  <property name="meta.media.2.codec.long_name">PCM signed 24-bit little-endian</property>
  <property name="meta.media.2.codec.bit_rate">2304000</property>
  <property name="meta.attr.2.stream.creation_time.markup">2019-01-05T09:15:40.000000Z</property>
  <property name="meta.attr.2.stream.language.markup">eng</property>
  <property name="meta.attr.2.stream.handler_name.markup">Apple Alias Data Handler</property>
  <property name="meta.attr.2.stream.timecode.markup">09:15:40:03</property>
  <property name="meta.attr.com.apple.proapps.manufacturer.markup">Blackmagic Design</property>
  <property name="meta.attr.com.apple.proapps.cameraName.markup">CAM1</property>
  <property name="meta.attr.com.apple.proapps.isGood.markup">0</property>
  <property name="meta.attr.com.apple.proapps.customgamma.markup">com.blackmagic-design.cinemacamera.filmlog</property>
  <property name="meta.attr.com.blackmagic-design.cinemacamera.uuid.markup">18E5E00548F94923B646613A73C01B56</property>
  <property name="meta.attr.creation_time.markup">2019-01-05T09:15:40.000000Z</property>
  <property name="meta.attr.timecode.markup">09:15:40:03</property>
  <property name="seekable">1</property>
  <property name="meta.media.sample_aspect_num">1</property>
  <property name="meta.media.sample_aspect_den">1</property>
  <property name="aspect_ratio">1</property>
  <property name="kdenlive:folderid">18</property>
  <property name="meta.media.frame_rate_num">25</property>
  <property name="meta.media.frame_rate_den">1</property>
  <property name="meta.media.colorspace">709</property>
  <property name="meta.media.color_trc">1</property>
  <property name="meta.media.width">1920</property>
  <property name="meta.media.height">1080</property>
  <property name="meta.media.top_field_first">0</property>
  <property name="meta.media.progressive">1</property>
  <property name="kdenlive:file_size">1659116449</property>
  <property name="kdenlive:file_hash">f8aa56141d75527d7246be55a57cf7dd</property>
  <property name="global_feed">1</property>
  <property name="kdenlive:zone_in">3078</property>
  <property name="kdenlive:zone_out">5224</property>
 </producer>
 <producer title="Anonymous Submission" id="51" in="0" out="9041">
  <property name="length">00:03:00:42</property>
  <property name="eof">pause</property>
  <property name="resource">/media/bordun/plagiat2/CAM1_2019-01-05_0910_C0007.mov</property>
  <property name="audio_index">2</property>
  <property name="video_index">1</property>
  <property name="mute_on_pause">1</property>
  <property name="mlt_service">avformat-novalidate</property>
  <property name="meta.media.nb_streams">3</property>
  <property name="meta.media.1.stream.type">video</property>
  <property name="meta.media.1.stream.frame_rate">25</property>
  <property name="meta.media.1.stream.sample_aspect_ratio">1</property>
  <property name="meta.media.1.codec.width">1920</property>
  <property name="meta.media.1.codec.height">1080</property>
  <property name="meta.media.1.codec.rotate">0</property>
  <property name="meta.media.1.codec.frame_rate">2500</property>
  <property name="meta.media.1.codec.pix_fmt">yuv422p10le</property>
  <property name="meta.media.1.codec.sample_aspect_ratio">0</property>
  <property name="meta.media.1.codec.colorspace">709</property>
  <property name="meta.media.1.codec.color_trc">1</property>
  <property name="meta.media.1.codec.name">prores</property>
  <property name="meta.media.1.codec.long_name">ProRes</property>
  <property name="meta.media.1.codec.bit_rate">122315670</property>
  <property name="meta.attr.1.stream.creation_time.markup">2019-01-05T09:10:10.000000Z</property>
  <property name="meta.attr.1.stream.language.markup">eng</property>
  <property name="meta.attr.1.stream.handler_name.markup">Apple Alias Data Handler</property>
  <property name="meta.attr.1.stream.encoder.markup">Apple ProRes 422</property>
  <property name="meta.attr.1.stream.timecode.markup">09:10:10:17</property>
  <property name="meta.media.2.stream.type">audio</property>
  <property name="meta.media.2.codec.sample_fmt">s32</property>
  <property name="meta.media.2.codec.sample_rate">48000</property>
  <property name="meta.media.2.codec.channels">2</property>
  <property name="meta.media.2.codec.name">pcm_s24le</property>
  <property name="meta.media.2.codec.long_name">PCM signed 24-bit little-endian</property>
  <property name="meta.media.2.codec.bit_rate">2304000</property>
  <property name="meta.attr.2.stream.creation_time.markup">2019-01-05T09:10:10.000000Z</property>
  <property name="meta.attr.2.stream.language.markup">eng</property>
  <property name="meta.attr.2.stream.handler_name.markup">Apple Alias Data Handler</property>
  <property name="meta.attr.2.stream.timecode.markup">09:10:10:17</property>
  <property name="meta.attr.com.apple.proapps.manufacturer.markup">Blackmagic Design</property>
  <property name="meta.attr.com.apple.proapps.cameraName.markup">CAM1</property>
  <property name="meta.attr.com.apple.proapps.isGood.markup">0</property>
  <property name="meta.attr.com.apple.proapps.customgamma.markup">com.blackmagic-design.cinemacamera.filmlog</property>
  <property name="meta.attr.com.blackmagic-design.cinemacamera.uuid.markup">18E5E00548F94923B646613A73C01B56</property>
  <property name="meta.attr.creation_time.markup">2019-01-05T09:10:10.000000Z</property>
  <property name="meta.attr.timecode.markup">09:10:10:17</property>
  <property name="seekable">1</property>
  <property name="meta.media.sample_aspect_num">1</property>
  <property name="meta.media.sample_aspect_den">1</property>
  <property name="aspect_ratio">1</property>
  <property name="kdenlive:folderid">18</property>
  <property name="meta.media.frame_rate_num">25</property>
  <property name="meta.media.frame_rate_den">1</property>
  <property name="meta.media.colorspace">709</property>
  <property name="meta.media.color_trc">1</property>
  <property name="meta.media.width">1920</property>
  <property name="meta.media.height">1080</property>
  <property name="meta.media.top_field_first">0</property>
  <property name="meta.media.progressive">1</property>
  <property name="kdenlive:file_size">2817746417</property>
  <property name="kdenlive:file_hash">b3e4bc9ce3280bb8753bd5e36ee0b214</property>
  <property name="global_feed">1</property>
 </producer>
 <producer id="52" in="0" out="3953">
  <property name="length">00:01:19:04</property>
  <property name="eof">pause</property>
  <property name="resource">/media/bordun/plagiat2/CAM1_2019-01-05_0902_C0006.mov</property>
  <property name="audio_index">2</property>
  <property name="video_index">1</property>
  <property name="mute_on_pause">1</property>
  <property name="mlt_service">avformat-novalidate</property>
  <property name="meta.media.nb_streams">3</property>
  <property name="meta.media.1.stream.type">video</property>
  <property name="meta.media.1.stream.frame_rate">25</property>
  <property name="meta.media.1.stream.sample_aspect_ratio">1</property>
  <property name="meta.media.1.codec.width">1920</property>
  <property name="meta.media.1.codec.height">1080</property>
  <property name="meta.media.1.codec.rotate">0</property>
  <property name="meta.media.1.codec.frame_rate">2500</property>
  <property name="meta.media.1.codec.pix_fmt">yuv422p10le</property>
  <property name="meta.media.1.codec.sample_aspect_ratio">0</property>
  <property name="meta.media.1.codec.colorspace">709</property>
  <property name="meta.media.1.codec.color_trc">1</property>
  <property name="meta.media.1.codec.name">prores</property>
  <property name="meta.media.1.codec.long_name">ProRes</property>
  <property name="meta.media.1.codec.bit_rate">122315923</property>
  <property name="meta.attr.1.stream.creation_time.markup">2019-01-05T09:02:46.000000Z</property>
  <property name="meta.attr.1.stream.language.markup">eng</property>
  <property name="meta.attr.1.stream.handler_name.markup">Apple Alias Data Handler</property>
  <property name="meta.attr.1.stream.encoder.markup">Apple ProRes 422</property>
  <property name="meta.attr.1.stream.timecode.markup">09:02:46:24</property>
  <property name="meta.media.2.stream.type">audio</property>
  <property name="meta.media.2.codec.sample_fmt">s32</property>
  <property name="meta.media.2.codec.sample_rate">48000</property>
  <property name="meta.media.2.codec.channels">2</property>
  <property name="meta.media.2.codec.name">pcm_s24le</property>
  <property name="meta.media.2.codec.long_name">PCM signed 24-bit little-endian</property>
  <property name="meta.media.2.codec.bit_rate">2304000</property>
  <property name="meta.attr.2.stream.creation_time.markup">2019-01-05T09:02:46.000000Z</property>
  <property name="meta.attr.2.stream.language.markup">eng</property>
  <property name="meta.attr.2.stream.handler_name.markup">Apple Alias Data Handler</property>
  <property name="meta.attr.2.stream.timecode.markup">09:02:46:24</property>
  <property name="meta.attr.com.apple.proapps.manufacturer.markup">Blackmagic Design</property>
  <property name="meta.attr.com.apple.proapps.cameraName.markup">CAM1</property>
  <property name="meta.attr.com.apple.proapps.isGood.markup">0</property>
  <property name="meta.attr.com.apple.proapps.customgamma.markup">com.blackmagic-design.cinemacamera.filmlog</property>
  <property name="meta.attr.com.blackmagic-design.cinemacamera.uuid.markup">18E5E00548F94923B646613A73C01B56</property>
  <property name="meta.attr.creation_time.markup">2019-01-05T09:02:46.000000Z</property>
  <property name="meta.attr.timecode.markup">09:02:46:24</property>
  <property name="seekable">1</property>
  <property name="meta.media.sample_aspect_num">1</property>
  <property name="meta.media.sample_aspect_den">1</property>
  <property name="aspect_ratio">1</property>
  <property name="kdenlive:folderid">18</property>
  <property name="meta.media.frame_rate_num">25</property>
  <property name="meta.media.frame_rate_den">1</property>
  <property name="meta.media.colorspace">709</property>
  <property name="meta.media.color_trc">1</property>
  <property name="meta.media.width">1920</property>
  <property name="meta.media.height">1080</property>
  <property name="meta.media.top_field_first">0</property>
  <property name="meta.media.progressive">1</property>
  <property name="kdenlive:file_size">1232186057</property>
  <property name="kdenlive:file_hash">84e349f213f607e7c2eb327a44075451</property>
 </producer>
 <producer title="Anonymous Submission" id="53" in="0" out="5863">
  <property name="length">00:01:57:14</property>
  <property name="eof">pause</property>
  <property name="resource">/media/bordun/plagiat2/CAM1_2019-01-05_0853_C0005.mov</property>
  <property name="audio_index">2</property>
  <property name="video_index">1</property>
  <property name="mute_on_pause">1</property>
  <property name="mlt_service">avformat-novalidate</property>
  <property name="meta.media.nb_streams">3</property>
  <property name="meta.media.1.stream.type">video</property>
  <property name="meta.media.1.stream.frame_rate">25</property>
  <property name="meta.media.1.stream.sample_aspect_ratio">1</property>
  <property name="meta.media.1.codec.width">1920</property>
  <property name="meta.media.1.codec.height">1080</property>
  <property name="meta.media.1.codec.rotate">0</property>
  <property name="meta.media.1.codec.frame_rate">2500</property>
  <property name="meta.media.1.codec.pix_fmt">yuv422p10le</property>
  <property name="meta.media.1.codec.sample_aspect_ratio">0</property>
  <property name="meta.media.1.codec.colorspace">709</property>
  <property name="meta.media.1.codec.color_trc">1</property>
  <property name="meta.media.1.codec.name">prores</property>
  <property name="meta.media.1.codec.long_name">ProRes</property>
  <property name="meta.media.1.codec.bit_rate">122316105</property>
  <property name="meta.attr.1.stream.creation_time.markup">2019-01-05T08:53:39.000000Z</property>
  <property name="meta.attr.1.stream.language.markup">eng</property>
  <property name="meta.attr.1.stream.handler_name.markup">Apple Alias Data Handler</property>
  <property name="meta.attr.1.stream.encoder.markup">Apple ProRes 422</property>
  <property name="meta.attr.1.stream.timecode.markup">08:53:39:10</property>
  <property name="meta.media.2.stream.type">audio</property>
  <property name="meta.media.2.codec.sample_fmt">s32</property>
  <property name="meta.media.2.codec.sample_rate">48000</property>
  <property name="meta.media.2.codec.channels">2</property>
  <property name="meta.media.2.codec.name">pcm_s24le</property>
  <property name="meta.media.2.codec.long_name">PCM signed 24-bit little-endian</property>
  <property name="meta.media.2.codec.bit_rate">2304000</property>
  <property name="meta.attr.2.stream.creation_time.markup">2019-01-05T08:53:39.000000Z</property>
  <property name="meta.attr.2.stream.language.markup">eng</property>
  <property name="meta.attr.2.stream.handler_name.markup">Apple Alias Data Handler</property>
  <property name="meta.attr.2.stream.timecode.markup">08:53:39:10</property>
  <property name="meta.attr.com.apple.proapps.manufacturer.markup">Blackmagic Design</property>
  <property name="meta.attr.com.apple.proapps.cameraName.markup">CAM1</property>
  <property name="meta.attr.com.apple.proapps.isGood.markup">0</property>
  <property name="meta.attr.com.apple.proapps.customgamma.markup">com.blackmagic-design.cinemacamera.filmlog</property>
  <property name="meta.attr.com.blackmagic-design.cinemacamera.uuid.markup">18E5E00548F94923B646613A73C01B56</property>
  <property name="meta.attr.creation_time.markup">2019-01-05T08:53:39.000000Z</property>
  <property name="meta.attr.timecode.markup">08:53:39:10</property>
  <property name="seekable">1</property>
  <property name="meta.media.sample_aspect_num">1</property>
  <property name="meta.media.sample_aspect_den">1</property>
  <property name="aspect_ratio">1</property>
  <property name="kdenlive:folderid">18</property>
  <property name="meta.media.frame_rate_num">25</property>
  <property name="meta.media.frame_rate_den">1</property>
  <property name="meta.media.colorspace">709</property>
  <property name="meta.media.color_trc">1</property>
  <property name="meta.media.width">1920</property>
  <property name="meta.media.height">1080</property>
  <property name="meta.media.top_field_first">0</property>
  <property name="meta.media.progressive">1</property>
  <property name="kdenlive:file_size">1827394553</property>
  <property name="kdenlive:file_hash">f1252aea4a9073267c53ed9979db2a79</property>
  <property name="global_feed">1</property>
 </producer>
 <producer id="54" in="0" out="6601">
  <property name="length">00:02:12:02</property>
  <property name="eof">pause</property>
  <property name="resource">/media/bordun/plagiat2/CAM1_2019-01-05_0616_C0002.mov</property>
  <property name="audio_index">2</property>
  <property name="video_index">1</property>
  <property name="mute_on_pause">1</property>
  <property name="mlt_service">avformat-novalidate</property>
  <property name="meta.media.nb_streams">3</property>
  <property name="meta.media.1.stream.type">video</property>
  <property name="meta.media.1.stream.frame_rate">50</property>
  <property name="meta.media.1.stream.sample_aspect_ratio">1</property>
  <property name="meta.media.1.codec.width">1920</property>
  <property name="meta.media.1.codec.height">1080</property>
  <property name="meta.media.1.codec.rotate">0</property>
  <property name="meta.media.1.codec.frame_rate">5000</property>
  <property name="meta.media.1.codec.pix_fmt">yuv422p10le</property>
  <property name="meta.media.1.codec.sample_aspect_ratio">0</property>
  <property name="meta.media.1.codec.colorspace">709</property>
  <property name="meta.media.1.codec.color_trc">1</property>
  <property name="meta.media.1.codec.name">prores</property>
  <property name="meta.media.1.codec.long_name">ProRes</property>
  <property name="meta.media.1.codec.bit_rate">366956617</property>
  <property name="meta.attr.1.stream.creation_time.markup">2019-01-05T06:16:17.000000Z</property>
  <property name="meta.attr.1.stream.language.markup">eng</property>
  <property name="meta.attr.1.stream.handler_name.markup">Apple Alias Data Handler</property>
  <property name="meta.attr.1.stream.encoder.markup">Apple ProRes 422 HQ</property>
  <property name="meta.attr.1.stream.timecode.markup">06:16:17:16</property>
  <property name="meta.media.2.stream.type">audio</property>
  <property name="meta.media.2.codec.sample_fmt">s32</property>
  <property name="meta.media.2.codec.sample_rate">48000</property>
  <property name="meta.media.2.codec.channels">2</property>
  <property name="meta.media.2.codec.name">pcm_s24le</property>
  <property name="meta.media.2.codec.long_name">PCM signed 24-bit little-endian</property>
  <property name="meta.media.2.codec.bit_rate">2304000</property>
  <property name="meta.attr.2.stream.creation_time.markup">2019-01-05T06:16:17.000000Z</property>
  <property name="meta.attr.2.stream.language.markup">eng</property>
  <property name="meta.attr.2.stream.handler_name.markup">Apple Alias Data Handler</property>
  <property name="meta.attr.2.stream.timecode.markup">06:16:17:16</property>
  <property name="meta.attr.com.apple.proapps.manufacturer.markup">Blackmagic Design</property>
  <property name="meta.attr.com.apple.proapps.cameraName.markup">CAM1</property>
  <property name="meta.attr.com.apple.proapps.isGood.markup">0</property>
  <property name="meta.attr.com.apple.proapps.customgamma.markup">com.blackmagic-design.cinemacamera.filmlog</property>
  <property name="meta.attr.com.blackmagic-design.cinemacamera.uuid.markup">18E5E00548F94923B646613A73C01B56</property>
  <property name="meta.attr.creation_time.markup">2019-01-05T06:16:17.000000Z</property>
  <property name="meta.attr.timecode.markup">06:16:17:16</property>
  <property name="seekable">1</property>
  <property name="meta.media.sample_aspect_num">1</property>
  <property name="meta.media.sample_aspect_den">1</property>
  <property name="aspect_ratio">1</property>
  <property name="kdenlive:folderid">18</property>
  <property name="meta.media.frame_rate_num">50</property>
  <property name="meta.media.frame_rate_den">1</property>
  <property name="meta.media.colorspace">709</property>
  <property name="meta.media.color_trc">1</property>
  <property name="meta.media.width">1920</property>
  <property name="meta.media.height">1080</property>
  <property name="meta.media.top_field_first">0</property>
  <property name="meta.media.progressive">1</property>
  <property name="kdenlive:file_size">6095265905</property>
  <property name="kdenlive:file_hash">15392cd6b98f5c75a2b04073ca3e9ced</property>
 </producer>
 <producer id="55" in="0" out="10077">
  <property name="length">00:03:21:28</property>
  <property name="eof">pause</property>
  <property name="resource">/media/bordun/plagiat2/CAM1_2019-01-05_0612_C0001.mov</property>
  <property name="audio_index">2</property>
  <property name="video_index">1</property>
  <property name="mute_on_pause">1</property>
  <property name="mlt_service">avformat-novalidate</property>
  <property name="meta.media.nb_streams">3</property>
  <property name="meta.media.1.stream.type">video</property>
  <property name="meta.media.1.stream.frame_rate">50</property>
  <property name="meta.media.1.stream.sample_aspect_ratio">1</property>
  <property name="meta.media.1.codec.width">1920</property>
  <property name="meta.media.1.codec.height">1080</property>
  <property name="meta.media.1.codec.rotate">0</property>
  <property name="meta.media.1.codec.frame_rate">5000</property>
  <property name="meta.media.1.codec.pix_fmt">yuv422p10le</property>
  <property name="meta.media.1.codec.sample_aspect_ratio">0</property>
  <property name="meta.media.1.codec.colorspace">709</property>
  <property name="meta.media.1.codec.color_trc">1</property>
  <property name="meta.media.1.codec.name">prores</property>
  <property name="meta.media.1.codec.long_name">ProRes</property>
  <property name="meta.media.1.codec.bit_rate">366957469</property>
  <property name="meta.attr.1.stream.creation_time.markup">2019-01-05T06:12:21.000000Z</property>
  <property name="meta.attr.1.stream.language.markup">eng</property>
  <property name="meta.attr.1.stream.handler_name.markup">Apple Alias Data Handler</property>
  <property name="meta.attr.1.stream.encoder.markup">Apple ProRes 422 HQ</property>
  <property name="meta.attr.1.stream.timecode.markup">06:12:21:43</property>
  <property name="meta.media.2.stream.type">audio</property>
  <property name="meta.media.2.codec.sample_fmt">s32</property>
  <property name="meta.media.2.codec.sample_rate">48000</property>
  <property name="meta.media.2.codec.channels">2</property>
  <property name="meta.media.2.codec.name">pcm_s24le</property>
  <property name="meta.media.2.codec.long_name">PCM signed 24-bit little-endian</property>
  <property name="meta.media.2.codec.bit_rate">2304000</property>
  <property name="meta.attr.2.stream.creation_time.markup">2019-01-05T06:12:21.000000Z</property>
  <property name="meta.attr.2.stream.language.markup">eng</property>
  <property name="meta.attr.2.stream.handler_name.markup">Apple Alias Data Handler</property>
  <property name="meta.attr.2.stream.timecode.markup">06:12:21:43</property>
  <property name="meta.attr.com.apple.proapps.manufacturer.markup">Blackmagic Design</property>
  <property name="meta.attr.com.apple.proapps.cameraName.markup">CAM1</property>
  <property name="meta.attr.com.apple.proapps.isGood.markup">0</property>
  <property name="meta.attr.com.apple.proapps.customgamma.markup">com.blackmagic-design.cinemacamera.filmlog</property>
  <property name="meta.attr.com.blackmagic-design.cinemacamera.uuid.markup">18E5E00548F94923B646613A73C01B56</property>
  <property name="meta.attr.creation_time.markup">2019-01-05T06:12:21.000000Z</property>
  <property name="meta.attr.timecode.markup">06:12:21:43</property>
  <property name="seekable">1</property>
  <property name="meta.media.sample_aspect_num">1</property>
  <property name="meta.media.sample_aspect_den">1</property>
  <property name="aspect_ratio">1</property>
  <property name="kdenlive:folderid">18</property>
  <property name="meta.media.frame_rate_num">50</property>
  <property name="meta.media.frame_rate_den">1</property>
  <property name="meta.media.colorspace">709</property>
  <property name="meta.media.color_trc">1</property>
  <property name="meta.media.width">1920</property>
  <property name="meta.media.height">1080</property>
  <property name="meta.media.top_field_first">0</property>
  <property name="meta.media.progressive">1</property>
  <property name="kdenlive:file_size">9304493209</property>
  <property name="kdenlive:file_hash">5e9906388e5fb2616c7022bce204f437</property>
 </producer>
 <producer id="56" in="0" out="10454">
  <property name="length">00:03:29:05</property>
  <property name="eof">pause</property>
  <property name="resource">/media/bordun/plagiat2/CAM1_2019-01-05_0557_C0004.mov</property>
  <property name="audio_index">2</property>
  <property name="video_index">1</property>
  <property name="mute_on_pause">1</property>
  <property name="mlt_service">avformat-novalidate</property>
  <property name="meta.media.nb_streams">3</property>
  <property name="meta.media.1.stream.type">video</property>
  <property name="meta.media.1.stream.frame_rate">50</property>
  <property name="meta.media.1.stream.sample_aspect_ratio">1</property>
  <property name="meta.media.1.codec.width">1920</property>
  <property name="meta.media.1.codec.height">1080</property>
  <property name="meta.media.1.codec.rotate">0</property>
  <property name="meta.media.1.codec.frame_rate">5000</property>
  <property name="meta.media.1.codec.pix_fmt">yuv422p10le</property>
  <property name="meta.media.1.codec.sample_aspect_ratio">0</property>
  <property name="meta.media.1.codec.colorspace">709</property>
  <property name="meta.media.1.codec.color_trc">1</property>
  <property name="meta.media.1.codec.name">prores</property>
  <property name="meta.media.1.codec.long_name">ProRes</property>
  <property name="meta.media.1.codec.bit_rate">366958528</property>
  <property name="meta.attr.1.stream.creation_time.markup">2019-01-05T05:57:41.000000Z</property>
  <property name="meta.attr.1.stream.language.markup">eng</property>
  <property name="meta.attr.1.stream.handler_name.markup">Apple Alias Data Handler</property>
  <property name="meta.attr.1.stream.encoder.markup">Apple ProRes 422 HQ</property>
  <property name="meta.attr.1.stream.timecode.markup">05:57:41:19</property>
  <property name="meta.media.2.stream.type">audio</property>
  <property name="meta.media.2.codec.sample_fmt">s32</property>
  <property name="meta.media.2.codec.sample_rate">48000</property>
  <property name="meta.media.2.codec.channels">2</property>
  <property name="meta.media.2.codec.name">pcm_s24le</property>
  <property name="meta.media.2.codec.long_name">PCM signed 24-bit little-endian</property>
  <property name="meta.media.2.codec.bit_rate">2304000</property>
  <property name="meta.attr.2.stream.creation_time.markup">2019-01-05T05:57:41.000000Z</property>
  <property name="meta.attr.2.stream.language.markup">eng</property>
  <property name="meta.attr.2.stream.handler_name.markup">Apple Alias Data Handler</property>
  <property name="meta.attr.2.stream.timecode.markup">05:57:41:19</property>
  <property name="meta.attr.com.apple.proapps.manufacturer.markup">Blackmagic Design</property>
  <property name="meta.attr.com.apple.proapps.cameraName.markup">CAM1</property>
  <property name="meta.attr.com.apple.proapps.isGood.markup">0</property>
  <property name="meta.attr.com.apple.proapps.customgamma.markup">com.blackmagic-design.cinemacamera.filmlog</property>
  <property name="meta.attr.com.blackmagic-design.cinemacamera.uuid.markup">18E5E00548F94923B646613A73C01B56</property>
  <property name="meta.attr.creation_time.markup">2019-01-05T05:57:41.000000Z</property>
  <property name="meta.attr.timecode.markup">05:57:41:19</property>
  <property name="seekable">1</property>
  <property name="meta.media.sample_aspect_num">1</property>
  <property name="meta.media.sample_aspect_den">1</property>
  <property name="aspect_ratio">1</property>
  <property name="kdenlive:folderid">18</property>
  <property name="meta.media.frame_rate_num">50</property>
  <property name="meta.media.frame_rate_den">1</property>
  <property name="meta.media.colorspace">709</property>
  <property name="meta.media.color_trc">1</property>
  <property name="meta.media.width">1920</property>
  <property name="meta.media.height">1080</property>
  <property name="meta.media.top_field_first">0</property>
  <property name="meta.media.progressive">1</property>
  <property name="kdenlive:file_size">9652541145</property>
  <property name="kdenlive:file_hash">9d4eddc292544f83f9eb0cb1726027b3</property>
 </producer>
 <producer id="57" in="0" out="19885">
  <property name="length">00:06:37:36</property>
  <property name="eof">pause</property>
  <property name="resource">/media/bordun/plagiat2/CAM1_2019-01-05_0544_C0003.mov</property>
  <property name="audio_index">2</property>
  <property name="video_index">1</property>
  <property name="mute_on_pause">1</property>
  <property name="mlt_service">avformat-novalidate</property>
  <property name="meta.media.nb_streams">3</property>
  <property name="meta.media.1.stream.type">video</property>
  <property name="meta.media.1.stream.frame_rate">50</property>
  <property name="meta.media.1.stream.sample_aspect_ratio">1</property>
  <property name="meta.media.1.codec.width">1920</property>
  <property name="meta.media.1.codec.height">1080</property>
  <property name="meta.media.1.codec.rotate">0</property>
  <property name="meta.media.1.codec.frame_rate">5000</property>
  <property name="meta.media.1.codec.pix_fmt">yuv422p10le</property>
  <property name="meta.media.1.codec.sample_aspect_ratio">0</property>
  <property name="meta.media.1.codec.colorspace">709</property>
  <property name="meta.media.1.codec.color_trc">1</property>
  <property name="meta.media.1.codec.name">prores</property>
  <property name="meta.media.1.codec.long_name">ProRes</property>
  <property name="meta.media.1.codec.bit_rate">366956929</property>
  <property name="meta.attr.1.stream.creation_time.markup">2019-01-05T05:44:18.000000Z</property>
  <property name="meta.attr.1.stream.language.markup">eng</property>
  <property name="meta.attr.1.stream.handler_name.markup">Apple Alias Data Handler</property>
  <property name="meta.attr.1.stream.encoder.markup">Apple ProRes 422 HQ</property>
  <property name="meta.attr.1.stream.timecode.markup">05:44:18:23</property>
  <property name="meta.media.2.stream.type">audio</property>
  <property name="meta.media.2.codec.sample_fmt">s32</property>
  <property name="meta.media.2.codec.sample_rate">48000</property>
  <property name="meta.media.2.codec.channels">2</property>
  <property name="meta.media.2.codec.name">pcm_s24le</property>
  <property name="meta.media.2.codec.long_name">PCM signed 24-bit little-endian</property>
  <property name="meta.media.2.codec.bit_rate">2304000</property>
  <property name="meta.attr.2.stream.creation_time.markup">2019-01-05T05:44:18.000000Z</property>
  <property name="meta.attr.2.stream.language.markup">eng</property>
  <property name="meta.attr.2.stream.handler_name.markup">Apple Alias Data Handler</property>
  <property name="meta.attr.2.stream.timecode.markup">05:44:18:23</property>
  <property name="meta.attr.com.apple.proapps.manufacturer.markup">Blackmagic Design</property>
  <property name="meta.attr.com.apple.proapps.cameraName.markup">CAM1</property>
  <property name="meta.attr.com.apple.proapps.isGood.markup">0</property>
  <property name="meta.attr.com.apple.proapps.customgamma.markup">com.blackmagic-design.cinemacamera.filmlog</property>
  <property name="meta.attr.com.blackmagic-design.cinemacamera.uuid.markup">18E5E00548F94923B646613A73C01B56</property>
  <property name="meta.attr.creation_time.markup">2019-01-05T05:44:18.000000Z</property>
  <property name="meta.attr.timecode.markup">05:44:18:23</property>
  <property name="seekable">1</property>
  <property name="meta.media.sample_aspect_num">1</property>
  <property name="meta.media.sample_aspect_den">1</property>
  <property name="aspect_ratio">1</property>
  <property name="kdenlive:folderid">18</property>
  <property name="meta.media.frame_rate_num">50</property>
  <property name="meta.media.frame_rate_den">1</property>
  <property name="meta.media.colorspace">709</property>
  <property name="meta.media.color_trc">1</property>
  <property name="meta.media.width">1920</property>
  <property name="meta.media.height">1080</property>
  <property name="meta.media.top_field_first">0</property>
  <property name="meta.media.progressive">1</property>
  <property name="kdenlive:file_size">18359664313</property>
  <property name="kdenlive:file_hash">46f909828b8adaa191142911fc3d1240</property>
 </producer>
 <producer id="58" in="0" out="9289">
  <property name="length">00:03:05:40</property>
  <property name="eof">pause</property>
  <property name="resource">/media/bordun/plagiat2/CAM1_2019-01-05_0517_C0001.mov</property>
  <property name="audio_index">2</property>
  <property name="video_index">1</property>
  <property name="mute_on_pause">1</property>
  <property name="mlt_service">avformat-novalidate</property>
  <property name="meta.media.nb_streams">3</property>
  <property name="meta.media.1.stream.type">video</property>
  <property name="meta.media.1.stream.frame_rate">50</property>
  <property name="meta.media.1.stream.sample_aspect_ratio">1</property>
  <property name="meta.media.1.codec.width">1920</property>
  <property name="meta.media.1.codec.height">1080</property>
  <property name="meta.media.1.codec.rotate">0</property>
  <property name="meta.media.1.codec.frame_rate">5000</property>
  <property name="meta.media.1.codec.pix_fmt">yuv422p10le</property>
  <property name="meta.media.1.codec.sample_aspect_ratio">0</property>
  <property name="meta.media.1.codec.colorspace">709</property>
  <property name="meta.media.1.codec.color_trc">1</property>
  <property name="meta.media.1.codec.name">prores</property>
  <property name="meta.media.1.codec.long_name">ProRes</property>
  <property name="meta.media.1.codec.bit_rate">366957016</property>
  <property name="meta.attr.1.stream.creation_time.markup">2019-01-05T05:17:29.000000Z</property>
  <property name="meta.attr.1.stream.language.markup">eng</property>
  <property name="meta.attr.1.stream.handler_name.markup">Apple Alias Data Handler</property>
  <property name="meta.attr.1.stream.encoder.markup">Apple ProRes 422 HQ</property>
  <property name="meta.attr.1.stream.timecode.markup">05:17:29:25</property>
  <property name="meta.media.2.stream.type">audio</property>
  <property name="meta.media.2.codec.sample_fmt">s32</property>
  <property name="meta.media.2.codec.sample_rate">48000</property>
  <property name="meta.media.2.codec.channels">2</property>
  <property name="meta.media.2.codec.name">pcm_s24le</property>
  <property name="meta.media.2.codec.long_name">PCM signed 24-bit little-endian</property>
  <property name="meta.media.2.codec.bit_rate">2304000</property>
  <property name="meta.attr.2.stream.creation_time.markup">2019-01-05T05:17:29.000000Z</property>
  <property name="meta.attr.2.stream.language.markup">eng</property>
  <property name="meta.attr.2.stream.handler_name.markup">Apple Alias Data Handler</property>
  <property name="meta.attr.2.stream.timecode.markup">05:17:29:25</property>
  <property name="meta.attr.com.apple.proapps.manufacturer.markup">Blackmagic Design</property>
  <property name="meta.attr.com.apple.proapps.cameraName.markup">CAM1</property>
  <property name="meta.attr.com.apple.proapps.isGood.markup">0</property>
  <property name="meta.attr.com.apple.proapps.customgamma.markup">com.blackmagic-design.cinemacamera.filmlog</property>
  <property name="meta.attr.com.blackmagic-design.cinemacamera.uuid.markup">18E5E00548F94923B646613A73C01B56</property>
  <property name="meta.attr.creation_time.markup">2019-01-05T05:17:29.000000Z</property>
  <property name="meta.attr.timecode.markup">05:17:29:25</property>
  <property name="seekable">1</property>
  <property name="meta.media.sample_aspect_num">1</property>
  <property name="meta.media.sample_aspect_den">1</property>
  <property name="aspect_ratio">1</property>
  <property name="kdenlive:folderid">18</property>
  <property name="meta.media.frame_rate_num">50</property>
  <property name="meta.media.frame_rate_den">1</property>
  <property name="meta.media.colorspace">709</property>
  <property name="meta.media.color_trc">1</property>
  <property name="meta.media.width">1920</property>
  <property name="meta.media.height">1080</property>
  <property name="meta.media.top_field_first">0</property>
  <property name="meta.media.progressive">1</property>
  <property name="kdenlive:file_size">8576956441</property>
  <property name="kdenlive:file_hash">c2f5e810e9e7275dd3088498b60f8e5f</property>
 </producer>
 <producer id="59" in="0" out="10702">
  <property name="length">00:03:34:03</property>
  <property name="eof">pause</property>
  <property name="resource">/media/bordun/plagiat2/CAM1_2019-01-05_0511_C0000.mov</property>
  <property name="audio_index">2</property>
  <property name="video_index">1</property>
  <property name="mute_on_pause">1</property>
  <property name="mlt_service">avformat-novalidate</property>
  <property name="meta.media.nb_streams">3</property>
  <property name="meta.media.1.stream.type">video</property>
  <property name="meta.media.1.stream.frame_rate">50</property>
  <property name="meta.media.1.stream.sample_aspect_ratio">1</property>
  <property name="meta.media.1.codec.width">1920</property>
  <property name="meta.media.1.codec.height">1080</property>
  <property name="meta.media.1.codec.rotate">0</property>
  <property name="meta.media.1.codec.frame_rate">5000</property>
  <property name="meta.media.1.codec.pix_fmt">yuv422p10le</property>
  <property name="meta.media.1.codec.sample_aspect_ratio">0</property>
  <property name="meta.media.1.codec.colorspace">709</property>
  <property name="meta.media.1.codec.color_trc">1</property>
  <property name="meta.media.1.codec.name">prores</property>
  <property name="meta.media.1.codec.long_name">ProRes</property>
  <property name="meta.media.1.codec.bit_rate">366958294</property>
  <property name="meta.attr.1.stream.creation_time.markup">2019-01-05T05:11:43.000000Z</property>
  <property name="meta.attr.1.stream.language.markup">eng</property>
  <property name="meta.attr.1.stream.handler_name.markup">Apple Alias Data Handler</property>
  <property name="meta.attr.1.stream.encoder.markup">Apple ProRes 422 HQ</property>
  <property name="meta.attr.1.stream.timecode.markup">05:11:43:16</property>
  <property name="meta.media.2.stream.type">audio</property>
  <property name="meta.media.2.codec.sample_fmt">s32</property>
  <property name="meta.media.2.codec.sample_rate">48000</property>
  <property name="meta.media.2.codec.channels">2</property>
  <property name="meta.media.2.codec.name">pcm_s24le</property>
  <property name="meta.media.2.codec.long_name">PCM signed 24-bit little-endian</property>
  <property name="meta.media.2.codec.bit_rate">2304000</property>
  <property name="meta.attr.2.stream.creation_time.markup">2019-01-05T05:11:43.000000Z</property>
  <property name="meta.attr.2.stream.language.markup">eng</property>
  <property name="meta.attr.2.stream.handler_name.markup">Apple Alias Data Handler</property>
  <property name="meta.attr.2.stream.timecode.markup">05:11:43:16</property>
  <property name="meta.attr.com.apple.proapps.manufacturer.markup">Blackmagic Design</property>
  <property name="meta.attr.com.apple.proapps.cameraName.markup">CAM1</property>
  <property name="meta.attr.com.apple.proapps.isGood.markup">0</property>
  <property name="meta.attr.com.apple.proapps.customgamma.markup">com.blackmagic-design.cinemacamera.filmlog</property>
  <property name="meta.attr.com.blackmagic-design.cinemacamera.uuid.markup">18E5E00548F94923B646613A73C01B56</property>
  <property name="meta.attr.creation_time.markup">2019-01-05T05:11:43.000000Z</property>
  <property name="meta.attr.timecode.markup">05:11:43:16</property>
  <property name="seekable">1</property>
  <property name="meta.media.sample_aspect_num">1</property>
  <property name="meta.media.sample_aspect_den">1</property>
  <property name="aspect_ratio">1</property>
  <property name="kdenlive:folderid">18</property>
  <property name="meta.media.frame_rate_num">50</property>
  <property name="meta.media.frame_rate_den">1</property>
  <property name="meta.media.colorspace">709</property>
  <property name="meta.media.color_trc">1</property>
  <property name="meta.media.width">1920</property>
  <property name="meta.media.height">1080</property>
  <property name="meta.media.top_field_first">0</property>
  <property name="meta.media.progressive">1</property>
  <property name="kdenlive:file_size">9881509121</property>
  <property name="kdenlive:file_hash">377aa92a5fbef78369143e30739b498c</property>
 </producer>
 <producer id="60" in="0" out="11268">
  <property name="length">00:03:45:19</property>
  <property name="eof">pause</property>
  <property name="resource">/media/bordun/plagiat2/CAM1_2019-01-05_0525_C0002.mov</property>
  <property name="audio_index">2</property>
  <property name="video_index">1</property>
  <property name="mute_on_pause">1</property>
  <property name="mlt_service">avformat-novalidate</property>
  <property name="meta.media.nb_streams">3</property>
  <property name="meta.media.1.stream.type">video</property>
  <property name="meta.media.1.stream.frame_rate">50</property>
  <property name="meta.media.1.stream.sample_aspect_ratio">1</property>
  <property name="meta.media.1.codec.width">1920</property>
  <property name="meta.media.1.codec.height">1080</property>
  <property name="meta.media.1.codec.rotate">0</property>
  <property name="meta.media.1.codec.frame_rate">5000</property>
  <property name="meta.media.1.codec.pix_fmt">yuv422p10le</property>
  <property name="meta.media.1.codec.sample_aspect_ratio">0</property>
  <property name="meta.media.1.codec.colorspace">709</property>
  <property name="meta.media.1.codec.color_trc">1</property>
  <property name="meta.media.1.codec.name">prores</property>
  <property name="meta.media.1.codec.long_name">ProRes</property>
  <property name="meta.media.1.codec.bit_rate">366958989</property>
  <property name="meta.attr.1.stream.creation_time.markup">2019-01-05T05:25:34.000000Z</property>
  <property name="meta.attr.1.stream.language.markup">eng</property>
  <property name="meta.attr.1.stream.handler_name.markup">Apple Alias Data Handler</property>
  <property name="meta.attr.1.stream.encoder.markup">Apple ProRes 422 HQ</property>
  <property name="meta.attr.1.stream.timecode.markup">05:25:34:21</property>
  <property name="meta.media.2.stream.type">audio</property>
  <property name="meta.media.2.codec.sample_fmt">s32</property>
  <property name="meta.media.2.codec.sample_rate">48000</property>
  <property name="meta.media.2.codec.channels">2</property>
  <property name="meta.media.2.codec.name">pcm_s24le</property>
  <property name="meta.media.2.codec.long_name">PCM signed 24-bit little-endian</property>
  <property name="meta.media.2.codec.bit_rate">2304000</property>
  <property name="meta.attr.2.stream.creation_time.markup">2019-01-05T05:25:34.000000Z</property>
  <property name="meta.attr.2.stream.language.markup">eng</property>
  <property name="meta.attr.2.stream.handler_name.markup">Apple Alias Data Handler</property>
  <property name="meta.attr.2.stream.timecode.markup">05:25:34:21</property>
  <property name="meta.attr.com.apple.proapps.manufacturer.markup">Blackmagic Design</property>
  <property name="meta.attr.com.apple.proapps.cameraName.markup">CAM1</property>
  <property name="meta.attr.com.apple.proapps.isGood.markup">0</property>
  <property name="meta.attr.com.apple.proapps.customgamma.markup">com.blackmagic-design.cinemacamera.filmlog</property>
  <property name="meta.attr.com.blackmagic-design.cinemacamera.uuid.markup">18E5E00548F94923B646613A73C01B56</property>
  <property name="meta.attr.creation_time.markup">2019-01-05T05:25:34.000000Z</property>
  <property name="meta.attr.timecode.markup">05:25:34:21</property>
  <property name="seekable">1</property>
  <property name="meta.media.sample_aspect_num">1</property>
  <property name="meta.media.sample_aspect_den">1</property>
  <property name="aspect_ratio">1</property>
  <property name="kdenlive:folderid">18</property>
  <property name="meta.media.frame_rate_num">50</property>
  <property name="meta.media.frame_rate_den">1</property>
  <property name="meta.media.colorspace">709</property>
  <property name="meta.media.color_trc">1</property>
  <property name="meta.media.width">1920</property>
  <property name="meta.media.height">1080</property>
  <property name="meta.media.top_field_first">0</property>
  <property name="meta.media.progressive">1</property>
  <property name="kdenlive:file_size">10404105561</property>
  <property name="kdenlive:file_hash">2bc47b71e880be9b41ab5c0f2f63d573</property>
 </producer>
 <producer id="61" in="0" out="42317">
  <property name="length">00:14:06:18</property>
  <property name="eof">pause</property>
  <property name="resource">/media/bordun/plagiat2/CAM1_2019-01-05_0345_C0000.mov</property>
  <property name="audio_index">2</property>
  <property name="video_index">1</property>
  <property name="mute_on_pause">1</property>
  <property name="mlt_service">avformat-novalidate</property>
  <property name="meta.media.nb_streams">3</property>
  <property name="meta.media.1.stream.type">video</property>
  <property name="meta.media.1.stream.frame_rate">50</property>
  <property name="meta.media.1.stream.sample_aspect_ratio">1</property>
  <property name="meta.media.1.codec.width">1920</property>
  <property name="meta.media.1.codec.height">1080</property>
  <property name="meta.media.1.codec.rotate">0</property>
  <property name="meta.media.1.codec.frame_rate">5000</property>
  <property name="meta.media.1.codec.pix_fmt">yuv422p10le</property>
  <property name="meta.media.1.codec.sample_aspect_ratio">0</property>
  <property name="meta.media.1.codec.colorspace">709</property>
  <property name="meta.media.1.codec.color_trc">1</property>
  <property name="meta.media.1.codec.name">prores</property>
  <property name="meta.media.1.codec.long_name">ProRes</property>
  <property name="meta.media.1.codec.bit_rate">366957403</property>
  <property name="meta.attr.1.stream.creation_time.markup">2019-01-05T03:45:37.000000Z</property>
  <property name="meta.attr.1.stream.language.markup">eng</property>
  <property name="meta.attr.1.stream.handler_name.markup">Apple Alias Data Handler</property>
  <property name="meta.attr.1.stream.encoder.markup">Apple ProRes 422 HQ</property>
  <property name="meta.attr.1.stream.timecode.markup">03:45:37:07</property>
  <property name="meta.media.2.stream.type">audio</property>
  <property name="meta.media.2.codec.sample_fmt">s32</property>
  <property name="meta.media.2.codec.sample_rate">48000</property>
  <property name="meta.media.2.codec.channels">2</property>
  <property name="meta.media.2.codec.name">pcm_s24le</property>
  <property name="meta.media.2.codec.long_name">PCM signed 24-bit little-endian</property>
  <property name="meta.media.2.codec.bit_rate">2304000</property>
  <property name="meta.attr.2.stream.creation_time.markup">2019-01-05T03:45:37.000000Z</property>
  <property name="meta.attr.2.stream.language.markup">eng</property>
  <property name="meta.attr.2.stream.handler_name.markup">Apple Alias Data Handler</property>
  <property name="meta.attr.2.stream.timecode.markup">03:45:37:07</property>
  <property name="meta.attr.com.apple.proapps.manufacturer.markup">Blackmagic Design</property>
  <property name="meta.attr.com.apple.proapps.cameraName.markup">CAM1</property>
  <property name="meta.attr.com.apple.proapps.isGood.markup">0</property>
  <property name="meta.attr.com.apple.proapps.customgamma.markup">com.blackmagic-design.cinemacamera.filmlog</property>
  <property name="meta.attr.com.blackmagic-design.cinemacamera.uuid.markup">18E5E00548F94923B646613A73C01B56</property>
  <property name="meta.attr.creation_time.markup">2019-01-05T03:45:37.000000Z</property>
  <property name="meta.attr.timecode.markup">03:45:37:07</property>
  <property name="seekable">1</property>
  <property name="meta.media.sample_aspect_num">1</property>
  <property name="meta.media.sample_aspect_den">1</property>
  <property name="aspect_ratio">1</property>
  <property name="kdenlive:folderid">18</property>
  <property name="meta.media.frame_rate_num">50</property>
  <property name="meta.media.frame_rate_den">1</property>
  <property name="meta.media.colorspace">709</property>
  <property name="meta.media.color_trc">1</property>
  <property name="meta.media.width">1920</property>
  <property name="meta.media.height">1080</property>
  <property name="meta.media.top_field_first">0</property>
  <property name="meta.media.progressive">1</property>
  <property name="kdenlive:file_size">39069915329</property>
  <property name="kdenlive:file_hash">73f4a81374204093f22cbe930d68c42b</property>
 </producer>
 <producer id="62" in="0" out="1689">
  <property name="length">00:00:33:40</property>
  <property name="eof">pause</property>
  <property name="resource">/media/bordun/plagiat2/CAM1_2019-01-05_0607_C0006.mov</property>
  <property name="audio_index">2</property>
  <property name="video_index">1</property>
  <property name="mute_on_pause">1</property>
  <property name="mlt_service">avformat-novalidate</property>
  <property name="meta.media.nb_streams">3</property>
  <property name="meta.media.1.stream.type">video</property>
  <property name="meta.media.1.stream.frame_rate">50</property>
  <property name="meta.media.1.stream.sample_aspect_ratio">1</property>
  <property name="meta.media.1.codec.width">1920</property>
  <property name="meta.media.1.codec.height">1080</property>
  <property name="meta.media.1.codec.rotate">0</property>
  <property name="meta.media.1.codec.frame_rate">5000</property>
  <property name="meta.media.1.codec.pix_fmt">yuv422p10le</property>
  <property name="meta.media.1.codec.sample_aspect_ratio">0</property>
  <property name="meta.media.1.codec.colorspace">709</property>
  <property name="meta.media.1.codec.color_trc">1</property>
  <property name="meta.media.1.codec.name">prores</property>
  <property name="meta.media.1.codec.long_name">ProRes</property>
  <property name="meta.media.1.codec.bit_rate">366960162</property>
  <property name="meta.attr.1.stream.creation_time.markup">2019-01-05T06:07:03.000000Z</property>
  <property name="meta.attr.1.stream.language.markup">eng</property>
  <property name="meta.attr.1.stream.handler_name.markup">Apple Alias Data Handler</property>
  <property name="meta.attr.1.stream.encoder.markup">Apple ProRes 422 HQ</property>
  <property name="meta.attr.1.stream.timecode.markup">06:07:03:08</property>
  <property name="meta.media.2.stream.type">audio</property>
  <property name="meta.media.2.codec.sample_fmt">s32</property>
  <property name="meta.media.2.codec.sample_rate">48000</property>
  <property name="meta.media.2.codec.channels">2</property>
  <property name="meta.media.2.codec.name">pcm_s24le</property>
  <property name="meta.media.2.codec.long_name">PCM signed 24-bit little-endian</property>
  <property name="meta.media.2.codec.bit_rate">2304000</property>
  <property name="meta.attr.2.stream.creation_time.markup">2019-01-05T06:07:03.000000Z</property>
  <property name="meta.attr.2.stream.language.markup">eng</property>
  <property name="meta.attr.2.stream.handler_name.markup">Apple Alias Data Handler</property>
  <property name="meta.attr.2.stream.timecode.markup">06:07:03:08</property>
  <property name="meta.attr.com.apple.proapps.manufacturer.markup">Blackmagic Design</property>
  <property name="meta.attr.com.apple.proapps.cameraName.markup">CAM1</property>
  <property name="meta.attr.com.apple.proapps.isGood.markup">0</property>
  <property name="meta.attr.com.apple.proapps.customgamma.markup">com.blackmagic-design.cinemacamera.filmlog</property>
  <property name="meta.attr.com.blackmagic-design.cinemacamera.uuid.markup">18E5E00548F94923B646613A73C01B56</property>
  <property name="meta.attr.creation_time.markup">2019-01-05T06:07:03.000000Z</property>
  <property name="meta.attr.timecode.markup">06:07:03:08</property>
  <property name="seekable">1</property>
  <property name="meta.media.sample_aspect_num">1</property>
  <property name="meta.media.sample_aspect_den">1</property>
  <property name="aspect_ratio">1</property>
  <property name="kdenlive:folderid">18</property>
  <property name="meta.media.frame_rate_num">50</property>
  <property name="meta.media.frame_rate_den">1</property>
  <property name="meta.media.colorspace">709</property>
  <property name="meta.media.color_trc">1</property>
  <property name="meta.media.width">1920</property>
  <property name="meta.media.height">1080</property>
  <property name="meta.media.top_field_first">0</property>
  <property name="meta.media.progressive">1</property>
  <property name="kdenlive:file_size">1560293721</property>
  <property name="kdenlive:file_hash">bd1e6f48bc5cce2ea867955bc59977ea</property>
 </producer>
 <producer id="63" in="0" out="3049">
  <property name="length">00:01:01:00</property>
  <property name="eof">pause</property>
  <property name="resource">/media/bordun/plagiat2/CAM1_2019-01-05_0605_C0005.mov</property>
  <property name="audio_index">2</property>
  <property name="video_index">1</property>
  <property name="mute_on_pause">1</property>
  <property name="mlt_service">avformat-novalidate</property>
  <property name="meta.media.nb_streams">3</property>
  <property name="meta.media.1.stream.type">video</property>
  <property name="meta.media.1.stream.frame_rate">50</property>
  <property name="meta.media.1.stream.sample_aspect_ratio">1</property>
  <property name="meta.media.1.codec.width">1920</property>
  <property name="meta.media.1.codec.height">1080</property>
  <property name="meta.media.1.codec.rotate">0</property>
  <property name="meta.media.1.codec.frame_rate">5000</property>
  <property name="meta.media.1.codec.pix_fmt">yuv422p10le</property>
  <property name="meta.media.1.codec.sample_aspect_ratio">0</property>
  <property name="meta.media.1.codec.colorspace">709</property>
  <property name="meta.media.1.codec.color_trc">1</property>
  <property name="meta.media.1.codec.name">prores</property>
  <property name="meta.media.1.codec.long_name">ProRes</property>
  <property name="meta.media.1.codec.bit_rate">366958797</property>
  <property name="meta.attr.1.stream.creation_time.markup">2019-01-05T06:05:50.000000Z</property>
  <property name="meta.attr.1.stream.language.markup">eng</property>
  <property name="meta.attr.1.stream.handler_name.markup">Apple Alias Data Handler</property>
  <property name="meta.attr.1.stream.encoder.markup">Apple ProRes 422 HQ</property>
  <property name="meta.attr.1.stream.timecode.markup">06:05:50:13</property>
  <property name="meta.media.2.stream.type">audio</property>
  <property name="meta.media.2.codec.sample_fmt">s32</property>
  <property name="meta.media.2.codec.sample_rate">48000</property>
  <property name="meta.media.2.codec.channels">2</property>
  <property name="meta.media.2.codec.name">pcm_s24le</property>
  <property name="meta.media.2.codec.long_name">PCM signed 24-bit little-endian</property>
  <property name="meta.media.2.codec.bit_rate">2304000</property>
  <property name="meta.attr.2.stream.creation_time.markup">2019-01-05T06:05:50.000000Z</property>
  <property name="meta.attr.2.stream.language.markup">eng</property>
  <property name="meta.attr.2.stream.handler_name.markup">Apple Alias Data Handler</property>
  <property name="meta.attr.2.stream.timecode.markup">06:05:50:13</property>
  <property name="meta.attr.com.apple.proapps.manufacturer.markup">Blackmagic Design</property>
  <property name="meta.attr.com.apple.proapps.cameraName.markup">CAM1</property>
  <property name="meta.attr.com.apple.proapps.isGood.markup">0</property>
  <property name="meta.attr.com.apple.proapps.customgamma.markup">com.blackmagic-design.cinemacamera.filmlog</property>
  <property name="meta.attr.com.blackmagic-design.cinemacamera.uuid.markup">18E5E00548F94923B646613A73C01B56</property>
  <property name="meta.attr.creation_time.markup">2019-01-05T06:05:50.000000Z</property>
  <property name="meta.attr.timecode.markup">06:05:50:13</property>
  <property name="seekable">1</property>
  <property name="meta.media.sample_aspect_num">1</property>
  <property name="meta.media.sample_aspect_den">1</property>
  <property name="aspect_ratio">1</property>
  <property name="kdenlive:folderid">18</property>
  <property name="meta.media.frame_rate_num">50</property>
  <property name="meta.media.frame_rate_den">1</property>
  <property name="meta.media.colorspace">709</property>
  <property name="meta.media.color_trc">1</property>
  <property name="meta.media.width">1920</property>
  <property name="meta.media.height">1080</property>
  <property name="meta.media.top_field_first">0</property>
  <property name="meta.media.progressive">1</property>
  <property name="kdenlive:file_size">2815906853</property>
  <property name="kdenlive:file_hash">23a7c272941f6ead8c4c67cee7e89762</property>
 </producer>
 <producer id="66" in="0" out="249">
  <property name="length">250</property>
  <property name="eof">pause</property>
  <property name="resource">0xffffffff</property>
  <property name="aspect_ratio">1</property>
  <property name="mlt_service">color</property>
  <property name="kdenlive:clipname">Clip couleur</property>
  <property name="kdenlive:folderid">17</property>
  <property name="kdenlive:duration">250</property>
  <property name="kdenlive:file_hash">039b56a692cd66eefeea44a17539e5a2</property>
 </producer>
 <producer title="Anonymous Submission" id="68" in="0" out="9961">
  <property name="length">00:03:19:12</property>
  <property name="eof">pause</property>
  <property name="resource">/media/bordun/plagiat/Clip02_RespecteLaPuissancePapale/Assets/vhs_on_greenscreen_stock_footage_royalty_free_Suv1x2CK3xA_360p.mp4</property>
  <property name="audio_index">1</property>
  <property name="video_index">0</property>
  <property name="mute_on_pause">1</property>
  <property name="mlt_service">avformat-novalidate</property>
  <property name="meta.media.nb_streams">2</property>
  <property name="meta.media.0.stream.type">video</property>
  <property name="meta.media.0.stream.frame_rate">29,9701</property>
  <property name="meta.media.0.stream.sample_aspect_ratio">0</property>
  <property name="meta.media.0.codec.width">480</property>
  <property name="meta.media.0.codec.height">360</property>
  <property name="meta.media.0.codec.rotate">0</property>
  <property name="meta.media.0.codec.frame_rate">29,97</property>
  <property name="meta.media.0.codec.pix_fmt">yuv420p</property>
  <property name="meta.media.0.codec.sample_aspect_ratio">1</property>
  <property name="meta.media.0.codec.colorspace">601</property>
  <property name="meta.media.0.codec.name">h264</property>
  <property name="meta.media.0.codec.long_name">H.264 / AVC / MPEG-4 AVC / MPEG-4 part 10</property>
  <property name="meta.media.0.codec.bit_rate">298518</property>
  <property name="meta.attr.0.stream.creation_time.markup">2018-11-05T07:01:08.000000Z</property>
  <property name="meta.attr.0.stream.handler_name.markup">ISO Media file produced by Google Inc. Created on: 11/04/2018.</property>
  <property name="meta.media.1.stream.type">audio</property>
  <property name="meta.media.1.codec.sample_fmt">fltp</property>
  <property name="meta.media.1.codec.sample_rate">44100</property>
  <property name="meta.media.1.codec.channels">2</property>
  <property name="meta.media.1.codec.name">aac</property>
  <property name="meta.media.1.codec.long_name">AAC (Advanced Audio Coding)</property>
  <property name="meta.media.1.codec.bit_rate">95999</property>
  <property name="meta.attr.1.stream.creation_time.markup">2018-11-05T07:01:08.000000Z</property>
  <property name="meta.attr.1.stream.handler_name.markup">ISO Media file produced by Google Inc. Created on: 11/04/2018.</property>
  <property name="meta.attr.major_brand.markup">mp42</property>
  <property name="meta.attr.minor_version.markup">0</property>
  <property name="meta.attr.compatible_brands.markup">isommp42</property>
  <property name="meta.attr.creation_time.markup">2018-11-05T07:01:08.000000Z</property>
  <property name="seekable">1</property>
  <property name="meta.media.sample_aspect_num">1</property>
  <property name="meta.media.sample_aspect_den">1</property>
  <property name="aspect_ratio">1</property>
  <property name="kdenlive:file_size">9887889</property>
  <property name="kdenlive:file_hash">30a067bbfc9642db96df21e0922c6f06</property>
  <property name="global_feed">1</property>
  <property name="kdenlive:clipname">vhs_on_greenscreen_stock_footage_royalty_free_Suv1x2CK3xA_360p.mp4</property>
  <property name="meta.media.frame_rate_num">3731250</property>
  <property name="meta.media.frame_rate_den">124499</property>
  <property name="meta.media.colorspace">601</property>
  <property name="meta.media.color_trc">2</property>
  <property name="meta.media.width">480</property>
  <property name="meta.media.height">360</property>
  <property name="meta.media.top_field_first">0</property>
  <property name="meta.media.progressive">1</property>
 </producer>
 <producer title="Anonymous Submission" id="47" in="0" out="451">
  <property name="length">452</property>
  <property name="eof">pause</property>
  <property name="resource">/media/bordun/plagiat/Clip02_RespecteLaPuissancePapale/Assets/00_Intro-f002508.png</property>
  <property name="ttl">25</property>
  <property name="aspect_ratio">1</property>
  <property name="progressive">1</property>
  <property name="seekable">1</property>
  <property name="meta.media.width">1920</property>
  <property name="meta.media.height">1080</property>
  <property name="mlt_service">qimage</property>
  <property name="kdenlive:duration">250</property>
  <property name="kdenlive:file_size">19282</property>
  <property name="kdenlive:file_hash">76a9cd637760e41572e00d28295a3fff</property>
  <property name="kdenlive:folderid">17</property>
  <property name="global_feed">1</property>
 </producer>
 <producer title="Anonymous Submission" id="65" in="0" out="451">
  <property name="length">452</property>
  <property name="eof">pause</property>
  <property name="resource">/media/bordun/plagiat/Clip02_RespecteLaPuissancePapale/Assets/00_Intro-f002508-flou.png</property>
  <property name="ttl">25</property>
  <property name="aspect_ratio">1</property>
  <property name="progressive">1</property>
  <property name="seekable">1</property>
  <property name="meta.media.width">1920</property>
  <property name="meta.media.height">1080</property>
  <property name="mlt_service">qimage</property>
  <property name="kdenlive:folderid">17</property>
  <property name="kdenlive:duration">250</property>
  <property name="kdenlive:file_size">114547</property>
  <property name="kdenlive:file_hash">a195a819c4c60c5eeca5b1efc4d4633e</property>
  <property name="global_feed">1</property>
 </producer>
 <producer title="Anonymous Submission" id="70" in="0" out="381">
  <property name="length">382</property>
  <property name="eof">pause</property>
  <property name="resource"/>
  <property name="progressive">1</property>
  <property name="aspect_ratio">1</property>
  <property name="seekable">1</property>
  <property name="mlt_service">kdenlivetitle</property>
  <property name="kdenlive:clipname">consultling</property>
  <property name="kdenlive:folderid">19</property>
  <property name="xmldata">&lt;kdenlivetitle duration="250" LC_NUMERIC="fr_FR.UTF-8" width="1920" height="1080" out="250">
 &lt;item type="QGraphicsTextItem" z-index="1">
  &lt;position x="100" y="916">
   &lt;transform>1,0,0,0,1,0,0,0,1&lt;/transform>
  &lt;/position>
  &lt;content line-spacing="0" shadow="0;#64000000;3;3;3" font-underline="0" box-height="42" font="Lato Light" letter-spacing="0" font-pixel-size="35" font-italic="0" alignment="1" font-weight="50" box-width="308.672" font-color="255,255,255,255">Expert en consutling&lt;/content>
 &lt;/item>
 &lt;item type="QGraphicsTextItem" z-index="0">
  &lt;position x="100" y="854">
   &lt;transform>1,0,0,0,1,0,0,0,1&lt;/transform>
  &lt;/position>
  &lt;content line-spacing="0" shadow="0;#64000000;3;3;3" font-underline="0" box-height="60" font="Lato Medium" letter-spacing="0" font-pixel-size="50" font-italic="0" alignment="1" font-weight="50" box-width="314.922" font-color="255,255,255,255">Billy B. Beatch&lt;/content>
 &lt;/item>
 &lt;startviewport rect="0,0,1920,1080"/>
 &lt;endviewport rect="0,0,1920,1080"/>
 &lt;background color="0,0,0,255"/>
&lt;/kdenlivetitle>
</property>
  <property name="kdenlive:duration">250</property>
  <property name="force_reload">0</property>
  <property name="meta.media.width">1920</property>
  <property name="meta.media.height">1080</property>
  <property name="kdenlive:file_hash">32426fc38e2a6b2d7edf1915188b02cd</property>
  <property name="global_feed">1</property>
  <property name="kdenlive:zone_in">0</property>
  <property name="kdenlive:zone_out">381</property>
 </producer>
 <producer title="Anonymous Submission" id="71" in="0" out="6482">
  <property name="length">00:02:09:33</property>
  <property name="eof">pause</property>
  <property name="resource">/media/bordun/plagiat/Clip02_RespecteLaPuissancePapale/Assets/fake_interpreter_at_nelson_mandela_memorial_2hCdtUxnOG8_360p.mp4</property>
  <property name="audio_index">1</property>
  <property name="video_index">0</property>
  <property name="mute_on_pause">1</property>
  <property name="mlt_service">avformat-novalidate</property>
  <property name="meta.media.nb_streams">2</property>
  <property name="meta.media.0.stream.type">video</property>
  <property name="meta.media.0.stream.frame_rate">25</property>
  <property name="meta.media.0.stream.sample_aspect_ratio">0</property>
  <property name="meta.media.0.codec.width">620</property>
  <property name="meta.media.0.codec.height">348</property>
  <property name="meta.media.0.codec.rotate">0</property>
  <property name="meta.media.0.codec.frame_rate">25</property>
  <property name="meta.media.0.codec.pix_fmt">yuv420p</property>
  <property name="meta.media.0.codec.sample_aspect_ratio">1</property>
  <property name="meta.media.0.codec.colorspace">601</property>
  <property name="meta.media.0.codec.name">h264</property>
  <property name="meta.media.0.codec.long_name">H.264 / AVC / MPEG-4 AVC / MPEG-4 part 10</property>
  <property name="meta.media.0.codec.bit_rate">368667</property>
  <property name="meta.attr.0.stream.handler_name.markup">VideoHandler</property>
  <property name="meta.media.1.stream.type">audio</property>
  <property name="meta.media.1.codec.sample_fmt">fltp</property>
  <property name="meta.media.1.codec.sample_rate">44100</property>
  <property name="meta.media.1.codec.channels">2</property>
  <property name="meta.media.1.codec.name">aac</property>
  <property name="meta.media.1.codec.long_name">AAC (Advanced Audio Coding)</property>
  <property name="meta.media.1.codec.bit_rate">95999</property>
  <property name="meta.attr.1.stream.creation_time.markup">2014-05-05T14:54:01.000000Z</property>
  <property name="meta.attr.1.stream.handler_name.markup">IsoMedia File Produced by Google, 5-11-2011</property>
  <property name="meta.attr.major_brand.markup">mp42</property>
  <property name="meta.attr.minor_version.markup">0</property>
  <property name="meta.attr.compatible_brands.markup">isommp42</property>
  <property name="meta.attr.creation_time.markup">2014-05-05T14:54:00.000000Z</property>
  <property name="seekable">1</property>
  <property name="meta.media.sample_aspect_num">1</property>
  <property name="meta.media.sample_aspect_den">1</property>
  <property name="aspect_ratio">1</property>
  <property name="meta.media.frame_rate_num">25</property>
  <property name="meta.media.frame_rate_den">1</property>
  <property name="meta.media.colorspace">601</property>
  <property name="meta.media.color_trc">2</property>
  <property name="meta.media.width">620</property>
  <property name="meta.media.height">348</property>
  <property name="meta.media.top_field_first">0</property>
  <property name="meta.media.progressive">1</property>
  <property name="kdenlive:file_size">7568940</property>
  <property name="kdenlive:file_hash">af8c6ddd3ee34376b244cfe29bcf324c</property>
  <property name="global_feed">1</property>
  <property name="kdenlive:zone_in">258</property>
  <property name="kdenlive:zone_out">6482</property>
 </producer>
 <producer title="Anonymous Submission" id="72" in="0" out="21387">
  <property name="length">00:07:07:38</property>
  <property name="eof">pause</property>
  <property name="resource">/media/bordun/plagiat2/beatch.wav</property>
  <property name="audio_index">0</property>
  <property name="video_index">-1</property>
  <property name="mute_on_pause">1</property>
  <property name="mlt_service">avformat-novalidate</property>
  <property name="meta.media.nb_streams">1</property>
  <property name="meta.media.0.stream.type">audio</property>
  <property name="meta.media.0.codec.sample_fmt">s32</property>
  <property name="meta.media.0.codec.sample_rate">48000</property>
  <property name="meta.media.0.codec.channels">2</property>
  <property name="meta.media.0.codec.name">pcm_s24le</property>
  <property name="meta.media.0.codec.long_name">PCM signed 24-bit little-endian</property>
  <property name="meta.media.0.codec.bit_rate">2304000</property>
  <property name="seekable">1</property>
  <property name="kdenlive:file_size">123193028</property>
  <property name="kdenlive:file_hash">2885f91df8fd17da6b401454046cd2dc</property>
  <property name="global_feed">1</property>
 </producer>
 <producer title="Anonymous Submission" id="73" in="0" out="6172">
  <property name="length">00:02:03:23</property>
  <property name="eof">pause</property>
  <property name="resource">/media/bordun/plagiat/Clip02_RespecteLaPuissancePapale/Assets/jean_pierre_pernaut_raconte_nimporte_quoi_au_jt_kwRaa9B4vuk_360p.mp4</property>
  <property name="audio_index">1</property>
  <property name="video_index">0</property>
  <property name="mute_on_pause">1</property>
  <property name="mlt_service">avformat-novalidate</property>
  <property name="meta.media.nb_streams">2</property>
  <property name="meta.media.0.stream.type">video</property>
  <property name="meta.media.0.stream.frame_rate">24,8703</property>
  <property name="meta.media.0.stream.sample_aspect_ratio">0</property>
  <property name="meta.media.0.codec.width">640</property>
  <property name="meta.media.0.codec.height">360</property>
  <property name="meta.media.0.codec.rotate">0</property>
  <property name="meta.media.0.codec.frame_rate">25</property>
  <property name="meta.media.0.codec.pix_fmt">yuv420p</property>
  <property name="meta.media.0.codec.sample_aspect_ratio">1</property>
  <property name="meta.media.0.codec.colorspace">601</property>
  <property name="meta.media.0.codec.name">h264</property>
  <property name="meta.media.0.codec.long_name">H.264 / AVC / MPEG-4 AVC / MPEG-4 part 10</property>
  <property name="meta.media.0.codec.bit_rate">462085</property>
  <property name="meta.attr.0.stream.handler_name.markup">VideoHandler</property>
  <property name="meta.media.1.stream.type">audio</property>
  <property name="meta.media.1.codec.sample_fmt">fltp</property>
  <property name="meta.media.1.codec.sample_rate">44100</property>
  <property name="meta.media.1.codec.channels">2</property>
  <property name="meta.media.1.codec.name">aac</property>
  <property name="meta.media.1.codec.long_name">AAC (Advanced Audio Coding)</property>
  <property name="meta.media.1.codec.bit_rate">96000</property>
  <property name="meta.attr.1.stream.creation_time.markup">2016-12-26T17:44:19.000000Z</property>
  <property name="meta.attr.1.stream.language.markup">eng</property>
  <property name="meta.attr.1.stream.handler_name.markup">IsoMedia File Produced by Google, 5-11-2011</property>
  <property name="meta.attr.major_brand.markup">mp42</property>
  <property name="meta.attr.minor_version.markup">0</property>
  <property name="meta.attr.compatible_brands.markup">isommp42</property>
  <property name="meta.attr.creation_time.markup">2016-12-26T17:44:19.000000Z</property>
  <property name="seekable">1</property>
  <property name="meta.media.sample_aspect_num">1</property>
  <property name="meta.media.sample_aspect_den">1</property>
  <property name="aspect_ratio">1</property>
  <property name="meta.media.frame_rate_num">15345</property>
  <property name="meta.media.frame_rate_den">617</property>
  <property name="meta.media.colorspace">601</property>
  <property name="meta.media.color_trc">2</property>
  <property name="meta.media.width">640</property>
  <property name="meta.media.height">360</property>
  <property name="meta.media.top_field_first">0</property>
  <property name="meta.media.progressive">1</property>
  <property name="kdenlive:file_size">8648137</property>
  <property name="kdenlive:file_hash">981c0223a76452b6608572dbfce74402</property>
  <property name="global_feed">1</property>
 </producer>
 <producer title="Anonymous Submission" id="74" in="0" out="381">
  <property name="length">382</property>
  <property name="eof">pause</property>
  <property name="resource"/>
  <property name="progressive">1</property>
  <property name="aspect_ratio">1</property>
  <property name="seekable">1</property>
  <property name="mlt_service">kdenlivetitle</property>
  <property name="kdenlive:clipname">consluting</property>
  <property name="kdenlive:folderid">19</property>
  <property name="xmldata">&lt;kdenlivetitle duration="250" LC_NUMERIC="fr_FR.UTF-8" width="1920" height="1080" out="250">
 &lt;item type="QGraphicsTextItem" z-index="1">
  &lt;position x="100" y="916">
   &lt;transform>1,0,0,0,1,0,0,0,1&lt;/transform>
  &lt;/position>
  &lt;content line-spacing="0" shadow="0;#64000000;3;3;3" font-underline="0" box-height="42" font="Lato Light" letter-spacing="0" font-pixel-size="35" font-italic="0" alignment="1" font-weight="50" box-width="307.406" font-color="255,255,255,255">Espert en consluting&lt;/content>
 &lt;/item>
 &lt;item type="QGraphicsTextItem" z-index="0">
  &lt;position x="100" y="854">
   &lt;transform>1,0,0,0,1,0,0,0,1&lt;/transform>
  &lt;/position>
  &lt;content line-spacing="0" shadow="0;#64000000;3;3;3" font-underline="0" box-height="60" font="Lato Medium" letter-spacing="0" font-pixel-size="50" font-italic="0" alignment="1" font-weight="50" box-width="314.922" font-color="255,255,255,255">Billy B. Beatch&lt;/content>
 &lt;/item>
 &lt;startviewport rect="0,0,1920,1080"/>
 &lt;endviewport rect="0,0,1920,1080"/>
 &lt;background color="0,0,0,255"/>
&lt;/kdenlivetitle>
</property>
  <property name="kdenlive:duration">250</property>
  <property name="force_reload">0</property>
  <property name="kdenlive:file_hash">32426fc38e2a6b2d7edf1915188b02cd</property>
  <property name="global_feed">1</property>
  <property name="kdenlive:zone_in">0</property>
  <property name="kdenlive:zone_out">381</property>
  <property name="meta.media.width">1920</property>
  <property name="meta.media.height">1080</property>
 </producer>
 <producer title="Anonymous Submission" id="75" in="0" out="381">
  <property name="length">382</property>
  <property name="eof">pause</property>
  <property name="resource"/>
  <property name="progressive">1</property>
  <property name="aspect_ratio">1</property>
  <property name="seekable">1</property>
  <property name="mlt_service">kdenlivetitle</property>
  <property name="kdenlive:clipname">slip</property>
  <property name="kdenlive:folderid">19</property>
  <property name="xmldata">&lt;kdenlivetitle duration="250" LC_NUMERIC="fr_FR.UTF-8" width="1920" height="1080" out="250">
 &lt;item type="QGraphicsTextItem" z-index="1">
  &lt;position x="100" y="916">
   &lt;transform>1,0,0,0,1,0,0,0,1&lt;/transform>
  &lt;/position>
  &lt;content line-spacing="0" shadow="0;#64000000;3;3;3" font-underline="0" box-height="42" font="Lato Light" letter-spacing="0" font-pixel-size="35" font-italic="0" alignment="1" font-weight="50" box-width="317.359" font-color="255,255,255,255">Exeget en cosleeping&lt;/content>
 &lt;/item>
 &lt;item type="QGraphicsTextItem" z-index="0">
  &lt;position x="100" y="854">
   &lt;transform>1,0,0,0,1,0,0,0,1&lt;/transform>
  &lt;/position>
  &lt;content line-spacing="0" shadow="0;#64000000;3;3;3" font-underline="0" box-height="60" font="Lato Medium" letter-spacing="0" font-pixel-size="50" font-italic="0" alignment="1" font-weight="50" box-width="314.922" font-color="255,255,255,255">Billy B. Beatch&lt;/content>
 &lt;/item>
 &lt;startviewport rect="0,0,1920,1080"/>
 &lt;endviewport rect="0,0,1920,1080"/>
 &lt;background color="0,0,0,255"/>
&lt;/kdenlivetitle>
</property>
  <property name="kdenlive:duration">250</property>
  <property name="force_reload">0</property>
  <property name="kdenlive:file_hash">32426fc38e2a6b2d7edf1915188b02cd</property>
  <property name="global_feed">1</property>
  <property name="kdenlive:zone_in">0</property>
  <property name="kdenlive:zone_out">381</property>
  <property name="meta.media.width">1920</property>
  <property name="meta.media.height">1080</property>
 </producer>
 <producer title="Anonymous Submission" id="76" in="0" out="30874">
  <property name="length">00:10:17:25</property>
  <property name="eof">pause</property>
  <property name="resource">/media/bordun/plagiat/Clip02_RespecteLaPuissancePapale/Audio/2018-12-06_RespecteLaPuissancePapale_Clip_Part2.ogg</property>
  <property name="audio_index">0</property>
  <property name="video_index">-1</property>
  <property name="mute_on_pause">1</property>
  <property name="mlt_service">avformat-novalidate</property>
  <property name="meta.media.nb_streams">1</property>
  <property name="meta.media.0.stream.type">audio</property>
  <property name="meta.media.0.codec.sample_fmt">fltp</property>
  <property name="meta.media.0.codec.sample_rate">48000</property>
  <property name="meta.media.0.codec.channels">2</property>
  <property name="meta.media.0.codec.name">vorbis</property>
  <property name="meta.media.0.codec.long_name">Vorbis</property>
  <property name="meta.media.0.codec.bit_rate">128000</property>
  <property name="meta.attr.0.stream.disc.markup">0</property>
  <property name="meta.attr.0.stream.ENCODER.markup">libsndfile</property>
  <property name="seekable">1</property>
  <property name="kdenlive:file_size">7987508</property>
  <property name="kdenlive:file_hash">1beb4403c02618d7a0d096f3b3dbe38b</property>
  <property name="global_feed">1</property>
 </producer>
 <producer title="Anonymous Submission" id="77" in="0" out="1033">
  <property name="length">00:00:20:34</property>
  <property name="eof">pause</property>
  <property name="resource">/media/bordun/plagiat/Clip02_RespecteLaPuissancePapale/Assets/busta.mp4</property>
  <property name="audio_index">1</property>
  <property name="video_index">0</property>
  <property name="mute_on_pause">1</property>
  <property name="mlt_service">avformat-novalidate</property>
  <property name="meta.media.nb_streams">2</property>
  <property name="meta.media.0.stream.type">video</property>
  <property name="meta.media.0.stream.frame_rate">25</property>
  <property name="meta.media.0.stream.sample_aspect_ratio">1</property>
  <property name="meta.media.0.codec.width">1920</property>
  <property name="meta.media.0.codec.height">1080</property>
  <property name="meta.media.0.codec.rotate">0</property>
  <property name="meta.media.0.codec.frame_rate">25</property>
  <property name="meta.media.0.codec.pix_fmt">yuv420p</property>
  <property name="meta.media.0.codec.sample_aspect_ratio">1</property>
  <property name="meta.media.0.codec.colorspace">709</property>
  <property name="meta.media.0.codec.color_trc">1</property>
  <property name="meta.media.0.codec.name">h264</property>
  <property name="meta.media.0.codec.long_name">H.264 / AVC / MPEG-4 AVC / MPEG-4 part 10</property>
  <property name="meta.media.0.codec.bit_rate">5314720</property>
  <property name="meta.attr.0.stream.handler_name.markup">VideoHandler</property>
  <property name="meta.media.1.stream.type">audio</property>
  <property name="meta.media.1.codec.sample_fmt">fltp</property>
  <property name="meta.media.1.codec.sample_rate">48000</property>
  <property name="meta.media.1.codec.channels">2</property>
  <property name="meta.media.1.codec.name">aac</property>
  <property name="meta.media.1.codec.long_name">AAC (Advanced Audio Coding)</property>
  <property name="meta.media.1.codec.bit_rate">261201</property>
  <property name="meta.attr.1.stream.handler_name.markup">SoundHandler</property>
  <property name="meta.attr.major_brand.markup">isom</property>
  <property name="meta.attr.minor_version.markup">512</property>
  <property name="meta.attr.compatible_brands.markup">isomiso2avc1mp41</property>
  <property name="meta.attr.encoder.markup">Lavf57.71.100</property>
  <property name="seekable">1</property>
  <property name="meta.media.sample_aspect_num">1</property>
  <property name="meta.media.sample_aspect_den">1</property>
  <property name="aspect_ratio">1</property>
  <property name="meta.media.frame_rate_num">25</property>
  <property name="meta.media.frame_rate_den">1</property>
  <property name="meta.media.colorspace">709</property>
  <property name="meta.media.color_trc">1</property>
  <property name="meta.media.width">1920</property>
  <property name="meta.media.height">1080</property>
  <property name="meta.media.top_field_first">0</property>
  <property name="meta.media.progressive">1</property>
  <property name="kdenlive:file_size">14403921</property>
  <property name="kdenlive:file_hash">178064b36c248cda566d9846331ceddc</property>
  <property name="global_feed">1</property>
  <property name="kdenlive:zone_in">0</property>
  <property name="kdenlive:zone_out">1034</property>
 </producer>
 <producer id="81" in="0" out="452">
  <property name="length">453</property>
  <property name="eof">pause</property>
  <property name="resource">/media/bordun/plagiat/Clip02_RespecteLaPuissancePapale/Assets/powerpoint/1_missy_nano.png</property>
  <property name="ttl">25</property>
  <property name="aspect_ratio">1</property>
  <property name="progressive">1</property>
  <property name="seekable">1</property>
  <property name="meta.media.width">3757</property>
  <property name="meta.media.height">2453</property>
  <property name="mlt_service">qimage</property>
  <property name="kdenlive:folderid">20</property>
  <property name="kdenlive:duration">250</property>
  <property name="kdenlive:file_size">135113</property>
  <property name="kdenlive:file_hash">23ec0d2793f6aed43a4fddbe8298770f</property>
  <filter id="avfilter.lut3d">
   <property name="mlt_service">avfilter.lut3d</property>
   <property name="kdenlive_id">avfilter.lut3d</property>
   <property name="tag">avfilter.lut3d</property>
   <property name="kdenlive_ix">1</property>
   <property name="kdenlive_info"/>
   <property name="av.file">/media/bordun/plagiat/Clip02_RespecteLaPuissancePapale/LUT/test.CUBE</property>
   <property name="av.interp">tetrahedral </property>
  </filter>
 </producer>
 <producer title="Anonymous Submission" id="87" in="0" out="1999">
  <property name="length">2000</property>
  <property name="eof">pause</property>
  <property name="resource"/>
  <property name="progressive">1</property>
  <property name="aspect_ratio">1</property>
  <property name="seekable">1</property>
  <property name="mlt_service">kdenlivetitle</property>
  <property name="kdenlive:clipname">SS 1</property>
  <property name="kdenlive:folderid">21</property>
  <property name="xmldata">&lt;kdenlivetitle duration="2000" LC_NUMERIC="fr_FR.UTF-8" width="1920" height="1080" out="2000">
 &lt;item type="QGraphicsTextItem" z-index="1">
  &lt;position x="1961" y="41">
   &lt;transform>1,0,0,0,1,0,0,0,1&lt;/transform>
  &lt;/position>
  &lt;content line-spacing="0" shadow="0;#64000000;3;3;3" font-underline="0" box-height="42" font="Lato Black" letter-spacing="0" font-pixel-size="35" font-italic="0" alignment="1" font-weight="50" box-width="10832" font-color="255,255,255,255">HELLO, MY NAME IS GANJHI WEST (NO RELATION). I'LL BE YOUR TRANSLATOR FOR THIS VIDEO. WHAT HE SAYIN YOU ASK ? WELL THAT'S A TOUGH ONE, NOT SURE THERE'S MUCH VALUABLE INFORMATION THERE BUT I'LL TRY ANYWAY. SO THERE'S THIS THING ABOUT CINDY (AKA MISSY SCHNECK) AND DEBORAH (AKA BIG MC NANO) BEING EXTREMELY WELL INTRODUCED SLOWMO-STYLE AND OH JEEZ I MEAN PHOTOSHOP AM I RIGHT AND STUFF, ETC.  NOW WE'RE HEADING TO THE INTERESTIN PART WHERE SANDY (LA KESH) STARTS A DEEP INTROSPECTION PROCESS ABOUT GANG WARS AND POSSIBLY SOME DUDE NAMED JESUS AND ALL.&lt;/content>
 &lt;/item>
 &lt;item type="QGraphicsRectItem" z-index="0">
  &lt;position x="-6" y="0">
   &lt;transform zoom="100">1,0,0,0,1,0,0,0,1&lt;/transform>
  &lt;/position>
  &lt;content brushcolor="1,1,255,55" pencolor="0,0,0,255" penwidth="0" rect="0,0,15736,116"/>
 &lt;/item>
 &lt;startviewport rect="0,0,1920,1080"/>
 &lt;endviewport rect="12836.6,-0.5,1920,1080"/>
 &lt;background color="0,0,0,255"/>
&lt;/kdenlivetitle>
</property>
  <property name="kdenlive:duration">2000</property>
  <property name="force_reload">0</property>
  <property name="kdenlive:file_hash">f230a07bf75e30dbdfc333349e897cd6</property>
  <property name="global_feed">1</property>
  <property name="meta.media.width">1920</property>
  <property name="meta.media.height">1080</property>
  <property name="kdenlive:zone_in">0</property>
  <property name="kdenlive:zone_out">2000</property>
 </producer>
 <producer title="Anonymous Submission" id="88" in="0" out="3549">
  <property name="length">3550</property>
  <property name="eof">pause</property>
  <property name="resource"/>
  <property name="progressive">1</property>
  <property name="aspect_ratio">1</property>
  <property name="seekable">1</property>
  <property name="mlt_service">kdenlivetitle</property>
  <property name="kdenlive:clipname">SS 2</property>
  <property name="kdenlive:folderid">21</property>
  <property name="xmldata">&lt;kdenlivetitle duration="3550" LC_NUMERIC="fr_FR.UTF-8" width="1920" height="1080" out="3550">
 &lt;item type="QGraphicsTextItem" z-index="1">
  &lt;position x="1980" y="41">
   &lt;transform>1,0,0,0,1,0,0,0,1&lt;/transform>
  &lt;/position>
  &lt;content line-spacing="0" shadow="0;#64000000;3;3;3" font-underline="0" box-height="42" font="Lato Black" letter-spacing="0" font-pixel-size="35" font-italic="0" alignment="1" font-weight="50" box-width="21662.7" font-color="255,255,255,255">WOW THAT WAS PRETTY INTENSE. I DON'T KNOW ABOUT YOU GUY.E.S BUT I'M REALLY LOOKING FORWARD TO SEEING WHAT'S COMMING NEXT ! OK SIT TIGHT AND FOCUS CAUSE THINGS ARE GETTING A BIT SCHWIFTY HERE : THERE'S BEEN SOME KIND OF ALTERCATION BETWEEN THE MAKEUP TEAM AND THE PLAGIAT BROS, TAMARA (LORD'O) AND CYNDILA (MC SCHNECK 1-2). ONE THING LEAD TO ANOTHER AND THEY ENDED UP WEARING REAL TRUE FAKE FOOTBALL T-SHIRTS WITH ACTUAL NUMBERS PRINTED ON 'EM. ALSO THERE SEEM TO BE A COLOR PROBLEM WITH THE CAMERA, PERSONNALLY I'D GO FOR A BUG IN THE SOFTWARE BUT WHO CARES ABOUT MY OPINION I'M JUST AN INTERN ANYWAY. NOW BACK ON TOPIC, INDIRA (MISSY K-SCHNE) AND TABATHA (BIG LORD'O) WENT OUT TO LET OFF SOME STEAM AT THE NEAREST AFTERWORK/GARAGE SALE IN TOWN. WHILE SCHNECK (AKA BISMILLA) BOUGHT HERSELF AN AUTHENTIC HARPSICHORD THAT SOUNDS JUST LIKE  A GOOD OLD ANALOGIC RHODES FROM THE 70s , MC NANO (ALIAS TABARLY) MADE THE ACQUISITION OF CHARLES AZNAVOUR'S COMPLETE WINE COLLECTION. THE MOVIE RESUMES AS MISSY (BIBA) TRIES HER NEW TOY AND NANO (TABAC-PRESSE) COMMEMORATES THE ARMENIAN GENOCIDE.&lt;/content>
 &lt;/item>
 &lt;item type="QGraphicsRectItem" z-index="0">
  &lt;position x="0" y="0">
   &lt;transform zoom="100">1,0,0,0,1,0,0,0,1&lt;/transform>
  &lt;/position>
  &lt;content brushcolor="1,1,255,55" pencolor="0,0,0,255" penwidth="0" rect="0,0,25837,116"/>
 &lt;/item>
 &lt;startviewport rect="0,0,1920,1080"/>
 &lt;endviewport rect="23701.1,-0.5,1920,1080"/>
 &lt;background color="0,0,0,255"/>
&lt;/kdenlivetitle>
</property>
  <property name="kdenlive:duration">3550</property>
  <property name="force_reload">0</property>
  <property name="global_feed">1</property>
  <property name="kdenlive:zone_in">0</property>
  <property name="kdenlive:zone_out">2000</property>
  <property name="meta.media.width">1920</property>
  <property name="meta.media.height">1080</property>
 </producer>
 <producer title="Anonymous Submission" id="89" in="0" out="2149">
  <property name="length">2250</property>
  <property name="eof">pause</property>
  <property name="resource"/>
  <property name="progressive">1</property>
  <property name="aspect_ratio">1</property>
  <property name="seekable">1</property>
  <property name="mlt_service">kdenlivetitle</property>
  <property name="kdenlive:clipname">SS 3</property>
  <property name="kdenlive:folderid">21</property>
  <property name="xmldata">&lt;kdenlivetitle duration="2150" LC_NUMERIC="fr_FR.UTF-8" width="1920" height="1080" out="2150">
 &lt;item type="QGraphicsTextItem" z-index="1">
  &lt;position x="1961" y="41">
   &lt;transform>1,0,0,0,1,0,0,0,1&lt;/transform>
  &lt;/position>
  &lt;content line-spacing="0" shadow="0;#64000000;3;3;3" font-underline="0" box-height="42" font="Lato Black" letter-spacing="0" font-pixel-size="35" font-italic="0" alignment="1" font-weight="50" box-width="10848.6" font-color="255,255,255,255">#SUCH #BEAUTIFUL #MUSIC #QUINTESSENTIAL #CLASSIC #HIT // THE SPEAKER HAD TROUBLE FINDING THE WORDS FOR IT BUT EVENTUALLY HE GOT HELPED BY TWO SO-CALLED GOOD LADS FROM THE BLOCK #HEREBEPOETRY : A BRAND NEW DAY RISES ON SEATLE AND ITS PAPAL POWER, AND IT IS SUITABLY BROWNED AND PERFEFCTLY FACE-PLUCKED UNDER THE SUN OF #ARIZONA THAT WE FIND CENDRIER (AKA MISSY MISS) AND BARBARA ('O) ON THEIR WAY TO COMPTON'S GYM FOR AN AQUAZOUMBA SESSION WITH NO OTHER THAN THE GREAT WILL SMITH HIMSELF. WICKY. WICKY. WICKY. WICKY. WICKY. WICKY. WILD. WILD. WEST.&lt;/content>
 &lt;/item>
 &lt;item type="QGraphicsRectItem" z-index="0">
  &lt;position x="-6" y="0">
   &lt;transform zoom="100">1,0,0,0,1,0,0,0,1&lt;/transform>
  &lt;/position>
  &lt;content brushcolor="1,1,255,55" pencolor="0,0,0,255" penwidth="0" rect="0,0,15736,116"/>
 &lt;/item>
 &lt;startviewport rect="0,0,1920,1080"/>
 &lt;endviewport rect="12864.2,-0.5,1920,1080"/>
 &lt;background color="0,0,0,255"/>
&lt;/kdenlivetitle>
</property>
  <property name="kdenlive:duration">2150</property>
  <property name="force_reload">0</property>
  <property name="global_feed">1</property>
  <property name="kdenlive:zone_in">0</property>
  <property name="kdenlive:zone_out">2000</property>
  <property name="meta.media.width">1920</property>
  <property name="meta.media.height">1080</property>
 </producer>
 <producer title="Anonymous Submission" id="90" in="0" out="1999">
  <property name="length">2250</property>
  <property name="eof">pause</property>
  <property name="resource"/>
  <property name="progressive">1</property>
  <property name="aspect_ratio">1</property>
  <property name="seekable">1</property>
  <property name="mlt_service">kdenlivetitle</property>
  <property name="kdenlive:clipname">SS 4</property>
  <property name="kdenlive:folderid">21</property>
  <property name="xmldata">&lt;kdenlivetitle duration="2000" LC_NUMERIC="fr_FR.UTF-8" width="1920" height="1080" out="2000">
 &lt;item type="QGraphicsTextItem" z-index="1">
  &lt;position x="1961" y="41">
   &lt;transform>1,0,0,0,1,0,0,0,1&lt;/transform>
  &lt;/position>
  &lt;content line-spacing="0" shadow="0;#64000000;3;3;3" font-underline="0" box-height="42" font="Lato Black" letter-spacing="0" font-pixel-size="35" font-italic="0" alignment="1" font-weight="50" box-width="14652.9" font-color="255,255,255,255">NICE. THE ARCHBISHOP OF THE LOCAL CHELSEA LEAGUE HAD TO LEAVE EARLY TO CATCH HIS TRAIN, LEAVING ME ON ME OWN TO FINISH THE JOB.                                           JUST.                                      GREAT.                                           #PREVIOUSLY, CINTREUSE (LA KESH) AND BARBAPAPA (LORD MENDICITABLE) BEHAVED.  BUT NOW, IT APPEARS VERY CLEARLY THAT CENTOS (MISS KASCH) AND BARBARELLA (LORDY) WANT MORE AND AIN'T GETTING ENOUGH. BA BA BA BA BYE, THEY BE WANTING RED UNDER THEM HEELS YOU KNOW. IN FINE, THE OPUS TITLUM SURPRISINGLY MAKES SENSE AND THE CREDITS ARE DISPLAYED. BLA BLA BLA STARRING A BUNCH OF GOOD BENEVOLENT PALS, BLA BLA BLA FREE STUFFS AND SO ON. CALL ME IF YOU NEED SOMEONE FOR A TRANSLATION JOB, OR FOR ANY KIND OF JOB, I JUST REALLY NEED TO TALK TO SOMEONE, CALL ME PLZ +33 7 20 2&lt;/content>
 &lt;/item>
 &lt;item type="QGraphicsRectItem" z-index="0">
  &lt;position x="-6" y="0">
   &lt;transform zoom="100">1,0,0,0,1,0,0,0,1&lt;/transform>
  &lt;/position>
  &lt;content brushcolor="1,1,255,55" pencolor="0,0,0,255" penwidth="0" rect="0,0,17819,116"/>
 &lt;/item>
 &lt;startviewport rect="0,0,1920,1080"/>
 &lt;endviewport rect="14657.1,0.5,1920,1080"/>
 &lt;background color="0,0,0,255"/>
&lt;/kdenlivetitle>
</property>
  <property name="kdenlive:duration">2000</property>
  <property name="force_reload">0</property>
  <property name="global_feed">1</property>
  <property name="kdenlive:zone_in">0</property>
  <property name="kdenlive:zone_out">2001</property>
  <property name="meta.media.width">1920</property>
  <property name="meta.media.height">1080</property>
 </producer>
 <producer title="Anonymous Submission" id="92" in="0" out="249">
  <property name="length">250</property>
  <property name="eof">pause</property>
  <property name="resource"/>
  <property name="progressive">1</property>
  <property name="aspect_ratio">1</property>
  <property name="seekable">1</property>
  <property name="mlt_service">kdenlivetitle</property>
  <property name="kdenlive:clipname">2</property>
  <property name="kdenlive:folderid">22</property>
  <property name="xmldata">&lt;kdenlivetitle duration="250" LC_NUMERIC="fr_FR.UTF-8" width="1920" height="1080" out="250">
 &lt;item type="QGraphicsTextItem" z-index="1">
  &lt;position x="780" y="981">
   &lt;transform>1,0,0,0,1,0,0,0,1&lt;/transform>
  &lt;/position>
  &lt;content line-spacing="0" shadow="0;#64000000;3;3;3" font-underline="0" box-height="42" font="Lato Black" letter-spacing="0" font-pixel-size="35" font-italic="0" alignment="1" font-weight="50" box-width="360.172" font-color="255,255,255,255">CINTREUSE (LA KESH)&lt;/content>
 &lt;/item>
 &lt;startviewport rect="0,0,1920,1080"/>
 &lt;endviewport rect="0,0,1920,1080"/>
 &lt;background color="0,0,0,255"/>
&lt;/kdenlivetitle>
</property>
  <property name="kdenlive:duration">250</property>
  <property name="force_reload">0</property>
  <property name="global_feed">1</property>
  <property name="kdenlive:zone_in">0</property>
  <property name="kdenlive:zone_out">2000</property>
  <property name="meta.media.width">1920</property>
  <property name="meta.media.height">1080</property>
 </producer>
 <producer title="Anonymous Submission" id="93" in="0" out="249">
  <property name="length">250</property>
  <property name="eof">pause</property>
  <property name="resource"/>
  <property name="progressive">1</property>
  <property name="aspect_ratio">1</property>
  <property name="seekable">1</property>
  <property name="mlt_service">kdenlivetitle</property>
  <property name="kdenlive:clipname">3</property>
  <property name="kdenlive:folderid">22</property>
  <property name="xmldata">&lt;kdenlivetitle duration="250" LC_NUMERIC="fr_FR.UTF-8" width="1920" height="1080" out="250">
 &lt;item type="QGraphicsTextItem" z-index="1">
  &lt;position x="779" y="981">
   &lt;transform>1,0,0,0,1,0,0,0,1&lt;/transform>
  &lt;/position>
  &lt;content line-spacing="0" shadow="0;#64000000;3;3;3" font-underline="0" box-height="42" font="Lato Black" letter-spacing="0" font-pixel-size="35" font-italic="0" alignment="1" font-weight="50" box-width="361.922" font-color="255,255,255,255">SE SONT BIEN TENUS.&lt;/content>
 &lt;/item>
 &lt;startviewport rect="0,0,1920,1080"/>
 &lt;endviewport rect="0,0,1920,1080"/>
 &lt;background color="0,0,0,255"/>
&lt;/kdenlivetitle>
</property>
  <property name="kdenlive:duration">250</property>
  <property name="force_reload">0</property>
  <property name="global_feed">1</property>
  <property name="kdenlive:zone_in">0</property>
  <property name="kdenlive:zone_out">2000</property>
  <property name="meta.media.width">1920</property>
  <property name="meta.media.height">1080</property>
 </producer>
 <producer title="Anonymous Submission" id="94" in="0" out="249">
  <property name="length">250</property>
  <property name="eof">pause</property>
  <property name="resource"/>
  <property name="progressive">1</property>
  <property name="aspect_ratio">1</property>
  <property name="seekable">1</property>
  <property name="mlt_service">kdenlivetitle</property>
  <property name="kdenlive:clipname">4</property>
  <property name="kdenlive:folderid">22</property>
  <property name="xmldata">&lt;kdenlivetitle duration="250" LC_NUMERIC="fr_FR.UTF-8" width="1920" height="1080" out="250">
 &lt;item type="QGraphicsTextItem" z-index="1">
  &lt;position x="292" y="981">
   &lt;transform>1,0,0,0,1,0,0,0,1&lt;/transform>
  &lt;/position>
  &lt;content line-spacing="0" shadow="0;#64000000;3;3;3" font-underline="0" box-height="42" font="Lato Black" letter-spacing="0" font-pixel-size="35" font-italic="0" alignment="1" font-weight="50" box-width="1335.7" font-color="255,255,255,255">MAIS DÉSORMAIS, C'EST CLAIR, CENTOS (MISS KASCH) ET BARBARELLA (LORDY)&lt;/content>
 &lt;/item>
 &lt;startviewport rect="0,0,1920,1080"/>
 &lt;endviewport rect="0,0,1920,1080"/>
 &lt;background color="0,0,0,255"/>
&lt;/kdenlivetitle>
</property>
  <property name="kdenlive:duration">250</property>
  <property name="force_reload">0</property>
  <property name="global_feed">1</property>
  <property name="kdenlive:zone_in">0</property>
  <property name="kdenlive:zone_out">2000</property>
  <property name="meta.media.width">1920</property>
  <property name="meta.media.height">1080</property>
 </producer>
 <producer title="Anonymous Submission" id="95" in="0" out="249">
  <property name="length">250</property>
  <property name="eof">pause</property>
  <property name="resource"/>
  <property name="progressive">1</property>
  <property name="aspect_ratio">1</property>
  <property name="seekable">1</property>
  <property name="mlt_service">kdenlivetitle</property>
  <property name="kdenlive:clipname">5</property>
  <property name="kdenlive:folderid">22</property>
  <property name="xmldata">&lt;kdenlivetitle duration="250" LC_NUMERIC="fr_FR.UTF-8" width="1920" height="1080" out="250">
 &lt;item type="QGraphicsTextItem" z-index="1">
  &lt;position x="592" y="981">
   &lt;transform>1,0,0,0,1,0,0,0,1&lt;/transform>
  &lt;/position>
  &lt;content line-spacing="0" shadow="0;#64000000;3;3;3" font-underline="0" box-height="42" font="Lato Black" letter-spacing="0" font-pixel-size="35" font-italic="0" alignment="1" font-weight="50" box-width="735.547" font-color="255,255,255,255">EN VEULENT PLUS, EN N'EN ONT PAS ASSEZ.&lt;/content>
 &lt;/item>
 &lt;startviewport rect="0,0,1920,1080"/>
 &lt;endviewport rect="0,0,1920,1080"/>
 &lt;background color="0,0,0,255"/>
&lt;/kdenlivetitle>
</property>
  <property name="kdenlive:duration">250</property>
  <property name="force_reload">0</property>
  <property name="global_feed">1</property>
  <property name="kdenlive:zone_in">0</property>
  <property name="kdenlive:zone_out">2000</property>
  <property name="meta.media.width">1920</property>
  <property name="meta.media.height">1080</property>
 </producer>
 <producer title="Anonymous Submission" id="96" in="0" out="249">
  <property name="length">250</property>
  <property name="eof">pause</property>
  <property name="resource"/>
  <property name="progressive">1</property>
  <property name="aspect_ratio">1</property>
  <property name="seekable">1</property>
  <property name="mlt_service">kdenlivetitle</property>
  <property name="kdenlive:clipname">6</property>
  <property name="kdenlive:folderid">22</property>
  <property name="xmldata">&lt;kdenlivetitle duration="250" LC_NUMERIC="fr_FR.UTF-8" width="1920" height="1080" out="250">
 &lt;item type="QGraphicsTextItem" z-index="1">
  &lt;position x="451" y="981">
   &lt;transform>1,0,0,0,1,0,0,0,1&lt;/transform>
  &lt;/position>
  &lt;content line-spacing="0" shadow="0;#64000000;3;3;3" font-underline="0" box-height="42" font="Lato Black" letter-spacing="0" font-pixel-size="35" font-italic="0" alignment="1" font-weight="50" box-width="1017.42" font-color="255,255,255,255">BA BA BA BYE, ELLES VEULENT DU ROUGE SOUS LES TALONS.&lt;/content>
 &lt;/item>
 &lt;startviewport rect="0,0,1920,1080"/>
 &lt;endviewport rect="0,0,1920,1080"/>
 &lt;background color="0,0,0,255"/>
&lt;/kdenlivetitle>
</property>
  <property name="kdenlive:duration">250</property>
  <property name="force_reload">0</property>
  <property name="global_feed">1</property>
  <property name="kdenlive:zone_in">0</property>
  <property name="kdenlive:zone_out">2000</property>
  <property name="meta.media.width">1920</property>
  <property name="meta.media.height">1080</property>
 </producer>
 <producer title="Anonymous Submission" id="97" in="0" out="149">
  <property name="length">250</property>
  <property name="eof">pause</property>
  <property name="resource"/>
  <property name="progressive">1</property>
  <property name="aspect_ratio">1</property>
  <property name="seekable">1</property>
  <property name="mlt_service">kdenlivetitle</property>
  <property name="kdenlive:clipname">7</property>
  <property name="kdenlive:folderid">22</property>
  <property name="xmldata">&lt;kdenlivetitle duration="150" LC_NUMERIC="fr_FR.UTF-8" width="1920" height="1080" out="150">
 &lt;item type="QGraphicsTextItem" z-index="1">
  &lt;position x="567" y="981">
   &lt;transform>1,0,0,0,1,0,0,0,1&lt;/transform>
  &lt;/position>
  &lt;content line-spacing="0" shadow="0;#64000000;3;3;3" font-underline="0" box-height="42" font="Lato Black" letter-spacing="0" font-pixel-size="35" font-italic="0" alignment="1" font-weight="50" box-width="785.781" font-color="255,255,255,255">IN FINE, ON COMPREND LE TITRE DE L'OEUVRE&lt;/content>
 &lt;/item>
 &lt;startviewport rect="0,0,1920,1080"/>
 &lt;endviewport rect="0,0,1920,1080"/>
 &lt;background color="0,0,0,255"/>
&lt;/kdenlivetitle>
</property>
  <property name="kdenlive:duration">150</property>
  <property name="force_reload">0</property>
  <property name="global_feed">1</property>
  <property name="kdenlive:zone_in">0</property>
  <property name="kdenlive:zone_out">2000</property>
  <property name="meta.media.width">1920</property>
  <property name="meta.media.height">1080</property>
 </producer>
 <producer title="Anonymous Submission" id="98" in="0" out="600">
  <property name="length">601</property>
  <property name="eof">pause</property>
  <property name="resource"/>
  <property name="progressive">1</property>
  <property name="aspect_ratio">1</property>
  <property name="seekable">1</property>
  <property name="mlt_service">kdenlivetitle</property>
  <property name="kdenlive:clipname">8</property>
  <property name="kdenlive:folderid">22</property>
  <property name="xmldata">&lt;kdenlivetitle duration="150" LC_NUMERIC="fr_FR.UTF-8" width="1920" height="1080" out="150">
 &lt;item type="QGraphicsTextItem" z-index="1">
  &lt;position x="865" y="981">
   &lt;transform>1,0,0,0,1,0,0,0,1&lt;/transform>
  &lt;/position>
  &lt;content line-spacing="0" shadow="0;#64000000;3;3;3" font-underline="0" box-height="42" font="Lato Black" letter-spacing="0" font-pixel-size="35" font-italic="0" alignment="1" font-weight="50" box-width="190.656" font-color="255,255,255,255">ALLER HOP&lt;/content>
 &lt;/item>
 &lt;startviewport rect="0,0,1920,1080"/>
 &lt;endviewport rect="0,0,1920,1080"/>
 &lt;background color="0,0,0,255"/>
&lt;/kdenlivetitle>
</property>
  <property name="kdenlive:duration">150</property>
  <property name="force_reload">0</property>
  <property name="global_feed">1</property>
  <property name="kdenlive:zone_in">0</property>
  <property name="kdenlive:zone_out">600</property>
  <property name="meta.media.width">1920</property>
  <property name="meta.media.height">1080</property>
 </producer>
 <producer title="Anonymous Submission" id="91" in="0" out="149">
  <property name="length">250</property>
  <property name="eof">pause</property>
  <property name="resource"/>
  <property name="progressive">1</property>
  <property name="aspect_ratio">1</property>
  <property name="seekable">1</property>
  <property name="mlt_service">kdenlivetitle</property>
  <property name="kdenlive:clipname">1</property>
  <property name="kdenlive:folderid">22</property>
  <property name="xmldata">&lt;kdenlivetitle duration="150" LC_NUMERIC="fr_FR.UTF-8" width="1920" height="1080" out="150">
 &lt;item type="QGraphicsTextItem" z-index="1">
  &lt;position x="676" y="981">
   &lt;transform>1,0,0,0,1,0,0,0,1&lt;/transform>
  &lt;/position>
  &lt;content line-spacing="0" shadow="0;#64000000;3;3;3" font-underline="0" box-height="42" font="Lato Black" letter-spacing="0" font-pixel-size="35" font-italic="0" alignment="1" font-weight="50" box-width="568.594" font-color="255,255,255,255">DANS LES ÉPISODES PRÉCÉDENTS&lt;/content>
 &lt;/item>
 &lt;startviewport rect="0,0,1920,1080"/>
 &lt;endviewport rect="0,0,1920,1080"/>
 &lt;background color="0,0,0,255"/>
&lt;/kdenlivetitle>
</property>
  <property name="kdenlive:duration">150</property>
  <property name="force_reload">0</property>
  <property name="global_feed">1</property>
  <property name="kdenlive:zone_in">0</property>
  <property name="kdenlive:zone_out">2000</property>
  <property name="meta.media.width">1920</property>
  <property name="meta.media.height">1080</property>
 </producer>
 <producer title="Anonymous Submission" id="99" in="0" out="249">
  <property name="length">250</property>
  <property name="eof">pause</property>
  <property name="resource"/>
  <property name="progressive">1</property>
  <property name="aspect_ratio">1</property>
  <property name="seekable">1</property>
  <property name="mlt_service">kdenlivetitle</property>
  <property name="kdenlive:clipname">2B</property>
  <property name="kdenlive:folderid">22</property>
  <property name="xmldata">&lt;kdenlivetitle duration="250" LC_NUMERIC="fr_FR.UTF-8" width="1920" height="1080" out="250">
 &lt;item type="QGraphicsTextItem" z-index="1">
  &lt;position x="637" y="981">
   &lt;transform>1,0,0,0,1,0,0,0,1&lt;/transform>
  &lt;/position>
  &lt;content line-spacing="0" shadow="0;#64000000;3;3;3" font-underline="0" box-height="42" font="Lato Black" letter-spacing="0" font-pixel-size="35" font-italic="0" alignment="1" font-weight="50" box-width="645.938" font-color="255,255,255,255">ET BARBAPAPA (LORD MENDICITABLE)&lt;/content>
 &lt;/item>
 &lt;startviewport rect="0,0,1920,1080"/>
 &lt;endviewport rect="0,0,1920,1080"/>
 &lt;background color="0,0,0,255"/>
&lt;/kdenlivetitle>
</property>
  <property name="kdenlive:duration">250</property>
  <property name="force_reload">0</property>
  <property name="global_feed">1</property>
  <property name="kdenlive:zone_in">0</property>
  <property name="kdenlive:zone_out">2000</property>
  <property name="meta.media.width">1920</property>
  <property name="meta.media.height">1080</property>
 </producer>
 <producer title="Anonymous Submission" id="100" in="0" out="904">
  <property name="length">905</property>
  <property name="eof">pause</property>
  <property name="resource"/>
  <property name="progressive">1</property>
  <property name="aspect_ratio">1</property>
  <property name="seekable">1</property>
  <property name="mlt_service">kdenlivetitle</property>
  <property name="kdenlive:clipname">starring</property>
  <property name="kdenlive:folderid">25</property>
  <property name="xmldata">&lt;kdenlivetitle duration="150" LC_NUMERIC="fr_FR.UTF-8" width="1920" height="1080" out="150">
 &lt;item type="QGraphicsTextItem" z-index="1">
  &lt;position x="839" y="456">
   &lt;transform>1,0,0,0,1,0,0,0,1&lt;/transform>
  &lt;/position>
  &lt;content line-spacing="0" shadow="0;#64000000;3;3;3" font-underline="0" box-height="177" font="Lato Black" letter-spacing="0" font-pixel-size="49" font-italic="0" alignment="4" font-weight="50" box-width="241.406" font-color="255,255,255,255">STARRING

&lt;/content>
 &lt;/item>
 &lt;startviewport rect="0,0,1920,1080"/>
 &lt;endviewport rect="0,0,1920,1080"/>
 &lt;background color="0,0,0,255"/>
&lt;/kdenlivetitle>
</property>
  <property name="kdenlive:duration">150</property>
  <property name="force_reload">0</property>
  <property name="global_feed">1</property>
  <property name="kdenlive:zone_in">0</property>
  <property name="kdenlive:zone_out">2000</property>
  <property name="meta.media.width">1920</property>
  <property name="meta.media.height">1080</property>
 </producer>
 <producer title="Anonymous Submission" id="101" in="0" out="149">
  <property name="length">250</property>
  <property name="eof">pause</property>
  <property name="resource"/>
  <property name="progressive">1</property>
  <property name="aspect_ratio">1</property>
  <property name="seekable">1</property>
  <property name="mlt_service">kdenlivetitle</property>
  <property name="kdenlive:clipname">billy</property>
  <property name="kdenlive:folderid">23</property>
  <property name="xmldata">&lt;kdenlivetitle duration="150" LC_NUMERIC="fr_FR.UTF-8" width="1920" height="1080" out="150">
 &lt;item type="QGraphicsTextItem" z-index="1">
  &lt;position x="852" y="456">
   &lt;transform>1,0,0,0,1,0,0,0,1&lt;/transform>
  &lt;/position>
  &lt;content line-spacing="0" shadow="0;#64000000;3;3;3" font-underline="0" box-height="126" font="Lato Black" letter-spacing="0" font-pixel-size="35" font-italic="0" alignment="4" font-weight="50" box-width="216.375" font-color="255,255,255,255">

BILLY B BEAT&lt;/content>
 &lt;/item>
 &lt;startviewport rect="0,0,1920,1080"/>
 &lt;endviewport rect="0,0,1920,1080"/>
 &lt;background color="0,0,0,255"/>
&lt;/kdenlivetitle>
</property>
  <property name="kdenlive:duration">150</property>
  <property name="force_reload">0</property>
  <property name="global_feed">1</property>
  <property name="kdenlive:zone_in">0</property>
  <property name="kdenlive:zone_out">2000</property>
  <property name="meta.media.width">1920</property>
  <property name="meta.media.height">1080</property>
 </producer>
 <producer title="Anonymous Submission" id="102" in="0" out="254">
  <property name="length">255</property>
  <property name="eof">pause</property>
  <property name="resource"/>
  <property name="progressive">1</property>
  <property name="aspect_ratio">1</property>
  <property name="seekable">1</property>
  <property name="mlt_service">kdenlivetitle</property>
  <property name="kdenlive:clipname">missy</property>
  <property name="kdenlive:folderid">23</property>
  <property name="xmldata">&lt;kdenlivetitle duration="150" LC_NUMERIC="fr_FR.UTF-8" width="1920" height="1080" out="150">
 &lt;item type="QGraphicsTextItem" z-index="1">
  &lt;position x="651" y="456">
   &lt;transform>1,0,0,0,1,0,0,0,1&lt;/transform>
  &lt;/position>
  &lt;content line-spacing="0" shadow="0;#64000000;3;3;3" font-underline="0" box-height="126" font="Lato Black" letter-spacing="0" font-pixel-size="35" font-italic="0" alignment="4" font-weight="50" box-width="617.141" font-color="255,255,255,255">

MISSY MESSIAH SCHNECK ONE TWO&lt;/content>
 &lt;/item>
 &lt;startviewport rect="0,0,1920,1080"/>
 &lt;endviewport rect="0,0,1920,1080"/>
 &lt;background color="0,0,0,255"/>
&lt;/kdenlivetitle>
</property>
  <property name="kdenlive:duration">150</property>
  <property name="force_reload">0</property>
  <property name="global_feed">1</property>
  <property name="kdenlive:zone_in">0</property>
  <property name="kdenlive:zone_out">2000</property>
  <property name="meta.media.width">1920</property>
  <property name="meta.media.height">1080</property>
 </producer>
 <producer title="Anonymous Submission" id="103" in="0" out="149">
  <property name="length">250</property>
  <property name="eof">pause</property>
  <property name="resource"/>
  <property name="progressive">1</property>
  <property name="aspect_ratio">1</property>
  <property name="seekable">1</property>
  <property name="mlt_service">kdenlivetitle</property>
  <property name="kdenlive:clipname">lordo</property>
  <property name="kdenlive:folderid">23</property>
  <property name="xmldata">&lt;kdenlivetitle duration="150" LC_NUMERIC="fr_FR.UTF-8" width="1920" height="1080" out="150">
 &lt;item type="QGraphicsTextItem" z-index="1">
  &lt;position x="840" y="456">
   &lt;transform>1,0,0,0,1,0,0,0,1&lt;/transform>
  &lt;/position>
  &lt;content line-spacing="0" shadow="0;#64000000;3;3;3" font-underline="0" box-height="126" font="Lato Black" letter-spacing="0" font-pixel-size="35" font-italic="0" alignment="4" font-weight="50" box-width="240.016" font-color="255,255,255,255">

BIG MC NANO&lt;/content>
 &lt;/item>
 &lt;startviewport rect="0,0,1920,1080"/>
 &lt;endviewport rect="0,0,1920,1080"/>
 &lt;background color="0,0,0,255"/>
&lt;/kdenlivetitle>
</property>
  <property name="kdenlive:duration">150</property>
  <property name="force_reload">0</property>
  <property name="global_feed">1</property>
  <property name="kdenlive:zone_in">0</property>
  <property name="kdenlive:zone_out">2000</property>
  <property name="meta.media.width">1920</property>
  <property name="meta.media.height">1080</property>
 </producer>
 <producer title="Anonymous Submission" id="104" in="0" out="149">
  <property name="length">250</property>
  <property name="eof">pause</property>
  <property name="resource"/>
  <property name="progressive">1</property>
  <property name="aspect_ratio">1</property>
  <property name="seekable">1</property>
  <property name="mlt_service">kdenlivetitle</property>
  <property name="kdenlive:clipname">freddy</property>
  <property name="kdenlive:folderid">23</property>
  <property name="xmldata">&lt;kdenlivetitle duration="150" LC_NUMERIC="fr_FR.UTF-8" width="1920" height="1080" out="150">
 &lt;item type="QGraphicsTextItem" z-index="1">
  &lt;position x="729" y="456">
   &lt;transform>1,0,0,0,1,0,0,0,1&lt;/transform>
  &lt;/position>
  &lt;content line-spacing="0" shadow="0;#64000000;3;3;3" font-underline="0" box-height="126" font="Lato Black" letter-spacing="0" font-pixel-size="35" font-italic="0" alignment="4" font-weight="50" box-width="461.609" font-color="255,255,255,255">

FREDDY MERKRUEGGER JR.&lt;/content>
 &lt;/item>
 &lt;startviewport rect="0,0,1920,1080"/>
 &lt;endviewport rect="0,0,1920,1080"/>
 &lt;background color="0,0,0,255"/>
&lt;/kdenlivetitle>
</property>
  <property name="kdenlive:duration">150</property>
  <property name="force_reload">0</property>
  <property name="global_feed">1</property>
  <property name="kdenlive:zone_in">0</property>
  <property name="kdenlive:zone_out">2000</property>
  <property name="meta.media.width">1920</property>
  <property name="meta.media.height">1080</property>
 </producer>
 <producer title="Anonymous Submission" id="105" in="0" out="149">
  <property name="length">250</property>
  <property name="eof">pause</property>
  <property name="resource"/>
  <property name="progressive">1</property>
  <property name="aspect_ratio">1</property>
  <property name="seekable">1</property>
  <property name="mlt_service">kdenlivetitle</property>
  <property name="kdenlive:clipname">prepuce</property>
  <property name="kdenlive:folderid">23</property>
  <property name="xmldata">&lt;kdenlivetitle duration="150" LC_NUMERIC="fr_FR.UTF-8" width="1920" height="1080" out="150">
 &lt;item type="QGraphicsTextItem" z-index="1">
  &lt;position x="813" y="456">
   &lt;transform>1,0,0,0,1,0,0,0,1&lt;/transform>
  &lt;/position>
  &lt;content line-spacing="0" shadow="0;#64000000;3;3;3" font-underline="0" box-height="126" font="Lato Black" letter-spacing="0" font-pixel-size="35" font-italic="0" alignment="4" font-weight="50" box-width="294.172" font-color="255,255,255,255">

DJ PREPUCE RFID&lt;/content>
 &lt;/item>
 &lt;startviewport rect="0,0,1920,1080"/>
 &lt;endviewport rect="0,0,1920,1080"/>
 &lt;background color="0,0,0,255"/>
&lt;/kdenlivetitle>
</property>
  <property name="kdenlive:duration">150</property>
  <property name="force_reload">0</property>
  <property name="global_feed">1</property>
  <property name="kdenlive:zone_in">0</property>
  <property name="kdenlive:zone_out">2000</property>
  <property name="meta.media.width">1920</property>
  <property name="meta.media.height">1080</property>
 </producer>
 <producer title="Anonymous Submission" id="106" in="0" out="149">
  <property name="length">250</property>
  <property name="eof">pause</property>
  <property name="resource"/>
  <property name="progressive">1</property>
  <property name="aspect_ratio">1</property>
  <property name="seekable">1</property>
  <property name="mlt_service">kdenlivetitle</property>
  <property name="kdenlive:clipname">yasser</property>
  <property name="kdenlive:folderid">23</property>
  <property name="xmldata">&lt;kdenlivetitle duration="150" LC_NUMERIC="fr_FR.UTF-8" width="1920" height="1080" out="150">
 &lt;item type="QGraphicsTextItem" z-index="1">
  &lt;position x="810" y="456">
   &lt;transform>1,0,0,0,1,0,0,0,1&lt;/transform>
  &lt;/position>
  &lt;content line-spacing="0" shadow="0;#64000000;3;3;3" font-underline="0" box-height="126" font="Lato Black" letter-spacing="0" font-pixel-size="35" font-italic="0" alignment="4" font-weight="50" box-width="299.641" font-color="255,255,255,255">

YASSER A RAFAAL&lt;/content>
 &lt;/item>
 &lt;startviewport rect="0,0,1920,1080"/>
 &lt;endviewport rect="0,0,1920,1080"/>
 &lt;background color="0,0,0,255"/>
&lt;/kdenlivetitle>
</property>
  <property name="kdenlive:duration">150</property>
  <property name="force_reload">0</property>
  <property name="global_feed">1</property>
  <property name="kdenlive:zone_in">0</property>
  <property name="kdenlive:zone_out">2000</property>
  <property name="meta.media.width">1920</property>
  <property name="meta.media.height">1080</property>
 </producer>
 <producer title="Anonymous Submission" id="107" in="0" out="149">
  <property name="length">250</property>
  <property name="eof">pause</property>
  <property name="resource"/>
  <property name="progressive">1</property>
  <property name="aspect_ratio">1</property>
  <property name="seekable">1</property>
  <property name="mlt_service">kdenlivetitle</property>
  <property name="kdenlive:clipname">donking</property>
  <property name="kdenlive:folderid">23</property>
  <property name="xmldata">&lt;kdenlivetitle duration="150" LC_NUMERIC="fr_FR.UTF-8" width="1920" height="1080" out="150">
 &lt;item type="QGraphicsTextItem" z-index="1">
  &lt;position x="762" y="456">
   &lt;transform>1,0,0,0,1,0,0,0,1&lt;/transform>
  &lt;/position>
  &lt;content line-spacing="0" shadow="0;#64000000;3;3;3" font-underline="0" box-height="126" font="Lato Black" letter-spacing="0" font-pixel-size="35" font-italic="0" alignment="4" font-weight="50" box-width="395.406" font-color="255,255,255,255">

GAMBLE DONGLE KING&lt;/content>
 &lt;/item>
 &lt;startviewport rect="0,0,1920,1080"/>
 &lt;endviewport rect="0,0,1920,1080"/>
 &lt;background color="0,0,0,255"/>
&lt;/kdenlivetitle>
</property>
  <property name="kdenlive:duration">150</property>
  <property name="force_reload">0</property>
  <property name="global_feed">1</property>
  <property name="kdenlive:zone_in">0</property>
  <property name="kdenlive:zone_out">58</property>
  <property name="meta.media.width">1920</property>
  <property name="meta.media.height">1080</property>
 </producer>
 <producer title="Anonymous Submission" id="108" in="0" out="149">
  <property name="length">250</property>
  <property name="eof">pause</property>
  <property name="resource"/>
  <property name="progressive">1</property>
  <property name="aspect_ratio">1</property>
  <property name="seekable">1</property>
  <property name="mlt_service">kdenlivetitle</property>
  <property name="kdenlive:clipname">missosx</property>
  <property name="kdenlive:folderid">23</property>
  <property name="xmldata">&lt;kdenlivetitle duration="150" LC_NUMERIC="fr_FR.UTF-8" width="1920" height="1080" out="150">
 &lt;item type="QGraphicsTextItem" z-index="1">
  &lt;position x="823" y="456">
   &lt;transform>1,0,0,0,1,0,0,0,1&lt;/transform>
  &lt;/position>
  &lt;content line-spacing="0" shadow="0;#64000000;3;3;3" font-underline="0" box-height="126" font="Lato Black" letter-spacing="0" font-pixel-size="35" font-italic="0" alignment="4" font-weight="50" box-width="273.641" font-color="255,255,255,255">

MISS OS X TOFU&lt;/content>
 &lt;/item>
 &lt;startviewport rect="0,0,1920,1080"/>
 &lt;endviewport rect="0,0,1920,1080"/>
 &lt;background color="0,0,0,255"/>
&lt;/kdenlivetitle>
</property>
  <property name="kdenlive:duration">150</property>
  <property name="force_reload">0</property>
  <property name="global_feed">1</property>
  <property name="kdenlive:zone_in">0</property>
  <property name="kdenlive:zone_out">2000</property>
  <property name="meta.media.width">1920</property>
  <property name="meta.media.height">1080</property>
 </producer>
 <producer title="Anonymous Submission" id="109" in="0" out="149">
  <property name="length">250</property>
  <property name="eof">pause</property>
  <property name="resource"/>
  <property name="progressive">1</property>
  <property name="aspect_ratio">1</property>
  <property name="seekable">1</property>
  <property name="mlt_service">kdenlivetitle</property>
  <property name="kdenlive:clipname">soubrette</property>
  <property name="kdenlive:folderid">23</property>
  <property name="xmldata">&lt;kdenlivetitle duration="150" LC_NUMERIC="fr_FR.UTF-8" width="1920" height="1080" out="150">
 &lt;item type="QGraphicsTextItem" z-index="1">
  &lt;position x="772" y="456">
   &lt;transform>1,0,0,0,1,0,0,0,1&lt;/transform>
  &lt;/position>
  &lt;content line-spacing="0" shadow="0;#64000000;3;3;3" font-underline="0" box-height="126" font="Lato Black" letter-spacing="0" font-pixel-size="35" font-italic="0" alignment="4" font-weight="50" box-width="375.813" font-color="255,255,255,255">

SOUBRETTE SUPRÊME&lt;/content>
 &lt;/item>
 &lt;startviewport rect="0,0,1920,1080"/>
 &lt;endviewport rect="0,0,1920,1080"/>
 &lt;background color="0,0,0,255"/>
&lt;/kdenlivetitle>
</property>
  <property name="kdenlive:duration">150</property>
  <property name="force_reload">0</property>
  <property name="global_feed">1</property>
  <property name="kdenlive:zone_in">0</property>
  <property name="kdenlive:zone_out">2000</property>
  <property name="meta.media.width">1920</property>
  <property name="meta.media.height">1080</property>
 </producer>
 <producer title="Anonymous Submission" id="110" in="0" out="904">
  <property name="length">905</property>
  <property name="eof">pause</property>
  <property name="resource"/>
  <property name="progressive">1</property>
  <property name="aspect_ratio">1</property>
  <property name="seekable">1</property>
  <property name="mlt_service">kdenlivetitle</property>
  <property name="kdenlive:clipname">shooting</property>
  <property name="kdenlive:folderid">25</property>
  <property name="xmldata">&lt;kdenlivetitle duration="150" LC_NUMERIC="fr_FR.UTF-8" width="1920" height="1080" out="150">
 &lt;item type="QGraphicsTextItem" z-index="1">
  &lt;position x="826" y="456">
   &lt;transform>1,0,0,0,1,0,0,0,1&lt;/transform>
  &lt;/position>
  &lt;content line-spacing="0" shadow="0;#64000000;3;3;3" font-underline="0" box-height="118" font="Lato Black" letter-spacing="0" font-pixel-size="49" font-italic="0" alignment="4" font-weight="50" box-width="262.672" font-color="255,255,255,255">SHOOTING
&lt;/content>
 &lt;/item>
 &lt;startviewport rect="0,0,1920,1080"/>
 &lt;endviewport rect="0,0,1920,1080"/>
 &lt;background color="0,0,0,255"/>
&lt;/kdenlivetitle>
</property>
  <property name="kdenlive:duration">150</property>
  <property name="force_reload">0</property>
  <property name="global_feed">1</property>
  <property name="kdenlive:zone_in">0</property>
  <property name="kdenlive:zone_out">2000</property>
  <property name="meta.media.width">1920</property>
  <property name="meta.media.height">1080</property>
 </producer>
 <producer title="Anonymous Submission" id="111" in="0" out="149">
  <property name="length">250</property>
  <property name="eof">pause</property>
  <property name="resource"/>
  <property name="progressive">1</property>
  <property name="aspect_ratio">1</property>
  <property name="seekable">1</property>
  <property name="mlt_service">kdenlivetitle</property>
  <property name="kdenlive:clipname">4k</property>
  <property name="kdenlive:folderid">26</property>
  <property name="xmldata">&lt;kdenlivetitle duration="150" LC_NUMERIC="fr_FR.UTF-8" width="1920" height="1080" out="150">
 &lt;item type="QGraphicsTextItem" z-index="1">
  &lt;position x="850" y="456">
   &lt;transform>1,0,0,0,1,0,0,0,1&lt;/transform>
  &lt;/position>
  &lt;content line-spacing="0" shadow="0;#64000000;3;3;3" font-underline="0" box-height="126" font="Lato Black" letter-spacing="0" font-pixel-size="35" font-italic="0" alignment="4" font-weight="50" box-width="219.141" font-color="255,255,255,255">

PRINCESS 4K&lt;/content>
 &lt;/item>
 &lt;startviewport rect="0,0,1920,1080"/>
 &lt;endviewport rect="0,0,1920,1080"/>
 &lt;background color="0,0,0,255"/>
&lt;/kdenlivetitle>
</property>
  <property name="kdenlive:duration">150</property>
  <property name="force_reload">0</property>
  <property name="global_feed">1</property>
  <property name="kdenlive:zone_in">0</property>
  <property name="kdenlive:zone_out">2000</property>
  <property name="meta.media.width">1920</property>
  <property name="meta.media.height">1080</property>
 </producer>
 <producer title="Anonymous Submission" id="112" in="0" out="904">
  <property name="length">905</property>
  <property name="eof">pause</property>
  <property name="resource"/>
  <property name="progressive">1</property>
  <property name="aspect_ratio">1</property>
  <property name="seekable">1</property>
  <property name="mlt_service">kdenlivetitle</property>
  <property name="kdenlive:clipname">recordin</property>
  <property name="kdenlive:folderid">25</property>
  <property name="xmldata">&lt;kdenlivetitle duration="150" LC_NUMERIC="fr_FR.UTF-8" width="1920" height="1080" out="150">
 &lt;item type="QGraphicsTextItem" z-index="1">
  &lt;position x="792" y="456">
   &lt;transform>1,0,0,0,1,0,0,0,1&lt;/transform>
  &lt;/position>
  &lt;content line-spacing="0" shadow="0;#64000000;3;3;3" font-underline="0" box-height="177" font="Lato Black" letter-spacing="0" font-pixel-size="49" font-italic="0" alignment="4" font-weight="50" box-width="336.359" font-color="255,255,255,255">RECORDED AT

&lt;/content>
 &lt;/item>
 &lt;startviewport rect="0,0,1920,1080"/>
 &lt;endviewport rect="0,0,1920,1080"/>
 &lt;background color="0,0,0,255"/>
&lt;/kdenlivetitle>
</property>
  <property name="kdenlive:duration">150</property>
  <property name="force_reload">0</property>
  <property name="global_feed">1</property>
  <property name="kdenlive:zone_in">0</property>
  <property name="kdenlive:zone_out">2000</property>
  <property name="meta.media.width">1920</property>
  <property name="meta.media.height">1080</property>
 </producer>
 <producer title="Anonymous Submission" id="113" in="0" out="149">
  <property name="length">250</property>
  <property name="eof">pause</property>
  <property name="resource"/>
  <property name="progressive">1</property>
  <property name="aspect_ratio">1</property>
  <property name="seekable">1</property>
  <property name="mlt_service">kdenlivetitle</property>
  <property name="kdenlive:clipname">EMI</property>
  <property name="kdenlive:folderid">26</property>
  <property name="xmldata">&lt;kdenlivetitle duration="150" LC_NUMERIC="fr_FR.UTF-8" width="1920" height="1080" out="150">
 &lt;item type="QGraphicsTextItem" z-index="1">
  &lt;position x="603" y="456">
   &lt;transform>1,0,0,0,1,0,0,0,1&lt;/transform>
  &lt;/position>
  &lt;content line-spacing="0" shadow="0;#64000000;3;3;3" font-underline="0" box-height="126" font="Lato Black" letter-spacing="0" font-pixel-size="35" font-italic="0" alignment="4" font-weight="50" box-width="714.078" font-color="255,255,255,255">

EMI / CENTRE JEAN FRANÇAIX / ST CALAIS&lt;/content>
 &lt;/item>
 &lt;startviewport rect="0,0,1920,1080"/>
 &lt;endviewport rect="0,0,1920,1080"/>
 &lt;background color="0,0,0,255"/>
&lt;/kdenlivetitle>
</property>
  <property name="kdenlive:duration">150</property>
  <property name="force_reload">0</property>
  <property name="global_feed">1</property>
  <property name="kdenlive:zone_in">0</property>
  <property name="kdenlive:zone_out">2000</property>
  <property name="meta.media.width">1920</property>
  <property name="meta.media.height">1080</property>
 </producer>
 <producer title="Anonymous Submission" id="114" in="0" out="904">
  <property name="length">905</property>
  <property name="eof">pause</property>
  <property name="resource"/>
  <property name="progressive">1</property>
  <property name="aspect_ratio">1</property>
  <property name="seekable">1</property>
  <property name="mlt_service">kdenlivetitle</property>
  <property name="kdenlive:clipname">SHOOTED</property>
  <property name="kdenlive:folderid">25</property>
  <property name="xmldata">&lt;kdenlivetitle duration="150" LC_NUMERIC="fr_FR.UTF-8" width="1920" height="1080" out="150">
 &lt;item type="QGraphicsTextItem" z-index="1">
  &lt;position x="805" y="456">
   &lt;transform>1,0,0,0,1,0,0,0,1&lt;/transform>
  &lt;/position>
  &lt;content line-spacing="0" shadow="0;#64000000;3;3;3" font-underline="0" box-height="59" font="Lato Black" letter-spacing="0" font-pixel-size="49" font-italic="0" alignment="4" font-weight="50" box-width="310.141" font-color="255,255,255,255">SHOOTED AT&lt;/content>
 &lt;/item>
 &lt;startviewport rect="0,0,1920,1080"/>
 &lt;endviewport rect="0,0,1920,1080"/>
 &lt;background color="0,0,0,255"/>
&lt;/kdenlivetitle>
</property>
  <property name="kdenlive:duration">150</property>
  <property name="force_reload">0</property>
  <property name="global_feed">1</property>
  <property name="kdenlive:zone_in">0</property>
  <property name="kdenlive:zone_out">2000</property>
  <property name="meta.media.width">1920</property>
  <property name="meta.media.height">1080</property>
 </producer>
 <producer title="Anonymous Submission" id="115" in="0" out="149">
  <property name="length">250</property>
  <property name="eof">pause</property>
  <property name="resource"/>
  <property name="progressive">1</property>
  <property name="aspect_ratio">1</property>
  <property name="seekable">1</property>
  <property name="mlt_service">kdenlivetitle</property>
  <property name="kdenlive:clipname">CHAPELLE</property>
  <property name="kdenlive:folderid">26</property>
  <property name="xmldata">&lt;kdenlivetitle duration="150" LC_NUMERIC="fr_FR.UTF-8" width="1920" height="1080" out="150">
 &lt;item type="QGraphicsTextItem" z-index="1">
  &lt;position x="639" y="456">
   &lt;transform>1,0,0,0,1,0,0,0,1&lt;/transform>
  &lt;/position>
  &lt;content line-spacing="0" shadow="0;#64000000;3;3;3" font-underline="0" box-height="126" font="Lato Black" letter-spacing="0" font-pixel-size="35" font-italic="0" alignment="4" font-weight="50" box-width="642.984" font-color="255,255,255,255">

CHAPPELLE DE L'ORATOIRE / LE MANS&lt;/content>
 &lt;/item>
 &lt;startviewport rect="0,0,1920,1080"/>
 &lt;endviewport rect="0,0,1920,1080"/>
 &lt;background color="0,0,0,255"/>
&lt;/kdenlivetitle>
</property>
  <property name="kdenlive:duration">150</property>
  <property name="force_reload">0</property>
  <property name="global_feed">1</property>
  <property name="kdenlive:zone_in">0</property>
  <property name="kdenlive:zone_out">2000</property>
  <property name="meta.media.width">1920</property>
  <property name="meta.media.height">1080</property>
 </producer>
 <producer title="Anonymous Submission" id="116" in="0" out="149">
  <property name="length">250</property>
  <property name="eof">pause</property>
  <property name="resource"/>
  <property name="progressive">1</property>
  <property name="aspect_ratio">1</property>
  <property name="seekable">1</property>
  <property name="mlt_service">kdenlivetitle</property>
  <property name="kdenlive:clipname">EGLISE</property>
  <property name="kdenlive:folderid">26</property>
  <property name="xmldata">&lt;kdenlivetitle duration="150" LC_NUMERIC="fr_FR.UTF-8" width="1920" height="1080" out="150">
 &lt;item type="QGraphicsTextItem" z-index="1">
  &lt;position x="676" y="456">
   &lt;transform>1,0,0,0,1,0,0,0,1&lt;/transform>
  &lt;/position>
  &lt;content line-spacing="0" shadow="0;#64000000;3;3;3" font-underline="0" box-height="126" font="Lato Black" letter-spacing="0" font-pixel-size="35" font-italic="0" alignment="4" font-weight="50" box-width="568.438" font-color="255,255,255,255">

ÉGLISE DJ SAINT-PIERRE / LAVARÉ&lt;/content>
 &lt;/item>
 &lt;startviewport rect="0,0,1920,1080"/>
 &lt;endviewport rect="0,0,1920,1080"/>
 &lt;background color="0,0,0,255"/>
&lt;/kdenlivetitle>
</property>
  <property name="kdenlive:duration">150</property>
  <property name="force_reload">0</property>
  <property name="global_feed">1</property>
  <property name="kdenlive:zone_in">0</property>
  <property name="kdenlive:zone_out">2000</property>
  <property name="meta.media.width">1920</property>
  <property name="meta.media.height">1080</property>
 </producer>
 <producer title="Anonymous Submission" id="117" in="0" out="904">
  <property name="length">905</property>
  <property name="eof">pause</property>
  <property name="resource"/>
  <property name="progressive">1</property>
  <property name="aspect_ratio">1</property>
  <property name="seekable">1</property>
  <property name="mlt_service">kdenlivetitle</property>
  <property name="kdenlive:clipname">MUSIC</property>
  <property name="kdenlive:folderid">25</property>
  <property name="xmldata">&lt;kdenlivetitle duration="150" LC_NUMERIC="fr_FR.UTF-8" width="1920" height="1080" out="150">
 &lt;item type="QGraphicsTextItem" z-index="1">
  &lt;position x="765" y="456">
   &lt;transform>1,0,0,0,1,0,0,0,1&lt;/transform>
  &lt;/position>
  &lt;content line-spacing="0" shadow="0;#64000000;3;3;3" font-underline="0" box-height="59" font="Lato Black" letter-spacing="0" font-pixel-size="49" font-italic="0" alignment="4" font-weight="50" box-width="390.328" font-color="255,255,255,255">SOUND &amp;amp; VIDEO&lt;/content>
 &lt;/item>
 &lt;startviewport rect="0,0,1920,1080"/>
 &lt;endviewport rect="0,0,1920,1080"/>
 &lt;background color="0,0,0,255"/>
&lt;/kdenlivetitle>
</property>
  <property name="kdenlive:duration">150</property>
  <property name="force_reload">0</property>
  <property name="global_feed">1</property>
  <property name="kdenlive:zone_in">0</property>
  <property name="kdenlive:zone_out">2000</property>
  <property name="meta.media.width">1920</property>
  <property name="meta.media.height">1080</property>
 </producer>
 <producer title="Anonymous Submission" id="118" in="0" out="149">
  <property name="length">250</property>
  <property name="eof">pause</property>
  <property name="resource"/>
  <property name="progressive">1</property>
  <property name="aspect_ratio">1</property>
  <property name="seekable">1</property>
  <property name="mlt_service">kdenlivetitle</property>
  <property name="kdenlive:clipname">BROS</property>
  <property name="kdenlive:folderid">26</property>
  <property name="xmldata">&lt;kdenlivetitle duration="150" LC_NUMERIC="fr_FR.UTF-8" width="1920" height="1080" out="150">
 &lt;item type="QGraphicsTextItem" z-index="1">
  &lt;position x="792" y="456">
   &lt;transform>1,0,0,0,1,0,0,0,1&lt;/transform>
  &lt;/position>
  &lt;content line-spacing="0" shadow="0;#64000000;3;3;3" font-underline="0" box-height="126" font="Lato Black" letter-spacing="0" font-pixel-size="35" font-italic="0" alignment="4" font-weight="50" box-width="336.297" font-color="255,255,255,255">

PLAGIAT BROTHERS&lt;/content>
 &lt;/item>
 &lt;startviewport rect="0,0,1920,1080"/>
 &lt;endviewport rect="0,0,1920,1080"/>
 &lt;background color="0,0,0,255"/>
&lt;/kdenlivetitle>
</property>
  <property name="kdenlive:duration">150</property>
  <property name="force_reload">0</property>
  <property name="global_feed">1</property>
  <property name="kdenlive:zone_in">0</property>
  <property name="kdenlive:zone_out">2000</property>
  <property name="meta.media.width">1920</property>
  <property name="meta.media.height">1080</property>
 </producer>
 <producer title="Anonymous Submission" id="119" in="0" out="904">
  <property name="length">905</property>
  <property name="eof">pause</property>
  <property name="resource"/>
  <property name="progressive">1</property>
  <property name="aspect_ratio">1</property>
  <property name="seekable">1</property>
  <property name="mlt_service">kdenlivetitle</property>
  <property name="kdenlive:clipname">STEADY</property>
  <property name="kdenlive:folderid">25</property>
  <property name="xmldata">&lt;kdenlivetitle duration="150" LC_NUMERIC="fr_FR.UTF-8" width="1920" height="1080" out="150">
 &lt;item type="QGraphicsTextItem" z-index="1">
  &lt;position x="713" y="456">
   &lt;transform>1,0,0,0,1,0,0,0,1&lt;/transform>
  &lt;/position>
  &lt;content line-spacing="0" shadow="0;#64000000;3;3;3" font-underline="0" box-height="177" font="Lato Black" letter-spacing="0" font-pixel-size="49" font-italic="0" alignment="4" font-weight="50" box-width="494.5" font-color="255,255,255,255">NOT SO STEADYCAM

&lt;/content>
 &lt;/item>
 &lt;startviewport rect="0,0,1920,1080"/>
 &lt;endviewport rect="0,0,1920,1080"/>
 &lt;background color="0,0,0,255"/>
&lt;/kdenlivetitle>
</property>
  <property name="kdenlive:duration">150</property>
  <property name="force_reload">0</property>
  <property name="global_feed">1</property>
  <property name="kdenlive:zone_in">0</property>
  <property name="kdenlive:zone_out">2000</property>
  <property name="meta.media.width">1920</property>
  <property name="meta.media.height">1080</property>
 </producer>
 <producer title="Anonymous Submission" id="120" in="0" out="149">
  <property name="length">250</property>
  <property name="eof">pause</property>
  <property name="resource"/>
  <property name="progressive">1</property>
  <property name="aspect_ratio">1</property>
  <property name="seekable">1</property>
  <property name="mlt_service">kdenlivetitle</property>
  <property name="kdenlive:clipname">BOOM</property>
  <property name="kdenlive:folderid">26</property>
  <property name="xmldata">&lt;kdenlivetitle duration="150" LC_NUMERIC="fr_FR.UTF-8" width="1920" height="1080" out="150">
 &lt;item type="QGraphicsTextItem" z-index="1">
  &lt;position x="823" y="456">
   &lt;transform>1,0,0,0,1,0,0,0,1&lt;/transform>
  &lt;/position>
  &lt;content line-spacing="0" shadow="0;#64000000;3;3;3" font-underline="0" box-height="126" font="Lato Black" letter-spacing="0" font-pixel-size="35" font-italic="0" alignment="4" font-weight="50" box-width="274.375" font-color="255,255,255,255">

BOOMTRAPPED&lt;/content>
 &lt;/item>
 &lt;startviewport rect="0,0,1920,1080"/>
 &lt;endviewport rect="0,0,1920,1080"/>
 &lt;background color="0,0,0,255"/>
&lt;/kdenlivetitle>
</property>
  <property name="kdenlive:duration">150</property>
  <property name="force_reload">0</property>
  <property name="global_feed">1</property>
  <property name="kdenlive:zone_in">0</property>
  <property name="kdenlive:zone_out">2000</property>
  <property name="meta.media.width">1920</property>
  <property name="meta.media.height">1080</property>
 </producer>
 <producer title="Anonymous Submission" id="121" in="0" out="253">
  <property name="length">254</property>
  <property name="eof">pause</property>
  <property name="resource"/>
  <property name="progressive">1</property>
  <property name="aspect_ratio">1</property>
  <property name="seekable">1</property>
  <property name="mlt_service">kdenlivetitle</property>
  <property name="kdenlive:clipname">COPY</property>
  <property name="kdenlive:folderid">26</property>
  <property name="xmldata">&lt;kdenlivetitle duration="150" LC_NUMERIC="fr_FR.UTF-8" width="1920" height="1080" out="150">
 &lt;item type="QGraphicsTextItem" z-index="3">
  &lt;position x="770" y="685">
   &lt;transform>1,0,0,0,1,0,0,0,1&lt;/transform>
  &lt;/position>
  &lt;content line-spacing="0" shadow="0;#64000000;3;3;3" font-underline="0" box-height="36" font="Lato Black" letter-spacing="0" font-pixel-size="30" font-italic="0" alignment="1" font-weight="50" box-width="379" font-color="39,39,39,255">CREATIVECOMMONS.ORG&lt;/content>
 &lt;/item>
 &lt;item type="QGraphicsTextItem" z-index="2">
  &lt;position x="546" y="594">
   &lt;transform>1,0,0,0,1,0,0,0,1&lt;/transform>
  &lt;/position>
  &lt;content line-spacing="0" shadow="0;#64000000;3;3;3" font-underline="0" box-height="38" font="Lato Black" letter-spacing="0" font-pixel-size="32" font-italic="0" alignment="1" font-weight="50" box-width="827.766" font-color="255,255,255,255">FOLLOWING THE TERMS OF THE CC4.0-BY-SA LICENSE&lt;/content>
 &lt;/item>
 &lt;item type="QGraphicsTextItem" z-index="1">
  &lt;position x="547" y="456">
   &lt;transform>1,0,0,0,1,0,0,0,1&lt;/transform>
  &lt;/position>
  &lt;content line-spacing="0" shadow="0;#64000000;3;3;3" font-underline="0" box-height="168" font="Lato Black" letter-spacing="0" font-pixel-size="35" font-italic="0" alignment="4" font-weight="50" box-width="826.969" font-color="255,255,255,255">© PLAGIAT BROS 2018 - 2019

COPYLEFT: THIS IS FREE ART FEEL FREE TO USE  IT
&lt;/content>
 &lt;/item>
 &lt;startviewport rect="0,0,1920,1080"/>
 &lt;endviewport rect="0,0,1920,1080"/>
 &lt;background color="0,0,0,255"/>
&lt;/kdenlivetitle>
</property>
  <property name="kdenlive:duration">150</property>
  <property name="force_reload">0</property>
  <property name="global_feed">1</property>
  <property name="kdenlive:zone_in">0</property>
  <property name="kdenlive:zone_out">2000</property>
  <property name="meta.media.width">1920</property>
  <property name="meta.media.height">1080</property>
 </producer>
 <producer title="Anonymous Submission" id="122" in="0" out="904">
  <property name="length">905</property>
  <property name="eof">pause</property>
  <property name="resource"/>
  <property name="progressive">1</property>
  <property name="aspect_ratio">1</property>
  <property name="seekable">1</property>
  <property name="mlt_service">kdenlivetitle</property>
  <property name="kdenlive:clipname">FREESOFT</property>
  <property name="kdenlive:folderid">25</property>
  <property name="xmldata">&lt;kdenlivetitle duration="150" LC_NUMERIC="fr_FR.UTF-8" width="1920" height="1080" out="150">
 &lt;item type="QGraphicsTextItem" z-index="1">
  &lt;position x="595" y="456">
   &lt;transform>1,0,0,0,1,0,0,0,1&lt;/transform>
  &lt;/position>
  &lt;content line-spacing="0" shadow="0;#64000000;3;3;3" font-underline="0" box-height="59" font="Lato Black" letter-spacing="0" font-pixel-size="49" font-italic="0" alignment="4" font-weight="50" box-width="729" font-color="255,255,255,255">MADE WITH FREE SOFTWARES&lt;/content>
 &lt;/item>
 &lt;startviewport rect="0,0,1920,1080"/>
 &lt;endviewport rect="0,0,1920,1080"/>
 &lt;background color="0,0,0,255"/>
&lt;/kdenlivetitle>
</property>
  <property name="kdenlive:duration">150</property>
  <property name="force_reload">0</property>
  <property name="global_feed">1</property>
  <property name="kdenlive:zone_in">0</property>
  <property name="kdenlive:zone_out">2000</property>
  <property name="meta.media.width">1920</property>
  <property name="meta.media.height">1080</property>
 </producer>
 <producer title="Anonymous Submission" id="123" in="0" out="600">
  <property name="length">601</property>
  <property name="eof">pause</property>
  <property name="resource"/>
  <property name="progressive">1</property>
  <property name="aspect_ratio">1</property>
  <property name="seekable">1</property>
  <property name="mlt_service">kdenlivetitle</property>
  <property name="kdenlive:clipname">9</property>
  <property name="kdenlive:folderid">22</property>
  <property name="xmldata">&lt;kdenlivetitle duration="150" LC_NUMERIC="fr_FR.UTF-8" width="1920" height="1080" out="150">
 &lt;item type="QGraphicsTextItem" z-index="1">
  &lt;position x="432" y="981">
   &lt;transform>1,0,0,0,1,0,0,0,1&lt;/transform>
  &lt;/position>
  &lt;content line-spacing="0" shadow="0;#64000000;3;3;3" font-underline="0" box-height="42" font="Lato Black" letter-spacing="0" font-pixel-size="35" font-italic="0" alignment="1" font-weight="50" box-width="1055.08" font-color="255,255,255,255">ON EN PASSE ENCORE DEUX TROIS COMME ÇA ET ON EST BON&lt;/content>
 &lt;/item>
 &lt;startviewport rect="0,0,1920,1080"/>
 &lt;endviewport rect="0,0,1920,1080"/>
 &lt;background color="0,0,0,255"/>
&lt;/kdenlivetitle>
</property>
  <property name="kdenlive:duration">150</property>
  <property name="force_reload">0</property>
  <property name="global_feed">1</property>
  <property name="kdenlive:zone_in">0</property>
  <property name="kdenlive:zone_out">600</property>
  <property name="meta.media.width">1920</property>
  <property name="meta.media.height">1080</property>
 </producer>
 <producer title="Anonymous Submission" id="124" in="0" out="149">
  <property name="length">250</property>
  <property name="eof">pause</property>
  <property name="resource"/>
  <property name="progressive">1</property>
  <property name="aspect_ratio">1</property>
  <property name="seekable">1</property>
  <property name="mlt_service">kdenlivetitle</property>
  <property name="kdenlive:clipname">FSF</property>
  <property name="kdenlive:folderid">26</property>
  <property name="xmldata">&lt;kdenlivetitle duration="150" LC_NUMERIC="fr_FR.UTF-8" width="1920" height="1080" out="150">
 &lt;item type="QGraphicsTextItem" z-index="1">
  &lt;position x="890" y="456">
   &lt;transform>1,0,0,0,1,0,0,0,1&lt;/transform>
  &lt;/position>
  &lt;content line-spacing="0" shadow="0;#64000000;3;3;3" font-underline="0" box-height="126" font="Lato Black" letter-spacing="0" font-pixel-size="35" font-italic="0" alignment="4" font-weight="50" box-width="140.406" font-color="255,255,255,255">

FSF.ORG&lt;/content>
 &lt;/item>
 &lt;startviewport rect="0,0,1920,1080"/>
 &lt;endviewport rect="0,0,1920,1080"/>
 &lt;background color="0,0,0,255"/>
&lt;/kdenlivetitle>
</property>
  <property name="kdenlive:duration">150</property>
  <property name="force_reload">0</property>
  <property name="global_feed">1</property>
  <property name="kdenlive:zone_in">0</property>
  <property name="kdenlive:zone_out">2000</property>
  <property name="meta.media.width">1920</property>
  <property name="meta.media.height">1080</property>
 </producer>
 <producer title="Anonymous Submission" id="125" in="0" out="600">
  <property name="length">601</property>
  <property name="eof">pause</property>
  <property name="resource"/>
  <property name="progressive">1</property>
  <property name="aspect_ratio">1</property>
  <property name="seekable">1</property>
  <property name="mlt_service">kdenlivetitle</property>
  <property name="kdenlive:clipname">10</property>
  <property name="kdenlive:folderid">22</property>
  <property name="xmldata">&lt;kdenlivetitle duration="150" LC_NUMERIC="fr_FR.UTF-8" width="1920" height="1080" out="150">
 &lt;item type="QGraphicsTextItem" z-index="1">
  &lt;position x="432" y="981">
   &lt;transform>1,0,0,0,1,0,0,0,1&lt;/transform>
  &lt;/position>
  &lt;content line-spacing="0" shadow="0;#64000000;3;3;3" font-underline="0" box-height="42" font="Lato Black" letter-spacing="0" font-pixel-size="35" font-italic="0" alignment="1" font-weight="50" box-width="1055.08" font-color="255,255,255,255">ON EN PASSE ENCORE DEUX TROIS COMME ÇA ET ON EST BON&lt;/content>
 &lt;/item>
 &lt;startviewport rect="0,0,1920,1080"/>
 &lt;endviewport rect="0,0,1920,1080"/>
 &lt;background color="0,0,0,255"/>
&lt;/kdenlivetitle>
</property>
  <property name="kdenlive:duration">150</property>
  <property name="force_reload">0</property>
  <property name="global_feed">1</property>
  <property name="kdenlive:zone_in">0</property>
  <property name="kdenlive:zone_out">600</property>
  <property name="meta.media.width">1920</property>
  <property name="meta.media.height">1080</property>
 </producer>
 <producer title="Anonymous Submission" id="126" in="0" out="3613">
  <property name="length">00:01:12:14</property>
  <property name="eof">pause</property>
  <property name="resource">/media/bordun/plagiat/Clip02_RespecteLaPuissancePapale/Assets/pascal.mp4</property>
  <property name="audio_index">-1</property>
  <property name="video_index">0</property>
  <property name="mute_on_pause">1</property>
  <property name="mlt_service">avformat-novalidate</property>
  <property name="meta.media.nb_streams">1</property>
  <property name="meta.media.0.stream.type">video</property>
  <property name="meta.media.0.stream.frame_rate">25</property>
  <property name="meta.media.0.stream.sample_aspect_ratio">1</property>
  <property name="meta.media.0.codec.width">1920</property>
  <property name="meta.media.0.codec.height">1080</property>
  <property name="meta.media.0.codec.rotate">0</property>
  <property name="meta.media.0.codec.frame_rate">25</property>
  <property name="meta.media.0.codec.pix_fmt">yuv420p</property>
  <property name="meta.media.0.codec.sample_aspect_ratio">1</property>
  <property name="meta.media.0.codec.colorspace">709</property>
  <property name="meta.media.0.codec.color_trc">1</property>
  <property name="meta.media.0.codec.name">h264</property>
  <property name="meta.media.0.codec.long_name">H.264 / AVC / MPEG-4 AVC / MPEG-4 part 10</property>
  <property name="meta.media.0.codec.bit_rate">1392636</property>
  <property name="meta.attr.0.stream.handler_name.markup">VideoHandler</property>
  <property name="meta.attr.major_brand.markup">isom</property>
  <property name="meta.attr.minor_version.markup">512</property>
  <property name="meta.attr.compatible_brands.markup">isomiso2avc1mp41</property>
  <property name="meta.attr.encoder.markup">Lavf57.71.100</property>
  <property name="seekable">1</property>
  <property name="meta.media.sample_aspect_num">1</property>
  <property name="meta.media.sample_aspect_den">1</property>
  <property name="aspect_ratio">1</property>
  <property name="kdenlive:file_size">13218959</property>
  <property name="kdenlive:file_hash">93d34dbc12a95fc2927a82222975c2c0</property>
  <property name="global_feed">1</property>
  <property name="meta.media.frame_rate_num">25</property>
  <property name="meta.media.frame_rate_den">1</property>
  <property name="meta.media.colorspace">709</property>
  <property name="meta.media.color_trc">1</property>
  <property name="meta.media.width">1920</property>
  <property name="meta.media.height">1080</property>
  <property name="meta.media.top_field_first">0</property>
  <property name="meta.media.progressive">1</property>
 </producer>
 <producer title="Anonymous Submission" id="127" in="0" out="17047">
  <property name="length">00:05:40:48</property>
  <property name="eof">pause</property>
  <property name="resource">/media/bordun/plagiat/Clip02_RespecteLaPuissancePapale/Assets/yulax.ogv</property>
  <property name="audio_index">1</property>
  <property name="video_index">0</property>
  <property name="mute_on_pause">1</property>
  <property name="mlt_service">avformat-novalidate</property>
  <property name="meta.media.nb_streams">2</property>
  <property name="meta.media.0.stream.type">video</property>
  <property name="meta.media.0.stream.frame_rate">24</property>
  <property name="meta.media.0.stream.sample_aspect_ratio">1,00251</property>
  <property name="meta.media.0.codec.width">532</property>
  <property name="meta.media.0.codec.height">300</property>
  <property name="meta.media.0.codec.rotate">0</property>
  <property name="meta.media.0.codec.frame_rate">24</property>
  <property name="meta.media.0.codec.pix_fmt">yuv420p</property>
  <property name="meta.media.0.codec.sample_aspect_ratio">1,00251</property>
  <property name="meta.media.0.codec.colorspace">601</property>
  <property name="meta.media.0.codec.name">theora</property>
  <property name="meta.media.0.codec.long_name">Theora</property>
  <property name="meta.media.0.codec.bit_rate">0</property>
  <property name="meta.attr.0.stream.ENCODER.markup">Lavc57.22.100 libtheora</property>
  <property name="meta.attr.0.stream.TITLE.markup">Plagiat - Snapshat au Harem - Clip - Dimanche soir</property>
  <property name="meta.attr.0.stream.LICENSE.markup">http://creativecommons.org/licenses/by-sa/3.0/</property>
  <property name="meta.attr.0.stream.DATE.markup">2017-12-04</property>
  <property name="meta.attr.0.stream.LOCATION.markup">https://archive.org/details/CAM2201711250738C0005</property>
  <property name="meta.media.1.stream.type">audio</property>
  <property name="meta.media.1.codec.sample_fmt">fltp</property>
  <property name="meta.media.1.codec.sample_rate">44100</property>
  <property name="meta.media.1.codec.channels">2</property>
  <property name="meta.media.1.codec.name">vorbis</property>
  <property name="meta.media.1.codec.long_name">Vorbis</property>
  <property name="meta.media.1.codec.bit_rate">128000</property>
  <property name="meta.attr.1.stream.ENCODER.markup">Lavc57.22.100 libvorbis</property>
  <property name="meta.attr.1.stream.TITLE.markup">Plagiat - Snapshat au Harem - Clip - Dimanche soir</property>
  <property name="meta.attr.1.stream.LICENSE.markup">http://creativecommons.org/licenses/by-sa/3.0/</property>
  <property name="meta.attr.1.stream.DATE.markup">2017-12-04</property>
  <property name="meta.attr.1.stream.LOCATION.markup">https://archive.org/details/CAM2201711250738C0005</property>
  <property name="seekable">1</property>
  <property name="meta.media.sample_aspect_num">400</property>
  <property name="meta.media.sample_aspect_den">399</property>
  <property name="aspect_ratio">1,00251</property>
  <property name="meta.media.frame_rate_num">24</property>
  <property name="meta.media.frame_rate_den">1</property>
  <property name="meta.media.colorspace">601</property>
  <property name="meta.media.color_trc">2</property>
  <property name="meta.media.width">532</property>
  <property name="meta.media.height">300</property>
  <property name="meta.media.top_field_first">0</property>
  <property name="meta.media.progressive">1</property>
  <property name="kdenlive:file_size">26553509</property>
  <property name="kdenlive:file_hash">a2e72a6e526b9caef3e162a43d87ba0a</property>
  <property name="global_feed">1</property>
  <filter id="filter0">
   <property name="version">0,3</property>
   <property name="mlt_service">frei0r.levels</property>
   <property name="kdenlive_id">frei0r.levels</property>
   <property name="tag">frei0r.levels</property>
   <property name="kdenlive_ix">1</property>
   <property name="kdenlive_info"/>
   <property name="Channel">0,3</property>
   <property name="Input black level">0=0,029</property>
   <property name="Input white level">0=0,809</property>
   <property name="Gamma">0=0,18925</property>
   <property name="Black output">0=0</property>
   <property name="White output">0=1</property>
   <property name="Show histogram">0</property>
   <property name="Histogram position">0,3</property>
  </filter>
  <filter id="filter1">
   <property name="mlt_service">avfilter.lut3d</property>
   <property name="kdenlive_id">avfilter.lut3d</property>
   <property name="tag">avfilter.lut3d</property>
   <property name="kdenlive_ix">2</property>
   <property name="kdenlive_info"/>
   <property name="av.file">/media/bordun/plagiat/Clip02_RespecteLaPuissancePapale/LUT/test.CUBE</property>
   <property name="av.interp">tetrahedral </property>
  </filter>
 </producer>
 <producer title="Anonymous Submission" id="128" in="0" out="3901">
  <property name="length">00:01:18:02</property>
  <property name="eof">pause</property>
  <property name="resource">/media/bordun/plagiat/Clip02_RespecteLaPuissancePapale/Assets/jul-os.ogv</property>
  <property name="audio_index">1</property>
  <property name="video_index">0</property>
  <property name="mute_on_pause">1</property>
  <property name="mlt_service">avformat-novalidate</property>
  <property name="meta.media.nb_streams">2</property>
  <property name="meta.media.0.stream.type">video</property>
  <property name="meta.media.0.stream.frame_rate">24</property>
  <property name="meta.media.0.stream.sample_aspect_ratio">1,00251</property>
  <property name="meta.media.0.codec.width">532</property>
  <property name="meta.media.0.codec.height">300</property>
  <property name="meta.media.0.codec.rotate">0</property>
  <property name="meta.media.0.codec.frame_rate">24</property>
  <property name="meta.media.0.codec.pix_fmt">yuv420p</property>
  <property name="meta.media.0.codec.sample_aspect_ratio">1,00251</property>
  <property name="meta.media.0.codec.colorspace">601</property>
  <property name="meta.media.0.codec.name">theora</property>
  <property name="meta.media.0.codec.long_name">Theora</property>
  <property name="meta.media.0.codec.bit_rate">0</property>
  <property name="meta.attr.0.stream.ENCODER.markup">Lavc57.22.100 libtheora</property>
  <property name="meta.attr.0.stream.TITLE.markup">Plagiat - Snapshat au Harem - Clip - Dimanche soir</property>
  <property name="meta.attr.0.stream.LICENSE.markup">http://creativecommons.org/licenses/by-sa/3.0/</property>
  <property name="meta.attr.0.stream.DATE.markup">2017-12-04</property>
  <property name="meta.attr.0.stream.LOCATION.markup">https://archive.org/details/CAM2201711250738C0005</property>
  <property name="meta.media.1.stream.type">audio</property>
  <property name="meta.media.1.codec.sample_fmt">fltp</property>
  <property name="meta.media.1.codec.sample_rate">44100</property>
  <property name="meta.media.1.codec.channels">2</property>
  <property name="meta.media.1.codec.name">vorbis</property>
  <property name="meta.media.1.codec.long_name">Vorbis</property>
  <property name="meta.media.1.codec.bit_rate">128000</property>
  <property name="meta.attr.1.stream.ENCODER.markup">Lavc57.22.100 libvorbis</property>
  <property name="meta.attr.1.stream.TITLE.markup">Plagiat - Snapshat au Harem - Clip - Dimanche soir</property>
  <property name="meta.attr.1.stream.LICENSE.markup">http://creativecommons.org/licenses/by-sa/3.0/</property>
  <property name="meta.attr.1.stream.DATE.markup">2017-12-04</property>
  <property name="meta.attr.1.stream.LOCATION.markup">https://archive.org/details/CAM2201711250738C0005</property>
  <property name="seekable">1</property>
  <property name="meta.media.sample_aspect_num">400</property>
  <property name="meta.media.sample_aspect_den">399</property>
  <property name="aspect_ratio">1,00251</property>
  <property name="meta.media.frame_rate_num">24</property>
  <property name="meta.media.frame_rate_den">1</property>
  <property name="meta.media.colorspace">601</property>
  <property name="meta.media.color_trc">2</property>
  <property name="meta.media.width">532</property>
  <property name="meta.media.height">300</property>
  <property name="meta.media.top_field_first">0</property>
  <property name="meta.media.progressive">1</property>
  <property name="kdenlive:file_size">5579519</property>
  <property name="kdenlive:file_hash">9d3c69afaf5b486a2b1a1b91642227ae</property>
  <property name="global_feed">1</property>
  <property name="kdenlive:zone_in">560</property>
  <property name="kdenlive:zone_out">791</property>
  <filter id="filter2">
   <property name="version">0,3</property>
   <property name="mlt_service">frei0r.levels</property>
   <property name="kdenlive_id">frei0r.levels</property>
   <property name="tag">frei0r.levels</property>
   <property name="kdenlive_ix">1</property>
   <property name="kdenlive_info">1/-1/</property>
   <property name="Channel">0,3</property>
   <property name="Input black level">0=0,029</property>
   <property name="Input white level">0=0,667</property>
   <property name="Gamma">0=0,25</property>
   <property name="Black output">0=0</property>
   <property name="White output">0=1</property>
   <property name="Show histogram">0</property>
   <property name="Histogram position">0,3</property>
  </filter>
  <filter id="filter3">
   <property name="mlt_service">avfilter.lut3d</property>
   <property name="kdenlive_id">avfilter.lut3d</property>
   <property name="tag">avfilter.lut3d</property>
   <property name="kdenlive_ix">2</property>
   <property name="kdenlive_info">1/-1/</property>
   <property name="av.file">/media/bordun/plagiat/Clip02_RespecteLaPuissancePapale/LUT/test.CUBE</property>
   <property name="av.interp">tetrahedral </property>
  </filter>
 </producer>
 <producer title="Anonymous Submission" id="129" in="0" out="2020">
  <property name="length">00:00:40:21</property>
  <property name="eof">pause</property>
  <property name="resource">/media/bordun/plagiat/2018-12-10_Plagiat_RespecteLaPuissancePapale/extra_from_clip01/CAM2_2017-11-25_0759_C0010.mov</property>
  <property name="meta.media.nb_streams">3</property>
  <property name="meta.media.1.stream.type">video</property>
  <property name="meta.media.1.stream.frame_rate">24</property>
  <property name="meta.media.1.stream.sample_aspect_ratio">1</property>
  <property name="meta.media.1.codec.width">1920</property>
  <property name="meta.media.1.codec.height">1080</property>
  <property name="meta.media.1.codec.rotate">0</property>
  <property name="meta.media.1.codec.frame_rate">2400</property>
  <property name="meta.media.1.codec.pix_fmt">yuv422p10le</property>
  <property name="meta.media.1.codec.sample_aspect_ratio">0</property>
  <property name="meta.media.1.codec.colorspace">709</property>
  <property name="meta.media.1.codec.color_trc">1</property>
  <property name="meta.media.1.codec.name">prores</property>
  <property name="meta.media.1.codec.long_name">ProRes</property>
  <property name="meta.media.1.codec.bit_rate">176139264</property>
  <property name="meta.attr.1.stream.creation_time.markup">2017-11-25T07:59:50.000000Z</property>
  <property name="meta.attr.1.stream.language.markup">eng</property>
  <property name="meta.attr.1.stream.handler_name.markup">Apple Alias Data Handler</property>
  <property name="meta.attr.1.stream.encoder.markup">Apple ProRes 422 HQ</property>
  <property name="meta.attr.1.stream.timecode.markup">07:59:50:17</property>
  <property name="meta.media.2.stream.type">audio</property>
  <property name="meta.media.2.codec.sample_fmt">s32</property>
  <property name="meta.media.2.codec.sample_rate">48000</property>
  <property name="meta.media.2.codec.channels">2</property>
  <property name="meta.media.2.codec.name">pcm_s24le</property>
  <property name="meta.media.2.codec.long_name">PCM signed 24-bit little-endian</property>
  <property name="meta.media.2.codec.bit_rate">2304000</property>
  <property name="meta.attr.2.stream.creation_time.markup">2017-11-25T07:59:50.000000Z</property>
  <property name="meta.attr.2.stream.language.markup">eng</property>
  <property name="meta.attr.2.stream.handler_name.markup">Apple Alias Data Handler</property>
  <property name="meta.attr.2.stream.timecode.markup">07:59:50:17</property>
  <property name="meta.attr.com.apple.proapps.manufacturer.markup">Blackmagic Design</property>
  <property name="meta.attr.com.apple.proapps.cameraName.markup">CAM2</property>
  <property name="meta.attr.com.apple.proapps.isGood.markup">0</property>
  <property name="meta.attr.com.apple.proapps.customgamma.markup">com.blackmagic-design.cinemacamera.filmlog</property>
  <property name="meta.attr.com.blackmagic-design.cinemacamera.uuid.markup">18E5E00548F94923B646613A73C01B56</property>
  <property name="meta.attr.creation_time.markup">2017-11-25T07:59:50.000000Z</property>
  <property name="meta.attr.timecode.markup">07:59:50:17</property>
  <property name="seekable">1</property>
  <property name="meta.media.sample_aspect_num">1</property>
  <property name="meta.media.sample_aspect_den">1</property>
  <property name="aspect_ratio">1</property>
  <property name="audio_index">2</property>
  <property name="video_index">1</property>
  <property name="mute_on_pause">1</property>
  <property name="mlt_service">avformat-novalidate</property>
  <property name="meta.media.frame_rate_num">24</property>
  <property name="meta.media.frame_rate_den">1</property>
  <property name="meta.media.colorspace">709</property>
  <property name="meta.media.color_trc">1</property>
  <property name="meta.media.width">1920</property>
  <property name="meta.media.height">1080</property>
  <property name="meta.media.top_field_first">0</property>
  <property name="meta.media.progressive">1</property>
  <property name="kdenlive:file_size">901761937</property>
  <property name="kdenlive:file_hash">e643de28a1251c248d7eb82cd5d9834e</property>
  <property name="global_feed">1</property>
  <filter id="filter4">
   <property name="version">0,3</property>
   <property name="mlt_service">frei0r.levels</property>
   <property name="kdenlive_id">frei0r.levels</property>
   <property name="tag">frei0r.levels</property>
   <property name="kdenlive_ix">1</property>
   <property name="kdenlive_info"/>
   <property name="Channel">0,3</property>
   <property name="Input black level">0=0,144</property>
   <property name="Input white level">0=0,697</property>
   <property name="Gamma">0=0,18925</property>
   <property name="Black output">0=0</property>
   <property name="White output">0=0,87</property>
   <property name="Show histogram">0</property>
   <property name="Histogram position">0,3</property>
   <property name="disable">0</property>
  </filter>
  <filter id="filter5">
   <property name="mlt_service">avfilter.lut3d</property>
   <property name="kdenlive_id">avfilter.lut3d</property>
   <property name="tag">avfilter.lut3d</property>
   <property name="kdenlive_ix">2</property>
   <property name="kdenlive_info"/>
   <property name="av.file">/media/bordun/plagiat/Clip02_RespecteLaPuissancePapale/LUT/test.CUBE</property>
   <property name="av.interp">tetrahedral </property>
   <property name="disable">0</property>
  </filter>
  <filter id="frei0r.saturat0r">
   <property name="version">0,3</property>
   <property name="mlt_service">frei0r.saturat0r</property>
   <property name="kdenlive_id">frei0r.saturat0r</property>
   <property name="tag">frei0r.saturat0r</property>
   <property name="kdenlive_ix">3</property>
   <property name="kdenlive_info"/>
   <property name="Saturation">0=0,077</property>
   <property name="disable">0</property>
  </filter>
  <filter id="frei0r.hueshift0r">
   <property name="version">0,3</property>
   <property name="mlt_service">frei0r.hueshift0r</property>
   <property name="kdenlive_id">frei0r.hueshift0r</property>
   <property name="tag">frei0r.hueshift0r</property>
   <property name="kdenlive_ix">4</property>
   <property name="kdenlive_info"/>
   <property name="Hue">0=0,0194444</property>
  </filter>
 </producer>
 <playlist id="main bin">
  <property name="kdenlive:docproperties.audiotargettrack">2</property>
  <property name="kdenlive:docproperties.decimalPoint">,</property>
  <property name="kdenlive:docproperties.dirtypreviewchunks">0,25,50,75,100,125,150,175,200,225,250,275,300,325,350,375,400,425,450,475,500,525,550,575,600,625,650,675,700,725,750,775,800,825,850,875,900,925,950,975,1000,1025,1050,1075,1100,1125,1150,1175,1200,1225,1250,1275,1300,1325,1350,1375,1400,1425,1450,1475,1500,1525,1550,1575,1600,1625,1650,1675,1700,1725,1750,1775,1800,1825,1850,1875,1900,1925,1950,1975,2000,2025,2050,2075,2100,2125,2150,2175,2200,2225,2250,2275,2300,2325,2350,2375,2400,2425,2450,2475,2500,2525,2550,2575,2600,2625,2650,2675,2700,2725,2750,2775,2800,2825,2850,2875,2900,2925,2950,2975,3000,3025,3050,3075,3100,3125,3150,3175,3200,3225,3250,3275,3300,3325,3350,3375,3400,3425,3450,3475,3500,3525,3550,3575,3600,3625,3650,3675,3700,3725,3750,3775,3800,3825,3850,3875,3900,3925,3950,3975,4000,4025,4050,4075,4100,4125,4150,4175,4200,4225,4250,4275,4300,4325,4350,4375,4400,4425,4450,4475,4500,4525,4550,4575,4600,4625,4650,4675,4700,4725,4750,4775,4800,4825,4850,4875,4900,4925,4950</property>
  <property name="kdenlive:docproperties.disablepreview">0</property>
  <property name="kdenlive:docproperties.documentid">1547739419641</property>
  <property name="kdenlive:docproperties.enableproxy">0</property>
  <property name="kdenlive:docproperties.generateimageproxy">0</property>
  <property name="kdenlive:docproperties.generateproxy">1</property>
  <property name="kdenlive:docproperties.kdenliveversion">18.12.1</property>
  <property name="kdenlive:docproperties.position">27096</property>
  <property name="kdenlive:docproperties.previewchunks"/>
  <property name="kdenlive:docproperties.previewextension">mov</property>
  <property name="kdenlive:docproperties.previewparameters">r=50 s=1920x1080 vb=72M threads=0 vcodec=dnxhd</property>
  <property name="kdenlive:docproperties.profile">atsc_1080p_50</property>
  <property name="kdenlive:docproperties.proxyextension">mkv</property>
  <property name="kdenlive:docproperties.proxyimageminsize">2000</property>
  <property name="kdenlive:docproperties.proxyminsize">1000</property>
  <property name="kdenlive:docproperties.proxyparams">-vf yadif,scale=960:-2 -qscale 3 -vcodec mjpeg -acodec pcm_s16le</property>
  <property name="kdenlive:docproperties.version">0.96</property>
  <property name="kdenlive:docproperties.verticalzoom">1</property>
  <property name="kdenlive:docproperties.videotargettrack">3</property>
  <property name="kdenlive:docproperties.zonein">0</property>
  <property name="kdenlive:docproperties.zoneout">2004</property>
  <property name="kdenlive:docproperties.zoom">11</property>
  <property name="kdenlive:documentnotes"/>
  <property name="kdenlive:clipgroups"/>
  <property name="kdenlive:folder.-1.5">Part I - Le5</property>
  <property name="kdenlive:folder.-1.6">Part II - Ballade</property>
  <property name="kdenlive:folder.-1.7">Part III - AfroTrap</property>
  <property name="kdenlive:folder.5.9">Autel</property>
  <property name="kdenlive:folder.5.10">ContrePlongee</property>
  <property name="kdenlive:folder.6.11">NanoChiottes</property>
  <property name="kdenlive:folder.6.12">MissyPiano</property>
  <property name="kdenlive:folder.5.13">Trap</property>
  <property name="kdenlive:folder.5.14">InstruRefrain</property>
  <property name="kdenlive:folder.-1.15">Part IV - Meshuggah</property>
  <property name="kdenlive:docproperties.renderaudioquality">320</property>
  <property name="kdenlive:docproperties.rendercategory">Personnalisé</property>
  <property name="kdenlive:docproperties.renderendguide">-1</property>
  <property name="kdenlive:docproperties.renderexportaudio">2</property>
  <property name="kdenlive:docproperties.renderguide">0</property>
  <property name="kdenlive:docproperties.renderplay">0</property>
  <property name="kdenlive:docproperties.renderprofile">MP4HD</property>
  <property name="kdenlive:docproperties.renderquality">10</property>
  <property name="kdenlive:docproperties.renderratio">1</property>
  <property name="kdenlive:docproperties.renderrescale">0</property>
  <property name="kdenlive:docproperties.renderrescaleheight">720</property>
  <property name="kdenlive:docproperties.renderrescalewidth">1280</property>
  <property name="kdenlive:docproperties.renderscanning">0</property>
  <property name="kdenlive:docproperties.renderspeed">2</property>
  <property name="kdenlive:docproperties.renderstartguide">-1</property>
  <property name="kdenlive:docproperties.rendertcoverlay">0</property>
  <property name="kdenlive:docproperties.rendertctype">0</property>
  <property name="kdenlive:docproperties.rendertwopass">0</property>
  <property name="kdenlive:docproperties.renderurl">/media/bordun/plagiat/Clip02_RespecteLaPuissancePapale/Rendus/2019-12-03-RLPP-beatch.mp4</property>
  <property name="kdenlive:docproperties.renderzone">1</property>
  <property name="kdenlive:folder.-1.16">Colors</property>
  <property name="kdenlive:customeffects">&lt;customeffects>
 &lt;effect type="custom" unique="1" id="rumble" tag="oldfilm" kdenlive_info="0/-1/" effectcolor="#c92c3e" disable="0">
  &lt;name>rumble&lt;/name>
  &lt;description>Moves the Picture up and down and random brightness change&lt;/description>
  &lt;author>Marco Gittler&lt;/author>
  &lt;parameter type="double" name="delta" value="11" min="0" max="400" default="14">
   &lt;name>Y-Delta&lt;/name>
  &lt;/parameter>
  &lt;parameter type="double" suffix="%" name="every" value="100" min="0" max="100" default="20">
   &lt;name>% of picture have a delta&lt;/name>
  &lt;/parameter>
  &lt;parameter type="double" name="brightnessdelta_up" value="0" min="0" max="100" default="20">
   &lt;name>Brightness up&lt;/name>
  &lt;/parameter>
  &lt;parameter type="double" name="brightnessdelta_down" value="0" min="0" max="100" default="30">
   &lt;name>Brightness down&lt;/name>
  &lt;/parameter>
  &lt;parameter type="double" suffix="%" name="brightnessdelta_every" value="100" min="0" max="100" default="70">
   &lt;name>Brightness every&lt;/name>
  &lt;/parameter>
  &lt;parameter type="double" name="unevendevelop_up" value="0" min="0" max="100" default="60">
   &lt;name>Unevendevelop up&lt;/name>
  &lt;/parameter>
  &lt;parameter type="double" name="unevendevelop_down" value="0" min="0" max="100" default="20">
   &lt;name>Unevendevelop down&lt;/name>
  &lt;/parameter>
  &lt;parameter type="double" name="unevendevelop_duration" value="0" min="0" max="10000" default="70">
   &lt;name>Unevendevelop Duration&lt;/name>
  &lt;/parameter>
  &lt;version>0,2&lt;/version>
  &lt;version>0,2&lt;/version>
 &lt;/effect>
&lt;/customeffects>
</property>
  <property name="kdenlive:folder.-1.17">Logo</property>
  <property name="kdenlive:folder.-1.18">Lavaré</property>
  <property name="kdenlive:folder.-1.19">Beatch</property>
  <property name="kdenlive:folder.-1.20">powerpoint</property>
  <property name="kdenlive:folder.-1.21">SUBS</property>
  <property name="kdenlive:folder.21.22">SS4FR</property>
  <property name="kdenlive:folder.-1.25">CREDITS</property>
  <property name="kdenlive:folder.25.23">Starring</property>
  <property name="kdenlive:folder.25.26">DIVERS</property>
  <property name="xml_retain">1</property>
  <entry producer="1" in="0" out="14561"/>
  <entry producer="5" in="0" out="19246"/>
  <entry producer="4" in="0" out="24870"/>
  <entry producer="3" in="0" out="11635"/>
  <entry producer="2" in="0" out="11667"/>
  <entry producer="6" in="0" out="4178"/>
  <entry producer="7" in="0" out="8532"/>
  <entry producer="16" in="0" out="2403"/>
  <entry producer="17" in="0" out="2706"/>
  <entry producer="18" in="0" out="1547"/>
  <entry producer="19" in="0" out="2823"/>
  <entry producer="20" in="0" out="995"/>
  <entry producer="21" in="0" out="8367"/>
  <entry producer="23" in="0" out="90"/>
  <entry producer="24" in="0" out="2194"/>
  <entry producer="22" in="0" out="2303"/>
  <entry producer="14" in="0" out="3805"/>
  <entry producer="15" in="0" out="3941"/>
  <entry producer="10" in="0" out="3856"/>
  <entry producer="9" in="0" out="7720"/>
  <entry producer="11" in="0" out="21338"/>
  <entry producer="8" in="0" out="21621"/>
  <entry producer="25" in="0" out="4317"/>
  <entry producer="26" in="0" out="2406"/>
  <entry producer="13" in="0" out="4748"/>
  <entry producer="12" in="0" out="23600"/>
  <entry producer="27" in="0" out="7640"/>
  <entry producer="28" in="0" out="7733"/>
  <entry producer="29" in="0" out="249"/>
  <entry producer="30" in="0" out="249"/>
  <entry producer="32" in="0" out="252"/>
  <entry producer="33" in="0" out="252"/>
  <entry producer="34" in="0" out="252"/>
  <blank length="250"/>
  <entry producer="36" in="0" out="250"/>
  <entry producer="37" in="0" out="44957"/>
  <entry producer="38" in="0" out="250"/>
  <entry producer="39" in="0" out="250"/>
  <entry producer="40" in="0" out="18113"/>
  <entry producer="41" in="0" out="497"/>
  <entry producer="42" in="0" out="815"/>
  <entry producer="43" in="0" out="249"/>
  <entry producer="44" in="0" out="249"/>
  <entry producer="45" in="0" out="249"/>
  <entry producer="46" in="0" out="249"/>
  <entry producer="48" in="0" out="43907"/>
  <entry producer="49" in="0" out="3983"/>
  <entry producer="50" in="0" out="5323"/>
  <entry producer="51" in="0" out="9041"/>
  <entry producer="52" in="0" out="3953"/>
  <entry producer="53" in="0" out="5863"/>
  <entry producer="54" in="0" out="6601"/>
  <entry producer="55" in="0" out="10077"/>
  <entry producer="56" in="0" out="10454"/>
  <entry producer="57" in="0" out="19885"/>
  <entry producer="58" in="0" out="9289"/>
  <entry producer="59" in="0" out="10702"/>
  <entry producer="60" in="0" out="11268"/>
  <entry producer="61" in="0" out="42317"/>
  <entry producer="62" in="0" out="1689"/>
  <entry producer="63" in="0" out="3049"/>
  <entry producer="66" in="0" out="249"/>
  <entry producer="68" in="0" out="9961"/>
  <entry producer="47" in="0" out="451"/>
  <entry producer="65" in="0" out="451"/>
  <entry producer="70" in="0" out="249"/>
  <entry producer="71" in="0" out="6482"/>
  <entry producer="72" in="0" out="21387"/>
  <entry producer="73" in="0" out="6172"/>
  <entry producer="74" in="0" out="381"/>
  <entry producer="75" in="0" out="381"/>
  <entry producer="76" in="0" out="30874"/>
  <entry producer="77" in="0" out="1033"/>
  <entry producer="81" in="0" out="249"/>
  <entry producer="87" in="0" out="1999"/>
  <entry producer="88" in="0" out="3549"/>
  <entry producer="89" in="0" out="2149"/>
  <entry producer="90" in="0" out="1999"/>
  <entry producer="92" in="0" out="249"/>
  <entry producer="93" in="0" out="249"/>
  <entry producer="94" in="0" out="249"/>
  <entry producer="95" in="0" out="249"/>
  <entry producer="96" in="0" out="249"/>
  <entry producer="97" in="0" out="149"/>
  <entry producer="98" in="0" out="149"/>
  <entry producer="91" in="0" out="149"/>
  <entry producer="99" in="0" out="249"/>
  <entry producer="100" in="0" out="149"/>
  <entry producer="101" in="0" out="149"/>
  <entry producer="102" in="0" out="149"/>
  <entry producer="103" in="0" out="149"/>
  <entry producer="104" in="0" out="149"/>
  <entry producer="105" in="0" out="149"/>
  <entry producer="106" in="0" out="149"/>
  <entry producer="107" in="0" out="149"/>
  <entry producer="108" in="0" out="149"/>
  <entry producer="109" in="0" out="149"/>
  <entry producer="110" in="0" out="904"/>
  <entry producer="111" in="0" out="149"/>
  <entry producer="112" in="0" out="904"/>
  <entry producer="113" in="0" out="149"/>
  <entry producer="114" in="0" out="904"/>
  <entry producer="115" in="0" out="149"/>
  <entry producer="116" in="0" out="149"/>
  <entry producer="117" in="0" out="904"/>
  <entry producer="118" in="0" out="149"/>
  <entry producer="119" in="0" out="904"/>
  <entry producer="120" in="0" out="149"/>
  <entry producer="121" in="0" out="149"/>
  <entry producer="122" in="0" out="904"/>
  <entry producer="123" in="0" out="600"/>
  <entry producer="124" in="0" out="149"/>
  <entry producer="125" in="0" out="600"/>
  <entry producer="126" in="0" out="3613"/>
  <entry producer="127" in="0" out="17047"/>
  <entry producer="128" in="0" out="3901"/>
  <entry producer="129" in="0" out="2020"/>
 </playlist>
 <producer id="black" in="0" out="114270">
  <property name="length">114271</property>
  <property name="eof">pause</property>
  <property name="resource">black</property>
  <property name="aspect_ratio">0</property>
  <property name="mlt_service">colour</property>
  <property name="set.test_audio">0</property>
 </producer>
 <playlist id="black_track">
  <entry producer="black" in="0" out="50561"/>
 </playlist>
 <playlist id="playlist1">
  <property name="kdenlive:audio_track">1</property>
  <property name="kdenlive:track_name">Audio 2</property>
  <property name="kdenlive:locked_track">0</property>
 </playlist>
 <producer title="Anonymous Submission" id="72_playlist2" in="0" out="21387">
  <property name="length">00:07:07:38</property>
  <property name="eof">pause</property>
  <property name="resource">/media/bordun/plagiat2/beatch.wav</property>
  <property name="audio_index">0</property>
  <property name="video_index">-1</property>
  <property name="mute_on_pause">1</property>
  <property name="mlt_service">avformat-novalidate</property>
  <property name="seekable">1</property>
  <property name="kdenlive:file_size">123193028</property>
  <property name="kdenlive:file_hash">2885f91df8fd17da6b401454046cd2dc</property>
  <property name="global_feed">1</property>
  <property name="xml">was here</property>
  <property name="meta.media.nb_streams">1</property>
  <property name="meta.media.0.stream.type">audio</property>
  <property name="meta.media.0.codec.sample_fmt">s32</property>
  <property name="meta.media.0.codec.sample_rate">48000</property>
  <property name="meta.media.0.codec.channels">2</property>
  <property name="meta.media.0.codec.name">pcm_s24le</property>
  <property name="meta.media.0.codec.long_name">PCM signed 24-bit little-endian</property>
  <property name="meta.media.0.codec.bit_rate">2304000</property>
 </producer>
 <playlist id="playlist2">
  <property name="kdenlive:audio_track">1</property>
  <property name="kdenlive:track_name">Audio 1</property>
  <property name="kdenlive:locked_track">0</property>
  <entry producer="72_playlist2" in="206" out="2209"/>
  <blank length="720"/>
  <entry producer="72_playlist2" in="2921" out="3194"/>
  <entry producer="72_playlist2" in="3195" out="6463"/>
  <blank length="2608"/>
  <entry producer="72_playlist2" in="7500" out="9645"/>
  <blank length="799"/>
  <entry producer="72_playlist2" in="11187" out="13173"/>
 </playlist>
 <playlist id="playlist3">
  <property name="kdenlive:track_name">Vidéo 1</property>
  <property name="kdenlive:locked_track">0</property>
  <blank length="45211"/>
  <entry producer="87" in="0" out="1999"/>
 </playlist>
 <producer title="Anonymous Submission" id="76_playlist4" in="0" out="30874">
  <property name="length">00:10:17:25</property>
  <property name="eof">pause</property>
  <property name="resource">/media/bordun/plagiat/Clip02_RespecteLaPuissancePapale/Audio/2018-12-06_RespecteLaPuissancePapale_Clip_Part2.ogg</property>
  <property name="audio_index">0</property>
  <property name="video_index">-1</property>
  <property name="mute_on_pause">1</property>
  <property name="mlt_service">avformat-novalidate</property>
  <property name="seekable">1</property>
  <property name="kdenlive:file_size">7987508</property>
  <property name="kdenlive:file_hash">1beb4403c02618d7a0d096f3b3dbe38b</property>
  <property name="global_feed">1</property>
  <property name="xml">was here</property>
  <property name="meta.media.nb_streams">1</property>
  <property name="meta.media.0.stream.type">audio</property>
  <property name="meta.media.0.codec.sample_fmt">fltp</property>
  <property name="meta.media.0.codec.sample_rate">48000</property>
  <property name="meta.media.0.codec.channels">2</property>
  <property name="meta.media.0.codec.name">vorbis</property>
  <property name="meta.media.0.codec.long_name">Vorbis</property>
  <property name="meta.media.0.codec.bit_rate">128000</property>
  <property name="meta.attr.0.stream.disc.markup">0</property>
  <property name="meta.attr.0.stream.ENCODER.markup">libsndfile</property>
 </producer>
 <playlist id="playlist4">
  <property name="kdenlive:track_name">Vidéo 2</property>
  <property name="kdenlive:locked_track">0</property>
  <blank length="26007"/>
  <entry producer="76_playlist4" in="21623" out="30874"/>
 </playlist>
 <producer title="Anonymous Submission" id="72_playlist5" in="0" out="21387">
  <property name="length">00:07:07:38</property>
  <property name="eof">pause</property>
  <property name="resource">/media/bordun/plagiat2/beatch.wav</property>
  <property name="audio_index">0</property>
  <property name="video_index">-1</property>
  <property name="mute_on_pause">1</property>
  <property name="mlt_service">avformat-novalidate</property>
  <property name="seekable">1</property>
  <property name="kdenlive:file_size">123193028</property>
  <property name="kdenlive:file_hash">2885f91df8fd17da6b401454046cd2dc</property>
  <property name="global_feed">1</property>
  <property name="xml">was here</property>
  <property name="meta.media.nb_streams">1</property>
  <property name="meta.media.0.stream.type">audio</property>
  <property name="meta.media.0.codec.sample_fmt">s32</property>
  <property name="meta.media.0.codec.sample_rate">48000</property>
  <property name="meta.media.0.codec.channels">2</property>
  <property name="meta.media.0.codec.name">pcm_s24le</property>
  <property name="meta.media.0.codec.long_name">PCM signed 24-bit little-endian</property>
  <property name="meta.media.0.codec.bit_rate">2304000</property>
 </producer>
 <playlist id="playlist5">
  <property name="kdenlive:track_name">Vidéo 3</property>
  <property name="kdenlive:locked_track">0</property>
  <entry producer="30" in="0" out="2003"/>
  <blank length="720"/>
  <entry producer="30" in="2131" out="2404"/>
  <entry producer="30" in="2405" out="5673"/>
  <blank length="2608"/>
  <entry producer="30" in="2131" out="4276"/>
  <blank length="799"/>
  <entry producer="30" in="2131" out="4117"/>
  <blank length="878"/>
  <entry producer="30" in="2131" out="2631"/>
  <entry producer="30" in="2632" out="4131"/>
  <blank length="11740"/>
  <entry producer="72_playlist5" in="206" out="2209"/>
  <blank length="127"/>
  <entry producer="72_playlist5" in="2921" out="6480"/>
  <blank length="1298"/>
  <entry producer="72_playlist5" in="7500" out="9645"/>
  <blank length="1974"/>
  <entry producer="72_playlist5" in="11187" out="13173"/>
  <blank length="284"/>
  <entry producer="72_playlist5" in="14633" out="18037"/>
  <blank length="2000"/>
  <entry producer="72_playlist5" in="18038" out="21387"/>
 </playlist>
 <producer title="Anonymous Submission" id="53_playlist0" in="0" out="5863">
  <property name="length">00:01:57:14</property>
  <property name="eof">pause</property>
  <property name="resource">/media/bordun/plagiat2/CAM1_2019-01-05_0853_C0005.mov</property>
  <property name="audio_index">2</property>
  <property name="video_index">1</property>
  <property name="mute_on_pause">1</property>
  <property name="mlt_service">avformat-novalidate</property>
  <property name="seekable">1</property>
  <property name="aspect_ratio">1</property>
  <property name="kdenlive:folderid">18</property>
  <property name="kdenlive:file_size">1827394553</property>
  <property name="kdenlive:file_hash">f1252aea4a9073267c53ed9979db2a79</property>
  <property name="global_feed">1</property>
  <property name="xml">was here</property>
  <property name="meta.media.nb_streams">3</property>
  <property name="meta.media.1.stream.type">video</property>
  <property name="meta.media.1.stream.frame_rate">25</property>
  <property name="meta.media.1.stream.sample_aspect_ratio">1</property>
  <property name="meta.media.1.codec.width">1920</property>
  <property name="meta.media.1.codec.height">1080</property>
  <property name="meta.media.1.codec.rotate">0</property>
  <property name="meta.media.1.codec.frame_rate">2500</property>
  <property name="meta.media.1.codec.pix_fmt">yuv422p10le</property>
  <property name="meta.media.1.codec.sample_aspect_ratio">0</property>
  <property name="meta.media.1.codec.colorspace">709</property>
  <property name="meta.media.1.codec.color_trc">1</property>
  <property name="meta.media.1.codec.name">prores</property>
  <property name="meta.media.1.codec.long_name">ProRes</property>
  <property name="meta.media.1.codec.bit_rate">122316105</property>
  <property name="meta.attr.1.stream.creation_time.markup">2019-01-05T08:53:39.000000Z</property>
  <property name="meta.attr.1.stream.language.markup">eng</property>
  <property name="meta.attr.1.stream.handler_name.markup">Apple Alias Data Handler</property>
  <property name="meta.attr.1.stream.encoder.markup">Apple ProRes 422</property>
  <property name="meta.attr.1.stream.timecode.markup">08:53:39:10</property>
  <property name="meta.media.2.stream.type">audio</property>
  <property name="meta.media.2.codec.sample_fmt">s32</property>
  <property name="meta.media.2.codec.sample_rate">48000</property>
  <property name="meta.media.2.codec.channels">2</property>
  <property name="meta.media.2.codec.name">pcm_s24le</property>
  <property name="meta.media.2.codec.long_name">PCM signed 24-bit little-endian</property>
  <property name="meta.media.2.codec.bit_rate">2304000</property>
  <property name="meta.attr.2.stream.creation_time.markup">2019-01-05T08:53:39.000000Z</property>
  <property name="meta.attr.2.stream.language.markup">eng</property>
  <property name="meta.attr.2.stream.handler_name.markup">Apple Alias Data Handler</property>
  <property name="meta.attr.2.stream.timecode.markup">08:53:39:10</property>
  <property name="meta.attr.com.apple.proapps.manufacturer.markup">Blackmagic Design</property>
  <property name="meta.attr.com.apple.proapps.cameraName.markup">CAM1</property>
  <property name="meta.attr.com.apple.proapps.isGood.markup">0</property>
  <property name="meta.attr.com.apple.proapps.customgamma.markup">com.blackmagic-design.cinemacamera.filmlog</property>
  <property name="meta.attr.com.blackmagic-design.cinemacamera.uuid.markup">18E5E00548F94923B646613A73C01B56</property>
  <property name="meta.attr.creation_time.markup">2019-01-05T08:53:39.000000Z</property>
  <property name="meta.attr.timecode.markup">08:53:39:10</property>
  <property name="meta.media.sample_aspect_num">1</property>
  <property name="meta.media.sample_aspect_den">1</property>
  <property name="meta.media.frame_rate_num">25</property>
  <property name="meta.media.frame_rate_den">1</property>
  <property name="meta.media.colorspace">709</property>
  <property name="meta.media.color_trc">1</property>
  <property name="meta.media.width">1920</property>
  <property name="meta.media.height">1080</property>
  <property name="meta.media.top_field_first">0</property>
  <property name="meta.media.progressive">1</property>
 </producer>
 <producer title="Anonymous Submission" id="51_playlist0" in="0" out="9041">
  <property name="length">00:03:00:42</property>
  <property name="eof">pause</property>
  <property name="resource">/media/bordun/plagiat2/CAM1_2019-01-05_0910_C0007.mov</property>
  <property name="audio_index">2</property>
  <property name="video_index">1</property>
  <property name="mute_on_pause">1</property>
  <property name="mlt_service">avformat-novalidate</property>
  <property name="seekable">1</property>
  <property name="aspect_ratio">1</property>
  <property name="kdenlive:folderid">18</property>
  <property name="kdenlive:file_size">2817746417</property>
  <property name="kdenlive:file_hash">b3e4bc9ce3280bb8753bd5e36ee0b214</property>
  <property name="global_feed">1</property>
  <property name="xml">was here</property>
  <property name="meta.media.nb_streams">3</property>
  <property name="meta.media.1.stream.type">video</property>
  <property name="meta.media.1.stream.frame_rate">25</property>
  <property name="meta.media.1.stream.sample_aspect_ratio">1</property>
  <property name="meta.media.1.codec.width">1920</property>
  <property name="meta.media.1.codec.height">1080</property>
  <property name="meta.media.1.codec.rotate">0</property>
  <property name="meta.media.1.codec.frame_rate">2500</property>
  <property name="meta.media.1.codec.pix_fmt">yuv422p10le</property>
  <property name="meta.media.1.codec.sample_aspect_ratio">0</property>
  <property name="meta.media.1.codec.colorspace">709</property>
  <property name="meta.media.1.codec.color_trc">1</property>
  <property name="meta.media.1.codec.name">prores</property>
  <property name="meta.media.1.codec.long_name">ProRes</property>
  <property name="meta.media.1.codec.bit_rate">122315670</property>
  <property name="meta.attr.1.stream.creation_time.markup">2019-01-05T09:10:10.000000Z</property>
  <property name="meta.attr.1.stream.language.markup">eng</property>
  <property name="meta.attr.1.stream.handler_name.markup">Apple Alias Data Handler</property>
  <property name="meta.attr.1.stream.encoder.markup">Apple ProRes 422</property>
  <property name="meta.attr.1.stream.timecode.markup">09:10:10:17</property>
  <property name="meta.media.2.stream.type">audio</property>
  <property name="meta.media.2.codec.sample_fmt">s32</property>
  <property name="meta.media.2.codec.sample_rate">48000</property>
  <property name="meta.media.2.codec.channels">2</property>
  <property name="meta.media.2.codec.name">pcm_s24le</property>
  <property name="meta.media.2.codec.long_name">PCM signed 24-bit little-endian</property>
  <property name="meta.media.2.codec.bit_rate">2304000</property>
  <property name="meta.attr.2.stream.creation_time.markup">2019-01-05T09:10:10.000000Z</property>
  <property name="meta.attr.2.stream.language.markup">eng</property>
  <property name="meta.attr.2.stream.handler_name.markup">Apple Alias Data Handler</property>
  <property name="meta.attr.2.stream.timecode.markup">09:10:10:17</property>
  <property name="meta.attr.com.apple.proapps.manufacturer.markup">Blackmagic Design</property>
  <property name="meta.attr.com.apple.proapps.cameraName.markup">CAM1</property>
  <property name="meta.attr.com.apple.proapps.isGood.markup">0</property>
  <property name="meta.attr.com.apple.proapps.customgamma.markup">com.blackmagic-design.cinemacamera.filmlog</property>
  <property name="meta.attr.com.blackmagic-design.cinemacamera.uuid.markup">18E5E00548F94923B646613A73C01B56</property>
  <property name="meta.attr.creation_time.markup">2019-01-05T09:10:10.000000Z</property>
  <property name="meta.attr.timecode.markup">09:10:10:17</property>
  <property name="meta.media.sample_aspect_num">1</property>
  <property name="meta.media.sample_aspect_den">1</property>
  <property name="meta.media.frame_rate_num">25</property>
  <property name="meta.media.frame_rate_den">1</property>
  <property name="meta.media.colorspace">709</property>
  <property name="meta.media.color_trc">1</property>
  <property name="meta.media.width">1920</property>
  <property name="meta.media.height">1080</property>
  <property name="meta.media.top_field_first">0</property>
  <property name="meta.media.progressive">1</property>
 </producer>
 <producer title="Anonymous Submission" id="50_playlist0" in="0" out="5323">
  <property name="length">00:01:46:24</property>
  <property name="eof">pause</property>
  <property name="resource">/media/bordun/plagiat2/CAM1_2019-01-05_0915_C0008.mov</property>
  <property name="audio_index">2</property>
  <property name="video_index">1</property>
  <property name="mute_on_pause">1</property>
  <property name="mlt_service">avformat-novalidate</property>
  <property name="seekable">1</property>
  <property name="aspect_ratio">1</property>
  <property name="kdenlive:folderid">18</property>
  <property name="kdenlive:file_size">1659116449</property>
  <property name="kdenlive:file_hash">f8aa56141d75527d7246be55a57cf7dd</property>
  <property name="global_feed">1</property>
  <property name="kdenlive:zone_in">3078</property>
  <property name="kdenlive:zone_out">5224</property>
  <property name="xml">was here</property>
  <property name="meta.media.nb_streams">3</property>
  <property name="meta.media.1.stream.type">video</property>
  <property name="meta.media.1.stream.frame_rate">25</property>
  <property name="meta.media.1.stream.sample_aspect_ratio">1</property>
  <property name="meta.media.1.codec.width">1920</property>
  <property name="meta.media.1.codec.height">1080</property>
  <property name="meta.media.1.codec.rotate">0</property>
  <property name="meta.media.1.codec.frame_rate">2500</property>
  <property name="meta.media.1.codec.pix_fmt">yuv422p10le</property>
  <property name="meta.media.1.codec.sample_aspect_ratio">0</property>
  <property name="meta.media.1.codec.colorspace">709</property>
  <property name="meta.media.1.codec.color_trc">1</property>
  <property name="meta.media.1.codec.name">prores</property>
  <property name="meta.media.1.codec.long_name">ProRes</property>
  <property name="meta.media.1.codec.bit_rate">122315341</property>
  <property name="meta.attr.1.stream.creation_time.markup">2019-01-05T09:15:40.000000Z</property>
  <property name="meta.attr.1.stream.language.markup">eng</property>
  <property name="meta.attr.1.stream.handler_name.markup">Apple Alias Data Handler</property>
  <property name="meta.attr.1.stream.encoder.markup">Apple ProRes 422</property>
  <property name="meta.attr.1.stream.timecode.markup">09:15:40:03</property>
  <property name="meta.media.2.stream.type">audio</property>
  <property name="meta.media.2.codec.sample_fmt">s32</property>
  <property name="meta.media.2.codec.sample_rate">48000</property>
  <property name="meta.media.2.codec.channels">2</property>
  <property name="meta.media.2.codec.name">pcm_s24le</property>
  <property name="meta.media.2.codec.long_name">PCM signed 24-bit little-endian</property>
  <property name="meta.media.2.codec.bit_rate">2304000</property>
  <property name="meta.attr.2.stream.creation_time.markup">2019-01-05T09:15:40.000000Z</property>
  <property name="meta.attr.2.stream.language.markup">eng</property>
  <property name="meta.attr.2.stream.handler_name.markup">Apple Alias Data Handler</property>
  <property name="meta.attr.2.stream.timecode.markup">09:15:40:03</property>
  <property name="meta.attr.com.apple.proapps.manufacturer.markup">Blackmagic Design</property>
  <property name="meta.attr.com.apple.proapps.cameraName.markup">CAM1</property>
  <property name="meta.attr.com.apple.proapps.isGood.markup">0</property>
  <property name="meta.attr.com.apple.proapps.customgamma.markup">com.blackmagic-design.cinemacamera.filmlog</property>
  <property name="meta.attr.com.blackmagic-design.cinemacamera.uuid.markup">18E5E00548F94923B646613A73C01B56</property>
  <property name="meta.attr.creation_time.markup">2019-01-05T09:15:40.000000Z</property>
  <property name="meta.attr.timecode.markup">09:15:40:03</property>
  <property name="meta.media.sample_aspect_num">1</property>
  <property name="meta.media.sample_aspect_den">1</property>
  <property name="meta.media.frame_rate_num">25</property>
  <property name="meta.media.frame_rate_den">1</property>
  <property name="meta.media.colorspace">709</property>
  <property name="meta.media.color_trc">1</property>
  <property name="meta.media.width">1920</property>
  <property name="meta.media.height">1080</property>
  <property name="meta.media.top_field_first">0</property>
  <property name="meta.media.progressive">1</property>
 </producer>
 <producer title="Anonymous Submission" id="49_playlist0" in="0" out="3983">
  <property name="length">00:01:19:34</property>
  <property name="eof">pause</property>
  <property name="resource">/media/bordun/plagiat2/CAM1_2019-01-05_0918_C0009.mov</property>
  <property name="audio_index">2</property>
  <property name="video_index">1</property>
  <property name="mute_on_pause">1</property>
  <property name="mlt_service">avformat-novalidate</property>
  <property name="seekable">1</property>
  <property name="aspect_ratio">1</property>
  <property name="kdenlive:folderid">18</property>
  <property name="kdenlive:file_size">1241534665</property>
  <property name="kdenlive:file_hash">3298342aecc7a336c57ca6af427a29f7</property>
  <property name="global_feed">1</property>
  <property name="xml">was here</property>
  <property name="meta.media.nb_streams">3</property>
  <property name="meta.media.1.stream.type">video</property>
  <property name="meta.media.1.stream.frame_rate">25</property>
  <property name="meta.media.1.stream.sample_aspect_ratio">1</property>
  <property name="meta.media.1.codec.width">1920</property>
  <property name="meta.media.1.codec.height">1080</property>
  <property name="meta.media.1.codec.rotate">0</property>
  <property name="meta.media.1.codec.frame_rate">2500</property>
  <property name="meta.media.1.codec.pix_fmt">yuv422p10le</property>
  <property name="meta.media.1.codec.sample_aspect_ratio">0</property>
  <property name="meta.media.1.codec.colorspace">709</property>
  <property name="meta.media.1.codec.color_trc">1</property>
  <property name="meta.media.1.codec.name">prores</property>
  <property name="meta.media.1.codec.long_name">ProRes</property>
  <property name="meta.media.1.codec.bit_rate">122316581</property>
  <property name="meta.attr.1.stream.creation_time.markup">2019-01-05T09:18:25.000000Z</property>
  <property name="meta.attr.1.stream.language.markup">eng</property>
  <property name="meta.attr.1.stream.handler_name.markup">Apple Alias Data Handler</property>
  <property name="meta.attr.1.stream.encoder.markup">Apple ProRes 422</property>
  <property name="meta.attr.1.stream.timecode.markup">09:18:25:03</property>
  <property name="meta.media.2.stream.type">audio</property>
  <property name="meta.media.2.codec.sample_fmt">s32</property>
  <property name="meta.media.2.codec.sample_rate">48000</property>
  <property name="meta.media.2.codec.channels">2</property>
  <property name="meta.media.2.codec.name">pcm_s24le</property>
  <property name="meta.media.2.codec.long_name">PCM signed 24-bit little-endian</property>
  <property name="meta.media.2.codec.bit_rate">2304000</property>
  <property name="meta.attr.2.stream.creation_time.markup">2019-01-05T09:18:25.000000Z</property>
  <property name="meta.attr.2.stream.language.markup">eng</property>
  <property name="meta.attr.2.stream.handler_name.markup">Apple Alias Data Handler</property>
  <property name="meta.attr.2.stream.timecode.markup">09:18:25:03</property>
  <property name="meta.attr.com.apple.proapps.manufacturer.markup">Blackmagic Design</property>
  <property name="meta.attr.com.apple.proapps.cameraName.markup">CAM1</property>
  <property name="meta.attr.com.apple.proapps.isGood.markup">0</property>
  <property name="meta.attr.com.apple.proapps.customgamma.markup">com.blackmagic-design.cinemacamera.filmlog</property>
  <property name="meta.attr.com.blackmagic-design.cinemacamera.uuid.markup">18E5E00548F94923B646613A73C01B56</property>
  <property name="meta.attr.creation_time.markup">2019-01-05T09:18:25.000000Z</property>
  <property name="meta.attr.timecode.markup">09:18:25:03</property>
  <property name="meta.media.sample_aspect_num">1</property>
  <property name="meta.media.sample_aspect_den">1</property>
  <property name="meta.media.frame_rate_num">25</property>
  <property name="meta.media.frame_rate_den">1</property>
  <property name="meta.media.colorspace">709</property>
  <property name="meta.media.color_trc">1</property>
  <property name="meta.media.width">1920</property>
  <property name="meta.media.height">1080</property>
  <property name="meta.media.top_field_first">0</property>
  <property name="meta.media.progressive">1</property>
 </producer>
 <playlist id="playlist0">
  <property name="kdenlive:track_name">Vidéo 4</property>
  <property name="kdenlive:locked_track">0</property>
  <entry producer="53_playlist0" in="3829" out="5832">
   <filter id="filter6">
    <property name="version">0,1</property>
    <property name="mlt_service">frei0r.alphaspot</property>
    <property name="kdenlive_id">frei0r.alphaspot</property>
    <property name="tag">frei0r.alphaspot</property>
    <property name="kdenlive_ix">1</property>
    <property name="Shape">0,0</property>
    <property name="Position X">3829=0</property>
    <property name="Position Y">3829=0,432</property>
    <property name="Size X">3829=0,125</property>
    <property name="Size Y">3829=0,575</property>
    <property name="Tilt">3829=0</property>
    <property name="Transition width">3829=0</property>
    <property name="Min">3829=0</property>
    <property name="Max">3829=1</property>
    <property name="Operation">1,0</property>
    <property name="kdenlive_info">1/-1/</property>
    <property name="disable">0</property>
   </filter>
   <filter id="rotoscoping">
    <property name="mode">alpha</property>
    <property name="alpha_operation">sub</property>
    <property name="invert">0</property>
    <property name="feather">0</property>
    <property name="feather_passes">1</property>
    <property name="mlt_service">rotoscoping</property>
    <property name="kdenlive_id">rotoscoping</property>
    <property name="tag">rotoscoping</property>
    <property name="kdenlive_ix">2</property>
    <property name="spline">[
    [
        [
            0.8568361581920904,
            -0.07652228499686128
        ],
        [
            0.827683615819209,
            -0.04839924670433145
        ],
        [
            0.827909604519774,
            0.02110483364720656
        ]
    ],
    [
        [
            0.811638418079096,
            0.4405398618957941
        ],
        [
            0.811864406779661,
            0.5100439422473321
        ],
        [
            0.8389830508474577,
            0.5096421845574387
        ]
    ],
    [
        [
            0.9971751412429377,
            0.5084369114877588
        ],
        [
            1.0242937853107346,
            0.5080351537978657
        ],
        [
            1.0261016949152542,
            0.4108097928436911
        ]
    ],
    [
        [
            1.117401129943503,
            0.010659133709981165
        ],
        [
            1.1192090395480225,
            -0.08656622724419336
        ],
        [
            1.0900564971751412,
            -0.058443188951663526
        ]
    ]
]
</property>
    <property name="kdenlive_info">1/-1/</property>
    <property name="disable">0</property>
   </filter>
   <filter id="filter7" in="3829" out="5863">
    <property name="background">colour:0x00000000</property>
    <property name="mlt_service">affine</property>
    <property name="kdenlive_id">pan_zoom</property>
    <property name="tag">affine</property>
    <property name="kdenlive_ix">3</property>
    <property name="transition.geometry">-68/56:1920x1080:100</property>
    <property name="transition.distort">0</property>
    <property name="kdenlive:sync_in_out">1</property>
    <property name="disable">0</property>
    <property name="kdenlive_info">1/-1/</property>
   </filter>
   <filter id="filter8">
    <property name="version">0,1</property>
    <property name="mlt_service">frei0r.alphaspot</property>
    <property name="kdenlive_id">frei0r.alphaspot</property>
    <property name="tag">frei0r.alphaspot</property>
    <property name="kdenlive_ix">4</property>
    <property name="Shape">0,0</property>
    <property name="Position X">3829=0,778</property>
    <property name="Position Y">3829=0,367</property>
    <property name="Size X">3829=0,103</property>
    <property name="Size Y">3829=0,184</property>
    <property name="Tilt">3829=0</property>
    <property name="Transition width">3829=0,2</property>
    <property name="Min">3829=0</property>
    <property name="Max">3829=1</property>
    <property name="Operation">1,0</property>
    <property name="kdenlive_info">1/-1/</property>
    <property name="disable">0</property>
   </filter>
  </entry>
  <blank length="720"/>
  <entry producer="51_playlist0" in="5297" out="8839">
   <filter id="filter9">
    <property name="version">0,1</property>
    <property name="mlt_service">frei0r.alphaspot</property>
    <property name="kdenlive_id">frei0r.alphaspot</property>
    <property name="tag">frei0r.alphaspot</property>
    <property name="kdenlive_info">1/-1/</property>
    <property name="kdenlive_ix">1</property>
    <property name="disable">0</property>
    <property name="Shape">0,0</property>
    <property name="Position X">5297=0</property>
    <property name="Position Y">5297=0,432</property>
    <property name="Size X">5297=0,125</property>
    <property name="Size Y">5297=0,575</property>
    <property name="Tilt">5297=0</property>
    <property name="Transition width">5297=0</property>
    <property name="Min">5297=0</property>
    <property name="Max">5297=1</property>
    <property name="Operation">1,0</property>
   </filter>
   <filter id="filter10">
    <property name="mode">alpha</property>
    <property name="alpha_operation">sub</property>
    <property name="invert">0</property>
    <property name="feather">2</property>
    <property name="feather_passes">1</property>
    <property name="mlt_service">rotoscoping</property>
    <property name="kdenlive_id">rotoscoping</property>
    <property name="tag">rotoscoping</property>
    <property name="kdenlive_info">1/-1/</property>
    <property name="kdenlive_ix">2</property>
    <property name="disable">0</property>
    <property name="spline">[
    [
        [
            0.8811785739826933,
            0.44201721137571814
        ],
        [
            0.8818565400843883,
            0.5187529301453352
        ],
        [
            0.8866023027962526,
            0.5183511724554419
        ]
    ],
    [
        [
            0.9031943983928538,
            0.5123354405096521
        ],
        [
            0.9079401611047182,
            0.5119336828197587
        ],
        [
            0.9088441159069781,
            0.5167547750984781
        ]
    ],
    [
        [
            0.912022780909286,
            0.5248426335875381
        ],
        [
            0.9129267357115459,
            0.5296637258662575
        ],
        [
            0.9156386001183257,
            0.5288602104864709
        ]
    ],
    [
        [
            0.9236402644769949,
            0.5318310907111594
        ],
        [
            0.9263521288837745,
            0.5310275753313728
        ],
        [
            0.9283860271888592,
            0.5318310907111594
        ]
    ],
    [
        [
            0.9373600410888547,
            0.5377252320097202
        ],
        [
            0.9393939393939394,
            0.5385287473895068
        ],
        [
            0.9421058038007192,
            0.5385287473895068
        ]
    ],
    [
        [
            0.9485731375111338,
            0.5412564463197375
        ],
        [
            0.9512850019179134,
            0.5412564463197375
        ],
        [
            0.9558047759292129,
            0.5464792962883502
        ]
    ],
    [
        [
            0.9793697541820264,
            0.5742213813743527
        ],
        [
            0.9838895281933258,
            0.5794442313429655
        ],
        [
            0.9875053474023653,
            0.5790424736530723
        ]
    ],
    [
        [
            1.0794642213178098,
            0.5837069473780617
        ],
        [
            1.083080040526849,
            0.5833051896881685
        ],
        [
            1.0801421874195047,
            0.5017483786398319
        ]
    ],
    [
        [
            1.1143866879604352,
            -0.023193836255502337
        ],
        [
            1.1114488348530902,
            -0.1047506473038388
        ],
        [
            1.0924657840056327,
            -0.10916998189266493
        ]
    ],
    [
        [
            0.9062097482007373,
            -0.014184424521262179
        ],
        [
            0.8872266973532796,
            -0.0186037591100883
        ],
        [
            0.8879046634549747,
            0.058131959659528824
        ]
    ]
]
</property>
   </filter>
   <filter id="filter11">
    <property name="version">0,1</property>
    <property name="mlt_service">frei0r.alphaspot</property>
    <property name="kdenlive_id">frei0r.alphaspot</property>
    <property name="tag">frei0r.alphaspot</property>
    <property name="kdenlive_ix">3</property>
    <property name="Shape">0,0</property>
    <property name="Position X">5297=1</property>
    <property name="Position Y">5297=0,5</property>
    <property name="Size X">5297=0,025</property>
    <property name="Size Y">5297=0,473</property>
    <property name="Tilt">5297=0,5</property>
    <property name="Transition width">5297=0</property>
    <property name="Min">5297=0</property>
    <property name="Max">5297=1</property>
    <property name="Operation">1,0</property>
    <property name="kdenlive_info">1/-1/</property>
    <property name="disable">0</property>
   </filter>
  </entry>
  <blank length="2608"/>
  <entry producer="50_playlist0" in="3078" out="5223">
   <filter id="filter12">
    <property name="version">0,1</property>
    <property name="mlt_service">frei0r.alphaspot</property>
    <property name="kdenlive_id">frei0r.alphaspot</property>
    <property name="tag">frei0r.alphaspot</property>
    <property name="kdenlive_info">1/-1/</property>
    <property name="kdenlive_ix">1</property>
    <property name="disable">0</property>
    <property name="Shape">0,0</property>
    <property name="Position X">3078=0</property>
    <property name="Position Y">3078=0,432</property>
    <property name="Size X">3078=0,125</property>
    <property name="Size Y">3078=0,575</property>
    <property name="Tilt">3078=0</property>
    <property name="Transition width">3078=0</property>
    <property name="Min">3078=0</property>
    <property name="Max">3078=1</property>
    <property name="Operation">1,0</property>
   </filter>
   <filter id="filter13">
    <property name="mode">alpha</property>
    <property name="alpha_operation">sub</property>
    <property name="invert">0</property>
    <property name="feather">7</property>
    <property name="feather_passes">1</property>
    <property name="mlt_service">rotoscoping</property>
    <property name="kdenlive_id">rotoscoping</property>
    <property name="tag">rotoscoping</property>
    <property name="kdenlive_info"/>
    <property name="kdenlive_ix">2</property>
    <property name="disable">0</property>
    <property name="spline">{
    "3078": [
        [
            [
                0.883954802259887,
                -0.030320150659133717
            ],
            [
                0.8548022598870056,
                -0.002197112366603892
            ],
            [
                0.8550282485875706,
                0.06730696798493413
            ]
        ],
        [
            [
                0.8873446327683615,
                0.5670935342121782
            ],
            [
                0.8875706214689265,
                0.6365976145637162
            ],
            [
                0.9146892655367231,
                0.636195856873823
            ]
        ],
        [
            [
                0.9836158192090392,
                0.6249466415568109
            ],
            [
                1.010734463276836,
                0.6245448838669178
            ],
            [
                1.0125423728813556,
                0.5273195229127432
            ]
        ],
        [
            [
                1.0021468926553674,
                0.05887005649717515
            ],
            [
                1.003954802259887,
                -0.03835530445699937
            ],
            [
                0.9748022598870055,
                -0.010232266164469537
            ]
        ]
    ],
    "4784": [
        [
            [
                0.883954802259887,
                -0.030320150659133717
            ],
            [
                0.8548022598870056,
                -0.002197112366603892
            ],
            [
                0.8550282485875706,
                0.06730696798493413
            ]
        ],
        [
            [
                0.8873446327683615,
                0.5670935342121782
            ],
            [
                0.8875706214689265,
                0.6365976145637162
            ],
            [
                0.9146892655367231,
                0.636195856873823
            ]
        ],
        [
            [
                0.9836158192090392,
                0.6249466415568109
            ],
            [
                1.010734463276836,
                0.6245448838669178
            ],
            [
                1.0125423728813556,
                0.5273195229127432
            ]
        ],
        [
            [
                1.0021468926553674,
                0.05887005649717515
            ],
            [
                1.003954802259887,
                -0.03835530445699937
            ],
            [
                0.9748022598870055,
                -0.010232266164469537
            ]
        ]
    ],
    "4787": [
        [
            [
                0.883954802259887,
                -0.030320150659133717
            ],
            [
                0.8548022598870056,
                -0.002197112366603892
            ],
            [
                0.8550282485875706,
                0.06730696798493413
            ]
        ],
        [
            [
                0.8873446327683615,
                0.5670935342121782
            ],
            [
                0.8875706214689265,
                0.6365976145637162
            ],
            [
                0.9146892655367231,
                0.636195856873823
            ]
        ],
        [
            [
                0.9836158192090392,
                0.6249466415568109
            ],
            [
                1.010734463276836,
                0.6245448838669178
            ],
            [
                1.0125423728813556,
                0.5273195229127432
            ]
        ],
        [
            [
                1.0021468926553674,
                0.05887005649717515
            ],
            [
                1.003954802259887,
                -0.03835530445699937
            ],
            [
                0.9748022598870055,
                -0.010232266164469537
            ]
        ]
    ],
    "4789": [
        [
            [
                0.883954802259887,
                -0.030320150659133717
            ],
            [
                0.8548022598870056,
                -0.002197112366603892
            ],
            [
                0.8550282485875706,
                0.06730696798493413
            ]
        ],
        [
            [
                0.8872883956492624,
                0.5230672020931623
            ],
            [
                0.8875143843498274,
                0.5925712824447001
            ],
            [
                0.9146330284176241,
                0.592169524754807
            ]
        ],
        [
            [
                0.9836158192090392,
                0.6249466415568109
            ],
            [
                1.010734463276836,
                0.6245448838669178
            ],
            [
                1.0125423728813556,
                0.5273195229127432
            ]
        ],
        [
            [
                1.0021468926553674,
                0.05887005649717515
            ],
            [
                1.003954802259887,
                -0.03835530445699937
            ],
            [
                0.9748022598870055,
                -0.010232266164469537
            ]
        ]
    ],
    "4792": [
        [
            [
                0.883954802259887,
                -0.030320150659133717
            ],
            [
                0.8548022598870056,
                -0.002197112366603892
            ],
            [
                0.8550282485875706,
                0.06730696798493413
            ]
        ],
        [
            [
                0.8872894911775565,
                0.5239248579136626
            ],
            [
                0.8875154798781215,
                0.5934289382652005
            ],
            [
                0.9146341239459181,
                0.5930271805753073
            ]
        ],
        [
            [
                0.9836158192090392,
                0.6249466415568109
            ],
            [
                1.010734463276836,
                0.6245448838669178
            ],
            [
                1.0125423728813556,
                0.5273195229127432
            ]
        ],
        [
            [
                1.0021468926553674,
                0.05887005649717515
            ],
            [
                1.003954802259887,
                -0.03835530445699937
            ],
            [
                0.9748022598870055,
                -0.010232266164469537
            ]
        ]
    ],
    "4795": [
        [
            [
                0.883954802259887,
                -0.030320150659133717
            ],
            [
                0.8548022598870056,
                -0.002197112366603892
            ],
            [
                0.8550282485875706,
                0.06730696798493413
            ]
        ],
        [
            [
                0.8884391436354535,
                0.487266153633886
            ],
            [
                0.8886651323360185,
                0.5567702339854239
            ],
            [
                0.9157837764038151,
                0.5563684762955308
            ]
        ],
        [
            [
                0.9836158192090392,
                0.6249466415568109
            ],
            [
                1.010734463276836,
                0.6245448838669178
            ],
            [
                1.0125423728813556,
                0.5273195229127432
            ]
        ],
        [
            [
                1.0021468926553674,
                0.05887005649717515
            ],
            [
                1.003954802259887,
                -0.03835530445699937
            ],
            [
                0.9748022598870055,
                -0.010232266164469537
            ]
        ]
    ],
    "4800": [
        [
            [
                0.883954802259887,
                -0.030320150659133717
            ],
            [
                0.8548022598870056,
                -0.002197112366603892
            ],
            [
                0.8550282485875706,
                0.06730696798493413
            ]
        ],
        [
            [
                0.8884021669169706,
                0.48996302459936875
            ],
            [
                0.8886281556175356,
                0.5594671049509067
            ],
            [
                0.9157467996853322,
                0.5590653472610135
            ]
        ],
        [
            [
                0.9836158192090392,
                0.6249466415568109
            ],
            [
                1.010734463276836,
                0.6245448838669178
            ],
            [
                1.0125423728813556,
                0.5273195229127432
            ]
        ],
        [
            [
                1.0021468926553674,
                0.05887005649717515
            ],
            [
                1.003954802259887,
                -0.03835530445699937
            ],
            [
                0.9748022598870055,
                -0.010232266164469537
            ]
        ]
    ],
    "4801": [
        [
            [
                0.883954802259887,
                -0.030320150659133717
            ],
            [
                0.8548022598870056,
                -0.002197112366603892
            ],
            [
                0.8550282485875706,
                0.06730696798493413
            ]
        ],
        [
            [
                0.889014517628549,
                0.5015865730175965
            ],
            [
                0.889240506329114,
                0.5710906533691344
            ],
            [
                0.9163591503969106,
                0.5706888956792412
            ]
        ],
        [
            [
                0.9836158192090392,
                0.6249466415568109
            ],
            [
                1.010734463276836,
                0.6245448838669178
            ],
            [
                1.0125423728813556,
                0.5273195229127432
            ]
        ],
        [
            [
                1.0021468926553674,
                0.05887005649717515
            ],
            [
                1.003954802259887,
                -0.03835530445699937
            ],
            [
                0.9748022598870055,
                -0.010232266164469537
            ]
        ]
    ],
    "4803": [
        [
            [
                0.883954802259887,
                -0.030320150659133717
            ],
            [
                0.8548022598870056,
                -0.002197112366603892
            ],
            [
                0.8550282485875706,
                0.06730696798493413
            ]
        ],
        [
            [
                0.8872883956492624,
                0.5128383311047975
            ],
            [
                0.8875143843498274,
                0.5823424114563355
            ],
            [
                0.9146330284176241,
                0.5819406537664423
            ]
        ],
        [
            [
                0.9835257748044702,
                0.635934298285725
            ],
            [
                1.010644418872267,
                0.6355325405958318
            ],
            [
                1.0124523284767866,
                0.5383071796416573
            ]
        ],
        [
            [
                1.0021468926553674,
                0.05887005649717515
            ],
            [
                1.003954802259887,
                -0.03835530445699937
            ],
            [
                0.9748022598870055,
                -0.010232266164469537
            ]
        ]
    ],
    "4807": [
        [
            [
                0.883954802259887,
                -0.030320150659133717
            ],
            [
                0.8548022598870056,
                -0.002197112366603892
            ],
            [
                0.8550282485875706,
                0.06730696798493413
            ]
        ],
        [
            [
                0.891316013600931,
                0.5353418472791996
            ],
            [
                0.8915420023014959,
                0.6048459276307377
            ],
            [
                0.9186606463692927,
                0.6044441699408446
            ]
        ],
        [
            [
                0.9835283475017437,
                0.6356203652363275
            ],
            [
                1.0106469915695402,
                0.6352186075464342
            ],
            [
                1.01245490117406,
                0.5379932465922598
            ]
        ],
        [
            [
                1.0021468926553674,
                0.05887005649717515
            ],
            [
                1.003954802259887,
                -0.03835530445699937
            ],
            [
                0.9748022598870055,
                -0.010232266164469537
            ]
        ]
    ],
    "4942": [
        [
            [
                0.883954802259887,
                -0.030320150659133717
            ],
            [
                0.8548022598870056,
                -0.002197112366603892
            ],
            [
                0.8550282485875706,
                0.06730696798493413
            ]
        ],
        [
            [
                0.8873446327683615,
                0.5670935342121782
            ],
            [
                0.8875706214689265,
                0.6365976145637162
            ],
            [
                0.9146892655367231,
                0.636195856873823
            ]
        ],
        [
            [
                0.9836158192090392,
                0.6249466415568109
            ],
            [
                1.010734463276836,
                0.6245448838669178
            ],
            [
                1.0125423728813556,
                0.5273195229127432
            ]
        ],
        [
            [
                1.0021468926553674,
                0.05887005649717515
            ],
            [
                1.003954802259887,
                -0.03835530445699937
            ],
            [
                0.9748022598870055,
                -0.010232266164469537
            ]
        ]
    ],
    "4949": [
        [
            [
                0.883954802259887,
                -0.030320150659133717
            ],
            [
                0.8548022598870056,
                -0.002197112366603892
            ],
            [
                0.8550282485875706,
                0.06730696798493413
            ]
        ],
        [
            [
                0.9054237288135594,
                0.324030131826742
            ],
            [
                0.9056497175141244,
                0.39353421217828
            ],
            [
                0.932768361581921,
                0.3931324544883868
            ]
        ],
        [
            [
                0.9777720348735152,
                0.5622864271694995
            ],
            [
                1.004890678941312,
                0.5618846694796062
            ],
            [
                1.0066985885458315,
                0.46465930852543175
            ]
        ],
        [
            [
                1.0021468926553674,
                0.05887005649717515
            ],
            [
                1.003954802259887,
                -0.03835530445699937
            ],
            [
                0.9748022598870055,
                -0.010232266164469537
            ]
        ]
    ],
    "4957": [
        [
            [
                0.883954802259887,
                -0.030320150659133717
            ],
            [
                0.8548022598870056,
                -0.002197112366603892
            ],
            [
                0.8550282485875706,
                0.06730696798493413
            ]
        ],
        [
            [
                0.8872883956492624,
                0.0024176687854010046
            ],
            [
                0.8875143843498274,
                0.07192174913693901
            ],
            [
                0.9146330284176241,
                0.07151999144704581
            ]
        ],
        [
            [
                1.012294474459246,
                0.1572231360302589
            ],
            [
                1.0394131185270428,
                0.1568213783403657
            ],
            [
                1.0412210281315624,
                0.05959601738619118
            ]
        ],
        [
            [
                1.0021468926553674,
                0.05887005649717515
            ],
            [
                1.003954802259887,
                -0.03835530445699937
            ],
            [
                0.9748022598870055,
                -0.010232266164469537
            ]
        ]
    ],
    "4966": [
        [
            [
                0.8746646252267365,
                -0.14543540244033698
            ],
            [
                0.845512082853855,
                -0.1173123641478072
            ],
            [
                0.84573807155442,
                -0.04780828379626917
            ]
        ],
        [
            [
                0.889014517628549,
                -0.08350484751686216
            ],
            [
                0.889240506329114,
                -0.014000767165324128
            ],
            [
                0.9163591503969106,
                -0.01440252485521734
            ]
        ],
        [
            [
                1.0088422305006728,
                -0.012576122376594464
            ],
            [
                1.0359608745684696,
                -0.012977880066487662
            ],
            [
                1.037768784172989,
                -0.11020324102066217
            ]
        ],
        [
            [
                1.0021468926553674,
                0.05887005649717515
            ],
            [
                1.003954802259887,
                -0.03835530445699937
            ],
            [
                0.9748022598870055,
                -0.010232266164469537
            ]
        ]
    ],
    "5008": [
        [
            [
                0.8746646252267365,
                -0.14543540244033698
            ],
            [
                0.845512082853855,
                -0.1173123641478072
            ],
            [
                0.84573807155442,
                -0.04780828379626917
            ]
        ],
        [
            [
                0.889014517628549,
                -0.08350484751686216
            ],
            [
                0.889240506329114,
                -0.014000767165324128
            ],
            [
                0.9163591503969106,
                -0.01440252485521734
            ]
        ],
        [
            [
                1.0088422305006728,
                -0.012576122376594464
            ],
            [
                1.0359608745684696,
                -0.012977880066487662
            ],
            [
                1.037768784172989,
                -0.11020324102066217
            ]
        ],
        [
            [
                1.0021468926553674,
                0.05887005649717515
            ],
            [
                1.003954802259887,
                -0.03835530445699937
            ],
            [
                0.9748022598870055,
                -0.010232266164469537
            ]
        ]
    ],
    "5009": [
        [
            [
                0.9789988492520139,
                -0.03650428333972638
            ],
            [
                0.9053509781357882,
                -0.02832118654903465
            ],
            [
                0.7966052934407365,
                -0.0027490090781230013
            ]
        ],
        [
            [
                0.8828248587570621,
                0.6072693032015065
            ],
            [
                0.8830508474576271,
                0.6767733835530445
            ],
            [
                0.964614499424626,
                0.512786088735456
            ]
        ],
        [
            [
                0.8972957422324511,
                0.5434727017005498
            ],
            [
                0.8748561565017262,
                0.4831223628691984
            ],
            [
                0.9168584579976985,
                0.33275795934023783
            ]
        ],
        [
            [
                0.9219550363103252,
                0.2959851103468351
            ],
            [
                0.9237629459148448,
                0.1987597493926608
            ],
            [
                0.8834867663981588,
                0.11692878148574351
            ]
        ]
    ],
    "5011": [
        [
            [
                1.0440161104718066,
                -0.040595831735072245
            ],
            [
                0.9053509781357882,
                -0.02832118654903465
            ],
            [
                0.7966052934407365,
                -0.0027490090781230013
            ]
        ],
        [
            [
                0.8828248587570621,
                0.6072693032015065
            ],
            [
                0.8830508474576271,
                0.6767733835530445
            ],
            [
                1.0146720368239357,
                0.5485871371947322
            ]
        ],
        [
            [
                0.9346950517836594,
                0.5506329113924051
            ],
            [
                0.9122554660529345,
                0.4902825725610536
            ],
            [
                0.9433256616800921,
                0.3307121851425649
            ]
        ],
        [
            [
                0.9594361334867665,
                0.2867280398925969
            ],
            [
                0.9582853855005754,
                0.18239355581127734
            ],
            [
                0.9306674338319908,
                0.10056258790436005
            ]
        ]
    ],
    "5013": [
        [
            [
                1.1481588032220944,
                -0.07946554149085795
            ],
            [
                0.9053509781357882,
                -0.02832118654903465
            ],
            [
                0.7966052934407365,
                -0.0027490090781230013
            ]
        ],
        [
            [
                0.8828248587570621,
                0.6072693032015065
            ],
            [
                0.8830508474576271,
                0.6767733835530445
            ],
            [
                1.055523590333717,
                0.5475642500958956
            ]
        ],
        [
            [
                0.9686421173762946,
                0.5506329113924051
            ],
            [
                0.9462025316455697,
                0.4902825725610536
            ],
            [
                0.9772727272727273,
                0.3307121851425649
            ]
        ],
        [
            [
                0.9882048331415422,
                0.24478966884030173
            ],
            [
                0.9870540851553511,
                0.14045518475898222
            ],
            [
                1.027330264672037,
                0.045326684567190884
            ]
        ]
    ],
    "5015": [
        [
            [
                1.1481588032220944,
                -0.07946554149085795
            ],
            [
                0.9053509781357882,
                -0.02832118654903465
            ],
            [
                0.7966052934407365,
                -0.0027490090781230013
            ]
        ],
        [
            [
                0.8828248587570621,
                0.6072693032015065
            ],
            [
                0.8830508474576271,
                0.6767733835530445
            ],
            [
                1.1055811277330265,
                0.6498529599795423
            ]
        ],
        [
            [
                0.9985615650172612,
                0.544495588799386
            ],
            [
                0.9761219792865362,
                0.48414524996803476
            ],
            [
                1.0071921749136938,
                0.3245748625495461
            ]
        ],
        [
            [
                1.0066168009205985,
                0.23762945914844644
            ],
            [
                1.0054660529344075,
                0.13329497506712698
            ],
            [
                1.0457422324510934,
                0.038166474875335636
            ]
        ]
    ],
    "5017": [
        [
            [
                1.1481588032220944,
                -0.07946554149085795
            ],
            [
                0.9053509781357882,
                -0.02832118654903465
            ],
            [
                0.7966052934407365,
                -0.0027490090781230013
            ]
        ],
        [
            [
                0.8828248587570621,
                0.6072693032015065
            ],
            [
                0.8830508474576271,
                0.6767733835530445
            ],
            [
                1.1055811277330265,
                0.6498529599795423
            ]
        ],
        [
            [
                1.0532220943613348,
                0.6897455568341642
            ],
            [
                1.03078250863061,
                0.629395218002813
            ],
            [
                1.0618527042577675,
                0.4698248305843243
            ]
        ],
        [
            [
                1.0066168009205985,
                0.23762945914844644
            ],
            [
                1.0054660529344075,
                0.13329497506712698
            ],
            [
                1.0457422324510934,
                0.038166474875335636
            ]
        ]
    ]
}
</property>
   </filter>
   <filter id="gamma">
    <property name="gamma">3078=0,95</property>
    <property name="mlt_service">gamma</property>
    <property name="kdenlive_id">gamma</property>
    <property name="tag">gamma</property>
    <property name="kdenlive_ix">3</property>
    <property name="kdenlive_info">0/-1/</property>
    <property name="disable">0</property>
   </filter>
   <filter id="frei0r.brightness">
    <property name="version">0,2</property>
    <property name="mlt_service">frei0r.brightness</property>
    <property name="kdenlive_id">frei0r.brightness</property>
    <property name="tag">frei0r.brightness</property>
    <property name="kdenlive_ix">4</property>
    <property name="Brightness">0,45</property>
    <property name="kdenlive_info"/>
    <property name="disable">0</property>
   </filter>
  </entry>
  <blank length="799"/>
  <entry producer="50_playlist0" in="323" out="2309">
   <filter id="filter14">
    <property name="version">0,1</property>
    <property name="mlt_service">frei0r.alphaspot</property>
    <property name="kdenlive_id">frei0r.alphaspot</property>
    <property name="tag">frei0r.alphaspot</property>
    <property name="kdenlive_info">1/-1/</property>
    <property name="kdenlive_ix">1</property>
    <property name="disable">0</property>
    <property name="Shape">0,0</property>
    <property name="Position X">323=0</property>
    <property name="Position Y">323=0,432</property>
    <property name="Size X">323=0,125</property>
    <property name="Size Y">323=0,575</property>
    <property name="Tilt">323=0</property>
    <property name="Transition width">323=0</property>
    <property name="Min">323=0</property>
    <property name="Max">323=1</property>
    <property name="Operation">1,0</property>
   </filter>
   <filter id="filter15">
    <property name="mode">alpha</property>
    <property name="alpha_operation">sub</property>
    <property name="invert">0</property>
    <property name="feather">7</property>
    <property name="feather_passes">1</property>
    <property name="mlt_service">rotoscoping</property>
    <property name="kdenlive_id">rotoscoping</property>
    <property name="tag">rotoscoping</property>
    <property name="kdenlive_info">1/-1/</property>
    <property name="kdenlive_ix">2</property>
    <property name="disable">0</property>
    <property name="spline">{
    "0323": [
        [
            [
                0.883954802259887,
                -0.030320150659133717
            ],
            [
                0.8548022598870056,
                -0.002197112366603892
            ],
            [
                0.8550282485875706,
                0.06730696798493413
            ]
        ],
        [
            [
                0.8873446327683615,
                0.5670935342121782
            ],
            [
                0.8875706214689265,
                0.6365976145637162
            ],
            [
                0.9146892655367231,
                0.636195856873823
            ]
        ],
        [
            [
                0.9836158192090392,
                0.6249466415568109
            ],
            [
                1.010734463276836,
                0.6245448838669178
            ],
            [
                1.0125423728813556,
                0.5273195229127432
            ]
        ],
        [
            [
                1.0021468926553674,
                0.05887005649717515
            ],
            [
                1.003954802259887,
                -0.03835530445699937
            ],
            [
                0.9748022598870055,
                -0.010232266164469537
            ]
        ]
    ],
    "2092": [
        [
            [
                0.883954802259887,
                -0.030320150659133717
            ],
            [
                0.8548022598870056,
                -0.002197112366603892
            ],
            [
                0.8550282485875706,
                0.06730696798493413
            ]
        ],
        [
            [
                0.8873446327683615,
                0.5670935342121782
            ],
            [
                0.8875706214689265,
                0.6365976145637162
            ],
            [
                0.9146892655367231,
                0.636195856873823
            ]
        ],
        [
            [
                0.9836158192090392,
                0.6249466415568109
            ],
            [
                1.010734463276836,
                0.6245448838669178
            ],
            [
                1.0125423728813556,
                0.5273195229127432
            ]
        ],
        [
            [
                1.0021468926553674,
                0.05887005649717515
            ],
            [
                1.003954802259887,
                -0.03835530445699937
            ],
            [
                0.9748022598870055,
                -0.010232266164469537
            ]
        ]
    ],
    "2093": [
        [
            [
                0.883954802259887,
                -0.030320150659133717
            ],
            [
                0.8548022598870056,
                -0.002197112366603892
            ],
            [
                0.8550282485875706,
                0.06730696798493413
            ]
        ],
        [
            [
                0.8977410231904976,
                0.566539903793712
            ],
            [
                0.8979670118910625,
                0.63604398414525
            ],
            [
                0.9250856559588593,
                0.6356422264553568
            ]
        ],
        [
            [
                0.9836158192090392,
                0.6249466415568109
            ],
            [
                1.010734463276836,
                0.6245448838669178
            ],
            [
                1.0125423728813556,
                0.5273195229127432
            ]
        ],
        [
            [
                1.0021468926553674,
                0.05887005649717515
            ],
            [
                1.003954802259887,
                -0.03835530445699937
            ],
            [
                0.9748022598870055,
                -0.010232266164469537
            ]
        ]
    ],
    "2096": [
        [
            [
                0.883954802259887,
                -0.030320150659133717
            ],
            [
                0.8548022598870056,
                -0.002197112366603892
            ],
            [
                0.8550282485875706,
                0.06730696798493413
            ]
        ],
        [
            [
                0.9336401994629843,
                0.39191492988961335
            ],
            [
                0.9125431530494822,
                0.6278608873545583
            ],
            [
                0.9396617971172788,
                0.627459129664665
            ]
        ],
        [
            [
                0.9836158192090392,
                0.6249466415568109
            ],
            [
                1.010734463276836,
                0.6245448838669178
            ],
            [
                1.0125423728813556,
                0.5273195229127432
            ]
        ],
        [
            [
                1.0021468926553674,
                0.05887005649717515
            ],
            [
                1.003954802259887,
                -0.03835530445699937
            ],
            [
                0.9748022598870055,
                -0.010232266164469537
            ]
        ]
    ],
    "2099": [
        [
            [
                0.883954802259887,
                -0.030320150659133717
            ],
            [
                0.8548022598870056,
                -0.002197112366603892
            ],
            [
                0.8596087456846951,
                0.2848527468780633
            ]
        ],
        [
            [
                0.9693133870349062,
                0.3598644674594041
            ],
            [
                0.9482163406214039,
                0.5958104249243489
            ],
            [
                0.9753349846892008,
                0.5954086672344557
            ]
        ],
        [
            [
                0.9836158192090392,
                0.6249466415568109
            ],
            [
                1.010734463276836,
                0.6245448838669178
            ],
            [
                1.0125423728813556,
                0.5273195229127432
            ]
        ],
        [
            [
                1.0021468926553674,
                0.05887005649717515
            ],
            [
                1.003954802259887,
                -0.03835530445699937
            ],
            [
                0.9748022598870055,
                -0.010232266164469537
            ]
        ]
    ],
    "2101": [
        [
            [
                0.883954802259887,
                -0.030320150659133717
            ],
            [
                0.8548022598870056,
                -0.002197112366603892
            ],
            [
                0.83505945531262,
                0.3019008651920044
            ]
        ],
        [
            [
                0.9581894898350597,
                0.2773515748199291
            ],
            [
                0.9370924434215574,
                0.513297532284874
            ],
            [
                0.9642110874893542,
                0.5128957745949808
            ]
        ],
        [
            [
                0.9836158192090392,
                0.6249466415568109
            ],
            [
                1.010734463276836,
                0.6245448838669178
            ],
            [
                1.0125423728813556,
                0.5273195229127432
            ]
        ],
        [
            [
                1.0021468926553674,
                0.05887005649717515
            ],
            [
                1.003954802259887,
                -0.03835530445699937
            ],
            [
                0.9748022598870055,
                -0.010232266164469537
            ]
        ]
    ],
    "2105": [
        [
            [
                0.883954802259887,
                -0.030320150659133717
            ],
            [
                0.8548022598870056,
                -0.002197112366603892
            ],
            [
                0.83505945531262,
                0.3019008651920044
            ]
        ],
        [
            [
                0.8662255466052934,
                0.2795678302007416
            ],
            [
                0.9050632911392406,
                0.4832928440523377
            ],
            [
                0.9321819352070373,
                0.4828910863624445
            ]
        ],
        [
            [
                0.9836158192090392,
                0.6249466415568109
            ],
            [
                1.010734463276836,
                0.6245448838669178
            ],
            [
                1.0125423728813556,
                0.5273195229127432
            ]
        ],
        [
            [
                1.0021468926553674,
                0.05887005649717515
            ],
            [
                1.003954802259887,
                -0.03835530445699937
            ],
            [
                0.9748022598870055,
                -0.010232266164469537
            ]
        ]
    ],
    "2108": [
        [
            [
                0.883954802259887,
                -0.030320150659133717
            ],
            [
                0.8548022598870056,
                -0.002197112366603892
            ],
            [
                0.83505945531262,
                0.3019008651920044
            ]
        ],
        [
            [
                0.894131185270426,
                0.21734219835485652
            ],
            [
                0.8730341388569237,
                0.45328815581980136
            ],
            [
                0.9001527829247206,
                0.45288639812990816
            ]
        ],
        [
            [
                0.9836158192090392,
                0.6249466415568109
            ],
            [
                1.010734463276836,
                0.6245448838669178
            ],
            [
                1.0125423728813556,
                0.5273195229127432
            ]
        ],
        [
            [
                1.0021468926553674,
                0.05887005649717515
            ],
            [
                1.003954802259887,
                -0.03835530445699937
            ],
            [
                0.9748022598870055,
                -0.010232266164469537
            ]
        ]
    ],
    "2110": [
        [
            [
                0.883954802259887,
                -0.030320150659133717
            ],
            [
                0.8548022598870056,
                -0.002197112366603892
            ],
            [
                0.83505945531262,
                0.3019008651920044
            ]
        ],
        [
            [
                0.894131185270426,
                0.21734219835485652
            ],
            [
                0.8730341388569237,
                0.45328815581980136
            ],
            [
                0.9001527829247206,
                0.45288639812990816
            ]
        ],
        [
            [
                0.9836158192090392,
                0.6249466415568109
            ],
            [
                1.010734463276836,
                0.6245448838669178
            ],
            [
                1.0125423728813556,
                0.5273195229127432
            ]
        ],
        [
            [
                1.0021468926553674,
                0.05887005649717515
            ],
            [
                1.003954802259887,
                -0.03835530445699937
            ],
            [
                0.9748022598870055,
                -0.010232266164469537
            ]
        ]
    ],
    "2111": [
        [
            [
                0.883954802259887,
                -0.030320150659133717
            ],
            [
                0.8548022598870056,
                -0.002197112366603892
            ],
            [
                0.83505945531262,
                0.3019008651920044
            ]
        ],
        [
            [
                0.8995013425393174,
                0.26303115543621863
            ],
            [
                0.8784042961258152,
                0.4989771129011635
            ],
            [
                0.9055229401936119,
                0.4985753552112703
            ]
        ],
        [
            [
                0.9916769063733234,
                0.5061981179166332
            ],
            [
                1.0187955504411201,
                0.50579636022674
            ],
            [
                1.0206034600456397,
                0.40857099927256546
            ]
        ],
        [
            [
                1.0021468926553674,
                0.05887005649717515
            ],
            [
                1.003954802259887,
                -0.03835530445699937
            ],
            [
                0.9748022598870055,
                -0.010232266164469537
            ]
        ]
    ],
    "2113": [
        [
            [
                0.883954802259887,
                -0.030320150659133717
            ],
            [
                0.8548022598870056,
                -0.002197112366603892
            ],
            [
                0.83505945531262,
                0.3019008651920044
            ]
        ],
        [
            [
                0.9044879171461451,
                0.2889442952734091
            ],
            [
                0.883390870732643,
                0.524890252738354
            ],
            [
                0.9543536632144228,
                0.5876273281336573
            ]
        ],
        [
            [
                0.8657460682777139,
                0.44237736009887907
            ],
            [
                1.0187955504411201,
                0.50579636022674
            ],
            [
                1.0206034600456397,
                0.40857099927256546
            ]
        ],
        [
            [
                1.0021468926553674,
                0.05887005649717515
            ],
            [
                1.003954802259887,
                -0.03835530445699937
            ],
            [
                0.9748022598870055,
                -0.010232266164469537
            ]
        ]
    ],
    "2114": [
        [
            [
                0.883954802259887,
                -0.030320150659133717
            ],
            [
                0.8548022598870056,
                -0.002197112366603892
            ],
            [
                0.83505945531262,
                0.3019008651920044
            ]
        ],
        [
            [
                0.9083237437667819,
                0.29508161786642795
            ],
            [
                0.8872266973532796,
                0.5310275753313728
            ],
            [
                0.9393939393939393,
                0.5548949409708903
            ]
        ],
        [
            [
                0.8768699654775605,
                0.4266930912500532
            ],
            [
                1.0187955504411201,
                0.50579636022674
            ],
            [
                1.0206034600456397,
                0.40857099927256546
            ]
        ],
        [
            [
                1.0021468926553674,
                0.05887005649717515
            ],
            [
                1.003954802259887,
                -0.03835530445699937
            ],
            [
                0.9748022598870055,
                -0.010232266164469537
            ]
        ]
    ],
    "2115": [
        [
            [
                0.883954802259887,
                -0.030320150659133717
            ],
            [
                0.8548022598870056,
                -0.002197112366603892
            ],
            [
                0.83505945531262,
                0.3019008651920044
            ]
        ],
        [
            [
                0.9087073264288457,
                0.22757106934322113
            ],
            [
                0.8876102800153434,
                0.463517026808166
            ],
            [
                1.0168776371308017,
                0.539892596854622
            ]
        ],
        [
            [
                0.9282700421940929,
                0.2896262200059668
            ],
            [
                1.0314537782892215,
                0.37418488684311463
            ],
            [
                1.0332616878937408,
                0.27695952588894013
            ]
        ],
        [
            [
                1.0021468926553674,
                0.05887005649717515
            ],
            [
                1.003954802259887,
                -0.03835530445699937
            ],
            [
                0.9748022598870055,
                -0.010232266164469537
            ]
        ]
    ],
    "2116": [
        [
            [
                0.883954802259887,
                -0.030320150659133717
            ],
            [
                0.8548022598870056,
                -0.002197112366603892
            ],
            [
                0.83505945531262,
                0.3019008651920044
            ]
        ],
        [
            [
                0.9028576908323745,
                0.2195584537356689
            ],
            [
                0.8817606444188723,
                0.4555044112006138
            ],
            [
                1.0110280015343305,
                0.5318799812470693
            ]
        ],
        [
            [
                0.9282700421940929,
                0.2896262200059668
            ],
            [
                1.0314537782892215,
                0.37418488684311463
            ],
            [
                1.0332616878937408,
                0.27695952588894013
            ]
        ],
        [
            [
                1.0021468926553674,
                0.05887005649717515
            ],
            [
                1.003954802259887,
                -0.03835530445699937
            ],
            [
                0.9748022598870055,
                -0.010232266164469537
            ]
        ]
    ],
    "2117": [
        [
            [
                0.883954802259887,
                -0.030320150659133717
            ],
            [
                0.8548022598870056,
                -0.002197112366603892
            ],
            [
                0.83505945531262,
                0.3019008651920044
            ]
        ],
        [
            [
                0.9041043344840816,
                0.14028470357584275
            ],
            [
                0.8830072880705794,
                0.3762306610407876
            ],
            [
                1.0122746451860376,
                0.4526062310872438
            ]
        ],
        [
            [
                0.9282700421940929,
                0.2896262200059668
            ],
            [
                1.0314537782892215,
                0.37418488684311463
            ],
            [
                1.0332616878937408,
                0.27695952588894013
            ]
        ],
        [
            [
                1.0021468926553674,
                0.05887005649717515
            ],
            [
                1.003954802259887,
                -0.03835530445699937
            ],
            [
                0.9748022598870055,
                -0.010232266164469537
            ]
        ]
    ],
    "2118": [
        [
            [
                0.883954802259887,
                -0.030320150659133717
            ],
            [
                0.8548022598870056,
                -0.002197112366603892
            ],
            [
                0.83505945531262,
                0.3019008651920044
            ]
        ],
        [
            [
                0.9051591868047566,
                0.13875037292758807
            ],
            [
                0.8840621403912544,
                0.3746963303925329
            ],
            [
                1.0299514128628053,
                0.44675304379945735
            ]
        ],
        [
            [
                0.9552486894259047,
                0.252802284447854
            ],
            [
                1.0584324255210331,
                0.3373609512850019
            ],
            [
                1.0602403351255527,
                0.24013559033082735
            ]
        ],
        [
            [
                1.0021468926553674,
                0.05887005649717515
            ],
            [
                1.003954802259887,
                -0.03835530445699937
            ],
            [
                0.9748022598870055,
                -0.010232266164469537
            ]
        ]
    ],
    "2119": [
        [
            [
                0.883954802259887,
                -0.030320150659133717
            ],
            [
                0.8548022598870056,
                -0.002197112366603892
            ],
            [
                0.83505945531262,
                0.3019008651920044
            ]
        ],
        [
            [
                0.8998849252013811,
                0.04686101521544549
            ],
            [
                0.8787878787878789,
                0.28280697268039034
            ],
            [
                1.057920981971615,
                0.3462259728082512
            ]
        ],
        [
            [
                1.0092059838895282,
                0.17915441333162846
            ],
            [
                1.1123897199846566,
                0.2637130801687763
            ],
            [
                1.114197629589176,
                0.16648771921460181
            ]
        ],
        [
            [
                1.0021468926553674,
                0.05887005649717515
            ],
            [
                1.003954802259887,
                -0.03835530445699937
            ],
            [
                0.9748022598870055,
                -0.010232266164469537
            ]
        ]
    ],
    "2120": [
        [
            [
                0.883954802259887,
                -0.030320150659133717
            ],
            [
                0.8548022598870056,
                -0.002197112366603892
            ],
            [
                0.83505945531262,
                0.3019008651920044
            ]
        ],
        [
            [
                0.9028576908323745,
                0.041576098538123836
            ],
            [
                0.8817606444188723,
                0.2775220560030687
            ],
            [
                1.0608937476026084,
                0.3409410561309295
            ]
        ],
        [
            [
                1.0092059838895282,
                0.17915441333162846
            ],
            [
                1.1123897199846566,
                0.2637130801687763
            ],
            [
                1.114197629589176,
                0.16648771921460181
            ]
        ],
        [
            [
                1.0021468926553674,
                0.05887005649717515
            ],
            [
                1.003954802259887,
                -0.03835530445699937
            ],
            [
                0.9748022598870055,
                -0.010232266164469537
            ]
        ]
    ],
    "2121": [
        [
            [
                0.883954802259887,
                -0.030320150659133717
            ],
            [
                0.8548022598870056,
                -0.002197112366603892
            ],
            [
                0.83505945531262,
                0.3019008651920044
            ]
        ],
        [
            [
                0.8971998465669354,
                -0.05542769466820111
            ],
            [
                0.8761028001534331,
                0.18051826279674374
            ],
            [
                1.0552359033371694,
                0.24393726292460446
            ]
        ],
        [
            [
                1.0092059838895282,
                0.17915441333162846
            ],
            [
                1.1123897199846566,
                0.2637130801687763
            ],
            [
                1.114197629589176,
                0.16648771921460181
            ]
        ],
        [
            [
                1.0021468926553674,
                0.05887005649717515
            ],
            [
                1.003954802259887,
                -0.03835530445699937
            ],
            [
                0.9748022598870055,
                -0.010232266164469537
            ]
        ]
    ],
    "2122": [
        [
            [
                0.883954802259887,
                -0.030320150659133717
            ],
            [
                0.8548022598870056,
                -0.002197112366603892
            ],
            [
                0.839662447257384,
                0.2100683345409083
            ]
        ],
        [
            [
                0.9005561948599925,
                -0.057643950049013445
            ],
            [
                0.8794591484464902,
                0.17830200741593147
            ],
            [
                1.017037463239995,
                0.22467288922985115
            ]
        ],
        [
            [
                1.0030686612965094,
                0.1352839222037534
            ],
            [
                1.106252397391638,
                0.21984258904090123
            ],
            [
                1.1080603069961574,
                0.12261722808672675
            ]
        ],
        [
            [
                1.0021468926553674,
                0.05887005649717515
            ],
            [
                1.003954802259887,
                -0.03835530445699937
            ],
            [
                0.9748022598870055,
                -0.010232266164469537
            ]
        ]
    ],
    "2123": [
        [
            [
                0.883954802259887,
                -0.030320150659133717
            ],
            [
                0.8548022598870056,
                -0.002197112366603892
            ],
            [
                0.8488684311469122,
                0.0264032732387162
            ]
        ],
        [
            [
                0.9098580744150367,
                -0.16112602821463615
            ],
            [
                0.8887610280015344,
                0.07481992925030892
            ],
            [
                0.9432297660145763,
                0.08709457443634651
            ]
        ],
        [
            [
                0.990794016110472,
                0.047542939948003224
            ],
            [
                1.0939777522056005,
                0.13210160678515104
            ],
            [
                1.0957856618101198,
                0.034876245830976565
            ]
        ],
        [
            [
                1.0021468926553674,
                0.05887005649717515
            ],
            [
                1.003954802259887,
                -0.03835530445699937
            ],
            [
                0.9748022598870055,
                -0.010232266164469537
            ]
        ]
    ],
    "2124": [
        [
            [
                0.883954802259887,
                -0.030320150659133717
            ],
            [
                0.8548022598870056,
                -0.002197112366603892
            ],
            [
                0.8488684311469122,
                0.0264032732387162
            ]
        ],
        [
            [
                0.9091868047564252,
                -0.16504709542684237
            ],
            [
                0.888089758342923,
                0.07089886203810254
            ],
            [
                0.9425584963559648,
                0.08317350722414013
            ]
        ],
        [
            [
                0.9793824319140777,
                0.06305672761368968
            ],
            [
                1.082566168009206,
                0.14761539445083752
            ],
            [
                1.0843740776137254,
                0.050390033496663
            ]
        ],
        [
            [
                1.0021468926553674,
                0.05887005649717515
            ],
            [
                1.003954802259887,
                -0.03835530445699937
            ],
            [
                0.9748022598870055,
                -0.010232266164469537
            ]
        ]
    ],
    "2125": [
        [
            [
                0.883954802259887,
                -0.030320150659133717
            ],
            [
                0.8548022598870056,
                -0.002197112366603892
            ],
            [
                0.8488684311469122,
                0.0264032732387162
            ]
        ],
        [
            [
                0.9163789796701192,
                -0.24363892085411093
            ],
            [
                0.895281933256617,
                -0.007692963389165999
            ],
            [
                0.9497506712696587,
                0.004581681796871585
            ]
        ],
        [
            [
                0.9635596471039509,
                -0.05747346886587401
            ],
            [
                1.0667433831990794,
                0.027085197971273844
            ],
            [
                1.0685512928035985,
                -0.07014016298290071
            ]
        ],
        [
            [
                1.0021468926553674,
                0.05887005649717515
            ],
            [
                1.003954802259887,
                -0.03835530445699937
            ],
            [
                0.9748022598870055,
                -0.010232266164469537
            ]
        ]
    ],
    "2148": [
        [
            [
                0.883954802259887,
                -0.030320150659133717
            ],
            [
                0.8548022598870056,
                -0.002197112366603892
            ],
            [
                0.8488684311469122,
                0.0264032732387162
            ]
        ],
        [
            [
                0.9163789796701192,
                -0.24363892085411093
            ],
            [
                0.895281933256617,
                -0.007692963389165999
            ],
            [
                0.9497506712696587,
                0.004581681796871585
            ]
        ],
        [
            [
                0.9635596471039509,
                -0.05747346886587401
            ],
            [
                1.0667433831990794,
                0.027085197971273844
            ],
            [
                1.0685512928035985,
                -0.07014016298290071
            ]
        ],
        [
            [
                1.0021468926553674,
                0.05887005649717515
            ],
            [
                1.003954802259887,
                -0.03835530445699937
            ],
            [
                0.9748022598870055,
                -0.010232266164469537
            ]
        ]
    ],
    "2149": [
        [
            [
                0.883954802259887,
                -0.030320150659133717
            ],
            [
                0.8548022598870056,
                -0.002197112366603892
            ],
            [
                0.8488684311469122,
                0.0264032732387162
            ]
        ],
        [
            [
                0.8408131952435751,
                0.014810552785236079
            ],
            [
                0.8197161488300729,
                0.2507565102501811
            ],
            [
                0.8741848868431147,
                0.2630311554362186
            ]
        ],
        [
            [
                0.9037207518220177,
                0.2268891446106637
            ],
            [
                0.9064058304564635,
                0.18529173592464726
            ],
            [
                0.9041043344840813,
                0.09868729488982647
            ]
        ],
        [
            [
                0.8879938626774071,
                0.12664620892468986
            ],
            [
                0.8837744533947067,
                0.06731875719217484
            ],
            [
                0.8738013041810511,
                0.023675574308485627
            ]
        ]
    ],
    "2151": [
        [
            [
                0.883954802259887,
                -0.030320150659133717
            ],
            [
                0.8548022598870056,
                -0.002197112366603892
            ],
            [
                0.8488684311469122,
                0.0264032732387162
            ]
        ],
        [
            [
                0.863444572305332,
                0.22347952094787515
            ],
            [
                0.8423475258918298,
                0.45942547841282017
            ],
            [
                0.8968162639048717,
                0.47170012359885766
            ]
        ],
        [
            [
                0.9336401994629843,
                0.21188680049439554
            ],
            [
                0.93632527809743,
                0.1702893918083791
            ],
            [
                0.9340237821250479,
                0.08368495077355831
            ]
        ],
        [
            [
                0.9048714998082088,
                0.1177811874014405
            ],
            [
                0.9347909474491753,
                -0.009056812854281287
            ],
            [
                0.9248177982355198,
                -0.05269999573797053
            ]
        ]
    ],
    "2152": [
        [
            [
                0.883954802259887,
                -0.030320150659133717
            ],
            [
                0.8548022598870056,
                -0.002197112366603892
            ],
            [
                0.8488684311469122,
                0.0264032732387162
            ]
        ],
        [
            [
                0.863444572305332,
                0.22347952094787515
            ],
            [
                0.8423475258918298,
                0.45942547841282017
            ],
            [
                0.8968162639048717,
                0.47170012359885766
            ]
        ],
        [
            [
                0.9336401994629843,
                0.21188680049439554
            ],
            [
                0.93632527809743,
                0.1702893918083791
            ],
            [
                0.9340237821250479,
                0.08368495077355831
            ]
        ],
        [
            [
                0.9048714998082088,
                0.1177811874014405
            ],
            [
                0.9347909474491753,
                -0.009056812854281287
            ],
            [
                0.9248177982355198,
                -0.05269999573797053
            ]
        ]
    ],
    "2153": [
        [
            [
                1.0161104718066745,
                -0.060883092528662225
            ],
            [
                0.8548022598870056,
                -0.002197112366603892
            ],
            [
                0.8488684311469122,
                0.0264032732387162
            ]
        ],
        [
            [
                0.8784042961258153,
                0.3666837147849804
            ],
            [
                0.8573072497123131,
                0.6026296722499254
            ],
            [
                0.9332566168009208,
                0.6599113497847675
            ]
        ],
        [
            [
                0.9953970080552359,
                0.5944465754592336
            ],
            [
                0.902186421173763,
                0.4969313387034906
            ],
            [
                0.8998849252013809,
                0.41032689766866975
            ]
        ],
        [
            [
                1.0034522439585731,
                0.2568938328431998
            ],
            [
                0.9589566551591868,
                0.09800537015726883
            ],
            [
                0.9489835059455313,
                0.054362187273579554
            ]
        ]
    ],
    "2154": [
        [
            [
                1.0161104718066745,
                -0.060883092528662225
            ],
            [
                0.8548022598870056,
                -0.002197112366603892
            ],
            [
                0.8488684311469122,
                0.0264032732387162
            ]
        ],
        [
            [
                0.8784042961258153,
                0.3666837147849804
            ],
            [
                0.8573072497123131,
                0.6026296722499254
            ],
            [
                0.9332566168009208,
                0.6599113497847675
            ]
        ],
        [
            [
                0.9953970080552359,
                0.5944465754592336
            ],
            [
                0.902186421173763,
                0.4969313387034906
            ],
            [
                0.8998849252013809,
                0.41032689766866975
            ]
        ],
        [
            [
                1.0034522439585731,
                0.2568938328431998
            ],
            [
                0.9589566551591868,
                0.09800537015726883
            ],
            [
                0.9489835059455313,
                0.054362187273579554
            ]
        ]
    ],
    "2155": [
        [
            [
                1.0161104718066745,
                -0.060883092528662225
            ],
            [
                0.8548022598870056,
                -0.002197112366603892
            ],
            [
                0.8488684311469122,
                0.0264032732387162
            ]
        ],
        [
            [
                0.8784042961258153,
                0.3666837147849804
            ],
            [
                0.8573072497123131,
                0.6026296722499254
            ],
            [
                0.9332566168009208,
                0.6599113497847675
            ]
        ],
        [
            [
                1.035289604909858,
                0.5964923496569066
            ],
            [
                0.9420790180283852,
                0.4989771129011635
            ],
            [
                0.9543536632144228,
                0.40077995141286277
            ]
        ],
        [
            [
                1.0168776371308017,
                0.203021778971146
            ],
            [
                1.014192558496356,
                0.016174402250351542
            ],
            [
                1.0103567318757192,
                -0.03496995269147177
            ]
        ]
    ],
    "2156": [
        [
            [
                1.0161104718066745,
                -0.060883092528662225
            ],
            [
                0.8548022598870056,
                -0.002197112366603892
            ],
            [
                0.8488684311469122,
                0.0264032732387162
            ]
        ],
        [
            [
                0.8784042961258153,
                0.3666837147849804
            ],
            [
                0.8573072497123131,
                0.6026296722499254
            ],
            [
                0.9332566168009208,
                0.6599113497847675
            ]
        ],
        [
            [
                1.035289604909858,
                0.5964923496569066
            ],
            [
                0.9420790180283852,
                0.4989771129011635
            ],
            [
                0.9543536632144228,
                0.40077995141286277
            ]
        ],
        [
            [
                1.0168776371308017,
                0.203021778971146
            ],
            [
                1.014192558496356,
                0.016174402250351542
            ],
            [
                1.0103567318757192,
                -0.03496995269147177
            ]
        ]
    ],
    "2157": [
        [
            [
                1.0161104718066745,
                -0.060883092528662225
            ],
            [
                0.8548022598870056,
                -0.002197112366603892
            ],
            [
                0.8488684311469122,
                0.0264032732387162
            ]
        ],
        [
            [
                0.8784042961258153,
                0.3666837147849804
            ],
            [
                0.8573072497123131,
                0.6026296722499254
            ],
            [
                0.9332566168009208,
                0.6599113497847675
            ]
        ],
        [
            [
                1.0721135404679714,
                0.5903550270638879
            ],
            [
                0.978902953586498,
                0.49283979030814473
            ],
            [
                0.9911775987725356,
                0.394642628819844
            ]
        ],
        [
            [
                1.0168776371308017,
                0.203021778971146
            ],
            [
                1.014192558496356,
                0.016174402250351542
            ],
            [
                1.0103567318757192,
                -0.03496995269147177
            ]
        ]
    ],
    "2158": [
        [
            [
                1.0161104718066745,
                -0.060883092528662225
            ],
            [
                0.8548022598870056,
                -0.002197112366603892
            ],
            [
                0.8488684311469122,
                0.0264032732387162
            ]
        ],
        [
            [
                0.8784042961258153,
                0.3666837147849804
            ],
            [
                0.8573072497123131,
                0.6026296722499254
            ],
            [
                0.9332566168009208,
                0.6599113497847675
            ]
        ],
        [
            [
                1.0721135404679714,
                0.5903550270638879
            ],
            [
                0.978902953586498,
                0.49283979030814473
            ],
            [
                0.9911775987725356,
                0.394642628819844
            ]
        ],
        [
            [
                1.0168776371308017,
                0.203021778971146
            ],
            [
                1.014192558496356,
                0.016174402250351542
            ],
            [
                1.0103567318757192,
                -0.03496995269147177
            ]
        ]
    ],
    "2159": [
        [
            [
                1.0161104718066745,
                -0.060883092528662225
            ],
            [
                0.8548022598870056,
                -0.002197112366603892
            ],
            [
                0.8488684311469122,
                0.0264032732387162
            ]
        ],
        [
            [
                0.8784042961258153,
                0.3666837147849804
            ],
            [
                0.8573072497123131,
                0.6026296722499254
            ],
            [
                0.9332566168009208,
                0.6599113497847675
            ]
        ],
        [
            [
                1.149884925201381,
                0.6242807825086306
            ],
            [
                1.0326045262754124,
                0.4614712526104931
            ],
            [
                1.04487917146145,
                0.3632740911221924
            ]
        ],
        [
            [
                1.0168776371308017,
                0.203021778971146
            ],
            [
                1.014192558496356,
                0.016174402250351542
            ],
            [
                1.0103567318757192,
                -0.03496995269147177
            ]
        ]
    ]
}
</property>
   </filter>
   <filter id="filter16">
    <property name="version">0,2</property>
    <property name="mlt_service">frei0r.brightness</property>
    <property name="kdenlive_id">frei0r.brightness</property>
    <property name="tag">frei0r.brightness</property>
    <property name="kdenlive_ix">3</property>
    <property name="Brightness">0,45</property>
    <property name="kdenlive_info"/>
    <property name="disable">0</property>
   </filter>
  </entry>
  <blank length="878"/>
  <entry producer="49_playlist0" in="784" out="1069">
   <filter id="filter17">
    <property name="version">0,1</property>
    <property name="mlt_service">frei0r.alphaspot</property>
    <property name="kdenlive_id">frei0r.alphaspot</property>
    <property name="tag">frei0r.alphaspot</property>
    <property name="kdenlive_ix">1</property>
    <property name="kdenlive_info">1/-1/</property>
    <property name="disable">0</property>
    <property name="Shape">0,0</property>
    <property name="Position X">784=0</property>
    <property name="Position Y">784=0,432</property>
    <property name="Size X">784=0,125</property>
    <property name="Size Y">784=0,575</property>
    <property name="Tilt">784=0</property>
    <property name="Transition width">784=0</property>
    <property name="Min">784=0</property>
    <property name="Max">784=1</property>
    <property name="Operation">1,0</property>
   </filter>
   <filter id="filter18">
    <property name="mode">rgb</property>
    <property name="alpha_operation">sub</property>
    <property name="invert">1</property>
    <property name="feather">0</property>
    <property name="feather_passes">1</property>
    <property name="mlt_service">rotoscoping</property>
    <property name="kdenlive_id">rotoscoping</property>
    <property name="tag">rotoscoping</property>
    <property name="kdenlive_ix">2</property>
    <property name="kdenlive_info"/>
    <property name="disable">0</property>
    <property name="spline">[
    [
        [
            0.8568361581920904,
            -0.07652228499686128
        ],
        [
            0.827683615819209,
            -0.04839924670433145
        ],
        [
            0.827909604519774,
            0.02110483364720656
        ]
    ],
    [
        [
            0.7845530620359326,
            0.3984901004086002
        ],
        [
            0.7847790507364976,
            0.46799418076013816
        ],
        [
            0.8118976948042942,
            0.4675924230702449
        ]
    ],
    [
        [
            1.0293461677161637,
            0.4713055583809279
        ],
        [
            1.0564648117839606,
            0.47090380069103477
        ],
        [
            1.0582727213884802,
            0.3736784397368602
        ]
    ],
    [
        [
            1.117401129943503,
            0.010659133709981165
        ],
        [
            1.1192090395480225,
            -0.08656622724419336
        ],
        [
            1.0900564971751412,
            -0.058443188951663526
        ]
    ]
]
</property>
   </filter>
   <filter id="filter19">
    <property name="background">colour:0x00000000</property>
    <property name="mlt_service">affine</property>
    <property name="kdenlive_id">pan_zoom</property>
    <property name="tag">affine</property>
    <property name="kdenlive_ix">3</property>
    <property name="kdenlive_info"/>
    <property name="disable">0</property>
    <property name="transition.geometry">-68/56:1920x1080:100</property>
    <property name="transition.distort">0</property>
   </filter>
  </entry>
  <entry producer="49_playlist0" in="784" out="999">
   <filter id="filter20">
    <property name="version">0,1</property>
    <property name="mlt_service">frei0r.alphaspot</property>
    <property name="kdenlive_id">frei0r.alphaspot</property>
    <property name="tag">frei0r.alphaspot</property>
    <property name="kdenlive_ix">1</property>
    <property name="kdenlive_info">1/-1/</property>
    <property name="disable">0</property>
    <property name="Shape">0,0</property>
    <property name="Position X">784=0</property>
    <property name="Position Y">784=0,432</property>
    <property name="Size X">784=0,125</property>
    <property name="Size Y">784=0,575</property>
    <property name="Tilt">784=0</property>
    <property name="Transition width">784=0</property>
    <property name="Min">784=0</property>
    <property name="Max">784=1</property>
    <property name="Operation">1,0</property>
   </filter>
   <filter id="filter21">
    <property name="mode">rgb</property>
    <property name="alpha_operation">sub</property>
    <property name="invert">1</property>
    <property name="feather">0</property>
    <property name="feather_passes">1</property>
    <property name="mlt_service">rotoscoping</property>
    <property name="kdenlive_id">rotoscoping</property>
    <property name="tag">rotoscoping</property>
    <property name="kdenlive_info">0/-1/</property>
    <property name="kdenlive_ix">2</property>
    <property name="disable">0</property>
    <property name="spline">[
    [
        [
            0.8568361581920904,
            -0.07652228499686128
        ],
        [
            0.827683615819209,
            -0.04839924670433145
        ],
        [
            0.827909604519774,
            0.02110483364720656
        ]
    ],
    [
        [
            0.7845530620359326,
            0.3984901004086002
        ],
        [
            0.7847790507364976,
            0.46799418076013816
        ],
        [
            0.8118976948042942,
            0.4675924230702449
        ]
    ],
    [
        [
            1.0293461677161637,
            0.4713055583809279
        ],
        [
            1.0564648117839606,
            0.47090380069103477
        ],
        [
            1.0582727213884802,
            0.3736784397368602
        ]
    ],
    [
        [
            1.117401129943503,
            0.010659133709981165
        ],
        [
            1.1192090395480225,
            -0.08656622724419336
        ],
        [
            1.0900564971751412,
            -0.058443188951663526
        ]
    ]
]
</property>
   </filter>
   <filter id="filter22">
    <property name="background">colour:0x00000000</property>
    <property name="mlt_service">affine</property>
    <property name="kdenlive_id">pan_zoom</property>
    <property name="tag">affine</property>
    <property name="kdenlive_ix">3</property>
    <property name="kdenlive_info"/>
    <property name="disable">0</property>
    <property name="transition.geometry">-68/56:1920x1080:100</property>
    <property name="transition.distort">0</property>
   </filter>
  </entry>
  <blank length="13239"/>
  <entry producer="53_playlist0" in="3829" out="5832">
   <filter id="filter31">
    <property name="version">0,1</property>
    <property name="mlt_service">frei0r.alphaspot</property>
    <property name="kdenlive_id">frei0r.alphaspot</property>
    <property name="tag">frei0r.alphaspot</property>
    <property name="kdenlive_ix">1</property>
    <property name="kdenlive_info">1/-1/</property>
    <property name="disable">1</property>
    <property name="Shape">0,0</property>
    <property name="Position X">3829=0</property>
    <property name="Position Y">3829=0,432</property>
    <property name="Size X">3829=0,125</property>
    <property name="Size Y">3829=0,575</property>
    <property name="Tilt">3829=0</property>
    <property name="Transition width">3829=0</property>
    <property name="Min">3829=0</property>
    <property name="Max">3829=1</property>
    <property name="Operation">1,0</property>
   </filter>
   <filter id="filter32">
    <property name="mode">alpha</property>
    <property name="alpha_operation">sub</property>
    <property name="invert">0</property>
    <property name="feather">0</property>
    <property name="feather_passes">1</property>
    <property name="mlt_service">rotoscoping</property>
    <property name="kdenlive_id">rotoscoping</property>
    <property name="tag">rotoscoping</property>
    <property name="kdenlive_ix">2</property>
    <property name="kdenlive_info">1/-1/</property>
    <property name="disable">1</property>
    <property name="spline">[
    [
        [
            0.8568361581920904,
            -0.07652228499686128
        ],
        [
            0.827683615819209,
            -0.04839924670433145
        ],
        [
            0.827909604519774,
            0.02110483364720656
        ]
    ],
    [
        [
            0.811638418079096,
            0.4405398618957941
        ],
        [
            0.811864406779661,
            0.5100439422473321
        ],
        [
            0.8389830508474577,
            0.5096421845574387
        ]
    ],
    [
        [
            0.9971751412429377,
            0.5084369114877588
        ],
        [
            1.0242937853107346,
            0.5080351537978657
        ],
        [
            1.0261016949152542,
            0.4108097928436911
        ]
    ],
    [
        [
            1.117401129943503,
            0.010659133709981165
        ],
        [
            1.1192090395480225,
            -0.08656622724419336
        ],
        [
            1.0900564971751412,
            -0.058443188951663526
        ]
    ]
]
</property>
   </filter>
   <filter id="filter33">
    <property name="background">colour:0x00000000</property>
    <property name="mlt_service">affine</property>
    <property name="kdenlive_id">pan_zoom</property>
    <property name="tag">affine</property>
    <property name="kdenlive_ix">3</property>
    <property name="kdenlive_info">1/-1/</property>
    <property name="disable">1</property>
    <property name="transition.geometry">-68/56:1920x1080:100</property>
    <property name="transition.distort">0</property>
   </filter>
   <filter id="filter34">
    <property name="version">0,1</property>
    <property name="mlt_service">frei0r.alphaspot</property>
    <property name="kdenlive_id">frei0r.alphaspot</property>
    <property name="tag">frei0r.alphaspot</property>
    <property name="kdenlive_ix">4</property>
    <property name="kdenlive_info">1/-1/</property>
    <property name="disable">1</property>
    <property name="Shape">0,0</property>
    <property name="Position X">3829=0,778</property>
    <property name="Position Y">3829=0,367</property>
    <property name="Size X">3829=0,103</property>
    <property name="Size Y">3829=0,184</property>
    <property name="Tilt">3829=0</property>
    <property name="Transition width">3829=0,2</property>
    <property name="Min">3829=0</property>
    <property name="Max">3829=1</property>
    <property name="Operation">1,0</property>
   </filter>
  </entry>
  <blank length="127"/>
  <entry producer="51_playlist0" in="5297" out="8856">
   <filter id="filter35">
    <property name="version">0,1</property>
    <property name="mlt_service">frei0r.alphaspot</property>
    <property name="kdenlive_id">frei0r.alphaspot</property>
    <property name="tag">frei0r.alphaspot</property>
    <property name="kdenlive_ix">1</property>
    <property name="kdenlive_info">1/-1/</property>
    <property name="disable">1</property>
    <property name="Shape">0,0</property>
    <property name="Position X">5297=0</property>
    <property name="Position Y">5297=0,432</property>
    <property name="Size X">5297=0,125</property>
    <property name="Size Y">5297=0,575</property>
    <property name="Tilt">5297=0</property>
    <property name="Transition width">5297=0</property>
    <property name="Min">5297=0</property>
    <property name="Max">5297=1</property>
    <property name="Operation">1,0</property>
   </filter>
   <filter id="filter36">
    <property name="mode">alpha</property>
    <property name="alpha_operation">sub</property>
    <property name="invert">0</property>
    <property name="feather">2</property>
    <property name="feather_passes">1</property>
    <property name="mlt_service">rotoscoping</property>
    <property name="kdenlive_id">rotoscoping</property>
    <property name="tag">rotoscoping</property>
    <property name="kdenlive_ix">2</property>
    <property name="kdenlive_info"/>
    <property name="disable">1</property>
    <property name="spline">[
    [
        [
            0.8811785739826933,
            0.44201721137571814
        ],
        [
            0.8818565400843883,
            0.5187529301453352
        ],
        [
            0.8866023027962526,
            0.5183511724554419
        ]
    ],
    [
        [
            0.9031943983928538,
            0.5123354405096521
        ],
        [
            0.9079401611047182,
            0.5119336828197587
        ],
        [
            0.9088441159069781,
            0.5167547750984781
        ]
    ],
    [
        [
            0.912022780909286,
            0.5248426335875381
        ],
        [
            0.9129267357115459,
            0.5296637258662575
        ],
        [
            0.9156386001183257,
            0.5288602104864709
        ]
    ],
    [
        [
            0.9236402644769949,
            0.5318310907111594
        ],
        [
            0.9263521288837745,
            0.5310275753313728
        ],
        [
            0.9283860271888592,
            0.5318310907111594
        ]
    ],
    [
        [
            0.9373600410888547,
            0.5377252320097202
        ],
        [
            0.9393939393939394,
            0.5385287473895068
        ],
        [
            0.9421058038007192,
            0.5385287473895068
        ]
    ],
    [
        [
            0.9485731375111338,
            0.5412564463197375
        ],
        [
            0.9512850019179134,
            0.5412564463197375
        ],
        [
            0.9558047759292129,
            0.5464792962883502
        ]
    ],
    [
        [
            0.9793697541820264,
            0.5742213813743527
        ],
        [
            0.9838895281933258,
            0.5794442313429655
        ],
        [
            0.9875053474023653,
            0.5790424736530723
        ]
    ],
    [
        [
            1.0794642213178098,
            0.5837069473780617
        ],
        [
            1.083080040526849,
            0.5833051896881685
        ],
        [
            1.0801421874195047,
            0.5017483786398319
        ]
    ],
    [
        [
            1.1143866879604352,
            -0.023193836255502337
        ],
        [
            1.1114488348530902,
            -0.1047506473038388
        ],
        [
            1.0924657840056327,
            -0.10916998189266493
        ]
    ],
    [
        [
            0.9062097482007373,
            -0.014184424521262179
        ],
        [
            0.8872266973532796,
            -0.0186037591100883
        ],
        [
            0.8879046634549747,
            0.058131959659528824
        ]
    ]
]
</property>
   </filter>
   <filter id="filter37">
    <property name="version">0,1</property>
    <property name="mlt_service">frei0r.alphaspot</property>
    <property name="kdenlive_id">frei0r.alphaspot</property>
    <property name="tag">frei0r.alphaspot</property>
    <property name="kdenlive_ix">3</property>
    <property name="kdenlive_info"/>
    <property name="disable">1</property>
    <property name="Shape">0,0</property>
    <property name="Position X">5297=1</property>
    <property name="Position Y">5297=0,5</property>
    <property name="Size X">5297=0,025</property>
    <property name="Size Y">5297=0,473</property>
    <property name="Tilt">5297=0,5</property>
    <property name="Transition width">5297=0</property>
    <property name="Min">5297=0</property>
    <property name="Max">5297=1</property>
    <property name="Operation">1,0</property>
   </filter>
  </entry>
  <blank length="1298"/>
  <entry producer="50_playlist0" in="3078" out="5223">
   <filter id="filter38">
    <property name="version">0,1</property>
    <property name="mlt_service">frei0r.alphaspot</property>
    <property name="kdenlive_id">frei0r.alphaspot</property>
    <property name="tag">frei0r.alphaspot</property>
    <property name="kdenlive_ix">1</property>
    <property name="kdenlive_info">1/-1/</property>
    <property name="disable">1</property>
    <property name="Shape">0,0</property>
    <property name="Position X">3078=0</property>
    <property name="Position Y">3078=0,432</property>
    <property name="Size X">3078=0,125</property>
    <property name="Size Y">3078=0,575</property>
    <property name="Tilt">3078=0</property>
    <property name="Transition width">3078=0</property>
    <property name="Min">3078=0</property>
    <property name="Max">3078=1</property>
    <property name="Operation">1,0</property>
   </filter>
   <filter id="filter39">
    <property name="mode">alpha</property>
    <property name="alpha_operation">sub</property>
    <property name="invert">0</property>
    <property name="feather">7</property>
    <property name="feather_passes">1</property>
    <property name="mlt_service">rotoscoping</property>
    <property name="kdenlive_id">rotoscoping</property>
    <property name="tag">rotoscoping</property>
    <property name="kdenlive_ix">2</property>
    <property name="kdenlive_info"/>
    <property name="disable">1</property>
    <property name="spline">{
    "3078": [
        [
            [
                0.883954802259887,
                -0.030320150659133717
            ],
            [
                0.8548022598870056,
                -0.002197112366603892
            ],
            [
                0.8550282485875706,
                0.06730696798493413
            ]
        ],
        [
            [
                0.8873446327683615,
                0.5670935342121782
            ],
            [
                0.8875706214689265,
                0.6365976145637162
            ],
            [
                0.9146892655367231,
                0.636195856873823
            ]
        ],
        [
            [
                0.9836158192090392,
                0.6249466415568109
            ],
            [
                1.010734463276836,
                0.6245448838669178
            ],
            [
                1.0125423728813556,
                0.5273195229127432
            ]
        ],
        [
            [
                1.0021468926553674,
                0.05887005649717515
            ],
            [
                1.003954802259887,
                -0.03835530445699937
            ],
            [
                0.9748022598870055,
                -0.010232266164469537
            ]
        ]
    ],
    "4784": [
        [
            [
                0.883954802259887,
                -0.030320150659133717
            ],
            [
                0.8548022598870056,
                -0.002197112366603892
            ],
            [
                0.8550282485875706,
                0.06730696798493413
            ]
        ],
        [
            [
                0.8873446327683615,
                0.5670935342121782
            ],
            [
                0.8875706214689265,
                0.6365976145637162
            ],
            [
                0.9146892655367231,
                0.636195856873823
            ]
        ],
        [
            [
                0.9836158192090392,
                0.6249466415568109
            ],
            [
                1.010734463276836,
                0.6245448838669178
            ],
            [
                1.0125423728813556,
                0.5273195229127432
            ]
        ],
        [
            [
                1.0021468926553674,
                0.05887005649717515
            ],
            [
                1.003954802259887,
                -0.03835530445699937
            ],
            [
                0.9748022598870055,
                -0.010232266164469537
            ]
        ]
    ],
    "4787": [
        [
            [
                0.883954802259887,
                -0.030320150659133717
            ],
            [
                0.8548022598870056,
                -0.002197112366603892
            ],
            [
                0.8550282485875706,
                0.06730696798493413
            ]
        ],
        [
            [
                0.8873446327683615,
                0.5670935342121782
            ],
            [
                0.8875706214689265,
                0.6365976145637162
            ],
            [
                0.9146892655367231,
                0.636195856873823
            ]
        ],
        [
            [
                0.9836158192090392,
                0.6249466415568109
            ],
            [
                1.010734463276836,
                0.6245448838669178
            ],
            [
                1.0125423728813556,
                0.5273195229127432
            ]
        ],
        [
            [
                1.0021468926553674,
                0.05887005649717515
            ],
            [
                1.003954802259887,
                -0.03835530445699937
            ],
            [
                0.9748022598870055,
                -0.010232266164469537
            ]
        ]
    ],
    "4789": [
        [
            [
                0.883954802259887,
                -0.030320150659133717
            ],
            [
                0.8548022598870056,
                -0.002197112366603892
            ],
            [
                0.8550282485875706,
                0.06730696798493413
            ]
        ],
        [
            [
                0.8872883956492624,
                0.5230672020931623
            ],
            [
                0.8875143843498274,
                0.5925712824447001
            ],
            [
                0.9146330284176241,
                0.592169524754807
            ]
        ],
        [
            [
                0.9836158192090392,
                0.6249466415568109
            ],
            [
                1.010734463276836,
                0.6245448838669178
            ],
            [
                1.0125423728813556,
                0.5273195229127432
            ]
        ],
        [
            [
                1.0021468926553674,
                0.05887005649717515
            ],
            [
                1.003954802259887,
                -0.03835530445699937
            ],
            [
                0.9748022598870055,
                -0.010232266164469537
            ]
        ]
    ],
    "4792": [
        [
            [
                0.883954802259887,
                -0.030320150659133717
            ],
            [
                0.8548022598870056,
                -0.002197112366603892
            ],
            [
                0.8550282485875706,
                0.06730696798493413
            ]
        ],
        [
            [
                0.8872894911775565,
                0.5239248579136626
            ],
            [
                0.8875154798781215,
                0.5934289382652005
            ],
            [
                0.9146341239459181,
                0.5930271805753073
            ]
        ],
        [
            [
                0.9836158192090392,
                0.6249466415568109
            ],
            [
                1.010734463276836,
                0.6245448838669178
            ],
            [
                1.0125423728813556,
                0.5273195229127432
            ]
        ],
        [
            [
                1.0021468926553674,
                0.05887005649717515
            ],
            [
                1.003954802259887,
                -0.03835530445699937
            ],
            [
                0.9748022598870055,
                -0.010232266164469537
            ]
        ]
    ],
    "4795": [
        [
            [
                0.883954802259887,
                -0.030320150659133717
            ],
            [
                0.8548022598870056,
                -0.002197112366603892
            ],
            [
                0.8550282485875706,
                0.06730696798493413
            ]
        ],
        [
            [
                0.8884391436354535,
                0.487266153633886
            ],
            [
                0.8886651323360185,
                0.5567702339854239
            ],
            [
                0.9157837764038151,
                0.5563684762955308
            ]
        ],
        [
            [
                0.9836158192090392,
                0.6249466415568109
            ],
            [
                1.010734463276836,
                0.6245448838669178
            ],
            [
                1.0125423728813556,
                0.5273195229127432
            ]
        ],
        [
            [
                1.0021468926553674,
                0.05887005649717515
            ],
            [
                1.003954802259887,
                -0.03835530445699937
            ],
            [
                0.9748022598870055,
                -0.010232266164469537
            ]
        ]
    ],
    "4800": [
        [
            [
                0.883954802259887,
                -0.030320150659133717
            ],
            [
                0.8548022598870056,
                -0.002197112366603892
            ],
            [
                0.8550282485875706,
                0.06730696798493413
            ]
        ],
        [
            [
                0.8884021669169706,
                0.48996302459936875
            ],
            [
                0.8886281556175356,
                0.5594671049509067
            ],
            [
                0.9157467996853322,
                0.5590653472610135
            ]
        ],
        [
            [
                0.9836158192090392,
                0.6249466415568109
            ],
            [
                1.010734463276836,
                0.6245448838669178
            ],
            [
                1.0125423728813556,
                0.5273195229127432
            ]
        ],
        [
            [
                1.0021468926553674,
                0.05887005649717515
            ],
            [
                1.003954802259887,
                -0.03835530445699937
            ],
            [
                0.9748022598870055,
                -0.010232266164469537
            ]
        ]
    ],
    "4801": [
        [
            [
                0.883954802259887,
                -0.030320150659133717
            ],
            [
                0.8548022598870056,
                -0.002197112366603892
            ],
            [
                0.8550282485875706,
                0.06730696798493413
            ]
        ],
        [
            [
                0.889014517628549,
                0.5015865730175965
            ],
            [
                0.889240506329114,
                0.5710906533691344
            ],
            [
                0.9163591503969106,
                0.5706888956792412
            ]
        ],
        [
            [
                0.9836158192090392,
                0.6249466415568109
            ],
            [
                1.010734463276836,
                0.6245448838669178
            ],
            [
                1.0125423728813556,
                0.5273195229127432
            ]
        ],
        [
            [
                1.0021468926553674,
                0.05887005649717515
            ],
            [
                1.003954802259887,
                -0.03835530445699937
            ],
            [
                0.9748022598870055,
                -0.010232266164469537
            ]
        ]
    ],
    "4803": [
        [
            [
                0.883954802259887,
                -0.030320150659133717
            ],
            [
                0.8548022598870056,
                -0.002197112366603892
            ],
            [
                0.8550282485875706,
                0.06730696798493413
            ]
        ],
        [
            [
                0.8872883956492624,
                0.5128383311047975
            ],
            [
                0.8875143843498274,
                0.5823424114563355
            ],
            [
                0.9146330284176241,
                0.5819406537664423
            ]
        ],
        [
            [
                0.9835257748044702,
                0.635934298285725
            ],
            [
                1.010644418872267,
                0.6355325405958318
            ],
            [
                1.0124523284767866,
                0.5383071796416573
            ]
        ],
        [
            [
                1.0021468926553674,
                0.05887005649717515
            ],
            [
                1.003954802259887,
                -0.03835530445699937
            ],
            [
                0.9748022598870055,
                -0.010232266164469537
            ]
        ]
    ],
    "4807": [
        [
            [
                0.883954802259887,
                -0.030320150659133717
            ],
            [
                0.8548022598870056,
                -0.002197112366603892
            ],
            [
                0.8550282485875706,
                0.06730696798493413
            ]
        ],
        [
            [
                0.891316013600931,
                0.5353418472791996
            ],
            [
                0.8915420023014959,
                0.6048459276307377
            ],
            [
                0.9186606463692927,
                0.6044441699408446
            ]
        ],
        [
            [
                0.9835283475017437,
                0.6356203652363275
            ],
            [
                1.0106469915695402,
                0.6352186075464342
            ],
            [
                1.01245490117406,
                0.5379932465922598
            ]
        ],
        [
            [
                1.0021468926553674,
                0.05887005649717515
            ],
            [
                1.003954802259887,
                -0.03835530445699937
            ],
            [
                0.9748022598870055,
                -0.010232266164469537
            ]
        ]
    ],
    "4942": [
        [
            [
                0.883954802259887,
                -0.030320150659133717
            ],
            [
                0.8548022598870056,
                -0.002197112366603892
            ],
            [
                0.8550282485875706,
                0.06730696798493413
            ]
        ],
        [
            [
                0.8873446327683615,
                0.5670935342121782
            ],
            [
                0.8875706214689265,
                0.6365976145637162
            ],
            [
                0.9146892655367231,
                0.636195856873823
            ]
        ],
        [
            [
                0.9836158192090392,
                0.6249466415568109
            ],
            [
                1.010734463276836,
                0.6245448838669178
            ],
            [
                1.0125423728813556,
                0.5273195229127432
            ]
        ],
        [
            [
                1.0021468926553674,
                0.05887005649717515
            ],
            [
                1.003954802259887,
                -0.03835530445699937
            ],
            [
                0.9748022598870055,
                -0.010232266164469537
            ]
        ]
    ],
    "4949": [
        [
            [
                0.883954802259887,
                -0.030320150659133717
            ],
            [
                0.8548022598870056,
                -0.002197112366603892
            ],
            [
                0.8550282485875706,
                0.06730696798493413
            ]
        ],
        [
            [
                0.9054237288135594,
                0.324030131826742
            ],
            [
                0.9056497175141244,
                0.39353421217828
            ],
            [
                0.932768361581921,
                0.3931324544883868
            ]
        ],
        [
            [
                0.9777720348735152,
                0.5622864271694995
            ],
            [
                1.004890678941312,
                0.5618846694796062
            ],
            [
                1.0066985885458315,
                0.46465930852543175
            ]
        ],
        [
            [
                1.0021468926553674,
                0.05887005649717515
            ],
            [
                1.003954802259887,
                -0.03835530445699937
            ],
            [
                0.9748022598870055,
                -0.010232266164469537
            ]
        ]
    ],
    "4957": [
        [
            [
                0.883954802259887,
                -0.030320150659133717
            ],
            [
                0.8548022598870056,
                -0.002197112366603892
            ],
            [
                0.8550282485875706,
                0.06730696798493413
            ]
        ],
        [
            [
                0.8872883956492624,
                0.0024176687854010046
            ],
            [
                0.8875143843498274,
                0.07192174913693901
            ],
            [
                0.9146330284176241,
                0.07151999144704581
            ]
        ],
        [
            [
                1.012294474459246,
                0.1572231360302589
            ],
            [
                1.0394131185270428,
                0.1568213783403657
            ],
            [
                1.0412210281315624,
                0.05959601738619118
            ]
        ],
        [
            [
                1.0021468926553674,
                0.05887005649717515
            ],
            [
                1.003954802259887,
                -0.03835530445699937
            ],
            [
                0.9748022598870055,
                -0.010232266164469537
            ]
        ]
    ],
    "4966": [
        [
            [
                0.8746646252267365,
                -0.14543540244033698
            ],
            [
                0.845512082853855,
                -0.1173123641478072
            ],
            [
                0.84573807155442,
                -0.04780828379626917
            ]
        ],
        [
            [
                0.889014517628549,
                -0.08350484751686216
            ],
            [
                0.889240506329114,
                -0.014000767165324128
            ],
            [
                0.9163591503969106,
                -0.01440252485521734
            ]
        ],
        [
            [
                1.0088422305006728,
                -0.012576122376594464
            ],
            [
                1.0359608745684696,
                -0.012977880066487662
            ],
            [
                1.037768784172989,
                -0.11020324102066217
            ]
        ],
        [
            [
                1.0021468926553674,
                0.05887005649717515
            ],
            [
                1.003954802259887,
                -0.03835530445699937
            ],
            [
                0.9748022598870055,
                -0.010232266164469537
            ]
        ]
    ],
    "5008": [
        [
            [
                0.8746646252267365,
                -0.14543540244033698
            ],
            [
                0.845512082853855,
                -0.1173123641478072
            ],
            [
                0.84573807155442,
                -0.04780828379626917
            ]
        ],
        [
            [
                0.889014517628549,
                -0.08350484751686216
            ],
            [
                0.889240506329114,
                -0.014000767165324128
            ],
            [
                0.9163591503969106,
                -0.01440252485521734
            ]
        ],
        [
            [
                1.0088422305006728,
                -0.012576122376594464
            ],
            [
                1.0359608745684696,
                -0.012977880066487662
            ],
            [
                1.037768784172989,
                -0.11020324102066217
            ]
        ],
        [
            [
                1.0021468926553674,
                0.05887005649717515
            ],
            [
                1.003954802259887,
                -0.03835530445699937
            ],
            [
                0.9748022598870055,
                -0.010232266164469537
            ]
        ]
    ],
    "5009": [
        [
            [
                0.9789988492520139,
                -0.03650428333972638
            ],
            [
                0.9053509781357882,
                -0.02832118654903465
            ],
            [
                0.7966052934407365,
                -0.0027490090781230013
            ]
        ],
        [
            [
                0.8828248587570621,
                0.6072693032015065
            ],
            [
                0.8830508474576271,
                0.6767733835530445
            ],
            [
                0.964614499424626,
                0.512786088735456
            ]
        ],
        [
            [
                0.8972957422324511,
                0.5434727017005498
            ],
            [
                0.8748561565017262,
                0.4831223628691984
            ],
            [
                0.9168584579976985,
                0.33275795934023783
            ]
        ],
        [
            [
                0.9219550363103252,
                0.2959851103468351
            ],
            [
                0.9237629459148448,
                0.1987597493926608
            ],
            [
                0.8834867663981588,
                0.11692878148574351
            ]
        ]
    ],
    "5011": [
        [
            [
                1.0440161104718066,
                -0.040595831735072245
            ],
            [
                0.9053509781357882,
                -0.02832118654903465
            ],
            [
                0.7966052934407365,
                -0.0027490090781230013
            ]
        ],
        [
            [
                0.8828248587570621,
                0.6072693032015065
            ],
            [
                0.8830508474576271,
                0.6767733835530445
            ],
            [
                1.0146720368239357,
                0.5485871371947322
            ]
        ],
        [
            [
                0.9346950517836594,
                0.5506329113924051
            ],
            [
                0.9122554660529345,
                0.4902825725610536
            ],
            [
                0.9433256616800921,
                0.3307121851425649
            ]
        ],
        [
            [
                0.9594361334867665,
                0.2867280398925969
            ],
            [
                0.9582853855005754,
                0.18239355581127734
            ],
            [
                0.9306674338319908,
                0.10056258790436005
            ]
        ]
    ],
    "5013": [
        [
            [
                1.1481588032220944,
                -0.07946554149085795
            ],
            [
                0.9053509781357882,
                -0.02832118654903465
            ],
            [
                0.7966052934407365,
                -0.0027490090781230013
            ]
        ],
        [
            [
                0.8828248587570621,
                0.6072693032015065
            ],
            [
                0.8830508474576271,
                0.6767733835530445
            ],
            [
                1.055523590333717,
                0.5475642500958956
            ]
        ],
        [
            [
                0.9686421173762946,
                0.5506329113924051
            ],
            [
                0.9462025316455697,
                0.4902825725610536
            ],
            [
                0.9772727272727273,
                0.3307121851425649
            ]
        ],
        [
            [
                0.9882048331415422,
                0.24478966884030173
            ],
            [
                0.9870540851553511,
                0.14045518475898222
            ],
            [
                1.027330264672037,
                0.045326684567190884
            ]
        ]
    ],
    "5015": [
        [
            [
                1.1481588032220944,
                -0.07946554149085795
            ],
            [
                0.9053509781357882,
                -0.02832118654903465
            ],
            [
                0.7966052934407365,
                -0.0027490090781230013
            ]
        ],
        [
            [
                0.8828248587570621,
                0.6072693032015065
            ],
            [
                0.8830508474576271,
                0.6767733835530445
            ],
            [
                1.1055811277330265,
                0.6498529599795423
            ]
        ],
        [
            [
                0.9985615650172612,
                0.544495588799386
            ],
            [
                0.9761219792865362,
                0.48414524996803476
            ],
            [
                1.0071921749136938,
                0.3245748625495461
            ]
        ],
        [
            [
                1.0066168009205985,
                0.23762945914844644
            ],
            [
                1.0054660529344075,
                0.13329497506712698
            ],
            [
                1.0457422324510934,
                0.038166474875335636
            ]
        ]
    ],
    "5017": [
        [
            [
                1.1481588032220944,
                -0.07946554149085795
            ],
            [
                0.9053509781357882,
                -0.02832118654903465
            ],
            [
                0.7966052934407365,
                -0.0027490090781230013
            ]
        ],
        [
            [
                0.8828248587570621,
                0.6072693032015065
            ],
            [
                0.8830508474576271,
                0.6767733835530445
            ],
            [
                1.1055811277330265,
                0.6498529599795423
            ]
        ],
        [
            [
                1.0532220943613348,
                0.6897455568341642
            ],
            [
                1.03078250863061,
                0.629395218002813
            ],
            [
                1.0618527042577675,
                0.4698248305843243
            ]
        ],
        [
            [
                1.0066168009205985,
                0.23762945914844644
            ],
            [
                1.0054660529344075,
                0.13329497506712698
            ],
            [
                1.0457422324510934,
                0.038166474875335636
            ]
        ]
    ]
}
</property>
   </filter>
   <filter id="filter40">
    <property name="version">0,2</property>
    <property name="mlt_service">frei0r.brightness</property>
    <property name="kdenlive_id">frei0r.brightness</property>
    <property name="tag">frei0r.brightness</property>
    <property name="kdenlive_ix">3</property>
    <property name="kdenlive_info"/>
    <property name="disable">1</property>
    <property name="Brightness">0,45</property>
   </filter>
  </entry>
  <blank length="1974"/>
  <entry producer="50_playlist0" in="323" out="2309">
   <filter id="filter41">
    <property name="version">0,1</property>
    <property name="mlt_service">frei0r.alphaspot</property>
    <property name="kdenlive_id">frei0r.alphaspot</property>
    <property name="tag">frei0r.alphaspot</property>
    <property name="kdenlive_ix">1</property>
    <property name="kdenlive_info">1/-1/</property>
    <property name="disable">1</property>
    <property name="Shape">0,0</property>
    <property name="Position X">323=0</property>
    <property name="Position Y">323=0,432</property>
    <property name="Size X">323=0,125</property>
    <property name="Size Y">323=0,575</property>
    <property name="Tilt">323=0</property>
    <property name="Transition width">323=0</property>
    <property name="Min">323=0</property>
    <property name="Max">323=1</property>
    <property name="Operation">1,0</property>
   </filter>
   <filter id="filter42">
    <property name="mode">alpha</property>
    <property name="alpha_operation">sub</property>
    <property name="invert">0</property>
    <property name="feather">7</property>
    <property name="feather_passes">1</property>
    <property name="mlt_service">rotoscoping</property>
    <property name="kdenlive_id">rotoscoping</property>
    <property name="tag">rotoscoping</property>
    <property name="kdenlive_ix">2</property>
    <property name="kdenlive_info">1/-1/</property>
    <property name="disable">1</property>
    <property name="spline">{
    "0323": [
        [
            [
                0.883954802259887,
                -0.030320150659133717
            ],
            [
                0.8548022598870056,
                -0.002197112366603892
            ],
            [
                0.8550282485875706,
                0.06730696798493413
            ]
        ],
        [
            [
                0.8873446327683615,
                0.5670935342121782
            ],
            [
                0.8875706214689265,
                0.6365976145637162
            ],
            [
                0.9146892655367231,
                0.636195856873823
            ]
        ],
        [
            [
                0.9836158192090392,
                0.6249466415568109
            ],
            [
                1.010734463276836,
                0.6245448838669178
            ],
            [
                1.0125423728813556,
                0.5273195229127432
            ]
        ],
        [
            [
                1.0021468926553674,
                0.05887005649717515
            ],
            [
                1.003954802259887,
                -0.03835530445699937
            ],
            [
                0.9748022598870055,
                -0.010232266164469537
            ]
        ]
    ],
    "2092": [
        [
            [
                0.883954802259887,
                -0.030320150659133717
            ],
            [
                0.8548022598870056,
                -0.002197112366603892
            ],
            [
                0.8550282485875706,
                0.06730696798493413
            ]
        ],
        [
            [
                0.8873446327683615,
                0.5670935342121782
            ],
            [
                0.8875706214689265,
                0.6365976145637162
            ],
            [
                0.9146892655367231,
                0.636195856873823
            ]
        ],
        [
            [
                0.9836158192090392,
                0.6249466415568109
            ],
            [
                1.010734463276836,
                0.6245448838669178
            ],
            [
                1.0125423728813556,
                0.5273195229127432
            ]
        ],
        [
            [
                1.0021468926553674,
                0.05887005649717515
            ],
            [
                1.003954802259887,
                -0.03835530445699937
            ],
            [
                0.9748022598870055,
                -0.010232266164469537
            ]
        ]
    ],
    "2093": [
        [
            [
                0.883954802259887,
                -0.030320150659133717
            ],
            [
                0.8548022598870056,
                -0.002197112366603892
            ],
            [
                0.8550282485875706,
                0.06730696798493413
            ]
        ],
        [
            [
                0.8977410231904976,
                0.566539903793712
            ],
            [
                0.8979670118910625,
                0.63604398414525
            ],
            [
                0.9250856559588593,
                0.6356422264553568
            ]
        ],
        [
            [
                0.9836158192090392,
                0.6249466415568109
            ],
            [
                1.010734463276836,
                0.6245448838669178
            ],
            [
                1.0125423728813556,
                0.5273195229127432
            ]
        ],
        [
            [
                1.0021468926553674,
                0.05887005649717515
            ],
            [
                1.003954802259887,
                -0.03835530445699937
            ],
            [
                0.9748022598870055,
                -0.010232266164469537
            ]
        ]
    ],
    "2096": [
        [
            [
                0.883954802259887,
                -0.030320150659133717
            ],
            [
                0.8548022598870056,
                -0.002197112366603892
            ],
            [
                0.8550282485875706,
                0.06730696798493413
            ]
        ],
        [
            [
                0.9336401994629843,
                0.39191492988961335
            ],
            [
                0.9125431530494822,
                0.6278608873545583
            ],
            [
                0.9396617971172788,
                0.627459129664665
            ]
        ],
        [
            [
                0.9836158192090392,
                0.6249466415568109
            ],
            [
                1.010734463276836,
                0.6245448838669178
            ],
            [
                1.0125423728813556,
                0.5273195229127432
            ]
        ],
        [
            [
                1.0021468926553674,
                0.05887005649717515
            ],
            [
                1.003954802259887,
                -0.03835530445699937
            ],
            [
                0.9748022598870055,
                -0.010232266164469537
            ]
        ]
    ],
    "2099": [
        [
            [
                0.883954802259887,
                -0.030320150659133717
            ],
            [
                0.8548022598870056,
                -0.002197112366603892
            ],
            [
                0.8596087456846951,
                0.2848527468780633
            ]
        ],
        [
            [
                0.9693133870349062,
                0.3598644674594041
            ],
            [
                0.9482163406214039,
                0.5958104249243489
            ],
            [
                0.9753349846892008,
                0.5954086672344557
            ]
        ],
        [
            [
                0.9836158192090392,
                0.6249466415568109
            ],
            [
                1.010734463276836,
                0.6245448838669178
            ],
            [
                1.0125423728813556,
                0.5273195229127432
            ]
        ],
        [
            [
                1.0021468926553674,
                0.05887005649717515
            ],
            [
                1.003954802259887,
                -0.03835530445699937
            ],
            [
                0.9748022598870055,
                -0.010232266164469537
            ]
        ]
    ],
    "2101": [
        [
            [
                0.883954802259887,
                -0.030320150659133717
            ],
            [
                0.8548022598870056,
                -0.002197112366603892
            ],
            [
                0.83505945531262,
                0.3019008651920044
            ]
        ],
        [
            [
                0.9581894898350597,
                0.2773515748199291
            ],
            [
                0.9370924434215574,
                0.513297532284874
            ],
            [
                0.9642110874893542,
                0.5128957745949808
            ]
        ],
        [
            [
                0.9836158192090392,
                0.6249466415568109
            ],
            [
                1.010734463276836,
                0.6245448838669178
            ],
            [
                1.0125423728813556,
                0.5273195229127432
            ]
        ],
        [
            [
                1.0021468926553674,
                0.05887005649717515
            ],
            [
                1.003954802259887,
                -0.03835530445699937
            ],
            [
                0.9748022598870055,
                -0.010232266164469537
            ]
        ]
    ],
    "2105": [
        [
            [
                0.883954802259887,
                -0.030320150659133717
            ],
            [
                0.8548022598870056,
                -0.002197112366603892
            ],
            [
                0.83505945531262,
                0.3019008651920044
            ]
        ],
        [
            [
                0.8662255466052934,
                0.2795678302007416
            ],
            [
                0.9050632911392406,
                0.4832928440523377
            ],
            [
                0.9321819352070373,
                0.4828910863624445
            ]
        ],
        [
            [
                0.9836158192090392,
                0.6249466415568109
            ],
            [
                1.010734463276836,
                0.6245448838669178
            ],
            [
                1.0125423728813556,
                0.5273195229127432
            ]
        ],
        [
            [
                1.0021468926553674,
                0.05887005649717515
            ],
            [
                1.003954802259887,
                -0.03835530445699937
            ],
            [
                0.9748022598870055,
                -0.010232266164469537
            ]
        ]
    ],
    "2108": [
        [
            [
                0.883954802259887,
                -0.030320150659133717
            ],
            [
                0.8548022598870056,
                -0.002197112366603892
            ],
            [
                0.83505945531262,
                0.3019008651920044
            ]
        ],
        [
            [
                0.894131185270426,
                0.21734219835485652
            ],
            [
                0.8730341388569237,
                0.45328815581980136
            ],
            [
                0.9001527829247206,
                0.45288639812990816
            ]
        ],
        [
            [
                0.9836158192090392,
                0.6249466415568109
            ],
            [
                1.010734463276836,
                0.6245448838669178
            ],
            [
                1.0125423728813556,
                0.5273195229127432
            ]
        ],
        [
            [
                1.0021468926553674,
                0.05887005649717515
            ],
            [
                1.003954802259887,
                -0.03835530445699937
            ],
            [
                0.9748022598870055,
                -0.010232266164469537
            ]
        ]
    ],
    "2110": [
        [
            [
                0.883954802259887,
                -0.030320150659133717
            ],
            [
                0.8548022598870056,
                -0.002197112366603892
            ],
            [
                0.83505945531262,
                0.3019008651920044
            ]
        ],
        [
            [
                0.894131185270426,
                0.21734219835485652
            ],
            [
                0.8730341388569237,
                0.45328815581980136
            ],
            [
                0.9001527829247206,
                0.45288639812990816
            ]
        ],
        [
            [
                0.9836158192090392,
                0.6249466415568109
            ],
            [
                1.010734463276836,
                0.6245448838669178
            ],
            [
                1.0125423728813556,
                0.5273195229127432
            ]
        ],
        [
            [
                1.0021468926553674,
                0.05887005649717515
            ],
            [
                1.003954802259887,
                -0.03835530445699937
            ],
            [
                0.9748022598870055,
                -0.010232266164469537
            ]
        ]
    ],
    "2111": [
        [
            [
                0.883954802259887,
                -0.030320150659133717
            ],
            [
                0.8548022598870056,
                -0.002197112366603892
            ],
            [
                0.83505945531262,
                0.3019008651920044
            ]
        ],
        [
            [
                0.8995013425393174,
                0.26303115543621863
            ],
            [
                0.8784042961258152,
                0.4989771129011635
            ],
            [
                0.9055229401936119,
                0.4985753552112703
            ]
        ],
        [
            [
                0.9916769063733234,
                0.5061981179166332
            ],
            [
                1.0187955504411201,
                0.50579636022674
            ],
            [
                1.0206034600456397,
                0.40857099927256546
            ]
        ],
        [
            [
                1.0021468926553674,
                0.05887005649717515
            ],
            [
                1.003954802259887,
                -0.03835530445699937
            ],
            [
                0.9748022598870055,
                -0.010232266164469537
            ]
        ]
    ],
    "2113": [
        [
            [
                0.883954802259887,
                -0.030320150659133717
            ],
            [
                0.8548022598870056,
                -0.002197112366603892
            ],
            [
                0.83505945531262,
                0.3019008651920044
            ]
        ],
        [
            [
                0.9044879171461451,
                0.2889442952734091
            ],
            [
                0.883390870732643,
                0.524890252738354
            ],
            [
                0.9543536632144228,
                0.5876273281336573
            ]
        ],
        [
            [
                0.8657460682777139,
                0.44237736009887907
            ],
            [
                1.0187955504411201,
                0.50579636022674
            ],
            [
                1.0206034600456397,
                0.40857099927256546
            ]
        ],
        [
            [
                1.0021468926553674,
                0.05887005649717515
            ],
            [
                1.003954802259887,
                -0.03835530445699937
            ],
            [
                0.9748022598870055,
                -0.010232266164469537
            ]
        ]
    ],
    "2114": [
        [
            [
                0.883954802259887,
                -0.030320150659133717
            ],
            [
                0.8548022598870056,
                -0.002197112366603892
            ],
            [
                0.83505945531262,
                0.3019008651920044
            ]
        ],
        [
            [
                0.9083237437667819,
                0.29508161786642795
            ],
            [
                0.8872266973532796,
                0.5310275753313728
            ],
            [
                0.9393939393939393,
                0.5548949409708903
            ]
        ],
        [
            [
                0.8768699654775605,
                0.4266930912500532
            ],
            [
                1.0187955504411201,
                0.50579636022674
            ],
            [
                1.0206034600456397,
                0.40857099927256546
            ]
        ],
        [
            [
                1.0021468926553674,
                0.05887005649717515
            ],
            [
                1.003954802259887,
                -0.03835530445699937
            ],
            [
                0.9748022598870055,
                -0.010232266164469537
            ]
        ]
    ],
    "2115": [
        [
            [
                0.883954802259887,
                -0.030320150659133717
            ],
            [
                0.8548022598870056,
                -0.002197112366603892
            ],
            [
                0.83505945531262,
                0.3019008651920044
            ]
        ],
        [
            [
                0.9087073264288457,
                0.22757106934322113
            ],
            [
                0.8876102800153434,
                0.463517026808166
            ],
            [
                1.0168776371308017,
                0.539892596854622
            ]
        ],
        [
            [
                0.9282700421940929,
                0.2896262200059668
            ],
            [
                1.0314537782892215,
                0.37418488684311463
            ],
            [
                1.0332616878937408,
                0.27695952588894013
            ]
        ],
        [
            [
                1.0021468926553674,
                0.05887005649717515
            ],
            [
                1.003954802259887,
                -0.03835530445699937
            ],
            [
                0.9748022598870055,
                -0.010232266164469537
            ]
        ]
    ],
    "2116": [
        [
            [
                0.883954802259887,
                -0.030320150659133717
            ],
            [
                0.8548022598870056,
                -0.002197112366603892
            ],
            [
                0.83505945531262,
                0.3019008651920044
            ]
        ],
        [
            [
                0.9028576908323745,
                0.2195584537356689
            ],
            [
                0.8817606444188723,
                0.4555044112006138
            ],
            [
                1.0110280015343305,
                0.5318799812470693
            ]
        ],
        [
            [
                0.9282700421940929,
                0.2896262200059668
            ],
            [
                1.0314537782892215,
                0.37418488684311463
            ],
            [
                1.0332616878937408,
                0.27695952588894013
            ]
        ],
        [
            [
                1.0021468926553674,
                0.05887005649717515
            ],
            [
                1.003954802259887,
                -0.03835530445699937
            ],
            [
                0.9748022598870055,
                -0.010232266164469537
            ]
        ]
    ],
    "2117": [
        [
            [
                0.883954802259887,
                -0.030320150659133717
            ],
            [
                0.8548022598870056,
                -0.002197112366603892
            ],
            [
                0.83505945531262,
                0.3019008651920044
            ]
        ],
        [
            [
                0.9041043344840816,
                0.14028470357584275
            ],
            [
                0.8830072880705794,
                0.3762306610407876
            ],
            [
                1.0122746451860376,
                0.4526062310872438
            ]
        ],
        [
            [
                0.9282700421940929,
                0.2896262200059668
            ],
            [
                1.0314537782892215,
                0.37418488684311463
            ],
            [
                1.0332616878937408,
                0.27695952588894013
            ]
        ],
        [
            [
                1.0021468926553674,
                0.05887005649717515
            ],
            [
                1.003954802259887,
                -0.03835530445699937
            ],
            [
                0.9748022598870055,
                -0.010232266164469537
            ]
        ]
    ],
    "2118": [
        [
            [
                0.883954802259887,
                -0.030320150659133717
            ],
            [
                0.8548022598870056,
                -0.002197112366603892
            ],
            [
                0.83505945531262,
                0.3019008651920044
            ]
        ],
        [
            [
                0.9051591868047566,
                0.13875037292758807
            ],
            [
                0.8840621403912544,
                0.3746963303925329
            ],
            [
                1.0299514128628053,
                0.44675304379945735
            ]
        ],
        [
            [
                0.9552486894259047,
                0.252802284447854
            ],
            [
                1.0584324255210331,
                0.3373609512850019
            ],
            [
                1.0602403351255527,
                0.24013559033082735
            ]
        ],
        [
            [
                1.0021468926553674,
                0.05887005649717515
            ],
            [
                1.003954802259887,
                -0.03835530445699937
            ],
            [
                0.9748022598870055,
                -0.010232266164469537
            ]
        ]
    ],
    "2119": [
        [
            [
                0.883954802259887,
                -0.030320150659133717
            ],
            [
                0.8548022598870056,
                -0.002197112366603892
            ],
            [
                0.83505945531262,
                0.3019008651920044
            ]
        ],
        [
            [
                0.8998849252013811,
                0.04686101521544549
            ],
            [
                0.8787878787878789,
                0.28280697268039034
            ],
            [
                1.057920981971615,
                0.3462259728082512
            ]
        ],
        [
            [
                1.0092059838895282,
                0.17915441333162846
            ],
            [
                1.1123897199846566,
                0.2637130801687763
            ],
            [
                1.114197629589176,
                0.16648771921460181
            ]
        ],
        [
            [
                1.0021468926553674,
                0.05887005649717515
            ],
            [
                1.003954802259887,
                -0.03835530445699937
            ],
            [
                0.9748022598870055,
                -0.010232266164469537
            ]
        ]
    ],
    "2120": [
        [
            [
                0.883954802259887,
                -0.030320150659133717
            ],
            [
                0.8548022598870056,
                -0.002197112366603892
            ],
            [
                0.83505945531262,
                0.3019008651920044
            ]
        ],
        [
            [
                0.9028576908323745,
                0.041576098538123836
            ],
            [
                0.8817606444188723,
                0.2775220560030687
            ],
            [
                1.0608937476026084,
                0.3409410561309295
            ]
        ],
        [
            [
                1.0092059838895282,
                0.17915441333162846
            ],
            [
                1.1123897199846566,
                0.2637130801687763
            ],
            [
                1.114197629589176,
                0.16648771921460181
            ]
        ],
        [
            [
                1.0021468926553674,
                0.05887005649717515
            ],
            [
                1.003954802259887,
                -0.03835530445699937
            ],
            [
                0.9748022598870055,
                -0.010232266164469537
            ]
        ]
    ],
    "2121": [
        [
            [
                0.883954802259887,
                -0.030320150659133717
            ],
            [
                0.8548022598870056,
                -0.002197112366603892
            ],
            [
                0.83505945531262,
                0.3019008651920044
            ]
        ],
        [
            [
                0.8971998465669354,
                -0.05542769466820111
            ],
            [
                0.8761028001534331,
                0.18051826279674374
            ],
            [
                1.0552359033371694,
                0.24393726292460446
            ]
        ],
        [
            [
                1.0092059838895282,
                0.17915441333162846
            ],
            [
                1.1123897199846566,
                0.2637130801687763
            ],
            [
                1.114197629589176,
                0.16648771921460181
            ]
        ],
        [
            [
                1.0021468926553674,
                0.05887005649717515
            ],
            [
                1.003954802259887,
                -0.03835530445699937
            ],
            [
                0.9748022598870055,
                -0.010232266164469537
            ]
        ]
    ],
    "2122": [
        [
            [
                0.883954802259887,
                -0.030320150659133717
            ],
            [
                0.8548022598870056,
                -0.002197112366603892
            ],
            [
                0.839662447257384,
                0.2100683345409083
            ]
        ],
        [
            [
                0.9005561948599925,
                -0.057643950049013445
            ],
            [
                0.8794591484464902,
                0.17830200741593147
            ],
            [
                1.017037463239995,
                0.22467288922985115
            ]
        ],
        [
            [
                1.0030686612965094,
                0.1352839222037534
            ],
            [
                1.106252397391638,
                0.21984258904090123
            ],
            [
                1.1080603069961574,
                0.12261722808672675
            ]
        ],
        [
            [
                1.0021468926553674,
                0.05887005649717515
            ],
            [
                1.003954802259887,
                -0.03835530445699937
            ],
            [
                0.9748022598870055,
                -0.010232266164469537
            ]
        ]
    ],
    "2123": [
        [
            [
                0.883954802259887,
                -0.030320150659133717
            ],
            [
                0.8548022598870056,
                -0.002197112366603892
            ],
            [
                0.8488684311469122,
                0.0264032732387162
            ]
        ],
        [
            [
                0.9098580744150367,
                -0.16112602821463615
            ],
            [
                0.8887610280015344,
                0.07481992925030892
            ],
            [
                0.9432297660145763,
                0.08709457443634651
            ]
        ],
        [
            [
                0.990794016110472,
                0.047542939948003224
            ],
            [
                1.0939777522056005,
                0.13210160678515104
            ],
            [
                1.0957856618101198,
                0.034876245830976565
            ]
        ],
        [
            [
                1.0021468926553674,
                0.05887005649717515
            ],
            [
                1.003954802259887,
                -0.03835530445699937
            ],
            [
                0.9748022598870055,
                -0.010232266164469537
            ]
        ]
    ],
    "2124": [
        [
            [
                0.883954802259887,
                -0.030320150659133717
            ],
            [
                0.8548022598870056,
                -0.002197112366603892
            ],
            [
                0.8488684311469122,
                0.0264032732387162
            ]
        ],
        [
            [
                0.9091868047564252,
                -0.16504709542684237
            ],
            [
                0.888089758342923,
                0.07089886203810254
            ],
            [
                0.9425584963559648,
                0.08317350722414013
            ]
        ],
        [
            [
                0.9793824319140777,
                0.06305672761368968
            ],
            [
                1.082566168009206,
                0.14761539445083752
            ],
            [
                1.0843740776137254,
                0.050390033496663
            ]
        ],
        [
            [
                1.0021468926553674,
                0.05887005649717515
            ],
            [
                1.003954802259887,
                -0.03835530445699937
            ],
            [
                0.9748022598870055,
                -0.010232266164469537
            ]
        ]
    ],
    "2125": [
        [
            [
                0.883954802259887,
                -0.030320150659133717
            ],
            [
                0.8548022598870056,
                -0.002197112366603892
            ],
            [
                0.8488684311469122,
                0.0264032732387162
            ]
        ],
        [
            [
                0.9163789796701192,
                -0.24363892085411093
            ],
            [
                0.895281933256617,
                -0.007692963389165999
            ],
            [
                0.9497506712696587,
                0.004581681796871585
            ]
        ],
        [
            [
                0.9635596471039509,
                -0.05747346886587401
            ],
            [
                1.0667433831990794,
                0.027085197971273844
            ],
            [
                1.0685512928035985,
                -0.07014016298290071
            ]
        ],
        [
            [
                1.0021468926553674,
                0.05887005649717515
            ],
            [
                1.003954802259887,
                -0.03835530445699937
            ],
            [
                0.9748022598870055,
                -0.010232266164469537
            ]
        ]
    ],
    "2148": [
        [
            [
                0.883954802259887,
                -0.030320150659133717
            ],
            [
                0.8548022598870056,
                -0.002197112366603892
            ],
            [
                0.8488684311469122,
                0.0264032732387162
            ]
        ],
        [
            [
                0.9163789796701192,
                -0.24363892085411093
            ],
            [
                0.895281933256617,
                -0.007692963389165999
            ],
            [
                0.9497506712696587,
                0.004581681796871585
            ]
        ],
        [
            [
                0.9635596471039509,
                -0.05747346886587401
            ],
            [
                1.0667433831990794,
                0.027085197971273844
            ],
            [
                1.0685512928035985,
                -0.07014016298290071
            ]
        ],
        [
            [
                1.0021468926553674,
                0.05887005649717515
            ],
            [
                1.003954802259887,
                -0.03835530445699937
            ],
            [
                0.9748022598870055,
                -0.010232266164469537
            ]
        ]
    ],
    "2149": [
        [
            [
                0.883954802259887,
                -0.030320150659133717
            ],
            [
                0.8548022598870056,
                -0.002197112366603892
            ],
            [
                0.8488684311469122,
                0.0264032732387162
            ]
        ],
        [
            [
                0.8408131952435751,
                0.014810552785236079
            ],
            [
                0.8197161488300729,
                0.2507565102501811
            ],
            [
                0.8741848868431147,
                0.2630311554362186
            ]
        ],
        [
            [
                0.9037207518220177,
                0.2268891446106637
            ],
            [
                0.9064058304564635,
                0.18529173592464726
            ],
            [
                0.9041043344840813,
                0.09868729488982647
            ]
        ],
        [
            [
                0.8879938626774071,
                0.12664620892468986
            ],
            [
                0.8837744533947067,
                0.06731875719217484
            ],
            [
                0.8738013041810511,
                0.023675574308485627
            ]
        ]
    ],
    "2151": [
        [
            [
                0.883954802259887,
                -0.030320150659133717
            ],
            [
                0.8548022598870056,
                -0.002197112366603892
            ],
            [
                0.8488684311469122,
                0.0264032732387162
            ]
        ],
        [
            [
                0.863444572305332,
                0.22347952094787515
            ],
            [
                0.8423475258918298,
                0.45942547841282017
            ],
            [
                0.8968162639048717,
                0.47170012359885766
            ]
        ],
        [
            [
                0.9336401994629843,
                0.21188680049439554
            ],
            [
                0.93632527809743,
                0.1702893918083791
            ],
            [
                0.9340237821250479,
                0.08368495077355831
            ]
        ],
        [
            [
                0.9048714998082088,
                0.1177811874014405
            ],
            [
                0.9347909474491753,
                -0.009056812854281287
            ],
            [
                0.9248177982355198,
                -0.05269999573797053
            ]
        ]
    ],
    "2152": [
        [
            [
                0.883954802259887,
                -0.030320150659133717
            ],
            [
                0.8548022598870056,
                -0.002197112366603892
            ],
            [
                0.8488684311469122,
                0.0264032732387162
            ]
        ],
        [
            [
                0.863444572305332,
                0.22347952094787515
            ],
            [
                0.8423475258918298,
                0.45942547841282017
            ],
            [
                0.8968162639048717,
                0.47170012359885766
            ]
        ],
        [
            [
                0.9336401994629843,
                0.21188680049439554
            ],
            [
                0.93632527809743,
                0.1702893918083791
            ],
            [
                0.9340237821250479,
                0.08368495077355831
            ]
        ],
        [
            [
                0.9048714998082088,
                0.1177811874014405
            ],
            [
                0.9347909474491753,
                -0.009056812854281287
            ],
            [
                0.9248177982355198,
                -0.05269999573797053
            ]
        ]
    ],
    "2153": [
        [
            [
                1.0161104718066745,
                -0.060883092528662225
            ],
            [
                0.8548022598870056,
                -0.002197112366603892
            ],
            [
                0.8488684311469122,
                0.0264032732387162
            ]
        ],
        [
            [
                0.8784042961258153,
                0.3666837147849804
            ],
            [
                0.8573072497123131,
                0.6026296722499254
            ],
            [
                0.9332566168009208,
                0.6599113497847675
            ]
        ],
        [
            [
                0.9953970080552359,
                0.5944465754592336
            ],
            [
                0.902186421173763,
                0.4969313387034906
            ],
            [
                0.8998849252013809,
                0.41032689766866975
            ]
        ],
        [
            [
                1.0034522439585731,
                0.2568938328431998
            ],
            [
                0.9589566551591868,
                0.09800537015726883
            ],
            [
                0.9489835059455313,
                0.054362187273579554
            ]
        ]
    ],
    "2154": [
        [
            [
                1.0161104718066745,
                -0.060883092528662225
            ],
            [
                0.8548022598870056,
                -0.002197112366603892
            ],
            [
                0.8488684311469122,
                0.0264032732387162
            ]
        ],
        [
            [
                0.8784042961258153,
                0.3666837147849804
            ],
            [
                0.8573072497123131,
                0.6026296722499254
            ],
            [
                0.9332566168009208,
                0.6599113497847675
            ]
        ],
        [
            [
                0.9953970080552359,
                0.5944465754592336
            ],
            [
                0.902186421173763,
                0.4969313387034906
            ],
            [
                0.8998849252013809,
                0.41032689766866975
            ]
        ],
        [
            [
                1.0034522439585731,
                0.2568938328431998
            ],
            [
                0.9589566551591868,
                0.09800537015726883
            ],
            [
                0.9489835059455313,
                0.054362187273579554
            ]
        ]
    ],
    "2155": [
        [
            [
                1.0161104718066745,
                -0.060883092528662225
            ],
            [
                0.8548022598870056,
                -0.002197112366603892
            ],
            [
                0.8488684311469122,
                0.0264032732387162
            ]
        ],
        [
            [
                0.8784042961258153,
                0.3666837147849804
            ],
            [
                0.8573072497123131,
                0.6026296722499254
            ],
            [
                0.9332566168009208,
                0.6599113497847675
            ]
        ],
        [
            [
                1.035289604909858,
                0.5964923496569066
            ],
            [
                0.9420790180283852,
                0.4989771129011635
            ],
            [
                0.9543536632144228,
                0.40077995141286277
            ]
        ],
        [
            [
                1.0168776371308017,
                0.203021778971146
            ],
            [
                1.014192558496356,
                0.016174402250351542
            ],
            [
                1.0103567318757192,
                -0.03496995269147177
            ]
        ]
    ],
    "2156": [
        [
            [
                1.0161104718066745,
                -0.060883092528662225
            ],
            [
                0.8548022598870056,
                -0.002197112366603892
            ],
            [
                0.8488684311469122,
                0.0264032732387162
            ]
        ],
        [
            [
                0.8784042961258153,
                0.3666837147849804
            ],
            [
                0.8573072497123131,
                0.6026296722499254
            ],
            [
                0.9332566168009208,
                0.6599113497847675
            ]
        ],
        [
            [
                1.035289604909858,
                0.5964923496569066
            ],
            [
                0.9420790180283852,
                0.4989771129011635
            ],
            [
                0.9543536632144228,
                0.40077995141286277
            ]
        ],
        [
            [
                1.0168776371308017,
                0.203021778971146
            ],
            [
                1.014192558496356,
                0.016174402250351542
            ],
            [
                1.0103567318757192,
                -0.03496995269147177
            ]
        ]
    ],
    "2157": [
        [
            [
                1.0161104718066745,
                -0.060883092528662225
            ],
            [
                0.8548022598870056,
                -0.002197112366603892
            ],
            [
                0.8488684311469122,
                0.0264032732387162
            ]
        ],
        [
            [
                0.8784042961258153,
                0.3666837147849804
            ],
            [
                0.8573072497123131,
                0.6026296722499254
            ],
            [
                0.9332566168009208,
                0.6599113497847675
            ]
        ],
        [
            [
                1.0721135404679714,
                0.5903550270638879
            ],
            [
                0.978902953586498,
                0.49283979030814473
            ],
            [
                0.9911775987725356,
                0.394642628819844
            ]
        ],
        [
            [
                1.0168776371308017,
                0.203021778971146
            ],
            [
                1.014192558496356,
                0.016174402250351542
            ],
            [
                1.0103567318757192,
                -0.03496995269147177
            ]
        ]
    ],
    "2158": [
        [
            [
                1.0161104718066745,
                -0.060883092528662225
            ],
            [
                0.8548022598870056,
                -0.002197112366603892
            ],
            [
                0.8488684311469122,
                0.0264032732387162
            ]
        ],
        [
            [
                0.8784042961258153,
                0.3666837147849804
            ],
            [
                0.8573072497123131,
                0.6026296722499254
            ],
            [
                0.9332566168009208,
                0.6599113497847675
            ]
        ],
        [
            [
                1.0721135404679714,
                0.5903550270638879
            ],
            [
                0.978902953586498,
                0.49283979030814473
            ],
            [
                0.9911775987725356,
                0.394642628819844
            ]
        ],
        [
            [
                1.0168776371308017,
                0.203021778971146
            ],
            [
                1.014192558496356,
                0.016174402250351542
            ],
            [
                1.0103567318757192,
                -0.03496995269147177
            ]
        ]
    ],
    "2159": [
        [
            [
                1.0161104718066745,
                -0.060883092528662225
            ],
            [
                0.8548022598870056,
                -0.002197112366603892
            ],
            [
                0.8488684311469122,
                0.0264032732387162
            ]
        ],
        [
            [
                0.8784042961258153,
                0.3666837147849804
            ],
            [
                0.8573072497123131,
                0.6026296722499254
            ],
            [
                0.9332566168009208,
                0.6599113497847675
            ]
        ],
        [
            [
                1.149884925201381,
                0.6242807825086306
            ],
            [
                1.0326045262754124,
                0.4614712526104931
            ],
            [
                1.04487917146145,
                0.3632740911221924
            ]
        ],
        [
            [
                1.0168776371308017,
                0.203021778971146
            ],
            [
                1.014192558496356,
                0.016174402250351542
            ],
            [
                1.0103567318757192,
                -0.03496995269147177
            ]
        ]
    ]
}
</property>
   </filter>
   <filter id="filter43">
    <property name="version">0,2</property>
    <property name="mlt_service">frei0r.brightness</property>
    <property name="kdenlive_id">frei0r.brightness</property>
    <property name="tag">frei0r.brightness</property>
    <property name="kdenlive_ix">3</property>
    <property name="kdenlive_info"/>
    <property name="disable">1</property>
    <property name="Brightness">0,45</property>
   </filter>
  </entry>
  <blank length="284"/>
  <entry producer="49_playlist0" in="1768" out="3983">
   <filter id="filter44">
    <property name="version">0,1</property>
    <property name="mlt_service">frei0r.alphaspot</property>
    <property name="kdenlive_id">frei0r.alphaspot</property>
    <property name="tag">frei0r.alphaspot</property>
    <property name="kdenlive_ix">1</property>
    <property name="kdenlive_info">1/-1/</property>
    <property name="disable">1</property>
    <property name="Shape">0,0</property>
    <property name="Position X">1768=0</property>
    <property name="Position Y">1768=0,432</property>
    <property name="Size X">1768=0,125</property>
    <property name="Size Y">1768=0,575</property>
    <property name="Tilt">1768=0</property>
    <property name="Transition width">1768=0</property>
    <property name="Min">1768=0</property>
    <property name="Max">1768=1</property>
    <property name="Operation">1,0</property>
   </filter>
   <filter id="filter45">
    <property name="mode">rgb</property>
    <property name="alpha_operation">sub</property>
    <property name="invert">1</property>
    <property name="feather">0</property>
    <property name="feather_passes">1</property>
    <property name="mlt_service">rotoscoping</property>
    <property name="kdenlive_id">rotoscoping</property>
    <property name="tag">rotoscoping</property>
    <property name="kdenlive_ix">2</property>
    <property name="kdenlive_info"/>
    <property name="disable">1</property>
    <property name="spline">[
    [
        [
            0.8568361581920904,
            -0.07652228499686128
        ],
        [
            0.827683615819209,
            -0.04839924670433145
        ],
        [
            0.827909604519774,
            0.02110483364720656
        ]
    ],
    [
        [
            0.811638418079096,
            0.4405398618957941
        ],
        [
            0.811864406779661,
            0.5100439422473321
        ],
        [
            0.8389830508474577,
            0.5096421845574387
        ]
    ],
    [
        [
            0.9971751412429377,
            0.5084369114877588
        ],
        [
            1.0242937853107346,
            0.5080351537978657
        ],
        [
            1.0261016949152542,
            0.4108097928436911
        ]
    ],
    [
        [
            1.117401129943503,
            0.010659133709981165
        ],
        [
            1.1192090395480225,
            -0.08656622724419336
        ],
        [
            1.0900564971751412,
            -0.058443188951663526
        ]
    ]
]
</property>
   </filter>
   <filter id="filter46">
    <property name="background">colour:0x00000000</property>
    <property name="mlt_service">affine</property>
    <property name="kdenlive_id">pan_zoom</property>
    <property name="tag">affine</property>
    <property name="kdenlive_ix">3</property>
    <property name="kdenlive_info"/>
    <property name="disable">1</property>
    <property name="transition.geometry">-68/56:1920x1080:100</property>
    <property name="transition.distort">0</property>
   </filter>
  </entry>
  <filter id="frei0r.curves">
   <property name="version">0,4</property>
   <property name="mlt_service">frei0r.curves</property>
   <property name="kdenlive_id">frei0r.curves</property>
   <property name="tag">frei0r.curves</property>
   <property name="kdenlive_ix">1</property>
   <property name="kdenlive_info">1/-1/</property>
   <property name="Channel">0,5</property>
   <property name="Luma formula">1</property>
   <property name="Curve point number">0,5</property>
   <property name="Point 1 input value">0</property>
   <property name="Point 1 output value">0</property>
   <property name="Point 2 input value">0,160714</property>
   <property name="Point 2 output value">0</property>
   <property name="Point 3 input value">0,271714</property>
   <property name="Point 3 output value">0,164286</property>
   <property name="Point 4 input value">0,396428</property>
   <property name="Point 4 output value">0,560714</property>
   <property name="Point 5 input value">1</property>
   <property name="Point 5 output value">1</property>
   <property name="Show curves">0</property>
   <property name="Graph position">0,3</property>
   <property name="disable">0</property>
  </filter>
  <filter id="filter23">
   <property name="version">0,3</property>
   <property name="mlt_service">frei0r.saturat0r</property>
   <property name="kdenlive_id">frei0r.saturat0r</property>
   <property name="tag">frei0r.saturat0r</property>
   <property name="kdenlive_ix">2</property>
   <property name="kdenlive_info">1/-1/</property>
   <property name="Saturation">0=0,09</property>
   <property name="disable">0</property>
  </filter>
 </playlist>
 <playlist id="playlist6">
  <property name="kdenlive:track_name">Vidéo 5</property>
  <property name="kdenlive:locked_track">0</property>
  <blank length="227"/>
  <entry producer="70" in="0" out="380">
   <filter id="fade_from_black" out="50">
    <property name="start">0</property>
    <property name="mlt_service">brightness</property>
    <property name="kdenlive_id">fade_from_black</property>
    <property name="tag">brightness</property>
    <property name="kdenlive_ix">1</property>
    <property name="end">1</property>
    <property name="kdenlive_info"/>
    <property name="disable"/>
   </filter>
   <filter id="fade_to_black" in="347" out="380">
    <property name="start">1</property>
    <property name="mlt_service">brightness</property>
    <property name="kdenlive_id">fade_to_black</property>
    <property name="tag">brightness</property>
    <property name="kdenlive_ix">2</property>
    <property name="end">0</property>
   </filter>
  </entry>
  <blank length="2315"/>
  <entry producer="74" in="0" out="74">
   <filter id="filter47" out="50">
    <property name="start">0</property>
    <property name="mlt_service">brightness</property>
    <property name="kdenlive_id">fade_from_black</property>
    <property name="tag">brightness</property>
    <property name="kdenlive_info"/>
    <property name="kdenlive_ix">1</property>
    <property name="disable"/>
    <property name="end">1</property>
   </filter>
  </entry>
  <entry producer="74" in="75" out="380">
   <filter id="filter48" in="347" out="380">
    <property name="start">1</property>
    <property name="mlt_service">brightness</property>
    <property name="kdenlive_id">fade_to_black</property>
    <property name="tag">brightness</property>
    <property name="kdenlive_info"/>
    <property name="kdenlive_ix">2</property>
    <property name="disable"/>
    <property name="end">0</property>
   </filter>
  </entry>
  <blank length="5945"/>
  <entry producer="75" in="0" out="380">
   <filter id="filter49" out="50">
    <property name="start">0</property>
    <property name="mlt_service">brightness</property>
    <property name="kdenlive_id">fade_from_black</property>
    <property name="tag">brightness</property>
    <property name="kdenlive_ix">1</property>
    <property name="kdenlive_info"/>
    <property name="disable"/>
    <property name="end">1</property>
   </filter>
   <filter id="filter50" in="347" out="380">
    <property name="start">1</property>
    <property name="mlt_service">brightness</property>
    <property name="kdenlive_id">fade_to_black</property>
    <property name="tag">brightness</property>
    <property name="kdenlive_ix">2</property>
    <property name="kdenlive_info"/>
    <property name="disable"/>
    <property name="end">0</property>
   </filter>
  </entry>
 </playlist>
 <producer title="Anonymous Submission" id="71_playlist8" in="0" out="6482">
  <property name="length">00:02:09:33</property>
  <property name="eof">pause</property>
  <property name="resource">/media/bordun/plagiat/Clip02_RespecteLaPuissancePapale/Assets/fake_interpreter_at_nelson_mandela_memorial_2hCdtUxnOG8_360p.mp4</property>
  <property name="audio_index">1</property>
  <property name="video_index">0</property>
  <property name="mute_on_pause">1</property>
  <property name="mlt_service">avformat-novalidate</property>
  <property name="seekable">1</property>
  <property name="aspect_ratio">1</property>
  <property name="kdenlive:file_size">7568940</property>
  <property name="kdenlive:file_hash">af8c6ddd3ee34376b244cfe29bcf324c</property>
  <property name="global_feed">1</property>
  <property name="kdenlive:zone_in">258</property>
  <property name="kdenlive:zone_out">6482</property>
  <property name="xml">was here</property>
  <property name="meta.media.nb_streams">2</property>
  <property name="meta.media.0.stream.type">video</property>
  <property name="meta.media.0.stream.frame_rate">25</property>
  <property name="meta.media.0.stream.sample_aspect_ratio">0</property>
  <property name="meta.media.0.codec.width">620</property>
  <property name="meta.media.0.codec.height">348</property>
  <property name="meta.media.0.codec.rotate">0</property>
  <property name="meta.media.0.codec.frame_rate">25</property>
  <property name="meta.media.0.codec.pix_fmt">yuv420p</property>
  <property name="meta.media.0.codec.sample_aspect_ratio">1</property>
  <property name="meta.media.0.codec.colorspace">601</property>
  <property name="meta.media.0.codec.name">h264</property>
  <property name="meta.media.0.codec.long_name">H.264 / AVC / MPEG-4 AVC / MPEG-4 part 10</property>
  <property name="meta.media.0.codec.bit_rate">368667</property>
  <property name="meta.attr.0.stream.handler_name.markup">VideoHandler</property>
  <property name="meta.media.1.stream.type">audio</property>
  <property name="meta.media.1.codec.sample_fmt">fltp</property>
  <property name="meta.media.1.codec.sample_rate">44100</property>
  <property name="meta.media.1.codec.channels">2</property>
  <property name="meta.media.1.codec.name">aac</property>
  <property name="meta.media.1.codec.long_name">AAC (Advanced Audio Coding)</property>
  <property name="meta.media.1.codec.bit_rate">95999</property>
  <property name="meta.attr.1.stream.creation_time.markup">2014-05-05T14:54:01.000000Z</property>
  <property name="meta.attr.1.stream.handler_name.markup">IsoMedia File Produced by Google, 5-11-2011</property>
  <property name="meta.attr.major_brand.markup">mp42</property>
  <property name="meta.attr.minor_version.markup">0</property>
  <property name="meta.attr.compatible_brands.markup">isommp42</property>
  <property name="meta.attr.creation_time.markup">2014-05-05T14:54:00.000000Z</property>
  <property name="meta.media.sample_aspect_num">1</property>
  <property name="meta.media.sample_aspect_den">1</property>
  <property name="meta.media.frame_rate_num">25</property>
  <property name="meta.media.frame_rate_den">1</property>
  <property name="meta.media.colorspace">601</property>
  <property name="meta.media.color_trc">2</property>
  <property name="meta.media.width">620</property>
  <property name="meta.media.height">348</property>
 </producer>
 <playlist id="playlist8">
  <property name="kdenlive:track_name">Video 1</property>
  <blank length="85"/>
  <entry producer="29" in="0" out="1918">
   <filter id="filter51">
    <property name="version">0,1</property>
    <property name="mlt_service">frei0r.alphaspot</property>
    <property name="kdenlive_id">frei0r.alphaspot</property>
    <property name="tag">frei0r.alphaspot</property>
    <property name="kdenlive_info"/>
    <property name="kdenlive_ix">1</property>
    <property name="disable">0</property>
    <property name="Shape">0,38</property>
    <property name="Position X">0=0,702</property>
    <property name="Position Y">0=0,49</property>
    <property name="Size X">0=0,142</property>
    <property name="Size Y">0=0,301</property>
    <property name="Tilt">0=0,5</property>
    <property name="Transition width">0=0,028</property>
    <property name="Min">0=0</property>
    <property name="Max">0=1</property>
    <property name="Operation">0,0</property>
   </filter>
   <filter id="filter52" out="39">
    <property name="start">0</property>
    <property name="mlt_service">brightness</property>
    <property name="kdenlive_id">fade_from_black</property>
    <property name="tag">brightness</property>
    <property name="kdenlive_ix">2</property>
    <property name="end">1</property>
   </filter>
  </entry>
  <blank length="720"/>
  <entry producer="29" in="7" out="3549">
   <filter id="frei0r.alphaspot">
    <property name="version">0,1</property>
    <property name="mlt_service">frei0r.alphaspot</property>
    <property name="kdenlive_id">frei0r.alphaspot</property>
    <property name="tag">frei0r.alphaspot</property>
    <property name="kdenlive_ix">1</property>
    <property name="kdenlive_info"/>
    <property name="disable">0</property>
    <property name="Shape">0,38</property>
    <property name="Position X">7=0,702</property>
    <property name="Position Y">7=0,49</property>
    <property name="Size X">7=0,142</property>
    <property name="Size Y">7=0,301</property>
    <property name="Tilt">7=0,5</property>
    <property name="Transition width">7=0,028</property>
    <property name="Min">7=0</property>
    <property name="Max">7=1</property>
    <property name="Operation">0,0</property>
   </filter>
   <filter id="filter24" in="7" out="46">
    <property name="start">0</property>
    <property name="mlt_service">brightness</property>
    <property name="kdenlive_id">fade_from_black</property>
    <property name="tag">brightness</property>
    <property name="kdenlive_ix">2</property>
    <property name="kdenlive_info"/>
    <property name="disable"/>
    <property name="end">1</property>
   </filter>
  </entry>
  <blank length="3070"/>
  <entry producer="29" in="0" out="1683">
   <filter id="filter25">
    <property name="version">0,1</property>
    <property name="mlt_service">frei0r.alphaspot</property>
    <property name="kdenlive_id">frei0r.alphaspot</property>
    <property name="tag">frei0r.alphaspot</property>
    <property name="kdenlive_ix">1</property>
    <property name="kdenlive_info"/>
    <property name="disable">0</property>
    <property name="Shape">0,38</property>
    <property name="Position X">0=0,702</property>
    <property name="Position Y">0=0,49</property>
    <property name="Size X">0=0,142</property>
    <property name="Size Y">0=0,301</property>
    <property name="Tilt">0=0,5</property>
    <property name="Transition width">0=0,028</property>
    <property name="Min">0=0</property>
    <property name="Max">0=1</property>
    <property name="Operation">0,0</property>
   </filter>
   <filter id="filter26" out="39">
    <property name="start">0</property>
    <property name="mlt_service">brightness</property>
    <property name="kdenlive_id">fade_from_black</property>
    <property name="tag">brightness</property>
    <property name="kdenlive_ix">2</property>
    <property name="kdenlive_info"/>
    <property name="disable"/>
    <property name="end">1</property>
   </filter>
  </entry>
  <blank length="17908"/>
  <entry producer="71_playlist8" in="265" out="2825">
   <filter id="filter55">
    <property name="version">0,1</property>
    <property name="mlt_service">frei0r.alphaspot</property>
    <property name="kdenlive_id">frei0r.alphaspot</property>
    <property name="tag">frei0r.alphaspot</property>
    <property name="kdenlive_ix">1</property>
    <property name="kdenlive_info"/>
    <property name="Shape">0,38</property>
    <property name="Position X">265=0,702</property>
    <property name="Position Y">265=0,49</property>
    <property name="Size X">265=0,139</property>
    <property name="Size Y">265=0,294</property>
    <property name="Tilt">265=0,5</property>
    <property name="Transition width">265=0,057</property>
    <property name="Min">265=0</property>
    <property name="Max">265=1</property>
    <property name="Operation">0,0</property>
   </filter>
  </entry>
 </playlist>
 <producer title="Anonymous Submission" id="71_playlist7" in="0" out="6482">
  <property name="length">00:02:09:33</property>
  <property name="eof">pause</property>
  <property name="resource">/media/bordun/plagiat/Clip02_RespecteLaPuissancePapale/Assets/fake_interpreter_at_nelson_mandela_memorial_2hCdtUxnOG8_360p.mp4</property>
  <property name="audio_index">1</property>
  <property name="video_index">0</property>
  <property name="mute_on_pause">1</property>
  <property name="mlt_service">avformat-novalidate</property>
  <property name="seekable">1</property>
  <property name="aspect_ratio">1</property>
  <property name="kdenlive:file_size">7568940</property>
  <property name="kdenlive:file_hash">af8c6ddd3ee34376b244cfe29bcf324c</property>
  <property name="global_feed">1</property>
  <property name="kdenlive:zone_in">258</property>
  <property name="kdenlive:zone_out">6482</property>
  <property name="xml">was here</property>
  <property name="meta.media.nb_streams">2</property>
  <property name="meta.media.0.stream.type">video</property>
  <property name="meta.media.0.stream.frame_rate">25</property>
  <property name="meta.media.0.stream.sample_aspect_ratio">0</property>
  <property name="meta.media.0.codec.width">620</property>
  <property name="meta.media.0.codec.height">348</property>
  <property name="meta.media.0.codec.rotate">0</property>
  <property name="meta.media.0.codec.frame_rate">25</property>
  <property name="meta.media.0.codec.pix_fmt">yuv420p</property>
  <property name="meta.media.0.codec.sample_aspect_ratio">1</property>
  <property name="meta.media.0.codec.colorspace">601</property>
  <property name="meta.media.0.codec.name">h264</property>
  <property name="meta.media.0.codec.long_name">H.264 / AVC / MPEG-4 AVC / MPEG-4 part 10</property>
  <property name="meta.media.0.codec.bit_rate">368667</property>
  <property name="meta.attr.0.stream.handler_name.markup">VideoHandler</property>
  <property name="meta.media.1.stream.type">audio</property>
  <property name="meta.media.1.codec.sample_fmt">fltp</property>
  <property name="meta.media.1.codec.sample_rate">44100</property>
  <property name="meta.media.1.codec.channels">2</property>
  <property name="meta.media.1.codec.name">aac</property>
  <property name="meta.media.1.codec.long_name">AAC (Advanced Audio Coding)</property>
  <property name="meta.media.1.codec.bit_rate">95999</property>
  <property name="meta.attr.1.stream.creation_time.markup">2014-05-05T14:54:01.000000Z</property>
  <property name="meta.attr.1.stream.handler_name.markup">IsoMedia File Produced by Google, 5-11-2011</property>
  <property name="meta.attr.major_brand.markup">mp42</property>
  <property name="meta.attr.minor_version.markup">0</property>
  <property name="meta.attr.compatible_brands.markup">isommp42</property>
  <property name="meta.attr.creation_time.markup">2014-05-05T14:54:00.000000Z</property>
  <property name="meta.media.sample_aspect_num">1</property>
  <property name="meta.media.sample_aspect_den">1</property>
  <property name="meta.media.frame_rate_num">25</property>
  <property name="meta.media.frame_rate_den">1</property>
  <property name="meta.media.colorspace">601</property>
  <property name="meta.media.color_trc">2</property>
  <property name="meta.media.width">620</property>
  <property name="meta.media.height">348</property>
  <property name="meta.media.top_field_first">0</property>
  <property name="meta.media.progressive">1</property>
 </producer>
 <producer title="Anonymous Submission" id="126_playlist7" in="0" out="3613">
  <property name="length">00:01:12:14</property>
  <property name="eof">pause</property>
  <property name="resource">/media/bordun/plagiat/Clip02_RespecteLaPuissancePapale/Assets/pascal.mp4</property>
  <property name="audio_index">-1</property>
  <property name="video_index">0</property>
  <property name="mute_on_pause">1</property>
  <property name="mlt_service">avformat-novalidate</property>
  <property name="seekable">1</property>
  <property name="aspect_ratio">1</property>
  <property name="kdenlive:file_size">13226081</property>
  <property name="kdenlive:file_hash">98226dc293008da729a6f45dca65d49d</property>
  <property name="global_feed">1</property>
  <property name="xml">was here</property>
  <property name="meta.media.nb_streams">1</property>
  <property name="meta.media.0.stream.type">video</property>
  <property name="meta.media.0.stream.frame_rate">25</property>
  <property name="meta.media.0.stream.sample_aspect_ratio">1</property>
  <property name="meta.media.0.codec.width">1920</property>
  <property name="meta.media.0.codec.height">1080</property>
  <property name="meta.media.0.codec.rotate">0</property>
  <property name="meta.media.0.codec.frame_rate">25</property>
  <property name="meta.media.0.codec.pix_fmt">yuv420p</property>
  <property name="meta.media.0.codec.sample_aspect_ratio">1</property>
  <property name="meta.media.0.codec.colorspace">709</property>
  <property name="meta.media.0.codec.color_trc">1</property>
  <property name="meta.media.0.codec.name">h264</property>
  <property name="meta.media.0.codec.long_name">H.264 / AVC / MPEG-4 AVC / MPEG-4 part 10</property>
  <property name="meta.media.0.codec.bit_rate">1392636</property>
  <property name="meta.attr.0.stream.handler_name.markup">VideoHandler</property>
  <property name="meta.attr.major_brand.markup">isom</property>
  <property name="meta.attr.minor_version.markup">512</property>
  <property name="meta.attr.compatible_brands.markup">isomiso2avc1mp41</property>
  <property name="meta.attr.encoder.markup">Lavf57.71.100</property>
  <property name="meta.media.sample_aspect_num">1</property>
  <property name="meta.media.sample_aspect_den">1</property>
  <property name="meta.media.frame_rate_num">25</property>
  <property name="meta.media.frame_rate_den">1</property>
  <property name="meta.media.colorspace">709</property>
  <property name="meta.media.color_trc">1</property>
  <property name="meta.media.width">1920</property>
  <property name="meta.media.height">1080</property>
  <property name="meta.media.top_field_first">0</property>
  <property name="meta.media.progressive">1</property>
 </producer>
 <producer title="Anonymous Submission" id="129_playlist7" in="0" out="2020">
  <property name="length">00:00:40:21</property>
  <property name="eof">pause</property>
  <property name="resource">/media/bordun/plagiat/2018-12-10_Plagiat_RespecteLaPuissancePapale/extra_from_clip01/CAM2_2017-11-25_0759_C0010.mov</property>
  <property name="audio_index">2</property>
  <property name="video_index">1</property>
  <property name="mute_on_pause">1</property>
  <property name="mlt_service">avformat-novalidate</property>
  <property name="seekable">1</property>
  <property name="aspect_ratio">1</property>
  <property name="kdenlive:file_size">901761937</property>
  <property name="kdenlive:file_hash">e643de28a1251c248d7eb82cd5d9834e</property>
  <property name="global_feed">1</property>
  <property name="xml">was here</property>
  <property name="meta.media.nb_streams">3</property>
  <property name="meta.media.1.stream.type">video</property>
  <property name="meta.media.1.stream.frame_rate">24</property>
  <property name="meta.media.1.stream.sample_aspect_ratio">1</property>
  <property name="meta.media.1.codec.width">1920</property>
  <property name="meta.media.1.codec.height">1080</property>
  <property name="meta.media.1.codec.rotate">0</property>
  <property name="meta.media.1.codec.frame_rate">2400</property>
  <property name="meta.media.1.codec.pix_fmt">yuv422p10le</property>
  <property name="meta.media.1.codec.sample_aspect_ratio">0</property>
  <property name="meta.media.1.codec.colorspace">709</property>
  <property name="meta.media.1.codec.color_trc">1</property>
  <property name="meta.media.1.codec.name">prores</property>
  <property name="meta.media.1.codec.long_name">ProRes</property>
  <property name="meta.media.1.codec.bit_rate">176139264</property>
  <property name="meta.attr.1.stream.creation_time.markup">2017-11-25T07:59:50.000000Z</property>
  <property name="meta.attr.1.stream.language.markup">eng</property>
  <property name="meta.attr.1.stream.handler_name.markup">Apple Alias Data Handler</property>
  <property name="meta.attr.1.stream.encoder.markup">Apple ProRes 422 HQ</property>
  <property name="meta.attr.1.stream.timecode.markup">07:59:50:17</property>
  <property name="meta.media.2.stream.type">audio</property>
  <property name="meta.media.2.codec.sample_fmt">s32</property>
  <property name="meta.media.2.codec.sample_rate">48000</property>
  <property name="meta.media.2.codec.channels">2</property>
  <property name="meta.media.2.codec.name">pcm_s24le</property>
  <property name="meta.media.2.codec.long_name">PCM signed 24-bit little-endian</property>
  <property name="meta.media.2.codec.bit_rate">2304000</property>
  <property name="meta.attr.2.stream.creation_time.markup">2017-11-25T07:59:50.000000Z</property>
  <property name="meta.attr.2.stream.language.markup">eng</property>
  <property name="meta.attr.2.stream.handler_name.markup">Apple Alias Data Handler</property>
  <property name="meta.attr.2.stream.timecode.markup">07:59:50:17</property>
  <property name="meta.attr.com.apple.proapps.manufacturer.markup">Blackmagic Design</property>
  <property name="meta.attr.com.apple.proapps.cameraName.markup">CAM2</property>
  <property name="meta.attr.com.apple.proapps.isGood.markup">0</property>
  <property name="meta.attr.com.apple.proapps.customgamma.markup">com.blackmagic-design.cinemacamera.filmlog</property>
  <property name="meta.attr.com.blackmagic-design.cinemacamera.uuid.markup">18E5E00548F94923B646613A73C01B56</property>
  <property name="meta.attr.creation_time.markup">2017-11-25T07:59:50.000000Z</property>
  <property name="meta.attr.timecode.markup">07:59:50:17</property>
  <property name="meta.media.sample_aspect_num">1</property>
  <property name="meta.media.sample_aspect_den">1</property>
  <property name="meta.media.frame_rate_num">24</property>
  <property name="meta.media.frame_rate_den">1</property>
  <property name="meta.media.colorspace">709</property>
  <property name="meta.media.color_trc">1</property>
  <property name="meta.media.width">1920</property>
  <property name="meta.media.height">1080</property>
  <property name="meta.media.top_field_first">0</property>
  <property name="meta.media.progressive">1</property>
  <filter id="filter27">
   <property name="version">0,3</property>
   <property name="mlt_service">frei0r.levels</property>
   <property name="kdenlive_id">frei0r.levels</property>
   <property name="tag">frei0r.levels</property>
   <property name="kdenlive_ix">1</property>
   <property name="kdenlive_info"/>
   <property name="Channel">0,3</property>
   <property name="Input black level">0=0,144</property>
   <property name="Input white level">0=0,697</property>
   <property name="Gamma">0=0,18925</property>
   <property name="Black output">0=0</property>
   <property name="White output">0=0,87</property>
   <property name="Show histogram">0</property>
   <property name="Histogram position">0,3</property>
   <property name="disable">0</property>
  </filter>
  <filter id="filter28">
   <property name="mlt_service">avfilter.lut3d</property>
   <property name="kdenlive_id">avfilter.lut3d</property>
   <property name="tag">avfilter.lut3d</property>
   <property name="kdenlive_ix">2</property>
   <property name="kdenlive_info"/>
   <property name="av.file">/media/bordun/plagiat/Clip02_RespecteLaPuissancePapale/LUT/test.CUBE</property>
   <property name="av.interp">tetrahedral </property>
   <property name="disable">0</property>
  </filter>
  <filter id="filter29">
   <property name="version">0,3</property>
   <property name="mlt_service">frei0r.saturat0r</property>
   <property name="kdenlive_id">frei0r.saturat0r</property>
   <property name="tag">frei0r.saturat0r</property>
   <property name="kdenlive_ix">3</property>
   <property name="kdenlive_info"/>
   <property name="Saturation">0=0,077</property>
   <property name="disable">0</property>
  </filter>
  <filter id="filter30">
   <property name="version">0,3</property>
   <property name="mlt_service">frei0r.hueshift0r</property>
   <property name="kdenlive_id">frei0r.hueshift0r</property>
   <property name="tag">frei0r.hueshift0r</property>
   <property name="kdenlive_ix">4</property>
   <property name="kdenlive_info"/>
   <property name="Hue">0=0,0194444</property>
  </filter>
 </producer>
 <playlist id="playlist7">
  <property name="kdenlive:track_name">Video 6</property>
  <blank length="85"/>
  <entry producer="71_playlist7" in="325" out="721">
   <filter id="filter56" in="325" out="721">
    <property name="background">colour:0x00000000</property>
    <property name="mlt_service">affine</property>
    <property name="kdenlive_id">pan_zoom</property>
    <property name="tag">affine</property>
    <property name="kdenlive_ix">1</property>
    <property name="transition.geometry">0=0/0:1920x1080:100;1454=0/0:1920x1080:100;1602=-80/0:1920x1080:100</property>
    <property name="transition.distort">0</property>
    <property name="kdenlive:sync_in_out">1</property>
    <property name="kdenlive_info">0/-1/</property>
    <property name="disable">0</property>
   </filter>
   <filter id="filter57">
    <property name="version">0,1</property>
    <property name="mlt_service">frei0r.alphaspot</property>
    <property name="kdenlive_id">frei0r.alphaspot</property>
    <property name="tag">frei0r.alphaspot</property>
    <property name="kdenlive_ix">2</property>
    <property name="Shape">0,38</property>
    <property name="Position X">325=0,702</property>
    <property name="Position Y">325=0,49</property>
    <property name="Size X">325=0,139</property>
    <property name="Size Y">325=0,294</property>
    <property name="Tilt">325=0,5</property>
    <property name="Transition width">325=0,04</property>
    <property name="Min">325=0</property>
    <property name="Max">325=1</property>
    <property name="Operation">0,0</property>
    <property name="kdenlive_info"/>
    <property name="disable">0</property>
   </filter>
   <filter id="filter58" in="325" out="367">
    <property name="start">0</property>
    <property name="mlt_service">brightness</property>
    <property name="kdenlive_id">fade_from_black</property>
    <property name="tag">brightness</property>
    <property name="kdenlive_ix">3</property>
    <property name="end">1</property>
    <property name="kdenlive_info"/>
    <property name="disable">0</property>
   </filter>
  </entry>
  <entry producer="71_playlist7" in="747" out="2268">
   <filter id="filter59" in="751" out="2268">
    <property name="background">colour:0x00000000</property>
    <property name="mlt_service">affine</property>
    <property name="kdenlive_id">pan_zoom</property>
    <property name="tag">affine</property>
    <property name="kdenlive_ix">1</property>
    <property name="transition.geometry">0=0/0:1920x1080:100;968=0/0:1920x1080:100;1119=-66/0:1920x1080:100</property>
    <property name="transition.distort">0</property>
    <property name="kdenlive:sync_in_out">1</property>
    <property name="kdenlive_info">0/-1/</property>
    <property name="disable">0</property>
   </filter>
   <filter id="filter60">
    <property name="version">0,1</property>
    <property name="mlt_service">frei0r.alphaspot</property>
    <property name="kdenlive_id">frei0r.alphaspot</property>
    <property name="tag">frei0r.alphaspot</property>
    <property name="kdenlive_ix">2</property>
    <property name="Shape">0,38</property>
    <property name="Position X">749=0,702</property>
    <property name="Position Y">749=0,49</property>
    <property name="Size X">749=0,139</property>
    <property name="Size Y">749=0,294</property>
    <property name="Tilt">749=0,5</property>
    <property name="Transition width">749=0,04</property>
    <property name="Min">749=0</property>
    <property name="Max">749=1</property>
    <property name="Operation">0,0</property>
    <property name="kdenlive_info"/>
    <property name="disable">0</property>
   </filter>
  </entry>
  <blank length="720"/>
  <entry producer="126_playlist7" in="7" out="1570">
   <filter id="filter53" out="1570">
    <property name="background">colour:0x00000000</property>
    <property name="mlt_service">affine</property>
    <property name="kdenlive_id">pan_zoom</property>
    <property name="tag">affine</property>
    <property name="kdenlive_ix">1</property>
    <property name="transition.geometry">645/200:1344x756:100</property>
    <property name="transition.distort">0</property>
    <property name="kdenlive:sync_in_out">1</property>
    <property name="kdenlive_info">0/-1/</property>
    <property name="disable"/>
   </filter>
   <filter id="filter54">
    <property name="version">0,1</property>
    <property name="mlt_service">frei0r.alphaspot</property>
    <property name="kdenlive_id">frei0r.alphaspot</property>
    <property name="tag">frei0r.alphaspot</property>
    <property name="kdenlive_info">1/-1/</property>
    <property name="kdenlive_ix">2</property>
    <property name="disable">0</property>
    <property name="Shape">0,38</property>
    <property name="Position X">7=0,702</property>
    <property name="Position Y">7=0,49</property>
    <property name="Size X">7=0,139</property>
    <property name="Size Y">7=0,294</property>
    <property name="Tilt">7=0,5</property>
    <property name="Transition width">7=0,04</property>
    <property name="Min">7=0</property>
    <property name="Max">7=1</property>
    <property name="Operation">0,0</property>
   </filter>
   <filter id="filter61" in="7" out="47">
    <property name="start">0</property>
    <property name="mlt_service">brightness</property>
    <property name="kdenlive_id">fade_from_black</property>
    <property name="tag">brightness</property>
    <property name="kdenlive_ix">3</property>
    <property name="end">1</property>
    <property name="kdenlive_info"/>
   </filter>
  </entry>
  <entry producer="126_playlist7" in="1635" out="3613">
   <filter id="filter62" in="1635" out="3613">
    <property name="background">colour:0x00000000</property>
    <property name="mlt_service">affine</property>
    <property name="kdenlive_id">pan_zoom</property>
    <property name="tag">affine</property>
    <property name="kdenlive_ix">1</property>
    <property name="transition.geometry">645/200:1344x756:100</property>
    <property name="transition.distort">0</property>
    <property name="kdenlive:sync_in_out">1</property>
    <property name="kdenlive_info">0/-1/</property>
    <property name="disable"/>
   </filter>
   <filter id="filter63">
    <property name="version">0,1</property>
    <property name="mlt_service">frei0r.alphaspot</property>
    <property name="kdenlive_id">frei0r.alphaspot</property>
    <property name="tag">frei0r.alphaspot</property>
    <property name="kdenlive_info">0/-1/</property>
    <property name="kdenlive_ix">2</property>
    <property name="disable">0</property>
    <property name="Shape">0,38</property>
    <property name="Position X">1635=0,702</property>
    <property name="Position Y">1635=0,49</property>
    <property name="Size X">1635=0,139</property>
    <property name="Size Y">1635=0,294</property>
    <property name="Tilt">1635=0,5</property>
    <property name="Transition width">1635=0,04</property>
    <property name="Min">1635=0</property>
    <property name="Max">1635=1</property>
    <property name="Operation">0,0</property>
   </filter>
  </entry>
  <blank length="3070"/>
  <entry producer="129_playlist7" in="241" out="1924">
   <filter id="filter64" in="241" out="1924">
    <property name="background">colour:0x00000000</property>
    <property name="mlt_service">affine</property>
    <property name="kdenlive_id">pan_zoom</property>
    <property name="tag">affine</property>
    <property name="kdenlive_info">0/0/Effect Group</property>
    <property name="kdenlive_ix">1</property>
    <property name="disable">0</property>
    <property name="transition.geometry">-172/-142:3072x1728:100</property>
    <property name="transition.distort">0</property>
    <property name="kdenlive:sync_in_out">1</property>
   </filter>
   <filter id="filter65">
    <property name="version">0,1</property>
    <property name="mlt_service">frei0r.alphaspot</property>
    <property name="kdenlive_id">frei0r.alphaspot</property>
    <property name="tag">frei0r.alphaspot</property>
    <property name="kdenlive_info">1/0/Effect Group</property>
    <property name="kdenlive_ix">2</property>
    <property name="disable">0</property>
    <property name="Shape">0,38</property>
    <property name="Position X">241=0,702</property>
    <property name="Position Y">241=0,49</property>
    <property name="Size X">241=0,139</property>
    <property name="Size Y">241=0,294</property>
    <property name="Tilt">241=0,5</property>
    <property name="Transition width">241=0,04</property>
    <property name="Min">241=0</property>
    <property name="Max">241=1</property>
    <property name="Operation">0,0</property>
   </filter>
   <filter id="filter66" in="241" out="268">
    <property name="start">0</property>
    <property name="mlt_service">brightness</property>
    <property name="kdenlive_id">fade_from_black</property>
    <property name="tag">brightness</property>
    <property name="kdenlive_ix">3</property>
    <property name="end">1</property>
    <property name="kdenlive_info"/>
   </filter>
  </entry>
  <blank length="3664"/>
  <entry producer="29" in="0" out="501">
   <filter id="filter67">
    <property name="version">0,1</property>
    <property name="mlt_service">frei0r.alphaspot</property>
    <property name="kdenlive_id">frei0r.alphaspot</property>
    <property name="tag">frei0r.alphaspot</property>
    <property name="kdenlive_info"/>
    <property name="kdenlive_ix">1</property>
    <property name="disable">0</property>
    <property name="Shape">0,38</property>
    <property name="Position X">0=0,49</property>
    <property name="Position Y">0=0,486</property>
    <property name="Size X">0=0,222</property>
    <property name="Size Y">0=0,464</property>
    <property name="Tilt">0=0,5</property>
    <property name="Transition width">0=0,029</property>
    <property name="Min">0=0</property>
    <property name="Max">0=1</property>
    <property name="Operation">0,0</property>
   </filter>
  </entry>
  <blank length="13523"/>
  <entry producer="71_playlist7" in="3410" out="6380"/>
 </playlist>
 <playlist id="playlist16">
  <property name="kdenlive:track_name">Video 7</property>
  <blank length="9337"/>
  <entry producer="29" in="0" out="1683">
   <filter id="filter68">
    <property name="version">0,1</property>
    <property name="mlt_service">frei0r.alphaspot</property>
    <property name="kdenlive_id">frei0r.alphaspot</property>
    <property name="tag">frei0r.alphaspot</property>
    <property name="kdenlive_ix">1</property>
    <property name="kdenlive_info"/>
    <property name="disable">0</property>
    <property name="Shape">0,38</property>
    <property name="Position X">0=0,702</property>
    <property name="Position Y">0=0,49</property>
    <property name="Size X">0=0,142</property>
    <property name="Size Y">0=0,301</property>
    <property name="Tilt">0=0,5</property>
    <property name="Transition width">0=0,028</property>
    <property name="Min">0=0</property>
    <property name="Max">0=1</property>
    <property name="Operation">0,0</property>
   </filter>
   <filter id="filter69" out="39">
    <property name="start">0</property>
    <property name="mlt_service">brightness</property>
    <property name="kdenlive_id">fade_from_black</property>
    <property name="tag">brightness</property>
    <property name="kdenlive_ix">2</property>
    <property name="kdenlive_info"/>
    <property name="disable"/>
    <property name="end">1</property>
   </filter>
  </entry>
 </playlist>
 <producer title="Anonymous Submission" id="128_playlist15" in="0" out="3901">
  <property name="length">00:01:18:02</property>
  <property name="eof">pause</property>
  <property name="resource">/media/bordun/plagiat/Clip02_RespecteLaPuissancePapale/Assets/jul-os.ogv</property>
  <property name="audio_index">1</property>
  <property name="video_index">0</property>
  <property name="mute_on_pause">1</property>
  <property name="mlt_service">avformat-novalidate</property>
  <property name="seekable">1</property>
  <property name="aspect_ratio">1,00251</property>
  <property name="kdenlive:file_size">5579519</property>
  <property name="kdenlive:file_hash">9d3c69afaf5b486a2b1a1b91642227ae</property>
  <property name="global_feed">1</property>
  <property name="kdenlive:zone_in">560</property>
  <property name="kdenlive:zone_out">791</property>
  <property name="xml">was here</property>
  <property name="meta.media.nb_streams">2</property>
  <property name="meta.media.0.stream.type">video</property>
  <property name="meta.media.0.stream.frame_rate">24</property>
  <property name="meta.media.0.stream.sample_aspect_ratio">1,00251</property>
  <property name="meta.media.0.codec.width">532</property>
  <property name="meta.media.0.codec.height">300</property>
  <property name="meta.media.0.codec.rotate">0</property>
  <property name="meta.media.0.codec.frame_rate">24</property>
  <property name="meta.media.0.codec.pix_fmt">yuv420p</property>
  <property name="meta.media.0.codec.sample_aspect_ratio">1,00251</property>
  <property name="meta.media.0.codec.colorspace">601</property>
  <property name="meta.media.0.codec.name">theora</property>
  <property name="meta.media.0.codec.long_name">Theora</property>
  <property name="meta.media.0.codec.bit_rate">0</property>
  <property name="meta.attr.0.stream.ENCODER.markup">Lavc57.22.100 libtheora</property>
  <property name="meta.attr.0.stream.TITLE.markup">Plagiat - Snapshat au Harem - Clip - Dimanche soir</property>
  <property name="meta.attr.0.stream.LICENSE.markup">http://creativecommons.org/licenses/by-sa/3.0/</property>
  <property name="meta.attr.0.stream.DATE.markup">2017-12-04</property>
  <property name="meta.attr.0.stream.LOCATION.markup">https://archive.org/details/CAM2201711250738C0005</property>
  <property name="meta.media.1.stream.type">audio</property>
  <property name="meta.media.1.codec.sample_fmt">fltp</property>
  <property name="meta.media.1.codec.sample_rate">44100</property>
  <property name="meta.media.1.codec.channels">2</property>
  <property name="meta.media.1.codec.name">vorbis</property>
  <property name="meta.media.1.codec.long_name">Vorbis</property>
  <property name="meta.media.1.codec.bit_rate">128000</property>
  <property name="meta.attr.1.stream.ENCODER.markup">Lavc57.22.100 libvorbis</property>
  <property name="meta.attr.1.stream.TITLE.markup">Plagiat - Snapshat au Harem - Clip - Dimanche soir</property>
  <property name="meta.attr.1.stream.LICENSE.markup">http://creativecommons.org/licenses/by-sa/3.0/</property>
  <property name="meta.attr.1.stream.DATE.markup">2017-12-04</property>
  <property name="meta.attr.1.stream.LOCATION.markup">https://archive.org/details/CAM2201711250738C0005</property>
  <property name="meta.media.sample_aspect_num">400</property>
  <property name="meta.media.sample_aspect_den">399</property>
  <property name="meta.media.frame_rate_num">24</property>
  <property name="meta.media.frame_rate_den">1</property>
  <property name="meta.media.colorspace">601</property>
  <property name="meta.media.color_trc">2</property>
  <property name="meta.media.width">532</property>
  <property name="meta.media.height">300</property>
  <property name="meta.media.top_field_first">0</property>
  <property name="meta.media.progressive">1</property>
  <filter id="filter70">
   <property name="version">0,3</property>
   <property name="mlt_service">frei0r.levels</property>
   <property name="kdenlive_id">frei0r.levels</property>
   <property name="tag">frei0r.levels</property>
   <property name="kdenlive_ix">1</property>
   <property name="kdenlive_info">1/-1/</property>
   <property name="Channel">0,3</property>
   <property name="Input black level">0=0,029</property>
   <property name="Input white level">0=0,667</property>
   <property name="Gamma">0=0,25</property>
   <property name="Black output">0=0</property>
   <property name="White output">0=1</property>
   <property name="Show histogram">0</property>
   <property name="Histogram position">0,3</property>
  </filter>
  <filter id="filter71">
   <property name="mlt_service">avfilter.lut3d</property>
   <property name="kdenlive_id">avfilter.lut3d</property>
   <property name="tag">avfilter.lut3d</property>
   <property name="kdenlive_ix">2</property>
   <property name="kdenlive_info">1/-1/</property>
   <property name="av.file">/media/bordun/plagiat/Clip02_RespecteLaPuissancePapale/LUT/test.CUBE</property>
   <property name="av.interp">tetrahedral </property>
  </filter>
 </producer>
 <playlist id="playlist15">
  <property name="kdenlive:track_name">Video 5</property>
  <blank length="9337"/>
  <entry producer="128_playlist15" in="560" out="790">
   <filter id="filter72">
    <property name="background">colour:0x00000000</property>
    <property name="mlt_service">affine</property>
    <property name="kdenlive_id">pan_zoom</property>
    <property name="tag">affine</property>
    <property name="kdenlive_ix">1</property>
    <property name="kdenlive_info">1/0/Effect Group</property>
    <property name="disable">0</property>
    <property name="transition.geometry">760/206:1152x648:100</property>
    <property name="transition.distort">0</property>
   </filter>
   <filter id="filter73">
    <property name="version">0,1</property>
    <property name="mlt_service">frei0r.alphaspot</property>
    <property name="kdenlive_id">frei0r.alphaspot</property>
    <property name="tag">frei0r.alphaspot</property>
    <property name="kdenlive_ix">2</property>
    <property name="kdenlive_info">1/0/Effect Group</property>
    <property name="disable">0</property>
    <property name="Shape">0,38</property>
    <property name="Position X">560=0,702</property>
    <property name="Position Y">560=0,49</property>
    <property name="Size X">560=0,139</property>
    <property name="Size Y">560=0,294</property>
    <property name="Tilt">560=0,5</property>
    <property name="Transition width">560=0,04</property>
    <property name="Min">560=0</property>
    <property name="Max">560=1</property>
    <property name="Operation">0,0</property>
   </filter>
   <filter id="filter74" in="560" out="586">
    <property name="start">0</property>
    <property name="mlt_service">brightness</property>
    <property name="kdenlive_id">fade_from_black</property>
    <property name="tag">brightness</property>
    <property name="kdenlive_ix">3</property>
    <property name="end">1</property>
   </filter>
  </entry>
  <entry producer="128_playlist15" in="1144" out="1608">
   <filter id="filter75" in="1144" out="1608">
    <property name="background">colour:0x00000000</property>
    <property name="mlt_service">affine</property>
    <property name="kdenlive_id">pan_zoom</property>
    <property name="tag">affine</property>
    <property name="kdenlive_ix">1</property>
    <property name="kdenlive:sync_in_out">1</property>
    <property name="kdenlive_info">1/0/Effect Group</property>
    <property name="disable">0</property>
    <property name="transition.geometry">760/206:1152x648:100</property>
    <property name="transition.distort">0</property>
   </filter>
   <filter id="filter76">
    <property name="version">0,1</property>
    <property name="mlt_service">frei0r.alphaspot</property>
    <property name="kdenlive_id">frei0r.alphaspot</property>
    <property name="tag">frei0r.alphaspot</property>
    <property name="kdenlive_ix">2</property>
    <property name="kdenlive_info">1/0/Effect Group</property>
    <property name="disable">0</property>
    <property name="Shape">0,38</property>
    <property name="Position X">584=0,702</property>
    <property name="Position Y">584=0,49</property>
    <property name="Size X">584=0,139</property>
    <property name="Size Y">584=0,294</property>
    <property name="Tilt">584=0,5</property>
    <property name="Transition width">584=0,04</property>
    <property name="Min">584=0</property>
    <property name="Max">584=1</property>
    <property name="Operation">0,0</property>
   </filter>
  </entry>
  <entry producer="128_playlist15" in="2655" out="3642">
   <filter id="filter77" in="2655" out="3642">
    <property name="background">colour:0x00000000</property>
    <property name="mlt_service">affine</property>
    <property name="kdenlive_id">pan_zoom</property>
    <property name="tag">affine</property>
    <property name="kdenlive_ix">1</property>
    <property name="kdenlive:sync_in_out">1</property>
    <property name="kdenlive_info">1/0/Effect Group</property>
    <property name="disable">0</property>
    <property name="transition.geometry">760/206:1152x648:100</property>
    <property name="transition.distort">0</property>
   </filter>
   <filter id="filter78">
    <property name="version">0,1</property>
    <property name="mlt_service">frei0r.alphaspot</property>
    <property name="kdenlive_id">frei0r.alphaspot</property>
    <property name="tag">frei0r.alphaspot</property>
    <property name="kdenlive_ix">2</property>
    <property name="kdenlive_info">1/0/Effect Group</property>
    <property name="disable">0</property>
    <property name="Shape">0,38</property>
    <property name="Position X">951=0,702</property>
    <property name="Position Y">951=0,49</property>
    <property name="Size X">951=0,139</property>
    <property name="Size Y">951=0,294</property>
    <property name="Tilt">951=0,5</property>
    <property name="Transition width">951=0,04</property>
    <property name="Min">951=0</property>
    <property name="Max">951=1</property>
    <property name="Operation">0,0</property>
   </filter>
  </entry>
 </playlist>
 <producer title="Anonymous Submission" id="73_playlist9" in="0" out="6172">
  <property name="length">00:02:03:23</property>
  <property name="eof">pause</property>
  <property name="resource">/media/bordun/plagiat/Clip02_RespecteLaPuissancePapale/Assets/jean_pierre_pernaut_raconte_nimporte_quoi_au_jt_kwRaa9B4vuk_360p.mp4</property>
  <property name="audio_index">1</property>
  <property name="video_index">0</property>
  <property name="mute_on_pause">1</property>
  <property name="mlt_service">avformat-novalidate</property>
  <property name="seekable">1</property>
  <property name="aspect_ratio">1</property>
  <property name="kdenlive:file_size">8648137</property>
  <property name="kdenlive:file_hash">981c0223a76452b6608572dbfce74402</property>
  <property name="global_feed">1</property>
  <property name="xml">was here</property>
  <property name="meta.media.nb_streams">2</property>
  <property name="meta.media.0.stream.type">video</property>
  <property name="meta.media.0.stream.frame_rate">24,8703</property>
  <property name="meta.media.0.stream.sample_aspect_ratio">0</property>
  <property name="meta.media.0.codec.width">640</property>
  <property name="meta.media.0.codec.height">360</property>
  <property name="meta.media.0.codec.rotate">0</property>
  <property name="meta.media.0.codec.frame_rate">25</property>
  <property name="meta.media.0.codec.pix_fmt">yuv420p</property>
  <property name="meta.media.0.codec.sample_aspect_ratio">1</property>
  <property name="meta.media.0.codec.colorspace">601</property>
  <property name="meta.media.0.codec.name">h264</property>
  <property name="meta.media.0.codec.long_name">H.264 / AVC / MPEG-4 AVC / MPEG-4 part 10</property>
  <property name="meta.media.0.codec.bit_rate">462085</property>
  <property name="meta.attr.0.stream.handler_name.markup">VideoHandler</property>
  <property name="meta.media.1.stream.type">audio</property>
  <property name="meta.media.1.codec.sample_fmt">fltp</property>
  <property name="meta.media.1.codec.sample_rate">44100</property>
  <property name="meta.media.1.codec.channels">2</property>
  <property name="meta.media.1.codec.name">aac</property>
  <property name="meta.media.1.codec.long_name">AAC (Advanced Audio Coding)</property>
  <property name="meta.media.1.codec.bit_rate">96000</property>
  <property name="meta.attr.1.stream.creation_time.markup">2016-12-26T17:44:19.000000Z</property>
  <property name="meta.attr.1.stream.language.markup">eng</property>
  <property name="meta.attr.1.stream.handler_name.markup">IsoMedia File Produced by Google, 5-11-2011</property>
  <property name="meta.attr.major_brand.markup">mp42</property>
  <property name="meta.attr.minor_version.markup">0</property>
  <property name="meta.attr.compatible_brands.markup">isommp42</property>
  <property name="meta.attr.creation_time.markup">2016-12-26T17:44:19.000000Z</property>
  <property name="meta.media.sample_aspect_num">1</property>
  <property name="meta.media.sample_aspect_den">1</property>
  <property name="meta.media.frame_rate_num">15345</property>
  <property name="meta.media.frame_rate_den">617</property>
  <property name="meta.media.colorspace">601</property>
  <property name="meta.media.color_trc">2</property>
  <property name="meta.media.width">640</property>
  <property name="meta.media.height">360</property>
  <property name="meta.media.top_field_first">0</property>
  <property name="meta.media.progressive">1</property>
 </producer>
 <playlist id="playlist9">
  <property name="kdenlive:track_name">jpp</property>
  <blank length="14685"/>
  <entry producer="73_playlist9" in="1798" out="1904"/>
  <entry producer="73_playlist9" in="4141" out="4265"/>
  <entry producer="73_playlist9" in="1852" out="1973">
   <filter id="mirror">
    <property name="mirror">flip</property>
    <property name="mlt_service">mirror</property>
    <property name="kdenlive_id">mirror</property>
    <property name="tag">mirror</property>
    <property name="kdenlive_ix">1</property>
    <property name="reverse">0</property>
    <property name="kdenlive_info"/>
   </filter>
  </entry>
  <entry producer="73_playlist9" in="4223" out="4349"/>
  <entry producer="73_playlist9" in="5102" out="5122"/>
  <filter id="filter79">
   <property name="version">0,1</property>
   <property name="mlt_service">frei0r.alphaspot</property>
   <property name="kdenlive_id">frei0r.alphaspot</property>
   <property name="tag">frei0r.alphaspot</property>
   <property name="kdenlive_ix">1</property>
   <property name="kdenlive_info"/>
   <property name="disable">0</property>
   <property name="Shape">0,38</property>
   <property name="Position X">0=0,49</property>
   <property name="Position Y">0=0,486</property>
   <property name="Size X">0=0,217</property>
   <property name="Size Y">0=0,454</property>
   <property name="Tilt">0=0,5</property>
   <property name="Transition width">0=0,029</property>
   <property name="Min">0=0</property>
   <property name="Max">0=1</property>
   <property name="Operation">0,0</property>
  </filter>
  <filter id="filter80">
   <property name="version">0,3</property>
   <property name="mlt_service">frei0r.levels</property>
   <property name="kdenlive_id">frei0r.levels</property>
   <property name="tag">frei0r.levels</property>
   <property name="kdenlive_ix">2</property>
   <property name="kdenlive_info"/>
   <property name="Channel">0,3</property>
   <property name="Input black level">0=0,064</property>
   <property name="Input white level">0=1</property>
   <property name="Gamma">0=0,30775</property>
   <property name="Black output">0=0</property>
   <property name="White output">0=0,798</property>
   <property name="Show histogram">0</property>
   <property name="Histogram position">0,3</property>
   <property name="disable">0</property>
  </filter>
 </playlist>
 <playlist id="playlist10">
  <property name="kdenlive:track_name">Video 2</property>
  <blank length="211"/>
  <entry producer="81" in="0" out="187">
   <filter id="filter81" out="187">
    <property name="background">colour:0x00000000</property>
    <property name="mlt_service">affine</property>
    <property name="kdenlive_id">pan_zoom</property>
    <property name="tag">affine</property>
    <property name="kdenlive_ix">1</property>
    <property name="transition.geometry">430/-91:2304x1296:100</property>
    <property name="transition.distort">0</property>
    <property name="kdenlive:sync_in_out">1</property>
    <property name="kdenlive_info"/>
   </filter>
  </entry>
  <blank length="333"/>
  <entry producer="81" in="0" out="187">
   <filter id="filter82" out="187">
    <property name="background">colour:0x00000000</property>
    <property name="mlt_service">affine</property>
    <property name="kdenlive_id">pan_zoom</property>
    <property name="tag">affine</property>
    <property name="kdenlive_ix">1</property>
    <property name="transition.geometry">-756/-87:2304x1296:100</property>
    <property name="transition.distort">0</property>
    <property name="kdenlive:sync_in_out">1</property>
    <property name="kdenlive_info"/>
    <property name="disable">0</property>
   </filter>
  </entry>
  <blank length="8417"/>
  <entry producer="30" in="0" out="1683">
   <filter id="frei0r.scale0tilt">
    <property name="version">0,1</property>
    <property name="mlt_service">frei0r.scale0tilt</property>
    <property name="kdenlive_id">frei0r.scale0tilt</property>
    <property name="tag">frei0r.scale0tilt</property>
    <property name="kdenlive_ix">1</property>
    <property name="Clip left">0</property>
    <property name="Clip right">0</property>
    <property name="Clip top">0,383333</property>
    <property name="Clip bottom">0,541667</property>
    <property name="Scale X">0,5</property>
    <property name="Scale Y">0,5</property>
    <property name="Tilt X">0,5</property>
    <property name="Tilt Y">0,5</property>
    <property name="kdenlive_info"/>
   </filter>
  </entry>
 </playlist>
 <playlist id="playlist11">
  <property name="kdenlive:track_name">sub EN</property>
  <entry producer="87" in="0" out="1999"/>
  <blank length="724"/>
  <entry producer="88" in="7" out="3549"/>
  <blank length="2604"/>
  <entry producer="89" in="0" out="2149"/>
  <blank length="3664"/>
  <entry producer="90" in="0" out="1999"/>
 </playlist>
 <playlist id="playlist12">
  <property name="kdenlive:track_name">Video 4</property>
  <blank length="14685"/>
  <entry producer="91" in="0" out="106"/>
  <entry producer="92" in="0" out="124"/>
  <entry producer="99" in="0" out="121"/>
  <entry producer="93" in="55" out="202"/>
  <entry producer="94" in="1" out="249"/>
  <entry producer="95" in="0" out="249"/>
  <entry producer="96" in="0" out="249"/>
  <entry producer="97" in="0" out="149"/>
  <blank length="347"/>
  <entry producer="121" in="0" out="252"/>
 </playlist>
 <playlist id="playlist13">
  <property name="kdenlive:track_name">crédits 1</property>
  <blank length="15187"/>
  <entry producer="102" in="5" out="94"/>
  <entry producer="103" in="0" out="80"/>
  <entry producer="101" in="28" out="105"/>
  <entry producer="107" in="0" out="57"/>
  <entry producer="106" in="33" out="99"/>
  <entry producer="105" in="25" out="85"/>
  <entry producer="108" in="0" out="62"/>
  <entry producer="109" in="0" out="55"/>
  <entry producer="104" in="0" out="63"/>
  <entry producer="120" in="11" out="141"/>
  <entry producer="113" in="0" out="50"/>
  <entry producer="115" in="0" out="41"/>
  <entry producer="116" in="0" out="56"/>
  <entry producer="111" in="0" out="123"/>
  <entry producer="118" in="8" out="133"/>
  <entry producer="124" in="59" out="155"/>
  <filter id="filter83">
   <property name="background">colour:0x00000000</property>
   <property name="mlt_service">affine</property>
   <property name="kdenlive_id">pan_zoom</property>
   <property name="tag">affine</property>
   <property name="kdenlive_ix">1</property>
   <property name="kdenlive_info"/>
   <property name="transition.geometry">0/50:1920x1080:100</property>
   <property name="transition.distort">0</property>
  </filter>
 </playlist>
 <playlist id="playlist14">
  <property name="kdenlive:track_name">Video 3</property>
  <blank length="15187"/>
  <entry producer="100" in="5" out="622"/>
  <entry producer="119" in="0" out="130"/>
  <entry producer="112" in="0" out="50"/>
  <entry producer="114" in="0" out="98"/>
  <entry producer="110" in="0" out="123"/>
  <entry producer="117" in="8" out="133"/>
  <entry producer="122" in="59" out="155"/>
  <filter id="filter84">
   <property name="background">colour:0x00000000</property>
   <property name="mlt_service">affine</property>
   <property name="kdenlive_id">pan_zoom</property>
   <property name="tag">affine</property>
   <property name="kdenlive_ix">1</property>
   <property name="kdenlive_info"/>
   <property name="transition.geometry">0/50:1920x1080:100</property>
   <property name="transition.distort">0</property>
  </filter>
 </playlist>
 <tractor title="Anonymous Submission" id="maintractor" global_feed="1" in="0" out="50561">
  <track producer="black_track"/>
  <track hide="video" producer="playlist1"/>
  <track hide="video" producer="playlist2"/>
  <track producer="playlist3"/>
  <track producer="playlist4"/>
  <track hide="audio" producer="playlist5"/>
  <track hide="audio" producer="playlist0"/>
  <track producer="playlist6"/>
  <track hide="audio" producer="playlist8"/>
  <track hide="audio" producer="playlist7"/>
  <track producer="playlist16"/>
  <track hide="audio" producer="playlist15"/>
  <track hide="audio" producer="playlist9"/>
  <track producer="playlist10"/>
  <track producer="playlist11"/>
  <track producer="playlist12"/>
  <track producer="playlist13"/>
  <track producer="playlist14"/>
  <transition id="transition2">
   <property name="a_track">0</property>
   <property name="b_track">1</property>
   <property name="mlt_service">mix</property>
   <property name="always_active">1</property>
   <property name="sum">1</property>
   <property name="internal_added">237</property>
  </transition>
  <transition id="transition3">
   <property name="a_track">0</property>
   <property name="b_track">2</property>
   <property name="mlt_service">mix</property>
   <property name="always_active">1</property>
   <property name="sum">1</property>
   <property name="internal_added">237</property>
  </transition>
  <transition id="transition4">
   <property name="a_track">0</property>
   <property name="b_track">3</property>
   <property name="mlt_service">mix</property>
   <property name="always_active">1</property>
   <property name="sum">1</property>
   <property name="internal_added">237</property>
  </transition>
  <transition id="transition5">
   <property name="a_track">0</property>
   <property name="b_track">4</property>
   <property name="mlt_service">mix</property>
   <property name="always_active">1</property>
   <property name="sum">1</property>
   <property name="internal_added">237</property>
  </transition>
  <transition id="transition6">
   <property name="a_track">0</property>
   <property name="b_track">5</property>
   <property name="mlt_service">mix</property>
   <property name="always_active">1</property>
   <property name="sum">1</property>
   <property name="internal_added">237</property>
  </transition>
  <transition id="transition7">
   <property name="a_track">0</property>
   <property name="b_track">6</property>
   <property name="mlt_service">mix</property>
   <property name="always_active">1</property>
   <property name="sum">1</property>
   <property name="internal_added">237</property>
  </transition>
  <transition id="transition8">
   <property name="a_track">0</property>
   <property name="b_track">7</property>
   <property name="mlt_service">mix</property>
   <property name="always_active">1</property>
   <property name="sum">1</property>
   <property name="internal_added">237</property>
  </transition>
  <transition id="transition9">
   <property name="a_track">0</property>
   <property name="b_track">8</property>
   <property name="mlt_service">mix</property>
   <property name="always_active">1</property>
   <property name="sum">1</property>
   <property name="internal_added">237</property>
  </transition>
  <transition id="transition10">
   <property name="a_track">0</property>
   <property name="b_track">9</property>
   <property name="mlt_service">mix</property>
   <property name="always_active">1</property>
   <property name="sum">1</property>
   <property name="internal_added">237</property>
  </transition>
  <transition id="transition11">
   <property name="a_track">0</property>
   <property name="b_track">10</property>
   <property name="mlt_service">mix</property>
   <property name="always_active">1</property>
   <property name="sum">1</property>
   <property name="internal_added">237</property>
  </transition>
  <transition id="transition12">
   <property name="a_track">0</property>
   <property name="b_track">11</property>
   <property name="mlt_service">mix</property>
   <property name="always_active">1</property>
   <property name="sum">1</property>
   <property name="internal_added">237</property>
  </transition>
  <transition id="transition13">
   <property name="a_track">0</property>
   <property name="b_track">12</property>
   <property name="mlt_service">mix</property>
   <property name="always_active">1</property>
   <property name="sum">1</property>
   <property name="internal_added">237</property>
  </transition>
  <transition id="transition14">
   <property name="a_track">0</property>
   <property name="b_track">13</property>
   <property name="mlt_service">mix</property>
   <property name="always_active">1</property>
   <property name="sum">1</property>
   <property name="internal_added">237</property>
  </transition>
  <transition id="transition28">
   <property name="a_track">0</property>
   <property name="b_track">14</property>
   <property name="mlt_service">mix</property>
   <property name="always_active">1</property>
   <property name="sum">1</property>
   <property name="internal_added">237</property>
  </transition>
  <transition id="transition29">
   <property name="a_track">0</property>
   <property name="b_track">15</property>
   <property name="mlt_service">mix</property>
   <property name="always_active">1</property>
   <property name="sum">1</property>
   <property name="internal_added">237</property>
  </transition>
  <transition id="transition30">
   <property name="a_track">0</property>
   <property name="b_track">16</property>
   <property name="mlt_service">mix</property>
   <property name="always_active">1</property>
   <property name="sum">1</property>
   <property name="internal_added">237</property>
  </transition>
  <transition id="transition31">
   <property name="a_track">0</property>
   <property name="b_track">17</property>
   <property name="mlt_service">mix</property>
   <property name="always_active">1</property>
   <property name="sum">1</property>
   <property name="internal_added">237</property>
  </transition>
  <transition id="transition15" in="227" out="607">
   <property name="a_track">6</property>
   <property name="b_track">7</property>
   <property name="version">0,2</property>
   <property name="mlt_service">frei0r.addition_alpha</property>
   <property name="force_track">0</property>
  </transition>
  <transition id="transition16" out="2003">
   <property name="a_track">5</property>
   <property name="b_track">6</property>
   <property name="start">0/0:100%x100%</property>
   <property name="factory">loader</property>
   <property name="aligned">1</property>
   <property name="progressive">1</property>
   <property name="mlt_service">composite</property>
   <property name="kdenlive_id">composite</property>
   <property name="force_track">0</property>
   <property name="deinterlace">0</property>
   <property name="distort">0</property>
   <property name="fill">1</property>
   <property name="geometry">0%/0%:100%x100%:100</property>
   <property name="halign">centre</property>
   <property name="luma_invert">0</property>
   <property name="operator">over</property>
   <property name="softness">0</property>
   <property name="valign">middle</property>
   <property name="automatic">0</property>
   <property name="luma"/>
  </transition>
  <transition id="transition17" in="8875" out="11020">
   <property name="a_track">5</property>
   <property name="b_track">6</property>
   <property name="start">0/0:100%x100%</property>
   <property name="factory">loader</property>
   <property name="aligned">1</property>
   <property name="progressive">1</property>
   <property name="mlt_service">composite</property>
   <property name="kdenlive_id">composite</property>
   <property name="force_track">0</property>
   <property name="deinterlace">0</property>
   <property name="distort">0</property>
   <property name="fill">1</property>
   <property name="geometry">0%/0%:100%x100%:100</property>
   <property name="halign">centre</property>
   <property name="luma_invert">0</property>
   <property name="operator">over</property>
   <property name="softness">0</property>
   <property name="valign">middle</property>
   <property name="automatic">0</property>
   <property name="luma"/>
  </transition>
  <transition id="transition18" in="11820" out="13806">
   <property name="a_track">5</property>
   <property name="b_track">6</property>
   <property name="start">0/0:100%x100%</property>
   <property name="factory">loader</property>
   <property name="aligned">1</property>
   <property name="progressive">1</property>
   <property name="mlt_service">composite</property>
   <property name="kdenlive_id">composite</property>
   <property name="force_track">0</property>
   <property name="deinterlace">0</property>
   <property name="distort">0</property>
   <property name="fill">1</property>
   <property name="geometry">0%/0%:100%x100%:100</property>
   <property name="halign">centre</property>
   <property name="luma_invert">0</property>
   <property name="operator">over</property>
   <property name="softness">0</property>
   <property name="valign">middle</property>
   <property name="automatic">0</property>
   <property name="luma"/>
  </transition>
  <transition id="transition19" in="14685" out="16685">
   <property name="a_track">5</property>
   <property name="b_track">6</property>
   <property name="start">0/0:100%x100%</property>
   <property name="factory">loader</property>
   <property name="aligned">1</property>
   <property name="progressive">1</property>
   <property name="mlt_service">composite</property>
   <property name="kdenlive_id">composite</property>
   <property name="force_track">0</property>
   <property name="deinterlace">0</property>
   <property name="distort">0</property>
   <property name="fill">1</property>
   <property name="geometry">0%/0%:100%x100%:100</property>
   <property name="halign">centre</property>
   <property name="luma_invert">0</property>
   <property name="operator">over</property>
   <property name="softness">0</property>
   <property name="valign">middle</property>
   <property name="automatic">0</property>
   <property name="luma"/>
  </transition>
  <transition id="transition20" in="2724" out="6266">
   <property name="a_track">5</property>
   <property name="b_track">6</property>
   <property name="start">0/0:100%x100%</property>
   <property name="factory">loader</property>
   <property name="aligned">1</property>
   <property name="progressive">1</property>
   <property name="mlt_service">composite</property>
   <property name="kdenlive_id">composite</property>
   <property name="force_track">0</property>
   <property name="deinterlace">0</property>
   <property name="distort">0</property>
   <property name="fill">1</property>
   <property name="geometry">0/0:1920x1080:100</property>
   <property name="halign">centre</property>
   <property name="luma_invert">0</property>
   <property name="operator">over</property>
   <property name="softness">0</property>
   <property name="valign">middle</property>
   <property name="automatic">0</property>
   <property name="luma"/>
  </transition>
  <transition id="transition21" in="2923" out="2997">
   <property name="a_track">5</property>
   <property name="b_track">7</property>
   <property name="version">0,2</property>
   <property name="mlt_service">frei0r.addition_alpha</property>
   <property name="force_track">1</property>
  </transition>
  <transition id="transition22" in="9249" out="9629">
   <property name="a_track">5</property>
   <property name="b_track">7</property>
   <property name="version">0,2</property>
   <property name="mlt_service">frei0r.addition_alpha</property>
   <property name="force_track">1</property>
  </transition>
  <transition id="transition23" in="2998" out="3303">
   <property name="a_track">5</property>
   <property name="b_track">7</property>
   <property name="version">0,2</property>
   <property name="mlt_service">frei0r.addition_alpha</property>
   <property name="force_track">1</property>
  </transition>
  <transition id="transition24" out="2003">
   <property name="a_track">5</property>
   <property name="b_track">8</property>
   <property name="start">0/0:100%x100%</property>
   <property name="factory">loader</property>
   <property name="aligned">1</property>
   <property name="progressive">1</property>
   <property name="mlt_service">composite</property>
   <property name="kdenlive_id">composite</property>
   <property name="force_track">1</property>
   <property name="deinterlace">0</property>
   <property name="distort">0</property>
   <property name="fill">1</property>
   <property name="geometry">1172/657:768x432:74</property>
   <property name="halign">centre</property>
   <property name="luma_invert">0</property>
   <property name="operator">over</property>
   <property name="softness">0</property>
   <property name="valign">middle</property>
   <property name="automatic">0</property>
   <property name="luma"/>
  </transition>
  <transition id="transition1" in="2724" out="6266">
   <property name="a_track">5</property>
   <property name="b_track">8</property>
   <property name="start">0/0:100%x100%</property>
   <property name="factory">loader</property>
   <property name="aligned">1</property>
   <property name="progressive">1</property>
   <property name="mlt_service">composite</property>
   <property name="kdenlive_id">composite</property>
   <property name="force_track">1</property>
   <property name="deinterlace">0</property>
   <property name="distort">0</property>
   <property name="fill">1</property>
   <property name="geometry">1172/657:768x432:74</property>
   <property name="halign">centre</property>
   <property name="luma_invert">0</property>
   <property name="operator">over</property>
   <property name="softness">0</property>
   <property name="valign">middle</property>
   <property name="automatic">0</property>
   <property name="luma"/>
  </transition>
  <transition id="transition0" in="9337" out="11020">
   <property name="a_track">5</property>
   <property name="b_track">8</property>
   <property name="start">0/0:100%x100%</property>
   <property name="factory">loader</property>
   <property name="aligned">1</property>
   <property name="progressive">1</property>
   <property name="mlt_service">composite</property>
   <property name="kdenlive_id">composite</property>
   <property name="force_track">1</property>
   <property name="deinterlace">0</property>
   <property name="distort">0</property>
   <property name="fill">1</property>
   <property name="geometry">-50/150:768x432:74</property>
   <property name="halign">centre</property>
   <property name="luma_invert">0</property>
   <property name="operator">over</property>
   <property name="softness">0</property>
   <property name="valign">middle</property>
   <property name="automatic">0</property>
   <property name="luma"/>
  </transition>
  <transition id="transition26" out="2003">
   <property name="a_track">5</property>
   <property name="b_track">9</property>
   <property name="start">0/0:100%x100%</property>
   <property name="factory">loader</property>
   <property name="aligned">1</property>
   <property name="progressive">1</property>
   <property name="mlt_service">composite</property>
   <property name="kdenlive_id">composite</property>
   <property name="force_track">1</property>
   <property name="deinterlace">0</property>
   <property name="distort">0</property>
   <property name="fill">1</property>
   <property name="geometry">1172/657:768x432:100</property>
   <property name="halign">centre</property>
   <property name="luma_invert">0</property>
   <property name="operator">over</property>
   <property name="softness">0</property>
   <property name="valign">middle</property>
   <property name="automatic">0</property>
   <property name="luma"/>
  </transition>
  <transition id="transition27" in="14685" out="15186">
   <property name="a_track">5</property>
   <property name="b_track">9</property>
   <property name="start">0/0:100%x100%</property>
   <property name="factory">loader</property>
   <property name="aligned">1</property>
   <property name="progressive">1</property>
   <property name="mlt_service">composite</property>
   <property name="kdenlive_id">composite</property>
   <property name="force_track">1</property>
   <property name="deinterlace">0</property>
   <property name="distort">0</property>
   <property name="fill">1</property>
   <property name="geometry">1474/734:480x270:74</property>
   <property name="halign">centre</property>
   <property name="luma_invert">0</property>
   <property name="operator">over</property>
   <property name="softness">0</property>
   <property name="valign">middle</property>
   <property name="automatic">0</property>
   <property name="luma"/>
  </transition>
  <transition id="transition25" in="2724" out="6266">
   <property name="a_track">5</property>
   <property name="b_track">9</property>
   <property name="start">0/0:100%x100%</property>
   <property name="factory">loader</property>
   <property name="aligned">1</property>
   <property name="progressive">1</property>
   <property name="mlt_service">composite</property>
   <property name="kdenlive_id">composite</property>
   <property name="force_track">1</property>
   <property name="deinterlace">0</property>
   <property name="distort">0</property>
   <property name="fill">1</property>
   <property name="geometry">1172/657:768x432:100</property>
   <property name="halign">centre</property>
   <property name="luma_invert">0</property>
   <property name="operator">over</property>
   <property name="softness">0</property>
   <property name="valign">middle</property>
   <property name="automatic">0</property>
   <property name="luma"/>
  </transition>
  <transition id="transition32" in="9337" out="11020">
   <property name="a_track">5</property>
   <property name="b_track">9</property>
   <property name="start">0/0:100%x100%</property>
   <property name="factory">loader</property>
   <property name="aligned">1</property>
   <property name="progressive">1</property>
   <property name="mlt_service">composite</property>
   <property name="kdenlive_id">composite</property>
   <property name="force_track">1</property>
   <property name="deinterlace">0</property>
   <property name="distort">0</property>
   <property name="fill">1</property>
   <property name="geometry">-50/150:768x432:100</property>
   <property name="halign">centre</property>
   <property name="luma_invert">0</property>
   <property name="operator">over</property>
   <property name="softness">0</property>
   <property name="valign">middle</property>
   <property name="automatic">0</property>
   <property name="luma"/>
  </transition>
  <transition id="transition33" in="9337" out="11020">
   <property name="a_track">5</property>
   <property name="b_track">10</property>
   <property name="start">0/0:100%x100%</property>
   <property name="factory">loader</property>
   <property name="aligned">1</property>
   <property name="progressive">1</property>
   <property name="mlt_service">composite</property>
   <property name="kdenlive_id">composite</property>
   <property name="force_track">1</property>
   <property name="deinterlace">0</property>
   <property name="distort">0</property>
   <property name="fill">1</property>
   <property name="geometry">-350/150:768x432:74</property>
   <property name="halign">centre</property>
   <property name="luma_invert">0</property>
   <property name="operator">over</property>
   <property name="softness">0</property>
   <property name="valign">middle</property>
   <property name="automatic">0</property>
   <property name="luma"/>
  </transition>
  <transition id="transition34" in="9337" out="11020">
   <property name="a_track">5</property>
   <property name="b_track">11</property>
   <property name="start">0/0:100%x100%</property>
   <property name="factory">loader</property>
   <property name="aligned">1</property>
   <property name="progressive">1</property>
   <property name="mlt_service">composite</property>
   <property name="kdenlive_id">composite</property>
   <property name="force_track">1</property>
   <property name="deinterlace">0</property>
   <property name="distort">0</property>
   <property name="fill">1</property>
   <property name="geometry">-350/150:768x432:100</property>
   <property name="halign">centre</property>
   <property name="luma_invert">0</property>
   <property name="operator">over</property>
   <property name="softness">0</property>
   <property name="valign">middle</property>
   <property name="automatic">0</property>
   <property name="luma"/>
  </transition>
  <transition id="transition35" in="14685" out="15186">
   <property name="a_track">5</property>
   <property name="b_track">12</property>
   <property name="start">0/0:100%x100%</property>
   <property name="factory">loader</property>
   <property name="aligned">1</property>
   <property name="progressive">1</property>
   <property name="mlt_service">composite</property>
   <property name="kdenlive_id">composite</property>
   <property name="force_track">1</property>
   <property name="deinterlace">0</property>
   <property name="distort">0</property>
   <property name="fill">1</property>
   <property name="geometry">1474/734:480x270:100</property>
   <property name="halign">centre</property>
   <property name="luma_invert">0</property>
   <property name="operator">over</property>
   <property name="softness">0</property>
   <property name="valign">middle</property>
   <property name="automatic">0</property>
   <property name="luma"/>
  </transition>
  <transition id="transition36" in="211" out="398">
   <property name="a_track">5</property>
   <property name="b_track">13</property>
   <property name="rect">0=1190 -40 1152 648 0;6=1188,49 -50,8663 1155,08 649,733 1;183=1144,01 -76,4225 1245,95 700,845 1;187=1143 -87 1248 702 0</property>
   <property name="compositing">0</property>
   <property name="distort">0</property>
   <property name="rotate_center">1</property>
   <property name="mlt_service">qtblend</property>
   <property name="kdenlive_id">qtblend</property>
   <property name="force_track">1</property>
   <property name="rotation">0=0;6=0;183=0;187=0</property>
   <property name="automatic">0</property>
  </transition>
  <transition id="transition37" in="732" out="919">
   <property name="a_track">5</property>
   <property name="b_track">13</property>
   <property name="rect">0=1190 -40 1152 648 0;6=1188,49 -50,8663 1155,08 649,733 1;183=1144,01 -76,4225 1245,95 700,845 1;187=1143 -87 1248 702 0</property>
   <property name="compositing">0</property>
   <property name="distort">0</property>
   <property name="rotate_center">1</property>
   <property name="mlt_service">qtblend</property>
   <property name="kdenlive_id">qtblend</property>
   <property name="force_track">1</property>
   <property name="rotation">0=0;6=0;183=0;187=0</property>
  </transition>
  <transition id="transition38" in="9337" out="11020">
   <property name="a_track">5</property>
   <property name="b_track">13</property>
   <property name="start">0/0:100%x100%</property>
   <property name="factory">loader</property>
   <property name="aligned">1</property>
   <property name="progressive">1</property>
   <property name="mlt_service">composite</property>
   <property name="kdenlive_id">composite</property>
   <property name="force_track">1</property>
   <property name="deinterlace">0</property>
   <property name="distort">0</property>
   <property name="fill">1</property>
   <property name="geometry">270/433:500x332:100</property>
   <property name="halign">centre</property>
   <property name="luma_invert">0</property>
   <property name="operator">over</property>
   <property name="softness">1</property>
   <property name="valign">middle</property>
   <property name="automatic">0</property>
   <property name="luma"/>
  </transition>
  <transition id="transition39" out="2003">
   <property name="a_track">5</property>
   <property name="b_track">14</property>
   <property name="version">0,2</property>
   <property name="mlt_service">frei0r.addition_alpha</property>
   <property name="force_track">1</property>
  </transition>
  <transition id="transition40" in="2724" out="6266">
   <property name="a_track">5</property>
   <property name="b_track">14</property>
   <property name="version">0,2</property>
   <property name="mlt_service">frei0r.addition_alpha</property>
   <property name="force_track">1</property>
  </transition>
  <transition id="transition41" in="8875" out="11020">
   <property name="a_track">5</property>
   <property name="b_track">14</property>
   <property name="version">0,2</property>
   <property name="mlt_service">frei0r.addition_alpha</property>
   <property name="force_track">1</property>
  </transition>
  <transition id="transition42" in="14685" out="16685">
   <property name="a_track">5</property>
   <property name="b_track">14</property>
   <property name="version">0,2</property>
   <property name="mlt_service">frei0r.addition_alpha</property>
   <property name="force_track">1</property>
  </transition>
  <transition id="transition43" in="14685" out="16685">
   <property name="a_track">5</property>
   <property name="b_track">15</property>
   <property name="version">0,2</property>
   <property name="mlt_service">frei0r.addition_alpha</property>
   <property name="force_track">1</property>
  </transition>
  <transition id="transition44" in="14685" out="16685">
   <property name="a_track">5</property>
   <property name="b_track">16</property>
   <property name="version">0,2</property>
   <property name="mlt_service">frei0r.addition_alpha</property>
   <property name="force_track">1</property>
  </transition>
  <transition id="transition45" in="14685" out="16685">
   <property name="a_track">5</property>
   <property name="b_track">17</property>
   <property name="version">0,2</property>
   <property name="mlt_service">frei0r.addition_alpha</property>
   <property name="force_track">1</property>
  </transition>
 </tractor>
</mlt>
