<?xml version="1.0" encoding="UTF-8" standalone="no"?>
<!-- Created with Inkscape (http://www.inkscape.org/) -->

<svg
   xmlns:dc="http://purl.org/dc/elements/1.1/"
   xmlns:cc="http://creativecommons.org/ns#"
   xmlns:rdf="http://www.w3.org/1999/02/22-rdf-syntax-ns#"
   xmlns:svg="http://www.w3.org/2000/svg"
   xmlns="http://www.w3.org/2000/svg"
   xmlns:sodipodi="http://sodipodi.sourceforge.net/DTD/sodipodi-0.dtd"
   xmlns:inkscape="http://www.inkscape.org/namespaces/inkscape"
   width="151.63951mm"
   height="59.944328mm"
   viewBox="0 0 151.63951 59.944329"
   version="1.1"
   id="svg8"
   inkscape:version="0.92.4 (5da689c313, 2019-01-14)"
   sodipodi:docname="sunglasses.svg"
   inkscape:export-filename="/media/bordun/plagiat/Clip02_RespecteLaPuissancePapale/Assets/sunglasses.png"
   inkscape:export-xdpi="318.85773"
   inkscape:export-ydpi="318.85773">
  <defs
     id="defs2" />
  <sodipodi:namedview
     id="base"
     pagecolor="#ffffff"
     bordercolor="#666666"
     borderopacity="1.0"
     inkscape:pageopacity="0.0"
     inkscape:pageshadow="2"
     inkscape:zoom="1.4"
     inkscape:cx="165.60449"
     inkscape:cy="-19.135233"
     inkscape:document-units="mm"
     inkscape:current-layer="layer1"
     showgrid="false"
     inkscape:window-width="1920"
     inkscape:window-height="1003"
     inkscape:window-x="0"
     inkscape:window-y="24"
     inkscape:window-maximized="1"
     fit-margin-top="0"
     fit-margin-left="0"
     fit-margin-right="0"
     fit-margin-bottom="0" />
  <metadata
     id="metadata5">
    <rdf:RDF>
      <cc:Work
         rdf:about="">
        <dc:format>image/svg+xml</dc:format>
        <dc:type
           rdf:resource="http://purl.org/dc/dcmitype/StillImage" />
        <dc:title />
      </cc:Work>
    </rdf:RDF>
  </metadata>
  <g
     inkscape:label="Calque 1"
     inkscape:groupmode="layer"
     id="layer1"
     transform="translate(-44.573344,-124.9706)">
    <path
       sodipodi:nodetypes="ccsscccscsssscccscccccc"
       style="fill:#1d1816;fill-opacity:0.88235295;stroke-width:4.082;stroke-miterlimit:4;stroke-dasharray:none;stroke:#5f5a53;stroke-opacity:1"
       d="m 160.90984,181.9397 c -3.00272,-0.51941 -4.1153,-0.7911 -6.32918,-1.5456 -4.67481,-1.59318 -7.32615,-3.25626 -10.63396,-6.67026 -3.89976,-4.02496 -6.21276,-8.54595 -7.35801,-14.38198 -0.46985,-2.39429 -0.57535,-8.26131 -0.157,-8.73125 0.45675,-0.51307 0.53448,-1.02288 0.28895,-1.8953 -0.15142,-0.53802 -0.0677,-0.83524 0.35377,-1.25677 0.30365,-0.30365 0.5521,-0.74667 0.5521,-0.9845 0,-0.75209 2.32323,-5.37222 3.60386,-7.16685 3.24527,-4.54785 8.59252,-8.56984 14.13421,-10.63119 4.50585,-1.67605 10.72358,-2.27934 15.4558,-1.49965 6.64051,1.09411 12.11718,3.90204 16.48561,8.45231 2.37382,2.47263 3.79155,4.45962 5.21503,7.30904 0.54523,1.0914 1.14083,2.16297 1.32356,2.38125 0.18272,0.21828 0.53119,1.94469 0.77437,3.83646 0.24319,1.89177 0.4991,3.7915 0.56871,4.22162 0.0696,0.43012 -0.0599,1.62074 -0.28778,2.64583 -0.22788,1.02509 -0.65327,2.93536 -0.9453,4.24505 -0.68969,3.093 -3.12285,8.07144 -5.1725,10.58333 -4.15523,5.09231 -9.71864,8.59724 -16.47564,10.3796 -2.08115,0.54896 -3.2647,0.682 -6.6341,0.74572 -2.25557,0.0427 -4.3987,0.0261 -4.7625,-0.0369 z"
       id="path941"
       inkscape:connector-curvature="0" />
    <g
       id="g975"
       style="fill:#5f5a53;fill-opacity:1">
      <path
         id="path936"
         transform="matrix(0.26458333,0,0,0.26458333,44.573344,124.9706)"
         d="M 113.49219 5.9121094 C 103.86713 5.7802968 94.428584 6.8855829 85.248047 9.234375 C 51.049642 17.983944 25.991296 38.047008 11.496094 68.285156 C 8.6830216 74.153402 5.6881965 79.22108 4.8398438 79.546875 C 3.7845165 79.951851 3.2929665 81.725196 3.28125 85.162109 C 3.272833 87.925057 2.5449834 92.255443 1.6640625 94.785156 C 0.78310376 97.314794 0.018021703 101.55296 -0.03515625 104.20312 C -0.088330423 106.85322 -0.51140093 110.34876 -0.9765625 111.9707 C -1.616206 114.20096 -1.3709745 115.36213 0.033203125 116.73633 C 1.2271521 117.90477 2.3561667 121.70045 3.1953125 127.36914 C 7.9991185 159.82047 24.813192 187.31831 49.798828 203.58789 C 65.552904 213.84621 82.014951 220.71863 97.582031 223.5332 C 102.06625 224.34391 112.28001 225.04978 120.2793 225.10156 C 166.35603 225.40026 203.12287 204.02005 221.82227 166.05273 C 229.768 149.91967 231.54775 141.96685 231.86523 121.18164 C 232.09242 106.30746 231.8846 103.56866 230.39648 101.89648 C 229.23953 100.59644 228.66211 98.060374 228.66211 94.279297 C 228.66211 91.161754 228.37052 88.611328 228.01562 88.611328 C 227.66077 88.611328 226.52838 86.363947 225.49805 83.619141 C 212.9445 50.177314 185.51305 23.876527 151.38086 12.554688 C 138.54986 8.2985308 125.86726 6.0815826 113.49219 5.9121094 z M 113.58008 11.195312 C 125.35854 11.356621 137.42823 13.466643 149.64062 17.517578 C 182.12728 28.293578 208.23724 53.326694 220.18555 85.15625 C 221.16622 87.768735 222.24425 89.90625 222.58203 89.90625 C 222.91992 89.90625 223.19727 92.335503 223.19727 95.302734 C 223.19727 98.901525 223.74649 101.31535 224.84766 102.55273 C 226.26403 104.14433 226.46236 106.74916 226.24609 120.90625 C 225.94373 140.68939 224.25018 148.25996 216.6875 163.61523 C 198.88961 199.75213 163.89439 220.1007 120.03906 219.81641 C 112.42543 219.76689 102.70553 219.09588 98.4375 218.32422 C 83.62092 215.64537 67.951589 209.1056 52.957031 199.3418 C 29.175979 183.85662 13.17377 157.6837 8.6015625 126.79688 C 7.8028727 121.40149 6.7281874 117.78982 5.5917969 116.67773 C 4.2553181 115.36979 4.0201 114.26336 4.6289062 112.14062 C 5.0716401 110.59688 5.4767359 107.27039 5.5273438 104.74805 C 5.5779894 102.22567 6.3040899 98.192866 7.1425781 95.785156 C 7.9810285 93.377446 8.673628 89.254757 8.6816406 86.625 C 8.6929792 83.353743 9.1615684 81.666686 10.166016 81.28125 C 10.973474 80.971329 13.824498 76.147886 16.501953 70.5625 C 30.298325 41.782154 54.147596 22.687073 86.697266 14.359375 C 95.435199 12.123801 104.41905 11.06985 113.58008 11.195312 z "
         style="fill:#5f5a53;fill-opacity:1;stroke-width:1.05065322" />
      <path
         id="path938"
         transform="matrix(0.26458333,0,0,0.26458333,44.573344,124.9706)"
         d="M 459.17188 3.1113281 C 444.65157 3.258962 429.22307 5.8071636 416.99023 10.357422 C 395.10658 18.497542 373.99106 34.380776 361.17578 52.339844 C 356.11866 59.426685 346.94336 77.670672 346.94336 80.640625 C 346.94336 81.579762 345.96276 83.330204 344.76367 84.529297 C 343.09947 86.193876 342.76923 87.367602 343.36719 89.492188 C 344.33675 92.937302 344.02828 94.950509 342.22461 96.976562 C 340.57258 98.832311 340.9903 122.00025 342.8457 131.45508 C 347.36821 154.50105 356.50255 172.35381 371.90234 188.24805 C 384.96462 201.72962 395.43411 208.29653 413.89453 214.58789 C 422.63692 217.56733 427.02924 218.64033 438.88672 220.69141 C 440.32332 220.94048 448.7863 221.00646 457.69336 220.83789 C 470.99885 220.58625 475.6743 220.06036 483.89258 217.89258 C 510.5754 210.85419 532.54446 197.01342 548.95312 176.9043 C 557.04698 166.98508 566.65538 147.32532 569.37891 135.11133 C 570.53212 129.9395 572.21142 122.39564 573.11133 118.34766 C 574.01112 114.29967 574.52282 109.59887 574.24805 107.90039 C 573.97316 106.20187 572.96226 98.700894 572.00195 91.230469 C 571.04165 83.760006 569.66491 76.942037 568.94336 76.080078 C 568.22177 75.218119 565.86988 70.985614 563.7168 66.675781 C 558.09562 55.423674 552.49707 47.578674 543.12305 37.814453 C 525.87249 19.845823 504.24625 8.7561138 478.02344 4.4355469 C 472.18371 3.4733855 465.77201 3.0442218 459.17188 3.1113281 z M 459.11133 7.0703125 C 465.42836 7.006087 471.56506 7.4150438 477.1543 8.3359375 C 502.25229 12.471156 522.95229 23.085332 539.46289 40.283203 C 548.43481 49.628576 553.79179 57.136789 559.17188 67.90625 C 561.23259 72.031226 563.4832 76.081255 564.17383 76.90625 C 564.86442 77.731245 566.18246 84.256253 567.10156 91.40625 C 568.02071 98.556247 568.98691 105.73763 569.25 107.36328 C 569.51306 108.98893 569.02534 113.48893 568.16406 117.36328 C 567.30278 121.23764 565.69358 128.45624 564.58984 133.40625 C 561.98314 145.09633 552.78772 163.91249 545.04102 173.40625 C 529.33621 192.65278 508.30975 205.90024 482.77148 212.63672 C 474.90572 214.71153 470.43201 215.21425 457.69727 215.45508 C 449.17228 215.61646 441.07226 215.55452 439.69727 215.31641 C 428.3484 213.35328 424.14281 212.32626 415.77539 209.47461 C 398.10682 203.45314 388.08594 197.16698 375.58398 184.26367 C 360.84473 169.05122 352.10389 151.96369 347.77539 129.90625 C 345.99958 120.85696 345.60048 98.682401 347.18164 96.90625 C 348.90794 94.967088 349.20142 93.041476 348.27344 89.744141 C 347.70114 87.710679 348.01642 86.587325 349.60938 84.994141 C 350.75703 83.846487 351.69727 82.172323 351.69727 81.273438 C 351.69727 78.430893 360.47818 60.9684 365.31836 54.185547 C 377.58395 36.996822 397.79331 21.794835 418.73828 14.003906 C 430.4464 9.6488157 445.21386 7.2116086 459.11133 7.0703125 z "
         style="fill:#5f5a53;fill-opacity:1;stroke-width:1.04481697" />
      <path
         sodipodi:nodetypes="csscccccc"
         inkscape:connector-curvature="0"
         id="path947"
         d="m 137.74447,143.33755 c -0.50309,-0.25155 -5.88681,-1.27718 -11.51094,-1.46471 -5.72827,-0.191 -11.74125,0.45916 -17.0228,0.54454 -5.11674,0.0827 -7.94096,0.92017 -7.94096,0.92017 l 2.26786,4.15773 9.82763,-0.55404 14.17346,-0.37546 9.11907,0.9767 z"
         style="fill:#5f5a53;fill-opacity:1;fill-rule:evenodd;stroke:none;stroke-width:0.26458332px;stroke-linecap:butt;stroke-linejoin:miter;stroke-opacity:1" />
    </g>
    <path
       inkscape:connector-curvature="0"
       id="path949"
       d="m 70.834276,181.41918 c -3.730471,-0.67447 -7.675479,-2.32104 -11.45076,-4.77934 -5.987518,-3.89881 -10.0166,-10.48842 -11.167775,-18.26501 -0.201092,-1.35843 -0.471554,-2.26798 -0.757672,-2.54798 -0.336494,-0.32932 -0.395541,-0.60766 -0.242257,-1.14213 0.11147,-0.38866 0.213109,-1.22628 0.225853,-1.86135 0.01275,-0.63508 0.195905,-1.65068 0.407017,-2.25687 0.211101,-0.60621 0.385482,-1.64393 0.387499,-2.30604 0.0029,-0.82363 0.120406,-1.24863 0.373302,-1.34568 0.2033,-0.0781 0.921194,-1.29244 1.595315,-2.69871 3.473606,-7.24621 9.478385,-12.05408 17.673636,-14.1508 5.028592,-1.28654 10.381661,-1.01792 15.84797,0.79529 8.179385,2.71315 14.75307,9.01619 17.761376,17.03013 0.24691,0.65778 0.51852,1.19595 0.60356,1.19595 0.0851,0 0.15462,0.61125 0.15462,1.35833 0,0.90611 0.13838,1.51385 0.41564,1.82539 0.35661,0.40073 0.40661,1.05692 0.35216,4.62135 -0.0761,4.98093 -0.50266,6.88675 -2.40677,10.75285 -4.481094,9.09843 -13.291828,14.22204 -24.333582,14.15047 -1.916936,-0.0125 -4.36454,-0.18156 -5.439132,-0.37585 z"
       style="fill:#1d1816;fill-opacity:0.88235294;stroke:#5f5a53;stroke-width:4.082;stroke-miterlimit:4;stroke-dasharray:none;stroke-opacity:1"
       sodipodi:nodetypes="sssccccccscccssccscs" />
  </g>
</svg>
